<?xml version="1.0" standalone="no"?><!DOCTYPE svg PUBLIC "-//W3C//DTD SVG 1.1//EN" "http://www.w3.org/Graphics/SVG/1.1/DTD/svg11.dtd"><svg xmlns="http://www.w3.org/2000/svg" viewBox="648 653 196 190" version = "1.1">
<g id="10101" ><path d="M 796,655 L 797,656 L 798,657 L 799,657 L 799,658 L 800,658 L 801,659 L 802,659 L 803,659 L 803,660 L 804,660 L 804,661 L 804,662 L 805,662 L 806,662 L 807,662 L 808,662 L 808,663 L 809,663 L 810,663 L 811,664 L 812,664 L 812,665 L 812,666 L 812,667 L 812,668 L 813,668 L 813,669 L 813,670 L 814,670 L 815,670 L 816,670 L 816,671 L 817,671 L 818,671 L 819,671 L 819,670 L 820,670 L 820,671 L 821,671 L 822,672 L 823,673 L 824,673 L 824,674 L 825,675 L 826,676 L 827,676 L 827,677 L 827,678 L 827,679 L 827,680 L 828,681 L 828,682 L 827,683 L 827,684 L 826,685 L 825,686 L 824,686 L 824,687 L 824,688 L 824,689 L 825,689 L 825,690 L 826,690 L 827,690 L 828,690 L 829,690 L 829,691 L 830,691 L 830,692 L 830,693 L 831,693 L 831,694 L 832,695 L 831,695 L 831,696 L 830,697 L 830,698 L 831,698 L 832,698 L 833,698 L 833,699 L 832,699 L 832,700 L 832,701 L 833,701 L 833,702 L 834,702 L 834,703 L 834,704 L 833,704 L 833,705 L 833,706 L 832,706 L 833,706 L 834,706 L 834,707 L 835,707 L 835,708 L 836,708 L 836,709 L 836,710 L 836,711 L 837,711 L 837,712 L 838,712 L 838,713 L 838,714 L 838,715 L 839,715 L 840,715 L 840,716 L 841,717 L 842,718 L 843,719 L 843,720 L 844,721 L 844,722 L 843,722 L 843,723 L 844,724 L 844,725 L 844,726 L 844,727 L 844,728 L 843,728 L 842,728 L 842,729 L 841,728 L 841,729 L 840,729 L 839,729 L 839,730 L 838,730 L 837,731 L 835,730 L 834,729 L 833,730 L 832,732 L 831,732 L 831,733 L 830,733 L 830,734 L 830,737 L 829,737 L 828,737 L 827,737 L 826,737 L 826,738 L 825,739 L 825,742 L 824,742 L 824,743 L 823,743 L 823,744 L 822,744 L 822,745 L 821,746 L 822,747 L 822,748 L 821,749 L 823,752 L 825,752 L 826,753 L 827,753 L 828,755 L 829,758 L 829,762 L 828,763 L 827,763 L 826,763 L 824,764 L 823,764 L 822,764 L 821,764 L 821,763 L 821,762 L 820,761 L 818,759 L 817,758 L 816,756 L 814,756 L 813,756 L 812,756 L 811,757 L 813,759 L 813,761 L 815,762 L 816,765 L 818,770 L 820,771 L 821,773 L 822,777 L 824,779 L 822,781 L 822,782 L 821,782 L 820,782 L 819,783 L 819,782 L 819,783 L 818,783 L 818,782 L 817,782 L 817,783 L 817,784 L 817,785 L 817,786 L 817,787 L 818,787 L 818,788 L 818,789 L 819,789 L 819,790 L 819,791 L 819,792 L 819,793 L 820,793 L 821,793 L 822,794 L 822,795 L 822,796 L 822,797 L 822,798 L 822,799 L 822,800 L 822,801 L 821,801 L 820,801 L 820,802 L 820,803 L 820,804 L 820,805 L 820,806 L 820,807 L 821,807 L 820,807 L 820,808 L 819,808 L 819,809 L 818,809 L 817,809 L 816,809 L 816,808 L 815,808 L 815,809 L 815,810 L 815,811 L 814,811 L 813,811 L 812,811 L 812,812 L 812,813 L 812,814 L 812,815 L 813,816 L 814,816 L 814,817 L 814,818 L 815,818 L 815,819 L 815,820 L 816,820 L 816,821 L 817,821 L 817,822 L 817,823 L 816,823 L 816,824 L 816,825 L 815,825 L 815,826 L 815,827 L 816,827 L 815,827 L 815,828 L 814,828 L 813,828 L 813,829 L 813,828 L 812,828 L 812,829 L 811,829 L 811,830 L 811,829 L 810,828 L 809,827 L 808,826 L 808,825 L 807,824 L 807,823 L 807,822 L 806,822 L 806,821 L 806,820 L 805,820 L 805,819 L 805,818 L 804,818 L 804,817 L 804,816 L 803,816 L 803,815 L 803,814 L 803,813 L 802,813 L 801,813 L 801,814 L 800,814 L 800,815 L 799,815 L 798,815 L 797,816 L 796,816 L 795,816 L 795,817 L 795,818 L 796,818 L 796,819 L 795,820 L 794,820 L 794,821 L 793,821 L 793,820 L 792,820 L 792,819 L 793,819 L 792,819 L 793,819 L 793,818 L 793,817 L 793,816 L 793,815 L 793,814 L 792,814 L 792,815 L 792,814 L 791,814 L 791,815 L 790,815 L 789,815 L 790,814 L 789,814 L 788,814 L 788,815 L 788,816 L 788,817 L 788,818 L 789,818 L 789,819 L 789,820 L 789,821 L 789,822 L 788,822 L 788,823 L 787,824 L 786,824 L 785,825 L 784,825 L 784,826 L 784,827 L 783,828 L 783,829 L 782,829 L 783,829 L 783,830 L 784,830 L 784,831 L 784,832 L 784,833 L 785,833 L 784,833 L 784,834 L 785,834 L 785,835 L 785,836 L 784,837 L 783,837 L 782,836 L 780,836 L 780,835 L 780,834 L 780,832 L 779,832 L 778,832 L 777,832 L 776,832 L 775,832 L 774,832 L 773,832 L 773,831 L 774,831 L 773,831 L 773,830 L 773,829 L 773,828 L 772,828 L 772,827 L 771,827 L 770,827 L 768,829 L 763,825 L 763,824 L 764,824 L 764,823 L 765,823 L 765,822 L 764,821 L 764,820 L 763,820 L 763,819 L 763,818 L 763,817 L 763,816 L 762,816 L 759,815 L 757,815 L 754,817 L 752,816 L 750,817 L 750,818 L 750,821 L 751,823 L 749,824 L 748,824 L 748,825 L 746,825 L 744,826 L 743,826 L 742,828 L 741,828 L 739,827 L 738,826 L 737,826 L 736,825 L 735,825 L 733,825 L 734,828 L 733,830 L 732,832 L 731,834 L 729,835 L 729,836 L 729,837 L 730,838 L 731,840 L 731,841 L 730,842 L 729,843 L 728,843 L 728,841 L 727,840 L 726,838 L 725,837 L 724,836 L 723,839 L 722,839 L 721,839 L 721,840 L 720,840 L 719,840 L 718,840 L 718,841 L 718,840 L 717,840 L 717,841 L 716,841 L 715,841 L 715,842 L 714,842 L 714,843 L 713,842 L 713,841 L 712,841 L 712,840 L 711,839 L 711,838 L 711,837 L 710,837 L 710,836 L 710,835 L 710,834 L 709,834 L 709,833 L 708,832 L 707,832 L 706,832 L 705,832 L 704,832 L 704,831 L 703,831 L 702,831 L 701,831 L 700,831 L 699,831 L 698,831 L 698,830 L 697,830 L 696,830 L 696,829 L 695,829 L 694,829 L 694,828 L 693,827 L 692,826 L 691,826 L 690,826 L 689,826 L 688,826 L 687,825 L 686,824 L 686,823 L 685,822 L 684,821 L 684,820 L 683,820 L 683,819 L 683,818 L 682,818 L 682,817 L 681,817 L 681,816 L 680,816 L 679,815 L 678,815 L 677,815 L 677,814 L 676,814 L 676,815 L 676,816 L 675,816 L 674,816 L 673,816 L 672,816 L 672,817 L 671,817 L 671,816 L 670,816 L 670,815 L 669,815 L 669,814 L 668,814 L 667,814 L 666,814 L 665,814 L 664,814 L 664,813 L 663,813 L 663,812 L 662,812 L 662,811 L 662,810 L 662,809 L 661,809 L 662,809 L 661,809 L 661,808 L 660,808 L 660,807 L 659,807 L 658,806 L 659,805 L 658,804 L 658,803 L 658,802 L 658,801 L 657,800 L 657,799 L 657,798 L 656,797 L 656,796 L 655,796 L 655,795 L 655,794 L 655,793 L 654,792 L 654,791 L 653,791 L 653,790 L 652,790 L 652,789 L 651,788 L 650,787 L 650,786 L 649,786 L 649,785 L 649,784 L 648,784 L 649,784 L 648,784 L 649,784 L 650,784 L 650,783 L 651,783 L 652,783 L 653,783 L 653,782 L 653,783 L 653,782 L 654,782 L 655,782 L 655,781 L 656,781 L 656,782 L 656,781 L 657,781 L 658,781 L 658,780 L 659,781 L 660,781 L 660,780 L 661,780 L 662,780 L 662,779 L 663,779 L 663,778 L 664,778 L 665,778 L 665,777 L 665,778 L 666,777 L 667,777 L 667,776 L 668,776 L 668,775 L 669,774 L 669,773 L 669,772 L 670,771 L 670,770 L 670,769 L 671,769 L 672,768 L 673,768 L 674,768 L 674,767 L 675,767 L 675,766 L 676,766 L 677,766 L 677,765 L 676,765 L 677,765 L 677,764 L 678,764 L 679,764 L 679,763 L 680,763 L 681,763 L 681,762 L 682,762 L 683,762 L 683,761 L 683,760 L 684,760 L 685,760 L 686,760 L 686,759 L 687,759 L 688,759 L 689,759 L 689,760 L 690,760 L 690,761 L 691,761 L 692,761 L 693,761 L 694,760 L 693,760 L 694,759 L 695,758 L 696,758 L 697,757 L 698,757 L 699,758 L 700,759 L 701,760 L 702,761 L 703,761 L 703,760 L 703,761 L 703,762 L 703,761 L 704,761 L 704,762 L 705,762 L 705,763 L 705,764 L 706,765 L 706,766 L 707,766 L 707,767 L 708,766 L 709,765 L 709,764 L 710,763 L 710,762 L 710,761 L 710,760 L 710,759 L 711,759 L 711,758 L 712,758 L 712,757 L 712,756 L 711,756 L 711,755 L 711,754 L 711,753 L 711,752 L 711,751 L 712,751 L 712,750 L 712,751 L 712,750 L 712,751 L 712,750 L 713,750 L 713,751 L 714,751 L 714,752 L 715,752 L 716,752 L 717,752 L 718,753 L 717,753 L 718,754 L 718,755 L 720,755 L 721,755 L 723,754 L 724,752 L 725,753 L 726,757 L 727,761 L 725,764 L 723,767 L 724,769 L 724,770 L 728,770 L 731,770 L 732,771 L 734,772 L 736,773 L 736,774 L 737,774 L 737,775 L 738,775 L 739,774 L 738,773 L 740,772 L 743,772 L 743,770 L 745,769 L 746,768 L 747,766 L 748,766 L 748,765 L 749,764 L 750,763 L 751,763 L 751,761 L 752,759 L 753,757 L 753,755 L 755,754 L 756,752 L 754,749 L 754,742 L 753,738 L 752,737 L 752,736 L 751,735 L 752,734 L 753,733 L 754,731 L 753,727 L 752,727 L 752,726 L 751,726 L 751,725 L 751,724 L 748,719 L 748,718 L 748,717 L 748,716 L 749,716 L 749,715 L 750,716 L 751,716 L 751,715 L 751,714 L 751,713 L 752,713 L 752,712 L 752,711 L 752,710 L 752,709 L 751,708 L 755,706 L 760,710 L 763,715 L 763,716 L 764,716 L 764,717 L 765,718 L 767,718 L 770,720 L 770,719 L 771,719 L 772,720 L 772,719 L 772,720 L 772,719 L 773,719 L 773,720 L 773,719 L 773,720 L 773,719 L 774,719 L 774,720 L 775,720 L 775,721 L 776,720 L 783,718 L 784,715 L 784,714 L 785,714 L 785,713 L 786,713 L 787,713 L 787,712 L 787,711 L 788,711 L 788,710 L 789,710 L 789,709 L 790,708 L 790,706 L 789,702 L 788,700 L 785,698 L 784,697 L 784,694 L 784,692 L 783,690 L 780,685 L 778,684 L 778,681 L 779,680 L 777,676 L 775,676 L 773,674 L 773,673 L 772,670 L 771,662 L 770,659 L 768,657 L 769,655 L 770,655 L 771,655 L 772,654 L 773,654 L 774,655 L 775,655 L 776,656 L 776,657 L 777,658 L 777,659 L 778,659 L 779,658 L 780,658 L 781,657 L 782,657 L 783,657 L 784,656 L 785,656 L 785,657 L 786,657 L 787,657 L 787,656 L 788,656 L 788,655 L 789,655 L 790,654 L 791,654 L 792,654 L 792,655 L 793,655 L 794,655 L 795,654 L 795,653 L 796,653 L 797,653 L 797,654 L 796,654 L 796,655 " /></g>
</svg>
