<?xml version="1.0" standalone="no"?><!DOCTYPE svg PUBLIC "-//W3C//DTD SVG 1.1//EN" "http://www.w3.org/Graphics/SVG/1.1/DTD/svg11.dtd"><svg xmlns="http://www.w3.org/2000/svg" viewBox="714 815 82 91" version = "1.1">
<g id="10102" ><path d="M 763,817 L 763,818 L 763,819 L 763,820 L 764,820 L 764,821 L 765,822 L 765,823 L 764,823 L 764,824 L 763,824 L 763,825 L 768,829 L 770,827 L 771,827 L 772,827 L 772,828 L 773,828 L 773,829 L 773,830 L 773,831 L 774,831 L 773,831 L 773,832 L 774,832 L 775,832 L 776,832 L 777,832 L 778,832 L 779,832 L 780,832 L 780,834 L 780,835 L 780,836 L 779,836 L 778,837 L 778,838 L 777,838 L 776,839 L 776,840 L 777,842 L 778,844 L 779,849 L 783,856 L 785,861 L 789,866 L 791,867 L 795,873 L 796,875 L 795,876 L 795,877 L 795,878 L 794,878 L 793,879 L 793,880 L 792,880 L 792,881 L 792,882 L 793,883 L 793,884 L 793,885 L 793,886 L 793,887 L 793,888 L 793,889 L 793,890 L 793,891 L 793,892 L 793,893 L 793,894 L 792,894 L 792,895 L 792,896 L 792,897 L 792,898 L 792,899 L 791,899 L 791,900 L 791,901 L 791,902 L 790,902 L 790,903 L 790,904 L 790,905 L 789,905 L 789,906 L 788,906 L 788,905 L 787,905 L 787,904 L 786,904 L 785,904 L 784,905 L 783,905 L 782,904 L 781,904 L 780,903 L 779,903 L 778,902 L 777,902 L 777,901 L 776,901 L 775,901 L 774,901 L 773,900 L 772,899 L 771,898 L 771,897 L 772,897 L 771,896 L 771,895 L 770,894 L 769,894 L 769,893 L 768,892 L 767,892 L 766,892 L 765,892 L 764,892 L 763,892 L 762,891 L 761,891 L 760,890 L 759,891 L 758,891 L 757,891 L 756,890 L 755,890 L 754,890 L 753,890 L 753,889 L 752,889 L 751,889 L 750,889 L 750,888 L 749,888 L 748,888 L 747,888 L 746,888 L 745,888 L 744,888 L 743,888 L 742,888 L 741,888 L 741,887 L 740,886 L 739,886 L 739,885 L 739,884 L 739,883 L 738,883 L 738,882 L 737,881 L 737,880 L 737,879 L 736,879 L 736,878 L 736,877 L 735,876 L 734,876 L 733,876 L 732,876 L 731,875 L 730,875 L 729,874 L 728,874 L 727,874 L 726,873 L 725,873 L 724,873 L 724,872 L 723,872 L 722,871 L 721,871 L 721,870 L 721,869 L 721,868 L 720,868 L 720,867 L 721,867 L 721,866 L 721,865 L 720,865 L 720,864 L 719,864 L 719,863 L 718,863 L 718,862 L 718,861 L 717,861 L 717,860 L 717,859 L 717,858 L 716,858 L 716,857 L 715,857 L 715,856 L 715,855 L 714,855 L 714,854 L 714,853 L 714,852 L 714,851 L 715,851 L 715,850 L 715,849 L 715,848 L 715,847 L 715,846 L 715,845 L 715,844 L 714,843 L 714,842 L 715,842 L 715,841 L 716,841 L 717,841 L 717,840 L 718,840 L 718,841 L 718,840 L 719,840 L 720,840 L 721,840 L 721,839 L 722,839 L 723,839 L 724,836 L 725,837 L 726,838 L 727,840 L 728,841 L 728,843 L 729,843 L 730,842 L 731,841 L 731,840 L 730,838 L 729,837 L 729,836 L 729,835 L 731,834 L 732,832 L 733,830 L 734,828 L 733,825 L 735,825 L 736,825 L 737,826 L 738,826 L 739,827 L 741,828 L 742,828 L 743,826 L 744,826 L 746,825 L 748,825 L 748,824 L 749,824 L 751,823 L 750,821 L 750,818 L 750,817 L 752,816 L 754,817 L 757,815 L 759,815 L 762,816 L 763,816 L 763,817 " /></g>
</svg>
