<?xml version="1.0" standalone="no"?><!DOCTYPE svg PUBLIC "-//W3C//DTD SVG 1.1//EN" "http://www.w3.org/Graphics/SVG/1.1/DTD/svg11.dtd"><svg xmlns="http://www.w3.org/2000/svg" viewBox="612 566 178 209" version = "1.1">
<g id="10103" ><path d="M 625,572 L 626,572 L 627,572 L 629,572 L 631,573 L 632,574 L 632,575 L 633,575 L 634,575 L 635,575 L 636,575 L 637,575 L 638,575 L 642,575 L 643,575 L 645,575 L 646,575 L 647,575 L 648,575 L 649,576 L 650,576 L 650,577 L 651,577 L 651,578 L 652,578 L 652,579 L 653,579 L 654,580 L 655,580 L 656,580 L 656,581 L 657,581 L 657,582 L 658,582 L 658,583 L 659,583 L 659,584 L 660,584 L 661,584 L 662,584 L 662,585 L 663,585 L 663,584 L 664,584 L 665,584 L 665,583 L 666,583 L 666,582 L 666,581 L 667,581 L 668,581 L 669,581 L 670,582 L 671,581 L 672,581 L 672,580 L 673,580 L 673,579 L 674,579 L 675,579 L 676,579 L 676,580 L 677,580 L 678,580 L 678,581 L 679,581 L 680,582 L 681,583 L 682,583 L 683,583 L 684,583 L 684,584 L 685,584 L 686,584 L 686,583 L 687,583 L 688,583 L 689,583 L 690,583 L 690,584 L 691,584 L 691,585 L 692,586 L 692,587 L 693,587 L 694,587 L 694,586 L 695,586 L 695,585 L 696,585 L 697,585 L 698,585 L 699,585 L 699,586 L 700,586 L 700,587 L 701,587 L 702,587 L 703,587 L 704,587 L 704,588 L 705,589 L 706,589 L 707,589 L 707,590 L 708,590 L 709,590 L 710,590 L 711,591 L 711,592 L 712,592 L 713,592 L 714,592 L 714,591 L 715,591 L 716,591 L 717,592 L 718,593 L 719,593 L 720,593 L 721,594 L 722,594 L 722,595 L 723,595 L 724,595 L 725,596 L 726,596 L 726,595 L 727,595 L 728,595 L 728,594 L 728,593 L 728,592 L 728,591 L 729,590 L 730,589 L 731,590 L 732,590 L 733,591 L 734,591 L 734,592 L 735,592 L 735,593 L 734,593 L 734,594 L 733,595 L 734,596 L 734,597 L 734,598 L 733,598 L 733,599 L 733,600 L 733,601 L 733,602 L 734,602 L 734,603 L 735,603 L 736,603 L 737,603 L 737,602 L 738,602 L 738,601 L 739,600 L 739,599 L 740,598 L 741,598 L 742,598 L 742,599 L 743,599 L 743,600 L 744,600 L 745,601 L 745,602 L 746,602 L 746,603 L 746,604 L 747,604 L 747,605 L 748,605 L 748,606 L 748,607 L 748,608 L 749,608 L 748,609 L 748,610 L 748,611 L 747,612 L 747,613 L 748,613 L 748,614 L 748,615 L 749,615 L 749,616 L 749,617 L 749,618 L 750,618 L 751,618 L 751,619 L 751,620 L 752,620 L 753,620 L 754,620 L 755,620 L 756,620 L 757,620 L 757,619 L 758,619 L 759,619 L 760,618 L 761,618 L 762,618 L 762,619 L 763,619 L 763,621 L 763,622 L 763,623 L 763,624 L 763,625 L 764,626 L 764,627 L 763,627 L 763,628 L 763,629 L 764,629 L 764,630 L 765,631 L 765,632 L 765,633 L 765,634 L 766,635 L 766,636 L 766,637 L 766,638 L 765,638 L 765,639 L 765,640 L 764,641 L 764,642 L 763,643 L 763,644 L 763,645 L 763,646 L 763,647 L 763,648 L 763,649 L 763,650 L 762,651 L 762,652 L 763,652 L 763,653 L 764,653 L 764,654 L 765,655 L 766,655 L 767,655 L 768,655 L 769,655 L 768,657 L 770,659 L 771,662 L 772,670 L 773,673 L 773,674 L 775,676 L 777,676 L 779,680 L 778,681 L 778,684 L 780,685 L 783,690 L 784,692 L 784,694 L 784,697 L 785,698 L 788,700 L 789,702 L 790,706 L 790,708 L 789,709 L 789,710 L 788,710 L 788,711 L 787,711 L 787,712 L 787,713 L 786,713 L 785,713 L 785,714 L 784,714 L 784,715 L 783,718 L 776,720 L 775,721 L 775,720 L 774,720 L 774,719 L 773,719 L 773,720 L 773,719 L 773,720 L 773,719 L 772,719 L 772,720 L 772,719 L 772,720 L 771,719 L 770,719 L 770,720 L 767,718 L 765,718 L 764,717 L 764,716 L 763,716 L 763,715 L 760,710 L 755,706 L 751,708 L 752,709 L 752,710 L 752,711 L 752,712 L 752,713 L 751,713 L 751,714 L 751,715 L 751,716 L 750,716 L 749,715 L 749,716 L 748,716 L 748,717 L 748,718 L 748,719 L 751,724 L 751,725 L 751,726 L 752,726 L 752,727 L 753,727 L 754,731 L 753,733 L 752,734 L 751,735 L 752,736 L 752,737 L 753,738 L 754,742 L 754,749 L 756,752 L 755,754 L 753,755 L 753,757 L 752,759 L 751,761 L 751,763 L 750,763 L 749,764 L 748,765 L 748,766 L 747,766 L 746,768 L 745,769 L 743,770 L 743,772 L 740,772 L 738,773 L 739,774 L 738,775 L 737,775 L 737,774 L 736,774 L 736,773 L 734,772 L 732,771 L 731,770 L 728,770 L 724,770 L 724,769 L 723,767 L 725,764 L 727,761 L 726,757 L 725,753 L 724,752 L 723,754 L 721,755 L 720,755 L 718,755 L 718,754 L 717,753 L 718,753 L 717,752 L 716,752 L 715,752 L 714,752 L 714,751 L 713,751 L 713,750 L 712,750 L 712,751 L 712,750 L 712,751 L 712,750 L 712,751 L 711,751 L 711,752 L 711,753 L 711,752 L 710,752 L 710,751 L 709,751 L 709,750 L 708,750 L 708,749 L 708,748 L 707,748 L 707,747 L 707,746 L 707,747 L 706,747 L 706,746 L 705,745 L 704,744 L 704,745 L 704,744 L 703,744 L 704,744 L 704,743 L 705,743 L 705,742 L 705,741 L 706,741 L 705,741 L 706,741 L 706,740 L 705,740 L 706,740 L 706,739 L 705,739 L 706,739 L 705,739 L 705,738 L 706,738 L 705,738 L 705,737 L 705,736 L 704,736 L 704,735 L 704,736 L 703,735 L 703,734 L 703,733 L 702,732 L 702,731 L 702,730 L 701,730 L 700,730 L 699,730 L 699,729 L 698,729 L 697,729 L 697,730 L 697,729 L 697,728 L 698,728 L 698,727 L 699,727 L 699,726 L 700,726 L 700,725 L 699,725 L 699,724 L 699,723 L 698,723 L 698,722 L 699,722 L 699,721 L 700,721 L 701,721 L 701,720 L 701,719 L 702,719 L 702,718 L 702,717 L 702,716 L 703,716 L 703,715 L 704,715 L 704,714 L 705,714 L 705,713 L 705,712 L 705,711 L 706,711 L 705,711 L 706,711 L 707,711 L 707,710 L 708,710 L 708,709 L 709,709 L 710,709 L 710,710 L 711,710 L 711,711 L 711,712 L 712,712 L 712,713 L 713,714 L 713,715 L 714,715 L 714,716 L 715,716 L 716,716 L 716,715 L 716,714 L 716,713 L 717,713 L 717,712 L 718,712 L 718,713 L 719,713 L 719,712 L 720,712 L 720,711 L 721,711 L 722,711 L 722,712 L 722,713 L 723,713 L 722,713 L 722,714 L 723,714 L 724,714 L 725,714 L 725,713 L 726,713 L 725,713 L 725,712 L 725,711 L 724,711 L 724,710 L 724,709 L 723,709 L 722,709 L 721,709 L 720,709 L 719,709 L 719,708 L 718,709 L 718,708 L 717,708 L 717,709 L 716,709 L 716,710 L 715,709 L 714,709 L 714,710 L 713,710 L 712,710 L 712,709 L 711,709 L 711,708 L 710,708 L 709,708 L 709,709 L 708,708 L 707,708 L 707,707 L 706,707 L 706,706 L 705,706 L 705,705 L 704,705 L 703,704 L 704,704 L 704,703 L 703,703 L 702,703 L 702,702 L 702,701 L 702,700 L 703,699 L 703,698 L 703,697 L 704,697 L 704,696 L 705,696 L 706,696 L 706,695 L 705,695 L 705,694 L 706,694 L 706,693 L 705,693 L 706,693 L 706,692 L 707,692 L 707,691 L 707,690 L 708,690 L 708,689 L 708,688 L 709,688 L 709,687 L 710,687 L 709,687 L 710,687 L 710,686 L 711,686 L 710,686 L 711,686 L 711,685 L 711,684 L 710,684 L 709,684 L 709,683 L 708,683 L 708,682 L 707,682 L 707,681 L 706,681 L 706,680 L 707,680 L 706,680 L 706,679 L 706,678 L 706,677 L 706,676 L 706,675 L 705,675 L 705,674 L 706,674 L 706,673 L 705,673 L 705,672 L 706,672 L 706,671 L 707,671 L 707,670 L 707,669 L 707,668 L 708,668 L 709,668 L 709,669 L 710,669 L 711,669 L 712,669 L 713,669 L 714,669 L 715,669 L 715,668 L 715,667 L 716,667 L 716,666 L 716,665 L 717,665 L 717,664 L 718,664 L 717,664 L 717,663 L 716,663 L 715,663 L 715,662 L 715,661 L 714,661 L 714,660 L 713,659 L 712,659 L 712,658 L 711,658 L 711,657 L 711,656 L 710,656 L 709,655 L 708,655 L 707,655 L 707,654 L 706,654 L 706,653 L 705,653 L 704,652 L 703,652 L 702,652 L 701,652 L 700,652 L 700,653 L 699,654 L 700,655 L 700,656 L 699,656 L 699,655 L 698,655 L 697,654 L 696,654 L 696,653 L 695,653 L 694,653 L 693,653 L 693,652 L 692,652 L 691,652 L 691,653 L 690,652 L 691,652 L 690,652 L 690,651 L 689,651 L 689,650 L 688,650 L 688,649 L 687,649 L 686,649 L 686,650 L 686,649 L 686,648 L 685,648 L 684,648 L 683,648 L 682,647 L 682,646 L 682,645 L 681,645 L 681,644 L 681,643 L 680,643 L 679,642 L 680,641 L 680,640 L 679,640 L 679,639 L 678,639 L 677,639 L 677,638 L 677,637 L 678,637 L 678,636 L 678,635 L 678,634 L 679,634 L 679,633 L 679,632 L 679,631 L 680,631 L 680,630 L 680,629 L 679,629 L 679,630 L 678,630 L 678,631 L 678,630 L 678,631 L 677,631 L 676,632 L 675,632 L 675,633 L 674,633 L 673,633 L 673,632 L 673,631 L 672,631 L 672,630 L 672,629 L 671,629 L 671,628 L 670,628 L 669,627 L 669,626 L 668,626 L 667,626 L 666,626 L 666,625 L 665,625 L 664,625 L 664,624 L 663,624 L 662,624 L 662,623 L 661,623 L 660,623 L 660,622 L 659,622 L 658,622 L 658,621 L 656,621 L 656,620 L 656,621 L 655,620 L 655,619 L 653,618 L 652,618 L 651,617 L 650,617 L 650,616 L 649,616 L 648,616 L 647,616 L 646,617 L 646,616 L 645,616 L 644,616 L 642,616 L 641,616 L 640,616 L 639,616 L 639,617 L 638,617 L 637,617 L 636,617 L 636,616 L 636,615 L 637,615 L 637,614 L 638,612 L 638,611 L 637,611 L 637,610 L 637,609 L 637,608 L 637,607 L 636,605 L 636,604 L 635,603 L 634,603 L 633,602 L 631,600 L 630,599 L 629,599 L 628,599 L 627,599 L 626,599 L 625,599 L 625,598 L 624,597 L 623,596 L 622,596 L 621,595 L 620,595 L 620,594 L 619,594 L 619,593 L 618,593 L 618,592 L 618,591 L 617,591 L 617,590 L 616,590 L 616,589 L 616,588 L 617,588 L 617,587 L 617,586 L 616,586 L 616,585 L 616,584 L 616,583 L 616,582 L 616,581 L 616,580 L 616,579 L 616,578 L 615,578 L 615,577 L 615,576 L 614,575 L 613,574 L 613,573 L 612,572 L 612,571 L 613,570 L 613,569 L 613,568 L 613,567 L 614,567 L 615,567 L 615,566 L 617,566 L 618,566 L 619,566 L 620,566 L 620,567 L 621,569 L 622,570 L 622,571 L 624,572 L 625,572 " /></g>
</svg>
