<?xml version="1.0" standalone="no"?><!DOCTYPE svg PUBLIC "-//W3C//DTD SVG 1.1//EN" "http://www.w3.org/Graphics/SVG/1.1/DTD/svg11.dtd"><svg xmlns="http://www.w3.org/2000/svg" viewBox="977 1061 110 222" version = "1.1">
<g id="10201" ><path d="M 1060,1063 L 1066,1066 L 1067,1066 L 1068,1067 L 1069,1067 L 1069,1068 L 1069,1069 L 1070,1069 L 1071,1069 L 1071,1070 L 1072,1070 L 1075,1071 L 1077,1071 L 1076,1073 L 1077,1074 L 1075,1076 L 1075,1077 L 1075,1079 L 1074,1081 L 1075,1084 L 1074,1087 L 1074,1090 L 1073,1091 L 1072,1093 L 1072,1094 L 1072,1098 L 1073,1100 L 1074,1107 L 1074,1112 L 1071,1116 L 1070,1116 L 1069,1115 L 1069,1114 L 1067,1115 L 1064,1116 L 1063,1122 L 1066,1125 L 1066,1129 L 1068,1129 L 1068,1130 L 1069,1131 L 1069,1132 L 1070,1133 L 1070,1135 L 1071,1135 L 1072,1135 L 1073,1135 L 1075,1136 L 1075,1137 L 1076,1139 L 1076,1141 L 1076,1142 L 1077,1143 L 1080,1145 L 1081,1147 L 1083,1155 L 1083,1158 L 1081,1164 L 1080,1168 L 1076,1171 L 1076,1174 L 1075,1177 L 1076,1180 L 1075,1182 L 1077,1185 L 1079,1185 L 1080,1185 L 1081,1188 L 1081,1189 L 1081,1192 L 1082,1195 L 1082,1198 L 1082,1201 L 1082,1202 L 1082,1203 L 1082,1204 L 1082,1205 L 1083,1205 L 1083,1206 L 1084,1206 L 1085,1207 L 1085,1208 L 1084,1208 L 1083,1208 L 1083,1207 L 1082,1207 L 1082,1208 L 1081,1208 L 1080,1208 L 1079,1208 L 1079,1209 L 1078,1210 L 1078,1211 L 1076,1214 L 1079,1219 L 1080,1220 L 1080,1221 L 1081,1221 L 1080,1221 L 1081,1221 L 1081,1222 L 1081,1223 L 1082,1224 L 1083,1226 L 1083,1228 L 1083,1229 L 1084,1229 L 1084,1230 L 1084,1231 L 1083,1231 L 1084,1231 L 1084,1232 L 1084,1233 L 1084,1234 L 1084,1235 L 1084,1236 L 1085,1236 L 1084,1236 L 1084,1237 L 1084,1238 L 1084,1239 L 1084,1240 L 1085,1240 L 1085,1241 L 1085,1242 L 1084,1243 L 1084,1244 L 1084,1245 L 1084,1246 L 1085,1246 L 1085,1247 L 1084,1247 L 1085,1247 L 1085,1248 L 1086,1248 L 1086,1249 L 1087,1249 L 1087,1250 L 1087,1251 L 1087,1252 L 1086,1252 L 1086,1253 L 1085,1253 L 1085,1254 L 1085,1255 L 1085,1256 L 1084,1256 L 1084,1257 L 1084,1258 L 1084,1259 L 1084,1260 L 1084,1261 L 1083,1261 L 1084,1261 L 1084,1262 L 1083,1262 L 1083,1263 L 1084,1263 L 1083,1263 L 1083,1264 L 1083,1265 L 1084,1265 L 1084,1266 L 1084,1267 L 1084,1268 L 1083,1268 L 1083,1269 L 1084,1269 L 1084,1270 L 1085,1270 L 1084,1270 L 1084,1271 L 1084,1272 L 1084,1273 L 1083,1274 L 1083,1273 L 1082,1273 L 1081,1273 L 1080,1273 L 1079,1273 L 1078,1273 L 1077,1273 L 1076,1273 L 1076,1272 L 1075,1273 L 1075,1272 L 1074,1272 L 1073,1272 L 1072,1272 L 1071,1272 L 1070,1272 L 1070,1273 L 1069,1273 L 1068,1273 L 1067,1274 L 1066,1274 L 1065,1274 L 1064,1274 L 1063,1274 L 1062,1274 L 1062,1275 L 1061,1275 L 1060,1275 L 1059,1275 L 1059,1276 L 1058,1276 L 1057,1276 L 1056,1276 L 1055,1276 L 1054,1276 L 1054,1275 L 1053,1275 L 1053,1276 L 1052,1276 L 1052,1277 L 1051,1277 L 1051,1278 L 1051,1279 L 1050,1279 L 1050,1280 L 1049,1280 L 1048,1281 L 1047,1282 L 1047,1283 L 1046,1283 L 1045,1283 L 1044,1283 L 1043,1283 L 1042,1283 L 1041,1283 L 1040,1283 L 1039,1283 L 1038,1282 L 1038,1281 L 1037,1281 L 1036,1280 L 1036,1279 L 1037,1279 L 1037,1278 L 1036,1278 L 1035,1278 L 1034,1278 L 1034,1277 L 1033,1277 L 1033,1276 L 1034,1276 L 1034,1275 L 1034,1274 L 1033,1274 L 1032,1274 L 1031,1274 L 1030,1274 L 1030,1273 L 1030,1272 L 1029,1272 L 1028,1272 L 1027,1271 L 1026,1270 L 1026,1269 L 1025,1269 L 1024,1269 L 1024,1268 L 1023,1268 L 1023,1267 L 1022,1267 L 1022,1266 L 1021,1266 L 1021,1267 L 1021,1268 L 1021,1269 L 1021,1270 L 1021,1271 L 1021,1272 L 1022,1272 L 1022,1273 L 1023,1273 L 1023,1274 L 1022,1274 L 1021,1274 L 1021,1275 L 1020,1275 L 1019,1275 L 1018,1275 L 1018,1276 L 1017,1276 L 1016,1276 L 1016,1275 L 1015,1275 L 1015,1274 L 1015,1273 L 1015,1272 L 1014,1272 L 1014,1273 L 1013,1273 L 1012,1273 L 1012,1274 L 1011,1274 L 1010,1274 L 1010,1273 L 1010,1272 L 1010,1271 L 1009,1271 L 1009,1270 L 1008,1271 L 1007,1271 L 1006,1271 L 1005,1271 L 1004,1272 L 1003,1271 L 1003,1270 L 1002,1269 L 1001,1268 L 1000,1268 L 999,1268 L 998,1268 L 998,1267 L 998,1266 L 998,1265 L 997,1264 L 996,1264 L 996,1263 L 996,1262 L 996,1261 L 995,1261 L 995,1260 L 994,1259 L 994,1258 L 994,1257 L 993,1257 L 993,1256 L 993,1255 L 993,1254 L 994,1254 L 995,1253 L 994,1253 L 994,1252 L 993,1251 L 993,1250 L 994,1249 L 995,1248 L 995,1247 L 995,1246 L 995,1245 L 994,1245 L 993,1245 L 992,1245 L 991,1245 L 990,1244 L 990,1243 L 989,1243 L 989,1242 L 990,1242 L 990,1241 L 990,1240 L 990,1239 L 990,1238 L 990,1237 L 989,1237 L 988,1237 L 988,1236 L 989,1236 L 989,1235 L 989,1234 L 989,1233 L 990,1233 L 990,1232 L 989,1232 L 989,1231 L 989,1230 L 988,1230 L 988,1229 L 989,1229 L 989,1228 L 989,1227 L 989,1226 L 989,1225 L 989,1224 L 988,1224 L 988,1223 L 989,1223 L 988,1222 L 988,1221 L 988,1220 L 988,1219 L 987,1219 L 987,1218 L 987,1217 L 987,1216 L 988,1216 L 988,1215 L 988,1214 L 989,1213 L 989,1212 L 988,1212 L 987,1212 L 986,1212 L 986,1211 L 985,1211 L 984,1210 L 984,1209 L 984,1208 L 984,1207 L 984,1206 L 985,1206 L 985,1205 L 985,1204 L 984,1204 L 984,1203 L 983,1203 L 983,1202 L 983,1201 L 983,1200 L 982,1199 L 982,1198 L 982,1197 L 983,1197 L 984,1197 L 984,1196 L 985,1195 L 985,1194 L 986,1194 L 986,1193 L 985,1193 L 985,1192 L 985,1191 L 986,1191 L 986,1190 L 987,1190 L 987,1189 L 986,1188 L 985,1187 L 985,1186 L 985,1185 L 985,1184 L 985,1183 L 985,1182 L 985,1181 L 984,1180 L 985,1179 L 985,1178 L 985,1177 L 984,1177 L 984,1176 L 984,1175 L 984,1174 L 985,1174 L 985,1173 L 984,1172 L 984,1171 L 983,1170 L 984,1170 L 985,1170 L 985,1169 L 986,1169 L 986,1168 L 985,1167 L 985,1166 L 986,1166 L 986,1165 L 986,1164 L 985,1164 L 985,1163 L 986,1163 L 986,1162 L 985,1162 L 985,1161 L 985,1160 L 984,1159 L 983,1158 L 983,1157 L 983,1156 L 983,1155 L 983,1154 L 982,1154 L 982,1153 L 982,1152 L 982,1151 L 983,1150 L 983,1149 L 982,1148 L 982,1147 L 981,1146 L 980,1146 L 980,1145 L 979,1144 L 979,1143 L 980,1143 L 980,1142 L 979,1142 L 979,1141 L 979,1140 L 978,1140 L 978,1139 L 978,1138 L 978,1137 L 978,1136 L 978,1135 L 979,1135 L 979,1134 L 978,1134 L 978,1133 L 978,1132 L 979,1131 L 978,1130 L 978,1129 L 977,1129 L 977,1128 L 977,1127 L 978,1127 L 978,1126 L 979,1125 L 980,1124 L 981,1124 L 983,1124 L 983,1123 L 984,1123 L 985,1123 L 986,1123 L 986,1122 L 987,1122 L 988,1122 L 989,1122 L 990,1122 L 991,1122 L 992,1122 L 993,1122 L 994,1122 L 995,1122 L 996,1122 L 997,1122 L 998,1122 L 999,1121 L 1000,1121 L 1001,1121 L 1002,1121 L 1003,1121 L 1004,1121 L 1005,1121 L 1006,1121 L 1006,1120 L 1006,1119 L 1007,1119 L 1008,1119 L 1009,1119 L 1010,1119 L 1013,1119 L 1014,1119 L 1014,1121 L 1014,1123 L 1014,1124 L 1017,1124 L 1018,1124 L 1019,1124 L 1020,1125 L 1021,1125 L 1021,1127 L 1022,1127 L 1023,1128 L 1024,1127 L 1025,1127 L 1025,1125 L 1025,1123 L 1026,1123 L 1026,1122 L 1025,1121 L 1026,1120 L 1026,1118 L 1027,1118 L 1027,1115 L 1026,1113 L 1025,1112 L 1027,1110 L 1027,1109 L 1026,1108 L 1026,1107 L 1026,1106 L 1026,1105 L 1027,1104 L 1028,1104 L 1028,1103 L 1029,1102 L 1028,1097 L 1028,1095 L 1028,1089 L 1028,1085 L 1028,1084 L 1027,1082 L 1028,1081 L 1027,1079 L 1027,1077 L 1028,1075 L 1027,1074 L 1028,1071 L 1028,1070 L 1028,1069 L 1027,1069 L 1027,1068 L 1028,1068 L 1028,1067 L 1028,1066 L 1029,1066 L 1029,1065 L 1030,1064 L 1031,1063 L 1031,1062 L 1032,1062 L 1032,1063 L 1032,1064 L 1033,1066 L 1033,1067 L 1035,1068 L 1036,1067 L 1036,1066 L 1036,1065 L 1037,1064 L 1038,1064 L 1039,1064 L 1041,1063 L 1041,1062 L 1041,1061 L 1042,1061 L 1044,1062 L 1046,1062 L 1060,1063 " /></g>
</svg>
