<?xml version="1.0" standalone="no"?><!DOCTYPE svg PUBLIC "-//W3C//DTD SVG 1.1//EN" "http://www.w3.org/Graphics/SVG/1.1/DTD/svg11.dtd"><svg xmlns="http://www.w3.org/2000/svg" viewBox="896 759 93 139" version = "1.1">
<g id="10301" ><path d="M 941,760 L 943,763 L 944,765 L 946,768 L 947,770 L 950,773 L 951,773 L 951,774 L 952,775 L 953,776 L 953,777 L 953,778 L 954,778 L 954,779 L 955,780 L 955,781 L 957,783 L 960,786 L 960,787 L 961,788 L 962,789 L 963,790 L 963,791 L 965,793 L 967,795 L 968,796 L 968,797 L 969,799 L 970,800 L 971,801 L 972,802 L 973,804 L 974,806 L 975,809 L 978,810 L 978,811 L 979,812 L 979,813 L 979,814 L 980,814 L 980,815 L 981,816 L 982,817 L 982,818 L 981,818 L 981,819 L 981,820 L 981,821 L 982,821 L 983,821 L 983,822 L 983,823 L 984,824 L 984,825 L 983,828 L 982,829 L 982,830 L 982,831 L 982,833 L 983,833 L 982,837 L 983,837 L 983,838 L 984,838 L 985,839 L 985,840 L 984,840 L 985,841 L 985,842 L 984,843 L 983,843 L 983,845 L 984,848 L 985,851 L 986,854 L 986,855 L 987,858 L 987,859 L 986,860 L 983,865 L 982,866 L 982,869 L 983,869 L 984,870 L 985,871 L 985,872 L 986,874 L 986,875 L 987,875 L 988,876 L 988,877 L 989,877 L 988,878 L 989,880 L 989,881 L 987,883 L 987,884 L 987,883 L 986,883 L 986,884 L 986,885 L 985,885 L 985,886 L 984,886 L 983,886 L 983,887 L 982,887 L 982,888 L 981,888 L 981,887 L 980,888 L 980,887 L 979,887 L 978,887 L 977,887 L 977,888 L 976,888 L 976,889 L 975,890 L 975,891 L 975,890 L 974,890 L 974,891 L 973,891 L 972,891 L 971,891 L 971,890 L 970,890 L 970,891 L 969,891 L 968,891 L 967,892 L 966,892 L 965,892 L 964,893 L 964,892 L 963,892 L 963,893 L 962,893 L 960,894 L 959,895 L 958,896 L 957,896 L 956,897 L 955,898 L 954,898 L 953,898 L 953,896 L 953,895 L 952,894 L 951,893 L 950,892 L 950,891 L 950,890 L 949,889 L 948,889 L 947,889 L 946,888 L 946,886 L 945,885 L 944,884 L 944,883 L 943,883 L 943,882 L 942,882 L 943,880 L 941,878 L 940,878 L 939,874 L 937,868 L 937,866 L 937,864 L 937,859 L 935,855 L 934,852 L 933,850 L 931,847 L 931,845 L 930,843 L 930,839 L 930,835 L 929,834 L 929,831 L 929,829 L 926,823 L 925,822 L 923,820 L 922,819 L 921,817 L 921,816 L 920,816 L 920,815 L 924,811 L 923,808 L 921,805 L 917,801 L 915,800 L 911,798 L 909,799 L 906,799 L 905,798 L 902,799 L 902,797 L 902,795 L 901,791 L 901,789 L 898,786 L 896,785 L 897,784 L 897,783 L 897,782 L 898,782 L 899,781 L 900,781 L 901,782 L 901,783 L 902,783 L 903,783 L 904,782 L 905,782 L 906,783 L 907,783 L 908,782 L 908,781 L 910,781 L 912,780 L 913,779 L 913,778 L 913,777 L 914,777 L 914,776 L 915,776 L 916,775 L 917,772 L 917,771 L 917,770 L 918,770 L 919,770 L 920,770 L 921,770 L 921,769 L 922,769 L 923,769 L 923,768 L 924,768 L 924,769 L 924,768 L 924,769 L 925,769 L 926,769 L 927,769 L 927,768 L 928,768 L 928,767 L 929,767 L 929,768 L 930,768 L 931,767 L 931,766 L 932,766 L 933,764 L 934,764 L 934,763 L 935,763 L 935,762 L 936,762 L 936,761 L 937,761 L 938,760 L 938,759 L 939,760 L 941,760 " /></g>
</svg>
