<?xml version="1.0" standalone="no"?><!DOCTYPE svg PUBLIC "-//W3C//DTD SVG 1.1//EN" "http://www.w3.org/Graphics/SVG/1.1/DTD/svg11.dtd"><svg xmlns="http://www.w3.org/2000/svg" viewBox="886 878 85 130" version = "1.1">
<g id="10304" ><path d="M 900,942 L 900,941 L 899,941 L 899,940 L 899,939 L 899,938 L 899,937 L 898,936 L 897,935 L 897,934 L 897,933 L 897,932 L 897,931 L 896,930 L 896,929 L 895,929 L 895,928 L 896,928 L 896,927 L 896,926 L 895,926 L 894,926 L 894,925 L 895,925 L 895,924 L 895,923 L 895,922 L 894,922 L 893,922 L 892,922 L 891,922 L 891,921 L 890,921 L 889,920 L 888,920 L 888,919 L 887,919 L 887,918 L 886,918 L 886,917 L 886,916 L 887,916 L 887,915 L 888,915 L 887,915 L 887,914 L 887,913 L 886,913 L 886,912 L 886,911 L 886,910 L 887,910 L 886,910 L 886,909 L 886,908 L 886,907 L 887,907 L 887,906 L 888,906 L 889,906 L 889,905 L 889,906 L 890,906 L 890,905 L 890,906 L 890,905 L 891,905 L 891,904 L 892,904 L 893,904 L 893,903 L 894,903 L 895,903 L 894,903 L 894,902 L 894,901 L 894,900 L 893,900 L 893,899 L 893,898 L 892,898 L 892,897 L 892,896 L 892,895 L 891,895 L 892,894 L 892,893 L 893,893 L 894,893 L 894,892 L 894,891 L 894,890 L 894,889 L 893,889 L 893,888 L 893,887 L 894,883 L 898,881 L 901,880 L 903,879 L 905,879 L 907,880 L 910,882 L 911,883 L 919,884 L 921,884 L 923,884 L 924,884 L 925,884 L 926,884 L 929,882 L 930,882 L 931,882 L 932,882 L 933,882 L 937,881 L 939,879 L 940,878 L 941,878 L 943,880 L 942,882 L 943,882 L 943,883 L 944,883 L 944,884 L 945,885 L 946,886 L 946,888 L 947,889 L 948,889 L 949,889 L 950,890 L 950,891 L 950,892 L 951,893 L 952,894 L 953,895 L 953,896 L 953,898 L 954,898 L 955,898 L 956,897 L 957,896 L 958,896 L 959,895 L 960,898 L 961,899 L 962,900 L 965,901 L 967,901 L 968,902 L 969,904 L 968,906 L 967,908 L 966,913 L 964,915 L 960,918 L 959,920 L 958,926 L 958,927 L 960,928 L 961,930 L 961,932 L 960,935 L 961,937 L 963,938 L 966,943 L 969,945 L 970,947 L 969,953 L 968,955 L 968,959 L 968,964 L 968,966 L 969,968 L 969,972 L 969,973 L 970,973 L 970,974 L 970,975 L 970,980 L 970,983 L 971,987 L 970,993 L 970,995 L 968,997 L 967,998 L 964,998 L 962,994 L 959,992 L 955,991 L 952,991 L 951,992 L 950,993 L 949,993 L 948,994 L 946,998 L 944,1001 L 941,1005 L 938,1006 L 937,1006 L 933,1005 L 929,1005 L 922,1007 L 920,1008 L 920,1007 L 919,1007 L 919,1006 L 918,1006 L 918,1005 L 917,1004 L 917,1003 L 917,1002 L 917,1001 L 916,1000 L 916,999 L 917,999 L 917,998 L 917,997 L 916,997 L 915,996 L 914,996 L 913,996 L 912,996 L 911,995 L 910,995 L 909,995 L 908,994 L 908,993 L 908,992 L 907,991 L 907,990 L 907,989 L 906,989 L 905,989 L 904,989 L 904,990 L 903,990 L 903,989 L 903,988 L 903,987 L 902,986 L 901,985 L 900,984 L 899,983 L 898,983 L 898,982 L 898,981 L 899,980 L 899,979 L 899,978 L 900,977 L 900,976 L 901,975 L 901,974 L 902,973 L 902,972 L 902,971 L 902,970 L 902,969 L 902,967 L 902,966 L 903,966 L 903,964 L 903,963 L 904,961 L 904,960 L 905,960 L 905,958 L 905,957 L 905,956 L 905,955 L 905,954 L 906,954 L 907,953 L 906,952 L 906,951 L 905,950 L 905,949 L 905,948 L 905,947 L 904,946 L 904,945 L 903,945 L 902,944 L 901,944 L 901,943 L 900,942 " /></g>
</svg>
