<?xml version="1.0" standalone="no"?><!DOCTYPE svg PUBLIC "-//W3C//DTD SVG 1.1//EN" "http://www.w3.org/Graphics/SVG/1.1/DTD/svg11.dtd"><svg xmlns="http://www.w3.org/2000/svg" viewBox="902 626 119 178" version = "1.1">
<g id="10303" ><path d="M 920,626 L 921,626 L 922,626 L 922,627 L 923,627 L 924,627 L 925,627 L 926,627 L 927,627 L 927,628 L 928,628 L 929,628 L 930,629 L 931,629 L 931,628 L 932,628 L 933,629 L 934,630 L 935,630 L 936,629 L 937,629 L 937,628 L 938,628 L 938,629 L 939,629 L 940,629 L 941,629 L 942,629 L 943,629 L 943,630 L 944,630 L 945,630 L 945,629 L 946,629 L 945,629 L 946,628 L 946,627 L 947,627 L 948,627 L 948,628 L 948,629 L 948,630 L 949,630 L 950,630 L 951,630 L 952,630 L 952,631 L 953,632 L 953,633 L 953,634 L 954,635 L 954,636 L 955,637 L 955,638 L 956,639 L 957,640 L 959,641 L 960,641 L 961,641 L 962,641 L 963,642 L 963,643 L 963,644 L 965,645 L 965,646 L 965,647 L 965,648 L 964,648 L 964,649 L 964,650 L 964,651 L 964,652 L 965,652 L 966,652 L 967,652 L 968,652 L 968,653 L 968,654 L 968,655 L 968,656 L 969,656 L 969,657 L 970,658 L 971,658 L 972,658 L 972,659 L 972,660 L 972,661 L 973,662 L 974,663 L 975,663 L 976,664 L 977,665 L 978,665 L 979,665 L 980,665 L 981,665 L 982,665 L 982,666 L 983,666 L 983,667 L 984,668 L 985,668 L 986,669 L 987,669 L 988,668 L 989,669 L 990,670 L 991,670 L 992,671 L 992,672 L 992,673 L 993,674 L 993,675 L 994,676 L 995,676 L 995,675 L 996,676 L 997,676 L 998,675 L 999,676 L 1000,676 L 1001,676 L 1002,676 L 1003,676 L 1004,676 L 1005,676 L 1006,676 L 1007,676 L 1008,676 L 1008,675 L 1008,674 L 1009,674 L 1009,673 L 1010,673 L 1010,674 L 1011,674 L 1012,674 L 1012,675 L 1013,675 L 1012,676 L 1013,676 L 1013,677 L 1013,678 L 1012,678 L 1012,679 L 1012,680 L 1012,681 L 1012,682 L 1012,683 L 1012,684 L 1012,685 L 1012,686 L 1011,686 L 1012,686 L 1012,687 L 1012,688 L 1013,689 L 1013,690 L 1013,691 L 1014,692 L 1014,693 L 1014,694 L 1014,695 L 1014,696 L 1013,697 L 1013,698 L 1013,699 L 1013,700 L 1013,701 L 1013,702 L 1012,702 L 1012,703 L 1012,704 L 1012,705 L 1013,705 L 1013,706 L 1013,707 L 1012,708 L 1012,709 L 1012,710 L 1011,710 L 1011,712 L 1011,713 L 1011,714 L 1012,715 L 1012,716 L 1013,716 L 1013,717 L 1014,718 L 1014,719 L 1014,720 L 1015,720 L 1015,721 L 1014,721 L 1014,722 L 1013,722 L 1013,723 L 1014,723 L 1014,724 L 1013,724 L 1013,725 L 1014,725 L 1014,726 L 1014,727 L 1015,727 L 1016,727 L 1016,728 L 1017,729 L 1017,730 L 1017,731 L 1018,731 L 1018,732 L 1018,733 L 1018,734 L 1019,735 L 1019,736 L 1019,737 L 1020,737 L 1020,738 L 1020,739 L 1020,740 L 1020,741 L 1021,742 L 1021,743 L 1020,743 L 1020,744 L 1020,745 L 1019,745 L 1018,745 L 1018,746 L 1017,746 L 1018,746 L 1018,747 L 1017,747 L 1017,748 L 1016,748 L 1016,749 L 1015,749 L 1014,749 L 1013,749 L 1013,750 L 1013,751 L 1012,751 L 1012,752 L 1012,753 L 1011,753 L 1011,754 L 1012,754 L 1012,755 L 1012,756 L 1012,757 L 1011,757 L 1011,758 L 1011,759 L 1011,760 L 1011,761 L 1012,761 L 1012,762 L 1012,763 L 1012,764 L 1012,765 L 1012,766 L 1012,767 L 1012,768 L 1013,768 L 1013,769 L 1013,770 L 1013,771 L 1013,772 L 1014,772 L 1013,772 L 1013,773 L 1014,773 L 1013,774 L 1014,774 L 1014,775 L 1013,775 L 1013,776 L 1013,777 L 1014,778 L 1013,779 L 1013,780 L 1013,781 L 1014,781 L 1014,782 L 1014,783 L 1014,784 L 1014,785 L 1014,786 L 1013,786 L 1012,786 L 1013,787 L 1012,787 L 1011,787 L 1012,787 L 1012,786 L 1011,786 L 1010,786 L 1010,785 L 1009,785 L 1008,785 L 1007,785 L 1007,784 L 1007,785 L 1006,785 L 1006,786 L 1005,786 L 1004,786 L 1004,785 L 1003,785 L 1002,785 L 1001,785 L 1000,785 L 999,785 L 999,784 L 998,784 L 997,784 L 996,784 L 995,784 L 994,784 L 993,784 L 992,784 L 991,784 L 991,785 L 990,785 L 989,785 L 989,786 L 988,785 L 988,786 L 987,786 L 987,787 L 986,787 L 985,787 L 984,787 L 984,788 L 983,788 L 985,791 L 973,804 L 972,802 L 971,801 L 970,800 L 969,799 L 968,797 L 968,796 L 967,795 L 965,793 L 963,791 L 963,790 L 962,789 L 961,788 L 960,787 L 960,786 L 957,783 L 955,781 L 955,780 L 954,779 L 954,778 L 953,778 L 953,777 L 953,776 L 952,775 L 951,774 L 951,773 L 950,773 L 947,770 L 946,768 L 944,765 L 943,763 L 941,760 L 939,760 L 938,759 L 939,759 L 939,758 L 938,758 L 938,757 L 939,757 L 939,756 L 938,755 L 938,754 L 938,753 L 937,753 L 937,752 L 936,752 L 936,751 L 936,750 L 936,749 L 936,748 L 936,747 L 937,748 L 937,747 L 938,747 L 937,747 L 936,747 L 936,746 L 936,745 L 935,745 L 935,744 L 936,744 L 936,743 L 936,742 L 936,741 L 935,740 L 935,739 L 935,738 L 934,738 L 933,737 L 933,736 L 933,735 L 933,734 L 932,734 L 932,733 L 932,732 L 931,732 L 931,731 L 930,731 L 930,730 L 930,729 L 930,728 L 930,727 L 929,727 L 929,726 L 929,725 L 929,724 L 929,723 L 929,722 L 928,722 L 928,721 L 928,720 L 927,719 L 927,718 L 927,717 L 927,716 L 927,715 L 926,715 L 926,714 L 926,713 L 926,712 L 926,711 L 925,711 L 925,710 L 926,709 L 925,709 L 925,708 L 925,707 L 925,706 L 925,705 L 925,704 L 924,703 L 924,702 L 924,701 L 924,700 L 924,699 L 923,699 L 923,698 L 922,698 L 921,698 L 920,698 L 920,697 L 919,697 L 918,696 L 918,695 L 918,694 L 919,694 L 919,693 L 919,692 L 919,691 L 919,690 L 918,690 L 918,689 L 918,688 L 917,688 L 917,687 L 917,686 L 916,686 L 916,685 L 916,684 L 915,684 L 915,683 L 915,682 L 916,682 L 916,681 L 916,680 L 915,679 L 915,678 L 914,678 L 913,677 L 913,676 L 913,675 L 913,674 L 912,674 L 912,673 L 911,673 L 911,672 L 911,671 L 911,670 L 910,670 L 910,669 L 911,669 L 910,668 L 911,667 L 911,666 L 912,666 L 912,665 L 913,664 L 914,664 L 914,663 L 915,663 L 915,662 L 914,662 L 914,663 L 914,662 L 913,662 L 913,661 L 914,661 L 914,660 L 914,659 L 913,659 L 912,659 L 913,659 L 913,658 L 912,658 L 912,657 L 912,658 L 911,658 L 910,658 L 909,658 L 908,658 L 908,657 L 907,657 L 907,656 L 906,656 L 905,656 L 904,655 L 903,655 L 902,655 L 902,654 L 902,653 L 902,652 L 903,652 L 903,651 L 904,651 L 904,650 L 905,651 L 905,650 L 906,650 L 906,649 L 906,648 L 907,648 L 908,648 L 908,647 L 908,646 L 909,646 L 909,645 L 908,645 L 909,645 L 910,644 L 909,644 L 909,643 L 909,642 L 909,641 L 909,640 L 910,640 L 910,639 L 910,638 L 910,637 L 911,637 L 912,636 L 913,636 L 913,635 L 914,635 L 914,634 L 915,634 L 915,633 L 916,633 L 917,632 L 917,631 L 917,630 L 918,630 L 918,629 L 918,628 L 917,628 L 918,628 L 918,627 L 919,627 L 919,626 L 920,626 " /></g>
</svg>
