<?xml version="1.0" standalone="no"?><!DOCTYPE svg PUBLIC "-//W3C//DTD SVG 1.1//EN" "http://www.w3.org/Graphics/SVG/1.1/DTD/svg11.dtd"><svg xmlns="http://www.w3.org/2000/svg" viewBox="824 612 115 177" version = "1.1">
<g id="10302" ><path d="M 900,612 L 901,612 L 901,613 L 902,613 L 902,614 L 903,614 L 904,614 L 905,613 L 906,613 L 907,613 L 909,614 L 909,613 L 910,613 L 911,613 L 911,614 L 912,614 L 913,615 L 913,616 L 913,617 L 914,617 L 914,618 L 914,619 L 915,619 L 915,620 L 916,621 L 917,621 L 917,622 L 918,623 L 917,623 L 917,624 L 917,625 L 918,625 L 918,626 L 920,626 L 919,626 L 919,627 L 918,627 L 918,628 L 917,628 L 918,628 L 918,629 L 918,630 L 917,630 L 917,631 L 917,632 L 916,633 L 915,633 L 915,634 L 914,634 L 914,635 L 913,635 L 913,636 L 912,636 L 911,637 L 910,637 L 910,638 L 910,639 L 910,640 L 909,640 L 909,641 L 909,642 L 909,643 L 909,644 L 910,644 L 909,645 L 908,645 L 909,645 L 909,646 L 908,646 L 908,647 L 908,648 L 907,648 L 906,648 L 906,649 L 906,650 L 905,650 L 905,651 L 904,650 L 904,651 L 903,651 L 903,652 L 902,652 L 902,653 L 902,654 L 902,655 L 903,655 L 904,655 L 905,656 L 906,656 L 907,656 L 907,657 L 908,657 L 908,658 L 909,658 L 910,658 L 911,658 L 912,658 L 912,657 L 912,658 L 913,658 L 913,659 L 912,659 L 913,659 L 914,659 L 914,660 L 914,661 L 913,661 L 913,662 L 914,662 L 914,663 L 914,662 L 915,662 L 915,663 L 914,663 L 914,664 L 913,664 L 912,665 L 912,666 L 911,666 L 911,667 L 910,668 L 911,669 L 910,669 L 910,670 L 911,670 L 911,671 L 911,672 L 911,673 L 912,673 L 912,674 L 913,674 L 913,675 L 913,676 L 913,677 L 914,678 L 915,678 L 915,679 L 916,680 L 916,681 L 916,682 L 915,682 L 915,683 L 915,684 L 916,684 L 916,685 L 916,686 L 917,686 L 917,687 L 917,688 L 918,688 L 918,689 L 918,690 L 919,690 L 919,691 L 919,692 L 919,693 L 919,694 L 918,694 L 918,695 L 918,696 L 919,697 L 920,697 L 920,698 L 921,698 L 922,698 L 923,698 L 923,699 L 924,699 L 924,700 L 924,701 L 924,702 L 924,703 L 925,704 L 925,705 L 925,706 L 925,707 L 925,708 L 925,709 L 926,709 L 925,710 L 925,711 L 926,711 L 926,712 L 926,713 L 926,714 L 926,715 L 927,715 L 927,716 L 927,717 L 927,718 L 927,719 L 928,720 L 928,721 L 928,722 L 929,722 L 929,723 L 929,724 L 929,725 L 929,726 L 929,727 L 930,727 L 930,728 L 930,729 L 930,730 L 930,731 L 931,731 L 931,732 L 932,732 L 932,733 L 932,734 L 933,734 L 933,735 L 933,736 L 933,737 L 934,738 L 935,738 L 935,739 L 935,740 L 936,741 L 936,742 L 936,743 L 936,744 L 935,744 L 935,745 L 936,745 L 936,746 L 936,747 L 937,747 L 938,747 L 937,747 L 937,748 L 936,747 L 936,748 L 936,749 L 936,750 L 936,751 L 936,752 L 937,752 L 937,753 L 938,753 L 938,754 L 938,755 L 939,756 L 939,757 L 938,757 L 938,758 L 939,758 L 939,759 L 938,759 L 938,760 L 937,761 L 936,761 L 936,762 L 935,762 L 935,763 L 934,763 L 934,764 L 933,764 L 932,766 L 931,766 L 931,767 L 930,768 L 929,768 L 929,767 L 928,767 L 928,768 L 927,768 L 927,769 L 926,769 L 925,769 L 924,769 L 924,768 L 924,769 L 924,768 L 923,768 L 923,769 L 922,769 L 921,769 L 921,770 L 920,770 L 919,770 L 918,770 L 917,770 L 917,771 L 917,772 L 916,775 L 915,776 L 914,776 L 914,777 L 913,777 L 913,778 L 913,779 L 912,780 L 910,781 L 908,781 L 908,782 L 907,783 L 906,783 L 905,782 L 904,782 L 903,783 L 902,783 L 901,783 L 901,782 L 900,781 L 899,781 L 898,782 L 897,782 L 897,783 L 897,784 L 896,785 L 896,784 L 893,781 L 890,779 L 888,778 L 887,778 L 886,777 L 884,776 L 882,778 L 881,779 L 882,779 L 882,780 L 883,780 L 884,781 L 884,782 L 884,783 L 883,784 L 883,785 L 882,785 L 882,786 L 881,786 L 881,787 L 880,787 L 879,787 L 877,786 L 875,784 L 873,780 L 871,781 L 870,781 L 868,782 L 867,783 L 865,784 L 865,785 L 865,786 L 864,786 L 863,787 L 859,789 L 858,788 L 858,786 L 857,786 L 857,785 L 856,785 L 855,782 L 852,780 L 852,779 L 854,777 L 855,773 L 856,769 L 856,765 L 856,763 L 852,757 L 852,755 L 851,751 L 850,749 L 851,746 L 849,744 L 849,743 L 847,742 L 846,742 L 845,742 L 844,742 L 844,741 L 843,741 L 842,741 L 840,740 L 840,739 L 839,739 L 838,739 L 837,738 L 836,738 L 835,738 L 834,738 L 833,737 L 832,737 L 831,737 L 830,737 L 830,734 L 830,733 L 831,733 L 831,732 L 832,732 L 833,730 L 834,729 L 835,730 L 837,731 L 838,730 L 839,730 L 839,729 L 840,729 L 841,729 L 841,728 L 842,729 L 842,728 L 843,728 L 844,728 L 844,727 L 844,726 L 844,725 L 844,724 L 843,723 L 843,722 L 844,722 L 844,721 L 843,720 L 843,719 L 842,718 L 841,717 L 840,716 L 840,715 L 839,715 L 838,715 L 838,714 L 838,713 L 838,712 L 837,712 L 837,711 L 836,711 L 836,710 L 836,709 L 836,708 L 835,708 L 835,707 L 834,707 L 834,706 L 833,706 L 832,706 L 833,706 L 833,705 L 833,704 L 834,704 L 834,703 L 834,702 L 833,702 L 833,701 L 832,701 L 832,700 L 832,699 L 833,699 L 833,698 L 832,698 L 831,698 L 830,698 L 830,697 L 831,696 L 831,695 L 832,695 L 831,694 L 831,693 L 830,693 L 830,692 L 830,691 L 829,691 L 829,690 L 828,690 L 827,690 L 826,690 L 825,690 L 825,689 L 824,689 L 824,688 L 824,687 L 824,686 L 825,686 L 826,685 L 827,684 L 827,683 L 828,682 L 828,681 L 827,680 L 827,679 L 827,678 L 827,677 L 827,676 L 826,676 L 827,676 L 828,676 L 829,676 L 830,677 L 830,678 L 831,678 L 832,678 L 832,677 L 833,677 L 833,676 L 834,676 L 834,675 L 835,674 L 835,673 L 834,672 L 833,671 L 833,670 L 833,669 L 833,668 L 833,667 L 832,667 L 832,668 L 831,668 L 830,668 L 830,667 L 829,666 L 829,665 L 829,664 L 829,663 L 829,662 L 829,661 L 828,661 L 828,660 L 829,660 L 830,660 L 830,659 L 830,658 L 830,657 L 830,656 L 830,655 L 831,654 L 832,654 L 833,653 L 833,652 L 833,651 L 834,650 L 835,650 L 836,650 L 837,650 L 838,650 L 839,650 L 838,649 L 838,648 L 838,647 L 838,646 L 839,645 L 840,644 L 841,644 L 841,643 L 842,643 L 842,642 L 843,642 L 844,642 L 844,641 L 845,640 L 845,639 L 845,638 L 845,637 L 846,637 L 847,636 L 848,636 L 848,637 L 849,637 L 849,638 L 849,637 L 850,637 L 851,637 L 852,637 L 853,637 L 854,637 L 854,636 L 855,636 L 856,635 L 856,636 L 857,636 L 858,635 L 859,635 L 860,635 L 860,634 L 860,633 L 859,632 L 859,631 L 860,631 L 861,631 L 861,630 L 862,630 L 862,629 L 863,629 L 864,629 L 864,628 L 865,628 L 866,628 L 866,627 L 867,627 L 868,626 L 868,625 L 868,624 L 868,623 L 869,623 L 870,623 L 870,622 L 871,622 L 872,622 L 872,621 L 873,621 L 874,621 L 875,620 L 876,619 L 876,618 L 877,618 L 878,618 L 879,618 L 879,617 L 880,617 L 881,617 L 882,617 L 883,616 L 884,616 L 884,615 L 885,615 L 886,615 L 886,614 L 887,614 L 887,613 L 888,613 L 889,614 L 889,615 L 890,614 L 891,614 L 891,615 L 892,615 L 892,614 L 893,614 L 893,613 L 893,612 L 894,613 L 895,613 L 896,613 L 897,613 L 897,612 L 898,612 L 899,612 L 900,612 " /></g>
</svg>
