<?xml version="1.0" standalone="no"?><!DOCTYPE svg PUBLIC "-//W3C//DTD SVG 1.1//EN" "http://www.w3.org/Graphics/SVG/1.1/DTD/svg11.dtd"><svg xmlns="http://www.w3.org/2000/svg" viewBox="1038 954 95 124" version = "1.1">
<g id="10405" ><path d="M 1116,1078 L 1115,1078 L 1113,1076 L 1111,1076 L 1110,1075 L 1108,1074 L 1106,1074 L 1103,1072 L 1100,1072 L 1100,1073 L 1100,1074 L 1098,1076 L 1095,1076 L 1092,1074 L 1090,1074 L 1089,1074 L 1088,1073 L 1085,1074 L 1083,1073 L 1081,1074 L 1078,1074 L 1077,1074 L 1076,1073 L 1077,1071 L 1075,1071 L 1072,1070 L 1071,1070 L 1071,1069 L 1070,1069 L 1069,1069 L 1069,1068 L 1069,1067 L 1068,1067 L 1067,1066 L 1066,1066 L 1060,1063 L 1046,1062 L 1044,1062 L 1042,1061 L 1042,1060 L 1042,1059 L 1042,1058 L 1042,1057 L 1042,1056 L 1043,1056 L 1044,1056 L 1045,1055 L 1046,1054 L 1046,1053 L 1045,1053 L 1045,1052 L 1044,1051 L 1044,1050 L 1045,1049 L 1046,1047 L 1046,1046 L 1046,1045 L 1048,1045 L 1050,1045 L 1051,1043 L 1053,1042 L 1054,1042 L 1056,1041 L 1057,1040 L 1056,1039 L 1055,1038 L 1055,1036 L 1057,1035 L 1055,1032 L 1055,1030 L 1056,1030 L 1057,1029 L 1056,1025 L 1057,1024 L 1055,1022 L 1051,1022 L 1049,1022 L 1048,1021 L 1047,1021 L 1046,1020 L 1045,1019 L 1044,1016 L 1042,1011 L 1041,1006 L 1041,1003 L 1040,998 L 1039,996 L 1038,990 L 1038,988 L 1041,987 L 1042,987 L 1043,988 L 1046,988 L 1048,987 L 1049,987 L 1052,985 L 1052,984 L 1053,982 L 1053,981 L 1054,979 L 1055,977 L 1056,976 L 1056,975 L 1056,974 L 1057,972 L 1058,972 L 1059,971 L 1060,970 L 1061,970 L 1064,970 L 1065,970 L 1066,970 L 1067,969 L 1068,969 L 1069,969 L 1069,968 L 1070,968 L 1070,967 L 1070,966 L 1071,966 L 1070,965 L 1071,965 L 1071,964 L 1071,963 L 1072,963 L 1073,963 L 1073,962 L 1074,962 L 1074,961 L 1075,961 L 1076,961 L 1076,960 L 1077,960 L 1078,960 L 1079,960 L 1080,960 L 1081,960 L 1081,959 L 1082,959 L 1082,958 L 1082,957 L 1082,956 L 1083,956 L 1084,956 L 1085,956 L 1086,956 L 1086,957 L 1087,957 L 1087,956 L 1088,956 L 1089,956 L 1090,956 L 1090,955 L 1091,955 L 1092,955 L 1093,955 L 1094,955 L 1095,954 L 1096,954 L 1096,955 L 1096,956 L 1097,956 L 1098,956 L 1098,957 L 1099,957 L 1099,958 L 1099,959 L 1099,958 L 1100,958 L 1100,959 L 1100,960 L 1101,961 L 1101,962 L 1102,962 L 1102,963 L 1103,963 L 1104,963 L 1105,963 L 1106,963 L 1107,963 L 1108,963 L 1109,963 L 1110,963 L 1111,962 L 1112,962 L 1112,961 L 1113,961 L 1114,961 L 1114,960 L 1115,960 L 1115,961 L 1115,960 L 1116,960 L 1116,959 L 1117,959 L 1117,960 L 1118,960 L 1119,960 L 1119,961 L 1118,961 L 1119,961 L 1119,962 L 1120,962 L 1120,963 L 1121,963 L 1121,965 L 1123,968 L 1124,969 L 1126,970 L 1126,971 L 1127,972 L 1127,975 L 1128,977 L 1129,978 L 1131,979 L 1132,979 L 1133,982 L 1133,984 L 1131,987 L 1132,990 L 1131,992 L 1130,994 L 1131,996 L 1130,998 L 1130,999 L 1129,999 L 1128,999 L 1128,1000 L 1128,1001 L 1129,1002 L 1129,1003 L 1129,1004 L 1129,1005 L 1128,1006 L 1127,1007 L 1126,1007 L 1126,1008 L 1126,1009 L 1126,1010 L 1127,1011 L 1126,1012 L 1126,1013 L 1126,1015 L 1126,1016 L 1127,1017 L 1127,1019 L 1126,1019 L 1126,1020 L 1126,1021 L 1125,1022 L 1125,1023 L 1125,1024 L 1126,1025 L 1127,1026 L 1127,1027 L 1128,1027 L 1127,1028 L 1126,1028 L 1126,1029 L 1126,1030 L 1125,1031 L 1125,1032 L 1125,1033 L 1125,1034 L 1125,1035 L 1126,1035 L 1126,1036 L 1126,1037 L 1127,1037 L 1128,1038 L 1128,1039 L 1127,1041 L 1127,1044 L 1127,1046 L 1126,1048 L 1127,1049 L 1126,1051 L 1127,1053 L 1127,1056 L 1127,1059 L 1127,1061 L 1127,1062 L 1127,1064 L 1127,1066 L 1127,1068 L 1127,1070 L 1126,1070 L 1125,1072 L 1125,1073 L 1125,1074 L 1124,1074 L 1123,1074 L 1122,1075 L 1122,1076 L 1122,1077 L 1123,1077 L 1122,1077 L 1122,1078 L 1121,1078 L 1120,1078 L 1120,1077 L 1119,1077 L 1118,1077 L 1118,1078 L 1117,1078 L 1116,1078 " /></g>
</svg>
