<?xml version="1.0" standalone="no"?><!DOCTYPE svg PUBLIC "-//W3C//DTD SVG 1.1//EN" "http://www.w3.org/Graphics/SVG/1.1/DTD/svg11.dtd"><svg xmlns="http://www.w3.org/2000/svg" viewBox="1043 832 153 185" version = "1.1">
<g id="10401" ><path d="M 1066,833 L 1066,834 L 1067,835 L 1066,837 L 1067,839 L 1068,840 L 1067,842 L 1067,843 L 1067,845 L 1068,845 L 1069,845 L 1072,844 L 1073,844 L 1078,845 L 1084,844 L 1087,843 L 1088,842 L 1088,843 L 1088,844 L 1089,844 L 1090,844 L 1090,845 L 1089,845 L 1089,846 L 1089,847 L 1088,847 L 1088,848 L 1089,848 L 1089,849 L 1089,850 L 1089,851 L 1089,852 L 1088,852 L 1088,853 L 1089,853 L 1090,853 L 1091,853 L 1092,852 L 1093,852 L 1093,853 L 1093,852 L 1093,853 L 1094,853 L 1094,854 L 1095,854 L 1095,855 L 1095,854 L 1096,854 L 1096,855 L 1096,856 L 1096,855 L 1097,855 L 1097,856 L 1098,856 L 1097,857 L 1096,857 L 1096,858 L 1097,858 L 1097,859 L 1096,859 L 1097,859 L 1097,860 L 1098,860 L 1099,860 L 1100,859 L 1101,859 L 1102,858 L 1103,858 L 1103,857 L 1102,857 L 1103,857 L 1103,856 L 1103,855 L 1103,854 L 1103,853 L 1104,853 L 1104,852 L 1111,852 L 1115,852 L 1119,852 L 1120,852 L 1121,852 L 1121,851 L 1122,851 L 1122,852 L 1122,851 L 1123,851 L 1124,851 L 1125,851 L 1126,851 L 1126,850 L 1126,851 L 1127,851 L 1128,851 L 1129,851 L 1129,850 L 1130,849 L 1131,849 L 1131,848 L 1132,848 L 1133,848 L 1133,849 L 1134,849 L 1135,849 L 1136,849 L 1137,849 L 1138,849 L 1139,849 L 1139,850 L 1140,850 L 1141,850 L 1141,849 L 1142,849 L 1142,848 L 1143,848 L 1143,847 L 1144,847 L 1145,847 L 1146,847 L 1146,846 L 1147,846 L 1147,845 L 1148,845 L 1148,844 L 1147,844 L 1148,844 L 1148,843 L 1148,842 L 1148,841 L 1149,841 L 1150,841 L 1150,840 L 1151,841 L 1152,841 L 1153,841 L 1152,841 L 1152,840 L 1153,840 L 1154,840 L 1154,839 L 1155,839 L 1156,839 L 1157,839 L 1157,838 L 1158,838 L 1158,837 L 1159,838 L 1160,838 L 1161,838 L 1162,838 L 1162,837 L 1163,837 L 1164,837 L 1165,838 L 1166,838 L 1167,838 L 1168,838 L 1169,838 L 1169,837 L 1170,837 L 1171,837 L 1172,837 L 1173,837 L 1174,837 L 1174,838 L 1174,839 L 1173,840 L 1174,840 L 1174,841 L 1175,841 L 1175,842 L 1175,843 L 1176,843 L 1176,844 L 1177,844 L 1177,845 L 1178,845 L 1177,845 L 1177,846 L 1177,847 L 1178,847 L 1178,848 L 1179,848 L 1178,848 L 1178,849 L 1178,850 L 1178,851 L 1178,852 L 1179,852 L 1180,853 L 1181,854 L 1181,855 L 1181,856 L 1181,857 L 1180,857 L 1180,858 L 1181,858 L 1182,859 L 1182,860 L 1182,861 L 1181,861 L 1181,862 L 1181,863 L 1182,863 L 1182,864 L 1182,865 L 1182,866 L 1182,867 L 1182,868 L 1181,869 L 1181,870 L 1182,870 L 1183,870 L 1183,871 L 1182,871 L 1182,872 L 1182,873 L 1181,873 L 1181,874 L 1181,875 L 1180,875 L 1180,876 L 1181,876 L 1182,876 L 1182,877 L 1183,877 L 1183,878 L 1182,878 L 1183,879 L 1183,880 L 1182,880 L 1181,880 L 1182,880 L 1182,881 L 1181,882 L 1181,881 L 1180,881 L 1180,882 L 1180,883 L 1181,883 L 1181,884 L 1181,885 L 1181,886 L 1181,887 L 1180,887 L 1180,888 L 1181,888 L 1181,889 L 1182,889 L 1182,888 L 1183,888 L 1183,889 L 1183,890 L 1183,891 L 1183,890 L 1182,890 L 1182,891 L 1182,892 L 1181,892 L 1181,893 L 1182,893 L 1183,892 L 1184,893 L 1185,893 L 1184,893 L 1184,894 L 1184,895 L 1184,896 L 1185,897 L 1185,898 L 1184,898 L 1184,897 L 1183,897 L 1183,898 L 1183,899 L 1183,900 L 1183,901 L 1184,901 L 1184,900 L 1184,901 L 1185,901 L 1185,902 L 1185,903 L 1184,904 L 1185,905 L 1185,906 L 1186,906 L 1186,907 L 1187,907 L 1187,908 L 1187,909 L 1188,909 L 1188,910 L 1187,909 L 1186,909 L 1186,910 L 1186,911 L 1186,912 L 1186,913 L 1187,913 L 1188,913 L 1188,914 L 1189,914 L 1189,915 L 1188,915 L 1188,916 L 1187,916 L 1186,916 L 1186,915 L 1185,915 L 1185,916 L 1186,916 L 1185,917 L 1186,917 L 1186,918 L 1186,919 L 1187,919 L 1188,919 L 1189,919 L 1189,920 L 1190,921 L 1190,922 L 1190,923 L 1190,924 L 1190,925 L 1191,925 L 1192,926 L 1191,926 L 1191,927 L 1191,928 L 1192,928 L 1193,928 L 1193,927 L 1193,928 L 1194,928 L 1193,928 L 1193,929 L 1192,930 L 1192,931 L 1193,931 L 1194,931 L 1194,932 L 1195,932 L 1196,932 L 1196,933 L 1195,933 L 1195,934 L 1194,934 L 1194,935 L 1194,936 L 1194,937 L 1193,937 L 1192,938 L 1192,939 L 1192,940 L 1191,940 L 1191,939 L 1191,940 L 1191,941 L 1192,942 L 1191,942 L 1191,943 L 1190,943 L 1190,944 L 1189,944 L 1189,945 L 1190,945 L 1191,945 L 1191,946 L 1191,947 L 1190,947 L 1189,947 L 1189,948 L 1188,948 L 1189,949 L 1190,949 L 1190,950 L 1189,950 L 1189,951 L 1189,952 L 1189,953 L 1189,954 L 1189,955 L 1188,955 L 1188,956 L 1189,956 L 1190,956 L 1190,957 L 1191,957 L 1190,958 L 1190,959 L 1190,960 L 1190,961 L 1189,962 L 1188,962 L 1188,963 L 1188,964 L 1189,965 L 1188,965 L 1188,966 L 1187,966 L 1187,967 L 1187,966 L 1186,966 L 1186,967 L 1186,968 L 1187,968 L 1187,967 L 1188,967 L 1188,968 L 1188,969 L 1187,969 L 1187,970 L 1188,971 L 1188,972 L 1187,972 L 1187,973 L 1187,974 L 1186,974 L 1185,974 L 1184,974 L 1183,974 L 1182,975 L 1182,976 L 1181,976 L 1181,977 L 1180,977 L 1180,978 L 1179,978 L 1179,979 L 1178,979 L 1178,980 L 1177,980 L 1176,980 L 1175,980 L 1175,981 L 1174,981 L 1173,981 L 1172,981 L 1171,981 L 1170,981 L 1169,981 L 1168,981 L 1168,980 L 1167,980 L 1167,981 L 1166,981 L 1165,981 L 1164,981 L 1164,982 L 1164,983 L 1165,983 L 1164,984 L 1163,984 L 1162,984 L 1162,985 L 1162,984 L 1161,984 L 1161,983 L 1161,984 L 1161,985 L 1160,985 L 1160,986 L 1161,986 L 1162,986 L 1162,987 L 1161,987 L 1160,987 L 1160,988 L 1160,987 L 1159,987 L 1159,988 L 1158,987 L 1158,988 L 1159,988 L 1160,988 L 1160,989 L 1159,989 L 1160,990 L 1160,991 L 1159,991 L 1158,991 L 1158,990 L 1157,990 L 1158,989 L 1157,989 L 1157,988 L 1157,989 L 1156,990 L 1155,990 L 1154,990 L 1153,990 L 1154,992 L 1154,994 L 1155,996 L 1154,999 L 1155,1000 L 1154,1004 L 1153,1009 L 1154,1010 L 1154,1011 L 1154,1013 L 1155,1013 L 1155,1014 L 1155,1015 L 1154,1016 L 1152,1016 L 1151,1016 L 1150,1016 L 1148,1016 L 1147,1016 L 1146,1016 L 1145,1016 L 1144,1016 L 1143,1016 L 1142,1016 L 1141,1016 L 1140,1016 L 1139,1016 L 1138,1016 L 1139,1015 L 1138,1015 L 1136,1015 L 1136,1016 L 1135,1016 L 1134,1016 L 1134,1017 L 1133,1017 L 1132,1017 L 1131,1017 L 1131,1016 L 1130,1016 L 1129,1016 L 1129,1015 L 1128,1015 L 1128,1014 L 1127,1014 L 1127,1013 L 1126,1012 L 1127,1011 L 1126,1010 L 1126,1009 L 1126,1008 L 1126,1007 L 1127,1007 L 1128,1006 L 1129,1005 L 1129,1004 L 1129,1003 L 1129,1002 L 1128,1001 L 1128,1000 L 1128,999 L 1129,999 L 1130,999 L 1130,998 L 1131,996 L 1130,994 L 1131,992 L 1132,990 L 1131,987 L 1133,984 L 1133,982 L 1132,979 L 1131,979 L 1129,978 L 1128,977 L 1127,975 L 1127,972 L 1126,971 L 1126,970 L 1124,969 L 1123,968 L 1121,965 L 1121,963 L 1120,963 L 1120,962 L 1119,962 L 1119,961 L 1118,961 L 1119,961 L 1119,960 L 1118,960 L 1117,960 L 1117,959 L 1116,959 L 1116,960 L 1115,960 L 1115,961 L 1115,960 L 1114,960 L 1114,961 L 1113,961 L 1112,961 L 1112,962 L 1111,962 L 1110,963 L 1109,963 L 1108,963 L 1107,963 L 1106,963 L 1105,963 L 1104,963 L 1103,963 L 1102,963 L 1102,962 L 1101,962 L 1101,961 L 1100,960 L 1100,959 L 1100,958 L 1099,958 L 1099,959 L 1099,958 L 1099,957 L 1098,957 L 1098,956 L 1097,956 L 1096,956 L 1096,955 L 1096,954 L 1095,954 L 1095,953 L 1094,953 L 1094,952 L 1094,951 L 1093,951 L 1093,950 L 1092,950 L 1092,949 L 1092,948 L 1091,948 L 1090,948 L 1090,947 L 1090,946 L 1090,945 L 1090,944 L 1091,944 L 1091,943 L 1090,942 L 1089,942 L 1089,941 L 1088,941 L 1088,940 L 1087,940 L 1086,940 L 1086,937 L 1085,936 L 1085,937 L 1084,937 L 1083,937 L 1083,936 L 1082,936 L 1081,936 L 1081,935 L 1081,934 L 1080,933 L 1079,934 L 1078,935 L 1077,935 L 1076,935 L 1075,935 L 1074,935 L 1071,934 L 1070,934 L 1068,934 L 1068,933 L 1068,932 L 1068,931 L 1068,930 L 1067,929 L 1068,928 L 1069,927 L 1069,926 L 1069,925 L 1070,925 L 1069,924 L 1068,924 L 1066,923 L 1067,922 L 1068,921 L 1069,921 L 1068,919 L 1067,918 L 1065,916 L 1067,914 L 1068,914 L 1068,913 L 1068,912 L 1069,912 L 1068,911 L 1068,910 L 1068,909 L 1068,908 L 1067,908 L 1067,907 L 1067,906 L 1067,905 L 1067,904 L 1067,903 L 1067,902 L 1067,901 L 1067,900 L 1067,899 L 1064,896 L 1062,896 L 1061,897 L 1060,896 L 1059,896 L 1058,895 L 1057,895 L 1056,895 L 1055,894 L 1054,893 L 1051,894 L 1049,895 L 1050,893 L 1048,891 L 1048,890 L 1048,889 L 1048,888 L 1048,886 L 1047,885 L 1046,885 L 1048,884 L 1048,883 L 1048,882 L 1047,881 L 1048,880 L 1046,880 L 1046,877 L 1045,874 L 1044,870 L 1044,868 L 1043,865 L 1044,864 L 1045,863 L 1045,862 L 1048,860 L 1048,856 L 1049,854 L 1050,853 L 1049,851 L 1050,849 L 1051,847 L 1051,844 L 1051,843 L 1052,843 L 1053,843 L 1054,843 L 1054,842 L 1055,842 L 1056,841 L 1056,840 L 1057,839 L 1058,838 L 1057,837 L 1056,836 L 1055,836 L 1054,836 L 1053,836 L 1053,835 L 1053,834 L 1055,834 L 1056,834 L 1057,834 L 1058,834 L 1060,833 L 1060,834 L 1061,834 L 1062,833 L 1063,832 L 1065,832 L 1066,833 " /></g>
</svg>
