<?xml version="1.0" standalone="no"?><!DOCTYPE svg PUBLIC "-//W3C//DTD SVG 1.1//EN" "http://www.w3.org/Graphics/SVG/1.1/DTD/svg11.dtd"><svg xmlns="http://www.w3.org/2000/svg" viewBox="973 745 85 175" version = "1.1">
<g id="10402" ><path d="M 1020,745 L 1021,746 L 1022,750 L 1026,753 L 1032,767 L 1032,768 L 1031,768 L 1030,768 L 1029,768 L 1029,769 L 1028,769 L 1028,770 L 1028,771 L 1028,772 L 1027,772 L 1027,773 L 1026,774 L 1027,775 L 1027,776 L 1026,776 L 1025,776 L 1024,776 L 1024,778 L 1025,781 L 1027,784 L 1029,786 L 1031,787 L 1032,790 L 1035,791 L 1036,795 L 1038,798 L 1039,800 L 1040,802 L 1043,805 L 1046,806 L 1047,811 L 1047,814 L 1046,818 L 1046,823 L 1048,825 L 1050,826 L 1051,832 L 1053,835 L 1053,836 L 1054,836 L 1055,836 L 1056,836 L 1057,837 L 1058,838 L 1057,839 L 1056,840 L 1056,841 L 1055,842 L 1054,842 L 1054,843 L 1053,843 L 1052,843 L 1051,843 L 1051,844 L 1051,847 L 1050,849 L 1049,851 L 1050,853 L 1049,854 L 1048,856 L 1048,860 L 1045,862 L 1045,863 L 1044,864 L 1043,865 L 1044,868 L 1044,870 L 1045,874 L 1046,877 L 1046,880 L 1048,880 L 1047,881 L 1048,882 L 1048,883 L 1048,884 L 1046,885 L 1045,884 L 1045,885 L 1045,886 L 1044,887 L 1044,886 L 1043,886 L 1041,887 L 1040,886 L 1039,886 L 1038,886 L 1037,886 L 1036,887 L 1035,888 L 1034,887 L 1033,887 L 1032,887 L 1032,888 L 1032,889 L 1032,890 L 1033,890 L 1034,891 L 1034,892 L 1034,893 L 1034,894 L 1033,894 L 1033,895 L 1034,896 L 1033,897 L 1034,897 L 1034,898 L 1034,899 L 1034,900 L 1034,901 L 1034,902 L 1034,903 L 1033,903 L 1033,904 L 1032,905 L 1032,906 L 1031,907 L 1028,908 L 1029,910 L 1029,912 L 1029,913 L 1029,914 L 1027,916 L 1026,916 L 1025,917 L 1023,918 L 1020,918 L 1019,917 L 1018,918 L 1017,918 L 1016,918 L 1017,919 L 1017,920 L 1016,920 L 1014,920 L 1013,919 L 1013,918 L 1011,918 L 1007,915 L 1007,914 L 1006,912 L 1006,910 L 1005,908 L 1005,907 L 1005,906 L 1004,905 L 1003,905 L 1002,904 L 1002,903 L 1001,902 L 1001,901 L 1000,898 L 999,897 L 998,896 L 996,894 L 995,893 L 995,891 L 994,889 L 994,888 L 993,888 L 993,887 L 991,885 L 990,883 L 990,882 L 989,881 L 989,880 L 988,878 L 989,877 L 988,877 L 988,876 L 987,875 L 986,875 L 986,874 L 985,872 L 985,871 L 984,870 L 983,869 L 982,869 L 982,866 L 983,865 L 986,860 L 987,859 L 987,858 L 986,855 L 986,854 L 985,851 L 984,848 L 983,845 L 983,843 L 984,843 L 985,842 L 985,841 L 984,840 L 985,840 L 985,839 L 984,838 L 983,838 L 983,837 L 982,837 L 983,833 L 982,833 L 982,831 L 982,830 L 982,829 L 983,828 L 984,825 L 984,824 L 983,823 L 983,822 L 983,821 L 982,821 L 981,821 L 981,820 L 981,819 L 981,818 L 982,818 L 982,817 L 981,816 L 980,815 L 980,814 L 979,814 L 979,813 L 979,812 L 978,811 L 978,810 L 975,809 L 974,806 L 973,804 L 985,791 L 983,788 L 984,788 L 984,787 L 985,787 L 986,787 L 987,787 L 987,786 L 988,786 L 988,785 L 989,786 L 989,785 L 990,785 L 991,785 L 991,784 L 992,784 L 993,784 L 994,784 L 995,784 L 996,784 L 997,784 L 998,784 L 999,784 L 999,785 L 1000,785 L 1001,785 L 1002,785 L 1003,785 L 1004,785 L 1004,786 L 1005,786 L 1006,786 L 1006,785 L 1007,785 L 1007,784 L 1007,785 L 1008,785 L 1009,785 L 1010,785 L 1010,786 L 1011,786 L 1012,786 L 1012,787 L 1011,787 L 1012,787 L 1013,787 L 1012,786 L 1013,786 L 1014,786 L 1014,785 L 1014,784 L 1014,783 L 1014,782 L 1014,781 L 1013,781 L 1013,780 L 1013,779 L 1014,778 L 1013,777 L 1013,776 L 1013,775 L 1014,775 L 1014,774 L 1013,774 L 1014,773 L 1013,773 L 1013,772 L 1014,772 L 1013,772 L 1013,771 L 1013,770 L 1013,769 L 1013,768 L 1012,768 L 1012,767 L 1012,766 L 1012,765 L 1012,764 L 1012,763 L 1012,762 L 1012,761 L 1011,761 L 1011,760 L 1011,759 L 1011,758 L 1011,757 L 1012,757 L 1012,756 L 1012,755 L 1012,754 L 1011,754 L 1011,753 L 1012,753 L 1012,752 L 1012,751 L 1013,751 L 1013,750 L 1013,749 L 1014,749 L 1015,749 L 1016,749 L 1016,748 L 1017,748 L 1017,747 L 1018,747 L 1018,746 L 1017,746 L 1018,746 L 1018,745 L 1019,745 L 1020,745 " /></g>
</svg>
