<?xml version="1.0" standalone="no"?><!DOCTYPE svg PUBLIC "-//W3C//DTD SVG 1.1//EN" "http://www.w3.org/Graphics/SVG/1.1/DTD/svg11.dtd"><svg xmlns="http://www.w3.org/2000/svg" viewBox="1028 884 67 87" version = "1.1">
<g id="10404" ><path d="M 1048,886 L 1048,888 L 1048,889 L 1048,890 L 1048,891 L 1050,893 L 1049,895 L 1051,894 L 1054,893 L 1055,894 L 1056,895 L 1057,895 L 1058,895 L 1059,896 L 1060,896 L 1061,897 L 1062,896 L 1064,896 L 1067,899 L 1067,900 L 1067,901 L 1067,902 L 1067,903 L 1067,904 L 1067,905 L 1067,906 L 1067,907 L 1067,908 L 1068,908 L 1068,909 L 1068,910 L 1068,911 L 1069,912 L 1068,912 L 1068,913 L 1068,914 L 1067,914 L 1065,916 L 1067,918 L 1068,919 L 1069,921 L 1068,921 L 1067,922 L 1066,923 L 1068,924 L 1069,924 L 1070,925 L 1069,925 L 1069,926 L 1069,927 L 1068,928 L 1067,929 L 1068,930 L 1068,931 L 1068,932 L 1068,933 L 1068,934 L 1070,934 L 1071,934 L 1074,935 L 1075,935 L 1076,935 L 1077,935 L 1078,935 L 1079,934 L 1080,933 L 1081,934 L 1081,935 L 1081,936 L 1082,936 L 1083,936 L 1083,937 L 1084,937 L 1085,937 L 1085,936 L 1086,937 L 1086,940 L 1087,940 L 1088,940 L 1088,941 L 1089,941 L 1089,942 L 1090,942 L 1091,943 L 1091,944 L 1090,944 L 1090,945 L 1090,946 L 1090,947 L 1090,948 L 1091,948 L 1092,948 L 1092,949 L 1092,950 L 1093,950 L 1093,951 L 1094,951 L 1094,952 L 1094,953 L 1095,953 L 1095,954 L 1094,955 L 1093,955 L 1092,955 L 1091,955 L 1090,955 L 1090,956 L 1089,956 L 1088,956 L 1087,956 L 1087,957 L 1086,957 L 1086,956 L 1085,956 L 1084,956 L 1083,956 L 1082,956 L 1082,957 L 1082,958 L 1082,959 L 1081,959 L 1081,960 L 1080,960 L 1079,960 L 1078,960 L 1077,960 L 1076,960 L 1076,961 L 1075,961 L 1074,961 L 1074,962 L 1073,962 L 1073,963 L 1072,963 L 1071,963 L 1071,964 L 1071,965 L 1070,965 L 1071,966 L 1070,966 L 1070,967 L 1070,968 L 1069,968 L 1069,969 L 1068,969 L 1067,969 L 1066,970 L 1065,970 L 1064,970 L 1061,970 L 1060,970 L 1059,971 L 1058,971 L 1055,965 L 1055,963 L 1054,960 L 1055,957 L 1054,957 L 1053,957 L 1052,957 L 1051,957 L 1051,956 L 1050,956 L 1049,956 L 1048,956 L 1047,956 L 1046,955 L 1045,954 L 1044,954 L 1044,953 L 1043,953 L 1042,953 L 1042,952 L 1041,952 L 1040,952 L 1039,952 L 1039,953 L 1038,954 L 1038,953 L 1038,954 L 1037,954 L 1037,953 L 1036,953 L 1034,952 L 1034,951 L 1034,950 L 1034,949 L 1034,946 L 1037,943 L 1036,942 L 1034,941 L 1033,938 L 1034,936 L 1036,934 L 1037,932 L 1037,931 L 1036,930 L 1034,930 L 1032,930 L 1031,929 L 1030,928 L 1030,927 L 1031,926 L 1031,925 L 1031,922 L 1031,920 L 1031,917 L 1030,916 L 1029,914 L 1029,913 L 1029,912 L 1029,910 L 1028,908 L 1031,907 L 1032,906 L 1032,905 L 1033,904 L 1033,903 L 1034,903 L 1034,902 L 1034,901 L 1034,900 L 1034,899 L 1034,898 L 1034,897 L 1033,897 L 1034,896 L 1033,895 L 1033,894 L 1034,894 L 1034,893 L 1034,892 L 1034,891 L 1033,890 L 1032,890 L 1032,889 L 1032,888 L 1032,887 L 1033,887 L 1034,887 L 1035,888 L 1036,887 L 1037,886 L 1038,886 L 1039,886 L 1040,886 L 1041,887 L 1043,886 L 1044,886 L 1044,887 L 1045,886 L 1045,885 L 1045,884 L 1046,885 L 1047,885 L 1048,886 " /></g>
</svg>
