<?xml version="1.0" standalone="no"?><!DOCTYPE svg PUBLIC "-//W3C//DTD SVG 1.1//EN" "http://www.w3.org/Graphics/SVG/1.1/DTD/svg11.dtd"><svg xmlns="http://www.w3.org/2000/svg" viewBox="958 881 101 107" version = "1.1">
<g id="10403" ><path d="M 990,883 L 991,885 L 993,887 L 993,888 L 994,888 L 994,889 L 995,891 L 995,893 L 996,894 L 998,896 L 999,897 L 1000,898 L 1001,901 L 1001,902 L 1002,903 L 1002,904 L 1003,905 L 1004,905 L 1005,906 L 1005,907 L 1005,908 L 1006,910 L 1006,912 L 1007,914 L 1007,915 L 1011,918 L 1013,918 L 1013,919 L 1014,920 L 1016,920 L 1017,920 L 1017,919 L 1016,918 L 1017,918 L 1018,918 L 1019,917 L 1020,918 L 1023,918 L 1025,917 L 1026,916 L 1027,916 L 1029,914 L 1030,916 L 1031,917 L 1031,920 L 1031,922 L 1031,925 L 1031,926 L 1030,927 L 1030,928 L 1031,929 L 1032,930 L 1034,930 L 1036,930 L 1037,931 L 1037,932 L 1036,934 L 1034,936 L 1033,938 L 1034,941 L 1036,942 L 1037,943 L 1034,946 L 1034,949 L 1034,950 L 1034,951 L 1034,952 L 1036,953 L 1037,953 L 1037,954 L 1038,954 L 1038,953 L 1038,954 L 1039,953 L 1039,952 L 1040,952 L 1041,952 L 1042,952 L 1042,953 L 1043,953 L 1044,953 L 1044,954 L 1045,954 L 1046,955 L 1047,956 L 1048,956 L 1049,956 L 1050,956 L 1051,956 L 1051,957 L 1052,957 L 1053,957 L 1054,957 L 1055,957 L 1054,960 L 1055,963 L 1055,965 L 1058,971 L 1059,971 L 1058,972 L 1057,972 L 1056,974 L 1056,975 L 1056,976 L 1055,977 L 1054,979 L 1053,981 L 1053,982 L 1052,984 L 1052,985 L 1049,987 L 1048,987 L 1046,988 L 1043,988 L 1042,987 L 1041,987 L 1038,988 L 1038,987 L 1038,984 L 1039,981 L 1035,980 L 1033,981 L 1031,981 L 1031,980 L 1031,979 L 1030,979 L 1031,978 L 1031,977 L 1031,976 L 1030,976 L 1030,975 L 1029,975 L 1029,974 L 1029,973 L 1028,973 L 1025,974 L 1023,974 L 1022,976 L 1021,978 L 1020,978 L 1014,978 L 1012,976 L 1011,974 L 1011,973 L 1010,972 L 1009,972 L 1008,971 L 1007,970 L 1006,971 L 1003,969 L 1001,970 L 999,972 L 999,973 L 996,976 L 993,975 L 986,974 L 982,974 L 982,975 L 981,975 L 980,975 L 979,975 L 979,974 L 977,974 L 975,974 L 972,976 L 970,975 L 970,974 L 970,973 L 969,973 L 969,972 L 969,968 L 968,966 L 968,964 L 968,959 L 968,955 L 969,953 L 970,947 L 969,945 L 966,943 L 963,938 L 961,937 L 960,935 L 961,932 L 961,930 L 960,928 L 958,927 L 958,926 L 959,920 L 960,918 L 964,915 L 966,913 L 967,908 L 968,906 L 969,904 L 968,902 L 967,901 L 965,901 L 962,900 L 961,899 L 960,898 L 959,895 L 960,894 L 962,893 L 963,893 L 963,892 L 964,892 L 964,893 L 965,892 L 966,892 L 967,892 L 968,891 L 969,891 L 970,891 L 970,890 L 971,890 L 971,891 L 972,891 L 973,891 L 974,891 L 974,890 L 975,890 L 975,891 L 975,890 L 976,889 L 976,888 L 977,888 L 977,887 L 978,887 L 979,887 L 980,887 L 980,888 L 981,887 L 981,888 L 982,888 L 982,887 L 983,887 L 983,886 L 984,886 L 985,886 L 985,885 L 986,885 L 986,884 L 986,883 L 987,883 L 987,884 L 987,883 L 989,881 L 990,882 L 990,883 " /></g>
</svg>
