<?xml version="1.0" standalone="no"?><!DOCTYPE svg PUBLIC "-//W3C//DTD SVG 1.1//EN" "http://www.w3.org/Graphics/SVG/1.1/DTD/svg11.dtd"><svg xmlns="http://www.w3.org/2000/svg" viewBox="1099 1144 148 314" version = "1.1">
<g id="10502" ><path d="M 1172,1148 L 1176,1148 L 1181,1148 L 1184,1147 L 1186,1148 L 1189,1148 L 1193,1150 L 1195,1151 L 1196,1153 L 1197,1154 L 1199,1156 L 1200,1157 L 1201,1157 L 1202,1160 L 1203,1164 L 1204,1165 L 1203,1167 L 1206,1168 L 1206,1169 L 1206,1170 L 1206,1171 L 1205,1171 L 1206,1173 L 1207,1175 L 1208,1176 L 1209,1177 L 1209,1179 L 1209,1180 L 1208,1181 L 1208,1182 L 1208,1184 L 1207,1185 L 1207,1186 L 1207,1187 L 1206,1188 L 1206,1189 L 1206,1192 L 1207,1194 L 1207,1196 L 1208,1197 L 1208,1198 L 1208,1199 L 1207,1199 L 1207,1200 L 1207,1201 L 1207,1203 L 1207,1204 L 1208,1205 L 1208,1207 L 1210,1211 L 1211,1217 L 1213,1222 L 1213,1226 L 1214,1227 L 1213,1228 L 1213,1230 L 1213,1231 L 1213,1233 L 1213,1234 L 1213,1236 L 1213,1237 L 1213,1239 L 1213,1241 L 1213,1243 L 1212,1245 L 1212,1246 L 1213,1246 L 1214,1246 L 1215,1246 L 1216,1246 L 1217,1246 L 1218,1246 L 1218,1245 L 1219,1245 L 1220,1245 L 1221,1245 L 1222,1245 L 1223,1245 L 1223,1244 L 1224,1244 L 1225,1244 L 1225,1243 L 1226,1243 L 1227,1243 L 1227,1242 L 1227,1241 L 1228,1241 L 1229,1241 L 1228,1241 L 1229,1241 L 1229,1242 L 1228,1242 L 1229,1243 L 1229,1242 L 1229,1243 L 1229,1244 L 1230,1244 L 1230,1245 L 1231,1245 L 1232,1245 L 1232,1246 L 1231,1246 L 1232,1246 L 1233,1246 L 1234,1246 L 1234,1247 L 1235,1246 L 1236,1246 L 1236,1247 L 1237,1247 L 1237,1246 L 1237,1247 L 1238,1247 L 1238,1248 L 1238,1249 L 1239,1249 L 1240,1249 L 1241,1249 L 1241,1250 L 1241,1249 L 1242,1250 L 1243,1250 L 1244,1250 L 1245,1250 L 1245,1251 L 1246,1251 L 1246,1252 L 1246,1253 L 1247,1255 L 1247,1256 L 1247,1258 L 1247,1261 L 1247,1264 L 1247,1267 L 1247,1272 L 1247,1277 L 1247,1281 L 1246,1287 L 1245,1291 L 1244,1297 L 1246,1300 L 1246,1302 L 1244,1309 L 1242,1315 L 1242,1322 L 1241,1327 L 1240,1331 L 1239,1335 L 1239,1339 L 1239,1346 L 1239,1347 L 1239,1349 L 1239,1359 L 1240,1365 L 1240,1366 L 1240,1371 L 1240,1372 L 1239,1375 L 1239,1377 L 1239,1380 L 1239,1382 L 1238,1386 L 1238,1388 L 1238,1391 L 1238,1392 L 1237,1392 L 1237,1393 L 1237,1394 L 1237,1395 L 1236,1395 L 1236,1396 L 1236,1397 L 1235,1398 L 1235,1399 L 1235,1400 L 1234,1400 L 1234,1401 L 1233,1401 L 1233,1402 L 1233,1403 L 1233,1404 L 1232,1404 L 1232,1405 L 1232,1406 L 1232,1407 L 1231,1407 L 1230,1408 L 1230,1409 L 1230,1410 L 1229,1410 L 1230,1411 L 1229,1411 L 1229,1412 L 1228,1412 L 1227,1412 L 1226,1412 L 1226,1411 L 1226,1412 L 1225,1412 L 1224,1412 L 1224,1413 L 1224,1414 L 1223,1414 L 1222,1414 L 1221,1414 L 1221,1415 L 1221,1416 L 1221,1418 L 1221,1419 L 1221,1420 L 1221,1422 L 1221,1424 L 1221,1426 L 1221,1431 L 1221,1435 L 1221,1437 L 1221,1439 L 1221,1440 L 1222,1440 L 1222,1441 L 1223,1441 L 1223,1446 L 1224,1451 L 1224,1453 L 1226,1457 L 1185,1457 L 1184,1458 L 1183,1458 L 1182,1458 L 1181,1458 L 1180,1458 L 1180,1457 L 1179,1456 L 1178,1456 L 1178,1455 L 1178,1454 L 1178,1453 L 1179,1452 L 1180,1451 L 1180,1450 L 1180,1449 L 1179,1448 L 1179,1447 L 1178,1447 L 1178,1446 L 1178,1445 L 1178,1444 L 1179,1443 L 1179,1442 L 1179,1441 L 1179,1440 L 1179,1439 L 1179,1438 L 1178,1438 L 1177,1438 L 1177,1439 L 1177,1440 L 1177,1441 L 1176,1441 L 1175,1441 L 1175,1442 L 1174,1442 L 1174,1443 L 1173,1444 L 1171,1443 L 1169,1443 L 1169,1442 L 1168,1442 L 1167,1442 L 1166,1442 L 1166,1441 L 1165,1441 L 1164,1441 L 1163,1441 L 1162,1441 L 1161,1441 L 1160,1440 L 1160,1439 L 1160,1438 L 1160,1437 L 1160,1436 L 1159,1436 L 1159,1435 L 1159,1434 L 1158,1434 L 1157,1434 L 1157,1433 L 1156,1433 L 1156,1432 L 1156,1431 L 1155,1431 L 1155,1430 L 1154,1430 L 1153,1429 L 1151,1428 L 1150,1429 L 1149,1429 L 1148,1429 L 1147,1429 L 1146,1428 L 1145,1428 L 1145,1427 L 1144,1427 L 1143,1426 L 1142,1427 L 1141,1428 L 1141,1429 L 1140,1429 L 1140,1430 L 1140,1431 L 1139,1431 L 1138,1431 L 1137,1431 L 1137,1430 L 1136,1430 L 1136,1429 L 1135,1429 L 1134,1429 L 1134,1430 L 1133,1430 L 1132,1430 L 1132,1429 L 1131,1428 L 1131,1427 L 1130,1426 L 1130,1425 L 1129,1425 L 1128,1424 L 1127,1424 L 1127,1423 L 1128,1422 L 1128,1421 L 1128,1420 L 1128,1419 L 1128,1418 L 1127,1418 L 1126,1417 L 1125,1417 L 1125,1416 L 1124,1415 L 1124,1414 L 1124,1413 L 1124,1412 L 1124,1411 L 1123,1411 L 1123,1410 L 1122,1409 L 1120,1408 L 1119,1408 L 1119,1407 L 1118,1406 L 1118,1405 L 1119,1405 L 1120,1405 L 1120,1404 L 1121,1404 L 1121,1403 L 1121,1402 L 1120,1401 L 1120,1400 L 1120,1399 L 1120,1398 L 1119,1398 L 1118,1398 L 1118,1397 L 1118,1396 L 1118,1395 L 1118,1394 L 1118,1393 L 1118,1392 L 1118,1391 L 1118,1390 L 1118,1389 L 1119,1389 L 1119,1388 L 1119,1387 L 1120,1387 L 1120,1386 L 1119,1386 L 1118,1385 L 1117,1385 L 1117,1384 L 1116,1384 L 1117,1384 L 1117,1383 L 1118,1383 L 1119,1383 L 1120,1383 L 1120,1382 L 1120,1381 L 1120,1380 L 1120,1379 L 1121,1379 L 1121,1378 L 1120,1377 L 1119,1377 L 1119,1378 L 1119,1379 L 1118,1379 L 1117,1379 L 1117,1378 L 1117,1377 L 1118,1377 L 1118,1376 L 1118,1374 L 1119,1374 L 1119,1373 L 1120,1373 L 1120,1372 L 1121,1372 L 1121,1371 L 1122,1371 L 1121,1371 L 1120,1371 L 1119,1371 L 1120,1370 L 1121,1369 L 1120,1368 L 1119,1368 L 1119,1367 L 1119,1366 L 1118,1365 L 1117,1365 L 1116,1364 L 1115,1364 L 1115,1365 L 1114,1365 L 1113,1365 L 1112,1365 L 1111,1365 L 1110,1365 L 1109,1365 L 1109,1364 L 1108,1364 L 1107,1363 L 1107,1362 L 1107,1361 L 1106,1361 L 1106,1360 L 1106,1359 L 1106,1358 L 1105,1357 L 1105,1356 L 1105,1355 L 1105,1354 L 1105,1353 L 1104,1353 L 1103,1353 L 1103,1352 L 1103,1351 L 1103,1350 L 1103,1349 L 1102,1348 L 1102,1347 L 1102,1346 L 1101,1346 L 1101,1345 L 1100,1345 L 1100,1344 L 1100,1343 L 1101,1343 L 1101,1342 L 1100,1341 L 1100,1340 L 1100,1339 L 1101,1340 L 1101,1339 L 1102,1339 L 1102,1338 L 1101,1338 L 1100,1338 L 1100,1337 L 1100,1336 L 1100,1335 L 1100,1334 L 1100,1333 L 1100,1332 L 1101,1332 L 1101,1331 L 1100,1331 L 1099,1331 L 1099,1330 L 1100,1330 L 1100,1329 L 1101,1329 L 1101,1328 L 1101,1327 L 1100,1327 L 1100,1326 L 1100,1325 L 1100,1324 L 1100,1323 L 1100,1322 L 1101,1322 L 1101,1321 L 1101,1320 L 1102,1320 L 1102,1319 L 1101,1319 L 1101,1318 L 1101,1317 L 1101,1316 L 1101,1315 L 1102,1315 L 1102,1314 L 1101,1313 L 1101,1312 L 1102,1311 L 1102,1310 L 1103,1310 L 1103,1309 L 1104,1309 L 1104,1308 L 1103,1308 L 1103,1307 L 1102,1307 L 1102,1306 L 1102,1305 L 1103,1305 L 1104,1305 L 1104,1304 L 1104,1303 L 1103,1303 L 1102,1303 L 1101,1303 L 1101,1302 L 1100,1302 L 1100,1301 L 1100,1300 L 1100,1299 L 1101,1299 L 1102,1299 L 1103,1299 L 1103,1298 L 1103,1297 L 1104,1297 L 1104,1296 L 1104,1295 L 1104,1294 L 1105,1294 L 1105,1293 L 1106,1292 L 1107,1291 L 1108,1290 L 1110,1289 L 1110,1288 L 1110,1287 L 1109,1287 L 1109,1286 L 1109,1285 L 1109,1284 L 1109,1283 L 1109,1282 L 1110,1282 L 1110,1281 L 1109,1281 L 1108,1280 L 1107,1279 L 1107,1278 L 1107,1276 L 1106,1274 L 1107,1273 L 1106,1268 L 1106,1266 L 1107,1266 L 1107,1264 L 1107,1263 L 1107,1262 L 1106,1262 L 1106,1261 L 1106,1260 L 1106,1259 L 1106,1258 L 1107,1257 L 1107,1255 L 1107,1254 L 1108,1254 L 1108,1253 L 1109,1253 L 1109,1252 L 1110,1252 L 1112,1251 L 1113,1251 L 1114,1251 L 1115,1251 L 1116,1251 L 1117,1251 L 1118,1251 L 1118,1250 L 1119,1250 L 1119,1249 L 1120,1250 L 1120,1251 L 1120,1250 L 1121,1250 L 1122,1250 L 1123,1250 L 1123,1249 L 1124,1249 L 1125,1248 L 1126,1248 L 1127,1248 L 1128,1248 L 1129,1248 L 1130,1249 L 1132,1249 L 1133,1249 L 1134,1249 L 1135,1249 L 1136,1249 L 1136,1248 L 1137,1248 L 1138,1249 L 1139,1250 L 1140,1250 L 1141,1250 L 1142,1250 L 1143,1250 L 1144,1250 L 1145,1250 L 1146,1251 L 1147,1251 L 1148,1252 L 1149,1252 L 1150,1252 L 1151,1252 L 1151,1253 L 1152,1253 L 1152,1254 L 1153,1255 L 1154,1257 L 1155,1257 L 1155,1258 L 1156,1258 L 1157,1258 L 1158,1258 L 1158,1259 L 1159,1259 L 1159,1260 L 1160,1260 L 1160,1261 L 1161,1261 L 1162,1261 L 1162,1262 L 1163,1262 L 1163,1263 L 1164,1263 L 1165,1263 L 1165,1261 L 1164,1259 L 1163,1259 L 1163,1258 L 1164,1258 L 1164,1257 L 1164,1256 L 1165,1256 L 1165,1255 L 1165,1254 L 1165,1253 L 1165,1252 L 1165,1251 L 1165,1250 L 1165,1249 L 1166,1249 L 1166,1248 L 1166,1247 L 1167,1247 L 1166,1247 L 1166,1246 L 1166,1245 L 1166,1244 L 1166,1243 L 1165,1242 L 1165,1241 L 1164,1239 L 1164,1238 L 1165,1237 L 1164,1235 L 1163,1234 L 1164,1232 L 1165,1231 L 1166,1230 L 1165,1228 L 1165,1227 L 1165,1226 L 1163,1225 L 1163,1223 L 1164,1221 L 1164,1219 L 1165,1217 L 1166,1216 L 1166,1215 L 1165,1213 L 1165,1211 L 1166,1209 L 1166,1207 L 1167,1206 L 1168,1201 L 1167,1196 L 1167,1194 L 1166,1192 L 1167,1191 L 1168,1191 L 1170,1190 L 1168,1182 L 1167,1178 L 1165,1173 L 1165,1171 L 1166,1170 L 1166,1168 L 1165,1167 L 1164,1163 L 1164,1161 L 1165,1160 L 1165,1159 L 1165,1157 L 1165,1156 L 1163,1153 L 1164,1152 L 1163,1149 L 1163,1147 L 1163,1146 L 1165,1145 L 1165,1144 L 1167,1144 L 1169,1144 L 1171,1147 L 1172,1148 " /></g>
</svg>
