<?xml version="1.0" standalone="no"?><!DOCTYPE svg PUBLIC "-//W3C//DTD SVG 1.1//EN" "http://www.w3.org/Graphics/SVG/1.1/DTD/svg11.dtd"><svg xmlns="http://www.w3.org/2000/svg" viewBox="1063 942 180 358" version = "1.1">
<g id="10501" ><path d="M 1147,1016 L 1148,1016 L 1150,1016 L 1151,1016 L 1152,1016 L 1154,1016 L 1155,1015 L 1155,1014 L 1155,1013 L 1154,1013 L 1154,1011 L 1154,1010 L 1153,1009 L 1154,1004 L 1155,1000 L 1154,999 L 1155,996 L 1154,994 L 1154,992 L 1153,990 L 1154,990 L 1155,990 L 1156,990 L 1157,989 L 1157,988 L 1157,989 L 1158,989 L 1157,990 L 1158,990 L 1158,991 L 1159,991 L 1160,991 L 1160,990 L 1159,989 L 1160,989 L 1160,988 L 1159,988 L 1158,988 L 1158,987 L 1159,988 L 1159,987 L 1160,987 L 1160,988 L 1160,987 L 1161,987 L 1162,987 L 1162,986 L 1161,986 L 1160,986 L 1160,985 L 1161,985 L 1161,984 L 1161,983 L 1161,984 L 1162,984 L 1162,985 L 1162,984 L 1163,984 L 1164,984 L 1165,983 L 1164,983 L 1164,982 L 1164,981 L 1165,981 L 1166,981 L 1167,981 L 1167,980 L 1168,980 L 1168,981 L 1169,981 L 1170,981 L 1171,981 L 1172,981 L 1173,981 L 1174,981 L 1175,981 L 1175,980 L 1176,980 L 1177,980 L 1178,980 L 1178,979 L 1179,979 L 1179,978 L 1180,978 L 1180,977 L 1181,977 L 1181,976 L 1182,976 L 1182,975 L 1183,974 L 1184,974 L 1185,974 L 1186,974 L 1187,974 L 1187,973 L 1187,972 L 1188,972 L 1188,971 L 1187,970 L 1187,969 L 1188,969 L 1188,968 L 1188,967 L 1187,967 L 1187,968 L 1186,968 L 1186,967 L 1186,966 L 1187,966 L 1187,967 L 1187,966 L 1188,966 L 1188,965 L 1189,965 L 1188,964 L 1188,963 L 1188,962 L 1189,962 L 1190,961 L 1190,960 L 1190,959 L 1190,958 L 1191,957 L 1190,957 L 1190,956 L 1189,956 L 1188,956 L 1188,955 L 1189,955 L 1189,954 L 1189,953 L 1189,952 L 1189,951 L 1189,950 L 1190,950 L 1190,949 L 1189,949 L 1188,948 L 1189,948 L 1189,947 L 1190,947 L 1191,947 L 1191,946 L 1191,945 L 1190,945 L 1189,945 L 1189,944 L 1190,944 L 1190,943 L 1191,943 L 1192,943 L 1192,944 L 1192,943 L 1193,943 L 1194,944 L 1194,943 L 1195,943 L 1195,942 L 1196,942 L 1197,942 L 1198,942 L 1199,942 L 1200,942 L 1201,942 L 1202,943 L 1203,943 L 1204,943 L 1205,944 L 1206,945 L 1207,945 L 1208,948 L 1210,950 L 1210,954 L 1210,955 L 1210,960 L 1210,962 L 1211,967 L 1211,970 L 1212,977 L 1212,983 L 1212,984 L 1212,989 L 1211,991 L 1213,995 L 1214,998 L 1214,1000 L 1213,1002 L 1213,1007 L 1213,1015 L 1214,1022 L 1214,1025 L 1214,1031 L 1216,1039 L 1218,1046 L 1219,1051 L 1223,1060 L 1227,1066 L 1232,1072 L 1233,1080 L 1233,1082 L 1235,1084 L 1236,1087 L 1235,1089 L 1235,1099 L 1235,1101 L 1235,1111 L 1234,1113 L 1233,1116 L 1235,1118 L 1235,1133 L 1234,1137 L 1234,1146 L 1233,1159 L 1236,1164 L 1235,1170 L 1236,1174 L 1236,1177 L 1236,1183 L 1236,1197 L 1237,1206 L 1238,1213 L 1236,1220 L 1237,1226 L 1237,1229 L 1237,1228 L 1238,1228 L 1238,1227 L 1239,1227 L 1239,1226 L 1240,1226 L 1241,1226 L 1241,1225 L 1242,1226 L 1243,1226 L 1243,1227 L 1243,1228 L 1243,1229 L 1242,1229 L 1243,1229 L 1243,1230 L 1243,1231 L 1243,1232 L 1242,1232 L 1242,1233 L 1243,1233 L 1243,1234 L 1243,1235 L 1243,1236 L 1242,1236 L 1242,1237 L 1242,1243 L 1242,1246 L 1242,1247 L 1242,1248 L 1242,1249 L 1241,1249 L 1241,1250 L 1241,1249 L 1240,1249 L 1239,1249 L 1238,1249 L 1238,1248 L 1238,1247 L 1237,1247 L 1237,1246 L 1237,1247 L 1236,1247 L 1236,1246 L 1235,1246 L 1234,1247 L 1234,1246 L 1233,1246 L 1232,1246 L 1231,1246 L 1232,1246 L 1232,1245 L 1231,1245 L 1230,1245 L 1230,1244 L 1229,1244 L 1229,1243 L 1229,1242 L 1229,1243 L 1228,1242 L 1229,1242 L 1229,1241 L 1228,1241 L 1229,1241 L 1228,1241 L 1227,1241 L 1227,1242 L 1227,1243 L 1226,1243 L 1225,1243 L 1225,1244 L 1224,1244 L 1223,1244 L 1223,1245 L 1222,1245 L 1221,1245 L 1220,1245 L 1219,1245 L 1218,1245 L 1218,1246 L 1217,1246 L 1216,1246 L 1215,1246 L 1214,1246 L 1213,1246 L 1212,1246 L 1212,1245 L 1213,1243 L 1213,1241 L 1213,1239 L 1213,1237 L 1213,1236 L 1213,1234 L 1213,1233 L 1213,1231 L 1213,1230 L 1213,1228 L 1214,1227 L 1213,1226 L 1213,1222 L 1211,1217 L 1210,1211 L 1208,1207 L 1208,1205 L 1207,1204 L 1207,1203 L 1207,1201 L 1207,1200 L 1207,1199 L 1208,1199 L 1208,1198 L 1208,1197 L 1207,1196 L 1207,1194 L 1206,1192 L 1206,1189 L 1206,1188 L 1207,1187 L 1207,1186 L 1207,1185 L 1208,1184 L 1208,1182 L 1208,1181 L 1209,1180 L 1209,1179 L 1209,1177 L 1208,1176 L 1207,1175 L 1206,1173 L 1205,1171 L 1206,1171 L 1206,1170 L 1206,1169 L 1206,1168 L 1203,1167 L 1204,1165 L 1203,1164 L 1202,1160 L 1201,1157 L 1200,1157 L 1199,1156 L 1197,1154 L 1196,1153 L 1195,1151 L 1193,1150 L 1189,1148 L 1186,1148 L 1184,1147 L 1181,1148 L 1176,1148 L 1172,1148 L 1171,1147 L 1169,1144 L 1167,1144 L 1165,1144 L 1165,1145 L 1163,1146 L 1163,1147 L 1163,1149 L 1164,1152 L 1163,1153 L 1165,1156 L 1165,1157 L 1165,1159 L 1165,1160 L 1164,1161 L 1164,1163 L 1165,1167 L 1166,1168 L 1166,1170 L 1165,1171 L 1165,1173 L 1167,1178 L 1168,1182 L 1170,1190 L 1168,1191 L 1167,1191 L 1166,1192 L 1167,1194 L 1167,1196 L 1168,1201 L 1167,1206 L 1166,1207 L 1166,1209 L 1165,1211 L 1165,1213 L 1166,1215 L 1166,1216 L 1165,1217 L 1164,1219 L 1164,1221 L 1163,1223 L 1163,1225 L 1165,1226 L 1165,1227 L 1165,1228 L 1166,1230 L 1165,1231 L 1164,1232 L 1163,1234 L 1164,1235 L 1165,1237 L 1164,1238 L 1164,1239 L 1165,1241 L 1165,1242 L 1166,1243 L 1166,1244 L 1166,1245 L 1166,1246 L 1166,1247 L 1167,1247 L 1166,1247 L 1166,1248 L 1166,1249 L 1165,1249 L 1165,1250 L 1165,1251 L 1165,1252 L 1165,1253 L 1165,1254 L 1165,1255 L 1165,1256 L 1164,1256 L 1164,1257 L 1164,1258 L 1163,1258 L 1163,1259 L 1164,1259 L 1165,1261 L 1165,1263 L 1164,1263 L 1163,1263 L 1163,1262 L 1162,1262 L 1162,1261 L 1161,1261 L 1160,1261 L 1160,1260 L 1159,1260 L 1159,1259 L 1158,1259 L 1158,1258 L 1157,1258 L 1156,1258 L 1155,1258 L 1155,1257 L 1154,1257 L 1153,1255 L 1152,1254 L 1152,1253 L 1151,1253 L 1151,1252 L 1150,1252 L 1149,1252 L 1148,1252 L 1147,1251 L 1146,1251 L 1145,1250 L 1144,1250 L 1143,1250 L 1142,1250 L 1141,1250 L 1140,1250 L 1139,1250 L 1138,1249 L 1137,1248 L 1136,1248 L 1136,1249 L 1135,1249 L 1134,1249 L 1133,1249 L 1132,1249 L 1130,1249 L 1129,1248 L 1128,1248 L 1127,1248 L 1126,1248 L 1125,1248 L 1124,1249 L 1123,1249 L 1123,1250 L 1122,1250 L 1121,1250 L 1120,1250 L 1120,1251 L 1120,1250 L 1119,1249 L 1119,1250 L 1118,1250 L 1118,1251 L 1117,1251 L 1116,1251 L 1115,1251 L 1114,1251 L 1113,1251 L 1112,1251 L 1110,1252 L 1109,1252 L 1109,1253 L 1108,1253 L 1108,1254 L 1107,1254 L 1107,1255 L 1107,1257 L 1106,1258 L 1106,1259 L 1106,1260 L 1106,1261 L 1106,1262 L 1107,1262 L 1107,1263 L 1107,1264 L 1107,1266 L 1106,1266 L 1106,1268 L 1107,1273 L 1106,1274 L 1107,1276 L 1107,1278 L 1107,1279 L 1108,1280 L 1109,1281 L 1110,1281 L 1110,1282 L 1109,1282 L 1109,1283 L 1109,1284 L 1109,1285 L 1109,1286 L 1109,1287 L 1110,1287 L 1110,1288 L 1110,1289 L 1108,1290 L 1107,1291 L 1106,1292 L 1105,1293 L 1105,1294 L 1104,1294 L 1104,1295 L 1104,1296 L 1104,1297 L 1103,1297 L 1103,1298 L 1103,1299 L 1102,1299 L 1101,1299 L 1100,1299 L 1100,1300 L 1099,1299 L 1099,1298 L 1099,1297 L 1098,1297 L 1097,1296 L 1096,1296 L 1095,1296 L 1094,1296 L 1094,1297 L 1093,1297 L 1092,1296 L 1091,1296 L 1091,1295 L 1091,1294 L 1091,1293 L 1090,1293 L 1090,1292 L 1090,1291 L 1089,1291 L 1089,1290 L 1090,1289 L 1089,1288 L 1089,1287 L 1088,1287 L 1087,1287 L 1086,1287 L 1085,1287 L 1085,1286 L 1084,1286 L 1085,1285 L 1085,1284 L 1085,1283 L 1085,1282 L 1084,1280 L 1085,1280 L 1085,1279 L 1085,1278 L 1086,1278 L 1086,1277 L 1086,1276 L 1086,1275 L 1085,1275 L 1084,1275 L 1084,1274 L 1083,1274 L 1084,1273 L 1084,1272 L 1084,1271 L 1084,1270 L 1085,1270 L 1084,1270 L 1084,1269 L 1083,1269 L 1083,1268 L 1084,1268 L 1084,1267 L 1084,1266 L 1084,1265 L 1083,1265 L 1083,1264 L 1083,1263 L 1084,1263 L 1083,1263 L 1083,1262 L 1084,1262 L 1084,1261 L 1083,1261 L 1084,1261 L 1084,1260 L 1084,1259 L 1084,1258 L 1084,1257 L 1084,1256 L 1085,1256 L 1085,1255 L 1085,1254 L 1085,1253 L 1086,1253 L 1086,1252 L 1087,1252 L 1087,1251 L 1087,1250 L 1087,1249 L 1086,1249 L 1086,1248 L 1085,1248 L 1085,1247 L 1084,1247 L 1085,1247 L 1085,1246 L 1084,1246 L 1084,1245 L 1084,1244 L 1084,1243 L 1085,1242 L 1085,1241 L 1085,1240 L 1084,1240 L 1084,1239 L 1084,1238 L 1084,1237 L 1084,1236 L 1085,1236 L 1084,1236 L 1084,1235 L 1084,1234 L 1084,1233 L 1084,1232 L 1084,1231 L 1083,1231 L 1084,1231 L 1084,1230 L 1084,1229 L 1083,1229 L 1083,1228 L 1083,1226 L 1082,1224 L 1081,1223 L 1081,1222 L 1081,1221 L 1080,1221 L 1081,1221 L 1080,1221 L 1080,1220 L 1079,1219 L 1076,1214 L 1078,1211 L 1078,1210 L 1079,1209 L 1079,1208 L 1080,1208 L 1081,1208 L 1082,1208 L 1082,1207 L 1083,1207 L 1083,1208 L 1084,1208 L 1085,1208 L 1085,1207 L 1084,1206 L 1083,1206 L 1083,1205 L 1082,1205 L 1082,1204 L 1082,1203 L 1082,1202 L 1082,1201 L 1082,1198 L 1082,1195 L 1081,1192 L 1081,1189 L 1081,1188 L 1080,1185 L 1079,1185 L 1077,1185 L 1075,1182 L 1076,1180 L 1075,1177 L 1076,1174 L 1076,1171 L 1080,1168 L 1081,1164 L 1083,1158 L 1083,1155 L 1081,1147 L 1080,1145 L 1077,1143 L 1076,1142 L 1076,1141 L 1076,1139 L 1075,1137 L 1075,1136 L 1073,1135 L 1072,1135 L 1071,1135 L 1070,1135 L 1070,1133 L 1069,1132 L 1069,1131 L 1068,1130 L 1068,1129 L 1066,1129 L 1066,1125 L 1063,1122 L 1064,1116 L 1067,1115 L 1069,1114 L 1069,1115 L 1070,1116 L 1071,1116 L 1074,1112 L 1074,1107 L 1073,1100 L 1072,1098 L 1072,1094 L 1072,1093 L 1073,1091 L 1074,1090 L 1074,1087 L 1075,1084 L 1074,1081 L 1075,1079 L 1075,1077 L 1075,1076 L 1077,1074 L 1078,1074 L 1081,1074 L 1083,1073 L 1085,1074 L 1088,1073 L 1089,1074 L 1090,1074 L 1092,1074 L 1095,1076 L 1098,1076 L 1100,1074 L 1100,1073 L 1100,1072 L 1103,1072 L 1106,1074 L 1108,1074 L 1110,1075 L 1111,1076 L 1113,1076 L 1115,1078 L 1116,1078 L 1117,1078 L 1118,1078 L 1118,1077 L 1119,1077 L 1120,1077 L 1120,1078 L 1121,1078 L 1122,1078 L 1122,1077 L 1123,1077 L 1122,1077 L 1122,1076 L 1122,1075 L 1123,1074 L 1124,1074 L 1125,1074 L 1125,1073 L 1125,1072 L 1126,1070 L 1127,1070 L 1127,1068 L 1127,1066 L 1127,1064 L 1127,1062 L 1127,1061 L 1127,1059 L 1127,1056 L 1127,1053 L 1126,1051 L 1127,1049 L 1126,1048 L 1127,1046 L 1127,1044 L 1127,1041 L 1128,1039 L 1128,1038 L 1127,1037 L 1126,1037 L 1126,1036 L 1126,1035 L 1125,1035 L 1125,1034 L 1125,1033 L 1125,1032 L 1125,1031 L 1126,1030 L 1126,1029 L 1126,1028 L 1127,1028 L 1128,1027 L 1127,1027 L 1127,1026 L 1126,1025 L 1125,1024 L 1125,1023 L 1125,1022 L 1126,1021 L 1126,1020 L 1126,1019 L 1127,1019 L 1127,1017 L 1126,1016 L 1126,1015 L 1126,1013 L 1126,1012 L 1127,1013 L 1127,1014 L 1128,1014 L 1128,1015 L 1129,1015 L 1129,1016 L 1130,1016 L 1131,1016 L 1131,1017 L 1132,1017 L 1133,1017 L 1134,1017 L 1134,1016 L 1135,1016 L 1136,1016 L 1136,1015 L 1138,1015 L 1139,1015 L 1138,1016 L 1139,1016 L 1140,1016 L 1141,1016 L 1142,1016 L 1143,1016 L 1144,1016 L 1145,1016 L 1146,1016 L 1147,1016 " /></g>
</svg>
