<?xml version="1.0" standalone="no"?><!DOCTYPE svg PUBLIC "-//W3C//DTD SVG 1.1//EN" "http://www.w3.org/Graphics/SVG/1.1/DTD/svg11.dtd"><svg xmlns="http://www.w3.org/2000/svg" viewBox="811 737 129 183" version = "1.1">
<g id="10601" ><path d="M 835,738 L 836,738 L 837,738 L 838,739 L 839,739 L 840,739 L 840,740 L 842,741 L 843,741 L 844,741 L 844,742 L 845,742 L 846,742 L 847,742 L 849,743 L 849,744 L 851,746 L 850,749 L 851,751 L 852,755 L 852,757 L 856,763 L 856,765 L 856,769 L 855,773 L 854,777 L 852,779 L 852,780 L 855,782 L 856,785 L 857,785 L 857,786 L 858,786 L 858,788 L 859,789 L 863,787 L 864,786 L 865,786 L 865,785 L 865,784 L 867,783 L 868,782 L 870,781 L 871,781 L 873,780 L 875,784 L 877,786 L 879,787 L 880,787 L 881,787 L 881,786 L 882,786 L 882,785 L 883,785 L 883,784 L 884,783 L 884,782 L 884,781 L 883,780 L 882,780 L 882,779 L 881,779 L 882,778 L 884,776 L 886,777 L 887,778 L 888,778 L 890,779 L 893,781 L 896,784 L 896,785 L 898,786 L 901,789 L 901,791 L 902,795 L 902,797 L 902,799 L 905,798 L 906,799 L 909,799 L 911,798 L 915,800 L 917,801 L 921,805 L 923,808 L 924,811 L 920,815 L 920,816 L 921,816 L 921,817 L 922,819 L 923,820 L 925,822 L 926,823 L 929,829 L 929,831 L 929,834 L 930,835 L 930,839 L 930,843 L 931,845 L 931,847 L 933,850 L 934,852 L 935,855 L 937,859 L 937,864 L 937,866 L 937,868 L 939,874 L 940,878 L 939,879 L 937,881 L 933,882 L 932,882 L 931,882 L 930,882 L 929,882 L 926,884 L 925,884 L 924,884 L 923,884 L 921,884 L 919,884 L 911,883 L 910,882 L 907,880 L 905,879 L 903,879 L 901,880 L 898,881 L 894,883 L 893,887 L 893,888 L 893,889 L 894,889 L 894,890 L 894,891 L 894,892 L 894,893 L 893,893 L 892,893 L 892,894 L 891,895 L 892,895 L 892,896 L 892,897 L 892,898 L 893,898 L 893,899 L 893,900 L 894,900 L 894,901 L 894,902 L 894,903 L 895,903 L 894,903 L 893,903 L 893,904 L 892,904 L 891,904 L 891,905 L 890,905 L 890,906 L 890,905 L 890,906 L 889,906 L 889,905 L 889,906 L 888,906 L 887,906 L 887,907 L 886,907 L 886,908 L 886,909 L 886,910 L 887,910 L 886,910 L 886,911 L 886,912 L 886,913 L 887,913 L 887,914 L 887,915 L 888,915 L 887,915 L 887,916 L 886,916 L 886,917 L 886,918 L 885,918 L 885,919 L 884,919 L 883,919 L 883,920 L 882,920 L 881,919 L 880,919 L 880,918 L 880,917 L 880,916 L 881,916 L 881,915 L 881,914 L 881,913 L 881,912 L 880,911 L 879,911 L 879,910 L 880,910 L 882,908 L 882,906 L 882,905 L 882,904 L 882,903 L 880,901 L 880,900 L 879,900 L 879,899 L 878,898 L 876,896 L 876,895 L 875,895 L 875,894 L 874,894 L 874,893 L 873,893 L 873,892 L 873,891 L 873,890 L 872,890 L 873,890 L 873,889 L 872,889 L 872,888 L 871,888 L 870,888 L 870,887 L 869,887 L 869,886 L 868,886 L 868,885 L 867,885 L 866,885 L 867,884 L 867,883 L 866,882 L 867,882 L 868,882 L 868,881 L 868,882 L 869,882 L 870,882 L 870,880 L 870,878 L 870,877 L 869,875 L 860,876 L 860,875 L 854,873 L 852,872 L 852,871 L 853,866 L 852,863 L 852,857 L 853,857 L 853,856 L 853,855 L 854,855 L 854,854 L 854,853 L 853,853 L 853,852 L 853,851 L 852,851 L 851,850 L 849,851 L 849,853 L 847,855 L 846,855 L 843,854 L 843,851 L 842,848 L 843,845 L 843,843 L 843,839 L 842,834 L 840,828 L 839,825 L 838,825 L 838,824 L 837,824 L 831,823 L 829,819 L 829,818 L 829,817 L 829,816 L 828,816 L 828,815 L 827,815 L 827,814 L 826,814 L 825,812 L 825,810 L 824,809 L 823,806 L 822,806 L 822,805 L 821,805 L 820,804 L 820,803 L 820,802 L 820,801 L 821,801 L 822,801 L 822,800 L 822,799 L 822,798 L 822,797 L 822,796 L 822,795 L 822,794 L 821,793 L 820,793 L 819,793 L 819,792 L 819,791 L 819,790 L 819,789 L 818,789 L 818,788 L 818,787 L 817,787 L 817,786 L 817,785 L 817,784 L 817,783 L 817,782 L 818,782 L 818,783 L 819,783 L 819,782 L 819,783 L 820,782 L 821,782 L 822,782 L 822,781 L 824,779 L 822,777 L 821,773 L 820,771 L 818,770 L 816,765 L 815,762 L 813,761 L 813,759 L 811,757 L 812,756 L 813,756 L 814,756 L 816,756 L 817,758 L 818,759 L 820,761 L 821,762 L 821,763 L 821,764 L 822,764 L 823,764 L 824,764 L 826,763 L 827,763 L 828,763 L 829,762 L 829,758 L 828,755 L 827,753 L 826,753 L 825,752 L 823,752 L 821,749 L 822,748 L 822,747 L 821,746 L 822,745 L 822,744 L 823,744 L 823,743 L 824,743 L 824,742 L 825,742 L 825,739 L 826,738 L 826,737 L 827,737 L 828,737 L 829,737 L 830,737 L 831,737 L 832,737 L 833,737 L 834,738 L 835,738 " /></g>
</svg>
