<?xml version="1.0" standalone="no"?><!DOCTYPE svg PUBLIC "-//W3C//DTD SVG 1.1//EN" "http://www.w3.org/Graphics/SVG/1.1/DTD/svg11.dtd"><svg xmlns="http://www.w3.org/2000/svg" viewBox="776 804 106 110" version = "1.1">
<g id="10602" ><path d="M 824,809 L 825,810 L 825,812 L 826,814 L 827,814 L 827,815 L 828,815 L 828,816 L 829,816 L 829,817 L 829,818 L 829,819 L 831,823 L 837,824 L 838,824 L 838,825 L 839,825 L 840,828 L 842,834 L 843,839 L 843,843 L 843,845 L 842,848 L 843,851 L 843,854 L 846,855 L 847,855 L 849,853 L 849,851 L 851,850 L 852,851 L 853,851 L 853,852 L 853,853 L 854,853 L 854,854 L 854,855 L 853,855 L 853,856 L 853,857 L 852,857 L 852,863 L 853,866 L 852,871 L 852,872 L 854,873 L 860,875 L 860,876 L 869,875 L 870,877 L 870,878 L 870,880 L 870,882 L 869,882 L 868,882 L 868,881 L 868,882 L 867,882 L 866,882 L 867,883 L 867,884 L 866,885 L 867,885 L 868,885 L 868,886 L 869,886 L 869,887 L 870,887 L 870,888 L 871,888 L 872,888 L 872,889 L 873,889 L 873,890 L 872,890 L 873,890 L 873,891 L 873,892 L 873,893 L 874,893 L 874,894 L 875,894 L 875,895 L 876,895 L 876,896 L 878,898 L 879,899 L 879,900 L 880,900 L 880,901 L 882,903 L 882,904 L 882,905 L 882,906 L 882,908 L 880,910 L 879,910 L 878,910 L 877,910 L 876,910 L 876,909 L 875,908 L 875,907 L 875,906 L 875,905 L 875,904 L 874,904 L 873,904 L 873,905 L 872,906 L 871,907 L 870,907 L 869,907 L 869,906 L 868,906 L 867,906 L 866,905 L 865,905 L 864,905 L 863,905 L 862,905 L 861,905 L 860,905 L 859,904 L 859,903 L 858,903 L 857,902 L 856,901 L 854,901 L 853,902 L 852,902 L 851,903 L 850,903 L 849,903 L 848,903 L 847,903 L 845,903 L 844,903 L 843,903 L 842,904 L 841,904 L 840,905 L 839,906 L 838,907 L 838,908 L 837,908 L 836,909 L 835,909 L 834,909 L 833,909 L 833,910 L 833,911 L 832,911 L 831,911 L 831,912 L 831,913 L 830,913 L 829,914 L 828,914 L 827,914 L 826,914 L 825,914 L 824,914 L 823,914 L 823,913 L 822,913 L 822,912 L 821,912 L 820,912 L 819,912 L 819,911 L 818,911 L 818,910 L 818,909 L 817,909 L 817,908 L 816,908 L 815,908 L 814,909 L 813,909 L 812,909 L 812,910 L 811,910 L 810,910 L 809,910 L 808,910 L 808,911 L 807,911 L 806,911 L 806,910 L 805,910 L 804,910 L 804,911 L 803,911 L 802,911 L 801,911 L 800,911 L 799,911 L 799,912 L 798,912 L 797,911 L 796,911 L 795,911 L 794,911 L 794,910 L 793,910 L 793,909 L 792,909 L 791,909 L 790,909 L 790,908 L 790,907 L 789,906 L 789,905 L 790,905 L 790,904 L 790,903 L 790,902 L 791,902 L 791,901 L 791,900 L 791,899 L 792,899 L 792,898 L 792,897 L 792,896 L 792,895 L 792,894 L 793,894 L 793,893 L 793,892 L 793,891 L 793,890 L 793,889 L 793,888 L 793,887 L 793,886 L 793,885 L 793,884 L 793,883 L 792,882 L 792,881 L 792,880 L 793,880 L 793,879 L 794,878 L 795,878 L 795,877 L 795,876 L 796,875 L 795,873 L 791,867 L 789,866 L 785,861 L 783,856 L 779,849 L 778,844 L 777,842 L 776,840 L 776,839 L 777,838 L 778,838 L 778,837 L 779,836 L 780,836 L 782,836 L 783,837 L 784,837 L 785,836 L 785,835 L 785,834 L 784,834 L 784,833 L 785,833 L 784,833 L 784,832 L 784,831 L 784,830 L 783,830 L 783,829 L 782,829 L 783,829 L 783,828 L 784,827 L 784,826 L 784,825 L 785,825 L 786,824 L 787,824 L 788,823 L 788,822 L 789,822 L 789,821 L 789,820 L 789,819 L 789,818 L 788,818 L 788,817 L 788,816 L 788,815 L 788,814 L 789,814 L 790,814 L 789,815 L 790,815 L 791,815 L 791,814 L 792,814 L 792,815 L 792,814 L 793,814 L 793,815 L 793,816 L 793,817 L 793,818 L 793,819 L 792,819 L 793,819 L 792,819 L 792,820 L 793,820 L 793,821 L 794,821 L 794,820 L 795,820 L 796,819 L 796,818 L 795,818 L 795,817 L 795,816 L 796,816 L 797,816 L 798,815 L 799,815 L 800,815 L 800,814 L 801,814 L 801,813 L 802,813 L 803,813 L 803,814 L 803,815 L 803,816 L 804,816 L 804,817 L 804,818 L 805,818 L 805,819 L 805,820 L 806,820 L 806,821 L 806,822 L 807,822 L 807,823 L 807,824 L 808,825 L 808,826 L 809,827 L 810,828 L 811,829 L 811,830 L 811,829 L 812,829 L 812,828 L 813,828 L 813,829 L 813,828 L 814,828 L 815,828 L 815,827 L 816,827 L 815,827 L 815,826 L 815,825 L 816,825 L 816,824 L 816,823 L 817,823 L 817,822 L 817,821 L 816,821 L 816,820 L 815,820 L 815,819 L 815,818 L 814,818 L 814,817 L 814,816 L 813,816 L 812,815 L 812,814 L 812,813 L 812,812 L 812,811 L 813,811 L 814,811 L 815,811 L 815,810 L 815,809 L 815,808 L 816,808 L 816,809 L 817,809 L 818,809 L 819,809 L 819,808 L 820,808 L 820,807 L 821,807 L 820,807 L 820,806 L 820,805 L 820,804 L 821,805 L 822,805 L 822,806 L 823,806 L 824,809 " /></g>
</svg>
