<?xml version="1.0" standalone="no"?><!DOCTYPE svg PUBLIC "-//W3C//DTD SVG 1.1//EN" "http://www.w3.org/Graphics/SVG/1.1/DTD/svg11.dtd"><svg xmlns="http://www.w3.org/2000/svg" viewBox="715 1223 176 200" version = "1.1">
<g id="10701" ><path d="M 803,1225 L 814,1228 L 817,1228 L 821,1230 L 822,1231 L 822,1232 L 824,1233 L 825,1234 L 828,1234 L 829,1235 L 828,1237 L 828,1240 L 829,1245 L 830,1249 L 829,1251 L 832,1254 L 833,1254 L 834,1254 L 834,1255 L 835,1255 L 836,1256 L 837,1256 L 838,1256 L 839,1256 L 839,1255 L 840,1255 L 840,1254 L 843,1256 L 845,1258 L 847,1259 L 849,1260 L 851,1262 L 851,1263 L 851,1264 L 851,1265 L 852,1266 L 852,1267 L 853,1267 L 854,1267 L 854,1268 L 855,1269 L 856,1269 L 857,1270 L 858,1270 L 860,1271 L 860,1272 L 862,1273 L 863,1273 L 863,1275 L 866,1276 L 868,1276 L 870,1274 L 871,1275 L 872,1275 L 873,1276 L 874,1276 L 875,1276 L 876,1276 L 877,1276 L 878,1276 L 880,1277 L 881,1277 L 882,1278 L 883,1278 L 885,1279 L 886,1279 L 886,1280 L 886,1281 L 887,1282 L 887,1283 L 888,1283 L 889,1284 L 890,1285 L 891,1285 L 891,1286 L 890,1287 L 890,1288 L 890,1289 L 887,1289 L 885,1292 L 885,1295 L 884,1297 L 883,1299 L 883,1304 L 878,1309 L 873,1310 L 870,1317 L 870,1320 L 868,1324 L 864,1323 L 863,1322 L 863,1323 L 861,1325 L 860,1326 L 860,1328 L 859,1329 L 858,1332 L 857,1334 L 856,1334 L 855,1334 L 854,1333 L 853,1333 L 852,1333 L 851,1333 L 849,1332 L 848,1333 L 848,1336 L 843,1339 L 844,1343 L 843,1344 L 841,1346 L 841,1347 L 842,1348 L 843,1350 L 843,1351 L 843,1353 L 842,1354 L 839,1354 L 836,1352 L 834,1353 L 831,1354 L 830,1356 L 830,1358 L 830,1360 L 831,1362 L 833,1363 L 833,1364 L 832,1364 L 832,1365 L 831,1365 L 831,1366 L 831,1367 L 830,1367 L 830,1368 L 830,1369 L 829,1369 L 829,1370 L 829,1371 L 828,1371 L 828,1372 L 828,1373 L 829,1373 L 829,1374 L 829,1375 L 829,1376 L 829,1377 L 828,1377 L 828,1378 L 828,1379 L 828,1380 L 827,1381 L 828,1381 L 828,1382 L 827,1382 L 828,1382 L 828,1383 L 828,1384 L 829,1384 L 829,1385 L 829,1386 L 830,1386 L 830,1387 L 831,1387 L 831,1388 L 830,1388 L 829,1388 L 829,1387 L 828,1387 L 828,1386 L 827,1386 L 827,1387 L 826,1387 L 825,1387 L 824,1387 L 823,1387 L 822,1387 L 821,1387 L 822,1388 L 822,1389 L 822,1390 L 822,1391 L 821,1391 L 820,1391 L 819,1391 L 818,1391 L 817,1391 L 817,1393 L 816,1394 L 817,1396 L 818,1397 L 819,1397 L 819,1398 L 819,1399 L 820,1401 L 820,1402 L 819,1402 L 819,1403 L 818,1403 L 818,1404 L 817,1404 L 818,1405 L 818,1407 L 818,1408 L 818,1409 L 817,1409 L 816,1410 L 814,1411 L 813,1411 L 813,1410 L 812,1410 L 812,1409 L 812,1408 L 811,1408 L 810,1409 L 809,1410 L 808,1410 L 807,1410 L 806,1410 L 805,1411 L 803,1411 L 801,1410 L 798,1410 L 798,1411 L 797,1412 L 796,1412 L 795,1413 L 795,1414 L 795,1415 L 795,1416 L 794,1416 L 793,1416 L 793,1417 L 792,1417 L 791,1417 L 791,1418 L 790,1418 L 789,1418 L 789,1419 L 788,1419 L 788,1420 L 787,1420 L 786,1420 L 785,1420 L 785,1421 L 784,1421 L 783,1421 L 783,1422 L 781,1423 L 781,1422 L 780,1422 L 779,1421 L 778,1421 L 777,1420 L 776,1420 L 776,1419 L 775,1419 L 775,1418 L 774,1418 L 773,1418 L 772,1418 L 772,1417 L 771,1417 L 770,1417 L 769,1417 L 768,1417 L 768,1416 L 767,1416 L 766,1416 L 762,1414 L 759,1415 L 754,1411 L 752,1411 L 750,1410 L 746,1409 L 745,1409 L 745,1410 L 744,1410 L 744,1409 L 744,1410 L 743,1410 L 743,1409 L 742,1409 L 741,1409 L 741,1408 L 741,1409 L 740,1409 L 739,1409 L 738,1409 L 738,1408 L 737,1408 L 736,1408 L 736,1409 L 736,1408 L 735,1408 L 735,1409 L 735,1408 L 734,1408 L 733,1408 L 733,1407 L 732,1407 L 731,1407 L 731,1408 L 731,1407 L 731,1408 L 730,1408 L 729,1408 L 729,1407 L 728,1407 L 728,1406 L 728,1405 L 728,1404 L 728,1403 L 729,1402 L 729,1401 L 728,1401 L 729,1401 L 729,1400 L 729,1399 L 729,1398 L 728,1398 L 729,1398 L 729,1397 L 728,1397 L 729,1397 L 728,1397 L 728,1396 L 728,1395 L 728,1394 L 727,1394 L 727,1393 L 727,1392 L 726,1392 L 726,1391 L 725,1391 L 725,1390 L 726,1390 L 726,1389 L 725,1389 L 725,1388 L 724,1388 L 724,1387 L 723,1386 L 723,1385 L 723,1384 L 723,1383 L 722,1383 L 723,1383 L 722,1383 L 723,1383 L 723,1382 L 722,1382 L 722,1381 L 721,1380 L 721,1379 L 721,1378 L 722,1377 L 721,1377 L 721,1376 L 721,1375 L 721,1374 L 721,1373 L 720,1373 L 719,1373 L 719,1372 L 720,1372 L 720,1371 L 720,1370 L 721,1370 L 721,1369 L 722,1369 L 722,1368 L 723,1368 L 723,1367 L 724,1367 L 724,1366 L 725,1366 L 725,1365 L 726,1365 L 726,1364 L 726,1363 L 726,1362 L 726,1361 L 725,1361 L 725,1360 L 724,1360 L 724,1359 L 724,1358 L 724,1357 L 724,1356 L 724,1355 L 724,1354 L 724,1353 L 724,1352 L 723,1352 L 723,1351 L 723,1350 L 723,1349 L 723,1348 L 724,1347 L 724,1346 L 724,1345 L 725,1345 L 725,1344 L 725,1343 L 725,1342 L 726,1342 L 726,1341 L 726,1340 L 726,1339 L 726,1338 L 725,1338 L 726,1337 L 726,1336 L 726,1335 L 727,1334 L 727,1333 L 728,1333 L 728,1332 L 728,1331 L 728,1330 L 729,1330 L 729,1329 L 729,1328 L 728,1328 L 728,1327 L 728,1326 L 727,1326 L 727,1325 L 727,1324 L 726,1324 L 727,1323 L 726,1323 L 726,1322 L 725,1322 L 725,1321 L 724,1321 L 724,1322 L 724,1321 L 723,1322 L 723,1321 L 722,1321 L 720,1319 L 720,1318 L 719,1318 L 718,1316 L 717,1316 L 717,1315 L 717,1314 L 717,1313 L 717,1312 L 715,1308 L 718,1308 L 722,1306 L 728,1305 L 736,1292 L 755,1290 L 755,1289 L 755,1288 L 755,1287 L 756,1287 L 756,1286 L 755,1285 L 756,1282 L 756,1281 L 755,1281 L 755,1280 L 754,1279 L 754,1278 L 755,1277 L 755,1276 L 755,1275 L 755,1274 L 754,1274 L 755,1274 L 755,1273 L 756,1273 L 756,1272 L 757,1272 L 758,1272 L 758,1271 L 758,1272 L 759,1272 L 759,1271 L 759,1270 L 759,1269 L 760,1269 L 759,1269 L 759,1268 L 759,1267 L 758,1267 L 758,1266 L 758,1265 L 757,1265 L 757,1264 L 757,1263 L 758,1263 L 759,1263 L 760,1263 L 760,1262 L 761,1262 L 761,1261 L 762,1261 L 763,1261 L 763,1260 L 764,1260 L 764,1259 L 763,1259 L 763,1258 L 763,1257 L 762,1257 L 762,1256 L 763,1255 L 762,1255 L 762,1254 L 763,1254 L 762,1254 L 762,1253 L 762,1252 L 762,1251 L 761,1251 L 761,1250 L 761,1249 L 761,1248 L 762,1248 L 762,1247 L 763,1247 L 763,1246 L 763,1245 L 764,1245 L 764,1244 L 765,1243 L 765,1242 L 765,1241 L 766,1241 L 766,1240 L 767,1240 L 768,1240 L 768,1239 L 769,1239 L 769,1238 L 768,1238 L 768,1237 L 768,1236 L 767,1236 L 767,1235 L 768,1235 L 768,1234 L 768,1233 L 768,1232 L 769,1231 L 769,1230 L 770,1230 L 770,1229 L 771,1228 L 771,1227 L 771,1226 L 772,1226 L 773,1226 L 774,1226 L 774,1227 L 774,1226 L 775,1226 L 775,1227 L 776,1227 L 776,1226 L 777,1226 L 777,1227 L 777,1226 L 778,1226 L 779,1226 L 779,1225 L 780,1225 L 780,1226 L 781,1226 L 781,1225 L 782,1225 L 782,1226 L 783,1226 L 783,1225 L 784,1225 L 785,1225 L 786,1225 L 787,1225 L 787,1226 L 788,1226 L 789,1226 L 789,1227 L 790,1227 L 790,1226 L 791,1226 L 792,1226 L 792,1225 L 793,1225 L 794,1225 L 794,1224 L 795,1224 L 795,1223 L 796,1223 L 796,1224 L 796,1225 L 797,1225 L 797,1224 L 798,1224 L 798,1223 L 799,1223 L 800,1223 L 801,1223 L 802,1224 L 803,1225 " /></g>
</svg>
