<?xml version="1.0" standalone="no"?><!DOCTYPE svg PUBLIC "-//W3C//DTD SVG 1.1//EN" "http://www.w3.org/Graphics/SVG/1.1/DTD/svg11.dtd"><svg xmlns="http://www.w3.org/2000/svg" viewBox="868 1266 222 122" version = "1.1">
<g id="10703" ><path d="M 1004,1272 L 1005,1271 L 1006,1271 L 1007,1271 L 1008,1271 L 1009,1270 L 1009,1271 L 1010,1271 L 1010,1272 L 1010,1273 L 1010,1274 L 1011,1274 L 1012,1274 L 1012,1273 L 1013,1273 L 1014,1273 L 1014,1272 L 1015,1272 L 1015,1273 L 1015,1274 L 1015,1275 L 1016,1275 L 1016,1276 L 1017,1276 L 1018,1276 L 1018,1275 L 1019,1275 L 1020,1275 L 1021,1275 L 1021,1274 L 1022,1274 L 1023,1274 L 1023,1273 L 1022,1273 L 1022,1272 L 1021,1272 L 1021,1271 L 1021,1270 L 1021,1269 L 1021,1268 L 1021,1267 L 1021,1266 L 1022,1266 L 1022,1267 L 1023,1267 L 1023,1268 L 1024,1268 L 1024,1269 L 1025,1269 L 1026,1269 L 1026,1270 L 1027,1271 L 1028,1272 L 1029,1272 L 1030,1272 L 1030,1273 L 1030,1274 L 1031,1274 L 1032,1274 L 1033,1274 L 1034,1274 L 1034,1275 L 1034,1276 L 1033,1276 L 1033,1277 L 1034,1277 L 1034,1278 L 1035,1278 L 1036,1278 L 1037,1278 L 1037,1279 L 1036,1279 L 1036,1280 L 1037,1281 L 1038,1281 L 1038,1282 L 1039,1283 L 1040,1283 L 1041,1283 L 1042,1283 L 1043,1283 L 1044,1283 L 1045,1283 L 1046,1283 L 1047,1283 L 1047,1282 L 1048,1281 L 1049,1280 L 1050,1280 L 1050,1279 L 1051,1279 L 1051,1278 L 1051,1277 L 1052,1277 L 1052,1276 L 1053,1276 L 1053,1275 L 1054,1275 L 1054,1276 L 1055,1276 L 1056,1276 L 1057,1276 L 1058,1276 L 1059,1276 L 1059,1275 L 1060,1275 L 1061,1275 L 1062,1275 L 1062,1274 L 1063,1274 L 1064,1274 L 1065,1274 L 1066,1274 L 1067,1274 L 1068,1273 L 1069,1273 L 1070,1273 L 1070,1272 L 1071,1272 L 1072,1272 L 1073,1272 L 1074,1272 L 1075,1272 L 1075,1273 L 1076,1272 L 1076,1273 L 1077,1273 L 1078,1273 L 1079,1273 L 1080,1273 L 1081,1273 L 1082,1273 L 1083,1273 L 1083,1274 L 1084,1274 L 1084,1275 L 1085,1275 L 1086,1275 L 1086,1276 L 1086,1277 L 1086,1278 L 1085,1278 L 1085,1279 L 1085,1280 L 1084,1280 L 1085,1282 L 1085,1283 L 1085,1284 L 1085,1285 L 1084,1286 L 1085,1286 L 1085,1287 L 1086,1287 L 1087,1287 L 1088,1287 L 1089,1287 L 1089,1288 L 1090,1289 L 1089,1290 L 1089,1291 L 1090,1291 L 1090,1292 L 1090,1293 L 1089,1294 L 1089,1295 L 1088,1295 L 1087,1295 L 1087,1296 L 1086,1296 L 1086,1297 L 1085,1297 L 1085,1298 L 1084,1298 L 1084,1299 L 1083,1299 L 1082,1298 L 1082,1299 L 1081,1299 L 1081,1300 L 1081,1301 L 1081,1300 L 1081,1301 L 1080,1301 L 1080,1302 L 1079,1302 L 1080,1302 L 1080,1303 L 1079,1303 L 1079,1304 L 1080,1304 L 1079,1304 L 1079,1305 L 1078,1305 L 1079,1305 L 1079,1306 L 1078,1306 L 1079,1307 L 1078,1307 L 1078,1308 L 1079,1308 L 1078,1308 L 1078,1309 L 1078,1310 L 1077,1310 L 1077,1311 L 1076,1311 L 1077,1311 L 1077,1312 L 1076,1312 L 1075,1312 L 1075,1313 L 1076,1313 L 1076,1314 L 1076,1315 L 1076,1316 L 1076,1317 L 1077,1317 L 1077,1318 L 1077,1319 L 1076,1319 L 1076,1320 L 1075,1320 L 1075,1319 L 1074,1319 L 1073,1319 L 1073,1318 L 1073,1317 L 1072,1317 L 1071,1317 L 1071,1316 L 1070,1316 L 1070,1317 L 1069,1317 L 1069,1318 L 1069,1319 L 1068,1319 L 1068,1318 L 1067,1318 L 1066,1318 L 1066,1319 L 1065,1319 L 1064,1319 L 1064,1320 L 1063,1320 L 1062,1320 L 1061,1320 L 1061,1321 L 1060,1321 L 1060,1322 L 1059,1322 L 1058,1322 L 1057,1322 L 1057,1323 L 1056,1323 L 1056,1322 L 1056,1323 L 1056,1324 L 1055,1324 L 1056,1324 L 1056,1325 L 1056,1326 L 1055,1326 L 1054,1326 L 1053,1326 L 1052,1326 L 1051,1326 L 1050,1326 L 1050,1327 L 1049,1327 L 1048,1327 L 1043,1327 L 1041,1326 L 1039,1328 L 1038,1329 L 1037,1328 L 1035,1329 L 1034,1329 L 1033,1329 L 1033,1328 L 1033,1329 L 1032,1328 L 1032,1327 L 1032,1326 L 1031,1326 L 1030,1326 L 1029,1326 L 1028,1326 L 1028,1327 L 1028,1328 L 1027,1328 L 1027,1327 L 1027,1328 L 1026,1328 L 1025,1328 L 1025,1329 L 1024,1329 L 1024,1330 L 1023,1330 L 1022,1330 L 1022,1331 L 1021,1331 L 1021,1332 L 1021,1333 L 1020,1333 L 1020,1334 L 1019,1334 L 1018,1334 L 1017,1334 L 1012,1337 L 1011,1337 L 1005,1338 L 1002,1342 L 998,1345 L 992,1348 L 991,1349 L 988,1352 L 986,1351 L 984,1351 L 984,1350 L 983,1350 L 981,1349 L 980,1351 L 978,1351 L 977,1351 L 975,1355 L 975,1356 L 975,1358 L 974,1360 L 972,1361 L 971,1361 L 971,1362 L 969,1362 L 968,1362 L 968,1363 L 967,1363 L 966,1363 L 966,1362 L 965,1362 L 964,1362 L 963,1362 L 962,1362 L 961,1362 L 960,1361 L 960,1362 L 959,1361 L 958,1362 L 956,1362 L 955,1361 L 953,1361 L 950,1361 L 947,1359 L 947,1357 L 947,1356 L 946,1356 L 944,1356 L 942,1355 L 940,1355 L 940,1356 L 940,1357 L 940,1358 L 939,1358 L 938,1359 L 937,1360 L 936,1360 L 935,1360 L 935,1359 L 934,1359 L 933,1358 L 932,1358 L 931,1358 L 930,1358 L 930,1357 L 929,1357 L 928,1357 L 928,1356 L 927,1357 L 926,1357 L 926,1358 L 926,1359 L 925,1360 L 925,1359 L 924,1359 L 923,1359 L 923,1358 L 922,1358 L 921,1358 L 920,1358 L 919,1358 L 917,1358 L 917,1359 L 917,1360 L 918,1361 L 918,1362 L 918,1363 L 919,1364 L 917,1365 L 917,1366 L 916,1366 L 915,1366 L 915,1367 L 914,1368 L 913,1368 L 911,1368 L 909,1369 L 908,1369 L 907,1370 L 906,1372 L 905,1373 L 905,1374 L 906,1376 L 905,1377 L 904,1378 L 903,1378 L 902,1379 L 902,1380 L 902,1381 L 901,1381 L 900,1384 L 898,1386 L 898,1387 L 896,1387 L 895,1387 L 893,1388 L 892,1387 L 890,1387 L 889,1387 L 889,1386 L 888,1386 L 887,1386 L 887,1385 L 886,1385 L 885,1385 L 884,1385 L 883,1385 L 882,1385 L 880,1384 L 879,1384 L 879,1383 L 878,1383 L 877,1382 L 876,1382 L 875,1381 L 871,1380 L 868,1378 L 868,1376 L 869,1375 L 871,1371 L 872,1371 L 873,1371 L 877,1369 L 878,1368 L 879,1368 L 883,1371 L 882,1369 L 885,1367 L 888,1357 L 898,1352 L 902,1349 L 906,1348 L 907,1348 L 910,1351 L 911,1352 L 912,1350 L 911,1342 L 915,1336 L 917,1335 L 921,1333 L 923,1330 L 926,1326 L 927,1323 L 929,1319 L 933,1317 L 937,1316 L 939,1316 L 941,1316 L 942,1316 L 944,1316 L 945,1314 L 951,1314 L 954,1311 L 958,1308 L 962,1303 L 963,1299 L 965,1296 L 966,1296 L 966,1295 L 966,1294 L 966,1293 L 967,1293 L 967,1292 L 968,1292 L 968,1291 L 969,1291 L 969,1290 L 969,1289 L 969,1288 L 969,1287 L 969,1286 L 969,1285 L 970,1285 L 970,1284 L 971,1284 L 972,1284 L 972,1283 L 973,1283 L 973,1282 L 973,1281 L 974,1281 L 974,1280 L 974,1279 L 975,1279 L 975,1278 L 976,1278 L 976,1277 L 977,1277 L 978,1277 L 978,1276 L 979,1276 L 979,1275 L 980,1275 L 981,1275 L 981,1274 L 982,1274 L 983,1274 L 984,1274 L 985,1274 L 986,1274 L 987,1273 L 988,1273 L 988,1272 L 989,1272 L 990,1271 L 990,1270 L 991,1270 L 991,1269 L 992,1269 L 993,1268 L 994,1267 L 995,1267 L 996,1266 L 997,1266 L 998,1266 L 998,1267 L 998,1268 L 999,1268 L 1000,1268 L 1001,1268 L 1002,1269 L 1003,1270 L 1003,1271 L 1004,1272 " /></g>
</svg>
