<?xml version="1.0" standalone="no"?><!DOCTYPE svg PUBLIC "-//W3C//DTD SVG 1.1//EN" "http://www.w3.org/Graphics/SVG/1.1/DTD/svg11.dtd"><svg xmlns="http://www.w3.org/2000/svg" viewBox="740 1047 258 249" version = "1.1">
<g id="10702" ><path d="M 942,1047 L 942,1048 L 942,1049 L 942,1050 L 942,1051 L 943,1051 L 943,1052 L 942,1052 L 942,1053 L 943,1053 L 943,1054 L 944,1054 L 944,1055 L 944,1056 L 945,1056 L 946,1056 L 946,1057 L 947,1057 L 947,1058 L 948,1058 L 948,1059 L 947,1060 L 947,1061 L 946,1061 L 946,1062 L 946,1063 L 945,1063 L 945,1064 L 945,1065 L 945,1066 L 945,1067 L 946,1067 L 946,1068 L 946,1069 L 946,1070 L 946,1071 L 947,1071 L 947,1072 L 947,1073 L 946,1074 L 946,1075 L 946,1076 L 945,1076 L 945,1077 L 945,1078 L 945,1079 L 946,1079 L 947,1079 L 947,1080 L 947,1081 L 948,1081 L 949,1081 L 949,1082 L 950,1082 L 950,1083 L 949,1083 L 949,1084 L 950,1084 L 950,1085 L 950,1086 L 951,1086 L 951,1087 L 952,1087 L 953,1088 L 953,1089 L 954,1089 L 955,1089 L 955,1090 L 955,1091 L 956,1091 L 956,1092 L 956,1093 L 956,1094 L 955,1094 L 955,1095 L 956,1095 L 956,1096 L 957,1096 L 958,1096 L 958,1097 L 959,1097 L 959,1098 L 960,1098 L 960,1099 L 960,1100 L 960,1101 L 961,1101 L 962,1101 L 962,1102 L 962,1103 L 962,1104 L 962,1105 L 963,1105 L 964,1105 L 964,1106 L 965,1106 L 965,1107 L 966,1107 L 967,1108 L 967,1109 L 968,1109 L 968,1110 L 968,1111 L 969,1111 L 969,1112 L 969,1113 L 969,1114 L 969,1115 L 970,1115 L 970,1116 L 970,1117 L 970,1118 L 969,1118 L 969,1119 L 970,1119 L 970,1120 L 971,1120 L 971,1121 L 972,1121 L 972,1122 L 973,1122 L 973,1123 L 974,1124 L 975,1124 L 976,1125 L 976,1126 L 977,1126 L 977,1127 L 977,1128 L 977,1129 L 978,1129 L 978,1130 L 979,1131 L 978,1132 L 978,1133 L 978,1134 L 979,1134 L 979,1135 L 978,1135 L 978,1136 L 978,1137 L 978,1138 L 978,1139 L 978,1140 L 979,1140 L 979,1141 L 979,1142 L 980,1142 L 980,1143 L 979,1143 L 979,1144 L 980,1145 L 980,1146 L 981,1146 L 982,1147 L 982,1148 L 983,1149 L 983,1150 L 982,1151 L 982,1152 L 982,1153 L 982,1154 L 983,1154 L 983,1155 L 983,1156 L 983,1157 L 983,1158 L 984,1159 L 985,1160 L 985,1161 L 985,1162 L 986,1162 L 986,1163 L 985,1163 L 985,1164 L 986,1164 L 986,1165 L 986,1166 L 985,1166 L 985,1167 L 986,1168 L 986,1169 L 985,1169 L 985,1170 L 984,1170 L 983,1170 L 984,1171 L 984,1172 L 985,1173 L 985,1174 L 984,1174 L 984,1175 L 984,1176 L 984,1177 L 985,1177 L 985,1178 L 985,1179 L 984,1180 L 985,1181 L 985,1182 L 985,1183 L 985,1184 L 985,1185 L 985,1186 L 985,1187 L 986,1188 L 987,1189 L 987,1190 L 986,1190 L 986,1191 L 985,1191 L 985,1192 L 985,1193 L 986,1193 L 986,1194 L 985,1194 L 985,1195 L 984,1196 L 984,1197 L 983,1197 L 982,1197 L 982,1198 L 982,1199 L 983,1200 L 983,1201 L 983,1202 L 983,1203 L 984,1203 L 984,1204 L 985,1204 L 985,1205 L 985,1206 L 984,1206 L 984,1207 L 984,1208 L 984,1209 L 984,1210 L 985,1211 L 986,1211 L 986,1212 L 987,1212 L 988,1212 L 989,1212 L 989,1213 L 988,1214 L 988,1215 L 988,1216 L 987,1216 L 987,1217 L 987,1218 L 987,1219 L 988,1219 L 988,1220 L 988,1221 L 988,1222 L 989,1223 L 988,1223 L 988,1224 L 989,1224 L 989,1225 L 989,1226 L 989,1227 L 989,1228 L 989,1229 L 988,1229 L 988,1230 L 989,1230 L 989,1231 L 989,1232 L 990,1232 L 990,1233 L 989,1233 L 989,1234 L 989,1235 L 989,1236 L 988,1236 L 988,1237 L 989,1237 L 990,1237 L 990,1238 L 990,1239 L 990,1240 L 990,1241 L 990,1242 L 989,1242 L 989,1243 L 990,1243 L 990,1244 L 991,1245 L 992,1245 L 993,1245 L 994,1245 L 995,1245 L 995,1246 L 995,1247 L 995,1248 L 994,1249 L 993,1250 L 993,1251 L 994,1252 L 994,1253 L 995,1253 L 994,1254 L 993,1254 L 993,1255 L 993,1256 L 993,1257 L 994,1257 L 994,1258 L 994,1259 L 995,1260 L 995,1261 L 996,1261 L 996,1262 L 996,1263 L 996,1264 L 997,1264 L 998,1265 L 998,1266 L 997,1266 L 996,1266 L 995,1267 L 994,1267 L 993,1268 L 992,1269 L 991,1269 L 991,1270 L 990,1270 L 990,1271 L 989,1272 L 988,1272 L 988,1273 L 987,1273 L 986,1274 L 985,1274 L 984,1274 L 983,1274 L 982,1274 L 981,1274 L 981,1275 L 980,1275 L 979,1275 L 979,1276 L 978,1276 L 978,1277 L 977,1277 L 976,1277 L 976,1278 L 975,1278 L 975,1279 L 974,1279 L 974,1280 L 974,1281 L 973,1281 L 973,1282 L 973,1283 L 972,1283 L 972,1284 L 971,1284 L 970,1284 L 970,1285 L 969,1285 L 969,1286 L 969,1287 L 969,1288 L 969,1289 L 969,1290 L 969,1291 L 968,1291 L 968,1292 L 967,1292 L 967,1293 L 966,1293 L 966,1294 L 966,1295 L 966,1296 L 965,1296 L 964,1296 L 963,1296 L 962,1296 L 961,1295 L 961,1296 L 960,1296 L 960,1295 L 960,1294 L 960,1293 L 960,1292 L 960,1291 L 959,1290 L 959,1289 L 960,1289 L 959,1288 L 959,1287 L 959,1286 L 959,1285 L 959,1284 L 958,1284 L 958,1283 L 958,1282 L 959,1281 L 958,1281 L 958,1280 L 959,1280 L 959,1279 L 959,1278 L 959,1277 L 959,1276 L 958,1276 L 958,1275 L 958,1274 L 958,1273 L 958,1272 L 958,1271 L 958,1270 L 958,1269 L 958,1268 L 958,1267 L 958,1266 L 957,1265 L 957,1264 L 957,1263 L 956,1262 L 953,1260 L 950,1258 L 945,1258 L 938,1258 L 934,1255 L 930,1255 L 924,1255 L 921,1258 L 916,1259 L 914,1259 L 910,1260 L 911,1263 L 910,1267 L 909,1269 L 908,1273 L 908,1277 L 909,1280 L 909,1282 L 909,1285 L 906,1284 L 904,1286 L 901,1286 L 900,1286 L 893,1281 L 891,1285 L 890,1285 L 889,1284 L 888,1283 L 887,1283 L 887,1282 L 886,1281 L 886,1280 L 886,1279 L 885,1279 L 883,1278 L 882,1278 L 881,1277 L 880,1277 L 878,1276 L 877,1276 L 876,1276 L 875,1276 L 874,1276 L 873,1276 L 872,1275 L 871,1275 L 870,1274 L 868,1276 L 866,1276 L 863,1275 L 863,1273 L 862,1273 L 860,1272 L 860,1271 L 858,1270 L 857,1270 L 856,1269 L 855,1269 L 854,1268 L 854,1267 L 853,1267 L 852,1267 L 852,1266 L 851,1265 L 851,1264 L 851,1263 L 851,1262 L 849,1260 L 847,1259 L 845,1258 L 843,1256 L 840,1254 L 840,1255 L 839,1255 L 839,1256 L 838,1256 L 837,1256 L 836,1256 L 835,1255 L 834,1255 L 834,1254 L 833,1254 L 832,1254 L 829,1251 L 830,1249 L 829,1245 L 828,1240 L 828,1237 L 829,1235 L 828,1234 L 825,1234 L 824,1233 L 822,1232 L 822,1231 L 821,1230 L 817,1228 L 814,1228 L 803,1225 L 802,1224 L 801,1223 L 800,1223 L 799,1223 L 798,1223 L 798,1224 L 797,1224 L 797,1225 L 796,1225 L 796,1224 L 796,1223 L 795,1223 L 795,1224 L 794,1224 L 794,1225 L 793,1225 L 792,1225 L 792,1226 L 791,1226 L 790,1226 L 790,1227 L 789,1227 L 789,1226 L 788,1226 L 787,1226 L 787,1225 L 786,1225 L 785,1225 L 784,1225 L 783,1225 L 783,1226 L 782,1226 L 782,1225 L 781,1225 L 781,1226 L 780,1226 L 780,1225 L 779,1225 L 779,1226 L 778,1226 L 777,1226 L 777,1227 L 777,1226 L 776,1226 L 776,1227 L 775,1227 L 775,1226 L 774,1226 L 774,1227 L 774,1226 L 773,1226 L 772,1226 L 771,1226 L 766,1217 L 763,1213 L 757,1207 L 755,1206 L 755,1205 L 754,1205 L 754,1204 L 753,1203 L 753,1202 L 752,1202 L 752,1201 L 751,1200 L 751,1199 L 750,1198 L 748,1198 L 744,1198 L 740,1198 L 740,1196 L 740,1193 L 741,1190 L 740,1189 L 740,1188 L 740,1187 L 740,1186 L 740,1185 L 742,1184 L 744,1180 L 746,1179 L 747,1178 L 748,1178 L 749,1178 L 749,1177 L 749,1178 L 750,1178 L 750,1177 L 751,1177 L 751,1176 L 752,1176 L 751,1176 L 752,1176 L 752,1175 L 755,1171 L 756,1172 L 757,1173 L 759,1174 L 761,1173 L 767,1170 L 767,1169 L 767,1168 L 768,1168 L 767,1164 L 766,1162 L 766,1161 L 766,1160 L 765,1160 L 765,1159 L 764,1158 L 763,1157 L 763,1156 L 762,1155 L 760,1155 L 759,1154 L 758,1154 L 758,1153 L 756,1152 L 755,1152 L 755,1151 L 755,1150 L 755,1149 L 755,1148 L 754,1148 L 754,1147 L 754,1146 L 752,1144 L 751,1142 L 751,1141 L 751,1140 L 751,1139 L 751,1138 L 749,1138 L 747,1137 L 746,1135 L 746,1133 L 745,1132 L 743,1129 L 743,1128 L 743,1127 L 743,1124 L 744,1123 L 744,1124 L 745,1124 L 746,1123 L 747,1123 L 747,1122 L 748,1122 L 749,1122 L 750,1122 L 751,1122 L 752,1123 L 753,1124 L 753,1122 L 755,1122 L 755,1120 L 754,1120 L 754,1119 L 755,1119 L 755,1118 L 754,1118 L 755,1118 L 756,1118 L 756,1116 L 758,1115 L 759,1114 L 760,1113 L 761,1113 L 761,1112 L 762,1112 L 763,1111 L 764,1111 L 764,1110 L 764,1109 L 765,1109 L 765,1108 L 765,1107 L 766,1107 L 766,1106 L 767,1106 L 768,1105 L 768,1104 L 768,1103 L 769,1103 L 770,1102 L 770,1101 L 771,1101 L 771,1100 L 771,1099 L 774,1100 L 776,1100 L 777,1100 L 779,1102 L 781,1107 L 788,1119 L 792,1122 L 794,1123 L 795,1125 L 797,1124 L 803,1126 L 810,1126 L 811,1126 L 812,1126 L 812,1125 L 813,1125 L 813,1124 L 814,1124 L 815,1124 L 814,1124 L 815,1124 L 816,1118 L 816,1119 L 817,1119 L 818,1119 L 821,1117 L 820,1117 L 820,1116 L 820,1115 L 820,1114 L 820,1113 L 820,1112 L 821,1112 L 821,1111 L 821,1110 L 822,1110 L 822,1109 L 823,1109 L 823,1108 L 824,1108 L 824,1107 L 824,1106 L 825,1106 L 825,1105 L 826,1105 L 825,1105 L 826,1104 L 825,1104 L 824,1103 L 824,1102 L 823,1102 L 823,1101 L 822,1101 L 822,1100 L 821,1100 L 820,1099 L 819,1099 L 818,1099 L 818,1098 L 818,1097 L 818,1096 L 818,1095 L 819,1095 L 819,1094 L 819,1093 L 820,1093 L 820,1092 L 820,1091 L 820,1090 L 820,1089 L 820,1088 L 821,1088 L 821,1087 L 820,1087 L 820,1086 L 821,1086 L 821,1085 L 821,1084 L 821,1083 L 821,1082 L 822,1082 L 822,1081 L 822,1080 L 822,1079 L 822,1078 L 823,1078 L 824,1077 L 824,1076 L 824,1075 L 825,1074 L 825,1071 L 825,1069 L 825,1068 L 826,1068 L 826,1066 L 827,1066 L 827,1065 L 827,1064 L 827,1063 L 826,1063 L 827,1062 L 828,1060 L 827,1060 L 828,1059 L 828,1055 L 827,1051 L 832,1052 L 833,1052 L 834,1052 L 834,1051 L 834,1052 L 834,1051 L 835,1051 L 835,1052 L 835,1051 L 835,1052 L 836,1052 L 836,1053 L 836,1054 L 837,1054 L 838,1054 L 838,1055 L 839,1055 L 839,1056 L 840,1056 L 840,1057 L 841,1057 L 841,1058 L 842,1058 L 843,1058 L 843,1059 L 843,1060 L 843,1061 L 844,1061 L 843,1061 L 844,1061 L 844,1062 L 844,1063 L 845,1063 L 846,1063 L 847,1063 L 846,1063 L 846,1064 L 847,1064 L 847,1063 L 847,1064 L 847,1065 L 848,1065 L 848,1066 L 848,1067 L 849,1067 L 848,1067 L 849,1067 L 848,1067 L 848,1068 L 849,1068 L 848,1068 L 849,1068 L 849,1069 L 849,1070 L 848,1070 L 848,1071 L 849,1071 L 849,1072 L 850,1072 L 850,1071 L 850,1072 L 851,1072 L 851,1071 L 851,1072 L 852,1072 L 851,1072 L 852,1072 L 852,1071 L 852,1072 L 852,1071 L 852,1072 L 852,1071 L 853,1071 L 853,1072 L 854,1072 L 859,1077 L 865,1079 L 866,1075 L 869,1074 L 869,1073 L 869,1072 L 869,1071 L 869,1070 L 869,1069 L 870,1068 L 872,1068 L 872,1067 L 872,1068 L 873,1068 L 874,1067 L 874,1068 L 875,1068 L 875,1069 L 874,1069 L 874,1070 L 874,1071 L 874,1072 L 873,1073 L 873,1074 L 873,1075 L 873,1076 L 873,1077 L 874,1077 L 874,1078 L 874,1079 L 875,1079 L 875,1080 L 875,1081 L 875,1082 L 876,1082 L 876,1083 L 877,1083 L 877,1084 L 877,1085 L 877,1086 L 878,1087 L 878,1088 L 879,1088 L 879,1089 L 880,1089 L 880,1090 L 881,1091 L 881,1092 L 881,1093 L 880,1093 L 880,1094 L 881,1094 L 881,1095 L 881,1096 L 881,1097 L 881,1098 L 880,1098 L 880,1099 L 880,1100 L 881,1100 L 880,1100 L 880,1101 L 880,1102 L 881,1102 L 881,1103 L 881,1104 L 882,1104 L 882,1105 L 881,1105 L 882,1105 L 882,1106 L 882,1107 L 883,1107 L 883,1108 L 882,1108 L 883,1108 L 883,1109 L 884,1109 L 884,1110 L 885,1110 L 885,1109 L 885,1110 L 886,1110 L 886,1111 L 887,1111 L 887,1112 L 888,1112 L 888,1113 L 888,1114 L 889,1114 L 890,1114 L 890,1113 L 891,1113 L 892,1113 L 893,1113 L 893,1112 L 895,1113 L 895,1114 L 896,1114 L 897,1114 L 897,1113 L 897,1112 L 897,1111 L 898,1111 L 898,1110 L 897,1110 L 898,1110 L 897,1110 L 898,1110 L 898,1109 L 898,1108 L 899,1108 L 899,1107 L 899,1106 L 900,1106 L 900,1105 L 900,1104 L 900,1103 L 900,1102 L 901,1102 L 901,1101 L 901,1100 L 902,1100 L 902,1099 L 903,1099 L 903,1098 L 904,1098 L 904,1097 L 905,1097 L 905,1098 L 906,1098 L 906,1097 L 907,1097 L 908,1097 L 908,1096 L 909,1095 L 909,1094 L 910,1094 L 911,1093 L 910,1093 L 910,1092 L 911,1092 L 911,1091 L 912,1090 L 912,1089 L 913,1089 L 914,1089 L 914,1088 L 915,1088 L 915,1087 L 915,1086 L 915,1085 L 915,1084 L 915,1083 L 916,1082 L 916,1081 L 916,1080 L 917,1080 L 917,1079 L 917,1078 L 916,1078 L 916,1077 L 916,1076 L 917,1076 L 917,1075 L 918,1075 L 918,1074 L 918,1073 L 918,1072 L 918,1071 L 919,1070 L 920,1069 L 920,1068 L 921,1067 L 921,1066 L 922,1066 L 922,1065 L 923,1064 L 923,1063 L 924,1063 L 924,1062 L 925,1062 L 926,1062 L 926,1061 L 926,1060 L 926,1059 L 927,1059 L 927,1058 L 928,1058 L 928,1057 L 929,1056 L 929,1055 L 930,1055 L 930,1054 L 931,1054 L 931,1053 L 932,1052 L 932,1051 L 933,1051 L 933,1050 L 934,1050 L 934,1049 L 935,1049 L 936,1049 L 937,1049 L 938,1049 L 939,1049 L 939,1048 L 940,1048 L 940,1047 L 941,1047 L 942,1047 " /></g>
</svg>
