<?xml version="1.0" standalone="no"?><!DOCTYPE svg PUBLIC "-//W3C//DTD SVG 1.1//EN" "http://www.w3.org/Graphics/SVG/1.1/DTD/svg11.dtd"><svg xmlns="http://www.w3.org/2000/svg" viewBox="841 1255 124 123" version = "1.1">
<g id="10704" ><path d="M 934,1255 L 938,1258 L 945,1258 L 950,1258 L 953,1260 L 956,1262 L 957,1263 L 957,1264 L 957,1265 L 958,1266 L 958,1267 L 958,1268 L 958,1269 L 958,1270 L 958,1271 L 958,1272 L 958,1273 L 958,1274 L 958,1275 L 958,1276 L 959,1276 L 959,1277 L 959,1278 L 959,1279 L 959,1280 L 958,1280 L 958,1281 L 959,1281 L 958,1282 L 958,1283 L 958,1284 L 959,1284 L 959,1285 L 959,1286 L 959,1287 L 959,1288 L 960,1289 L 959,1289 L 959,1290 L 960,1291 L 960,1292 L 960,1293 L 960,1294 L 960,1295 L 960,1296 L 961,1296 L 961,1295 L 962,1296 L 963,1296 L 964,1296 L 965,1296 L 963,1299 L 962,1303 L 958,1308 L 954,1311 L 951,1314 L 945,1314 L 944,1316 L 942,1316 L 941,1316 L 939,1316 L 937,1316 L 933,1317 L 929,1319 L 927,1323 L 926,1326 L 923,1330 L 921,1333 L 917,1335 L 915,1336 L 911,1342 L 912,1350 L 911,1352 L 910,1351 L 907,1348 L 906,1348 L 902,1349 L 898,1352 L 888,1357 L 885,1367 L 882,1369 L 883,1371 L 879,1368 L 878,1368 L 877,1369 L 873,1371 L 872,1371 L 871,1371 L 869,1375 L 868,1376 L 868,1378 L 865,1376 L 864,1373 L 860,1368 L 856,1365 L 853,1359 L 851,1357 L 850,1355 L 845,1354 L 843,1353 L 843,1351 L 843,1350 L 842,1348 L 841,1347 L 841,1346 L 843,1344 L 844,1343 L 843,1339 L 848,1336 L 848,1333 L 849,1332 L 851,1333 L 852,1333 L 853,1333 L 854,1333 L 855,1334 L 856,1334 L 857,1334 L 858,1332 L 859,1329 L 860,1328 L 860,1326 L 861,1325 L 863,1323 L 863,1322 L 864,1323 L 868,1324 L 870,1320 L 870,1317 L 873,1310 L 878,1309 L 883,1304 L 883,1299 L 884,1297 L 885,1295 L 885,1292 L 887,1289 L 890,1289 L 890,1288 L 890,1287 L 891,1286 L 891,1285 L 893,1281 L 900,1286 L 901,1286 L 904,1286 L 906,1284 L 909,1285 L 909,1282 L 909,1280 L 908,1277 L 908,1273 L 909,1269 L 910,1267 L 911,1263 L 910,1260 L 914,1259 L 916,1259 L 921,1258 L 924,1255 L 930,1255 L 934,1255 " /></g>
</svg>
