<?xml version="1.0" standalone="no"?><!DOCTYPE svg PUBLIC "-//W3C//DTD SVG 1.1//EN" "http://www.w3.org/Graphics/SVG/1.1/DTD/svg11.dtd"><svg xmlns="http://www.w3.org/2000/svg" viewBox="1011 656 163 204" version = "1.1">
<g id="10801" ><path d="M 1060,658 L 1060,659 L 1060,660 L 1060,661 L 1061,662 L 1061,663 L 1061,664 L 1062,665 L 1063,666 L 1063,667 L 1063,668 L 1064,669 L 1064,670 L 1065,671 L 1065,672 L 1066,673 L 1067,673 L 1068,673 L 1069,673 L 1070,673 L 1071,673 L 1072,673 L 1072,674 L 1073,674 L 1074,674 L 1075,673 L 1076,673 L 1077,674 L 1077,675 L 1077,676 L 1076,676 L 1076,677 L 1077,678 L 1077,680 L 1077,681 L 1078,683 L 1077,685 L 1077,688 L 1076,689 L 1075,691 L 1075,692 L 1074,693 L 1074,696 L 1075,697 L 1076,698 L 1076,699 L 1077,700 L 1077,701 L 1077,702 L 1075,702 L 1075,703 L 1075,704 L 1076,705 L 1077,705 L 1078,705 L 1079,706 L 1081,706 L 1083,709 L 1083,711 L 1085,713 L 1085,714 L 1085,716 L 1086,718 L 1086,721 L 1086,722 L 1086,723 L 1085,723 L 1084,724 L 1084,725 L 1084,726 L 1085,726 L 1086,727 L 1086,728 L 1087,728 L 1087,729 L 1088,730 L 1089,730 L 1090,730 L 1091,731 L 1092,730 L 1093,730 L 1094,730 L 1095,730 L 1095,731 L 1096,732 L 1097,733 L 1098,733 L 1098,734 L 1099,734 L 1099,735 L 1100,735 L 1100,736 L 1100,737 L 1101,737 L 1101,738 L 1102,738 L 1102,737 L 1103,737 L 1103,738 L 1104,738 L 1104,739 L 1104,740 L 1105,741 L 1106,741 L 1106,742 L 1106,743 L 1106,744 L 1107,744 L 1108,744 L 1109,745 L 1110,745 L 1110,746 L 1110,747 L 1110,748 L 1110,749 L 1110,750 L 1111,750 L 1111,751 L 1112,751 L 1113,753 L 1114,753 L 1114,754 L 1114,755 L 1114,756 L 1113,757 L 1114,757 L 1114,758 L 1115,759 L 1115,760 L 1115,761 L 1115,762 L 1114,762 L 1114,763 L 1114,764 L 1114,765 L 1114,764 L 1115,764 L 1116,764 L 1116,765 L 1116,766 L 1116,767 L 1115,767 L 1116,768 L 1117,769 L 1118,769 L 1118,770 L 1119,771 L 1119,772 L 1120,772 L 1120,771 L 1121,771 L 1122,771 L 1123,772 L 1123,773 L 1124,774 L 1125,774 L 1126,774 L 1126,775 L 1127,775 L 1127,774 L 1128,774 L 1129,774 L 1130,775 L 1131,774 L 1132,774 L 1133,774 L 1134,774 L 1135,774 L 1137,773 L 1138,773 L 1139,773 L 1140,774 L 1140,775 L 1141,775 L 1141,776 L 1142,776 L 1143,775 L 1144,775 L 1145,776 L 1146,776 L 1147,776 L 1147,777 L 1147,778 L 1148,779 L 1148,780 L 1148,781 L 1148,782 L 1149,782 L 1150,782 L 1151,782 L 1151,783 L 1151,784 L 1151,785 L 1152,785 L 1152,784 L 1153,784 L 1154,784 L 1154,783 L 1154,784 L 1155,785 L 1156,786 L 1157,786 L 1158,786 L 1158,787 L 1159,788 L 1159,789 L 1160,789 L 1160,790 L 1160,791 L 1160,792 L 1160,793 L 1159,793 L 1159,794 L 1160,794 L 1161,795 L 1162,795 L 1162,796 L 1163,796 L 1163,797 L 1163,798 L 1162,799 L 1162,800 L 1163,800 L 1163,801 L 1162,801 L 1162,802 L 1163,802 L 1164,802 L 1164,803 L 1165,803 L 1165,804 L 1166,804 L 1166,805 L 1165,805 L 1165,806 L 1165,807 L 1165,808 L 1166,808 L 1166,809 L 1166,810 L 1167,810 L 1167,811 L 1167,812 L 1167,813 L 1166,813 L 1166,814 L 1167,814 L 1167,815 L 1166,815 L 1166,816 L 1166,817 L 1166,818 L 1167,818 L 1168,818 L 1169,818 L 1169,819 L 1168,820 L 1167,820 L 1168,821 L 1169,822 L 1170,822 L 1171,823 L 1170,823 L 1169,823 L 1169,824 L 1168,824 L 1167,824 L 1167,825 L 1167,826 L 1167,827 L 1167,828 L 1168,828 L 1168,829 L 1169,829 L 1170,829 L 1171,829 L 1171,830 L 1171,831 L 1171,832 L 1171,833 L 1171,834 L 1171,835 L 1172,835 L 1173,835 L 1174,836 L 1174,837 L 1173,837 L 1172,837 L 1171,837 L 1170,837 L 1169,837 L 1169,838 L 1168,838 L 1167,838 L 1166,838 L 1165,838 L 1164,837 L 1163,837 L 1162,837 L 1162,838 L 1161,838 L 1160,838 L 1159,838 L 1158,837 L 1158,838 L 1157,838 L 1157,839 L 1156,839 L 1155,839 L 1154,839 L 1154,840 L 1153,840 L 1152,840 L 1152,841 L 1153,841 L 1152,841 L 1151,841 L 1150,840 L 1150,841 L 1149,841 L 1148,841 L 1148,842 L 1148,843 L 1148,844 L 1147,844 L 1148,844 L 1148,845 L 1147,845 L 1147,846 L 1146,846 L 1146,847 L 1145,847 L 1144,847 L 1143,847 L 1143,848 L 1142,848 L 1142,849 L 1141,849 L 1141,850 L 1140,850 L 1139,850 L 1139,849 L 1138,849 L 1137,849 L 1136,849 L 1135,849 L 1134,849 L 1133,849 L 1133,848 L 1132,848 L 1131,848 L 1131,849 L 1130,849 L 1129,850 L 1129,851 L 1128,851 L 1127,851 L 1126,851 L 1126,850 L 1126,851 L 1125,851 L 1124,851 L 1123,851 L 1122,851 L 1122,852 L 1122,851 L 1121,851 L 1121,852 L 1120,852 L 1119,852 L 1115,852 L 1111,852 L 1104,852 L 1104,853 L 1103,853 L 1103,854 L 1103,855 L 1103,856 L 1103,857 L 1102,857 L 1103,857 L 1103,858 L 1102,858 L 1101,859 L 1100,859 L 1099,860 L 1098,860 L 1097,860 L 1097,859 L 1096,859 L 1097,859 L 1097,858 L 1096,858 L 1096,857 L 1097,857 L 1098,856 L 1097,856 L 1097,855 L 1096,855 L 1096,856 L 1096,855 L 1096,854 L 1095,854 L 1095,855 L 1095,854 L 1094,854 L 1094,853 L 1093,853 L 1093,852 L 1093,853 L 1093,852 L 1092,852 L 1091,853 L 1090,853 L 1089,853 L 1088,853 L 1088,852 L 1089,852 L 1089,851 L 1089,850 L 1089,849 L 1089,848 L 1088,848 L 1088,847 L 1089,847 L 1089,846 L 1089,845 L 1090,845 L 1090,844 L 1089,844 L 1088,844 L 1088,843 L 1088,842 L 1087,843 L 1084,844 L 1078,845 L 1073,844 L 1072,844 L 1069,845 L 1068,845 L 1067,845 L 1067,843 L 1067,842 L 1068,840 L 1067,839 L 1066,837 L 1067,835 L 1066,834 L 1066,833 L 1065,832 L 1063,832 L 1062,833 L 1061,834 L 1060,834 L 1060,833 L 1058,834 L 1057,834 L 1056,834 L 1055,834 L 1053,834 L 1053,835 L 1051,832 L 1050,826 L 1048,825 L 1046,823 L 1046,818 L 1047,814 L 1047,811 L 1046,806 L 1043,805 L 1040,802 L 1039,800 L 1038,798 L 1036,795 L 1035,791 L 1032,790 L 1031,787 L 1029,786 L 1027,784 L 1025,781 L 1024,778 L 1024,776 L 1025,776 L 1026,776 L 1027,776 L 1027,775 L 1026,774 L 1027,773 L 1027,772 L 1028,772 L 1028,771 L 1028,770 L 1028,769 L 1029,769 L 1029,768 L 1030,768 L 1031,768 L 1032,768 L 1032,767 L 1026,753 L 1022,750 L 1021,746 L 1020,745 L 1020,744 L 1020,743 L 1021,743 L 1021,742 L 1020,741 L 1020,740 L 1020,739 L 1020,738 L 1020,737 L 1019,737 L 1019,736 L 1019,735 L 1018,734 L 1018,733 L 1018,732 L 1018,731 L 1017,731 L 1017,730 L 1017,729 L 1016,728 L 1016,727 L 1015,727 L 1014,727 L 1014,726 L 1014,725 L 1013,725 L 1013,724 L 1014,724 L 1014,723 L 1013,723 L 1013,722 L 1014,722 L 1014,721 L 1015,721 L 1015,720 L 1014,720 L 1014,719 L 1014,718 L 1013,717 L 1013,716 L 1012,716 L 1012,715 L 1011,714 L 1011,713 L 1011,712 L 1011,710 L 1012,710 L 1012,709 L 1012,708 L 1013,707 L 1013,706 L 1013,705 L 1012,705 L 1012,704 L 1012,703 L 1012,702 L 1013,702 L 1013,701 L 1013,700 L 1013,699 L 1013,698 L 1013,697 L 1014,696 L 1014,695 L 1014,694 L 1014,693 L 1014,692 L 1013,691 L 1013,690 L 1013,689 L 1012,688 L 1012,687 L 1012,686 L 1011,686 L 1012,686 L 1012,685 L 1012,684 L 1012,683 L 1012,682 L 1012,681 L 1012,680 L 1012,679 L 1012,678 L 1013,678 L 1013,677 L 1013,676 L 1012,676 L 1013,675 L 1012,675 L 1012,674 L 1013,675 L 1014,675 L 1015,674 L 1016,675 L 1017,675 L 1018,674 L 1019,674 L 1020,674 L 1021,673 L 1022,674 L 1023,674 L 1024,674 L 1024,673 L 1025,672 L 1026,671 L 1027,670 L 1027,669 L 1028,669 L 1029,668 L 1030,668 L 1031,669 L 1032,668 L 1033,668 L 1033,667 L 1034,666 L 1034,665 L 1034,664 L 1035,664 L 1035,663 L 1035,662 L 1036,662 L 1036,661 L 1037,661 L 1037,660 L 1038,660 L 1039,660 L 1040,660 L 1041,660 L 1042,660 L 1043,660 L 1043,659 L 1047,658 L 1048,658 L 1049,658 L 1050,658 L 1051,658 L 1051,659 L 1052,659 L 1053,659 L 1053,658 L 1054,658 L 1055,658 L 1056,658 L 1057,658 L 1058,658 L 1059,657 L 1059,656 L 1060,656 L 1060,657 L 1060,658 " /></g>
</svg>
