<?xml version="1.0" standalone="no"?><!DOCTYPE svg PUBLIC "-//W3C//DTD SVG 1.1//EN" "http://www.w3.org/Graphics/SVG/1.1/DTD/svg11.dtd"><svg xmlns="http://www.w3.org/2000/svg" viewBox="804 1293 323 214" version = "1.1">
<g id="10902" ><path d="M 1093,1297 L 1094,1297 L 1094,1296 L 1095,1296 L 1096,1296 L 1097,1296 L 1098,1297 L 1099,1297 L 1099,1298 L 1099,1299 L 1100,1300 L 1100,1301 L 1100,1302 L 1101,1302 L 1101,1303 L 1102,1303 L 1103,1303 L 1104,1303 L 1104,1304 L 1104,1305 L 1103,1305 L 1102,1305 L 1102,1306 L 1102,1307 L 1103,1307 L 1103,1308 L 1104,1308 L 1104,1309 L 1103,1309 L 1103,1310 L 1102,1310 L 1102,1311 L 1101,1312 L 1101,1313 L 1102,1314 L 1102,1315 L 1101,1315 L 1101,1316 L 1101,1317 L 1101,1318 L 1101,1319 L 1102,1319 L 1102,1320 L 1101,1320 L 1101,1321 L 1101,1322 L 1100,1322 L 1100,1323 L 1100,1324 L 1100,1325 L 1100,1326 L 1100,1327 L 1101,1327 L 1101,1328 L 1101,1329 L 1100,1329 L 1100,1330 L 1099,1330 L 1099,1331 L 1100,1331 L 1101,1331 L 1101,1332 L 1100,1332 L 1100,1333 L 1100,1334 L 1100,1335 L 1100,1336 L 1100,1337 L 1100,1338 L 1101,1338 L 1102,1338 L 1102,1339 L 1101,1339 L 1101,1340 L 1100,1339 L 1100,1340 L 1100,1341 L 1101,1342 L 1101,1343 L 1100,1343 L 1100,1344 L 1100,1345 L 1101,1345 L 1101,1346 L 1102,1346 L 1102,1347 L 1102,1348 L 1103,1349 L 1103,1350 L 1103,1351 L 1103,1352 L 1103,1353 L 1104,1353 L 1105,1353 L 1105,1354 L 1105,1355 L 1105,1356 L 1105,1357 L 1106,1358 L 1106,1359 L 1106,1360 L 1106,1361 L 1107,1361 L 1107,1362 L 1107,1363 L 1108,1364 L 1109,1364 L 1109,1365 L 1110,1365 L 1111,1365 L 1112,1365 L 1113,1365 L 1114,1365 L 1115,1365 L 1115,1364 L 1116,1364 L 1117,1365 L 1118,1365 L 1119,1366 L 1119,1367 L 1119,1368 L 1120,1368 L 1121,1369 L 1120,1370 L 1119,1371 L 1120,1371 L 1121,1371 L 1122,1371 L 1121,1371 L 1121,1372 L 1120,1372 L 1120,1373 L 1119,1373 L 1119,1374 L 1118,1374 L 1118,1376 L 1118,1377 L 1117,1377 L 1117,1378 L 1117,1379 L 1118,1379 L 1119,1379 L 1119,1378 L 1119,1377 L 1120,1377 L 1121,1378 L 1121,1379 L 1120,1379 L 1120,1380 L 1120,1381 L 1120,1382 L 1120,1383 L 1119,1383 L 1118,1383 L 1117,1383 L 1117,1384 L 1116,1384 L 1117,1384 L 1117,1385 L 1118,1385 L 1119,1386 L 1120,1386 L 1120,1387 L 1119,1387 L 1119,1388 L 1119,1389 L 1118,1389 L 1118,1390 L 1118,1391 L 1118,1392 L 1118,1393 L 1118,1394 L 1118,1395 L 1118,1396 L 1118,1397 L 1118,1398 L 1119,1398 L 1120,1398 L 1120,1399 L 1120,1400 L 1120,1401 L 1121,1402 L 1121,1403 L 1121,1404 L 1120,1404 L 1120,1405 L 1119,1405 L 1118,1405 L 1118,1406 L 1119,1407 L 1119,1408 L 1120,1408 L 1122,1409 L 1123,1410 L 1123,1411 L 1124,1411 L 1124,1412 L 1124,1413 L 1124,1414 L 1124,1415 L 1125,1416 L 1125,1417 L 1126,1417 L 1127,1418 L 1126,1418 L 1125,1418 L 1124,1418 L 1123,1418 L 1122,1418 L 1121,1418 L 1121,1419 L 1121,1420 L 1121,1421 L 1122,1421 L 1122,1422 L 1123,1422 L 1122,1423 L 1122,1424 L 1121,1425 L 1120,1425 L 1120,1426 L 1120,1427 L 1120,1428 L 1120,1429 L 1120,1430 L 1120,1431 L 1119,1431 L 1119,1432 L 1118,1433 L 1118,1434 L 1119,1434 L 1119,1435 L 1120,1435 L 1120,1436 L 1120,1437 L 1119,1437 L 1118,1437 L 1118,1438 L 1118,1439 L 1118,1440 L 1117,1440 L 1117,1441 L 1116,1441 L 1115,1441 L 1115,1442 L 1115,1443 L 1116,1443 L 1116,1442 L 1117,1442 L 1118,1442 L 1119,1441 L 1120,1441 L 1120,1442 L 1120,1443 L 1121,1443 L 1120,1444 L 1120,1445 L 1119,1445 L 1118,1445 L 1117,1445 L 1117,1446 L 1117,1447 L 1117,1448 L 1118,1448 L 1118,1449 L 1117,1449 L 1117,1450 L 1117,1451 L 1117,1452 L 1118,1452 L 1119,1452 L 1119,1453 L 1120,1453 L 1120,1454 L 1119,1455 L 1119,1456 L 1119,1457 L 1118,1458 L 1117,1457 L 1117,1458 L 1116,1458 L 1116,1459 L 1116,1460 L 1117,1460 L 1118,1460 L 1119,1461 L 1120,1462 L 1120,1463 L 1120,1464 L 1120,1465 L 1121,1465 L 1121,1466 L 1120,1466 L 1120,1467 L 1119,1467 L 1118,1467 L 1117,1467 L 1116,1467 L 1115,1467 L 1114,1467 L 1114,1468 L 1114,1469 L 1114,1470 L 1115,1470 L 1115,1471 L 1116,1471 L 1116,1472 L 1116,1473 L 1116,1474 L 1116,1475 L 1115,1476 L 1114,1476 L 1114,1477 L 1114,1478 L 1115,1479 L 1115,1480 L 1116,1481 L 1116,1482 L 1116,1483 L 1116,1484 L 1117,1485 L 1117,1486 L 1118,1486 L 1118,1487 L 1117,1488 L 1117,1489 L 1117,1490 L 1116,1491 L 1116,1492 L 1116,1493 L 1115,1493 L 1115,1494 L 1114,1494 L 1115,1495 L 1115,1496 L 1115,1497 L 1114,1497 L 1114,1498 L 1114,1499 L 1114,1500 L 1113,1501 L 1113,1502 L 1114,1502 L 1114,1503 L 1113,1503 L 1112,1503 L 1111,1503 L 1110,1503 L 1109,1504 L 1108,1504 L 1107,1505 L 1107,1506 L 1106,1506 L 1106,1507 L 1105,1507 L 1104,1507 L 1103,1507 L 1102,1507 L 1101,1507 L 1100,1507 L 1100,1506 L 1099,1506 L 1099,1505 L 1098,1505 L 1097,1505 L 1097,1504 L 1096,1504 L 1095,1504 L 1094,1504 L 1094,1503 L 1093,1503 L 1092,1503 L 1091,1502 L 1090,1502 L 1090,1503 L 1089,1502 L 1089,1501 L 1088,1501 L 1087,1501 L 1086,1501 L 1085,1501 L 1084,1501 L 1083,1501 L 1082,1501 L 1082,1502 L 1081,1502 L 1080,1502 L 1080,1501 L 1079,1501 L 1078,1501 L 1078,1502 L 1077,1502 L 1076,1502 L 1075,1502 L 1074,1502 L 1073,1502 L 1072,1502 L 1072,1503 L 1071,1503 L 1070,1504 L 1070,1503 L 1069,1503 L 1068,1503 L 1068,1504 L 1067,1504 L 1067,1505 L 1066,1505 L 1065,1505 L 1064,1505 L 1063,1505 L 1063,1504 L 1062,1504 L 1062,1505 L 1062,1504 L 1061,1504 L 1060,1504 L 1059,1504 L 1058,1504 L 1058,1503 L 1057,1503 L 1056,1503 L 1056,1502 L 1055,1502 L 1054,1502 L 1053,1502 L 1053,1501 L 1053,1500 L 1053,1499 L 1052,1499 L 1052,1498 L 1051,1498 L 1050,1498 L 1050,1497 L 1049,1497 L 1048,1496 L 1047,1496 L 1047,1495 L 1047,1494 L 1046,1494 L 1045,1493 L 1044,1493 L 1043,1493 L 1043,1492 L 1043,1491 L 1043,1490 L 1042,1490 L 1041,1489 L 1040,1489 L 1040,1490 L 1039,1490 L 1038,1490 L 1037,1491 L 1037,1490 L 1036,1490 L 1035,1489 L 1035,1488 L 1034,1488 L 1033,1487 L 1032,1486 L 1031,1485 L 1030,1485 L 1029,1485 L 1028,1484 L 1027,1484 L 1026,1485 L 1025,1485 L 1024,1485 L 1023,1485 L 1022,1485 L 1021,1485 L 1020,1485 L 1020,1486 L 1020,1487 L 1019,1487 L 1018,1487 L 1017,1487 L 1016,1487 L 1015,1488 L 1014,1488 L 1013,1488 L 1012,1488 L 1011,1488 L 1011,1489 L 1010,1489 L 1010,1490 L 1009,1490 L 1008,1489 L 1007,1489 L 1006,1489 L 1005,1489 L 1004,1489 L 1004,1488 L 1003,1487 L 1002,1487 L 1001,1487 L 1001,1486 L 1001,1485 L 1001,1484 L 1000,1484 L 999,1484 L 998,1484 L 998,1483 L 997,1482 L 998,1482 L 998,1481 L 997,1480 L 997,1479 L 997,1478 L 996,1478 L 996,1477 L 995,1477 L 995,1476 L 994,1475 L 993,1474 L 992,1474 L 992,1473 L 992,1472 L 991,1472 L 991,1471 L 991,1470 L 991,1469 L 991,1468 L 991,1467 L 990,1467 L 989,1467 L 988,1467 L 987,1467 L 987,1466 L 987,1465 L 986,1465 L 986,1464 L 987,1464 L 987,1463 L 987,1462 L 986,1462 L 985,1462 L 985,1461 L 985,1460 L 985,1459 L 985,1458 L 984,1458 L 983,1458 L 983,1459 L 982,1459 L 982,1458 L 981,1458 L 981,1457 L 980,1457 L 980,1456 L 980,1455 L 979,1455 L 979,1454 L 979,1453 L 979,1452 L 979,1451 L 978,1450 L 977,1450 L 977,1449 L 976,1449 L 975,1449 L 974,1449 L 974,1450 L 973,1450 L 972,1450 L 972,1449 L 971,1449 L 971,1448 L 970,1448 L 970,1447 L 969,1447 L 968,1447 L 967,1447 L 967,1446 L 966,1446 L 966,1445 L 965,1445 L 965,1444 L 965,1443 L 965,1442 L 965,1441 L 964,1441 L 963,1441 L 962,1441 L 961,1440 L 962,1440 L 962,1439 L 961,1439 L 961,1438 L 960,1438 L 960,1437 L 959,1437 L 958,1437 L 958,1436 L 957,1436 L 956,1436 L 955,1437 L 954,1437 L 953,1437 L 952,1437 L 951,1436 L 950,1436 L 949,1436 L 949,1435 L 949,1434 L 948,1434 L 947,1434 L 947,1433 L 946,1433 L 945,1433 L 944,1434 L 943,1434 L 942,1434 L 942,1435 L 941,1435 L 940,1435 L 939,1435 L 939,1436 L 938,1436 L 937,1436 L 937,1437 L 936,1437 L 936,1438 L 936,1439 L 935,1439 L 935,1440 L 935,1441 L 935,1442 L 935,1443 L 935,1444 L 935,1445 L 934,1446 L 933,1447 L 932,1447 L 931,1447 L 931,1448 L 930,1448 L 928,1449 L 927,1449 L 926,1449 L 926,1450 L 925,1450 L 925,1451 L 926,1451 L 927,1451 L 927,1452 L 927,1453 L 927,1454 L 927,1455 L 926,1455 L 926,1456 L 926,1457 L 925,1457 L 925,1458 L 924,1459 L 924,1460 L 923,1461 L 922,1462 L 923,1462 L 923,1463 L 924,1463 L 924,1464 L 923,1464 L 923,1465 L 922,1465 L 921,1466 L 920,1466 L 920,1467 L 919,1467 L 919,1468 L 919,1469 L 919,1470 L 919,1471 L 920,1471 L 920,1472 L 921,1472 L 921,1473 L 921,1474 L 921,1475 L 921,1476 L 920,1476 L 919,1477 L 918,1477 L 917,1477 L 916,1477 L 916,1478 L 916,1479 L 915,1479 L 916,1480 L 916,1481 L 916,1482 L 915,1483 L 915,1484 L 914,1485 L 914,1486 L 914,1487 L 913,1488 L 912,1488 L 912,1489 L 911,1489 L 911,1488 L 910,1488 L 909,1488 L 908,1488 L 907,1488 L 907,1487 L 906,1487 L 905,1488 L 905,1487 L 904,1487 L 903,1488 L 902,1487 L 901,1487 L 900,1487 L 900,1488 L 900,1489 L 900,1490 L 901,1491 L 901,1492 L 900,1492 L 899,1492 L 898,1492 L 898,1491 L 897,1491 L 897,1492 L 896,1492 L 895,1492 L 894,1492 L 894,1491 L 894,1490 L 894,1489 L 894,1488 L 895,1488 L 896,1488 L 896,1487 L 896,1486 L 895,1486 L 894,1486 L 894,1485 L 893,1485 L 893,1484 L 892,1484 L 891,1484 L 891,1483 L 890,1483 L 889,1483 L 888,1483 L 887,1483 L 886,1483 L 885,1483 L 884,1483 L 884,1482 L 883,1482 L 882,1481 L 881,1481 L 881,1480 L 880,1480 L 881,1479 L 882,1479 L 883,1479 L 883,1478 L 884,1478 L 885,1477 L 884,1477 L 884,1476 L 883,1476 L 883,1475 L 882,1475 L 881,1475 L 880,1475 L 879,1475 L 879,1474 L 878,1475 L 877,1475 L 876,1475 L 876,1476 L 875,1476 L 874,1476 L 873,1476 L 872,1476 L 872,1475 L 872,1474 L 871,1474 L 871,1473 L 871,1472 L 871,1471 L 871,1470 L 870,1470 L 870,1469 L 871,1469 L 871,1468 L 870,1468 L 870,1467 L 870,1466 L 869,1466 L 868,1465 L 867,1465 L 866,1465 L 865,1465 L 865,1464 L 864,1464 L 864,1465 L 864,1466 L 864,1467 L 865,1467 L 864,1467 L 865,1468 L 866,1468 L 866,1469 L 865,1469 L 864,1469 L 864,1470 L 863,1470 L 862,1470 L 863,1469 L 863,1468 L 863,1467 L 862,1467 L 861,1467 L 861,1466 L 861,1465 L 860,1464 L 859,1464 L 859,1465 L 859,1466 L 858,1466 L 857,1466 L 857,1465 L 856,1465 L 855,1465 L 854,1465 L 853,1465 L 853,1464 L 854,1464 L 855,1464 L 856,1464 L 856,1463 L 855,1463 L 855,1462 L 854,1462 L 853,1462 L 853,1461 L 852,1461 L 851,1461 L 850,1461 L 850,1460 L 850,1459 L 849,1459 L 848,1460 L 848,1461 L 848,1462 L 848,1463 L 847,1463 L 846,1463 L 846,1462 L 846,1461 L 845,1461 L 844,1461 L 844,1462 L 844,1463 L 845,1463 L 845,1464 L 846,1464 L 846,1465 L 845,1465 L 844,1465 L 844,1466 L 843,1466 L 842,1466 L 841,1466 L 841,1465 L 841,1464 L 841,1463 L 840,1463 L 839,1463 L 839,1464 L 839,1465 L 838,1465 L 837,1465 L 836,1465 L 836,1464 L 837,1464 L 838,1463 L 838,1462 L 838,1461 L 838,1460 L 837,1459 L 836,1459 L 836,1458 L 835,1458 L 835,1459 L 835,1460 L 836,1460 L 837,1461 L 837,1462 L 836,1462 L 835,1461 L 834,1461 L 833,1461 L 832,1461 L 832,1460 L 831,1460 L 831,1459 L 830,1459 L 829,1459 L 828,1459 L 828,1458 L 829,1458 L 829,1457 L 830,1457 L 830,1458 L 831,1457 L 831,1456 L 830,1456 L 829,1456 L 829,1455 L 828,1455 L 827,1455 L 828,1454 L 827,1453 L 826,1453 L 826,1452 L 826,1451 L 826,1450 L 826,1449 L 826,1450 L 825,1450 L 824,1449 L 825,1448 L 825,1447 L 824,1447 L 824,1446 L 823,1446 L 822,1446 L 822,1445 L 822,1444 L 822,1443 L 822,1442 L 821,1442 L 821,1443 L 821,1444 L 820,1444 L 819,1444 L 818,1443 L 817,1443 L 816,1444 L 816,1445 L 816,1446 L 817,1446 L 817,1447 L 817,1448 L 816,1448 L 815,1449 L 814,1448 L 814,1447 L 813,1447 L 813,1446 L 812,1446 L 811,1446 L 810,1447 L 811,1447 L 811,1448 L 811,1447 L 812,1447 L 812,1448 L 811,1449 L 810,1449 L 809,1449 L 809,1450 L 808,1450 L 807,1450 L 807,1449 L 807,1448 L 808,1448 L 808,1447 L 809,1447 L 809,1446 L 808,1446 L 807,1446 L 806,1446 L 805,1446 L 804,1446 L 804,1445 L 804,1444 L 805,1443 L 804,1436 L 804,1431 L 808,1429 L 808,1428 L 810,1425 L 810,1421 L 810,1420 L 810,1418 L 809,1417 L 809,1416 L 809,1415 L 811,1415 L 812,1415 L 813,1414 L 814,1413 L 816,1412 L 817,1412 L 818,1410 L 817,1410 L 817,1409 L 818,1409 L 818,1408 L 818,1407 L 818,1405 L 817,1404 L 818,1404 L 818,1403 L 819,1403 L 819,1402 L 820,1402 L 820,1401 L 819,1399 L 819,1398 L 819,1397 L 818,1397 L 817,1396 L 816,1394 L 817,1393 L 817,1391 L 818,1391 L 819,1391 L 820,1391 L 821,1391 L 822,1391 L 822,1390 L 822,1389 L 822,1388 L 821,1387 L 822,1387 L 823,1387 L 824,1387 L 825,1387 L 826,1387 L 827,1387 L 827,1386 L 828,1386 L 828,1387 L 829,1387 L 829,1388 L 830,1388 L 831,1388 L 831,1387 L 830,1387 L 830,1386 L 829,1386 L 829,1385 L 829,1384 L 828,1384 L 828,1383 L 828,1382 L 827,1382 L 828,1382 L 828,1381 L 827,1381 L 828,1380 L 828,1379 L 828,1378 L 828,1377 L 829,1377 L 829,1376 L 829,1375 L 829,1374 L 829,1373 L 828,1373 L 828,1372 L 828,1371 L 829,1371 L 829,1370 L 829,1369 L 830,1369 L 830,1368 L 830,1367 L 831,1367 L 831,1366 L 831,1365 L 832,1365 L 832,1364 L 833,1364 L 833,1363 L 831,1362 L 830,1360 L 830,1358 L 830,1356 L 831,1354 L 834,1353 L 836,1352 L 839,1354 L 842,1354 L 843,1353 L 845,1354 L 850,1355 L 851,1357 L 853,1359 L 856,1365 L 860,1368 L 864,1373 L 865,1376 L 868,1378 L 871,1380 L 875,1381 L 876,1382 L 877,1382 L 878,1383 L 879,1383 L 879,1384 L 880,1384 L 882,1385 L 883,1385 L 884,1385 L 885,1385 L 886,1385 L 887,1385 L 887,1386 L 888,1386 L 889,1386 L 889,1387 L 890,1387 L 892,1387 L 893,1388 L 895,1387 L 896,1387 L 898,1387 L 898,1386 L 900,1384 L 901,1381 L 902,1381 L 902,1380 L 902,1379 L 903,1378 L 904,1378 L 905,1377 L 906,1376 L 905,1374 L 905,1373 L 906,1372 L 907,1370 L 908,1369 L 909,1369 L 911,1368 L 913,1368 L 914,1368 L 915,1367 L 915,1366 L 916,1366 L 917,1366 L 917,1365 L 919,1364 L 918,1363 L 918,1362 L 918,1361 L 917,1360 L 917,1359 L 917,1358 L 919,1358 L 920,1358 L 921,1358 L 922,1358 L 923,1358 L 923,1359 L 924,1359 L 925,1359 L 925,1360 L 926,1359 L 926,1358 L 926,1357 L 927,1357 L 928,1356 L 928,1357 L 929,1357 L 930,1357 L 930,1358 L 931,1358 L 932,1358 L 933,1358 L 934,1359 L 935,1359 L 935,1360 L 936,1360 L 937,1360 L 938,1359 L 939,1358 L 940,1358 L 940,1357 L 940,1356 L 940,1355 L 942,1355 L 944,1356 L 946,1356 L 947,1356 L 947,1357 L 947,1359 L 950,1361 L 953,1361 L 955,1361 L 956,1362 L 958,1362 L 959,1361 L 960,1362 L 960,1361 L 961,1362 L 962,1362 L 963,1362 L 964,1362 L 965,1362 L 966,1362 L 966,1363 L 967,1363 L 968,1363 L 968,1362 L 969,1362 L 971,1362 L 971,1361 L 972,1361 L 974,1360 L 975,1358 L 975,1356 L 975,1355 L 977,1351 L 978,1351 L 980,1351 L 981,1349 L 983,1350 L 984,1350 L 984,1351 L 986,1351 L 988,1352 L 991,1349 L 992,1348 L 998,1345 L 1002,1342 L 1005,1338 L 1011,1337 L 1012,1337 L 1017,1334 L 1018,1334 L 1019,1334 L 1020,1334 L 1020,1333 L 1021,1333 L 1021,1332 L 1021,1331 L 1022,1331 L 1022,1330 L 1023,1330 L 1024,1330 L 1024,1329 L 1025,1329 L 1025,1328 L 1026,1328 L 1027,1328 L 1027,1327 L 1027,1328 L 1028,1328 L 1028,1327 L 1028,1326 L 1029,1326 L 1030,1326 L 1031,1326 L 1032,1326 L 1032,1327 L 1032,1328 L 1033,1329 L 1033,1328 L 1033,1329 L 1034,1329 L 1035,1329 L 1037,1328 L 1038,1329 L 1039,1328 L 1041,1326 L 1043,1327 L 1048,1327 L 1049,1327 L 1050,1327 L 1050,1326 L 1051,1326 L 1052,1326 L 1053,1326 L 1054,1326 L 1055,1326 L 1056,1326 L 1056,1325 L 1056,1324 L 1055,1324 L 1056,1324 L 1056,1323 L 1056,1322 L 1056,1323 L 1057,1323 L 1057,1322 L 1058,1322 L 1059,1322 L 1060,1322 L 1060,1321 L 1061,1321 L 1061,1320 L 1062,1320 L 1063,1320 L 1064,1320 L 1064,1319 L 1065,1319 L 1066,1319 L 1066,1318 L 1067,1318 L 1068,1318 L 1068,1319 L 1069,1319 L 1069,1318 L 1069,1317 L 1070,1317 L 1070,1316 L 1071,1316 L 1071,1317 L 1072,1317 L 1073,1317 L 1073,1318 L 1073,1319 L 1074,1319 L 1075,1319 L 1075,1320 L 1076,1320 L 1076,1319 L 1077,1319 L 1077,1318 L 1077,1317 L 1076,1317 L 1076,1316 L 1076,1315 L 1076,1314 L 1076,1313 L 1075,1313 L 1075,1312 L 1076,1312 L 1077,1312 L 1077,1311 L 1076,1311 L 1077,1311 L 1077,1310 L 1078,1310 L 1078,1309 L 1078,1308 L 1079,1308 L 1078,1308 L 1078,1307 L 1079,1307 L 1078,1306 L 1079,1306 L 1079,1305 L 1078,1305 L 1079,1305 L 1079,1304 L 1080,1304 L 1079,1304 L 1079,1303 L 1080,1303 L 1080,1302 L 1079,1302 L 1080,1302 L 1080,1301 L 1081,1301 L 1081,1300 L 1081,1301 L 1081,1300 L 1081,1299 L 1082,1299 L 1082,1298 L 1083,1299 L 1084,1299 L 1084,1298 L 1085,1298 L 1085,1297 L 1086,1297 L 1086,1296 L 1087,1296 L 1087,1295 L 1088,1295 L 1089,1295 L 1089,1294 L 1090,1293 L 1091,1293 L 1091,1294 L 1091,1295 L 1091,1296 L 1092,1296 L 1093,1297 " /></g>
</svg>
