<?xml version="1.0" standalone="no"?><!DOCTYPE svg PUBLIC "-//W3C//DTD SVG 1.1//EN" "http://www.w3.org/Graphics/SVG/1.1/DTD/svg11.dtd"><svg xmlns="http://www.w3.org/2000/svg" viewBox="697 1478 85 152" version = "1.1">
<g id="10903" ><path d="M 775,1478 L 775,1479 L 776,1479 L 777,1479 L 778,1479 L 778,1480 L 778,1481 L 778,1482 L 778,1483 L 778,1484 L 778,1485 L 778,1486 L 779,1486 L 779,1487 L 779,1488 L 778,1488 L 778,1489 L 779,1489 L 779,1490 L 780,1490 L 780,1491 L 779,1491 L 779,1492 L 779,1493 L 779,1494 L 779,1495 L 779,1496 L 779,1497 L 778,1497 L 778,1498 L 778,1499 L 779,1499 L 779,1500 L 779,1501 L 778,1501 L 778,1502 L 779,1502 L 778,1503 L 779,1503 L 779,1504 L 780,1504 L 780,1503 L 781,1503 L 782,1503 L 782,1504 L 781,1505 L 780,1505 L 780,1506 L 781,1506 L 781,1507 L 782,1507 L 782,1508 L 781,1508 L 781,1509 L 782,1509 L 782,1510 L 782,1511 L 781,1512 L 780,1513 L 779,1514 L 778,1514 L 778,1515 L 777,1515 L 777,1516 L 777,1517 L 777,1518 L 776,1519 L 775,1519 L 775,1520 L 775,1521 L 774,1521 L 775,1521 L 776,1522 L 777,1523 L 778,1524 L 778,1525 L 777,1525 L 777,1526 L 776,1526 L 776,1527 L 777,1527 L 778,1528 L 778,1529 L 778,1530 L 778,1531 L 777,1531 L 776,1531 L 776,1532 L 776,1533 L 775,1533 L 775,1534 L 775,1535 L 774,1535 L 775,1536 L 776,1536 L 776,1537 L 775,1537 L 775,1538 L 774,1538 L 774,1539 L 774,1540 L 774,1541 L 775,1541 L 775,1542 L 774,1543 L 774,1542 L 773,1542 L 773,1541 L 772,1541 L 771,1541 L 771,1542 L 770,1542 L 770,1543 L 771,1543 L 772,1543 L 773,1543 L 773,1544 L 773,1545 L 772,1545 L 772,1544 L 772,1545 L 772,1546 L 772,1547 L 773,1547 L 773,1548 L 773,1549 L 774,1549 L 774,1550 L 774,1551 L 773,1551 L 773,1552 L 773,1553 L 774,1553 L 774,1554 L 775,1554 L 774,1554 L 774,1555 L 774,1556 L 773,1556 L 773,1557 L 772,1557 L 772,1558 L 773,1558 L 773,1559 L 772,1559 L 772,1560 L 773,1560 L 773,1561 L 772,1561 L 772,1562 L 772,1563 L 773,1563 L 773,1564 L 772,1564 L 771,1564 L 771,1565 L 770,1565 L 770,1566 L 771,1566 L 771,1567 L 772,1567 L 772,1568 L 772,1569 L 771,1569 L 770,1569 L 769,1569 L 769,1570 L 770,1570 L 769,1571 L 769,1572 L 769,1573 L 770,1573 L 771,1574 L 770,1574 L 770,1575 L 770,1576 L 769,1576 L 769,1577 L 769,1578 L 769,1579 L 768,1579 L 768,1580 L 768,1581 L 768,1582 L 768,1583 L 768,1584 L 768,1585 L 768,1586 L 769,1586 L 768,1586 L 767,1586 L 767,1587 L 767,1588 L 768,1588 L 768,1589 L 768,1590 L 768,1591 L 767,1592 L 766,1592 L 766,1593 L 767,1593 L 767,1594 L 766,1594 L 766,1595 L 766,1596 L 766,1597 L 767,1598 L 767,1599 L 766,1599 L 766,1600 L 765,1600 L 764,1601 L 764,1602 L 764,1603 L 764,1604 L 764,1605 L 765,1605 L 765,1606 L 764,1607 L 764,1608 L 764,1609 L 764,1610 L 764,1611 L 764,1612 L 763,1612 L 762,1613 L 762,1614 L 762,1615 L 763,1615 L 763,1616 L 763,1617 L 762,1618 L 761,1618 L 760,1618 L 760,1617 L 760,1618 L 759,1618 L 758,1618 L 758,1619 L 757,1619 L 757,1620 L 756,1620 L 756,1621 L 755,1621 L 754,1621 L 754,1622 L 753,1622 L 752,1622 L 752,1621 L 751,1621 L 751,1622 L 750,1622 L 750,1621 L 749,1621 L 748,1621 L 747,1621 L 747,1620 L 747,1621 L 747,1620 L 746,1620 L 745,1620 L 745,1619 L 744,1619 L 743,1619 L 743,1618 L 742,1619 L 741,1619 L 741,1620 L 740,1620 L 740,1621 L 740,1622 L 738,1630 L 736,1627 L 727,1624 L 715,1629 L 714,1628 L 713,1627 L 711,1626 L 711,1624 L 711,1623 L 711,1622 L 711,1621 L 710,1619 L 709,1619 L 710,1619 L 710,1618 L 711,1618 L 712,1618 L 712,1617 L 712,1616 L 711,1615 L 711,1613 L 711,1612 L 711,1611 L 712,1610 L 712,1609 L 712,1608 L 711,1608 L 710,1608 L 710,1607 L 710,1606 L 709,1606 L 709,1605 L 709,1604 L 708,1603 L 708,1602 L 709,1602 L 709,1601 L 706,1600 L 699,1599 L 699,1598 L 699,1597 L 700,1596 L 700,1595 L 699,1594 L 699,1593 L 700,1593 L 700,1592 L 700,1591 L 700,1590 L 700,1589 L 699,1589 L 699,1590 L 699,1589 L 699,1588 L 699,1587 L 700,1587 L 700,1586 L 700,1585 L 700,1584 L 700,1583 L 700,1582 L 700,1581 L 700,1580 L 701,1580 L 701,1579 L 701,1578 L 701,1577 L 700,1577 L 700,1576 L 701,1576 L 700,1576 L 700,1575 L 699,1575 L 699,1574 L 699,1573 L 699,1571 L 699,1570 L 700,1570 L 700,1569 L 700,1568 L 700,1567 L 700,1566 L 700,1565 L 701,1565 L 701,1564 L 701,1563 L 701,1562 L 701,1561 L 701,1560 L 701,1559 L 701,1558 L 701,1557 L 700,1557 L 700,1556 L 701,1556 L 701,1555 L 700,1555 L 700,1554 L 700,1553 L 701,1553 L 701,1552 L 700,1552 L 700,1551 L 699,1550 L 699,1549 L 700,1549 L 700,1548 L 699,1548 L 700,1548 L 699,1548 L 700,1548 L 699,1548 L 700,1548 L 699,1548 L 700,1548 L 699,1548 L 699,1547 L 700,1547 L 699,1547 L 700,1547 L 700,1546 L 699,1546 L 700,1546 L 700,1545 L 700,1543 L 698,1527 L 698,1526 L 698,1525 L 697,1524 L 697,1523 L 698,1523 L 698,1522 L 698,1521 L 697,1521 L 697,1520 L 698,1520 L 697,1519 L 697,1517 L 698,1517 L 699,1517 L 700,1517 L 700,1516 L 701,1516 L 702,1516 L 703,1516 L 703,1515 L 704,1515 L 704,1514 L 705,1514 L 705,1513 L 706,1513 L 706,1514 L 707,1514 L 708,1514 L 709,1514 L 709,1513 L 710,1512 L 710,1511 L 710,1510 L 711,1510 L 710,1503 L 708,1497 L 710,1497 L 711,1497 L 711,1498 L 712,1498 L 713,1498 L 713,1499 L 714,1499 L 714,1500 L 715,1500 L 716,1500 L 717,1500 L 718,1500 L 718,1501 L 719,1500 L 719,1501 L 720,1501 L 720,1502 L 721,1502 L 722,1502 L 722,1503 L 722,1502 L 722,1503 L 722,1504 L 723,1504 L 723,1505 L 724,1505 L 725,1505 L 725,1506 L 725,1505 L 725,1506 L 726,1505 L 725,1505 L 725,1504 L 726,1504 L 727,1503 L 728,1503 L 729,1503 L 729,1504 L 730,1504 L 731,1504 L 731,1503 L 731,1502 L 732,1501 L 732,1500 L 732,1499 L 731,1499 L 732,1499 L 732,1498 L 733,1498 L 734,1498 L 735,1498 L 735,1497 L 735,1496 L 736,1496 L 737,1496 L 737,1497 L 738,1497 L 738,1496 L 738,1497 L 739,1497 L 740,1497 L 740,1496 L 740,1497 L 741,1497 L 742,1497 L 742,1496 L 743,1496 L 744,1496 L 744,1495 L 745,1495 L 746,1495 L 746,1494 L 747,1494 L 748,1494 L 748,1495 L 749,1495 L 749,1494 L 750,1494 L 750,1493 L 751,1493 L 752,1493 L 753,1493 L 754,1493 L 755,1493 L 756,1493 L 757,1492 L 757,1493 L 758,1493 L 758,1492 L 759,1492 L 760,1492 L 761,1492 L 761,1493 L 762,1493 L 763,1493 L 764,1493 L 765,1493 L 766,1493 L 766,1492 L 766,1491 L 767,1490 L 767,1489 L 768,1488 L 768,1486 L 768,1485 L 769,1483 L 769,1482 L 768,1481 L 768,1480 L 768,1479 L 768,1480 L 769,1480 L 770,1480 L 770,1479 L 771,1479 L 772,1479 L 772,1478 L 772,1479 L 773,1478 L 774,1478 L 775,1478 " /></g>
</svg>
