<?xml version="1.0" standalone="no"?><!DOCTYPE svg PUBLIC "-//W3C//DTD SVG 1.1//EN" "http://www.w3.org/Graphics/SVG/1.1/DTD/svg11.dtd"><svg xmlns="http://www.w3.org/2000/svg" viewBox="704 1407 114 99" version = "1.1">
<g id="10901" ><path d="M 812,1410 L 813,1410 L 813,1411 L 814,1411 L 816,1410 L 817,1409 L 817,1410 L 818,1410 L 817,1412 L 816,1412 L 814,1413 L 813,1414 L 812,1415 L 811,1415 L 809,1415 L 809,1416 L 809,1417 L 810,1418 L 810,1420 L 810,1421 L 810,1425 L 808,1428 L 808,1429 L 804,1431 L 804,1436 L 805,1443 L 804,1444 L 803,1443 L 803,1442 L 802,1442 L 802,1443 L 801,1443 L 801,1444 L 800,1444 L 799,1444 L 798,1444 L 798,1443 L 798,1442 L 797,1442 L 797,1441 L 796,1441 L 796,1440 L 796,1441 L 795,1441 L 795,1442 L 795,1443 L 795,1444 L 794,1444 L 794,1443 L 793,1442 L 793,1441 L 793,1440 L 792,1440 L 792,1439 L 793,1438 L 792,1438 L 791,1438 L 790,1438 L 790,1439 L 789,1439 L 788,1439 L 787,1439 L 786,1439 L 786,1440 L 787,1440 L 787,1441 L 786,1442 L 786,1441 L 785,1441 L 785,1442 L 784,1443 L 783,1443 L 783,1444 L 784,1444 L 784,1445 L 783,1445 L 783,1446 L 782,1446 L 782,1447 L 782,1448 L 783,1448 L 783,1449 L 782,1450 L 781,1450 L 781,1451 L 781,1452 L 781,1453 L 781,1454 L 781,1455 L 781,1456 L 782,1456 L 782,1457 L 782,1458 L 781,1458 L 781,1459 L 782,1459 L 781,1459 L 782,1459 L 782,1460 L 782,1461 L 782,1462 L 781,1462 L 782,1462 L 782,1463 L 781,1463 L 781,1464 L 781,1465 L 780,1465 L 780,1466 L 779,1466 L 780,1466 L 780,1467 L 780,1468 L 779,1468 L 779,1469 L 779,1470 L 779,1471 L 780,1471 L 779,1471 L 779,1472 L 780,1472 L 780,1473 L 779,1474 L 779,1475 L 779,1476 L 779,1477 L 778,1477 L 778,1478 L 779,1478 L 779,1479 L 778,1479 L 777,1479 L 776,1479 L 775,1479 L 775,1478 L 774,1478 L 773,1478 L 772,1479 L 772,1478 L 772,1479 L 771,1479 L 770,1479 L 770,1480 L 769,1480 L 768,1480 L 768,1479 L 768,1480 L 768,1481 L 769,1482 L 769,1483 L 768,1485 L 768,1486 L 768,1488 L 767,1489 L 767,1490 L 766,1491 L 766,1492 L 766,1493 L 765,1493 L 764,1493 L 763,1493 L 762,1493 L 761,1493 L 761,1492 L 760,1492 L 759,1492 L 758,1492 L 758,1493 L 757,1493 L 757,1492 L 756,1493 L 755,1493 L 754,1493 L 753,1493 L 752,1493 L 751,1493 L 750,1493 L 750,1494 L 749,1494 L 749,1495 L 748,1495 L 748,1494 L 747,1494 L 746,1494 L 746,1495 L 745,1495 L 744,1495 L 744,1496 L 743,1496 L 742,1496 L 742,1497 L 741,1497 L 740,1497 L 740,1496 L 740,1497 L 739,1497 L 738,1497 L 738,1496 L 738,1497 L 737,1497 L 737,1496 L 736,1496 L 735,1496 L 735,1497 L 735,1498 L 734,1498 L 733,1498 L 732,1498 L 732,1499 L 731,1499 L 732,1499 L 732,1500 L 732,1501 L 731,1502 L 731,1503 L 731,1504 L 730,1504 L 729,1504 L 729,1503 L 728,1503 L 727,1503 L 726,1504 L 725,1504 L 725,1505 L 726,1505 L 725,1506 L 725,1505 L 725,1506 L 725,1505 L 724,1505 L 723,1505 L 723,1504 L 722,1504 L 722,1503 L 722,1502 L 722,1503 L 722,1502 L 721,1502 L 720,1502 L 720,1501 L 719,1501 L 719,1500 L 718,1501 L 718,1500 L 717,1500 L 716,1500 L 715,1500 L 714,1500 L 714,1499 L 713,1499 L 713,1498 L 712,1498 L 711,1498 L 711,1497 L 710,1497 L 708,1497 L 705,1488 L 705,1482 L 704,1477 L 708,1465 L 711,1458 L 712,1446 L 711,1438 L 714,1422 L 713,1420 L 713,1419 L 714,1419 L 715,1419 L 715,1418 L 716,1418 L 716,1417 L 717,1417 L 717,1416 L 718,1416 L 718,1415 L 718,1414 L 719,1414 L 719,1413 L 719,1412 L 720,1412 L 721,1412 L 722,1412 L 723,1412 L 723,1413 L 724,1413 L 725,1413 L 726,1413 L 726,1414 L 727,1414 L 727,1413 L 727,1412 L 727,1411 L 728,1411 L 729,1411 L 729,1410 L 729,1409 L 729,1408 L 730,1408 L 731,1408 L 731,1407 L 731,1408 L 731,1407 L 732,1407 L 733,1407 L 733,1408 L 734,1408 L 735,1408 L 735,1409 L 735,1408 L 736,1408 L 736,1409 L 736,1408 L 737,1408 L 738,1408 L 738,1409 L 739,1409 L 740,1409 L 741,1409 L 741,1408 L 741,1409 L 742,1409 L 743,1409 L 743,1410 L 744,1410 L 744,1409 L 744,1410 L 745,1410 L 745,1409 L 746,1409 L 750,1410 L 752,1411 L 754,1411 L 759,1415 L 762,1414 L 766,1416 L 767,1416 L 768,1416 L 768,1417 L 769,1417 L 770,1417 L 771,1417 L 772,1417 L 772,1418 L 773,1418 L 774,1418 L 775,1418 L 775,1419 L 776,1419 L 776,1420 L 777,1420 L 778,1421 L 779,1421 L 780,1422 L 781,1422 L 781,1423 L 783,1422 L 783,1421 L 784,1421 L 785,1421 L 785,1420 L 786,1420 L 787,1420 L 788,1420 L 788,1419 L 789,1419 L 789,1418 L 790,1418 L 791,1418 L 791,1417 L 792,1417 L 793,1417 L 793,1416 L 794,1416 L 795,1416 L 795,1415 L 795,1414 L 795,1413 L 796,1412 L 797,1412 L 798,1411 L 798,1410 L 801,1410 L 803,1411 L 805,1411 L 806,1410 L 807,1410 L 808,1410 L 809,1410 L 810,1409 L 811,1408 L 812,1408 L 812,1409 L 812,1410 " /></g>
</svg>
