<?xml version="1.0" standalone="no"?><!DOCTYPE svg PUBLIC "-//W3C//DTD SVG 1.1//EN" "http://www.w3.org/Graphics/SVG/1.1/DTD/svg11.dtd"><svg xmlns="http://www.w3.org/2000/svg" viewBox="1271 1269 110 188" version = "1.1">
<g id="11002" ><path d="M 1321,1269 L 1321,1270 L 1322,1270 L 1322,1271 L 1323,1271 L 1324,1271 L 1325,1271 L 1326,1271 L 1327,1271 L 1327,1272 L 1328,1272 L 1329,1272 L 1330,1272 L 1331,1272 L 1332,1272 L 1333,1272 L 1334,1272 L 1334,1273 L 1335,1273 L 1336,1273 L 1336,1272 L 1337,1272 L 1337,1273 L 1337,1274 L 1338,1274 L 1339,1274 L 1340,1274 L 1341,1275 L 1342,1275 L 1343,1275 L 1344,1275 L 1344,1276 L 1345,1276 L 1345,1275 L 1344,1274 L 1345,1274 L 1346,1274 L 1347,1274 L 1348,1273 L 1349,1274 L 1350,1274 L 1351,1274 L 1352,1274 L 1353,1274 L 1354,1274 L 1355,1274 L 1355,1275 L 1355,1276 L 1356,1276 L 1356,1277 L 1357,1278 L 1358,1278 L 1358,1279 L 1358,1280 L 1359,1280 L 1360,1280 L 1360,1281 L 1361,1281 L 1362,1281 L 1362,1282 L 1363,1282 L 1364,1283 L 1365,1284 L 1366,1284 L 1366,1285 L 1367,1285 L 1368,1285 L 1369,1285 L 1371,1286 L 1372,1287 L 1373,1288 L 1374,1289 L 1374,1290 L 1375,1291 L 1375,1292 L 1375,1293 L 1375,1294 L 1376,1295 L 1376,1296 L 1376,1297 L 1375,1297 L 1376,1297 L 1376,1298 L 1376,1299 L 1376,1300 L 1376,1301 L 1376,1302 L 1376,1303 L 1376,1304 L 1376,1305 L 1377,1305 L 1377,1306 L 1377,1307 L 1376,1308 L 1377,1308 L 1377,1309 L 1377,1310 L 1378,1311 L 1378,1312 L 1378,1313 L 1377,1313 L 1378,1313 L 1378,1314 L 1377,1314 L 1378,1314 L 1378,1316 L 1379,1316 L 1379,1318 L 1380,1319 L 1380,1321 L 1380,1322 L 1380,1323 L 1380,1324 L 1380,1325 L 1380,1326 L 1381,1327 L 1380,1328 L 1380,1330 L 1380,1331 L 1380,1332 L 1379,1332 L 1379,1333 L 1378,1333 L 1377,1334 L 1377,1335 L 1376,1335 L 1376,1334 L 1375,1334 L 1375,1333 L 1374,1332 L 1374,1331 L 1372,1331 L 1371,1331 L 1369,1331 L 1368,1331 L 1367,1331 L 1366,1331 L 1365,1331 L 1364,1331 L 1363,1330 L 1362,1330 L 1361,1330 L 1360,1330 L 1359,1330 L 1358,1330 L 1357,1330 L 1354,1331 L 1352,1331 L 1350,1331 L 1348,1330 L 1346,1330 L 1346,1331 L 1345,1331 L 1345,1332 L 1346,1332 L 1345,1332 L 1345,1333 L 1346,1333 L 1345,1333 L 1346,1333 L 1346,1334 L 1346,1335 L 1346,1337 L 1346,1338 L 1345,1340 L 1344,1340 L 1344,1342 L 1342,1343 L 1341,1343 L 1341,1345 L 1340,1348 L 1341,1348 L 1340,1350 L 1340,1351 L 1341,1352 L 1341,1353 L 1341,1355 L 1342,1355 L 1341,1356 L 1342,1357 L 1342,1358 L 1341,1358 L 1340,1359 L 1339,1361 L 1339,1364 L 1338,1365 L 1338,1369 L 1337,1371 L 1336,1372 L 1336,1374 L 1336,1375 L 1336,1376 L 1335,1377 L 1335,1378 L 1334,1379 L 1334,1383 L 1334,1385 L 1333,1387 L 1333,1389 L 1334,1390 L 1333,1391 L 1334,1392 L 1333,1394 L 1333,1396 L 1334,1397 L 1334,1398 L 1335,1400 L 1335,1401 L 1335,1402 L 1336,1403 L 1336,1404 L 1336,1405 L 1336,1406 L 1337,1407 L 1338,1409 L 1337,1411 L 1335,1414 L 1335,1416 L 1334,1417 L 1333,1417 L 1333,1418 L 1333,1419 L 1333,1420 L 1334,1420 L 1335,1420 L 1336,1420 L 1336,1421 L 1337,1421 L 1338,1421 L 1338,1422 L 1339,1422 L 1339,1423 L 1340,1423 L 1340,1424 L 1340,1425 L 1339,1425 L 1339,1426 L 1339,1427 L 1339,1428 L 1339,1429 L 1340,1429 L 1340,1430 L 1340,1431 L 1340,1432 L 1340,1433 L 1341,1433 L 1342,1433 L 1342,1434 L 1343,1434 L 1343,1435 L 1344,1435 L 1345,1435 L 1345,1436 L 1344,1436 L 1344,1437 L 1345,1437 L 1344,1437 L 1344,1438 L 1343,1438 L 1343,1439 L 1344,1439 L 1344,1440 L 1345,1440 L 1345,1441 L 1345,1442 L 1344,1442 L 1343,1442 L 1344,1442 L 1344,1443 L 1343,1443 L 1342,1442 L 1342,1443 L 1342,1444 L 1342,1443 L 1342,1444 L 1341,1444 L 1341,1445 L 1340,1445 L 1340,1446 L 1340,1447 L 1341,1447 L 1340,1447 L 1340,1448 L 1340,1449 L 1339,1449 L 1340,1449 L 1340,1450 L 1340,1449 L 1340,1450 L 1339,1450 L 1338,1450 L 1338,1451 L 1339,1451 L 1339,1452 L 1338,1452 L 1337,1452 L 1337,1453 L 1337,1454 L 1338,1454 L 1338,1455 L 1338,1456 L 1338,1457 L 1317,1457 L 1311,1457 L 1277,1457 L 1274,1457 L 1275,1456 L 1275,1455 L 1276,1453 L 1276,1452 L 1277,1451 L 1277,1450 L 1276,1449 L 1275,1449 L 1275,1448 L 1275,1447 L 1276,1446 L 1275,1445 L 1275,1444 L 1275,1442 L 1274,1441 L 1272,1441 L 1271,1440 L 1272,1439 L 1272,1438 L 1274,1437 L 1274,1436 L 1273,1435 L 1273,1434 L 1272,1433 L 1273,1431 L 1273,1428 L 1275,1427 L 1276,1425 L 1277,1425 L 1277,1423 L 1278,1421 L 1278,1420 L 1278,1418 L 1278,1416 L 1279,1416 L 1280,1415 L 1279,1414 L 1279,1413 L 1280,1412 L 1279,1412 L 1279,1411 L 1278,1411 L 1277,1410 L 1276,1410 L 1276,1409 L 1275,1409 L 1275,1408 L 1275,1406 L 1275,1404 L 1275,1403 L 1274,1402 L 1274,1401 L 1274,1400 L 1274,1399 L 1274,1398 L 1274,1396 L 1275,1394 L 1275,1392 L 1275,1389 L 1275,1385 L 1275,1382 L 1275,1381 L 1275,1380 L 1276,1375 L 1277,1374 L 1277,1373 L 1276,1371 L 1276,1367 L 1275,1366 L 1275,1365 L 1276,1363 L 1275,1361 L 1277,1359 L 1278,1357 L 1277,1356 L 1278,1354 L 1278,1353 L 1278,1352 L 1278,1351 L 1279,1350 L 1280,1348 L 1281,1346 L 1283,1345 L 1283,1342 L 1283,1341 L 1284,1340 L 1283,1338 L 1283,1336 L 1284,1334 L 1284,1331 L 1286,1329 L 1286,1326 L 1287,1326 L 1288,1324 L 1289,1322 L 1290,1320 L 1290,1318 L 1290,1316 L 1290,1315 L 1291,1314 L 1292,1312 L 1291,1310 L 1291,1307 L 1293,1304 L 1296,1301 L 1296,1299 L 1295,1297 L 1294,1296 L 1293,1294 L 1293,1293 L 1293,1291 L 1293,1290 L 1292,1289 L 1293,1287 L 1292,1285 L 1293,1284 L 1293,1283 L 1293,1282 L 1293,1281 L 1293,1279 L 1297,1279 L 1299,1277 L 1302,1277 L 1303,1276 L 1305,1276 L 1307,1276 L 1308,1276 L 1309,1276 L 1310,1276 L 1310,1275 L 1311,1276 L 1311,1275 L 1312,1275 L 1313,1275 L 1313,1274 L 1314,1274 L 1314,1273 L 1315,1273 L 1316,1273 L 1317,1273 L 1317,1272 L 1317,1271 L 1318,1271 L 1318,1270 L 1319,1270 L 1320,1270 L 1320,1269 L 1321,1269 " /></g>
</svg>
