<?xml version="1.0" standalone="no"?><!DOCTYPE svg PUBLIC "-//W3C//DTD SVG 1.1//EN" "http://www.w3.org/Graphics/SVG/1.1/DTD/svg11.dtd"><svg xmlns="http://www.w3.org/2000/svg" viewBox="1177 795 119 662" version = "1.1">
<g id="11001" ><path d="M 1223,797 L 1224,797 L 1225,797 L 1226,798 L 1227,797 L 1228,797 L 1229,797 L 1230,797 L 1231,797 L 1232,797 L 1233,797 L 1233,798 L 1234,798 L 1234,799 L 1234,800 L 1235,800 L 1235,801 L 1236,802 L 1237,802 L 1238,802 L 1238,801 L 1239,801 L 1240,801 L 1241,801 L 1242,801 L 1243,800 L 1244,800 L 1244,801 L 1244,802 L 1245,802 L 1245,803 L 1246,803 L 1247,802 L 1247,801 L 1248,801 L 1249,800 L 1250,800 L 1250,799 L 1251,799 L 1251,800 L 1252,800 L 1253,800 L 1254,801 L 1255,801 L 1256,801 L 1256,800 L 1255,800 L 1255,799 L 1255,798 L 1255,797 L 1256,797 L 1257,796 L 1258,796 L 1259,795 L 1260,796 L 1261,796 L 1261,797 L 1262,797 L 1263,797 L 1264,797 L 1264,798 L 1265,798 L 1266,798 L 1266,799 L 1267,799 L 1268,799 L 1269,799 L 1269,798 L 1270,798 L 1270,797 L 1270,796 L 1270,795 L 1271,795 L 1272,795 L 1273,796 L 1274,797 L 1275,798 L 1275,799 L 1274,800 L 1274,801 L 1275,801 L 1276,800 L 1277,800 L 1278,800 L 1279,800 L 1279,799 L 1280,799 L 1279,800 L 1279,801 L 1280,801 L 1280,802 L 1279,802 L 1279,803 L 1279,804 L 1279,805 L 1279,806 L 1279,807 L 1278,807 L 1278,808 L 1277,809 L 1278,809 L 1278,810 L 1278,811 L 1278,812 L 1277,812 L 1277,813 L 1277,814 L 1277,815 L 1276,816 L 1276,817 L 1276,818 L 1275,818 L 1275,819 L 1275,820 L 1276,820 L 1275,821 L 1275,822 L 1276,822 L 1276,823 L 1275,823 L 1275,824 L 1275,825 L 1274,825 L 1273,825 L 1273,826 L 1272,826 L 1272,827 L 1271,827 L 1271,828 L 1271,829 L 1270,829 L 1270,831 L 1270,833 L 1270,834 L 1269,835 L 1268,837 L 1267,838 L 1267,840 L 1267,841 L 1267,842 L 1267,844 L 1267,845 L 1267,846 L 1267,847 L 1268,848 L 1268,850 L 1269,851 L 1269,852 L 1270,853 L 1270,854 L 1269,854 L 1269,855 L 1269,857 L 1270,858 L 1273,861 L 1273,864 L 1274,867 L 1274,870 L 1276,872 L 1277,876 L 1276,879 L 1275,890 L 1276,891 L 1275,893 L 1275,897 L 1275,898 L 1274,898 L 1274,899 L 1273,899 L 1274,899 L 1274,900 L 1274,901 L 1273,901 L 1273,902 L 1272,902 L 1272,903 L 1273,903 L 1273,904 L 1273,905 L 1273,906 L 1273,907 L 1274,907 L 1275,907 L 1275,908 L 1275,909 L 1276,909 L 1276,910 L 1277,910 L 1277,911 L 1278,911 L 1277,912 L 1276,912 L 1276,913 L 1275,914 L 1275,915 L 1274,915 L 1274,916 L 1274,917 L 1275,918 L 1276,918 L 1276,920 L 1276,921 L 1276,923 L 1276,924 L 1275,925 L 1276,926 L 1276,927 L 1277,927 L 1277,929 L 1276,930 L 1276,932 L 1277,934 L 1278,936 L 1280,942 L 1279,944 L 1279,945 L 1281,947 L 1281,948 L 1280,950 L 1280,951 L 1280,952 L 1280,953 L 1280,954 L 1281,955 L 1280,955 L 1279,956 L 1279,957 L 1279,958 L 1279,959 L 1279,960 L 1279,961 L 1279,962 L 1280,962 L 1279,962 L 1279,963 L 1279,964 L 1278,965 L 1279,965 L 1279,966 L 1279,967 L 1279,968 L 1278,968 L 1278,969 L 1277,969 L 1277,970 L 1278,970 L 1278,971 L 1278,972 L 1278,973 L 1278,974 L 1278,975 L 1278,976 L 1279,976 L 1279,977 L 1279,978 L 1280,978 L 1280,979 L 1281,979 L 1281,980 L 1281,981 L 1281,982 L 1282,982 L 1283,982 L 1283,983 L 1284,983 L 1284,984 L 1285,984 L 1284,985 L 1284,986 L 1284,987 L 1283,987 L 1282,988 L 1282,989 L 1282,990 L 1281,990 L 1280,990 L 1280,991 L 1280,992 L 1280,993 L 1280,994 L 1280,995 L 1280,996 L 1280,997 L 1280,998 L 1280,999 L 1280,1000 L 1281,1001 L 1282,1002 L 1282,1003 L 1282,1004 L 1282,1005 L 1281,1005 L 1281,1006 L 1280,1007 L 1280,1008 L 1280,1009 L 1279,1009 L 1279,1010 L 1278,1010 L 1278,1011 L 1278,1012 L 1278,1013 L 1278,1014 L 1277,1014 L 1277,1015 L 1277,1016 L 1277,1017 L 1277,1018 L 1277,1019 L 1276,1019 L 1276,1020 L 1276,1021 L 1276,1022 L 1276,1023 L 1276,1024 L 1276,1025 L 1276,1026 L 1276,1027 L 1276,1028 L 1276,1029 L 1275,1029 L 1275,1030 L 1276,1030 L 1276,1031 L 1276,1032 L 1276,1033 L 1276,1034 L 1276,1035 L 1276,1036 L 1275,1036 L 1275,1037 L 1275,1038 L 1275,1039 L 1275,1040 L 1275,1041 L 1275,1042 L 1275,1043 L 1275,1044 L 1275,1045 L 1275,1046 L 1275,1047 L 1276,1047 L 1276,1048 L 1276,1049 L 1276,1050 L 1276,1051 L 1276,1052 L 1275,1053 L 1275,1054 L 1275,1055 L 1275,1056 L 1275,1057 L 1275,1058 L 1276,1058 L 1276,1059 L 1276,1060 L 1276,1061 L 1276,1062 L 1277,1062 L 1277,1063 L 1277,1064 L 1278,1064 L 1278,1065 L 1278,1066 L 1278,1067 L 1278,1068 L 1278,1069 L 1278,1070 L 1279,1071 L 1279,1072 L 1278,1072 L 1279,1073 L 1279,1074 L 1279,1075 L 1279,1076 L 1278,1076 L 1278,1077 L 1278,1078 L 1277,1078 L 1278,1078 L 1277,1079 L 1278,1079 L 1278,1080 L 1277,1080 L 1277,1081 L 1276,1082 L 1276,1083 L 1276,1084 L 1276,1085 L 1276,1086 L 1276,1087 L 1276,1088 L 1276,1089 L 1275,1089 L 1275,1090 L 1276,1090 L 1276,1091 L 1276,1092 L 1277,1092 L 1276,1092 L 1276,1093 L 1276,1094 L 1276,1095 L 1276,1096 L 1277,1096 L 1277,1097 L 1277,1098 L 1277,1099 L 1277,1100 L 1277,1101 L 1276,1102 L 1276,1103 L 1276,1104 L 1276,1105 L 1276,1106 L 1275,1106 L 1275,1107 L 1275,1108 L 1274,1108 L 1274,1109 L 1275,1109 L 1275,1110 L 1274,1111 L 1274,1112 L 1274,1113 L 1273,1114 L 1273,1115 L 1273,1116 L 1273,1117 L 1273,1118 L 1273,1119 L 1273,1120 L 1273,1121 L 1272,1121 L 1272,1122 L 1272,1123 L 1272,1124 L 1272,1125 L 1272,1126 L 1272,1127 L 1272,1128 L 1272,1129 L 1271,1129 L 1271,1130 L 1271,1131 L 1271,1132 L 1272,1132 L 1271,1133 L 1271,1134 L 1272,1134 L 1272,1135 L 1272,1136 L 1273,1136 L 1272,1137 L 1272,1138 L 1272,1139 L 1272,1140 L 1272,1141 L 1273,1141 L 1273,1142 L 1273,1143 L 1273,1144 L 1272,1144 L 1273,1145 L 1273,1146 L 1273,1147 L 1273,1148 L 1273,1149 L 1273,1150 L 1273,1151 L 1273,1152 L 1273,1154 L 1273,1155 L 1273,1156 L 1274,1157 L 1274,1158 L 1273,1159 L 1273,1160 L 1274,1160 L 1275,1161 L 1276,1162 L 1277,1162 L 1278,1163 L 1279,1163 L 1280,1163 L 1280,1164 L 1281,1164 L 1281,1166 L 1282,1167 L 1282,1168 L 1282,1170 L 1284,1170 L 1285,1170 L 1285,1173 L 1283,1175 L 1283,1178 L 1283,1180 L 1283,1181 L 1283,1183 L 1283,1184 L 1284,1184 L 1285,1184 L 1286,1184 L 1285,1185 L 1285,1186 L 1285,1187 L 1286,1187 L 1287,1187 L 1287,1188 L 1287,1189 L 1287,1190 L 1288,1190 L 1288,1191 L 1288,1192 L 1288,1193 L 1287,1193 L 1287,1194 L 1286,1194 L 1286,1195 L 1286,1196 L 1286,1197 L 1285,1197 L 1285,1198 L 1284,1198 L 1284,1199 L 1284,1200 L 1284,1201 L 1283,1201 L 1282,1201 L 1283,1202 L 1282,1202 L 1282,1203 L 1281,1203 L 1281,1204 L 1280,1205 L 1279,1206 L 1280,1207 L 1281,1207 L 1281,1208 L 1280,1208 L 1281,1208 L 1282,1209 L 1282,1210 L 1281,1210 L 1281,1211 L 1282,1211 L 1282,1212 L 1283,1212 L 1283,1213 L 1284,1213 L 1284,1214 L 1283,1214 L 1283,1215 L 1282,1215 L 1282,1216 L 1282,1217 L 1282,1218 L 1282,1219 L 1282,1220 L 1283,1220 L 1283,1221 L 1283,1222 L 1283,1223 L 1282,1224 L 1283,1225 L 1283,1227 L 1283,1228 L 1283,1229 L 1283,1230 L 1283,1231 L 1284,1231 L 1284,1232 L 1283,1232 L 1284,1232 L 1284,1233 L 1284,1234 L 1284,1236 L 1284,1237 L 1284,1238 L 1284,1240 L 1284,1243 L 1284,1244 L 1284,1245 L 1284,1246 L 1284,1247 L 1285,1247 L 1285,1248 L 1284,1248 L 1284,1249 L 1284,1250 L 1284,1251 L 1284,1252 L 1283,1253 L 1284,1254 L 1283,1254 L 1284,1254 L 1284,1255 L 1284,1256 L 1284,1257 L 1284,1258 L 1284,1259 L 1284,1260 L 1284,1261 L 1284,1262 L 1284,1263 L 1285,1263 L 1285,1264 L 1285,1265 L 1285,1267 L 1285,1270 L 1287,1277 L 1289,1278 L 1293,1279 L 1293,1281 L 1293,1282 L 1293,1283 L 1293,1284 L 1292,1285 L 1293,1287 L 1292,1289 L 1293,1290 L 1293,1291 L 1293,1293 L 1293,1294 L 1294,1296 L 1295,1297 L 1296,1299 L 1296,1301 L 1293,1304 L 1291,1307 L 1291,1310 L 1292,1312 L 1291,1314 L 1290,1315 L 1290,1316 L 1290,1318 L 1290,1320 L 1289,1322 L 1288,1324 L 1287,1326 L 1286,1326 L 1286,1329 L 1284,1331 L 1284,1334 L 1283,1336 L 1283,1338 L 1284,1340 L 1283,1341 L 1283,1342 L 1283,1345 L 1281,1346 L 1280,1348 L 1279,1350 L 1278,1351 L 1278,1352 L 1278,1353 L 1278,1354 L 1277,1356 L 1278,1357 L 1277,1359 L 1275,1361 L 1276,1363 L 1275,1365 L 1275,1366 L 1276,1367 L 1276,1371 L 1277,1373 L 1277,1374 L 1276,1375 L 1275,1380 L 1275,1381 L 1275,1382 L 1275,1385 L 1275,1389 L 1275,1392 L 1275,1394 L 1274,1396 L 1274,1398 L 1274,1399 L 1274,1400 L 1274,1401 L 1274,1402 L 1275,1403 L 1275,1404 L 1275,1406 L 1275,1408 L 1275,1409 L 1276,1409 L 1276,1410 L 1277,1410 L 1278,1411 L 1279,1411 L 1279,1412 L 1280,1412 L 1279,1413 L 1279,1414 L 1280,1415 L 1279,1416 L 1278,1416 L 1278,1418 L 1278,1420 L 1278,1421 L 1277,1423 L 1277,1425 L 1276,1425 L 1275,1427 L 1273,1428 L 1273,1431 L 1272,1433 L 1273,1434 L 1273,1435 L 1274,1436 L 1274,1437 L 1272,1438 L 1272,1439 L 1271,1440 L 1272,1441 L 1274,1441 L 1275,1442 L 1275,1444 L 1275,1445 L 1276,1446 L 1275,1447 L 1275,1448 L 1275,1449 L 1276,1449 L 1277,1450 L 1277,1451 L 1276,1452 L 1276,1453 L 1275,1455 L 1275,1456 L 1274,1457 L 1265,1457 L 1263,1457 L 1226,1457 L 1224,1453 L 1224,1451 L 1223,1446 L 1223,1441 L 1222,1441 L 1222,1440 L 1221,1440 L 1221,1439 L 1221,1437 L 1221,1435 L 1221,1431 L 1221,1426 L 1221,1424 L 1221,1422 L 1221,1420 L 1221,1419 L 1221,1418 L 1221,1416 L 1221,1415 L 1221,1414 L 1222,1414 L 1223,1414 L 1224,1414 L 1224,1413 L 1224,1412 L 1225,1412 L 1226,1412 L 1226,1411 L 1226,1412 L 1227,1412 L 1228,1412 L 1229,1412 L 1229,1411 L 1230,1411 L 1229,1410 L 1230,1410 L 1230,1409 L 1230,1408 L 1231,1407 L 1232,1407 L 1232,1406 L 1232,1405 L 1232,1404 L 1233,1404 L 1233,1403 L 1233,1402 L 1233,1401 L 1234,1401 L 1234,1400 L 1235,1400 L 1235,1399 L 1235,1398 L 1236,1397 L 1236,1396 L 1236,1395 L 1237,1395 L 1237,1394 L 1237,1393 L 1237,1392 L 1238,1392 L 1238,1391 L 1238,1388 L 1238,1386 L 1239,1382 L 1239,1380 L 1239,1377 L 1239,1375 L 1240,1372 L 1240,1371 L 1240,1366 L 1240,1365 L 1239,1359 L 1239,1349 L 1239,1347 L 1239,1346 L 1239,1339 L 1239,1335 L 1240,1331 L 1241,1327 L 1242,1322 L 1242,1315 L 1244,1309 L 1246,1302 L 1246,1300 L 1244,1297 L 1245,1291 L 1246,1287 L 1247,1281 L 1247,1277 L 1247,1272 L 1247,1267 L 1247,1264 L 1247,1261 L 1247,1258 L 1247,1256 L 1247,1255 L 1246,1253 L 1246,1252 L 1246,1251 L 1245,1251 L 1245,1250 L 1244,1250 L 1243,1250 L 1242,1250 L 1241,1249 L 1242,1249 L 1242,1248 L 1242,1247 L 1242,1246 L 1242,1243 L 1242,1237 L 1242,1236 L 1243,1236 L 1243,1235 L 1243,1234 L 1243,1233 L 1242,1233 L 1242,1232 L 1243,1232 L 1243,1231 L 1243,1230 L 1243,1229 L 1242,1229 L 1243,1229 L 1243,1228 L 1243,1227 L 1243,1226 L 1242,1226 L 1241,1225 L 1241,1226 L 1240,1226 L 1239,1226 L 1239,1227 L 1238,1227 L 1238,1228 L 1237,1228 L 1237,1229 L 1237,1226 L 1236,1220 L 1238,1213 L 1237,1206 L 1236,1197 L 1236,1183 L 1236,1177 L 1236,1174 L 1235,1170 L 1236,1164 L 1233,1159 L 1234,1146 L 1234,1137 L 1235,1133 L 1235,1118 L 1233,1116 L 1234,1113 L 1235,1111 L 1235,1101 L 1235,1099 L 1235,1089 L 1236,1087 L 1235,1084 L 1233,1082 L 1233,1080 L 1232,1072 L 1227,1066 L 1223,1060 L 1219,1051 L 1218,1046 L 1216,1039 L 1214,1031 L 1214,1025 L 1214,1022 L 1213,1015 L 1213,1007 L 1213,1002 L 1214,1000 L 1214,998 L 1213,995 L 1211,991 L 1212,989 L 1212,984 L 1212,983 L 1212,977 L 1211,970 L 1211,967 L 1210,962 L 1210,960 L 1210,955 L 1210,954 L 1210,950 L 1208,948 L 1207,945 L 1206,945 L 1205,944 L 1204,943 L 1203,943 L 1202,943 L 1201,942 L 1200,942 L 1199,942 L 1198,942 L 1197,942 L 1196,942 L 1195,942 L 1195,943 L 1194,943 L 1194,944 L 1193,943 L 1192,943 L 1192,944 L 1192,943 L 1191,943 L 1191,942 L 1192,942 L 1191,941 L 1191,940 L 1191,939 L 1191,940 L 1192,940 L 1192,939 L 1192,938 L 1193,937 L 1194,937 L 1194,936 L 1194,935 L 1194,934 L 1195,934 L 1195,933 L 1196,933 L 1196,932 L 1195,932 L 1194,932 L 1194,931 L 1193,931 L 1192,931 L 1192,930 L 1193,929 L 1193,928 L 1194,928 L 1193,928 L 1193,927 L 1193,928 L 1192,928 L 1191,928 L 1191,927 L 1191,926 L 1192,926 L 1191,925 L 1190,925 L 1190,924 L 1190,923 L 1190,922 L 1190,921 L 1189,920 L 1189,919 L 1188,919 L 1187,919 L 1186,919 L 1186,918 L 1186,917 L 1185,917 L 1186,916 L 1185,916 L 1185,915 L 1186,915 L 1186,916 L 1187,916 L 1188,916 L 1188,915 L 1189,915 L 1189,914 L 1188,914 L 1188,913 L 1187,913 L 1186,913 L 1186,912 L 1186,911 L 1186,910 L 1186,909 L 1187,909 L 1188,910 L 1188,909 L 1187,909 L 1187,908 L 1187,907 L 1186,907 L 1186,906 L 1185,906 L 1185,905 L 1184,904 L 1185,903 L 1185,902 L 1185,901 L 1184,901 L 1184,900 L 1184,901 L 1183,901 L 1183,900 L 1183,899 L 1183,898 L 1183,897 L 1184,897 L 1184,898 L 1185,898 L 1185,897 L 1184,896 L 1184,895 L 1184,894 L 1184,893 L 1185,893 L 1184,893 L 1183,892 L 1182,893 L 1181,893 L 1181,892 L 1182,892 L 1182,891 L 1182,890 L 1183,890 L 1183,891 L 1183,890 L 1183,889 L 1183,888 L 1182,888 L 1182,889 L 1181,889 L 1181,888 L 1180,888 L 1180,887 L 1181,887 L 1181,886 L 1181,885 L 1181,884 L 1181,883 L 1180,883 L 1180,882 L 1180,881 L 1181,881 L 1181,882 L 1182,881 L 1182,880 L 1181,880 L 1182,880 L 1183,880 L 1183,879 L 1182,878 L 1183,878 L 1183,877 L 1182,877 L 1182,876 L 1181,876 L 1180,876 L 1180,875 L 1181,875 L 1181,874 L 1181,873 L 1182,873 L 1182,872 L 1182,871 L 1183,871 L 1183,870 L 1182,870 L 1181,870 L 1181,869 L 1182,868 L 1182,867 L 1182,866 L 1182,865 L 1182,864 L 1182,863 L 1181,863 L 1181,862 L 1181,861 L 1182,861 L 1182,860 L 1182,859 L 1181,858 L 1180,858 L 1180,857 L 1181,857 L 1181,856 L 1181,855 L 1181,854 L 1180,853 L 1179,852 L 1178,852 L 1178,851 L 1178,850 L 1178,849 L 1178,848 L 1179,848 L 1178,848 L 1178,847 L 1177,847 L 1177,846 L 1177,845 L 1178,845 L 1178,844 L 1179,844 L 1180,845 L 1181,845 L 1182,845 L 1183,846 L 1184,846 L 1185,846 L 1186,845 L 1187,845 L 1188,845 L 1189,845 L 1190,845 L 1191,846 L 1191,845 L 1192,845 L 1193,845 L 1193,844 L 1194,843 L 1195,843 L 1195,844 L 1196,844 L 1197,844 L 1198,844 L 1198,845 L 1199,845 L 1199,846 L 1200,846 L 1200,845 L 1201,845 L 1202,845 L 1203,844 L 1204,844 L 1204,845 L 1205,845 L 1205,846 L 1206,846 L 1206,847 L 1207,847 L 1208,847 L 1208,846 L 1208,845 L 1207,845 L 1207,844 L 1207,843 L 1208,843 L 1208,842 L 1209,841 L 1210,841 L 1210,840 L 1211,840 L 1212,839 L 1212,838 L 1212,837 L 1211,837 L 1211,836 L 1210,836 L 1210,835 L 1211,835 L 1211,834 L 1211,833 L 1211,832 L 1211,831 L 1212,831 L 1212,830 L 1212,829 L 1211,829 L 1210,829 L 1210,828 L 1211,828 L 1211,827 L 1211,826 L 1211,825 L 1212,825 L 1212,824 L 1212,823 L 1213,823 L 1213,822 L 1213,821 L 1213,820 L 1212,820 L 1212,819 L 1211,819 L 1212,818 L 1213,818 L 1213,817 L 1213,816 L 1212,816 L 1212,815 L 1211,815 L 1211,814 L 1212,814 L 1212,813 L 1211,812 L 1211,811 L 1211,810 L 1211,809 L 1211,808 L 1211,806 L 1211,805 L 1211,804 L 1212,803 L 1212,802 L 1212,801 L 1213,800 L 1214,800 L 1215,800 L 1215,801 L 1216,800 L 1216,799 L 1215,799 L 1215,798 L 1214,798 L 1214,797 L 1213,797 L 1214,796 L 1214,795 L 1215,796 L 1216,797 L 1217,797 L 1217,796 L 1218,796 L 1218,795 L 1219,795 L 1220,795 L 1221,795 L 1221,796 L 1222,796 L 1223,797 " /></g>
</svg>
