<?xml version="1.0" standalone="no"?><!DOCTYPE svg PUBLIC "-//W3C//DTD SVG 1.1//EN" "http://www.w3.org/Graphics/SVG/1.1/DTD/svg11.dtd"><svg xmlns="http://www.w3.org/2000/svg" viewBox="1333 1252 459 205" version = "1.1">
<g id="11003" ><path d="M 1397,1253 L 1397,1254 L 1397,1255 L 1397,1256 L 1398,1257 L 1397,1259 L 1399,1261 L 1399,1262 L 1398,1263 L 1398,1264 L 1397,1265 L 1397,1266 L 1396,1266 L 1396,1267 L 1396,1268 L 1396,1269 L 1397,1270 L 1396,1271 L 1397,1272 L 1396,1273 L 1397,1273 L 1397,1274 L 1397,1275 L 1407,1275 L 1414,1275 L 1420,1275 L 1432,1275 L 1433,1275 L 1502,1270 L 1510,1270 L 1620,1269 L 1792,1269 L 1788,1276 L 1784,1281 L 1777,1290 L 1776,1292 L 1772,1297 L 1770,1300 L 1767,1304 L 1765,1307 L 1764,1308 L 1763,1309 L 1763,1310 L 1763,1315 L 1763,1316 L 1763,1322 L 1763,1324 L 1763,1326 L 1763,1332 L 1764,1339 L 1764,1344 L 1764,1346 L 1764,1368 L 1764,1401 L 1765,1454 L 1516,1457 L 1432,1457 L 1431,1457 L 1349,1457 L 1348,1457 L 1347,1457 L 1338,1457 L 1338,1456 L 1338,1455 L 1338,1454 L 1337,1454 L 1337,1453 L 1337,1452 L 1338,1452 L 1339,1452 L 1339,1451 L 1338,1451 L 1338,1450 L 1339,1450 L 1340,1450 L 1340,1449 L 1340,1450 L 1340,1449 L 1339,1449 L 1340,1449 L 1340,1448 L 1340,1447 L 1341,1447 L 1340,1447 L 1340,1446 L 1340,1445 L 1341,1445 L 1341,1444 L 1342,1444 L 1342,1443 L 1342,1444 L 1342,1443 L 1342,1442 L 1343,1443 L 1344,1443 L 1344,1442 L 1343,1442 L 1344,1442 L 1345,1442 L 1345,1441 L 1345,1440 L 1344,1440 L 1344,1439 L 1343,1439 L 1343,1438 L 1344,1438 L 1344,1437 L 1345,1437 L 1344,1437 L 1344,1436 L 1345,1436 L 1345,1435 L 1344,1435 L 1343,1435 L 1343,1434 L 1342,1434 L 1342,1433 L 1341,1433 L 1340,1433 L 1340,1432 L 1340,1431 L 1340,1430 L 1340,1429 L 1339,1429 L 1339,1428 L 1339,1427 L 1339,1426 L 1339,1425 L 1340,1425 L 1340,1424 L 1340,1423 L 1339,1423 L 1339,1422 L 1338,1422 L 1338,1421 L 1337,1421 L 1336,1421 L 1336,1420 L 1335,1420 L 1334,1420 L 1333,1420 L 1333,1419 L 1333,1418 L 1333,1417 L 1334,1417 L 1335,1416 L 1335,1414 L 1337,1411 L 1338,1409 L 1337,1407 L 1336,1406 L 1336,1405 L 1336,1404 L 1336,1403 L 1335,1402 L 1335,1401 L 1335,1400 L 1334,1398 L 1334,1397 L 1333,1396 L 1333,1394 L 1334,1392 L 1333,1391 L 1334,1390 L 1333,1389 L 1333,1387 L 1334,1385 L 1334,1383 L 1334,1379 L 1335,1378 L 1335,1377 L 1336,1376 L 1336,1375 L 1336,1374 L 1336,1372 L 1337,1371 L 1338,1369 L 1338,1365 L 1339,1364 L 1339,1361 L 1340,1359 L 1341,1358 L 1342,1358 L 1342,1357 L 1341,1356 L 1342,1355 L 1341,1355 L 1341,1353 L 1341,1352 L 1340,1351 L 1340,1350 L 1341,1348 L 1340,1348 L 1341,1345 L 1341,1343 L 1342,1343 L 1344,1342 L 1344,1340 L 1345,1340 L 1346,1338 L 1346,1337 L 1346,1335 L 1346,1334 L 1346,1333 L 1345,1333 L 1346,1333 L 1345,1333 L 1345,1332 L 1346,1332 L 1345,1332 L 1345,1331 L 1346,1331 L 1346,1330 L 1348,1330 L 1350,1331 L 1352,1331 L 1354,1331 L 1357,1330 L 1358,1330 L 1359,1330 L 1360,1330 L 1361,1330 L 1362,1330 L 1363,1330 L 1364,1331 L 1365,1331 L 1366,1331 L 1367,1331 L 1368,1331 L 1369,1331 L 1371,1331 L 1372,1331 L 1374,1331 L 1374,1332 L 1375,1333 L 1375,1334 L 1376,1334 L 1376,1335 L 1377,1335 L 1377,1334 L 1378,1333 L 1379,1333 L 1379,1332 L 1380,1332 L 1380,1331 L 1380,1330 L 1380,1328 L 1381,1327 L 1380,1326 L 1380,1325 L 1380,1324 L 1380,1323 L 1380,1322 L 1380,1321 L 1380,1319 L 1379,1318 L 1379,1316 L 1378,1316 L 1378,1314 L 1377,1314 L 1378,1314 L 1378,1313 L 1377,1313 L 1378,1313 L 1378,1312 L 1378,1311 L 1377,1310 L 1377,1309 L 1377,1308 L 1376,1308 L 1377,1307 L 1377,1306 L 1377,1305 L 1376,1305 L 1376,1304 L 1376,1303 L 1376,1302 L 1376,1301 L 1376,1300 L 1376,1299 L 1376,1298 L 1376,1297 L 1375,1297 L 1376,1297 L 1376,1296 L 1376,1295 L 1375,1294 L 1375,1293 L 1375,1292 L 1375,1291 L 1374,1290 L 1374,1289 L 1373,1288 L 1372,1287 L 1371,1286 L 1369,1285 L 1368,1285 L 1367,1285 L 1366,1285 L 1366,1284 L 1365,1284 L 1364,1283 L 1363,1282 L 1362,1282 L 1362,1281 L 1361,1281 L 1360,1281 L 1360,1280 L 1359,1280 L 1358,1280 L 1358,1279 L 1358,1278 L 1357,1278 L 1356,1277 L 1356,1276 L 1355,1276 L 1355,1275 L 1355,1274 L 1356,1274 L 1356,1273 L 1357,1273 L 1358,1273 L 1359,1273 L 1360,1273 L 1361,1273 L 1361,1272 L 1362,1272 L 1362,1271 L 1363,1271 L 1364,1271 L 1365,1270 L 1366,1270 L 1367,1269 L 1368,1269 L 1369,1268 L 1369,1267 L 1370,1267 L 1371,1267 L 1372,1267 L 1373,1268 L 1374,1268 L 1375,1268 L 1376,1268 L 1377,1268 L 1378,1268 L 1378,1267 L 1378,1266 L 1378,1265 L 1378,1264 L 1379,1264 L 1380,1263 L 1380,1262 L 1380,1261 L 1381,1261 L 1381,1260 L 1381,1259 L 1382,1259 L 1382,1258 L 1381,1258 L 1381,1257 L 1382,1257 L 1382,1256 L 1383,1256 L 1383,1255 L 1383,1254 L 1386,1255 L 1387,1254 L 1388,1254 L 1389,1254 L 1390,1254 L 1390,1253 L 1390,1254 L 1391,1254 L 1391,1253 L 1392,1253 L 1393,1253 L 1394,1253 L 1395,1253 L 1396,1253 L 1396,1252 L 1397,1252 L 1397,1253 " /></g>
</svg>
