<?xml version="1.0" standalone="no"?><!DOCTYPE svg PUBLIC "-//W3C//DTD SVG 1.1//EN" "http://www.w3.org/Graphics/SVG/1.1/DTD/svg11.dtd"><svg xmlns="http://www.w3.org/2000/svg" viewBox="-168 -69 135 136" version = "1.1">
<g id="20102" ><path d="M -103,52 L -103,47 L -103,45 L -104,42 L -105,40 L -104,37 L -104,36 L -105,36 L -106,33 L -106,32 L -107,31 L -107,30 L -108,30 L -109,29 L -109,28 L -110,28 L -111,27 L -112,27 L -112,26 L -113,26 L -113,25 L -114,25 L -114,24 L -115,24 L -115,23 L -116,23 L -117,23 L -118,23 L -119,22 L -119,21 L -119,20 L -119,19 L -119,18 L -119,17 L -118,17 L -118,16 L -119,15 L -120,14 L -121,14 L -122,14 L -123,13 L -124,13 L -124,12 L -125,11 L -125,10 L -126,10 L -127,10 L -127,9 L -128,9 L -128,8 L -129,8 L -130,8 L -130,7 L -131,6 L -131,5 L -132,5 L -133,5 L -134,5 L -135,6 L -135,5 L -136,5 L -137,4 L -138,4 L -140,2 L -141,1 L -142,0 L -143,0 L -144,-1 L -144,-2 L -142,-2 L -141,-3 L -139,-4 L -137,-5 L -138,-6 L -137,-6 L -138,-7 L -138,-8 L -139,-8 L -139,-9 L -140,-9 L -140,-10 L -141,-11 L -141,-12 L -141,-13 L -141,-14 L -141,-15 L -142,-15 L -143,-15 L -144,-16 L -145,-16 L -145,-17 L -146,-17 L -147,-17 L -148,-17 L -148,-16 L -148,-17 L -149,-17 L -149,-18 L -150,-18 L -150,-19 L -150,-20 L -151,-20 L -152,-20 L -152,-21 L -152,-22 L -153,-22 L -154,-22 L -154,-23 L -155,-23 L -155,-24 L -156,-24 L -156,-25 L -157,-25 L -157,-26 L -158,-26 L -159,-27 L -162,-28 L -163,-29 L -165,-30 L -166,-31 L -167,-32 L -168,-34 L -163,-45 L -160,-45 L -158,-47 L -152,-52 L -149,-54 L -148,-56 L -145,-65 L -140,-69 L -138,-67 L -136,-66 L -134,-66 L -133,-65 L -132,-63 L -130,-62 L -127,-61 L -123,-60 L -123,-59 L -122,-58 L -122,-57 L -120,-55 L -119,-55 L -117,-56 L -114,-55 L -113,-55 L -110,-54 L -109,-53 L -107,-48 L -106,-47 L -106,-45 L -107,-44 L -108,-43 L -108,-42 L -108,-41 L -109,-40 L -112,-39 L -113,-38 L -112,-37 L -111,-36 L -110,-36 L -110,-35 L -110,-34 L -111,-33 L -112,-30 L -111,-29 L -110,-28 L -110,-27 L -109,-27 L -108,-27 L -104,-27 L -102,-26 L -101,-25 L -100,-24 L -98,-23 L -96,-22 L -96,-20 L -95,-19 L -96,-17 L -96,-15 L -97,-13 L -98,-11 L -97,-10 L -96,-10 L -95,-10 L -94,-9 L -93,-9 L -93,-8 L -92,-8 L -91,-8 L -89,-7 L -87,-5 L -88,-2 L -87,-1 L -85,-1 L -81,-1 L -73,1 L -71,2 L -69,2 L -67,3 L -64,3 L -63,3 L -62,4 L -61,4 L -58,5 L -58,6 L -57,7 L -56,8 L -56,9 L -55,10 L -51,12 L -50,13 L -48,15 L -44,17 L -43,17 L -42,18 L -41,18 L -40,19 L -39,19 L -39,20 L -38,20 L -38,21 L -37,20 L -37,21 L -36,21 L -36,22 L -35,22 L -35,23 L -35,24 L -34,24 L -34,25 L -34,26 L -33,26 L -33,27 L -34,27 L -34,28 L -34,29 L -35,29 L -35,30 L -35,31 L -36,32 L -36,33 L -37,33 L -37,34 L -38,34 L -39,35 L -40,35 L -40,34 L -41,34 L -41,35 L -42,35 L -42,36 L -43,36 L -43,37 L -43,38 L -43,39 L -44,39 L -45,39 L -46,39 L -46,40 L -47,40 L -47,41 L -48,41 L -48,42 L -47,42 L -47,43 L -47,44 L -46,44 L -46,45 L -47,45 L -47,46 L -48,46 L -48,47 L -49,47 L -50,47 L -51,47 L -51,48 L -52,48 L -53,48 L -54,48 L -55,48 L -56,48 L -57,48 L -58,49 L -59,49 L -59,50 L -60,50 L -60,51 L -61,52 L -62,52 L -62,53 L -62,54 L -63,54 L -63,55 L -62,56 L -62,57 L -62,58 L -61,59 L -61,60 L -61,61 L -60,62 L -60,63 L -60,64 L -61,64 L -62,65 L -63,66 L -64,66 L -65,67 L -66,67 L -67,67 L -68,67 L -69,66 L -70,66 L -71,66 L -72,66 L -72,67 L -73,67 L -74,67 L -74,66 L -74,65 L -74,64 L -75,64 L -76,64 L -76,63 L -77,63 L -77,62 L -78,62 L -78,61 L -79,61 L -79,60 L -80,60 L -80,59 L -81,59 L -82,59 L -82,58 L -83,58 L -84,58 L -85,58 L -86,58 L -87,58 L -88,58 L -89,58 L -90,57 L -91,57 L -92,56 L -100,56 L -101,56 L -102,55 L -103,52 " /></g>
</svg>
