<?xml version="1.0" standalone="no"?><!DOCTYPE svg PUBLIC "-//W3C//DTD SVG 1.1//EN" "http://www.w3.org/Graphics/SVG/1.1/DTD/svg11.dtd"><svg xmlns="http://www.w3.org/2000/svg" viewBox="-196 -34 93 101" version = "1.1">
<g id="20103" ><path d="M -158,-26 L -157,-26 L -157,-25 L -156,-25 L -156,-24 L -155,-24 L -155,-23 L -154,-23 L -154,-22 L -153,-22 L -152,-22 L -152,-21 L -152,-20 L -151,-20 L -150,-20 L -150,-19 L -150,-18 L -149,-18 L -149,-17 L -148,-17 L -148,-16 L -148,-17 L -147,-17 L -146,-17 L -145,-17 L -145,-16 L -144,-16 L -143,-15 L -142,-15 L -141,-15 L -141,-14 L -141,-13 L -141,-12 L -141,-11 L -140,-10 L -140,-9 L -139,-9 L -139,-8 L -138,-8 L -138,-7 L -137,-6 L -138,-6 L -137,-5 L -139,-4 L -141,-3 L -142,-2 L -144,-2 L -144,-1 L -143,0 L -142,0 L -141,1 L -140,2 L -138,4 L -137,4 L -136,5 L -135,5 L -135,6 L -134,5 L -133,5 L -132,5 L -131,5 L -131,6 L -130,7 L -130,8 L -129,8 L -128,8 L -128,9 L -127,9 L -127,10 L -126,10 L -125,10 L -125,11 L -124,12 L -124,13 L -123,13 L -122,14 L -121,14 L -120,14 L -119,15 L -118,16 L -118,17 L -119,17 L -119,18 L -119,19 L -119,20 L -119,21 L -119,22 L -118,23 L -117,23 L -116,23 L -115,23 L -115,24 L -114,24 L -114,25 L -113,25 L -113,26 L -112,26 L -112,27 L -111,27 L -110,28 L -109,28 L -109,29 L -108,30 L -107,30 L -107,31 L -106,32 L -106,33 L -105,36 L -104,36 L -104,37 L -105,40 L -104,42 L -103,45 L -103,47 L -103,52 L -106,50 L -108,49 L -113,48 L -114,48 L -116,48 L -119,52 L -119,53 L -120,54 L -122,55 L -125,55 L -126,55 L -129,53 L -130,53 L -131,52 L -132,52 L -133,52 L -135,52 L -135,53 L -136,53 L -136,54 L -136,55 L -137,55 L -137,54 L -138,54 L -140,56 L -141,56 L -142,55 L -143,55 L -144,55 L -145,56 L -145,57 L -145,58 L -146,58 L -147,59 L -147,60 L -147,61 L -147,62 L -147,63 L -148,63 L -148,64 L -148,65 L -147,65 L -147,66 L -148,66 L -148,67 L -148,66 L -149,66 L -149,67 L -150,67 L -150,66 L -151,66 L -152,66 L -153,66 L -153,65 L -154,65 L -156,63 L -158,62 L -159,61 L -161,61 L -162,61 L -162,60 L -164,59 L -165,59 L -166,58 L -168,54 L -169,54 L -169,53 L -168,53 L -169,53 L -168,53 L -168,52 L -169,52 L -169,51 L -170,51 L -170,50 L -170,49 L -171,49 L -172,48 L -172,47 L -173,47 L -173,46 L -174,46 L -174,45 L -175,45 L -175,44 L -176,44 L -176,43 L -177,43 L -178,42 L -179,41 L -179,40 L -180,40 L -181,39 L -183,39 L -183,38 L -184,38 L -184,36 L -184,35 L -183,35 L -183,34 L -184,33 L -187,33 L -188,33 L -188,32 L -189,32 L -189,31 L -189,30 L -188,29 L -187,28 L -187,27 L -186,25 L -186,24 L -186,23 L -186,22 L -186,21 L -186,20 L -186,19 L -186,18 L -185,18 L -185,17 L -185,16 L -186,16 L -186,15 L -186,14 L -185,14 L -185,13 L -184,13 L -184,12 L -184,11 L -183,11 L -183,10 L -184,9 L -184,7 L -186,5 L -187,5 L -190,1 L -192,-3 L -191,-5 L -189,-6 L -189,-8 L -188,-11 L -189,-11 L -189,-12 L -189,-13 L -189,-14 L -189,-15 L -189,-16 L -190,-16 L -190,-17 L -191,-17 L -191,-16 L -191,-17 L -192,-17 L -192,-16 L -193,-16 L -194,-16 L -195,-16 L -195,-17 L -196,-17 L -196,-18 L -194,-20 L -194,-24 L -191,-21 L -184,-17 L -182,-17 L -181,-18 L -180,-19 L -180,-20 L -180,-21 L -180,-22 L -179,-22 L -179,-23 L -178,-24 L -177,-24 L -176,-24 L -176,-25 L -176,-26 L -175,-26 L -175,-27 L -175,-28 L -175,-29 L -174,-29 L -169,-33 L -168,-34 L -167,-32 L -166,-31 L -165,-30 L -163,-29 L -162,-28 L -159,-27 L -158,-26 " /></g>
</svg>
