<?xml version="1.0" standalone="no"?><!DOCTYPE svg PUBLIC "-//W3C//DTD SVG 1.1//EN" "http://www.w3.org/Graphics/SVG/1.1/DTD/svg11.dtd"><svg xmlns="http://www.w3.org/2000/svg" viewBox="-222 -40 39 76" version = "1.1">
<g id="20104" ><path d="M -212,-40 L -211,-39 L -210,-38 L -210,-37 L -210,-36 L -209,-35 L -207,-34 L -205,-33 L -202,-31 L -194,-24 L -194,-20 L -196,-18 L -196,-17 L -195,-17 L -195,-16 L -194,-16 L -193,-16 L -192,-16 L -192,-17 L -191,-17 L -191,-16 L -191,-17 L -190,-17 L -190,-16 L -189,-16 L -189,-15 L -189,-14 L -189,-13 L -189,-12 L -189,-11 L -188,-11 L -189,-8 L -189,-6 L -191,-5 L -192,-3 L -190,1 L -187,5 L -186,5 L -184,7 L -184,9 L -183,10 L -183,11 L -184,11 L -184,12 L -184,13 L -185,13 L -185,14 L -186,14 L -186,15 L -186,16 L -185,16 L -185,17 L -185,18 L -186,18 L -186,19 L -186,20 L -186,21 L -186,22 L -186,23 L -186,24 L -186,25 L -187,27 L -187,28 L -188,29 L -189,30 L -189,31 L -192,34 L -193,34 L -193,35 L -193,36 L -194,36 L -197,36 L -198,36 L -204,33 L -207,32 L -209,32 L -212,33 L -212,30 L -211,30 L -212,30 L -213,27 L -213,23 L -214,22 L -214,21 L -213,21 L -212,21 L -211,22 L -211,21 L -210,21 L -210,20 L -211,19 L -211,18 L -211,17 L -211,16 L -211,15 L -211,14 L -211,13 L -211,12 L -211,11 L -211,10 L -212,10 L -212,9 L -212,8 L -213,8 L -213,7 L -214,6 L -214,5 L -215,5 L -215,4 L -215,3 L -216,3 L -217,2 L -217,1 L -218,1 L -219,1 L -219,0 L -220,0 L -221,-1 L -221,-9 L -204,-8 L -204,-9 L -205,-10 L -204,-10 L -204,-11 L -203,-11 L -204,-11 L -204,-12 L -203,-12 L -204,-12 L -203,-12 L -203,-13 L -204,-13 L -205,-13 L -206,-13 L -206,-14 L -207,-14 L -207,-15 L -208,-15 L -209,-15 L -210,-15 L -209,-15 L -210,-15 L -210,-16 L -210,-15 L -210,-16 L -211,-16 L -211,-17 L -211,-16 L -211,-17 L -212,-17 L -211,-17 L -212,-17 L -212,-18 L -212,-19 L -213,-19 L -213,-20 L -214,-20 L -214,-21 L -215,-21 L -216,-21 L -216,-22 L -217,-22 L -218,-22 L -218,-23 L -218,-24 L -217,-24 L -218,-24 L -218,-25 L -219,-25 L -219,-26 L -220,-26 L -221,-26 L -221,-27 L -221,-28 L -222,-28 L -222,-29 L -222,-30 L -221,-30 L -221,-31 L -220,-32 L -221,-32 L -221,-33 L -220,-33 L -220,-34 L -220,-33 L -220,-34 L -219,-34 L -219,-35 L -219,-36 L -219,-37 L -219,-38 L -218,-38 L -218,-39 L -217,-39 L -217,-38 L -216,-38 L -215,-38 L -214,-39 L -213,-39 L -213,-40 L -212,-40 " /></g>
</svg>
