<?xml version="1.0" standalone="no"?><!DOCTYPE svg PUBLIC "-//W3C//DTD SVG 1.1//EN" "http://www.w3.org/Graphics/SVG/1.1/DTD/svg11.dtd"><svg xmlns="http://www.w3.org/2000/svg" viewBox="-263 -133 60 125" version = "1.1">
<g id="20105" ><path d="M -210,-41 L -211,-41 L -212,-41 L -212,-40 L -213,-40 L -213,-39 L -214,-39 L -215,-38 L -216,-38 L -217,-38 L -217,-39 L -218,-39 L -218,-38 L -219,-38 L -219,-37 L -219,-36 L -219,-35 L -219,-34 L -220,-34 L -220,-33 L -220,-34 L -220,-33 L -221,-33 L -221,-32 L -220,-32 L -221,-31 L -221,-30 L -222,-30 L -222,-29 L -222,-28 L -221,-28 L -221,-27 L -221,-26 L -220,-26 L -219,-26 L -219,-25 L -218,-25 L -218,-24 L -217,-24 L -218,-24 L -218,-23 L -218,-22 L -217,-22 L -216,-22 L -216,-21 L -215,-21 L -214,-21 L -214,-20 L -213,-20 L -213,-19 L -212,-19 L -212,-18 L -212,-17 L -211,-17 L -212,-17 L -211,-17 L -211,-16 L -211,-17 L -211,-16 L -210,-16 L -210,-15 L -210,-16 L -210,-15 L -209,-15 L -210,-15 L -209,-15 L -208,-15 L -207,-15 L -207,-14 L -206,-14 L -206,-13 L -205,-13 L -204,-13 L -203,-13 L -203,-12 L -204,-12 L -203,-12 L -204,-12 L -204,-11 L -203,-11 L -204,-11 L -204,-10 L -205,-10 L -204,-9 L -204,-8 L -221,-9 L -240,-15 L -233,-22 L -234,-23 L -229,-29 L -234,-29 L -235,-29 L -236,-29 L -248,-32 L -247,-33 L -245,-33 L -240,-39 L -250,-45 L -255,-41 L -260,-43 L -257,-50 L -261,-50 L -263,-51 L -261,-55 L -260,-55 L -260,-56 L -260,-57 L -259,-57 L -259,-58 L -258,-58 L -258,-59 L -257,-59 L -257,-60 L -256,-60 L -256,-61 L -256,-62 L -255,-62 L -255,-63 L -255,-64 L -254,-64 L -253,-65 L -253,-66 L -252,-66 L -252,-67 L -252,-68 L -251,-68 L -251,-69 L -251,-70 L -251,-71 L -251,-72 L -251,-73 L -250,-73 L -250,-74 L -249,-74 L -249,-75 L -249,-76 L -242,-89 L -233,-92 L -229,-108 L -229,-109 L -228,-109 L -228,-110 L -227,-110 L -227,-111 L -226,-111 L -226,-112 L -225,-112 L -225,-113 L -225,-114 L -225,-115 L -224,-115 L -224,-116 L -224,-117 L -223,-117 L -223,-118 L -222,-118 L -222,-119 L -223,-120 L -217,-123 L -216,-128 L -212,-133 L -212,-132 L -212,-131 L -212,-129 L -212,-128 L -213,-128 L -213,-125 L -212,-125 L -212,-124 L -211,-122 L -211,-121 L -211,-120 L -211,-119 L -211,-118 L -210,-118 L -211,-118 L -211,-117 L -210,-117 L -211,-117 L -210,-117 L -211,-115 L -209,-114 L -209,-113 L -208,-113 L -207,-111 L -207,-107 L -207,-104 L -207,-103 L -207,-102 L -208,-101 L -208,-100 L -208,-99 L -209,-98 L -211,-87 L -211,-86 L -211,-85 L -210,-85 L -211,-85 L -210,-85 L -210,-84 L -211,-84 L -210,-84 L -211,-84 L -210,-84 L -211,-84 L -211,-83 L -211,-82 L -211,-81 L -210,-81 L -211,-81 L -210,-81 L -210,-80 L -210,-79 L -210,-78 L -211,-78 L -211,-77 L -210,-77 L -212,-76 L -213,-76 L -213,-75 L -213,-74 L -213,-73 L -213,-72 L -213,-71 L -213,-70 L -214,-70 L -214,-69 L -214,-68 L -215,-68 L -215,-67 L -215,-66 L -216,-66 L -216,-65 L -216,-64 L -217,-64 L -217,-63 L -216,-63 L -217,-63 L -217,-62 L -216,-62 L -216,-61 L -216,-60 L -215,-60 L -215,-59 L -214,-59 L -215,-58 L -215,-59 L -215,-58 L -216,-58 L -216,-59 L -217,-59 L -217,-58 L -218,-58 L -218,-57 L -217,-57 L -218,-57 L -218,-56 L -217,-56 L -217,-55 L -216,-55 L -216,-54 L -215,-54 L -215,-53 L -215,-52 L -214,-52 L -214,-51 L -213,-51 L -213,-50 L -212,-50 L -212,-49 L -211,-48 L -211,-47 L -211,-46 L -210,-46 L -210,-45 L -210,-44 L -209,-44 L -209,-43 L -210,-43 L -210,-42 L -210,-41 " /></g>
</svg>
