<?xml version="1.0" standalone="no"?><!DOCTYPE svg PUBLIC "-//W3C//DTD SVG 1.1//EN" "http://www.w3.org/Graphics/SVG/1.1/DTD/svg11.dtd"><svg xmlns="http://www.w3.org/2000/svg" viewBox="-240 -306 206 289" version = "1.1">
<g id="20101" ><path d="M -54,-305 L -54,-304 L -53,-303 L -53,-302 L -52,-302 L -51,-302 L -50,-302 L -50,-301 L -49,-300 L -48,-300 L -48,-299 L -47,-298 L -48,-298 L -48,-297 L -47,-297 L -47,-296 L -46,-296 L -46,-295 L -45,-295 L -45,-294 L -44,-293 L -45,-291 L -45,-290 L -46,-289 L -46,-288 L -46,-287 L -46,-286 L -45,-285 L -45,-284 L -45,-283 L -46,-282 L -46,-281 L -46,-280 L -46,-279 L -45,-278 L -45,-277 L -44,-277 L -44,-276 L -45,-276 L -45,-275 L -44,-276 L -44,-275 L -44,-274 L -44,-273 L -44,-272 L -45,-272 L -45,-271 L -46,-271 L -47,-271 L -46,-271 L -46,-270 L -46,-269 L -45,-268 L -44,-268 L -44,-267 L -43,-267 L -42,-266 L -41,-266 L -41,-265 L -41,-264 L -40,-264 L -40,-263 L -39,-263 L -39,-262 L -38,-262 L -38,-261 L -37,-261 L -37,-260 L -38,-260 L -37,-260 L -37,-259 L -37,-258 L -38,-258 L -38,-257 L -38,-256 L -38,-255 L -37,-255 L -37,-254 L -37,-253 L -37,-252 L -36,-252 L -36,-251 L -35,-251 L -34,-251 L -34,-250 L -35,-250 L -35,-249 L -36,-249 L -37,-249 L -37,-248 L -37,-247 L -38,-247 L -38,-246 L -39,-246 L -40,-246 L -40,-245 L -40,-244 L -41,-244 L -41,-243 L -41,-242 L -41,-243 L -41,-242 L -41,-241 L -42,-241 L -42,-240 L -41,-240 L -41,-239 L -40,-239 L -41,-239 L -41,-238 L -42,-238 L -43,-238 L -43,-237 L -44,-237 L -45,-237 L -45,-236 L -46,-236 L -47,-236 L -47,-235 L -50,-225 L -51,-221 L -51,-219 L -51,-218 L -52,-217 L -52,-216 L -52,-215 L -52,-214 L -53,-214 L -54,-213 L -54,-214 L -55,-214 L -55,-213 L -56,-214 L -57,-214 L -57,-215 L -58,-214 L -59,-214 L -60,-214 L -60,-215 L -60,-216 L -61,-216 L -62,-216 L -63,-216 L -64,-216 L -65,-217 L -65,-216 L -66,-216 L -66,-217 L -67,-217 L -68,-217 L -69,-217 L -69,-216 L -69,-217 L -70,-217 L -69,-217 L -70,-217 L -70,-218 L -71,-218 L -72,-218 L -73,-218 L -74,-218 L -86,-221 L -96,-220 L -104,-215 L -107,-208 L -110,-205 L -113,-204 L -113,-200 L -114,-197 L -114,-193 L -114,-189 L -115,-189 L -116,-190 L -116,-191 L -117,-191 L -117,-192 L -117,-193 L -118,-192 L -119,-192 L -119,-191 L -118,-191 L -119,-191 L -120,-191 L -121,-191 L -122,-191 L -123,-191 L -124,-191 L -124,-190 L -125,-191 L -125,-192 L -126,-192 L -127,-192 L -128,-192 L -128,-191 L -129,-190 L -130,-190 L -130,-191 L -131,-191 L -132,-191 L -132,-192 L -133,-192 L -133,-193 L -134,-194 L -134,-195 L -135,-194 L -135,-193 L -135,-192 L -136,-192 L -135,-192 L -135,-191 L -136,-191 L -135,-190 L -135,-189 L -135,-188 L -134,-188 L -134,-187 L -135,-187 L -135,-186 L -136,-186 L -136,-187 L -137,-187 L -137,-186 L -137,-185 L -138,-185 L -138,-184 L -138,-183 L -139,-183 L -139,-182 L -140,-182 L -141,-182 L -142,-182 L -142,-181 L -142,-180 L -142,-179 L -143,-180 L -143,-179 L -144,-179 L -145,-179 L -145,-178 L -146,-178 L -146,-177 L -147,-177 L -147,-178 L -147,-177 L -147,-176 L -146,-176 L -147,-176 L -147,-175 L -147,-174 L -147,-173 L -146,-173 L -146,-172 L -146,-171 L -145,-171 L -145,-170 L -146,-170 L -145,-170 L -145,-169 L -145,-168 L -146,-167 L -146,-166 L -146,-165 L -145,-165 L -146,-165 L -146,-164 L -147,-164 L -148,-163 L -148,-162 L -149,-162 L -149,-160 L -148,-160 L -147,-157 L -146,-155 L -146,-154 L -144,-153 L -143,-149 L -142,-147 L -141,-145 L -141,-142 L -142,-140 L -143,-137 L -141,-133 L -142,-126 L -143,-124 L -144,-123 L -144,-122 L -145,-121 L -145,-120 L -146,-120 L -146,-119 L -146,-118 L -146,-117 L -146,-116 L -146,-115 L -146,-114 L -146,-113 L -145,-113 L -146,-113 L -146,-112 L -146,-111 L -145,-111 L -145,-110 L -143,-107 L -140,-104 L -139,-103 L -138,-100 L -138,-99 L -139,-98 L -139,-97 L -138,-96 L -139,-94 L -139,-92 L -140,-90 L -141,-89 L -140,-88 L -140,-86 L -140,-85 L -142,-84 L -143,-83 L -143,-81 L -141,-79 L -140,-76 L -139,-73 L -140,-69 L -145,-65 L -148,-56 L -149,-54 L -152,-52 L -158,-47 L -160,-45 L -163,-45 L -168,-34 L -169,-33 L -174,-29 L -175,-29 L -175,-28 L -175,-27 L -175,-26 L -176,-26 L -176,-25 L -176,-24 L -177,-24 L -178,-24 L -179,-23 L -179,-22 L -180,-22 L -180,-21 L -180,-20 L -180,-19 L -181,-18 L -182,-17 L -184,-17 L -191,-21 L -194,-24 L -202,-31 L -205,-33 L -207,-34 L -209,-35 L -210,-36 L -210,-37 L -210,-38 L -211,-39 L -212,-40 L -212,-41 L -211,-41 L -210,-41 L -210,-42 L -210,-43 L -209,-43 L -209,-44 L -210,-44 L -210,-45 L -210,-46 L -211,-46 L -211,-47 L -211,-48 L -212,-49 L -212,-50 L -213,-50 L -213,-51 L -214,-51 L -214,-52 L -215,-52 L -215,-53 L -215,-54 L -216,-54 L -216,-55 L -217,-55 L -217,-56 L -218,-56 L -218,-57 L -217,-57 L -218,-57 L -218,-58 L -217,-58 L -217,-59 L -216,-59 L -216,-58 L -215,-58 L -215,-59 L -215,-58 L -214,-59 L -215,-59 L -215,-60 L -216,-60 L -216,-61 L -216,-62 L -217,-62 L -217,-63 L -216,-63 L -217,-63 L -217,-64 L -216,-64 L -216,-65 L -216,-66 L -215,-66 L -215,-67 L -215,-68 L -214,-68 L -214,-69 L -214,-70 L -213,-70 L -213,-71 L -213,-72 L -213,-73 L -213,-74 L -213,-75 L -213,-76 L -212,-76 L -210,-77 L -211,-77 L -211,-78 L -210,-78 L -210,-79 L -210,-80 L -210,-81 L -211,-81 L -210,-81 L -211,-81 L -211,-82 L -211,-83 L -211,-84 L -210,-84 L -211,-84 L -210,-84 L -211,-84 L -210,-84 L -210,-85 L -211,-85 L -210,-85 L -211,-85 L -211,-86 L -211,-87 L -209,-98 L -208,-99 L -208,-100 L -208,-101 L -207,-102 L -207,-103 L -207,-104 L -207,-107 L -207,-111 L -208,-113 L -209,-113 L -209,-114 L -211,-115 L -210,-117 L -211,-117 L -210,-117 L -211,-117 L -211,-118 L -210,-118 L -211,-118 L -211,-119 L -211,-120 L -211,-121 L -211,-122 L -212,-124 L -212,-125 L -213,-125 L -213,-128 L -212,-128 L -212,-129 L -212,-131 L -212,-132 L -212,-133 L -221,-141 L -232,-148 L -232,-149 L -231,-150 L -231,-151 L -231,-152 L -230,-152 L -230,-153 L -230,-154 L -231,-154 L -231,-155 L -231,-156 L -232,-156 L -232,-157 L -233,-157 L -233,-158 L -233,-159 L -234,-159 L -233,-160 L -233,-161 L -233,-162 L -233,-163 L -233,-169 L -235,-176 L -236,-179 L -238,-182 L -240,-184 L -237,-189 L -233,-192 L -233,-193 L -233,-194 L -232,-194 L -232,-195 L -232,-196 L -231,-196 L -231,-197 L -231,-198 L -231,-199 L -230,-199 L -230,-200 L -229,-200 L -228,-200 L -228,-201 L -228,-202 L -229,-202 L -229,-203 L -221,-203 L -220,-204 L -217,-206 L -216,-206 L -216,-205 L -215,-205 L -215,-204 L -215,-203 L -215,-202 L -214,-202 L -214,-201 L -213,-201 L -213,-202 L -212,-202 L -211,-203 L -210,-203 L -209,-203 L -209,-204 L -208,-204 L -208,-205 L -208,-204 L -207,-204 L -207,-205 L -204,-205 L -203,-205 L -202,-205 L -202,-206 L -202,-207 L -202,-208 L -201,-208 L -201,-209 L -201,-208 L -200,-208 L -199,-208 L -199,-207 L -198,-207 L -197,-207 L -196,-207 L -195,-208 L -195,-207 L -194,-207 L -194,-206 L -193,-206 L -192,-206 L -191,-206 L -190,-206 L -190,-205 L -189,-205 L -188,-205 L -186,-206 L -185,-208 L -184,-207 L -183,-207 L -182,-206 L -181,-206 L -180,-205 L -179,-205 L -178,-205 L -177,-204 L -176,-204 L -175,-204 L -174,-203 L -173,-203 L -172,-203 L -171,-203 L -171,-202 L -171,-203 L -170,-203 L -169,-203 L -168,-203 L -167,-204 L -168,-204 L -168,-205 L -168,-206 L -167,-207 L -166,-207 L -166,-206 L -165,-206 L -164,-206 L -163,-206 L -162,-206 L -161,-206 L -160,-206 L -159,-206 L -158,-206 L -157,-206 L -156,-206 L -156,-207 L -155,-207 L -154,-207 L -153,-207 L -152,-207 L -151,-207 L -150,-208 L -149,-208 L -149,-209 L -148,-209 L -147,-209 L -147,-208 L -146,-208 L -146,-207 L -145,-207 L -144,-208 L -143,-208 L -143,-207 L -142,-208 L -141,-208 L -141,-209 L -141,-210 L -140,-210 L -140,-211 L -139,-211 L -139,-212 L -139,-213 L -139,-214 L -139,-215 L -138,-215 L -137,-215 L -137,-216 L -137,-217 L -136,-217 L -135,-217 L -134,-217 L -133,-217 L -133,-218 L -133,-217 L -132,-217 L -132,-218 L -131,-218 L -131,-219 L -130,-219 L -129,-219 L -129,-220 L -128,-220 L -128,-221 L -128,-222 L -127,-223 L -126,-224 L -126,-225 L -126,-226 L -125,-226 L -125,-227 L -124,-228 L -123,-228 L -123,-229 L -123,-230 L -122,-230 L -122,-231 L -124,-235 L -124,-236 L -124,-237 L -120,-246 L -114,-256 L -101,-285 L -98,-289 L -98,-290 L -96,-292 L -96,-293 L -95,-293 L -95,-294 L -94,-294 L -93,-294 L -92,-294 L -91,-294 L -91,-293 L -90,-293 L -90,-294 L -89,-294 L -88,-293 L -88,-294 L -87,-294 L -86,-294 L -85,-294 L -85,-293 L -84,-293 L -83,-293 L -82,-293 L -82,-292 L -81,-292 L -80,-292 L -79,-292 L -78,-292 L -71,-292 L -70,-292 L -69,-293 L -68,-293 L -67,-293 L -66,-293 L -65,-293 L -65,-294 L -66,-294 L -66,-295 L -66,-296 L -66,-297 L -67,-298 L -67,-299 L -67,-300 L -66,-300 L -65,-300 L -65,-299 L -65,-300 L -64,-300 L -63,-300 L -62,-300 L -63,-300 L -62,-301 L -62,-302 L -61,-302 L -62,-302 L -62,-303 L -62,-304 L -62,-305 L -61,-305 L -56,-306 L -54,-305 " /></g>
</svg>
