<?xml version="1.0" standalone="no"?><!DOCTYPE svg PUBLIC "-//W3C//DTD SVG 1.1//EN" "http://www.w3.org/Graphics/SVG/1.1/DTD/svg11.dtd"><svg xmlns="http://www.w3.org/2000/svg" viewBox="-453 -273 129 122" version = "1.1">
<g id="20201" ><path d="M -398,-269 L -397,-268 L -393,-270 L -389,-270 L -388,-267 L -387,-267 L -385,-266 L -385,-264 L -383,-261 L -373,-252 L -368,-252 L -361,-245 L -350,-244 L -335,-243 L -330,-238 L -324,-232 L -324,-230 L -325,-228 L -326,-227 L -326,-226 L -326,-225 L -326,-224 L -325,-222 L -324,-221 L -327,-216 L -327,-215 L -327,-214 L -329,-212 L -330,-211 L -330,-210 L -331,-209 L -330,-208 L -330,-207 L -329,-206 L -328,-206 L -328,-205 L -327,-205 L -328,-203 L -328,-202 L -328,-201 L -329,-200 L -328,-200 L -328,-199 L -329,-198 L -330,-198 L -331,-198 L -332,-197 L -332,-198 L -333,-197 L -334,-197 L -335,-196 L -336,-195 L -337,-195 L -338,-194 L -339,-194 L -340,-194 L -341,-194 L -344,-194 L -349,-190 L -354,-186 L -356,-184 L -360,-186 L -366,-183 L -372,-180 L -372,-179 L -373,-179 L -376,-176 L -381,-173 L -382,-172 L -383,-172 L -390,-168 L -394,-167 L -394,-166 L -394,-165 L -394,-164 L -394,-163 L -393,-163 L -393,-162 L -394,-163 L -395,-163 L -396,-163 L -396,-164 L -396,-165 L -395,-166 L -395,-167 L -396,-173 L -397,-175 L -399,-177 L -400,-181 L -402,-181 L -404,-180 L -408,-179 L -410,-179 L -413,-180 L -413,-182 L -418,-180 L -421,-179 L -424,-179 L -429,-181 L -427,-178 L -428,-177 L -429,-177 L -430,-174 L -431,-172 L -431,-171 L -432,-169 L -431,-168 L -431,-167 L -431,-165 L -431,-161 L -431,-160 L -432,-160 L -432,-159 L -433,-159 L -434,-159 L -434,-158 L -433,-158 L -433,-157 L -433,-156 L -434,-156 L -434,-155 L -434,-154 L -434,-153 L -434,-152 L -434,-151 L -435,-152 L -435,-153 L -436,-154 L -437,-155 L -438,-155 L -438,-156 L -439,-157 L -440,-157 L -440,-158 L -441,-158 L -442,-158 L -442,-159 L -443,-159 L -443,-160 L -444,-160 L -445,-160 L -445,-161 L -446,-162 L -445,-162 L -444,-162 L -444,-163 L -444,-164 L -444,-165 L -443,-165 L -444,-165 L -444,-166 L -445,-166 L -444,-166 L -444,-167 L -445,-167 L -446,-167 L -447,-167 L -447,-168 L -448,-168 L -448,-167 L -449,-167 L -449,-166 L -450,-166 L -450,-165 L -449,-165 L -450,-165 L -450,-164 L -450,-165 L -451,-165 L -451,-166 L -452,-166 L -452,-167 L -452,-168 L -452,-169 L -451,-169 L -451,-170 L -451,-171 L -450,-171 L -450,-172 L -450,-173 L -451,-173 L -450,-173 L -451,-173 L -451,-174 L -452,-174 L -452,-175 L -453,-175 L -453,-176 L -451,-178 L -452,-180 L -446,-182 L -445,-179 L -444,-178 L -443,-177 L -442,-174 L -429,-181 L -428,-182 L -428,-183 L -428,-184 L -428,-185 L -428,-186 L -427,-186 L -427,-187 L -426,-187 L -426,-188 L -426,-187 L -426,-188 L -425,-188 L -424,-188 L -423,-188 L -423,-189 L -422,-189 L -422,-190 L -422,-191 L -423,-192 L -423,-193 L -423,-194 L -423,-195 L -423,-196 L -422,-196 L -422,-197 L -422,-198 L -423,-199 L -423,-202 L -425,-205 L -427,-206 L -427,-205 L -429,-206 L -430,-206 L -432,-207 L -433,-207 L -434,-207 L -436,-209 L -436,-211 L -436,-212 L -436,-213 L -435,-214 L -434,-215 L -434,-216 L -435,-216 L -435,-217 L -435,-218 L -434,-218 L -434,-217 L -433,-217 L -432,-216 L -431,-216 L -430,-216 L -429,-216 L -429,-217 L -428,-216 L -428,-217 L -428,-216 L -427,-217 L -427,-216 L -426,-216 L -426,-215 L -425,-215 L -425,-214 L -424,-214 L -423,-214 L -422,-214 L -422,-213 L -422,-212 L -421,-212 L -421,-213 L -420,-213 L -419,-213 L -419,-212 L -419,-211 L -418,-211 L -417,-211 L -417,-212 L -416,-212 L -415,-212 L -415,-213 L -415,-214 L -414,-214 L -414,-215 L -413,-215 L -413,-214 L -413,-215 L -412,-215 L -412,-216 L -412,-215 L -411,-215 L -412,-215 L -411,-215 L -411,-216 L -410,-216 L -409,-216 L -409,-217 L -409,-216 L -409,-215 L -409,-216 L -409,-217 L -410,-217 L -410,-218 L -411,-218 L -412,-218 L -412,-219 L -412,-218 L -412,-219 L -412,-220 L -413,-220 L -414,-220 L -414,-221 L -414,-222 L -413,-222 L -413,-221 L -412,-220 L -411,-220 L -411,-221 L -411,-220 L -410,-220 L -411,-220 L -410,-220 L -409,-220 L -409,-221 L -410,-221 L -410,-220 L -410,-221 L -411,-221 L -411,-222 L -411,-223 L -410,-223 L -410,-224 L -411,-224 L -412,-224 L -412,-225 L -413,-225 L -413,-226 L -412,-226 L -413,-226 L -413,-227 L -413,-228 L -412,-228 L -412,-229 L -411,-229 L -410,-229 L -409,-229 L -408,-229 L -407,-229 L -407,-230 L -406,-230 L -405,-230 L -405,-231 L -404,-231 L -403,-231 L -402,-231 L -402,-230 L -401,-230 L -400,-230 L -401,-230 L -401,-231 L -402,-231 L -403,-231 L -404,-232 L -404,-231 L -404,-232 L -404,-231 L -405,-231 L -405,-232 L -405,-233 L -405,-234 L -405,-235 L -404,-234 L -403,-234 L -404,-235 L -405,-235 L -405,-236 L -404,-236 L -403,-236 L -403,-235 L -402,-235 L -402,-234 L -403,-234 L -402,-234 L -402,-235 L -401,-235 L -400,-235 L -401,-235 L -402,-235 L -402,-236 L -403,-236 L -403,-237 L -403,-238 L -403,-239 L -403,-240 L -404,-240 L -405,-240 L -405,-239 L -406,-239 L -407,-239 L -406,-239 L -407,-239 L -408,-239 L -409,-239 L -410,-240 L -411,-240 L -411,-241 L -411,-242 L -412,-242 L -412,-243 L -412,-244 L -413,-244 L -414,-244 L -414,-243 L -415,-243 L -415,-242 L -416,-242 L -416,-241 L -417,-241 L -417,-242 L -418,-242 L -418,-241 L -418,-240 L -418,-239 L -419,-239 L -420,-242 L -419,-245 L -419,-250 L -416,-259 L -419,-266 L -413,-271 L -409,-267 L -407,-269 L -405,-271 L -403,-272 L -401,-273 L -400,-273 L -400,-272 L -399,-272 L -399,-271 L -399,-270 L -398,-270 L -398,-269 " /></g>
</svg>
