<?xml version="1.0" standalone="no"?><!DOCTYPE svg PUBLIC "-//W3C//DTD SVG 1.1//EN" "http://www.w3.org/Graphics/SVG/1.1/DTD/svg11.dtd"><svg xmlns="http://www.w3.org/2000/svg" viewBox="-466 -217 44 43" version = "1.1">
<g id="20204" ><path d="M -451,-196 L -451,-197 L -451,-198 L -450,-198 L -450,-197 L -451,-197 L -451,-196 " /><path d="M -436,-213 L -436,-212 L -436,-211 L -436,-209 L -434,-207 L -433,-207 L -432,-207 L -430,-206 L -429,-206 L -427,-205 L -427,-206 L -425,-205 L -423,-202 L -423,-199 L -422,-198 L -422,-197 L -422,-196 L -423,-196 L -423,-195 L -423,-194 L -423,-193 L -423,-192 L -422,-191 L -422,-190 L -422,-189 L -423,-189 L -423,-188 L -424,-188 L -425,-188 L -426,-188 L -426,-187 L -426,-188 L -426,-187 L -427,-187 L -427,-186 L -428,-186 L -428,-185 L -428,-184 L -428,-183 L -428,-182 L -429,-181 L -442,-174 L -443,-177 L -444,-178 L -445,-179 L -446,-182 L -452,-180 L -451,-178 L -453,-176 L -453,-177 L -454,-177 L -454,-178 L -455,-178 L -455,-179 L -456,-179 L -456,-180 L -456,-181 L -456,-182 L -457,-182 L -457,-183 L -458,-183 L -459,-183 L -459,-184 L -460,-185 L -460,-186 L -459,-186 L -458,-186 L -458,-187 L -459,-187 L -459,-188 L -459,-189 L -458,-189 L -459,-189 L -459,-190 L -460,-190 L -460,-191 L -461,-191 L -461,-192 L -462,-193 L -462,-192 L -463,-192 L -463,-193 L -464,-193 L -464,-194 L -464,-195 L -464,-196 L -465,-196 L -465,-197 L -466,-197 L -465,-197 L -465,-196 L -464,-196 L -463,-196 L -462,-196 L -462,-195 L -461,-195 L -460,-195 L -460,-196 L -460,-197 L -459,-198 L -459,-199 L -458,-199 L -458,-198 L -457,-198 L -457,-199 L -456,-199 L -456,-200 L -455,-200 L -454,-200 L -453,-200 L -453,-201 L -452,-201 L -452,-202 L -452,-203 L -452,-204 L -451,-205 L -450,-205 L -450,-204 L -449,-204 L -450,-203 L -450,-202 L -451,-202 L -451,-201 L -451,-200 L -451,-199 L -452,-199 L -452,-198 L -453,-198 L -453,-197 L -453,-196 L -454,-196 L -453,-196 L -452,-196 L -451,-196 L -450,-196 L -449,-196 L -449,-197 L -449,-196 L -448,-196 L -448,-197 L -448,-198 L -448,-199 L -447,-199 L -446,-199 L -446,-200 L -445,-200 L -444,-200 L -443,-200 L -443,-201 L -442,-201 L -442,-202 L -441,-202 L -441,-203 L -441,-204 L -441,-205 L -441,-206 L -441,-207 L -441,-208 L -440,-209 L -440,-210 L -441,-210 L -440,-211 L -439,-211 L -439,-212 L -438,-212 L -438,-213 L -437,-213 L -437,-214 L -436,-214 L -436,-215 L -436,-216 L -436,-217 L -435,-217 L -435,-216 L -434,-216 L -434,-215 L -435,-214 L -436,-213 " /></g>
</svg>
