<?xml version="1.0" standalone="no"?><!DOCTYPE svg PUBLIC "-//W3C//DTD SVG 1.1//EN" "http://www.w3.org/Graphics/SVG/1.1/DTD/svg11.dtd"><svg xmlns="http://www.w3.org/2000/svg" viewBox="-394 -194 66 59" version = "1.1">
<g id="20203" ><path d="M -363,-146 L -363,-145 L -362,-145 L -362,-144 L -361,-144 L -361,-145 L -360,-145 L -360,-144 L -359,-144 L -359,-143 L -359,-142 L -359,-141 L -358,-141 L -358,-140 L -358,-139 L -359,-139 L -359,-138 L -360,-138 L -361,-139 L -361,-140 L -362,-141 L -362,-142 L -362,-143 L -362,-144 L -362,-145 L -363,-145 L -363,-146 L -364,-146 L -363,-146 " /><path d="M -341,-185 L -338,-184 L -336,-182 L -330,-181 L -328,-176 L -331,-177 L -333,-179 L -334,-180 L -337,-178 L -337,-175 L -338,-163 L -334,-161 L -332,-158 L -336,-152 L -338,-155 L -346,-155 L -351,-145 L -348,-142 L -347,-140 L -345,-138 L -348,-137 L -352,-135 L -353,-135 L -353,-136 L -352,-136 L -352,-137 L -353,-137 L -352,-137 L -352,-138 L -353,-138 L -353,-139 L -354,-139 L -354,-140 L -354,-141 L -355,-141 L -355,-142 L -356,-142 L -356,-143 L -355,-143 L -356,-143 L -357,-143 L -357,-144 L -358,-144 L -358,-145 L -358,-146 L -359,-146 L -359,-147 L -359,-148 L -360,-148 L -359,-148 L -359,-149 L -360,-149 L -361,-149 L -361,-150 L -362,-150 L -362,-151 L -362,-152 L -362,-153 L -362,-154 L -363,-154 L -364,-154 L -364,-153 L -364,-154 L -364,-153 L -365,-154 L -365,-153 L -366,-153 L -367,-153 L -368,-153 L -368,-154 L -369,-154 L -370,-154 L -370,-155 L -371,-155 L -371,-154 L -371,-155 L -371,-154 L -372,-154 L -372,-153 L -372,-152 L -373,-152 L -373,-151 L -374,-151 L -374,-150 L -375,-150 L -375,-149 L -376,-149 L -376,-148 L -377,-148 L -378,-148 L -379,-148 L -380,-148 L -381,-147 L -382,-147 L -382,-148 L -383,-148 L -384,-148 L -384,-149 L -383,-149 L -383,-152 L -382,-154 L -384,-155 L -385,-156 L -386,-158 L -388,-159 L -393,-162 L -393,-163 L -394,-163 L -394,-164 L -394,-165 L -394,-166 L -394,-167 L -390,-168 L -383,-172 L -382,-172 L -381,-173 L -376,-176 L -373,-179 L -372,-179 L -372,-180 L -366,-183 L -360,-186 L -356,-184 L -354,-186 L -349,-190 L -344,-194 L -342,-192 L -343,-191 L -344,-188 L -345,-186 L -341,-185 " /></g>
</svg>
