<?xml version="1.0" standalone="no"?><!DOCTYPE svg PUBLIC "-//W3C//DTD SVG 1.1//EN" "http://www.w3.org/Graphics/SVG/1.1/DTD/svg11.dtd"><svg xmlns="http://www.w3.org/2000/svg" viewBox="-432 -182 38 29" version = "1.1">
<g id="20206" ><path d="M -413,-180 L -410,-179 L -408,-179 L -404,-180 L -402,-181 L -400,-181 L -399,-177 L -397,-175 L -396,-173 L -395,-167 L -395,-166 L -396,-165 L -396,-164 L -396,-163 L -395,-163 L -394,-163 L -394,-162 L -395,-162 L -396,-161 L -397,-161 L -398,-160 L -399,-159 L -399,-158 L -400,-158 L -400,-157 L -401,-155 L -401,-154 L -402,-154 L -402,-153 L -403,-153 L -404,-153 L -405,-153 L -406,-153 L -407,-153 L -408,-153 L -409,-153 L -409,-154 L -409,-153 L -410,-153 L -410,-154 L -411,-154 L -412,-154 L -412,-155 L -413,-155 L -413,-156 L -414,-156 L -414,-157 L -415,-157 L -416,-157 L -416,-158 L -416,-157 L -416,-158 L -417,-158 L -418,-158 L -418,-159 L -419,-159 L -420,-159 L -421,-159 L -422,-159 L -422,-160 L -423,-160 L -424,-160 L -425,-160 L -426,-160 L -427,-160 L -428,-160 L -429,-160 L -430,-160 L -430,-161 L -430,-160 L -431,-160 L -431,-161 L -431,-165 L -431,-167 L -431,-168 L -432,-169 L -431,-171 L -431,-172 L -430,-174 L -429,-177 L -428,-177 L -427,-178 L -429,-181 L -424,-179 L -421,-179 L -418,-180 L -413,-182 L -413,-180 " /></g>
</svg>
