<?xml version="1.0" standalone="no"?><!DOCTYPE svg PUBLIC "-//W3C//DTD SVG 1.1//EN" "http://www.w3.org/Graphics/SVG/1.1/DTD/svg11.dtd"><svg xmlns="http://www.w3.org/2000/svg" viewBox="-492 -304 76 68" version = "1.1">
<g id="20202" ><path d="M -437,-304 L -437,-303 L -436,-303 L -434,-302 L -432,-299 L -431,-298 L -431,-296 L -431,-294 L -431,-293 L -431,-292 L -431,-291 L -431,-290 L -431,-289 L -431,-285 L -430,-281 L -428,-280 L -429,-275 L -429,-274 L -429,-273 L -429,-272 L -428,-271 L -426,-270 L -425,-267 L -423,-265 L -420,-265 L -419,-266 L -416,-259 L -419,-250 L -419,-245 L -420,-242 L -419,-239 L -419,-238 L -420,-238 L -420,-239 L -420,-240 L -421,-240 L -421,-239 L -421,-238 L -422,-238 L -422,-237 L -423,-237 L -423,-236 L -424,-236 L -424,-237 L -425,-237 L -426,-237 L -426,-238 L -426,-237 L -427,-237 L -427,-238 L -427,-237 L -427,-238 L -428,-238 L -428,-239 L -429,-239 L -429,-238 L -430,-238 L -431,-238 L -431,-239 L -432,-239 L -432,-240 L -433,-241 L -433,-242 L -434,-242 L -435,-243 L -436,-243 L -437,-243 L -438,-243 L -439,-243 L -439,-242 L -440,-242 L -440,-243 L -439,-243 L -438,-243 L -438,-244 L -439,-244 L -440,-245 L -440,-244 L -441,-244 L -441,-245 L -442,-245 L -442,-246 L -443,-246 L -444,-246 L -444,-247 L -445,-247 L -446,-247 L -446,-246 L -445,-246 L -446,-246 L -446,-245 L -447,-245 L -447,-246 L -448,-245 L -449,-244 L -450,-244 L -451,-244 L -451,-243 L -452,-243 L -452,-242 L -452,-243 L -453,-243 L -454,-243 L -454,-242 L -453,-242 L -452,-242 L -453,-242 L -454,-242 L -455,-242 L -455,-241 L -456,-241 L -457,-241 L -457,-240 L -458,-240 L -459,-240 L -459,-241 L -460,-241 L -461,-241 L -461,-242 L -462,-242 L -462,-243 L -463,-243 L -463,-244 L -464,-245 L -464,-246 L -465,-246 L -465,-247 L -465,-248 L -466,-248 L -467,-248 L -468,-248 L -468,-249 L -469,-249 L -469,-250 L -470,-250 L -471,-250 L -471,-251 L -472,-251 L -472,-252 L -473,-252 L -473,-253 L -474,-253 L -474,-254 L -475,-254 L -475,-255 L -476,-255 L -477,-255 L -478,-255 L -479,-255 L -480,-256 L -481,-256 L -482,-256 L -483,-256 L -483,-257 L -483,-258 L -482,-258 L -482,-259 L -482,-260 L -481,-260 L -480,-260 L -480,-261 L -480,-262 L -481,-263 L -483,-265 L -484,-266 L -485,-267 L -486,-270 L -487,-270 L -488,-271 L -488,-272 L -490,-273 L -491,-273 L -492,-274 L -492,-275 L -492,-276 L -491,-277 L -491,-278 L -491,-279 L -492,-279 L -492,-280 L -491,-281 L -491,-282 L -491,-283 L -490,-284 L -488,-288 L -486,-288 L -484,-289 L -482,-291 L -480,-291 L -479,-289 L -475,-289 L -474,-289 L -474,-288 L -471,-289 L -470,-288 L -466,-287 L -465,-287 L -465,-288 L -468,-297 L -466,-296 L -465,-296 L -459,-301 L -456,-301 L -455,-301 L -454,-301 L -454,-300 L -453,-300 L -452,-300 L -451,-300 L -451,-301 L -450,-301 L -449,-301 L -449,-302 L -448,-302 L -447,-303 L -446,-303 L -445,-303 L -444,-303 L -444,-302 L -443,-302 L -442,-302 L -441,-303 L -440,-303 L -439,-303 L -439,-304 L -438,-304 L -437,-304 " /></g>
</svg>
