<?xml version="1.0" standalone="no"?><!DOCTYPE svg PUBLIC "-//W3C//DTD SVG 1.1//EN" "http://www.w3.org/Graphics/SVG/1.1/DTD/svg11.dtd"><svg xmlns="http://www.w3.org/2000/svg" viewBox="-403 -163 21 15" version = "1.1">
<g id="20205" ><path d="M -386,-158 L -385,-156 L -384,-155 L -382,-154 L -383,-152 L -383,-149 L -384,-149 L -384,-148 L -385,-148 L -386,-148 L -387,-148 L -388,-149 L -389,-149 L -390,-149 L -391,-149 L -392,-149 L -392,-150 L -393,-150 L -394,-150 L -395,-150 L -395,-149 L -396,-149 L -397,-149 L -397,-150 L -398,-150 L -399,-150 L -399,-151 L -400,-151 L -400,-152 L -401,-152 L -402,-152 L -402,-153 L -403,-153 L -402,-153 L -402,-154 L -401,-154 L -401,-155 L -400,-157 L -400,-158 L -399,-158 L -399,-159 L -398,-160 L -397,-161 L -396,-161 L -395,-162 L -394,-162 L -394,-163 L -393,-162 L -388,-159 L -386,-158 " /></g>
</svg>
