<?xml version="1.0" standalone="no"?><!DOCTYPE svg PUBLIC "-//W3C//DTD SVG 1.1//EN" "http://www.w3.org/Graphics/SVG/1.1/DTD/svg11.dtd"><svg xmlns="http://www.w3.org/2000/svg" viewBox="-257 133 43 37" version = "1.1">
<g id="20306" ><path d="M -222,133 L -220,136 L -214,143 L -214,145 L -214,146 L -215,148 L -215,150 L -215,151 L -215,152 L -216,152 L -216,154 L -217,155 L -218,156 L -220,160 L -221,161 L -222,161 L -223,163 L -223,164 L -224,165 L -225,165 L -225,166 L -226,166 L -227,167 L -228,168 L -229,168 L -230,168 L -231,168 L -232,168 L -233,168 L -234,168 L -235,168 L -236,169 L -237,169 L -239,170 L -240,170 L -241,170 L -243,170 L -244,170 L -246,169 L -247,168 L -248,168 L -250,168 L -251,167 L -251,166 L -251,165 L -251,164 L -252,164 L -253,163 L -254,163 L -255,163 L -256,163 L -257,159 L -257,157 L -256,156 L -254,156 L -253,157 L -251,156 L -251,155 L -250,154 L -249,149 L -250,146 L -249,145 L -248,145 L -247,144 L -246,144 L -245,143 L -244,143 L -244,142 L -243,141 L -242,141 L -241,140 L -240,139 L -239,139 L -238,138 L -237,137 L -237,136 L -236,136 L -236,135 L -236,134 L -235,134 L -234,134 L -233,134 L -232,134 L -231,134 L -230,134 L -229,134 L -228,134 L -228,133 L -227,133 L -226,133 L -225,133 L -224,133 L -223,133 L -223,134 L -223,133 L -223,134 L -222,133 " /></g>
</svg>
