<?xml version="1.0" standalone="no"?><!DOCTYPE svg PUBLIC "-//W3C//DTD SVG 1.1//EN" "http://www.w3.org/Graphics/SVG/1.1/DTD/svg11.dtd"><svg xmlns="http://www.w3.org/2000/svg" viewBox="-352 40 76 108" version = "1.1">
<g id="20304" ><path d="M -311,52 L -312,52 L -313,52 L -313,53 L -314,53 L -315,54 L -316,55 L -317,56 L -317,57 L -317,58 L -318,58 L -317,58 L -318,58 L -318,59 L -318,60 L -317,60 L -316,60 L -315,60 L -315,61 L -314,61 L -311,63 L -309,62 L -308,61 L -306,60 L -305,60 L -302,59 L -301,59 L -300,60 L -300,61 L -299,61 L -299,62 L -299,63 L -298,63 L -298,64 L -298,65 L -297,65 L -297,66 L -296,67 L -296,68 L -295,68 L -295,69 L -294,69 L -294,70 L -293,70 L -294,71 L -295,74 L -295,76 L -291,78 L -291,80 L -290,80 L -288,81 L -288,82 L -286,83 L -286,86 L -287,88 L -286,89 L -286,90 L -287,91 L -288,91 L -287,91 L -287,92 L -286,92 L -286,93 L -287,93 L -286,93 L -287,93 L -287,94 L -286,94 L -286,95 L -286,96 L -285,96 L -285,97 L -284,97 L -284,98 L -284,99 L -285,99 L -285,100 L -285,101 L -285,102 L -284,102 L -283,102 L -282,103 L -281,105 L -281,107 L -281,108 L -279,111 L -279,112 L -278,117 L -278,121 L -278,122 L -277,124 L -278,124 L -278,125 L -277,125 L -277,126 L -277,127 L -277,128 L -277,129 L -277,130 L -276,130 L -276,131 L -276,132 L -285,135 L -286,134 L -286,133 L -287,134 L -287,135 L -287,136 L -288,137 L -289,138 L -288,139 L -288,140 L -288,142 L -289,142 L -290,143 L -291,143 L -293,143 L -296,144 L -298,144 L -300,145 L -301,146 L -303,146 L -304,147 L -305,147 L -307,148 L -308,148 L -309,147 L -311,147 L -313,148 L -315,147 L -323,145 L -322,138 L -322,137 L -321,137 L -321,136 L -320,136 L -319,136 L -319,135 L -318,135 L -317,135 L -317,134 L -316,134 L -315,134 L -315,133 L -314,133 L -313,132 L -312,132 L -312,131 L -311,130 L -311,129 L -311,128 L -310,128 L -309,127 L -309,126 L -309,125 L -310,125 L -312,125 L -313,125 L -316,125 L -318,125 L -320,124 L -322,122 L -323,120 L -322,118 L -322,114 L -323,111 L -324,111 L -326,110 L -328,109 L -330,108 L -331,108 L -333,105 L -334,106 L -336,106 L -337,106 L -338,105 L -339,105 L -339,104 L -341,104 L -342,102 L -352,96 L -352,93 L -349,87 L -342,80 L -338,81 L -336,82 L -335,81 L -334,80 L -334,79 L -335,79 L -335,78 L -336,78 L -336,77 L -336,76 L -337,76 L -337,75 L -338,75 L -338,74 L -339,74 L -339,73 L -339,72 L -340,72 L -340,71 L -341,70 L -342,69 L -343,69 L -343,68 L -344,68 L -344,67 L -345,66 L -345,65 L -346,65 L -346,64 L -339,60 L -331,58 L -329,53 L -321,43 L -317,40 L -310,44 L -308,46 L -308,47 L -307,47 L -309,49 L -310,50 L -310,51 L -311,51 L -311,52 " /></g>
</svg>
