<?xml version="1.0" standalone="no"?><!DOCTYPE svg PUBLIC "-//W3C//DTD SVG 1.1//EN" "http://www.w3.org/Graphics/SVG/1.1/DTD/svg11.dtd"><svg xmlns="http://www.w3.org/2000/svg" viewBox="-545 163 252 302" version = "1.1">
<g id="20303" ><path d="M -328,233 L -328,234 L -329,234 L -330,234 L -331,234 L -331,235 L -332,236 L -332,237 L -332,238 L -331,238 L -331,239 L -332,239 L -332,240 L -331,240 L -332,240 L -332,241 L -333,241 L -333,242 L -332,242 L -333,242 L -333,243 L -334,243 L -333,243 L -333,244 L -334,244 L -333,244 L -333,245 L -334,245 L -334,246 L -335,245 L -335,246 L -336,246 L -335,245 L -336,245 L -336,246 L -337,246 L -337,247 L -338,248 L -339,248 L -339,249 L -339,248 L -340,249 L -339,249 L -340,249 L -341,249 L -340,249 L -341,249 L -341,250 L -342,251 L -342,252 L -342,253 L -342,254 L -343,254 L -343,255 L -344,255 L -344,256 L -345,256 L -345,257 L -344,258 L -344,259 L -343,259 L -343,260 L -344,260 L -344,261 L -344,262 L -344,263 L -344,264 L -344,265 L -344,267 L -343,268 L -343,269 L -342,270 L -341,270 L -340,270 L -339,270 L -338,270 L -337,270 L -336,271 L -335,271 L -334,271 L -334,272 L -333,272 L -333,273 L -332,273 L -331,274 L -330,275 L -329,275 L -328,275 L -327,276 L -325,276 L -323,277 L -322,277 L -322,276 L -321,276 L -320,276 L -319,277 L -318,278 L -317,279 L -316,279 L -315,280 L -313,280 L -312,279 L -311,279 L -310,279 L -310,280 L -309,280 L -308,280 L -307,281 L -306,281 L -305,281 L -305,282 L -305,283 L -306,283 L -306,284 L -307,285 L -307,286 L -307,287 L -307,288 L -306,289 L -306,290 L -306,291 L -306,292 L -306,293 L -306,294 L -306,295 L -306,296 L -306,297 L -306,298 L -305,299 L -305,300 L -305,301 L -305,302 L -304,304 L -304,305 L -303,307 L -303,308 L -303,309 L -302,309 L -302,310 L -301,310 L -301,311 L -300,312 L -300,313 L -299,313 L -299,314 L -294,320 L -293,321 L -294,321 L -294,322 L -295,322 L -296,322 L -296,323 L -297,323 L -298,323 L -299,323 L -299,324 L -299,323 L -300,324 L -300,325 L -299,325 L -300,325 L -299,326 L -300,326 L -300,327 L -300,328 L -301,328 L -301,329 L -302,329 L -302,330 L -302,331 L -303,331 L -307,335 L -306,336 L -307,337 L -306,337 L -307,338 L -308,338 L -309,338 L -310,337 L -310,336 L -311,336 L -312,336 L -313,336 L -313,337 L -314,338 L -315,338 L -316,338 L -316,339 L -317,340 L -318,342 L -318,344 L -319,344 L -319,345 L -320,345 L -320,344 L -321,343 L -322,343 L -324,344 L -325,345 L -326,345 L -327,345 L -327,346 L -328,346 L -328,347 L -328,348 L -327,348 L -328,349 L -329,350 L -330,351 L -331,350 L -332,350 L -333,351 L -333,350 L -335,349 L -336,349 L -337,349 L -338,349 L -339,349 L -340,350 L -340,351 L -341,352 L -341,353 L -342,354 L -341,355 L -341,357 L -341,359 L -341,362 L -343,368 L -343,372 L -343,373 L -342,377 L -343,378 L -343,379 L -343,381 L -342,381 L -341,382 L -340,385 L -341,386 L -342,386 L -343,386 L -344,387 L -345,387 L -346,387 L -346,388 L -347,388 L -348,388 L -348,389 L -349,389 L -349,388 L -350,388 L -351,387 L -352,387 L -353,388 L -354,388 L -355,388 L -356,388 L -356,389 L -357,389 L -358,389 L -358,390 L -359,390 L -360,391 L -361,391 L -361,392 L -362,392 L -362,393 L -363,393 L -364,393 L -364,394 L -365,394 L -366,394 L -367,394 L -367,395 L -368,395 L -368,396 L -369,396 L -369,397 L -369,398 L -370,399 L -371,399 L -373,400 L -373,401 L -374,401 L -374,402 L -375,403 L -376,403 L -377,403 L -377,404 L -378,404 L -378,405 L -379,405 L -380,405 L -381,405 L -382,405 L -383,405 L -383,406 L -384,407 L -384,408 L -385,408 L -386,408 L -386,409 L -387,408 L -388,408 L -389,408 L -390,408 L -391,408 L -391,409 L -392,409 L -393,409 L -393,410 L -393,411 L -394,411 L -394,412 L -395,412 L -396,412 L -397,412 L -398,412 L -398,411 L -399,411 L -400,412 L -401,412 L -402,412 L -403,412 L -403,411 L -404,411 L -405,410 L -405,411 L -406,411 L -406,410 L -407,411 L -409,411 L -409,412 L -409,413 L -410,413 L -411,413 L -411,414 L -412,414 L -413,415 L -414,415 L -414,416 L -415,417 L -415,418 L -415,419 L -415,420 L -416,421 L -417,421 L -417,422 L -418,422 L -419,422 L -419,423 L -420,423 L -421,423 L -421,424 L -422,424 L -423,425 L -424,426 L -426,426 L -427,425 L -428,425 L -429,425 L -430,425 L -431,425 L -432,426 L -433,426 L -434,426 L -435,426 L -436,426 L -437,427 L -438,427 L -439,427 L -440,428 L -441,428 L -441,429 L -441,430 L -442,430 L -443,430 L -444,429 L -445,429 L -446,429 L -452,430 L -466,432 L -473,438 L -484,443 L -492,447 L -493,447 L -498,448 L -501,452 L -504,453 L -507,455 L -511,459 L -515,461 L -520,462 L -523,465 L -525,463 L -533,462 L -531,456 L -533,453 L -534,451 L -534,450 L -534,448 L -534,447 L -534,446 L -534,445 L -534,443 L -535,442 L -536,441 L -536,439 L -535,439 L -535,438 L -535,437 L -535,436 L -535,435 L -535,434 L -535,433 L -534,432 L -534,431 L -533,430 L -532,429 L -530,427 L -527,424 L -522,421 L -516,417 L -514,415 L -513,415 L -512,415 L -511,415 L -511,416 L -510,416 L -509,416 L -508,415 L -507,415 L -506,415 L -505,415 L -504,416 L -500,415 L -497,415 L -495,414 L -492,411 L -492,410 L -492,408 L -490,405 L -487,403 L -486,399 L -485,396 L -484,394 L -484,390 L -482,384 L -483,383 L -483,380 L -483,379 L -482,377 L -482,376 L -482,375 L -481,374 L -481,373 L -480,373 L -479,372 L -478,371 L -477,370 L -477,369 L -476,369 L -475,368 L -475,367 L -474,367 L -474,366 L -473,366 L -472,366 L -472,365 L -471,365 L -470,364 L -469,364 L -469,363 L -468,363 L -467,362 L -466,362 L -465,362 L -464,362 L -464,361 L -463,361 L -462,361 L -461,361 L -460,361 L -459,361 L -458,361 L -457,360 L -457,361 L -455,360 L -454,360 L -452,360 L -450,359 L -443,358 L -439,357 L -429,354 L -426,352 L -422,349 L -419,346 L -419,344 L -420,343 L -420,338 L -423,332 L -425,330 L -425,329 L -426,327 L -425,325 L -425,324 L -425,322 L -426,322 L -426,321 L -426,320 L -426,319 L -426,318 L -426,317 L -426,315 L -427,314 L -427,312 L -428,309 L -427,307 L -428,307 L -428,304 L -428,302 L -427,302 L -427,301 L -426,299 L -427,299 L -428,299 L -429,299 L -429,298 L -430,298 L -431,298 L -432,297 L -434,298 L -435,298 L -436,297 L -437,297 L -438,297 L -440,298 L -442,299 L -443,298 L -444,297 L -446,297 L -446,296 L -447,297 L -448,298 L -450,299 L -451,300 L -451,301 L -452,302 L -453,303 L -453,304 L -453,305 L -454,305 L -454,306 L -455,306 L -456,307 L -457,308 L -457,309 L -458,311 L -459,313 L -460,316 L -461,317 L -462,317 L -462,318 L -463,319 L -464,319 L -466,321 L -468,323 L -470,326 L -472,329 L -474,330 L -476,330 L -501,306 L -502,303 L -503,302 L -504,302 L -504,301 L -504,300 L -504,299 L -503,299 L -503,298 L -503,297 L -503,296 L -502,296 L -502,295 L -503,295 L -502,295 L -502,294 L -503,294 L -502,294 L -502,293 L -501,292 L -501,291 L -500,291 L -500,290 L -500,289 L -500,288 L -499,288 L -500,288 L -500,287 L -500,286 L -500,285 L -500,284 L -499,284 L -499,283 L -498,282 L -498,281 L -498,280 L -499,279 L -500,278 L -500,277 L -499,275 L -500,273 L -500,272 L -502,271 L -502,270 L -503,270 L -504,269 L -505,268 L -507,266 L -508,266 L -509,266 L -510,267 L -511,268 L -513,269 L -514,269 L -515,268 L -516,266 L -519,265 L -524,266 L -529,264 L -531,263 L -533,262 L -537,262 L -540,262 L -541,262 L -543,263 L -545,261 L -544,260 L -543,260 L -543,259 L -541,258 L -540,257 L -540,255 L -541,255 L -541,254 L -542,253 L -541,253 L -541,252 L -541,251 L -541,250 L -540,250 L -540,249 L -538,249 L -537,249 L -536,249 L -536,248 L -536,247 L -536,246 L -537,245 L -537,244 L -537,242 L -536,241 L -536,240 L -536,239 L -537,238 L -538,237 L -538,236 L -538,235 L -539,234 L -538,234 L -537,233 L -537,231 L -536,231 L -535,230 L -535,229 L -536,228 L -536,226 L -538,224 L -538,223 L -538,222 L -538,221 L -538,220 L -539,220 L -539,219 L -538,219 L -537,218 L -537,217 L -536,217 L -536,216 L -536,217 L -535,217 L -534,217 L -533,217 L -532,217 L -531,217 L -530,216 L -529,216 L -529,217 L -528,217 L -527,217 L -527,216 L -526,216 L -525,216 L -524,216 L -523,216 L -522,216 L -522,215 L -521,215 L -520,215 L -519,214 L -518,214 L -518,215 L -517,215 L -516,215 L -515,215 L -514,215 L -513,215 L -513,214 L -512,214 L -512,213 L -511,213 L -511,212 L -510,212 L -509,212 L -509,211 L -508,211 L -507,211 L -507,210 L -506,210 L -505,210 L -504,210 L -503,210 L -502,210 L -501,209 L -500,209 L -500,210 L -500,211 L -500,212 L -499,212 L -499,213 L -499,214 L -499,215 L -498,215 L -497,215 L -496,215 L -495,215 L -493,215 L -492,215 L -491,215 L -490,215 L -489,214 L -487,214 L -486,214 L -484,213 L -484,212 L -483,212 L -482,212 L -481,212 L -480,212 L -479,212 L -478,212 L -477,211 L -476,212 L -476,211 L -475,211 L -474,211 L -473,211 L -473,210 L -472,210 L -471,210 L -469,209 L -468,209 L -467,209 L -467,208 L -466,208 L -466,207 L -465,206 L -464,206 L -464,205 L -463,204 L -463,203 L -463,202 L -463,201 L -462,201 L -460,201 L -454,201 L -453,201 L -451,201 L -449,201 L -448,200 L -446,201 L -445,201 L -444,202 L -442,204 L -441,205 L -440,205 L -439,205 L -439,204 L -439,203 L -439,202 L -439,201 L -440,200 L -441,200 L -442,199 L -445,195 L -445,192 L -447,188 L -447,187 L -448,185 L -449,184 L -449,183 L -449,182 L -450,181 L -451,180 L -452,178 L -452,177 L -451,178 L -451,177 L -450,177 L -449,177 L -448,177 L -448,176 L -447,176 L -447,175 L -446,175 L -446,174 L -445,174 L -444,173 L -443,173 L -442,172 L -441,172 L -440,172 L -439,172 L -439,171 L -439,170 L -439,169 L -440,169 L -440,168 L -441,168 L -442,167 L -441,167 L -442,166 L -441,166 L -441,165 L -441,164 L -441,163 L -440,163 L -439,163 L -438,163 L -437,163 L -436,163 L -435,164 L -435,165 L -434,165 L -433,165 L -432,165 L -431,166 L -425,168 L -424,168 L -421,168 L -420,168 L -419,169 L -418,169 L -417,170 L -416,170 L -415,170 L -414,170 L -414,171 L -413,171 L -413,172 L -413,173 L -413,174 L -412,175 L -412,176 L -411,176 L -410,177 L -410,178 L -409,179 L -408,179 L -407,179 L -406,179 L -405,179 L -404,179 L -403,179 L -402,179 L -401,179 L -400,179 L -400,180 L -399,180 L -398,180 L -397,180 L -396,180 L -395,180 L -394,180 L -393,181 L -392,181 L -392,182 L -391,182 L -390,182 L -389,182 L -388,182 L -388,183 L -388,184 L -388,185 L -388,186 L -389,186 L -389,187 L -388,187 L -387,187 L -386,186 L -386,185 L -386,184 L -386,183 L -385,182 L -384,182 L -383,182 L -383,183 L -384,184 L -384,185 L -383,186 L -382,187 L -381,187 L -380,187 L -380,188 L -381,189 L -381,190 L -380,190 L -380,191 L -379,191 L -378,190 L -377,190 L -376,190 L -375,191 L -374,192 L -373,192 L -372,192 L -371,192 L -371,193 L -371,194 L -370,194 L -369,194 L -368,194 L -367,194 L -367,195 L -366,195 L -365,195 L -365,196 L -365,197 L -364,197 L -364,198 L -363,198 L -363,199 L -363,200 L -364,200 L -365,201 L -365,202 L -365,203 L -365,204 L -364,204 L -364,205 L -363,206 L -362,206 L -361,206 L -360,206 L -359,206 L -358,206 L -357,206 L -356,206 L -355,206 L -355,207 L -356,208 L -355,209 L -355,210 L -355,211 L -355,212 L -355,213 L -354,213 L -353,213 L -353,214 L -352,214 L -351,214 L -350,214 L -349,214 L -348,214 L -348,215 L -347,215 L -346,215 L -345,215 L -344,215 L -343,215 L -342,215 L -341,215 L -340,215 L -339,215 L -339,216 L -338,216 L -337,216 L -336,216 L -336,217 L -335,217 L -334,217 L -334,218 L -334,219 L -334,220 L -332,220 L -331,221 L -330,221 L -330,222 L -330,223 L -331,224 L -331,225 L -331,226 L -330,227 L -331,227 L -331,228 L -331,229 L -331,230 L -331,231 L -330,232 L -328,233 " /></g>
</svg>
