<?xml version="1.0" standalone="no"?><!DOCTYPE svg PUBLIC "-//W3C//DTD SVG 1.1//EN" "http://www.w3.org/Graphics/SVG/1.1/DTD/svg11.dtd"><svg xmlns="http://www.w3.org/2000/svg" viewBox="-411 120 221 113" version = "1.1">
<g id="20301" ><path d="M -318,125 L -316,125 L -313,125 L -312,125 L -310,125 L -309,125 L -309,126 L -309,127 L -310,128 L -311,128 L -311,129 L -311,130 L -312,131 L -312,132 L -313,132 L -314,133 L -315,133 L -315,134 L -316,134 L -317,134 L -317,135 L -318,135 L -319,135 L -319,136 L -320,136 L -321,136 L -321,137 L -322,137 L -322,138 L -323,145 L -315,147 L -313,148 L -311,147 L -309,147 L -308,148 L -307,148 L -305,147 L -304,147 L -303,146 L -301,146 L -300,145 L -298,144 L -296,144 L -293,143 L -291,143 L -290,143 L -289,142 L -288,142 L -288,140 L -288,139 L -289,138 L -288,137 L -287,136 L -287,135 L -287,134 L -286,133 L -286,134 L -285,135 L -276,132 L -274,136 L -269,139 L -268,140 L -268,141 L -268,142 L -266,144 L -265,144 L -263,149 L -261,151 L -250,146 L -249,149 L -250,154 L -251,155 L -251,156 L -253,157 L -254,156 L -256,156 L -257,157 L -257,159 L -256,163 L -255,163 L -254,163 L -253,163 L -252,164 L -251,164 L -251,165 L -251,166 L -251,167 L -250,168 L -248,168 L -247,168 L -246,169 L -244,170 L -243,170 L -241,170 L -240,170 L -239,170 L -237,169 L -236,169 L -235,168 L -234,168 L -233,168 L -232,168 L -231,168 L -230,168 L -229,168 L -228,168 L -227,167 L -226,166 L -225,166 L -225,165 L -224,165 L -223,164 L -223,163 L -222,161 L -221,161 L -220,160 L -218,156 L -217,155 L -216,154 L -216,152 L -209,154 L -207,154 L -203,155 L -202,155 L -201,155 L -201,156 L -200,157 L -200,162 L -199,172 L -199,173 L -199,174 L -199,176 L -199,178 L -198,183 L -197,184 L -196,188 L -190,187 L -190,188 L -190,189 L -190,193 L -191,193 L -192,197 L -192,198 L -193,200 L -194,200 L -194,204 L -194,205 L -195,205 L -196,206 L -197,206 L -198,206 L -199,206 L -200,207 L -202,207 L -204,206 L -206,206 L -207,206 L -209,206 L -212,206 L -214,206 L -215,205 L -216,205 L -219,204 L -220,204 L -222,203 L -224,202 L -226,201 L -229,199 L -233,197 L -237,195 L -238,193 L -240,193 L -240,190 L -241,188 L -241,187 L -242,186 L -242,184 L -242,183 L -242,181 L -244,181 L -245,181 L -246,182 L -247,183 L -247,184 L -247,185 L -248,185 L -248,186 L -249,187 L -250,187 L -250,188 L -251,188 L -252,189 L -253,189 L -253,190 L -254,190 L -255,191 L -256,192 L -256,193 L -256,194 L -257,194 L -257,195 L -257,196 L -258,198 L -258,199 L -258,200 L -258,199 L -259,199 L -259,198 L -260,197 L -261,197 L -261,196 L -261,195 L -260,192 L -259,192 L -259,191 L -259,190 L -260,190 L -261,189 L -261,188 L -263,187 L -265,186 L -266,187 L -267,187 L -269,186 L -270,186 L -270,187 L -271,186 L -272,186 L -272,185 L -273,184 L -273,183 L -274,184 L -275,183 L -276,183 L -276,184 L -277,184 L -278,184 L -279,184 L -280,184 L -281,183 L -282,183 L -283,184 L -284,184 L -284,185 L -284,184 L -285,184 L -286,184 L -287,184 L -288,184 L -288,185 L -289,185 L -289,184 L -290,184 L -291,184 L -292,184 L -292,185 L -293,185 L -294,186 L -294,185 L -294,186 L -295,186 L -296,187 L -297,187 L -297,188 L -298,188 L -299,188 L -299,189 L -300,189 L -300,190 L -301,190 L -302,190 L -303,190 L -304,190 L -304,191 L -305,191 L -305,192 L -305,194 L -305,196 L -307,199 L -308,200 L -308,201 L -308,202 L -309,202 L -309,203 L -309,204 L -310,204 L -310,203 L -311,203 L -312,203 L -312,204 L -313,204 L -313,205 L -314,205 L -314,206 L -315,206 L -316,207 L -317,207 L -318,208 L -317,208 L -318,208 L -319,208 L -319,209 L -318,209 L -318,210 L -318,211 L -317,211 L -317,212 L -318,212 L -318,213 L -319,213 L -320,213 L -320,214 L -320,215 L -321,215 L -321,216 L -323,217 L -324,217 L -325,217 L -326,217 L -327,217 L -327,219 L -327,220 L -327,222 L -327,223 L -327,224 L -326,225 L -326,226 L -327,227 L -327,228 L -327,230 L -327,231 L -327,232 L -328,233 L -330,232 L -331,231 L -331,230 L -331,229 L -331,228 L -331,227 L -330,227 L -331,226 L -331,225 L -331,224 L -330,223 L -330,222 L -330,221 L -331,221 L -332,220 L -334,220 L -334,219 L -334,218 L -334,217 L -335,217 L -336,217 L -336,216 L -337,216 L -338,216 L -339,216 L -339,215 L -340,215 L -341,215 L -342,215 L -343,215 L -344,215 L -345,215 L -346,215 L -347,215 L -348,215 L -348,214 L -349,214 L -350,214 L -351,214 L -352,214 L -353,214 L -353,213 L -354,213 L -355,213 L -355,212 L -355,211 L -355,210 L -355,209 L -356,208 L -355,207 L -355,206 L -356,206 L -357,206 L -358,206 L -359,206 L -360,206 L -361,206 L -362,206 L -363,206 L -364,205 L -364,204 L -365,204 L -365,203 L -365,202 L -365,201 L -364,200 L -363,200 L -363,199 L -363,198 L -364,198 L -364,197 L -365,197 L -365,196 L -365,195 L -366,195 L -367,195 L -367,194 L -368,194 L -369,194 L -370,194 L -371,194 L -371,193 L -371,192 L -372,192 L -373,192 L -374,192 L -375,191 L -376,190 L -377,190 L -378,190 L -379,191 L -380,191 L -380,190 L -381,190 L -381,189 L -380,188 L -380,187 L -381,187 L -382,187 L -383,186 L -384,185 L -384,184 L -383,183 L -383,182 L -384,182 L -385,182 L -386,183 L -386,184 L -386,185 L -386,186 L -387,187 L -388,187 L -389,187 L -389,186 L -388,186 L -388,185 L -388,184 L -388,183 L -388,182 L -389,182 L -390,182 L -391,182 L -392,182 L -392,181 L -393,181 L -394,180 L -395,180 L -396,180 L -397,180 L -398,180 L -399,180 L -400,180 L -400,179 L -401,179 L -402,179 L -403,179 L -404,179 L -405,179 L -406,179 L -407,179 L -408,179 L -409,179 L -410,178 L -410,177 L -411,176 L -411,175 L -410,175 L -409,175 L -408,175 L -408,174 L -407,174 L -406,174 L -406,173 L -406,172 L -405,172 L -405,171 L -405,170 L -404,170 L -404,169 L -403,169 L -403,168 L -402,168 L -402,167 L -401,167 L -401,166 L -400,166 L -400,165 L -399,165 L -399,164 L -398,164 L -398,163 L -397,163 L -396,163 L -395,163 L -394,163 L -394,162 L -393,162 L -393,161 L -392,161 L -391,161 L -390,161 L -389,161 L -389,162 L -388,162 L -388,161 L -387,161 L -387,160 L -386,160 L -385,160 L -385,159 L -384,159 L -384,158 L -383,158 L -383,157 L -383,156 L -384,156 L -384,155 L -383,154 L -383,153 L -382,152 L -381,150 L -381,149 L -381,148 L -382,145 L -382,144 L -381,143 L -380,142 L -378,142 L -372,143 L -371,144 L -361,143 L -360,143 L -359,143 L -358,144 L -357,144 L -356,144 L -356,143 L -356,142 L -357,142 L -357,141 L -358,140 L -358,139 L -359,139 L -360,139 L -360,138 L -360,137 L -360,136 L -361,135 L -362,136 L -363,136 L -363,135 L -364,134 L -364,133 L -362,131 L -359,130 L -356,129 L -352,128 L -351,128 L -349,129 L -347,128 L -345,128 L -344,128 L -343,128 L -342,128 L -341,129 L -339,128 L -338,129 L -338,130 L -337,130 L -336,130 L -336,129 L -335,129 L -335,128 L -334,128 L -333,127 L -332,127 L -332,126 L -332,125 L -329,123 L -324,120 L -323,120 L -322,122 L -320,124 L -318,125 " /></g>
</svg>
