<?xml version="1.0" standalone="no"?><!DOCTYPE svg PUBLIC "-//W3C//DTD SVG 1.1//EN" "http://www.w3.org/Graphics/SVG/1.1/DTD/svg11.dtd"><svg xmlns="http://www.w3.org/2000/svg" viewBox="-560 49 238 168" version = "1.1">
<g id="20302" ><path d="M -370,51 L -371,52 L -372,54 L -373,55 L -374,59 L -375,59 L -375,61 L -375,62 L -375,63 L -376,63 L -377,63 L -378,63 L -376,66 L -377,70 L -375,75 L -372,81 L -367,74 L -362,73 L -359,70 L -353,67 L -348,64 L -346,64 L -346,65 L -345,65 L -345,66 L -344,67 L -344,68 L -343,68 L -343,69 L -342,69 L -341,70 L -340,71 L -340,72 L -339,72 L -339,73 L -339,74 L -338,74 L -338,75 L -337,75 L -337,76 L -336,76 L -336,77 L -336,78 L -335,78 L -335,79 L -334,79 L -334,80 L -335,81 L -336,82 L -338,81 L -342,80 L -349,87 L -352,93 L -352,96 L -342,102 L -341,104 L -339,104 L -339,105 L -338,105 L -337,106 L -336,106 L -334,106 L -333,105 L -331,108 L -330,108 L -328,109 L -326,110 L -324,111 L -323,111 L -322,114 L -322,118 L -323,120 L -324,120 L -329,123 L -332,125 L -332,126 L -332,127 L -333,127 L -334,128 L -335,128 L -335,129 L -336,129 L -336,130 L -337,130 L -338,130 L -338,129 L -339,128 L -341,129 L -342,128 L -343,128 L -344,128 L -345,128 L -347,128 L -349,129 L -351,128 L -352,128 L -356,129 L -359,130 L -362,131 L -364,133 L -364,134 L -363,135 L -363,136 L -362,136 L -361,135 L -360,136 L -360,137 L -360,138 L -360,139 L -359,139 L -358,139 L -358,140 L -357,141 L -357,142 L -356,142 L -356,143 L -356,144 L -357,144 L -358,144 L -359,143 L -360,143 L -361,143 L -371,144 L -372,143 L -378,142 L -380,142 L -381,143 L -382,144 L -382,145 L -381,148 L -381,149 L -381,150 L -382,152 L -383,153 L -383,154 L -384,155 L -384,156 L -383,156 L -383,157 L -383,158 L -384,158 L -384,159 L -385,159 L -385,160 L -386,160 L -387,160 L -387,161 L -388,161 L -388,162 L -389,162 L -389,161 L -390,161 L -391,161 L -392,161 L -393,161 L -393,162 L -394,162 L -394,163 L -395,163 L -396,163 L -397,163 L -398,163 L -398,164 L -399,164 L -399,165 L -400,165 L -400,166 L -401,166 L -401,167 L -402,167 L -402,168 L -403,168 L -403,169 L -404,169 L -404,170 L -405,170 L -405,171 L -405,172 L -406,172 L -406,173 L -406,174 L -407,174 L -408,174 L -408,175 L -409,175 L -410,175 L -411,175 L -411,176 L -412,176 L -412,175 L -413,174 L -413,173 L -413,172 L -413,171 L -414,171 L -414,170 L -415,170 L -416,170 L -417,170 L -418,169 L -419,169 L -420,168 L -421,168 L -424,168 L -425,168 L -431,166 L -432,165 L -433,165 L -434,165 L -435,165 L -435,164 L -436,163 L -437,163 L -438,163 L -439,163 L -440,163 L -441,163 L -441,164 L -441,165 L -441,166 L -442,166 L -441,167 L -442,167 L -441,168 L -440,168 L -440,169 L -439,169 L -439,170 L -439,171 L -439,172 L -440,172 L -441,172 L -442,172 L -443,173 L -444,173 L -445,174 L -446,174 L -446,175 L -447,175 L -447,176 L -448,176 L -448,177 L -449,177 L -450,177 L -451,177 L -451,178 L -452,177 L -452,178 L -451,180 L -450,181 L -449,182 L -449,183 L -449,184 L -448,185 L -447,187 L -447,188 L -445,192 L -445,195 L -442,199 L -441,200 L -440,200 L -439,201 L -439,202 L -439,203 L -439,204 L -439,205 L -440,205 L -441,205 L -442,204 L -444,202 L -445,201 L -446,201 L -448,200 L -449,201 L -451,201 L -453,201 L -454,201 L -460,201 L -462,201 L -463,201 L -463,202 L -463,203 L -463,204 L -464,205 L -464,206 L -465,206 L -466,207 L -466,208 L -467,208 L -467,209 L -468,209 L -469,209 L -471,210 L -472,210 L -473,210 L -473,211 L -474,211 L -475,211 L -476,211 L -476,212 L -477,211 L -478,212 L -479,212 L -480,212 L -481,212 L -482,212 L -483,212 L -484,212 L -484,213 L -486,214 L -487,214 L -489,214 L -490,215 L -491,215 L -492,215 L -493,215 L -495,215 L -496,215 L -497,215 L -498,215 L -499,215 L -499,214 L -499,213 L -499,212 L -500,212 L -500,211 L -500,210 L -500,209 L -501,209 L -502,210 L -503,210 L -504,210 L -505,210 L -506,210 L -507,210 L -507,211 L -508,211 L -509,211 L -509,212 L -510,212 L -511,212 L -511,213 L -512,213 L -512,214 L -513,214 L -513,215 L -514,215 L -515,215 L -516,215 L -517,215 L -518,215 L -518,214 L -519,214 L -520,215 L -521,215 L -522,215 L -522,216 L -523,216 L -524,216 L -525,216 L -526,216 L -527,216 L -527,217 L -528,217 L -529,217 L -529,216 L -530,216 L -531,217 L -532,217 L -533,217 L -534,217 L -535,217 L -536,217 L -536,216 L -536,217 L -537,217 L -542,217 L -547,216 L -551,216 L -553,215 L -556,215 L -555,215 L -555,214 L -555,213 L -555,212 L -556,212 L -556,211 L -555,211 L -556,210 L -556,209 L -556,208 L -556,207 L -556,206 L -555,206 L -554,206 L -554,205 L -553,205 L -554,204 L -554,202 L -556,199 L -557,198 L -558,197 L -560,196 L -560,195 L -560,194 L -559,193 L -558,193 L -557,193 L -553,192 L -549,191 L -547,191 L -545,191 L -545,190 L -544,188 L -545,187 L -546,186 L -546,184 L -546,183 L -545,182 L -543,180 L -542,180 L -541,180 L -541,179 L -540,179 L -540,178 L -539,178 L -539,177 L -539,176 L -538,176 L -537,176 L -537,175 L -536,175 L -535,175 L -534,174 L -533,174 L -533,173 L -532,173 L -532,172 L -531,172 L -531,171 L -530,171 L -530,170 L -530,169 L -530,168 L -529,168 L -529,167 L -528,167 L -527,167 L -526,167 L -525,167 L -525,166 L -524,166 L -523,165 L -523,164 L -521,163 L -520,164 L -518,164 L -517,165 L -515,166 L -512,168 L -511,168 L -510,167 L -509,167 L -508,166 L -507,165 L -507,166 L -506,166 L -506,165 L -505,165 L -504,164 L -503,164 L -503,163 L -502,163 L -502,162 L -502,161 L -502,160 L -502,159 L -501,159 L -501,158 L -501,157 L -502,157 L -502,156 L -502,155 L -502,151 L -502,149 L -503,148 L -504,148 L -506,147 L -508,146 L -509,145 L -510,144 L -511,144 L -511,143 L -512,143 L -513,142 L -514,141 L -515,140 L -503,136 L -502,136 L -502,137 L -502,138 L -502,139 L -501,139 L -501,140 L -500,140 L -500,141 L -500,142 L -499,142 L -499,141 L -498,141 L -498,142 L -498,141 L -497,141 L -497,142 L -497,143 L -496,143 L -496,144 L -495,144 L -495,145 L -495,146 L -494,146 L -493,146 L -493,147 L -492,147 L -491,147 L -491,148 L -491,147 L -490,147 L -490,148 L -489,147 L -488,147 L -488,148 L -487,148 L -486,147 L -486,148 L -485,148 L -484,148 L -484,147 L -483,145 L -482,141 L -482,140 L -481,139 L -481,138 L -481,137 L -480,137 L -479,137 L -480,137 L -479,137 L -479,136 L -478,136 L -478,135 L -477,135 L -476,135 L -475,135 L -475,136 L -474,136 L -473,136 L -464,130 L -446,130 L -447,130 L -447,129 L -447,128 L -447,127 L -448,127 L -449,126 L -448,126 L -448,125 L -448,124 L -448,123 L -447,123 L -446,123 L -446,122 L -446,121 L -447,121 L -447,120 L -448,120 L -448,119 L -449,119 L -448,118 L -448,117 L -448,116 L -447,115 L -447,114 L -446,114 L -446,113 L -446,112 L -445,112 L -445,111 L -444,111 L -443,111 L -443,110 L -442,110 L -442,111 L -441,111 L -440,111 L -439,110 L -438,110 L -437,109 L -437,108 L -436,108 L -435,108 L -434,108 L -433,108 L -432,108 L -431,108 L -430,108 L -429,108 L -429,107 L -428,107 L -427,107 L -427,106 L -426,106 L -426,105 L -425,104 L -425,103 L -425,102 L -426,102 L -426,101 L -426,100 L -426,99 L -425,99 L -425,98 L -424,98 L -423,98 L -422,98 L -422,97 L -421,97 L -421,98 L -420,99 L -419,99 L -418,99 L -418,100 L -417,100 L -417,99 L -417,98 L -418,98 L -419,98 L -419,97 L -419,96 L -419,95 L -418,94 L -418,93 L -418,92 L -418,93 L -417,93 L -417,94 L -416,94 L -415,94 L -414,94 L -413,94 L -412,94 L -412,95 L -412,94 L -411,94 L -411,95 L -410,95 L -410,96 L -409,96 L -408,96 L -407,96 L -406,95 L -405,95 L -404,95 L -403,95 L -403,94 L -404,93 L -405,92 L -405,91 L -406,91 L -406,90 L -407,90 L -407,89 L -408,89 L -408,88 L -408,87 L -409,87 L -409,86 L -410,86 L -410,85 L -411,85 L -411,84 L -412,84 L -412,83 L -412,84 L -412,83 L -413,83 L -414,83 L -415,83 L -410,71 L -410,56 L -410,55 L -410,56 L -409,56 L -409,57 L -409,56 L -408,56 L -407,56 L -407,55 L -406,55 L -406,56 L -405,56 L -405,55 L -404,55 L -404,54 L -403,54 L -402,54 L -401,54 L -400,54 L -400,55 L -399,55 L -399,54 L -398,54 L -397,54 L -397,53 L -396,53 L -395,53 L -395,52 L -395,51 L -394,51 L -394,52 L -394,51 L -393,51 L -392,52 L -392,51 L -391,51 L -390,52 L -389,52 L -388,51 L -388,52 L -387,51 L -387,52 L -386,52 L -386,53 L -387,53 L -387,54 L -386,54 L -386,53 L -385,54 L -385,53 L -384,53 L -384,54 L -383,53 L -382,54 L -382,53 L -381,53 L -380,53 L -380,52 L -379,52 L -378,52 L -377,52 L -376,52 L -375,52 L -374,52 L -374,51 L -373,51 L -373,52 L -373,51 L -372,51 L -372,52 L -371,52 L -371,51 L -370,51 L -370,50 L -370,49 L -369,49 L -370,51 " /></g>
</svg>
