<?xml version="1.0" standalone="no"?><!DOCTYPE svg PUBLIC "-//W3C//DTD SVG 1.1//EN" "http://www.w3.org/Graphics/SVG/1.1/DTD/svg11.dtd"><svg xmlns="http://www.w3.org/2000/svg" viewBox="-425 82 22 14" version = "1.1">
<g id="20307" ><path d="M -419,82 L -418,83 L -417,83 L -416,83 L -415,83 L -414,83 L -413,83 L -412,83 L -412,84 L -412,83 L -412,84 L -411,84 L -411,85 L -410,85 L -410,86 L -409,86 L -409,87 L -408,87 L -408,88 L -408,89 L -407,89 L -407,90 L -406,90 L -406,91 L -405,91 L -405,92 L -404,93 L -403,94 L -403,95 L -404,95 L -405,95 L -406,95 L -407,96 L -408,96 L -409,96 L -410,96 L -410,95 L -411,95 L -411,94 L -412,94 L -412,95 L -412,94 L -413,94 L -414,94 L -415,94 L -416,94 L -417,94 L -417,93 L -418,93 L -418,92 L -418,91 L -419,91 L -420,91 L -421,91 L -422,91 L -423,91 L -423,90 L -424,90 L -424,89 L -424,88 L -425,88 L -425,87 L -425,86 L -425,85 L -424,85 L -424,84 L -423,84 L -422,84 L -422,83 L -421,83 L -421,82 L -420,82 L -419,82 " /></g>
</svg>
