<?xml version="1.0" standalone="no"?><!DOCTYPE svg PUBLIC "-//W3C//DTD SVG 1.1//EN" "http://www.w3.org/Graphics/SVG/1.1/DTD/svg11.dtd"><svg xmlns="http://www.w3.org/2000/svg" viewBox="-345 181 129 140" version = "1.1">
<g id="20308" ><path d="M -216,252 L -220,255 L -221,255 L -222,255 L -222,256 L -223,256 L -222,256 L -222,257 L -223,257 L -222,257 L -222,258 L -223,258 L -223,259 L -224,259 L -224,260 L -224,261 L -225,261 L -226,262 L -227,262 L -227,263 L -228,265 L -227,267 L -227,268 L -226,271 L -225,273 L -225,274 L -226,275 L -228,277 L -231,280 L -233,281 L -235,282 L -237,282 L -239,282 L -240,283 L -241,284 L -242,284 L -242,285 L -243,285 L -243,286 L -243,287 L -243,288 L -242,288 L -242,289 L -241,289 L -239,290 L -239,291 L -240,293 L -240,294 L -241,294 L -241,295 L -242,295 L -242,296 L -243,296 L -243,297 L -244,296 L -245,296 L -246,297 L -246,298 L -246,299 L -246,300 L -246,301 L -246,302 L -246,303 L -246,304 L -246,305 L -247,305 L -247,306 L -247,307 L -250,307 L -251,307 L -252,307 L -253,308 L -253,309 L -253,311 L -254,311 L -254,312 L -254,313 L -254,314 L -254,315 L -255,317 L -257,320 L -258,319 L -259,318 L -260,317 L -260,316 L -261,316 L -262,315 L -263,315 L -263,314 L -264,314 L -264,313 L -265,313 L -265,314 L -266,314 L -266,315 L -267,315 L -267,314 L -268,314 L -269,314 L -269,315 L -270,315 L -270,316 L -271,316 L -271,317 L -272,317 L -272,318 L -276,314 L -277,313 L -279,312 L -281,312 L -284,313 L -286,313 L -287,313 L -288,314 L -289,314 L -289,315 L -290,315 L -290,316 L -290,317 L -290,318 L -289,319 L -289,320 L -290,321 L -291,321 L -292,321 L -293,321 L -294,320 L -299,314 L -299,313 L -300,313 L -300,312 L -301,311 L -301,310 L -302,310 L -302,309 L -303,309 L -303,308 L -303,307 L -304,305 L -304,304 L -305,302 L -305,301 L -305,300 L -305,299 L -306,298 L -306,297 L -306,296 L -306,295 L -306,294 L -306,293 L -306,292 L -306,291 L -306,290 L -306,289 L -307,288 L -307,287 L -307,286 L -307,285 L -306,284 L -306,283 L -305,283 L -305,282 L -305,281 L -306,281 L -307,281 L -308,280 L -309,280 L -310,280 L -310,279 L -311,279 L -312,279 L -313,280 L -315,280 L -316,279 L -317,279 L -318,278 L -319,277 L -320,276 L -321,276 L -322,276 L -322,277 L -323,277 L -325,276 L -327,276 L -328,275 L -329,275 L -330,275 L -331,274 L -332,273 L -333,273 L -333,272 L -334,272 L -334,271 L -335,271 L -336,271 L -337,270 L -338,270 L -339,270 L -340,270 L -341,270 L -342,270 L -343,269 L -343,268 L -344,267 L -344,265 L -344,264 L -344,263 L -344,262 L -344,261 L -344,260 L -343,260 L -343,259 L -344,259 L -344,258 L -345,257 L -345,256 L -344,256 L -344,255 L -343,255 L -343,254 L -342,254 L -342,253 L -342,252 L -342,251 L -341,250 L -341,249 L -340,249 L -341,249 L -340,249 L -339,249 L -340,249 L -339,248 L -339,249 L -339,248 L -338,248 L -337,247 L -337,246 L -336,246 L -336,245 L -335,245 L -336,246 L -335,246 L -335,245 L -334,246 L -334,245 L -333,245 L -333,244 L -334,244 L -333,244 L -333,243 L -334,243 L -333,243 L -333,242 L -332,242 L -333,242 L -333,241 L -332,241 L -332,240 L -331,240 L -332,240 L -332,239 L -331,239 L -331,238 L -332,238 L -332,237 L -332,236 L -331,235 L -331,234 L -330,234 L -329,234 L -328,234 L -328,233 L -327,232 L -327,231 L -327,230 L -327,228 L -327,227 L -326,226 L -326,225 L -327,224 L -327,223 L -327,222 L -327,220 L -327,219 L -327,217 L -326,217 L -325,217 L -324,217 L -323,217 L -321,216 L -321,215 L -320,215 L -320,214 L -320,213 L -319,213 L -318,213 L -318,212 L -317,212 L -317,211 L -318,211 L -318,210 L -318,209 L -319,209 L -319,208 L -318,208 L -317,208 L -318,208 L -317,207 L -316,207 L -315,206 L -314,206 L -314,205 L -313,205 L -313,204 L -312,204 L -312,203 L -311,203 L -310,203 L -310,204 L -309,204 L -309,203 L -309,202 L -308,202 L -308,201 L -308,200 L -307,199 L -305,196 L -305,194 L -305,192 L -305,191 L -304,191 L -304,190 L -303,190 L -302,190 L -301,190 L -300,190 L -300,189 L -299,189 L -299,188 L -298,188 L -297,188 L -297,187 L -296,187 L -295,186 L -294,186 L -294,185 L -294,186 L -293,185 L -292,185 L -292,184 L -291,184 L -290,184 L -289,184 L -289,185 L -288,185 L -288,184 L -287,184 L -286,184 L -285,184 L -284,184 L -284,185 L -284,184 L -283,184 L -282,183 L -281,183 L -280,184 L -279,184 L -278,184 L -277,184 L -276,184 L -276,183 L -275,183 L -274,184 L -273,183 L -273,184 L -272,185 L -272,186 L -271,186 L -270,187 L -270,186 L -269,186 L -267,187 L -266,187 L -265,186 L -263,187 L -261,188 L -261,189 L -260,190 L -259,190 L -259,191 L -259,192 L -260,192 L -261,195 L -261,196 L -261,197 L -260,197 L -259,198 L -259,199 L -258,199 L -258,200 L -258,199 L -258,198 L -257,196 L -257,195 L -257,194 L -256,194 L -256,193 L -256,192 L -255,191 L -254,190 L -253,190 L -253,189 L -252,189 L -251,188 L -250,188 L -250,187 L -249,187 L -248,186 L -248,185 L -247,185 L -247,184 L -247,183 L -246,182 L -245,181 L -244,181 L -242,181 L -242,183 L -242,184 L -242,186 L -241,187 L -241,188 L -240,190 L -240,193 L -238,193 L -237,195 L -233,197 L -234,198 L -234,199 L -233,200 L -233,204 L -232,206 L -231,208 L -230,209 L -229,210 L -229,211 L -228,213 L -227,214 L -226,214 L -226,215 L -228,217 L -225,224 L -223,232 L -222,235 L -222,237 L -221,242 L -219,245 L -219,247 L -218,248 L -216,252 " /></g>
</svg>
