<?xml version="1.0" standalone="no"?><!DOCTYPE svg PUBLIC "-//W3C//DTD SVG 1.1//EN" "http://www.w3.org/Graphics/SVG/1.1/DTD/svg11.dtd"><svg xmlns="http://www.w3.org/2000/svg" viewBox="-653 214 234 248" version = "1.1">
<g id="20305" ><path d="M -560,214 L -559,215 L -558,215 L -557,216 L -556,215 L -553,215 L -551,216 L -547,216 L -542,217 L -537,217 L -536,217 L -537,217 L -537,218 L -538,219 L -539,219 L -539,220 L -538,220 L -538,221 L -538,222 L -538,223 L -538,224 L -536,226 L -536,228 L -535,229 L -535,230 L -536,231 L -537,231 L -537,233 L -538,234 L -539,234 L -538,235 L -538,236 L -538,237 L -537,238 L -536,239 L -536,240 L -536,241 L -537,242 L -537,244 L -537,245 L -536,246 L -536,247 L -536,248 L -536,249 L -537,249 L -538,249 L -540,249 L -540,250 L -541,250 L -541,251 L -541,252 L -541,253 L -542,253 L -541,254 L -541,255 L -540,255 L -540,257 L -541,258 L -543,259 L -543,260 L -544,260 L -545,261 L -543,263 L -541,262 L -540,262 L -537,262 L -533,262 L -531,263 L -529,264 L -524,266 L -519,265 L -516,266 L -515,268 L -514,269 L -513,269 L -511,268 L -510,267 L -509,266 L -508,266 L -507,266 L -505,268 L -504,269 L -503,270 L -502,270 L -502,271 L -500,272 L -500,273 L -499,275 L -500,277 L -500,278 L -499,279 L -498,280 L -498,281 L -498,282 L -499,283 L -499,284 L -500,284 L -500,285 L -500,286 L -500,287 L -500,288 L -499,288 L -500,288 L -500,289 L -500,290 L -500,291 L -501,291 L -501,292 L -502,293 L -502,294 L -503,294 L -502,294 L -502,295 L -503,295 L -502,295 L -502,296 L -503,296 L -503,297 L -503,298 L -503,299 L -504,299 L -504,300 L -504,301 L -504,302 L -503,302 L -502,303 L -501,306 L -476,330 L -474,330 L -472,329 L -470,326 L -468,323 L -466,321 L -464,319 L -463,319 L -462,318 L -462,317 L -461,317 L -460,316 L -459,313 L -458,311 L -457,309 L -457,308 L -456,307 L -455,306 L -454,306 L -454,305 L -453,305 L -453,304 L -453,303 L -452,302 L -451,301 L -451,300 L -450,299 L -448,298 L -447,297 L -446,296 L -446,297 L -444,297 L -443,298 L -442,299 L -440,298 L -438,297 L -437,297 L -436,297 L -435,298 L -434,298 L -432,297 L -431,298 L -430,298 L -429,298 L -429,299 L -428,299 L -427,299 L -426,299 L -427,301 L -427,302 L -428,302 L -428,304 L -428,307 L -427,307 L -428,309 L -427,312 L -427,314 L -426,315 L -426,317 L -426,318 L -426,319 L -426,320 L -426,321 L -426,322 L -425,322 L -425,324 L -425,325 L -426,327 L -425,329 L -425,330 L -423,332 L -420,338 L -420,343 L -419,344 L -419,346 L -422,349 L -426,352 L -429,354 L -439,357 L -443,358 L -450,359 L -452,360 L -454,360 L -455,360 L -457,361 L -457,360 L -458,361 L -459,361 L -460,361 L -461,361 L -462,361 L -463,361 L -464,361 L -464,362 L -465,362 L -466,362 L -467,362 L -468,363 L -469,363 L -469,364 L -470,364 L -471,365 L -472,365 L -472,366 L -473,366 L -474,366 L -474,367 L -475,367 L -475,368 L -476,369 L -477,369 L -477,370 L -478,371 L -479,372 L -480,373 L -481,373 L -481,374 L -482,375 L -482,376 L -482,377 L -483,379 L -483,380 L -483,383 L -482,384 L -484,390 L -484,394 L -485,396 L -486,399 L -487,403 L -490,405 L -492,408 L -492,410 L -492,411 L -495,414 L -497,415 L -500,415 L -504,416 L -505,415 L -506,415 L -507,415 L -508,415 L -509,416 L -510,416 L -511,416 L -511,415 L -512,415 L -513,415 L -514,415 L -516,417 L -522,421 L -527,424 L -530,427 L -532,429 L -533,430 L -534,431 L -534,432 L -535,433 L -535,434 L -535,435 L -535,436 L -535,437 L -535,438 L -535,439 L -536,439 L -536,441 L -535,442 L -534,443 L -534,445 L -534,446 L -534,447 L -534,448 L -534,450 L -534,451 L -533,453 L -531,456 L -533,462 L -538,460 L -567,444 L -571,442 L -572,442 L -573,444 L -576,444 L -579,443 L -582,441 L -581,436 L -582,434 L -589,439 L -590,439 L -591,439 L -591,438 L -591,437 L -592,437 L -592,436 L -593,436 L -593,435 L -593,434 L -594,434 L -594,433 L -595,433 L -594,433 L -595,433 L -595,432 L -595,431 L -596,431 L -596,430 L -596,429 L -597,429 L -597,428 L -597,427 L -597,426 L -598,426 L -597,426 L -598,426 L -598,425 L -599,424 L -599,423 L -600,423 L -600,422 L -600,421 L -601,421 L -601,420 L -601,419 L -601,418 L -600,418 L -600,417 L -600,416 L -600,415 L -600,414 L -599,414 L -599,413 L -599,412 L -599,411 L -599,410 L -598,410 L -599,410 L -598,409 L -599,409 L -599,408 L -599,407 L -599,406 L -600,406 L -599,406 L -599,405 L -600,405 L -599,405 L -599,404 L -598,404 L -598,403 L -597,403 L -597,402 L -597,401 L -596,401 L -596,400 L -597,400 L -597,399 L -597,398 L -598,398 L -598,397 L -599,397 L -599,396 L -599,395 L -599,394 L -598,394 L -599,394 L -599,393 L -599,392 L -599,391 L -599,390 L -600,390 L -600,389 L -600,388 L -600,387 L -600,386 L -599,386 L -599,385 L -600,385 L -599,385 L -599,384 L -600,384 L -599,384 L -599,383 L -600,383 L -600,382 L -600,381 L -601,381 L -600,381 L -600,380 L -601,380 L -601,379 L -601,378 L -602,378 L -602,377 L -603,377 L -603,376 L -604,376 L -604,375 L -604,374 L -605,374 L -605,373 L -606,373 L -606,372 L -607,372 L -607,371 L -608,371 L -607,370 L -608,370 L -608,369 L -607,369 L -607,368 L -608,368 L -609,368 L -609,367 L -608,367 L -609,367 L -609,366 L -609,365 L -609,364 L -610,364 L -609,364 L -609,363 L -608,363 L -609,363 L -609,362 L -608,362 L -608,361 L -609,361 L -608,360 L -609,360 L -609,359 L -609,358 L -610,358 L -611,358 L -611,357 L -616,352 L -620,348 L -628,340 L -634,335 L -641,328 L -648,322 L -650,319 L -653,317 L -653,313 L -653,302 L -653,300 L -653,298 L -653,294 L -653,295 L -653,290 L -653,281 L -653,279 L -646,274 L -642,272 L -641,271 L -636,270 L -635,270 L -634,270 L -633,270 L -632,270 L -631,270 L -631,269 L -630,269 L -630,268 L -630,267 L -629,266 L -629,265 L -629,264 L -628,264 L -627,265 L -626,265 L -625,265 L -624,265 L -623,265 L -623,264 L -622,264 L -621,264 L -620,264 L -619,264 L -618,264 L -617,265 L -616,265 L -615,265 L -614,266 L -613,267 L -612,267 L -611,267 L -610,267 L -609,267 L -609,266 L -608,266 L -608,265 L -607,263 L -607,262 L -607,261 L -607,260 L -607,259 L -607,258 L -607,257 L -606,257 L -606,258 L -605,258 L -604,258 L -603,258 L -602,258 L -601,258 L -601,259 L -600,259 L -600,260 L -599,260 L -598,260 L -598,259 L -597,259 L -596,259 L -595,259 L -595,258 L -594,258 L -594,257 L -594,256 L -593,256 L -593,255 L -594,255 L -594,254 L -594,253 L -595,253 L -595,252 L -596,252 L -596,251 L -596,250 L -597,250 L -598,250 L -599,249 L -600,249 L -601,249 L -601,248 L -602,248 L -602,247 L -602,246 L -601,245 L -600,245 L -599,244 L -598,243 L -597,243 L -596,242 L -595,241 L -595,240 L -595,239 L -595,238 L -595,237 L -594,237 L -593,237 L -592,237 L -592,236 L -591,236 L -590,236 L -589,235 L -589,236 L -588,236 L -587,236 L -586,236 L -585,236 L -584,236 L -583,237 L -582,236 L -581,236 L -581,237 L -580,237 L -579,237 L -579,236 L -578,236 L -578,235 L -577,235 L -577,234 L -577,233 L -576,233 L -576,232 L -576,231 L -576,230 L -575,230 L -575,229 L -574,229 L -574,228 L -573,228 L -573,227 L -574,226 L -573,226 L -573,225 L -572,224 L -571,224 L -570,223 L -569,222 L -569,221 L -569,220 L -568,220 L -568,219 L -568,218 L -567,217 L -564,215 L -560,214 " /></g>
</svg>
