<?xml version="1.0" standalone="no"?><!DOCTYPE svg PUBLIC "-//W3C//DTD SVG 1.1//EN" "http://www.w3.org/Graphics/SVG/1.1/DTD/svg11.dtd"><svg xmlns="http://www.w3.org/2000/svg" viewBox="-610 -410 90 104" version = "1.1">
<g id="20401" ><path d="M -593,-306 L -593,-307 L -593,-306 " /><path d="M -567,-318 L -567,-319 L -567,-318 " /><path d="M -609,-329 L -608,-329 L -607,-328 L -607,-329 L -607,-328 L -606,-328 L -606,-327 L -605,-326 L -605,-325 L -604,-325 L -604,-324 L -603,-324 L -604,-324 L -604,-325 L -605,-325 L -605,-326 L -606,-326 L -606,-327 L -607,-327 L -608,-328 L -609,-328 L -609,-329 L -610,-329 L -610,-330 L -610,-331 L -610,-330 L -609,-330 L -609,-329 " /><path d="M -593,-410 L -587,-404 L -581,-399 L -578,-401 L -577,-402 L -573,-400 L -567,-397 L -563,-391 L -562,-386 L -562,-383 L -563,-382 L -563,-381 L -560,-381 L -555,-383 L -553,-384 L -553,-387 L -552,-386 L -550,-388 L -547,-390 L -545,-391 L -540,-392 L -541,-392 L -541,-391 L -542,-391 L -542,-390 L -543,-390 L -544,-390 L -544,-389 L -545,-389 L -544,-389 L -544,-388 L -544,-387 L -543,-387 L -542,-387 L -541,-387 L -541,-386 L -541,-387 L -540,-387 L -540,-386 L -539,-386 L -538,-385 L -538,-384 L -536,-387 L -535,-386 L -534,-386 L -531,-386 L -530,-387 L -529,-387 L -529,-388 L -532,-390 L -533,-390 L -535,-390 L -536,-390 L -537,-394 L -532,-396 L -525,-398 L -523,-399 L -522,-397 L -520,-395 L -521,-393 L -525,-386 L -529,-381 L -531,-378 L -530,-378 L -529,-378 L -529,-377 L -528,-377 L -528,-376 L -527,-376 L -527,-375 L -526,-375 L -525,-375 L -525,-374 L -526,-374 L -526,-373 L -527,-373 L -531,-369 L -530,-368 L -532,-364 L -533,-361 L -528,-358 L -527,-357 L -528,-352 L -532,-352 L -534,-352 L -535,-351 L -536,-351 L -537,-352 L -538,-354 L -538,-356 L -539,-356 L -540,-358 L -541,-359 L -542,-359 L -543,-360 L -545,-361 L -547,-362 L -550,-364 L -554,-368 L -558,-370 L -561,-370 L -562,-371 L -563,-369 L -563,-368 L -563,-367 L -564,-365 L -565,-364 L -565,-362 L -565,-360 L -565,-359 L -564,-358 L -562,-356 L -562,-355 L -561,-354 L -561,-353 L -560,-352 L -559,-351 L -558,-350 L -558,-349 L -557,-348 L -556,-347 L -556,-346 L -557,-345 L -555,-342 L -556,-341 L -557,-340 L -557,-339 L -557,-338 L -558,-338 L -557,-338 L -557,-337 L -557,-336 L -558,-335 L -558,-336 L -559,-336 L -560,-336 L -560,-335 L -560,-334 L -561,-334 L -561,-333 L -562,-333 L -563,-333 L -563,-332 L -564,-332 L -564,-331 L -565,-331 L -565,-330 L -566,-330 L -567,-330 L -567,-329 L -568,-329 L -569,-329 L -570,-330 L -571,-330 L -571,-331 L -572,-331 L -573,-331 L -574,-331 L -574,-330 L -574,-329 L -575,-329 L -576,-329 L -577,-329 L -577,-328 L -578,-328 L -578,-329 L -579,-329 L -580,-329 L -581,-329 L -581,-330 L -582,-330 L -582,-331 L -583,-331 L -583,-332 L -584,-332 L -584,-333 L -584,-334 L -584,-335 L -584,-336 L -584,-337 L -585,-337 L -584,-338 L -583,-338 L -583,-339 L -583,-340 L -583,-339 L -582,-339 L -582,-340 L -583,-340 L -583,-341 L -583,-342 L -584,-342 L -584,-343 L -585,-343 L -585,-342 L -586,-342 L -586,-341 L -586,-342 L -587,-342 L -587,-343 L -586,-343 L -585,-343 L -585,-344 L -586,-344 L -587,-344 L -587,-345 L -586,-345 L -587,-346 L -588,-346 L -589,-346 L -589,-345 L -590,-345 L -590,-344 L -591,-344 L -591,-345 L -591,-344 L -591,-345 L -592,-345 L -592,-346 L -593,-346 L -594,-346 L -593,-347 L -594,-347 L -594,-348 L -595,-348 L -595,-349 L -595,-350 L -596,-350 L -595,-350 L -596,-350 L -596,-351 L -596,-352 L -596,-353 L -597,-353 L -598,-353 L -598,-354 L -598,-355 L -597,-355 L -596,-355 L -595,-355 L -594,-355 L -594,-354 L -594,-355 L -593,-355 L -593,-356 L -593,-357 L -592,-357 L -592,-358 L -593,-358 L -593,-359 L -593,-360 L -594,-360 L -594,-361 L -595,-361 L -595,-362 L -595,-363 L -594,-363 L -594,-364 L -594,-363 L -593,-363 L -592,-363 L -592,-364 L -591,-364 L -591,-363 L -590,-363 L -590,-364 L -590,-365 L -589,-365 L -589,-366 L -590,-366 L -590,-367 L -590,-368 L -591,-368 L -591,-369 L -592,-369 L -592,-370 L -593,-370 L -594,-370 L -594,-371 L -595,-371 L -596,-371 L -596,-372 L -597,-372 L -598,-372 L -599,-372 L -600,-372 L -601,-372 L -601,-373 L -602,-373 L -603,-373 L -604,-373 L -604,-374 L -604,-375 L -604,-374 L -605,-374 L -605,-375 L -605,-376 L -606,-376 L -607,-376 L -607,-377 L -606,-378 L -605,-378 L -605,-379 L -604,-380 L -603,-381 L -602,-382 L -601,-383 L -601,-385 L -601,-386 L -600,-387 L -600,-388 L -600,-389 L -600,-390 L -601,-390 L -601,-391 L -601,-392 L -600,-393 L -598,-396 L -600,-398 L -602,-399 L -600,-401 L -598,-402 L -597,-403 L -596,-405 L -595,-407 L -593,-410 " /></g>
</svg>
