<?xml version="1.0" standalone="no"?><!DOCTYPE svg PUBLIC "-//W3C//DTD SVG 1.1//EN" "http://www.w3.org/Graphics/SVG/1.1/DTD/svg11.dtd"><svg xmlns="http://www.w3.org/2000/svg" viewBox="-560 -472 94 139" version = "1.1">
<g id="20402" ><path d="M -547,-466 L -547,-467 L -546,-467 L -546,-468 L -545,-468 L -545,-469 L -544,-469 L -544,-470 L -543,-470 L -543,-471 L -542,-471 L -541,-471 L -541,-470 L -540,-470 L -539,-470 L -538,-470 L -537,-470 L -537,-469 L -536,-469 L -536,-470 L -534,-469 L -533,-469 L -533,-468 L -532,-468 L -532,-467 L -531,-467 L -531,-466 L -530,-466 L -530,-465 L -530,-464 L -530,-463 L -530,-462 L -530,-461 L -530,-460 L -529,-460 L -529,-459 L -528,-459 L -527,-459 L -527,-458 L -526,-458 L -526,-457 L -526,-456 L -526,-455 L -525,-455 L -524,-455 L -524,-456 L -523,-456 L -522,-456 L -521,-456 L -521,-457 L -521,-456 L -520,-456 L -520,-457 L -519,-457 L -518,-457 L -518,-456 L -518,-457 L -518,-456 L -518,-455 L -518,-454 L -518,-453 L -518,-452 L -518,-451 L -517,-451 L -517,-450 L -516,-450 L -515,-450 L -514,-450 L -514,-451 L -513,-451 L -512,-452 L -512,-451 L -511,-451 L -510,-451 L -509,-450 L -508,-450 L -507,-448 L -504,-449 L -502,-450 L -500,-450 L -499,-450 L -497,-450 L -496,-450 L -495,-451 L -490,-451 L -486,-451 L -484,-453 L -479,-446 L -476,-443 L -474,-442 L -472,-440 L -467,-437 L -468,-434 L -469,-431 L -467,-427 L -466,-419 L -472,-414 L -472,-407 L -475,-408 L -478,-407 L -481,-405 L -484,-400 L -484,-399 L -484,-398 L -483,-398 L -483,-397 L -483,-396 L -482,-395 L -482,-394 L -481,-394 L -481,-393 L -480,-392 L -479,-392 L -479,-391 L -479,-390 L -478,-390 L -478,-389 L -477,-389 L -476,-389 L -476,-388 L -475,-388 L -476,-388 L -477,-388 L -477,-387 L -478,-387 L -478,-386 L -479,-386 L -480,-386 L -480,-387 L -481,-387 L -482,-388 L -482,-387 L -483,-387 L -484,-387 L -484,-386 L -484,-385 L -484,-384 L -485,-383 L -485,-382 L -484,-381 L -484,-380 L -483,-379 L -483,-378 L -483,-377 L -483,-376 L -483,-375 L -484,-374 L -485,-373 L -486,-372 L -487,-372 L -488,-371 L -488,-370 L -489,-369 L -490,-369 L -490,-368 L -491,-368 L -492,-367 L -493,-367 L -493,-366 L -492,-365 L -492,-364 L -491,-364 L -491,-363 L -490,-362 L -490,-361 L -490,-360 L -490,-359 L -489,-359 L -490,-358 L -491,-358 L -491,-357 L -491,-356 L -491,-355 L -491,-354 L -492,-353 L -492,-352 L -492,-351 L -492,-350 L -491,-350 L -491,-349 L -492,-349 L -491,-349 L -491,-348 L -491,-347 L -490,-346 L -490,-345 L -490,-344 L -490,-343 L -490,-342 L -491,-342 L -491,-341 L -492,-341 L -491,-341 L -492,-340 L -491,-340 L -492,-340 L -492,-339 L -493,-338 L -493,-337 L -493,-336 L -493,-335 L -498,-334 L -503,-333 L -504,-333 L -512,-333 L -519,-337 L -527,-344 L -527,-347 L -528,-347 L -529,-347 L -529,-348 L -529,-349 L -530,-349 L -530,-350 L -531,-350 L -532,-350 L -532,-351 L -532,-352 L -528,-352 L -527,-357 L -528,-358 L -533,-361 L -532,-364 L -530,-368 L -531,-369 L -527,-373 L -526,-373 L -526,-374 L -525,-374 L -525,-375 L -526,-375 L -527,-375 L -527,-376 L -528,-376 L -528,-377 L -529,-377 L -529,-378 L -530,-378 L -531,-378 L -529,-381 L -525,-386 L -521,-393 L -520,-395 L -522,-397 L -523,-399 L -522,-407 L -523,-411 L -524,-412 L -527,-416 L -533,-419 L -532,-423 L -534,-429 L -538,-429 L -538,-430 L -537,-434 L -540,-439 L -541,-444 L -540,-445 L -543,-448 L -544,-448 L -545,-449 L -546,-449 L -547,-450 L -550,-452 L -560,-457 L -559,-461 L -557,-464 L -555,-469 L -551,-472 L -549,-468 L -549,-467 L -547,-466 " /></g>
</svg>
