<?xml version="1.0" standalone="no"?><!DOCTYPE svg PUBLIC "-//W3C//DTD SVG 1.1//EN" "http://www.w3.org/Graphics/SVG/1.1/DTD/svg11.dtd"><svg xmlns="http://www.w3.org/2000/svg" viewBox="-565 -371 38 56" version = "1.1">
<g id="20405" ><path d="M -536,-351 L -535,-351 L -534,-352 L -532,-352 L -532,-351 L -532,-350 L -531,-350 L -530,-350 L -530,-349 L -529,-349 L -529,-348 L -529,-347 L -528,-347 L -527,-347 L -527,-344 L -528,-344 L -529,-344 L -529,-343 L -530,-343 L -530,-342 L -531,-342 L -532,-342 L -531,-341 L -530,-341 L -530,-340 L -529,-338 L -528,-335 L -527,-333 L -528,-333 L -527,-332 L -530,-330 L -531,-329 L -533,-327 L -534,-326 L -534,-325 L -535,-325 L -535,-324 L -536,-323 L -537,-322 L -543,-315 L -544,-315 L -545,-315 L -546,-315 L -547,-315 L -548,-315 L -549,-315 L -549,-316 L -550,-316 L -551,-316 L -552,-316 L -553,-316 L -553,-317 L -554,-317 L -555,-317 L -556,-318 L -557,-318 L -557,-319 L -558,-319 L -558,-320 L -559,-320 L -559,-321 L -559,-322 L -560,-322 L -560,-323 L -559,-323 L -559,-322 L -558,-322 L -557,-323 L -556,-323 L -556,-324 L -555,-324 L -554,-324 L -554,-323 L -553,-323 L -552,-323 L -551,-323 L -551,-324 L -550,-324 L -550,-323 L -549,-323 L -549,-322 L -548,-322 L -548,-323 L -547,-323 L -548,-323 L -549,-323 L -549,-324 L -548,-324 L -547,-324 L -546,-323 L -546,-324 L -545,-324 L -545,-325 L -545,-324 L -545,-325 L -546,-325 L -545,-325 L -545,-326 L -545,-325 L -545,-326 L -546,-326 L -545,-326 L -545,-327 L -546,-327 L -546,-326 L -546,-327 L -546,-326 L -547,-326 L -548,-326 L -549,-326 L -549,-327 L -548,-327 L -548,-328 L -548,-329 L -549,-329 L -549,-330 L -550,-330 L -550,-331 L -551,-331 L -552,-331 L -553,-331 L -553,-330 L -554,-331 L -555,-331 L -554,-332 L -555,-332 L -556,-332 L -555,-332 L -555,-333 L -555,-334 L -556,-334 L -557,-334 L -557,-335 L -558,-335 L -557,-336 L -557,-337 L -557,-338 L -558,-338 L -557,-338 L -557,-339 L -557,-340 L -556,-341 L -555,-342 L -557,-345 L -556,-346 L -556,-347 L -557,-348 L -558,-349 L -558,-350 L -559,-351 L -560,-352 L -561,-353 L -561,-354 L -562,-355 L -562,-356 L -564,-358 L -565,-359 L -565,-360 L -565,-362 L -565,-364 L -564,-365 L -563,-367 L -563,-368 L -563,-369 L -562,-371 L -561,-370 L -558,-370 L -554,-368 L -550,-364 L -547,-362 L -545,-361 L -543,-360 L -542,-359 L -541,-359 L -540,-358 L -539,-356 L -538,-356 L -538,-354 L -537,-352 L -536,-351 " /></g>
</svg>
