<?xml version="1.0" standalone="no"?><!DOCTYPE svg PUBLIC "-//W3C//DTD SVG 1.1//EN" "http://www.w3.org/Graphics/SVG/1.1/DTD/svg11.dtd"><svg xmlns="http://www.w3.org/2000/svg" viewBox="-580 -457 58 76" version = "1.1">
<g id="20404" ><path d="M -543,-448 L -540,-445 L -541,-444 L -540,-439 L -537,-434 L -538,-430 L -538,-429 L -534,-429 L -532,-423 L -533,-419 L -527,-416 L -524,-412 L -523,-411 L -522,-407 L -523,-399 L -525,-398 L -532,-396 L -537,-394 L -536,-390 L -535,-390 L -533,-390 L -532,-390 L -529,-388 L -529,-387 L -530,-387 L -531,-386 L -534,-386 L -535,-386 L -536,-387 L -538,-384 L -538,-385 L -539,-386 L -540,-386 L -540,-387 L -541,-387 L -541,-386 L -541,-387 L -542,-387 L -543,-387 L -544,-387 L -544,-388 L -544,-389 L -545,-389 L -544,-389 L -544,-390 L -543,-390 L -542,-390 L -542,-391 L -541,-391 L -541,-392 L -540,-392 L -545,-391 L -547,-390 L -550,-388 L -552,-386 L -553,-387 L -553,-384 L -555,-383 L -560,-381 L -563,-381 L -563,-382 L -562,-383 L -562,-386 L -563,-391 L -567,-397 L -573,-400 L -577,-402 L -574,-409 L -580,-413 L -579,-423 L -579,-432 L -577,-438 L -573,-444 L -568,-450 L -565,-448 L -562,-451 L -560,-457 L -550,-452 L -547,-450 L -546,-449 L -545,-449 L -544,-448 L -543,-448 " /></g>
</svg>
