<?xml version="1.0" standalone="no"?><!DOCTYPE svg PUBLIC "-//W3C//DTD SVG 1.1//EN" "http://www.w3.org/Graphics/SVG/1.1/DTD/svg11.dtd"><svg xmlns="http://www.w3.org/2000/svg" viewBox="-544 -377 80 121" version = "1.1">
<g id="20403" ><path d="M -472,-377 L -472,-372 L -473,-368 L -475,-365 L -474,-363 L -475,-361 L -477,-358 L -476,-356 L -473,-354 L -470,-351 L -469,-350 L -467,-350 L -466,-348 L -464,-343 L -470,-335 L -471,-333 L -472,-331 L -473,-330 L -475,-327 L -476,-327 L -478,-326 L -479,-324 L -480,-322 L -480,-309 L -478,-308 L -476,-303 L -474,-303 L -472,-301 L -468,-297 L -465,-288 L -465,-287 L -466,-287 L -470,-288 L -471,-289 L -474,-288 L -474,-289 L -475,-289 L -479,-289 L -480,-291 L -482,-291 L -484,-289 L -486,-288 L -488,-288 L -490,-284 L -491,-283 L -491,-282 L -491,-281 L -492,-280 L -492,-279 L -491,-279 L -491,-278 L -491,-277 L -492,-276 L -492,-275 L -492,-274 L -491,-273 L -490,-273 L -488,-272 L -488,-271 L -487,-270 L -486,-270 L -485,-267 L -484,-266 L -483,-265 L -481,-263 L -480,-262 L -480,-261 L -480,-260 L -481,-260 L -482,-260 L -482,-259 L -482,-258 L -483,-258 L -483,-257 L -483,-256 L -484,-256 L -484,-257 L -485,-257 L -486,-257 L -486,-258 L -487,-258 L -488,-257 L -488,-258 L -489,-258 L -489,-259 L -490,-259 L -491,-259 L -491,-260 L -491,-261 L -491,-260 L -492,-260 L -492,-261 L -491,-261 L -491,-262 L -491,-263 L -492,-263 L -492,-264 L -492,-265 L -493,-266 L -494,-266 L -495,-266 L -496,-266 L -497,-266 L -498,-266 L -499,-267 L -500,-268 L -500,-269 L -500,-270 L -500,-271 L -501,-271 L -501,-272 L -501,-273 L -501,-274 L -502,-274 L -502,-275 L -503,-275 L -502,-275 L -502,-276 L -503,-277 L -503,-278 L -503,-279 L -504,-279 L -504,-280 L -504,-281 L -505,-281 L -505,-282 L -505,-283 L -506,-283 L -506,-284 L -506,-285 L -507,-285 L -507,-286 L -508,-286 L -508,-287 L -509,-287 L -509,-288 L -510,-288 L -511,-288 L -512,-288 L -512,-289 L -513,-289 L -514,-289 L -514,-290 L -514,-291 L -515,-291 L -515,-292 L -516,-292 L -516,-293 L -517,-294 L -517,-295 L -517,-296 L -518,-296 L -518,-297 L -518,-298 L -518,-299 L -519,-299 L -519,-300 L -519,-301 L -520,-301 L -519,-301 L -519,-302 L -520,-302 L -520,-303 L -521,-303 L -521,-304 L -522,-304 L -522,-305 L -523,-305 L -524,-305 L -524,-306 L -525,-306 L -525,-307 L -525,-308 L -525,-309 L -525,-310 L -526,-310 L -526,-311 L -527,-312 L -527,-313 L -528,-313 L -528,-314 L -529,-314 L -529,-315 L -530,-315 L -531,-315 L -531,-314 L -532,-314 L -531,-314 L -531,-315 L -532,-315 L -532,-314 L -532,-315 L -531,-315 L -531,-316 L -532,-316 L -533,-316 L -533,-317 L -534,-317 L -535,-317 L -535,-316 L -534,-316 L -534,-315 L -533,-315 L -533,-314 L -533,-313 L -532,-313 L -531,-313 L -531,-312 L -532,-312 L -533,-312 L -534,-312 L -534,-313 L -535,-313 L -536,-313 L -537,-314 L -538,-314 L -539,-314 L -540,-314 L -540,-315 L -541,-315 L -542,-315 L -543,-315 L -544,-315 L -543,-315 L -537,-322 L -536,-323 L -535,-324 L -535,-325 L -534,-325 L -534,-326 L -533,-327 L -531,-329 L -530,-330 L -527,-332 L -528,-333 L -527,-333 L -528,-335 L -529,-338 L -530,-340 L -530,-341 L -531,-341 L -532,-342 L -531,-342 L -530,-342 L -530,-343 L -529,-343 L -529,-344 L -528,-344 L -527,-344 L -519,-337 L -512,-333 L -504,-333 L -503,-333 L -498,-334 L -493,-335 L -493,-336 L -493,-337 L -493,-338 L -492,-339 L -492,-340 L -491,-340 L -492,-340 L -491,-341 L -492,-341 L -491,-341 L -491,-342 L -490,-342 L -490,-343 L -490,-344 L -490,-345 L -490,-346 L -491,-347 L -491,-348 L -491,-349 L -492,-349 L -491,-349 L -491,-350 L -492,-350 L -492,-351 L -492,-352 L -492,-353 L -491,-354 L -491,-355 L -491,-356 L -491,-357 L -491,-358 L -490,-358 L -489,-359 L -490,-359 L -490,-360 L -490,-361 L -490,-362 L -491,-363 L -491,-364 L -492,-364 L -492,-365 L -493,-366 L -493,-367 L -492,-367 L -491,-368 L -490,-368 L -490,-369 L -489,-369 L -488,-370 L -488,-371 L -487,-372 L -486,-372 L -485,-373 L -484,-374 L -483,-375 L -482,-374 L -479,-376 L -477,-377 L -475,-377 L -473,-377 L -472,-377 " /></g>
</svg>
