<?xml version="1.0" standalone="no"?><!DOCTYPE svg PUBLIC "-//W3C//DTD SVG 1.1//EN" "http://www.w3.org/Graphics/SVG/1.1/DTD/svg11.dtd"><svg xmlns="http://www.w3.org/2000/svg" viewBox="-485 -437 75 141" version = "1.1">
<g id="20501" ><path d="M -450,-413 L -448,-401 L -442,-395 L -435,-388 L -426,-381 L -416,-374 L -410,-370 L -411,-369 L -412,-369 L -412,-368 L -413,-368 L -414,-368 L -415,-367 L -416,-367 L -416,-366 L -417,-366 L -417,-365 L -418,-365 L -419,-365 L -419,-364 L -419,-363 L -419,-362 L -420,-361 L -420,-360 L -421,-360 L -421,-359 L -421,-358 L -422,-357 L -422,-356 L -421,-356 L -421,-355 L -421,-354 L -421,-353 L -420,-353 L -420,-352 L -420,-351 L -420,-350 L -420,-349 L -420,-348 L -419,-347 L -419,-346 L -419,-345 L -418,-345 L -417,-345 L -417,-344 L -416,-344 L -415,-344 L -415,-345 L -414,-344 L -413,-344 L -413,-343 L -412,-343 L -412,-342 L -412,-341 L -413,-341 L -413,-340 L -414,-340 L -414,-339 L -413,-338 L -413,-337 L -413,-336 L -414,-337 L -414,-336 L -415,-336 L -415,-335 L -415,-334 L -416,-334 L -416,-333 L -417,-333 L -417,-332 L -417,-331 L -417,-330 L -417,-329 L -418,-329 L -418,-328 L -418,-327 L -419,-327 L -419,-326 L -419,-325 L -420,-324 L -421,-324 L -421,-323 L -421,-322 L -421,-321 L -422,-321 L -422,-320 L -423,-319 L -424,-318 L -424,-317 L -425,-316 L -425,-315 L -425,-314 L -425,-313 L -426,-313 L -426,-312 L -426,-311 L -427,-311 L -428,-311 L -429,-310 L -430,-310 L -431,-310 L -431,-309 L -432,-309 L -432,-308 L -433,-308 L -433,-307 L -434,-306 L -435,-306 L -435,-305 L -436,-304 L -436,-303 L -437,-303 L -437,-304 L -438,-304 L -439,-304 L -439,-303 L -440,-303 L -441,-303 L -442,-302 L -443,-302 L -444,-302 L -444,-303 L -445,-303 L -446,-303 L -447,-303 L -448,-302 L -449,-302 L -449,-301 L -450,-301 L -451,-301 L -451,-300 L -452,-300 L -453,-300 L -454,-300 L -454,-301 L -455,-301 L -456,-301 L -459,-301 L -465,-296 L -466,-296 L -468,-297 L -472,-301 L -474,-303 L -476,-303 L -478,-308 L -480,-309 L -480,-322 L -479,-324 L -478,-326 L -476,-327 L -475,-327 L -473,-330 L -472,-331 L -471,-333 L -470,-335 L -464,-343 L -466,-348 L -467,-350 L -469,-350 L -470,-351 L -473,-354 L -476,-356 L -477,-358 L -475,-361 L -474,-363 L -475,-365 L -473,-368 L -472,-372 L -472,-377 L -473,-377 L -475,-377 L -477,-377 L -479,-376 L -482,-374 L -483,-375 L -483,-376 L -483,-377 L -483,-378 L -483,-379 L -484,-380 L -484,-381 L -485,-382 L -485,-383 L -484,-384 L -484,-385 L -484,-386 L -484,-387 L -483,-387 L -482,-387 L -482,-388 L -481,-387 L -480,-387 L -480,-386 L -479,-386 L -478,-386 L -478,-387 L -477,-387 L -477,-388 L -476,-388 L -475,-388 L -476,-388 L -476,-389 L -477,-389 L -478,-389 L -478,-390 L -479,-390 L -479,-391 L -479,-392 L -480,-392 L -481,-393 L -481,-394 L -482,-394 L -482,-395 L -483,-396 L -483,-397 L -483,-398 L -484,-398 L -484,-399 L -484,-400 L -481,-405 L -478,-407 L -475,-408 L -472,-407 L -472,-414 L -466,-419 L -467,-427 L -469,-431 L -468,-434 L -467,-437 L -465,-435 L -463,-434 L -462,-434 L -461,-433 L -460,-433 L -459,-432 L -458,-431 L -451,-424 L -447,-417 L -450,-413 " /></g>
</svg>
