<?xml version="1.0" standalone="no"?><!DOCTYPE svg PUBLIC "-//W3C//DTD SVG 1.1//EN" "http://www.w3.org/Graphics/SVG/1.1/DTD/svg11.dtd"><svg xmlns="http://www.w3.org/2000/svg" viewBox="-430 -435 70 55" version = "1.1">
<g id="20503" ><path d="M -381,-435 L -380,-435 L -379,-435 L -379,-434 L -378,-434 L -378,-433 L -377,-433 L -376,-433 L -376,-432 L -375,-432 L -374,-432 L -373,-431 L -373,-430 L -373,-429 L -373,-427 L -369,-422 L -368,-419 L -367,-417 L -366,-415 L -365,-413 L -364,-412 L -363,-412 L -360,-405 L -361,-405 L -361,-404 L -362,-404 L -363,-404 L -363,-403 L -364,-403 L -365,-403 L -365,-402 L -366,-402 L -367,-402 L -367,-401 L -368,-401 L -369,-401 L -369,-400 L -370,-400 L -371,-399 L -372,-399 L -373,-399 L -374,-399 L -375,-399 L -376,-398 L -377,-398 L -378,-397 L -379,-397 L -379,-396 L -380,-396 L -380,-395 L -381,-395 L -382,-395 L -383,-395 L -383,-394 L -384,-394 L -384,-393 L -385,-393 L -385,-392 L -385,-391 L -385,-390 L -385,-389 L -385,-388 L -386,-387 L -387,-387 L -387,-386 L -388,-386 L -389,-386 L -390,-386 L -391,-386 L -391,-385 L -392,-385 L -392,-384 L -393,-384 L -393,-383 L -393,-382 L -394,-382 L -394,-381 L -395,-381 L -395,-380 L -401,-381 L -402,-381 L -407,-382 L -410,-386 L -411,-387 L -414,-392 L -415,-396 L -418,-404 L -419,-407 L -419,-410 L -420,-411 L -421,-412 L -423,-413 L -427,-414 L -430,-417 L -430,-421 L -429,-422 L -429,-423 L -426,-425 L -424,-428 L -423,-428 L -421,-427 L -419,-426 L -418,-426 L -416,-426 L -416,-427 L -415,-427 L -414,-427 L -414,-428 L -413,-428 L -413,-429 L -412,-429 L -412,-430 L -411,-430 L -411,-429 L -410,-429 L -409,-429 L -408,-429 L -407,-429 L -406,-429 L -405,-429 L -404,-429 L -403,-429 L -402,-429 L -401,-429 L -401,-428 L -400,-428 L -399,-428 L -398,-428 L -397,-428 L -397,-427 L -396,-428 L -395,-428 L -394,-428 L -393,-428 L -392,-428 L -391,-428 L -390,-428 L -389,-430 L -388,-430 L -388,-431 L -387,-432 L -387,-433 L -387,-434 L -386,-434 L -385,-434 L -385,-435 L -384,-435 L -383,-435 L -382,-435 L -381,-435 " /></g>
</svg>
