<?xml version="1.0" standalone="no"?><!DOCTYPE svg PUBLIC "-//W3C//DTD SVG 1.1//EN" "http://www.w3.org/Graphics/SVG/1.1/DTD/svg11.dtd"><svg xmlns="http://www.w3.org/2000/svg" viewBox="-467 -506 156 136" version = "1.1">
<g id="20502" ><path d="M -329,-505 L -328,-504 L -327,-504 L -326,-504 L -325,-504 L -324,-504 L -324,-505 L -323,-505 L -322,-505 L -321,-505 L -320,-505 L -319,-505 L -319,-504 L -318,-504 L -317,-504 L -317,-503 L -316,-503 L -317,-503 L -316,-503 L -316,-502 L -317,-502 L -317,-501 L -316,-501 L -317,-500 L -317,-499 L -316,-499 L -316,-498 L -315,-498 L -314,-498 L -314,-497 L -313,-496 L -313,-495 L -312,-495 L -311,-494 L -311,-493 L -311,-492 L -312,-490 L -313,-490 L -314,-490 L -315,-490 L -316,-491 L -317,-491 L -318,-491 L -319,-491 L -319,-490 L -320,-490 L -321,-490 L -322,-490 L -322,-489 L -323,-489 L -324,-489 L -325,-488 L -326,-487 L -327,-487 L -328,-486 L -328,-485 L -330,-485 L -331,-484 L -332,-483 L -333,-483 L -334,-483 L -334,-481 L -334,-480 L -334,-479 L -335,-479 L -334,-478 L -334,-477 L -335,-476 L -335,-475 L -335,-474 L -336,-474 L -337,-473 L -338,-472 L -339,-472 L -339,-471 L -340,-471 L -340,-470 L -341,-469 L -341,-468 L -341,-467 L -342,-467 L -343,-467 L -344,-466 L -345,-465 L -346,-464 L -346,-463 L -346,-462 L -347,-462 L -347,-461 L -347,-460 L -348,-459 L -348,-458 L -349,-458 L -351,-456 L -355,-450 L -365,-445 L -372,-446 L -374,-441 L -380,-435 L -381,-435 L -382,-435 L -383,-435 L -384,-435 L -385,-435 L -385,-434 L -386,-434 L -387,-434 L -387,-433 L -387,-432 L -388,-431 L -388,-430 L -389,-430 L -390,-428 L -391,-428 L -392,-428 L -393,-428 L -394,-428 L -395,-428 L -396,-428 L -397,-427 L -397,-428 L -398,-428 L -399,-428 L -400,-428 L -401,-428 L -401,-429 L -402,-429 L -403,-429 L -404,-429 L -405,-429 L -406,-429 L -407,-429 L -408,-429 L -409,-429 L -410,-429 L -411,-429 L -411,-430 L -412,-430 L -412,-429 L -413,-429 L -413,-428 L -414,-428 L -414,-427 L -415,-427 L -416,-427 L -416,-426 L -418,-426 L -419,-426 L -421,-427 L -423,-428 L -424,-428 L -426,-425 L -429,-423 L -429,-422 L -430,-421 L -430,-417 L -427,-414 L -423,-413 L -421,-412 L -420,-411 L -419,-410 L -419,-407 L -418,-404 L -415,-396 L -414,-392 L -411,-387 L -410,-386 L -407,-382 L -402,-381 L -401,-381 L -395,-380 L -396,-379 L -396,-378 L -397,-378 L -397,-377 L -397,-376 L -398,-375 L -399,-374 L -400,-374 L -401,-373 L -402,-373 L -404,-372 L -405,-372 L -406,-372 L -407,-371 L -408,-371 L -409,-371 L -410,-370 L -416,-374 L -426,-381 L -435,-388 L -442,-395 L -448,-401 L -450,-413 L -447,-417 L -451,-424 L -458,-431 L -459,-432 L -460,-433 L -461,-433 L -462,-434 L -463,-434 L -465,-435 L -467,-437 L -465,-440 L -464,-442 L -462,-443 L -461,-444 L -460,-444 L -459,-444 L -458,-445 L -457,-445 L -456,-445 L -455,-445 L -454,-444 L -454,-445 L -453,-445 L -452,-445 L -451,-445 L -450,-445 L -449,-446 L -449,-447 L -448,-447 L -448,-448 L -448,-449 L -447,-450 L -447,-451 L -447,-452 L -446,-453 L -446,-454 L -446,-455 L -446,-456 L -445,-457 L -445,-458 L -445,-459 L -445,-460 L -444,-461 L -444,-462 L -443,-462 L -443,-463 L -443,-464 L -443,-465 L -443,-466 L -443,-467 L -443,-468 L -442,-468 L -442,-469 L -441,-469 L -441,-470 L -440,-470 L -439,-471 L -438,-471 L -438,-472 L -437,-472 L -436,-472 L -436,-473 L -435,-473 L -434,-473 L -433,-473 L -432,-473 L -431,-473 L -430,-473 L -429,-473 L -429,-474 L -428,-473 L -428,-474 L -428,-475 L -428,-476 L -427,-476 L -426,-477 L -425,-478 L -425,-479 L -424,-479 L -423,-479 L -423,-478 L -422,-478 L -422,-479 L -421,-479 L -420,-479 L -419,-479 L -418,-480 L -417,-480 L -416,-480 L -415,-480 L -414,-479 L -413,-479 L -412,-479 L -412,-478 L -411,-478 L -410,-478 L -409,-478 L -409,-479 L -408,-479 L -407,-479 L -406,-479 L -406,-480 L -405,-480 L -404,-480 L -404,-481 L -403,-482 L -403,-483 L -402,-483 L -402,-484 L -401,-484 L -401,-485 L -400,-485 L -400,-486 L -399,-486 L -398,-487 L -397,-487 L -396,-487 L -395,-487 L -395,-486 L -394,-486 L -393,-486 L -392,-486 L -392,-485 L -391,-485 L -391,-484 L -390,-484 L -389,-484 L -388,-484 L -387,-484 L -386,-484 L -386,-483 L -385,-483 L -384,-483 L -383,-483 L -382,-482 L -382,-483 L -381,-483 L -380,-483 L -379,-483 L -378,-483 L -377,-483 L -377,-484 L -375,-485 L -375,-486 L -374,-486 L -373,-486 L -373,-487 L -372,-487 L -371,-487 L -371,-488 L -370,-488 L -369,-488 L -368,-488 L -367,-488 L -366,-489 L -366,-488 L -365,-488 L -365,-489 L -364,-489 L -363,-490 L -362,-490 L -361,-490 L -360,-490 L -359,-490 L -359,-491 L -358,-491 L -357,-492 L -356,-492 L -355,-492 L -355,-493 L -354,-493 L -354,-494 L -353,-494 L -352,-494 L -352,-495 L -351,-495 L -351,-496 L -350,-496 L -349,-496 L -349,-497 L -348,-497 L -347,-497 L -346,-498 L -346,-497 L -345,-497 L -345,-498 L -344,-498 L -343,-498 L -343,-499 L -342,-499 L -342,-500 L -341,-500 L -340,-500 L -340,-501 L -340,-500 L -339,-500 L -339,-501 L -338,-501 L -337,-501 L -337,-502 L -336,-502 L -335,-502 L -335,-503 L -335,-504 L -334,-504 L -333,-504 L -333,-505 L -332,-505 L -332,-506 L -331,-506 L -331,-505 L -330,-505 L -329,-505 " /></g>
</svg>
