<?xml version="1.0" standalone="no"?><!DOCTYPE svg PUBLIC "-//W3C//DTD SVG 1.1//EN" "http://www.w3.org/Graphics/SVG/1.1/DTD/svg11.dtd"><svg xmlns="http://www.w3.org/2000/svg" viewBox="-224 -386 88 50" version = "1.1">
<g id="20606" ><path d="M -163,-386 L -161,-383 L -159,-383 L -157,-383 L -155,-382 L -155,-381 L -154,-380 L -152,-381 L -148,-384 L -146,-385 L -140,-384 L -140,-383 L -140,-381 L -139,-379 L -138,-377 L -138,-376 L -137,-375 L -136,-375 L -136,-374 L -137,-373 L -137,-372 L -137,-371 L -138,-371 L -138,-370 L -138,-369 L -139,-369 L -139,-368 L -140,-368 L -140,-367 L -141,-367 L -140,-367 L -141,-367 L -141,-366 L -140,-366 L -140,-365 L -140,-364 L -139,-364 L -140,-363 L -140,-362 L -145,-360 L -152,-354 L -155,-351 L -160,-349 L -164,-350 L -166,-350 L -172,-350 L -173,-349 L -174,-349 L -175,-347 L -177,-347 L -178,-346 L -179,-346 L -179,-345 L -179,-343 L -181,-342 L -183,-341 L -183,-340 L -186,-339 L -189,-339 L -192,-341 L -195,-341 L -196,-340 L -198,-339 L -202,-340 L -206,-340 L -210,-338 L -224,-336 L -224,-337 L -223,-338 L -223,-339 L -223,-340 L -222,-341 L -222,-342 L -222,-343 L -222,-344 L -222,-345 L -221,-345 L -220,-346 L -220,-347 L -219,-348 L -219,-349 L -218,-349 L -217,-350 L -217,-351 L -216,-351 L -215,-352 L -215,-353 L -214,-353 L -213,-354 L -212,-354 L -211,-355 L -210,-356 L -210,-357 L -211,-357 L -212,-357 L -213,-357 L -213,-358 L -214,-358 L -215,-358 L -215,-359 L -216,-359 L -217,-362 L -215,-363 L -213,-363 L -212,-364 L -212,-367 L -212,-368 L -212,-369 L -210,-370 L -209,-370 L -207,-371 L -207,-372 L -206,-372 L -205,-373 L -204,-373 L -203,-373 L -202,-372 L -201,-370 L -200,-368 L -198,-368 L -195,-368 L -194,-370 L -193,-370 L -192,-371 L -190,-372 L -189,-373 L -188,-372 L -185,-372 L -184,-372 L -183,-371 L -182,-372 L -180,-372 L -180,-373 L -180,-375 L -178,-376 L -173,-378 L -171,-380 L -163,-386 " /></g>
</svg>
