<?xml version="1.0" standalone="no"?><!DOCTYPE svg PUBLIC "-//W3C//DTD SVG 1.1//EN" "http://www.w3.org/Graphics/SVG/1.1/DTD/svg11.dtd"><svg xmlns="http://www.w3.org/2000/svg" viewBox="-114 -517 130 212" version = "1.1">
<g id="20608" ><path d="M -48,-515 L -47,-515 L -46,-515 L -46,-514 L -45,-514 L -45,-513 L -45,-512 L -44,-512 L -44,-511 L -43,-510 L -42,-509 L -41,-508 L -40,-508 L -40,-507 L -39,-507 L -39,-506 L -38,-505 L -37,-505 L -36,-504 L -36,-503 L -35,-503 L -34,-501 L -34,-500 L -33,-499 L -31,-497 L -31,-496 L -30,-495 L -29,-494 L -28,-493 L -26,-492 L -25,-491 L -24,-490 L -23,-490 L -22,-489 L -22,-488 L -21,-488 L -20,-488 L -19,-489 L -18,-490 L -17,-490 L -16,-490 L -16,-489 L -15,-488 L -14,-487 L -13,-486 L -12,-486 L -11,-486 L -10,-487 L -9,-487 L -8,-486 L -7,-486 L -6,-485 L -5,-483 L -5,-482 L -4,-482 L -4,-481 L -5,-481 L -6,-479 L -6,-478 L -6,-477 L -6,-476 L -7,-475 L -8,-474 L -8,-473 L -8,-472 L -8,-471 L -7,-470 L -6,-470 L -4,-469 L -3,-469 L -2,-469 L -1,-470 L 0,-470 L 0,-469 L 0,-468 L 1,-467 L 1,-466 L 2,-466 L 3,-465 L 3,-464 L 4,-464 L 5,-464 L 6,-464 L 6,-465 L 7,-466 L 8,-466 L 9,-466 L 10,-466 L 11,-466 L 12,-465 L 13,-464 L 14,-464 L 15,-463 L 16,-463 L 16,-462 L 16,-461 L 16,-459 L 15,-459 L 14,-458 L 13,-458 L 13,-457 L 13,-455 L 13,-454 L 13,-453 L 12,-452 L 12,-451 L 11,-451 L 11,-450 L 10,-450 L 9,-449 L 8,-449 L 7,-448 L 6,-449 L 5,-449 L 5,-448 L 5,-447 L 6,-447 L 6,-446 L 7,-445 L 7,-444 L 7,-443 L 7,-442 L 7,-441 L 8,-440 L 7,-440 L 3,-439 L -2,-446 L -8,-443 L -11,-440 L -10,-439 L -17,-432 L -18,-427 L -16,-425 L -16,-420 L -18,-415 L -17,-403 L -29,-384 L -30,-375 L -28,-368 L -31,-364 L -39,-354 L -40,-353 L -32,-345 L -31,-344 L -34,-335 L -35,-333 L -39,-328 L -41,-326 L -43,-321 L -43,-319 L -40,-315 L -40,-314 L -41,-314 L -42,-314 L -42,-313 L -42,-312 L -43,-312 L -43,-311 L -44,-312 L -44,-311 L -45,-311 L -45,-310 L -45,-309 L -46,-309 L -47,-309 L -48,-309 L -49,-309 L -49,-308 L -50,-308 L -50,-307 L -50,-306 L -51,-306 L -51,-305 L -52,-305 L -52,-306 L -53,-306 L -52,-306 L -52,-307 L -51,-308 L -51,-309 L -52,-309 L -52,-310 L -52,-311 L -53,-311 L -53,-312 L -53,-313 L -52,-313 L -52,-314 L -51,-314 L -52,-315 L -52,-316 L -52,-317 L -53,-318 L -54,-318 L -54,-319 L -54,-320 L -55,-321 L -56,-321 L -56,-322 L -56,-323 L -56,-324 L -57,-324 L -57,-325 L -57,-326 L -57,-327 L -58,-328 L -59,-328 L -60,-328 L -61,-329 L -62,-330 L -62,-331 L -61,-331 L -61,-332 L -62,-332 L -62,-333 L -63,-333 L -63,-332 L -63,-331 L -64,-331 L -64,-332 L -64,-333 L -64,-334 L -65,-334 L -65,-335 L -66,-335 L -66,-336 L -67,-336 L -67,-337 L -68,-338 L -68,-339 L -69,-339 L -69,-338 L -70,-338 L -71,-338 L -71,-339 L -71,-340 L -72,-340 L -72,-341 L -72,-340 L -73,-340 L -73,-341 L -73,-342 L -73,-343 L -74,-343 L -75,-343 L -76,-343 L -76,-344 L -77,-344 L -77,-345 L -78,-345 L -79,-345 L -79,-344 L -80,-344 L -80,-345 L -81,-345 L -81,-346 L -80,-346 L -80,-347 L -79,-347 L -79,-348 L -79,-349 L -80,-349 L -80,-350 L -80,-351 L -81,-351 L -81,-352 L -82,-352 L -83,-352 L -83,-353 L -84,-353 L -85,-354 L -86,-355 L -87,-355 L -88,-356 L -88,-357 L -89,-357 L -89,-358 L -89,-359 L -88,-359 L -88,-360 L -89,-360 L -90,-361 L -90,-362 L -91,-362 L -91,-363 L -92,-363 L -92,-364 L -93,-365 L -93,-366 L -94,-366 L -94,-367 L -94,-368 L -95,-368 L -96,-369 L -97,-369 L -97,-370 L -98,-371 L -99,-371 L -99,-372 L -100,-372 L -101,-372 L -101,-373 L -102,-373 L -102,-374 L -103,-374 L -103,-375 L -103,-376 L -104,-377 L -105,-377 L -104,-377 L -104,-378 L -105,-378 L -105,-379 L -104,-379 L -104,-380 L -104,-381 L -104,-382 L -104,-383 L -105,-383 L -105,-384 L -106,-385 L -107,-386 L -108,-386 L -108,-387 L -109,-387 L -109,-388 L -109,-389 L -113,-395 L -108,-400 L -107,-402 L -100,-416 L -89,-428 L -89,-429 L -90,-430 L -91,-430 L -92,-430 L -92,-431 L -93,-432 L -93,-433 L -94,-434 L -95,-434 L -95,-435 L -96,-436 L -96,-437 L -97,-437 L -97,-438 L -98,-439 L -98,-440 L -99,-440 L -99,-441 L -100,-441 L -101,-442 L -101,-443 L -101,-444 L -102,-445 L -103,-446 L -103,-447 L -104,-448 L -104,-449 L -105,-449 L -105,-451 L -105,-452 L -106,-453 L -107,-454 L -107,-455 L -107,-456 L -108,-456 L -108,-457 L -108,-458 L -108,-459 L -109,-459 L -109,-460 L -109,-461 L -109,-462 L -109,-463 L -110,-464 L -111,-464 L -111,-465 L -112,-466 L -112,-467 L -113,-468 L -113,-469 L -114,-469 L -114,-470 L -113,-471 L -112,-472 L -111,-472 L -110,-473 L -110,-474 L -109,-474 L -108,-474 L -107,-475 L -107,-476 L -106,-477 L -105,-478 L -105,-479 L -104,-479 L -104,-480 L -103,-480 L -102,-480 L -101,-481 L -100,-482 L -99,-481 L -99,-482 L -98,-482 L -97,-482 L -97,-481 L -96,-481 L -95,-481 L -94,-481 L -93,-481 L -93,-480 L -92,-480 L -91,-480 L -91,-479 L -90,-479 L -89,-479 L -88,-479 L -87,-479 L -86,-478 L -86,-479 L -85,-479 L -85,-480 L -84,-480 L -83,-480 L -82,-480 L -81,-480 L -80,-480 L -79,-480 L -79,-481 L -78,-481 L -77,-481 L -77,-482 L -76,-482 L -75,-482 L -74,-482 L -73,-482 L -73,-483 L -72,-483 L -71,-482 L -71,-481 L -72,-481 L -71,-480 L -71,-479 L -70,-478 L -70,-477 L -69,-477 L -68,-477 L -68,-476 L -68,-475 L -67,-475 L -66,-475 L -66,-476 L -65,-476 L -65,-475 L -64,-474 L -64,-473 L -63,-473 L -62,-473 L -61,-473 L -61,-474 L -60,-474 L -59,-474 L -58,-474 L -57,-475 L -56,-475 L -55,-475 L -55,-476 L -55,-477 L -54,-478 L -54,-479 L -53,-480 L -53,-482 L -53,-484 L -53,-485 L -52,-486 L -51,-486 L -50,-487 L -50,-488 L -50,-489 L -51,-490 L -51,-491 L -52,-492 L -52,-494 L -52,-495 L -53,-497 L -53,-499 L -53,-500 L -52,-502 L -51,-502 L -50,-502 L -49,-503 L -49,-504 L -49,-505 L -50,-505 L -50,-506 L -51,-506 L -52,-506 L -54,-506 L -55,-506 L -56,-506 L -56,-507 L -56,-508 L -55,-509 L -54,-509 L -53,-509 L -52,-509 L -51,-508 L -50,-508 L -49,-509 L -49,-510 L -49,-511 L -49,-512 L -50,-512 L -50,-513 L -51,-513 L -52,-513 L -53,-513 L -54,-513 L -55,-513 L -56,-514 L -56,-515 L -56,-516 L -55,-517 L -54,-517 L -53,-517 L -52,-517 L -51,-517 L -50,-517 L -49,-517 L -48,-516 L -48,-515 " /></g>
</svg>
