<?xml version="1.0" standalone="no"?><!DOCTYPE svg PUBLIC "-//W3C//DTD SVG 1.1//EN" "http://www.w3.org/Graphics/SVG/1.1/DTD/svg11.dtd"><svg xmlns="http://www.w3.org/2000/svg" viewBox="-436 -405 226 165" version = "1.1">
<g id="20601" ><path d="M -240,-365 L -233,-366 L -228,-366 L -222,-367 L -217,-362 L -216,-359 L -215,-359 L -215,-358 L -214,-358 L -213,-358 L -213,-357 L -212,-357 L -211,-357 L -210,-357 L -210,-356 L -211,-355 L -212,-354 L -213,-354 L -214,-353 L -215,-353 L -215,-352 L -216,-351 L -217,-351 L -217,-350 L -218,-349 L -219,-349 L -219,-348 L -220,-347 L -220,-346 L -221,-345 L -222,-345 L -222,-344 L -222,-343 L -222,-342 L -222,-341 L -223,-340 L -223,-339 L -223,-338 L -224,-337 L -224,-336 L -226,-334 L -227,-333 L -228,-332 L -228,-331 L -229,-331 L -230,-330 L -232,-330 L -233,-329 L -234,-328 L -235,-328 L -236,-328 L -237,-328 L -238,-328 L -239,-327 L -240,-327 L -241,-327 L -242,-326 L -242,-325 L -243,-324 L -243,-323 L -244,-322 L -244,-321 L -244,-320 L -246,-319 L -247,-318 L -249,-317 L -250,-317 L -251,-317 L -252,-316 L -253,-316 L -254,-315 L -255,-314 L -255,-313 L -255,-312 L -256,-311 L -256,-310 L -257,-310 L -257,-309 L -257,-308 L -257,-307 L -258,-307 L -259,-307 L -259,-306 L -260,-306 L -261,-306 L -262,-305 L -263,-305 L -265,-305 L -265,-304 L -267,-303 L -268,-303 L -270,-299 L -269,-298 L -268,-297 L -268,-296 L -268,-295 L -269,-295 L -269,-294 L -269,-293 L -269,-292 L -269,-291 L -270,-291 L -270,-290 L -269,-290 L -269,-289 L -269,-288 L -269,-287 L -269,-286 L -270,-286 L -270,-285 L -271,-285 L -271,-284 L -271,-280 L -271,-278 L -271,-277 L -272,-276 L -273,-276 L -274,-275 L -275,-274 L -276,-274 L -276,-272 L -276,-271 L -277,-270 L -278,-269 L -279,-269 L -280,-269 L -280,-268 L -281,-267 L -281,-266 L -282,-265 L -283,-265 L -283,-263 L -284,-262 L -285,-261 L -285,-260 L -284,-259 L -284,-258 L -285,-258 L -284,-257 L -284,-255 L -284,-254 L -283,-253 L -283,-252 L -284,-252 L -285,-252 L -286,-251 L -287,-251 L -288,-251 L -289,-251 L -291,-251 L -292,-250 L -293,-249 L -294,-248 L -295,-247 L -296,-246 L -297,-246 L -297,-245 L -299,-244 L -299,-243 L -299,-242 L -300,-241 L -301,-241 L -302,-240 L -304,-240 L -335,-243 L -350,-244 L -361,-245 L -368,-252 L -373,-252 L -383,-261 L -385,-264 L -385,-266 L -387,-267 L -388,-267 L -389,-270 L -393,-270 L -395,-272 L -398,-277 L -401,-282 L -402,-285 L -402,-287 L -400,-290 L -399,-291 L -398,-293 L -397,-294 L -395,-297 L -395,-298 L -395,-299 L -394,-299 L -394,-300 L -394,-301 L -394,-302 L -394,-303 L -395,-304 L -396,-304 L -397,-303 L -398,-303 L -399,-303 L -400,-303 L -400,-302 L -401,-302 L -401,-301 L -401,-300 L -402,-300 L -402,-299 L -402,-298 L -402,-297 L -404,-296 L -405,-296 L -405,-295 L -406,-295 L -407,-295 L -407,-296 L -408,-296 L -408,-295 L -409,-295 L -410,-295 L -411,-295 L -412,-295 L -412,-296 L -413,-296 L -414,-296 L -415,-296 L -416,-296 L -419,-296 L -421,-296 L -422,-296 L -423,-294 L -426,-293 L -427,-293 L -431,-290 L -431,-291 L -431,-292 L -431,-293 L -431,-294 L -431,-296 L -431,-298 L -432,-299 L -434,-302 L -436,-303 L -436,-304 L -435,-305 L -435,-306 L -434,-306 L -433,-307 L -433,-308 L -432,-308 L -432,-309 L -431,-309 L -431,-310 L -430,-310 L -429,-310 L -428,-311 L -427,-311 L -426,-311 L -426,-312 L -426,-313 L -425,-313 L -425,-314 L -425,-315 L -425,-316 L -424,-317 L -424,-318 L -423,-319 L -422,-320 L -422,-321 L -421,-321 L -421,-322 L -421,-323 L -421,-324 L -420,-324 L -419,-325 L -419,-326 L -419,-327 L -418,-327 L -418,-328 L -418,-329 L -417,-329 L -417,-330 L -417,-331 L -417,-332 L -417,-333 L -416,-333 L -416,-334 L -415,-334 L -415,-335 L -415,-336 L -414,-336 L -414,-337 L -413,-336 L -413,-337 L -413,-338 L -414,-339 L -414,-340 L -413,-340 L -413,-341 L -412,-341 L -411,-341 L -410,-341 L -409,-341 L -408,-341 L -407,-341 L -406,-341 L -405,-341 L -404,-341 L -404,-342 L -403,-342 L -402,-342 L -402,-341 L -401,-341 L -401,-340 L -400,-340 L -399,-339 L -398,-339 L -398,-338 L -397,-338 L -397,-337 L -396,-337 L -395,-336 L -394,-336 L -393,-337 L -392,-337 L -392,-338 L -391,-338 L -391,-337 L -390,-337 L -389,-337 L -389,-338 L -388,-338 L -387,-338 L -386,-338 L -385,-338 L -384,-338 L -383,-338 L -382,-338 L -381,-338 L -380,-337 L -379,-337 L -379,-338 L -378,-338 L -377,-338 L -376,-338 L -373,-335 L -371,-333 L -368,-332 L -361,-331 L -359,-331 L -352,-330 L -350,-333 L -352,-337 L -354,-345 L -355,-349 L -357,-351 L -360,-352 L -365,-360 L -365,-364 L -365,-365 L -365,-366 L -366,-367 L -366,-368 L -366,-369 L -367,-369 L -367,-370 L -367,-371 L -368,-371 L -368,-372 L -368,-373 L -369,-373 L -368,-374 L -369,-374 L -368,-375 L -368,-376 L -368,-377 L -368,-378 L -367,-378 L -367,-379 L -366,-380 L -366,-381 L -365,-381 L -365,-382 L -365,-383 L -364,-383 L -364,-384 L -363,-384 L -363,-385 L -363,-384 L -363,-383 L -363,-382 L -362,-382 L -361,-381 L -360,-381 L -360,-380 L -359,-380 L -358,-380 L -358,-379 L -358,-378 L -357,-378 L -357,-377 L -356,-377 L -356,-376 L -356,-375 L -355,-375 L -355,-374 L -354,-374 L -353,-373 L -353,-372 L -353,-371 L -352,-371 L -351,-371 L -350,-372 L -350,-373 L -349,-373 L -349,-374 L -348,-374 L -348,-375 L -347,-376 L -347,-378 L -345,-379 L -343,-380 L -342,-381 L -341,-382 L -339,-391 L -338,-394 L -336,-396 L -334,-399 L -331,-403 L -330,-404 L -329,-405 L -327,-405 L -315,-393 L -311,-399 L -301,-393 L -296,-393 L -296,-392 L -296,-391 L -297,-391 L -297,-390 L -297,-389 L -297,-388 L -297,-387 L -296,-387 L -296,-386 L -296,-385 L -296,-384 L -296,-383 L -296,-382 L -295,-382 L -295,-381 L -296,-381 L -296,-380 L -296,-379 L -296,-378 L -296,-377 L -296,-376 L -295,-376 L -295,-375 L -295,-374 L -294,-373 L -294,-372 L -294,-371 L -294,-370 L -281,-358 L -266,-344 L -259,-346 L -255,-349 L -240,-365 " /></g>
</svg>
