<?xml version="1.0" standalone="no"?><!DOCTYPE svg PUBLIC "-//W3C//DTD SVG 1.1//EN" "http://www.w3.org/Graphics/SVG/1.1/DTD/svg11.dtd"><svg xmlns="http://www.w3.org/2000/svg" viewBox="-327 -513 151 169" version = "1.1">
<g id="20607" ><path d="M -255,-512 L -255,-511 L -255,-512 L -254,-512 L -253,-512 L -253,-511 L -252,-511 L -252,-510 L -251,-511 L -250,-511 L -251,-511 L -251,-510 L -250,-510 L -250,-509 L -249,-509 L -248,-509 L -248,-508 L -247,-508 L -246,-508 L -246,-507 L -246,-506 L -245,-506 L -245,-507 L -244,-507 L -244,-506 L -243,-506 L -243,-505 L -242,-505 L -242,-504 L -242,-503 L -241,-503 L -241,-502 L -240,-502 L -239,-502 L -238,-502 L -237,-502 L -237,-503 L -236,-503 L -236,-504 L -237,-504 L -237,-503 L -237,-504 L -238,-505 L -238,-506 L -239,-506 L -238,-506 L -238,-507 L -238,-508 L -238,-507 L -237,-507 L -237,-508 L -236,-508 L -235,-508 L -235,-509 L -235,-508 L -234,-508 L -234,-507 L -233,-507 L -232,-507 L -231,-507 L -230,-507 L -229,-507 L -229,-506 L -228,-506 L -227,-506 L -226,-506 L -225,-506 L -225,-505 L -224,-505 L -223,-505 L -223,-504 L -223,-503 L -222,-503 L -222,-502 L -222,-501 L -221,-501 L -221,-500 L -220,-500 L -220,-499 L -219,-499 L -219,-498 L -219,-497 L -219,-496 L -220,-495 L -219,-495 L -219,-494 L -218,-495 L -217,-495 L -217,-494 L -217,-493 L -218,-493 L -217,-493 L -217,-492 L -218,-492 L -218,-491 L -219,-491 L -219,-490 L -218,-489 L -217,-488 L -218,-488 L -218,-487 L -217,-487 L -217,-486 L -216,-486 L -215,-486 L -215,-485 L -214,-485 L -215,-485 L -215,-484 L -214,-484 L -213,-484 L -213,-483 L -213,-482 L -212,-482 L -212,-481 L -211,-481 L -211,-480 L -210,-480 L -209,-480 L -209,-479 L -208,-479 L -208,-478 L -207,-478 L -207,-477 L -206,-477 L -206,-476 L -205,-476 L -204,-476 L -203,-476 L -203,-475 L -202,-475 L -201,-475 L -201,-474 L -200,-474 L -200,-475 L -199,-475 L -198,-475 L -198,-474 L -198,-473 L -197,-473 L -197,-472 L -196,-472 L -195,-472 L -195,-471 L -194,-471 L -193,-471 L -193,-470 L -193,-469 L -192,-469 L -192,-468 L -191,-468 L -191,-467 L -190,-467 L -190,-468 L -189,-467 L -189,-466 L -188,-466 L -188,-465 L -187,-464 L -187,-463 L -186,-463 L -186,-462 L -186,-461 L -185,-461 L -185,-460 L -184,-460 L -184,-459 L -184,-458 L -183,-458 L -183,-457 L -183,-456 L -183,-455 L -183,-454 L -182,-454 L -183,-454 L -183,-453 L -182,-453 L -182,-452 L -182,-451 L -183,-451 L -184,-451 L -184,-450 L -183,-450 L -183,-449 L -182,-449 L -182,-448 L -182,-447 L -181,-447 L -181,-446 L -181,-445 L -180,-445 L -180,-444 L -179,-444 L -179,-443 L -179,-442 L -180,-441 L -181,-441 L -181,-440 L -181,-439 L -180,-438 L -180,-437 L -179,-436 L -180,-436 L -179,-435 L -178,-435 L -177,-435 L -176,-434 L -176,-433 L -176,-432 L -177,-432 L -177,-431 L -178,-431 L -178,-430 L -177,-430 L -176,-430 L -176,-429 L -177,-428 L -178,-427 L -179,-426 L -179,-427 L -180,-427 L -181,-427 L -181,-428 L -182,-428 L -182,-427 L -182,-426 L -182,-425 L -183,-425 L -184,-425 L -185,-425 L -186,-425 L -186,-424 L -185,-424 L -185,-423 L -184,-423 L -183,-423 L -183,-424 L -182,-424 L -181,-424 L -181,-423 L -181,-422 L -181,-421 L -181,-420 L -180,-420 L -180,-419 L -179,-419 L -179,-418 L -180,-418 L -180,-417 L -180,-418 L -180,-417 L -181,-417 L -181,-418 L -182,-417 L -181,-417 L -181,-416 L -180,-417 L -180,-416 L -180,-415 L -179,-415 L -180,-415 L -180,-414 L -181,-414 L -181,-415 L -181,-414 L -182,-414 L -182,-413 L -182,-412 L -182,-411 L -182,-410 L -183,-410 L -183,-409 L -184,-409 L -184,-408 L -183,-408 L -183,-407 L -182,-407 L -182,-406 L -182,-405 L -181,-405 L -181,-404 L -182,-404 L -181,-403 L -180,-403 L -180,-402 L -179,-402 L -179,-401 L -179,-400 L -180,-400 L -180,-399 L -180,-398 L -181,-398 L -182,-398 L -182,-397 L -182,-396 L -182,-395 L -182,-394 L -183,-393 L -182,-393 L -183,-393 L -182,-393 L -182,-392 L -182,-391 L -183,-391 L -183,-390 L -184,-390 L -184,-389 L -184,-388 L -184,-387 L -183,-387 L -184,-387 L -184,-386 L -184,-385 L -183,-385 L -184,-385 L -185,-385 L -185,-384 L -186,-384 L -186,-383 L -187,-383 L -186,-383 L -187,-383 L -188,-383 L -187,-384 L -188,-384 L -188,-383 L -189,-383 L -189,-384 L -190,-384 L -190,-383 L -190,-384 L -191,-384 L -190,-384 L -190,-385 L -190,-386 L -190,-387 L -191,-387 L -191,-388 L -191,-389 L -191,-388 L -192,-388 L -193,-388 L -193,-389 L -194,-389 L -194,-390 L -195,-391 L -195,-390 L -196,-390 L -197,-390 L -197,-391 L -198,-391 L -198,-390 L -199,-390 L -200,-390 L -200,-391 L -201,-391 L -201,-390 L -202,-390 L -202,-391 L -202,-390 L -203,-390 L -204,-390 L -203,-390 L -203,-389 L -204,-389 L -205,-389 L -205,-390 L -206,-390 L -206,-391 L -206,-390 L -207,-390 L -208,-390 L -209,-390 L -209,-391 L -209,-392 L -209,-393 L -210,-393 L -211,-393 L -212,-393 L -213,-393 L -212,-393 L -212,-394 L -213,-394 L -214,-394 L -214,-393 L -215,-393 L -216,-393 L -217,-393 L -218,-393 L -218,-392 L -218,-391 L -219,-391 L -218,-391 L -218,-390 L -219,-390 L -220,-390 L -219,-390 L -219,-389 L -220,-389 L -220,-388 L -221,-388 L -221,-387 L -221,-386 L -222,-386 L -222,-385 L -223,-385 L -223,-384 L -224,-384 L -224,-383 L -225,-383 L -225,-382 L -226,-382 L -226,-381 L -227,-381 L -227,-380 L -227,-379 L -228,-379 L -229,-378 L -229,-377 L -230,-377 L -231,-376 L -231,-375 L -231,-374 L -231,-373 L -232,-373 L -232,-372 L -233,-372 L -233,-371 L -233,-370 L -234,-370 L -234,-371 L -235,-371 L -235,-370 L -236,-370 L -236,-369 L -237,-368 L -237,-367 L -238,-367 L -238,-366 L -239,-366 L -239,-365 L -240,-365 L -255,-349 L -259,-346 L -266,-344 L -281,-358 L -294,-370 L -294,-371 L -294,-372 L -294,-373 L -295,-374 L -295,-375 L -295,-376 L -296,-376 L -296,-377 L -296,-378 L -296,-379 L -296,-380 L -296,-381 L -295,-381 L -295,-382 L -296,-382 L -296,-383 L -296,-384 L -296,-385 L -296,-386 L -296,-387 L -297,-387 L -297,-388 L -297,-389 L -297,-390 L -297,-391 L -296,-391 L -296,-392 L -296,-393 L -301,-393 L -311,-399 L -315,-393 L -327,-405 L -327,-406 L -324,-410 L -322,-411 L -323,-414 L -320,-416 L -320,-415 L -320,-414 L -319,-414 L -318,-414 L -317,-414 L -316,-414 L -316,-415 L -315,-415 L -314,-415 L -314,-416 L -315,-416 L -315,-417 L -314,-417 L -315,-417 L -314,-417 L -314,-418 L -313,-417 L -313,-418 L -312,-418 L -312,-419 L -312,-420 L -313,-420 L -312,-420 L -312,-421 L -312,-422 L -311,-423 L -312,-423 L -312,-424 L -311,-424 L -311,-425 L -310,-425 L -310,-426 L -311,-426 L -310,-426 L -309,-426 L -309,-427 L -309,-428 L -309,-429 L -310,-429 L -309,-429 L -308,-429 L -308,-430 L -309,-431 L -308,-431 L -308,-432 L -307,-432 L -307,-433 L -307,-434 L -307,-435 L -306,-435 L -306,-436 L -306,-437 L -305,-437 L -305,-436 L -305,-437 L -305,-438 L -304,-437 L -304,-438 L -303,-438 L -303,-439 L -302,-439 L -302,-440 L -302,-441 L -301,-441 L -301,-442 L -301,-443 L -300,-443 L -300,-444 L -299,-444 L -300,-445 L -299,-445 L -300,-445 L -300,-446 L -299,-446 L -299,-447 L -298,-447 L -298,-448 L -297,-448 L -296,-449 L -296,-448 L -296,-449 L -295,-449 L -294,-449 L -294,-448 L -293,-448 L -293,-449 L -292,-449 L -292,-450 L -291,-450 L -291,-449 L -291,-450 L -290,-450 L -290,-451 L -289,-451 L -288,-451 L -287,-451 L -286,-451 L -285,-451 L -285,-452 L -284,-452 L -283,-452 L -283,-453 L -283,-454 L -282,-454 L -283,-454 L -283,-455 L -282,-455 L -282,-454 L -281,-454 L -280,-454 L -279,-454 L -278,-454 L -277,-454 L -276,-455 L -275,-455 L -274,-455 L -273,-455 L -272,-455 L -271,-455 L -270,-455 L -270,-454 L -269,-454 L -268,-455 L -267,-455 L -266,-455 L -265,-455 L -264,-455 L -263,-455 L -262,-455 L -261,-454 L -260,-454 L -259,-454 L -258,-454 L -257,-455 L -256,-455 L -256,-456 L -255,-456 L -254,-457 L -253,-457 L -252,-456 L -251,-456 L -250,-456 L -249,-457 L -250,-457 L -251,-457 L -252,-458 L -253,-458 L -254,-458 L -254,-459 L -255,-460 L -255,-461 L -256,-462 L -257,-461 L -258,-461 L -258,-462 L -258,-463 L -258,-464 L -259,-465 L -260,-466 L -260,-467 L -260,-468 L -260,-469 L -260,-470 L -261,-469 L -262,-469 L -262,-470 L -262,-471 L -263,-471 L -263,-472 L -262,-472 L -262,-473 L -263,-473 L -263,-472 L -264,-472 L -265,-472 L -265,-473 L -265,-474 L -265,-475 L -266,-475 L -267,-475 L -268,-475 L -269,-475 L -269,-474 L -269,-475 L -270,-475 L -270,-476 L -271,-476 L -272,-475 L -273,-475 L -273,-476 L -272,-476 L -273,-476 L -274,-476 L -274,-477 L -274,-478 L -275,-478 L -275,-477 L -276,-477 L -277,-478 L -277,-479 L -278,-479 L -279,-479 L -279,-478 L -280,-478 L -281,-478 L -281,-479 L -282,-479 L -283,-479 L -283,-480 L -284,-480 L -285,-480 L -285,-479 L -286,-479 L -286,-480 L -287,-480 L -287,-481 L -287,-480 L -288,-480 L -289,-480 L -290,-480 L -291,-480 L -292,-479 L -293,-479 L -295,-478 L -296,-478 L -297,-479 L -296,-479 L -296,-480 L -295,-480 L -295,-481 L -296,-482 L -296,-483 L -296,-484 L -295,-485 L -294,-486 L -294,-487 L -293,-488 L -292,-490 L -293,-492 L -293,-493 L -293,-492 L -292,-492 L -292,-493 L -292,-494 L -291,-494 L -290,-494 L -289,-494 L -289,-495 L -288,-495 L -287,-495 L -287,-496 L -287,-497 L -287,-498 L -286,-498 L -286,-499 L -285,-499 L -285,-500 L -285,-499 L -284,-499 L -284,-500 L -285,-500 L -285,-501 L -284,-501 L -284,-502 L -284,-503 L -284,-502 L -283,-502 L -283,-503 L -282,-503 L -281,-503 L -282,-504 L -281,-504 L -282,-504 L -282,-505 L -281,-505 L -280,-505 L -279,-505 L -279,-504 L -278,-504 L -278,-505 L -277,-505 L -277,-506 L -277,-505 L -276,-505 L -276,-504 L -275,-504 L -275,-505 L -274,-505 L -273,-505 L -273,-504 L -272,-504 L -272,-505 L -271,-505 L -270,-505 L -269,-505 L -269,-506 L -270,-506 L -270,-507 L -269,-507 L -268,-507 L -267,-507 L -266,-507 L -265,-507 L -265,-508 L -264,-508 L -264,-509 L -265,-509 L -265,-510 L -265,-511 L -264,-511 L -264,-510 L -263,-510 L -262,-510 L -262,-511 L -261,-511 L -260,-510 L -260,-511 L -260,-512 L -259,-512 L -258,-512 L -257,-513 L -257,-512 L -256,-512 L -255,-512 " /></g>
</svg>
