<?xml version="1.0" standalone="no"?><!DOCTYPE svg PUBLIC "-//W3C//DTD SVG 1.1//EN" "http://www.w3.org/Graphics/SVG/1.1/DTD/svg11.dtd"><svg xmlns="http://www.w3.org/2000/svg" viewBox="-335 -470 284 286" version = "1.1">
<g id="20602" ><path d="M -52,-307 L -52,-306 L -53,-306 L -54,-305 L -56,-306 L -61,-305 L -62,-305 L -62,-304 L -62,-303 L -62,-302 L -61,-302 L -62,-302 L -62,-301 L -63,-300 L -62,-300 L -63,-300 L -64,-300 L -65,-300 L -65,-299 L -65,-300 L -66,-300 L -67,-300 L -67,-299 L -67,-298 L -66,-297 L -66,-296 L -66,-295 L -66,-294 L -65,-294 L -65,-293 L -66,-293 L -67,-293 L -68,-293 L -69,-293 L -70,-292 L -71,-292 L -78,-292 L -79,-292 L -80,-292 L -81,-292 L -82,-292 L -82,-293 L -83,-293 L -84,-293 L -85,-293 L -85,-294 L -86,-294 L -87,-294 L -88,-294 L -88,-293 L -89,-294 L -90,-294 L -90,-293 L -91,-293 L -91,-294 L -92,-294 L -93,-294 L -94,-294 L -95,-294 L -95,-293 L -96,-293 L -96,-292 L -98,-290 L -98,-289 L -101,-285 L -114,-256 L -120,-246 L -124,-237 L -124,-236 L -124,-235 L -122,-231 L -122,-230 L -123,-230 L -123,-229 L -123,-228 L -124,-228 L -125,-227 L -125,-226 L -126,-226 L -126,-225 L -126,-224 L -127,-223 L -128,-222 L -128,-221 L -128,-220 L -129,-220 L -129,-219 L -130,-219 L -131,-219 L -131,-218 L -132,-218 L -132,-217 L -133,-217 L -133,-218 L -133,-217 L -134,-217 L -135,-217 L -136,-217 L -137,-217 L -137,-216 L -137,-215 L -138,-215 L -139,-215 L -139,-214 L -139,-213 L -139,-212 L -139,-211 L -140,-211 L -140,-210 L -141,-210 L -141,-209 L -141,-208 L -142,-208 L -143,-207 L -143,-208 L -144,-208 L -145,-207 L -146,-207 L -146,-208 L -147,-208 L -147,-209 L -148,-209 L -149,-209 L -149,-208 L -150,-208 L -151,-207 L -152,-207 L -153,-207 L -154,-207 L -155,-207 L -156,-207 L -156,-206 L -157,-206 L -158,-206 L -159,-206 L -160,-206 L -161,-206 L -162,-206 L -163,-206 L -164,-206 L -165,-206 L -166,-206 L -166,-207 L -167,-207 L -168,-206 L -168,-205 L -168,-204 L -167,-204 L -168,-203 L -169,-203 L -170,-203 L -171,-203 L -171,-202 L -171,-203 L -172,-203 L -173,-203 L -174,-203 L -175,-204 L -176,-204 L -177,-204 L -178,-205 L -179,-205 L -180,-205 L -181,-206 L -182,-206 L -183,-207 L -184,-207 L -185,-208 L -186,-206 L -188,-205 L -189,-205 L -190,-205 L -190,-206 L -191,-206 L -192,-206 L -193,-206 L -194,-206 L -194,-207 L -195,-207 L -195,-208 L -196,-207 L -197,-207 L -198,-207 L -199,-207 L -199,-208 L -200,-208 L -201,-208 L -201,-209 L -201,-208 L -202,-208 L -202,-207 L -202,-206 L -202,-205 L -203,-205 L -204,-205 L -207,-205 L -207,-204 L -208,-204 L -208,-205 L -208,-204 L -209,-204 L -209,-203 L -210,-203 L -211,-203 L -212,-202 L -213,-202 L -213,-201 L -214,-201 L -214,-202 L -215,-202 L -215,-203 L -215,-204 L -215,-205 L -216,-205 L -216,-206 L -217,-206 L -220,-204 L -221,-203 L -229,-203 L -229,-202 L -228,-202 L -228,-201 L -228,-200 L -229,-200 L -230,-200 L -230,-199 L -231,-199 L -231,-198 L -231,-197 L -231,-196 L -232,-196 L -232,-195 L -232,-194 L -233,-194 L -233,-193 L -233,-192 L -237,-189 L -240,-184 L -241,-185 L -245,-193 L -250,-197 L -256,-200 L -265,-205 L -274,-208 L -281,-212 L -282,-218 L -283,-219 L -286,-222 L -288,-223 L -289,-225 L -289,-227 L -291,-228 L -292,-229 L -293,-229 L -295,-230 L -296,-231 L -297,-229 L -297,-228 L -298,-227 L -299,-226 L -299,-223 L -299,-222 L -301,-218 L -304,-218 L -305,-218 L -306,-217 L -308,-217 L -310,-217 L -314,-217 L -315,-216 L -316,-216 L -317,-215 L -319,-215 L -321,-216 L -324,-215 L -325,-215 L -325,-216 L -326,-216 L -327,-216 L -324,-221 L -325,-222 L -326,-224 L -326,-225 L -326,-226 L -326,-227 L -325,-228 L -324,-230 L -324,-232 L -330,-238 L -335,-243 L -304,-240 L -302,-240 L -301,-241 L -300,-241 L -299,-242 L -299,-243 L -299,-244 L -297,-245 L -297,-246 L -296,-246 L -295,-247 L -294,-248 L -293,-249 L -292,-250 L -291,-251 L -289,-251 L -288,-251 L -287,-251 L -286,-251 L -285,-252 L -284,-252 L -283,-252 L -283,-253 L -284,-254 L -284,-255 L -284,-257 L -285,-258 L -284,-258 L -284,-259 L -285,-260 L -285,-261 L -284,-262 L -283,-263 L -283,-265 L -282,-265 L -281,-266 L -281,-267 L -280,-268 L -280,-269 L -279,-269 L -278,-269 L -277,-270 L -276,-271 L -276,-272 L -276,-274 L -275,-274 L -274,-275 L -273,-276 L -272,-276 L -271,-277 L -271,-278 L -271,-280 L -271,-284 L -271,-285 L -270,-285 L -270,-286 L -269,-286 L -269,-287 L -269,-288 L -269,-289 L -269,-290 L -270,-290 L -270,-291 L -269,-291 L -269,-292 L -269,-293 L -269,-294 L -269,-295 L -268,-295 L -268,-296 L -268,-297 L -269,-298 L -270,-299 L -268,-303 L -267,-303 L -265,-304 L -265,-305 L -263,-305 L -262,-305 L -261,-306 L -260,-306 L -259,-306 L -259,-307 L -258,-307 L -257,-307 L -257,-308 L -257,-309 L -257,-310 L -256,-310 L -256,-311 L -255,-312 L -255,-313 L -255,-314 L -254,-315 L -253,-316 L -252,-316 L -251,-317 L -250,-317 L -249,-317 L -247,-318 L -246,-319 L -244,-320 L -244,-321 L -244,-322 L -243,-323 L -243,-324 L -242,-325 L -242,-326 L -241,-327 L -240,-327 L -239,-327 L -238,-328 L -237,-328 L -236,-328 L -235,-328 L -234,-328 L -233,-329 L -232,-330 L -230,-330 L -229,-331 L -228,-331 L -228,-332 L -227,-333 L -226,-334 L -224,-336 L -210,-338 L -206,-340 L -202,-340 L -198,-339 L -196,-340 L -195,-341 L -192,-341 L -189,-339 L -186,-339 L -183,-340 L -183,-341 L -181,-342 L -179,-343 L -179,-345 L -179,-346 L -178,-346 L -177,-347 L -175,-347 L -174,-349 L -173,-349 L -172,-350 L -166,-350 L -164,-350 L -160,-349 L -155,-351 L -152,-354 L -145,-360 L -140,-362 L -140,-363 L -139,-364 L -140,-364 L -140,-365 L -140,-366 L -141,-366 L -141,-367 L -140,-367 L -141,-367 L -140,-367 L -140,-368 L -139,-368 L -139,-369 L -138,-369 L -138,-370 L -138,-371 L -137,-371 L -137,-372 L -137,-373 L -136,-374 L -136,-375 L -137,-375 L -138,-376 L -138,-377 L -139,-379 L -140,-381 L -140,-383 L -140,-384 L -146,-385 L -148,-384 L -152,-381 L -154,-380 L -155,-381 L -155,-382 L -157,-383 L -159,-383 L -161,-383 L -163,-386 L -171,-380 L -173,-378 L -178,-376 L -180,-375 L -180,-373 L -180,-372 L -182,-372 L -183,-371 L -184,-372 L -185,-372 L -188,-372 L -189,-373 L -190,-372 L -192,-371 L -193,-370 L -194,-370 L -195,-368 L -198,-368 L -200,-368 L -201,-370 L -202,-372 L -203,-373 L -204,-373 L -205,-373 L -206,-372 L -207,-372 L -207,-371 L -209,-370 L -210,-370 L -212,-369 L -212,-368 L -212,-367 L -212,-364 L -213,-363 L -215,-363 L -217,-362 L -222,-367 L -228,-366 L -233,-366 L -240,-365 L -239,-365 L -239,-366 L -238,-366 L -238,-367 L -237,-367 L -237,-368 L -236,-369 L -236,-370 L -235,-370 L -235,-371 L -234,-371 L -234,-370 L -233,-370 L -233,-371 L -233,-372 L -232,-372 L -232,-373 L -231,-373 L -231,-374 L -231,-375 L -231,-376 L -230,-377 L -229,-377 L -229,-378 L -228,-379 L -227,-379 L -227,-380 L -227,-381 L -226,-381 L -226,-382 L -225,-382 L -225,-383 L -224,-383 L -224,-384 L -223,-384 L -223,-385 L -222,-385 L -222,-386 L -221,-386 L -221,-387 L -221,-388 L -220,-388 L -220,-389 L -219,-389 L -219,-390 L -220,-390 L -219,-390 L -218,-390 L -218,-391 L -219,-391 L -218,-391 L -218,-392 L -218,-393 L -217,-393 L -216,-393 L -215,-393 L -214,-393 L -214,-394 L -213,-394 L -212,-394 L -212,-393 L -213,-393 L -212,-393 L -211,-393 L -210,-393 L -209,-393 L -209,-392 L -209,-391 L -209,-390 L -208,-390 L -207,-390 L -206,-390 L -206,-391 L -206,-390 L -205,-390 L -205,-389 L -204,-389 L -203,-389 L -203,-390 L -204,-390 L -203,-390 L -202,-390 L -202,-391 L -202,-390 L -201,-390 L -201,-391 L -200,-391 L -200,-390 L -199,-390 L -198,-390 L -198,-391 L -197,-391 L -197,-390 L -196,-390 L -195,-390 L -195,-391 L -194,-390 L -194,-389 L -193,-389 L -193,-388 L -192,-388 L -191,-388 L -191,-389 L -191,-388 L -191,-387 L -190,-387 L -190,-386 L -190,-385 L -190,-384 L -191,-384 L -190,-384 L -190,-383 L -190,-384 L -189,-384 L -189,-383 L -188,-383 L -188,-384 L -187,-384 L -188,-383 L -187,-383 L -186,-383 L -187,-383 L -186,-383 L -186,-384 L -185,-384 L -185,-385 L -184,-385 L -183,-385 L -184,-385 L -184,-386 L -184,-387 L -183,-387 L -184,-387 L -184,-388 L -184,-389 L -184,-390 L -183,-390 L -183,-391 L -182,-391 L -182,-392 L -182,-393 L -183,-393 L -182,-393 L -183,-393 L -182,-394 L -182,-395 L -182,-396 L -182,-397 L -182,-398 L -181,-398 L -180,-398 L -180,-399 L -180,-400 L -179,-400 L -179,-401 L -179,-402 L -180,-402 L -180,-403 L -181,-403 L -182,-404 L -181,-404 L -181,-405 L -182,-405 L -182,-406 L -182,-407 L -183,-407 L -183,-408 L -184,-408 L -184,-409 L -183,-409 L -183,-410 L -182,-410 L -182,-411 L -182,-412 L -182,-413 L -182,-414 L -181,-414 L -181,-415 L -181,-414 L -180,-414 L -180,-415 L -179,-415 L -180,-415 L -180,-416 L -180,-417 L -181,-416 L -181,-417 L -182,-417 L -181,-418 L -181,-417 L -180,-417 L -180,-418 L -180,-417 L -180,-418 L -179,-418 L -179,-419 L -180,-419 L -180,-420 L -181,-420 L -181,-421 L -181,-422 L -181,-423 L -181,-424 L -182,-424 L -183,-424 L -183,-423 L -184,-423 L -185,-423 L -185,-424 L -186,-424 L -186,-425 L -185,-425 L -184,-425 L -183,-425 L -182,-425 L -182,-426 L -182,-427 L -182,-428 L -181,-428 L -181,-427 L -180,-427 L -179,-427 L -179,-426 L -178,-427 L -177,-428 L -176,-429 L -176,-430 L -177,-430 L -178,-430 L -178,-431 L -177,-431 L -177,-432 L -176,-432 L -176,-433 L -176,-434 L -177,-435 L -178,-435 L -179,-435 L -180,-436 L -179,-436 L -180,-437 L -180,-438 L -181,-439 L -181,-440 L -181,-441 L -180,-441 L -179,-442 L -179,-443 L -179,-444 L -180,-444 L -180,-445 L -181,-445 L -181,-446 L -180,-446 L -179,-448 L -178,-450 L -177,-453 L -172,-457 L -157,-461 L -144,-465 L -132,-467 L -114,-470 L -114,-469 L -113,-469 L -113,-468 L -112,-467 L -112,-466 L -111,-465 L -111,-464 L -110,-464 L -109,-463 L -109,-462 L -109,-461 L -109,-460 L -109,-459 L -108,-459 L -108,-458 L -108,-457 L -108,-456 L -107,-456 L -107,-455 L -107,-454 L -106,-453 L -105,-452 L -105,-451 L -105,-449 L -104,-449 L -104,-448 L -103,-447 L -103,-446 L -102,-445 L -101,-444 L -101,-443 L -101,-442 L -100,-441 L -99,-441 L -99,-440 L -98,-440 L -98,-439 L -97,-438 L -97,-437 L -96,-437 L -96,-436 L -95,-435 L -95,-434 L -94,-434 L -93,-433 L -93,-432 L -92,-431 L -92,-430 L -91,-430 L -90,-430 L -89,-429 L -89,-428 L -100,-416 L -107,-402 L -108,-400 L -113,-395 L -109,-389 L -109,-388 L -109,-387 L -108,-387 L -108,-386 L -107,-386 L -106,-385 L -105,-384 L -105,-383 L -104,-383 L -104,-382 L -104,-381 L -104,-380 L -104,-379 L -105,-379 L -105,-378 L -104,-378 L -104,-377 L -105,-377 L -104,-377 L -103,-376 L -103,-375 L -103,-374 L -102,-374 L -102,-373 L -101,-373 L -101,-372 L -100,-372 L -99,-372 L -99,-371 L -98,-371 L -97,-370 L -97,-369 L -96,-369 L -95,-368 L -94,-368 L -94,-367 L -94,-366 L -93,-366 L -93,-365 L -92,-364 L -92,-363 L -91,-363 L -91,-362 L -90,-362 L -90,-361 L -89,-360 L -88,-360 L -88,-359 L -89,-359 L -89,-358 L -89,-357 L -88,-357 L -88,-356 L -87,-355 L -86,-355 L -85,-354 L -84,-353 L -83,-353 L -83,-352 L -82,-352 L -81,-352 L -81,-351 L -80,-351 L -80,-350 L -80,-349 L -79,-349 L -79,-348 L -79,-347 L -80,-347 L -80,-346 L -81,-346 L -81,-345 L -80,-345 L -80,-344 L -79,-344 L -79,-345 L -78,-345 L -77,-345 L -77,-344 L -76,-344 L -76,-343 L -75,-343 L -74,-343 L -73,-343 L -73,-342 L -73,-341 L -73,-340 L -72,-340 L -72,-341 L -72,-340 L -71,-340 L -71,-339 L -71,-338 L -70,-338 L -69,-338 L -69,-339 L -68,-339 L -68,-338 L -67,-337 L -67,-336 L -66,-336 L -66,-335 L -65,-335 L -65,-334 L -64,-334 L -64,-333 L -64,-332 L -64,-331 L -63,-331 L -63,-332 L -63,-333 L -62,-333 L -62,-332 L -61,-332 L -61,-331 L -62,-331 L -62,-330 L -61,-329 L -60,-328 L -59,-328 L -58,-328 L -57,-327 L -57,-326 L -57,-325 L -57,-324 L -56,-324 L -56,-323 L -56,-322 L -56,-321 L -55,-321 L -54,-320 L -54,-319 L -54,-318 L -53,-318 L -52,-317 L -52,-316 L -52,-315 L -51,-314 L -52,-314 L -52,-313 L -53,-313 L -53,-312 L -53,-311 L -52,-311 L -52,-310 L -52,-309 L -51,-309 L -51,-308 L -52,-307 " /></g>
</svg>
