<?xml version="1.0" standalone="no"?><!DOCTYPE svg PUBLIC "-//W3C//DTD SVG 1.1//EN" "http://www.w3.org/Graphics/SVG/1.1/DTD/svg11.dtd"><svg xmlns="http://www.w3.org/2000/svg" viewBox="-395 -492 146 162" version = "1.1">
<g id="20603" ><path d="M -297,-479 L -296,-478 L -295,-478 L -293,-479 L -292,-479 L -291,-480 L -290,-480 L -289,-480 L -288,-480 L -287,-480 L -287,-481 L -287,-480 L -286,-480 L -286,-479 L -285,-479 L -285,-480 L -284,-480 L -283,-480 L -283,-479 L -282,-479 L -281,-479 L -281,-478 L -280,-478 L -279,-478 L -279,-479 L -278,-479 L -277,-479 L -277,-478 L -276,-477 L -275,-477 L -275,-478 L -274,-478 L -274,-477 L -274,-476 L -273,-476 L -272,-476 L -273,-476 L -273,-475 L -272,-475 L -271,-476 L -270,-476 L -270,-475 L -269,-475 L -269,-474 L -269,-475 L -268,-475 L -267,-475 L -266,-475 L -265,-475 L -265,-474 L -265,-473 L -265,-472 L -264,-472 L -263,-472 L -263,-473 L -262,-473 L -262,-472 L -263,-472 L -263,-471 L -262,-471 L -262,-470 L -262,-469 L -261,-469 L -260,-470 L -260,-469 L -260,-468 L -260,-467 L -260,-466 L -259,-465 L -258,-464 L -258,-463 L -258,-462 L -258,-461 L -257,-461 L -256,-462 L -255,-461 L -255,-460 L -254,-459 L -254,-458 L -253,-458 L -252,-458 L -251,-457 L -250,-457 L -249,-457 L -250,-456 L -251,-456 L -252,-456 L -253,-457 L -254,-457 L -255,-456 L -256,-456 L -256,-455 L -257,-455 L -258,-454 L -259,-454 L -260,-454 L -261,-454 L -262,-455 L -263,-455 L -264,-455 L -265,-455 L -266,-455 L -267,-455 L -268,-455 L -269,-454 L -270,-454 L -270,-455 L -271,-455 L -272,-455 L -273,-455 L -274,-455 L -275,-455 L -276,-455 L -277,-454 L -278,-454 L -279,-454 L -280,-454 L -281,-454 L -282,-454 L -282,-455 L -283,-455 L -283,-454 L -282,-454 L -283,-454 L -283,-453 L -283,-452 L -284,-452 L -285,-452 L -285,-451 L -286,-451 L -287,-451 L -288,-451 L -289,-451 L -290,-451 L -290,-450 L -291,-450 L -291,-449 L -291,-450 L -292,-450 L -292,-449 L -293,-449 L -293,-448 L -294,-448 L -294,-449 L -295,-449 L -296,-449 L -296,-448 L -296,-449 L -297,-448 L -298,-448 L -298,-447 L -299,-447 L -299,-446 L -300,-446 L -300,-445 L -299,-445 L -300,-445 L -299,-444 L -300,-444 L -300,-443 L -301,-443 L -301,-442 L -301,-441 L -302,-441 L -302,-440 L -302,-439 L -303,-439 L -303,-438 L -304,-438 L -304,-437 L -305,-438 L -305,-437 L -305,-436 L -305,-437 L -306,-437 L -306,-436 L -306,-435 L -307,-435 L -307,-434 L -307,-433 L -307,-432 L -308,-432 L -308,-431 L -309,-431 L -308,-430 L -308,-429 L -309,-429 L -310,-429 L -309,-429 L -309,-428 L -309,-427 L -309,-426 L -310,-426 L -311,-426 L -310,-426 L -310,-425 L -311,-425 L -311,-424 L -312,-424 L -312,-423 L -311,-423 L -312,-422 L -312,-421 L -312,-420 L -313,-420 L -312,-420 L -312,-419 L -312,-418 L -313,-418 L -313,-417 L -314,-418 L -314,-417 L -315,-417 L -314,-417 L -315,-417 L -315,-416 L -314,-416 L -314,-415 L -315,-415 L -316,-415 L -316,-414 L -317,-414 L -318,-414 L -319,-414 L -320,-414 L -320,-415 L -320,-416 L -323,-414 L -322,-411 L -324,-410 L -327,-406 L -327,-405 L -329,-405 L -330,-404 L -331,-403 L -334,-399 L -336,-396 L -338,-394 L -339,-391 L -341,-382 L -342,-381 L -343,-380 L -345,-379 L -347,-378 L -347,-376 L -348,-375 L -348,-374 L -349,-374 L -349,-373 L -350,-373 L -350,-372 L -351,-371 L -352,-371 L -353,-371 L -353,-372 L -353,-373 L -354,-374 L -355,-374 L -355,-375 L -356,-375 L -356,-376 L -356,-377 L -357,-377 L -357,-378 L -358,-378 L -358,-379 L -358,-380 L -359,-380 L -360,-380 L -360,-381 L -361,-381 L -362,-382 L -363,-382 L -363,-383 L -363,-384 L -363,-385 L -363,-384 L -364,-384 L -364,-383 L -365,-383 L -365,-382 L -365,-381 L -366,-381 L -366,-380 L -367,-379 L -367,-378 L -368,-378 L -368,-377 L -368,-376 L -368,-375 L -369,-374 L -368,-374 L -369,-373 L -368,-373 L -368,-372 L -368,-371 L -367,-371 L -367,-370 L -367,-369 L -366,-369 L -366,-368 L -366,-367 L -365,-366 L -365,-365 L -365,-364 L -365,-360 L -360,-352 L -357,-351 L -355,-349 L -354,-345 L -352,-337 L -350,-333 L -352,-330 L -359,-331 L -361,-331 L -368,-332 L -371,-333 L -373,-335 L -376,-338 L -376,-339 L -375,-339 L -375,-340 L -375,-341 L -375,-342 L -375,-343 L -376,-343 L -376,-344 L -376,-345 L -377,-345 L -378,-346 L -379,-346 L -380,-347 L -380,-348 L -381,-349 L -382,-349 L -382,-350 L -383,-350 L -383,-351 L -384,-351 L -385,-351 L -385,-352 L -385,-353 L -386,-353 L -387,-353 L -387,-354 L -387,-355 L -388,-355 L -388,-356 L -387,-356 L -387,-357 L -388,-357 L -388,-358 L -388,-359 L -388,-360 L -389,-361 L -389,-362 L -390,-362 L -390,-363 L -389,-364 L -390,-364 L -390,-365 L -390,-366 L -390,-367 L -390,-368 L -390,-369 L -390,-370 L -390,-371 L -391,-371 L -391,-372 L -391,-373 L -391,-374 L -391,-375 L -392,-376 L -393,-377 L -393,-378 L -394,-379 L -395,-380 L -395,-381 L -394,-381 L -394,-382 L -393,-382 L -393,-383 L -393,-384 L -392,-384 L -392,-385 L -391,-385 L -391,-386 L -390,-386 L -389,-386 L -388,-386 L -387,-386 L -387,-387 L -386,-387 L -385,-388 L -385,-389 L -385,-390 L -385,-391 L -385,-392 L -385,-393 L -384,-393 L -384,-394 L -383,-394 L -383,-395 L -382,-395 L -381,-395 L -380,-395 L -380,-396 L -379,-396 L -379,-397 L -378,-397 L -377,-398 L -376,-398 L -375,-399 L -374,-399 L -373,-399 L -372,-399 L -371,-399 L -370,-400 L -369,-400 L -369,-401 L -368,-401 L -367,-401 L -367,-402 L -366,-402 L -365,-402 L -365,-403 L -364,-403 L -363,-403 L -363,-404 L -362,-404 L -361,-404 L -361,-405 L -360,-405 L -363,-412 L -364,-412 L -365,-413 L -366,-415 L -367,-417 L -368,-419 L -369,-422 L -373,-427 L -373,-429 L -373,-430 L -373,-431 L -374,-432 L -375,-432 L -376,-432 L -376,-433 L -377,-433 L -378,-433 L -378,-434 L -379,-434 L -379,-435 L -380,-435 L -374,-441 L -372,-446 L -365,-445 L -355,-450 L -351,-456 L -349,-458 L -348,-458 L -348,-459 L -347,-460 L -347,-461 L -347,-462 L -346,-462 L -346,-463 L -346,-464 L -345,-465 L -344,-466 L -343,-467 L -342,-467 L -341,-467 L -341,-468 L -341,-469 L -340,-470 L -340,-471 L -339,-471 L -339,-472 L -338,-472 L -337,-473 L -336,-474 L -335,-474 L -335,-475 L -335,-476 L -334,-477 L -334,-478 L -335,-479 L -334,-479 L -334,-480 L -334,-481 L -334,-483 L -333,-483 L -332,-483 L -331,-484 L -330,-485 L -328,-485 L -328,-486 L -327,-487 L -326,-487 L -325,-488 L -324,-489 L -323,-489 L -322,-489 L -322,-490 L -321,-490 L -320,-490 L -319,-490 L -319,-491 L -318,-491 L -317,-491 L -316,-491 L -315,-490 L -314,-490 L -313,-490 L -312,-490 L -311,-492 L -311,-491 L -310,-491 L -310,-490 L -309,-490 L -309,-489 L -308,-489 L -308,-488 L -307,-487 L -306,-487 L -306,-486 L -305,-486 L -304,-486 L -304,-485 L -303,-484 L -302,-484 L -302,-483 L -301,-483 L -300,-482 L -299,-482 L -298,-482 L -298,-481 L -298,-480 L -297,-480 L -297,-479 " /></g>
</svg>
