<?xml version="1.0" standalone="no"?><!DOCTYPE svg PUBLIC "-//W3C//DTD SVG 1.1//EN" "http://www.w3.org/Graphics/SVG/1.1/DTD/svg11.dtd"><svg xmlns="http://www.w3.org/2000/svg" viewBox="-422 -380 47 44" version = "1.1">
<g id="20604" ><path d="M -390,-365 L -390,-364 L -389,-364 L -390,-363 L -390,-362 L -389,-362 L -389,-361 L -388,-360 L -388,-359 L -388,-358 L -388,-357 L -387,-357 L -387,-356 L -388,-356 L -388,-355 L -387,-355 L -387,-354 L -387,-353 L -386,-353 L -385,-353 L -385,-352 L -385,-351 L -384,-351 L -383,-351 L -383,-350 L -382,-350 L -382,-349 L -381,-349 L -380,-348 L -380,-347 L -379,-346 L -378,-346 L -377,-345 L -376,-345 L -376,-344 L -376,-343 L -375,-343 L -375,-342 L -375,-341 L -375,-340 L -375,-339 L -376,-339 L -376,-338 L -377,-338 L -378,-338 L -379,-338 L -379,-337 L -380,-337 L -381,-338 L -382,-338 L -383,-338 L -384,-338 L -385,-338 L -386,-338 L -387,-338 L -388,-338 L -389,-338 L -389,-337 L -390,-337 L -391,-337 L -391,-338 L -392,-338 L -392,-337 L -393,-337 L -394,-336 L -395,-336 L -396,-337 L -397,-337 L -397,-338 L -398,-338 L -398,-339 L -399,-339 L -400,-340 L -401,-340 L -401,-341 L -402,-341 L -402,-342 L -403,-342 L -404,-342 L -404,-341 L -405,-341 L -406,-341 L -407,-341 L -408,-341 L -409,-341 L -410,-341 L -411,-341 L -412,-341 L -412,-342 L -412,-343 L -413,-343 L -413,-344 L -414,-344 L -415,-345 L -415,-344 L -416,-344 L -417,-344 L -417,-345 L -418,-345 L -419,-345 L -419,-346 L -419,-347 L -420,-348 L -420,-349 L -420,-350 L -420,-351 L -420,-352 L -420,-353 L -421,-353 L -421,-354 L -421,-355 L -421,-356 L -422,-356 L -422,-357 L -421,-358 L -421,-359 L -421,-360 L -420,-360 L -420,-361 L -419,-362 L -419,-363 L -419,-364 L -419,-365 L -418,-365 L -417,-365 L -417,-366 L -416,-366 L -416,-367 L -415,-367 L -414,-368 L -413,-368 L -412,-368 L -412,-369 L -411,-369 L -410,-370 L -409,-371 L -408,-371 L -407,-371 L -406,-372 L -405,-372 L -404,-372 L -402,-373 L -401,-373 L -400,-374 L -399,-374 L -398,-375 L -397,-376 L -397,-377 L -397,-378 L -396,-378 L -396,-379 L -395,-380 L -394,-379 L -393,-378 L -393,-377 L -392,-376 L -391,-375 L -391,-374 L -391,-373 L -391,-372 L -391,-371 L -390,-371 L -390,-370 L -390,-369 L -390,-368 L -390,-367 L -390,-366 L -390,-365 " /></g>
</svg>
