<?xml version="1.0" standalone="no"?><!DOCTYPE svg PUBLIC "-//W3C//DTD SVG 1.1//EN" "http://www.w3.org/Graphics/SVG/1.1/DTD/svg11.dtd"><svg xmlns="http://www.w3.org/2000/svg" viewBox="-618 -725 228 217" version = "1.1">
<g id="20702" ><path d="M -542,-723 L -539,-722 L -537,-721 L -535,-723 L -535,-725 L -534,-724 L -533,-723 L -533,-722 L -533,-721 L -533,-720 L -533,-719 L -533,-718 L -533,-717 L -532,-717 L -532,-716 L -531,-716 L -531,-715 L -530,-715 L -529,-715 L -529,-714 L -528,-714 L -527,-714 L -527,-713 L -526,-713 L -525,-713 L -524,-713 L -523,-713 L -522,-714 L -522,-713 L -521,-713 L -521,-714 L -520,-714 L -519,-715 L -519,-716 L -518,-716 L -518,-717 L -517,-717 L -516,-717 L -515,-717 L -514,-716 L -514,-715 L -514,-714 L -513,-714 L -512,-714 L -512,-713 L -511,-712 L -511,-711 L -510,-711 L -509,-711 L -508,-711 L -507,-710 L -506,-710 L -505,-711 L -505,-712 L -504,-712 L -504,-713 L -503,-713 L -503,-714 L -502,-715 L -501,-715 L -500,-715 L -499,-715 L -498,-714 L -497,-714 L -496,-714 L -495,-713 L -495,-712 L -494,-712 L -494,-711 L -494,-710 L -493,-710 L -493,-709 L -492,-708 L -492,-707 L -492,-706 L -491,-706 L -491,-705 L -490,-705 L -489,-705 L -488,-705 L -488,-704 L -487,-704 L -487,-703 L -486,-703 L -486,-702 L -486,-701 L -485,-701 L -485,-700 L -484,-700 L -483,-700 L -483,-699 L -482,-699 L -481,-699 L -480,-699 L -480,-698 L -479,-698 L -478,-698 L -477,-698 L -476,-697 L -475,-697 L -474,-697 L -473,-697 L -471,-693 L -471,-690 L -472,-690 L -472,-689 L -472,-688 L -473,-688 L -473,-687 L -474,-687 L -474,-686 L -475,-686 L -475,-685 L -475,-684 L -476,-684 L -476,-683 L -476,-682 L -477,-682 L -478,-681 L -478,-682 L -478,-681 L -478,-680 L -478,-679 L -477,-679 L -477,-678 L -477,-677 L -476,-677 L -476,-676 L -476,-675 L -477,-675 L -477,-674 L -477,-673 L -478,-673 L -478,-672 L -476,-672 L -474,-671 L -473,-671 L -472,-671 L -472,-672 L -471,-672 L -470,-672 L -469,-673 L -468,-673 L -467,-674 L -466,-675 L -465,-675 L -464,-675 L -463,-675 L -462,-675 L -460,-675 L -460,-676 L -459,-676 L -458,-676 L -457,-677 L -457,-678 L -456,-677 L -456,-678 L -455,-678 L -455,-679 L -454,-679 L -454,-678 L -454,-679 L -453,-679 L -453,-678 L -452,-679 L -452,-678 L -451,-678 L -450,-679 L -450,-678 L -450,-677 L -449,-677 L -448,-677 L -448,-676 L -447,-676 L -446,-676 L -446,-675 L -445,-675 L -445,-674 L -444,-674 L -443,-674 L -443,-673 L -442,-673 L -441,-672 L -441,-673 L -441,-674 L -441,-675 L -440,-675 L -440,-676 L -439,-676 L -440,-676 L -440,-677 L -439,-677 L -439,-678 L -438,-678 L -438,-679 L -437,-680 L -436,-681 L -435,-681 L -434,-680 L -433,-680 L -433,-679 L -432,-679 L -431,-679 L -430,-679 L -429,-678 L -428,-679 L -427,-679 L -426,-679 L -425,-679 L -425,-680 L -424,-680 L -424,-681 L -423,-682 L -423,-683 L -422,-683 L -421,-683 L -420,-683 L -419,-683 L -418,-683 L -417,-683 L -416,-684 L -415,-684 L -414,-685 L -413,-686 L -412,-687 L -410,-687 L -409,-688 L -408,-688 L -407,-689 L -405,-689 L -403,-689 L -401,-690 L -400,-690 L -399,-691 L -398,-691 L -397,-691 L -396,-691 L -395,-691 L -394,-691 L -394,-692 L -393,-692 L -393,-693 L -392,-693 L -391,-694 L -390,-693 L -390,-692 L -390,-691 L -390,-690 L -391,-690 L -391,-689 L -392,-689 L -392,-688 L -392,-687 L -392,-686 L -393,-686 L -393,-685 L -393,-684 L -394,-684 L -394,-683 L -394,-682 L -395,-682 L -395,-681 L -394,-681 L -394,-680 L -395,-680 L -395,-679 L -395,-678 L -395,-677 L -396,-677 L -396,-676 L -397,-676 L -397,-677 L -397,-678 L -398,-678 L -399,-678 L -400,-678 L -400,-677 L -399,-676 L -400,-676 L -400,-675 L -400,-676 L -401,-676 L -401,-675 L -402,-675 L -402,-676 L -403,-676 L -403,-675 L -403,-674 L -404,-674 L -404,-673 L -405,-673 L -405,-672 L -405,-671 L -406,-671 L -406,-670 L -407,-670 L -408,-671 L -409,-671 L -409,-670 L -409,-669 L -410,-669 L -411,-669 L -412,-668 L -412,-667 L -413,-667 L -413,-666 L -414,-666 L -414,-665 L -415,-665 L -415,-664 L -416,-664 L -417,-664 L -417,-663 L -417,-662 L -417,-661 L -418,-661 L -418,-660 L -417,-660 L -417,-659 L -417,-658 L -416,-658 L -415,-658 L -414,-657 L -415,-657 L -415,-656 L -416,-656 L -416,-655 L -417,-655 L -417,-654 L -418,-654 L -417,-654 L -417,-653 L -418,-653 L -418,-652 L -419,-652 L -420,-652 L -420,-651 L -421,-651 L -420,-651 L -420,-650 L -420,-649 L -421,-649 L -422,-649 L -422,-648 L -422,-649 L -423,-649 L -424,-648 L -425,-648 L -426,-648 L -427,-648 L -427,-647 L -428,-646 L -429,-645 L -430,-645 L -430,-644 L -431,-644 L -431,-643 L -432,-643 L -436,-632 L -445,-628 L -458,-619 L -462,-616 L -464,-610 L -464,-602 L -475,-586 L -484,-574 L -491,-568 L -493,-559 L -498,-553 L -504,-550 L -506,-548 L -507,-549 L -510,-553 L -513,-553 L -518,-552 L -526,-552 L -540,-552 L -543,-552 L -546,-549 L -549,-547 L -554,-543 L -565,-540 L -567,-538 L -567,-534 L -558,-532 L -555,-521 L -558,-515 L -564,-512 L -567,-508 L -568,-509 L -568,-510 L -569,-510 L -569,-511 L -570,-511 L -571,-511 L -572,-512 L -572,-513 L -572,-512 L -573,-512 L -573,-513 L -573,-514 L -574,-514 L -575,-514 L -575,-515 L -574,-515 L -575,-515 L -576,-515 L -576,-516 L -575,-516 L -575,-517 L -576,-517 L -576,-516 L -577,-516 L -578,-516 L -578,-517 L -577,-517 L -577,-518 L -578,-518 L -578,-519 L -578,-518 L -579,-518 L -580,-519 L -581,-519 L -582,-519 L -583,-519 L -583,-520 L -584,-520 L -585,-519 L -585,-518 L -586,-517 L -586,-518 L -586,-519 L -586,-520 L -587,-520 L -586,-521 L -586,-522 L -587,-521 L -588,-520 L -588,-519 L -589,-519 L -589,-520 L -589,-521 L -588,-521 L -588,-522 L -589,-522 L -590,-522 L -590,-523 L -591,-523 L -591,-524 L -590,-525 L -591,-525 L -591,-524 L -592,-524 L -592,-525 L -592,-526 L -592,-527 L -592,-528 L -592,-529 L -593,-529 L -593,-528 L -594,-528 L -594,-529 L -593,-529 L -593,-530 L -593,-531 L -594,-532 L -595,-532 L -595,-533 L -596,-533 L -596,-534 L -595,-534 L -596,-534 L -596,-535 L -597,-535 L -597,-536 L -597,-537 L -598,-538 L -598,-539 L -597,-539 L -597,-540 L -597,-541 L -598,-541 L -599,-541 L -598,-542 L -598,-543 L -599,-543 L -600,-542 L -600,-543 L -601,-543 L -602,-542 L -602,-543 L -602,-544 L -603,-545 L -603,-546 L -603,-547 L -603,-548 L -604,-548 L -603,-548 L -603,-549 L -604,-549 L -604,-550 L -604,-551 L -605,-551 L -604,-552 L -605,-552 L -604,-552 L -604,-553 L -605,-553 L -604,-553 L -605,-553 L -605,-554 L -605,-555 L -606,-555 L -605,-556 L -606,-556 L -606,-557 L -607,-558 L -614,-565 L -617,-571 L -618,-580 L -615,-580 L -614,-582 L -611,-596 L -611,-597 L -615,-604 L -615,-613 L -615,-614 L -616,-620 L -615,-622 L -614,-624 L -613,-625 L -612,-625 L -611,-626 L -610,-626 L -602,-632 L -597,-635 L -593,-635 L -590,-635 L -587,-635 L -586,-635 L -577,-637 L -575,-639 L -573,-641 L -572,-645 L -573,-647 L -575,-649 L -575,-650 L -575,-652 L -577,-652 L -578,-652 L -578,-653 L -579,-655 L -581,-657 L -583,-662 L -582,-664 L -581,-666 L -580,-667 L -579,-667 L -578,-669 L -577,-671 L -575,-674 L -573,-680 L -572,-681 L -572,-682 L -573,-683 L -573,-684 L -574,-685 L -575,-685 L -573,-690 L -573,-691 L -572,-692 L -571,-692 L -571,-693 L -572,-694 L -572,-696 L -572,-697 L -570,-697 L -563,-696 L -559,-698 L -557,-698 L -556,-696 L -555,-697 L -553,-697 L -552,-697 L -551,-697 L -546,-699 L -545,-703 L -546,-711 L -544,-713 L -543,-716 L -544,-718 L -546,-719 L -546,-720 L -542,-723 " /></g>
</svg>
