<?xml version="1.0" standalone="no"?><!DOCTYPE svg PUBLIC "-//W3C//DTD SVG 1.1//EN" "http://www.w3.org/Graphics/SVG/1.1/DTD/svg11.dtd"><svg xmlns="http://www.w3.org/2000/svg" viewBox="-474 -45 67 49" version = "1.1">
<g id="20802" ><path d="M -436,-43 L -432,-40 L -431,-40 L -430,-40 L -429,-40 L -428,-40 L -427,-39 L -427,-38 L -426,-38 L -426,-37 L -425,-37 L -424,-37 L -423,-37 L -422,-37 L -421,-37 L -421,-36 L -420,-36 L -420,-35 L -420,-36 L -419,-36 L -419,-37 L -418,-37 L -418,-36 L -417,-36 L -416,-36 L -416,-37 L -415,-37 L -415,-38 L -415,-37 L -414,-37 L -413,-37 L -413,-36 L -412,-36 L -411,-35 L -410,-35 L -409,-35 L -408,-35 L -408,-30 L -409,-30 L -408,-26 L -409,-26 L -408,-18 L -408,-13 L -410,-4 L -409,-3 L -407,-2 L -407,-1 L -414,-2 L -416,-2 L -426,-1 L -431,-2 L -439,-2 L -443,-1 L -451,-2 L -454,-5 L -460,-5 L -466,4 L -474,0 L -471,-2 L -470,-11 L -470,-13 L -470,-21 L -469,-21 L -468,-21 L -467,-21 L -466,-21 L -466,-20 L -465,-20 L -465,-21 L -464,-21 L -463,-21 L -462,-21 L -462,-20 L -461,-20 L -461,-21 L -460,-21 L -459,-21 L -458,-21 L -457,-21 L -456,-21 L -455,-21 L -455,-20 L -454,-20 L -453,-20 L -452,-20 L -452,-21 L -451,-21 L -451,-22 L -451,-21 L -450,-21 L -450,-22 L -450,-21 L -450,-22 L -449,-22 L -449,-21 L -449,-22 L -448,-22 L -447,-22 L -448,-22 L -448,-23 L -449,-23 L -448,-23 L -447,-23 L -448,-23 L -449,-23 L -449,-24 L -448,-24 L -448,-23 L -447,-23 L -447,-24 L -447,-25 L -447,-24 L -446,-24 L -445,-24 L -444,-24 L -444,-25 L -444,-26 L -445,-26 L -444,-26 L -444,-27 L -445,-27 L -444,-27 L -444,-28 L -444,-27 L -444,-28 L -444,-29 L -444,-30 L -443,-30 L -442,-30 L -442,-31 L -442,-30 L -441,-30 L -441,-31 L -442,-31 L -441,-31 L -441,-32 L -440,-32 L -440,-31 L -440,-32 L -440,-33 L -439,-33 L -440,-33 L -440,-34 L -440,-33 L -439,-33 L -439,-34 L -439,-35 L -439,-36 L -440,-36 L -440,-37 L -440,-38 L -441,-38 L -441,-39 L -442,-39 L -442,-40 L -443,-40 L -443,-41 L -444,-41 L -444,-40 L -444,-41 L -445,-41 L -445,-42 L -446,-42 L -445,-42 L -444,-42 L -445,-42 L -444,-43 L -445,-43 L -444,-43 L -443,-43 L -443,-44 L -444,-44 L -443,-44 L -443,-45 L -443,-44 L -443,-45 L -442,-45 L -442,-44 L -441,-44 L -440,-43 L -439,-43 L -438,-43 L -437,-43 L -436,-43 " /></g>
</svg>
