<?xml version="1.0" standalone="no"?><!DOCTYPE svg PUBLIC "-//W3C//DTD SVG 1.1//EN" "http://www.w3.org/Graphics/SVG/1.1/DTD/svg11.dtd"><svg xmlns="http://www.w3.org/2000/svg" viewBox="-323 -38 113 124" version = "1.1">
<g id="20801" ><path d="M -248,-33 L -247,-33 L -248,-32 L -236,-29 L -235,-29 L -234,-29 L -229,-29 L -234,-23 L -233,-22 L -240,-15 L -221,-9 L -221,-1 L -220,0 L -219,0 L -219,1 L -218,1 L -217,1 L -217,2 L -216,3 L -215,3 L -215,4 L -215,5 L -214,5 L -214,6 L -213,7 L -213,8 L -212,8 L -212,9 L -212,10 L -211,10 L -211,11 L -211,12 L -211,13 L -211,14 L -211,15 L -211,16 L -211,17 L -211,18 L -211,19 L -210,20 L -210,21 L -211,21 L -211,22 L -212,21 L -213,21 L -214,21 L -214,22 L -213,23 L -213,27 L -212,30 L -211,30 L -212,30 L -212,33 L -213,34 L -219,39 L -220,42 L -223,43 L -227,47 L -234,53 L -235,53 L -236,53 L -237,54 L -237,55 L -238,55 L -238,56 L -239,56 L -240,56 L -241,56 L -242,57 L -243,62 L -250,67 L -255,70 L -256,71 L -257,71 L -257,72 L -258,72 L -258,73 L -259,74 L -261,74 L -262,74 L -264,75 L -266,75 L -269,76 L -271,77 L -272,77 L -274,77 L -276,78 L -277,78 L -278,79 L -285,84 L -285,85 L -285,86 L -286,86 L -286,83 L -288,82 L -288,81 L -290,80 L -291,80 L -291,78 L -295,76 L -295,74 L -294,71 L -293,70 L -294,70 L -294,69 L -295,69 L -295,68 L -296,68 L -296,67 L -297,66 L -297,65 L -298,65 L -298,64 L -298,63 L -299,63 L -299,62 L -299,61 L -300,61 L -300,60 L -301,59 L -302,59 L -305,60 L -306,60 L -308,61 L -309,62 L -311,63 L -314,61 L -315,61 L -315,60 L -316,60 L -317,60 L -318,60 L -318,59 L -318,58 L -317,58 L -318,58 L -317,58 L -317,57 L -317,56 L -316,55 L -315,54 L -314,53 L -313,53 L -313,52 L -312,52 L -311,52 L -311,51 L -310,51 L -310,50 L -309,49 L -307,47 L -308,47 L -308,46 L -310,44 L -317,40 L -323,36 L -315,21 L -312,17 L -311,15 L -307,8 L -306,8 L -304,8 L -304,7 L -304,6 L -303,6 L -302,5 L -297,1 L -295,0 L -294,-1 L -292,-3 L -289,-11 L -289,-12 L -287,-13 L -283,-14 L -281,-15 L -280,-16 L -278,-17 L -275,-19 L -274,-20 L -273,-20 L -272,-22 L -271,-22 L -270,-23 L -269,-22 L -269,-21 L -268,-21 L -268,-22 L -267,-23 L -267,-24 L -266,-25 L -266,-26 L -264,-27 L -263,-28 L -262,-28 L -262,-29 L -261,-29 L -260,-30 L -260,-31 L -260,-32 L -260,-33 L -259,-33 L -259,-34 L -258,-34 L -258,-35 L -258,-36 L -257,-36 L -257,-37 L -256,-37 L -255,-37 L -254,-38 L -253,-38 L -252,-37 L -251,-37 L -250,-37 L -250,-36 L -250,-35 L -249,-35 L -249,-34 L -248,-33 " /></g>
</svg>
