<?xml version="1.0" standalone="no"?><!DOCTYPE svg PUBLIC "-//W3C//DTD SVG 1.1//EN" "http://www.w3.org/Graphics/SVG/1.1/DTD/svg11.dtd"><svg xmlns="http://www.w3.org/2000/svg" viewBox="-482 -97 65 57" version = "1.1">
<g id="20807" ><path d="M -429,-79 L -429,-78 L -429,-77 L -428,-77 L -427,-77 L -426,-77 L -426,-78 L -425,-78 L -424,-65 L -427,-57 L -431,-47 L -430,-47 L -430,-46 L -429,-45 L -429,-44 L -429,-43 L -428,-43 L -428,-42 L -428,-41 L -428,-40 L -429,-40 L -430,-40 L -431,-40 L -432,-40 L -436,-43 L -436,-44 L -437,-44 L -438,-44 L -438,-45 L -438,-44 L -439,-44 L -439,-45 L -439,-44 L -440,-44 L -440,-45 L -440,-44 L -441,-44 L -441,-45 L -441,-46 L -441,-47 L -442,-47 L -442,-48 L -442,-49 L -441,-50 L -441,-51 L -441,-52 L -440,-52 L -439,-52 L -440,-52 L -440,-53 L -439,-53 L -439,-54 L -440,-54 L -439,-54 L -440,-54 L -439,-54 L -439,-55 L -438,-54 L -439,-54 L -438,-54 L -438,-55 L -437,-55 L -438,-55 L -438,-56 L -439,-56 L -438,-56 L -437,-56 L -437,-57 L -438,-57 L -439,-57 L -440,-57 L -441,-57 L -442,-57 L -443,-57 L -443,-58 L -443,-59 L -444,-59 L -444,-60 L -445,-60 L -445,-59 L -445,-60 L -446,-60 L -446,-61 L -447,-61 L -448,-61 L -449,-61 L -450,-61 L -451,-61 L -452,-62 L -453,-62 L -453,-63 L -454,-63 L -455,-63 L -455,-64 L -456,-64 L -457,-64 L -458,-64 L -459,-64 L -460,-64 L -460,-63 L -461,-63 L -461,-64 L -461,-63 L -461,-62 L -462,-62 L -462,-63 L -463,-62 L -463,-63 L -464,-63 L -464,-62 L -464,-63 L -464,-62 L -464,-63 L -465,-63 L -465,-62 L -466,-62 L -467,-62 L -468,-63 L -468,-62 L -469,-62 L -469,-63 L -470,-63 L -470,-62 L -471,-62 L -472,-62 L -473,-62 L -474,-62 L -475,-62 L -476,-62 L -477,-62 L -478,-62 L -479,-62 L -480,-62 L -481,-62 L -481,-63 L -482,-63 L -481,-63 L -481,-64 L -480,-64 L -480,-65 L -480,-66 L -480,-67 L -479,-67 L -479,-68 L -479,-69 L -479,-70 L -479,-71 L -478,-71 L -478,-72 L -479,-72 L -479,-73 L -479,-72 L -480,-72 L -480,-71 L -480,-72 L -480,-73 L -479,-73 L -479,-74 L -478,-74 L -478,-75 L -477,-75 L -476,-75 L -475,-75 L -475,-76 L -474,-76 L -473,-76 L -473,-77 L -472,-77 L -471,-77 L -470,-77 L -470,-76 L -470,-75 L -469,-75 L -468,-75 L -467,-75 L -466,-75 L -466,-76 L -465,-76 L -464,-76 L -463,-76 L -463,-77 L -462,-77 L -461,-77 L -460,-77 L -460,-78 L -459,-78 L -458,-78 L -457,-78 L -457,-79 L -456,-79 L -456,-78 L -455,-78 L -454,-78 L -453,-78 L -452,-78 L -452,-79 L -452,-78 L -451,-78 L -450,-78 L -449,-78 L -449,-77 L -448,-77 L -448,-78 L -447,-78 L -446,-78 L -445,-78 L -445,-77 L -444,-77 L -444,-78 L -443,-78 L -442,-78 L -441,-78 L -441,-79 L -440,-79 L -440,-78 L -439,-78 L -438,-78 L -438,-79 L -437,-79 L -437,-80 L -437,-79 L -436,-79 L -435,-79 L -434,-79 L -434,-78 L -433,-78 L -433,-79 L -432,-79 L -431,-79 L -431,-80 L -430,-80 L -429,-80 L -430,-80 L -429,-80 L -429,-79 L -430,-79 L -429,-79 " /><path d="M -419,-97 L -418,-97 L -418,-96 L -417,-96 L -418,-96 L -418,-95 L -418,-96 L -419,-96 L -420,-96 L -420,-97 L -419,-97 " /></g>
</svg>
