<?xml version="1.0" standalone="no"?><!DOCTYPE svg PUBLIC "-//W3C//DTD SVG 1.1//EN" "http://www.w3.org/Graphics/SVG/1.1/DTD/svg11.dtd"><svg xmlns="http://www.w3.org/2000/svg" viewBox="-509 -35 39 40" version = "1.1">
<g id="20804" ><path d="M -470,-21 L -470,-13 L -470,-11 L -471,-2 L -474,0 L -480,1 L -480,2 L -488,5 L -495,0 L -496,-2 L -495,-3 L -495,-5 L -495,-6 L -496,-7 L -498,-8 L -499,-9 L -500,-10 L -501,-11 L -502,-12 L -503,-14 L -504,-15 L -506,-16 L -507,-17 L -507,-18 L -507,-20 L -508,-22 L -508,-24 L -508,-25 L -508,-26 L -508,-27 L -509,-27 L -509,-28 L -509,-29 L -509,-30 L -509,-31 L -508,-32 L -507,-32 L -507,-33 L -506,-33 L -505,-33 L -505,-34 L -505,-35 L -506,-35 L -505,-35 L -504,-35 L -503,-35 L -503,-34 L -502,-34 L -501,-34 L -500,-33 L -499,-33 L -498,-33 L -498,-32 L -497,-32 L -496,-32 L -496,-31 L -495,-31 L -495,-30 L -494,-31 L -494,-30 L -493,-30 L -492,-30 L -491,-30 L -490,-29 L -490,-30 L -489,-30 L -489,-29 L -489,-28 L -488,-28 L -487,-28 L -486,-28 L -486,-27 L -485,-27 L -485,-26 L -485,-27 L -484,-27 L -484,-26 L -483,-26 L -483,-27 L -483,-26 L -483,-27 L -482,-27 L -482,-26 L -481,-26 L -481,-25 L -480,-25 L -479,-25 L -478,-25 L -478,-24 L -477,-24 L -477,-23 L -476,-23 L -475,-23 L -475,-24 L -475,-23 L -474,-23 L -474,-24 L -474,-23 L -473,-23 L -473,-22 L -472,-22 L -472,-21 L -472,-22 L -471,-22 L -471,-21 L -471,-22 L -470,-22 L -470,-21 " /></g>
</svg>
