<?xml version="1.0" standalone="no"?><!DOCTYPE svg PUBLIC "-//W3C//DTD SVG 1.1//EN" "http://www.w3.org/Graphics/SVG/1.1/DTD/svg11.dtd"><svg xmlns="http://www.w3.org/2000/svg" viewBox="-431 -80 73 88" version = "1.1">
<g id="20803" ><path d="M -410,-80 L -409,-79 L -408,-79 L -408,-80 L -407,-80 L -406,-79 L -405,-79 L -401,-71 L -400,-70 L -400,-68 L -399,-66 L -398,-63 L -397,-62 L -397,-60 L -397,-58 L -397,-56 L -397,-55 L -397,-54 L -397,-53 L -398,-53 L -398,-52 L -397,-51 L -397,-49 L -396,-48 L -395,-47 L -394,-47 L -393,-47 L -392,-46 L -391,-46 L -390,-46 L -389,-45 L -388,-45 L -387,-46 L -386,-45 L -384,-46 L -383,-46 L -382,-46 L -380,-46 L -379,-46 L -378,-46 L -377,-46 L -376,-46 L -375,-45 L -375,-46 L -374,-45 L -372,-44 L -371,-45 L -371,-44 L -370,-44 L -369,-44 L -368,-43 L -367,-43 L -368,-45 L -368,-47 L -366,-48 L -366,-47 L -365,-47 L -365,-46 L -364,-46 L -364,-45 L -363,-45 L -363,-44 L -362,-44 L -362,-43 L -361,-43 L -361,-42 L -361,-41 L -360,-41 L -360,-40 L -359,-40 L -359,-39 L -358,-39 L -358,-38 L -358,-37 L -358,-36 L -359,-36 L -359,-35 L -359,-34 L -359,-33 L -359,-32 L -360,-32 L -360,-31 L -360,-30 L -360,-29 L -359,-29 L -360,-29 L -360,-28 L -360,-27 L -359,-27 L -359,-26 L -358,-26 L -358,-25 L -363,-13 L -363,-12 L -364,-6 L -364,-5 L -363,-4 L -363,-3 L -361,-2 L -366,-2 L -366,2 L -369,8 L -371,6 L -374,6 L -379,5 L -386,-2 L -394,0 L -401,0 L -407,-1 L -407,-2 L -409,-3 L -410,-4 L -408,-13 L -408,-18 L -409,-26 L -408,-26 L -409,-30 L -408,-30 L -408,-35 L -409,-35 L -410,-35 L -411,-35 L -412,-36 L -413,-36 L -413,-37 L -414,-37 L -415,-37 L -415,-38 L -415,-37 L -416,-37 L -416,-36 L -417,-36 L -418,-36 L -418,-37 L -419,-37 L -419,-36 L -420,-36 L -420,-35 L -420,-36 L -421,-36 L -421,-37 L -422,-37 L -423,-37 L -424,-37 L -425,-37 L -426,-37 L -426,-38 L -427,-38 L -427,-39 L -428,-40 L -428,-41 L -428,-42 L -428,-43 L -429,-43 L -429,-44 L -429,-45 L -430,-46 L -430,-47 L -431,-47 L -427,-57 L -424,-65 L -425,-78 L -424,-78 L -423,-78 L -422,-78 L -421,-78 L -421,-77 L -421,-78 L -421,-77 L -420,-77 L -420,-78 L -419,-78 L -419,-77 L -418,-77 L -418,-78 L -417,-78 L -417,-79 L -416,-79 L -415,-79 L -414,-79 L -413,-79 L -413,-80 L -412,-80 L -411,-80 L -410,-80 " /></g>
</svg>
