<?xml version="1.0" standalone="no"?><!DOCTYPE svg PUBLIC "-//W3C//DTD SVG 1.1//EN" "http://www.w3.org/Graphics/SVG/1.1/DTD/svg11.dtd"><svg xmlns="http://www.w3.org/2000/svg" viewBox="-488 -5 171 90" version = "1.1">
<g id="20806" ><path d="M -451,-2 L -443,-1 L -439,-2 L -431,-2 L -426,-1 L -416,-2 L -414,-2 L -407,-1 L -401,0 L -394,0 L -386,-2 L -379,5 L -374,6 L -371,6 L -369,8 L -366,2 L -366,-2 L -361,-2 L -361,-1 L -360,0 L -359,2 L -359,5 L -343,16 L -335,27 L -330,33 L -329,35 L -326,37 L -323,36 L -317,40 L -321,43 L -329,53 L -331,58 L -339,60 L -346,64 L -348,64 L -353,67 L -359,70 L -362,73 L -367,74 L -372,81 L -375,75 L -377,70 L -376,66 L -378,63 L -377,63 L -376,63 L -375,63 L -375,62 L -375,61 L -375,59 L -374,59 L -373,55 L -372,54 L -371,52 L -370,51 L -369,49 L -370,49 L -370,50 L -370,51 L -371,51 L -371,52 L -372,52 L -372,51 L -373,51 L -373,52 L -373,51 L -374,51 L -374,52 L -375,52 L -376,52 L -377,52 L -378,52 L -379,52 L -380,52 L -380,53 L -381,53 L -382,53 L -382,54 L -383,53 L -384,54 L -384,53 L -385,53 L -385,54 L -386,53 L -386,54 L -387,54 L -387,53 L -386,53 L -386,52 L -387,52 L -387,51 L -388,52 L -388,51 L -389,52 L -390,52 L -391,51 L -392,51 L -392,52 L -393,51 L -394,51 L -394,52 L -394,51 L -395,51 L -395,52 L -395,53 L -396,53 L -397,53 L -397,54 L -398,54 L -399,54 L -399,55 L -400,55 L -400,54 L -401,54 L -402,54 L -403,54 L -404,54 L -404,55 L -405,55 L -405,56 L -406,56 L -406,55 L -407,55 L -407,56 L -408,56 L -409,56 L -409,57 L -409,56 L -410,56 L -410,55 L -410,56 L -410,71 L -415,83 L -416,83 L -417,83 L -418,83 L -419,82 L -420,82 L -421,82 L -421,83 L -422,83 L -422,84 L -423,84 L -424,84 L -424,85 L -425,85 L -426,85 L -427,84 L -427,83 L -428,82 L -429,82 L -431,82 L -432,81 L -434,80 L -435,79 L -436,79 L -436,78 L -436,77 L -436,76 L -436,75 L -436,74 L -436,73 L -435,73 L -436,73 L -436,72 L -436,71 L -436,70 L -437,69 L -436,68 L -436,67 L -436,66 L -435,66 L -435,65 L -436,65 L -437,65 L -437,64 L -438,64 L -440,64 L -441,63 L -442,63 L -443,63 L -444,62 L -445,62 L -446,62 L -447,61 L -448,61 L -449,61 L -450,60 L -451,60 L -454,60 L -455,60 L -456,60 L -457,59 L -458,59 L -459,59 L -460,59 L -459,58 L -460,58 L -460,57 L -461,56 L -461,55 L -462,54 L -463,53 L -463,52 L -465,51 L -468,49 L -475,51 L -479,49 L -484,44 L -487,37 L -486,37 L -484,30 L -484,22 L -487,9 L -487,6 L -488,5 L -480,2 L -480,1 L -474,0 L -466,4 L -460,-5 L -454,-5 L -451,-2 " /></g>
</svg>
