<?xml version="1.0" standalone="no"?><!DOCTYPE svg PUBLIC "-//W3C//DTD SVG 1.1//EN" "http://www.w3.org/Graphics/SVG/1.1/DTD/svg11.dtd"><svg xmlns="http://www.w3.org/2000/svg" viewBox="-605 -2 188 150" version = "1.1">
<g id="20805" ><path d="M -495,0 L -488,5 L -487,6 L -487,9 L -484,22 L -484,30 L -486,37 L -487,37 L -484,44 L -479,49 L -475,51 L -468,49 L -465,51 L -463,52 L -463,53 L -462,54 L -461,55 L -461,56 L -460,57 L -460,58 L -459,58 L -460,59 L -459,59 L -458,59 L -457,59 L -456,60 L -455,60 L -454,60 L -451,60 L -450,60 L -449,61 L -448,61 L -447,61 L -446,62 L -445,62 L -444,62 L -443,63 L -442,63 L -441,63 L -440,64 L -438,64 L -437,64 L -437,65 L -436,65 L -435,65 L -435,66 L -436,66 L -436,67 L -436,68 L -437,69 L -436,70 L -436,71 L -436,72 L -436,73 L -435,73 L -436,73 L -436,74 L -436,75 L -436,76 L -436,77 L -436,78 L -436,79 L -435,79 L -434,80 L -432,81 L -431,82 L -429,82 L -428,82 L -427,83 L -427,84 L -426,85 L -425,85 L -425,86 L -425,87 L -425,88 L -424,88 L -424,89 L -424,90 L -423,90 L -423,91 L -422,91 L -421,91 L -420,91 L -419,91 L -418,91 L -418,92 L -418,93 L -418,94 L -419,95 L -419,96 L -419,97 L -419,98 L -418,98 L -417,98 L -417,99 L -417,100 L -418,100 L -418,99 L -419,99 L -420,99 L -421,98 L -421,97 L -422,97 L -422,98 L -423,98 L -424,98 L -425,98 L -425,99 L -426,99 L -426,100 L -426,101 L -426,102 L -425,102 L -425,103 L -425,104 L -426,105 L -426,106 L -427,106 L -427,107 L -428,107 L -429,107 L -429,108 L -430,108 L -431,108 L -432,108 L -433,108 L -434,108 L -435,108 L -436,108 L -437,108 L -437,109 L -438,110 L -439,110 L -440,111 L -441,111 L -442,111 L -442,110 L -443,110 L -443,111 L -444,111 L -445,111 L -445,112 L -446,112 L -446,113 L -446,114 L -447,114 L -447,115 L -448,116 L -448,117 L -448,118 L -449,119 L -448,119 L -448,120 L -447,120 L -447,121 L -446,121 L -446,122 L -446,123 L -447,123 L -448,123 L -448,124 L -448,125 L -448,126 L -449,126 L -448,127 L -447,127 L -447,128 L -447,129 L -447,130 L -446,130 L -464,130 L -473,136 L -474,136 L -475,136 L -475,135 L -476,135 L -477,135 L -478,135 L -478,136 L -479,136 L -479,137 L -480,137 L -479,137 L -480,137 L -481,137 L -481,138 L -481,139 L -482,140 L -482,141 L -483,145 L -484,147 L -484,148 L -485,148 L -486,148 L -486,147 L -487,148 L -488,148 L -488,147 L -489,147 L -490,148 L -490,147 L -491,147 L -491,148 L -491,147 L -492,147 L -493,147 L -493,146 L -494,146 L -495,146 L -495,145 L -495,144 L -496,144 L -496,143 L -497,143 L -497,142 L -497,141 L -498,141 L -498,142 L -498,141 L -499,141 L -499,142 L -500,142 L -500,141 L -500,140 L -501,140 L -501,139 L -502,139 L -502,138 L -502,137 L -502,136 L -503,136 L -515,140 L -521,137 L -525,135 L -540,127 L -546,121 L -551,119 L -552,118 L -553,118 L -554,117 L -560,115 L -565,114 L -591,106 L -592,105 L -598,106 L -599,106 L -600,105 L -601,105 L -601,104 L -603,100 L -604,99 L -605,97 L -603,94 L -600,90 L -598,86 L -595,82 L -592,79 L -590,76 L -588,74 L -586,72 L -584,70 L -582,68 L -581,67 L -580,66 L -577,64 L -574,62 L -572,61 L -570,59 L -569,57 L -568,55 L -567,53 L -565,49 L -564,47 L -563,46 L -559,45 L -557,32 L -553,22 L -547,20 L -546,20 L -546,19 L -545,19 L -544,19 L -544,18 L -543,18 L -541,16 L -540,16 L -540,17 L -539,17 L -538,18 L -537,18 L -536,18 L -533,18 L -532,17 L -530,17 L -528,15 L -525,14 L -515,10 L -514,9 L -514,8 L -513,8 L -512,8 L -512,9 L -511,9 L -510,9 L -510,8 L -509,7 L -508,7 L -508,6 L -507,6 L -507,5 L -506,5 L -505,5 L -505,4 L -504,4 L -504,3 L -503,3 L -502,3 L -502,2 L -501,2 L -501,3 L -500,3 L -500,2 L -499,2 L -498,0 L -496,-2 L -495,0 " /></g>
</svg>
