<?xml version="1.0" standalone="no"?><!DOCTYPE svg PUBLIC "-//W3C//DTD SVG 1.1//EN" "http://www.w3.org/Graphics/SVG/1.1/DTD/svg11.dtd"><svg xmlns="http://www.w3.org/2000/svg" viewBox="-8 76 81 83" version = "1.1">
<g id="20904" ><path d="M 29,79 L 32,83 L 34,83 L 35,83 L 36,85 L 39,89 L 41,94 L 43,100 L 46,102 L 50,106 L 52,109 L 55,111 L 60,117 L 64,125 L 67,133 L 72,138 L 73,143 L 71,143 L 70,144 L 69,145 L 68,145 L 66,147 L 66,149 L 66,150 L 65,150 L 65,149 L 64,148 L 63,148 L 63,147 L 62,147 L 61,147 L 61,146 L 60,146 L 60,147 L 59,147 L 59,148 L 60,148 L 60,149 L 58,148 L 57,150 L 57,151 L 58,151 L 58,152 L 59,152 L 59,153 L 58,154 L 57,155 L 57,156 L 56,158 L 54,159 L 53,159 L 53,158 L 51,157 L 50,157 L 48,155 L 47,155 L 47,154 L 46,154 L 46,153 L 46,152 L 46,151 L 45,151 L 44,151 L 43,151 L 42,150 L 41,150 L 40,150 L 40,149 L 39,148 L 40,147 L 40,146 L 40,145 L 39,144 L 38,144 L 37,144 L 37,143 L 36,142 L 36,141 L 37,141 L 37,140 L 36,140 L 36,139 L 35,139 L 34,138 L 34,137 L 33,137 L 32,136 L 31,135 L 31,136 L 31,135 L 30,135 L 29,135 L 29,134 L 29,133 L 28,133 L 28,134 L 27,134 L 26,134 L 25,133 L 24,133 L 23,133 L 22,133 L 21,133 L 20,133 L 20,134 L 19,134 L 18,135 L 17,136 L 16,136 L 15,136 L 14,135 L 14,136 L 13,136 L 12,136 L 12,137 L 12,138 L 11,138 L 10,138 L 9,138 L 8,137 L 7,137 L 6,136 L 5,136 L 4,136 L 3,135 L 3,134 L 2,134 L 2,133 L 1,132 L 1,131 L 0,131 L 0,130 L -1,130 L -1,129 L -1,128 L -2,128 L -2,127 L -3,127 L -4,127 L -5,127 L -5,126 L -6,126 L -7,126 L -6,126 L -6,125 L -6,124 L -6,123 L -5,123 L -5,122 L -5,121 L -5,120 L -4,120 L -5,120 L -5,119 L -5,118 L -5,117 L -6,117 L -7,116 L -8,116 L -7,112 L -6,111 L -5,111 L -5,110 L -4,110 L -3,110 L -3,109 L -2,109 L -1,109 L 0,109 L 0,108 L 0,109 L 0,108 L 1,108 L 1,107 L 2,107 L 2,106 L 3,106 L 3,105 L 3,104 L 4,104 L 4,103 L 5,103 L 5,102 L 5,101 L 7,96 L 7,95 L 7,94 L 7,93 L 7,94 L 8,93 L 7,92 L 6,91 L 6,90 L 7,90 L 7,89 L 7,88 L 8,87 L 8,86 L 8,85 L 8,84 L 7,84 L 7,83 L 8,82 L 9,81 L 10,81 L 11,80 L 12,79 L 13,79 L 13,78 L 13,77 L 13,76 L 14,76 L 15,76 L 16,76 L 17,76 L 18,77 L 18,78 L 20,78 L 21,78 L 22,78 L 23,79 L 25,80 L 26,81 L 27,80 L 28,80 L 29,80 L 29,79 " /></g>
</svg>
