<?xml version="1.0" standalone="no"?><!DOCTYPE svg PUBLIC "-//W3C//DTD SVG 1.1//EN" "http://www.w3.org/Graphics/SVG/1.1/DTD/svg11.dtd"><svg xmlns="http://www.w3.org/2000/svg" viewBox="-63 -13 92 131" version = "1.1">
<g id="20905" ><path d="M 7,-13 L 9,-5 L 11,-1 L 12,0 L 14,2 L 14,5 L 15,7 L 17,8 L 20,9 L 23,11 L 24,15 L 25,18 L 24,18 L 22,19 L 22,20 L 20,23 L 19,23 L 18,24 L 16,24 L 15,25 L 14,27 L 12,27 L 10,27 L 11,29 L 9,31 L 9,33 L 5,34 L 4,33 L 2,35 L 0,37 L 2,42 L 2,45 L 2,48 L 4,50 L 6,58 L 11,60 L 12,61 L 15,64 L 19,69 L 22,72 L 24,72 L 26,73 L 27,74 L 28,76 L 28,77 L 28,78 L 29,78 L 29,79 L 29,80 L 28,80 L 27,80 L 26,81 L 25,80 L 23,79 L 22,78 L 21,78 L 20,78 L 18,78 L 18,77 L 17,76 L 16,76 L 15,76 L 14,76 L 13,76 L 13,77 L 13,78 L 13,79 L 12,79 L 11,80 L 10,81 L 9,81 L 8,82 L 7,83 L 7,84 L 8,84 L 8,85 L 8,86 L 8,87 L 7,88 L 7,89 L 7,90 L 6,90 L 6,91 L 7,92 L 8,93 L 7,94 L 7,93 L 7,94 L 7,95 L 7,96 L 5,101 L 5,102 L 5,103 L 4,103 L 4,104 L 3,104 L 3,105 L 3,106 L 2,106 L 2,107 L 1,107 L 1,108 L 0,108 L 0,109 L 0,108 L 0,109 L -1,109 L -2,109 L -3,109 L -3,110 L -4,110 L -5,110 L -5,111 L -6,111 L -7,112 L -8,116 L -9,116 L -10,117 L -13,118 L -16,117 L -19,115 L -20,115 L -21,115 L -24,115 L -25,115 L -27,115 L -28,115 L -30,114 L -31,114 L -32,114 L -33,115 L -34,115 L -35,115 L -35,114 L -37,114 L -38,114 L -39,114 L -40,114 L -41,114 L -42,114 L -43,114 L -44,114 L -45,113 L -46,113 L -46,112 L -47,112 L -48,111 L -48,110 L -49,109 L -49,108 L -49,107 L -49,106 L -50,105 L -51,104 L -52,104 L -52,103 L -53,103 L -53,102 L -53,101 L -53,100 L -54,100 L -54,99 L -53,99 L -53,98 L -53,97 L -53,96 L -54,96 L -54,95 L -55,95 L -56,95 L -56,94 L -56,93 L -56,92 L -56,91 L -56,90 L -57,89 L -57,88 L -57,87 L -57,86 L -57,85 L -58,84 L -58,83 L -58,82 L -58,81 L -58,80 L -58,79 L -59,78 L -59,77 L -60,77 L -60,76 L -60,75 L -61,75 L -62,75 L -62,74 L -63,73 L -63,72 L -63,71 L -62,71 L -62,70 L -61,70 L -61,69 L -60,69 L -60,68 L -60,67 L -59,67 L -59,66 L -59,65 L -59,64 L -60,63 L -60,62 L -61,61 L -61,60 L -61,59 L -62,58 L -62,57 L -62,56 L -63,55 L -63,54 L -62,54 L -62,53 L -62,52 L -61,52 L -60,51 L -60,50 L -59,50 L -59,49 L -58,49 L -57,48 L -56,48 L -55,48 L -54,48 L -53,48 L -52,48 L -51,48 L -51,47 L -50,47 L -49,47 L -48,47 L -48,46 L -47,46 L -47,45 L -46,45 L -46,44 L -47,44 L -47,43 L -47,42 L -48,42 L -48,41 L -47,41 L -47,40 L -46,40 L -46,39 L -45,39 L -44,39 L -43,39 L -43,38 L -43,37 L -43,36 L -42,36 L -42,35 L -41,35 L -41,34 L -40,34 L -40,35 L -39,35 L -38,34 L -37,34 L -37,33 L -36,33 L -36,32 L -35,31 L -35,30 L -35,29 L -34,29 L -34,28 L -34,27 L -33,27 L -32,27 L -31,27 L -31,26 L -30,26 L -29,26 L -28,26 L -28,25 L -27,25 L -27,24 L -26,24 L -26,23 L -27,23 L -26,22 L -25,22 L -25,21 L -25,20 L -24,20 L -24,21 L -24,20 L -24,19 L -23,19 L -24,18 L -23,17 L -22,16 L -22,15 L -21,15 L -21,14 L -20,14 L -20,13 L -19,13 L -19,12 L -18,12 L -17,12 L -16,12 L -15,12 L -15,11 L -14,11 L -14,10 L -13,10 L -13,9 L -13,8 L -12,8 L -12,7 L -12,6 L -11,6 L -11,5 L -10,5 L -10,4 L -9,5 L -9,4 L -8,4 L -8,5 L -7,5 L -6,5 L -6,4 L -5,4 L -5,3 L -4,3 L -4,2 L -3,2 L -2,2 L -1,2 L -1,1 L 0,1 L 0,0 L 1,0 L 1,-1 L 0,-1 L 0,-2 L 1,-2 L 1,-3 L 1,-4 L 0,-4 L 0,-5 L 1,-6 L 1,-7 L 1,-8 L 1,-9 L 2,-9 L 3,-9 L 3,-10 L 4,-10 L 5,-11 L 5,-12 L 6,-12 L 7,-13 " /></g>
</svg>
