<?xml version="1.0" standalone="no"?><!DOCTYPE svg PUBLIC "-//W3C//DTD SVG 1.1//EN" "http://www.w3.org/Graphics/SVG/1.1/DTD/svg11.dtd"><svg xmlns="http://www.w3.org/2000/svg" viewBox="0 133 76 136" version = "1.1">
<g id="20903" ><path d="M 56,158 L 60,158 L 61,159 L 62,158 L 63,158 L 64,159 L 65,160 L 66,160 L 66,162 L 68,164 L 70,165 L 72,166 L 72,167 L 71,167 L 71,168 L 70,168 L 70,169 L 70,170 L 69,170 L 70,170 L 69,171 L 68,171 L 67,171 L 67,172 L 66,172 L 66,173 L 65,173 L 65,174 L 64,174 L 64,175 L 63,175 L 63,176 L 64,176 L 64,177 L 63,177 L 63,178 L 63,179 L 63,180 L 64,180 L 63,180 L 64,180 L 64,181 L 64,182 L 65,182 L 65,183 L 65,184 L 66,184 L 66,185 L 67,185 L 67,186 L 67,187 L 66,187 L 66,188 L 65,188 L 65,189 L 66,189 L 66,190 L 67,190 L 67,191 L 67,192 L 67,193 L 67,194 L 68,194 L 68,195 L 69,195 L 69,196 L 69,197 L 69,198 L 69,199 L 69,200 L 69,201 L 68,201 L 68,202 L 67,202 L 67,203 L 67,204 L 68,204 L 68,205 L 68,206 L 69,206 L 69,207 L 70,207 L 70,208 L 70,207 L 70,208 L 71,208 L 70,208 L 71,208 L 71,209 L 70,209 L 71,209 L 71,210 L 71,211 L 72,212 L 71,212 L 71,213 L 71,214 L 70,214 L 70,215 L 70,216 L 70,217 L 71,218 L 71,219 L 72,220 L 74,229 L 75,234 L 76,240 L 76,241 L 75,241 L 75,242 L 74,242 L 73,242 L 72,242 L 71,242 L 71,241 L 70,241 L 70,242 L 69,242 L 69,243 L 69,244 L 69,245 L 68,245 L 68,246 L 67,246 L 68,247 L 68,248 L 68,249 L 68,251 L 69,252 L 69,253 L 68,253 L 68,254 L 68,255 L 67,255 L 67,256 L 66,256 L 66,257 L 65,257 L 64,257 L 63,257 L 62,257 L 62,258 L 61,258 L 61,259 L 61,260 L 61,261 L 61,262 L 60,262 L 61,263 L 60,264 L 60,265 L 59,264 L 58,264 L 58,265 L 57,265 L 56,265 L 55,265 L 54,265 L 53,265 L 51,266 L 50,266 L 49,269 L 49,268 L 49,265 L 49,264 L 49,262 L 49,261 L 49,260 L 49,259 L 48,258 L 47,257 L 47,256 L 46,255 L 45,254 L 45,253 L 44,250 L 43,249 L 43,248 L 42,248 L 41,248 L 40,246 L 40,245 L 40,244 L 39,243 L 39,242 L 38,241 L 38,240 L 37,240 L 37,239 L 36,238 L 35,237 L 32,235 L 31,231 L 29,230 L 27,226 L 27,225 L 26,224 L 26,223 L 25,222 L 25,220 L 24,218 L 23,217 L 22,218 L 18,214 L 16,212 L 12,208 L 13,208 L 13,206 L 15,203 L 16,202 L 17,201 L 20,198 L 21,197 L 21,195 L 21,194 L 22,194 L 22,193 L 22,192 L 22,191 L 21,191 L 21,190 L 21,189 L 21,188 L 20,188 L 20,187 L 19,187 L 18,188 L 17,188 L 16,186 L 15,186 L 14,186 L 13,187 L 12,187 L 11,186 L 10,185 L 10,184 L 10,183 L 9,183 L 9,182 L 9,181 L 8,181 L 8,180 L 8,179 L 8,178 L 8,177 L 8,176 L 8,175 L 8,174 L 7,174 L 6,174 L 6,173 L 5,173 L 4,173 L 3,172 L 2,171 L 1,170 L 1,169 L 1,168 L 1,166 L 1,164 L 1,163 L 1,162 L 0,162 L 0,160 L 1,160 L 2,160 L 2,159 L 3,159 L 4,159 L 5,159 L 6,159 L 6,158 L 6,157 L 7,157 L 7,156 L 7,155 L 7,154 L 7,153 L 6,153 L 5,153 L 5,152 L 5,151 L 5,150 L 5,149 L 5,148 L 6,147 L 5,146 L 4,146 L 3,145 L 2,145 L 2,144 L 2,143 L 3,143 L 3,142 L 2,142 L 2,141 L 1,141 L 2,140 L 2,139 L 3,139 L 3,138 L 3,137 L 4,137 L 4,136 L 5,136 L 6,136 L 7,137 L 8,137 L 9,138 L 10,138 L 11,138 L 12,138 L 12,137 L 12,136 L 13,136 L 14,136 L 14,135 L 15,136 L 16,136 L 17,136 L 18,135 L 19,134 L 20,134 L 20,133 L 21,133 L 22,133 L 23,133 L 24,133 L 25,133 L 26,134 L 27,134 L 28,134 L 28,133 L 29,133 L 29,134 L 29,135 L 30,135 L 31,135 L 31,136 L 31,135 L 32,136 L 33,137 L 34,137 L 34,138 L 35,139 L 36,139 L 36,140 L 37,140 L 37,141 L 36,141 L 36,142 L 37,143 L 37,144 L 38,144 L 39,144 L 40,145 L 40,146 L 40,147 L 39,148 L 40,149 L 40,150 L 41,150 L 42,150 L 43,151 L 44,151 L 45,151 L 46,151 L 46,152 L 46,153 L 46,154 L 47,154 L 47,155 L 48,155 L 50,157 L 51,157 L 53,158 L 53,159 L 54,159 L 56,158 " /></g>
</svg>
