<?xml version="1.0" standalone="no"?><!DOCTYPE svg PUBLIC "-//W3C//DTD SVG 1.1//EN" "http://www.w3.org/Graphics/SVG/1.1/DTD/svg11.dtd"><svg xmlns="http://www.w3.org/2000/svg" viewBox="-173 48 120 118" version = "1.1">
<g id="20902" ><path d="M -113,48 L -108,49 L -106,50 L -103,52 L -102,55 L -101,56 L -100,56 L -92,56 L -91,57 L -90,57 L -89,58 L -88,58 L -87,58 L -86,58 L -85,58 L -84,58 L -83,58 L -82,58 L -82,59 L -81,59 L -80,59 L -80,60 L -79,60 L -79,61 L -78,61 L -78,62 L -77,62 L -77,63 L -76,63 L -76,64 L -75,64 L -74,64 L -74,65 L -74,66 L -74,67 L -73,67 L -72,67 L -72,66 L -71,66 L -70,66 L -69,66 L -68,67 L -67,67 L -66,67 L -65,67 L -64,66 L -63,66 L -62,65 L -61,64 L -60,64 L -60,63 L -59,64 L -59,65 L -59,66 L -59,67 L -60,67 L -60,68 L -60,69 L -61,69 L -61,70 L -62,70 L -62,71 L -63,71 L -63,72 L -63,73 L -62,74 L -62,75 L -61,75 L -60,75 L -60,76 L -60,77 L -59,77 L -59,78 L -58,79 L -58,80 L -58,81 L -58,82 L -58,83 L -58,84 L -57,85 L -57,86 L -57,87 L -57,88 L -57,89 L -56,90 L -56,91 L -56,92 L -56,93 L -56,94 L -56,95 L -55,95 L -54,95 L -54,96 L -53,96 L -53,97 L -54,97 L -54,98 L -55,99 L -55,100 L -56,100 L -57,101 L -57,102 L -57,103 L -57,104 L -58,107 L -56,109 L -54,110 L -54,111 L -54,113 L -53,113 L -53,114 L -54,115 L -55,118 L -58,118 L -59,118 L -60,118 L -61,118 L -62,118 L -63,118 L -64,119 L -65,119 L -65,120 L -64,121 L -64,122 L -65,122 L -66,122 L -67,122 L -67,121 L -68,121 L -69,121 L -69,122 L -70,122 L -70,121 L -71,121 L -72,121 L -72,122 L -72,123 L -72,124 L -72,125 L -73,125 L -73,126 L -73,127 L -73,128 L -73,129 L -73,130 L -73,131 L -74,132 L -75,132 L -76,133 L -76,134 L -76,135 L -76,136 L -75,137 L -74,137 L -74,138 L -73,138 L -72,138 L -72,139 L -71,139 L -70,139 L -70,140 L -69,140 L -68,140 L -68,141 L -67,142 L -68,143 L -68,144 L -67,145 L -67,146 L -67,147 L -68,147 L -68,148 L -68,149 L -67,149 L -67,150 L -68,150 L -69,150 L -70,150 L -71,150 L -72,150 L -73,150 L -73,151 L -73,152 L -74,152 L -74,153 L -74,154 L -74,155 L -75,156 L -75,157 L -76,157 L -77,158 L -78,158 L -79,158 L -79,159 L -81,161 L -82,163 L -82,164 L -83,165 L -84,164 L -84,165 L -86,165 L -87,165 L -88,165 L -89,165 L -91,166 L -92,166 L -96,161 L -97,159 L -101,155 L -105,151 L -107,155 L -109,157 L -111,158 L -112,155 L -113,154 L -114,153 L -115,151 L -115,150 L -115,149 L -116,148 L -117,142 L -118,139 L -116,137 L -116,135 L -114,130 L -113,130 L -109,131 L -106,132 L -106,130 L -106,125 L -108,124 L -110,124 L -111,121 L -112,121 L -114,119 L -115,118 L -116,118 L -117,118 L -118,118 L -118,117 L -119,117 L -119,116 L -120,116 L -120,117 L -121,117 L -122,117 L -123,117 L -123,118 L -124,118 L -125,118 L -125,119 L -126,119 L -127,119 L -127,120 L -128,119 L -131,118 L -132,117 L -137,114 L -138,113 L -139,112 L -141,104 L -142,104 L -143,103 L -147,103 L -149,103 L -151,103 L -154,98 L -157,97 L -160,94 L -162,92 L -164,91 L -165,90 L -167,88 L -169,87 L -170,84 L -171,84 L -172,82 L -168,80 L -168,79 L -169,78 L -170,77 L -173,74 L -173,72 L -171,70 L -168,69 L -165,68 L -165,67 L -164,67 L -163,67 L -162,67 L -161,66 L -159,61 L -158,62 L -156,63 L -154,65 L -153,65 L -153,66 L -152,66 L -151,66 L -150,66 L -150,67 L -149,67 L -149,66 L -148,66 L -148,67 L -148,66 L -147,66 L -147,65 L -148,65 L -148,64 L -148,63 L -147,63 L -147,62 L -147,61 L -147,60 L -147,59 L -146,58 L -145,58 L -145,57 L -145,56 L -144,55 L -143,55 L -142,55 L -141,56 L -140,56 L -138,54 L -137,54 L -137,55 L -136,55 L -136,54 L -136,53 L -135,53 L -135,52 L -133,52 L -132,52 L -131,52 L -130,53 L -129,53 L -126,55 L -125,55 L -122,55 L -120,54 L -119,53 L -119,52 L -116,48 L -114,48 L -113,48 " /></g>
</svg>
