<?xml version="1.0" standalone="no"?><!DOCTYPE svg PUBLIC "-//W3C//DTD SVG 1.1//EN" "http://www.w3.org/Graphics/SVG/1.1/DTD/svg11.dtd"><svg xmlns="http://www.w3.org/2000/svg" viewBox="-91 96 98 85" version = "1.1">
<g id="20901" ><path d="M -35,114 L -35,115 L -34,115 L -33,115 L -32,114 L -31,114 L -30,114 L -28,115 L -27,115 L -25,115 L -24,115 L -21,115 L -20,115 L -19,115 L -16,117 L -13,118 L -10,117 L -9,116 L -8,116 L -7,116 L -6,117 L -5,117 L -5,118 L -5,119 L -5,120 L -4,120 L -5,120 L -5,121 L -5,122 L -5,123 L -6,123 L -6,124 L -6,125 L -6,126 L -7,126 L -6,126 L -5,126 L -5,127 L -4,127 L -3,127 L -2,127 L -2,128 L -1,128 L -1,129 L -1,130 L 0,130 L 0,131 L 1,131 L 1,132 L 2,133 L 2,134 L 3,134 L 3,135 L 4,136 L 4,137 L 3,137 L 3,138 L 3,139 L 2,139 L 2,140 L 1,141 L 2,141 L 2,142 L 3,142 L 3,143 L 2,143 L 2,144 L 2,145 L 3,145 L 4,146 L 5,146 L 6,147 L 5,148 L 5,149 L 5,150 L 5,151 L 5,152 L 5,153 L 6,153 L 7,153 L 7,154 L 7,155 L 7,156 L 7,157 L 6,157 L 6,158 L 6,159 L 5,159 L 4,159 L 3,159 L 2,159 L 2,160 L 1,160 L 0,160 L 0,162 L 1,162 L 1,163 L 1,164 L 1,166 L 1,168 L 1,169 L 1,170 L 2,171 L 2,173 L 1,173 L 1,174 L 0,175 L -1,174 L -2,173 L -3,174 L -4,176 L -5,177 L -7,177 L -8,177 L -9,177 L -10,177 L -11,177 L -13,177 L -15,176 L -16,175 L -18,174 L -19,172 L -20,171 L -21,168 L -23,166 L -26,164 L -27,162 L -26,161 L -27,161 L -27,160 L -28,160 L -29,160 L -30,160 L -30,159 L -31,158 L -31,157 L -31,156 L -32,156 L -32,155 L -34,154 L -35,153 L -35,152 L -35,151 L -35,150 L -34,150 L -34,149 L -34,148 L -35,147 L -36,146 L -36,147 L -37,147 L -38,147 L -38,148 L -39,148 L -39,149 L -40,149 L -41,149 L -41,150 L -42,150 L -43,150 L -43,151 L -44,151 L -44,152 L -43,153 L -43,154 L -43,155 L -42,155 L -42,156 L -42,157 L -42,158 L -41,158 L -42,159 L -42,160 L -42,161 L -42,162 L -42,163 L -42,164 L -42,165 L -42,166 L -42,167 L -42,168 L -41,168 L -41,169 L -42,169 L -42,170 L -43,170 L -43,171 L -44,171 L -45,171 L -45,172 L -46,172 L -47,172 L -47,173 L -47,174 L -47,175 L -46,175 L -46,176 L -46,177 L -47,177 L -48,177 L -49,177 L -51,177 L -53,178 L -57,177 L -59,176 L -59,177 L -60,177 L -60,178 L -61,180 L -62,181 L -63,180 L -64,179 L -65,179 L -66,179 L -67,178 L -67,177 L -68,177 L -69,177 L -69,176 L -70,176 L -71,176 L -72,176 L -75,176 L -79,176 L -81,176 L -82,175 L -83,175 L -84,175 L -83,174 L -84,173 L -88,169 L -91,166 L -89,165 L -88,165 L -87,165 L -86,165 L -84,165 L -84,164 L -83,165 L -82,164 L -82,163 L -81,161 L -79,159 L -79,158 L -78,158 L -77,158 L -76,157 L -75,157 L -75,156 L -74,155 L -74,154 L -74,153 L -74,152 L -73,152 L -73,151 L -73,150 L -72,150 L -71,150 L -70,150 L -69,150 L -68,150 L -67,150 L -67,149 L -68,149 L -68,148 L -68,147 L -67,147 L -67,146 L -67,145 L -68,144 L -68,143 L -67,142 L -68,141 L -68,140 L -69,140 L -70,140 L -70,139 L -71,139 L -72,139 L -72,138 L -73,138 L -74,138 L -74,137 L -75,137 L -76,136 L -76,135 L -76,134 L -76,133 L -75,132 L -74,132 L -73,131 L -73,130 L -73,129 L -73,128 L -73,127 L -73,126 L -73,125 L -72,125 L -72,124 L -72,123 L -72,122 L -72,121 L -71,121 L -70,121 L -70,122 L -69,122 L -69,121 L -68,121 L -67,121 L -67,122 L -66,122 L -65,122 L -64,122 L -64,121 L -65,120 L -65,119 L -64,119 L -63,118 L -62,118 L -61,118 L -60,118 L -59,118 L -58,118 L -55,118 L -54,115 L -53,114 L -53,113 L -54,113 L -54,111 L -54,110 L -56,109 L -58,107 L -57,104 L -57,103 L -57,102 L -57,101 L -56,100 L -55,100 L -55,99 L -54,98 L -54,97 L -53,97 L -53,96 L -53,97 L -53,98 L -53,99 L -54,99 L -54,100 L -53,100 L -53,101 L -53,102 L -53,103 L -52,103 L -52,104 L -51,104 L -50,105 L -49,106 L -49,107 L -49,108 L -49,109 L -48,110 L -48,111 L -47,112 L -46,112 L -46,113 L -45,113 L -44,114 L -43,114 L -42,114 L -41,114 L -40,114 L -39,114 L -38,114 L -37,114 L -35,114 " /></g>
</svg>
