<?xml version="1.0" standalone="no"?><!DOCTYPE svg PUBLIC "-//W3C//DTD SVG 1.1//EN" "http://www.w3.org/Graphics/SVG/1.1/DTD/svg11.dtd"><svg xmlns="http://www.w3.org/2000/svg" viewBox="89 -139 175 357" version = "1.1">
<g id="21001" ><path d="M 236,56 L 236,57 L 235,57 L 234,57 L 234,58 L 233,58 L 232,58 L 232,59 L 231,59 L 231,60 L 230,60 L 229,60 L 228,60 L 228,59 L 228,60 L 227,60 L 226,60 L 226,59 L 225,59 L 224,59 L 224,58 L 223,58 L 222,58 L 221,58 L 220,58 L 219,58 L 218,58 L 217,58 L 216,58 L 215,58 L 215,59 L 214,59 L 213,59 L 212,58 L 211,58 L 210,58 L 209,58 L 208,58 L 207,58 L 207,59 L 206,59 L 205,59 L 205,58 L 204,57 L 204,58 L 203,58 L 203,59 L 202,59 L 202,58 L 201,58 L 200,58 L 200,59 L 199,59 L 199,60 L 198,61 L 197,62 L 196,63 L 196,64 L 195,64 L 194,65 L 194,66 L 193,67 L 192,69 L 192,70 L 191,71 L 190,72 L 189,72 L 188,73 L 187,75 L 186,76 L 185,76 L 184,76 L 184,77 L 183,77 L 183,78 L 183,79 L 183,80 L 182,81 L 182,82 L 183,83 L 183,85 L 184,85 L 184,86 L 184,87 L 184,88 L 184,89 L 183,89 L 182,89 L 182,90 L 181,90 L 180,90 L 179,90 L 179,91 L 178,91 L 177,91 L 177,92 L 177,93 L 177,94 L 176,94 L 176,95 L 175,95 L 174,95 L 174,96 L 173,96 L 173,97 L 172,97 L 172,98 L 172,99 L 173,99 L 173,100 L 174,100 L 174,101 L 174,102 L 174,103 L 174,104 L 174,105 L 174,106 L 174,107 L 174,108 L 174,109 L 174,110 L 174,111 L 174,112 L 175,112 L 175,113 L 175,114 L 176,114 L 176,115 L 176,116 L 176,117 L 177,117 L 177,118 L 178,119 L 177,119 L 177,120 L 178,120 L 178,121 L 179,122 L 179,123 L 179,124 L 180,125 L 180,126 L 179,126 L 179,127 L 180,127 L 180,128 L 181,129 L 181,130 L 182,130 L 182,131 L 183,131 L 184,131 L 184,132 L 185,133 L 186,133 L 186,134 L 187,134 L 188,135 L 189,136 L 189,137 L 189,138 L 190,138 L 190,139 L 190,140 L 191,140 L 191,141 L 192,141 L 193,142 L 193,143 L 194,143 L 194,144 L 194,145 L 195,146 L 195,147 L 196,147 L 196,148 L 197,148 L 197,149 L 198,149 L 198,150 L 199,150 L 199,151 L 200,151 L 201,151 L 201,152 L 202,152 L 203,152 L 203,153 L 204,153 L 205,153 L 205,154 L 206,154 L 206,155 L 207,155 L 207,156 L 207,157 L 208,157 L 208,158 L 209,158 L 209,159 L 210,159 L 210,160 L 211,160 L 211,161 L 211,162 L 211,163 L 212,163 L 212,164 L 213,165 L 213,166 L 213,167 L 214,168 L 213,168 L 213,169 L 213,170 L 213,171 L 213,172 L 213,173 L 212,173 L 212,174 L 213,174 L 213,175 L 213,176 L 212,176 L 212,177 L 211,177 L 211,178 L 211,179 L 212,179 L 212,180 L 212,181 L 211,181 L 211,182 L 211,183 L 211,184 L 211,185 L 212,185 L 212,186 L 213,187 L 214,187 L 214,188 L 214,189 L 214,190 L 214,191 L 215,191 L 215,192 L 216,192 L 216,193 L 215,194 L 215,195 L 215,196 L 215,197 L 215,198 L 214,198 L 214,199 L 213,200 L 213,201 L 213,202 L 212,202 L 212,203 L 212,204 L 212,205 L 212,206 L 211,207 L 212,207 L 212,208 L 212,209 L 212,210 L 212,211 L 213,211 L 214,211 L 214,212 L 214,213 L 215,213 L 215,214 L 215,215 L 214,215 L 213,215 L 212,215 L 212,216 L 211,216 L 210,217 L 209,217 L 208,218 L 207,218 L 206,218 L 205,218 L 205,217 L 204,217 L 203,217 L 202,217 L 201,217 L 200,216 L 199,215 L 199,214 L 198,214 L 198,213 L 198,212 L 197,212 L 197,211 L 196,211 L 196,210 L 195,210 L 195,209 L 194,209 L 194,208 L 193,208 L 193,207 L 192,206 L 191,206 L 190,206 L 189,206 L 188,206 L 188,205 L 187,205 L 186,204 L 184,203 L 183,202 L 182,202 L 181,200 L 179,199 L 178,198 L 176,196 L 176,195 L 175,195 L 174,194 L 173,194 L 172,194 L 169,194 L 168,194 L 166,194 L 166,193 L 165,194 L 164,194 L 164,195 L 163,195 L 163,196 L 162,196 L 162,197 L 161,198 L 160,198 L 159,198 L 159,197 L 159,196 L 160,195 L 159,195 L 159,194 L 159,192 L 162,191 L 161,190 L 162,189 L 162,188 L 162,187 L 162,186 L 161,185 L 160,185 L 159,184 L 159,185 L 158,186 L 157,186 L 156,185 L 154,185 L 153,184 L 152,180 L 152,178 L 151,174 L 155,170 L 156,169 L 157,169 L 157,168 L 158,168 L 158,167 L 158,168 L 158,167 L 159,167 L 160,167 L 160,166 L 160,167 L 160,166 L 161,166 L 161,165 L 162,165 L 161,165 L 161,164 L 160,163 L 160,162 L 160,161 L 160,160 L 160,159 L 160,158 L 160,157 L 159,157 L 158,157 L 158,156 L 158,155 L 157,155 L 157,154 L 157,153 L 156,152 L 156,151 L 156,150 L 155,150 L 155,149 L 155,148 L 155,147 L 156,147 L 156,146 L 155,146 L 155,145 L 154,144 L 152,141 L 150,139 L 150,138 L 148,136 L 142,132 L 141,131 L 137,130 L 136,130 L 135,129 L 133,129 L 132,127 L 131,126 L 130,126 L 129,125 L 128,124 L 126,125 L 125,126 L 124,127 L 122,127 L 121,127 L 121,126 L 120,125 L 119,123 L 119,117 L 120,114 L 120,110 L 120,109 L 120,105 L 121,104 L 122,100 L 123,99 L 125,97 L 126,96 L 125,96 L 125,95 L 125,94 L 124,93 L 124,92 L 123,92 L 123,91 L 122,90 L 121,90 L 121,89 L 120,89 L 120,88 L 120,87 L 120,86 L 119,86 L 119,85 L 119,84 L 119,83 L 119,82 L 119,81 L 119,80 L 119,79 L 118,79 L 114,76 L 112,74 L 111,73 L 112,71 L 115,69 L 120,69 L 120,68 L 121,68 L 123,67 L 125,68 L 126,68 L 126,67 L 127,67 L 133,65 L 137,64 L 139,62 L 140,60 L 143,58 L 143,56 L 142,54 L 141,54 L 140,54 L 138,53 L 138,52 L 138,50 L 137,49 L 136,48 L 136,46 L 136,45 L 137,45 L 137,44 L 138,44 L 138,43 L 138,42 L 139,42 L 139,41 L 139,40 L 139,39 L 140,39 L 140,38 L 141,37 L 142,37 L 142,36 L 143,36 L 143,35 L 144,35 L 144,34 L 145,34 L 146,33 L 146,32 L 147,32 L 147,33 L 147,32 L 147,31 L 147,30 L 148,30 L 148,29 L 149,29 L 148,29 L 149,29 L 149,28 L 148,28 L 148,27 L 148,26 L 147,25 L 147,24 L 146,24 L 146,23 L 146,22 L 147,22 L 147,21 L 147,20 L 147,19 L 148,19 L 148,18 L 148,17 L 148,16 L 148,15 L 148,14 L 148,13 L 148,12 L 149,12 L 149,11 L 150,10 L 149,10 L 149,9 L 148,9 L 148,8 L 148,7 L 147,7 L 147,6 L 146,6 L 145,6 L 144,6 L 144,5 L 143,5 L 142,5 L 141,5 L 140,5 L 140,4 L 139,4 L 139,3 L 138,3 L 138,2 L 137,2 L 137,1 L 137,0 L 136,0 L 135,0 L 135,-1 L 134,-1 L 134,-2 L 134,-3 L 133,-3 L 133,-4 L 133,-5 L 132,-5 L 131,-5 L 130,-5 L 130,-6 L 129,-6 L 129,-7 L 128,-7 L 128,-8 L 127,-8 L 127,-9 L 126,-9 L 126,-10 L 125,-10 L 125,-11 L 125,-12 L 125,-13 L 124,-13 L 124,-14 L 123,-14 L 123,-15 L 123,-16 L 122,-16 L 122,-17 L 121,-17 L 121,-18 L 120,-18 L 121,-18 L 120,-18 L 120,-19 L 120,-20 L 119,-20 L 119,-21 L 119,-22 L 118,-22 L 118,-23 L 118,-24 L 117,-24 L 116,-24 L 116,-25 L 115,-26 L 115,-27 L 114,-27 L 113,-27 L 112,-27 L 112,-28 L 111,-28 L 111,-29 L 111,-30 L 110,-30 L 110,-31 L 109,-31 L 108,-31 L 108,-32 L 107,-32 L 106,-32 L 106,-33 L 105,-33 L 104,-34 L 103,-34 L 103,-35 L 103,-36 L 102,-36 L 102,-37 L 101,-37 L 101,-38 L 100,-38 L 100,-39 L 99,-39 L 99,-40 L 98,-40 L 97,-41 L 97,-42 L 97,-43 L 97,-44 L 97,-45 L 96,-45 L 96,-46 L 96,-47 L 96,-48 L 96,-49 L 96,-50 L 96,-51 L 95,-51 L 95,-52 L 94,-52 L 94,-53 L 94,-54 L 93,-54 L 93,-55 L 93,-56 L 92,-56 L 92,-57 L 92,-58 L 92,-59 L 91,-59 L 91,-60 L 90,-61 L 90,-62 L 90,-63 L 90,-64 L 89,-64 L 89,-65 L 89,-66 L 89,-67 L 89,-68 L 89,-69 L 89,-70 L 89,-71 L 90,-71 L 90,-72 L 91,-72 L 91,-73 L 91,-74 L 91,-75 L 91,-76 L 92,-76 L 92,-77 L 91,-77 L 91,-78 L 90,-78 L 89,-79 L 89,-80 L 121,-93 L 134,-98 L 144,-104 L 162,-112 L 174,-116 L 183,-122 L 193,-125 L 198,-127 L 209,-132 L 224,-139 L 224,-138 L 224,-137 L 225,-137 L 225,-136 L 226,-136 L 226,-135 L 227,-134 L 227,-135 L 228,-134 L 229,-134 L 230,-134 L 230,-133 L 231,-132 L 232,-132 L 232,-131 L 233,-131 L 234,-131 L 235,-131 L 235,-130 L 235,-129 L 235,-128 L 236,-127 L 237,-127 L 237,-126 L 238,-126 L 239,-125 L 240,-124 L 241,-123 L 241,-122 L 241,-121 L 241,-120 L 240,-120 L 240,-119 L 241,-118 L 241,-117 L 240,-116 L 241,-116 L 241,-115 L 241,-114 L 242,-113 L 242,-112 L 242,-111 L 242,-110 L 242,-109 L 242,-108 L 243,-107 L 243,-106 L 243,-105 L 242,-104 L 242,-103 L 242,-102 L 242,-101 L 243,-100 L 242,-99 L 243,-99 L 243,-98 L 243,-97 L 243,-96 L 243,-95 L 243,-93 L 243,-92 L 243,-91 L 243,-90 L 243,-89 L 243,-88 L 243,-87 L 244,-86 L 244,-85 L 245,-84 L 245,-83 L 244,-83 L 245,-82 L 246,-82 L 247,-82 L 247,-81 L 247,-80 L 247,-79 L 247,-78 L 246,-78 L 246,-77 L 246,-76 L 246,-75 L 246,-74 L 245,-73 L 245,-72 L 246,-72 L 246,-71 L 246,-70 L 246,-69 L 246,-68 L 246,-67 L 247,-67 L 247,-66 L 247,-65 L 247,-64 L 247,-63 L 246,-62 L 245,-62 L 245,-61 L 245,-60 L 245,-59 L 245,-58 L 246,-57 L 247,-57 L 247,-56 L 248,-55 L 249,-54 L 250,-53 L 251,-53 L 251,-52 L 252,-52 L 252,-51 L 252,-50 L 252,-49 L 251,-49 L 251,-48 L 250,-48 L 249,-47 L 249,-46 L 250,-45 L 250,-44 L 251,-44 L 251,-43 L 252,-42 L 253,-42 L 253,-41 L 253,-40 L 253,-39 L 254,-39 L 255,-39 L 255,-38 L 255,-37 L 256,-37 L 256,-36 L 257,-36 L 257,-35 L 257,-34 L 258,-34 L 258,-33 L 259,-32 L 259,-31 L 260,-31 L 260,-30 L 261,-30 L 261,-29 L 261,-28 L 261,-27 L 262,-27 L 262,-26 L 263,-26 L 263,-25 L 264,-24 L 264,-23 L 264,-22 L 264,-21 L 263,-20 L 262,-20 L 262,-19 L 263,-19 L 263,-18 L 262,-17 L 263,-17 L 263,-16 L 264,-15 L 263,-15 L 263,-14 L 263,-13 L 263,-12 L 262,-12 L 261,-12 L 261,-11 L 261,-10 L 260,-10 L 260,-9 L 259,-9 L 260,-9 L 260,-8 L 260,-7 L 260,-6 L 260,-5 L 261,-5 L 261,-4 L 261,-3 L 261,-2 L 261,-1 L 261,0 L 260,0 L 259,0 L 259,1 L 259,2 L 258,3 L 258,4 L 257,4 L 257,5 L 257,6 L 257,7 L 257,8 L 256,8 L 256,9 L 256,10 L 255,10 L 255,11 L 256,11 L 256,12 L 256,13 L 256,14 L 256,15 L 257,15 L 257,16 L 258,16 L 258,17 L 259,18 L 260,19 L 260,20 L 261,20 L 261,21 L 260,21 L 260,22 L 260,23 L 260,24 L 261,24 L 261,25 L 260,25 L 260,26 L 260,27 L 260,28 L 261,28 L 261,30 L 261,31 L 260,33 L 259,34 L 258,35 L 258,36 L 257,36 L 256,36 L 255,36 L 255,37 L 255,38 L 255,39 L 255,40 L 254,40 L 254,41 L 253,41 L 252,42 L 251,42 L 251,41 L 250,41 L 249,41 L 249,42 L 248,43 L 248,44 L 247,44 L 247,45 L 247,46 L 248,46 L 248,47 L 247,47 L 247,48 L 247,49 L 246,49 L 245,49 L 244,50 L 243,50 L 242,50 L 242,51 L 242,52 L 241,52 L 241,53 L 240,53 L 239,53 L 239,54 L 238,55 L 237,56 L 236,56 " /></g>
</svg>
