<?xml version="1.0" standalone="no"?><!DOCTYPE svg PUBLIC "-//W3C//DTD SVG 1.1//EN" "http://www.w3.org/Graphics/SVG/1.1/DTD/svg11.dtd"><svg xmlns="http://www.w3.org/2000/svg" viewBox="107 193 129 133" version = "1.1">
<g id="21004" ><path d="M 176,196 L 178,198 L 179,199 L 181,200 L 182,202 L 183,202 L 184,203 L 186,204 L 187,205 L 188,205 L 188,206 L 189,206 L 190,206 L 191,206 L 192,206 L 193,207 L 193,208 L 194,208 L 194,209 L 195,209 L 195,210 L 196,210 L 196,211 L 197,211 L 197,212 L 198,212 L 198,213 L 198,214 L 199,214 L 199,215 L 200,216 L 201,217 L 202,217 L 203,217 L 204,217 L 205,217 L 205,218 L 206,218 L 207,218 L 208,218 L 209,217 L 210,217 L 211,216 L 212,216 L 212,215 L 213,215 L 214,215 L 215,215 L 215,214 L 216,214 L 217,214 L 217,215 L 218,215 L 219,215 L 219,216 L 220,216 L 220,217 L 221,217 L 222,217 L 222,218 L 223,218 L 224,219 L 225,219 L 226,219 L 226,220 L 226,219 L 227,220 L 227,221 L 227,222 L 227,223 L 226,223 L 226,224 L 226,225 L 226,226 L 226,227 L 225,227 L 224,227 L 223,227 L 222,227 L 222,228 L 221,228 L 222,228 L 222,229 L 222,230 L 223,230 L 223,231 L 223,230 L 223,231 L 224,231 L 224,230 L 225,230 L 225,231 L 225,232 L 226,232 L 226,233 L 226,234 L 226,235 L 226,236 L 226,237 L 225,238 L 225,239 L 225,240 L 224,240 L 224,241 L 225,241 L 225,242 L 226,242 L 226,243 L 225,243 L 224,243 L 223,243 L 222,243 L 222,244 L 221,243 L 221,244 L 220,244 L 220,245 L 219,245 L 220,245 L 220,246 L 220,247 L 219,247 L 219,248 L 219,249 L 218,249 L 218,250 L 217,251 L 217,252 L 216,252 L 216,253 L 216,254 L 216,255 L 217,256 L 217,257 L 218,257 L 219,257 L 219,258 L 219,259 L 220,259 L 220,260 L 221,260 L 222,260 L 222,261 L 223,261 L 224,261 L 225,261 L 226,262 L 227,262 L 227,263 L 228,263 L 228,264 L 229,264 L 229,265 L 230,265 L 229,266 L 229,267 L 229,268 L 229,269 L 229,270 L 229,271 L 230,271 L 230,272 L 230,273 L 230,274 L 231,274 L 231,275 L 231,276 L 232,276 L 232,277 L 232,278 L 233,278 L 233,279 L 234,279 L 234,280 L 234,281 L 235,282 L 236,282 L 236,283 L 236,284 L 236,285 L 236,286 L 236,287 L 235,287 L 235,288 L 234,288 L 234,289 L 233,290 L 232,290 L 232,291 L 231,291 L 231,290 L 230,290 L 230,291 L 229,291 L 229,292 L 228,292 L 228,293 L 227,293 L 226,293 L 225,293 L 224,293 L 224,294 L 223,294 L 222,294 L 221,295 L 220,295 L 220,294 L 220,295 L 219,295 L 218,295 L 217,295 L 216,295 L 215,295 L 215,296 L 216,296 L 216,297 L 216,298 L 216,299 L 217,299 L 216,299 L 217,299 L 217,300 L 217,301 L 216,301 L 215,301 L 215,302 L 214,302 L 214,303 L 214,304 L 213,304 L 213,305 L 213,306 L 213,307 L 212,308 L 212,309 L 211,309 L 211,310 L 208,312 L 201,316 L 199,316 L 196,319 L 184,322 L 183,322 L 182,322 L 172,326 L 171,325 L 170,323 L 170,321 L 165,318 L 163,318 L 162,317 L 160,316 L 158,312 L 157,311 L 160,306 L 163,300 L 167,294 L 168,291 L 167,288 L 166,285 L 162,281 L 158,280 L 156,278 L 155,275 L 154,274 L 155,273 L 153,272 L 152,271 L 150,271 L 148,271 L 146,270 L 145,270 L 140,270 L 133,270 L 129,266 L 127,266 L 124,264 L 122,262 L 117,259 L 116,258 L 115,257 L 114,257 L 114,256 L 113,255 L 112,255 L 111,254 L 110,253 L 110,252 L 111,251 L 111,250 L 112,250 L 111,250 L 112,250 L 112,249 L 112,248 L 112,247 L 111,246 L 111,245 L 111,244 L 111,243 L 111,242 L 111,241 L 111,240 L 110,240 L 110,239 L 110,238 L 109,238 L 109,237 L 108,237 L 108,236 L 107,236 L 107,235 L 108,235 L 108,234 L 108,233 L 108,232 L 108,231 L 109,231 L 109,230 L 108,230 L 108,229 L 109,229 L 110,229 L 111,229 L 112,229 L 113,229 L 114,229 L 115,229 L 116,229 L 117,229 L 117,230 L 118,230 L 119,230 L 119,229 L 120,229 L 120,228 L 121,227 L 122,226 L 123,225 L 124,225 L 124,223 L 125,220 L 125,218 L 125,217 L 126,217 L 127,216 L 128,215 L 128,214 L 128,213 L 128,212 L 127,212 L 127,211 L 126,211 L 126,209 L 127,209 L 128,209 L 130,209 L 133,208 L 134,209 L 137,209 L 138,210 L 139,210 L 141,210 L 144,209 L 145,209 L 147,209 L 148,209 L 149,208 L 150,207 L 151,207 L 152,207 L 152,206 L 152,205 L 153,205 L 152,204 L 152,203 L 152,202 L 151,202 L 151,201 L 151,200 L 151,199 L 151,198 L 152,198 L 153,197 L 153,196 L 154,196 L 156,196 L 157,197 L 158,197 L 159,197 L 159,198 L 160,198 L 161,198 L 162,197 L 162,196 L 163,196 L 163,195 L 164,195 L 164,194 L 165,194 L 166,193 L 166,194 L 168,194 L 169,194 L 172,194 L 173,194 L 174,194 L 175,195 L 176,195 L 176,196 " /></g>
</svg>
