<?xml version="1.0" standalone="no"?><!DOCTYPE svg PUBLIC "-//W3C//DTD SVG 1.1//EN" "http://www.w3.org/Graphics/SVG/1.1/DTD/svg11.dtd"><svg xmlns="http://www.w3.org/2000/svg" viewBox="70 29 73 42" version = "1.1">
<g id="21006" ><path d="M 95,29 L 96,30 L 97,30 L 98,30 L 98,31 L 99,31 L 99,32 L 100,32 L 101,32 L 102,32 L 103,32 L 104,32 L 105,32 L 106,32 L 106,33 L 111,35 L 113,38 L 115,38 L 119,41 L 122,40 L 126,37 L 129,38 L 130,39 L 131,39 L 133,41 L 135,43 L 136,44 L 136,45 L 136,46 L 136,48 L 137,49 L 138,50 L 138,52 L 138,53 L 140,54 L 141,54 L 142,54 L 143,56 L 143,58 L 140,60 L 139,62 L 137,64 L 133,65 L 127,67 L 126,67 L 126,68 L 125,68 L 123,67 L 121,68 L 120,68 L 120,69 L 115,69 L 112,71 L 111,71 L 110,70 L 109,70 L 108,70 L 107,70 L 106,70 L 105,70 L 104,70 L 104,69 L 103,69 L 103,68 L 102,68 L 102,67 L 102,66 L 101,66 L 100,65 L 100,64 L 99,64 L 98,64 L 97,64 L 97,63 L 97,62 L 96,62 L 95,62 L 95,61 L 94,61 L 94,60 L 94,59 L 93,59 L 93,58 L 92,59 L 91,59 L 91,60 L 90,60 L 90,61 L 90,62 L 89,62 L 89,63 L 87,62 L 85,62 L 84,61 L 75,55 L 74,53 L 74,52 L 71,47 L 70,41 L 73,38 L 74,37 L 75,38 L 76,39 L 77,38 L 82,36 L 84,36 L 85,37 L 87,36 L 88,35 L 88,34 L 89,34 L 89,33 L 89,32 L 90,32 L 90,31 L 91,31 L 92,31 L 92,30 L 92,29 L 93,29 L 93,30 L 94,29 L 95,29 " /></g>
</svg>
