<?xml version="1.0" standalone="no"?><!DOCTYPE svg PUBLIC "-//W3C//DTD SVG 1.1//EN" "http://www.w3.org/Graphics/SVG/1.1/DTD/svg11.dtd"><svg xmlns="http://www.w3.org/2000/svg" viewBox="35 -80 115 125" version = "1.1">
<g id="21003" ><path d="M 89,-80 L 89,-79 L 90,-78 L 91,-78 L 91,-77 L 92,-77 L 92,-76 L 91,-76 L 91,-75 L 91,-74 L 91,-73 L 91,-72 L 90,-72 L 90,-71 L 89,-71 L 89,-70 L 89,-69 L 89,-68 L 89,-67 L 89,-66 L 89,-65 L 89,-64 L 90,-64 L 90,-63 L 90,-62 L 90,-61 L 91,-60 L 91,-59 L 92,-59 L 92,-58 L 92,-57 L 92,-56 L 93,-56 L 93,-55 L 93,-54 L 94,-54 L 94,-53 L 94,-52 L 95,-52 L 95,-51 L 96,-51 L 96,-50 L 96,-49 L 96,-48 L 96,-47 L 96,-46 L 96,-45 L 97,-45 L 97,-44 L 97,-43 L 97,-42 L 97,-41 L 98,-40 L 99,-40 L 99,-39 L 100,-39 L 100,-38 L 101,-38 L 101,-37 L 102,-37 L 102,-36 L 103,-36 L 103,-35 L 103,-34 L 104,-34 L 105,-33 L 106,-33 L 106,-32 L 107,-32 L 108,-32 L 108,-31 L 109,-31 L 110,-31 L 110,-30 L 111,-30 L 111,-29 L 111,-28 L 112,-28 L 112,-27 L 113,-27 L 114,-27 L 115,-27 L 115,-26 L 116,-25 L 116,-24 L 117,-24 L 118,-24 L 118,-23 L 118,-22 L 119,-22 L 119,-21 L 119,-20 L 120,-20 L 120,-19 L 120,-18 L 121,-18 L 120,-18 L 121,-18 L 121,-17 L 122,-17 L 122,-16 L 123,-16 L 123,-15 L 123,-14 L 124,-14 L 124,-13 L 125,-13 L 125,-12 L 125,-11 L 125,-10 L 126,-10 L 126,-9 L 127,-9 L 127,-8 L 128,-8 L 128,-7 L 129,-7 L 129,-6 L 130,-6 L 130,-5 L 131,-5 L 132,-5 L 133,-5 L 133,-4 L 133,-3 L 134,-3 L 134,-2 L 134,-1 L 135,-1 L 135,0 L 136,0 L 137,0 L 137,1 L 137,2 L 138,2 L 138,3 L 139,3 L 139,4 L 140,4 L 140,5 L 141,5 L 142,5 L 143,5 L 144,5 L 144,6 L 145,6 L 146,6 L 147,6 L 147,7 L 148,7 L 148,8 L 148,9 L 149,9 L 149,10 L 150,10 L 149,11 L 149,12 L 148,12 L 148,13 L 148,14 L 148,15 L 148,16 L 148,17 L 148,18 L 148,19 L 147,19 L 147,20 L 147,21 L 147,22 L 146,22 L 146,23 L 146,24 L 147,24 L 147,25 L 148,26 L 148,27 L 148,28 L 149,28 L 149,29 L 148,29 L 149,29 L 148,29 L 148,30 L 147,30 L 147,31 L 147,32 L 147,33 L 147,32 L 146,32 L 146,33 L 145,34 L 144,34 L 144,35 L 143,35 L 143,36 L 142,36 L 142,37 L 141,37 L 140,38 L 140,39 L 139,39 L 139,40 L 139,41 L 139,42 L 138,42 L 138,43 L 138,44 L 137,44 L 137,45 L 136,45 L 136,44 L 135,43 L 133,41 L 131,39 L 130,39 L 129,38 L 126,37 L 122,40 L 119,41 L 115,38 L 113,38 L 111,35 L 106,33 L 106,32 L 105,32 L 104,32 L 103,32 L 102,32 L 101,32 L 100,32 L 99,32 L 99,31 L 98,31 L 98,30 L 97,30 L 96,30 L 95,29 L 94,29 L 93,30 L 93,29 L 92,29 L 92,30 L 92,31 L 91,31 L 90,31 L 90,32 L 89,32 L 89,33 L 89,34 L 88,34 L 88,35 L 87,36 L 85,37 L 84,36 L 82,36 L 77,38 L 76,39 L 75,38 L 74,37 L 73,35 L 74,34 L 73,33 L 75,26 L 75,25 L 75,24 L 75,23 L 76,23 L 76,22 L 75,22 L 75,21 L 76,21 L 76,20 L 76,19 L 77,19 L 77,18 L 78,18 L 77,18 L 77,17 L 76,17 L 76,16 L 75,16 L 74,15 L 74,14 L 73,14 L 72,13 L 71,13 L 70,13 L 70,12 L 69,12 L 68,12 L 68,11 L 67,11 L 67,12 L 67,11 L 66,11 L 66,10 L 65,10 L 64,10 L 64,9 L 63,9 L 63,8 L 62,8 L 61,7 L 61,8 L 61,7 L 60,7 L 59,7 L 59,6 L 58,6 L 58,5 L 58,4 L 58,3 L 58,2 L 58,1 L 57,1 L 57,0 L 57,-1 L 56,-1 L 56,-2 L 56,-3 L 56,-2 L 55,-3 L 55,-2 L 54,-2 L 54,-3 L 53,-3 L 52,-3 L 51,-3 L 51,-2 L 50,-2 L 51,-2 L 51,-1 L 51,0 L 50,0 L 50,1 L 49,1 L 48,1 L 48,0 L 47,0 L 46,0 L 45,0 L 44,0 L 44,-1 L 43,-1 L 43,-2 L 42,-2 L 42,-3 L 41,-3 L 41,-4 L 41,-5 L 42,-5 L 42,-6 L 41,-6 L 41,-7 L 41,-8 L 41,-10 L 41,-11 L 42,-12 L 42,-13 L 41,-14 L 41,-15 L 41,-16 L 40,-16 L 39,-16 L 38,-16 L 38,-17 L 37,-17 L 37,-18 L 36,-18 L 36,-19 L 36,-20 L 37,-20 L 37,-21 L 37,-22 L 37,-23 L 37,-24 L 36,-24 L 36,-25 L 36,-26 L 35,-26 L 35,-27 L 35,-28 L 36,-28 L 36,-29 L 36,-30 L 37,-30 L 37,-31 L 38,-31 L 38,-32 L 39,-32 L 40,-33 L 40,-34 L 40,-35 L 41,-35 L 41,-36 L 41,-37 L 42,-37 L 43,-37 L 44,-37 L 44,-38 L 45,-39 L 46,-39 L 46,-40 L 46,-41 L 46,-42 L 46,-43 L 47,-44 L 47,-45 L 48,-45 L 49,-45 L 49,-46 L 50,-46 L 51,-46 L 52,-46 L 53,-46 L 54,-46 L 55,-46 L 55,-47 L 56,-47 L 56,-48 L 57,-48 L 58,-48 L 59,-48 L 60,-48 L 60,-49 L 60,-50 L 60,-51 L 61,-51 L 61,-52 L 62,-52 L 62,-53 L 63,-53 L 63,-54 L 64,-54 L 64,-53 L 64,-54 L 65,-54 L 65,-55 L 66,-55 L 66,-56 L 66,-57 L 67,-57 L 68,-58 L 69,-58 L 70,-58 L 71,-58 L 71,-59 L 72,-59 L 73,-59 L 74,-59 L 75,-59 L 76,-59 L 77,-59 L 77,-60 L 78,-60 L 79,-60 L 79,-61 L 79,-62 L 80,-62 L 80,-63 L 81,-63 L 81,-64 L 82,-64 L 82,-65 L 83,-65 L 83,-66 L 84,-67 L 84,-68 L 84,-69 L 85,-70 L 86,-70 L 86,-71 L 87,-72 L 88,-72 L 88,-73 L 88,-74 L 89,-74 L 89,-75 L 88,-75 L 88,-76 L 89,-77 L 89,-78 L 88,-78 L 88,-79 L 88,-80 L 89,-80 L 88,-80 L 89,-80 " /></g>
</svg>
