<?xml version="1.0" standalone="no"?><!DOCTYPE svg PUBLIC "-//W3C//DTD SVG 1.1//EN" "http://www.w3.org/Graphics/SVG/1.1/DTD/svg11.dtd"><svg xmlns="http://www.w3.org/2000/svg" viewBox="0 -27 126 170" version = "1.1">
<g id="21002" ><path d="M 36,-25 L 36,-24 L 37,-24 L 37,-23 L 37,-22 L 37,-21 L 37,-20 L 36,-20 L 36,-19 L 36,-18 L 37,-18 L 37,-17 L 38,-17 L 38,-16 L 39,-16 L 40,-16 L 41,-16 L 41,-15 L 41,-14 L 42,-13 L 42,-12 L 41,-11 L 41,-10 L 41,-8 L 41,-7 L 41,-6 L 42,-6 L 42,-5 L 41,-5 L 41,-4 L 41,-3 L 42,-3 L 42,-2 L 43,-2 L 43,-1 L 44,-1 L 44,0 L 45,0 L 46,0 L 47,0 L 48,0 L 48,1 L 49,1 L 50,1 L 50,0 L 51,0 L 51,-1 L 51,-2 L 50,-2 L 51,-2 L 51,-3 L 52,-3 L 53,-3 L 54,-3 L 54,-2 L 55,-2 L 55,-3 L 56,-2 L 56,-3 L 56,-2 L 56,-1 L 57,-1 L 57,0 L 57,1 L 58,1 L 58,2 L 58,3 L 58,4 L 58,5 L 58,6 L 59,6 L 59,7 L 60,7 L 61,7 L 61,8 L 61,7 L 62,8 L 63,8 L 63,9 L 64,9 L 64,10 L 65,10 L 66,10 L 66,11 L 67,11 L 67,12 L 67,11 L 68,11 L 68,12 L 69,12 L 70,12 L 70,13 L 71,13 L 72,13 L 73,14 L 74,14 L 74,15 L 75,16 L 76,16 L 76,17 L 77,17 L 77,18 L 78,18 L 77,18 L 77,19 L 76,19 L 76,20 L 76,21 L 75,21 L 75,22 L 76,22 L 76,23 L 75,23 L 75,24 L 75,25 L 75,26 L 73,33 L 74,34 L 73,35 L 74,37 L 73,38 L 70,41 L 71,47 L 74,52 L 74,53 L 75,55 L 84,61 L 85,62 L 87,62 L 89,63 L 89,62 L 90,62 L 90,61 L 90,60 L 91,60 L 91,59 L 92,59 L 93,58 L 93,59 L 94,59 L 94,60 L 94,61 L 95,61 L 95,62 L 96,62 L 97,62 L 97,63 L 97,64 L 98,64 L 99,64 L 100,64 L 100,65 L 101,66 L 102,66 L 102,67 L 102,68 L 103,68 L 103,69 L 104,69 L 104,70 L 105,70 L 106,70 L 107,70 L 108,70 L 109,70 L 110,70 L 111,71 L 112,71 L 111,73 L 112,74 L 114,76 L 118,79 L 119,79 L 119,80 L 119,81 L 119,82 L 119,83 L 119,84 L 119,85 L 119,86 L 120,86 L 120,87 L 120,88 L 120,89 L 121,89 L 121,90 L 122,90 L 123,91 L 123,92 L 124,92 L 124,93 L 125,94 L 125,95 L 125,96 L 126,96 L 125,97 L 123,99 L 122,100 L 121,104 L 120,105 L 120,109 L 120,110 L 120,114 L 119,117 L 119,123 L 117,123 L 115,123 L 114,124 L 113,125 L 113,126 L 112,126 L 111,126 L 110,125 L 109,124 L 108,125 L 107,125 L 106,124 L 105,125 L 104,125 L 102,126 L 100,125 L 99,125 L 98,124 L 97,125 L 95,127 L 93,128 L 93,130 L 93,131 L 94,133 L 93,135 L 91,136 L 90,136 L 87,134 L 86,134 L 85,134 L 82,132 L 78,132 L 77,133 L 77,135 L 77,137 L 76,137 L 75,138 L 75,139 L 75,140 L 75,141 L 73,143 L 72,138 L 67,133 L 64,125 L 60,117 L 55,111 L 52,109 L 50,106 L 46,102 L 43,100 L 41,94 L 39,89 L 36,85 L 35,83 L 34,83 L 32,83 L 29,79 L 29,78 L 28,78 L 28,77 L 28,76 L 27,74 L 26,73 L 24,72 L 22,72 L 19,69 L 15,64 L 12,61 L 11,60 L 6,58 L 4,50 L 2,48 L 2,45 L 2,42 L 0,37 L 2,35 L 4,33 L 5,34 L 9,33 L 9,31 L 11,29 L 10,27 L 12,27 L 14,27 L 15,25 L 16,24 L 18,24 L 19,23 L 20,23 L 22,20 L 22,19 L 24,18 L 25,18 L 24,15 L 23,11 L 20,9 L 17,8 L 15,7 L 14,5 L 14,2 L 12,0 L 11,-1 L 9,-5 L 7,-13 L 8,-13 L 9,-13 L 9,-12 L 10,-12 L 11,-12 L 12,-12 L 13,-12 L 14,-12 L 15,-12 L 16,-12 L 16,-13 L 17,-13 L 17,-14 L 18,-15 L 19,-15 L 20,-15 L 21,-15 L 22,-15 L 22,-16 L 22,-17 L 23,-17 L 23,-18 L 24,-18 L 25,-18 L 25,-19 L 26,-20 L 26,-21 L 27,-21 L 27,-22 L 27,-23 L 28,-23 L 29,-23 L 29,-24 L 30,-24 L 30,-25 L 31,-25 L 32,-25 L 33,-25 L 33,-26 L 34,-26 L 35,-26 L 35,-27 L 35,-26 L 36,-26 L 36,-25 " /></g>
</svg>
