<?xml version="1.0" standalone="no"?><!DOCTYPE svg PUBLIC "-//W3C//DTD SVG 1.1//EN" "http://www.w3.org/Graphics/SVG/1.1/DTD/svg11.dtd"><svg xmlns="http://www.w3.org/2000/svg" viewBox="56 123 106 117" version = "1.1">
<g id="21005" ><path d="M 119,123 L 120,125 L 121,126 L 121,127 L 122,127 L 124,127 L 125,126 L 126,125 L 128,124 L 129,125 L 130,126 L 131,126 L 132,127 L 133,129 L 135,129 L 136,130 L 137,130 L 141,131 L 142,132 L 148,136 L 150,138 L 150,139 L 152,141 L 154,144 L 155,145 L 155,146 L 156,146 L 156,147 L 155,147 L 155,148 L 155,149 L 155,150 L 156,150 L 156,151 L 156,152 L 157,153 L 157,154 L 157,155 L 158,155 L 158,156 L 158,157 L 159,157 L 160,157 L 160,158 L 160,159 L 160,160 L 160,161 L 160,162 L 160,163 L 161,164 L 161,165 L 162,165 L 161,165 L 161,166 L 160,166 L 160,167 L 160,166 L 160,167 L 159,167 L 158,167 L 158,168 L 158,167 L 158,168 L 157,168 L 157,169 L 156,169 L 155,170 L 151,174 L 152,178 L 152,180 L 153,184 L 154,185 L 156,185 L 157,186 L 158,186 L 159,185 L 159,184 L 160,185 L 161,185 L 162,186 L 162,187 L 162,188 L 162,189 L 161,190 L 162,191 L 159,192 L 159,194 L 159,195 L 160,195 L 159,196 L 159,197 L 158,197 L 157,197 L 156,196 L 154,196 L 153,196 L 153,197 L 152,198 L 151,198 L 151,199 L 151,200 L 151,201 L 151,202 L 152,202 L 152,203 L 152,204 L 153,205 L 152,205 L 152,206 L 152,207 L 151,207 L 150,207 L 149,208 L 148,209 L 147,209 L 145,209 L 144,209 L 141,210 L 139,210 L 138,210 L 137,209 L 134,209 L 133,208 L 130,209 L 128,209 L 127,209 L 126,209 L 126,211 L 127,211 L 127,212 L 128,212 L 128,213 L 128,214 L 128,215 L 127,216 L 126,217 L 125,217 L 125,218 L 125,220 L 124,223 L 124,225 L 123,225 L 122,226 L 121,227 L 120,228 L 120,229 L 119,229 L 119,230 L 118,230 L 117,230 L 117,229 L 116,229 L 115,229 L 114,229 L 113,229 L 112,229 L 111,229 L 110,229 L 109,229 L 108,229 L 108,230 L 107,228 L 107,227 L 106,227 L 106,226 L 105,226 L 104,226 L 103,226 L 102,226 L 101,227 L 101,226 L 100,226 L 100,225 L 99,225 L 98,225 L 98,226 L 98,227 L 97,226 L 96,226 L 96,225 L 95,225 L 94,225 L 94,224 L 93,224 L 92,224 L 92,223 L 91,223 L 91,222 L 90,222 L 90,223 L 90,222 L 89,222 L 89,223 L 89,224 L 89,225 L 88,225 L 88,226 L 87,226 L 86,226 L 86,227 L 85,227 L 84,228 L 83,228 L 82,228 L 82,229 L 81,229 L 81,230 L 81,231 L 80,231 L 80,232 L 79,232 L 79,233 L 79,234 L 78,234 L 79,235 L 79,236 L 78,236 L 78,237 L 78,238 L 77,238 L 77,239 L 76,239 L 76,240 L 75,234 L 74,229 L 72,220 L 71,219 L 71,218 L 70,217 L 70,216 L 70,215 L 70,214 L 71,214 L 71,213 L 71,212 L 72,212 L 71,211 L 71,210 L 71,209 L 70,209 L 71,209 L 71,208 L 70,208 L 71,208 L 70,208 L 70,207 L 70,208 L 70,207 L 69,207 L 69,206 L 68,206 L 68,205 L 68,204 L 67,204 L 67,203 L 67,202 L 68,202 L 68,201 L 69,201 L 69,200 L 69,199 L 69,198 L 69,197 L 69,196 L 69,195 L 68,195 L 68,194 L 67,194 L 67,193 L 67,192 L 67,191 L 67,190 L 66,190 L 66,189 L 65,189 L 65,188 L 66,188 L 66,187 L 67,187 L 67,186 L 67,185 L 66,185 L 66,184 L 65,184 L 65,183 L 65,182 L 64,182 L 64,181 L 64,180 L 63,180 L 64,180 L 63,180 L 63,179 L 63,178 L 63,177 L 64,177 L 64,176 L 63,176 L 63,175 L 64,175 L 64,174 L 65,174 L 65,173 L 66,173 L 66,172 L 67,172 L 67,171 L 68,171 L 69,171 L 70,170 L 69,170 L 70,170 L 70,169 L 70,168 L 71,168 L 71,167 L 72,167 L 72,166 L 70,165 L 68,164 L 66,162 L 66,160 L 65,160 L 64,159 L 63,158 L 62,158 L 61,159 L 60,158 L 56,158 L 57,156 L 57,155 L 58,154 L 59,153 L 59,152 L 58,152 L 58,151 L 57,151 L 57,150 L 58,148 L 60,149 L 60,148 L 59,148 L 59,147 L 60,147 L 60,146 L 61,146 L 61,147 L 62,147 L 63,147 L 63,148 L 64,148 L 65,149 L 65,150 L 66,150 L 66,149 L 66,147 L 68,145 L 69,145 L 70,144 L 71,143 L 73,143 L 75,141 L 75,140 L 75,139 L 75,138 L 76,137 L 77,137 L 77,135 L 77,133 L 78,132 L 82,132 L 85,134 L 86,134 L 87,134 L 90,136 L 91,136 L 93,135 L 94,133 L 93,131 L 93,130 L 93,128 L 95,127 L 97,125 L 98,124 L 99,125 L 100,125 L 102,126 L 104,125 L 105,125 L 106,124 L 107,125 L 108,125 L 109,124 L 110,125 L 111,126 L 112,126 L 113,126 L 113,125 L 114,124 L 115,123 L 117,123 L 119,123 " /></g>
</svg>
