<?xml version="1.0" standalone="no"?><!DOCTYPE svg PUBLIC "-//W3C//DTD SVG 1.1//EN" "http://www.w3.org/Graphics/SVG/1.1/DTD/svg11.dtd"><svg xmlns="http://www.w3.org/2000/svg" viewBox="-33 -132 62 84" version = "1.1">
<g id="21101" ><path d="M -9,-128 L -8,-128 L -7,-128 L -6,-128 L -5,-128 L -4,-128 L -4,-127 L -3,-127 L -2,-127 L -1,-126 L 0,-126 L 0,-125 L 1,-124 L 2,-123 L 2,-122 L 3,-122 L 4,-122 L 5,-122 L 6,-122 L 7,-122 L 7,-121 L 8,-121 L 8,-120 L 8,-119 L 9,-119 L 10,-119 L 11,-119 L 12,-119 L 12,-120 L 13,-120 L 14,-119 L 15,-118 L 16,-118 L 17,-118 L 17,-117 L 18,-117 L 19,-117 L 19,-116 L 20,-117 L 21,-117 L 22,-116 L 23,-116 L 23,-115 L 24,-115 L 24,-114 L 25,-114 L 26,-114 L 27,-114 L 28,-114 L 29,-114 L 29,-113 L 29,-114 L 29,-113 L 29,-112 L 28,-112 L 28,-111 L 28,-110 L 27,-110 L 27,-109 L 26,-108 L 26,-107 L 26,-106 L 25,-106 L 25,-105 L 24,-105 L 24,-104 L 23,-104 L 23,-103 L 23,-102 L 22,-101 L 22,-100 L 22,-99 L 21,-99 L 22,-98 L 22,-97 L 22,-96 L 22,-95 L 22,-94 L 21,-94 L 21,-93 L 20,-93 L 20,-92 L 20,-91 L 20,-90 L 21,-90 L 21,-89 L 22,-89 L 21,-89 L 21,-88 L 20,-88 L 19,-88 L 18,-88 L 17,-88 L 17,-87 L 17,-88 L 17,-87 L 16,-87 L 15,-87 L 14,-86 L 13,-85 L 12,-85 L 12,-84 L 12,-83 L 12,-82 L 12,-81 L 11,-80 L 11,-79 L 10,-79 L 10,-78 L 9,-77 L 9,-76 L 8,-75 L 8,-74 L 8,-73 L 7,-72 L 8,-72 L 7,-72 L 7,-71 L 6,-70 L 5,-70 L 5,-69 L 5,-68 L 4,-68 L 4,-67 L 3,-67 L 2,-67 L 2,-66 L 1,-66 L 1,-65 L 0,-65 L 0,-64 L 0,-63 L -1,-63 L -1,-62 L -2,-62 L -2,-61 L -3,-61 L -3,-60 L -3,-59 L -4,-59 L -4,-58 L -5,-58 L -5,-57 L -6,-57 L -7,-57 L -7,-56 L -7,-55 L -8,-55 L -8,-54 L -8,-53 L -9,-53 L -9,-52 L -10,-52 L -10,-51 L -11,-51 L -11,-52 L -11,-51 L -12,-52 L -13,-53 L -14,-53 L -14,-52 L -15,-52 L -15,-51 L -16,-51 L -16,-50 L -16,-49 L -17,-49 L -21,-50 L -22,-50 L -23,-50 L -24,-49 L -23,-49 L -23,-48 L -24,-48 L -25,-48 L -25,-49 L -26,-49 L -27,-49 L -28,-49 L -29,-49 L -31,-51 L -31,-52 L -30,-53 L -30,-55 L -30,-56 L -30,-57 L -30,-58 L -30,-59 L -30,-60 L -30,-61 L -30,-62 L -30,-64 L -32,-66 L -33,-69 L -32,-70 L -32,-71 L -30,-72 L -30,-73 L -29,-73 L -28,-73 L -27,-73 L -27,-74 L -27,-75 L -26,-75 L -26,-76 L -25,-76 L -25,-77 L -24,-78 L -23,-78 L -23,-79 L -23,-80 L -24,-80 L -24,-81 L -25,-81 L -25,-82 L -25,-83 L -25,-84 L -26,-84 L -26,-85 L -27,-85 L -27,-86 L -28,-86 L -28,-87 L -28,-88 L -28,-89 L -29,-89 L -29,-90 L -29,-91 L -30,-91 L -30,-92 L -29,-92 L -29,-93 L -28,-93 L -27,-93 L -27,-94 L -27,-95 L -27,-96 L -26,-96 L -26,-97 L -26,-98 L -25,-98 L -25,-99 L -24,-99 L -24,-100 L -24,-101 L -23,-101 L -24,-101 L -24,-102 L -23,-102 L -23,-103 L -23,-104 L -22,-104 L -22,-105 L -22,-106 L -21,-106 L -21,-107 L -21,-108 L -20,-108 L -20,-109 L -20,-110 L -20,-111 L -19,-111 L -19,-112 L -19,-113 L -18,-113 L -18,-114 L -18,-115 L -17,-115 L -17,-116 L -17,-117 L -17,-118 L -17,-119 L -16,-119 L -16,-120 L -16,-121 L -16,-122 L -16,-123 L -15,-123 L -15,-124 L -15,-125 L -15,-126 L -15,-127 L -15,-128 L -16,-128 L -16,-129 L -16,-130 L -16,-131 L -15,-131 L -15,-132 L -14,-132 L -13,-132 L -13,-131 L -12,-131 L -12,-130 L -11,-130 L -11,-129 L -10,-129 L -10,-128 L -9,-128 " /></g>
</svg>
