<?xml version="1.0" standalone="no"?><!DOCTYPE svg PUBLIC "-//W3C//DTD SVG 1.1//EN" "http://www.w3.org/Graphics/SVG/1.1/DTD/svg11.dtd"><svg xmlns="http://www.w3.org/2000/svg" viewBox="-9 -304 236 211" version = "1.1">
<g id="21105" ><path d="M 205,-272 L 206,-272 L 207,-272 L 208,-272 L 207,-271 L 208,-270 L 208,-269 L 207,-269 L 207,-268 L 207,-267 L 207,-266 L 207,-265 L 208,-265 L 209,-265 L 210,-264 L 211,-264 L 212,-264 L 213,-263 L 213,-262 L 214,-262 L 214,-261 L 214,-260 L 214,-259 L 214,-258 L 213,-258 L 213,-257 L 212,-257 L 211,-256 L 211,-255 L 212,-255 L 212,-254 L 213,-254 L 213,-253 L 214,-252 L 214,-251 L 215,-251 L 215,-250 L 215,-249 L 216,-249 L 216,-248 L 215,-248 L 215,-247 L 215,-246 L 216,-245 L 217,-245 L 217,-244 L 218,-244 L 218,-243 L 218,-242 L 217,-242 L 216,-242 L 216,-241 L 215,-241 L 215,-240 L 214,-240 L 214,-241 L 213,-241 L 213,-240 L 212,-239 L 212,-238 L 211,-238 L 211,-237 L 210,-237 L 209,-237 L 209,-236 L 208,-236 L 208,-235 L 208,-234 L 207,-234 L 206,-234 L 206,-233 L 206,-232 L 206,-231 L 205,-231 L 205,-230 L 204,-230 L 204,-229 L 204,-228 L 203,-228 L 203,-227 L 204,-227 L 204,-226 L 204,-225 L 205,-224 L 204,-224 L 204,-223 L 203,-223 L 202,-223 L 202,-222 L 201,-222 L 201,-221 L 201,-220 L 202,-220 L 202,-219 L 202,-218 L 202,-217 L 203,-217 L 203,-216 L 203,-215 L 203,-214 L 203,-213 L 204,-212 L 204,-211 L 204,-210 L 204,-209 L 204,-208 L 204,-207 L 203,-207 L 204,-207 L 204,-206 L 205,-206 L 205,-205 L 204,-205 L 204,-204 L 205,-204 L 205,-203 L 204,-203 L 204,-202 L 204,-201 L 204,-200 L 204,-199 L 203,-198 L 202,-198 L 202,-197 L 202,-196 L 202,-195 L 202,-194 L 202,-193 L 201,-193 L 201,-192 L 201,-190 L 202,-189 L 203,-189 L 204,-188 L 204,-187 L 204,-186 L 205,-186 L 206,-186 L 207,-186 L 208,-185 L 208,-184 L 208,-183 L 209,-183 L 210,-183 L 210,-182 L 211,-182 L 212,-181 L 212,-180 L 211,-180 L 212,-179 L 213,-179 L 213,-178 L 213,-177 L 214,-176 L 215,-175 L 216,-175 L 216,-174 L 216,-173 L 216,-172 L 217,-171 L 218,-171 L 219,-170 L 218,-169 L 218,-168 L 218,-167 L 219,-166 L 220,-166 L 221,-165 L 221,-164 L 222,-163 L 223,-162 L 224,-161 L 224,-160 L 225,-159 L 224,-159 L 225,-158 L 225,-157 L 225,-156 L 226,-156 L 227,-156 L 227,-155 L 226,-155 L 226,-154 L 226,-153 L 226,-152 L 226,-151 L 226,-150 L 225,-150 L 225,-149 L 224,-149 L 224,-148 L 225,-148 L 225,-147 L 225,-146 L 225,-145 L 226,-145 L 226,-144 L 225,-144 L 224,-143 L 224,-142 L 225,-141 L 225,-140 L 224,-140 L 224,-139 L 223,-139 L 224,-139 L 209,-132 L 198,-127 L 193,-125 L 183,-122 L 174,-116 L 162,-112 L 144,-104 L 134,-98 L 121,-93 L 121,-94 L 120,-94 L 119,-95 L 118,-95 L 117,-96 L 116,-96 L 116,-97 L 115,-97 L 115,-98 L 114,-98 L 114,-99 L 113,-99 L 112,-99 L 111,-99 L 110,-99 L 110,-100 L 109,-100 L 109,-101 L 108,-101 L 108,-102 L 107,-102 L 107,-103 L 106,-103 L 106,-104 L 105,-104 L 105,-105 L 104,-105 L 103,-105 L 103,-106 L 102,-106 L 102,-107 L 101,-107 L 101,-108 L 100,-108 L 100,-109 L 100,-108 L 99,-109 L 98,-109 L 98,-110 L 97,-110 L 96,-110 L 96,-111 L 95,-111 L 94,-111 L 94,-112 L 94,-111 L 93,-111 L 93,-112 L 92,-112 L 92,-113 L 92,-114 L 91,-113 L 91,-114 L 91,-113 L 90,-113 L 90,-114 L 89,-114 L 89,-115 L 88,-115 L 88,-116 L 87,-116 L 87,-117 L 86,-117 L 86,-118 L 86,-119 L 87,-119 L 88,-120 L 88,-121 L 88,-122 L 88,-123 L 87,-123 L 86,-122 L 85,-122 L 84,-121 L 83,-121 L 82,-121 L 81,-122 L 80,-122 L 79,-122 L 78,-122 L 78,-123 L 78,-122 L 77,-122 L 77,-121 L 76,-120 L 76,-119 L 76,-118 L 75,-118 L 75,-117 L 74,-117 L 73,-117 L 73,-116 L 72,-116 L 71,-116 L 70,-116 L 69,-116 L 68,-116 L 68,-117 L 67,-117 L 66,-117 L 66,-118 L 65,-119 L 65,-120 L 64,-120 L 63,-120 L 63,-121 L 62,-121 L 61,-121 L 60,-121 L 60,-122 L 59,-122 L 58,-122 L 58,-123 L 57,-123 L 56,-123 L 55,-123 L 54,-123 L 53,-123 L 52,-123 L 52,-122 L 51,-122 L 50,-122 L 50,-123 L 49,-123 L 49,-124 L 48,-124 L 48,-125 L 47,-125 L 46,-125 L 45,-124 L 44,-124 L 44,-123 L 43,-123 L 43,-122 L 42,-122 L 42,-121 L 41,-121 L 40,-121 L 40,-120 L 39,-120 L 39,-119 L 38,-119 L 37,-118 L 36,-118 L 35,-118 L 34,-117 L 33,-117 L 33,-116 L 32,-116 L 32,-115 L 31,-115 L 31,-114 L 30,-114 L 29,-114 L 29,-113 L 29,-114 L 28,-114 L 27,-114 L 26,-114 L 25,-114 L 24,-114 L 24,-115 L 23,-115 L 23,-116 L 22,-116 L 21,-117 L 20,-117 L 19,-116 L 19,-117 L 18,-117 L 17,-117 L 17,-118 L 16,-118 L 15,-118 L 14,-119 L 13,-120 L 12,-120 L 12,-119 L 11,-119 L 10,-119 L 9,-119 L 8,-119 L 8,-120 L 8,-121 L 7,-121 L 7,-122 L 6,-122 L 5,-122 L 4,-122 L 3,-122 L 2,-122 L 2,-123 L 1,-124 L 0,-125 L 0,-126 L -1,-126 L -2,-127 L -3,-127 L -4,-127 L -4,-128 L -5,-128 L -6,-128 L -7,-128 L -8,-128 L -9,-128 L -9,-129 L -9,-130 L -8,-130 L -8,-131 L -8,-132 L -7,-132 L -6,-132 L -6,-133 L -5,-133 L -5,-134 L -5,-135 L -5,-136 L -6,-137 L -5,-137 L -5,-138 L -4,-138 L -3,-138 L -3,-139 L -2,-139 L -2,-140 L -1,-140 L -1,-141 L 0,-141 L 0,-142 L 2,-146 L 9,-153 L 27,-173 L 42,-185 L 51,-194 L 60,-218 L 79,-257 L 87,-269 L 89,-273 L 92,-276 L 92,-277 L 91,-278 L 91,-279 L 91,-280 L 92,-280 L 93,-281 L 93,-282 L 94,-282 L 94,-281 L 94,-282 L 95,-282 L 95,-283 L 95,-284 L 95,-285 L 96,-286 L 96,-287 L 97,-287 L 97,-288 L 98,-288 L 99,-288 L 99,-289 L 100,-289 L 100,-290 L 101,-290 L 101,-291 L 101,-292 L 102,-292 L 102,-293 L 103,-293 L 104,-293 L 104,-294 L 105,-294 L 106,-295 L 107,-295 L 107,-296 L 108,-296 L 109,-296 L 109,-295 L 110,-295 L 110,-294 L 111,-295 L 112,-295 L 113,-295 L 114,-295 L 114,-296 L 115,-296 L 115,-297 L 116,-297 L 116,-298 L 117,-298 L 117,-299 L 117,-300 L 118,-301 L 118,-302 L 119,-303 L 119,-304 L 119,-303 L 119,-302 L 120,-302 L 120,-301 L 120,-300 L 120,-299 L 121,-299 L 121,-298 L 122,-298 L 122,-297 L 121,-297 L 122,-297 L 121,-297 L 121,-296 L 121,-295 L 122,-295 L 122,-294 L 122,-293 L 123,-293 L 124,-293 L 125,-293 L 125,-292 L 125,-293 L 125,-292 L 126,-292 L 127,-292 L 127,-291 L 128,-291 L 128,-290 L 129,-290 L 129,-289 L 130,-289 L 131,-289 L 131,-288 L 131,-287 L 131,-286 L 132,-286 L 131,-286 L 132,-286 L 132,-285 L 133,-285 L 133,-284 L 134,-284 L 135,-284 L 136,-284 L 136,-283 L 137,-283 L 137,-282 L 138,-282 L 140,-281 L 140,-280 L 140,-279 L 141,-279 L 141,-278 L 142,-278 L 142,-277 L 143,-277 L 144,-277 L 145,-276 L 146,-276 L 146,-275 L 147,-274 L 148,-273 L 147,-273 L 147,-272 L 148,-272 L 148,-271 L 147,-271 L 148,-271 L 148,-270 L 147,-270 L 147,-269 L 148,-269 L 148,-268 L 149,-268 L 150,-268 L 151,-267 L 152,-267 L 152,-268 L 153,-267 L 154,-267 L 154,-266 L 155,-265 L 156,-265 L 158,-261 L 163,-251 L 167,-248 L 171,-246 L 173,-245 L 174,-245 L 174,-244 L 175,-244 L 175,-243 L 176,-243 L 177,-243 L 178,-243 L 178,-242 L 179,-242 L 179,-243 L 179,-242 L 180,-242 L 181,-242 L 181,-243 L 182,-243 L 182,-244 L 183,-244 L 183,-245 L 183,-246 L 183,-247 L 184,-247 L 184,-248 L 184,-249 L 185,-249 L 185,-250 L 185,-251 L 185,-250 L 186,-250 L 187,-250 L 188,-250 L 188,-251 L 189,-251 L 189,-252 L 190,-252 L 191,-252 L 191,-253 L 192,-253 L 192,-254 L 192,-255 L 193,-255 L 193,-256 L 194,-256 L 194,-257 L 195,-257 L 195,-258 L 196,-258 L 196,-259 L 197,-259 L 197,-260 L 197,-261 L 197,-262 L 198,-262 L 198,-263 L 198,-264 L 198,-265 L 199,-265 L 198,-266 L 198,-267 L 198,-268 L 197,-268 L 197,-269 L 198,-269 L 199,-270 L 199,-271 L 199,-272 L 199,-273 L 200,-273 L 200,-274 L 200,-275 L 200,-276 L 201,-276 L 202,-276 L 202,-275 L 202,-274 L 203,-274 L 203,-273 L 204,-272 L 205,-272 " /></g>
</svg>
