<?xml version="1.0" standalone="no"?><!DOCTYPE svg PUBLIC "-//W3C//DTD SVG 1.1//EN" "http://www.w3.org/Graphics/SVG/1.1/DTD/svg11.dtd"><svg xmlns="http://www.w3.org/2000/svg" viewBox="-113 -125 234 152" version = "1.1">
<g id="21102" ><path d="M 50,-122 L 51,-122 L 52,-122 L 52,-123 L 53,-123 L 54,-123 L 55,-123 L 56,-123 L 57,-123 L 58,-123 L 58,-122 L 59,-122 L 60,-122 L 60,-121 L 61,-121 L 62,-121 L 63,-121 L 63,-120 L 64,-120 L 65,-120 L 65,-119 L 66,-118 L 66,-117 L 67,-117 L 68,-117 L 68,-116 L 69,-116 L 70,-116 L 71,-116 L 72,-116 L 73,-116 L 73,-117 L 74,-117 L 75,-117 L 75,-118 L 76,-118 L 76,-119 L 76,-120 L 77,-121 L 77,-122 L 78,-122 L 78,-123 L 78,-122 L 79,-122 L 80,-122 L 81,-122 L 82,-121 L 83,-121 L 84,-121 L 85,-122 L 86,-122 L 87,-123 L 88,-123 L 88,-122 L 88,-121 L 88,-120 L 87,-119 L 86,-119 L 86,-118 L 86,-117 L 87,-117 L 87,-116 L 88,-116 L 88,-115 L 89,-115 L 89,-114 L 90,-114 L 90,-113 L 91,-113 L 91,-114 L 91,-113 L 92,-114 L 92,-113 L 92,-112 L 93,-112 L 93,-111 L 94,-111 L 94,-112 L 94,-111 L 95,-111 L 96,-111 L 96,-110 L 97,-110 L 98,-110 L 98,-109 L 99,-109 L 100,-108 L 100,-109 L 100,-108 L 101,-108 L 101,-107 L 102,-107 L 102,-106 L 103,-106 L 103,-105 L 104,-105 L 105,-105 L 105,-104 L 106,-104 L 106,-103 L 107,-103 L 107,-102 L 108,-102 L 108,-101 L 109,-101 L 109,-100 L 110,-100 L 110,-99 L 111,-99 L 112,-99 L 113,-99 L 114,-99 L 114,-98 L 115,-98 L 115,-97 L 116,-97 L 116,-96 L 117,-96 L 118,-95 L 119,-95 L 120,-94 L 121,-94 L 121,-93 L 89,-80 L 88,-80 L 89,-80 L 88,-80 L 88,-79 L 88,-78 L 89,-78 L 89,-77 L 88,-76 L 88,-75 L 89,-75 L 89,-74 L 88,-74 L 88,-73 L 88,-72 L 87,-72 L 86,-71 L 86,-70 L 85,-70 L 84,-69 L 84,-68 L 84,-67 L 83,-66 L 83,-65 L 82,-65 L 82,-64 L 81,-64 L 81,-63 L 80,-63 L 80,-62 L 79,-62 L 79,-61 L 79,-60 L 78,-60 L 77,-60 L 77,-59 L 76,-59 L 75,-59 L 74,-59 L 73,-59 L 72,-59 L 71,-59 L 71,-58 L 70,-58 L 69,-58 L 68,-58 L 67,-57 L 66,-57 L 66,-56 L 66,-55 L 65,-55 L 65,-54 L 64,-54 L 64,-53 L 64,-54 L 63,-54 L 63,-53 L 62,-53 L 62,-52 L 61,-52 L 61,-51 L 60,-51 L 60,-50 L 60,-49 L 60,-48 L 59,-48 L 58,-48 L 57,-48 L 56,-48 L 56,-47 L 55,-47 L 55,-46 L 54,-46 L 53,-46 L 52,-46 L 51,-46 L 50,-46 L 49,-46 L 49,-45 L 48,-45 L 47,-45 L 47,-44 L 46,-43 L 46,-42 L 46,-41 L 46,-40 L 46,-39 L 45,-39 L 44,-38 L 44,-37 L 43,-37 L 42,-37 L 41,-37 L 41,-36 L 41,-35 L 40,-35 L 40,-34 L 40,-33 L 39,-32 L 38,-32 L 38,-31 L 37,-31 L 37,-30 L 36,-30 L 36,-29 L 36,-28 L 35,-28 L 35,-27 L 35,-26 L 34,-26 L 33,-26 L 33,-25 L 32,-25 L 31,-25 L 30,-25 L 30,-24 L 29,-24 L 29,-23 L 28,-23 L 27,-23 L 27,-22 L 27,-21 L 26,-21 L 26,-20 L 25,-19 L 25,-18 L 24,-18 L 23,-18 L 23,-17 L 22,-17 L 22,-16 L 22,-15 L 21,-15 L 20,-15 L 19,-15 L 18,-15 L 17,-14 L 17,-13 L 16,-13 L 16,-12 L 15,-12 L 14,-12 L 13,-12 L 12,-12 L 11,-12 L 10,-12 L 9,-12 L 9,-13 L 8,-13 L 7,-13 L 6,-12 L 5,-12 L 5,-11 L 4,-10 L 3,-10 L 3,-9 L 2,-9 L 1,-9 L 1,-8 L 1,-7 L 1,-6 L 0,-5 L 0,-4 L 1,-4 L 1,-3 L 1,-2 L 0,-2 L 0,-1 L 1,-1 L 1,0 L 0,0 L 0,1 L -1,1 L -1,2 L -2,2 L -3,2 L -4,2 L -4,3 L -5,3 L -5,4 L -6,4 L -6,5 L -7,5 L -8,5 L -8,4 L -9,4 L -9,5 L -10,4 L -10,5 L -11,5 L -11,6 L -12,6 L -12,7 L -12,8 L -13,8 L -13,9 L -13,10 L -14,10 L -14,11 L -15,11 L -15,12 L -16,12 L -17,12 L -18,12 L -19,12 L -19,13 L -20,13 L -20,14 L -21,14 L -21,15 L -22,15 L -22,16 L -23,17 L -24,18 L -23,19 L -24,19 L -24,20 L -24,21 L -24,20 L -25,20 L -25,21 L -25,22 L -26,22 L -27,23 L -26,23 L -26,24 L -27,24 L -27,25 L -28,25 L -28,26 L -29,26 L -30,26 L -31,26 L -31,27 L -32,27 L -33,27 L -33,26 L -34,26 L -34,25 L -34,24 L -35,24 L -35,23 L -35,22 L -36,22 L -36,21 L -37,21 L -37,20 L -38,21 L -38,20 L -39,20 L -39,19 L -40,19 L -41,18 L -42,18 L -43,17 L -44,17 L -48,15 L -50,13 L -51,12 L -55,10 L -56,9 L -56,8 L -57,7 L -58,6 L -58,5 L -61,4 L -62,4 L -63,3 L -64,3 L -67,3 L -69,2 L -71,2 L -73,1 L -81,-1 L -85,-1 L -87,-1 L -88,-2 L -87,-5 L -89,-7 L -91,-8 L -92,-8 L -93,-8 L -93,-9 L -94,-9 L -95,-10 L -96,-10 L -97,-10 L -98,-11 L -97,-13 L -96,-15 L -96,-17 L -95,-19 L -96,-20 L -96,-22 L -98,-23 L -100,-24 L -101,-25 L -102,-26 L -104,-27 L -108,-27 L -109,-27 L -110,-27 L -110,-28 L -111,-29 L -112,-30 L -111,-33 L -110,-34 L -110,-35 L -110,-36 L -111,-36 L -112,-37 L -113,-38 L -112,-39 L -109,-40 L -108,-41 L -108,-42 L -108,-43 L -107,-44 L -106,-45 L -106,-47 L -107,-48 L -106,-49 L -104,-50 L -103,-51 L -101,-50 L -98,-48 L -93,-46 L -91,-42 L -90,-43 L -89,-44 L -87,-46 L -85,-48 L -83,-49 L -82,-47 L -79,-43 L -78,-44 L -78,-45 L -77,-46 L -75,-47 L -74,-47 L -74,-48 L -73,-48 L -72,-47 L -71,-47 L -70,-46 L -69,-47 L -68,-47 L -67,-48 L -67,-49 L -66,-50 L -62,-47 L -62,-48 L -61,-48 L -61,-49 L -59,-50 L -59,-51 L -58,-51 L -57,-52 L -54,-53 L -53,-53 L -52,-52 L -52,-53 L -51,-53 L -50,-54 L -49,-54 L -49,-55 L -48,-55 L -47,-55 L -47,-54 L -46,-53 L -46,-54 L -46,-53 L -45,-53 L -45,-52 L -44,-52 L -44,-51 L -43,-51 L -42,-51 L -41,-51 L -40,-51 L -40,-50 L -39,-50 L -38,-50 L -37,-50 L -37,-49 L -36,-49 L -34,-47 L -32,-47 L -32,-49 L -31,-50 L -31,-51 L -29,-49 L -28,-49 L -27,-49 L -26,-49 L -25,-49 L -25,-48 L -24,-48 L -23,-48 L -23,-49 L -24,-49 L -23,-50 L -22,-50 L -21,-50 L -17,-49 L -16,-49 L -16,-50 L -16,-51 L -15,-51 L -15,-52 L -14,-52 L -14,-53 L -13,-53 L -12,-52 L -11,-51 L -11,-52 L -11,-51 L -10,-51 L -10,-52 L -9,-52 L -9,-53 L -8,-53 L -8,-54 L -8,-55 L -7,-55 L -7,-56 L -7,-57 L -6,-57 L -5,-57 L -5,-58 L -4,-58 L -4,-59 L -3,-59 L -3,-60 L -3,-61 L -2,-61 L -2,-62 L -1,-62 L -1,-63 L 0,-63 L 0,-64 L 0,-65 L 1,-65 L 1,-66 L 2,-66 L 2,-67 L 3,-67 L 4,-67 L 4,-68 L 5,-68 L 5,-69 L 5,-70 L 6,-70 L 7,-71 L 7,-72 L 8,-72 L 7,-72 L 8,-73 L 8,-74 L 8,-75 L 9,-76 L 9,-77 L 10,-78 L 10,-79 L 11,-79 L 11,-80 L 12,-81 L 12,-82 L 12,-83 L 12,-84 L 12,-85 L 13,-85 L 14,-86 L 15,-87 L 16,-87 L 17,-87 L 17,-88 L 17,-87 L 17,-88 L 18,-88 L 19,-88 L 20,-88 L 21,-88 L 21,-89 L 22,-89 L 21,-89 L 21,-90 L 20,-90 L 20,-91 L 20,-92 L 20,-93 L 21,-93 L 21,-94 L 22,-94 L 22,-95 L 22,-96 L 22,-97 L 22,-98 L 21,-99 L 22,-99 L 22,-100 L 22,-101 L 23,-102 L 23,-103 L 23,-104 L 24,-104 L 24,-105 L 25,-105 L 25,-106 L 26,-106 L 26,-107 L 26,-108 L 27,-109 L 27,-110 L 28,-110 L 28,-111 L 28,-112 L 29,-112 L 29,-113 L 29,-114 L 30,-114 L 31,-114 L 31,-115 L 32,-115 L 32,-116 L 33,-116 L 33,-117 L 34,-117 L 35,-118 L 36,-118 L 37,-118 L 38,-119 L 39,-119 L 39,-120 L 40,-120 L 40,-121 L 41,-121 L 42,-121 L 42,-122 L 43,-122 L 43,-123 L 44,-123 L 44,-124 L 45,-124 L 46,-125 L 47,-125 L 48,-125 L 48,-124 L 49,-124 L 49,-123 L 50,-123 L 50,-122 " /></g>
</svg>
