<?xml version="1.0" standalone="no"?><!DOCTYPE svg PUBLIC "-//W3C//DTD SVG 1.1//EN" "http://www.w3.org/Graphics/SVG/1.1/DTD/svg11.dtd"><svg xmlns="http://www.w3.org/2000/svg" viewBox="-48 -583 291 341" version = "1.1">
<g id="21104" ><path d="M 78,-547 L 77,-546 L 77,-545 L 76,-545 L 77,-544 L 78,-544 L 79,-545 L 78,-545 L 78,-546 L 79,-547 L 80,-547 L 81,-547 L 81,-546 L 81,-545 L 80,-545 L 80,-544 L 80,-543 L 80,-542 L 81,-542 L 81,-543 L 82,-543 L 83,-542 L 84,-542 L 84,-541 L 85,-541 L 86,-541 L 86,-540 L 87,-540 L 87,-539 L 86,-539 L 87,-539 L 88,-539 L 89,-539 L 89,-538 L 88,-538 L 89,-538 L 89,-537 L 90,-537 L 90,-538 L 90,-539 L 90,-540 L 90,-541 L 91,-541 L 91,-540 L 91,-539 L 92,-539 L 92,-538 L 92,-539 L 93,-539 L 93,-538 L 93,-537 L 94,-537 L 93,-537 L 93,-536 L 94,-536 L 94,-535 L 94,-534 L 94,-533 L 93,-533 L 92,-533 L 92,-532 L 92,-531 L 93,-531 L 94,-532 L 95,-531 L 95,-530 L 94,-530 L 95,-530 L 95,-529 L 95,-528 L 96,-528 L 95,-528 L 95,-527 L 94,-527 L 94,-526 L 95,-526 L 94,-526 L 94,-527 L 93,-527 L 93,-526 L 92,-526 L 92,-525 L 93,-524 L 93,-523 L 94,-523 L 94,-522 L 95,-521 L 96,-521 L 96,-520 L 95,-520 L 95,-519 L 94,-519 L 94,-518 L 95,-518 L 95,-519 L 96,-519 L 97,-519 L 97,-518 L 97,-517 L 98,-517 L 99,-517 L 99,-518 L 99,-519 L 99,-520 L 100,-520 L 100,-519 L 101,-519 L 101,-518 L 101,-517 L 102,-518 L 102,-519 L 103,-519 L 103,-518 L 104,-518 L 104,-517 L 105,-517 L 105,-516 L 105,-515 L 106,-515 L 106,-514 L 106,-513 L 105,-513 L 106,-513 L 107,-513 L 108,-513 L 108,-512 L 109,-511 L 110,-511 L 110,-510 L 110,-509 L 110,-510 L 109,-510 L 109,-509 L 109,-508 L 109,-507 L 109,-506 L 108,-506 L 108,-505 L 109,-505 L 110,-506 L 110,-507 L 111,-507 L 111,-506 L 112,-506 L 112,-505 L 112,-504 L 113,-504 L 114,-504 L 114,-503 L 115,-502 L 116,-502 L 117,-502 L 117,-501 L 117,-500 L 116,-500 L 116,-499 L 117,-499 L 118,-500 L 118,-499 L 118,-498 L 118,-497 L 118,-496 L 118,-495 L 119,-495 L 120,-494 L 120,-495 L 121,-495 L 122,-495 L 121,-494 L 121,-493 L 120,-493 L 120,-492 L 121,-492 L 121,-493 L 122,-493 L 122,-492 L 122,-491 L 122,-490 L 122,-489 L 123,-489 L 123,-490 L 123,-491 L 124,-491 L 124,-490 L 124,-489 L 125,-489 L 125,-488 L 125,-487 L 126,-487 L 126,-486 L 126,-485 L 127,-485 L 127,-484 L 126,-484 L 126,-483 L 127,-483 L 128,-483 L 128,-482 L 129,-482 L 129,-481 L 128,-480 L 129,-480 L 129,-479 L 128,-479 L 128,-478 L 129,-478 L 129,-479 L 129,-478 L 130,-478 L 130,-477 L 130,-476 L 131,-476 L 130,-476 L 130,-475 L 131,-475 L 131,-474 L 132,-473 L 132,-472 L 131,-472 L 131,-473 L 130,-473 L 129,-473 L 128,-473 L 129,-472 L 129,-471 L 130,-471 L 130,-470 L 131,-470 L 130,-470 L 130,-469 L 130,-470 L 129,-470 L 129,-469 L 128,-469 L 128,-470 L 128,-469 L 128,-468 L 129,-468 L 130,-468 L 130,-469 L 130,-468 L 130,-467 L 131,-467 L 131,-466 L 131,-465 L 130,-465 L 130,-466 L 129,-466 L 129,-465 L 129,-464 L 130,-465 L 131,-465 L 132,-465 L 132,-464 L 133,-464 L 133,-463 L 134,-463 L 134,-464 L 135,-464 L 135,-463 L 136,-463 L 136,-462 L 137,-462 L 137,-461 L 138,-460 L 138,-459 L 139,-459 L 139,-460 L 139,-459 L 139,-458 L 139,-457 L 140,-457 L 140,-456 L 141,-456 L 142,-456 L 143,-456 L 144,-456 L 144,-455 L 145,-455 L 145,-454 L 146,-454 L 146,-453 L 146,-452 L 147,-452 L 147,-451 L 147,-450 L 147,-449 L 146,-449 L 145,-449 L 145,-448 L 146,-448 L 146,-447 L 146,-446 L 146,-445 L 146,-444 L 146,-443 L 146,-442 L 145,-442 L 145,-441 L 145,-440 L 145,-439 L 145,-438 L 144,-438 L 143,-437 L 143,-436 L 142,-436 L 142,-435 L 142,-436 L 141,-436 L 140,-436 L 140,-435 L 139,-435 L 139,-434 L 139,-433 L 139,-432 L 138,-431 L 138,-430 L 137,-430 L 137,-429 L 136,-428 L 135,-427 L 135,-426 L 136,-426 L 135,-426 L 135,-425 L 136,-425 L 137,-425 L 137,-424 L 136,-424 L 136,-423 L 137,-423 L 137,-422 L 138,-422 L 138,-423 L 139,-423 L 139,-422 L 139,-421 L 140,-421 L 141,-421 L 141,-420 L 141,-419 L 140,-419 L 141,-419 L 142,-419 L 142,-420 L 143,-420 L 144,-420 L 143,-419 L 144,-419 L 144,-418 L 145,-418 L 145,-419 L 145,-418 L 146,-418 L 145,-418 L 145,-417 L 145,-416 L 146,-416 L 146,-415 L 147,-415 L 147,-414 L 147,-413 L 148,-413 L 149,-413 L 150,-413 L 151,-413 L 151,-412 L 152,-412 L 151,-412 L 151,-411 L 152,-410 L 152,-409 L 153,-409 L 154,-409 L 155,-409 L 155,-408 L 154,-408 L 153,-408 L 154,-408 L 154,-407 L 155,-407 L 156,-407 L 157,-407 L 157,-406 L 157,-405 L 158,-406 L 159,-406 L 159,-407 L 158,-407 L 159,-407 L 159,-406 L 160,-406 L 161,-406 L 161,-405 L 160,-405 L 160,-404 L 161,-404 L 162,-404 L 162,-403 L 163,-403 L 164,-402 L 164,-401 L 165,-402 L 165,-401 L 166,-401 L 166,-400 L 167,-400 L 167,-399 L 168,-399 L 168,-398 L 169,-398 L 170,-398 L 171,-397 L 172,-397 L 173,-397 L 174,-397 L 174,-396 L 173,-395 L 173,-394 L 174,-394 L 174,-393 L 175,-393 L 176,-394 L 177,-394 L 177,-393 L 176,-393 L 177,-393 L 177,-392 L 178,-392 L 179,-392 L 179,-391 L 180,-391 L 179,-391 L 179,-390 L 180,-390 L 181,-390 L 182,-390 L 182,-389 L 182,-388 L 182,-389 L 183,-389 L 183,-388 L 184,-388 L 185,-387 L 186,-387 L 186,-386 L 187,-386 L 187,-387 L 187,-386 L 187,-385 L 187,-384 L 188,-384 L 188,-383 L 188,-382 L 189,-382 L 189,-381 L 189,-380 L 189,-381 L 190,-381 L 190,-380 L 191,-380 L 191,-381 L 191,-380 L 191,-379 L 191,-378 L 192,-378 L 192,-377 L 193,-377 L 194,-377 L 194,-376 L 194,-375 L 195,-375 L 195,-374 L 196,-373 L 195,-373 L 196,-373 L 196,-372 L 197,-372 L 197,-371 L 196,-370 L 196,-369 L 196,-368 L 196,-367 L 197,-367 L 197,-366 L 198,-366 L 199,-366 L 200,-366 L 200,-365 L 201,-365 L 200,-364 L 200,-363 L 201,-363 L 202,-363 L 201,-363 L 201,-362 L 202,-362 L 202,-361 L 203,-361 L 203,-360 L 204,-360 L 204,-359 L 204,-358 L 205,-358 L 205,-357 L 206,-357 L 206,-356 L 206,-355 L 207,-355 L 207,-354 L 208,-354 L 208,-353 L 208,-352 L 208,-351 L 208,-350 L 207,-350 L 207,-349 L 206,-349 L 206,-348 L 206,-347 L 206,-346 L 206,-345 L 206,-344 L 206,-343 L 206,-342 L 211,-334 L 217,-324 L 223,-316 L 228,-310 L 230,-308 L 243,-293 L 242,-293 L 241,-293 L 241,-294 L 240,-294 L 239,-294 L 239,-295 L 238,-295 L 238,-294 L 237,-294 L 237,-293 L 236,-292 L 235,-292 L 234,-292 L 233,-292 L 232,-292 L 231,-291 L 230,-290 L 229,-289 L 229,-290 L 228,-290 L 227,-290 L 227,-291 L 226,-291 L 226,-292 L 225,-292 L 224,-292 L 223,-293 L 221,-294 L 221,-293 L 221,-292 L 220,-292 L 220,-291 L 219,-291 L 218,-290 L 217,-290 L 217,-289 L 216,-289 L 216,-288 L 215,-288 L 215,-287 L 214,-286 L 214,-285 L 213,-285 L 212,-284 L 212,-283 L 211,-283 L 211,-282 L 210,-281 L 209,-281 L 209,-280 L 209,-279 L 208,-279 L 208,-278 L 208,-277 L 208,-276 L 207,-276 L 207,-275 L 206,-274 L 205,-273 L 205,-272 L 204,-272 L 203,-273 L 203,-274 L 202,-274 L 202,-275 L 202,-276 L 201,-276 L 200,-276 L 200,-275 L 200,-274 L 200,-273 L 199,-273 L 199,-272 L 199,-271 L 199,-270 L 198,-269 L 197,-269 L 197,-268 L 198,-268 L 198,-267 L 198,-266 L 199,-265 L 198,-265 L 198,-264 L 198,-263 L 198,-262 L 197,-262 L 197,-261 L 197,-260 L 197,-259 L 196,-259 L 196,-258 L 195,-258 L 195,-257 L 194,-257 L 194,-256 L 193,-256 L 193,-255 L 192,-255 L 192,-254 L 192,-253 L 191,-253 L 191,-252 L 190,-252 L 189,-252 L 189,-251 L 188,-251 L 188,-250 L 187,-250 L 186,-250 L 185,-250 L 185,-251 L 185,-250 L 185,-249 L 184,-249 L 184,-248 L 184,-247 L 183,-247 L 183,-246 L 183,-245 L 183,-244 L 182,-244 L 182,-243 L 181,-243 L 181,-242 L 180,-242 L 179,-242 L 179,-243 L 179,-242 L 178,-242 L 178,-243 L 177,-243 L 176,-243 L 175,-243 L 175,-244 L 174,-244 L 174,-245 L 173,-245 L 171,-246 L 167,-248 L 163,-251 L 158,-261 L 156,-265 L 155,-265 L 154,-266 L 154,-267 L 153,-267 L 152,-268 L 152,-267 L 151,-267 L 150,-268 L 149,-268 L 148,-268 L 148,-269 L 147,-269 L 147,-270 L 148,-270 L 148,-271 L 147,-271 L 148,-271 L 148,-272 L 147,-272 L 147,-273 L 148,-273 L 147,-274 L 146,-275 L 146,-276 L 145,-276 L 144,-277 L 143,-277 L 142,-277 L 142,-278 L 141,-278 L 141,-279 L 140,-279 L 140,-280 L 140,-281 L 138,-282 L 137,-282 L 137,-283 L 136,-283 L 136,-284 L 135,-284 L 134,-284 L 133,-284 L 133,-285 L 132,-285 L 132,-286 L 131,-286 L 132,-286 L 131,-286 L 131,-287 L 131,-288 L 131,-289 L 130,-289 L 129,-289 L 129,-290 L 128,-290 L 128,-291 L 127,-291 L 127,-292 L 126,-292 L 125,-292 L 125,-293 L 125,-292 L 125,-293 L 124,-293 L 123,-293 L 122,-293 L 122,-294 L 122,-295 L 121,-295 L 121,-296 L 121,-297 L 122,-297 L 121,-297 L 122,-297 L 122,-298 L 121,-298 L 121,-299 L 120,-299 L 120,-300 L 120,-301 L 120,-302 L 119,-302 L 119,-303 L 119,-304 L 120,-304 L 121,-305 L 121,-306 L 122,-306 L 122,-307 L 122,-308 L 123,-309 L 124,-309 L 125,-309 L 125,-308 L 126,-308 L 126,-309 L 127,-309 L 128,-309 L 128,-310 L 128,-311 L 127,-311 L 127,-312 L 127,-313 L 127,-314 L 128,-315 L 128,-316 L 129,-316 L 129,-317 L 129,-318 L 128,-319 L 129,-319 L 129,-320 L 129,-321 L 129,-322 L 129,-323 L 129,-324 L 129,-325 L 129,-326 L 129,-327 L 128,-328 L 128,-329 L 128,-330 L 128,-331 L 128,-332 L 128,-334 L 128,-335 L 127,-336 L 127,-337 L 127,-338 L 126,-338 L 126,-339 L 125,-339 L 124,-339 L 123,-339 L 122,-339 L 121,-340 L 120,-340 L 119,-341 L 118,-341 L 117,-341 L 116,-342 L 114,-342 L 113,-342 L 112,-343 L 111,-344 L 108,-346 L 107,-347 L 106,-347 L 105,-347 L 105,-348 L 105,-349 L 106,-350 L 106,-351 L 105,-351 L 104,-351 L 103,-350 L 102,-350 L 101,-350 L 100,-350 L 100,-351 L 100,-352 L 99,-353 L 99,-354 L 98,-354 L 97,-354 L 96,-355 L 95,-355 L 93,-356 L 91,-356 L 90,-357 L 89,-358 L 87,-358 L 86,-359 L 84,-360 L 83,-361 L 82,-361 L 81,-361 L 80,-361 L 78,-361 L 76,-362 L 75,-363 L 74,-364 L 73,-364 L 73,-365 L 73,-366 L 72,-366 L 71,-366 L 70,-366 L 69,-366 L 68,-366 L 67,-365 L 66,-364 L 65,-365 L 64,-365 L 62,-365 L 61,-365 L 60,-365 L 59,-365 L 58,-365 L 57,-366 L 56,-367 L 55,-367 L 54,-367 L 53,-367 L 51,-367 L 49,-368 L 48,-369 L 45,-371 L 43,-374 L 42,-375 L 42,-376 L 41,-377 L 42,-379 L 42,-380 L 41,-381 L 41,-382 L 40,-382 L 39,-382 L 37,-382 L 36,-382 L 35,-382 L 32,-382 L 30,-382 L 29,-383 L 28,-383 L 28,-384 L 28,-385 L 29,-386 L 29,-387 L 30,-387 L 31,-387 L 31,-388 L 32,-389 L 31,-390 L 31,-391 L 30,-391 L 29,-391 L 28,-391 L 27,-392 L 25,-393 L 23,-394 L 22,-394 L 21,-393 L 20,-393 L 20,-394 L 20,-395 L 19,-396 L 19,-397 L 19,-398 L 19,-399 L 19,-400 L 19,-401 L 19,-402 L 18,-403 L 17,-403 L 17,-404 L 17,-405 L 16,-405 L 16,-406 L 15,-407 L 15,-408 L 15,-409 L 16,-409 L 18,-411 L 18,-412 L 17,-412 L 17,-413 L 16,-413 L 15,-412 L 14,-412 L 13,-410 L 12,-409 L 11,-409 L 10,-410 L 10,-411 L 10,-412 L 10,-413 L 10,-415 L 11,-415 L 12,-417 L 11,-418 L 10,-419 L 9,-419 L 8,-419 L 7,-420 L 6,-420 L 5,-420 L 4,-422 L 3,-423 L 3,-424 L 2,-424 L 0,-424 L 0,-423 L 0,-422 L -1,-422 L -1,-423 L -2,-423 L -1,-423 L -1,-424 L 0,-425 L 0,-426 L 1,-427 L 2,-429 L 2,-430 L 2,-431 L 2,-432 L 4,-432 L 5,-433 L 6,-433 L 6,-434 L 7,-434 L 8,-434 L 9,-435 L 10,-435 L 10,-436 L 9,-438 L 8,-439 L 7,-440 L 8,-440 L 7,-441 L 7,-442 L 7,-443 L 7,-444 L 7,-445 L 6,-446 L 6,-447 L 5,-447 L 5,-448 L 5,-449 L 6,-449 L 7,-448 L 8,-449 L 9,-449 L 10,-450 L 11,-450 L 11,-451 L 12,-451 L 12,-452 L 13,-453 L 13,-454 L 13,-455 L 13,-457 L 13,-458 L 14,-458 L 15,-459 L 16,-459 L 16,-461 L 16,-462 L 16,-463 L 15,-463 L 14,-464 L 13,-464 L 12,-465 L 11,-466 L 10,-466 L 9,-466 L 8,-466 L 7,-466 L 6,-465 L 6,-464 L 5,-464 L 4,-464 L 3,-464 L 3,-465 L 2,-466 L 1,-466 L 1,-467 L 0,-468 L 0,-469 L 0,-470 L -1,-470 L -2,-469 L -3,-469 L -4,-469 L -6,-470 L -7,-470 L -8,-471 L -8,-472 L -8,-473 L -8,-474 L -7,-475 L -6,-476 L -6,-477 L -6,-478 L -6,-479 L -5,-481 L -4,-481 L -4,-482 L -5,-482 L -5,-483 L -6,-485 L -7,-486 L -8,-486 L -9,-487 L -10,-487 L -11,-486 L -12,-486 L -13,-486 L -14,-487 L -15,-488 L -16,-489 L -16,-490 L -17,-490 L -18,-490 L -19,-489 L -20,-488 L -21,-488 L -22,-488 L -22,-489 L -23,-490 L -24,-490 L -25,-491 L -26,-492 L -28,-493 L -29,-494 L -30,-495 L -31,-496 L -31,-497 L -33,-499 L -34,-500 L -34,-501 L -35,-503 L -36,-503 L -36,-504 L -37,-505 L -38,-505 L -39,-506 L -39,-507 L -40,-507 L -40,-508 L -41,-508 L -42,-509 L -43,-510 L -44,-511 L -44,-512 L -45,-512 L -45,-513 L -45,-514 L -46,-514 L -46,-515 L -47,-515 L -48,-515 L -47,-515 L -44,-519 L -43,-521 L -34,-523 L -31,-523 L -27,-525 L -21,-526 L -20,-529 L -16,-529 L -11,-532 L -5,-535 L 0,-542 L 3,-545 L 4,-545 L 4,-546 L 5,-546 L 5,-547 L 5,-548 L 6,-548 L 7,-548 L 7,-549 L 8,-549 L 9,-549 L 9,-550 L 10,-550 L 9,-550 L 9,-551 L 9,-552 L 10,-552 L 11,-552 L 11,-553 L 10,-553 L 10,-554 L 11,-554 L 11,-555 L 12,-555 L 12,-556 L 11,-556 L 12,-556 L 11,-557 L 11,-558 L 12,-558 L 11,-558 L 11,-559 L 11,-560 L 12,-560 L 12,-561 L 12,-562 L 12,-563 L 12,-564 L 13,-564 L 14,-564 L 13,-564 L 13,-565 L 13,-566 L 13,-567 L 13,-568 L 13,-567 L 13,-568 L 13,-569 L 13,-570 L 13,-571 L 13,-572 L 12,-572 L 12,-571 L 12,-572 L 12,-573 L 13,-573 L 13,-574 L 12,-574 L 13,-574 L 13,-575 L 14,-575 L 14,-576 L 15,-576 L 15,-577 L 16,-577 L 16,-578 L 17,-578 L 17,-579 L 16,-579 L 17,-579 L 18,-579 L 19,-579 L 19,-580 L 20,-580 L 20,-579 L 21,-579 L 22,-579 L 23,-579 L 24,-579 L 24,-578 L 24,-577 L 25,-577 L 26,-577 L 27,-577 L 26,-577 L 26,-578 L 27,-578 L 27,-579 L 28,-580 L 27,-580 L 28,-580 L 28,-581 L 28,-582 L 28,-581 L 29,-582 L 29,-581 L 30,-581 L 30,-580 L 30,-581 L 30,-582 L 30,-583 L 30,-582 L 31,-582 L 31,-581 L 32,-581 L 32,-582 L 32,-583 L 33,-583 L 33,-582 L 33,-581 L 34,-581 L 34,-580 L 33,-580 L 33,-579 L 32,-579 L 33,-578 L 33,-577 L 33,-576 L 32,-576 L 32,-575 L 33,-575 L 34,-574 L 35,-574 L 36,-574 L 36,-573 L 35,-572 L 34,-572 L 34,-571 L 34,-570 L 34,-569 L 33,-569 L 33,-568 L 33,-567 L 34,-567 L 34,-566 L 35,-566 L 35,-567 L 36,-567 L 37,-567 L 38,-567 L 38,-566 L 37,-566 L 37,-565 L 36,-564 L 37,-564 L 36,-563 L 36,-562 L 35,-562 L 35,-561 L 34,-561 L 35,-561 L 35,-560 L 35,-559 L 36,-559 L 37,-559 L 38,-559 L 38,-558 L 39,-559 L 39,-560 L 40,-560 L 40,-561 L 41,-561 L 42,-561 L 42,-560 L 42,-559 L 41,-559 L 40,-559 L 40,-558 L 40,-557 L 40,-556 L 41,-555 L 41,-554 L 42,-553 L 43,-553 L 44,-553 L 45,-552 L 45,-551 L 44,-551 L 45,-550 L 46,-550 L 46,-551 L 47,-552 L 48,-551 L 48,-550 L 48,-549 L 49,-549 L 49,-548 L 49,-547 L 50,-547 L 51,-547 L 52,-547 L 52,-546 L 53,-546 L 53,-547 L 54,-548 L 54,-549 L 54,-550 L 55,-550 L 55,-549 L 55,-548 L 55,-547 L 56,-546 L 56,-545 L 56,-544 L 57,-544 L 57,-545 L 58,-545 L 58,-546 L 59,-547 L 60,-547 L 60,-546 L 59,-546 L 59,-545 L 59,-544 L 60,-544 L 61,-544 L 61,-543 L 62,-543 L 62,-542 L 62,-543 L 63,-543 L 63,-544 L 64,-544 L 65,-543 L 66,-542 L 66,-541 L 67,-541 L 68,-542 L 67,-543 L 68,-543 L 68,-544 L 69,-544 L 70,-544 L 71,-543 L 72,-543 L 72,-542 L 73,-542 L 74,-542 L 74,-543 L 73,-543 L 73,-544 L 73,-545 L 73,-546 L 74,-547 L 75,-547 L 76,-548 L 77,-548 L 77,-547 L 78,-547 " /></g>
</svg>
