<?xml version="1.0" standalone="no"?><!DOCTYPE svg PUBLIC "-//W3C//DTD SVG 1.1//EN" "http://www.w3.org/Graphics/SVG/1.1/DTD/svg11.dtd"><svg xmlns="http://www.w3.org/2000/svg" viewBox="-145 -121 122 79" version = "1.1">
<g id="21103" ><path d="M -98,-103 L -97,-103 L -97,-102 L -96,-102 L -96,-101 L -95,-101 L -95,-100 L -94,-100 L -94,-99 L -93,-99 L -92,-99 L -91,-99 L -90,-99 L -89,-99 L -88,-99 L -87,-99 L -86,-99 L -86,-100 L -85,-100 L -83,-101 L -83,-102 L -82,-102 L -81,-102 L -80,-102 L -79,-101 L -79,-100 L -78,-100 L -77,-100 L -76,-100 L -76,-99 L -75,-99 L -76,-98 L -76,-97 L -75,-97 L -75,-96 L -75,-95 L -74,-95 L -74,-94 L -74,-93 L -74,-92 L -73,-92 L -73,-91 L -72,-91 L -72,-90 L -71,-90 L -70,-90 L -70,-89 L -69,-89 L -68,-89 L -68,-88 L -67,-88 L -66,-88 L -66,-87 L -65,-87 L -65,-88 L -64,-88 L -63,-88 L -62,-88 L -62,-89 L -61,-89 L -60,-89 L -59,-89 L -58,-90 L -57,-90 L -56,-90 L -55,-90 L -54,-90 L -53,-90 L -52,-90 L -52,-89 L -51,-89 L -51,-88 L -50,-88 L -49,-88 L -49,-87 L -48,-87 L -47,-87 L -46,-87 L -45,-86 L -45,-87 L -44,-87 L -44,-86 L -43,-86 L -42,-86 L -41,-86 L -40,-86 L -39,-86 L -39,-87 L -38,-87 L -38,-88 L -37,-88 L -36,-88 L -35,-88 L -34,-88 L -33,-88 L -33,-89 L -32,-89 L -32,-90 L -31,-90 L -31,-91 L -30,-91 L -29,-91 L -29,-90 L -29,-89 L -28,-89 L -28,-88 L -28,-87 L -28,-86 L -27,-86 L -27,-85 L -26,-85 L -26,-84 L -25,-84 L -25,-83 L -25,-82 L -25,-81 L -24,-81 L -24,-80 L -23,-80 L -23,-79 L -23,-78 L -24,-78 L -25,-77 L -25,-76 L -26,-76 L -26,-75 L -27,-75 L -27,-74 L -27,-73 L -28,-73 L -29,-73 L -30,-73 L -30,-72 L -32,-71 L -32,-70 L -33,-69 L -32,-66 L -30,-64 L -30,-62 L -30,-61 L -30,-60 L -30,-59 L -30,-58 L -30,-57 L -30,-56 L -30,-55 L -30,-53 L -31,-52 L -31,-51 L -31,-50 L -32,-49 L -32,-47 L -34,-47 L -36,-49 L -37,-49 L -37,-50 L -38,-50 L -39,-50 L -40,-50 L -40,-51 L -41,-51 L -42,-51 L -43,-51 L -44,-51 L -44,-52 L -45,-52 L -45,-53 L -46,-53 L -46,-54 L -46,-53 L -47,-54 L -47,-55 L -48,-55 L -49,-55 L -49,-54 L -50,-54 L -51,-53 L -52,-53 L -52,-52 L -53,-53 L -54,-53 L -57,-52 L -58,-51 L -59,-51 L -59,-50 L -61,-49 L -61,-48 L -62,-48 L -62,-47 L -66,-50 L -67,-49 L -67,-48 L -68,-47 L -69,-47 L -70,-46 L -71,-47 L -72,-47 L -73,-48 L -74,-48 L -74,-47 L -75,-47 L -77,-46 L -78,-45 L -78,-44 L -79,-43 L -82,-47 L -83,-49 L -85,-48 L -87,-46 L -89,-44 L -90,-43 L -91,-42 L -93,-46 L -98,-48 L -101,-50 L -103,-51 L -104,-50 L -106,-49 L -107,-48 L -109,-53 L -110,-54 L -113,-55 L -114,-55 L -117,-56 L -119,-55 L -120,-55 L -122,-57 L -122,-58 L -123,-59 L -123,-60 L -127,-61 L -130,-62 L -132,-63 L -133,-65 L -134,-66 L -136,-66 L -138,-67 L -140,-69 L -139,-73 L -140,-76 L -141,-79 L -143,-81 L -143,-83 L -142,-84 L -140,-85 L -140,-86 L -140,-88 L -141,-89 L -140,-90 L -139,-92 L -139,-94 L -138,-96 L -139,-97 L -139,-98 L -138,-99 L -138,-100 L -139,-103 L -140,-104 L -143,-107 L -145,-110 L -144,-110 L -143,-110 L -142,-110 L -141,-110 L -141,-111 L -140,-111 L -139,-111 L -139,-112 L -138,-112 L -138,-113 L -137,-113 L -136,-113 L -136,-114 L -135,-114 L -135,-115 L -134,-115 L -133,-115 L -132,-115 L -131,-115 L -131,-116 L -130,-116 L -129,-116 L -128,-116 L -127,-116 L -126,-116 L -126,-117 L -126,-116 L -126,-117 L -125,-117 L -124,-117 L -123,-117 L -123,-118 L -123,-119 L -122,-119 L -122,-120 L -121,-120 L -121,-121 L -120,-121 L -119,-121 L -119,-120 L -118,-120 L -117,-120 L -116,-120 L -115,-120 L -114,-120 L -114,-119 L -113,-119 L -112,-119 L -111,-119 L -111,-120 L -110,-120 L -109,-120 L -108,-120 L -108,-121 L -107,-121 L -106,-121 L -106,-120 L -105,-120 L -104,-120 L -104,-119 L -104,-118 L -103,-118 L -103,-117 L -102,-117 L -102,-116 L -102,-115 L -102,-114 L -102,-113 L -102,-112 L -102,-111 L -102,-110 L -102,-109 L -102,-108 L -101,-108 L -101,-107 L -100,-106 L -100,-105 L -99,-104 L -98,-104 L -98,-103 " /></g>
</svg>
