<?xml version="1.0" standalone="no"?><!DOCTYPE svg PUBLIC "-//W3C//DTD SVG 1.1//EN" "http://www.w3.org/Graphics/SVG/1.1/DTD/svg11.dtd"><svg xmlns="http://www.w3.org/2000/svg" viewBox="-355 -231 115 135" version = "1.1">
<g id="21203" ><path d="M -338,-103 L -342,-110 L -345,-104 L -346,-103 L -347,-103 L -353,-104 L -355,-106 L -353,-110 L -353,-111 L -353,-112 L -353,-115 L -355,-117 L -354,-122 L -353,-122 L -352,-123 L -352,-125 L -351,-127 L -350,-129 L -350,-130 L -350,-131 L -351,-131 L -351,-132 L -352,-132 L -352,-133 L -353,-133 L -352,-133 L -352,-134 L -353,-134 L -353,-135 L -352,-135 L -348,-137 L -345,-138 L -347,-140 L -348,-142 L -351,-145 L -346,-155 L -338,-155 L -336,-152 L -332,-158 L -334,-161 L -338,-163 L -337,-175 L -337,-178 L -334,-180 L -333,-179 L -331,-177 L -328,-176 L -330,-181 L -336,-182 L -338,-184 L -341,-185 L -345,-186 L -344,-188 L -343,-191 L -342,-192 L -344,-194 L -341,-194 L -340,-194 L -339,-194 L -338,-194 L -337,-195 L -336,-195 L -335,-196 L -334,-197 L -333,-197 L -332,-198 L -332,-197 L -331,-198 L -330,-198 L -329,-198 L -328,-199 L -328,-200 L -329,-200 L -328,-201 L -328,-202 L -328,-203 L -327,-205 L -328,-205 L -328,-206 L -329,-206 L -330,-207 L -330,-208 L -331,-209 L -330,-210 L -330,-211 L -329,-212 L -327,-214 L -327,-215 L -327,-216 L -326,-216 L -325,-216 L -325,-215 L -324,-215 L -321,-216 L -319,-215 L -317,-215 L -316,-216 L -315,-216 L -314,-217 L -310,-217 L -308,-217 L -306,-217 L -305,-218 L -304,-218 L -301,-218 L -299,-222 L -299,-223 L -299,-226 L -298,-227 L -297,-228 L -297,-229 L -296,-231 L -295,-230 L -293,-229 L -292,-229 L -291,-228 L -289,-227 L -289,-225 L -288,-223 L -286,-222 L -283,-219 L -282,-218 L -281,-212 L -274,-208 L -265,-205 L -256,-200 L -250,-197 L -245,-193 L -241,-185 L -240,-184 L -241,-183 L -242,-181 L -243,-179 L -244,-177 L -245,-175 L -246,-174 L -248,-173 L -249,-173 L -251,-173 L -252,-173 L -253,-172 L -254,-171 L -255,-171 L -256,-171 L -258,-171 L -259,-171 L -260,-170 L -261,-170 L -263,-170 L -264,-169 L -265,-169 L -265,-170 L -266,-171 L -267,-170 L -268,-170 L -269,-169 L -270,-169 L -270,-168 L -271,-167 L -272,-166 L -272,-165 L -273,-165 L -273,-164 L -273,-163 L -274,-162 L -274,-161 L -274,-160 L -275,-158 L -277,-155 L -279,-150 L -279,-149 L -280,-148 L -281,-148 L -282,-148 L -283,-148 L -284,-148 L -285,-149 L -286,-148 L -287,-148 L -288,-147 L -288,-146 L -289,-146 L -289,-145 L -289,-144 L -290,-144 L -290,-143 L -291,-143 L -291,-142 L -292,-142 L -292,-141 L -293,-141 L -293,-140 L -294,-140 L -294,-139 L -294,-138 L -294,-137 L -295,-137 L -295,-136 L -296,-136 L -296,-135 L -297,-135 L -298,-134 L -299,-133 L -299,-132 L -300,-132 L -301,-131 L -302,-130 L -303,-130 L -303,-129 L -304,-128 L -305,-128 L -305,-127 L -306,-127 L -306,-126 L -307,-126 L -307,-125 L -308,-125 L -309,-124 L -310,-124 L -310,-123 L -311,-123 L -312,-122 L -313,-122 L -310,-118 L -307,-114 L -304,-112 L -303,-111 L -302,-110 L -300,-108 L -303,-106 L -303,-105 L -304,-105 L -305,-104 L -306,-103 L -306,-102 L -307,-102 L -308,-101 L -309,-100 L -310,-99 L -311,-98 L -312,-97 L -312,-96 L -314,-97 L -316,-98 L -317,-99 L -317,-100 L -317,-101 L -316,-102 L -316,-103 L -317,-104 L -318,-105 L -320,-106 L -321,-106 L -322,-106 L -323,-105 L -324,-104 L -326,-102 L -327,-102 L -328,-101 L -329,-102 L -330,-103 L -331,-101 L -338,-103 " /></g>
</svg>
