<?xml version="1.0" standalone="no"?><!DOCTYPE svg PUBLIC "-//W3C//DTD SVG 1.1//EN" "http://www.w3.org/Graphics/SVG/1.1/DTD/svg11.dtd"><svg xmlns="http://www.w3.org/2000/svg" viewBox="-366 -67 126 104" version = "1.1">
<g id="21202" ><path d="M -263,-62 L -268,-53 L -264,-49 L -261,-50 L -257,-50 L -260,-43 L -255,-41 L -250,-45 L -240,-39 L -245,-33 L -247,-33 L -248,-33 L -249,-34 L -249,-35 L -250,-35 L -250,-36 L -250,-37 L -251,-37 L -252,-37 L -253,-38 L -254,-38 L -255,-37 L -256,-37 L -257,-37 L -257,-36 L -258,-36 L -258,-35 L -258,-34 L -259,-34 L -259,-33 L -260,-33 L -260,-32 L -260,-31 L -260,-30 L -261,-29 L -262,-29 L -262,-28 L -263,-28 L -264,-27 L -266,-26 L -266,-25 L -267,-24 L -267,-23 L -268,-22 L -268,-21 L -269,-21 L -269,-22 L -270,-23 L -271,-22 L -272,-22 L -273,-20 L -274,-20 L -275,-19 L -278,-17 L -280,-16 L -281,-15 L -283,-14 L -287,-13 L -289,-12 L -289,-11 L -292,-3 L -294,-1 L -295,0 L -297,1 L -302,5 L -303,6 L -304,6 L -304,7 L -304,8 L -306,8 L -307,8 L -311,15 L -312,17 L -315,21 L -323,36 L -326,37 L -329,35 L -330,33 L -335,27 L -343,16 L -359,5 L -359,2 L -360,0 L -361,-1 L -361,-2 L -363,-3 L -363,-4 L -364,-5 L -364,-6 L -363,-12 L -363,-13 L -358,-25 L -358,-26 L -359,-26 L -359,-27 L -360,-27 L -360,-28 L -360,-29 L -359,-29 L -360,-29 L -360,-30 L -360,-31 L -360,-32 L -359,-32 L -359,-33 L -359,-34 L -359,-35 L -359,-36 L -358,-36 L -358,-37 L -358,-38 L -358,-39 L -359,-39 L -359,-40 L -360,-40 L -360,-41 L -361,-41 L -361,-42 L -361,-43 L -362,-43 L -362,-44 L -363,-44 L -363,-45 L -364,-45 L -364,-46 L -365,-46 L -365,-47 L -366,-47 L -366,-48 L -365,-48 L -364,-49 L -363,-49 L -363,-48 L -362,-47 L -360,-46 L -352,-53 L -349,-55 L -346,-58 L -344,-61 L -344,-60 L -343,-60 L -343,-59 L -342,-59 L -342,-58 L -342,-57 L -342,-56 L -342,-55 L -341,-55 L -341,-54 L -340,-54 L -339,-54 L -339,-53 L -338,-53 L -338,-54 L -337,-53 L -336,-53 L -336,-52 L -335,-52 L -334,-52 L -333,-52 L -333,-51 L -333,-50 L -332,-50 L -332,-49 L -331,-49 L -331,-48 L -330,-48 L -329,-48 L -329,-49 L -328,-49 L -328,-50 L -327,-51 L -326,-52 L -321,-56 L -319,-61 L -317,-62 L -315,-63 L -314,-62 L -312,-60 L -306,-64 L -302,-63 L -301,-63 L -300,-63 L -299,-63 L -298,-63 L -297,-63 L -298,-63 L -297,-64 L -296,-64 L -296,-65 L -295,-65 L -295,-66 L -294,-66 L -294,-67 L -286,-56 L -281,-60 L -279,-61 L -271,-64 L -267,-67 L -263,-62 " /></g>
</svg>
