<?xml version="1.0" standalone="no"?><!DOCTYPE svg PUBLIC "-//W3C//DTD SVG 1.1//EN" "http://www.w3.org/Graphics/SVG/1.1/DTD/svg11.dtd"><svg xmlns="http://www.w3.org/2000/svg" viewBox="-423 -131 73 35" version = "1.1">
<g id="21204" ><path d="M -395,-101 L -396,-101 L -397,-101 L -397,-102 L -396,-102 L -396,-103 L -395,-103 L -395,-102 L -395,-101 " /><path d="M -391,-103 L -392,-103 L -393,-103 L -393,-104 L -393,-105 L -392,-105 L -391,-105 L -391,-104 L -391,-103 " /><path d="M -408,-105 L -407,-105 L -407,-104 L -407,-103 L -406,-103 L -406,-102 L -407,-102 L -407,-101 L -406,-100 L -406,-99 L -405,-99 L -405,-98 L -406,-98 L -406,-99 L -407,-99 L -407,-100 L -407,-101 L -407,-102 L -408,-102 L -409,-102 L -409,-103 L -410,-103 L -410,-104 L -410,-105 L -410,-106 L -409,-106 L -409,-105 L -408,-105 " /><path d="M -413,-110 L -414,-110 L -415,-110 L -415,-111 L -415,-112 L -414,-112 L -414,-111 L -413,-111 L -413,-110 " /><path d="M -419,-123 L -418,-122 L -417,-122 L -416,-122 L -416,-121 L -415,-121 L -414,-121 L -413,-121 L -412,-121 L -413,-120 L -414,-120 L -414,-119 L -413,-118 L -412,-118 L -411,-118 L -411,-117 L -412,-117 L -413,-117 L -414,-117 L -414,-116 L -415,-116 L -415,-117 L -416,-117 L -416,-116 L -416,-115 L -415,-115 L -416,-115 L -417,-115 L -418,-116 L -418,-117 L -419,-117 L -419,-118 L -420,-118 L -420,-117 L -421,-117 L -421,-118 L -422,-118 L -422,-119 L -422,-120 L -423,-120 L -422,-121 L -422,-122 L -422,-123 L -421,-123 L -420,-123 L -419,-123 " /><path d="M -351,-131 L -350,-131 L -350,-130 L -350,-129 L -351,-127 L -352,-125 L -352,-123 L -353,-122 L -354,-122 L -355,-117 L -353,-115 L -353,-112 L -353,-111 L -353,-110 L -355,-106 L -353,-104 L -354,-101 L -354,-100 L -354,-99 L -354,-97 L -354,-96 L -358,-99 L -361,-102 L -365,-104 L -366,-105 L -368,-107 L -368,-108 L -370,-107 L -370,-106 L -370,-105 L -370,-104 L -371,-104 L -371,-103 L -372,-103 L -373,-104 L -374,-104 L -375,-104 L -376,-103 L -377,-103 L -378,-103 L -379,-103 L -380,-105 L -380,-106 L -381,-106 L -381,-105 L -382,-105 L -383,-104 L -384,-103 L -385,-100 L -387,-97 L -388,-96 L -389,-96 L -391,-96 L -391,-97 L -390,-97 L -390,-98 L -391,-98 L -391,-99 L -391,-100 L -390,-100 L -390,-101 L -389,-101 L -388,-101 L -388,-102 L -387,-102 L -387,-103 L -387,-104 L -388,-104 L -388,-105 L -388,-106 L -388,-107 L -389,-107 L -390,-107 L -391,-107 L -392,-108 L -393,-108 L -393,-109 L -393,-110 L -394,-110 L -395,-110 L -396,-110 L -396,-109 L -397,-109 L -398,-109 L -398,-108 L -399,-108 L -399,-109 L -400,-109 L -400,-108 L -400,-107 L -399,-107 L -399,-106 L -398,-106 L -398,-105 L -398,-104 L -399,-104 L -399,-103 L -400,-103 L -401,-103 L -401,-104 L -402,-104 L -402,-105 L -402,-106 L -402,-107 L -403,-107 L -404,-107 L -405,-108 L -405,-109 L -406,-110 L -406,-111 L -405,-111 L -404,-111 L -404,-110 L -403,-110 L -402,-110 L -401,-110 L -401,-109 L -401,-110 L -401,-111 L -402,-111 L -401,-112 L -401,-113 L -400,-113 L -399,-113 L -398,-113 L -398,-114 L -397,-114 L -397,-113 L -396,-113 L -395,-113 L -394,-113 L -394,-112 L -393,-112 L -392,-112 L -393,-113 L -392,-113 L -392,-114 L -392,-115 L -393,-116 L -393,-117 L -394,-117 L -395,-117 L -395,-118 L -394,-118 L -393,-118 L -392,-118 L -391,-118 L -390,-118 L -389,-118 L -389,-117 L -388,-117 L -387,-116 L -386,-116 L -386,-115 L -385,-115 L -385,-114 L -384,-114 L -383,-114 L -382,-114 L -381,-114 L -380,-115 L -380,-114 L -379,-114 L -379,-113 L -378,-113 L -378,-112 L -377,-112 L -376,-112 L -376,-111 L -376,-112 L -376,-111 L -375,-111 L -375,-110 L -374,-110 L -375,-110 L -374,-110 L -374,-109 L -373,-109 L -373,-108 L -373,-109 L -372,-109 L -371,-109 L -371,-108 L -371,-109 L -371,-110 L -372,-110 L -372,-111 L -371,-111 L -370,-111 L -370,-110 L -369,-110 L -368,-109 L -367,-109 L -367,-108 L -366,-108 L -365,-108 L -364,-108 L -364,-109 L -363,-109 L -362,-109 L -362,-110 L -361,-110 L -361,-111 L -360,-111 L -360,-112 L -359,-112 L -358,-113 L -357,-113 L -357,-114 L -357,-115 L -357,-116 L -358,-116 L -358,-117 L -359,-117 L -359,-118 L -359,-119 L -360,-119 L -360,-118 L -361,-118 L -361,-119 L -361,-120 L -361,-121 L -362,-121 L -362,-122 L -363,-122 L -363,-123 L -363,-124 L -362,-125 L -363,-125 L -362,-126 L -362,-127 L -361,-127 L -361,-126 L -361,-127 L -360,-127 L -359,-127 L -359,-126 L -360,-126 L -360,-125 L -359,-125 L -359,-126 L -358,-126 L -358,-127 L -358,-128 L -357,-128 L -356,-128 L -356,-129 L -355,-129 L -355,-128 L -355,-127 L -356,-127 L -356,-126 L -355,-126 L -354,-126 L -354,-127 L -355,-127 L -355,-128 L -355,-129 L -354,-130 L -353,-131 L -352,-131 L -351,-131 " /></g>
</svg>
