<?xml version="1.0" standalone="no"?><!DOCTYPE svg PUBLIC "-//W3C//DTD SVG 1.1//EN" "http://www.w3.org/Graphics/SVG/1.1/DTD/svg11.dtd"><svg xmlns="http://www.w3.org/2000/svg" viewBox="-405 -184 193 141" version = "1.1">
<g id="21201" ><path d="M -233,-169 L -233,-163 L -233,-162 L -233,-161 L -233,-160 L -234,-159 L -233,-159 L -233,-158 L -233,-157 L -232,-157 L -232,-156 L -231,-156 L -231,-155 L -231,-154 L -230,-154 L -230,-153 L -230,-152 L -231,-152 L -231,-151 L -231,-150 L -232,-149 L -232,-148 L -221,-141 L -212,-133 L -216,-128 L -217,-123 L -223,-120 L -222,-119 L -222,-118 L -223,-118 L -223,-117 L -224,-117 L -224,-116 L -224,-115 L -225,-115 L -225,-114 L -225,-113 L -225,-112 L -226,-112 L -226,-111 L -227,-111 L -227,-110 L -228,-110 L -228,-109 L -229,-109 L -229,-108 L -233,-92 L -242,-89 L -249,-76 L -249,-75 L -249,-74 L -250,-74 L -250,-73 L -251,-73 L -251,-72 L -251,-71 L -251,-70 L -251,-69 L -251,-68 L -252,-68 L -252,-67 L -252,-66 L -253,-66 L -253,-65 L -254,-64 L -255,-64 L -255,-63 L -255,-62 L -256,-62 L -256,-61 L -256,-60 L -257,-60 L -257,-59 L -258,-59 L -258,-58 L -259,-58 L -259,-57 L -260,-57 L -260,-56 L -260,-55 L -261,-55 L -263,-51 L -261,-50 L -264,-49 L -268,-53 L -263,-62 L -267,-67 L -271,-64 L -279,-61 L -281,-60 L -286,-56 L -294,-67 L -294,-66 L -295,-66 L -295,-65 L -296,-65 L -296,-64 L -297,-64 L -298,-63 L -297,-63 L -298,-63 L -299,-63 L -300,-63 L -301,-63 L -302,-63 L -306,-64 L -312,-60 L -314,-62 L -315,-63 L -317,-62 L -319,-61 L -321,-56 L -326,-52 L -327,-51 L -328,-50 L -328,-49 L -329,-49 L -329,-48 L -330,-48 L -331,-48 L -331,-49 L -332,-49 L -332,-50 L -333,-50 L -333,-51 L -333,-52 L -334,-52 L -335,-52 L -336,-52 L -336,-53 L -337,-53 L -338,-54 L -338,-53 L -339,-53 L -339,-54 L -340,-54 L -341,-54 L -341,-55 L -342,-55 L -342,-56 L -342,-57 L -342,-58 L -342,-59 L -343,-59 L -343,-60 L -344,-60 L -344,-61 L -346,-58 L -349,-55 L -352,-53 L -360,-46 L -362,-47 L -363,-48 L -363,-49 L -364,-49 L -365,-48 L -366,-48 L -368,-47 L -368,-45 L -367,-43 L -368,-43 L -369,-44 L -370,-44 L -371,-44 L -371,-45 L -372,-44 L -374,-45 L -375,-46 L -375,-45 L -376,-46 L -377,-46 L -378,-46 L -379,-46 L -380,-46 L -382,-46 L -383,-46 L -384,-46 L -386,-45 L -387,-46 L -388,-45 L -389,-45 L -390,-46 L -391,-46 L -392,-46 L -393,-47 L -394,-47 L -395,-47 L -396,-48 L -397,-49 L -397,-51 L -398,-52 L -398,-53 L -397,-53 L -397,-54 L -397,-55 L -397,-56 L -397,-58 L -397,-60 L -397,-62 L -398,-63 L -399,-66 L -400,-68 L -400,-70 L -401,-71 L -405,-79 L -405,-80 L -404,-80 L -404,-81 L -404,-82 L -403,-82 L -403,-83 L -402,-83 L -402,-84 L -401,-84 L -401,-85 L -400,-85 L -400,-86 L -400,-87 L -401,-87 L -402,-87 L -403,-88 L -402,-88 L -401,-88 L -401,-89 L -400,-89 L -400,-90 L -399,-90 L -398,-91 L -398,-92 L -398,-93 L -398,-94 L -398,-93 L -397,-93 L -397,-92 L -396,-92 L -396,-91 L -396,-92 L -395,-92 L -394,-92 L -394,-93 L -393,-93 L -393,-94 L -392,-94 L -392,-95 L -392,-96 L -391,-96 L -389,-96 L -388,-96 L -387,-97 L -385,-100 L -384,-103 L -383,-104 L -382,-105 L -381,-105 L -381,-106 L -380,-106 L -380,-105 L -379,-103 L -378,-103 L -377,-103 L -376,-103 L -375,-104 L -374,-104 L -373,-104 L -372,-103 L -371,-103 L -371,-104 L -370,-104 L -370,-105 L -370,-106 L -370,-107 L -368,-108 L -368,-107 L -366,-105 L -365,-104 L -361,-102 L -358,-99 L -354,-96 L -354,-97 L -354,-99 L -354,-100 L -354,-101 L -353,-104 L -347,-103 L -346,-103 L -345,-104 L -342,-110 L -338,-103 L -331,-101 L -330,-103 L -329,-102 L -328,-101 L -327,-102 L -326,-102 L -324,-104 L -323,-105 L -322,-106 L -321,-106 L -320,-106 L -318,-105 L -317,-104 L -316,-103 L -316,-102 L -317,-101 L -317,-100 L -317,-99 L -316,-98 L -314,-97 L -312,-96 L -312,-97 L -311,-98 L -310,-99 L -309,-100 L -308,-101 L -307,-102 L -306,-102 L -306,-103 L -305,-104 L -304,-105 L -303,-105 L -303,-106 L -300,-108 L -302,-110 L -303,-111 L -304,-112 L -307,-114 L -310,-118 L -313,-122 L -312,-122 L -311,-123 L -310,-123 L -310,-124 L -309,-124 L -308,-125 L -307,-125 L -307,-126 L -306,-126 L -306,-127 L -305,-127 L -305,-128 L -304,-128 L -303,-129 L -303,-130 L -302,-130 L -301,-131 L -300,-132 L -299,-132 L -299,-133 L -298,-134 L -297,-135 L -296,-135 L -296,-136 L -295,-136 L -295,-137 L -294,-137 L -294,-138 L -294,-139 L -294,-140 L -293,-140 L -293,-141 L -292,-141 L -292,-142 L -291,-142 L -291,-143 L -290,-143 L -290,-144 L -289,-144 L -289,-145 L -289,-146 L -288,-146 L -288,-147 L -287,-148 L -286,-148 L -285,-149 L -284,-148 L -283,-148 L -282,-148 L -281,-148 L -280,-148 L -279,-149 L -279,-150 L -277,-155 L -275,-158 L -274,-160 L -274,-161 L -274,-162 L -273,-163 L -273,-164 L -273,-165 L -272,-165 L -272,-166 L -271,-167 L -270,-168 L -270,-169 L -269,-169 L -268,-170 L -267,-170 L -266,-171 L -265,-170 L -265,-169 L -264,-169 L -263,-170 L -261,-170 L -260,-170 L -259,-171 L -258,-171 L -256,-171 L -255,-171 L -254,-171 L -253,-172 L -252,-173 L -251,-173 L -249,-173 L -248,-173 L -246,-174 L -245,-175 L -244,-177 L -243,-179 L -242,-181 L -241,-183 L -240,-184 L -238,-182 L -236,-179 L -235,-176 L -233,-169 " /></g>
</svg>
