<?xml version="1.0" standalone="no"?><!DOCTYPE svg PUBLIC "-//W3C//DTD SVG 1.1//EN" "http://www.w3.org/Graphics/SVG/1.1/DTD/svg11.dtd"><svg xmlns="http://www.w3.org/2000/svg" viewBox="-288 53 65 52" version = "1.1">
<g id="21307" ><path d="M -225,60 L -230,60 L -234,62 L -239,66 L -240,67 L -244,75 L -244,76 L -249,82 L -249,83 L -254,88 L -259,92 L -260,94 L -261,94 L -263,96 L -269,100 L -271,100 L -275,103 L -281,105 L -282,103 L -283,102 L -284,102 L -285,102 L -285,101 L -285,100 L -285,99 L -284,99 L -284,98 L -284,97 L -285,97 L -285,96 L -286,96 L -286,95 L -286,94 L -287,94 L -287,93 L -286,93 L -287,93 L -286,93 L -286,92 L -287,92 L -287,91 L -288,91 L -287,91 L -286,90 L -286,89 L -287,88 L -286,86 L -285,86 L -285,85 L -285,84 L -278,79 L -277,78 L -276,78 L -274,77 L -272,77 L -271,77 L -269,76 L -266,75 L -264,75 L -262,74 L -261,74 L -259,74 L -258,73 L -258,72 L -257,72 L -257,71 L -256,71 L -255,70 L -250,67 L -243,62 L -242,57 L -241,56 L -240,56 L -239,56 L -238,56 L -238,55 L -237,55 L -237,54 L -236,53 L -235,53 L -234,53 L -231,54 L -228,55 L -227,56 L -227,57 L -226,57 L -225,57 L -225,58 L -224,58 L -224,59 L -223,59 L -223,60 L -225,60 " /></g>
</svg>
