<?xml version="1.0" standalone="no"?><!DOCTYPE svg PUBLIC "-//W3C//DTD SVG 1.1//EN" "http://www.w3.org/Graphics/SVG/1.1/DTD/svg11.dtd"><svg xmlns="http://www.w3.org/2000/svg" viewBox="-234 31 75 93" version = "1.1">
<g id="21304" ><path d="M -159,61 L -161,66 L -162,67 L -163,67 L -164,67 L -165,67 L -165,68 L -168,69 L -171,70 L -173,72 L -173,74 L -170,77 L -169,78 L -168,79 L -168,80 L -172,82 L -171,84 L -170,84 L -169,87 L -167,88 L -165,90 L -164,91 L -167,96 L -170,98 L -170,105 L -171,106 L -181,111 L -180,113 L -183,115 L -190,118 L -195,120 L -197,120 L -203,122 L -207,124 L -208,123 L -209,123 L -209,122 L -210,122 L -211,122 L -212,122 L -213,122 L -214,121 L -215,121 L -216,121 L -216,120 L -217,120 L -217,119 L -218,119 L -218,118 L -219,118 L -219,117 L -220,117 L -221,117 L -221,116 L -222,116 L -222,115 L -222,114 L -223,114 L -223,113 L -223,112 L -223,111 L -223,110 L -223,109 L -223,108 L -224,108 L -224,107 L -225,107 L -225,106 L -225,105 L -226,105 L -226,104 L -226,103 L -227,102 L -227,101 L -227,100 L -228,100 L -228,99 L -228,98 L -228,97 L -229,97 L -228,92 L -221,87 L -222,86 L -223,87 L -227,81 L -227,80 L -229,76 L -225,72 L -225,71 L -224,71 L -224,70 L -224,69 L -224,68 L -224,67 L -225,67 L -224,66 L -224,65 L -224,64 L -224,63 L -225,62 L -225,61 L -225,60 L -223,60 L -223,59 L -224,59 L -224,58 L -225,58 L -225,57 L -226,57 L -227,57 L -227,56 L -228,55 L -231,54 L -234,53 L -227,47 L -223,43 L -220,42 L -219,39 L -213,34 L -212,33 L -209,32 L -207,32 L -204,33 L -198,36 L -197,36 L -194,36 L -193,36 L -193,35 L -193,34 L -192,34 L -189,31 L -189,32 L -188,32 L -188,33 L -187,33 L -184,33 L -183,34 L -183,35 L -184,35 L -184,36 L -184,38 L -183,38 L -183,39 L -181,39 L -180,40 L -179,40 L -179,41 L -178,42 L -177,43 L -176,43 L -176,44 L -175,44 L -175,45 L -174,45 L -174,46 L -173,46 L -173,47 L -172,47 L -172,48 L -171,49 L -170,49 L -170,50 L -170,51 L -169,51 L -169,52 L -168,52 L -168,53 L -169,53 L -168,53 L -169,53 L -169,54 L -168,54 L -166,58 L -165,59 L -164,59 L -162,60 L -162,61 L -161,61 L -159,61 " /></g>
</svg>
