<?xml version="1.0" standalone="no"?><!DOCTYPE svg PUBLIC "-//W3C//DTD SVG 1.1//EN" "http://www.w3.org/Graphics/SVG/1.1/DTD/svg11.dtd"><svg xmlns="http://www.w3.org/2000/svg" viewBox="-222 91 116 92" version = "1.1">
<g id="21303" ><path d="M -118,139 L -119,139 L -126,142 L -130,145 L -131,146 L -135,147 L -137,150 L -139,150 L -141,149 L -144,147 L -148,148 L -149,149 L -150,153 L -150,154 L -149,155 L -146,160 L -146,161 L -146,162 L -146,163 L -145,164 L -145,165 L -144,167 L -144,168 L -145,170 L -145,171 L -145,173 L -144,174 L -145,174 L -146,175 L -148,175 L -150,176 L -153,177 L -155,177 L -156,178 L -157,178 L -160,179 L -162,181 L -163,181 L -164,182 L -166,181 L -167,181 L -168,181 L -169,181 L -171,181 L -173,180 L -175,180 L -175,181 L -176,182 L -177,183 L -178,183 L -180,182 L -181,182 L -182,181 L -183,181 L -185,180 L -186,180 L -187,179 L -188,178 L -189,177 L -192,176 L -193,176 L -196,174 L -199,173 L -199,172 L -200,162 L -200,157 L -201,156 L -201,155 L -202,155 L -203,155 L -207,154 L -209,154 L -216,152 L -215,152 L -215,151 L -215,150 L -215,148 L -214,146 L -214,145 L -214,143 L -220,136 L -222,133 L -218,131 L -215,130 L -212,129 L -211,128 L -210,126 L -207,124 L -203,122 L -197,120 L -195,120 L -190,118 L -183,115 L -180,113 L -181,111 L -171,106 L -170,105 L -170,98 L -167,96 L -164,91 L -162,92 L -160,94 L -157,97 L -154,98 L -151,103 L -149,103 L -147,103 L -143,103 L -142,104 L -141,104 L -139,112 L -138,113 L -137,114 L -132,117 L -131,118 L -128,119 L -127,120 L -127,119 L -126,119 L -125,119 L -125,118 L -124,118 L -123,118 L -123,117 L -122,117 L -121,117 L -120,117 L -120,116 L -119,116 L -119,117 L -118,117 L -118,118 L -117,118 L -116,118 L -115,118 L -114,119 L -112,121 L -111,121 L -110,124 L -108,124 L -106,125 L -106,130 L -106,132 L -109,131 L -113,130 L -114,130 L -116,135 L -116,137 L -118,139 " /></g>
</svg>
