<?xml version="1.0" standalone="no"?><!DOCTYPE svg PUBLIC "-//W3C//DTD SVG 1.1//EN" "http://www.w3.org/Graphics/SVG/1.1/DTD/svg11.dtd"><svg xmlns="http://www.w3.org/2000/svg" viewBox="-131 146 180 166" version = "1.1">
<g id="21301" ><path d="M -21,168 L -20,171 L -19,172 L -18,174 L -16,175 L -15,176 L -13,177 L -11,177 L -10,177 L -9,177 L -8,177 L -7,177 L -5,177 L -4,176 L -3,174 L -2,173 L -1,174 L 0,175 L 1,174 L 1,173 L 2,173 L 2,171 L 3,172 L 4,173 L 5,173 L 6,173 L 6,174 L 7,174 L 8,174 L 8,175 L 8,176 L 8,177 L 8,178 L 8,179 L 8,180 L 8,181 L 9,181 L 9,182 L 9,183 L 10,183 L 10,184 L 10,185 L 11,186 L 12,187 L 13,187 L 14,186 L 15,186 L 16,186 L 17,188 L 18,188 L 19,187 L 20,187 L 20,188 L 21,188 L 21,189 L 21,190 L 21,191 L 22,191 L 22,192 L 22,193 L 22,194 L 21,194 L 21,195 L 21,197 L 20,198 L 17,201 L 16,202 L 15,203 L 13,206 L 13,208 L 12,208 L 16,212 L 18,214 L 22,218 L 23,217 L 24,218 L 25,220 L 25,222 L 26,223 L 26,224 L 27,225 L 27,226 L 29,230 L 31,231 L 32,235 L 35,237 L 36,238 L 37,239 L 37,240 L 38,240 L 38,241 L 39,242 L 39,243 L 40,244 L 40,245 L 40,246 L 41,248 L 42,248 L 43,248 L 43,249 L 44,250 L 45,253 L 45,254 L 46,255 L 47,256 L 47,257 L 48,258 L 49,259 L 49,260 L 49,261 L 49,262 L 49,264 L 49,265 L 49,268 L 49,269 L 48,271 L 48,272 L 48,274 L 48,278 L 48,279 L 47,280 L 46,282 L 46,283 L 46,284 L 46,285 L 45,285 L 44,287 L 45,288 L 45,289 L 47,290 L 47,291 L 46,292 L 47,292 L 47,294 L 47,295 L 46,295 L 45,296 L 43,298 L 42,302 L 39,306 L 38,306 L 36,305 L 35,304 L 34,304 L 34,303 L 32,302 L 30,302 L 30,301 L 27,298 L 27,297 L 26,296 L 25,295 L 24,294 L 24,293 L 24,292 L 24,291 L 24,290 L 24,289 L 23,289 L 22,289 L 22,288 L 21,288 L 21,287 L 20,287 L 20,286 L 19,286 L 19,285 L 18,285 L 18,284 L 17,284 L 17,283 L 17,284 L 16,284 L 16,285 L 15,285 L 15,286 L 15,287 L 14,287 L 14,288 L 13,288 L 13,289 L 12,289 L 10,288 L 10,289 L 8,288 L 7,288 L 6,288 L 5,287 L 4,289 L 3,292 L 2,292 L 2,293 L 1,293 L 1,294 L 1,295 L 0,296 L 0,297 L 0,298 L 0,299 L 0,300 L -1,300 L -1,301 L -2,301 L -3,301 L -3,302 L -4,302 L -4,303 L -5,304 L -6,305 L -7,305 L -7,306 L -8,307 L -9,308 L -9,309 L -9,310 L -10,310 L -11,311 L -12,311 L -13,312 L -14,312 L -15,312 L -16,312 L -17,312 L -18,312 L -19,311 L -20,310 L -22,309 L -24,308 L -24,307 L -26,305 L -27,304 L -28,302 L -29,301 L -29,299 L -30,298 L -31,298 L -31,297 L -33,297 L -34,298 L -35,298 L -36,298 L -38,297 L -40,297 L -41,297 L -43,297 L -44,297 L -45,298 L -46,298 L -47,298 L -48,298 L -49,298 L -50,298 L -51,298 L -52,297 L -53,296 L -54,296 L -55,296 L -56,296 L -57,297 L -59,298 L -60,298 L -61,299 L -62,299 L -62,300 L -63,300 L -64,300 L -66,300 L -67,300 L -68,300 L -70,301 L -72,302 L -73,301 L -74,301 L -76,301 L -77,301 L -78,301 L -79,301 L -80,301 L -80,300 L -81,299 L -82,299 L -82,298 L -82,291 L -81,287 L -82,287 L -88,286 L -94,286 L -94,284 L -94,283 L -93,280 L -92,269 L -94,268 L -94,267 L -95,267 L -95,266 L -95,265 L -95,264 L -95,263 L -96,263 L -96,262 L -97,262 L -97,261 L -98,261 L -98,260 L -98,261 L -99,261 L -99,260 L -99,259 L -100,259 L -100,258 L -101,257 L -102,257 L -103,256 L -104,256 L -104,255 L -104,254 L -105,254 L -105,253 L -108,250 L -110,247 L -114,243 L -121,234 L -122,229 L -125,230 L -127,229 L -127,230 L -127,229 L -128,229 L -128,228 L -129,228 L -129,227 L -130,226 L -130,225 L -130,224 L -131,224 L -131,223 L -131,222 L -130,223 L -128,223 L -123,224 L -120,224 L -116,224 L -110,224 L -109,224 L -108,224 L -108,223 L -107,223 L -107,222 L -106,222 L -105,222 L -104,221 L -103,221 L -103,220 L -102,220 L -102,219 L -101,219 L -101,218 L -101,217 L -100,217 L -100,216 L -99,216 L -99,215 L -98,215 L -98,214 L -97,213 L -102,210 L -107,207 L -105,206 L -102,205 L -101,205 L -101,204 L -100,204 L -100,203 L -99,203 L -99,202 L -98,202 L -98,201 L -97,201 L -97,200 L -96,200 L -95,200 L -95,199 L -94,199 L -94,198 L -94,197 L -94,196 L -93,196 L -93,195 L -93,194 L -93,193 L -92,193 L -90,192 L -64,192 L -85,187 L -84,187 L -84,186 L -83,186 L -83,185 L -82,185 L -82,184 L -79,183 L -76,182 L -79,178 L -79,177 L -81,176 L -79,176 L -75,176 L -72,176 L -71,176 L -70,176 L -69,176 L -69,177 L -68,177 L -67,177 L -67,178 L -66,179 L -65,179 L -64,179 L -63,180 L -62,181 L -61,180 L -60,178 L -60,177 L -59,177 L -59,176 L -57,177 L -53,178 L -51,177 L -49,177 L -48,177 L -47,177 L -46,177 L -46,176 L -46,175 L -47,175 L -47,174 L -47,173 L -47,172 L -46,172 L -45,172 L -45,171 L -44,171 L -43,171 L -43,170 L -42,170 L -42,169 L -41,169 L -41,168 L -42,168 L -42,167 L -42,166 L -42,165 L -42,164 L -42,163 L -42,162 L -42,161 L -42,160 L -42,159 L -41,158 L -42,158 L -42,157 L -42,156 L -42,155 L -43,155 L -43,154 L -43,153 L -44,152 L -44,151 L -43,151 L -43,150 L -42,150 L -41,150 L -41,149 L -40,149 L -39,149 L -39,148 L -38,148 L -38,147 L -37,147 L -36,147 L -36,146 L -35,147 L -34,148 L -34,149 L -34,150 L -35,150 L -35,151 L -35,152 L -35,153 L -34,154 L -32,155 L -32,156 L -31,156 L -31,157 L -31,158 L -30,159 L -30,160 L -29,160 L -28,160 L -27,160 L -27,161 L -26,161 L -27,162 L -26,164 L -23,166 L -21,168 " /></g>
</svg>
