<?xml version="1.0" standalone="no"?><!DOCTYPE svg PUBLIC "-//W3C//DTD SVG 1.1//EN" "http://www.w3.org/Graphics/SVG/1.1/DTD/svg11.dtd"><svg xmlns="http://www.w3.org/2000/svg" viewBox="-234 197 153 103" version = "1.1">
<g id="21302" ><path d="M -194,204 L -193,204 L -192,204 L -189,205 L -185,205 L -184,205 L -182,205 L -173,206 L -167,206 L -167,204 L -165,204 L -163,204 L -162,205 L -160,205 L -159,205 L -157,206 L -156,206 L -155,207 L -156,207 L -155,208 L -153,210 L -147,216 L -147,217 L -146,217 L -146,218 L -145,218 L -145,219 L -144,219 L -142,220 L -136,221 L -135,221 L -134,221 L -132,222 L -131,222 L -131,223 L -131,224 L -130,224 L -130,225 L -130,226 L -129,227 L -129,228 L -128,228 L -128,229 L -127,229 L -127,230 L -127,229 L -125,230 L -122,229 L -121,234 L -114,243 L -110,247 L -108,250 L -105,253 L -105,254 L -104,254 L -104,255 L -104,256 L -103,256 L -102,257 L -101,257 L -100,258 L -100,259 L -99,259 L -99,260 L -99,261 L -98,261 L -98,260 L -98,261 L -97,261 L -97,262 L -96,262 L -96,263 L -95,263 L -95,264 L -95,265 L -95,266 L -95,267 L -94,267 L -94,268 L -92,269 L -93,280 L -94,283 L -94,284 L -94,286 L -88,286 L -82,287 L -81,287 L -82,291 L -82,298 L -82,299 L -83,299 L -84,299 L -85,299 L -86,299 L -87,299 L -88,299 L -89,299 L -90,299 L -91,299 L -91,298 L -92,298 L -93,298 L -94,297 L -95,297 L -96,297 L -97,297 L -98,298 L -99,298 L -99,299 L -100,299 L -101,300 L -102,300 L -103,299 L -104,299 L -105,299 L -105,298 L -106,298 L -107,299 L -108,299 L -109,299 L -110,299 L -111,300 L -112,300 L -114,300 L -115,300 L -116,300 L -117,300 L -118,300 L -119,300 L -120,299 L -121,299 L -122,299 L -123,299 L -124,298 L -125,297 L -126,296 L -128,295 L -129,295 L -130,294 L -132,293 L -134,292 L -135,292 L -136,291 L -138,292 L -140,292 L -142,291 L -143,290 L -144,289 L -145,289 L -146,289 L -147,288 L -148,288 L -150,286 L -152,285 L -153,284 L -153,283 L -153,282 L -154,281 L -154,279 L -155,277 L -155,276 L -156,276 L -156,275 L -156,274 L -157,273 L -158,273 L -159,273 L -160,273 L -161,273 L -162,273 L -163,273 L -164,273 L -165,273 L -166,272 L -167,272 L -168,272 L -169,272 L -171,272 L -172,273 L -173,274 L -174,275 L -175,275 L -176,276 L -177,276 L -179,277 L -182,277 L -185,278 L -188,277 L -189,277 L -190,277 L -191,277 L -192,277 L -193,277 L -194,276 L -195,275 L -196,274 L -196,273 L -197,271 L -198,270 L -200,269 L -201,268 L -203,268 L -205,268 L -206,268 L -208,269 L -208,268 L -208,267 L -209,267 L -209,266 L -210,265 L -209,265 L -209,264 L -208,263 L -209,262 L -209,261 L -210,261 L -210,260 L -211,260 L -211,259 L -211,258 L -211,257 L -212,257 L -213,257 L -213,256 L -214,256 L -214,255 L -215,255 L -216,252 L -218,248 L -219,247 L -219,245 L -221,242 L -222,237 L -222,235 L -223,232 L -225,224 L -228,217 L -226,215 L -226,214 L -227,214 L -228,213 L -229,211 L -229,210 L -230,209 L -231,208 L -232,206 L -233,204 L -233,200 L -234,199 L -234,198 L -233,197 L -229,199 L -226,201 L -224,202 L -222,203 L -220,204 L -219,204 L -216,205 L -215,205 L -214,206 L -212,206 L -209,206 L -207,206 L -206,206 L -204,206 L -202,207 L -200,207 L -199,206 L -198,206 L -197,206 L -196,206 L -195,205 L -194,205 L -194,204 " /></g>
</svg>
