<?xml version="1.0" standalone="no"?><!DOCTYPE svg PUBLIC "-//W3C//DTD SVG 1.1//EN" "http://www.w3.org/Graphics/SVG/1.1/DTD/svg11.dtd"><svg xmlns="http://www.w3.org/2000/svg" viewBox="-281 60 74 91" version = "1.1">
<g id="21306" ><path d="M -207,124 L -210,126 L -211,128 L -212,129 L -215,130 L -218,131 L -222,133 L -223,134 L -223,133 L -223,134 L -223,133 L -224,133 L -225,133 L -226,133 L -227,133 L -228,133 L -228,134 L -229,134 L -230,134 L -231,134 L -232,134 L -233,134 L -234,134 L -235,134 L -236,134 L -236,135 L -236,136 L -237,136 L -237,137 L -238,138 L -239,139 L -240,139 L -241,140 L -242,141 L -243,141 L -244,142 L -244,143 L -245,143 L -246,144 L -247,144 L -248,145 L -249,145 L -250,146 L -261,151 L -263,149 L -265,144 L -266,144 L -268,142 L -268,141 L -268,140 L -269,139 L -274,136 L -276,132 L -276,131 L -276,130 L -277,130 L -277,129 L -277,128 L -277,127 L -277,126 L -277,125 L -278,125 L -278,124 L -277,124 L -278,122 L -278,121 L -278,117 L -279,112 L -279,111 L -281,108 L -281,107 L -281,105 L -275,103 L -271,100 L -269,100 L -263,96 L -261,94 L -260,94 L -259,92 L -254,88 L -249,83 L -249,82 L -244,76 L -244,75 L -240,67 L -239,66 L -234,62 L -230,60 L -225,60 L -225,61 L -225,62 L -224,63 L -224,64 L -224,65 L -224,66 L -225,67 L -224,67 L -224,68 L -224,69 L -224,70 L -224,71 L -225,71 L -225,72 L -229,76 L -227,80 L -227,81 L -223,87 L -222,86 L -221,87 L -228,92 L -229,97 L -228,97 L -228,98 L -228,99 L -228,100 L -227,100 L -227,101 L -227,102 L -226,103 L -226,104 L -226,105 L -225,105 L -225,106 L -225,107 L -224,107 L -224,108 L -223,108 L -223,109 L -223,110 L -223,111 L -223,112 L -223,113 L -223,114 L -222,114 L -222,115 L -222,116 L -221,116 L -221,117 L -220,117 L -219,117 L -219,118 L -218,118 L -218,119 L -217,119 L -217,120 L -216,120 L -216,121 L -215,121 L -214,121 L -213,122 L -212,122 L -211,122 L -210,122 L -209,122 L -209,123 L -208,123 L -207,124 " /></g>
</svg>
