<?xml version="1.0" standalone="no"?><!DOCTYPE svg PUBLIC "-//W3C//DTD SVG 1.1//EN" "http://www.w3.org/Graphics/SVG/1.1/DTD/svg11.dtd"><svg xmlns="http://www.w3.org/2000/svg" viewBox="-199 139 135 85" version = "1.1">
<g id="21305" ><path d="M -91,166 L -88,169 L -84,173 L -83,174 L -84,175 L -83,175 L -82,175 L -81,176 L -79,177 L -79,178 L -76,182 L -79,183 L -82,184 L -82,185 L -83,185 L -83,186 L -84,186 L -84,187 L -85,187 L -64,192 L -90,192 L -92,193 L -93,193 L -93,194 L -93,195 L -93,196 L -94,196 L -94,197 L -94,198 L -94,199 L -95,199 L -95,200 L -96,200 L -97,200 L -97,201 L -98,201 L -98,202 L -99,202 L -99,203 L -100,203 L -100,204 L -101,204 L -101,205 L -102,205 L -105,206 L -107,207 L -102,210 L -97,213 L -98,214 L -98,215 L -99,215 L -99,216 L -100,216 L -100,217 L -101,217 L -101,218 L -101,219 L -102,219 L -102,220 L -103,220 L -103,221 L -104,221 L -105,222 L -106,222 L -107,222 L -107,223 L -108,223 L -108,224 L -109,224 L -110,224 L -116,224 L -120,224 L -123,224 L -128,223 L -130,223 L -131,222 L -132,222 L -134,221 L -135,221 L -136,221 L -142,220 L -144,219 L -145,219 L -145,218 L -146,218 L -146,217 L -147,217 L -147,216 L -153,210 L -155,208 L -156,207 L -155,207 L -156,206 L -157,206 L -159,205 L -160,205 L -162,205 L -163,204 L -165,204 L -167,204 L -167,206 L -173,206 L -182,205 L -184,205 L -185,205 L -189,205 L -192,204 L -193,204 L -194,204 L -194,200 L -193,200 L -192,198 L -192,197 L -191,193 L -190,193 L -190,189 L -190,188 L -190,187 L -196,188 L -197,184 L -198,183 L -199,178 L -199,176 L -199,174 L -199,173 L -196,174 L -193,176 L -192,176 L -189,177 L -188,178 L -187,179 L -186,180 L -185,180 L -183,181 L -182,181 L -181,182 L -180,182 L -178,183 L -177,183 L -176,182 L -175,181 L -175,180 L -173,180 L -171,181 L -169,181 L -168,181 L -167,181 L -166,181 L -164,182 L -163,181 L -162,181 L -160,179 L -157,178 L -156,178 L -155,177 L -153,177 L -150,176 L -148,175 L -146,175 L -145,174 L -144,174 L -145,173 L -145,171 L -145,170 L -144,168 L -144,167 L -145,165 L -145,164 L -146,163 L -146,162 L -146,161 L -146,160 L -149,155 L -150,154 L -150,153 L -149,149 L -148,148 L -144,147 L -141,149 L -139,150 L -137,150 L -135,147 L -131,146 L -130,145 L -126,142 L -119,139 L -118,139 L -117,142 L -116,148 L -115,149 L -115,150 L -115,151 L -114,153 L -113,154 L -112,155 L -111,158 L -109,157 L -107,155 L -105,151 L -101,155 L -97,159 L -96,161 L -92,166 L -91,166 " /></g>
</svg>
