<?xml version="1.0" standalone="no"?><!DOCTYPE svg PUBLIC "-//W3C//DTD SVG 1.1//EN" "http://www.w3.org/Graphics/SVG/1.1/DTD/svg11.dtd"><svg xmlns="http://www.w3.org/2000/svg" viewBox="-149 -221 140 118" version = "1.1">
<g id="21401" ><path d="M -51,-219 L -48,-218 L -45,-216 L -42,-213 L -40,-210 L -39,-210 L -39,-211 L -38,-210 L -37,-210 L -36,-209 L -36,-208 L -36,-207 L -36,-206 L -35,-206 L -35,-205 L -34,-205 L -34,-204 L -34,-203 L -34,-202 L -33,-202 L -33,-201 L -32,-201 L -31,-201 L -30,-201 L -28,-202 L -26,-203 L -9,-206 L -9,-205 L -9,-204 L -9,-203 L -10,-203 L -10,-202 L -10,-201 L -10,-200 L -10,-199 L -11,-199 L -11,-198 L -11,-197 L -11,-196 L -11,-195 L -11,-194 L -11,-193 L -11,-192 L -12,-191 L -12,-190 L -12,-189 L -13,-188 L -13,-186 L -14,-184 L -14,-182 L -15,-179 L -15,-178 L -15,-177 L -16,-176 L -16,-175 L -17,-175 L -17,-174 L -17,-173 L -18,-173 L -18,-172 L -19,-171 L -20,-171 L -20,-170 L -19,-170 L -19,-169 L -20,-169 L -20,-168 L -20,-167 L -21,-167 L -22,-167 L -22,-166 L -23,-166 L -23,-165 L -24,-164 L -25,-163 L -27,-162 L -27,-161 L -27,-160 L -27,-159 L -28,-159 L -28,-158 L -29,-158 L -29,-157 L -30,-157 L -30,-156 L -31,-156 L -32,-156 L -32,-155 L -33,-155 L -33,-154 L -34,-154 L -35,-154 L -36,-154 L -36,-153 L -37,-153 L -38,-153 L -38,-154 L -38,-153 L -39,-153 L -40,-153 L -41,-153 L -41,-152 L -42,-152 L -43,-152 L -44,-152 L -44,-151 L -45,-151 L -46,-151 L -45,-151 L -46,-151 L -46,-150 L -45,-150 L -45,-149 L -44,-149 L -44,-148 L -44,-147 L -44,-146 L -44,-145 L -43,-145 L -43,-144 L -44,-143 L -44,-142 L -44,-141 L -45,-141 L -45,-140 L -46,-140 L -47,-140 L -47,-139 L -48,-139 L -49,-139 L -50,-139 L -51,-139 L -52,-138 L -53,-138 L -53,-137 L -52,-136 L -53,-136 L -52,-136 L -52,-135 L -53,-135 L -53,-134 L -54,-134 L -54,-133 L -55,-132 L -55,-131 L -56,-130 L -56,-129 L -57,-129 L -57,-128 L -58,-128 L -58,-127 L -58,-126 L -59,-125 L -60,-124 L -60,-123 L -61,-123 L -61,-122 L -62,-121 L -63,-121 L -64,-121 L -65,-121 L -67,-120 L -68,-119 L -69,-118 L -70,-118 L -70,-117 L -71,-117 L -71,-116 L -71,-115 L -72,-115 L -73,-115 L -74,-115 L -74,-114 L -75,-114 L -76,-114 L -76,-115 L -77,-115 L -78,-115 L -78,-116 L -78,-117 L -79,-117 L -79,-118 L -80,-118 L -80,-117 L -81,-117 L -81,-116 L -82,-116 L -83,-116 L -83,-115 L -84,-115 L -85,-115 L -86,-115 L -86,-114 L -87,-114 L -87,-113 L -88,-113 L -89,-113 L -89,-112 L -90,-112 L -91,-112 L -92,-112 L -92,-111 L -92,-110 L -92,-109 L -92,-108 L -93,-106 L -94,-106 L -94,-105 L -95,-105 L -96,-105 L -96,-104 L -97,-104 L -98,-103 L -98,-104 L -99,-104 L -100,-105 L -100,-106 L -101,-107 L -101,-108 L -102,-108 L -102,-109 L -102,-110 L -102,-111 L -102,-112 L -102,-113 L -102,-114 L -102,-115 L -102,-116 L -102,-117 L -103,-117 L -103,-118 L -104,-118 L -104,-119 L -104,-120 L -105,-120 L -106,-120 L -106,-121 L -107,-121 L -108,-121 L -108,-120 L -109,-120 L -110,-120 L -111,-120 L -111,-119 L -112,-119 L -113,-119 L -114,-119 L -114,-120 L -115,-120 L -116,-120 L -117,-120 L -118,-120 L -119,-120 L -119,-121 L -120,-121 L -121,-121 L -121,-120 L -122,-120 L -122,-119 L -123,-119 L -123,-118 L -123,-117 L -124,-117 L -125,-117 L -126,-117 L -126,-116 L -126,-117 L -126,-116 L -127,-116 L -128,-116 L -129,-116 L -130,-116 L -131,-116 L -131,-115 L -132,-115 L -133,-115 L -134,-115 L -135,-115 L -135,-114 L -136,-114 L -136,-113 L -137,-113 L -138,-113 L -138,-112 L -139,-112 L -139,-111 L -140,-111 L -141,-111 L -141,-110 L -142,-110 L -143,-110 L -144,-110 L -145,-110 L -145,-111 L -146,-111 L -146,-112 L -146,-113 L -145,-113 L -146,-113 L -146,-114 L -146,-115 L -146,-116 L -146,-117 L -146,-118 L -146,-119 L -146,-120 L -145,-120 L -145,-121 L -144,-122 L -144,-123 L -143,-124 L -142,-126 L -141,-133 L -143,-137 L -142,-140 L -141,-142 L -141,-145 L -142,-147 L -143,-149 L -144,-153 L -146,-154 L -146,-155 L -147,-157 L -148,-160 L -149,-160 L -149,-162 L -148,-162 L -148,-163 L -147,-164 L -146,-164 L -146,-165 L -145,-165 L -146,-165 L -146,-166 L -146,-167 L -145,-168 L -145,-169 L -145,-170 L -146,-170 L -145,-170 L -145,-171 L -146,-171 L -146,-172 L -146,-173 L -147,-173 L -147,-174 L -147,-175 L -147,-176 L -146,-176 L -147,-176 L -147,-177 L -147,-178 L -147,-177 L -146,-177 L -146,-178 L -145,-178 L -145,-179 L -144,-179 L -143,-179 L -143,-180 L -142,-179 L -142,-180 L -142,-181 L -142,-182 L -141,-182 L -140,-182 L -139,-182 L -139,-183 L -138,-183 L -138,-184 L -138,-185 L -137,-185 L -137,-186 L -137,-187 L -136,-187 L -136,-186 L -135,-186 L -135,-187 L -134,-187 L -134,-188 L -135,-188 L -135,-189 L -135,-190 L -136,-191 L -135,-191 L -135,-192 L -136,-192 L -135,-192 L -135,-193 L -135,-194 L -134,-195 L -134,-194 L -133,-193 L -133,-192 L -132,-192 L -132,-191 L -131,-191 L -130,-191 L -130,-190 L -129,-190 L -128,-191 L -128,-192 L -127,-192 L -126,-192 L -125,-192 L -125,-191 L -124,-190 L -124,-191 L -123,-191 L -122,-191 L -121,-191 L -120,-191 L -119,-191 L -118,-191 L -119,-191 L -119,-192 L -118,-192 L -117,-193 L -117,-192 L -117,-191 L -116,-191 L -116,-190 L -115,-189 L -114,-189 L -114,-193 L -114,-197 L -113,-200 L -113,-204 L -110,-205 L -107,-208 L -104,-215 L -96,-220 L -86,-221 L -74,-218 L -73,-218 L -72,-218 L -71,-218 L -70,-218 L -70,-217 L -69,-217 L -70,-217 L -69,-217 L -69,-216 L -69,-217 L -68,-217 L -67,-217 L -66,-217 L -66,-216 L -65,-216 L -65,-217 L -64,-216 L -63,-216 L -62,-216 L -61,-216 L -60,-216 L -60,-215 L -60,-214 L -59,-214 L -58,-214 L -57,-215 L -57,-214 L -56,-214 L -55,-213 L -55,-214 L -54,-214 L -54,-213 L -53,-214 L -52,-214 L -52,-215 L -52,-216 L -52,-217 L -51,-218 L -51,-219 " /></g>
</svg>
