<?xml version="1.0" standalone="no"?><!DOCTYPE svg PUBLIC "-//W3C//DTD SVG 1.1//EN" "http://www.w3.org/Graphics/SVG/1.1/DTD/svg11.dtd"><svg xmlns="http://www.w3.org/2000/svg" viewBox="-98 -218 158 132" version = "1.1">
<g id="21402" ><path d="M -9,-128 L -10,-128 L -10,-129 L -11,-129 L -11,-130 L -12,-130 L -12,-131 L -13,-131 L -13,-132 L -14,-132 L -15,-132 L -15,-131 L -16,-131 L -16,-130 L -16,-129 L -16,-128 L -15,-128 L -15,-127 L -15,-126 L -15,-125 L -15,-124 L -15,-123 L -16,-123 L -16,-122 L -16,-121 L -16,-120 L -16,-119 L -17,-119 L -17,-118 L -17,-117 L -17,-116 L -17,-115 L -18,-115 L -18,-114 L -18,-113 L -19,-113 L -19,-112 L -19,-111 L -20,-111 L -20,-110 L -20,-109 L -20,-108 L -21,-108 L -21,-107 L -21,-106 L -22,-106 L -22,-105 L -22,-104 L -23,-104 L -23,-103 L -23,-102 L -24,-102 L -24,-101 L -23,-101 L -24,-101 L -24,-100 L -24,-99 L -25,-99 L -25,-98 L -26,-98 L -26,-97 L -26,-96 L -27,-96 L -27,-95 L -27,-94 L -27,-93 L -28,-93 L -29,-93 L -29,-92 L -30,-92 L -30,-91 L -31,-91 L -31,-90 L -32,-90 L -32,-89 L -33,-89 L -33,-88 L -34,-88 L -35,-88 L -36,-88 L -37,-88 L -38,-88 L -38,-87 L -39,-87 L -39,-86 L -40,-86 L -41,-86 L -42,-86 L -43,-86 L -44,-86 L -44,-87 L -45,-87 L -45,-86 L -46,-87 L -47,-87 L -48,-87 L -49,-87 L -49,-88 L -50,-88 L -51,-88 L -51,-89 L -52,-89 L -52,-90 L -53,-90 L -54,-90 L -55,-90 L -56,-90 L -57,-90 L -58,-90 L -59,-89 L -60,-89 L -61,-89 L -62,-89 L -62,-88 L -63,-88 L -64,-88 L -65,-88 L -65,-87 L -66,-87 L -66,-88 L -67,-88 L -68,-88 L -68,-89 L -69,-89 L -70,-89 L -70,-90 L -71,-90 L -72,-90 L -72,-91 L -73,-91 L -73,-92 L -74,-92 L -74,-93 L -74,-94 L -74,-95 L -75,-95 L -75,-96 L -75,-97 L -76,-97 L -76,-98 L -75,-99 L -76,-99 L -76,-100 L -77,-100 L -78,-100 L -79,-100 L -79,-101 L -80,-102 L -81,-102 L -82,-102 L -83,-102 L -83,-101 L -85,-100 L -86,-100 L -86,-99 L -87,-99 L -88,-99 L -89,-99 L -90,-99 L -91,-99 L -92,-99 L -93,-99 L -94,-99 L -94,-100 L -95,-100 L -95,-101 L -96,-101 L -96,-102 L -97,-102 L -97,-103 L -98,-103 L -97,-104 L -96,-104 L -96,-105 L -95,-105 L -94,-105 L -94,-106 L -93,-106 L -92,-108 L -92,-109 L -92,-110 L -92,-111 L -92,-112 L -91,-112 L -90,-112 L -89,-112 L -89,-113 L -88,-113 L -87,-113 L -87,-114 L -86,-114 L -86,-115 L -85,-115 L -84,-115 L -83,-115 L -83,-116 L -82,-116 L -81,-116 L -81,-117 L -80,-117 L -80,-118 L -79,-118 L -79,-117 L -78,-117 L -78,-116 L -78,-115 L -77,-115 L -76,-115 L -76,-114 L -75,-114 L -74,-114 L -74,-115 L -73,-115 L -72,-115 L -71,-115 L -71,-116 L -71,-117 L -70,-117 L -70,-118 L -69,-118 L -68,-119 L -67,-120 L -65,-121 L -64,-121 L -63,-121 L -62,-121 L -61,-122 L -61,-123 L -60,-123 L -60,-124 L -59,-125 L -58,-126 L -58,-127 L -58,-128 L -57,-128 L -57,-129 L -56,-129 L -56,-130 L -55,-131 L -55,-132 L -54,-133 L -54,-134 L -53,-134 L -53,-135 L -52,-135 L -52,-136 L -53,-136 L -52,-136 L -53,-137 L -53,-138 L -52,-138 L -51,-139 L -50,-139 L -49,-139 L -48,-139 L -47,-139 L -47,-140 L -46,-140 L -45,-140 L -45,-141 L -44,-141 L -44,-142 L -44,-143 L -43,-144 L -43,-145 L -44,-145 L -44,-146 L -44,-147 L -44,-148 L -44,-149 L -45,-149 L -45,-150 L -46,-150 L -46,-151 L -45,-151 L -46,-151 L -45,-151 L -44,-151 L -44,-152 L -43,-152 L -42,-152 L -41,-152 L -41,-153 L -40,-153 L -39,-153 L -38,-153 L -38,-154 L -38,-153 L -37,-153 L -36,-153 L -36,-154 L -35,-154 L -34,-154 L -33,-154 L -33,-155 L -32,-155 L -32,-156 L -31,-156 L -30,-156 L -30,-157 L -29,-157 L -29,-158 L -28,-158 L -28,-159 L -27,-159 L -27,-160 L -27,-161 L -27,-162 L -25,-163 L -24,-164 L -23,-165 L -23,-166 L -22,-166 L -22,-167 L -21,-167 L -20,-167 L -20,-168 L -20,-169 L -19,-169 L -19,-170 L -20,-170 L -20,-171 L -19,-171 L -18,-172 L -18,-173 L -17,-173 L -17,-174 L -17,-175 L -16,-175 L -16,-176 L -15,-177 L -15,-178 L -15,-179 L -14,-182 L -14,-184 L -13,-186 L -13,-188 L -12,-189 L -12,-190 L -12,-191 L -11,-192 L -11,-193 L -11,-194 L -11,-195 L -11,-196 L -11,-197 L -11,-198 L -11,-199 L -10,-199 L -10,-200 L -10,-201 L -10,-202 L -10,-203 L -9,-203 L -9,-204 L -9,-205 L -9,-206 L 60,-218 L 51,-194 L 42,-185 L 27,-173 L 9,-153 L 2,-146 L 0,-142 L 0,-141 L -1,-141 L -1,-140 L -2,-140 L -2,-139 L -3,-139 L -3,-138 L -4,-138 L -5,-138 L -5,-137 L -6,-137 L -5,-136 L -5,-135 L -5,-134 L -5,-133 L -6,-133 L -6,-132 L -7,-132 L -8,-132 L -8,-131 L -8,-130 L -9,-130 L -9,-129 L -9,-128 " /></g>
</svg>
