<?xml version="1.0" standalone="no"?><!DOCTYPE svg PUBLIC "-//W3C//DTD SVG 1.1//EN" "http://www.w3.org/Graphics/SVG/1.1/DTD/svg11.dtd"><svg xmlns="http://www.w3.org/2000/svg" viewBox="-519 -1614 721 796" version = "1.1">
<g id="21501" ><path d="M -159,-1614 L 174,-1406 L 185,-1399 L 186,-1398 L 186,-1397 L 188,-1395 L 189,-1393 L 192,-1392 L 195,-1390 L 197,-1388 L 200,-1387 L 201,-1386 L 202,-1385 L 202,-1384 L 202,-1383 L 201,-1383 L 200,-1383 L 199,-1383 L 197,-1382 L 196,-1381 L 195,-1380 L 194,-1379 L 193,-1377 L 192,-1376 L 191,-1375 L 189,-1375 L 186,-1374 L 185,-1373 L 183,-1372 L 183,-1370 L 183,-1368 L 182,-1366 L 182,-1365 L 182,-1364 L 183,-1364 L 186,-1364 L 189,-1363 L 191,-1363 L 192,-1362 L 193,-1362 L 195,-1359 L 196,-1357 L 198,-1356 L 199,-1355 L 199,-1354 L 199,-1352 L 198,-1351 L 197,-1351 L 196,-1351 L 194,-1351 L 194,-1352 L 193,-1354 L 192,-1354 L 191,-1354 L 190,-1354 L 190,-1352 L 190,-1350 L 189,-1349 L 189,-1347 L 188,-1346 L 187,-1345 L 185,-1345 L 184,-1345 L 183,-1344 L 183,-1343 L 183,-1342 L 183,-1341 L 185,-1340 L 186,-1340 L 189,-1340 L 191,-1339 L 192,-1338 L 193,-1337 L 194,-1335 L 195,-1334 L 195,-1333 L 194,-1332 L 193,-1332 L 191,-1332 L 190,-1333 L 188,-1333 L 187,-1333 L 185,-1333 L 185,-1332 L 184,-1332 L 184,-1331 L 184,-1330 L 185,-1328 L 187,-1326 L 189,-1324 L 190,-1322 L 190,-1320 L 190,-1319 L 189,-1318 L 188,-1317 L 187,-1317 L 186,-1317 L 186,-1318 L 184,-1319 L 183,-1319 L 182,-1319 L 181,-1319 L 180,-1318 L 180,-1317 L 181,-1315 L 182,-1314 L 184,-1312 L 185,-1311 L 185,-1309 L 185,-1308 L 185,-1307 L 185,-1306 L 185,-1305 L 186,-1304 L 187,-1303 L 189,-1302 L 190,-1301 L 191,-1300 L 192,-1298 L 192,-1297 L 192,-1296 L 191,-1295 L 190,-1294 L 187,-1296 L 184,-1298 L 183,-1299 L 182,-1300 L 181,-1301 L 180,-1301 L 179,-1300 L 179,-1299 L 179,-1298 L 179,-1296 L 180,-1294 L 180,-1292 L 181,-1291 L 182,-1290 L 183,-1289 L 185,-1289 L 187,-1289 L 189,-1288 L 191,-1288 L 192,-1288 L 193,-1287 L 193,-1286 L 193,-1285 L 193,-1284 L 192,-1282 L 192,-1281 L 191,-1281 L 191,-1280 L 190,-1281 L 189,-1281 L 189,-1282 L 188,-1283 L 187,-1283 L 186,-1283 L 185,-1283 L 184,-1282 L 183,-1282 L 183,-1281 L 183,-1279 L 183,-1278 L 182,-1278 L 181,-1278 L 180,-1278 L 179,-1279 L 178,-1278 L 177,-1277 L 177,-1276 L 176,-1275 L 176,-1274 L 176,-1273 L 176,-1271 L 177,-1269 L 177,-1268 L 176,-1267 L 176,-1266 L 176,-1265 L 175,-1265 L 174,-1265 L 173,-1265 L 172,-1266 L 170,-1267 L 169,-1267 L 168,-1267 L 166,-1267 L 165,-1266 L 164,-1265 L 163,-1264 L 162,-1263 L 162,-1261 L 162,-1260 L 163,-1259 L 164,-1258 L 166,-1258 L 169,-1258 L 171,-1258 L 172,-1258 L 173,-1258 L 174,-1257 L 175,-1257 L 175,-1256 L 175,-1255 L 174,-1255 L 173,-1254 L 172,-1253 L 171,-1252 L 170,-1252 L 169,-1251 L 167,-1251 L 166,-1251 L 165,-1252 L 164,-1252 L 163,-1251 L 162,-1251 L 161,-1249 L 160,-1247 L 160,-1246 L 159,-1245 L 159,-1244 L 159,-1243 L 159,-1242 L 159,-1241 L 160,-1240 L 161,-1239 L 161,-1238 L 162,-1238 L 161,-1237 L 161,-1236 L 160,-1235 L 158,-1235 L 157,-1235 L 155,-1234 L 154,-1234 L 153,-1233 L 152,-1232 L 151,-1231 L 151,-1230 L 151,-1229 L 151,-1228 L 152,-1227 L 155,-1226 L 157,-1225 L 159,-1224 L 160,-1224 L 160,-1222 L 160,-1220 L 160,-1217 L 160,-1214 L 160,-1213 L 159,-1211 L 158,-1210 L 157,-1210 L 155,-1211 L 154,-1212 L 154,-1213 L 155,-1215 L 155,-1217 L 154,-1218 L 152,-1218 L 150,-1217 L 147,-1215 L 145,-1213 L 144,-1213 L 143,-1213 L 142,-1213 L 141,-1214 L 141,-1215 L 142,-1216 L 143,-1218 L 143,-1219 L 142,-1219 L 139,-1219 L 137,-1218 L 137,-1216 L 137,-1214 L 139,-1213 L 140,-1210 L 141,-1209 L 140,-1206 L 139,-1205 L 137,-1205 L 135,-1206 L 135,-1208 L 136,-1210 L 137,-1211 L 136,-1212 L 134,-1212 L 132,-1212 L 129,-1212 L 127,-1212 L 125,-1210 L 125,-1206 L 125,-1203 L 126,-1200 L 127,-1199 L 129,-1198 L 129,-1197 L 129,-1196 L 128,-1195 L 125,-1194 L 123,-1194 L 121,-1193 L 120,-1192 L 120,-1191 L 119,-1189 L 119,-1187 L 119,-1186 L 118,-1186 L 117,-1186 L 115,-1187 L 114,-1187 L 113,-1187 L 112,-1187 L 111,-1186 L 112,-1185 L 115,-1184 L 117,-1183 L 118,-1182 L 120,-1176 L 121,-1173 L 121,-1172 L 119,-1172 L 115,-1172 L 112,-1173 L 109,-1174 L 105,-1173 L 100,-1172 L 99,-1171 L 98,-1171 L 98,-1169 L 99,-1168 L 100,-1168 L 101,-1167 L 104,-1166 L 107,-1165 L 108,-1165 L 108,-1164 L 108,-1162 L 106,-1161 L 103,-1161 L 101,-1162 L 97,-1162 L 94,-1163 L 92,-1162 L 91,-1160 L 89,-1159 L 87,-1158 L 85,-1158 L 84,-1155 L 84,-1154 L 85,-1151 L 88,-1149 L 89,-1147 L 91,-1143 L 91,-1142 L 90,-1141 L 89,-1141 L 88,-1141 L 86,-1141 L 85,-1142 L 84,-1143 L 83,-1144 L 83,-1146 L 82,-1147 L 81,-1147 L 79,-1147 L 77,-1146 L 76,-1145 L 75,-1144 L 75,-1143 L 76,-1142 L 77,-1141 L 78,-1141 L 81,-1140 L 83,-1140 L 85,-1140 L 86,-1139 L 86,-1137 L 86,-1132 L 85,-1130 L 83,-1128 L 81,-1126 L 79,-1126 L 78,-1126 L 78,-1127 L 78,-1129 L 78,-1131 L 78,-1135 L 78,-1136 L 77,-1137 L 76,-1137 L 73,-1135 L 73,-1132 L 73,-1131 L 74,-1130 L 75,-1129 L 75,-1128 L 74,-1127 L 74,-1126 L 71,-1124 L 68,-1123 L 65,-1118 L 61,-1116 L 57,-1114 L 56,-1112 L 54,-1111 L 54,-1110 L 55,-1109 L 56,-1109 L 57,-1109 L 60,-1109 L 63,-1109 L 65,-1108 L 65,-1106 L 64,-1105 L 62,-1104 L 60,-1103 L 53,-1101 L 50,-1099 L 47,-1098 L 45,-1097 L 43,-1095 L 43,-1093 L 44,-1091 L 45,-1090 L 46,-1090 L 47,-1089 L 48,-1088 L 48,-1087 L 47,-1086 L 45,-1086 L 43,-1085 L 41,-1085 L 41,-1084 L 41,-1082 L 41,-1081 L 43,-1080 L 45,-1080 L 48,-1079 L 50,-1079 L 53,-1079 L 54,-1079 L 55,-1079 L 55,-1078 L 55,-1077 L 55,-1076 L 54,-1075 L 53,-1075 L 52,-1075 L 48,-1075 L 46,-1075 L 44,-1075 L 43,-1073 L 43,-1072 L 44,-1069 L 44,-1068 L 45,-1066 L 46,-1065 L 47,-1065 L 48,-1065 L 49,-1065 L 50,-1066 L 51,-1068 L 53,-1071 L 55,-1071 L 56,-1071 L 57,-1071 L 58,-1070 L 58,-1069 L 57,-1068 L 56,-1066 L 55,-1065 L 54,-1063 L 52,-1063 L 50,-1062 L 49,-1062 L 48,-1060 L 48,-1059 L 49,-1058 L 49,-1057 L 49,-1056 L 48,-1055 L 47,-1054 L 46,-1054 L 44,-1054 L 43,-1055 L 42,-1054 L 41,-1054 L 40,-1053 L 39,-1051 L 39,-1050 L 39,-1049 L 40,-1048 L 41,-1048 L 43,-1049 L 44,-1049 L 45,-1049 L 46,-1047 L 47,-1046 L 47,-1044 L 48,-1042 L 47,-1040 L 47,-1039 L 47,-1038 L 48,-1037 L 49,-1037 L 50,-1037 L 51,-1037 L 52,-1038 L 53,-1038 L 54,-1038 L 55,-1038 L 55,-1037 L 56,-1037 L 56,-1036 L 56,-1035 L 55,-1034 L 53,-1033 L 53,-1032 L 52,-1031 L 52,-1030 L 52,-1028 L 53,-1027 L 53,-1026 L 53,-1025 L 52,-1024 L 51,-1023 L 50,-1023 L 49,-1023 L 48,-1024 L 48,-1025 L 46,-1026 L 45,-1026 L 44,-1026 L 44,-1025 L 44,-1024 L 44,-1023 L 45,-1022 L 47,-1021 L 48,-1019 L 50,-1016 L 51,-1015 L 52,-1015 L 52,-1014 L 52,-1013 L 51,-1013 L 50,-1013 L 49,-1013 L 45,-1013 L 42,-1013 L 40,-1012 L 36,-1011 L 34,-1009 L 32,-1008 L 29,-1008 L 28,-1007 L 28,-1006 L 27,-1005 L 27,-1004 L 27,-1003 L 27,-1000 L 28,-999 L 30,-997 L 31,-996 L 32,-994 L 34,-993 L 34,-992 L 34,-991 L 33,-991 L 31,-991 L 30,-991 L 29,-990 L 29,-988 L 30,-986 L 30,-985 L 31,-983 L 31,-982 L 31,-981 L 30,-981 L 28,-981 L 26,-982 L 25,-983 L 24,-983 L 23,-984 L 23,-986 L 23,-988 L 21,-989 L 20,-989 L 20,-988 L 19,-987 L 19,-986 L 20,-984 L 21,-983 L 23,-981 L 23,-980 L 21,-978 L 19,-978 L 15,-976 L 14,-975 L 14,-972 L 12,-971 L 10,-970 L 7,-969 L 5,-969 L 3,-969 L 3,-968 L 2,-968 L 0,-966 L -1,-965 L -1,-963 L 0,-962 L 1,-961 L 3,-961 L 5,-962 L 7,-962 L 8,-962 L 10,-963 L 12,-963 L 13,-961 L 12,-959 L 10,-958 L 9,-957 L 6,-955 L 4,-954 L 3,-953 L 2,-952 L 1,-950 L 1,-949 L 3,-948 L 4,-948 L 6,-948 L 8,-947 L 9,-945 L 10,-943 L 11,-942 L 13,-942 L 15,-944 L 16,-945 L 18,-946 L 19,-946 L 20,-944 L 20,-943 L 18,-941 L 17,-940 L 15,-938 L 15,-936 L 14,-935 L 14,-932 L 13,-931 L 10,-930 L 7,-929 L 5,-927 L 4,-926 L 3,-924 L 2,-922 L 3,-921 L 5,-922 L 7,-923 L 8,-923 L 10,-923 L 11,-922 L 12,-921 L 11,-919 L 10,-918 L 8,-916 L 6,-915 L 2,-911 L 0,-910 L -2,-908 L -3,-907 L -3,-906 L -3,-904 L -5,-902 L -11,-901 L -15,-901 L -21,-898 L -29,-892 L -29,-891 L -35,-885 L -38,-884 L -40,-884 L -43,-885 L -45,-887 L -53,-890 L -57,-892 L -58,-892 L -59,-893 L -59,-892 L -59,-893 L -60,-893 L -60,-894 L -61,-894 L -62,-894 L -62,-893 L -63,-893 L -63,-894 L -67,-895 L -72,-898 L -77,-899 L -79,-900 L -83,-901 L -89,-906 L -92,-908 L -92,-909 L -93,-909 L -93,-908 L -94,-908 L -94,-909 L -94,-908 L -95,-908 L -95,-909 L -96,-909 L -97,-909 L -97,-908 L -97,-909 L -98,-909 L -98,-908 L -99,-907 L -99,-906 L -99,-907 L -100,-907 L -100,-906 L -101,-907 L -101,-906 L -101,-905 L -102,-905 L -102,-906 L -103,-905 L -103,-906 L -103,-905 L -104,-905 L -104,-904 L -104,-903 L -104,-902 L -105,-902 L -104,-902 L -104,-901 L -105,-901 L -105,-900 L -105,-901 L -106,-901 L -105,-901 L -105,-900 L -106,-900 L -107,-900 L -106,-899 L -107,-899 L -108,-899 L -108,-898 L -109,-899 L -109,-898 L -110,-898 L -111,-898 L -112,-898 L -112,-897 L -113,-897 L -112,-897 L -112,-896 L -113,-896 L -113,-895 L -113,-894 L -114,-894 L -114,-895 L -115,-895 L -115,-894 L -116,-894 L -115,-894 L -116,-894 L -116,-893 L -117,-893 L -116,-893 L -117,-893 L -117,-892 L -118,-892 L -119,-892 L -119,-891 L -120,-890 L -120,-889 L -120,-888 L -120,-887 L -121,-887 L -121,-886 L -121,-885 L -122,-885 L -123,-885 L -123,-884 L -124,-884 L -125,-883 L -125,-882 L -126,-882 L -125,-881 L -126,-881 L -127,-881 L -127,-880 L -127,-879 L -128,-879 L -127,-879 L -128,-878 L -128,-877 L -129,-877 L -130,-877 L -130,-876 L -131,-876 L -132,-876 L -132,-877 L -133,-876 L -133,-877 L -134,-877 L -134,-876 L -134,-877 L -135,-876 L -136,-876 L -136,-875 L -137,-875 L -138,-875 L -138,-874 L -139,-874 L -139,-873 L -140,-873 L -141,-873 L -142,-873 L -142,-872 L -142,-873 L -142,-872 L -143,-873 L -143,-872 L -144,-872 L -145,-872 L -145,-871 L -146,-871 L -146,-870 L -147,-870 L -148,-869 L -149,-868 L -148,-868 L -149,-868 L -149,-867 L -149,-866 L -150,-866 L -151,-866 L -151,-865 L -151,-864 L -152,-864 L -152,-863 L -153,-864 L -153,-863 L -153,-864 L -154,-864 L -155,-864 L -155,-863 L -156,-863 L -157,-863 L -158,-863 L -159,-863 L -162,-862 L -163,-861 L -163,-860 L -164,-860 L -164,-859 L -165,-859 L -165,-858 L -166,-858 L -167,-858 L -167,-857 L -168,-857 L -168,-858 L -168,-857 L -169,-857 L -169,-858 L -169,-857 L -170,-857 L -171,-858 L -171,-857 L -171,-856 L -172,-856 L -173,-856 L -174,-856 L -175,-856 L -176,-856 L -177,-856 L -177,-855 L -178,-855 L -177,-855 L -177,-854 L -176,-855 L -176,-854 L -176,-853 L -177,-853 L -177,-852 L -178,-852 L -178,-851 L -179,-851 L -179,-850 L -179,-851 L -180,-850 L -179,-850 L -179,-849 L -178,-849 L -178,-848 L -179,-847 L -180,-847 L -180,-848 L -181,-849 L -181,-848 L -181,-847 L -180,-847 L -179,-847 L -179,-846 L -180,-846 L -181,-846 L -181,-845 L -182,-845 L -182,-844 L -182,-843 L -181,-843 L -181,-842 L -181,-841 L -181,-840 L -182,-840 L -182,-839 L -181,-839 L -180,-839 L -180,-838 L -180,-837 L -181,-837 L -182,-837 L -183,-837 L -183,-838 L -183,-837 L -183,-836 L -183,-835 L -182,-835 L -182,-834 L -183,-834 L -184,-834 L -184,-833 L -184,-832 L -185,-832 L -186,-832 L -186,-833 L -187,-833 L -187,-832 L -187,-831 L -187,-830 L -186,-830 L -186,-829 L -185,-829 L -186,-828 L -186,-827 L -185,-826 L -184,-826 L -184,-827 L -183,-827 L -183,-826 L -183,-825 L -184,-825 L -185,-825 L -186,-825 L -185,-824 L -185,-823 L -185,-822 L -184,-822 L -184,-821 L -184,-820 L -185,-820 L -185,-819 L -185,-818 L -185,-819 L -186,-820 L -186,-821 L -187,-821 L -187,-822 L -187,-823 L -186,-823 L -186,-824 L -187,-825 L -187,-826 L -188,-826 L -189,-827 L -190,-827 L -191,-827 L -192,-827 L -194,-827 L -195,-827 L -195,-826 L -194,-826 L -194,-825 L -195,-825 L -196,-826 L -197,-826 L -198,-827 L -198,-828 L -197,-828 L -196,-828 L -196,-829 L -196,-830 L -195,-830 L -194,-830 L -193,-830 L -192,-830 L -192,-831 L -192,-832 L -192,-833 L -193,-834 L -194,-834 L -195,-834 L -196,-833 L -197,-832 L -198,-832 L -199,-832 L -200,-832 L -201,-832 L -201,-831 L -202,-831 L -203,-831 L -204,-832 L -204,-833 L -205,-834 L -206,-833 L -207,-833 L -208,-833 L -209,-833 L -209,-834 L -208,-834 L -208,-835 L -207,-836 L -206,-837 L -205,-838 L -206,-839 L -206,-840 L -207,-841 L -208,-841 L -208,-840 L -209,-839 L -209,-838 L -210,-837 L -211,-837 L -212,-836 L -212,-835 L -213,-835 L -213,-834 L -213,-833 L -214,-833 L -214,-834 L -215,-834 L -216,-835 L -217,-836 L -218,-836 L -219,-837 L -220,-837 L -220,-838 L -220,-839 L -221,-840 L -222,-840 L -223,-841 L -224,-842 L -224,-843 L -225,-844 L -225,-845 L -226,-845 L -227,-846 L -228,-847 L -229,-847 L -229,-846 L -229,-847 L -230,-847 L -230,-848 L -231,-848 L -231,-849 L -231,-850 L -232,-850 L -232,-851 L -233,-851 L -234,-851 L -234,-852 L -235,-852 L -237,-853 L -238,-854 L -239,-855 L -240,-856 L -241,-856 L -242,-856 L -243,-855 L -244,-855 L -244,-856 L -244,-857 L -244,-858 L -245,-858 L -245,-857 L -246,-857 L -247,-857 L -248,-858 L -249,-858 L -250,-858 L -251,-858 L -252,-859 L -253,-859 L -254,-859 L -254,-858 L -254,-857 L -255,-857 L -256,-857 L -256,-858 L -256,-859 L -257,-860 L -258,-859 L -259,-859 L -259,-860 L -260,-859 L -261,-858 L -260,-858 L -261,-858 L -261,-857 L -261,-858 L -262,-858 L -262,-859 L -262,-860 L -263,-860 L -264,-861 L -265,-861 L -265,-860 L -265,-859 L -266,-859 L -266,-858 L -266,-857 L -266,-856 L -267,-856 L -268,-856 L -269,-856 L -269,-855 L -270,-855 L -271,-854 L -272,-854 L -272,-855 L -273,-855 L -273,-856 L -274,-856 L -274,-855 L -274,-854 L -275,-853 L -276,-853 L -277,-853 L -278,-853 L -279,-853 L -279,-852 L -280,-852 L -280,-851 L -281,-851 L -281,-850 L -282,-850 L -282,-849 L -283,-849 L -283,-848 L -283,-847 L -284,-847 L -284,-846 L -284,-845 L -285,-844 L -286,-844 L -287,-844 L -287,-845 L -288,-845 L -288,-844 L -289,-844 L -289,-843 L -290,-843 L -290,-842 L -291,-842 L -292,-842 L -293,-841 L -293,-840 L -293,-839 L -294,-839 L -294,-840 L -295,-840 L -296,-840 L -296,-839 L -295,-838 L -296,-838 L -297,-838 L -297,-837 L -297,-836 L -297,-835 L -298,-835 L -298,-834 L -299,-834 L -299,-833 L -300,-833 L -300,-832 L -299,-832 L -300,-831 L -301,-831 L -462,-901 L -484,-909 L -484,-910 L -485,-910 L -486,-910 L -487,-910 L -487,-911 L -488,-912 L -488,-913 L -489,-915 L -490,-915 L -490,-916 L -490,-917 L -490,-918 L -489,-919 L -490,-920 L -490,-921 L -491,-922 L -491,-923 L -491,-924 L -491,-925 L -490,-925 L -490,-926 L -490,-927 L -490,-928 L -489,-928 L -489,-929 L -489,-930 L -489,-931 L -489,-932 L -489,-933 L -489,-934 L -490,-935 L -491,-939 L -494,-944 L -493,-951 L -492,-955 L -487,-967 L -488,-971 L -488,-973 L -489,-974 L -490,-974 L -491,-975 L -492,-975 L -493,-975 L -493,-976 L -493,-977 L -494,-977 L -494,-978 L -495,-978 L -496,-978 L -496,-979 L -497,-979 L -498,-979 L -498,-980 L -499,-980 L -499,-981 L -499,-980 L -500,-980 L -501,-980 L -501,-981 L -501,-980 L -502,-980 L -503,-980 L -503,-981 L -503,-980 L -504,-980 L -505,-980 L -505,-981 L -506,-981 L -506,-982 L -506,-983 L -507,-983 L -508,-983 L -508,-984 L -507,-984 L -507,-985 L -507,-986 L -508,-987 L -508,-988 L -509,-988 L -509,-987 L -510,-987 L -510,-988 L -511,-989 L -512,-989 L -512,-990 L -513,-990 L -513,-991 L -513,-992 L -514,-992 L -515,-992 L -515,-993 L -514,-993 L -514,-994 L -514,-995 L -515,-995 L -516,-995 L -516,-996 L -517,-996 L -517,-997 L -518,-997 L -519,-998 L -518,-998 L -518,-999 L -518,-1000 L -518,-1001 L -519,-1002 L -518,-1002 L -517,-1002 L -517,-1003 L -517,-1004 L -517,-1005 L -517,-1006 L -517,-1007 L -516,-1007 L -516,-1008 L -515,-1008 L -514,-1008 L -514,-1009 L -513,-1009 L -513,-1010 L -512,-1010 L -511,-1011 L -511,-1012 L -510,-1012 L -509,-1012 L -509,-1013 L -508,-1013 L -507,-1013 L -507,-1012 L -508,-1012 L -508,-1011 L -508,-1010 L -508,-1009 L -507,-1009 L -507,-1008 L -506,-1008 L -506,-1009 L -505,-1009 L -505,-1010 L -504,-1010 L -504,-1009 L -504,-1008 L -503,-1008 L -503,-1007 L -502,-1007 L -502,-1008 L -502,-1009 L -501,-1009 L -501,-1008 L -500,-1008 L -500,-1009 L -499,-1009 L -498,-1009 L -497,-1009 L -496,-1009 L -495,-1009 L -494,-1009 L -494,-1010 L -494,-1011 L -494,-1012 L -495,-1012 L -495,-1013 L -494,-1014 L -493,-1014 L -493,-1015 L -494,-1016 L -495,-1016 L -495,-1015 L -495,-1016 L -496,-1016 L -496,-1017 L -497,-1017 L -497,-1018 L -498,-1018 L -498,-1019 L -497,-1019 L -496,-1019 L -495,-1019 L -496,-1020 L -496,-1021 L -495,-1021 L -494,-1020 L -493,-1020 L -493,-1021 L -492,-1022 L -492,-1023 L -491,-1023 L -490,-1023 L -489,-1024 L -489,-1023 L -489,-1024 L -488,-1024 L -488,-1023 L -487,-1023 L -487,-1024 L -487,-1025 L -488,-1025 L -488,-1026 L -487,-1026 L -486,-1026 L -485,-1025 L -484,-1025 L -483,-1025 L -483,-1026 L -482,-1025 L -481,-1025 L -480,-1025 L -480,-1026 L -480,-1027 L -481,-1027 L -482,-1029 L -482,-1030 L -482,-1031 L -481,-1031 L -481,-1032 L -480,-1032 L -480,-1033 L -480,-1034 L -481,-1035 L -480,-1036 L -479,-1036 L -478,-1036 L -478,-1037 L -479,-1037 L -479,-1038 L -478,-1039 L -478,-1040 L -478,-1041 L -478,-1042 L -479,-1042 L -480,-1042 L -480,-1043 L -480,-1044 L -479,-1044 L -479,-1045 L -478,-1045 L -478,-1046 L -477,-1046 L -478,-1046 L -478,-1047 L -479,-1047 L -479,-1048 L -480,-1048 L -480,-1049 L -479,-1049 L -479,-1048 L -478,-1048 L -477,-1049 L -478,-1049 L -478,-1050 L -478,-1051 L -477,-1051 L -476,-1051 L -476,-1052 L -476,-1053 L -475,-1053 L -475,-1054 L -475,-1053 L -474,-1053 L -474,-1052 L -475,-1052 L -475,-1051 L -475,-1050 L -474,-1050 L -473,-1050 L -473,-1051 L -474,-1052 L -474,-1053 L -473,-1053 L -473,-1054 L -472,-1054 L -471,-1054 L -471,-1055 L -470,-1055 L -469,-1055 L -469,-1054 L -468,-1053 L -468,-1054 L -468,-1055 L -467,-1056 L -468,-1056 L -468,-1057 L -469,-1057 L -470,-1056 L -470,-1057 L -470,-1058 L -469,-1058 L -468,-1058 L -468,-1059 L -467,-1059 L -466,-1059 L -466,-1060 L -467,-1060 L -468,-1060 L -468,-1061 L -467,-1061 L -466,-1061 L -465,-1061 L -465,-1062 L -466,-1062 L -466,-1063 L -467,-1063 L -467,-1064 L -466,-1064 L -465,-1064 L -465,-1065 L -466,-1065 L -467,-1065 L -467,-1064 L -468,-1064 L -468,-1065 L -468,-1066 L -467,-1066 L -466,-1067 L -466,-1068 L -465,-1068 L -464,-1068 L -464,-1069 L -464,-1070 L -465,-1070 L -466,-1070 L -466,-1071 L -465,-1071 L -464,-1071 L -464,-1070 L -463,-1070 L -463,-1071 L -463,-1072 L -464,-1072 L -463,-1073 L -463,-1074 L -462,-1073 L -462,-1072 L -461,-1072 L -461,-1073 L -461,-1074 L -462,-1074 L -462,-1075 L -462,-1076 L -463,-1077 L -464,-1078 L -465,-1078 L -465,-1079 L -464,-1079 L -464,-1080 L -464,-1081 L -463,-1081 L -463,-1080 L -463,-1079 L -463,-1078 L -462,-1078 L -461,-1078 L -461,-1079 L -461,-1080 L -462,-1080 L -462,-1081 L -463,-1081 L -463,-1082 L -462,-1082 L -462,-1083 L -461,-1083 L -460,-1083 L -460,-1084 L -460,-1085 L -459,-1085 L -459,-1086 L -460,-1086 L -461,-1086 L -461,-1087 L -461,-1088 L -461,-1089 L -462,-1090 L -461,-1090 L -461,-1091 L -460,-1090 L -460,-1091 L -459,-1092 L -459,-1091 L -458,-1091 L -458,-1092 L -458,-1093 L -459,-1093 L -459,-1092 L -460,-1092 L -461,-1093 L -461,-1094 L -460,-1094 L -459,-1094 L -458,-1094 L -457,-1095 L -457,-1096 L -457,-1097 L -457,-1098 L -458,-1098 L -458,-1099 L -458,-1100 L -458,-1099 L -459,-1099 L -459,-1098 L -460,-1098 L -460,-1099 L -460,-1100 L -459,-1100 L -458,-1100 L -457,-1100 L -456,-1100 L -457,-1100 L -457,-1101 L -457,-1102 L -458,-1102 L -458,-1103 L -459,-1103 L -458,-1104 L -457,-1104 L -456,-1104 L -456,-1103 L -455,-1103 L -455,-1104 L -456,-1105 L -456,-1106 L -455,-1106 L -454,-1106 L -453,-1106 L -453,-1107 L -454,-1107 L -453,-1108 L -452,-1108 L -452,-1109 L -453,-1109 L -454,-1108 L -455,-1109 L -454,-1109 L -454,-1110 L -453,-1110 L -453,-1109 L -452,-1109 L -451,-1110 L -452,-1111 L -453,-1111 L -454,-1111 L -454,-1112 L -455,-1112 L -455,-1113 L -456,-1113 L -455,-1113 L -455,-1114 L -454,-1114 L -454,-1115 L -453,-1115 L -453,-1116 L -452,-1116 L -452,-1117 L -453,-1117 L -454,-1117 L -455,-1116 L -456,-1116 L -456,-1117 L -455,-1118 L -454,-1118 L -454,-1119 L -453,-1119 L -453,-1120 L -453,-1121 L -452,-1121 L -451,-1121 L -451,-1120 L -450,-1120 L -450,-1121 L -449,-1121 L -450,-1122 L -450,-1123 L -449,-1123 L -449,-1124 L -449,-1125 L -450,-1125 L -450,-1126 L -449,-1126 L -449,-1127 L -450,-1127 L -451,-1127 L -451,-1126 L -452,-1127 L -452,-1128 L -452,-1129 L -451,-1129 L -450,-1129 L -450,-1128 L -449,-1128 L -448,-1128 L -448,-1129 L -448,-1130 L -449,-1131 L -449,-1132 L -449,-1133 L -448,-1133 L -447,-1133 L -447,-1134 L -448,-1134 L -449,-1134 L -449,-1135 L -449,-1136 L -450,-1136 L -450,-1137 L -449,-1138 L -449,-1137 L -448,-1137 L -447,-1136 L -446,-1136 L -446,-1137 L -445,-1137 L -446,-1138 L -447,-1138 L -448,-1138 L -449,-1138 L -449,-1139 L -449,-1140 L -448,-1140 L -447,-1140 L -446,-1140 L -447,-1141 L -448,-1141 L -449,-1141 L -449,-1142 L -449,-1143 L -448,-1143 L -448,-1144 L -447,-1144 L -447,-1145 L -446,-1145 L -446,-1144 L -445,-1144 L -444,-1145 L -444,-1146 L -445,-1146 L -445,-1147 L -445,-1148 L -446,-1149 L -447,-1149 L -448,-1149 L -449,-1149 L -449,-1150 L -448,-1150 L -448,-1151 L -447,-1151 L -447,-1152 L -447,-1153 L -447,-1154 L -448,-1154 L -449,-1153 L -449,-1152 L -450,-1152 L -450,-1153 L -450,-1154 L -449,-1155 L -450,-1155 L -450,-1156 L -450,-1157 L -449,-1157 L -448,-1157 L -448,-1156 L -448,-1155 L -447,-1155 L -446,-1156 L -446,-1157 L -447,-1158 L -447,-1159 L -447,-1160 L -448,-1160 L -448,-1161 L -449,-1161 L -449,-1162 L -449,-1163 L -449,-1164 L -450,-1164 L -451,-1164 L -452,-1164 L -452,-1165 L -452,-1166 L -453,-1167 L -453,-1168 L -452,-1168 L -451,-1167 L -450,-1166 L -449,-1166 L -449,-1167 L -450,-1167 L -450,-1168 L -450,-1169 L -449,-1170 L -448,-1170 L -448,-1171 L -449,-1171 L -450,-1170 L -451,-1170 L -452,-1170 L -452,-1171 L -453,-1171 L -453,-1172 L -452,-1172 L -451,-1172 L -451,-1173 L -451,-1174 L -451,-1175 L -451,-1176 L -450,-1176 L -450,-1177 L -449,-1177 L -448,-1177 L -448,-1178 L -449,-1178 L -450,-1178 L -450,-1177 L -450,-1178 L -451,-1178 L -451,-1179 L -452,-1179 L -452,-1178 L -453,-1178 L -453,-1179 L -452,-1179 L -452,-1180 L -451,-1181 L -451,-1182 L -451,-1183 L -452,-1183 L -453,-1183 L -454,-1182 L -453,-1181 L -454,-1181 L -454,-1180 L -454,-1181 L -455,-1181 L -455,-1182 L -455,-1183 L -454,-1183 L -454,-1184 L -453,-1184 L -453,-1185 L -453,-1186 L -453,-1187 L -452,-1187 L -451,-1188 L -451,-1189 L -452,-1189 L -452,-1188 L -453,-1188 L -454,-1188 L -454,-1189 L -454,-1190 L -453,-1190 L -453,-1191 L -452,-1191 L -451,-1191 L -450,-1192 L -451,-1192 L -450,-1193 L -450,-1194 L -450,-1195 L -449,-1195 L -449,-1196 L -449,-1197 L -450,-1197 L -450,-1198 L -451,-1198 L -451,-1199 L -451,-1200 L -452,-1200 L -452,-1201 L -452,-1202 L -451,-1202 L -450,-1202 L -450,-1203 L -449,-1203 L -449,-1204 L -449,-1205 L -448,-1205 L -448,-1206 L -447,-1206 L -447,-1207 L -448,-1207 L -448,-1208 L -447,-1208 L -448,-1209 L -448,-1208 L -449,-1208 L -450,-1209 L -450,-1210 L -450,-1211 L -450,-1212 L -449,-1212 L -448,-1212 L -447,-1212 L -446,-1212 L -445,-1212 L -445,-1213 L -446,-1213 L -447,-1213 L -447,-1214 L -447,-1215 L -446,-1215 L -446,-1216 L -446,-1217 L -447,-1217 L -448,-1217 L -449,-1216 L -450,-1216 L -451,-1216 L -451,-1217 L -452,-1217 L -452,-1218 L -451,-1218 L -451,-1219 L -450,-1219 L -450,-1218 L -449,-1218 L -449,-1219 L -448,-1219 L -449,-1220 L -449,-1221 L -448,-1221 L -448,-1222 L -447,-1222 L -446,-1222 L -447,-1222 L -447,-1223 L -448,-1224 L -449,-1223 L -450,-1223 L -451,-1222 L -452,-1222 L -453,-1221 L -453,-1222 L -454,-1222 L -454,-1223 L -454,-1224 L -453,-1224 L -452,-1224 L -451,-1225 L -452,-1226 L -453,-1226 L -453,-1227 L -453,-1228 L -452,-1228 L -451,-1228 L -451,-1229 L -451,-1230 L -452,-1231 L -452,-1232 L -453,-1232 L -454,-1232 L -454,-1231 L -455,-1231 L -455,-1232 L -455,-1233 L -454,-1233 L -453,-1233 L -452,-1233 L -451,-1233 L -450,-1233 L -450,-1234 L -449,-1235 L -450,-1235 L -450,-1236 L -451,-1236 L -451,-1237 L -451,-1238 L -452,-1238 L -452,-1237 L -453,-1237 L -453,-1236 L -452,-1235 L -453,-1234 L -454,-1234 L -454,-1235 L -455,-1235 L -455,-1236 L -454,-1236 L -454,-1237 L -454,-1238 L -454,-1239 L -454,-1240 L -454,-1241 L -455,-1242 L -455,-1243 L -456,-1243 L -457,-1243 L -457,-1244 L -456,-1244 L -455,-1243 L -454,-1244 L -454,-1245 L -454,-1246 L -454,-1247 L -453,-1247 L -453,-1246 L -452,-1246 L -451,-1246 L -451,-1245 L -450,-1245 L -449,-1245 L -449,-1246 L -449,-1247 L -450,-1247 L -451,-1247 L -452,-1248 L -453,-1248 L -454,-1248 L -454,-1249 L -454,-1250 L -453,-1250 L -452,-1250 L -451,-1250 L -451,-1251 L -451,-1252 L -450,-1252 L -449,-1252 L -449,-1253 L -450,-1254 L -451,-1254 L -452,-1254 L -453,-1254 L -454,-1255 L -454,-1256 L -454,-1257 L -453,-1257 L -453,-1258 L -453,-1259 L -452,-1260 L -451,-1260 L -451,-1261 L -452,-1261 L -453,-1261 L -453,-1262 L -453,-1263 L -452,-1263 L -451,-1263 L -451,-1264 L -452,-1265 L -453,-1265 L -453,-1266 L -453,-1267 L -452,-1267 L -452,-1268 L -451,-1268 L -451,-1269 L -450,-1270 L -450,-1271 L -451,-1271 L -452,-1271 L -453,-1271 L -453,-1272 L -452,-1273 L -451,-1273 L -451,-1272 L -451,-1273 L -450,-1273 L -449,-1273 L -448,-1274 L -448,-1275 L -448,-1276 L -448,-1275 L -447,-1275 L -447,-1274 L -447,-1273 L -446,-1273 L -445,-1273 L -445,-1274 L -444,-1274 L -444,-1275 L -444,-1276 L -443,-1276 L -442,-1276 L -442,-1275 L -441,-1275 L -440,-1276 L -440,-1277 L -441,-1277 L -441,-1278 L -442,-1278 L -442,-1279 L -442,-1280 L -443,-1280 L -443,-1281 L -442,-1281 L -441,-1281 L -441,-1280 L -440,-1280 L -439,-1280 L -439,-1281 L -440,-1282 L -440,-1283 L -440,-1284 L -441,-1284 L -442,-1285 L -442,-1286 L -441,-1286 L -441,-1285 L -440,-1285 L -439,-1285 L -439,-1286 L -440,-1287 L -441,-1286 L -442,-1286 L -442,-1287 L -442,-1288 L -441,-1288 L -441,-1289 L -440,-1289 L -440,-1290 L -441,-1291 L -440,-1291 L -440,-1292 L -439,-1292 L -439,-1291 L -438,-1291 L -437,-1291 L -437,-1292 L -437,-1293 L -437,-1294 L -436,-1294 L -436,-1293 L -435,-1293 L -435,-1294 L -434,-1294 L -433,-1293 L -433,-1292 L -432,-1292 L -431,-1292 L -431,-1293 L -432,-1293 L -432,-1294 L -432,-1295 L -433,-1295 L -433,-1296 L -434,-1296 L -435,-1296 L -435,-1297 L -435,-1298 L -435,-1299 L -434,-1299 L -434,-1300 L -433,-1300 L -433,-1301 L -432,-1301 L -432,-1300 L -431,-1300 L -430,-1300 L -430,-1301 L -431,-1301 L -431,-1302 L -432,-1302 L -432,-1303 L -432,-1304 L -431,-1304 L -430,-1305 L -431,-1306 L -432,-1306 L -432,-1307 L -431,-1307 L -430,-1307 L -430,-1308 L -430,-1309 L -431,-1309 L -431,-1310 L -430,-1310 L -429,-1310 L -428,-1309 L -427,-1309 L -426,-1308 L -426,-1309 L -425,-1309 L -425,-1310 L -425,-1311 L -425,-1312 L -424,-1313 L -423,-1313 L -423,-1314 L -424,-1315 L -423,-1316 L -422,-1317 L -422,-1318 L -422,-1317 L -422,-1316 L -421,-1316 L -420,-1316 L -419,-1316 L -419,-1315 L -418,-1315 L -418,-1314 L -417,-1315 L -416,-1316 L -415,-1316 L -415,-1317 L -414,-1317 L -413,-1318 L -412,-1318 L -411,-1318 L -411,-1319 L -410,-1319 L -410,-1320 L -409,-1320 L -409,-1321 L -409,-1322 L -409,-1323 L -408,-1323 L -407,-1323 L -406,-1323 L -406,-1324 L -405,-1324 L -405,-1325 L -406,-1325 L -407,-1325 L -408,-1325 L -409,-1324 L -410,-1325 L -410,-1326 L -409,-1326 L -409,-1327 L -408,-1327 L -407,-1327 L -407,-1328 L -406,-1328 L -405,-1328 L -405,-1329 L -404,-1329 L -404,-1330 L -404,-1331 L -404,-1332 L -405,-1332 L -405,-1331 L -406,-1331 L -406,-1330 L -407,-1330 L -407,-1331 L -407,-1332 L -406,-1332 L -405,-1332 L -404,-1333 L -404,-1332 L -403,-1332 L -403,-1333 L -402,-1333 L -401,-1334 L -400,-1334 L -400,-1335 L -399,-1335 L -400,-1335 L -400,-1336 L -401,-1336 L -402,-1337 L -402,-1338 L -402,-1339 L -402,-1340 L -403,-1340 L -403,-1339 L -404,-1339 L -404,-1338 L -404,-1337 L -405,-1337 L -405,-1338 L -405,-1339 L -405,-1340 L -406,-1340 L -406,-1339 L -407,-1339 L -407,-1340 L -407,-1341 L -408,-1342 L -408,-1343 L -407,-1343 L -407,-1344 L -406,-1344 L -406,-1345 L -406,-1346 L -406,-1347 L -407,-1347 L -407,-1348 L -408,-1349 L -408,-1350 L -409,-1350 L -409,-1351 L -409,-1352 L -408,-1352 L -408,-1353 L -407,-1353 L -407,-1354 L -407,-1355 L -407,-1356 L -406,-1356 L -406,-1357 L -406,-1358 L -406,-1359 L -405,-1359 L -405,-1360 L -404,-1360 L -403,-1361 L -402,-1361 L -402,-1360 L -401,-1360 L -400,-1360 L -400,-1361 L -400,-1362 L -400,-1363 L -400,-1364 L -399,-1364 L -399,-1365 L -399,-1366 L -398,-1366 L -397,-1366 L -396,-1367 L -396,-1368 L -396,-1369 L -395,-1369 L -395,-1368 L -395,-1367 L -395,-1366 L -394,-1366 L -393,-1367 L -393,-1368 L -393,-1369 L -394,-1369 L -394,-1370 L -395,-1370 L -395,-1371 L -395,-1372 L -394,-1373 L -393,-1374 L -392,-1375 L -393,-1376 L -392,-1377 L -391,-1377 L -390,-1377 L -389,-1377 L -388,-1377 L -387,-1377 L -387,-1378 L -386,-1379 L -386,-1380 L -386,-1381 L -386,-1382 L -386,-1383 L -387,-1383 L -387,-1384 L -387,-1385 L -387,-1386 L -388,-1386 L -389,-1386 L -390,-1387 L -390,-1388 L -389,-1388 L -388,-1388 L -387,-1388 L -386,-1387 L -385,-1387 L -384,-1388 L -383,-1388 L -383,-1387 L -383,-1386 L -382,-1386 L -382,-1385 L -382,-1384 L -381,-1384 L -380,-1384 L -380,-1385 L -380,-1386 L -380,-1387 L -381,-1388 L -381,-1389 L -382,-1389 L -382,-1390 L -381,-1391 L -381,-1392 L -380,-1392 L -380,-1393 L -380,-1394 L -379,-1395 L -379,-1397 L -374,-1396 L -371,-1397 L -368,-1397 L -365,-1399 L -363,-1401 L -360,-1402 L -358,-1403 L -357,-1405 L -355,-1406 L -354,-1407 L -351,-1409 L -349,-1410 L -348,-1411 L -348,-1412 L -348,-1413 L -348,-1415 L -349,-1416 L -350,-1417 L -351,-1418 L -353,-1420 L -353,-1421 L -354,-1421 L -354,-1422 L -355,-1422 L -355,-1423 L -356,-1423 L -356,-1424 L -357,-1424 L -357,-1425 L -357,-1426 L -358,-1426 L -358,-1427 L -359,-1428 L -359,-1429 L -358,-1429 L -358,-1430 L -357,-1431 L -356,-1432 L -355,-1432 L -354,-1432 L -353,-1433 L -352,-1433 L -351,-1433 L -350,-1433 L -348,-1433 L -347,-1433 L -346,-1432 L -345,-1432 L -344,-1432 L -343,-1432 L -342,-1432 L -339,-1431 L -338,-1431 L -336,-1431 L -335,-1431 L -333,-1430 L -331,-1430 L -329,-1428 L -327,-1426 L -326,-1424 L -323,-1423 L -321,-1422 L -319,-1422 L -317,-1422 L -315,-1423 L -314,-1424 L -311,-1426 L -310,-1428 L -307,-1430 L -304,-1433 L -301,-1435 L -298,-1439 L -296,-1442 L -295,-1446 L -295,-1452 L -296,-1462 L -298,-1466 L -299,-1469 L -300,-1471 L -298,-1475 L -296,-1478 L -294,-1481 L -290,-1484 L -287,-1486 L -284,-1488 L -281,-1489 L -277,-1489 L -274,-1490 L -272,-1489 L -271,-1489 L -270,-1488 L -267,-1487 L -265,-1487 L -262,-1487 L -259,-1488 L -255,-1491 L -253,-1493 L -251,-1495 L -250,-1496 L -247,-1497 L -244,-1499 L -242,-1501 L -241,-1503 L -239,-1507 L -238,-1510 L -237,-1514 L -236,-1517 L -236,-1521 L -237,-1527 L -238,-1528 L -238,-1531 L -237,-1533 L -236,-1535 L -237,-1538 L -237,-1541 L -238,-1545 L -238,-1547 L -238,-1550 L -239,-1552 L -240,-1555 L -240,-1557 L -240,-1558 L -240,-1559 L -239,-1560 L -237,-1560 L -235,-1560 L -233,-1560 L -230,-1560 L -228,-1560 L -225,-1560 L -222,-1560 L -220,-1559 L -218,-1558 L -215,-1557 L -213,-1556 L -211,-1556 L -209,-1556 L -207,-1556 L -205,-1556 L -203,-1555 L -201,-1553 L -200,-1552 L -197,-1551 L -195,-1551 L -193,-1552 L -191,-1554 L -189,-1556 L -186,-1560 L -183,-1562 L -181,-1564 L -179,-1566 L -176,-1568 L -174,-1569 L -171,-1570 L -169,-1570 L -166,-1571 L -165,-1573 L -162,-1575 L -161,-1577 L -159,-1579 L -156,-1581 L -154,-1583 L -153,-1585 L -152,-1588 L -152,-1591 L -152,-1594 L -153,-1597 L -154,-1600 L -155,-1604 L -156,-1606 L -158,-1609 L -159,-1611 L -159,-1613 L -159,-1614 " /></g>
</svg>
