<?xml version="1.0" standalone="no"?><!DOCTYPE svg PUBLIC "-//W3C//DTD SVG 1.1//EN" "http://www.w3.org/Graphics/SVG/1.1/DTD/svg11.dtd"><svg xmlns="http://www.w3.org/2000/svg" viewBox="-187 -909 203 217" version = "1.1">
<g id="21502" ><path d="M -5,-902 L -6,-900 L -6,-898 L -5,-895 L -3,-892 L -2,-891 L -2,-890 L -1,-888 L -2,-887 L -2,-885 L -3,-885 L -5,-885 L -6,-885 L -8,-884 L -8,-883 L -9,-882 L -8,-880 L -6,-879 L -5,-879 L -3,-878 L -1,-877 L 0,-876 L 1,-875 L 2,-874 L 4,-873 L 5,-873 L 7,-872 L 8,-871 L 9,-871 L 8,-870 L 8,-869 L 7,-868 L 5,-867 L 4,-866 L 2,-865 L 2,-864 L 1,-863 L 0,-862 L -1,-862 L -2,-862 L -3,-863 L -4,-863 L -5,-863 L -7,-863 L -8,-863 L -9,-863 L -9,-862 L -9,-861 L -9,-860 L -9,-859 L -8,-858 L -7,-856 L -6,-856 L -6,-855 L -5,-855 L -3,-856 L 0,-857 L 0,-858 L 1,-858 L 3,-857 L 4,-856 L 5,-855 L 5,-854 L 5,-853 L 4,-851 L 3,-849 L 1,-847 L 0,-846 L 0,-845 L -1,-843 L -2,-840 L -3,-838 L -4,-837 L -4,-835 L -5,-833 L -4,-832 L -4,-830 L -4,-828 L -4,-827 L -3,-825 L -2,-825 L -2,-824 L 0,-822 L 1,-820 L 2,-819 L 3,-817 L 3,-816 L 4,-815 L 3,-813 L 2,-812 L 1,-811 L 0,-810 L 0,-808 L 0,-807 L 0,-806 L 1,-805 L 2,-804 L 3,-804 L 6,-803 L 7,-803 L 9,-802 L 10,-802 L 12,-801 L 14,-799 L 15,-798 L 16,-797 L 16,-796 L 16,-794 L 15,-793 L 14,-793 L 12,-792 L 11,-792 L 10,-793 L 8,-793 L 6,-794 L 5,-795 L 3,-795 L 1,-794 L 0,-792 L -1,-791 L -3,-788 L -5,-785 L -6,-783 L -9,-782 L -10,-781 L -12,-780 L -13,-779 L -13,-778 L -13,-777 L -13,-776 L -12,-776 L -10,-776 L -9,-778 L -8,-778 L -7,-778 L -6,-777 L -5,-776 L -5,-775 L -5,-774 L -5,-771 L -7,-770 L -11,-769 L -12,-768 L -12,-767 L -11,-766 L -8,-765 L -7,-764 L -6,-763 L -7,-761 L -8,-761 L -10,-760 L -12,-758 L -13,-757 L -13,-756 L -12,-755 L -10,-754 L -9,-753 L -7,-753 L -6,-753 L -5,-753 L -4,-752 L -3,-751 L -3,-749 L -3,-748 L -3,-746 L -4,-744 L -4,-743 L -4,-742 L -4,-741 L -3,-740 L -3,-738 L -2,-737 L -2,-736 L 0,-735 L 1,-734 L 2,-732 L 2,-729 L 3,-728 L 3,-727 L 4,-726 L 5,-726 L 6,-726 L 7,-726 L 8,-727 L 9,-727 L 11,-727 L 11,-726 L 12,-726 L 12,-725 L 13,-723 L 12,-722 L 11,-721 L 10,-720 L 9,-720 L 8,-719 L 8,-717 L 8,-715 L 7,-714 L 7,-712 L 7,-711 L 7,-710 L 7,-708 L 6,-707 L 6,-706 L 7,-705 L 7,-704 L 6,-703 L 5,-703 L 3,-702 L 2,-701 L 0,-701 L 0,-700 L 0,-698 L 0,-697 L 0,-696 L -2,-694 L -4,-694 L -5,-693 L -6,-693 L -7,-693 L -7,-694 L -8,-694 L -9,-694 L -9,-695 L -10,-695 L -11,-694 L -12,-694 L -12,-693 L -13,-693 L -13,-692 L -15,-693 L -16,-693 L -17,-693 L -18,-693 L -19,-693 L -21,-693 L -22,-694 L -23,-694 L -24,-694 L -25,-694 L -26,-693 L -27,-693 L -28,-693 L -29,-693 L -29,-694 L -30,-694 L -30,-695 L -30,-696 L -30,-697 L -31,-697 L -32,-697 L -33,-697 L -34,-698 L -35,-699 L -36,-699 L -37,-699 L -38,-698 L -39,-699 L -40,-699 L -41,-699 L -42,-698 L -43,-698 L -43,-699 L -44,-699 L -45,-700 L -46,-700 L -47,-700 L -48,-699 L -49,-700 L -49,-701 L -50,-701 L -50,-702 L -51,-702 L -51,-703 L -52,-703 L -53,-703 L -53,-704 L -54,-704 L -55,-704 L -55,-705 L -56,-706 L -57,-706 L -58,-706 L -59,-706 L -60,-706 L -61,-706 L -62,-706 L -63,-706 L -64,-705 L -65,-705 L -65,-704 L -66,-705 L -67,-706 L -67,-707 L -67,-708 L -68,-708 L -69,-708 L -70,-708 L -72,-708 L -73,-708 L -74,-709 L -75,-709 L -76,-710 L -78,-712 L -79,-712 L -79,-713 L -81,-714 L -81,-715 L -82,-715 L -83,-715 L -83,-716 L -84,-716 L -85,-717 L -86,-718 L -87,-719 L -87,-720 L -88,-720 L -89,-721 L -90,-721 L -91,-722 L -91,-723 L -92,-723 L -93,-722 L -94,-723 L -94,-724 L -95,-724 L -95,-725 L -96,-725 L -97,-725 L -98,-725 L -98,-726 L -99,-726 L -100,-726 L -101,-726 L -102,-726 L -103,-726 L -104,-727 L -105,-727 L -106,-727 L -106,-728 L -106,-729 L -107,-730 L -108,-730 L -108,-729 L -109,-729 L -110,-729 L -111,-730 L -112,-730 L -113,-731 L -113,-732 L -112,-732 L -112,-733 L -113,-734 L -114,-734 L -114,-735 L -115,-735 L -116,-736 L -117,-737 L -118,-737 L -119,-738 L -120,-738 L -120,-739 L -121,-740 L -121,-741 L -120,-741 L -120,-742 L -121,-742 L -121,-743 L -122,-743 L -122,-744 L -122,-745 L -122,-746 L -123,-746 L -124,-746 L -125,-747 L -126,-747 L -127,-746 L -128,-747 L -128,-748 L -128,-749 L -128,-750 L -129,-751 L -129,-752 L -128,-753 L -128,-754 L -129,-755 L -129,-756 L -129,-757 L -129,-758 L -130,-758 L -131,-758 L -132,-758 L -133,-759 L -133,-760 L -133,-761 L -133,-762 L -133,-763 L -132,-763 L -132,-764 L -132,-765 L -132,-766 L -133,-766 L -133,-767 L -134,-767 L -135,-767 L -136,-768 L -136,-769 L -136,-770 L -135,-771 L -135,-772 L -136,-772 L -137,-773 L -138,-772 L -140,-772 L -141,-772 L -141,-773 L -142,-773 L -142,-774 L -143,-774 L -144,-774 L -144,-773 L -145,-774 L -144,-775 L -144,-776 L -145,-777 L -145,-778 L -146,-778 L -147,-778 L -148,-778 L -149,-777 L -150,-776 L -151,-776 L -152,-776 L -153,-776 L -154,-776 L -154,-777 L -155,-778 L -156,-779 L -156,-780 L -157,-781 L -158,-782 L -158,-783 L -158,-784 L -157,-784 L -156,-784 L -156,-785 L -155,-785 L -155,-786 L -156,-786 L -157,-786 L -158,-785 L -158,-786 L -158,-787 L -159,-787 L -159,-788 L -160,-787 L -161,-787 L -162,-787 L -162,-786 L -163,-786 L -163,-787 L -164,-787 L -164,-788 L -164,-789 L -164,-790 L -163,-790 L -162,-791 L -162,-792 L -163,-792 L -163,-793 L -162,-793 L -161,-794 L -162,-794 L -162,-795 L -163,-795 L -164,-796 L -164,-797 L -163,-797 L -163,-798 L -163,-799 L -164,-799 L -165,-800 L -165,-801 L -164,-801 L -163,-801 L -163,-802 L -164,-802 L -165,-802 L -166,-801 L -166,-800 L -167,-800 L -168,-800 L -169,-800 L -170,-799 L -171,-799 L -171,-800 L -171,-801 L -171,-802 L -170,-803 L -170,-804 L -170,-805 L -171,-805 L -172,-805 L -172,-806 L -173,-805 L -174,-805 L -175,-805 L -175,-806 L -176,-806 L -177,-806 L -178,-806 L -178,-807 L -177,-807 L -177,-808 L -177,-809 L -178,-810 L -179,-810 L -179,-809 L -180,-809 L -181,-809 L -180,-810 L -179,-810 L -179,-811 L -180,-811 L -180,-812 L -179,-813 L -178,-814 L -177,-814 L -177,-815 L -178,-816 L -179,-816 L -180,-816 L -181,-816 L -182,-815 L -183,-815 L -183,-814 L -184,-814 L -185,-814 L -185,-815 L -185,-816 L -185,-817 L -185,-818 L -185,-819 L -185,-820 L -184,-820 L -184,-821 L -184,-822 L -185,-822 L -185,-823 L -185,-824 L -186,-825 L -185,-825 L -184,-825 L -183,-825 L -183,-826 L -183,-827 L -184,-827 L -184,-826 L -185,-826 L -186,-827 L -186,-828 L -185,-829 L -186,-829 L -186,-830 L -187,-830 L -187,-831 L -187,-832 L -187,-833 L -186,-833 L -186,-832 L -185,-832 L -184,-832 L -184,-833 L -184,-834 L -183,-834 L -182,-834 L -182,-835 L -183,-835 L -183,-836 L -183,-837 L -183,-838 L -183,-837 L -182,-837 L -181,-837 L -180,-837 L -180,-838 L -180,-839 L -181,-839 L -182,-839 L -182,-840 L -181,-840 L -181,-841 L -181,-842 L -181,-843 L -182,-843 L -182,-844 L -182,-845 L -181,-845 L -181,-846 L -180,-846 L -179,-846 L -179,-847 L -180,-847 L -181,-847 L -181,-848 L -181,-849 L -180,-848 L -180,-847 L -179,-847 L -178,-848 L -178,-849 L -179,-849 L -179,-850 L -180,-850 L -179,-851 L -179,-850 L -179,-851 L -178,-851 L -178,-852 L -177,-852 L -177,-853 L -176,-853 L -176,-854 L -176,-855 L -177,-854 L -177,-855 L -178,-855 L -177,-855 L -177,-856 L -176,-856 L -175,-856 L -174,-856 L -173,-856 L -172,-856 L -171,-856 L -171,-857 L -171,-858 L -170,-857 L -169,-857 L -169,-858 L -169,-857 L -168,-857 L -168,-858 L -168,-857 L -167,-857 L -167,-858 L -166,-858 L -165,-858 L -165,-859 L -164,-859 L -164,-860 L -163,-860 L -163,-861 L -162,-862 L -159,-863 L -158,-863 L -157,-863 L -156,-863 L -155,-863 L -155,-864 L -154,-864 L -153,-864 L -153,-863 L -153,-864 L -152,-863 L -152,-864 L -151,-864 L -151,-865 L -151,-866 L -150,-866 L -149,-866 L -149,-867 L -149,-868 L -148,-868 L -149,-868 L -148,-869 L -147,-870 L -146,-870 L -146,-871 L -145,-871 L -145,-872 L -144,-872 L -143,-872 L -143,-873 L -142,-872 L -142,-873 L -142,-872 L -142,-873 L -141,-873 L -140,-873 L -139,-873 L -139,-874 L -138,-874 L -138,-875 L -137,-875 L -136,-875 L -136,-876 L -135,-876 L -134,-877 L -134,-876 L -134,-877 L -133,-877 L -133,-876 L -132,-877 L -132,-876 L -131,-876 L -130,-876 L -130,-877 L -129,-877 L -128,-877 L -128,-878 L -127,-879 L -128,-879 L -127,-879 L -127,-880 L -127,-881 L -126,-881 L -125,-881 L -126,-882 L -125,-882 L -125,-883 L -124,-884 L -123,-884 L -123,-885 L -122,-885 L -121,-885 L -121,-886 L -121,-887 L -120,-887 L -120,-888 L -120,-889 L -120,-890 L -119,-891 L -119,-892 L -118,-892 L -117,-892 L -117,-893 L -116,-893 L -117,-893 L -116,-893 L -116,-894 L -115,-894 L -116,-894 L -115,-894 L -115,-895 L -114,-895 L -114,-894 L -113,-894 L -113,-895 L -113,-896 L -112,-896 L -112,-897 L -113,-897 L -112,-897 L -112,-898 L -111,-898 L -110,-898 L -109,-898 L -109,-899 L -108,-898 L -108,-899 L -107,-899 L -106,-899 L -107,-900 L -106,-900 L -105,-900 L -105,-901 L -106,-901 L -105,-901 L -105,-900 L -105,-901 L -104,-901 L -104,-902 L -105,-902 L -104,-902 L -104,-903 L -104,-904 L -104,-905 L -103,-905 L -103,-906 L -103,-905 L -102,-906 L -102,-905 L -101,-905 L -101,-906 L -101,-907 L -100,-906 L -100,-907 L -99,-907 L -99,-906 L -99,-907 L -98,-908 L -98,-909 L -97,-909 L -97,-908 L -97,-909 L -96,-909 L -95,-909 L -95,-908 L -94,-908 L -94,-909 L -94,-908 L -93,-908 L -93,-909 L -92,-909 L -92,-908 L -89,-906 L -83,-901 L -79,-900 L -77,-899 L -72,-898 L -67,-895 L -63,-894 L -63,-893 L -62,-893 L -62,-894 L -61,-894 L -60,-894 L -60,-893 L -59,-893 L -59,-892 L -59,-893 L -58,-892 L -57,-892 L -53,-890 L -45,-887 L -43,-885 L -40,-884 L -38,-884 L -35,-885 L -29,-891 L -29,-892 L -21,-898 L -15,-901 L -11,-901 L -5,-902 " /></g>
</svg>
