<?xml version="1.0" standalone="no"?><!DOCTYPE svg PUBLIC "-//W3C//DTD SVG 1.1//EN" "http://www.w3.org/Graphics/SVG/1.1/DTD/svg11.dtd"><svg xmlns="http://www.w3.org/2000/svg" viewBox="-567 -629 294 192" version = "1.1">
<g id="21601" ><path d="M -415,-629 L -414,-629 L -413,-629 L -413,-628 L -412,-628 L -411,-628 L -411,-627 L -410,-627 L -410,-628 L -409,-627 L -408,-627 L -408,-626 L -407,-627 L -406,-627 L -406,-626 L -395,-621 L -386,-615 L -384,-613 L -382,-611 L -381,-609 L -380,-609 L -380,-608 L -380,-607 L -379,-607 L -378,-607 L -377,-606 L -376,-606 L -376,-605 L -376,-606 L -375,-606 L -374,-606 L -374,-605 L -373,-605 L -373,-604 L -372,-604 L -371,-604 L -371,-603 L -370,-603 L -369,-603 L -368,-603 L -368,-602 L -368,-601 L -368,-600 L -368,-599 L -368,-598 L -367,-598 L -367,-597 L -366,-597 L -366,-596 L -365,-596 L -365,-595 L -364,-595 L -364,-594 L -363,-594 L -363,-593 L -362,-593 L -362,-592 L -362,-591 L -361,-591 L -360,-591 L -359,-590 L -359,-589 L -358,-588 L -358,-587 L -357,-587 L -356,-587 L -355,-586 L -354,-586 L -354,-585 L -354,-584 L -353,-584 L -353,-585 L -352,-585 L -352,-584 L -352,-583 L -353,-583 L -352,-583 L -351,-583 L -351,-582 L -350,-582 L -350,-581 L -349,-581 L -349,-580 L -348,-580 L -348,-579 L -348,-580 L -348,-579 L -347,-579 L -346,-579 L -346,-578 L -346,-577 L -345,-577 L -345,-576 L -344,-576 L -343,-576 L -343,-575 L -342,-575 L -342,-574 L -342,-573 L -341,-573 L -340,-573 L -341,-573 L -341,-572 L -340,-572 L -341,-572 L -340,-572 L -339,-571 L -340,-571 L -339,-571 L -339,-570 L -338,-570 L -337,-569 L -336,-569 L -336,-568 L -337,-568 L -336,-568 L -336,-567 L -335,-567 L -335,-566 L -334,-566 L -334,-565 L -333,-565 L -332,-565 L -332,-564 L -332,-563 L -331,-563 L -331,-562 L -331,-561 L -330,-561 L -330,-560 L -330,-559 L -329,-559 L -330,-559 L -331,-559 L -332,-559 L -332,-558 L -332,-557 L -332,-556 L -332,-557 L -331,-557 L -331,-556 L -331,-555 L -331,-554 L -330,-554 L -329,-554 L -329,-553 L -328,-552 L -329,-552 L -329,-551 L -328,-551 L -327,-551 L -327,-550 L -326,-550 L -325,-550 L -325,-549 L -324,-549 L -323,-549 L -324,-548 L -323,-548 L -322,-548 L -322,-547 L -321,-547 L -321,-546 L -320,-546 L -320,-545 L -319,-545 L -318,-545 L -318,-544 L -317,-544 L -316,-544 L -315,-544 L -315,-543 L -315,-544 L -314,-544 L -314,-545 L -313,-545 L -312,-544 L -313,-544 L -313,-543 L -314,-543 L -315,-542 L -314,-542 L -313,-542 L -313,-541 L -313,-540 L -312,-540 L -312,-539 L -311,-540 L -311,-539 L -310,-539 L -309,-539 L -308,-539 L -308,-538 L -308,-537 L -309,-537 L -309,-536 L -309,-535 L -309,-534 L -308,-534 L -308,-533 L -307,-533 L -307,-532 L -306,-532 L -306,-531 L -305,-531 L -305,-530 L -305,-529 L -304,-529 L -303,-529 L -303,-528 L -302,-528 L -302,-527 L -301,-527 L -301,-526 L -300,-526 L -299,-526 L -298,-526 L -297,-527 L -296,-527 L -295,-527 L -294,-527 L -294,-526 L -293,-526 L -293,-525 L -292,-525 L -291,-524 L -290,-524 L -290,-523 L -289,-523 L -289,-522 L -288,-522 L -288,-521 L -287,-521 L -286,-521 L -285,-521 L -285,-520 L -284,-519 L -283,-519 L -283,-518 L -283,-517 L -283,-516 L -282,-516 L -281,-516 L -281,-515 L -280,-515 L -280,-514 L -280,-513 L -281,-513 L -281,-512 L -281,-511 L -280,-511 L -280,-510 L -279,-510 L -279,-509 L -278,-509 L -277,-509 L -277,-508 L -278,-508 L -277,-507 L -276,-507 L -276,-506 L -275,-506 L -274,-506 L -274,-505 L -273,-505 L -274,-505 L -275,-505 L -275,-504 L -276,-504 L -276,-505 L -277,-505 L -277,-506 L -277,-505 L -278,-505 L -278,-504 L -279,-504 L -279,-505 L -280,-505 L -281,-505 L -282,-505 L -282,-504 L -281,-504 L -282,-504 L -281,-503 L -282,-503 L -283,-503 L -283,-502 L -284,-502 L -284,-503 L -284,-502 L -284,-501 L -285,-501 L -285,-500 L -284,-500 L -284,-499 L -285,-499 L -285,-500 L -285,-499 L -286,-499 L -286,-498 L -287,-498 L -287,-497 L -287,-496 L -287,-495 L -288,-495 L -289,-495 L -289,-494 L -290,-494 L -291,-494 L -292,-494 L -292,-493 L -292,-492 L -293,-492 L -293,-493 L -293,-492 L -292,-490 L -293,-488 L -294,-487 L -294,-486 L -295,-485 L -296,-484 L -296,-483 L -296,-482 L -295,-481 L -295,-480 L -296,-480 L -296,-479 L -297,-479 L -297,-480 L -298,-480 L -298,-481 L -298,-482 L -299,-482 L -300,-482 L -301,-483 L -302,-483 L -302,-484 L -303,-484 L -304,-485 L -304,-486 L -305,-486 L -306,-486 L -306,-487 L -307,-487 L -308,-488 L -308,-489 L -309,-489 L -309,-490 L -310,-490 L -310,-491 L -311,-491 L -311,-492 L -311,-493 L -311,-494 L -312,-495 L -313,-495 L -313,-496 L -314,-497 L -314,-498 L -315,-498 L -316,-498 L -316,-499 L -317,-499 L -317,-500 L -316,-501 L -317,-501 L -317,-502 L -316,-502 L -316,-503 L -317,-503 L -316,-503 L -317,-503 L -317,-504 L -318,-504 L -319,-504 L -319,-505 L -320,-505 L -321,-505 L -322,-505 L -323,-505 L -324,-505 L -324,-504 L -325,-504 L -326,-504 L -327,-504 L -328,-504 L -329,-505 L -330,-505 L -331,-505 L -331,-506 L -332,-506 L -332,-505 L -333,-505 L -333,-504 L -334,-504 L -335,-504 L -335,-503 L -335,-502 L -336,-502 L -337,-502 L -337,-501 L -338,-501 L -339,-501 L -339,-500 L -340,-500 L -340,-501 L -340,-500 L -341,-500 L -342,-500 L -342,-499 L -343,-499 L -343,-498 L -344,-498 L -345,-498 L -345,-497 L -346,-497 L -346,-498 L -347,-497 L -348,-497 L -349,-497 L -349,-496 L -350,-496 L -351,-496 L -351,-495 L -352,-495 L -352,-494 L -353,-494 L -354,-494 L -354,-493 L -355,-493 L -355,-492 L -356,-492 L -357,-492 L -358,-491 L -359,-491 L -359,-490 L -360,-490 L -361,-490 L -362,-490 L -363,-490 L -364,-489 L -365,-489 L -365,-488 L -366,-488 L -366,-489 L -367,-488 L -368,-488 L -369,-488 L -370,-488 L -371,-488 L -371,-487 L -372,-487 L -373,-487 L -373,-486 L -374,-486 L -375,-486 L -375,-485 L -377,-484 L -377,-483 L -378,-483 L -379,-483 L -380,-483 L -381,-483 L -382,-483 L -382,-482 L -383,-483 L -384,-483 L -385,-483 L -386,-483 L -386,-484 L -387,-484 L -388,-484 L -389,-484 L -390,-484 L -391,-484 L -391,-485 L -392,-485 L -392,-486 L -393,-486 L -394,-486 L -395,-486 L -395,-487 L -396,-487 L -397,-487 L -398,-487 L -399,-486 L -400,-486 L -400,-485 L -401,-485 L -401,-484 L -402,-484 L -402,-483 L -403,-483 L -403,-482 L -404,-481 L -404,-480 L -405,-480 L -406,-480 L -406,-479 L -407,-479 L -408,-479 L -409,-479 L -409,-478 L -410,-478 L -411,-478 L -412,-478 L -412,-479 L -413,-479 L -414,-479 L -415,-480 L -416,-480 L -417,-480 L -418,-480 L -419,-479 L -420,-479 L -421,-479 L -422,-479 L -422,-478 L -423,-478 L -423,-479 L -424,-479 L -425,-479 L -425,-478 L -426,-477 L -427,-476 L -428,-476 L -428,-475 L -428,-474 L -428,-473 L -429,-474 L -429,-473 L -430,-473 L -431,-473 L -432,-473 L -433,-473 L -434,-473 L -435,-473 L -436,-473 L -436,-472 L -437,-472 L -438,-472 L -438,-471 L -439,-471 L -440,-470 L -441,-470 L -441,-469 L -442,-469 L -442,-468 L -443,-468 L -443,-467 L -443,-466 L -443,-465 L -443,-464 L -443,-463 L -443,-462 L -444,-462 L -444,-461 L -445,-460 L -445,-459 L -445,-458 L -445,-457 L -446,-456 L -446,-455 L -446,-454 L -446,-453 L -447,-452 L -447,-451 L -447,-450 L -448,-449 L -448,-448 L -448,-447 L -449,-447 L -449,-446 L -450,-445 L -451,-445 L -452,-445 L -453,-445 L -454,-445 L -454,-444 L -455,-445 L -456,-445 L -457,-445 L -458,-445 L -459,-444 L -460,-444 L -461,-444 L -462,-443 L -464,-442 L -465,-440 L -467,-437 L -472,-440 L -474,-442 L -476,-443 L -479,-446 L -484,-453 L -486,-451 L -490,-451 L -495,-451 L -496,-450 L -497,-450 L -499,-450 L -500,-450 L -502,-450 L -504,-449 L -507,-448 L -508,-450 L -509,-450 L -510,-451 L -511,-451 L -512,-451 L -512,-452 L -513,-451 L -514,-451 L -514,-450 L -515,-450 L -516,-450 L -517,-450 L -517,-451 L -518,-451 L -518,-452 L -518,-453 L -518,-454 L -518,-455 L -518,-456 L -518,-457 L -518,-456 L -518,-457 L -519,-457 L -520,-457 L -520,-456 L -521,-456 L -521,-457 L -521,-456 L -522,-456 L -523,-456 L -524,-456 L -524,-455 L -525,-455 L -526,-455 L -526,-456 L -526,-457 L -526,-458 L -527,-458 L -527,-459 L -528,-459 L -529,-459 L -529,-460 L -530,-460 L -530,-461 L -530,-462 L -530,-463 L -530,-464 L -530,-465 L -530,-466 L -531,-466 L -531,-467 L -532,-467 L -532,-468 L -533,-468 L -533,-469 L -534,-469 L -536,-470 L -537,-471 L -537,-472 L -538,-472 L -538,-473 L -538,-474 L -539,-474 L -540,-474 L -541,-474 L -541,-475 L -541,-476 L -540,-476 L -540,-477 L -540,-478 L -540,-479 L -540,-480 L -540,-481 L -541,-481 L -540,-482 L -541,-482 L -541,-483 L -542,-483 L -543,-484 L -544,-484 L -544,-485 L -545,-485 L -546,-485 L -546,-486 L -546,-487 L -546,-488 L -547,-488 L -547,-489 L -547,-490 L -548,-490 L -549,-490 L -550,-491 L -551,-492 L -552,-492 L -552,-493 L -553,-493 L -553,-494 L -554,-495 L -554,-496 L -555,-496 L -555,-497 L -556,-497 L -556,-498 L -557,-498 L -558,-499 L -558,-500 L -559,-500 L -559,-501 L -560,-501 L -560,-502 L -560,-503 L -560,-504 L -561,-504 L -561,-503 L -561,-504 L -562,-504 L -562,-505 L -563,-505 L -564,-505 L -564,-506 L -565,-506 L -565,-507 L -565,-508 L -566,-508 L -567,-508 L -564,-512 L -558,-515 L -555,-521 L -545,-525 L -538,-526 L -531,-528 L -527,-529 L -524,-528 L -522,-524 L -521,-522 L -520,-521 L -520,-520 L -520,-519 L -519,-519 L -519,-518 L -519,-517 L -520,-516 L -518,-513 L -517,-512 L -516,-512 L -515,-512 L -514,-512 L -514,-511 L -513,-511 L -512,-511 L -511,-511 L -510,-511 L -509,-511 L -508,-511 L -507,-511 L -506,-511 L -505,-511 L -504,-511 L -503,-511 L -502,-511 L -501,-511 L -500,-511 L -500,-510 L -499,-510 L -498,-510 L -497,-510 L -496,-509 L -495,-509 L -494,-509 L -493,-508 L -492,-508 L -492,-507 L -491,-507 L -491,-506 L -490,-506 L -490,-507 L -491,-508 L -491,-509 L -492,-510 L -492,-511 L -492,-512 L -491,-513 L -490,-513 L -486,-514 L -485,-515 L -483,-517 L -476,-522 L -475,-526 L -474,-532 L -474,-533 L -474,-534 L -473,-535 L -473,-537 L -471,-540 L -470,-542 L -470,-543 L -469,-543 L -469,-544 L -468,-544 L -468,-545 L -468,-546 L -467,-546 L -465,-548 L -464,-550 L -462,-554 L -461,-557 L -456,-564 L -454,-567 L -451,-570 L -450,-574 L -448,-577 L -446,-579 L -444,-580 L -439,-584 L -436,-587 L -434,-588 L -433,-590 L -432,-592 L -432,-593 L -431,-593 L -432,-594 L -431,-594 L -431,-595 L -430,-596 L -430,-597 L -429,-597 L -429,-598 L -429,-599 L -428,-599 L -428,-600 L -428,-601 L -428,-602 L -428,-603 L -428,-604 L -427,-604 L -428,-604 L -427,-604 L -427,-605 L -426,-605 L -426,-606 L -426,-607 L -427,-607 L -427,-608 L -426,-608 L -426,-609 L -426,-610 L -427,-611 L -427,-612 L -427,-613 L -426,-613 L -426,-614 L -426,-615 L -425,-615 L -425,-616 L -425,-617 L -425,-618 L -425,-619 L -425,-620 L -425,-621 L -424,-621 L -424,-622 L -423,-622 L -422,-622 L -422,-623 L -421,-623 L -421,-624 L -421,-625 L -420,-625 L -420,-626 L -419,-626 L -418,-626 L -417,-626 L -417,-627 L -416,-627 L -417,-627 L -417,-628 L -417,-629 L -416,-629 L -415,-629 " /></g>
</svg>
