<?xml version="1.0" standalone="no"?><!DOCTYPE svg PUBLIC "-//W3C//DTD SVG 1.1//EN" "http://www.w3.org/Graphics/SVG/1.1/DTD/svg11.dtd"><svg xmlns="http://www.w3.org/2000/svg" viewBox="-491 -169 20 14" version = "1.1">
<g id="21703" ><path d="M -481,-162 L -480,-162 L -480,-163 L -480,-162 L -479,-162 L -479,-161 L -480,-161 L -479,-161 L -478,-161 L -478,-160 L -477,-160 L -477,-161 L -476,-161 L -476,-160 L -475,-160 L -475,-159 L -475,-160 L -474,-160 L -474,-159 L -473,-159 L -472,-159 L -471,-159 L -472,-158 L -473,-156 L -474,-155 L -475,-155 L -475,-156 L -476,-156 L -477,-156 L -478,-156 L -479,-156 L -480,-156 L -481,-156 L -481,-155 L -482,-155 L -484,-157 L -484,-156 L -487,-156 L -487,-157 L -488,-156 L -487,-158 L -488,-161 L -489,-163 L -489,-164 L -490,-164 L -490,-165 L -490,-166 L -491,-166 L -491,-167 L -490,-168 L -488,-168 L -487,-168 L -485,-169 L -485,-168 L -484,-167 L -484,-166 L -483,-165 L -483,-164 L -483,-163 L -482,-162 L -481,-162 " /></g>
</svg>
