<?xml version="1.0" standalone="no"?><!DOCTYPE svg PUBLIC "-//W3C//DTD SVG 1.1//EN" "http://www.w3.org/Graphics/SVG/1.1/DTD/svg11.dtd"><svg xmlns="http://www.w3.org/2000/svg" viewBox="-574 -236 89 91" version = "1.1">
<g id="21701" ><path d="M -540,-202 L -539,-202 L -538,-202 L -538,-201 L -537,-201 L -536,-201 L -535,-201 L -534,-201 L -534,-200 L -534,-199 L -533,-199 L -533,-198 L -532,-198 L -532,-199 L -531,-199 L -531,-198 L -530,-198 L -530,-197 L -529,-197 L -529,-196 L -528,-196 L -527,-196 L -527,-195 L -526,-195 L -525,-195 L -525,-194 L -524,-194 L -524,-193 L -523,-193 L -523,-192 L -522,-192 L -522,-191 L -521,-191 L -520,-191 L -520,-190 L -519,-190 L -518,-190 L -517,-190 L -516,-190 L -515,-190 L -515,-189 L -514,-189 L -513,-189 L -512,-189 L -512,-188 L -511,-188 L -511,-187 L -510,-187 L -509,-187 L -508,-187 L -507,-186 L -506,-186 L -506,-185 L -505,-185 L -504,-185 L -504,-184 L -503,-184 L -502,-184 L -501,-184 L -501,-183 L -500,-183 L -499,-183 L -499,-182 L -498,-182 L -498,-181 L -498,-180 L -497,-180 L -496,-180 L -496,-179 L -495,-179 L -495,-178 L -494,-178 L -493,-178 L -493,-177 L -492,-177 L -491,-177 L -491,-176 L -490,-175 L -489,-175 L -489,-174 L -488,-174 L -488,-173 L -487,-172 L -487,-171 L -487,-170 L -486,-170 L -486,-169 L -485,-169 L -487,-168 L -488,-168 L -490,-168 L -491,-167 L -491,-166 L -490,-166 L -490,-165 L -490,-164 L -489,-164 L -489,-163 L -488,-161 L -487,-158 L -488,-156 L -489,-157 L -491,-157 L -492,-155 L -496,-154 L -498,-152 L -499,-149 L -499,-147 L -500,-147 L -502,-146 L -503,-149 L -505,-151 L -508,-152 L -511,-153 L -515,-155 L -517,-151 L -518,-150 L -520,-149 L -521,-148 L -522,-147 L -524,-147 L -525,-146 L -528,-145 L -530,-145 L -530,-146 L -529,-146 L -529,-147 L -528,-147 L -528,-148 L -528,-149 L -527,-149 L -528,-149 L -528,-150 L -528,-151 L -529,-151 L -529,-152 L -529,-151 L -530,-151 L -530,-152 L -531,-152 L -531,-151 L -532,-152 L -532,-153 L -531,-153 L -532,-153 L -531,-153 L -532,-153 L -532,-154 L -532,-155 L -533,-155 L -534,-155 L -535,-155 L -536,-155 L -536,-156 L -537,-156 L -537,-155 L -537,-154 L -538,-154 L -539,-154 L -539,-155 L -538,-155 L -538,-156 L -538,-157 L -538,-158 L -537,-159 L -537,-160 L -536,-160 L -535,-160 L -534,-160 L -533,-161 L -532,-161 L -531,-161 L -530,-161 L -529,-161 L -529,-162 L -528,-162 L -528,-163 L -527,-163 L -527,-164 L -526,-164 L -526,-165 L -526,-166 L -527,-166 L -527,-167 L -527,-168 L -526,-168 L -525,-168 L -524,-168 L -523,-168 L -523,-169 L -522,-169 L -522,-170 L -521,-170 L -521,-171 L -521,-172 L -522,-172 L -522,-173 L -522,-174 L -523,-174 L -524,-174 L -524,-175 L -525,-175 L -525,-176 L -526,-176 L -525,-176 L -526,-176 L -526,-177 L -527,-177 L -527,-178 L -527,-179 L -526,-179 L -526,-178 L -525,-178 L -524,-178 L -524,-179 L -524,-180 L -524,-181 L -524,-182 L -525,-182 L -526,-182 L -526,-183 L -527,-183 L -527,-184 L -528,-184 L -528,-185 L -527,-185 L -527,-186 L -527,-187 L -528,-187 L -529,-187 L -529,-186 L -530,-186 L -530,-187 L -529,-187 L -529,-188 L -530,-188 L -530,-187 L -531,-187 L -532,-187 L -532,-188 L -533,-188 L -534,-188 L -535,-188 L -535,-189 L -535,-190 L -536,-190 L -537,-190 L -536,-190 L -537,-190 L -537,-191 L -538,-191 L -538,-192 L -539,-192 L -539,-193 L -540,-193 L -540,-194 L -541,-194 L -541,-195 L -542,-195 L -541,-195 L -541,-194 L -540,-194 L -540,-193 L -539,-193 L -538,-193 L -538,-192 L -537,-192 L -537,-191 L -536,-191 L -536,-190 L -535,-190 L -534,-190 L -534,-189 L -533,-189 L -534,-189 L -534,-190 L -533,-190 L -533,-191 L -534,-191 L -534,-192 L -535,-192 L -535,-193 L -535,-194 L -536,-194 L -536,-195 L -537,-195 L -537,-196 L -537,-197 L -537,-196 L -538,-196 L -538,-197 L -538,-198 L -539,-198 L -538,-198 L -539,-198 L -539,-199 L -540,-199 L -539,-199 L -539,-200 L -540,-200 L -540,-201 L -540,-202 L -541,-202 L -540,-202 " /><path d="M -542,-204 L -543,-204 L -542,-204 " /><path d="M -519,-208 L -518,-208 L -518,-207 L -517,-207 L -517,-206 L -517,-205 L -517,-206 L -518,-206 L -519,-206 L -520,-206 L -520,-207 L -521,-207 L -521,-208 L -522,-208 L -522,-209 L -523,-209 L -523,-210 L -523,-211 L -523,-210 L -522,-210 L -522,-209 L -521,-209 L -520,-209 L -520,-208 L -519,-208 " /><path d="M -571,-223 L -570,-223 L -569,-223 L -569,-222 L -568,-222 L -569,-222 L -570,-222 L -570,-223 L -571,-223 " /><path d="M -555,-226 L -555,-225 L -555,-226 L -556,-226 L -555,-226 " /><path d="M -561,-227 L -560,-227 L -560,-226 L -560,-225 L -559,-225 L -558,-225 L -559,-225 L -558,-225 L -559,-225 L -559,-224 L -559,-223 L -559,-222 L -558,-222 L -557,-222 L -557,-223 L -557,-222 L -557,-223 L -557,-224 L -556,-224 L -556,-225 L -556,-224 L -555,-224 L -555,-225 L -555,-224 L -554,-224 L -554,-223 L -553,-223 L -553,-222 L -552,-222 L -553,-222 L -554,-222 L -555,-222 L -555,-223 L -556,-223 L -556,-222 L -557,-222 L -557,-221 L -557,-220 L -556,-220 L -556,-219 L -555,-219 L -555,-218 L -554,-218 L -555,-218 L -554,-218 L -554,-217 L -553,-217 L -552,-217 L -552,-218 L -551,-218 L -550,-218 L -550,-219 L -551,-219 L -550,-219 L -550,-220 L -550,-219 L -549,-219 L -549,-218 L -549,-217 L -548,-217 L -548,-216 L -549,-216 L -549,-215 L -548,-215 L -548,-214 L -547,-214 L -546,-214 L -545,-214 L -545,-213 L -544,-213 L -545,-213 L -545,-212 L -544,-212 L -544,-211 L -544,-210 L -545,-210 L -544,-210 L -544,-209 L -544,-208 L -544,-207 L -544,-206 L -544,-205 L -544,-204 L -543,-204 L -543,-203 L -544,-203 L -545,-203 L -545,-204 L -545,-205 L -546,-205 L -546,-206 L -547,-206 L -547,-207 L -547,-208 L -548,-208 L -549,-208 L -549,-209 L -550,-209 L -550,-208 L -550,-209 L -551,-209 L -551,-210 L -552,-210 L -552,-211 L -553,-211 L -554,-211 L -555,-211 L -555,-210 L -554,-210 L -554,-209 L -553,-209 L -553,-208 L -554,-208 L -553,-208 L -553,-207 L -553,-206 L -552,-206 L -552,-205 L -552,-204 L -551,-204 L -551,-203 L -551,-202 L -550,-202 L -551,-202 L -551,-203 L -552,-203 L -552,-204 L -553,-204 L -553,-205 L -554,-205 L -554,-206 L -554,-207 L -554,-208 L -555,-208 L -556,-208 L -556,-209 L -557,-209 L -558,-209 L -558,-210 L -559,-210 L -559,-211 L -560,-211 L -560,-212 L -560,-213 L -561,-213 L -561,-214 L -561,-215 L -562,-215 L -562,-216 L -563,-216 L -563,-217 L -563,-218 L -564,-218 L -564,-219 L -563,-219 L -563,-218 L -562,-218 L -562,-217 L -561,-217 L -560,-217 L -560,-218 L -560,-219 L -560,-220 L -561,-220 L -561,-221 L -562,-221 L -562,-222 L -563,-222 L -563,-223 L -564,-223 L -564,-224 L -565,-224 L -566,-224 L -567,-224 L -567,-223 L -567,-224 L -567,-225 L -568,-225 L -568,-226 L -567,-226 L -566,-226 L -565,-226 L -565,-225 L -564,-225 L -564,-226 L -563,-226 L -563,-225 L -562,-225 L -562,-224 L -561,-224 L -561,-225 L -560,-225 L -561,-225 L -561,-226 L -560,-226 L -561,-226 L -561,-227 L -561,-228 L -561,-227 " /><path d="M -560,-229 L -560,-228 L -560,-229 " /><path d="M -566,-232 L -565,-232 L -565,-231 L -566,-231 L -566,-232 " /><path d="M -574,-232 L -573,-232 L -574,-232 L -573,-232 L -574,-232 " /><path d="M -569,-236 L -569,-235 L -568,-235 L -569,-235 L -569,-236 " /></g>
</svg>
