<?xml version="1.0" standalone="no"?><!DOCTYPE svg PUBLIC "-//W3C//DTD SVG 1.1//EN" "http://www.w3.org/Graphics/SVG/1.1/DTD/svg11.dtd"><svg xmlns="http://www.w3.org/2000/svg" viewBox="-125 296 129 113" version = "1.1">
<g id="21802" ><path d="M -121,384 L -122,381 L -125,375 L -120,373 L -118,371 L -115,371 L -115,368 L -114,368 L -114,367 L -114,366 L -114,365 L -114,364 L -114,363 L -115,363 L -116,362 L -116,361 L -115,361 L -115,360 L -116,360 L -116,359 L -116,358 L -116,357 L -117,357 L -118,357 L -117,356 L -116,355 L -115,355 L -114,356 L -113,356 L -111,356 L -108,355 L -106,355 L -105,354 L -103,354 L -103,353 L -102,353 L -102,352 L -102,351 L -102,350 L -102,349 L -102,348 L -103,347 L -103,346 L -103,345 L -103,344 L -104,343 L -104,342 L -104,341 L -105,340 L -105,339 L -106,338 L -106,337 L -106,336 L -106,335 L -106,334 L -106,333 L -106,332 L -106,331 L -106,330 L -106,329 L -105,329 L -104,329 L -103,329 L -103,328 L -102,328 L -101,328 L -100,328 L -99,328 L -97,324 L -96,324 L -96,323 L -95,324 L -95,323 L -94,323 L -93,323 L -92,323 L -91,324 L -91,325 L -90,325 L -90,326 L -89,326 L -88,326 L -87,325 L -86,325 L -85,324 L -84,324 L -83,324 L -83,323 L -83,322 L -82,321 L -82,320 L -80,315 L -94,308 L -92,299 L -92,298 L -91,298 L -91,299 L -90,299 L -89,299 L -88,299 L -87,299 L -86,299 L -85,299 L -84,299 L -83,299 L -82,299 L -81,299 L -80,300 L -80,301 L -79,301 L -78,301 L -77,301 L -76,301 L -74,301 L -73,301 L -72,302 L -70,301 L -68,300 L -67,300 L -66,300 L -64,300 L -63,300 L -62,300 L -62,299 L -61,299 L -60,298 L -59,298 L -57,297 L -56,296 L -55,296 L -54,296 L -53,296 L -52,297 L -51,298 L -50,298 L -49,298 L -48,298 L -47,298 L -46,298 L -45,298 L -44,297 L -43,297 L -41,297 L -40,297 L -38,297 L -36,298 L -35,298 L -34,298 L -33,297 L -31,297 L -31,298 L -30,298 L -29,299 L -29,301 L -28,302 L -27,304 L -26,305 L -24,307 L -24,308 L -22,309 L -20,310 L -19,311 L -18,312 L -17,312 L -16,312 L -15,312 L -14,312 L -13,312 L -12,311 L -11,311 L -10,310 L -9,310 L -8,311 L -7,312 L -5,313 L -4,313 L -3,314 L -2,314 L -2,315 L -2,316 L -3,318 L -2,319 L -2,320 L -2,321 L 0,323 L 0,324 L 0,326 L 1,326 L 1,327 L 2,328 L 3,329 L 4,329 L 4,330 L 4,331 L 4,332 L 3,333 L 3,335 L 3,336 L 2,337 L 1,338 L 1,339 L -3,340 L -12,350 L -21,353 L -21,366 L -21,371 L -22,371 L -37,370 L -39,369 L -41,368 L -52,370 L -53,375 L -60,383 L -62,398 L -65,400 L -68,401 L -70,402 L -73,404 L -76,405 L -77,405 L -77,406 L -78,406 L -79,406 L -79,407 L -80,407 L -81,408 L -84,408 L -86,409 L -87,409 L -88,409 L -89,409 L -90,409 L -92,408 L -93,408 L -94,408 L -94,407 L -95,407 L -96,407 L -96,406 L -97,406 L -97,405 L -98,405 L -98,404 L -99,404 L -99,403 L -100,403 L -101,403 L -101,402 L -101,403 L -101,402 L -102,402 L -102,401 L -102,400 L -102,399 L -103,399 L -104,399 L -104,398 L -104,399 L -104,398 L -104,399 L -105,399 L -105,398 L -107,396 L -108,395 L -108,394 L -108,393 L -109,393 L -109,392 L -110,392 L -111,392 L -111,391 L -110,391 L -111,391 L -111,390 L -112,390 L -113,390 L -114,390 L -114,389 L -113,389 L -114,388 L -113,388 L -113,387 L -114,387 L -115,387 L -115,386 L -116,386 L -117,386 L -118,386 L -118,385 L -119,385 L -120,385 L -120,384 L -121,384 " /></g>
</svg>
