<?xml version="1.0" standalone="no"?><!DOCTYPE svg PUBLIC "-//W3C//DTD SVG 1.1//EN" "http://www.w3.org/Graphics/SVG/1.1/DTD/svg11.dtd"><svg xmlns="http://www.w3.org/2000/svg" viewBox="-224 272 144 112" version = "1.1">
<g id="21801" ><path d="M -164,273 L -163,273 L -162,273 L -161,273 L -160,273 L -159,273 L -158,273 L -157,273 L -156,274 L -156,275 L -156,276 L -155,276 L -155,277 L -154,279 L -154,281 L -153,282 L -153,283 L -153,284 L -152,285 L -150,286 L -148,288 L -147,288 L -146,289 L -145,289 L -144,289 L -143,290 L -142,291 L -140,292 L -138,292 L -136,291 L -135,292 L -134,292 L -132,293 L -130,294 L -129,295 L -128,295 L -126,296 L -125,297 L -124,298 L -123,299 L -122,299 L -121,299 L -120,299 L -119,300 L -118,300 L -117,300 L -116,300 L -115,300 L -114,300 L -112,300 L -111,300 L -110,299 L -109,299 L -108,299 L -107,299 L -106,298 L -105,298 L -105,299 L -104,299 L -103,299 L -102,300 L -101,300 L -100,299 L -99,299 L -99,298 L -98,298 L -97,297 L -96,297 L -95,297 L -94,297 L -93,298 L -92,298 L -92,299 L -94,308 L -80,315 L -82,320 L -82,321 L -83,322 L -83,323 L -83,324 L -84,324 L -85,324 L -86,325 L -87,325 L -88,326 L -89,326 L -90,326 L -90,325 L -91,325 L -91,324 L -92,323 L -93,323 L -94,323 L -95,323 L -95,324 L -96,323 L -96,324 L -97,324 L -99,328 L -100,328 L -101,328 L -102,328 L -103,328 L -103,329 L -104,329 L -105,329 L -106,329 L -106,330 L -106,331 L -106,332 L -106,333 L -106,334 L -106,335 L -106,336 L -106,337 L -106,338 L -105,339 L -105,340 L -104,341 L -104,342 L -104,343 L -103,344 L -103,345 L -103,346 L -103,347 L -102,348 L -102,349 L -102,350 L -102,351 L -102,352 L -102,353 L -103,353 L -103,354 L -105,354 L -106,355 L -108,355 L -111,356 L -113,356 L -114,356 L -115,355 L -116,355 L -117,356 L -118,357 L -117,357 L -116,357 L -116,358 L -116,359 L -116,360 L -115,360 L -115,361 L -116,361 L -116,362 L -115,363 L -114,363 L -114,364 L -114,365 L -114,366 L -114,367 L -114,368 L -115,368 L -115,371 L -118,371 L -120,373 L -125,375 L -122,381 L -121,384 L -122,384 L -128,379 L -136,376 L -140,373 L -146,370 L -148,367 L -149,365 L -149,364 L -149,363 L -149,362 L -149,361 L -149,360 L -150,359 L -150,360 L -151,360 L -152,360 L -152,361 L -153,361 L -153,362 L -154,362 L -155,362 L -156,362 L -157,362 L -158,362 L -158,361 L -159,361 L -159,362 L -160,362 L -161,362 L -166,360 L -167,360 L -179,355 L -185,355 L -189,354 L -193,350 L -194,348 L -196,347 L -201,344 L -203,343 L -206,340 L -208,338 L -215,336 L -220,334 L -222,334 L -224,333 L -221,332 L -220,332 L -216,329 L -214,328 L -213,327 L -213,326 L -213,325 L -212,325 L -212,324 L -212,323 L -211,323 L -210,323 L -211,323 L -210,323 L -209,323 L -209,322 L -209,323 L -208,323 L -208,322 L -208,323 L -208,322 L -207,322 L -207,321 L -206,321 L -206,320 L -205,320 L -205,319 L -205,318 L -204,318 L -204,317 L -203,317 L -199,319 L -200,316 L -199,315 L -198,315 L -198,314 L -197,314 L -197,313 L -196,313 L -196,312 L -196,311 L -195,311 L -194,311 L -194,310 L -194,309 L -193,309 L -193,308 L -192,308 L -192,307 L -193,306 L -193,305 L -193,304 L -193,303 L -193,302 L -192,302 L -192,301 L -192,300 L -192,299 L -192,298 L -191,298 L -188,297 L -188,296 L -187,295 L -186,294 L -186,293 L -185,293 L -184,293 L -184,292 L -183,292 L -183,291 L -178,285 L -178,284 L -172,282 L -171,282 L -169,282 L -169,281 L -169,280 L -169,279 L -169,278 L -168,278 L -168,277 L -167,277 L -167,276 L -166,273 L -166,272 L -165,273 L -164,273 " /></g>
</svg>
