<?xml version="1.0" standalone="no"?><!DOCTYPE svg PUBLIC "-//W3C//DTD SVG 1.1//EN" "http://www.w3.org/Graphics/SVG/1.1/DTD/svg11.dtd"><svg xmlns="http://www.w3.org/2000/svg" viewBox="-257 252 91 87" version = "1.1">
<g id="21803" ><path d="M -212,257 L -211,257 L -211,258 L -211,259 L -211,260 L -210,260 L -210,261 L -209,261 L -209,262 L -208,263 L -209,264 L -209,265 L -210,265 L -209,266 L -209,267 L -208,267 L -208,268 L -208,269 L -206,268 L -205,268 L -203,268 L -201,268 L -200,269 L -198,270 L -197,271 L -196,273 L -196,274 L -195,275 L -194,276 L -193,277 L -192,277 L -191,277 L -190,277 L -189,277 L -188,277 L -185,278 L -182,277 L -179,277 L -177,276 L -176,276 L -175,275 L -174,275 L -173,274 L -172,273 L -171,272 L -169,272 L -168,272 L -167,272 L -166,272 L -166,273 L -167,276 L -167,277 L -168,277 L -168,278 L -169,278 L -169,279 L -169,280 L -169,281 L -169,282 L -171,282 L -172,282 L -178,284 L -178,285 L -183,291 L -183,292 L -184,292 L -184,293 L -185,293 L -186,293 L -186,294 L -187,295 L -188,296 L -188,297 L -191,298 L -192,298 L -192,299 L -192,300 L -192,301 L -192,302 L -193,302 L -193,303 L -193,304 L -193,305 L -193,306 L -192,307 L -192,308 L -193,308 L -193,309 L -194,309 L -194,310 L -194,311 L -195,311 L -196,311 L -196,312 L -196,313 L -197,313 L -197,314 L -198,314 L -198,315 L -199,315 L -200,316 L -199,319 L -203,317 L -204,317 L -204,318 L -205,318 L -205,319 L -205,320 L -206,320 L -206,321 L -207,321 L -207,322 L -208,322 L -208,323 L -208,322 L -208,323 L -209,323 L -209,322 L -209,323 L -210,323 L -211,323 L -210,323 L -211,323 L -212,323 L -212,324 L -212,325 L -213,325 L -213,326 L -213,327 L -214,328 L -216,329 L -220,332 L -221,332 L -224,333 L -224,334 L -224,335 L -224,336 L -225,336 L -225,337 L -226,337 L -227,337 L -227,338 L -228,338 L -228,339 L -229,339 L -230,339 L -230,338 L -231,338 L -232,336 L -233,334 L -234,334 L -235,333 L -236,332 L -237,331 L -238,331 L -239,331 L -240,331 L -241,330 L -243,329 L -245,328 L -246,328 L -247,328 L -248,329 L -250,329 L -250,330 L -251,330 L -251,329 L -252,328 L -252,326 L -253,325 L -255,323 L -256,322 L -256,321 L -257,321 L -257,320 L -255,317 L -254,315 L -254,314 L -254,313 L -254,312 L -254,311 L -253,311 L -253,309 L -253,308 L -252,307 L -251,307 L -250,307 L -247,307 L -247,306 L -247,305 L -246,305 L -246,304 L -246,303 L -246,302 L -246,301 L -246,300 L -246,299 L -246,298 L -246,297 L -245,296 L -244,296 L -243,297 L -243,296 L -242,296 L -242,295 L -241,295 L -241,294 L -240,294 L -240,293 L -239,291 L -239,290 L -241,289 L -242,289 L -242,288 L -243,288 L -243,287 L -243,286 L -243,285 L -242,285 L -242,284 L -241,284 L -240,283 L -239,282 L -237,282 L -235,282 L -233,281 L -231,280 L -228,277 L -226,275 L -225,274 L -225,273 L -226,271 L -227,268 L -227,267 L -228,265 L -227,263 L -227,262 L -226,262 L -225,261 L -224,261 L -224,260 L -224,259 L -223,259 L -223,258 L -222,258 L -222,257 L -223,257 L -222,257 L -222,256 L -223,256 L -222,256 L -222,255 L -221,255 L -220,255 L -216,252 L -215,255 L -214,255 L -214,256 L -213,256 L -213,257 L -212,257 " /></g>
</svg>
