<?xml version="1.0" standalone="no"?><!DOCTYPE svg PUBLIC "-//W3C//DTD SVG 1.1//EN" "http://www.w3.org/Graphics/SVG/1.1/DTD/svg11.dtd"><svg xmlns="http://www.w3.org/2000/svg" viewBox="-653 100 152 179" version = "1.1">
<g id="21901" ><path d="M -603,100 L -601,104 L -601,105 L -600,105 L -599,106 L -598,106 L -592,105 L -591,106 L -565,114 L -560,115 L -554,117 L -553,118 L -552,118 L -551,119 L -546,121 L -540,127 L -525,135 L -521,137 L -515,140 L -514,141 L -513,142 L -512,143 L -511,143 L -511,144 L -510,144 L -509,145 L -508,146 L -506,147 L -504,148 L -503,148 L -502,149 L -502,151 L -502,155 L -502,156 L -502,157 L -501,157 L -501,158 L -501,159 L -502,159 L -502,160 L -502,161 L -502,162 L -502,163 L -503,163 L -503,164 L -504,164 L -505,165 L -506,165 L -506,166 L -507,166 L -507,165 L -508,166 L -509,167 L -510,167 L -511,168 L -512,168 L -515,166 L -517,165 L -518,164 L -520,164 L -521,163 L -523,164 L -523,165 L -524,166 L -525,166 L -525,167 L -526,167 L -527,167 L -528,167 L -529,167 L -529,168 L -530,168 L -530,169 L -530,170 L -530,171 L -531,171 L -531,172 L -532,172 L -532,173 L -533,173 L -533,174 L -534,174 L -535,175 L -536,175 L -537,175 L -537,176 L -538,176 L -539,176 L -539,177 L -539,178 L -540,178 L -540,179 L -541,179 L -541,180 L -542,180 L -543,180 L -545,182 L -546,183 L -546,184 L -546,186 L -545,187 L -544,188 L -545,190 L -545,191 L -547,191 L -549,191 L -553,192 L -557,193 L -558,193 L -559,193 L -560,194 L -560,195 L -560,196 L -558,197 L -557,198 L -556,199 L -554,202 L -554,204 L -553,205 L -554,205 L -554,206 L -555,206 L -556,206 L -556,207 L -556,208 L -556,209 L -556,210 L -555,211 L -556,211 L -556,212 L -555,212 L -555,213 L -555,214 L -555,215 L -556,215 L -557,216 L -558,215 L -559,215 L -560,214 L -564,215 L -567,217 L -568,218 L -568,219 L -568,220 L -569,220 L -569,221 L -569,222 L -570,223 L -571,224 L -572,224 L -573,225 L -573,226 L -574,226 L -573,227 L -573,228 L -574,228 L -574,229 L -575,229 L -575,230 L -576,230 L -576,231 L -576,232 L -576,233 L -577,233 L -577,234 L -577,235 L -578,235 L -578,236 L -579,236 L -579,237 L -580,237 L -581,237 L -581,236 L -582,236 L -583,237 L -584,236 L -585,236 L -586,236 L -587,236 L -588,236 L -589,236 L -589,235 L -590,236 L -591,236 L -592,236 L -592,237 L -593,237 L -594,237 L -595,237 L -595,238 L -595,239 L -595,240 L -595,241 L -596,242 L -597,243 L -598,243 L -599,244 L -600,245 L -601,245 L -602,246 L -602,247 L -602,248 L -601,248 L -601,249 L -600,249 L -599,249 L -598,250 L -597,250 L -596,250 L -596,251 L -596,252 L -595,252 L -595,253 L -594,253 L -594,254 L -594,255 L -593,255 L -593,256 L -594,256 L -594,257 L -594,258 L -595,258 L -595,259 L -596,259 L -597,259 L -598,259 L -598,260 L -599,260 L -600,260 L -600,259 L -601,259 L -601,258 L -602,258 L -603,258 L -604,258 L -605,258 L -606,258 L -606,257 L -607,257 L -607,258 L -607,259 L -607,260 L -607,261 L -607,262 L -607,263 L -608,265 L -608,266 L -609,266 L -609,267 L -610,267 L -611,267 L -612,267 L -613,267 L -614,266 L -615,265 L -616,265 L -617,265 L -618,264 L -619,264 L -620,264 L -621,264 L -622,264 L -623,264 L -623,265 L -624,265 L -625,265 L -626,265 L -627,265 L -628,264 L -629,264 L -629,265 L -629,266 L -630,267 L -630,268 L -630,269 L -631,269 L -631,270 L -632,270 L -633,270 L -634,270 L -635,270 L -636,270 L -641,271 L -642,272 L -646,274 L -653,279 L -653,259 L -653,253 L -652,253 L -651,253 L -650,253 L -650,254 L -649,254 L -649,255 L -648,255 L -648,254 L -647,254 L -646,254 L -645,254 L -644,254 L -643,254 L -644,254 L -643,254 L -643,253 L -642,253 L -642,252 L -641,252 L -641,251 L -640,251 L -639,251 L -639,250 L -638,250 L -638,249 L -637,249 L -637,248 L -636,248 L -636,247 L -635,247 L -634,247 L -634,246 L -633,246 L -632,246 L -632,245 L -631,245 L -631,244 L -630,244 L -630,243 L -630,242 L -630,241 L -629,241 L -629,240 L -628,239 L -625,238 L -624,237 L -623,236 L -622,235 L -621,235 L -618,230 L -620,226 L -631,219 L -630,213 L -635,210 L -640,205 L -638,201 L -638,196 L -639,194 L -638,192 L -636,192 L -635,191 L -633,189 L -633,188 L -633,187 L -629,184 L -625,179 L -619,170 L -618,169 L -617,167 L -618,167 L -618,166 L -619,166 L -619,165 L -620,165 L -621,164 L -622,164 L -623,164 L -623,165 L -624,165 L -625,165 L -626,165 L -626,164 L -626,163 L -627,163 L -627,162 L -628,163 L -629,163 L -629,162 L -630,162 L -635,160 L -637,158 L -639,155 L -639,153 L -639,152 L -640,152 L -640,151 L -641,151 L -633,147 L -632,147 L -628,144 L -621,138 L -621,135 L -621,133 L -621,131 L -621,130 L -622,129 L -623,128 L -623,127 L -624,127 L -624,126 L -625,126 L -625,125 L -625,124 L -626,124 L -626,123 L -627,123 L -628,123 L -628,122 L -628,121 L -628,120 L -627,120 L -627,119 L -626,119 L -626,118 L -625,117 L -625,116 L -624,116 L -624,115 L -623,115 L -623,114 L -622,114 L -622,113 L -621,113 L -621,112 L -621,111 L -620,111 L -620,110 L -619,110 L -617,110 L -613,110 L -610,109 L -609,108 L -608,107 L -608,106 L -608,105 L -607,104 L -607,103 L -606,102 L -606,101 L -606,100 L -603,100 " /></g>
</svg>
