<?xml version="1.0" standalone="no"?><!DOCTYPE svg PUBLIC "-//W3C//DTD SVG 1.1//EN" "http://www.w3.org/Graphics/SVG/1.1/DTD/svg11.dtd"><svg xmlns="http://www.w3.org/2000/svg" viewBox="-713 145 96 110" version = "1.1">
<g id="21902" ><path d="M -628,163 L -627,162 L -627,163 L -626,163 L -626,164 L -626,165 L -625,165 L -624,165 L -623,165 L -623,164 L -622,164 L -621,164 L -620,165 L -619,165 L -619,166 L -618,166 L -618,167 L -617,167 L -618,169 L -619,170 L -625,179 L -629,184 L -633,187 L -633,188 L -633,189 L -635,191 L -636,192 L -638,192 L -639,194 L -638,196 L -638,201 L -640,205 L -635,210 L -630,213 L -631,219 L -620,226 L -618,230 L -621,235 L -622,235 L -623,236 L -624,237 L -625,238 L -628,239 L -629,240 L -629,241 L -630,241 L -630,242 L -630,243 L -630,244 L -631,244 L -631,245 L -632,245 L -632,246 L -633,246 L -634,246 L -634,247 L -635,247 L -636,247 L -636,248 L -637,248 L -637,249 L -638,249 L -638,250 L -639,250 L -639,251 L -640,251 L -641,251 L -641,252 L -642,252 L -642,253 L -643,253 L -643,254 L -644,254 L -643,254 L -644,254 L -645,254 L -646,254 L -647,254 L -648,254 L -648,255 L -649,255 L -649,254 L -650,254 L -650,253 L -651,253 L -652,253 L -653,253 L -653,239 L -668,228 L -689,211 L -711,210 L -711,209 L -712,209 L -712,208 L -713,208 L -712,208 L -712,207 L -711,207 L -710,206 L -710,205 L -710,204 L -707,205 L -706,204 L -705,203 L -703,201 L -701,197 L -700,192 L -699,191 L -700,190 L -699,190 L -699,189 L -698,188 L -699,188 L -699,187 L -698,187 L -698,186 L -697,186 L -696,185 L -695,185 L -695,184 L -694,184 L -693,184 L -692,184 L -691,184 L -691,183 L -690,183 L -690,182 L -690,181 L -689,181 L -689,180 L -687,179 L -687,178 L -688,176 L -685,173 L -685,172 L -684,171 L -683,169 L -682,169 L -680,168 L -676,167 L -669,164 L -668,163 L -665,160 L -663,158 L -661,156 L -657,152 L -647,145 L -641,151 L -640,151 L -640,152 L -639,152 L -639,153 L -639,155 L -637,158 L -635,160 L -630,162 L -629,162 L -629,163 L -628,163 " /></g>
</svg>
