<?xml version="1.0" standalone="no"?><!DOCTYPE svg PUBLIC "-//W3C//DTD SVG 1.1//EN" "http://www.w3.org/Graphics/SVG/1.1/DTD/svg11.dtd"><svg xmlns="http://www.w3.org/2000/svg" viewBox="-54 -368 146 167" version = "1.1">
<g id="22001" ><path d="M 91,-280 L 91,-279 L 91,-278 L 92,-277 L 92,-276 L 89,-273 L 87,-269 L 79,-257 L 60,-218 L -9,-206 L -26,-203 L -28,-202 L -30,-201 L -31,-201 L -32,-201 L -33,-201 L -33,-202 L -34,-202 L -34,-203 L -34,-204 L -34,-205 L -35,-205 L -35,-206 L -36,-206 L -36,-207 L -36,-208 L -36,-209 L -37,-210 L -38,-210 L -39,-211 L -39,-210 L -40,-210 L -42,-213 L -45,-216 L -48,-218 L -51,-219 L -51,-221 L -50,-225 L -47,-235 L -47,-236 L -46,-236 L -45,-236 L -45,-237 L -44,-237 L -43,-237 L -43,-238 L -42,-238 L -41,-238 L -41,-239 L -40,-239 L -41,-239 L -41,-240 L -42,-240 L -42,-241 L -41,-241 L -41,-242 L -41,-243 L -41,-242 L -41,-243 L -41,-244 L -40,-244 L -40,-245 L -40,-246 L -39,-246 L -38,-246 L -38,-247 L -37,-247 L -37,-248 L -37,-249 L -36,-249 L -35,-249 L -35,-250 L -34,-250 L -34,-251 L -35,-251 L -36,-251 L -36,-252 L -37,-252 L -37,-253 L -37,-254 L -37,-255 L -38,-255 L -38,-256 L -38,-257 L -38,-258 L -37,-258 L -37,-259 L -37,-260 L -38,-260 L -37,-260 L -37,-261 L -38,-261 L -38,-262 L -39,-262 L -39,-263 L -40,-263 L -40,-264 L -41,-264 L -41,-265 L -41,-266 L -42,-266 L -43,-267 L -44,-267 L -44,-268 L -45,-268 L -46,-269 L -46,-270 L -46,-271 L -47,-271 L -46,-271 L -45,-271 L -45,-272 L -44,-272 L -44,-273 L -44,-274 L -44,-275 L -44,-276 L -45,-275 L -45,-276 L -44,-276 L -44,-277 L -45,-277 L -45,-278 L -46,-279 L -46,-280 L -46,-281 L -46,-282 L -45,-283 L -45,-284 L -45,-285 L -46,-286 L -46,-287 L -46,-288 L -46,-289 L -45,-290 L -45,-291 L -44,-293 L -45,-294 L -45,-295 L -46,-295 L -46,-296 L -47,-296 L -47,-297 L -48,-297 L -48,-298 L -47,-298 L -48,-299 L -48,-300 L -49,-300 L -50,-301 L -50,-302 L -51,-302 L -52,-302 L -53,-302 L -53,-303 L -54,-304 L -54,-305 L -53,-306 L -52,-306 L -52,-307 L -52,-306 L -53,-306 L -52,-306 L -52,-305 L -51,-305 L -51,-306 L -50,-306 L -50,-307 L -50,-308 L -49,-308 L -49,-309 L -48,-309 L -47,-309 L -46,-309 L -45,-309 L -45,-310 L -45,-311 L -44,-311 L -44,-312 L -43,-311 L -43,-312 L -42,-312 L -42,-313 L -42,-314 L -41,-314 L -40,-314 L -40,-315 L -43,-319 L -43,-321 L -41,-326 L -39,-328 L -35,-333 L -34,-335 L -31,-344 L -32,-345 L -40,-353 L -39,-354 L -31,-364 L -28,-368 L -24,-364 L -19,-362 L -16,-354 L -13,-348 L -10,-345 L -3,-343 L 10,-335 L 10,-333 L 11,-327 L 21,-325 L 31,-323 L 33,-325 L 36,-327 L 43,-324 L 39,-320 L 43,-318 L 47,-318 L 52,-316 L 59,-309 L 64,-307 L 76,-304 L 86,-304 L 85,-295 L 80,-290 L 79,-287 L 87,-282 L 87,-281 L 88,-281 L 89,-281 L 90,-281 L 91,-281 L 91,-280 " /></g>
</svg>
