<?xml version="1.0" standalone="no"?><!DOCTYPE svg PUBLIC "-//W3C//DTD SVG 1.1//EN" "http://www.w3.org/Graphics/SVG/1.1/DTD/svg11.dtd"><svg xmlns="http://www.w3.org/2000/svg" viewBox="-30 -446 159 166" version = "1.1">
<g id="22002" ><path d="M 7,-440 L 8,-439 L 9,-438 L 10,-436 L 10,-435 L 9,-435 L 8,-434 L 7,-434 L 6,-434 L 6,-433 L 5,-433 L 4,-432 L 2,-432 L 2,-431 L 2,-430 L 2,-429 L 1,-427 L 0,-426 L 0,-425 L -1,-424 L -1,-423 L -2,-423 L -1,-423 L -1,-422 L 0,-422 L 0,-423 L 0,-424 L 2,-424 L 3,-424 L 3,-423 L 4,-422 L 5,-420 L 6,-420 L 7,-420 L 8,-419 L 9,-419 L 10,-419 L 11,-418 L 12,-417 L 11,-415 L 10,-415 L 10,-413 L 10,-412 L 10,-411 L 10,-410 L 11,-409 L 12,-409 L 13,-410 L 14,-412 L 15,-412 L 16,-413 L 17,-413 L 17,-412 L 18,-412 L 18,-411 L 16,-409 L 15,-409 L 15,-408 L 15,-407 L 16,-406 L 16,-405 L 17,-405 L 17,-404 L 17,-403 L 18,-403 L 19,-402 L 19,-401 L 19,-400 L 19,-399 L 19,-398 L 19,-397 L 19,-396 L 20,-395 L 20,-394 L 20,-393 L 21,-393 L 22,-394 L 23,-394 L 25,-393 L 27,-392 L 28,-391 L 29,-391 L 30,-391 L 31,-391 L 31,-390 L 32,-389 L 31,-388 L 31,-387 L 30,-387 L 29,-387 L 29,-386 L 28,-385 L 28,-384 L 28,-383 L 29,-383 L 30,-382 L 32,-382 L 35,-382 L 36,-382 L 37,-382 L 39,-382 L 40,-382 L 41,-382 L 41,-381 L 42,-380 L 42,-379 L 41,-377 L 42,-376 L 42,-375 L 43,-374 L 45,-371 L 48,-369 L 49,-368 L 51,-367 L 53,-367 L 54,-367 L 55,-367 L 56,-367 L 57,-366 L 58,-365 L 59,-365 L 60,-365 L 61,-365 L 62,-365 L 64,-365 L 65,-365 L 66,-364 L 67,-365 L 68,-366 L 69,-366 L 70,-366 L 71,-366 L 72,-366 L 73,-366 L 73,-365 L 73,-364 L 74,-364 L 75,-363 L 76,-362 L 78,-361 L 80,-361 L 81,-361 L 82,-361 L 83,-361 L 84,-360 L 86,-359 L 87,-358 L 89,-358 L 90,-357 L 91,-356 L 93,-356 L 95,-355 L 96,-355 L 97,-354 L 98,-354 L 99,-354 L 99,-353 L 100,-352 L 100,-351 L 100,-350 L 101,-350 L 102,-350 L 103,-350 L 104,-351 L 105,-351 L 106,-351 L 106,-350 L 105,-349 L 105,-348 L 105,-347 L 106,-347 L 107,-347 L 108,-346 L 111,-344 L 112,-343 L 113,-342 L 114,-342 L 116,-342 L 117,-341 L 118,-341 L 119,-341 L 120,-340 L 121,-340 L 122,-339 L 123,-339 L 124,-339 L 125,-339 L 126,-339 L 126,-338 L 127,-338 L 127,-337 L 127,-336 L 128,-335 L 128,-334 L 128,-332 L 128,-331 L 128,-330 L 128,-329 L 128,-328 L 129,-327 L 129,-326 L 129,-325 L 129,-324 L 129,-323 L 129,-322 L 129,-321 L 129,-320 L 129,-319 L 128,-319 L 129,-318 L 129,-317 L 129,-316 L 128,-316 L 128,-315 L 127,-314 L 127,-313 L 127,-312 L 127,-311 L 128,-311 L 128,-310 L 128,-309 L 127,-309 L 126,-309 L 126,-308 L 125,-308 L 125,-309 L 124,-309 L 123,-309 L 122,-308 L 122,-307 L 122,-306 L 121,-306 L 121,-305 L 120,-304 L 119,-304 L 119,-303 L 118,-302 L 118,-301 L 117,-300 L 117,-299 L 117,-298 L 116,-298 L 116,-297 L 115,-297 L 115,-296 L 114,-296 L 114,-295 L 113,-295 L 112,-295 L 111,-295 L 110,-294 L 110,-295 L 109,-295 L 109,-296 L 108,-296 L 107,-296 L 107,-295 L 106,-295 L 105,-294 L 104,-294 L 104,-293 L 103,-293 L 102,-293 L 102,-292 L 101,-292 L 101,-291 L 101,-290 L 100,-290 L 100,-289 L 99,-289 L 99,-288 L 98,-288 L 97,-288 L 97,-287 L 96,-287 L 96,-286 L 95,-285 L 95,-284 L 95,-283 L 95,-282 L 94,-282 L 94,-281 L 94,-282 L 93,-282 L 93,-281 L 92,-280 L 91,-280 L 91,-281 L 90,-281 L 89,-281 L 88,-281 L 87,-281 L 87,-282 L 79,-287 L 80,-290 L 85,-295 L 86,-304 L 76,-304 L 64,-307 L 59,-309 L 52,-316 L 47,-318 L 43,-318 L 39,-320 L 43,-324 L 36,-327 L 33,-325 L 31,-323 L 21,-325 L 11,-327 L 10,-333 L 10,-335 L -3,-343 L -10,-345 L -13,-348 L -16,-354 L -19,-362 L -24,-364 L -28,-368 L -30,-375 L -29,-384 L -17,-403 L -18,-415 L -16,-420 L -16,-425 L -18,-427 L -17,-432 L -10,-439 L -11,-440 L -8,-443 L -2,-446 L 3,-439 L 7,-440 " /></g>
</svg>
