<?xml version="1.0" standalone="no"?><!DOCTYPE svg PUBLIC "-//W3C//DTD SVG 1.1//EN" "http://www.w3.org/Graphics/SVG/1.1/DTD/svg11.dtd"><svg xmlns="http://www.w3.org/2000/svg" viewBox="417 207 69 83" version = "1.1">
<g id="30101" ><path d="M 458,207 L 464,209 L 466,208 L 466,209 L 467,209 L 467,210 L 468,210 L 468,211 L 468,212 L 468,214 L 468,215 L 468,216 L 468,217 L 468,218 L 469,218 L 469,219 L 470,219 L 470,220 L 470,221 L 470,222 L 470,223 L 471,223 L 471,224 L 471,225 L 470,225 L 470,226 L 469,226 L 469,227 L 468,227 L 468,228 L 467,228 L 467,229 L 466,230 L 467,231 L 467,232 L 466,232 L 466,233 L 466,235 L 466,237 L 466,238 L 465,239 L 465,240 L 466,240 L 466,241 L 465,241 L 465,242 L 465,243 L 466,243 L 466,244 L 467,244 L 468,245 L 468,246 L 469,246 L 469,247 L 469,248 L 470,248 L 470,249 L 470,250 L 471,251 L 470,251 L 471,252 L 472,252 L 472,253 L 473,253 L 474,254 L 475,255 L 475,256 L 476,257 L 476,258 L 476,259 L 477,259 L 478,259 L 479,259 L 479,260 L 479,261 L 480,261 L 480,262 L 481,262 L 481,263 L 481,264 L 483,266 L 484,267 L 484,268 L 485,268 L 485,269 L 486,269 L 486,270 L 486,271 L 482,274 L 481,275 L 480,277 L 479,277 L 478,278 L 476,278 L 475,279 L 471,281 L 469,283 L 467,283 L 467,285 L 466,286 L 465,286 L 464,286 L 463,286 L 462,286 L 460,288 L 455,290 L 443,283 L 439,282 L 435,283 L 429,283 L 425,281 L 424,278 L 420,275 L 419,273 L 418,273 L 418,272 L 417,269 L 419,267 L 419,266 L 422,264 L 425,263 L 425,262 L 426,259 L 427,258 L 428,257 L 428,256 L 429,256 L 430,256 L 432,254 L 432,253 L 433,253 L 434,253 L 434,254 L 435,255 L 435,256 L 436,256 L 437,256 L 437,253 L 438,249 L 438,247 L 439,247 L 440,247 L 440,246 L 440,245 L 440,244 L 440,243 L 440,242 L 440,241 L 440,238 L 443,239 L 445,235 L 446,232 L 447,229 L 447,227 L 447,224 L 448,224 L 448,223 L 448,222 L 449,222 L 449,221 L 449,220 L 450,220 L 450,219 L 451,219 L 451,218 L 451,217 L 452,217 L 452,216 L 452,215 L 452,214 L 452,213 L 453,213 L 453,212 L 454,212 L 454,211 L 454,210 L 455,209 L 455,208 L 456,208 L 456,207 L 458,207 " /></g>
</svg>
