<?xml version="1.0" standalone="no"?><!DOCTYPE svg PUBLIC "-//W3C//DTD SVG 1.1//EN" "http://www.w3.org/Graphics/SVG/1.1/DTD/svg11.dtd"><svg xmlns="http://www.w3.org/2000/svg" viewBox="726 424 182 254" version = "1.1">
<g id="30201" ><path d="M 772,425 L 773,425 L 774,425 L 775,426 L 775,427 L 775,428 L 776,428 L 777,428 L 777,427 L 776,427 L 777,427 L 777,426 L 778,426 L 779,426 L 779,427 L 780,427 L 780,428 L 780,429 L 779,429 L 779,430 L 780,430 L 780,431 L 781,432 L 782,432 L 783,432 L 783,433 L 784,433 L 784,434 L 785,434 L 785,433 L 786,433 L 786,434 L 787,434 L 788,434 L 789,434 L 789,435 L 790,435 L 789,436 L 790,437 L 790,436 L 791,437 L 792,437 L 793,437 L 794,437 L 794,438 L 795,439 L 795,440 L 796,441 L 797,441 L 798,441 L 798,442 L 799,442 L 799,443 L 800,443 L 800,444 L 801,444 L 801,445 L 800,445 L 800,446 L 801,447 L 801,448 L 802,449 L 803,449 L 804,449 L 805,449 L 806,449 L 806,450 L 807,450 L 807,451 L 807,452 L 808,452 L 809,452 L 810,452 L 810,453 L 810,452 L 811,452 L 812,452 L 812,453 L 813,453 L 814,453 L 815,453 L 815,454 L 816,455 L 817,455 L 817,456 L 818,456 L 818,457 L 818,458 L 819,458 L 820,458 L 820,459 L 821,459 L 821,460 L 822,460 L 823,460 L 823,461 L 823,460 L 823,459 L 824,459 L 824,458 L 823,458 L 823,457 L 824,457 L 825,457 L 825,458 L 826,458 L 825,459 L 826,460 L 827,460 L 828,461 L 829,461 L 830,461 L 831,460 L 832,460 L 833,460 L 833,461 L 834,461 L 834,462 L 834,463 L 835,463 L 836,463 L 836,462 L 835,461 L 836,461 L 838,464 L 838,466 L 835,469 L 836,471 L 836,473 L 836,475 L 833,479 L 833,485 L 833,489 L 834,492 L 835,494 L 836,494 L 836,495 L 838,495 L 839,495 L 839,494 L 839,492 L 840,492 L 842,492 L 843,492 L 844,492 L 844,493 L 845,493 L 846,492 L 848,493 L 849,493 L 850,493 L 851,493 L 852,493 L 854,491 L 858,490 L 859,492 L 859,494 L 859,495 L 859,496 L 860,498 L 861,498 L 862,502 L 863,503 L 866,505 L 869,506 L 870,507 L 871,508 L 871,509 L 871,510 L 869,511 L 869,513 L 870,513 L 871,514 L 872,515 L 873,516 L 873,518 L 874,519 L 875,519 L 877,519 L 878,520 L 879,521 L 879,522 L 879,524 L 880,526 L 881,528 L 881,529 L 882,530 L 881,532 L 880,534 L 881,536 L 883,535 L 884,536 L 886,538 L 886,541 L 888,543 L 888,544 L 889,546 L 891,546 L 894,546 L 896,544 L 898,545 L 899,547 L 898,552 L 897,555 L 893,556 L 892,558 L 891,559 L 890,560 L 891,563 L 891,569 L 891,573 L 891,574 L 890,574 L 890,575 L 890,576 L 890,577 L 890,578 L 891,578 L 891,579 L 892,579 L 893,579 L 894,578 L 895,578 L 896,579 L 896,580 L 897,580 L 897,581 L 896,581 L 897,582 L 898,582 L 898,583 L 899,583 L 900,583 L 900,584 L 900,585 L 901,585 L 901,586 L 902,586 L 902,587 L 902,588 L 903,588 L 903,589 L 902,589 L 903,590 L 903,591 L 903,592 L 903,593 L 902,593 L 902,594 L 903,594 L 903,595 L 903,596 L 903,597 L 904,597 L 904,598 L 905,598 L 905,599 L 906,599 L 906,600 L 906,601 L 906,602 L 906,603 L 907,603 L 907,604 L 908,604 L 908,605 L 908,606 L 908,607 L 908,608 L 908,609 L 908,610 L 908,611 L 908,612 L 908,613 L 907,613 L 906,613 L 905,613 L 904,614 L 903,614 L 902,614 L 902,613 L 901,613 L 901,612 L 900,612 L 899,612 L 898,612 L 897,612 L 897,613 L 896,613 L 895,613 L 894,613 L 893,612 L 893,613 L 893,614 L 892,614 L 892,615 L 891,615 L 891,614 L 890,614 L 889,615 L 889,614 L 888,613 L 887,613 L 887,614 L 886,614 L 886,615 L 885,615 L 884,615 L 884,616 L 883,616 L 882,617 L 881,617 L 880,617 L 879,617 L 879,618 L 878,618 L 877,618 L 876,618 L 876,619 L 875,620 L 874,621 L 873,621 L 872,621 L 872,622 L 871,622 L 870,622 L 870,623 L 869,623 L 868,623 L 868,624 L 868,625 L 868,626 L 867,627 L 866,627 L 866,628 L 865,628 L 864,628 L 864,629 L 863,629 L 862,629 L 862,630 L 861,630 L 861,631 L 860,631 L 859,631 L 859,632 L 860,633 L 860,634 L 860,635 L 859,635 L 858,635 L 857,636 L 856,636 L 856,635 L 855,636 L 854,636 L 854,637 L 853,637 L 852,637 L 851,637 L 850,637 L 849,637 L 849,638 L 849,637 L 848,637 L 848,636 L 847,636 L 846,637 L 845,637 L 845,638 L 845,639 L 845,640 L 844,641 L 844,642 L 843,642 L 842,642 L 842,643 L 841,643 L 841,644 L 840,644 L 839,645 L 838,646 L 838,647 L 838,648 L 838,649 L 839,650 L 838,650 L 837,650 L 836,650 L 835,650 L 834,650 L 833,651 L 833,652 L 833,653 L 832,654 L 831,654 L 830,655 L 830,656 L 830,657 L 830,658 L 830,659 L 830,660 L 829,660 L 828,660 L 828,661 L 829,661 L 829,662 L 829,663 L 829,664 L 829,665 L 829,666 L 830,667 L 830,668 L 831,668 L 832,668 L 832,667 L 833,667 L 833,668 L 833,669 L 833,670 L 833,671 L 834,672 L 835,673 L 835,674 L 834,675 L 834,676 L 833,676 L 833,677 L 832,677 L 832,678 L 831,678 L 830,678 L 830,677 L 829,676 L 828,676 L 827,676 L 826,676 L 825,675 L 824,674 L 824,673 L 823,673 L 822,672 L 821,671 L 820,671 L 820,670 L 819,670 L 819,671 L 818,671 L 817,671 L 816,671 L 816,670 L 815,670 L 814,670 L 813,670 L 813,669 L 813,668 L 812,668 L 812,667 L 812,666 L 812,665 L 812,664 L 811,664 L 810,663 L 809,663 L 808,663 L 808,662 L 807,662 L 806,662 L 805,662 L 804,662 L 804,661 L 804,660 L 803,660 L 803,659 L 802,659 L 801,659 L 800,658 L 799,658 L 799,657 L 798,657 L 797,656 L 796,655 L 796,654 L 797,654 L 797,653 L 796,653 L 795,653 L 795,654 L 794,655 L 793,655 L 792,655 L 792,654 L 791,654 L 790,654 L 789,655 L 788,655 L 788,656 L 787,656 L 787,657 L 786,657 L 785,657 L 785,656 L 784,656 L 783,657 L 782,657 L 781,657 L 780,658 L 779,658 L 778,659 L 777,659 L 777,658 L 776,657 L 776,656 L 775,655 L 774,655 L 773,654 L 772,654 L 771,655 L 770,655 L 769,655 L 768,655 L 767,655 L 766,655 L 765,655 L 764,654 L 764,653 L 763,653 L 763,652 L 762,652 L 762,651 L 763,650 L 763,649 L 763,648 L 763,647 L 763,646 L 763,645 L 763,644 L 763,643 L 764,642 L 764,641 L 765,640 L 765,639 L 765,638 L 766,638 L 766,637 L 766,636 L 766,635 L 765,634 L 765,633 L 765,632 L 765,631 L 764,630 L 764,629 L 763,629 L 763,628 L 763,627 L 764,627 L 764,626 L 763,625 L 763,624 L 763,623 L 763,622 L 763,621 L 763,619 L 762,619 L 762,618 L 761,618 L 760,618 L 759,619 L 758,619 L 757,619 L 757,620 L 756,620 L 755,620 L 754,620 L 753,620 L 752,620 L 751,620 L 751,619 L 751,618 L 750,618 L 749,618 L 749,617 L 749,616 L 749,615 L 748,615 L 748,614 L 748,613 L 747,613 L 747,612 L 748,611 L 748,610 L 748,609 L 749,608 L 748,608 L 748,607 L 748,606 L 748,605 L 747,605 L 747,604 L 746,604 L 746,603 L 746,602 L 745,602 L 745,601 L 744,600 L 743,600 L 743,599 L 742,599 L 742,598 L 741,598 L 740,598 L 739,599 L 739,600 L 738,601 L 738,602 L 737,602 L 737,603 L 736,603 L 735,603 L 734,603 L 734,602 L 733,602 L 733,601 L 733,600 L 733,599 L 733,598 L 734,598 L 734,597 L 734,596 L 733,595 L 734,594 L 734,593 L 735,593 L 735,592 L 734,592 L 734,591 L 733,591 L 732,590 L 731,590 L 730,589 L 729,589 L 729,588 L 729,587 L 728,587 L 728,586 L 727,585 L 726,585 L 727,585 L 728,585 L 728,584 L 728,583 L 729,583 L 729,582 L 730,582 L 730,581 L 730,580 L 730,579 L 731,579 L 730,579 L 731,579 L 731,578 L 732,578 L 732,577 L 731,577 L 731,576 L 732,576 L 732,575 L 732,574 L 732,573 L 732,572 L 732,571 L 732,570 L 733,570 L 733,569 L 734,569 L 734,568 L 734,567 L 735,567 L 735,566 L 735,565 L 735,564 L 736,564 L 736,563 L 737,563 L 737,562 L 738,562 L 739,562 L 740,563 L 741,562 L 741,557 L 741,555 L 740,553 L 740,552 L 740,549 L 739,548 L 738,547 L 737,546 L 737,544 L 736,543 L 736,542 L 734,542 L 733,541 L 732,541 L 732,540 L 733,540 L 733,539 L 733,538 L 734,538 L 734,537 L 734,536 L 735,536 L 735,535 L 735,534 L 736,534 L 736,533 L 736,532 L 737,532 L 738,532 L 739,532 L 740,533 L 741,533 L 742,533 L 743,533 L 744,530 L 744,528 L 744,527 L 744,526 L 744,525 L 745,524 L 745,523 L 745,522 L 744,522 L 744,521 L 744,520 L 743,520 L 743,519 L 742,518 L 742,517 L 742,516 L 743,516 L 742,516 L 742,515 L 742,514 L 743,513 L 744,512 L 743,511 L 743,510 L 744,510 L 745,510 L 746,510 L 747,510 L 747,509 L 747,508 L 747,507 L 748,506 L 747,504 L 746,502 L 746,501 L 744,499 L 743,498 L 743,497 L 744,497 L 745,496 L 745,495 L 745,494 L 746,494 L 746,493 L 746,492 L 746,491 L 747,491 L 748,491 L 748,490 L 749,490 L 750,490 L 750,489 L 751,489 L 752,489 L 752,490 L 753,490 L 754,490 L 755,490 L 756,490 L 757,490 L 757,489 L 757,488 L 756,488 L 756,487 L 757,486 L 757,485 L 758,484 L 758,483 L 758,482 L 758,481 L 758,480 L 759,480 L 760,479 L 761,479 L 762,479 L 762,480 L 763,480 L 764,480 L 765,480 L 766,480 L 767,480 L 769,479 L 771,479 L 771,476 L 770,474 L 769,472 L 768,470 L 769,468 L 769,467 L 769,466 L 768,466 L 767,466 L 766,464 L 766,461 L 763,458 L 761,457 L 759,458 L 758,455 L 761,451 L 761,449 L 761,448 L 759,444 L 759,442 L 761,441 L 763,441 L 764,441 L 767,441 L 769,441 L 770,441 L 771,439 L 770,438 L 770,436 L 770,435 L 769,435 L 767,435 L 765,433 L 765,432 L 766,432 L 766,431 L 767,431 L 767,430 L 768,430 L 768,429 L 767,429 L 768,429 L 768,428 L 769,428 L 769,427 L 770,427 L 770,426 L 770,425 L 771,425 L 771,424 L 772,424 L 773,424 L 772,425 " /></g>
</svg>
