<?xml version="1.0" standalone="no"?><!DOCTYPE svg PUBLIC "-//W3C//DTD SVG 1.1//EN" "http://www.w3.org/Graphics/SVG/1.1/DTD/svg11.dtd"><svg xmlns="http://www.w3.org/2000/svg" viewBox="890 478 197 198" version = "1.1">
<g id="30202" ><path d="M 934,479 L 935,479 L 935,480 L 936,480 L 937,481 L 937,482 L 938,482 L 939,483 L 939,484 L 940,484 L 941,484 L 942,483 L 943,483 L 943,482 L 944,482 L 945,481 L 945,480 L 946,480 L 946,479 L 947,479 L 947,480 L 948,481 L 949,481 L 949,482 L 950,482 L 950,483 L 951,483 L 952,483 L 952,482 L 952,483 L 953,483 L 954,483 L 955,483 L 956,483 L 957,483 L 957,484 L 958,484 L 959,484 L 960,484 L 961,483 L 962,483 L 963,483 L 964,483 L 964,484 L 965,484 L 965,483 L 966,483 L 967,483 L 967,482 L 968,482 L 968,481 L 969,481 L 970,481 L 971,482 L 971,481 L 972,481 L 973,481 L 973,482 L 974,481 L 975,481 L 976,481 L 976,482 L 976,483 L 976,484 L 977,484 L 978,484 L 978,485 L 978,486 L 979,486 L 980,486 L 981,486 L 982,486 L 983,486 L 983,487 L 984,487 L 985,487 L 985,488 L 986,488 L 987,488 L 988,489 L 989,490 L 990,490 L 991,490 L 991,491 L 992,491 L 993,491 L 994,492 L 994,493 L 995,494 L 996,494 L 996,495 L 997,495 L 998,495 L 999,495 L 999,496 L 1000,497 L 1000,498 L 1001,498 L 1001,499 L 1000,499 L 1000,500 L 1001,500 L 1001,501 L 1002,501 L 1003,501 L 1004,502 L 1003,502 L 1003,503 L 1004,503 L 1005,503 L 1006,503 L 1006,504 L 1005,504 L 1005,505 L 1005,506 L 1006,506 L 1006,507 L 1007,507 L 1006,508 L 1006,509 L 1006,510 L 1007,511 L 1008,511 L 1009,511 L 1009,512 L 1009,511 L 1010,512 L 1011,513 L 1011,514 L 1010,514 L 1010,515 L 1009,515 L 1009,516 L 1010,516 L 1011,516 L 1011,517 L 1010,517 L 1011,517 L 1011,518 L 1012,518 L 1013,519 L 1013,520 L 1014,520 L 1014,521 L 1015,521 L 1014,521 L 1014,522 L 1013,522 L 1013,523 L 1013,524 L 1013,525 L 1014,525 L 1014,526 L 1014,527 L 1014,528 L 1015,528 L 1016,528 L 1016,529 L 1015,529 L 1016,529 L 1017,530 L 1017,531 L 1017,532 L 1017,533 L 1017,534 L 1017,535 L 1018,535 L 1018,536 L 1018,537 L 1019,537 L 1020,537 L 1019,537 L 1019,538 L 1019,539 L 1018,539 L 1018,540 L 1017,540 L 1017,541 L 1018,541 L 1018,540 L 1019,540 L 1019,541 L 1020,541 L 1020,542 L 1019,542 L 1020,542 L 1020,543 L 1020,544 L 1019,544 L 1019,545 L 1019,546 L 1019,547 L 1018,547 L 1018,548 L 1019,548 L 1020,548 L 1021,548 L 1022,548 L 1023,548 L 1023,549 L 1023,550 L 1022,550 L 1023,551 L 1024,552 L 1025,551 L 1026,552 L 1025,552 L 1025,553 L 1024,553 L 1023,554 L 1023,555 L 1024,555 L 1024,556 L 1025,556 L 1025,557 L 1025,558 L 1026,558 L 1026,557 L 1027,556 L 1027,557 L 1027,558 L 1028,558 L 1029,558 L 1030,558 L 1030,559 L 1031,559 L 1031,558 L 1032,558 L 1032,559 L 1033,559 L 1033,560 L 1034,560 L 1035,561 L 1035,562 L 1036,562 L 1036,563 L 1035,563 L 1035,564 L 1035,565 L 1034,565 L 1034,566 L 1033,566 L 1033,567 L 1033,568 L 1032,568 L 1032,569 L 1033,569 L 1034,570 L 1034,571 L 1033,571 L 1034,571 L 1034,572 L 1033,572 L 1032,572 L 1032,573 L 1031,573 L 1031,574 L 1031,575 L 1032,575 L 1032,574 L 1033,574 L 1033,573 L 1034,573 L 1034,574 L 1035,574 L 1036,574 L 1036,575 L 1037,575 L 1037,576 L 1037,577 L 1037,578 L 1037,579 L 1037,580 L 1037,581 L 1037,582 L 1036,582 L 1036,583 L 1035,584 L 1036,584 L 1036,585 L 1037,585 L 1037,586 L 1038,586 L 1038,587 L 1038,588 L 1037,588 L 1038,589 L 1038,590 L 1039,590 L 1039,591 L 1040,591 L 1040,592 L 1041,593 L 1041,594 L 1041,595 L 1042,595 L 1042,596 L 1043,596 L 1043,597 L 1043,598 L 1044,598 L 1045,598 L 1045,599 L 1045,600 L 1046,600 L 1046,601 L 1047,601 L 1047,600 L 1048,600 L 1049,600 L 1050,600 L 1050,601 L 1051,601 L 1052,601 L 1053,601 L 1053,602 L 1053,603 L 1054,603 L 1055,603 L 1055,604 L 1056,603 L 1056,604 L 1057,605 L 1058,605 L 1059,605 L 1059,606 L 1059,607 L 1060,607 L 1061,607 L 1061,606 L 1062,607 L 1063,607 L 1063,608 L 1064,608 L 1064,609 L 1064,608 L 1065,608 L 1066,608 L 1067,609 L 1068,609 L 1069,609 L 1069,610 L 1069,611 L 1069,612 L 1069,613 L 1070,613 L 1071,613 L 1071,614 L 1072,615 L 1072,616 L 1073,616 L 1073,617 L 1074,616 L 1074,615 L 1075,615 L 1076,616 L 1077,616 L 1078,616 L 1078,615 L 1079,616 L 1079,617 L 1080,617 L 1080,618 L 1079,618 L 1079,619 L 1079,620 L 1079,621 L 1079,622 L 1079,623 L 1080,623 L 1081,623 L 1081,624 L 1081,625 L 1081,626 L 1081,627 L 1080,627 L 1080,628 L 1081,628 L 1082,628 L 1083,628 L 1083,629 L 1084,629 L 1084,630 L 1085,630 L 1085,631 L 1084,631 L 1084,632 L 1084,633 L 1084,634 L 1085,634 L 1085,635 L 1086,635 L 1086,636 L 1085,636 L 1084,636 L 1084,635 L 1084,634 L 1083,634 L 1083,635 L 1083,636 L 1082,636 L 1081,636 L 1081,637 L 1082,637 L 1083,637 L 1083,638 L 1082,638 L 1082,639 L 1082,640 L 1083,640 L 1084,640 L 1084,641 L 1085,641 L 1085,642 L 1085,643 L 1085,644 L 1084,645 L 1083,645 L 1083,646 L 1084,646 L 1084,647 L 1085,647 L 1086,648 L 1086,649 L 1087,649 L 1087,650 L 1087,651 L 1086,651 L 1086,652 L 1085,652 L 1085,653 L 1084,653 L 1084,654 L 1084,655 L 1084,656 L 1083,656 L 1083,655 L 1082,654 L 1082,655 L 1081,655 L 1081,656 L 1080,656 L 1079,656 L 1079,657 L 1079,658 L 1079,659 L 1078,658 L 1077,659 L 1076,659 L 1075,660 L 1075,661 L 1075,662 L 1076,662 L 1076,663 L 1076,664 L 1077,665 L 1077,666 L 1076,666 L 1075,666 L 1075,665 L 1074,666 L 1074,667 L 1074,668 L 1074,669 L 1073,669 L 1073,670 L 1072,670 L 1072,671 L 1072,672 L 1071,672 L 1071,673 L 1070,673 L 1069,673 L 1068,673 L 1067,673 L 1066,673 L 1065,672 L 1065,671 L 1064,670 L 1064,669 L 1063,668 L 1063,667 L 1063,666 L 1062,665 L 1061,664 L 1061,663 L 1061,662 L 1060,661 L 1060,660 L 1060,659 L 1060,658 L 1060,657 L 1060,656 L 1059,656 L 1059,657 L 1058,658 L 1057,658 L 1056,658 L 1055,658 L 1054,658 L 1053,658 L 1053,659 L 1052,659 L 1051,659 L 1051,658 L 1050,658 L 1049,658 L 1048,658 L 1047,658 L 1043,659 L 1043,660 L 1042,660 L 1041,660 L 1040,660 L 1039,660 L 1038,660 L 1037,660 L 1037,661 L 1036,661 L 1036,662 L 1035,662 L 1035,663 L 1035,664 L 1034,664 L 1034,665 L 1034,666 L 1033,667 L 1033,668 L 1032,668 L 1031,669 L 1030,668 L 1029,668 L 1028,669 L 1027,669 L 1027,670 L 1026,671 L 1025,672 L 1024,673 L 1024,674 L 1023,674 L 1022,674 L 1021,673 L 1020,674 L 1019,674 L 1018,674 L 1017,675 L 1016,675 L 1015,674 L 1014,675 L 1013,675 L 1012,674 L 1011,674 L 1010,674 L 1010,673 L 1009,673 L 1009,674 L 1008,674 L 1008,675 L 1008,676 L 1007,676 L 1006,676 L 1005,676 L 1004,676 L 1003,676 L 1002,676 L 1001,676 L 1000,676 L 999,676 L 998,675 L 997,676 L 996,676 L 995,675 L 995,676 L 994,676 L 993,675 L 993,674 L 992,673 L 992,672 L 992,671 L 991,670 L 990,670 L 989,669 L 988,668 L 987,669 L 986,669 L 985,668 L 984,668 L 983,667 L 983,666 L 982,666 L 982,665 L 981,665 L 980,665 L 979,665 L 978,665 L 977,665 L 976,664 L 975,663 L 974,663 L 973,662 L 972,661 L 972,660 L 972,659 L 972,658 L 971,658 L 970,658 L 969,657 L 969,656 L 968,656 L 968,655 L 968,654 L 968,653 L 968,652 L 967,652 L 966,652 L 965,652 L 964,652 L 964,651 L 964,650 L 964,649 L 964,648 L 965,648 L 965,647 L 965,646 L 965,645 L 963,644 L 963,643 L 963,642 L 962,641 L 961,641 L 960,641 L 959,641 L 957,640 L 956,639 L 955,638 L 955,637 L 954,636 L 954,635 L 953,634 L 953,633 L 953,632 L 952,631 L 952,630 L 951,630 L 950,630 L 949,630 L 948,630 L 948,629 L 948,628 L 948,627 L 947,627 L 946,627 L 946,628 L 945,629 L 946,629 L 945,629 L 945,630 L 944,630 L 943,630 L 943,629 L 942,629 L 941,629 L 940,629 L 939,629 L 938,629 L 938,628 L 937,628 L 937,629 L 936,629 L 935,630 L 934,630 L 933,629 L 932,628 L 931,628 L 931,629 L 930,629 L 929,628 L 928,628 L 927,628 L 927,627 L 926,627 L 925,627 L 924,627 L 923,627 L 922,627 L 922,626 L 921,626 L 920,626 L 918,626 L 918,625 L 917,625 L 917,624 L 917,623 L 918,623 L 917,622 L 917,621 L 916,621 L 915,620 L 915,619 L 914,619 L 914,618 L 914,617 L 913,617 L 913,616 L 913,615 L 912,614 L 911,614 L 911,613 L 910,613 L 909,613 L 909,614 L 907,613 L 908,613 L 908,612 L 908,611 L 908,610 L 908,609 L 908,608 L 908,607 L 908,606 L 908,605 L 908,604 L 907,604 L 907,603 L 906,603 L 906,602 L 906,601 L 906,600 L 906,599 L 905,599 L 905,598 L 904,598 L 904,597 L 903,597 L 903,596 L 903,595 L 903,594 L 902,594 L 902,593 L 903,593 L 903,592 L 903,591 L 903,590 L 902,589 L 903,589 L 903,588 L 902,588 L 902,587 L 902,586 L 901,586 L 901,585 L 900,585 L 900,584 L 900,583 L 899,583 L 898,583 L 898,582 L 897,582 L 896,581 L 897,581 L 897,580 L 896,580 L 896,579 L 895,578 L 894,578 L 893,579 L 892,579 L 891,579 L 891,578 L 890,578 L 890,577 L 890,576 L 890,575 L 890,574 L 891,574 L 891,573 L 891,569 L 891,563 L 890,560 L 891,559 L 892,558 L 893,556 L 897,555 L 898,552 L 899,547 L 898,545 L 898,543 L 897,541 L 898,540 L 898,539 L 897,539 L 897,538 L 897,537 L 897,536 L 897,535 L 898,535 L 898,534 L 899,534 L 898,533 L 897,533 L 897,532 L 898,532 L 899,532 L 899,533 L 899,532 L 899,533 L 900,533 L 901,533 L 901,534 L 902,534 L 903,534 L 903,533 L 904,533 L 905,533 L 906,533 L 906,532 L 907,532 L 908,532 L 908,531 L 908,530 L 909,530 L 909,529 L 910,530 L 910,529 L 911,529 L 912,529 L 912,528 L 913,528 L 914,528 L 915,528 L 915,527 L 914,525 L 913,524 L 913,522 L 912,520 L 910,519 L 909,515 L 908,514 L 908,512 L 911,511 L 911,509 L 913,508 L 913,507 L 912,507 L 912,506 L 911,506 L 911,505 L 910,505 L 910,504 L 910,503 L 910,504 L 910,503 L 910,502 L 909,502 L 909,501 L 908,501 L 908,500 L 908,499 L 908,498 L 908,497 L 908,496 L 908,495 L 907,495 L 908,495 L 908,494 L 907,493 L 908,492 L 908,491 L 908,490 L 908,489 L 907,489 L 907,488 L 908,487 L 908,486 L 909,485 L 911,484 L 911,483 L 912,483 L 914,483 L 915,483 L 916,483 L 917,483 L 918,484 L 919,484 L 924,484 L 925,484 L 925,483 L 925,482 L 925,481 L 926,481 L 926,480 L 927,480 L 928,480 L 929,480 L 930,479 L 931,479 L 931,478 L 932,478 L 933,478 L 934,479 " /></g>
</svg>
