<?xml version="1.0" standalone="no"?><!DOCTYPE svg PUBLIC "-//W3C//DTD SVG 1.1//EN" "http://www.w3.org/Graphics/SVG/1.1/DTD/svg11.dtd"><svg xmlns="http://www.w3.org/2000/svg" viewBox="833 407 113 139" version = "1.1">
<g id="30203" ><path d="M 871,420 L 873,423 L 874,425 L 879,431 L 879,432 L 880,432 L 880,434 L 881,435 L 882,436 L 882,437 L 882,438 L 881,439 L 881,440 L 882,440 L 882,441 L 882,442 L 883,442 L 883,443 L 884,443 L 893,444 L 905,443 L 910,445 L 924,444 L 924,445 L 924,446 L 924,447 L 924,448 L 925,449 L 925,450 L 926,450 L 926,451 L 926,452 L 927,452 L 927,453 L 928,453 L 928,454 L 929,454 L 929,455 L 930,455 L 930,456 L 930,457 L 930,458 L 931,459 L 931,460 L 932,460 L 933,461 L 933,462 L 934,462 L 935,462 L 936,462 L 936,463 L 937,463 L 938,463 L 939,463 L 939,464 L 940,464 L 940,463 L 941,463 L 941,464 L 941,465 L 940,465 L 941,465 L 941,466 L 941,467 L 941,468 L 941,469 L 940,469 L 940,470 L 941,470 L 941,471 L 941,472 L 941,473 L 941,474 L 942,474 L 942,473 L 942,474 L 943,474 L 943,475 L 942,475 L 943,476 L 943,477 L 944,477 L 944,478 L 945,478 L 946,478 L 946,479 L 946,480 L 945,480 L 945,481 L 944,482 L 943,482 L 943,483 L 942,483 L 941,484 L 940,484 L 939,484 L 939,483 L 938,482 L 937,482 L 937,481 L 936,480 L 935,480 L 935,479 L 934,479 L 933,478 L 932,478 L 931,478 L 931,479 L 930,479 L 929,480 L 928,480 L 927,480 L 926,480 L 926,481 L 925,481 L 925,482 L 925,483 L 925,484 L 924,484 L 919,484 L 918,484 L 917,483 L 916,483 L 915,483 L 914,483 L 912,483 L 911,483 L 911,484 L 909,485 L 908,486 L 908,487 L 907,488 L 907,489 L 908,489 L 908,490 L 908,491 L 908,492 L 907,493 L 908,494 L 908,495 L 907,495 L 908,495 L 908,496 L 908,497 L 908,498 L 908,499 L 908,500 L 908,501 L 909,501 L 909,502 L 910,502 L 910,503 L 910,504 L 910,503 L 910,504 L 910,505 L 911,505 L 911,506 L 912,506 L 912,507 L 913,507 L 913,508 L 911,509 L 911,511 L 908,512 L 908,514 L 909,515 L 910,519 L 912,520 L 913,522 L 913,524 L 914,525 L 915,527 L 915,528 L 914,528 L 913,528 L 912,528 L 912,529 L 911,529 L 910,529 L 910,530 L 909,529 L 909,530 L 908,530 L 908,531 L 908,532 L 907,532 L 906,532 L 906,533 L 905,533 L 904,533 L 903,533 L 903,534 L 902,534 L 901,534 L 901,533 L 900,533 L 899,533 L 899,532 L 899,533 L 899,532 L 898,532 L 897,532 L 897,533 L 898,533 L 899,534 L 898,534 L 898,535 L 897,535 L 897,536 L 897,537 L 897,538 L 897,539 L 898,539 L 898,540 L 897,541 L 898,543 L 898,545 L 896,544 L 894,546 L 891,546 L 889,546 L 888,544 L 888,543 L 886,541 L 886,538 L 884,536 L 883,535 L 881,536 L 880,534 L 881,532 L 882,530 L 881,529 L 881,528 L 880,526 L 879,524 L 879,522 L 879,521 L 878,520 L 877,519 L 875,519 L 874,519 L 873,518 L 873,516 L 872,515 L 871,514 L 870,513 L 869,513 L 869,511 L 871,510 L 871,509 L 871,508 L 870,507 L 869,506 L 866,505 L 863,503 L 862,502 L 861,498 L 860,498 L 859,496 L 859,495 L 859,494 L 859,492 L 858,490 L 854,491 L 852,493 L 851,493 L 850,493 L 849,493 L 848,493 L 846,492 L 845,493 L 844,493 L 844,492 L 843,492 L 842,492 L 840,492 L 839,492 L 839,494 L 839,495 L 838,495 L 836,495 L 836,494 L 835,494 L 834,492 L 833,489 L 833,485 L 833,479 L 836,475 L 836,473 L 836,471 L 835,469 L 838,466 L 838,464 L 836,461 L 837,461 L 838,460 L 839,460 L 839,459 L 840,458 L 840,459 L 841,459 L 841,458 L 841,457 L 840,457 L 840,456 L 840,455 L 840,454 L 839,454 L 839,453 L 839,452 L 839,451 L 838,451 L 838,450 L 837,450 L 837,449 L 838,449 L 838,448 L 839,448 L 839,447 L 840,447 L 840,446 L 841,446 L 841,445 L 842,445 L 842,444 L 843,444 L 843,443 L 843,442 L 844,442 L 844,441 L 843,441 L 843,440 L 842,440 L 842,439 L 841,439 L 841,438 L 841,437 L 840,437 L 840,436 L 839,434 L 840,433 L 840,432 L 839,428 L 839,427 L 841,425 L 842,423 L 842,421 L 843,421 L 844,420 L 844,419 L 844,418 L 844,417 L 845,416 L 847,415 L 848,413 L 850,413 L 851,410 L 852,408 L 854,407 L 856,408 L 868,414 L 871,419 L 871,420 " /></g>
</svg>
