<?xml version="1.0" standalone="no"?><!DOCTYPE svg PUBLIC "-//W3C//DTD SVG 1.1//EN" "http://www.w3.org/Graphics/SVG/1.1/DTD/svg11.dtd"><svg xmlns="http://www.w3.org/2000/svg" viewBox="201 -295 261 451" version = "1.1">
<g id="30303" ><path d="M 240,-294 L 241,-294 L 241,-293 L 242,-293 L 243,-293 L 243,-292 L 243,-291 L 242,-291 L 242,-290 L 242,-289 L 241,-289 L 241,-288 L 241,-287 L 240,-286 L 240,-285 L 239,-285 L 239,-284 L 239,-283 L 239,-282 L 239,-281 L 238,-280 L 239,-280 L 239,-279 L 245,-277 L 253,-273 L 259,-268 L 265,-262 L 273,-257 L 281,-254 L 283,-251 L 285,-253 L 289,-253 L 291,-250 L 293,-249 L 296,-249 L 297,-247 L 297,-246 L 297,-243 L 297,-242 L 299,-241 L 303,-237 L 307,-237 L 319,-234 L 340,-226 L 350,-220 L 365,-206 L 375,-196 L 381,-192 L 382,-191 L 383,-190 L 384,-190 L 384,-189 L 385,-189 L 385,-188 L 386,-188 L 386,-187 L 386,-186 L 387,-186 L 388,-186 L 388,-185 L 389,-185 L 390,-185 L 391,-185 L 391,-184 L 391,-183 L 392,-183 L 393,-183 L 393,-182 L 394,-182 L 395,-182 L 396,-182 L 400,-161 L 407,-125 L 407,-124 L 406,-118 L 407,-101 L 406,-100 L 405,-96 L 401,-87 L 400,-87 L 400,-86 L 400,-85 L 401,-84 L 402,-84 L 403,-83 L 404,-83 L 404,-82 L 405,-82 L 406,-82 L 406,-81 L 407,-81 L 407,-80 L 408,-80 L 409,-80 L 409,-79 L 409,-78 L 410,-78 L 411,-78 L 412,-77 L 412,-76 L 413,-76 L 414,-75 L 415,-74 L 415,-73 L 416,-73 L 417,-73 L 417,-72 L 418,-72 L 418,-71 L 419,-71 L 419,-70 L 420,-70 L 421,-69 L 422,-69 L 422,-68 L 423,-68 L 423,-67 L 424,-67 L 424,-68 L 425,-68 L 426,-68 L 427,-68 L 428,-68 L 428,-67 L 429,-67 L 430,-66 L 430,-65 L 431,-65 L 431,-64 L 431,-63 L 430,-63 L 431,-63 L 431,-62 L 431,-61 L 432,-61 L 432,-60 L 433,-60 L 433,-59 L 434,-59 L 435,-59 L 436,-58 L 436,-57 L 437,-57 L 437,-56 L 438,-56 L 439,-56 L 440,-56 L 440,-55 L 440,-54 L 441,-53 L 442,-53 L 442,-52 L 443,-52 L 443,-53 L 444,-53 L 444,-52 L 445,-52 L 446,-52 L 447,-51 L 447,-50 L 446,-50 L 446,-49 L 447,-49 L 448,-48 L 448,-47 L 449,-47 L 449,-48 L 450,-48 L 451,-48 L 451,-47 L 452,-47 L 452,-46 L 453,-46 L 454,-45 L 455,-46 L 455,-45 L 456,-45 L 456,-44 L 456,-43 L 456,-42 L 455,-42 L 455,-41 L 456,-40 L 457,-39 L 458,-38 L 459,-38 L 459,-37 L 459,-36 L 460,-36 L 460,-35 L 461,-35 L 461,-34 L 462,-34 L 462,-33 L 461,-33 L 461,-32 L 461,-31 L 460,-31 L 460,-30 L 459,-30 L 459,-29 L 458,-29 L 458,-28 L 457,-28 L 457,-27 L 456,-27 L 456,-26 L 456,-25 L 455,-25 L 455,-24 L 454,-24 L 454,-23 L 454,-22 L 454,-21 L 453,-21 L 452,-21 L 451,-21 L 451,-20 L 450,-20 L 449,-20 L 448,-20 L 448,-19 L 447,-19 L 447,-18 L 447,-17 L 447,-16 L 447,-15 L 447,-14 L 446,-14 L 446,-13 L 446,-12 L 446,-11 L 446,-10 L 447,-10 L 448,-10 L 448,-9 L 448,-8 L 449,-8 L 449,-7 L 450,-7 L 450,-6 L 449,-6 L 449,-5 L 450,-5 L 450,-4 L 450,-3 L 450,-2 L 450,-1 L 449,0 L 450,0 L 451,0 L 452,1 L 452,2 L 451,2 L 451,3 L 450,3 L 450,4 L 451,4 L 450,4 L 450,5 L 449,5 L 449,6 L 449,7 L 450,7 L 450,8 L 450,9 L 451,9 L 451,10 L 451,11 L 451,12 L 451,13 L 451,14 L 452,14 L 452,15 L 452,16 L 453,17 L 452,17 L 452,18 L 452,19 L 451,20 L 452,20 L 452,21 L 451,21 L 451,22 L 451,23 L 452,23 L 452,24 L 451,24 L 452,25 L 453,25 L 453,26 L 453,27 L 453,28 L 453,29 L 453,30 L 453,31 L 453,32 L 452,32 L 453,32 L 453,33 L 454,33 L 454,34 L 453,34 L 452,34 L 451,34 L 451,35 L 451,36 L 450,36 L 450,37 L 449,37 L 448,37 L 448,38 L 447,38 L 446,38 L 445,38 L 445,37 L 444,37 L 443,37 L 442,38 L 442,37 L 441,37 L 440,37 L 439,37 L 439,36 L 438,36 L 438,37 L 438,36 L 437,36 L 437,37 L 436,37 L 435,37 L 434,37 L 433,37 L 432,37 L 431,37 L 431,36 L 430,36 L 429,36 L 429,35 L 428,35 L 427,35 L 427,34 L 426,34 L 425,34 L 424,34 L 424,33 L 423,33 L 422,33 L 421,33 L 420,33 L 419,33 L 418,34 L 417,34 L 417,35 L 416,35 L 416,36 L 416,37 L 415,37 L 414,37 L 413,38 L 412,38 L 412,39 L 411,39 L 411,38 L 410,39 L 409,39 L 408,39 L 408,40 L 407,41 L 407,42 L 407,43 L 406,43 L 406,44 L 406,45 L 406,46 L 406,47 L 406,48 L 405,48 L 405,49 L 405,50 L 405,51 L 406,51 L 405,51 L 405,52 L 405,53 L 405,54 L 406,54 L 405,54 L 406,55 L 405,55 L 405,56 L 406,56 L 405,56 L 405,57 L 406,58 L 406,59 L 407,59 L 407,60 L 408,60 L 408,61 L 408,62 L 409,62 L 409,63 L 410,63 L 411,63 L 411,64 L 410,64 L 410,65 L 411,65 L 411,66 L 412,66 L 413,66 L 413,67 L 414,67 L 414,68 L 413,68 L 413,69 L 413,70 L 414,70 L 414,71 L 415,71 L 415,72 L 416,72 L 417,72 L 417,73 L 418,73 L 419,73 L 419,74 L 420,74 L 421,74 L 421,75 L 422,75 L 424,75 L 425,75 L 425,76 L 426,76 L 426,77 L 427,77 L 428,77 L 428,78 L 429,78 L 430,78 L 430,79 L 431,79 L 431,80 L 432,80 L 432,81 L 432,82 L 433,82 L 434,83 L 433,83 L 434,83 L 434,84 L 435,84 L 435,85 L 436,85 L 436,86 L 437,87 L 437,88 L 437,89 L 437,90 L 437,91 L 436,91 L 435,91 L 435,92 L 435,93 L 434,93 L 434,94 L 433,94 L 433,95 L 432,95 L 431,95 L 431,96 L 430,96 L 429,96 L 429,97 L 428,97 L 427,96 L 427,97 L 426,97 L 426,98 L 425,98 L 425,99 L 424,99 L 423,99 L 423,100 L 423,101 L 422,101 L 422,102 L 421,102 L 422,103 L 416,107 L 415,108 L 411,109 L 410,107 L 406,104 L 392,112 L 404,118 L 409,124 L 408,129 L 403,132 L 401,138 L 400,138 L 399,139 L 398,139 L 397,139 L 395,139 L 394,139 L 394,138 L 394,137 L 393,137 L 393,136 L 393,137 L 393,136 L 392,136 L 392,135 L 392,134 L 391,134 L 392,134 L 391,134 L 392,133 L 391,134 L 391,133 L 390,132 L 389,131 L 388,130 L 388,129 L 387,129 L 386,129 L 385,129 L 384,129 L 383,129 L 382,129 L 382,130 L 382,131 L 382,132 L 381,132 L 380,132 L 380,133 L 379,133 L 378,133 L 377,133 L 377,134 L 377,135 L 376,135 L 375,135 L 375,136 L 374,136 L 374,137 L 373,137 L 372,137 L 372,138 L 371,138 L 371,139 L 370,139 L 369,139 L 369,140 L 368,140 L 368,141 L 367,141 L 367,142 L 366,142 L 366,143 L 366,144 L 365,144 L 365,145 L 365,146 L 364,146 L 344,156 L 336,144 L 316,138 L 306,141 L 293,131 L 288,130 L 283,127 L 283,128 L 283,127 L 282,127 L 281,127 L 280,127 L 280,128 L 279,128 L 278,128 L 277,128 L 276,128 L 275,128 L 274,128 L 274,127 L 273,127 L 273,128 L 272,128 L 271,128 L 270,128 L 270,127 L 269,127 L 269,126 L 269,125 L 269,124 L 268,124 L 268,123 L 267,123 L 267,122 L 268,122 L 268,121 L 267,121 L 268,121 L 267,121 L 267,120 L 266,119 L 266,118 L 265,118 L 265,117 L 264,117 L 264,116 L 264,115 L 263,115 L 263,114 L 263,113 L 263,112 L 262,112 L 261,112 L 261,111 L 260,111 L 259,111 L 258,111 L 258,110 L 257,109 L 257,108 L 257,107 L 256,107 L 256,106 L 255,106 L 255,105 L 254,104 L 253,103 L 252,103 L 252,102 L 252,101 L 251,101 L 251,100 L 251,99 L 251,98 L 251,97 L 251,96 L 250,96 L 250,95 L 250,94 L 249,94 L 248,94 L 248,93 L 247,93 L 247,92 L 247,91 L 246,91 L 246,90 L 245,90 L 245,89 L 245,88 L 244,88 L 244,87 L 243,87 L 243,86 L 242,85 L 242,84 L 242,83 L 241,83 L 241,82 L 240,82 L 240,81 L 240,80 L 240,79 L 239,79 L 239,78 L 238,78 L 238,77 L 239,77 L 239,76 L 238,76 L 238,75 L 238,74 L 238,73 L 238,72 L 238,71 L 238,70 L 237,70 L 237,69 L 236,69 L 236,68 L 236,67 L 235,67 L 234,67 L 234,66 L 234,65 L 235,65 L 235,64 L 234,64 L 234,63 L 235,63 L 235,62 L 235,61 L 236,61 L 236,60 L 236,59 L 236,58 L 236,57 L 236,56 L 237,56 L 238,55 L 239,54 L 239,53 L 240,53 L 241,53 L 241,52 L 242,52 L 242,51 L 242,50 L 243,50 L 244,50 L 245,49 L 246,49 L 247,49 L 247,48 L 247,47 L 248,47 L 248,46 L 247,46 L 247,45 L 247,44 L 248,44 L 248,43 L 249,42 L 249,41 L 250,41 L 251,41 L 251,42 L 252,42 L 253,41 L 254,41 L 254,40 L 255,40 L 255,39 L 255,38 L 255,37 L 255,36 L 256,36 L 257,36 L 258,36 L 258,35 L 259,34 L 260,33 L 261,31 L 261,30 L 261,28 L 260,28 L 260,27 L 260,26 L 260,25 L 261,25 L 261,24 L 260,24 L 260,23 L 260,22 L 260,21 L 261,21 L 261,20 L 260,20 L 260,19 L 259,18 L 258,17 L 258,16 L 257,16 L 257,15 L 256,15 L 256,14 L 256,13 L 256,12 L 256,11 L 255,11 L 255,10 L 256,10 L 256,9 L 256,8 L 257,8 L 257,7 L 257,6 L 257,5 L 257,4 L 258,4 L 258,3 L 259,2 L 259,1 L 259,0 L 260,0 L 261,0 L 261,-1 L 261,-2 L 261,-3 L 261,-4 L 261,-5 L 260,-5 L 260,-6 L 260,-7 L 260,-8 L 260,-9 L 259,-9 L 260,-9 L 260,-10 L 261,-10 L 261,-11 L 261,-12 L 262,-12 L 263,-12 L 263,-13 L 263,-14 L 263,-15 L 264,-15 L 263,-16 L 263,-17 L 262,-17 L 263,-18 L 263,-19 L 262,-19 L 262,-20 L 263,-20 L 264,-21 L 264,-22 L 264,-23 L 264,-24 L 263,-25 L 263,-26 L 262,-26 L 262,-27 L 261,-27 L 261,-28 L 261,-29 L 261,-30 L 260,-30 L 260,-31 L 259,-31 L 259,-32 L 258,-33 L 258,-34 L 257,-34 L 257,-35 L 257,-36 L 256,-36 L 256,-37 L 255,-37 L 255,-38 L 255,-39 L 254,-39 L 253,-39 L 253,-40 L 253,-41 L 253,-42 L 252,-42 L 251,-43 L 251,-44 L 250,-44 L 250,-45 L 249,-46 L 249,-47 L 250,-48 L 251,-48 L 251,-49 L 252,-49 L 252,-50 L 252,-51 L 252,-52 L 251,-52 L 251,-53 L 250,-53 L 249,-54 L 248,-55 L 247,-56 L 247,-57 L 246,-57 L 245,-58 L 245,-59 L 245,-60 L 245,-61 L 245,-62 L 246,-62 L 247,-63 L 247,-64 L 247,-65 L 247,-66 L 247,-67 L 246,-67 L 246,-68 L 246,-69 L 246,-70 L 246,-71 L 246,-72 L 245,-72 L 245,-73 L 246,-74 L 246,-75 L 246,-76 L 246,-77 L 246,-78 L 247,-78 L 247,-79 L 247,-80 L 247,-81 L 247,-82 L 246,-82 L 245,-82 L 244,-83 L 245,-83 L 245,-84 L 244,-85 L 244,-86 L 243,-87 L 243,-88 L 243,-89 L 243,-90 L 243,-91 L 243,-92 L 243,-93 L 243,-95 L 243,-96 L 243,-97 L 243,-98 L 243,-99 L 242,-99 L 243,-100 L 242,-101 L 242,-102 L 242,-103 L 242,-104 L 243,-105 L 243,-106 L 243,-107 L 242,-108 L 242,-109 L 242,-110 L 242,-111 L 242,-112 L 242,-113 L 241,-114 L 241,-115 L 241,-116 L 240,-116 L 241,-117 L 241,-118 L 240,-119 L 240,-120 L 241,-120 L 241,-121 L 241,-122 L 241,-123 L 240,-124 L 239,-125 L 238,-126 L 237,-126 L 237,-127 L 236,-127 L 235,-128 L 235,-129 L 235,-130 L 235,-131 L 234,-131 L 233,-131 L 232,-131 L 232,-132 L 231,-132 L 230,-133 L 230,-134 L 229,-134 L 228,-134 L 227,-135 L 227,-134 L 226,-135 L 226,-136 L 225,-136 L 225,-137 L 224,-137 L 224,-138 L 224,-139 L 223,-139 L 224,-139 L 224,-140 L 225,-140 L 225,-141 L 224,-142 L 224,-143 L 225,-144 L 226,-144 L 226,-145 L 225,-145 L 225,-146 L 225,-147 L 225,-148 L 224,-148 L 224,-149 L 225,-149 L 225,-150 L 226,-150 L 226,-151 L 226,-152 L 226,-153 L 226,-154 L 226,-155 L 227,-155 L 227,-156 L 226,-156 L 225,-156 L 225,-157 L 225,-158 L 224,-159 L 225,-159 L 224,-160 L 224,-161 L 223,-162 L 222,-163 L 221,-164 L 221,-165 L 220,-166 L 219,-166 L 218,-167 L 218,-168 L 218,-169 L 219,-170 L 218,-171 L 217,-171 L 216,-172 L 216,-173 L 216,-174 L 216,-175 L 215,-175 L 214,-176 L 213,-177 L 213,-178 L 213,-179 L 212,-179 L 211,-180 L 212,-180 L 212,-181 L 211,-182 L 210,-182 L 210,-183 L 209,-183 L 208,-183 L 208,-184 L 208,-185 L 207,-186 L 206,-186 L 205,-186 L 204,-186 L 204,-187 L 204,-188 L 203,-189 L 202,-189 L 201,-190 L 201,-192 L 201,-193 L 202,-193 L 202,-194 L 202,-195 L 202,-196 L 202,-197 L 202,-198 L 203,-198 L 204,-199 L 204,-200 L 204,-201 L 204,-202 L 204,-203 L 205,-203 L 205,-204 L 204,-204 L 204,-205 L 205,-205 L 205,-206 L 204,-206 L 204,-207 L 203,-207 L 204,-207 L 204,-208 L 204,-209 L 204,-210 L 204,-211 L 204,-212 L 203,-213 L 203,-214 L 203,-215 L 203,-216 L 203,-217 L 202,-217 L 202,-218 L 202,-219 L 202,-220 L 201,-220 L 201,-221 L 201,-222 L 202,-222 L 202,-223 L 203,-223 L 204,-223 L 204,-224 L 205,-224 L 204,-225 L 204,-226 L 204,-227 L 203,-227 L 203,-228 L 204,-228 L 204,-229 L 204,-230 L 205,-230 L 205,-231 L 206,-231 L 206,-232 L 206,-233 L 206,-234 L 207,-234 L 208,-234 L 208,-235 L 208,-236 L 209,-236 L 209,-237 L 210,-237 L 211,-237 L 211,-238 L 212,-238 L 212,-239 L 213,-240 L 213,-241 L 214,-241 L 214,-240 L 215,-240 L 215,-241 L 216,-241 L 216,-242 L 217,-242 L 218,-242 L 218,-243 L 218,-244 L 217,-244 L 217,-245 L 216,-245 L 215,-246 L 215,-247 L 215,-248 L 216,-248 L 216,-249 L 215,-249 L 215,-250 L 215,-251 L 214,-251 L 214,-252 L 213,-253 L 213,-254 L 212,-254 L 212,-255 L 211,-255 L 211,-256 L 212,-257 L 213,-257 L 213,-258 L 214,-258 L 214,-259 L 214,-260 L 214,-261 L 214,-262 L 213,-262 L 213,-263 L 212,-264 L 211,-264 L 210,-264 L 209,-265 L 208,-265 L 207,-265 L 207,-266 L 207,-267 L 207,-268 L 207,-269 L 208,-269 L 208,-270 L 207,-271 L 208,-272 L 207,-272 L 206,-272 L 205,-272 L 205,-273 L 206,-274 L 207,-275 L 207,-276 L 208,-276 L 208,-277 L 208,-278 L 208,-279 L 209,-279 L 209,-280 L 209,-281 L 210,-281 L 211,-282 L 211,-283 L 212,-283 L 212,-284 L 213,-285 L 214,-285 L 214,-286 L 215,-287 L 215,-288 L 216,-288 L 216,-289 L 217,-289 L 217,-290 L 218,-290 L 219,-291 L 220,-291 L 220,-292 L 221,-292 L 221,-293 L 221,-294 L 223,-293 L 224,-292 L 225,-292 L 226,-292 L 226,-291 L 227,-291 L 227,-290 L 228,-290 L 229,-290 L 229,-289 L 230,-290 L 231,-291 L 232,-292 L 233,-292 L 234,-292 L 235,-292 L 236,-292 L 237,-293 L 237,-294 L 238,-294 L 238,-295 L 239,-295 L 239,-294 L 240,-294 " /></g>
</svg>
