<?xml version="1.0" standalone="no"?><!DOCTYPE svg PUBLIC "-//W3C//DTD SVG 1.1//EN" "http://www.w3.org/Graphics/SVG/1.1/DTD/svg11.dtd"><svg xmlns="http://www.w3.org/2000/svg" viewBox="264 127 112 117" version = "1.1">
<g id="30302" ><path d="M 365,145 L 365,146 L 364,146 L 364,147 L 363,147 L 363,148 L 363,149 L 363,150 L 363,151 L 363,152 L 363,153 L 363,154 L 362,154 L 362,155 L 362,156 L 361,156 L 361,157 L 360,157 L 360,158 L 359,158 L 359,159 L 358,159 L 358,160 L 357,160 L 357,161 L 357,162 L 357,163 L 358,163 L 358,164 L 358,165 L 358,166 L 357,166 L 357,167 L 356,167 L 356,168 L 355,169 L 356,175 L 360,178 L 363,179 L 364,181 L 367,185 L 371,187 L 376,185 L 376,188 L 376,193 L 376,195 L 372,200 L 370,202 L 365,201 L 362,201 L 358,203 L 358,208 L 356,209 L 354,211 L 349,210 L 347,212 L 347,216 L 346,218 L 346,219 L 346,225 L 345,229 L 342,235 L 341,235 L 335,236 L 333,240 L 330,244 L 329,244 L 325,242 L 324,240 L 322,239 L 320,237 L 319,236 L 319,235 L 318,235 L 317,235 L 316,234 L 316,233 L 316,232 L 315,231 L 315,230 L 314,230 L 314,229 L 313,229 L 313,228 L 314,227 L 313,227 L 313,226 L 312,225 L 310,224 L 308,224 L 308,223 L 307,223 L 306,220 L 305,219 L 304,218 L 303,218 L 303,217 L 302,216 L 301,216 L 300,216 L 299,215 L 298,215 L 298,214 L 298,213 L 297,212 L 296,212 L 294,210 L 292,208 L 289,205 L 287,201 L 286,200 L 286,199 L 286,198 L 286,197 L 285,197 L 284,197 L 284,196 L 283,196 L 281,195 L 280,195 L 278,195 L 277,195 L 276,195 L 275,195 L 274,195 L 273,195 L 272,195 L 271,195 L 270,195 L 269,195 L 268,195 L 267,195 L 267,194 L 266,194 L 266,193 L 265,193 L 265,192 L 266,192 L 265,192 L 265,191 L 266,191 L 265,191 L 265,190 L 265,189 L 265,188 L 265,187 L 265,186 L 265,185 L 264,185 L 265,185 L 264,185 L 264,184 L 265,183 L 265,182 L 266,182 L 265,182 L 266,182 L 266,181 L 267,181 L 268,180 L 268,179 L 269,179 L 269,178 L 270,178 L 270,177 L 270,178 L 271,178 L 271,177 L 272,177 L 272,176 L 272,175 L 273,175 L 274,175 L 274,174 L 275,174 L 275,173 L 276,173 L 276,172 L 277,172 L 277,173 L 277,172 L 278,172 L 279,172 L 279,171 L 279,172 L 280,172 L 280,171 L 281,171 L 282,171 L 283,171 L 283,170 L 284,170 L 283,169 L 283,168 L 284,168 L 283,168 L 283,167 L 283,166 L 283,165 L 283,164 L 283,163 L 283,162 L 282,162 L 282,161 L 282,160 L 282,159 L 283,159 L 283,158 L 283,157 L 283,156 L 282,156 L 282,155 L 281,154 L 281,153 L 280,152 L 280,151 L 279,150 L 279,149 L 279,148 L 278,147 L 278,146 L 278,145 L 277,145 L 277,144 L 276,144 L 276,143 L 275,143 L 274,142 L 273,142 L 273,141 L 272,141 L 272,140 L 272,139 L 271,139 L 271,138 L 271,137 L 270,137 L 270,136 L 270,135 L 270,134 L 269,134 L 269,133 L 269,132 L 269,131 L 269,130 L 269,129 L 269,128 L 269,127 L 270,127 L 270,128 L 271,128 L 272,128 L 273,128 L 273,127 L 274,127 L 274,128 L 275,128 L 276,128 L 277,128 L 278,128 L 279,128 L 280,128 L 280,127 L 281,127 L 282,127 L 283,127 L 283,128 L 283,127 L 288,130 L 293,131 L 306,141 L 316,138 L 336,144 L 344,156 L 364,146 L 365,146 L 365,145 " /></g>
</svg>
