<?xml version="1.0" standalone="no"?><!DOCTYPE svg PUBLIC "-//W3C//DTD SVG 1.1//EN" "http://www.w3.org/Graphics/SVG/1.1/DTD/svg11.dtd"><svg xmlns="http://www.w3.org/2000/svg" viewBox="172 56 148 208" version = "1.1">
<g id="30301" ><path d="M 239,253 L 239,252 L 238,252 L 238,251 L 237,251 L 237,250 L 237,249 L 236,249 L 236,248 L 236,247 L 235,247 L 235,246 L 234,246 L 233,246 L 233,245 L 232,246 L 231,246 L 230,246 L 229,246 L 229,245 L 228,245 L 228,244 L 227,244 L 227,243 L 226,243 L 226,242 L 225,242 L 225,241 L 224,241 L 224,240 L 225,240 L 225,239 L 225,238 L 226,237 L 226,236 L 226,235 L 226,234 L 226,233 L 226,232 L 225,232 L 225,231 L 225,230 L 224,230 L 224,231 L 223,231 L 223,230 L 223,231 L 223,230 L 222,230 L 222,229 L 222,228 L 221,228 L 222,228 L 222,227 L 223,227 L 224,227 L 225,227 L 226,227 L 226,226 L 226,225 L 226,224 L 226,223 L 227,223 L 227,222 L 227,221 L 227,220 L 226,219 L 226,220 L 226,219 L 225,219 L 224,219 L 223,218 L 222,218 L 222,217 L 221,217 L 220,217 L 220,216 L 219,216 L 219,215 L 218,215 L 217,215 L 217,214 L 216,214 L 215,214 L 215,213 L 214,213 L 214,212 L 214,211 L 213,211 L 212,211 L 212,210 L 212,209 L 212,208 L 212,207 L 211,207 L 212,206 L 212,205 L 212,204 L 212,203 L 212,202 L 213,202 L 213,201 L 213,200 L 214,199 L 214,198 L 215,198 L 215,197 L 215,196 L 215,195 L 215,194 L 216,193 L 216,192 L 215,192 L 215,191 L 214,191 L 214,190 L 214,189 L 214,188 L 214,187 L 213,187 L 212,186 L 212,185 L 211,185 L 211,184 L 211,183 L 211,182 L 211,181 L 212,181 L 212,180 L 212,179 L 211,179 L 211,178 L 211,177 L 212,177 L 212,176 L 213,176 L 213,175 L 213,174 L 212,174 L 212,173 L 213,173 L 213,172 L 213,171 L 213,170 L 213,169 L 213,168 L 214,168 L 213,167 L 213,166 L 213,165 L 212,164 L 212,163 L 211,163 L 211,162 L 211,161 L 211,160 L 210,160 L 210,159 L 209,159 L 209,158 L 208,158 L 208,157 L 207,157 L 207,156 L 207,155 L 206,155 L 206,154 L 205,154 L 205,153 L 204,153 L 203,153 L 203,152 L 202,152 L 201,152 L 201,151 L 200,151 L 199,151 L 199,150 L 198,150 L 198,149 L 197,149 L 197,148 L 196,148 L 196,147 L 195,147 L 195,146 L 194,145 L 194,144 L 194,143 L 193,143 L 193,142 L 192,141 L 191,141 L 191,140 L 190,140 L 190,139 L 190,138 L 189,138 L 189,137 L 189,136 L 188,135 L 187,134 L 186,134 L 186,133 L 185,133 L 184,132 L 184,131 L 183,131 L 182,131 L 182,130 L 181,130 L 181,129 L 180,128 L 180,127 L 179,127 L 179,126 L 180,126 L 180,125 L 179,124 L 179,123 L 179,122 L 178,121 L 178,120 L 177,120 L 177,119 L 178,119 L 177,118 L 177,117 L 176,117 L 176,116 L 176,115 L 176,114 L 175,114 L 175,113 L 175,112 L 174,112 L 174,111 L 174,110 L 174,109 L 174,108 L 174,107 L 174,106 L 174,105 L 174,104 L 174,103 L 174,102 L 174,101 L 174,100 L 173,100 L 173,99 L 172,99 L 172,98 L 172,97 L 173,97 L 173,96 L 174,96 L 174,95 L 175,95 L 176,95 L 176,94 L 177,94 L 177,93 L 177,92 L 177,91 L 178,91 L 179,91 L 179,90 L 180,90 L 181,90 L 182,90 L 182,89 L 183,89 L 184,89 L 184,88 L 184,87 L 184,86 L 184,85 L 183,85 L 183,83 L 182,82 L 182,81 L 183,80 L 183,79 L 183,78 L 183,77 L 184,77 L 184,76 L 185,76 L 186,76 L 187,75 L 188,73 L 189,72 L 190,72 L 191,71 L 192,70 L 192,69 L 193,67 L 194,66 L 194,65 L 195,64 L 196,64 L 196,63 L 197,62 L 198,61 L 199,60 L 199,59 L 200,59 L 200,58 L 201,58 L 202,58 L 202,59 L 203,59 L 203,58 L 204,58 L 204,57 L 205,58 L 205,59 L 206,59 L 207,59 L 207,58 L 208,58 L 209,58 L 210,58 L 211,58 L 212,58 L 213,59 L 214,59 L 215,59 L 215,58 L 216,58 L 217,58 L 218,58 L 219,58 L 220,58 L 221,58 L 222,58 L 223,58 L 224,58 L 224,59 L 225,59 L 226,59 L 226,60 L 227,60 L 228,60 L 228,59 L 228,60 L 229,60 L 230,60 L 231,60 L 231,59 L 232,59 L 232,58 L 233,58 L 234,58 L 234,57 L 235,57 L 236,57 L 236,56 L 236,57 L 236,58 L 236,59 L 236,60 L 236,61 L 235,61 L 235,62 L 235,63 L 234,63 L 234,64 L 235,64 L 235,65 L 234,65 L 234,66 L 234,67 L 235,67 L 236,67 L 236,68 L 236,69 L 237,69 L 237,70 L 238,70 L 238,71 L 238,72 L 238,73 L 238,74 L 238,75 L 238,76 L 239,76 L 239,77 L 238,77 L 238,78 L 239,78 L 239,79 L 240,79 L 240,80 L 240,81 L 240,82 L 241,82 L 241,83 L 242,83 L 242,84 L 242,85 L 243,86 L 243,87 L 244,87 L 244,88 L 245,88 L 245,89 L 245,90 L 246,90 L 246,91 L 247,91 L 247,92 L 247,93 L 248,93 L 248,94 L 249,94 L 250,94 L 250,95 L 250,96 L 251,96 L 251,97 L 251,98 L 251,99 L 251,100 L 251,101 L 252,101 L 252,102 L 252,103 L 253,103 L 254,104 L 255,105 L 255,106 L 256,106 L 256,107 L 257,107 L 257,108 L 257,109 L 258,110 L 258,111 L 259,111 L 260,111 L 261,111 L 261,112 L 262,112 L 263,112 L 263,113 L 263,114 L 263,115 L 264,115 L 264,116 L 264,117 L 265,117 L 265,118 L 266,118 L 266,119 L 267,120 L 267,121 L 268,121 L 267,121 L 268,121 L 268,122 L 267,122 L 267,123 L 268,123 L 268,124 L 269,124 L 269,125 L 269,126 L 269,127 L 269,128 L 269,129 L 269,130 L 269,131 L 269,132 L 269,133 L 269,134 L 270,134 L 270,135 L 270,136 L 270,137 L 271,137 L 271,138 L 271,139 L 272,139 L 272,140 L 272,141 L 273,141 L 273,142 L 274,142 L 275,143 L 276,143 L 276,144 L 277,144 L 277,145 L 278,145 L 278,146 L 278,147 L 279,148 L 279,149 L 279,150 L 280,151 L 280,152 L 281,153 L 281,154 L 282,155 L 282,156 L 283,156 L 283,157 L 283,158 L 283,159 L 282,159 L 282,160 L 282,161 L 282,162 L 283,162 L 283,163 L 283,164 L 283,165 L 283,166 L 283,167 L 283,168 L 284,168 L 283,168 L 283,169 L 284,170 L 283,170 L 283,171 L 282,171 L 281,171 L 280,171 L 280,172 L 279,172 L 279,171 L 279,172 L 278,172 L 277,172 L 277,173 L 277,172 L 276,172 L 276,173 L 275,173 L 275,174 L 274,174 L 274,175 L 273,175 L 272,175 L 272,176 L 272,177 L 271,177 L 271,178 L 270,178 L 270,177 L 270,178 L 269,178 L 269,179 L 268,179 L 268,180 L 267,181 L 266,181 L 266,182 L 265,182 L 266,182 L 265,182 L 265,183 L 264,184 L 264,185 L 265,185 L 264,185 L 265,185 L 265,186 L 265,187 L 265,188 L 265,189 L 265,190 L 265,191 L 266,191 L 265,191 L 265,192 L 266,192 L 265,192 L 265,193 L 266,193 L 266,194 L 267,194 L 267,195 L 268,195 L 269,195 L 270,195 L 271,195 L 272,195 L 273,195 L 274,195 L 275,195 L 276,195 L 277,195 L 278,195 L 280,195 L 281,195 L 283,196 L 284,196 L 284,197 L 285,197 L 286,197 L 286,198 L 286,199 L 286,200 L 287,201 L 289,205 L 292,208 L 294,210 L 296,212 L 297,212 L 298,213 L 298,214 L 298,215 L 299,215 L 300,216 L 301,216 L 302,216 L 303,217 L 303,218 L 304,218 L 305,219 L 306,220 L 307,223 L 308,223 L 308,224 L 310,224 L 312,225 L 313,226 L 313,227 L 314,227 L 313,228 L 313,229 L 314,229 L 314,230 L 315,230 L 315,231 L 316,232 L 316,233 L 316,234 L 317,235 L 318,235 L 319,235 L 319,236 L 320,237 L 318,240 L 316,240 L 315,241 L 315,242 L 314,243 L 313,243 L 312,243 L 312,244 L 311,244 L 310,245 L 309,245 L 308,245 L 307,246 L 306,247 L 306,248 L 305,248 L 305,249 L 305,250 L 306,250 L 306,251 L 305,251 L 305,252 L 304,252 L 304,253 L 305,253 L 305,254 L 304,254 L 304,255 L 303,257 L 303,256 L 302,257 L 301,257 L 300,257 L 298,257 L 297,256 L 295,256 L 295,255 L 294,255 L 293,255 L 293,254 L 292,253 L 291,253 L 290,253 L 289,253 L 288,252 L 287,251 L 281,250 L 271,251 L 269,251 L 268,252 L 268,254 L 269,254 L 269,255 L 269,256 L 269,257 L 269,258 L 270,261 L 264,264 L 260,263 L 250,262 L 247,259 L 243,258 L 243,257 L 243,256 L 242,256 L 243,255 L 242,255 L 242,254 L 241,254 L 240,254 L 239,254 L 239,253 " /></g>
</svg>
