<?xml version="1.0" standalone="no"?><!DOCTYPE svg PUBLIC "-//W3C//DTD SVG 1.1//EN" "http://www.w3.org/Graphics/SVG/1.1/DTD/svg11.dtd"><svg xmlns="http://www.w3.org/2000/svg" viewBox="550 344 58 62" version = "1.1">
<g id="30404" ><path d="M 576,347 L 577,347 L 577,348 L 578,348 L 578,349 L 579,349 L 580,349 L 581,348 L 581,349 L 582,349 L 582,350 L 583,350 L 583,351 L 584,351 L 585,351 L 585,352 L 584,353 L 584,354 L 585,354 L 585,355 L 585,356 L 585,357 L 585,358 L 585,359 L 586,360 L 587,361 L 587,362 L 588,362 L 588,363 L 589,363 L 590,363 L 591,363 L 592,363 L 595,364 L 596,364 L 597,364 L 597,363 L 598,362 L 599,362 L 600,360 L 601,361 L 602,361 L 604,361 L 605,361 L 605,360 L 606,361 L 607,361 L 607,362 L 608,363 L 608,364 L 608,365 L 607,367 L 607,368 L 607,369 L 606,370 L 606,371 L 605,372 L 605,373 L 604,373 L 604,374 L 604,375 L 604,377 L 603,380 L 603,382 L 603,383 L 603,384 L 603,385 L 603,386 L 603,388 L 603,391 L 605,392 L 607,393 L 608,395 L 607,396 L 606,397 L 606,396 L 605,396 L 604,396 L 604,397 L 603,397 L 602,397 L 602,398 L 601,398 L 600,398 L 599,398 L 599,399 L 598,399 L 597,400 L 597,401 L 597,402 L 597,403 L 597,404 L 596,404 L 596,405 L 595,406 L 594,406 L 593,405 L 592,405 L 591,404 L 590,404 L 588,404 L 588,403 L 587,403 L 586,402 L 585,402 L 585,401 L 584,401 L 583,400 L 583,399 L 582,398 L 581,398 L 581,399 L 581,400 L 581,401 L 581,402 L 580,402 L 580,401 L 580,400 L 579,400 L 579,399 L 578,399 L 578,398 L 577,398 L 578,397 L 577,397 L 577,396 L 577,395 L 577,394 L 577,393 L 577,392 L 576,392 L 576,391 L 576,390 L 573,386 L 571,384 L 570,383 L 569,382 L 568,381 L 565,379 L 563,378 L 559,376 L 558,376 L 556,375 L 556,374 L 555,374 L 555,373 L 554,372 L 554,371 L 555,371 L 554,370 L 553,370 L 552,370 L 551,368 L 550,368 L 551,367 L 552,367 L 552,366 L 552,365 L 553,365 L 554,365 L 554,364 L 555,364 L 556,363 L 556,362 L 555,360 L 556,359 L 556,358 L 556,357 L 557,357 L 556,357 L 556,356 L 555,356 L 554,356 L 554,355 L 554,354 L 555,354 L 555,355 L 556,355 L 557,355 L 558,355 L 558,356 L 559,356 L 560,356 L 560,355 L 560,354 L 561,353 L 561,352 L 562,352 L 564,351 L 565,351 L 565,349 L 566,349 L 567,348 L 567,347 L 568,347 L 569,347 L 570,346 L 571,347 L 572,347 L 572,346 L 573,346 L 574,345 L 574,344 L 575,344 L 576,345 L 576,346 L 576,347 " /></g>
</svg>
