<?xml version="1.0" standalone="no"?><!DOCTYPE svg PUBLIC "-//W3C//DTD SVG 1.1//EN" "http://www.w3.org/Graphics/SVG/1.1/DTD/svg11.dtd"><svg xmlns="http://www.w3.org/2000/svg" viewBox="456 313 71 77" version = "1.1">
<g id="30401" ><path d="M 495,313 L 498,315 L 499,315 L 500,315 L 501,315 L 502,315 L 502,316 L 504,316 L 504,317 L 505,317 L 509,317 L 511,316 L 512,316 L 513,316 L 513,317 L 513,318 L 514,318 L 515,318 L 517,318 L 518,318 L 519,317 L 524,318 L 524,319 L 523,319 L 523,320 L 522,320 L 522,321 L 521,321 L 521,322 L 520,322 L 519,323 L 519,324 L 518,324 L 519,324 L 519,325 L 519,326 L 521,327 L 522,328 L 525,332 L 524,333 L 524,334 L 525,334 L 525,335 L 526,335 L 526,336 L 527,336 L 527,337 L 527,338 L 527,339 L 527,340 L 527,341 L 526,341 L 526,342 L 525,342 L 524,343 L 523,344 L 523,345 L 522,345 L 521,345 L 520,345 L 520,346 L 519,346 L 519,347 L 518,347 L 518,348 L 517,348 L 517,347 L 516,347 L 515,347 L 514,347 L 514,348 L 513,348 L 512,348 L 512,347 L 511,347 L 510,346 L 510,345 L 509,344 L 508,344 L 507,343 L 506,342 L 506,343 L 505,343 L 505,344 L 504,344 L 504,345 L 504,346 L 503,346 L 503,347 L 503,348 L 503,349 L 503,350 L 503,351 L 503,352 L 503,353 L 503,354 L 504,354 L 504,355 L 504,356 L 503,356 L 503,357 L 503,358 L 500,358 L 499,358 L 499,359 L 500,361 L 499,362 L 498,364 L 498,365 L 498,366 L 498,367 L 499,369 L 500,369 L 500,370 L 501,371 L 501,372 L 501,373 L 500,373 L 499,374 L 499,375 L 499,376 L 500,377 L 501,377 L 501,378 L 500,378 L 499,378 L 498,379 L 497,379 L 496,379 L 495,380 L 495,381 L 496,382 L 496,383 L 495,384 L 494,385 L 493,385 L 493,386 L 492,386 L 492,387 L 492,388 L 491,388 L 491,389 L 490,389 L 490,390 L 488,390 L 487,390 L 486,389 L 485,389 L 484,389 L 484,388 L 483,388 L 483,389 L 483,388 L 482,388 L 482,387 L 482,386 L 481,386 L 480,385 L 479,385 L 478,385 L 477,385 L 478,384 L 477,383 L 476,383 L 475,383 L 474,383 L 473,382 L 473,381 L 473,382 L 472,382 L 471,382 L 470,381 L 470,380 L 469,380 L 468,380 L 467,380 L 467,381 L 466,381 L 466,380 L 465,380 L 464,380 L 463,381 L 463,380 L 463,379 L 463,378 L 464,378 L 465,378 L 465,377 L 466,377 L 466,376 L 467,376 L 467,375 L 467,374 L 467,373 L 467,372 L 467,371 L 467,370 L 467,369 L 467,368 L 466,368 L 466,367 L 466,366 L 466,365 L 467,364 L 466,364 L 466,363 L 466,362 L 465,362 L 465,361 L 464,361 L 464,360 L 464,359 L 463,359 L 463,358 L 462,358 L 462,357 L 463,357 L 462,357 L 462,356 L 462,355 L 461,355 L 460,355 L 460,354 L 459,354 L 459,353 L 459,352 L 459,351 L 459,350 L 460,350 L 460,349 L 460,348 L 460,347 L 459,346 L 458,346 L 458,345 L 457,345 L 456,344 L 456,343 L 457,342 L 458,342 L 459,342 L 459,341 L 458,341 L 457,341 L 457,340 L 457,339 L 458,337 L 458,336 L 459,336 L 459,334 L 460,333 L 460,331 L 461,328 L 466,320 L 468,321 L 469,322 L 469,321 L 470,321 L 471,321 L 471,320 L 472,320 L 472,319 L 473,319 L 474,319 L 477,316 L 479,316 L 482,314 L 484,313 L 487,314 L 490,313 L 491,314 L 492,314 L 492,315 L 493,315 L 494,315 L 494,314 L 495,313 " /></g>
</svg>
