<?xml version="1.0" standalone="no"?><!DOCTYPE svg PUBLIC "-//W3C//DTD SVG 1.1//EN" "http://www.w3.org/Graphics/SVG/1.1/DTD/svg11.dtd"><svg xmlns="http://www.w3.org/2000/svg" viewBox="488 340 99 113" version = "1.1">
<g id="30402" ><path d="M 528,341 L 529,341 L 530,341 L 531,342 L 532,342 L 531,342 L 531,343 L 532,343 L 532,344 L 533,344 L 533,345 L 533,346 L 534,347 L 534,348 L 533,349 L 533,348 L 533,349 L 534,350 L 535,350 L 535,351 L 536,351 L 537,351 L 537,352 L 538,352 L 539,352 L 540,353 L 541,353 L 541,352 L 540,352 L 541,351 L 540,351 L 540,350 L 540,349 L 540,348 L 540,347 L 540,346 L 540,345 L 541,345 L 541,344 L 542,344 L 544,344 L 545,345 L 545,344 L 546,344 L 546,343 L 546,344 L 547,344 L 547,345 L 546,345 L 546,346 L 547,346 L 548,347 L 549,347 L 549,348 L 550,348 L 551,348 L 551,349 L 551,350 L 552,350 L 552,351 L 553,351 L 553,352 L 553,353 L 554,353 L 554,354 L 554,355 L 554,356 L 555,356 L 556,356 L 556,357 L 557,357 L 556,357 L 556,358 L 556,359 L 555,360 L 556,362 L 556,363 L 555,364 L 554,364 L 554,365 L 553,365 L 552,365 L 552,366 L 552,367 L 551,367 L 550,368 L 551,368 L 552,370 L 553,370 L 554,370 L 555,371 L 554,371 L 554,372 L 555,373 L 555,374 L 556,374 L 556,375 L 558,376 L 559,376 L 563,378 L 565,379 L 568,381 L 569,382 L 570,383 L 571,384 L 573,386 L 576,390 L 576,391 L 576,392 L 577,392 L 577,393 L 577,394 L 577,395 L 577,396 L 577,397 L 578,397 L 577,398 L 578,398 L 578,399 L 579,399 L 579,400 L 580,400 L 580,401 L 580,402 L 581,402 L 581,403 L 580,403 L 579,403 L 579,402 L 578,402 L 578,401 L 577,401 L 576,403 L 575,404 L 576,405 L 576,406 L 576,407 L 576,408 L 576,410 L 576,411 L 577,411 L 577,412 L 577,413 L 578,413 L 578,414 L 579,414 L 580,414 L 580,415 L 580,416 L 580,417 L 579,417 L 579,418 L 578,418 L 578,419 L 577,419 L 577,420 L 576,420 L 576,421 L 576,422 L 575,422 L 575,423 L 574,423 L 574,424 L 574,425 L 573,425 L 573,426 L 573,427 L 574,427 L 576,428 L 577,429 L 578,430 L 578,431 L 579,431 L 580,431 L 581,434 L 583,434 L 584,436 L 586,436 L 586,437 L 587,438 L 587,439 L 587,440 L 587,441 L 587,442 L 586,442 L 586,443 L 587,443 L 587,444 L 586,444 L 586,445 L 585,445 L 585,446 L 584,446 L 583,446 L 583,447 L 582,447 L 582,448 L 581,448 L 581,449 L 580,449 L 580,450 L 580,449 L 580,450 L 579,450 L 578,450 L 578,451 L 578,452 L 577,452 L 576,452 L 575,452 L 575,453 L 574,452 L 573,452 L 572,451 L 572,450 L 571,450 L 570,449 L 569,449 L 569,448 L 568,448 L 568,447 L 568,446 L 567,446 L 567,445 L 566,445 L 565,445 L 565,444 L 564,444 L 564,443 L 563,443 L 563,442 L 562,442 L 562,441 L 561,440 L 560,441 L 559,441 L 558,441 L 557,441 L 557,440 L 556,440 L 555,439 L 554,439 L 554,440 L 553,441 L 552,441 L 552,442 L 551,442 L 550,442 L 549,442 L 548,442 L 548,443 L 548,444 L 547,444 L 546,444 L 545,445 L 544,445 L 543,445 L 542,445 L 541,445 L 540,445 L 540,446 L 539,446 L 538,446 L 537,447 L 536,447 L 535,447 L 534,447 L 533,447 L 532,447 L 532,446 L 532,445 L 532,444 L 531,444 L 531,443 L 530,443 L 529,442 L 529,441 L 529,440 L 530,440 L 529,439 L 530,439 L 530,438 L 530,437 L 530,436 L 529,436 L 529,435 L 529,434 L 528,434 L 527,434 L 527,433 L 527,432 L 526,432 L 525,432 L 525,431 L 524,431 L 523,432 L 523,433 L 523,434 L 522,434 L 522,433 L 521,433 L 521,432 L 520,432 L 520,431 L 519,431 L 519,430 L 518,430 L 517,430 L 517,429 L 516,429 L 515,429 L 515,428 L 514,428 L 514,427 L 513,427 L 513,426 L 513,425 L 513,424 L 513,423 L 513,422 L 512,422 L 512,421 L 511,421 L 511,420 L 510,420 L 510,419 L 509,419 L 509,418 L 508,418 L 508,417 L 508,416 L 507,416 L 507,415 L 506,414 L 506,413 L 506,412 L 505,412 L 505,411 L 504,411 L 504,410 L 504,409 L 504,408 L 504,407 L 503,407 L 502,407 L 502,406 L 502,405 L 501,405 L 502,404 L 501,404 L 501,403 L 501,402 L 500,402 L 499,401 L 498,401 L 498,400 L 498,399 L 497,399 L 497,398 L 496,398 L 496,397 L 496,396 L 495,395 L 494,394 L 493,394 L 492,394 L 492,393 L 491,393 L 491,392 L 490,392 L 490,391 L 489,391 L 488,391 L 488,390 L 490,390 L 490,389 L 491,389 L 491,388 L 492,388 L 492,387 L 492,386 L 493,386 L 493,385 L 494,385 L 495,384 L 496,383 L 496,382 L 495,381 L 495,380 L 496,379 L 497,379 L 498,379 L 499,378 L 500,378 L 501,378 L 501,377 L 500,377 L 499,376 L 499,375 L 499,374 L 500,373 L 501,373 L 501,372 L 501,371 L 500,370 L 500,369 L 499,369 L 498,367 L 498,366 L 498,365 L 498,364 L 499,362 L 500,361 L 499,359 L 499,358 L 500,358 L 503,358 L 503,357 L 503,356 L 504,356 L 504,355 L 504,354 L 503,354 L 503,353 L 503,352 L 503,351 L 503,350 L 503,349 L 503,348 L 503,347 L 503,346 L 504,346 L 504,345 L 504,344 L 505,344 L 505,343 L 506,343 L 506,342 L 507,343 L 508,344 L 509,344 L 510,345 L 510,346 L 511,347 L 512,347 L 512,348 L 513,348 L 514,348 L 514,347 L 515,347 L 516,347 L 517,347 L 517,348 L 518,348 L 518,347 L 519,347 L 519,346 L 520,346 L 520,345 L 521,345 L 522,345 L 523,345 L 523,344 L 524,343 L 525,342 L 526,342 L 526,341 L 527,341 L 527,340 L 527,341 L 528,341 " /></g>
</svg>
