<?xml version="1.0" standalone="no"?><!DOCTYPE svg PUBLIC "-//W3C//DTD SVG 1.1//EN" "http://www.w3.org/Graphics/SVG/1.1/DTD/svg11.dtd"><svg xmlns="http://www.w3.org/2000/svg" viewBox="464 271 61 51" version = "1.1">
<g id="30403" ><path d="M 489,278 L 490,278 L 490,279 L 491,279 L 491,280 L 491,279 L 492,279 L 493,280 L 494,280 L 494,279 L 495,279 L 495,280 L 495,281 L 496,281 L 496,282 L 495,282 L 495,283 L 494,284 L 494,285 L 494,286 L 494,288 L 493,289 L 493,288 L 491,287 L 490,288 L 488,289 L 488,290 L 488,291 L 488,292 L 487,292 L 487,293 L 486,293 L 485,294 L 485,295 L 484,295 L 483,296 L 484,296 L 485,297 L 486,298 L 486,299 L 487,299 L 488,300 L 489,301 L 490,301 L 491,301 L 493,300 L 494,300 L 500,299 L 500,298 L 501,298 L 502,298 L 502,299 L 502,298 L 503,298 L 504,298 L 504,297 L 505,297 L 506,297 L 507,297 L 508,297 L 509,297 L 512,300 L 512,301 L 513,301 L 513,302 L 513,303 L 514,303 L 515,304 L 516,304 L 516,305 L 517,305 L 518,305 L 518,306 L 519,306 L 519,307 L 520,307 L 520,308 L 521,308 L 521,309 L 521,310 L 522,310 L 522,311 L 523,311 L 523,312 L 524,312 L 524,313 L 525,313 L 525,314 L 525,315 L 524,315 L 524,316 L 524,317 L 524,318 L 519,317 L 518,318 L 517,318 L 515,318 L 514,318 L 513,318 L 513,317 L 513,316 L 512,316 L 511,316 L 509,317 L 505,317 L 504,317 L 504,316 L 502,316 L 502,315 L 501,315 L 500,315 L 499,315 L 498,315 L 495,313 L 494,314 L 494,315 L 493,315 L 492,315 L 492,314 L 491,314 L 490,313 L 487,314 L 484,313 L 482,314 L 479,316 L 477,316 L 474,319 L 473,319 L 472,319 L 472,320 L 471,320 L 471,321 L 470,321 L 469,321 L 469,322 L 468,321 L 466,320 L 466,319 L 465,316 L 465,315 L 464,314 L 464,313 L 464,312 L 464,311 L 465,310 L 465,309 L 465,308 L 466,308 L 466,307 L 466,306 L 466,305 L 467,305 L 467,304 L 467,303 L 466,302 L 466,301 L 467,301 L 467,300 L 468,299 L 468,298 L 468,297 L 468,294 L 468,290 L 467,287 L 467,285 L 467,283 L 469,283 L 471,281 L 475,279 L 476,278 L 478,278 L 479,277 L 480,277 L 481,275 L 482,274 L 486,271 L 486,272 L 487,272 L 487,273 L 487,274 L 488,275 L 488,276 L 488,277 L 489,277 L 489,278 " /></g>
</svg>
