<?xml version="1.0" standalone="no"?><!DOCTYPE svg PUBLIC "-//W3C//DTD SVG 1.1//EN" "http://www.w3.org/Graphics/SVG/1.1/DTD/svg11.dtd"><svg xmlns="http://www.w3.org/2000/svg" viewBox="573 286 55 57" version = "1.1">
<g id="30501" ><path d="M 612,288 L 613,290 L 614,291 L 615,291 L 616,292 L 617,292 L 617,293 L 618,293 L 620,294 L 621,296 L 621,299 L 621,300 L 622,303 L 622,304 L 622,305 L 622,306 L 621,306 L 620,309 L 620,310 L 619,313 L 620,315 L 620,316 L 620,317 L 620,318 L 621,318 L 621,319 L 622,319 L 622,320 L 623,320 L 623,321 L 624,321 L 624,322 L 625,322 L 625,323 L 625,324 L 626,325 L 628,329 L 627,330 L 627,331 L 626,331 L 625,331 L 624,332 L 623,334 L 620,337 L 619,338 L 617,339 L 614,340 L 613,340 L 612,340 L 611,340 L 611,341 L 611,342 L 610,342 L 610,343 L 608,343 L 605,342 L 604,341 L 603,341 L 602,341 L 601,341 L 600,341 L 600,340 L 599,340 L 599,339 L 599,338 L 596,330 L 593,328 L 592,327 L 588,325 L 584,322 L 583,321 L 579,319 L 579,318 L 579,317 L 578,316 L 577,315 L 576,314 L 575,314 L 574,314 L 573,314 L 573,313 L 573,312 L 574,312 L 573,312 L 574,311 L 574,308 L 574,306 L 574,305 L 575,303 L 575,302 L 575,301 L 576,301 L 576,300 L 576,297 L 577,297 L 578,297 L 579,297 L 585,294 L 590,287 L 591,287 L 593,287 L 599,288 L 605,286 L 610,287 L 611,288 L 612,288 " /></g>
</svg>
