<?xml version="1.0" standalone="no"?><!DOCTYPE svg PUBLIC "-//W3C//DTD SVG 1.1//EN" "http://www.w3.org/Graphics/SVG/1.1/DTD/svg11.dtd"><svg xmlns="http://www.w3.org/2000/svg" viewBox="612 278 85 73" version = "1.1">
<g id="30502" ><path d="M 621,278 L 623,281 L 628,280 L 629,281 L 641,283 L 642,283 L 643,283 L 643,284 L 644,284 L 645,284 L 646,284 L 657,283 L 666,282 L 669,282 L 671,280 L 678,282 L 679,285 L 683,286 L 684,287 L 686,288 L 687,289 L 693,292 L 697,296 L 697,298 L 696,298 L 696,299 L 695,299 L 694,300 L 693,301 L 692,302 L 686,298 L 683,294 L 681,293 L 679,292 L 678,294 L 673,298 L 672,299 L 671,298 L 670,298 L 669,298 L 668,298 L 667,299 L 666,299 L 665,299 L 664,298 L 663,300 L 663,301 L 663,302 L 664,303 L 664,304 L 664,305 L 664,306 L 665,307 L 665,308 L 666,308 L 666,309 L 666,314 L 669,316 L 669,318 L 669,319 L 670,320 L 671,320 L 674,322 L 678,327 L 681,329 L 681,330 L 680,331 L 679,331 L 679,332 L 678,332 L 678,333 L 677,333 L 677,334 L 676,334 L 676,335 L 675,337 L 675,339 L 675,341 L 675,343 L 674,346 L 672,347 L 672,348 L 671,348 L 667,349 L 660,351 L 652,347 L 649,344 L 646,343 L 638,340 L 636,340 L 636,339 L 634,338 L 631,336 L 629,335 L 626,334 L 624,332 L 625,331 L 626,331 L 627,331 L 627,330 L 628,329 L 626,325 L 625,324 L 625,323 L 625,322 L 624,322 L 624,321 L 623,321 L 623,320 L 622,320 L 622,319 L 621,319 L 621,318 L 620,318 L 620,317 L 620,316 L 620,315 L 619,313 L 620,310 L 620,309 L 621,306 L 622,306 L 622,305 L 622,304 L 622,303 L 621,300 L 621,299 L 621,296 L 620,294 L 618,293 L 617,293 L 617,292 L 616,292 L 615,291 L 614,291 L 613,290 L 612,288 L 613,287 L 614,286 L 615,285 L 616,285 L 617,284 L 618,282 L 618,281 L 619,278 L 621,278 " /></g>
</svg>
