<?xml version="1.0" standalone="no"?><!DOCTYPE svg PUBLIC "-//W3C//DTD SVG 1.1//EN" "http://www.w3.org/Graphics/SVG/1.1/DTD/svg11.dtd"><svg xmlns="http://www.w3.org/2000/svg" viewBox="313 333 112 108" version = "1.1">
<g id="30601" ><path d="M 379,348 L 378,348 L 378,349 L 377,349 L 376,349 L 376,350 L 375,350 L 374,350 L 373,351 L 373,352 L 374,352 L 374,353 L 375,353 L 376,355 L 377,355 L 378,357 L 378,358 L 378,359 L 378,360 L 379,361 L 380,361 L 380,362 L 380,363 L 381,364 L 381,365 L 382,365 L 382,366 L 381,366 L 381,367 L 381,368 L 381,369 L 382,369 L 382,370 L 381,370 L 381,371 L 381,372 L 380,372 L 380,373 L 379,373 L 378,374 L 378,375 L 378,376 L 379,376 L 379,377 L 379,378 L 380,378 L 380,379 L 380,380 L 381,380 L 382,380 L 382,381 L 383,381 L 383,382 L 384,382 L 385,382 L 386,382 L 386,383 L 387,383 L 387,384 L 388,384 L 388,385 L 389,385 L 389,386 L 388,387 L 387,388 L 387,389 L 387,390 L 388,390 L 388,391 L 388,392 L 388,393 L 389,393 L 389,392 L 390,392 L 390,393 L 391,393 L 391,394 L 392,395 L 393,395 L 393,396 L 394,396 L 394,397 L 394,398 L 394,399 L 394,400 L 394,401 L 394,402 L 395,402 L 395,403 L 396,403 L 396,404 L 396,405 L 397,405 L 397,406 L 399,406 L 406,405 L 407,405 L 408,405 L 409,405 L 410,405 L 411,405 L 411,404 L 412,404 L 413,404 L 413,403 L 414,403 L 416,403 L 416,404 L 417,407 L 417,409 L 418,410 L 418,411 L 419,415 L 420,416 L 422,418 L 423,420 L 424,422 L 425,424 L 425,426 L 425,427 L 423,428 L 423,429 L 422,429 L 422,430 L 421,430 L 421,431 L 421,432 L 421,433 L 420,433 L 419,433 L 419,434 L 418,435 L 417,436 L 417,437 L 416,438 L 415,437 L 414,437 L 413,437 L 412,437 L 411,437 L 411,436 L 410,436 L 409,436 L 408,436 L 408,437 L 408,436 L 407,436 L 406,436 L 406,435 L 405,435 L 404,435 L 404,434 L 404,433 L 403,433 L 403,432 L 402,432 L 402,433 L 401,433 L 400,433 L 399,433 L 397,434 L 395,435 L 395,436 L 393,436 L 392,436 L 389,435 L 385,435 L 384,436 L 382,436 L 381,437 L 380,437 L 379,437 L 378,437 L 377,437 L 374,438 L 371,439 L 371,440 L 370,441 L 369,441 L 368,441 L 366,441 L 365,440 L 365,437 L 361,435 L 360,435 L 356,432 L 355,431 L 354,430 L 355,429 L 356,429 L 358,429 L 358,427 L 358,425 L 359,424 L 359,423 L 360,422 L 359,421 L 358,421 L 358,420 L 357,420 L 356,420 L 355,420 L 355,419 L 355,418 L 355,417 L 356,416 L 356,415 L 358,411 L 357,410 L 357,409 L 357,408 L 357,407 L 357,405 L 357,404 L 358,403 L 358,402 L 359,402 L 359,401 L 359,400 L 358,400 L 358,399 L 358,398 L 358,397 L 357,397 L 357,396 L 358,396 L 358,395 L 358,394 L 357,394 L 355,392 L 353,390 L 349,387 L 345,383 L 343,383 L 343,382 L 343,381 L 342,381 L 342,380 L 342,379 L 341,379 L 341,378 L 340,378 L 340,377 L 339,377 L 338,377 L 337,377 L 337,378 L 336,378 L 335,378 L 334,377 L 333,377 L 332,377 L 332,376 L 328,376 L 325,374 L 321,370 L 319,367 L 316,364 L 315,364 L 315,363 L 314,362 L 314,361 L 313,361 L 313,360 L 314,358 L 315,358 L 316,357 L 317,357 L 318,356 L 319,356 L 320,356 L 320,355 L 321,355 L 322,356 L 322,355 L 323,355 L 324,355 L 324,354 L 324,353 L 325,353 L 325,352 L 326,352 L 326,351 L 327,351 L 328,351 L 329,351 L 330,351 L 331,352 L 332,352 L 333,352 L 333,351 L 334,350 L 334,349 L 335,348 L 336,347 L 337,346 L 338,346 L 338,345 L 340,345 L 342,343 L 344,342 L 347,340 L 349,338 L 350,338 L 352,336 L 352,335 L 353,334 L 353,333 L 354,333 L 356,334 L 358,337 L 359,338 L 362,341 L 365,343 L 366,344 L 367,344 L 368,344 L 369,343 L 370,343 L 371,343 L 372,343 L 374,342 L 375,342 L 376,341 L 376,342 L 376,343 L 376,344 L 376,345 L 377,345 L 377,346 L 378,346 L 378,347 L 379,348 " /></g>
</svg>
