<?xml version="1.0" standalone="no"?><!DOCTYPE svg PUBLIC "-//W3C//DTD SVG 1.1//EN" "http://www.w3.org/Graphics/SVG/1.1/DTD/svg11.dtd"><svg xmlns="http://www.w3.org/2000/svg" viewBox="373 348 41 58" version = "1.1">
<g id="30703" ><path d="M 380,349 L 381,349 L 382,350 L 382,351 L 383,351 L 384,351 L 384,352 L 385,352 L 385,353 L 385,354 L 386,354 L 386,355 L 386,356 L 387,356 L 387,357 L 387,358 L 388,359 L 388,360 L 389,360 L 389,361 L 389,362 L 390,362 L 391,363 L 392,363 L 393,363 L 393,362 L 394,362 L 395,361 L 396,361 L 397,361 L 397,360 L 398,360 L 398,361 L 398,362 L 398,363 L 398,364 L 399,364 L 399,365 L 400,365 L 401,365 L 401,366 L 402,367 L 403,368 L 405,371 L 408,372 L 410,375 L 411,378 L 411,379 L 412,380 L 412,381 L 413,381 L 413,382 L 413,383 L 414,384 L 414,385 L 414,386 L 414,387 L 412,388 L 411,390 L 411,394 L 409,399 L 408,402 L 409,402 L 410,402 L 410,403 L 411,404 L 411,405 L 410,405 L 409,405 L 408,405 L 407,405 L 406,405 L 399,406 L 397,406 L 397,405 L 396,405 L 396,404 L 396,403 L 395,403 L 395,402 L 394,402 L 394,401 L 394,400 L 394,399 L 394,398 L 394,397 L 394,396 L 393,396 L 393,395 L 392,395 L 391,394 L 391,393 L 390,393 L 390,392 L 389,392 L 389,393 L 388,393 L 388,392 L 388,391 L 388,390 L 387,390 L 387,389 L 387,388 L 388,387 L 389,386 L 389,385 L 388,385 L 388,384 L 387,384 L 387,383 L 386,383 L 386,382 L 385,382 L 384,382 L 383,382 L 383,381 L 382,381 L 382,380 L 381,380 L 380,380 L 380,379 L 380,378 L 379,378 L 379,377 L 379,376 L 378,376 L 378,375 L 378,374 L 379,373 L 380,373 L 380,372 L 381,372 L 381,371 L 381,370 L 382,370 L 382,369 L 381,369 L 381,368 L 381,367 L 381,366 L 382,366 L 382,365 L 381,365 L 381,364 L 380,363 L 380,362 L 380,361 L 379,361 L 378,360 L 378,359 L 378,358 L 378,357 L 377,355 L 376,355 L 375,353 L 374,353 L 374,352 L 373,352 L 373,351 L 374,350 L 375,350 L 376,350 L 376,349 L 377,349 L 378,349 L 378,348 L 379,348 L 379,349 L 380,349 " /></g>
</svg>
