<?xml version="1.0" standalone="no"?><!DOCTYPE svg PUBLIC "-//W3C//DTD SVG 1.1//EN" "http://www.w3.org/Graphics/SVG/1.1/DTD/svg11.dtd"><svg xmlns="http://www.w3.org/2000/svg" viewBox="401 272 67 72" version = "1.1">
<g id="30702" ><path d="M 429,283 L 435,283 L 439,282 L 443,283 L 455,290 L 460,288 L 462,286 L 463,286 L 464,286 L 465,286 L 466,286 L 467,285 L 467,287 L 468,290 L 468,294 L 468,297 L 468,298 L 468,299 L 467,300 L 467,301 L 466,301 L 466,302 L 467,303 L 467,304 L 467,305 L 466,305 L 466,306 L 466,307 L 466,308 L 465,308 L 465,309 L 465,310 L 464,311 L 464,312 L 464,313 L 464,314 L 465,315 L 465,316 L 466,319 L 466,320 L 461,328 L 460,331 L 460,333 L 459,334 L 459,336 L 458,336 L 458,337 L 457,339 L 456,338 L 455,337 L 455,336 L 453,334 L 452,334 L 450,335 L 450,336 L 450,337 L 449,337 L 448,336 L 447,336 L 446,336 L 446,337 L 444,337 L 443,338 L 443,339 L 442,340 L 443,341 L 443,342 L 442,342 L 441,342 L 441,343 L 440,343 L 440,342 L 440,343 L 439,343 L 438,343 L 439,343 L 439,344 L 438,344 L 438,343 L 437,343 L 436,343 L 435,343 L 435,342 L 434,342 L 434,341 L 434,340 L 434,339 L 434,338 L 433,338 L 433,337 L 432,337 L 431,336 L 431,335 L 429,334 L 427,334 L 426,334 L 426,333 L 426,332 L 426,331 L 426,330 L 425,330 L 424,330 L 423,330 L 422,329 L 423,329 L 423,328 L 424,328 L 424,327 L 424,326 L 424,325 L 423,325 L 423,324 L 423,323 L 422,323 L 422,324 L 421,323 L 421,322 L 420,322 L 419,322 L 419,321 L 418,321 L 417,321 L 417,320 L 417,319 L 417,318 L 416,318 L 416,317 L 415,317 L 415,316 L 414,315 L 413,315 L 414,315 L 415,313 L 415,312 L 413,308 L 406,301 L 407,299 L 408,295 L 408,292 L 408,290 L 407,289 L 407,288 L 406,288 L 405,287 L 405,286 L 406,285 L 405,283 L 404,281 L 403,280 L 401,276 L 402,274 L 405,274 L 408,274 L 410,274 L 412,273 L 418,272 L 418,273 L 419,273 L 420,275 L 424,278 L 425,281 L 429,283 " /></g>
</svg>
