<?xml version="1.0" standalone="no"?><!DOCTYPE svg PUBLIC "-//W3C//DTD SVG 1.1//EN" "http://www.w3.org/Graphics/SVG/1.1/DTD/svg11.dtd"><svg xmlns="http://www.w3.org/2000/svg" viewBox="393 315 85 118" version = "1.1">
<g id="30701" ><path d="M 417,320 L 417,321 L 418,321 L 419,321 L 419,322 L 420,322 L 421,322 L 421,323 L 422,324 L 422,323 L 423,323 L 423,324 L 423,325 L 424,325 L 424,326 L 424,327 L 424,328 L 423,328 L 423,329 L 422,329 L 423,330 L 424,330 L 425,330 L 426,330 L 426,331 L 426,332 L 426,333 L 426,334 L 427,334 L 429,334 L 431,335 L 431,336 L 432,337 L 433,337 L 433,338 L 434,338 L 434,339 L 434,340 L 434,341 L 434,342 L 435,342 L 435,343 L 436,343 L 437,343 L 438,343 L 438,344 L 439,344 L 439,343 L 438,343 L 439,343 L 440,343 L 440,342 L 440,343 L 441,343 L 441,342 L 442,342 L 443,342 L 443,341 L 442,340 L 443,339 L 443,338 L 444,337 L 446,337 L 446,336 L 447,336 L 448,336 L 449,337 L 450,337 L 450,336 L 450,335 L 452,334 L 453,334 L 455,336 L 455,337 L 456,338 L 457,339 L 457,340 L 457,341 L 458,341 L 459,341 L 459,342 L 458,342 L 457,342 L 456,343 L 456,344 L 457,345 L 458,345 L 458,346 L 459,346 L 460,347 L 460,348 L 460,349 L 460,350 L 459,350 L 459,351 L 459,352 L 459,353 L 459,354 L 460,354 L 460,355 L 461,355 L 462,355 L 462,356 L 462,357 L 463,357 L 462,357 L 462,358 L 463,358 L 463,359 L 464,359 L 464,360 L 464,361 L 465,361 L 465,362 L 466,362 L 466,363 L 466,364 L 467,364 L 466,365 L 466,366 L 466,367 L 466,368 L 467,368 L 467,369 L 467,370 L 467,371 L 467,372 L 467,373 L 467,374 L 467,375 L 467,376 L 466,376 L 466,377 L 465,377 L 465,378 L 464,378 L 463,378 L 463,379 L 463,380 L 463,381 L 464,380 L 465,380 L 466,380 L 466,381 L 467,381 L 467,380 L 468,380 L 469,380 L 470,380 L 470,381 L 471,382 L 472,382 L 473,382 L 473,381 L 473,382 L 474,383 L 475,383 L 476,383 L 477,383 L 478,384 L 477,385 L 476,384 L 476,385 L 476,386 L 475,386 L 475,387 L 475,388 L 474,388 L 474,389 L 474,390 L 473,390 L 474,390 L 473,390 L 473,391 L 472,391 L 472,392 L 472,393 L 472,394 L 471,394 L 472,394 L 471,394 L 471,395 L 471,396 L 471,397 L 471,398 L 471,399 L 471,400 L 471,401 L 471,402 L 470,402 L 470,403 L 465,408 L 461,410 L 459,413 L 457,415 L 457,417 L 456,417 L 455,418 L 455,419 L 456,420 L 455,420 L 454,421 L 454,422 L 454,423 L 455,424 L 454,424 L 454,425 L 452,425 L 452,426 L 451,426 L 450,427 L 449,427 L 448,427 L 448,426 L 447,426 L 446,426 L 444,424 L 442,426 L 441,426 L 440,426 L 439,427 L 437,427 L 436,428 L 436,430 L 435,430 L 435,432 L 434,433 L 433,433 L 432,432 L 431,432 L 429,433 L 427,433 L 427,432 L 427,431 L 426,428 L 425,427 L 425,426 L 425,424 L 424,422 L 423,420 L 422,418 L 420,416 L 419,415 L 418,411 L 418,410 L 417,409 L 417,407 L 416,404 L 416,403 L 414,403 L 413,403 L 413,404 L 412,404 L 411,404 L 410,403 L 410,402 L 409,402 L 408,402 L 409,399 L 411,394 L 411,390 L 412,388 L 414,387 L 414,386 L 414,385 L 414,384 L 413,383 L 413,382 L 413,381 L 412,381 L 412,380 L 411,379 L 411,378 L 410,375 L 408,372 L 405,371 L 403,368 L 402,367 L 401,366 L 401,365 L 400,365 L 399,365 L 399,364 L 398,364 L 398,363 L 398,362 L 398,361 L 398,360 L 398,359 L 398,358 L 398,357 L 398,356 L 397,356 L 397,355 L 397,354 L 397,352 L 397,350 L 398,348 L 397,346 L 396,345 L 395,344 L 394,343 L 396,339 L 395,337 L 394,336 L 394,335 L 393,334 L 394,333 L 394,332 L 395,332 L 396,332 L 397,332 L 398,331 L 400,331 L 402,329 L 402,327 L 402,326 L 402,325 L 402,324 L 404,322 L 406,321 L 407,321 L 409,319 L 409,318 L 410,318 L 411,317 L 412,317 L 413,315 L 414,315 L 415,316 L 415,317 L 416,317 L 416,318 L 417,318 L 417,319 L 417,320 " /></g>
</svg>
