<?xml version="1.0" standalone="no"?><!DOCTYPE svg PUBLIC "-//W3C//DTD SVG 1.1//EN" "http://www.w3.org/Graphics/SVG/1.1/DTD/svg11.dtd"><svg xmlns="http://www.w3.org/2000/svg" viewBox="483 274 47 29" version = "1.1">
<g id="30803" ><path d="M 483,296 L 484,295 L 485,295 L 485,294 L 486,293 L 487,293 L 487,292 L 488,292 L 488,291 L 488,290 L 488,289 L 490,288 L 491,287 L 493,288 L 493,289 L 494,288 L 494,286 L 494,285 L 494,284 L 495,283 L 495,282 L 496,282 L 496,281 L 497,283 L 504,284 L 509,284 L 513,283 L 514,281 L 520,278 L 523,277 L 526,274 L 528,274 L 528,275 L 528,276 L 528,277 L 529,278 L 529,279 L 530,279 L 529,279 L 529,280 L 528,281 L 528,282 L 528,283 L 527,283 L 527,284 L 527,285 L 527,286 L 526,287 L 526,288 L 526,289 L 526,290 L 526,291 L 526,292 L 526,293 L 527,295 L 526,295 L 526,296 L 525,296 L 525,297 L 524,297 L 523,297 L 522,297 L 522,300 L 519,300 L 519,301 L 518,301 L 517,301 L 516,301 L 516,302 L 515,302 L 515,303 L 514,303 L 513,303 L 513,302 L 513,301 L 512,301 L 512,300 L 509,297 L 508,297 L 507,297 L 506,297 L 505,297 L 504,297 L 504,298 L 503,298 L 502,298 L 502,299 L 502,298 L 501,298 L 500,298 L 500,299 L 494,300 L 493,300 L 491,301 L 490,301 L 489,301 L 488,300 L 487,299 L 486,299 L 486,298 L 485,297 L 484,296 L 483,296 " /></g>
</svg>
