<?xml version="1.0" standalone="no"?><!DOCTYPE svg PUBLIC "-//W3C//DTD SVG 1.1//EN" "http://www.w3.org/Graphics/SVG/1.1/DTD/svg11.dtd"><svg xmlns="http://www.w3.org/2000/svg" viewBox="519 315 34 38" version = "1.1">
<g id="30802" ><path d="M 548,316 L 553,317 L 552,318 L 551,322 L 550,323 L 549,323 L 548,323 L 547,323 L 547,324 L 547,325 L 547,326 L 546,327 L 546,328 L 545,328 L 545,329 L 545,330 L 545,331 L 544,332 L 544,333 L 543,333 L 543,334 L 543,335 L 544,335 L 544,336 L 544,337 L 544,338 L 544,339 L 544,340 L 545,340 L 545,341 L 546,341 L 546,342 L 545,342 L 545,343 L 546,343 L 546,344 L 545,344 L 545,345 L 544,344 L 542,344 L 541,344 L 541,345 L 540,345 L 540,346 L 540,347 L 540,348 L 540,349 L 540,350 L 540,351 L 541,351 L 540,352 L 541,352 L 541,353 L 540,353 L 539,352 L 538,352 L 537,352 L 537,351 L 536,351 L 535,351 L 535,350 L 534,350 L 533,349 L 533,348 L 533,349 L 534,348 L 534,347 L 533,346 L 533,345 L 533,344 L 532,344 L 532,343 L 531,343 L 531,342 L 532,342 L 531,342 L 530,341 L 529,341 L 528,341 L 527,341 L 527,340 L 527,339 L 527,338 L 527,337 L 527,336 L 526,336 L 526,335 L 525,335 L 525,334 L 524,334 L 524,333 L 525,332 L 522,328 L 521,327 L 519,326 L 519,325 L 519,324 L 520,324 L 521,324 L 522,324 L 522,323 L 523,323 L 524,324 L 525,323 L 526,324 L 527,324 L 528,324 L 528,325 L 530,325 L 530,324 L 530,323 L 531,323 L 532,323 L 532,322 L 532,321 L 533,321 L 533,320 L 533,319 L 534,319 L 535,318 L 535,317 L 535,316 L 535,315 L 536,315 L 537,315 L 538,315 L 540,315 L 541,315 L 547,316 L 548,316 " /></g>
</svg>
