<?xml version="1.0" standalone="no"?><!DOCTYPE svg PUBLIC "-//W3C//DTD SVG 1.1//EN" "http://www.w3.org/Graphics/SVG/1.1/DTD/svg11.dtd"><svg xmlns="http://www.w3.org/2000/svg" viewBox="514 294 34 31" version = "1.1">
<g id="30801" ><path d="M 532,295 L 532,294 L 532,295 L 533,295 L 534,295 L 534,296 L 535,296 L 535,297 L 536,298 L 536,299 L 536,301 L 537,301 L 538,301 L 538,302 L 538,303 L 538,304 L 539,304 L 540,305 L 541,305 L 542,304 L 543,304 L 544,304 L 545,304 L 545,305 L 546,304 L 546,305 L 545,305 L 545,306 L 546,306 L 546,307 L 546,308 L 547,308 L 547,309 L 547,310 L 548,310 L 548,311 L 548,316 L 547,316 L 541,315 L 540,315 L 538,315 L 537,315 L 536,315 L 535,315 L 535,316 L 535,317 L 535,318 L 534,319 L 533,319 L 533,320 L 533,321 L 532,321 L 532,322 L 532,323 L 531,323 L 530,323 L 530,324 L 530,325 L 528,325 L 528,324 L 527,324 L 526,324 L 525,323 L 524,324 L 523,323 L 522,323 L 522,324 L 521,324 L 520,324 L 519,324 L 518,324 L 519,324 L 519,323 L 520,322 L 521,322 L 521,321 L 522,321 L 522,320 L 523,320 L 523,319 L 524,319 L 524,318 L 524,317 L 524,316 L 524,315 L 525,315 L 525,314 L 525,313 L 524,313 L 524,312 L 523,312 L 523,311 L 522,311 L 522,310 L 521,310 L 521,309 L 521,308 L 520,308 L 520,307 L 519,307 L 519,306 L 518,306 L 518,305 L 517,305 L 516,305 L 516,304 L 515,304 L 514,303 L 515,303 L 515,302 L 516,302 L 516,301 L 517,301 L 518,301 L 519,301 L 519,300 L 522,300 L 522,297 L 523,297 L 524,297 L 525,297 L 525,296 L 526,296 L 526,295 L 527,295 L 528,295 L 529,295 L 530,295 L 531,295 L 532,295 L 531,295 L 531,294 L 532,294 L 532,295 " /></g>
</svg>
