<?xml version="1.0" standalone="no"?><!DOCTYPE svg PUBLIC "-//W3C//DTD SVG 1.1//EN" "http://www.w3.org/Graphics/SVG/1.1/DTD/svg11.dtd"><svg xmlns="http://www.w3.org/2000/svg" viewBox="424 231 16 25" version = "1.1">
<g id="30905" ><path d="M 430,234 L 431,234 L 431,235 L 432,235 L 432,234 L 434,235 L 436,236 L 437,236 L 438,237 L 439,237 L 440,238 L 440,241 L 440,242 L 440,243 L 440,244 L 440,245 L 440,246 L 440,247 L 439,247 L 438,247 L 438,249 L 437,253 L 437,256 L 436,256 L 435,256 L 435,255 L 434,254 L 434,253 L 433,253 L 432,253 L 432,254 L 430,256 L 429,256 L 428,256 L 427,256 L 426,256 L 425,255 L 425,254 L 425,253 L 426,253 L 425,252 L 424,252 L 424,251 L 425,250 L 425,249 L 425,248 L 425,247 L 425,246 L 426,246 L 426,245 L 426,244 L 426,243 L 426,242 L 425,241 L 425,240 L 425,239 L 425,237 L 426,237 L 426,234 L 427,234 L 427,233 L 427,232 L 427,231 L 427,232 L 428,232 L 428,233 L 429,233 L 429,234 L 430,234 " /></g>
</svg>
