<?xml version="1.0" standalone="no"?><!DOCTYPE svg PUBLIC "-//W3C//DTD SVG 1.1//EN" "http://www.w3.org/Graphics/SVG/1.1/DTD/svg11.dtd"><svg xmlns="http://www.w3.org/2000/svg" viewBox="355 129 80 140" version = "1.1">
<g id="30901" ><path d="M 420,138 L 424,142 L 425,149 L 423,154 L 420,154 L 418,154 L 417,154 L 415,155 L 413,157 L 412,157 L 412,158 L 412,159 L 412,160 L 413,160 L 413,161 L 413,162 L 413,163 L 412,163 L 412,164 L 411,164 L 411,165 L 411,166 L 410,166 L 410,167 L 410,169 L 410,170 L 410,171 L 411,171 L 412,171 L 413,171 L 414,171 L 415,172 L 416,172 L 417,172 L 417,173 L 418,173 L 419,173 L 420,174 L 421,174 L 422,174 L 422,175 L 423,175 L 424,175 L 425,175 L 425,176 L 426,176 L 426,177 L 427,178 L 427,179 L 427,180 L 428,181 L 429,181 L 429,182 L 429,183 L 430,183 L 430,184 L 430,185 L 430,186 L 431,186 L 431,187 L 432,187 L 432,188 L 432,189 L 433,189 L 432,189 L 432,190 L 431,191 L 431,192 L 425,199 L 425,200 L 427,199 L 429,202 L 429,204 L 431,205 L 432,206 L 435,207 L 435,208 L 435,209 L 435,210 L 434,210 L 434,211 L 434,212 L 434,213 L 434,214 L 433,214 L 433,215 L 433,216 L 433,217 L 432,217 L 432,218 L 432,219 L 431,222 L 430,227 L 428,232 L 427,232 L 427,231 L 427,232 L 427,233 L 427,234 L 426,234 L 426,237 L 425,237 L 425,239 L 425,240 L 425,241 L 426,242 L 426,243 L 426,244 L 426,245 L 426,246 L 425,246 L 425,247 L 425,248 L 425,249 L 425,250 L 424,251 L 424,252 L 425,252 L 426,253 L 425,253 L 425,254 L 425,255 L 426,256 L 427,256 L 428,256 L 428,257 L 427,258 L 426,259 L 425,262 L 425,263 L 422,264 L 419,266 L 419,267 L 417,269 L 415,266 L 414,265 L 409,262 L 408,257 L 407,257 L 408,252 L 408,248 L 408,243 L 407,243 L 407,242 L 406,242 L 406,241 L 406,240 L 406,239 L 406,238 L 406,237 L 406,236 L 406,235 L 407,234 L 408,233 L 409,232 L 410,231 L 411,230 L 413,227 L 414,226 L 414,225 L 414,224 L 413,223 L 413,222 L 413,220 L 412,219 L 411,218 L 409,217 L 408,216 L 406,215 L 405,213 L 404,212 L 403,212 L 402,211 L 401,211 L 399,211 L 398,211 L 397,211 L 395,211 L 394,210 L 393,210 L 392,210 L 390,210 L 389,210 L 388,210 L 387,210 L 386,210 L 385,210 L 384,210 L 383,210 L 382,210 L 381,210 L 380,209 L 379,209 L 378,210 L 378,209 L 378,208 L 377,208 L 376,207 L 376,206 L 376,205 L 375,204 L 375,203 L 374,203 L 374,202 L 374,201 L 373,201 L 372,200 L 376,195 L 376,193 L 376,188 L 376,185 L 371,187 L 367,185 L 364,181 L 363,179 L 360,178 L 356,175 L 355,169 L 356,168 L 356,167 L 357,167 L 357,166 L 358,166 L 358,165 L 358,164 L 358,163 L 357,163 L 357,162 L 357,161 L 357,160 L 358,160 L 358,159 L 359,159 L 359,158 L 360,158 L 360,157 L 361,157 L 361,156 L 362,156 L 362,155 L 362,154 L 363,154 L 363,153 L 363,152 L 363,151 L 363,150 L 363,149 L 363,148 L 363,147 L 364,147 L 364,146 L 365,146 L 365,145 L 365,144 L 366,144 L 366,143 L 366,142 L 367,142 L 367,141 L 368,141 L 368,140 L 369,140 L 369,139 L 370,139 L 371,139 L 371,138 L 372,138 L 372,137 L 373,137 L 374,137 L 374,136 L 375,136 L 375,135 L 376,135 L 377,135 L 377,134 L 377,133 L 378,133 L 379,133 L 380,133 L 380,132 L 381,132 L 382,132 L 382,131 L 382,130 L 382,129 L 383,129 L 384,129 L 385,129 L 386,129 L 387,129 L 388,129 L 388,130 L 389,131 L 390,132 L 391,133 L 391,134 L 392,133 L 391,134 L 392,134 L 391,134 L 392,134 L 392,135 L 392,136 L 393,136 L 393,137 L 393,136 L 393,137 L 394,137 L 394,138 L 394,139 L 395,139 L 397,139 L 398,139 L 399,139 L 400,138 L 401,138 L 403,132 L 408,129 L 409,130 L 411,131 L 413,131 L 415,134 L 418,134 L 418,136 L 420,138 " /></g>
</svg>
