<?xml version="1.0" standalone="no"?><!DOCTYPE svg PUBLIC "-//W3C//DTD SVG 1.1//EN" "http://www.w3.org/Graphics/SVG/1.1/DTD/svg11.dtd"><svg xmlns="http://www.w3.org/2000/svg" viewBox="356 200 58 57" version = "1.1">
<g id="30904" ><path d="M 374,201 L 374,202 L 374,203 L 375,203 L 375,204 L 376,205 L 376,206 L 376,207 L 377,208 L 378,208 L 378,209 L 378,210 L 379,209 L 380,209 L 381,210 L 382,210 L 383,210 L 384,210 L 385,210 L 386,210 L 387,210 L 388,210 L 389,210 L 390,210 L 392,210 L 393,210 L 394,210 L 395,211 L 397,211 L 398,211 L 399,211 L 401,211 L 402,211 L 403,212 L 404,212 L 405,213 L 406,215 L 408,216 L 409,217 L 411,218 L 412,219 L 413,220 L 413,222 L 413,223 L 414,224 L 414,225 L 414,226 L 413,227 L 411,230 L 410,231 L 409,232 L 408,233 L 407,234 L 406,235 L 406,236 L 406,237 L 406,238 L 406,239 L 406,240 L 406,241 L 406,242 L 407,242 L 407,243 L 408,243 L 408,248 L 408,252 L 407,257 L 407,256 L 405,254 L 404,252 L 403,251 L 402,251 L 401,251 L 401,252 L 401,251 L 400,251 L 400,250 L 399,250 L 398,250 L 397,250 L 396,250 L 395,250 L 394,250 L 393,250 L 392,251 L 391,251 L 390,251 L 390,252 L 389,252 L 388,252 L 388,253 L 387,253 L 386,253 L 386,254 L 385,254 L 385,255 L 384,254 L 383,254 L 382,254 L 381,254 L 381,253 L 380,253 L 379,253 L 379,252 L 379,253 L 378,253 L 378,252 L 377,252 L 377,253 L 376,253 L 375,253 L 375,252 L 374,252 L 373,251 L 372,250 L 372,249 L 371,249 L 371,248 L 370,248 L 370,247 L 369,247 L 369,246 L 368,246 L 368,245 L 367,245 L 368,245 L 368,244 L 367,244 L 366,244 L 366,243 L 365,243 L 365,242 L 364,241 L 364,240 L 364,239 L 363,239 L 363,238 L 363,237 L 362,237 L 362,236 L 361,236 L 361,235 L 361,234 L 360,234 L 360,233 L 359,233 L 359,232 L 359,231 L 359,230 L 358,230 L 358,229 L 358,228 L 359,228 L 359,227 L 360,227 L 361,227 L 361,226 L 362,226 L 362,225 L 363,225 L 363,224 L 364,224 L 364,223 L 365,223 L 365,222 L 366,221 L 366,219 L 365,219 L 364,217 L 363,217 L 363,216 L 363,215 L 362,215 L 361,215 L 360,215 L 359,214 L 359,213 L 358,213 L 357,212 L 357,211 L 356,211 L 356,210 L 356,209 L 358,208 L 358,203 L 362,201 L 365,201 L 370,202 L 372,200 L 373,201 L 374,201 " /></g>
</svg>
