<?xml version="1.0" standalone="no"?><!DOCTYPE svg PUBLIC "-//W3C//DTD SVG 1.1//EN" "http://www.w3.org/Graphics/SVG/1.1/DTD/svg11.dtd"><svg xmlns="http://www.w3.org/2000/svg" viewBox="329 209 89 154" version = "1.1">
<g id="30902" ><path d="M 357,211 L 357,212 L 358,213 L 359,213 L 359,214 L 360,215 L 361,215 L 362,215 L 363,215 L 363,216 L 363,217 L 364,217 L 365,219 L 366,219 L 366,221 L 365,222 L 365,223 L 364,223 L 364,224 L 363,224 L 363,225 L 362,225 L 362,226 L 361,226 L 361,227 L 360,227 L 359,227 L 359,228 L 358,228 L 358,229 L 358,230 L 359,230 L 359,231 L 359,232 L 359,233 L 360,233 L 360,234 L 361,234 L 361,235 L 361,236 L 362,236 L 362,237 L 363,237 L 363,238 L 363,239 L 364,239 L 364,240 L 364,241 L 365,242 L 365,243 L 366,243 L 366,244 L 367,244 L 368,244 L 368,245 L 367,245 L 368,245 L 368,246 L 369,246 L 369,247 L 370,247 L 370,248 L 371,248 L 371,249 L 372,249 L 372,250 L 373,251 L 374,252 L 375,252 L 375,253 L 376,253 L 377,253 L 377,252 L 378,252 L 378,253 L 379,253 L 379,252 L 379,253 L 380,253 L 381,253 L 381,254 L 382,254 L 383,254 L 384,254 L 385,255 L 385,254 L 386,254 L 386,253 L 387,253 L 388,253 L 388,252 L 389,252 L 390,252 L 390,251 L 391,251 L 392,251 L 393,250 L 394,250 L 395,250 L 396,250 L 397,250 L 398,250 L 399,250 L 400,250 L 400,251 L 401,251 L 401,252 L 401,251 L 402,251 L 403,251 L 404,252 L 405,254 L 407,256 L 407,257 L 408,257 L 409,262 L 414,265 L 415,266 L 417,269 L 418,272 L 412,273 L 410,274 L 408,274 L 405,274 L 402,274 L 401,276 L 403,280 L 404,281 L 405,283 L 406,285 L 405,286 L 405,287 L 406,288 L 407,288 L 407,289 L 408,290 L 408,292 L 408,295 L 407,299 L 406,301 L 413,308 L 415,312 L 415,313 L 414,315 L 413,315 L 412,317 L 411,317 L 410,318 L 409,318 L 409,319 L 407,321 L 406,321 L 404,322 L 402,324 L 402,325 L 402,326 L 402,327 L 402,329 L 400,331 L 398,331 L 397,332 L 396,332 L 395,332 L 394,332 L 394,333 L 393,334 L 394,335 L 394,336 L 395,337 L 396,339 L 394,343 L 395,344 L 396,345 L 397,346 L 398,348 L 397,350 L 397,352 L 397,354 L 397,355 L 397,356 L 398,356 L 398,357 L 398,358 L 398,359 L 398,360 L 397,360 L 397,361 L 396,361 L 395,361 L 394,362 L 393,362 L 393,363 L 392,363 L 391,363 L 390,362 L 389,362 L 389,361 L 389,360 L 388,360 L 388,359 L 387,358 L 387,357 L 387,356 L 386,356 L 386,355 L 386,354 L 385,354 L 385,353 L 385,352 L 384,352 L 384,351 L 383,351 L 382,351 L 382,350 L 381,349 L 380,349 L 379,349 L 379,348 L 378,347 L 378,346 L 377,346 L 377,345 L 376,345 L 376,344 L 376,343 L 376,342 L 376,341 L 377,341 L 377,340 L 377,339 L 378,339 L 378,338 L 378,337 L 379,337 L 380,336 L 381,335 L 382,334 L 382,333 L 382,332 L 381,332 L 381,331 L 380,331 L 379,331 L 378,330 L 378,329 L 377,329 L 377,328 L 377,327 L 377,326 L 376,326 L 376,325 L 376,324 L 375,324 L 375,323 L 375,322 L 375,321 L 374,321 L 374,320 L 374,319 L 373,319 L 372,319 L 371,319 L 370,319 L 370,320 L 369,320 L 369,321 L 368,321 L 368,322 L 368,321 L 367,321 L 367,320 L 366,320 L 366,319 L 365,318 L 366,317 L 366,316 L 366,315 L 366,314 L 366,313 L 366,312 L 365,313 L 364,312 L 363,312 L 363,310 L 357,306 L 356,305 L 355,304 L 354,304 L 354,303 L 352,302 L 351,301 L 351,300 L 352,300 L 352,301 L 353,301 L 354,301 L 355,301 L 355,302 L 356,302 L 357,302 L 357,303 L 358,303 L 358,302 L 359,302 L 360,302 L 360,301 L 361,301 L 361,300 L 362,300 L 362,299 L 362,298 L 363,298 L 364,298 L 364,297 L 365,297 L 366,297 L 366,296 L 367,296 L 368,296 L 369,296 L 370,297 L 371,297 L 372,298 L 372,297 L 373,297 L 373,298 L 374,297 L 375,297 L 375,298 L 376,298 L 377,298 L 377,299 L 378,299 L 379,299 L 379,300 L 380,300 L 380,301 L 381,301 L 382,301 L 382,300 L 381,296 L 381,293 L 380,292 L 380,291 L 379,291 L 380,290 L 379,288 L 379,286 L 379,284 L 379,283 L 379,282 L 380,282 L 379,282 L 379,281 L 378,281 L 378,280 L 378,279 L 377,279 L 378,278 L 377,278 L 377,277 L 376,277 L 375,277 L 374,277 L 373,277 L 372,276 L 372,275 L 370,275 L 370,276 L 369,277 L 368,278 L 368,277 L 367,277 L 366,277 L 365,276 L 364,276 L 363,275 L 360,274 L 360,273 L 359,273 L 358,272 L 357,272 L 356,271 L 355,271 L 354,271 L 353,270 L 352,270 L 351,269 L 350,268 L 349,268 L 349,267 L 348,267 L 346,268 L 345,267 L 344,267 L 344,266 L 343,263 L 343,259 L 345,252 L 344,251 L 343,251 L 342,250 L 342,249 L 341,251 L 339,251 L 338,251 L 337,250 L 336,248 L 331,245 L 329,244 L 330,244 L 333,240 L 335,236 L 341,235 L 342,235 L 345,229 L 346,225 L 346,219 L 346,218 L 347,216 L 347,212 L 349,210 L 354,211 L 356,209 L 356,210 L 356,211 L 357,211 " /></g>
</svg>
