<?xml version="1.0" standalone="no"?><!DOCTYPE svg PUBLIC "-//W3C//DTD SVG 1.1//EN" "http://www.w3.org/Graphics/SVG/1.1/DTD/svg11.dtd"><svg xmlns="http://www.w3.org/2000/svg" viewBox="410 137 68 102" version = "1.1">
<g id="30903" ><path d="M 413,157 L 415,155 L 417,154 L 418,154 L 420,154 L 423,154 L 425,149 L 424,142 L 429,139 L 430,139 L 435,142 L 437,142 L 438,140 L 442,140 L 450,139 L 454,139 L 458,140 L 464,142 L 468,142 L 476,137 L 476,138 L 476,139 L 477,139 L 477,140 L 478,140 L 478,141 L 478,142 L 477,142 L 477,143 L 476,143 L 476,144 L 476,145 L 475,145 L 475,146 L 474,146 L 474,147 L 474,148 L 473,148 L 472,148 L 472,149 L 472,148 L 471,149 L 471,150 L 470,150 L 469,151 L 468,152 L 467,153 L 467,154 L 467,155 L 467,156 L 467,157 L 467,158 L 468,158 L 468,159 L 468,160 L 469,160 L 469,162 L 470,166 L 466,167 L 466,168 L 465,169 L 463,171 L 460,170 L 457,173 L 457,174 L 453,177 L 447,182 L 447,188 L 446,189 L 448,192 L 447,194 L 448,196 L 450,198 L 451,198 L 453,199 L 455,199 L 456,199 L 457,198 L 459,198 L 462,200 L 462,201 L 458,207 L 456,207 L 456,208 L 455,208 L 455,209 L 454,210 L 454,211 L 454,212 L 453,212 L 453,213 L 452,213 L 452,214 L 452,215 L 452,216 L 452,217 L 451,217 L 451,218 L 451,219 L 450,219 L 450,220 L 449,220 L 449,221 L 449,222 L 448,222 L 448,223 L 448,224 L 447,224 L 447,227 L 447,229 L 446,232 L 445,235 L 443,239 L 440,238 L 439,237 L 438,237 L 437,236 L 436,236 L 434,235 L 432,234 L 432,235 L 431,235 L 431,234 L 430,234 L 429,234 L 429,233 L 428,233 L 428,232 L 430,227 L 431,222 L 432,219 L 432,218 L 432,217 L 433,217 L 433,216 L 433,215 L 433,214 L 434,214 L 434,213 L 434,212 L 434,211 L 434,210 L 435,210 L 435,209 L 435,208 L 435,207 L 432,206 L 431,205 L 429,204 L 429,202 L 427,199 L 425,200 L 425,199 L 431,192 L 431,191 L 432,190 L 432,189 L 433,189 L 432,189 L 432,188 L 432,187 L 431,187 L 431,186 L 430,186 L 430,185 L 430,184 L 430,183 L 429,183 L 429,182 L 429,181 L 428,181 L 427,180 L 427,179 L 427,178 L 426,177 L 426,176 L 425,176 L 425,175 L 424,175 L 423,175 L 422,175 L 422,174 L 421,174 L 420,174 L 419,173 L 418,173 L 417,173 L 417,172 L 416,172 L 415,172 L 414,171 L 413,171 L 412,171 L 411,171 L 410,171 L 410,170 L 410,169 L 410,167 L 410,166 L 411,166 L 411,165 L 411,164 L 412,164 L 412,163 L 413,163 L 413,162 L 413,161 L 413,160 L 412,160 L 412,159 L 412,158 L 412,157 L 413,157 " /></g>
</svg>
