<?xml version="1.0" standalone="no"?><!DOCTYPE svg PUBLIC "-//W3C//DTD SVG 1.1//EN" "http://www.w3.org/Graphics/SVG/1.1/DTD/svg11.dtd"><svg xmlns="http://www.w3.org/2000/svg" viewBox="392 -288 547 507" version = "1.1">
<g id="31003" ><path d="M 937,-258 L 938,-257 L 938,-256 L 939,-256 L 938,-255 L 938,-254 L 937,-254 L 936,-254 L 935,-255 L 934,-256 L 933,-257 L 932,-258 L 931,-258 L 931,-257 L 931,-256 L 932,-254 L 933,-253 L 934,-253 L 935,-252 L 936,-251 L 936,-250 L 936,-249 L 936,-248 L 935,-247 L 933,-247 L 932,-247 L 931,-247 L 930,-247 L 929,-246 L 929,-245 L 928,-243 L 928,-242 L 928,-241 L 928,-240 L 927,-240 L 926,-239 L 926,-238 L 925,-238 L 925,-237 L 925,-236 L 925,-235 L 926,-234 L 925,-234 L 924,-234 L 924,-235 L 923,-235 L 922,-235 L 922,-234 L 922,-233 L 923,-233 L 923,-232 L 924,-232 L 924,-231 L 923,-231 L 923,-230 L 922,-230 L 922,-229 L 921,-229 L 920,-229 L 919,-229 L 919,-230 L 919,-231 L 918,-231 L 918,-230 L 918,-229 L 918,-228 L 918,-227 L 917,-227 L 917,-226 L 917,-225 L 917,-224 L 917,-223 L 918,-223 L 918,-222 L 918,-221 L 919,-220 L 920,-220 L 921,-219 L 921,-218 L 921,-217 L 921,-216 L 921,-215 L 920,-215 L 920,-216 L 920,-217 L 920,-218 L 919,-218 L 918,-218 L 917,-218 L 916,-218 L 916,-217 L 915,-216 L 914,-215 L 913,-214 L 912,-213 L 913,-213 L 914,-213 L 915,-213 L 916,-213 L 917,-212 L 918,-211 L 919,-211 L 920,-211 L 921,-211 L 921,-210 L 920,-209 L 919,-209 L 918,-209 L 918,-208 L 918,-207 L 918,-206 L 918,-205 L 919,-205 L 919,-204 L 920,-204 L 920,-203 L 921,-203 L 921,-202 L 921,-201 L 921,-200 L 922,-199 L 922,-198 L 923,-197 L 923,-196 L 922,-196 L 922,-195 L 921,-195 L 921,-194 L 921,-193 L 921,-192 L 920,-192 L 919,-191 L 918,-191 L 917,-192 L 916,-191 L 915,-190 L 915,-189 L 914,-189 L 913,-189 L 912,-189 L 912,-188 L 911,-187 L 911,-185 L 911,-184 L 911,-183 L 911,-182 L 911,-181 L 910,-181 L 909,-182 L 909,-183 L 910,-183 L 910,-184 L 911,-184 L 911,-185 L 911,-186 L 910,-186 L 910,-187 L 909,-187 L 908,-187 L 908,-186 L 908,-185 L 907,-184 L 906,-183 L 905,-183 L 904,-183 L 903,-183 L 902,-183 L 902,-182 L 902,-181 L 902,-180 L 902,-179 L 902,-178 L 901,-178 L 900,-178 L 899,-178 L 898,-178 L 897,-178 L 897,-177 L 898,-177 L 898,-176 L 898,-175 L 898,-174 L 897,-173 L 897,-174 L 896,-174 L 895,-175 L 894,-176 L 893,-175 L 892,-175 L 892,-174 L 892,-173 L 892,-172 L 892,-171 L 893,-170 L 893,-169 L 894,-169 L 894,-168 L 895,-168 L 895,-167 L 895,-166 L 895,-165 L 895,-164 L 894,-164 L 893,-164 L 892,-165 L 891,-165 L 890,-166 L 889,-166 L 888,-166 L 887,-166 L 887,-165 L 886,-165 L 887,-164 L 887,-163 L 888,-162 L 888,-161 L 889,-161 L 889,-160 L 888,-160 L 887,-160 L 886,-160 L 885,-160 L 884,-160 L 884,-161 L 883,-161 L 883,-162 L 882,-162 L 882,-163 L 882,-164 L 882,-165 L 883,-166 L 883,-167 L 882,-167 L 881,-167 L 881,-166 L 880,-166 L 879,-166 L 878,-166 L 878,-165 L 877,-165 L 877,-164 L 877,-163 L 878,-163 L 879,-163 L 880,-163 L 880,-162 L 881,-162 L 881,-161 L 881,-160 L 881,-159 L 881,-158 L 881,-157 L 881,-156 L 881,-155 L 880,-155 L 880,-154 L 880,-153 L 880,-152 L 880,-151 L 880,-150 L 880,-149 L 879,-148 L 879,-147 L 879,-146 L 880,-146 L 881,-146 L 882,-146 L 882,-145 L 883,-145 L 884,-145 L 884,-144 L 885,-144 L 885,-143 L 885,-142 L 885,-141 L 884,-141 L 883,-141 L 882,-141 L 882,-142 L 881,-142 L 880,-142 L 880,-141 L 879,-142 L 879,-143 L 879,-144 L 878,-145 L 877,-145 L 877,-146 L 876,-146 L 875,-146 L 875,-147 L 874,-147 L 873,-147 L 873,-146 L 873,-145 L 873,-144 L 873,-143 L 873,-142 L 873,-141 L 873,-140 L 872,-139 L 872,-138 L 872,-137 L 871,-137 L 870,-137 L 870,-136 L 869,-136 L 869,-135 L 869,-134 L 870,-134 L 871,-134 L 871,-133 L 872,-133 L 872,-132 L 873,-132 L 873,-131 L 873,-130 L 873,-129 L 872,-129 L 872,-128 L 871,-128 L 871,-127 L 870,-127 L 870,-126 L 870,-125 L 870,-124 L 869,-124 L 868,-124 L 868,-125 L 867,-125 L 867,-126 L 866,-126 L 865,-126 L 865,-127 L 864,-126 L 864,-125 L 864,-124 L 865,-124 L 865,-123 L 865,-122 L 865,-121 L 865,-120 L 864,-120 L 863,-120 L 863,-119 L 862,-119 L 861,-119 L 861,-120 L 860,-120 L 860,-119 L 860,-118 L 860,-117 L 859,-117 L 859,-116 L 859,-115 L 859,-114 L 859,-113 L 859,-112 L 860,-112 L 860,-111 L 861,-111 L 861,-110 L 860,-109 L 859,-109 L 858,-109 L 857,-109 L 856,-109 L 855,-109 L 855,-110 L 855,-109 L 854,-109 L 854,-108 L 855,-107 L 856,-107 L 856,-106 L 857,-106 L 857,-105 L 858,-105 L 858,-104 L 859,-103 L 859,-102 L 858,-102 L 857,-102 L 856,-101 L 856,-100 L 857,-100 L 858,-100 L 858,-101 L 858,-102 L 859,-102 L 860,-102 L 861,-102 L 861,-101 L 861,-100 L 860,-99 L 860,-98 L 860,-97 L 860,-96 L 859,-96 L 858,-96 L 858,-95 L 857,-95 L 856,-95 L 856,-94 L 857,-93 L 857,-92 L 858,-92 L 859,-93 L 860,-93 L 860,-94 L 861,-94 L 862,-94 L 863,-94 L 864,-94 L 864,-93 L 864,-94 L 865,-94 L 866,-94 L 867,-94 L 867,-93 L 868,-93 L 869,-93 L 869,-92 L 869,-91 L 868,-91 L 867,-92 L 866,-92 L 866,-93 L 865,-93 L 864,-92 L 864,-91 L 864,-90 L 864,-89 L 863,-89 L 863,-88 L 862,-88 L 861,-88 L 861,-87 L 861,-86 L 861,-85 L 862,-85 L 862,-86 L 862,-87 L 863,-87 L 863,-88 L 864,-88 L 865,-88 L 866,-88 L 866,-87 L 866,-86 L 866,-85 L 865,-85 L 865,-84 L 864,-84 L 864,-83 L 864,-82 L 865,-82 L 865,-81 L 866,-81 L 867,-81 L 867,-80 L 868,-80 L 868,-79 L 868,-78 L 867,-78 L 866,-78 L 865,-79 L 864,-79 L 863,-78 L 863,-77 L 862,-77 L 862,-76 L 863,-76 L 863,-75 L 864,-75 L 865,-75 L 865,-74 L 865,-73 L 865,-72 L 865,-71 L 865,-70 L 866,-70 L 866,-69 L 866,-68 L 867,-68 L 868,-68 L 869,-68 L 870,-68 L 871,-68 L 872,-67 L 872,-66 L 872,-65 L 871,-65 L 871,-64 L 870,-64 L 869,-63 L 868,-63 L 868,-62 L 868,-61 L 867,-61 L 867,-60 L 867,-59 L 866,-58 L 866,-57 L 865,-56 L 865,-55 L 864,-55 L 864,-54 L 864,-53 L 864,-52 L 863,-52 L 863,-51 L 864,-51 L 864,-50 L 863,-50 L 863,-49 L 863,-48 L 862,-48 L 861,-48 L 861,-49 L 860,-49 L 860,-50 L 859,-50 L 858,-50 L 857,-50 L 857,-49 L 857,-48 L 857,-47 L 856,-47 L 855,-47 L 855,-46 L 855,-45 L 856,-45 L 856,-46 L 857,-46 L 857,-47 L 858,-47 L 859,-47 L 859,-46 L 860,-46 L 860,-45 L 860,-44 L 860,-43 L 860,-42 L 861,-42 L 862,-42 L 863,-42 L 863,-41 L 864,-41 L 864,-40 L 863,-40 L 863,-39 L 863,-38 L 862,-38 L 862,-37 L 861,-37 L 860,-37 L 860,-38 L 859,-38 L 859,-39 L 858,-40 L 858,-41 L 858,-42 L 858,-43 L 857,-43 L 856,-43 L 856,-44 L 855,-44 L 854,-44 L 853,-43 L 853,-42 L 853,-41 L 853,-40 L 852,-40 L 852,-39 L 852,-38 L 851,-38 L 851,-37 L 851,-36 L 852,-36 L 852,-35 L 852,-34 L 852,-33 L 851,-33 L 851,-34 L 850,-34 L 850,-35 L 849,-35 L 848,-35 L 848,-36 L 848,-35 L 848,-34 L 848,-33 L 848,-32 L 848,-31 L 847,-31 L 846,-31 L 845,-31 L 845,-30 L 844,-30 L 843,-30 L 843,-29 L 842,-29 L 841,-29 L 841,-28 L 842,-28 L 842,-27 L 843,-27 L 844,-27 L 845,-27 L 845,-26 L 846,-26 L 846,-25 L 847,-25 L 847,-24 L 846,-24 L 845,-24 L 844,-24 L 843,-24 L 842,-24 L 842,-23 L 841,-23 L 841,-22 L 840,-22 L 839,-22 L 839,-23 L 838,-23 L 838,-24 L 838,-25 L 837,-26 L 837,-27 L 836,-27 L 835,-26 L 836,-26 L 836,-25 L 836,-24 L 837,-24 L 837,-23 L 836,-23 L 836,-22 L 836,-21 L 837,-20 L 838,-20 L 839,-20 L 839,-19 L 839,-18 L 840,-18 L 839,-17 L 838,-17 L 837,-18 L 837,-19 L 836,-19 L 835,-19 L 835,-20 L 834,-20 L 833,-20 L 832,-20 L 832,-19 L 832,-18 L 832,-17 L 832,-16 L 832,-15 L 833,-15 L 833,-14 L 832,-13 L 832,-12 L 831,-12 L 830,-12 L 829,-12 L 828,-12 L 828,-13 L 827,-13 L 826,-13 L 825,-13 L 825,-12 L 824,-12 L 824,-11 L 824,-10 L 825,-10 L 826,-10 L 827,-10 L 828,-11 L 829,-11 L 830,-11 L 830,-10 L 831,-10 L 831,-9 L 831,-8 L 830,-8 L 830,-9 L 829,-9 L 828,-9 L 827,-9 L 827,-8 L 826,-7 L 825,-7 L 824,-7 L 824,-8 L 823,-8 L 822,-9 L 821,-9 L 821,-10 L 820,-10 L 819,-10 L 818,-10 L 817,-10 L 817,-9 L 817,-8 L 818,-8 L 818,-7 L 819,-7 L 819,-6 L 819,-5 L 818,-5 L 818,-4 L 818,-3 L 818,-2 L 819,-2 L 819,-1 L 820,-1 L 821,-1 L 821,0 L 821,1 L 820,2 L 819,3 L 818,3 L 817,3 L 817,2 L 817,1 L 816,1 L 816,0 L 815,0 L 814,0 L 814,-1 L 813,-2 L 812,-2 L 812,-3 L 811,-3 L 810,-3 L 810,-2 L 810,-1 L 811,-1 L 811,0 L 812,0 L 813,0 L 814,0 L 815,0 L 815,1 L 815,2 L 814,2 L 813,2 L 812,1 L 811,1 L 810,1 L 809,1 L 809,2 L 809,3 L 810,3 L 810,4 L 811,5 L 811,6 L 812,6 L 812,7 L 813,7 L 813,8 L 812,8 L 811,8 L 810,7 L 809,6 L 808,6 L 808,7 L 807,7 L 807,8 L 806,8 L 805,8 L 804,8 L 803,8 L 803,7 L 802,7 L 801,7 L 801,6 L 800,6 L 799,6 L 798,5 L 797,5 L 797,6 L 796,6 L 795,6 L 795,7 L 795,8 L 796,8 L 797,8 L 797,9 L 798,9 L 799,9 L 800,9 L 801,9 L 801,10 L 802,10 L 803,10 L 803,11 L 803,12 L 803,13 L 802,13 L 801,13 L 800,12 L 799,12 L 798,13 L 797,13 L 797,14 L 796,15 L 796,16 L 795,16 L 795,17 L 795,18 L 794,18 L 794,19 L 794,20 L 793,20 L 793,21 L 793,22 L 794,22 L 795,22 L 796,21 L 797,21 L 797,22 L 798,22 L 799,22 L 799,23 L 800,23 L 800,24 L 801,24 L 800,25 L 800,26 L 799,27 L 799,28 L 798,28 L 798,29 L 797,29 L 797,30 L 796,30 L 795,29 L 794,29 L 793,29 L 792,28 L 791,28 L 790,29 L 789,29 L 789,30 L 788,31 L 787,32 L 787,33 L 788,33 L 789,33 L 790,32 L 791,32 L 791,31 L 792,31 L 793,31 L 794,32 L 795,32 L 796,31 L 797,31 L 797,32 L 798,32 L 798,33 L 799,33 L 799,34 L 798,34 L 798,35 L 797,35 L 797,36 L 796,36 L 795,36 L 794,36 L 793,37 L 793,38 L 793,39 L 793,40 L 794,41 L 795,42 L 796,42 L 797,41 L 798,41 L 799,41 L 800,41 L 800,42 L 801,42 L 801,43 L 801,44 L 801,45 L 800,45 L 799,46 L 798,46 L 798,47 L 797,47 L 797,48 L 796,48 L 795,48 L 794,48 L 793,47 L 791,47 L 790,47 L 788,48 L 788,49 L 788,50 L 788,51 L 788,52 L 788,53 L 789,54 L 789,55 L 790,56 L 790,57 L 789,58 L 789,59 L 788,59 L 785,60 L 784,61 L 783,61 L 782,62 L 781,63 L 781,64 L 780,64 L 779,64 L 779,63 L 778,63 L 778,64 L 778,65 L 778,66 L 778,67 L 777,67 L 777,68 L 777,69 L 777,70 L 778,70 L 778,71 L 778,72 L 777,73 L 776,73 L 775,72 L 774,72 L 773,72 L 773,71 L 772,72 L 772,73 L 773,73 L 773,74 L 772,74 L 771,75 L 770,75 L 769,75 L 769,76 L 769,77 L 770,77 L 763,80 L 760,84 L 756,86 L 755,86 L 755,87 L 754,87 L 754,86 L 753,86 L 752,86 L 751,87 L 750,87 L 749,87 L 748,87 L 747,87 L 747,88 L 746,89 L 745,90 L 738,94 L 730,98 L 729,99 L 726,99 L 723,99 L 718,100 L 714,102 L 712,104 L 711,105 L 710,105 L 709,105 L 707,105 L 706,106 L 705,106 L 705,107 L 704,108 L 702,112 L 702,113 L 702,114 L 702,115 L 702,116 L 702,117 L 702,118 L 701,118 L 702,119 L 702,120 L 701,121 L 701,122 L 701,123 L 701,124 L 701,125 L 701,126 L 701,127 L 701,128 L 700,128 L 700,129 L 700,130 L 699,131 L 698,131 L 698,132 L 697,132 L 696,132 L 696,131 L 696,130 L 695,130 L 695,129 L 695,130 L 694,130 L 693,130 L 693,131 L 692,131 L 692,132 L 691,132 L 690,131 L 690,132 L 689,132 L 688,132 L 687,132 L 686,132 L 686,133 L 685,133 L 684,133 L 684,134 L 685,134 L 686,134 L 686,135 L 686,136 L 687,136 L 688,136 L 688,137 L 689,137 L 689,138 L 688,138 L 688,139 L 688,140 L 687,140 L 686,140 L 685,140 L 685,141 L 684,141 L 683,142 L 683,143 L 682,143 L 682,144 L 682,145 L 681,145 L 681,144 L 680,144 L 680,145 L 679,145 L 679,146 L 678,146 L 678,147 L 677,147 L 677,148 L 676,148 L 675,148 L 674,148 L 673,148 L 673,149 L 672,149 L 671,149 L 670,148 L 669,148 L 669,147 L 668,148 L 668,149 L 667,149 L 667,150 L 666,150 L 665,150 L 665,151 L 664,151 L 664,152 L 663,152 L 663,153 L 662,154 L 662,155 L 661,155 L 660,155 L 660,156 L 659,156 L 659,157 L 658,157 L 658,158 L 657,158 L 657,159 L 656,159 L 656,160 L 655,160 L 655,161 L 654,161 L 654,162 L 654,163 L 653,163 L 652,163 L 652,164 L 651,164 L 651,165 L 652,165 L 652,166 L 652,167 L 652,168 L 651,168 L 651,169 L 650,169 L 650,170 L 648,170 L 648,171 L 647,171 L 646,171 L 645,171 L 645,172 L 645,171 L 644,171 L 644,172 L 643,172 L 642,172 L 642,173 L 641,173 L 641,174 L 640,174 L 640,175 L 639,175 L 638,175 L 637,175 L 637,176 L 636,176 L 635,176 L 634,176 L 633,177 L 632,177 L 631,178 L 630,178 L 629,178 L 628,178 L 628,179 L 627,179 L 627,180 L 626,180 L 626,181 L 625,181 L 625,182 L 625,183 L 624,183 L 624,184 L 624,185 L 623,185 L 623,186 L 623,187 L 622,186 L 622,187 L 622,188 L 621,188 L 621,189 L 620,189 L 620,190 L 620,191 L 619,191 L 619,192 L 618,192 L 619,192 L 618,192 L 618,193 L 617,193 L 617,194 L 616,194 L 616,195 L 615,195 L 615,196 L 614,196 L 614,197 L 613,197 L 613,198 L 612,198 L 612,199 L 612,200 L 611,200 L 611,201 L 611,202 L 610,202 L 610,203 L 609,203 L 609,204 L 608,204 L 607,204 L 607,205 L 606,205 L 606,206 L 606,207 L 605,208 L 603,210 L 601,211 L 599,212 L 599,213 L 598,213 L 597,214 L 597,215 L 596,215 L 595,215 L 595,216 L 595,217 L 594,217 L 594,218 L 593,218 L 593,219 L 592,219 L 591,219 L 591,218 L 590,218 L 589,217 L 589,216 L 588,216 L 587,216 L 587,215 L 587,216 L 586,215 L 586,216 L 585,215 L 584,215 L 584,214 L 583,214 L 583,213 L 582,213 L 582,212 L 581,211 L 580,210 L 579,209 L 579,210 L 578,210 L 578,209 L 578,208 L 577,208 L 576,208 L 575,207 L 575,206 L 574,206 L 574,205 L 574,204 L 573,204 L 573,203 L 573,202 L 572,202 L 572,201 L 570,201 L 565,202 L 553,198 L 550,190 L 548,186 L 548,182 L 545,175 L 550,174 L 551,173 L 553,173 L 554,173 L 551,164 L 551,158 L 549,154 L 543,152 L 537,148 L 533,145 L 532,142 L 532,141 L 532,140 L 531,139 L 531,140 L 530,140 L 529,141 L 528,141 L 527,141 L 526,141 L 526,140 L 525,139 L 524,138 L 523,137 L 521,136 L 519,137 L 518,136 L 515,132 L 513,127 L 513,128 L 512,128 L 512,129 L 511,129 L 510,129 L 509,129 L 509,130 L 508,130 L 508,131 L 507,131 L 508,131 L 507,131 L 507,132 L 507,133 L 506,134 L 507,134 L 506,134 L 506,135 L 506,136 L 505,136 L 505,137 L 505,138 L 506,138 L 506,139 L 505,139 L 505,140 L 505,141 L 506,141 L 506,142 L 507,142 L 507,143 L 507,144 L 507,145 L 507,146 L 507,147 L 506,147 L 506,148 L 505,148 L 505,149 L 505,150 L 504,150 L 504,151 L 503,151 L 503,152 L 502,152 L 502,153 L 501,153 L 500,153 L 499,153 L 499,154 L 498,154 L 498,155 L 499,155 L 499,156 L 498,156 L 498,157 L 498,158 L 498,159 L 498,160 L 497,160 L 497,161 L 496,161 L 492,159 L 491,158 L 490,158 L 489,159 L 485,160 L 473,165 L 470,166 L 469,162 L 469,160 L 468,160 L 468,159 L 468,158 L 467,158 L 467,157 L 467,156 L 467,155 L 467,154 L 467,153 L 468,152 L 469,151 L 470,150 L 471,150 L 471,149 L 472,148 L 472,149 L 472,148 L 473,148 L 474,148 L 474,147 L 474,146 L 475,146 L 475,145 L 476,145 L 476,144 L 476,143 L 477,143 L 477,142 L 478,142 L 478,141 L 478,140 L 477,140 L 477,139 L 476,139 L 476,138 L 476,137 L 468,142 L 464,142 L 458,140 L 454,139 L 450,139 L 442,140 L 438,140 L 437,142 L 435,142 L 430,139 L 429,139 L 424,142 L 420,138 L 418,136 L 418,134 L 415,134 L 413,131 L 411,131 L 409,130 L 408,129 L 409,124 L 404,118 L 392,112 L 406,104 L 410,107 L 411,109 L 415,108 L 416,107 L 422,103 L 421,102 L 422,102 L 422,101 L 423,101 L 423,100 L 423,99 L 424,99 L 425,99 L 425,98 L 426,98 L 426,97 L 427,97 L 427,96 L 428,97 L 429,97 L 429,96 L 430,96 L 431,96 L 431,95 L 432,95 L 433,95 L 433,94 L 434,94 L 434,93 L 435,93 L 435,92 L 435,91 L 436,91 L 437,91 L 437,90 L 437,89 L 437,88 L 437,87 L 436,86 L 436,85 L 435,85 L 435,84 L 434,84 L 434,83 L 433,83 L 434,83 L 433,82 L 432,82 L 432,81 L 432,80 L 431,80 L 431,79 L 430,79 L 430,78 L 429,78 L 428,78 L 428,77 L 427,77 L 426,77 L 426,76 L 425,76 L 425,75 L 424,75 L 422,75 L 421,75 L 421,74 L 420,74 L 419,74 L 419,73 L 418,73 L 417,73 L 417,72 L 416,72 L 415,72 L 415,71 L 414,71 L 414,70 L 413,70 L 413,69 L 413,68 L 414,68 L 414,67 L 413,67 L 413,66 L 412,66 L 411,66 L 411,65 L 410,65 L 410,64 L 411,64 L 411,63 L 410,63 L 409,63 L 409,62 L 408,62 L 408,61 L 408,60 L 407,60 L 407,59 L 406,59 L 406,58 L 405,57 L 405,56 L 406,56 L 405,56 L 405,55 L 406,55 L 405,54 L 406,54 L 405,54 L 405,53 L 405,52 L 405,51 L 406,51 L 405,51 L 405,50 L 405,49 L 405,48 L 406,48 L 406,47 L 406,46 L 406,45 L 406,44 L 406,43 L 407,43 L 407,42 L 407,41 L 408,40 L 408,39 L 409,39 L 410,39 L 411,38 L 411,39 L 412,39 L 412,38 L 413,38 L 414,37 L 415,37 L 416,37 L 416,36 L 416,35 L 417,35 L 417,34 L 418,34 L 419,33 L 420,33 L 421,33 L 422,33 L 423,33 L 424,33 L 424,34 L 425,34 L 426,34 L 427,34 L 427,35 L 428,35 L 429,35 L 429,36 L 430,36 L 431,36 L 431,37 L 432,37 L 433,37 L 434,37 L 435,37 L 436,37 L 437,37 L 437,36 L 438,36 L 438,37 L 438,36 L 439,36 L 439,37 L 440,37 L 441,37 L 442,37 L 442,38 L 443,37 L 444,37 L 445,37 L 445,38 L 446,38 L 447,38 L 448,38 L 448,37 L 449,37 L 450,37 L 450,36 L 451,36 L 451,35 L 451,34 L 452,34 L 453,34 L 454,34 L 454,33 L 453,33 L 453,32 L 452,32 L 453,32 L 453,31 L 453,30 L 453,29 L 453,28 L 453,27 L 453,26 L 453,25 L 452,25 L 451,24 L 452,24 L 452,23 L 451,23 L 451,22 L 451,21 L 452,21 L 452,20 L 451,20 L 452,19 L 452,18 L 452,17 L 453,17 L 452,16 L 452,15 L 452,14 L 451,14 L 451,13 L 451,12 L 451,11 L 451,10 L 451,9 L 450,9 L 450,8 L 450,7 L 449,7 L 449,6 L 449,5 L 450,5 L 450,4 L 451,4 L 450,4 L 450,3 L 451,3 L 451,2 L 452,2 L 452,1 L 451,0 L 450,0 L 449,0 L 450,-1 L 450,-2 L 450,-3 L 450,-4 L 450,-5 L 449,-5 L 449,-6 L 450,-6 L 450,-7 L 449,-7 L 449,-8 L 448,-8 L 448,-9 L 448,-10 L 447,-10 L 446,-10 L 446,-11 L 446,-12 L 446,-13 L 446,-14 L 447,-14 L 447,-15 L 447,-16 L 447,-17 L 447,-18 L 447,-19 L 448,-19 L 448,-20 L 449,-20 L 450,-20 L 451,-20 L 451,-21 L 452,-21 L 453,-21 L 454,-21 L 454,-22 L 454,-23 L 454,-24 L 455,-24 L 455,-25 L 456,-25 L 456,-26 L 456,-27 L 457,-27 L 457,-28 L 458,-28 L 458,-29 L 459,-29 L 459,-30 L 460,-30 L 460,-31 L 461,-31 L 461,-32 L 461,-33 L 462,-33 L 462,-34 L 461,-34 L 461,-35 L 460,-35 L 460,-36 L 459,-36 L 459,-37 L 459,-38 L 458,-38 L 457,-39 L 456,-40 L 455,-41 L 455,-42 L 456,-42 L 456,-43 L 456,-44 L 456,-45 L 455,-45 L 455,-46 L 454,-45 L 453,-46 L 452,-46 L 452,-47 L 451,-47 L 451,-48 L 450,-48 L 449,-48 L 449,-47 L 448,-47 L 448,-48 L 447,-49 L 446,-49 L 446,-50 L 447,-50 L 447,-51 L 446,-52 L 445,-52 L 444,-52 L 444,-53 L 443,-53 L 443,-52 L 442,-52 L 442,-53 L 441,-53 L 440,-54 L 440,-55 L 440,-56 L 439,-56 L 438,-56 L 437,-56 L 437,-57 L 436,-57 L 436,-58 L 435,-59 L 434,-59 L 433,-59 L 433,-60 L 432,-60 L 432,-61 L 431,-61 L 431,-62 L 431,-63 L 430,-63 L 431,-63 L 431,-64 L 431,-65 L 430,-65 L 430,-66 L 429,-67 L 428,-67 L 428,-68 L 427,-68 L 426,-68 L 425,-68 L 424,-68 L 424,-67 L 423,-67 L 423,-68 L 422,-68 L 422,-69 L 421,-69 L 420,-70 L 419,-70 L 419,-71 L 418,-71 L 418,-72 L 417,-72 L 417,-73 L 416,-73 L 415,-73 L 415,-74 L 414,-75 L 413,-76 L 412,-76 L 412,-77 L 411,-78 L 410,-78 L 409,-78 L 409,-79 L 409,-80 L 408,-80 L 407,-80 L 407,-81 L 406,-81 L 406,-82 L 405,-82 L 404,-82 L 404,-83 L 403,-83 L 402,-84 L 401,-84 L 400,-85 L 400,-86 L 400,-87 L 401,-87 L 405,-96 L 406,-100 L 407,-101 L 406,-118 L 407,-124 L 407,-125 L 400,-161 L 396,-182 L 406,-168 L 432,-125 L 453,-99 L 473,-88 L 491,-81 L 507,-70 L 520,-64 L 539,-59 L 556,-56 L 565,-56 L 646,-67 L 727,-87 L 765,-97 L 799,-142 L 807,-158 L 816,-219 L 819,-244 L 822,-253 L 832,-269 L 838,-276 L 845,-281 L 860,-288 L 900,-288 L 910,-288 L 936,-288 L 936,-287 L 937,-286 L 937,-285 L 937,-284 L 936,-282 L 935,-280 L 934,-278 L 933,-277 L 932,-276 L 932,-275 L 932,-274 L 932,-273 L 931,-272 L 931,-271 L 931,-270 L 930,-269 L 929,-268 L 929,-267 L 929,-266 L 929,-265 L 930,-264 L 931,-264 L 932,-264 L 933,-263 L 934,-263 L 935,-262 L 936,-262 L 937,-261 L 937,-258 " /></g>
</svg>
