<?xml version="1.0" standalone="no"?><!DOCTYPE svg PUBLIC "-//W3C//DTD SVG 1.1//EN" "http://www.w3.org/Graphics/SVG/1.1/DTD/svg11.dtd"><svg xmlns="http://www.w3.org/2000/svg" viewBox="446 158 133 126" version = "1.1">
<g id="31001" ><path d="M 497,161 L 500,163 L 501,165 L 503,167 L 502,171 L 506,172 L 509,175 L 509,178 L 509,179 L 509,180 L 509,181 L 508,181 L 508,182 L 509,182 L 508,182 L 508,183 L 508,184 L 508,185 L 509,185 L 509,186 L 509,188 L 511,192 L 511,194 L 514,201 L 516,206 L 516,212 L 518,218 L 520,223 L 519,226 L 518,227 L 517,227 L 516,227 L 515,227 L 514,227 L 514,228 L 512,227 L 511,227 L 511,228 L 510,228 L 510,229 L 510,230 L 511,230 L 511,234 L 512,236 L 514,237 L 516,237 L 518,238 L 520,237 L 520,236 L 520,235 L 520,234 L 520,233 L 521,233 L 522,233 L 522,232 L 522,231 L 523,230 L 524,230 L 526,230 L 527,230 L 529,230 L 530,231 L 531,231 L 532,231 L 533,231 L 535,231 L 536,231 L 537,234 L 538,236 L 540,238 L 541,238 L 542,239 L 543,240 L 545,240 L 548,242 L 549,243 L 549,242 L 551,241 L 551,242 L 552,242 L 552,241 L 553,241 L 555,240 L 556,239 L 557,239 L 558,238 L 558,237 L 561,233 L 563,236 L 564,236 L 564,235 L 564,234 L 565,233 L 565,232 L 566,232 L 567,231 L 568,231 L 569,231 L 570,230 L 571,230 L 574,229 L 578,230 L 579,230 L 579,231 L 578,232 L 577,232 L 577,233 L 576,234 L 576,235 L 575,237 L 575,239 L 574,240 L 574,241 L 572,243 L 570,243 L 569,243 L 568,243 L 567,241 L 566,242 L 565,242 L 565,243 L 563,243 L 562,243 L 559,243 L 553,245 L 555,249 L 560,251 L 562,258 L 560,261 L 559,261 L 555,261 L 549,261 L 548,264 L 544,266 L 540,269 L 537,270 L 533,273 L 531,272 L 528,274 L 526,274 L 523,277 L 520,278 L 514,281 L 513,283 L 509,284 L 504,284 L 497,283 L 496,281 L 495,281 L 495,280 L 495,279 L 494,279 L 494,280 L 493,280 L 492,279 L 491,279 L 491,280 L 491,279 L 490,279 L 490,278 L 489,278 L 489,277 L 488,277 L 488,276 L 488,275 L 487,274 L 487,273 L 487,272 L 486,272 L 486,271 L 486,270 L 486,269 L 485,269 L 485,268 L 484,268 L 484,267 L 483,266 L 481,264 L 481,263 L 481,262 L 480,262 L 480,261 L 479,261 L 479,260 L 479,259 L 478,259 L 477,259 L 476,259 L 476,258 L 476,257 L 475,256 L 475,255 L 474,254 L 473,253 L 472,253 L 472,252 L 471,252 L 470,251 L 471,251 L 470,250 L 470,249 L 470,248 L 469,248 L 469,247 L 469,246 L 468,246 L 468,245 L 467,244 L 466,244 L 466,243 L 465,243 L 465,242 L 465,241 L 466,241 L 466,240 L 465,240 L 465,239 L 466,238 L 466,237 L 466,235 L 466,233 L 466,232 L 467,232 L 467,231 L 466,230 L 467,229 L 467,228 L 468,228 L 468,227 L 469,227 L 469,226 L 470,226 L 470,225 L 471,225 L 471,224 L 471,223 L 470,223 L 470,222 L 470,221 L 470,220 L 470,219 L 469,219 L 469,218 L 468,218 L 468,217 L 468,216 L 468,215 L 468,214 L 468,212 L 468,211 L 468,210 L 467,210 L 467,209 L 466,209 L 466,208 L 464,209 L 458,207 L 462,201 L 462,200 L 459,198 L 457,198 L 456,199 L 455,199 L 453,199 L 451,198 L 450,198 L 448,196 L 447,194 L 448,192 L 446,189 L 447,188 L 447,182 L 453,177 L 457,174 L 457,173 L 460,170 L 463,171 L 465,169 L 466,168 L 466,167 L 470,166 L 473,165 L 485,160 L 489,159 L 490,158 L 491,158 L 492,159 L 496,161 L 497,161 " /></g>
</svg>
