<?xml version="1.0" standalone="no"?><!DOCTYPE svg PUBLIC "-//W3C//DTD SVG 1.1//EN" "http://www.w3.org/Graphics/SVG/1.1/DTD/svg11.dtd"><svg xmlns="http://www.w3.org/2000/svg" viewBox="497 127 95 116" version = "1.1">
<g id="31002" ><path d="M 513,127 L 515,132 L 518,136 L 519,137 L 521,136 L 523,137 L 524,138 L 525,139 L 526,140 L 526,141 L 527,141 L 528,141 L 529,141 L 530,140 L 531,140 L 531,139 L 532,140 L 532,141 L 532,142 L 533,145 L 537,148 L 543,152 L 549,154 L 551,158 L 551,164 L 554,173 L 553,173 L 551,173 L 550,174 L 545,175 L 548,182 L 548,186 L 550,190 L 553,198 L 565,202 L 570,201 L 572,201 L 572,202 L 573,202 L 573,203 L 573,204 L 574,204 L 574,205 L 574,206 L 575,206 L 575,207 L 576,208 L 577,208 L 578,208 L 578,209 L 578,210 L 579,210 L 579,209 L 580,210 L 581,211 L 582,212 L 582,213 L 583,213 L 583,214 L 584,214 L 584,215 L 585,215 L 586,216 L 586,215 L 587,216 L 587,215 L 587,216 L 588,216 L 589,216 L 589,217 L 590,218 L 591,218 L 591,219 L 592,219 L 590,225 L 585,228 L 583,229 L 582,230 L 581,230 L 580,230 L 579,230 L 578,230 L 574,229 L 571,230 L 570,230 L 569,231 L 568,231 L 567,231 L 566,232 L 565,232 L 565,233 L 564,234 L 564,235 L 564,236 L 563,236 L 561,233 L 558,237 L 558,238 L 557,239 L 556,239 L 555,240 L 553,241 L 552,241 L 552,242 L 551,242 L 551,241 L 549,242 L 549,243 L 548,242 L 545,240 L 543,240 L 542,239 L 541,238 L 540,238 L 538,236 L 537,234 L 536,231 L 535,231 L 533,231 L 532,231 L 531,231 L 530,231 L 529,230 L 527,230 L 526,230 L 524,230 L 523,230 L 522,231 L 522,232 L 522,233 L 521,233 L 520,233 L 520,234 L 520,235 L 520,236 L 520,237 L 518,238 L 516,237 L 514,237 L 512,236 L 511,234 L 511,230 L 510,230 L 510,229 L 510,228 L 511,228 L 511,227 L 512,227 L 514,228 L 514,227 L 515,227 L 516,227 L 517,227 L 518,227 L 519,226 L 520,223 L 518,218 L 516,212 L 516,206 L 514,201 L 511,194 L 511,192 L 509,188 L 509,186 L 509,185 L 508,185 L 508,184 L 508,183 L 508,182 L 509,182 L 508,182 L 508,181 L 509,181 L 509,180 L 509,179 L 509,178 L 509,175 L 506,172 L 502,171 L 503,167 L 501,165 L 500,163 L 497,161 L 497,160 L 498,160 L 498,159 L 498,158 L 498,157 L 498,156 L 499,156 L 499,155 L 498,155 L 498,154 L 499,154 L 499,153 L 500,153 L 501,153 L 502,153 L 502,152 L 503,152 L 503,151 L 504,151 L 504,150 L 505,150 L 505,149 L 505,148 L 506,148 L 506,147 L 507,147 L 507,146 L 507,145 L 507,144 L 507,143 L 507,142 L 506,142 L 506,141 L 505,141 L 505,140 L 505,139 L 506,139 L 506,138 L 505,138 L 505,137 L 505,136 L 506,136 L 506,135 L 506,134 L 507,134 L 506,134 L 507,133 L 507,132 L 507,131 L 508,131 L 507,131 L 508,131 L 508,130 L 509,130 L 509,129 L 510,129 L 511,129 L 512,129 L 512,128 L 513,128 L 513,127 " /></g>
</svg>
