<?xml version="1.0" standalone="no"?><!DOCTYPE svg PUBLIC "-//W3C//DTD SVG 1.1//EN" "http://www.w3.org/Graphics/SVG/1.1/DTD/svg11.dtd"><svg xmlns="http://www.w3.org/2000/svg" viewBox="208 237 174 140" version = "1.1">
<g id="31101" ><path d="M 324,240 L 325,242 L 329,244 L 331,245 L 336,248 L 337,250 L 338,251 L 339,251 L 341,251 L 342,249 L 342,250 L 343,251 L 344,251 L 345,252 L 343,259 L 343,263 L 344,266 L 344,267 L 345,267 L 346,268 L 348,267 L 349,267 L 349,268 L 350,268 L 351,269 L 352,270 L 353,270 L 354,271 L 355,271 L 356,271 L 357,272 L 358,272 L 359,273 L 360,273 L 360,274 L 363,275 L 364,276 L 365,276 L 366,277 L 367,277 L 368,277 L 368,278 L 369,277 L 370,276 L 370,275 L 372,275 L 372,276 L 373,277 L 374,277 L 375,277 L 376,277 L 377,277 L 377,278 L 378,278 L 377,279 L 378,279 L 378,280 L 378,281 L 379,281 L 379,282 L 380,282 L 379,282 L 379,283 L 379,284 L 379,286 L 379,288 L 380,290 L 379,291 L 380,291 L 380,292 L 381,293 L 381,296 L 382,300 L 382,301 L 381,301 L 380,301 L 380,300 L 379,300 L 379,299 L 378,299 L 377,299 L 377,298 L 376,298 L 375,298 L 375,297 L 374,297 L 373,298 L 373,297 L 372,297 L 372,298 L 371,297 L 370,297 L 369,296 L 368,296 L 367,296 L 366,296 L 366,297 L 365,297 L 364,297 L 364,298 L 363,298 L 362,298 L 362,299 L 362,300 L 361,300 L 361,301 L 360,301 L 360,302 L 359,302 L 358,302 L 358,303 L 357,303 L 357,302 L 356,302 L 355,302 L 355,301 L 354,301 L 353,301 L 352,301 L 352,300 L 351,300 L 351,301 L 352,302 L 354,303 L 354,304 L 355,304 L 356,305 L 357,306 L 363,310 L 363,312 L 364,312 L 365,313 L 366,312 L 366,313 L 366,314 L 366,315 L 366,316 L 366,317 L 365,318 L 366,319 L 366,320 L 367,320 L 367,321 L 368,321 L 368,322 L 368,321 L 369,321 L 369,320 L 370,320 L 370,319 L 371,319 L 372,319 L 373,319 L 374,319 L 374,320 L 374,321 L 375,321 L 375,322 L 375,323 L 375,324 L 376,324 L 376,325 L 376,326 L 377,326 L 377,327 L 377,328 L 377,329 L 378,329 L 378,330 L 379,331 L 380,331 L 381,331 L 381,332 L 382,332 L 382,333 L 382,334 L 381,335 L 380,336 L 379,337 L 378,337 L 378,338 L 378,339 L 377,339 L 377,340 L 377,341 L 376,341 L 375,342 L 374,342 L 372,343 L 371,343 L 370,343 L 369,343 L 368,344 L 367,344 L 366,344 L 365,343 L 362,341 L 359,338 L 358,337 L 356,334 L 354,333 L 353,333 L 353,334 L 352,335 L 352,336 L 350,338 L 349,338 L 347,340 L 344,342 L 342,343 L 340,345 L 338,345 L 338,346 L 337,346 L 336,347 L 335,348 L 334,349 L 334,350 L 333,351 L 333,352 L 332,352 L 331,352 L 330,351 L 329,351 L 328,351 L 327,351 L 326,351 L 326,352 L 325,352 L 325,353 L 324,353 L 324,354 L 324,355 L 323,355 L 322,355 L 322,356 L 321,355 L 320,355 L 320,356 L 319,356 L 318,356 L 317,357 L 316,357 L 315,358 L 314,358 L 313,360 L 312,360 L 311,359 L 310,359 L 309,359 L 307,359 L 306,358 L 305,358 L 303,357 L 302,356 L 300,354 L 299,355 L 299,356 L 297,358 L 296,358 L 292,360 L 291,360 L 290,360 L 289,360 L 287,360 L 285,362 L 283,360 L 276,352 L 275,349 L 274,348 L 273,347 L 273,346 L 272,346 L 271,345 L 269,344 L 267,343 L 266,343 L 265,343 L 265,344 L 264,344 L 263,344 L 263,345 L 262,344 L 261,345 L 262,346 L 261,347 L 260,347 L 260,348 L 259,348 L 259,349 L 258,349 L 258,350 L 257,350 L 257,351 L 256,351 L 257,353 L 257,355 L 258,355 L 260,358 L 260,359 L 258,360 L 257,362 L 256,361 L 255,362 L 254,366 L 253,367 L 253,369 L 252,371 L 251,374 L 251,376 L 249,376 L 248,377 L 248,376 L 246,376 L 245,376 L 243,376 L 243,375 L 243,374 L 242,374 L 241,373 L 236,368 L 234,361 L 230,357 L 224,355 L 221,353 L 218,349 L 217,346 L 216,345 L 215,341 L 211,337 L 212,328 L 213,326 L 217,323 L 217,321 L 213,315 L 208,312 L 211,310 L 211,309 L 212,309 L 212,308 L 213,307 L 213,306 L 213,305 L 213,304 L 214,304 L 214,303 L 214,302 L 215,302 L 215,301 L 216,301 L 217,301 L 217,300 L 217,299 L 216,299 L 217,299 L 216,299 L 216,298 L 216,297 L 216,296 L 215,296 L 215,295 L 216,295 L 217,295 L 218,295 L 219,295 L 220,295 L 220,294 L 220,295 L 221,295 L 222,294 L 223,294 L 224,294 L 224,293 L 225,293 L 226,293 L 227,293 L 228,293 L 228,292 L 229,292 L 229,291 L 230,291 L 230,290 L 231,290 L 231,291 L 232,291 L 232,290 L 233,290 L 234,289 L 234,288 L 235,288 L 235,287 L 236,287 L 236,286 L 236,285 L 236,284 L 236,283 L 236,282 L 235,282 L 234,281 L 234,280 L 234,279 L 233,279 L 233,278 L 232,278 L 232,277 L 232,276 L 231,276 L 231,275 L 231,274 L 230,274 L 230,273 L 230,272 L 230,271 L 229,271 L 229,270 L 229,269 L 229,268 L 229,267 L 229,266 L 230,265 L 229,265 L 229,264 L 228,264 L 228,263 L 227,263 L 227,262 L 226,262 L 225,261 L 224,261 L 223,261 L 222,261 L 222,260 L 221,260 L 220,260 L 220,259 L 219,259 L 219,258 L 219,257 L 218,257 L 217,257 L 217,256 L 216,255 L 216,254 L 216,253 L 216,252 L 217,252 L 217,251 L 218,250 L 218,249 L 219,249 L 219,248 L 219,247 L 220,247 L 220,246 L 220,245 L 219,245 L 220,245 L 220,244 L 221,244 L 221,243 L 222,244 L 222,243 L 223,243 L 224,243 L 225,243 L 226,243 L 227,243 L 227,244 L 228,244 L 228,245 L 229,245 L 229,246 L 230,246 L 231,246 L 232,246 L 233,245 L 233,246 L 234,246 L 235,246 L 235,247 L 236,247 L 236,248 L 236,249 L 237,249 L 237,250 L 237,251 L 238,251 L 238,252 L 239,252 L 239,253 L 239,254 L 240,254 L 241,254 L 242,254 L 242,255 L 243,255 L 242,256 L 243,256 L 243,257 L 243,258 L 247,259 L 250,262 L 260,263 L 264,264 L 270,261 L 269,258 L 269,257 L 269,256 L 269,255 L 269,254 L 268,254 L 268,252 L 269,251 L 271,251 L 281,250 L 287,251 L 288,252 L 289,253 L 290,253 L 291,253 L 292,253 L 293,254 L 293,255 L 294,255 L 295,255 L 295,256 L 297,256 L 298,257 L 300,257 L 301,257 L 302,257 L 303,256 L 303,257 L 304,255 L 304,254 L 305,254 L 305,253 L 304,253 L 304,252 L 305,252 L 305,251 L 306,251 L 306,250 L 305,250 L 305,249 L 305,248 L 306,248 L 306,247 L 307,246 L 308,245 L 309,245 L 310,245 L 311,244 L 312,244 L 312,243 L 313,243 L 314,243 L 315,242 L 315,241 L 316,240 L 318,240 L 320,237 L 322,239 L 324,240 " /></g>
</svg>
