<?xml version="1.0" standalone="no"?><!DOCTYPE svg PUBLIC "-//W3C//DTD SVG 1.1//EN" "http://www.w3.org/Graphics/SVG/1.1/DTD/svg11.dtd"><svg xmlns="http://www.w3.org/2000/svg" viewBox="807 28 163 172" version = "1.1">
<g id="31205" ><path d="M 970,197 L 970,198 L 969,197 L 968,196 L 967,196 L 966,196 L 965,196 L 965,197 L 965,198 L 964,198 L 964,197 L 963,198 L 962,198 L 948,198 L 927,199 L 846,200 L 845,200 L 845,199 L 845,198 L 844,198 L 843,198 L 842,198 L 841,198 L 840,197 L 840,196 L 839,196 L 839,195 L 838,195 L 838,194 L 837,194 L 836,193 L 835,193 L 835,192 L 834,192 L 835,191 L 835,190 L 835,189 L 834,189 L 834,188 L 833,188 L 833,187 L 832,187 L 832,186 L 831,186 L 831,185 L 829,184 L 829,182 L 826,180 L 826,179 L 827,178 L 827,177 L 828,175 L 828,174 L 828,173 L 828,172 L 828,171 L 828,170 L 827,170 L 827,169 L 826,169 L 826,168 L 825,168 L 825,167 L 825,166 L 825,165 L 825,164 L 825,163 L 825,162 L 824,162 L 823,162 L 823,161 L 823,160 L 823,159 L 823,158 L 823,157 L 824,157 L 824,156 L 823,156 L 824,156 L 824,155 L 825,155 L 824,154 L 824,153 L 825,153 L 825,152 L 824,151 L 824,152 L 823,152 L 822,152 L 822,151 L 823,151 L 824,151 L 824,150 L 823,150 L 822,150 L 822,149 L 823,149 L 824,149 L 824,148 L 823,148 L 824,148 L 825,148 L 825,147 L 825,146 L 826,146 L 826,145 L 825,145 L 825,146 L 824,146 L 824,145 L 824,144 L 823,144 L 823,145 L 823,144 L 823,143 L 824,143 L 824,142 L 825,142 L 826,142 L 826,141 L 825,141 L 825,140 L 824,140 L 824,139 L 825,139 L 825,138 L 824,137 L 824,136 L 823,136 L 823,135 L 823,134 L 823,135 L 822,135 L 822,136 L 821,135 L 820,134 L 820,135 L 819,135 L 819,134 L 819,133 L 818,133 L 817,133 L 817,132 L 817,131 L 817,130 L 816,130 L 815,130 L 814,130 L 814,129 L 814,128 L 815,128 L 815,127 L 816,127 L 817,127 L 817,126 L 816,126 L 815,126 L 815,125 L 816,125 L 816,124 L 816,123 L 815,123 L 814,124 L 813,124 L 812,124 L 811,123 L 812,123 L 812,122 L 813,122 L 813,121 L 814,121 L 814,120 L 814,119 L 815,119 L 815,118 L 815,119 L 816,119 L 817,119 L 817,118 L 818,118 L 818,117 L 817,117 L 816,116 L 815,116 L 814,116 L 814,117 L 813,117 L 812,117 L 812,116 L 812,115 L 813,115 L 813,114 L 814,114 L 814,113 L 815,113 L 816,113 L 817,113 L 818,112 L 819,112 L 819,111 L 819,110 L 819,109 L 818,109 L 817,109 L 816,109 L 815,110 L 814,109 L 813,109 L 813,108 L 813,107 L 814,107 L 815,107 L 816,107 L 816,106 L 817,106 L 817,105 L 817,104 L 817,103 L 817,102 L 817,101 L 817,100 L 818,99 L 819,99 L 819,98 L 819,97 L 818,96 L 818,95 L 818,94 L 819,93 L 820,92 L 820,91 L 821,90 L 822,89 L 823,89 L 823,88 L 823,87 L 822,86 L 822,85 L 821,85 L 820,85 L 819,85 L 818,85 L 817,86 L 817,87 L 816,87 L 815,88 L 814,89 L 813,89 L 812,90 L 811,89 L 810,89 L 809,89 L 808,88 L 808,87 L 807,86 L 807,85 L 807,84 L 808,83 L 809,83 L 810,83 L 811,83 L 812,84 L 813,85 L 814,85 L 815,85 L 815,84 L 816,84 L 816,83 L 816,82 L 817,82 L 817,80 L 818,78 L 818,77 L 818,76 L 818,75 L 817,74 L 817,73 L 817,72 L 818,71 L 819,71 L 820,71 L 821,71 L 822,71 L 823,72 L 824,71 L 825,70 L 825,69 L 825,68 L 826,68 L 827,68 L 827,67 L 828,67 L 829,66 L 829,65 L 830,65 L 831,64 L 831,63 L 831,62 L 830,61 L 829,61 L 828,61 L 827,61 L 826,62 L 825,62 L 824,62 L 823,61 L 822,60 L 822,59 L 822,58 L 822,57 L 823,56 L 823,55 L 824,55 L 825,54 L 826,55 L 827,55 L 828,55 L 829,55 L 830,54 L 830,53 L 831,52 L 831,50 L 832,49 L 833,49 L 834,49 L 834,50 L 835,50 L 835,51 L 836,51 L 837,51 L 838,51 L 839,51 L 839,50 L 840,50 L 840,48 L 841,47 L 842,47 L 843,47 L 844,47 L 844,48 L 844,49 L 843,49 L 843,50 L 842,51 L 841,51 L 841,52 L 841,53 L 842,54 L 843,54 L 844,54 L 846,53 L 847,53 L 848,53 L 849,53 L 849,52 L 850,52 L 850,51 L 850,50 L 850,49 L 850,48 L 850,47 L 850,46 L 851,46 L 852,46 L 853,46 L 854,47 L 854,48 L 854,49 L 854,50 L 854,51 L 854,52 L 854,53 L 855,54 L 856,54 L 857,54 L 858,54 L 859,54 L 859,53 L 859,52 L 859,51 L 858,50 L 858,49 L 858,48 L 858,47 L 859,47 L 860,46 L 861,46 L 862,47 L 863,47 L 864,47 L 865,46 L 866,45 L 866,44 L 865,44 L 864,43 L 863,43 L 862,43 L 861,44 L 860,43 L 859,43 L 858,43 L 858,42 L 857,41 L 857,40 L 858,40 L 858,39 L 859,39 L 860,39 L 862,39 L 863,39 L 865,39 L 866,40 L 867,41 L 868,41 L 870,41 L 871,41 L 871,40 L 872,39 L 872,38 L 873,37 L 874,37 L 875,37 L 876,38 L 877,39 L 878,39 L 879,39 L 880,39 L 880,38 L 881,38 L 882,37 L 882,36 L 883,36 L 883,35 L 884,35 L 884,34 L 885,34 L 885,33 L 885,32 L 884,32 L 884,31 L 883,31 L 882,31 L 882,30 L 881,30 L 881,29 L 882,28 L 883,28 L 884,28 L 884,29 L 885,29 L 886,29 L 887,30 L 887,31 L 888,32 L 888,33 L 889,33 L 890,34 L 891,35 L 892,35 L 892,34 L 893,34 L 893,33 L 894,32 L 894,31 L 895,30 L 895,29 L 896,29 L 897,28 L 898,28 L 898,29 L 899,30 L 899,31 L 898,31 L 898,32 L 898,33 L 898,34 L 899,35 L 900,35 L 900,34 L 901,34 L 901,33 L 902,32 L 902,31 L 903,32 L 903,33 L 902,35 L 901,36 L 901,37 L 901,38 L 902,38 L 903,38 L 904,37 L 905,37 L 906,36 L 907,35 L 908,35 L 909,34 L 910,34 L 911,34 L 912,34 L 913,34 L 914,34 L 915,35 L 915,36 L 915,37 L 914,37 L 914,38 L 913,38 L 912,38 L 911,37 L 911,36 L 910,36 L 909,36 L 909,35 L 908,36 L 907,36 L 907,37 L 907,38 L 908,38 L 908,39 L 909,39 L 910,40 L 911,41 L 911,42 L 911,44 L 912,45 L 913,46 L 914,46 L 915,45 L 916,45 L 917,45 L 918,46 L 919,47 L 920,48 L 920,49 L 920,50 L 919,51 L 918,52 L 917,52 L 916,53 L 916,54 L 915,55 L 915,56 L 916,57 L 916,58 L 916,59 L 916,60 L 916,61 L 917,62 L 918,63 L 919,64 L 920,64 L 921,65 L 922,66 L 922,67 L 923,67 L 924,67 L 924,66 L 925,66 L 925,65 L 926,64 L 928,64 L 929,64 L 930,64 L 931,64 L 932,64 L 933,64 L 933,65 L 933,66 L 932,67 L 931,67 L 930,68 L 929,68 L 927,68 L 925,68 L 924,69 L 923,69 L 923,70 L 923,71 L 923,72 L 924,72 L 926,72 L 927,72 L 928,71 L 929,71 L 930,70 L 930,69 L 931,69 L 932,68 L 933,69 L 934,69 L 934,70 L 934,72 L 933,73 L 932,73 L 931,74 L 930,74 L 929,75 L 928,75 L 927,75 L 926,76 L 926,77 L 926,78 L 927,78 L 927,79 L 928,79 L 929,79 L 930,79 L 931,79 L 932,78 L 932,77 L 932,76 L 933,75 L 934,75 L 935,75 L 935,76 L 936,77 L 937,78 L 937,79 L 937,80 L 936,80 L 935,81 L 934,81 L 933,81 L 932,81 L 931,82 L 930,83 L 929,84 L 929,85 L 930,86 L 931,87 L 932,87 L 933,86 L 934,85 L 936,85 L 937,86 L 938,86 L 939,87 L 940,88 L 939,89 L 939,90 L 938,90 L 937,90 L 937,89 L 936,89 L 936,88 L 935,88 L 934,88 L 933,88 L 933,89 L 933,90 L 934,90 L 935,91 L 935,92 L 935,93 L 934,93 L 933,94 L 932,94 L 932,93 L 931,93 L 930,94 L 931,94 L 932,95 L 933,96 L 934,96 L 934,97 L 935,98 L 936,98 L 938,98 L 939,97 L 940,95 L 941,94 L 942,94 L 943,95 L 943,97 L 943,98 L 942,99 L 941,99 L 941,100 L 940,101 L 940,102 L 941,103 L 942,104 L 943,104 L 944,104 L 945,104 L 945,103 L 945,102 L 944,101 L 944,100 L 944,99 L 944,98 L 945,98 L 946,98 L 947,98 L 948,99 L 949,100 L 951,101 L 952,102 L 953,102 L 954,103 L 955,104 L 955,105 L 955,106 L 954,107 L 953,106 L 953,105 L 952,104 L 951,103 L 950,103 L 949,104 L 949,105 L 949,106 L 949,107 L 948,107 L 947,108 L 946,108 L 944,109 L 943,110 L 943,111 L 943,112 L 944,113 L 944,114 L 945,115 L 946,114 L 947,114 L 948,113 L 948,112 L 947,111 L 947,109 L 948,109 L 949,108 L 951,108 L 952,109 L 954,109 L 954,110 L 955,111 L 956,112 L 956,113 L 955,113 L 955,114 L 954,114 L 953,113 L 952,113 L 951,112 L 950,112 L 949,113 L 949,114 L 950,115 L 950,116 L 950,117 L 949,118 L 950,119 L 950,120 L 951,120 L 952,121 L 951,121 L 951,122 L 951,123 L 950,123 L 950,122 L 949,122 L 948,122 L 947,122 L 947,123 L 948,123 L 949,123 L 949,124 L 948,124 L 947,125 L 947,126 L 947,127 L 948,127 L 948,126 L 948,125 L 949,125 L 950,125 L 950,126 L 949,126 L 949,127 L 948,127 L 949,127 L 949,128 L 949,129 L 948,129 L 948,128 L 948,127 L 947,128 L 946,129 L 947,129 L 947,130 L 947,131 L 946,131 L 945,131 L 944,131 L 945,132 L 946,132 L 946,133 L 946,134 L 945,134 L 944,134 L 944,135 L 944,136 L 945,136 L 946,136 L 947,137 L 948,136 L 948,137 L 948,138 L 949,139 L 950,139 L 950,140 L 949,140 L 949,141 L 949,142 L 949,143 L 950,143 L 950,144 L 950,145 L 951,145 L 951,146 L 950,146 L 949,146 L 949,147 L 950,147 L 950,148 L 949,148 L 948,148 L 947,148 L 946,148 L 946,147 L 946,148 L 945,148 L 946,148 L 947,149 L 948,149 L 947,149 L 946,149 L 946,150 L 945,150 L 946,150 L 947,151 L 947,152 L 947,153 L 946,153 L 947,154 L 946,154 L 946,155 L 947,155 L 947,156 L 948,156 L 948,155 L 949,155 L 949,156 L 948,156 L 947,156 L 947,157 L 946,157 L 947,158 L 947,157 L 948,157 L 949,157 L 949,158 L 948,158 L 948,159 L 948,160 L 947,160 L 947,161 L 947,162 L 947,163 L 947,164 L 948,164 L 948,163 L 949,164 L 949,163 L 950,163 L 951,163 L 951,164 L 951,165 L 951,164 L 951,163 L 952,163 L 952,164 L 952,163 L 953,163 L 953,164 L 953,165 L 952,165 L 952,166 L 953,166 L 954,166 L 955,166 L 955,167 L 954,167 L 954,168 L 954,169 L 955,169 L 955,168 L 956,168 L 956,169 L 955,169 L 956,170 L 957,170 L 957,171 L 958,171 L 958,172 L 959,172 L 959,173 L 959,174 L 959,175 L 959,176 L 958,176 L 959,177 L 958,177 L 958,178 L 958,179 L 959,180 L 959,181 L 958,181 L 958,182 L 959,183 L 959,184 L 960,184 L 960,185 L 961,185 L 961,186 L 962,186 L 963,186 L 963,187 L 962,187 L 963,187 L 963,188 L 964,188 L 964,189 L 964,190 L 964,191 L 965,191 L 965,192 L 966,192 L 967,192 L 967,193 L 968,193 L 969,193 L 969,194 L 969,195 L 970,195 L 970,196 L 970,197 " /></g>
</svg>
