<?xml version="1.0" standalone="no"?><!DOCTYPE svg PUBLIC "-//W3C//DTD SVG 1.1//EN" "http://www.w3.org/Graphics/SVG/1.1/DTD/svg11.dtd"><svg xmlns="http://www.w3.org/2000/svg" viewBox="660 277 126 151" version = "1.1">
<g id="31203" ><path d="M 711,277 L 714,279 L 718,278 L 723,281 L 726,284 L 730,286 L 730,287 L 731,288 L 731,289 L 730,290 L 731,290 L 731,291 L 732,291 L 733,292 L 734,292 L 734,293 L 735,293 L 736,293 L 736,294 L 738,295 L 740,295 L 740,296 L 742,297 L 745,299 L 745,300 L 744,300 L 744,301 L 743,301 L 741,302 L 740,302 L 740,303 L 740,304 L 739,304 L 739,305 L 739,306 L 740,307 L 740,308 L 741,308 L 741,309 L 742,309 L 743,315 L 743,317 L 744,318 L 746,318 L 747,319 L 748,319 L 749,317 L 750,318 L 750,319 L 750,320 L 751,321 L 751,322 L 751,323 L 751,324 L 751,325 L 751,326 L 750,327 L 750,328 L 751,328 L 753,329 L 754,328 L 755,328 L 756,328 L 758,328 L 759,329 L 760,329 L 760,330 L 761,330 L 762,331 L 762,332 L 763,333 L 763,334 L 763,335 L 764,336 L 764,337 L 765,338 L 766,339 L 766,340 L 767,340 L 767,342 L 766,343 L 766,344 L 764,345 L 765,346 L 765,347 L 766,347 L 767,349 L 767,350 L 766,350 L 766,351 L 767,353 L 767,354 L 765,354 L 764,355 L 763,355 L 763,356 L 762,356 L 761,357 L 761,358 L 760,358 L 759,358 L 758,359 L 758,360 L 758,361 L 758,362 L 759,363 L 760,363 L 760,364 L 761,365 L 762,365 L 762,366 L 762,367 L 764,368 L 765,368 L 766,371 L 764,372 L 764,373 L 765,373 L 765,374 L 766,374 L 766,375 L 767,375 L 767,376 L 768,376 L 768,377 L 768,378 L 769,377 L 769,378 L 770,378 L 770,379 L 770,380 L 769,381 L 768,382 L 768,383 L 767,384 L 765,384 L 765,385 L 765,386 L 764,386 L 763,386 L 764,387 L 763,387 L 763,388 L 763,389 L 763,390 L 763,391 L 764,391 L 764,392 L 765,392 L 766,392 L 766,391 L 767,391 L 768,392 L 768,391 L 769,391 L 769,392 L 770,392 L 770,393 L 770,392 L 771,392 L 772,392 L 773,392 L 774,392 L 775,391 L 775,392 L 776,392 L 776,391 L 777,391 L 777,390 L 778,390 L 778,391 L 779,391 L 780,391 L 781,391 L 781,392 L 782,392 L 782,393 L 782,394 L 783,394 L 783,395 L 782,395 L 783,395 L 783,396 L 784,396 L 785,396 L 786,396 L 785,397 L 785,398 L 784,399 L 782,403 L 782,405 L 781,405 L 781,406 L 779,407 L 779,408 L 778,408 L 778,409 L 777,409 L 778,409 L 777,409 L 778,409 L 778,410 L 777,410 L 777,411 L 776,411 L 776,412 L 777,412 L 776,412 L 776,413 L 777,413 L 777,414 L 776,414 L 776,415 L 776,416 L 776,417 L 775,417 L 775,418 L 776,418 L 776,419 L 776,420 L 777,420 L 777,421 L 777,420 L 778,421 L 780,421 L 781,421 L 781,422 L 781,423 L 781,424 L 781,425 L 782,425 L 782,426 L 782,427 L 781,427 L 781,428 L 780,428 L 780,427 L 779,427 L 779,426 L 778,426 L 777,426 L 777,427 L 776,427 L 777,427 L 777,428 L 776,428 L 775,428 L 775,427 L 775,426 L 774,425 L 773,425 L 772,425 L 773,424 L 773,423 L 772,423 L 771,423 L 770,423 L 769,423 L 769,422 L 768,422 L 767,422 L 767,421 L 767,419 L 766,418 L 764,418 L 764,417 L 763,415 L 761,414 L 759,414 L 757,414 L 756,412 L 755,412 L 754,410 L 754,409 L 753,409 L 752,408 L 752,407 L 751,406 L 749,405 L 749,404 L 748,403 L 748,402 L 747,402 L 744,395 L 741,391 L 741,388 L 741,387 L 741,386 L 742,386 L 742,385 L 742,384 L 742,383 L 741,383 L 741,382 L 740,382 L 740,381 L 740,380 L 739,380 L 739,379 L 738,378 L 737,378 L 736,378 L 735,378 L 734,378 L 734,377 L 733,377 L 732,377 L 731,377 L 730,377 L 729,377 L 728,377 L 727,377 L 726,377 L 726,376 L 725,376 L 725,377 L 724,377 L 724,378 L 724,379 L 723,379 L 717,379 L 717,378 L 716,378 L 716,377 L 715,377 L 715,376 L 714,376 L 713,376 L 713,377 L 713,376 L 712,376 L 712,377 L 712,376 L 711,376 L 711,377 L 710,377 L 709,377 L 708,377 L 707,377 L 706,376 L 705,376 L 705,375 L 704,375 L 703,375 L 702,375 L 701,375 L 700,375 L 699,375 L 698,375 L 697,374 L 696,374 L 695,374 L 694,374 L 693,374 L 692,373 L 692,374 L 691,374 L 690,374 L 690,373 L 689,373 L 688,373 L 687,373 L 687,372 L 686,372 L 685,372 L 685,373 L 684,373 L 684,372 L 684,373 L 683,373 L 682,374 L 681,375 L 680,374 L 679,373 L 678,373 L 678,371 L 677,369 L 677,367 L 674,365 L 669,361 L 668,360 L 668,359 L 667,358 L 664,355 L 661,354 L 660,351 L 667,349 L 671,348 L 672,348 L 672,347 L 674,346 L 675,343 L 675,341 L 675,339 L 675,337 L 676,335 L 676,334 L 677,334 L 677,333 L 678,333 L 678,332 L 679,332 L 679,331 L 680,331 L 681,330 L 681,329 L 678,327 L 674,322 L 671,320 L 670,320 L 669,319 L 669,318 L 669,316 L 666,314 L 666,309 L 666,308 L 665,308 L 665,307 L 664,306 L 664,305 L 664,304 L 664,303 L 663,302 L 663,301 L 663,300 L 664,298 L 665,299 L 666,299 L 667,299 L 668,298 L 669,298 L 670,298 L 671,298 L 672,299 L 673,298 L 678,294 L 679,292 L 681,293 L 683,294 L 686,298 L 692,302 L 693,301 L 694,300 L 695,299 L 696,299 L 696,298 L 697,298 L 697,296 L 693,292 L 687,289 L 686,288 L 684,287 L 683,286 L 679,285 L 678,282 L 679,281 L 681,281 L 683,281 L 685,282 L 686,282 L 687,282 L 688,282 L 688,281 L 689,281 L 690,282 L 691,282 L 692,282 L 693,282 L 694,282 L 694,281 L 695,281 L 695,280 L 696,280 L 697,280 L 698,280 L 699,280 L 699,279 L 702,278 L 705,278 L 711,277 " /></g>
</svg>
