<?xml version="1.0" standalone="no"?><!DOCTYPE svg PUBLIC "-//W3C//DTD SVG 1.1//EN" "http://www.w3.org/Graphics/SVG/1.1/DTD/svg11.dtd"><svg xmlns="http://www.w3.org/2000/svg" viewBox="846 114 257 189" version = "1.1">
<g id="31206" ><path d="M 1037,298 L 1036,302 L 1025,302 L 1025,303 L 1024,303 L 1024,302 L 1023,302 L 1022,301 L 1021,301 L 1020,301 L 1019,301 L 1018,301 L 1017,302 L 1017,301 L 1016,301 L 1016,300 L 1015,300 L 1015,299 L 1014,299 L 1014,300 L 1013,299 L 1012,299 L 1012,298 L 1011,298 L 1010,297 L 1009,296 L 1008,295 L 1008,294 L 1007,293 L 1006,293 L 1006,294 L 1006,295 L 1005,295 L 1004,296 L 1003,297 L 1003,298 L 1002,298 L 1001,298 L 1000,299 L 999,299 L 998,302 L 997,303 L 996,303 L 995,303 L 994,303 L 993,303 L 991,302 L 990,302 L 989,302 L 987,301 L 985,300 L 983,300 L 981,301 L 979,301 L 979,300 L 978,300 L 978,299 L 978,298 L 977,298 L 976,298 L 976,299 L 976,300 L 975,300 L 974,300 L 973,300 L 972,299 L 971,299 L 971,298 L 970,298 L 970,297 L 969,297 L 968,297 L 967,296 L 966,296 L 966,295 L 966,294 L 965,294 L 965,293 L 964,293 L 964,292 L 964,291 L 964,290 L 963,290 L 962,290 L 962,289 L 961,289 L 961,288 L 961,287 L 961,286 L 960,286 L 960,285 L 961,285 L 961,284 L 961,283 L 960,283 L 960,282 L 960,281 L 960,280 L 959,279 L 960,279 L 961,279 L 962,279 L 962,278 L 961,278 L 961,277 L 961,276 L 960,275 L 960,274 L 959,273 L 959,272 L 959,271 L 958,270 L 957,270 L 956,270 L 956,269 L 955,269 L 954,269 L 953,269 L 952,268 L 951,267 L 950,266 L 950,265 L 950,264 L 949,263 L 948,263 L 947,262 L 947,261 L 946,260 L 946,259 L 945,259 L 945,258 L 945,257 L 944,257 L 944,256 L 943,256 L 943,255 L 943,254 L 942,255 L 942,254 L 941,254 L 940,254 L 939,254 L 939,253 L 938,253 L 938,252 L 937,252 L 936,252 L 936,251 L 935,251 L 934,251 L 934,250 L 933,249 L 933,248 L 933,247 L 932,246 L 931,245 L 930,244 L 929,244 L 929,243 L 928,243 L 927,242 L 926,242 L 926,241 L 925,241 L 924,241 L 924,240 L 923,240 L 922,240 L 922,239 L 921,239 L 921,238 L 920,238 L 919,238 L 919,237 L 918,238 L 917,238 L 916,238 L 916,237 L 915,237 L 915,236 L 915,235 L 914,235 L 914,234 L 913,234 L 912,234 L 912,233 L 911,233 L 910,233 L 909,233 L 909,232 L 908,232 L 907,231 L 907,232 L 906,232 L 905,232 L 904,231 L 903,231 L 903,230 L 902,229 L 901,229 L 900,229 L 899,229 L 899,228 L 898,228 L 897,228 L 896,228 L 896,227 L 895,227 L 895,226 L 894,226 L 894,225 L 894,224 L 895,223 L 895,222 L 896,222 L 896,221 L 895,221 L 894,221 L 893,221 L 892,222 L 891,222 L 890,221 L 889,221 L 888,221 L 887,220 L 886,220 L 885,219 L 884,219 L 884,218 L 883,218 L 882,218 L 881,217 L 881,216 L 880,216 L 879,216 L 878,216 L 878,215 L 877,214 L 877,213 L 878,212 L 879,212 L 878,211 L 877,211 L 876,210 L 875,209 L 874,209 L 873,208 L 872,208 L 871,208 L 870,208 L 869,207 L 868,207 L 868,206 L 868,205 L 868,204 L 867,205 L 866,205 L 865,204 L 865,205 L 864,205 L 863,204 L 862,204 L 861,204 L 860,204 L 860,203 L 859,203 L 859,204 L 858,204 L 857,204 L 857,203 L 856,203 L 855,203 L 854,203 L 853,203 L 852,202 L 851,202 L 850,202 L 849,202 L 849,201 L 848,201 L 847,201 L 847,200 L 846,200 L 927,199 L 948,198 L 962,198 L 963,198 L 964,197 L 964,198 L 965,198 L 965,197 L 965,196 L 966,196 L 967,196 L 968,196 L 969,197 L 970,198 L 970,197 L 970,196 L 970,195 L 969,195 L 969,194 L 969,193 L 968,193 L 967,193 L 967,192 L 966,192 L 965,192 L 965,191 L 964,191 L 964,190 L 964,189 L 964,188 L 963,188 L 963,187 L 962,187 L 963,187 L 963,186 L 962,186 L 961,186 L 961,185 L 960,185 L 960,184 L 959,184 L 959,183 L 958,182 L 958,181 L 959,181 L 959,180 L 958,179 L 958,178 L 958,177 L 959,177 L 958,176 L 959,176 L 959,175 L 959,174 L 959,173 L 959,172 L 958,172 L 958,171 L 957,171 L 957,170 L 956,170 L 955,169 L 956,169 L 956,168 L 955,168 L 955,169 L 954,169 L 954,168 L 954,167 L 955,167 L 955,166 L 954,166 L 953,166 L 952,166 L 952,165 L 953,165 L 953,164 L 953,163 L 952,163 L 952,164 L 952,163 L 951,163 L 951,164 L 951,165 L 951,164 L 951,163 L 950,163 L 949,163 L 949,164 L 948,163 L 948,164 L 947,164 L 947,163 L 947,162 L 947,161 L 947,160 L 948,160 L 948,159 L 948,158 L 949,158 L 949,157 L 948,157 L 947,157 L 947,158 L 946,157 L 947,157 L 947,156 L 948,156 L 949,156 L 949,155 L 948,155 L 948,156 L 947,156 L 947,155 L 946,155 L 946,154 L 947,154 L 946,153 L 947,153 L 947,152 L 947,151 L 946,150 L 945,150 L 946,150 L 946,149 L 947,149 L 948,149 L 947,149 L 946,148 L 945,148 L 946,148 L 946,147 L 946,148 L 947,148 L 948,148 L 949,148 L 950,148 L 950,147 L 949,147 L 949,146 L 950,146 L 951,146 L 951,145 L 950,145 L 950,144 L 950,143 L 949,143 L 949,142 L 949,141 L 949,140 L 950,140 L 950,139 L 949,139 L 948,138 L 948,137 L 948,136 L 947,137 L 946,136 L 945,136 L 944,136 L 944,135 L 944,134 L 945,134 L 946,134 L 946,133 L 946,132 L 945,132 L 944,131 L 945,131 L 946,131 L 947,131 L 947,130 L 947,129 L 946,129 L 947,128 L 948,127 L 948,128 L 948,129 L 949,129 L 949,128 L 949,127 L 948,127 L 949,127 L 949,126 L 950,126 L 950,125 L 949,125 L 948,125 L 948,126 L 948,127 L 947,127 L 947,126 L 947,125 L 948,124 L 949,124 L 949,123 L 948,123 L 947,123 L 947,122 L 948,122 L 949,122 L 950,122 L 950,123 L 951,123 L 951,122 L 951,121 L 952,121 L 951,120 L 952,120 L 953,120 L 953,119 L 954,119 L 954,118 L 955,118 L 956,118 L 957,118 L 957,119 L 958,119 L 959,119 L 959,118 L 959,117 L 958,117 L 958,116 L 958,115 L 959,114 L 960,114 L 961,115 L 962,116 L 963,116 L 964,116 L 965,116 L 966,116 L 967,115 L 968,115 L 969,115 L 970,115 L 971,116 L 971,117 L 970,118 L 969,118 L 968,119 L 967,119 L 966,120 L 966,121 L 966,123 L 966,124 L 966,125 L 967,126 L 968,127 L 969,127 L 970,126 L 971,126 L 972,125 L 972,124 L 971,123 L 970,122 L 970,121 L 970,120 L 971,120 L 972,119 L 973,119 L 973,118 L 974,119 L 975,120 L 974,121 L 973,122 L 973,123 L 973,124 L 973,125 L 974,125 L 975,126 L 976,125 L 976,124 L 977,123 L 978,122 L 979,122 L 980,122 L 980,123 L 981,124 L 982,124 L 983,125 L 984,125 L 984,126 L 984,127 L 983,128 L 982,128 L 982,127 L 981,127 L 980,126 L 979,126 L 978,125 L 977,125 L 976,126 L 976,127 L 976,128 L 977,128 L 978,129 L 979,129 L 980,129 L 981,130 L 982,131 L 982,132 L 983,132 L 984,132 L 984,131 L 985,130 L 985,128 L 986,127 L 987,126 L 988,125 L 989,124 L 990,124 L 991,125 L 992,126 L 992,127 L 991,128 L 990,129 L 989,130 L 988,130 L 987,131 L 986,131 L 986,132 L 987,133 L 987,134 L 988,134 L 989,133 L 990,133 L 991,133 L 992,134 L 992,135 L 993,136 L 994,136 L 995,137 L 996,137 L 997,136 L 997,135 L 997,134 L 997,133 L 998,132 L 999,132 L 1001,133 L 1002,133 L 1003,133 L 1005,133 L 1006,132 L 1007,133 L 1008,133 L 1008,134 L 1008,135 L 1007,135 L 1006,135 L 1005,135 L 1004,135 L 1003,135 L 1003,136 L 1003,137 L 1002,138 L 1001,138 L 1000,138 L 999,138 L 998,139 L 998,140 L 997,141 L 997,142 L 997,143 L 997,144 L 998,144 L 999,143 L 1000,143 L 1001,144 L 1003,144 L 1004,145 L 1005,145 L 1006,146 L 1006,147 L 1007,147 L 1008,147 L 1008,146 L 1009,145 L 1010,144 L 1011,144 L 1012,144 L 1013,144 L 1014,145 L 1014,146 L 1014,147 L 1014,148 L 1015,149 L 1017,150 L 1018,150 L 1019,151 L 1020,152 L 1021,152 L 1021,153 L 1021,154 L 1021,155 L 1020,155 L 1019,155 L 1018,156 L 1017,156 L 1017,157 L 1017,158 L 1017,159 L 1018,159 L 1019,159 L 1019,160 L 1020,160 L 1021,160 L 1022,160 L 1023,159 L 1024,158 L 1025,158 L 1026,158 L 1027,159 L 1027,160 L 1028,161 L 1029,161 L 1030,161 L 1031,161 L 1032,160 L 1032,159 L 1033,158 L 1034,157 L 1035,157 L 1036,158 L 1037,159 L 1037,160 L 1037,161 L 1036,162 L 1035,163 L 1035,164 L 1035,165 L 1035,166 L 1036,167 L 1037,167 L 1038,167 L 1039,166 L 1039,165 L 1039,164 L 1039,163 L 1039,162 L 1039,161 L 1040,161 L 1041,161 L 1042,162 L 1042,163 L 1042,164 L 1043,164 L 1044,164 L 1045,164 L 1045,163 L 1046,162 L 1046,161 L 1047,160 L 1048,160 L 1049,161 L 1050,162 L 1050,163 L 1050,164 L 1049,164 L 1048,164 L 1047,164 L 1045,164 L 1044,165 L 1044,166 L 1044,167 L 1044,168 L 1045,168 L 1046,168 L 1047,167 L 1048,167 L 1048,166 L 1049,165 L 1050,165 L 1051,166 L 1052,167 L 1052,168 L 1052,169 L 1051,169 L 1050,169 L 1049,170 L 1048,170 L 1047,170 L 1047,171 L 1047,172 L 1048,173 L 1049,173 L 1050,172 L 1051,172 L 1052,172 L 1053,173 L 1053,174 L 1054,175 L 1054,176 L 1055,177 L 1056,177 L 1057,177 L 1057,176 L 1058,176 L 1059,175 L 1060,175 L 1061,176 L 1062,177 L 1062,178 L 1061,179 L 1061,180 L 1060,180 L 1059,180 L 1058,180 L 1057,180 L 1056,180 L 1055,181 L 1056,182 L 1057,183 L 1058,184 L 1058,185 L 1058,186 L 1058,187 L 1058,188 L 1057,188 L 1057,189 L 1057,190 L 1056,190 L 1057,191 L 1058,191 L 1059,191 L 1060,191 L 1061,191 L 1062,191 L 1063,191 L 1063,190 L 1063,189 L 1062,188 L 1062,187 L 1062,186 L 1063,185 L 1064,185 L 1065,185 L 1065,184 L 1066,184 L 1067,184 L 1068,184 L 1068,183 L 1069,184 L 1069,185 L 1070,185 L 1069,186 L 1069,187 L 1069,188 L 1068,188 L 1068,189 L 1068,190 L 1068,191 L 1069,192 L 1070,192 L 1071,193 L 1072,193 L 1073,193 L 1073,194 L 1073,195 L 1072,196 L 1071,196 L 1070,195 L 1069,195 L 1068,196 L 1067,197 L 1067,198 L 1067,199 L 1067,200 L 1067,201 L 1067,202 L 1068,203 L 1069,202 L 1070,202 L 1071,202 L 1072,202 L 1073,202 L 1074,202 L 1075,202 L 1076,203 L 1076,204 L 1076,205 L 1077,206 L 1078,206 L 1079,207 L 1080,207 L 1080,206 L 1080,205 L 1079,204 L 1078,204 L 1078,203 L 1077,203 L 1077,202 L 1076,201 L 1077,201 L 1077,200 L 1078,200 L 1079,200 L 1080,200 L 1080,201 L 1081,202 L 1082,202 L 1083,202 L 1084,202 L 1085,202 L 1086,202 L 1086,203 L 1087,204 L 1086,204 L 1086,205 L 1086,206 L 1086,207 L 1086,208 L 1086,209 L 1087,209 L 1088,209 L 1089,209 L 1089,210 L 1088,210 L 1088,211 L 1089,211 L 1090,212 L 1091,212 L 1092,212 L 1092,213 L 1092,214 L 1093,214 L 1094,214 L 1094,213 L 1095,213 L 1096,214 L 1097,214 L 1098,215 L 1099,215 L 1099,216 L 1098,216 L 1098,217 L 1099,218 L 1099,219 L 1099,220 L 1100,220 L 1101,220 L 1101,221 L 1100,221 L 1100,222 L 1100,223 L 1100,224 L 1099,224 L 1099,225 L 1100,226 L 1100,227 L 1100,228 L 1101,228 L 1100,228 L 1100,229 L 1101,229 L 1101,230 L 1102,231 L 1102,232 L 1102,233 L 1101,233 L 1101,234 L 1101,235 L 1102,235 L 1102,236 L 1101,236 L 1101,237 L 1102,237 L 1102,238 L 1102,239 L 1103,239 L 1102,239 L 1102,240 L 1102,241 L 1102,242 L 1101,242 L 1101,243 L 1101,244 L 1101,245 L 1101,246 L 1100,246 L 1100,247 L 1100,248 L 1099,248 L 1098,248 L 1097,248 L 1096,249 L 1096,250 L 1097,251 L 1098,251 L 1098,252 L 1097,252 L 1096,252 L 1096,253 L 1095,253 L 1095,254 L 1095,255 L 1096,255 L 1096,256 L 1096,257 L 1095,257 L 1095,256 L 1094,256 L 1093,256 L 1093,255 L 1093,256 L 1092,256 L 1091,256 L 1090,256 L 1089,256 L 1088,256 L 1087,256 L 1086,257 L 1085,258 L 1084,259 L 1083,259 L 1083,260 L 1082,260 L 1081,260 L 1080,260 L 1079,260 L 1078,260 L 1077,260 L 1077,259 L 1076,259 L 1076,258 L 1075,258 L 1075,257 L 1074,257 L 1074,256 L 1073,256 L 1073,255 L 1072,255 L 1071,255 L 1071,256 L 1070,256 L 1070,255 L 1069,255 L 1069,256 L 1069,257 L 1068,257 L 1067,257 L 1066,257 L 1065,256 L 1064,256 L 1064,257 L 1063,257 L 1063,258 L 1063,259 L 1063,260 L 1062,260 L 1062,261 L 1061,260 L 1061,259 L 1061,260 L 1061,261 L 1060,261 L 1060,262 L 1061,262 L 1061,263 L 1060,263 L 1059,263 L 1059,262 L 1058,262 L 1058,263 L 1057,263 L 1056,264 L 1057,264 L 1056,265 L 1056,266 L 1055,266 L 1054,266 L 1054,267 L 1053,267 L 1052,267 L 1051,267 L 1050,267 L 1050,266 L 1049,266 L 1049,265 L 1048,265 L 1047,265 L 1047,266 L 1046,266 L 1045,266 L 1045,267 L 1046,267 L 1046,268 L 1047,269 L 1047,270 L 1046,270 L 1045,270 L 1045,271 L 1045,272 L 1045,273 L 1045,274 L 1046,275 L 1046,276 L 1046,277 L 1047,277 L 1047,278 L 1047,279 L 1047,280 L 1046,280 L 1045,280 L 1045,281 L 1044,280 L 1044,281 L 1044,282 L 1043,283 L 1044,283 L 1044,284 L 1043,284 L 1044,285 L 1044,286 L 1044,287 L 1043,287 L 1043,288 L 1042,288 L 1041,288 L 1041,289 L 1040,289 L 1039,289 L 1038,289 L 1038,290 L 1038,291 L 1038,292 L 1039,292 L 1039,293 L 1039,294 L 1038,294 L 1037,294 L 1037,295 L 1037,296 L 1037,297 L 1037,298 " /></g>
</svg>
