<?xml version="1.0" standalone="no"?><!DOCTYPE svg PUBLIC "-//W3C//DTD SVG 1.1//EN" "http://www.w3.org/Graphics/SVG/1.1/DTD/svg11.dtd"><svg xmlns="http://www.w3.org/2000/svg" viewBox="769 -240 196 426" version = "1.1">
<g id="31204" ><path d="M 928,-237 L 929,-237 L 930,-237 L 931,-238 L 932,-238 L 933,-238 L 934,-238 L 935,-238 L 936,-238 L 937,-238 L 937,-237 L 938,-237 L 938,-236 L 937,-235 L 936,-234 L 935,-231 L 935,-230 L 934,-229 L 933,-229 L 933,-228 L 932,-228 L 933,-227 L 934,-227 L 935,-227 L 936,-227 L 937,-227 L 938,-228 L 938,-229 L 938,-230 L 938,-232 L 939,-233 L 940,-233 L 941,-234 L 942,-233 L 943,-233 L 943,-232 L 943,-231 L 943,-230 L 943,-229 L 942,-228 L 941,-227 L 939,-226 L 937,-225 L 936,-223 L 935,-222 L 935,-221 L 935,-220 L 935,-219 L 936,-219 L 937,-219 L 938,-220 L 940,-221 L 942,-221 L 943,-221 L 945,-220 L 946,-219 L 946,-218 L 946,-217 L 945,-217 L 944,-217 L 943,-218 L 942,-218 L 941,-218 L 940,-218 L 939,-218 L 937,-217 L 937,-216 L 936,-215 L 936,-213 L 935,-211 L 935,-210 L 936,-209 L 936,-208 L 937,-208 L 938,-208 L 939,-209 L 940,-210 L 940,-211 L 939,-212 L 938,-213 L 938,-214 L 938,-215 L 939,-215 L 940,-215 L 940,-214 L 941,-213 L 942,-213 L 943,-212 L 944,-212 L 945,-212 L 945,-211 L 946,-211 L 946,-210 L 946,-209 L 945,-208 L 944,-207 L 944,-206 L 943,-204 L 942,-203 L 941,-202 L 941,-201 L 942,-200 L 943,-200 L 944,-200 L 945,-200 L 945,-202 L 946,-203 L 947,-203 L 948,-203 L 949,-203 L 949,-202 L 948,-200 L 948,-199 L 948,-198 L 948,-197 L 949,-196 L 950,-195 L 950,-194 L 949,-193 L 948,-192 L 947,-192 L 946,-192 L 946,-193 L 946,-194 L 946,-196 L 946,-197 L 945,-198 L 944,-199 L 942,-199 L 941,-199 L 940,-198 L 939,-197 L 938,-196 L 937,-195 L 937,-194 L 938,-194 L 939,-194 L 940,-194 L 941,-193 L 942,-193 L 943,-192 L 944,-191 L 945,-191 L 946,-192 L 947,-192 L 948,-191 L 949,-191 L 950,-190 L 950,-189 L 950,-188 L 949,-187 L 948,-187 L 947,-187 L 947,-186 L 946,-185 L 947,-185 L 947,-184 L 948,-183 L 949,-182 L 950,-182 L 951,-182 L 952,-182 L 952,-183 L 952,-184 L 952,-185 L 952,-186 L 953,-187 L 954,-188 L 955,-189 L 956,-189 L 957,-189 L 958,-189 L 959,-188 L 958,-187 L 957,-186 L 957,-185 L 956,-185 L 956,-183 L 956,-182 L 955,-182 L 955,-181 L 954,-181 L 953,-181 L 952,-180 L 951,-179 L 952,-178 L 953,-177 L 954,-176 L 955,-176 L 955,-175 L 955,-174 L 956,-173 L 956,-172 L 956,-171 L 955,-169 L 954,-168 L 954,-167 L 953,-166 L 953,-165 L 952,-164 L 952,-163 L 952,-162 L 953,-161 L 952,-160 L 952,-159 L 951,-159 L 950,-159 L 949,-159 L 949,-160 L 948,-160 L 949,-161 L 949,-162 L 949,-163 L 949,-164 L 948,-164 L 947,-163 L 947,-162 L 946,-162 L 945,-161 L 944,-160 L 944,-159 L 944,-158 L 944,-157 L 945,-157 L 947,-156 L 948,-155 L 950,-155 L 951,-154 L 952,-154 L 953,-153 L 955,-153 L 956,-152 L 956,-151 L 956,-150 L 956,-148 L 956,-146 L 955,-144 L 954,-143 L 954,-142 L 954,-141 L 955,-141 L 956,-141 L 957,-141 L 957,-140 L 958,-140 L 958,-139 L 958,-138 L 958,-137 L 958,-136 L 958,-135 L 958,-134 L 957,-134 L 956,-134 L 955,-133 L 954,-132 L 953,-131 L 953,-130 L 952,-130 L 952,-129 L 951,-129 L 951,-128 L 950,-127 L 949,-126 L 949,-125 L 948,-125 L 948,-124 L 948,-123 L 949,-123 L 949,-122 L 950,-122 L 951,-122 L 952,-123 L 952,-124 L 953,-124 L 954,-125 L 955,-125 L 956,-125 L 957,-125 L 958,-125 L 959,-125 L 960,-125 L 961,-124 L 962,-124 L 963,-123 L 964,-123 L 964,-122 L 964,-121 L 963,-120 L 962,-120 L 961,-119 L 958,-119 L 957,-118 L 955,-117 L 954,-116 L 953,-115 L 953,-114 L 953,-113 L 954,-112 L 955,-112 L 956,-112 L 957,-113 L 958,-113 L 960,-114 L 961,-115 L 962,-115 L 963,-115 L 964,-115 L 965,-114 L 965,-113 L 965,-112 L 964,-111 L 963,-111 L 962,-111 L 961,-110 L 960,-110 L 959,-109 L 958,-108 L 958,-107 L 957,-106 L 958,-105 L 958,-104 L 958,-103 L 958,-102 L 958,-101 L 958,-100 L 957,-100 L 956,-99 L 955,-99 L 954,-99 L 954,-100 L 954,-101 L 954,-102 L 953,-102 L 952,-103 L 951,-104 L 950,-104 L 949,-105 L 948,-105 L 947,-106 L 946,-106 L 945,-106 L 944,-106 L 943,-105 L 943,-104 L 943,-103 L 944,-103 L 944,-102 L 945,-102 L 946,-101 L 947,-101 L 948,-101 L 949,-101 L 950,-101 L 951,-100 L 951,-99 L 950,-98 L 949,-98 L 948,-97 L 948,-96 L 948,-95 L 948,-94 L 949,-94 L 950,-94 L 951,-94 L 953,-94 L 954,-95 L 955,-95 L 956,-96 L 957,-96 L 958,-97 L 959,-97 L 960,-96 L 961,-96 L 961,-95 L 961,-94 L 960,-93 L 959,-92 L 958,-91 L 957,-89 L 957,-88 L 956,-87 L 955,-86 L 954,-86 L 954,-85 L 953,-84 L 952,-83 L 951,-83 L 950,-83 L 948,-82 L 947,-82 L 947,-81 L 947,-80 L 947,-79 L 948,-78 L 949,-78 L 950,-78 L 951,-78 L 953,-78 L 953,-77 L 954,-77 L 954,-76 L 954,-75 L 953,-74 L 952,-74 L 951,-73 L 951,-72 L 950,-71 L 951,-70 L 951,-69 L 952,-69 L 953,-67 L 954,-66 L 954,-65 L 955,-64 L 955,-63 L 955,-62 L 955,-61 L 954,-61 L 954,-60 L 953,-60 L 952,-60 L 951,-61 L 951,-62 L 950,-62 L 949,-63 L 948,-63 L 947,-64 L 946,-64 L 945,-64 L 944,-63 L 943,-63 L 943,-62 L 942,-61 L 942,-60 L 942,-59 L 942,-58 L 943,-58 L 944,-58 L 945,-58 L 946,-58 L 946,-59 L 947,-60 L 948,-60 L 949,-60 L 950,-60 L 950,-59 L 950,-58 L 949,-57 L 947,-56 L 946,-56 L 944,-56 L 943,-55 L 942,-54 L 942,-53 L 942,-52 L 943,-51 L 944,-51 L 945,-50 L 946,-49 L 946,-48 L 946,-47 L 945,-46 L 945,-45 L 944,-44 L 944,-43 L 944,-42 L 943,-41 L 942,-41 L 940,-41 L 939,-41 L 938,-42 L 938,-43 L 937,-43 L 937,-44 L 938,-46 L 939,-47 L 940,-48 L 940,-49 L 940,-50 L 939,-51 L 938,-51 L 936,-51 L 934,-51 L 933,-51 L 932,-51 L 931,-51 L 930,-50 L 929,-49 L 929,-48 L 929,-47 L 930,-47 L 931,-46 L 932,-45 L 933,-44 L 933,-43 L 933,-42 L 933,-41 L 932,-40 L 931,-40 L 930,-40 L 929,-39 L 928,-39 L 927,-38 L 926,-37 L 926,-36 L 926,-35 L 928,-35 L 929,-35 L 930,-34 L 930,-32 L 930,-30 L 930,-29 L 930,-27 L 930,-26 L 930,-24 L 930,-23 L 929,-22 L 928,-21 L 927,-20 L 924,-18 L 923,-17 L 921,-17 L 920,-16 L 919,-15 L 919,-14 L 918,-13 L 917,-12 L 917,-11 L 916,-10 L 916,-9 L 916,-8 L 917,-8 L 918,-7 L 919,-7 L 920,-7 L 921,-7 L 922,-7 L 923,-6 L 924,-5 L 925,-4 L 926,-3 L 927,-2 L 928,-1 L 928,0 L 927,0 L 927,1 L 927,2 L 927,3 L 927,4 L 927,5 L 927,6 L 927,7 L 926,8 L 925,8 L 924,8 L 923,8 L 922,8 L 922,7 L 922,6 L 922,5 L 922,4 L 923,3 L 924,2 L 924,1 L 924,0 L 923,-1 L 922,-1 L 922,-2 L 921,-2 L 920,-1 L 919,0 L 918,0 L 918,1 L 918,3 L 918,4 L 918,6 L 918,7 L 917,8 L 916,9 L 915,10 L 914,10 L 912,11 L 911,11 L 910,11 L 910,12 L 909,13 L 909,14 L 910,15 L 911,17 L 912,17 L 913,18 L 914,18 L 915,18 L 916,18 L 917,19 L 918,19 L 919,20 L 919,21 L 919,23 L 919,25 L 919,26 L 919,27 L 918,28 L 918,29 L 917,29 L 916,30 L 915,30 L 914,29 L 913,28 L 913,27 L 913,26 L 912,25 L 911,25 L 910,24 L 908,23 L 906,23 L 906,22 L 905,21 L 903,21 L 902,21 L 901,22 L 901,23 L 900,23 L 900,24 L 899,24 L 899,25 L 898,26 L 899,28 L 900,29 L 901,29 L 902,30 L 902,31 L 902,32 L 901,33 L 901,34 L 900,34 L 900,35 L 899,35 L 898,34 L 898,33 L 898,32 L 898,31 L 899,31 L 899,30 L 898,29 L 898,28 L 897,28 L 896,29 L 895,29 L 895,30 L 894,31 L 894,32 L 893,33 L 893,34 L 892,34 L 892,35 L 891,35 L 890,34 L 889,33 L 888,33 L 888,32 L 887,31 L 887,30 L 886,29 L 885,29 L 884,29 L 884,28 L 883,28 L 882,28 L 881,29 L 881,30 L 882,30 L 882,31 L 883,31 L 884,31 L 884,32 L 885,32 L 885,33 L 885,34 L 884,34 L 884,35 L 883,35 L 883,36 L 882,36 L 882,37 L 881,38 L 880,38 L 880,39 L 879,39 L 878,39 L 877,39 L 876,38 L 875,37 L 874,37 L 873,37 L 872,38 L 872,39 L 871,40 L 871,41 L 870,41 L 868,41 L 867,41 L 866,40 L 865,39 L 863,39 L 862,39 L 860,39 L 859,39 L 858,39 L 858,40 L 857,40 L 857,41 L 858,42 L 858,43 L 859,43 L 860,43 L 861,44 L 862,43 L 863,43 L 864,43 L 865,44 L 866,44 L 866,45 L 865,46 L 864,47 L 863,47 L 862,47 L 861,46 L 860,46 L 859,47 L 858,47 L 858,48 L 858,49 L 858,50 L 859,51 L 859,52 L 859,53 L 859,54 L 858,54 L 857,54 L 856,54 L 855,54 L 854,53 L 854,52 L 854,51 L 854,50 L 854,49 L 854,48 L 854,47 L 853,46 L 852,46 L 851,46 L 850,46 L 850,47 L 850,48 L 850,49 L 850,50 L 850,51 L 850,52 L 849,52 L 849,53 L 848,53 L 847,53 L 846,53 L 844,54 L 843,54 L 842,54 L 841,53 L 841,52 L 841,51 L 842,51 L 843,50 L 843,49 L 844,49 L 844,48 L 844,47 L 843,47 L 842,47 L 841,47 L 840,48 L 840,50 L 839,50 L 839,51 L 838,51 L 837,51 L 836,51 L 835,51 L 835,50 L 834,50 L 834,49 L 833,49 L 832,49 L 831,50 L 831,52 L 830,53 L 830,54 L 829,55 L 828,55 L 827,55 L 826,55 L 825,54 L 824,55 L 823,55 L 823,56 L 822,57 L 822,58 L 822,59 L 822,60 L 823,61 L 824,62 L 825,62 L 826,62 L 827,61 L 828,61 L 829,61 L 830,61 L 831,62 L 831,63 L 831,64 L 830,65 L 829,65 L 829,66 L 828,67 L 827,67 L 827,68 L 826,68 L 825,68 L 825,69 L 825,70 L 824,71 L 823,72 L 822,71 L 821,71 L 820,71 L 819,71 L 818,71 L 817,72 L 817,73 L 817,74 L 818,75 L 818,76 L 818,77 L 818,78 L 817,80 L 817,82 L 816,82 L 816,83 L 816,84 L 815,84 L 815,85 L 814,85 L 813,85 L 812,84 L 811,83 L 810,83 L 809,83 L 808,83 L 807,84 L 807,85 L 807,86 L 808,87 L 808,88 L 809,89 L 810,89 L 811,89 L 812,90 L 813,89 L 814,89 L 815,88 L 816,87 L 817,87 L 817,86 L 818,85 L 819,85 L 820,85 L 821,85 L 822,85 L 822,86 L 823,87 L 823,88 L 823,89 L 822,89 L 821,90 L 820,91 L 820,92 L 819,93 L 818,94 L 818,95 L 818,96 L 819,97 L 819,98 L 819,99 L 818,99 L 817,100 L 817,101 L 817,102 L 817,103 L 817,104 L 817,105 L 817,106 L 816,106 L 816,107 L 815,107 L 814,107 L 813,107 L 813,108 L 813,109 L 814,109 L 815,110 L 816,109 L 817,109 L 818,109 L 819,109 L 819,110 L 819,111 L 819,112 L 818,112 L 817,113 L 816,113 L 815,113 L 814,113 L 814,114 L 813,114 L 813,115 L 812,115 L 812,116 L 812,117 L 813,117 L 814,117 L 814,116 L 815,116 L 816,116 L 817,117 L 818,117 L 818,118 L 817,118 L 817,119 L 816,119 L 815,119 L 815,118 L 815,119 L 814,119 L 814,120 L 814,121 L 813,121 L 813,122 L 812,122 L 812,123 L 811,123 L 812,124 L 813,124 L 814,124 L 815,123 L 816,123 L 816,124 L 816,125 L 815,125 L 815,126 L 816,126 L 817,126 L 817,127 L 816,127 L 815,127 L 815,128 L 814,128 L 814,129 L 814,130 L 815,130 L 816,130 L 817,130 L 817,131 L 817,132 L 817,133 L 818,133 L 819,133 L 819,134 L 819,135 L 820,135 L 820,134 L 821,135 L 822,136 L 822,135 L 823,135 L 823,134 L 823,135 L 823,136 L 824,136 L 824,137 L 825,138 L 825,139 L 824,139 L 824,140 L 825,140 L 825,141 L 826,141 L 826,142 L 825,142 L 824,142 L 824,143 L 823,143 L 823,144 L 823,145 L 823,144 L 824,144 L 824,145 L 824,146 L 825,146 L 825,145 L 826,145 L 826,146 L 825,146 L 825,147 L 825,148 L 824,148 L 823,148 L 824,148 L 824,149 L 823,149 L 822,149 L 822,150 L 823,150 L 824,150 L 824,151 L 823,151 L 822,151 L 822,152 L 823,152 L 824,152 L 824,151 L 825,152 L 825,153 L 824,153 L 824,154 L 825,155 L 824,155 L 824,156 L 823,156 L 824,156 L 824,157 L 823,157 L 823,158 L 823,159 L 823,160 L 823,161 L 823,162 L 824,162 L 825,162 L 825,163 L 825,164 L 825,165 L 825,166 L 825,167 L 825,168 L 826,168 L 826,169 L 827,169 L 827,170 L 828,170 L 828,171 L 828,172 L 828,173 L 828,174 L 828,175 L 827,177 L 827,178 L 826,179 L 826,180 L 822,186 L 821,185 L 822,185 L 822,184 L 821,184 L 821,183 L 820,183 L 820,182 L 819,182 L 818,181 L 818,180 L 817,180 L 816,179 L 815,179 L 815,180 L 814,180 L 814,181 L 813,181 L 813,180 L 812,180 L 811,180 L 810,180 L 809,180 L 809,179 L 808,179 L 807,179 L 806,178 L 806,177 L 807,177 L 807,176 L 807,175 L 806,174 L 805,174 L 804,173 L 803,174 L 802,174 L 801,174 L 801,175 L 800,175 L 800,174 L 799,174 L 799,173 L 799,172 L 800,171 L 800,170 L 800,169 L 799,168 L 798,168 L 797,168 L 796,168 L 795,168 L 794,168 L 794,167 L 793,167 L 793,166 L 792,165 L 790,165 L 789,164 L 787,164 L 786,162 L 784,160 L 783,160 L 783,159 L 784,158 L 785,158 L 786,158 L 787,158 L 788,157 L 788,156 L 788,155 L 787,154 L 786,154 L 786,153 L 786,152 L 785,151 L 785,150 L 784,150 L 784,148 L 771,148 L 772,148 L 772,147 L 771,147 L 770,147 L 770,146 L 769,146 L 769,145 L 770,145 L 771,145 L 772,145 L 772,144 L 772,143 L 773,143 L 773,142 L 774,142 L 774,141 L 773,141 L 773,140 L 772,140 L 771,140 L 771,139 L 772,139 L 771,138 L 770,138 L 771,137 L 771,136 L 771,135 L 772,135 L 773,135 L 774,135 L 774,134 L 773,134 L 773,133 L 773,132 L 772,131 L 772,130 L 773,130 L 773,129 L 773,128 L 773,127 L 773,126 L 774,126 L 774,125 L 775,125 L 775,124 L 776,124 L 776,123 L 777,123 L 777,122 L 778,122 L 778,121 L 778,120 L 779,120 L 779,119 L 780,119 L 780,118 L 780,117 L 781,117 L 780,117 L 780,116 L 780,115 L 779,114 L 779,113 L 778,113 L 778,112 L 778,111 L 777,111 L 777,110 L 776,110 L 777,110 L 778,110 L 779,109 L 779,108 L 779,107 L 780,107 L 780,106 L 779,106 L 779,105 L 778,105 L 778,104 L 779,104 L 780,104 L 780,103 L 780,102 L 779,102 L 779,101 L 779,100 L 778,100 L 778,99 L 778,98 L 779,98 L 779,97 L 779,96 L 780,96 L 780,97 L 781,97 L 781,98 L 781,97 L 781,96 L 780,96 L 780,95 L 781,95 L 782,95 L 782,94 L 781,94 L 781,93 L 781,92 L 781,91 L 780,91 L 780,92 L 780,91 L 780,90 L 781,90 L 781,89 L 780,89 L 779,89 L 779,88 L 780,88 L 780,87 L 780,86 L 781,86 L 780,85 L 780,86 L 779,86 L 779,87 L 779,86 L 779,85 L 779,84 L 780,84 L 780,85 L 780,84 L 779,84 L 779,83 L 780,83 L 780,82 L 781,82 L 782,82 L 783,82 L 783,81 L 782,81 L 782,80 L 782,81 L 781,81 L 780,80 L 779,80 L 778,80 L 778,79 L 777,79 L 777,78 L 776,78 L 776,77 L 777,76 L 778,76 L 779,76 L 779,77 L 780,77 L 780,78 L 780,79 L 781,79 L 782,79 L 783,79 L 784,79 L 784,78 L 784,77 L 783,76 L 782,76 L 781,76 L 780,75 L 779,75 L 778,75 L 778,74 L 778,73 L 778,72 L 779,72 L 780,72 L 781,72 L 782,72 L 782,71 L 783,71 L 783,70 L 783,69 L 783,68 L 782,67 L 782,66 L 781,66 L 781,65 L 780,65 L 781,65 L 781,64 L 781,63 L 782,62 L 783,61 L 784,61 L 785,60 L 788,59 L 789,59 L 789,58 L 790,57 L 790,56 L 789,55 L 789,54 L 788,53 L 788,52 L 788,51 L 788,50 L 788,49 L 788,48 L 790,47 L 791,47 L 793,47 L 794,48 L 795,48 L 796,48 L 797,48 L 797,47 L 798,47 L 798,46 L 799,46 L 800,45 L 801,45 L 801,44 L 801,43 L 801,42 L 800,42 L 800,41 L 799,41 L 798,41 L 797,41 L 796,42 L 795,42 L 794,41 L 793,40 L 793,39 L 793,38 L 793,37 L 794,36 L 795,36 L 796,36 L 797,36 L 797,35 L 798,35 L 798,34 L 799,34 L 799,33 L 798,33 L 798,32 L 797,32 L 797,31 L 796,31 L 795,32 L 794,32 L 793,31 L 792,31 L 791,31 L 791,32 L 790,32 L 789,33 L 788,33 L 787,33 L 787,32 L 788,31 L 789,30 L 789,29 L 790,29 L 791,28 L 792,28 L 793,29 L 794,29 L 795,29 L 796,30 L 797,30 L 797,29 L 798,29 L 798,28 L 799,28 L 799,27 L 800,26 L 800,25 L 801,24 L 800,24 L 800,23 L 799,23 L 799,22 L 798,22 L 797,22 L 797,21 L 796,21 L 795,22 L 794,22 L 793,22 L 793,21 L 793,20 L 794,20 L 794,19 L 794,18 L 795,18 L 795,17 L 795,16 L 796,16 L 796,15 L 797,14 L 797,13 L 798,13 L 799,12 L 800,12 L 801,13 L 802,13 L 803,13 L 803,12 L 803,11 L 803,10 L 802,10 L 801,10 L 801,9 L 800,9 L 799,9 L 798,9 L 797,9 L 797,8 L 796,8 L 795,8 L 795,7 L 795,6 L 796,6 L 797,6 L 797,5 L 798,5 L 799,6 L 800,6 L 801,6 L 801,7 L 802,7 L 803,7 L 803,8 L 804,8 L 805,8 L 806,8 L 807,8 L 807,7 L 808,7 L 808,6 L 809,6 L 810,7 L 811,8 L 812,8 L 813,8 L 813,7 L 812,7 L 812,6 L 811,6 L 811,5 L 810,4 L 810,3 L 809,3 L 809,2 L 809,1 L 810,1 L 811,1 L 812,1 L 813,2 L 814,2 L 815,2 L 815,1 L 815,0 L 814,0 L 813,0 L 812,0 L 811,0 L 811,-1 L 810,-1 L 810,-2 L 810,-3 L 811,-3 L 812,-3 L 812,-2 L 813,-2 L 814,-1 L 814,0 L 815,0 L 816,0 L 816,1 L 817,1 L 817,2 L 817,3 L 818,3 L 819,3 L 820,2 L 821,1 L 821,0 L 821,-1 L 820,-1 L 819,-1 L 819,-2 L 818,-2 L 818,-3 L 818,-4 L 818,-5 L 819,-5 L 819,-6 L 819,-7 L 818,-7 L 818,-8 L 817,-8 L 817,-9 L 817,-10 L 818,-10 L 819,-10 L 820,-10 L 821,-10 L 821,-9 L 822,-9 L 823,-8 L 824,-8 L 824,-7 L 825,-7 L 826,-7 L 827,-8 L 827,-9 L 828,-9 L 829,-9 L 830,-9 L 830,-8 L 831,-8 L 831,-9 L 831,-10 L 830,-10 L 830,-11 L 829,-11 L 828,-11 L 827,-10 L 826,-10 L 825,-10 L 824,-10 L 824,-11 L 824,-12 L 825,-12 L 825,-13 L 826,-13 L 827,-13 L 828,-13 L 828,-12 L 829,-12 L 830,-12 L 831,-12 L 832,-12 L 832,-13 L 833,-14 L 833,-15 L 832,-15 L 832,-16 L 832,-17 L 832,-18 L 832,-19 L 832,-20 L 833,-20 L 834,-20 L 835,-20 L 835,-19 L 836,-19 L 837,-19 L 837,-18 L 838,-17 L 839,-17 L 840,-18 L 839,-18 L 839,-19 L 839,-20 L 838,-20 L 837,-20 L 836,-21 L 836,-22 L 836,-23 L 837,-23 L 837,-24 L 836,-24 L 836,-25 L 836,-26 L 835,-26 L 836,-27 L 837,-27 L 837,-26 L 838,-25 L 838,-24 L 838,-23 L 839,-23 L 839,-22 L 840,-22 L 841,-22 L 841,-23 L 842,-23 L 842,-24 L 843,-24 L 844,-24 L 845,-24 L 846,-24 L 847,-24 L 847,-25 L 846,-25 L 846,-26 L 845,-26 L 845,-27 L 844,-27 L 843,-27 L 842,-27 L 842,-28 L 841,-28 L 841,-29 L 842,-29 L 843,-29 L 843,-30 L 844,-30 L 845,-30 L 845,-31 L 846,-31 L 847,-31 L 848,-31 L 848,-32 L 848,-33 L 848,-34 L 848,-35 L 848,-36 L 848,-35 L 849,-35 L 850,-35 L 850,-34 L 851,-34 L 851,-33 L 852,-33 L 852,-34 L 852,-35 L 852,-36 L 851,-36 L 851,-37 L 851,-38 L 852,-38 L 852,-39 L 852,-40 L 853,-40 L 853,-41 L 853,-42 L 853,-43 L 854,-44 L 855,-44 L 856,-44 L 856,-43 L 857,-43 L 858,-43 L 858,-42 L 858,-41 L 858,-40 L 859,-39 L 859,-38 L 860,-38 L 860,-37 L 861,-37 L 862,-37 L 862,-38 L 863,-38 L 863,-39 L 863,-40 L 864,-40 L 864,-41 L 863,-41 L 863,-42 L 862,-42 L 861,-42 L 860,-42 L 860,-43 L 860,-44 L 860,-45 L 860,-46 L 859,-46 L 859,-47 L 858,-47 L 857,-47 L 857,-46 L 856,-46 L 856,-45 L 855,-45 L 855,-46 L 855,-47 L 856,-47 L 857,-47 L 857,-48 L 857,-49 L 857,-50 L 858,-50 L 859,-50 L 860,-50 L 860,-49 L 861,-49 L 861,-48 L 862,-48 L 863,-48 L 863,-49 L 863,-50 L 864,-50 L 864,-51 L 863,-51 L 863,-52 L 864,-52 L 864,-53 L 864,-54 L 864,-55 L 865,-55 L 865,-56 L 866,-57 L 866,-58 L 867,-59 L 867,-60 L 867,-61 L 868,-61 L 868,-62 L 868,-63 L 869,-63 L 870,-64 L 871,-64 L 871,-65 L 872,-65 L 872,-66 L 872,-67 L 871,-68 L 870,-68 L 869,-68 L 868,-68 L 867,-68 L 866,-68 L 866,-69 L 866,-70 L 865,-70 L 865,-71 L 865,-72 L 865,-73 L 865,-74 L 865,-75 L 864,-75 L 863,-75 L 863,-76 L 862,-76 L 862,-77 L 863,-77 L 863,-78 L 864,-79 L 865,-79 L 866,-78 L 867,-78 L 868,-78 L 868,-79 L 868,-80 L 867,-80 L 867,-81 L 866,-81 L 865,-81 L 865,-82 L 864,-82 L 864,-83 L 864,-84 L 865,-84 L 865,-85 L 866,-85 L 866,-86 L 866,-87 L 866,-88 L 865,-88 L 864,-88 L 863,-88 L 863,-87 L 862,-87 L 862,-86 L 862,-85 L 861,-85 L 861,-86 L 861,-87 L 861,-88 L 862,-88 L 863,-88 L 863,-89 L 864,-89 L 864,-90 L 864,-91 L 864,-92 L 865,-93 L 866,-93 L 866,-92 L 867,-92 L 868,-91 L 869,-91 L 869,-92 L 869,-93 L 868,-93 L 867,-93 L 867,-94 L 866,-94 L 865,-94 L 864,-94 L 864,-93 L 864,-94 L 863,-94 L 862,-94 L 861,-94 L 860,-94 L 860,-93 L 859,-93 L 858,-92 L 857,-92 L 857,-93 L 856,-94 L 856,-95 L 857,-95 L 858,-95 L 858,-96 L 859,-96 L 860,-96 L 860,-97 L 860,-98 L 860,-99 L 861,-100 L 861,-101 L 861,-102 L 860,-102 L 859,-102 L 858,-102 L 858,-101 L 858,-100 L 857,-100 L 856,-100 L 856,-101 L 857,-102 L 858,-102 L 859,-102 L 859,-103 L 858,-104 L 858,-105 L 857,-105 L 857,-106 L 856,-106 L 856,-107 L 855,-107 L 854,-108 L 854,-109 L 855,-109 L 855,-110 L 855,-109 L 856,-109 L 857,-109 L 858,-109 L 859,-109 L 860,-109 L 861,-110 L 861,-111 L 860,-111 L 860,-112 L 859,-112 L 859,-113 L 859,-114 L 859,-115 L 859,-116 L 859,-117 L 860,-117 L 860,-118 L 860,-119 L 860,-120 L 861,-120 L 861,-119 L 862,-119 L 863,-119 L 863,-120 L 864,-120 L 865,-120 L 865,-121 L 865,-122 L 865,-123 L 865,-124 L 864,-124 L 864,-125 L 864,-126 L 865,-127 L 865,-126 L 866,-126 L 867,-126 L 867,-125 L 868,-125 L 868,-124 L 869,-124 L 870,-124 L 870,-125 L 870,-126 L 870,-127 L 871,-127 L 871,-128 L 872,-128 L 872,-129 L 873,-129 L 873,-130 L 873,-131 L 873,-132 L 872,-132 L 872,-133 L 871,-133 L 871,-134 L 870,-134 L 869,-134 L 869,-135 L 869,-136 L 870,-136 L 870,-137 L 871,-137 L 872,-137 L 872,-138 L 872,-139 L 873,-140 L 873,-141 L 873,-142 L 873,-143 L 873,-144 L 873,-145 L 873,-146 L 873,-147 L 874,-147 L 875,-147 L 875,-146 L 876,-146 L 877,-146 L 877,-145 L 878,-145 L 879,-144 L 879,-143 L 879,-142 L 880,-141 L 880,-142 L 881,-142 L 882,-142 L 882,-141 L 883,-141 L 884,-141 L 885,-141 L 885,-142 L 885,-143 L 885,-144 L 884,-144 L 884,-145 L 883,-145 L 882,-145 L 882,-146 L 881,-146 L 880,-146 L 879,-146 L 879,-147 L 879,-148 L 880,-149 L 880,-150 L 880,-151 L 880,-152 L 880,-153 L 880,-154 L 880,-155 L 881,-155 L 881,-156 L 881,-157 L 881,-158 L 881,-159 L 881,-160 L 881,-161 L 881,-162 L 880,-162 L 880,-163 L 879,-163 L 878,-163 L 877,-163 L 877,-164 L 877,-165 L 878,-165 L 878,-166 L 879,-166 L 880,-166 L 881,-166 L 881,-167 L 882,-167 L 883,-167 L 883,-166 L 882,-165 L 882,-164 L 882,-163 L 882,-162 L 883,-162 L 883,-161 L 884,-161 L 884,-160 L 885,-160 L 886,-160 L 887,-160 L 888,-160 L 889,-160 L 889,-161 L 888,-161 L 888,-162 L 887,-163 L 887,-164 L 886,-165 L 887,-165 L 887,-166 L 888,-166 L 889,-166 L 890,-166 L 891,-165 L 892,-165 L 893,-164 L 894,-164 L 895,-164 L 895,-165 L 895,-166 L 895,-167 L 895,-168 L 894,-168 L 894,-169 L 893,-169 L 893,-170 L 892,-171 L 892,-172 L 892,-173 L 892,-174 L 892,-175 L 893,-175 L 894,-176 L 895,-175 L 896,-174 L 897,-174 L 897,-173 L 898,-174 L 898,-175 L 898,-176 L 898,-177 L 897,-177 L 897,-178 L 898,-178 L 899,-178 L 900,-178 L 901,-178 L 902,-178 L 902,-179 L 902,-180 L 902,-181 L 902,-182 L 902,-183 L 903,-183 L 904,-183 L 905,-183 L 906,-183 L 907,-184 L 908,-185 L 908,-186 L 908,-187 L 909,-187 L 910,-187 L 910,-186 L 911,-186 L 911,-185 L 911,-184 L 910,-184 L 910,-183 L 909,-183 L 909,-182 L 910,-181 L 911,-181 L 911,-182 L 911,-183 L 911,-184 L 911,-185 L 911,-187 L 912,-188 L 912,-189 L 913,-189 L 914,-189 L 915,-189 L 915,-190 L 916,-191 L 917,-192 L 918,-191 L 919,-191 L 920,-192 L 921,-192 L 921,-193 L 921,-194 L 921,-195 L 922,-195 L 922,-196 L 923,-196 L 923,-197 L 922,-198 L 922,-199 L 921,-200 L 921,-201 L 921,-202 L 921,-203 L 920,-203 L 920,-204 L 919,-204 L 919,-205 L 918,-205 L 918,-206 L 918,-207 L 918,-208 L 918,-209 L 919,-209 L 920,-209 L 921,-210 L 921,-211 L 920,-211 L 919,-211 L 918,-211 L 917,-212 L 916,-213 L 915,-213 L 914,-213 L 913,-213 L 912,-213 L 913,-214 L 914,-215 L 915,-216 L 916,-217 L 916,-218 L 917,-218 L 918,-218 L 919,-218 L 920,-218 L 920,-217 L 920,-216 L 920,-215 L 921,-215 L 921,-216 L 921,-217 L 921,-218 L 921,-219 L 920,-220 L 919,-220 L 918,-221 L 918,-222 L 918,-223 L 917,-223 L 917,-224 L 917,-225 L 917,-226 L 917,-227 L 918,-227 L 918,-228 L 918,-229 L 918,-230 L 918,-231 L 919,-231 L 919,-230 L 919,-229 L 920,-229 L 921,-229 L 922,-229 L 922,-230 L 923,-230 L 923,-231 L 924,-231 L 924,-232 L 923,-232 L 923,-233 L 922,-233 L 922,-234 L 922,-235 L 923,-235 L 924,-235 L 924,-234 L 925,-234 L 926,-234 L 925,-235 L 925,-236 L 925,-237 L 925,-238 L 926,-238 L 926,-239 L 927,-240 L 928,-240 L 928,-239 L 927,-238 L 928,-237 " /></g>
</svg>
