<?xml version="1.0" standalone="no"?><!DOCTYPE svg PUBLIC "-//W3C//DTD SVG 1.1//EN" "http://www.w3.org/Graphics/SVG/1.1/DTD/svg11.dtd"><svg xmlns="http://www.w3.org/2000/svg" viewBox="821 180 163 265" version = "1.1">
<g id="31202" ><path d="M 841,198 L 842,198 L 843,198 L 844,198 L 845,198 L 845,199 L 845,200 L 846,200 L 847,200 L 847,201 L 848,201 L 849,201 L 849,202 L 850,202 L 851,202 L 852,202 L 853,203 L 854,203 L 855,203 L 856,203 L 857,203 L 857,204 L 858,204 L 859,204 L 859,203 L 860,203 L 860,204 L 861,204 L 862,204 L 863,204 L 864,205 L 865,205 L 865,204 L 866,205 L 867,205 L 868,204 L 868,205 L 868,206 L 868,207 L 869,207 L 870,208 L 871,208 L 872,208 L 873,208 L 874,209 L 875,209 L 876,210 L 877,211 L 878,211 L 879,212 L 878,212 L 877,213 L 877,214 L 878,215 L 878,216 L 879,216 L 880,216 L 881,216 L 881,217 L 882,218 L 883,218 L 884,218 L 884,219 L 885,219 L 886,220 L 887,220 L 888,221 L 889,221 L 890,221 L 891,222 L 892,222 L 893,221 L 894,221 L 895,221 L 896,221 L 896,222 L 895,222 L 895,223 L 894,224 L 894,225 L 894,226 L 895,226 L 895,227 L 896,227 L 896,228 L 897,228 L 898,228 L 899,228 L 899,229 L 900,229 L 901,229 L 902,229 L 903,230 L 903,231 L 904,231 L 905,232 L 906,232 L 907,232 L 907,231 L 908,232 L 909,232 L 909,233 L 910,233 L 911,233 L 912,233 L 912,234 L 913,234 L 914,234 L 914,235 L 915,235 L 915,236 L 915,237 L 916,237 L 916,238 L 917,238 L 918,238 L 919,237 L 919,238 L 920,238 L 921,238 L 921,239 L 922,239 L 922,240 L 923,240 L 924,240 L 924,241 L 925,241 L 926,241 L 926,242 L 927,242 L 928,243 L 929,243 L 929,244 L 930,244 L 931,245 L 932,246 L 933,247 L 933,248 L 933,249 L 934,250 L 934,251 L 935,251 L 936,251 L 936,252 L 937,252 L 938,252 L 938,253 L 939,253 L 939,254 L 940,254 L 941,254 L 942,254 L 942,255 L 943,254 L 943,255 L 943,256 L 944,256 L 944,257 L 945,257 L 945,258 L 945,259 L 946,259 L 946,260 L 947,261 L 947,262 L 948,263 L 949,263 L 950,264 L 950,265 L 950,266 L 951,267 L 952,268 L 953,269 L 954,269 L 955,269 L 956,269 L 956,270 L 957,270 L 958,270 L 959,271 L 959,272 L 959,273 L 960,274 L 960,275 L 961,276 L 961,277 L 961,278 L 962,278 L 962,279 L 961,279 L 960,279 L 959,279 L 960,280 L 960,281 L 960,282 L 960,283 L 961,283 L 961,284 L 961,285 L 960,285 L 960,286 L 961,286 L 961,287 L 961,288 L 961,289 L 962,289 L 962,290 L 963,290 L 964,290 L 964,291 L 964,292 L 964,293 L 965,293 L 965,294 L 966,294 L 966,295 L 966,296 L 967,296 L 968,297 L 969,297 L 970,297 L 970,298 L 971,298 L 971,299 L 972,299 L 973,300 L 974,300 L 975,300 L 976,300 L 976,299 L 976,298 L 977,298 L 978,298 L 978,299 L 978,300 L 979,300 L 979,301 L 979,302 L 979,303 L 979,304 L 979,305 L 980,305 L 980,306 L 980,307 L 980,308 L 980,309 L 980,310 L 980,311 L 980,312 L 981,312 L 982,312 L 982,313 L 982,314 L 983,314 L 983,315 L 984,315 L 983,316 L 983,317 L 982,317 L 983,317 L 983,318 L 983,319 L 983,320 L 983,321 L 982,321 L 983,321 L 982,321 L 982,322 L 982,323 L 982,324 L 981,324 L 981,325 L 981,326 L 981,327 L 980,327 L 979,327 L 979,328 L 979,329 L 978,329 L 978,330 L 977,330 L 977,331 L 976,331 L 976,332 L 975,332 L 975,333 L 975,334 L 975,335 L 975,336 L 974,336 L 973,336 L 972,335 L 971,335 L 970,335 L 970,336 L 970,337 L 969,338 L 968,338 L 968,339 L 967,339 L 967,340 L 966,340 L 966,341 L 966,342 L 966,343 L 966,344 L 966,345 L 966,346 L 966,347 L 967,347 L 966,347 L 966,348 L 966,349 L 966,350 L 967,350 L 967,351 L 966,351 L 966,352 L 965,352 L 964,352 L 964,351 L 964,352 L 963,352 L 963,353 L 962,353 L 962,354 L 961,354 L 960,354 L 959,354 L 959,353 L 958,353 L 957,353 L 956,353 L 956,354 L 955,354 L 954,354 L 953,354 L 952,354 L 951,354 L 951,355 L 950,355 L 949,355 L 949,354 L 948,354 L 947,354 L 946,354 L 945,354 L 945,355 L 945,356 L 944,356 L 944,357 L 943,357 L 943,358 L 942,358 L 942,359 L 941,359 L 941,360 L 940,360 L 940,359 L 939,359 L 939,360 L 938,360 L 937,360 L 936,360 L 935,361 L 934,361 L 933,361 L 932,361 L 931,361 L 930,361 L 930,362 L 929,362 L 929,363 L 929,364 L 928,364 L 928,365 L 928,364 L 928,365 L 927,365 L 927,366 L 927,367 L 927,368 L 926,368 L 926,369 L 926,370 L 926,371 L 926,372 L 925,372 L 925,373 L 925,374 L 925,375 L 924,376 L 924,377 L 924,378 L 923,378 L 923,379 L 923,380 L 922,381 L 922,382 L 922,383 L 921,383 L 921,384 L 921,385 L 921,386 L 920,386 L 921,386 L 921,387 L 921,388 L 922,388 L 922,389 L 921,389 L 921,390 L 921,391 L 920,391 L 920,392 L 920,393 L 919,393 L 919,394 L 916,397 L 911,413 L 912,415 L 914,421 L 917,427 L 909,431 L 910,431 L 910,432 L 911,432 L 911,433 L 911,434 L 912,434 L 913,435 L 913,436 L 913,437 L 914,438 L 914,439 L 915,439 L 916,439 L 916,440 L 917,440 L 917,441 L 918,442 L 919,442 L 919,443 L 918,443 L 919,443 L 919,442 L 920,442 L 920,443 L 921,443 L 921,442 L 922,442 L 922,443 L 923,443 L 924,444 L 910,445 L 905,443 L 893,444 L 884,443 L 883,443 L 883,442 L 882,442 L 882,441 L 882,440 L 881,440 L 881,439 L 882,438 L 882,437 L 882,436 L 881,435 L 880,434 L 880,432 L 879,432 L 879,431 L 874,425 L 873,423 L 871,420 L 871,419 L 868,414 L 856,408 L 854,407 L 849,404 L 846,402 L 844,401 L 843,396 L 835,388 L 835,385 L 833,383 L 832,383 L 830,381 L 828,380 L 828,379 L 827,379 L 826,378 L 837,373 L 831,363 L 833,358 L 834,349 L 836,341 L 837,338 L 841,325 L 840,318 L 842,312 L 837,311 L 836,310 L 835,310 L 835,309 L 834,309 L 833,309 L 833,308 L 832,308 L 832,307 L 831,307 L 831,306 L 831,305 L 830,305 L 830,304 L 829,304 L 829,303 L 829,302 L 828,302 L 828,301 L 827,301 L 827,300 L 827,299 L 826,299 L 826,298 L 825,298 L 825,297 L 824,296 L 823,296 L 822,296 L 822,295 L 822,294 L 822,293 L 823,293 L 823,292 L 823,291 L 824,291 L 824,292 L 825,292 L 825,291 L 826,291 L 827,291 L 828,291 L 828,290 L 829,289 L 829,288 L 830,288 L 831,288 L 831,287 L 832,287 L 833,287 L 834,287 L 835,287 L 836,287 L 836,286 L 837,286 L 837,285 L 838,285 L 837,284 L 837,283 L 837,282 L 838,282 L 838,281 L 838,280 L 839,280 L 839,279 L 839,278 L 840,278 L 840,277 L 840,276 L 841,276 L 841,275 L 842,275 L 842,274 L 843,274 L 844,274 L 844,273 L 844,272 L 844,271 L 845,271 L 845,270 L 844,270 L 844,269 L 843,268 L 843,267 L 843,266 L 842,266 L 842,265 L 842,264 L 842,263 L 842,262 L 842,261 L 842,260 L 843,260 L 843,259 L 844,259 L 845,259 L 845,258 L 846,258 L 846,257 L 846,256 L 846,255 L 847,255 L 847,254 L 846,254 L 846,253 L 846,252 L 845,252 L 845,253 L 844,253 L 844,252 L 845,252 L 844,251 L 844,252 L 843,252 L 842,252 L 842,251 L 841,252 L 840,252 L 839,251 L 838,251 L 837,251 L 837,250 L 837,249 L 836,250 L 835,249 L 836,249 L 836,248 L 835,248 L 835,247 L 834,247 L 834,246 L 835,246 L 835,245 L 835,244 L 835,243 L 836,243 L 837,243 L 837,242 L 837,241 L 838,241 L 838,240 L 839,240 L 839,239 L 839,238 L 839,237 L 840,237 L 840,236 L 839,236 L 838,235 L 839,235 L 839,234 L 838,233 L 837,233 L 837,234 L 836,233 L 835,232 L 834,231 L 833,231 L 832,231 L 832,230 L 832,229 L 831,230 L 831,229 L 830,229 L 830,228 L 829,228 L 829,227 L 828,226 L 827,226 L 826,225 L 826,224 L 825,224 L 825,223 L 824,223 L 823,223 L 823,222 L 822,222 L 822,221 L 822,220 L 822,219 L 821,219 L 821,218 L 822,218 L 822,217 L 822,216 L 823,215 L 824,214 L 825,214 L 826,214 L 826,213 L 827,213 L 827,212 L 826,212 L 825,211 L 825,210 L 825,209 L 824,209 L 824,208 L 823,208 L 823,207 L 824,206 L 824,205 L 825,205 L 825,204 L 825,203 L 825,202 L 825,201 L 825,200 L 826,200 L 826,199 L 826,198 L 826,197 L 827,197 L 827,196 L 827,195 L 826,195 L 826,194 L 825,194 L 825,193 L 824,193 L 824,192 L 824,191 L 824,190 L 823,190 L 823,189 L 823,188 L 822,188 L 822,187 L 822,186 L 826,180 L 829,182 L 829,184 L 831,185 L 831,186 L 832,186 L 832,187 L 833,187 L 833,188 L 834,188 L 834,189 L 835,189 L 835,190 L 835,191 L 834,192 L 835,192 L 835,193 L 836,193 L 837,194 L 838,194 L 838,195 L 839,195 L 839,196 L 840,196 L 840,197 L 841,198 " /></g>
</svg>
