<?xml version="1.0" standalone="no"?><!DOCTYPE svg PUBLIC "-//W3C//DTD SVG 1.1//EN" "http://www.w3.org/Graphics/SVG/1.1/DTD/svg11.dtd"><svg xmlns="http://www.w3.org/2000/svg" viewBox="730 160 124 303" version = "1.1">
<g id="31201" ><path d="M 794,168 L 795,168 L 796,168 L 797,168 L 798,168 L 799,168 L 800,169 L 800,170 L 800,171 L 799,172 L 799,173 L 799,174 L 800,174 L 800,175 L 801,175 L 801,174 L 802,174 L 803,174 L 804,173 L 805,174 L 806,174 L 807,175 L 807,176 L 807,177 L 806,177 L 806,178 L 807,179 L 808,179 L 809,179 L 809,180 L 810,180 L 811,180 L 812,180 L 813,180 L 813,181 L 814,181 L 814,180 L 815,180 L 815,179 L 816,179 L 817,180 L 818,180 L 818,181 L 819,182 L 820,182 L 820,183 L 821,183 L 821,184 L 822,184 L 822,185 L 821,185 L 822,186 L 822,187 L 822,188 L 823,188 L 823,189 L 823,190 L 824,190 L 824,191 L 824,192 L 824,193 L 825,193 L 825,194 L 826,194 L 826,195 L 827,195 L 827,196 L 827,197 L 826,197 L 826,198 L 826,199 L 826,200 L 825,200 L 825,201 L 825,202 L 825,203 L 825,204 L 825,205 L 824,205 L 824,206 L 823,207 L 823,208 L 824,208 L 824,209 L 825,209 L 825,210 L 825,211 L 826,212 L 827,212 L 827,213 L 826,213 L 826,214 L 825,214 L 824,214 L 823,215 L 822,216 L 822,217 L 822,218 L 821,218 L 821,219 L 822,219 L 822,220 L 822,221 L 822,222 L 823,222 L 823,223 L 824,223 L 825,223 L 825,224 L 826,224 L 826,225 L 827,226 L 828,226 L 829,227 L 829,228 L 830,228 L 830,229 L 831,229 L 831,230 L 832,229 L 832,230 L 832,231 L 833,231 L 834,231 L 835,232 L 836,233 L 837,234 L 837,233 L 838,233 L 839,234 L 839,235 L 838,235 L 839,236 L 840,236 L 840,237 L 839,237 L 839,238 L 839,239 L 839,240 L 838,240 L 838,241 L 837,241 L 837,242 L 837,243 L 836,243 L 835,243 L 835,244 L 835,245 L 835,246 L 834,246 L 834,247 L 835,247 L 835,248 L 836,248 L 836,249 L 835,249 L 836,250 L 837,249 L 837,250 L 837,251 L 838,251 L 839,251 L 840,252 L 841,252 L 842,251 L 842,252 L 843,252 L 844,252 L 844,251 L 845,252 L 844,252 L 844,253 L 845,253 L 845,252 L 846,252 L 846,253 L 846,254 L 847,254 L 847,255 L 846,255 L 846,256 L 846,257 L 846,258 L 845,258 L 845,259 L 844,259 L 843,259 L 843,260 L 842,260 L 842,261 L 842,262 L 842,263 L 842,264 L 842,265 L 842,266 L 843,266 L 843,267 L 843,268 L 844,269 L 844,270 L 845,270 L 845,271 L 844,271 L 844,272 L 844,273 L 844,274 L 843,274 L 842,274 L 842,275 L 841,275 L 841,276 L 840,276 L 840,277 L 840,278 L 839,278 L 839,279 L 839,280 L 838,280 L 838,281 L 838,282 L 837,282 L 837,283 L 837,284 L 838,285 L 837,285 L 837,286 L 836,286 L 836,287 L 835,287 L 834,287 L 833,287 L 832,287 L 831,287 L 831,288 L 830,288 L 829,288 L 829,289 L 828,290 L 828,291 L 827,291 L 826,291 L 825,291 L 825,292 L 824,292 L 824,291 L 823,291 L 823,292 L 823,293 L 822,293 L 822,294 L 822,295 L 822,296 L 823,296 L 824,296 L 825,297 L 825,298 L 826,298 L 826,299 L 827,299 L 827,300 L 827,301 L 828,301 L 828,302 L 829,302 L 829,303 L 829,304 L 830,304 L 830,305 L 831,305 L 831,306 L 831,307 L 832,307 L 832,308 L 833,308 L 833,309 L 834,309 L 835,309 L 835,310 L 836,310 L 837,311 L 842,312 L 840,318 L 841,325 L 837,338 L 836,341 L 834,349 L 833,358 L 831,363 L 837,373 L 826,378 L 827,379 L 828,379 L 828,380 L 830,381 L 832,383 L 833,383 L 835,385 L 835,388 L 843,396 L 844,401 L 846,402 L 849,404 L 854,407 L 852,408 L 851,410 L 850,413 L 848,413 L 847,415 L 845,416 L 844,417 L 844,418 L 844,419 L 844,420 L 843,421 L 842,421 L 842,423 L 841,425 L 839,427 L 839,428 L 840,432 L 840,433 L 839,434 L 840,436 L 840,437 L 841,437 L 841,438 L 841,439 L 842,439 L 842,440 L 843,440 L 843,441 L 844,441 L 844,442 L 843,442 L 843,443 L 843,444 L 842,444 L 842,445 L 841,445 L 841,446 L 840,446 L 840,447 L 839,447 L 839,448 L 838,448 L 838,449 L 837,449 L 837,450 L 838,450 L 838,451 L 839,451 L 839,452 L 839,453 L 839,454 L 840,454 L 840,455 L 840,456 L 840,457 L 841,457 L 841,458 L 841,459 L 840,459 L 840,458 L 839,459 L 839,460 L 838,460 L 837,461 L 836,461 L 835,461 L 836,462 L 836,463 L 835,463 L 834,463 L 834,462 L 834,461 L 833,461 L 833,460 L 832,460 L 831,460 L 830,461 L 829,461 L 828,461 L 827,460 L 826,460 L 825,459 L 826,458 L 825,458 L 825,457 L 824,457 L 823,457 L 823,458 L 824,458 L 824,459 L 823,459 L 823,460 L 823,461 L 823,460 L 822,460 L 821,460 L 821,459 L 820,459 L 820,458 L 819,458 L 818,458 L 818,457 L 818,456 L 817,456 L 817,455 L 816,455 L 815,454 L 815,453 L 814,453 L 813,453 L 812,453 L 812,452 L 811,452 L 810,452 L 810,453 L 810,452 L 809,452 L 808,452 L 807,452 L 807,451 L 807,450 L 806,450 L 806,449 L 805,449 L 804,449 L 803,449 L 802,449 L 801,448 L 801,447 L 800,446 L 800,445 L 801,445 L 801,444 L 800,444 L 800,443 L 799,443 L 799,442 L 798,442 L 798,441 L 797,441 L 796,441 L 795,440 L 795,439 L 794,438 L 794,437 L 793,437 L 792,437 L 791,437 L 790,436 L 790,437 L 789,436 L 790,435 L 789,435 L 789,434 L 788,434 L 787,434 L 786,434 L 786,433 L 785,433 L 785,434 L 784,434 L 784,433 L 783,433 L 783,432 L 782,432 L 781,432 L 780,431 L 780,430 L 779,430 L 779,429 L 780,429 L 780,428 L 781,428 L 781,427 L 782,427 L 782,426 L 782,425 L 781,425 L 781,424 L 781,423 L 781,422 L 781,421 L 780,421 L 778,421 L 777,420 L 777,421 L 777,420 L 776,420 L 776,419 L 776,418 L 775,418 L 775,417 L 776,417 L 776,416 L 776,415 L 776,414 L 777,414 L 777,413 L 776,413 L 776,412 L 777,412 L 776,412 L 776,411 L 777,411 L 777,410 L 778,410 L 778,409 L 777,409 L 778,409 L 777,409 L 778,409 L 778,408 L 779,408 L 779,407 L 781,406 L 781,405 L 782,405 L 782,403 L 784,399 L 785,398 L 785,397 L 786,396 L 785,396 L 784,396 L 783,396 L 783,395 L 782,395 L 783,395 L 783,394 L 782,394 L 782,393 L 782,392 L 781,392 L 781,391 L 780,391 L 779,391 L 778,391 L 778,390 L 777,390 L 777,391 L 776,391 L 776,392 L 775,392 L 775,391 L 774,392 L 773,392 L 772,392 L 771,392 L 770,392 L 770,393 L 770,392 L 769,392 L 769,391 L 768,391 L 768,392 L 767,391 L 766,391 L 766,392 L 765,392 L 764,392 L 764,391 L 763,391 L 763,390 L 763,389 L 763,388 L 763,387 L 764,387 L 763,386 L 764,386 L 765,386 L 765,385 L 765,384 L 767,384 L 768,383 L 768,382 L 769,381 L 770,380 L 770,379 L 770,378 L 769,378 L 769,377 L 768,378 L 768,377 L 768,376 L 767,376 L 767,375 L 766,375 L 766,374 L 765,374 L 765,373 L 764,373 L 764,372 L 766,371 L 765,368 L 764,368 L 762,367 L 762,366 L 762,365 L 761,365 L 760,364 L 760,363 L 759,363 L 758,362 L 758,361 L 758,360 L 758,359 L 759,358 L 760,358 L 761,358 L 761,357 L 762,356 L 763,356 L 763,355 L 764,355 L 765,354 L 767,354 L 767,353 L 766,351 L 766,350 L 767,350 L 767,349 L 766,347 L 765,347 L 765,346 L 764,345 L 766,344 L 766,343 L 767,342 L 767,340 L 766,340 L 766,339 L 765,338 L 764,337 L 764,336 L 763,335 L 763,334 L 763,333 L 762,332 L 762,331 L 761,330 L 760,330 L 760,329 L 759,329 L 758,328 L 756,328 L 755,328 L 754,328 L 753,329 L 751,328 L 750,328 L 750,327 L 751,326 L 751,325 L 751,324 L 751,323 L 751,322 L 751,321 L 750,320 L 750,319 L 750,318 L 749,317 L 748,319 L 747,319 L 746,318 L 744,318 L 743,317 L 743,315 L 742,309 L 741,309 L 741,308 L 740,308 L 740,307 L 739,306 L 739,305 L 739,304 L 740,304 L 740,303 L 740,302 L 741,302 L 743,301 L 744,301 L 744,300 L 745,300 L 745,299 L 742,297 L 740,296 L 740,295 L 738,295 L 736,294 L 736,293 L 735,293 L 734,293 L 734,292 L 733,292 L 732,291 L 731,291 L 731,290 L 730,290 L 731,289 L 731,288 L 730,287 L 730,286 L 732,281 L 732,280 L 732,279 L 732,278 L 732,277 L 732,276 L 732,275 L 732,274 L 732,273 L 732,272 L 732,271 L 733,271 L 733,270 L 734,270 L 734,269 L 735,269 L 735,268 L 735,267 L 736,267 L 737,266 L 737,265 L 738,265 L 738,264 L 739,264 L 739,263 L 740,263 L 740,262 L 741,261 L 741,260 L 740,260 L 740,259 L 741,259 L 741,258 L 742,258 L 742,257 L 743,257 L 742,256 L 742,255 L 741,254 L 741,253 L 741,252 L 742,251 L 742,250 L 743,250 L 744,250 L 743,249 L 744,249 L 744,248 L 745,248 L 746,247 L 747,247 L 747,246 L 747,245 L 748,245 L 748,244 L 749,244 L 750,244 L 750,243 L 751,244 L 752,244 L 752,245 L 753,245 L 753,246 L 754,246 L 754,245 L 755,245 L 755,244 L 756,244 L 756,243 L 756,242 L 757,242 L 758,242 L 759,242 L 759,241 L 759,240 L 760,240 L 760,241 L 761,241 L 761,240 L 762,240 L 762,239 L 763,239 L 763,238 L 764,238 L 765,238 L 766,238 L 767,237 L 768,237 L 768,236 L 768,235 L 769,235 L 770,234 L 770,233 L 769,233 L 770,233 L 770,232 L 770,231 L 769,230 L 769,229 L 769,228 L 768,228 L 768,227 L 768,226 L 768,225 L 769,223 L 769,222 L 769,221 L 768,221 L 767,221 L 767,220 L 768,220 L 769,220 L 769,219 L 769,218 L 769,217 L 768,217 L 768,216 L 768,215 L 767,215 L 767,214 L 766,213 L 766,212 L 767,212 L 766,211 L 765,211 L 765,210 L 766,210 L 766,209 L 766,208 L 766,207 L 766,206 L 766,205 L 766,204 L 765,204 L 765,203 L 764,203 L 764,202 L 765,202 L 765,201 L 765,200 L 765,199 L 764,199 L 764,198 L 764,197 L 764,196 L 764,195 L 764,194 L 763,194 L 764,193 L 765,193 L 765,192 L 766,191 L 775,184 L 784,160 L 786,162 L 787,164 L 789,164 L 790,165 L 792,165 L 793,166 L 793,167 L 794,167 L 794,168 " /></g>
</svg>
