<?xml version="1.0" standalone="no"?><!DOCTYPE svg PUBLIC "-//W3C//DTD SVG 1.1//EN" "http://www.w3.org/Graphics/SVG/1.1/DTD/svg11.dtd"><svg xmlns="http://www.w3.org/2000/svg" viewBox="595 332 82 84" version = "1.1">
<g id="31303" ><path d="M 638,340 L 646,343 L 649,344 L 652,347 L 660,351 L 661,354 L 664,355 L 667,358 L 668,359 L 668,360 L 669,361 L 674,365 L 677,367 L 677,369 L 677,370 L 672,372 L 670,373 L 669,374 L 664,376 L 664,377 L 660,379 L 659,379 L 658,380 L 658,381 L 658,382 L 659,382 L 659,383 L 658,383 L 659,383 L 659,384 L 659,385 L 660,385 L 660,386 L 661,386 L 662,386 L 661,391 L 662,391 L 663,393 L 665,397 L 665,398 L 665,399 L 658,404 L 657,407 L 654,407 L 654,408 L 653,408 L 652,408 L 652,409 L 651,409 L 651,410 L 650,410 L 650,411 L 650,412 L 650,413 L 649,413 L 648,413 L 648,412 L 647,411 L 646,411 L 645,411 L 645,410 L 644,410 L 643,411 L 642,411 L 642,412 L 641,412 L 641,413 L 641,414 L 640,414 L 639,413 L 639,412 L 638,412 L 637,413 L 637,414 L 636,414 L 635,414 L 635,413 L 634,413 L 635,413 L 634,413 L 634,412 L 634,413 L 634,412 L 634,413 L 633,413 L 633,414 L 632,415 L 631,415 L 631,416 L 630,416 L 629,415 L 628,415 L 628,414 L 627,414 L 628,413 L 628,412 L 627,412 L 627,411 L 626,411 L 625,411 L 625,410 L 625,409 L 624,409 L 624,408 L 623,408 L 624,408 L 624,407 L 623,407 L 623,406 L 624,406 L 624,405 L 624,404 L 624,405 L 623,405 L 623,404 L 622,404 L 622,403 L 621,403 L 618,403 L 617,402 L 616,402 L 615,401 L 615,400 L 615,399 L 615,398 L 614,398 L 615,397 L 614,397 L 614,396 L 614,395 L 614,394 L 613,394 L 613,393 L 612,393 L 612,392 L 611,392 L 611,393 L 610,393 L 610,395 L 608,395 L 607,393 L 605,392 L 603,391 L 603,388 L 603,386 L 603,385 L 603,384 L 603,383 L 603,382 L 603,380 L 604,377 L 604,375 L 604,374 L 604,373 L 605,373 L 605,372 L 606,371 L 606,370 L 607,369 L 607,368 L 607,367 L 608,365 L 608,364 L 608,363 L 607,362 L 607,361 L 606,361 L 605,360 L 605,359 L 604,359 L 604,358 L 604,357 L 604,356 L 603,356 L 603,355 L 603,354 L 602,354 L 601,354 L 601,353 L 600,353 L 599,353 L 599,352 L 598,352 L 598,351 L 597,351 L 596,351 L 596,350 L 595,350 L 595,349 L 595,348 L 596,347 L 596,346 L 596,345 L 597,345 L 597,344 L 597,343 L 597,342 L 598,342 L 598,341 L 599,341 L 599,340 L 600,340 L 600,341 L 601,341 L 602,341 L 603,341 L 604,341 L 605,342 L 608,343 L 610,343 L 610,342 L 611,342 L 611,341 L 611,340 L 612,340 L 613,340 L 614,340 L 617,339 L 619,338 L 620,337 L 623,334 L 624,332 L 626,334 L 629,335 L 631,336 L 634,338 L 636,339 L 636,340 L 638,340 " /></g>
</svg>
