<?xml version="1.0" standalone="no"?><!DOCTYPE svg PUBLIC "-//W3C//DTD SVG 1.1//EN" "http://www.w3.org/Graphics/SVG/1.1/DTD/svg11.dtd"><svg xmlns="http://www.w3.org/2000/svg" viewBox="573 392 96 100" version = "1.1">
<g id="31302" ><path d="M 613,394 L 614,394 L 614,395 L 614,396 L 614,397 L 615,397 L 614,398 L 615,398 L 615,399 L 615,400 L 615,401 L 616,402 L 617,402 L 618,403 L 621,403 L 622,403 L 622,404 L 623,404 L 623,405 L 624,405 L 624,404 L 624,405 L 624,406 L 623,406 L 623,407 L 624,407 L 624,408 L 623,408 L 624,408 L 624,409 L 625,409 L 625,410 L 625,411 L 626,411 L 627,411 L 627,412 L 628,412 L 628,413 L 627,414 L 628,414 L 628,415 L 629,415 L 630,416 L 631,416 L 631,415 L 632,415 L 633,414 L 633,413 L 634,413 L 634,412 L 634,413 L 634,412 L 634,413 L 635,413 L 634,413 L 635,413 L 635,414 L 636,414 L 637,414 L 637,413 L 638,412 L 639,412 L 639,413 L 640,414 L 641,414 L 641,413 L 641,412 L 642,412 L 642,411 L 643,411 L 644,410 L 645,410 L 645,411 L 646,411 L 647,411 L 648,412 L 648,413 L 649,413 L 650,415 L 651,416 L 652,416 L 653,416 L 653,417 L 654,418 L 655,418 L 654,419 L 653,420 L 653,421 L 653,422 L 654,422 L 654,423 L 655,423 L 656,424 L 656,425 L 656,426 L 657,427 L 657,428 L 660,431 L 661,432 L 662,433 L 662,437 L 663,439 L 663,440 L 663,441 L 664,441 L 664,442 L 664,443 L 664,444 L 663,444 L 663,445 L 664,445 L 663,445 L 663,446 L 663,447 L 662,448 L 663,448 L 664,449 L 665,450 L 666,451 L 667,452 L 666,452 L 666,453 L 666,454 L 666,457 L 667,457 L 668,458 L 669,458 L 668,460 L 667,461 L 666,461 L 665,462 L 664,464 L 664,465 L 663,465 L 662,466 L 661,467 L 660,467 L 659,468 L 658,469 L 657,469 L 656,469 L 655,469 L 655,470 L 657,471 L 657,472 L 657,473 L 657,474 L 656,474 L 656,475 L 655,475 L 654,475 L 654,476 L 653,476 L 653,477 L 653,478 L 653,479 L 652,479 L 652,480 L 651,480 L 650,480 L 649,480 L 648,480 L 648,479 L 648,478 L 647,478 L 647,477 L 646,477 L 645,476 L 645,477 L 644,477 L 643,477 L 643,476 L 642,476 L 642,475 L 641,475 L 641,474 L 640,474 L 640,475 L 640,476 L 639,478 L 639,479 L 638,481 L 637,482 L 637,484 L 637,485 L 638,485 L 636,487 L 637,488 L 637,489 L 634,490 L 633,490 L 632,490 L 632,491 L 631,491 L 631,490 L 630,490 L 629,490 L 628,490 L 628,491 L 627,491 L 626,491 L 626,490 L 622,491 L 622,492 L 621,492 L 621,491 L 621,490 L 620,490 L 620,489 L 620,490 L 619,490 L 618,489 L 617,488 L 616,488 L 616,487 L 616,486 L 616,485 L 616,484 L 615,484 L 615,483 L 614,482 L 614,481 L 613,481 L 612,481 L 611,481 L 611,480 L 610,480 L 610,479 L 609,479 L 609,478 L 608,478 L 608,477 L 608,476 L 608,475 L 607,475 L 606,475 L 605,474 L 604,473 L 603,472 L 602,472 L 601,472 L 601,471 L 601,470 L 600,470 L 599,470 L 598,469 L 597,469 L 597,468 L 597,467 L 596,467 L 596,466 L 595,466 L 594,466 L 593,466 L 593,465 L 592,464 L 591,464 L 591,463 L 590,463 L 589,463 L 589,462 L 588,462 L 588,461 L 587,461 L 587,462 L 586,462 L 586,461 L 585,461 L 584,461 L 584,460 L 583,460 L 583,459 L 583,458 L 583,457 L 583,456 L 582,456 L 581,456 L 581,455 L 581,454 L 580,454 L 579,454 L 578,454 L 578,453 L 577,453 L 577,452 L 578,452 L 578,451 L 578,450 L 579,450 L 580,450 L 580,449 L 580,450 L 580,449 L 581,449 L 581,448 L 582,448 L 582,447 L 583,447 L 583,446 L 584,446 L 585,446 L 585,445 L 586,445 L 586,444 L 587,444 L 587,443 L 586,443 L 586,442 L 587,442 L 587,441 L 587,440 L 587,439 L 587,438 L 586,437 L 586,436 L 584,436 L 583,434 L 581,434 L 580,431 L 579,431 L 578,431 L 578,430 L 577,429 L 576,428 L 574,427 L 573,427 L 573,426 L 573,425 L 574,425 L 574,424 L 574,423 L 575,423 L 575,422 L 576,422 L 576,421 L 576,420 L 577,420 L 577,419 L 578,419 L 578,418 L 579,418 L 579,417 L 580,417 L 580,416 L 580,415 L 580,414 L 579,414 L 578,414 L 578,413 L 577,413 L 577,412 L 577,411 L 576,411 L 576,410 L 576,408 L 576,407 L 576,406 L 576,405 L 575,404 L 576,403 L 577,401 L 578,401 L 578,402 L 579,402 L 579,403 L 580,403 L 581,403 L 581,402 L 581,401 L 581,400 L 581,399 L 581,398 L 582,398 L 583,399 L 583,400 L 584,401 L 585,401 L 585,402 L 586,402 L 587,403 L 588,403 L 588,404 L 590,404 L 591,404 L 592,405 L 593,405 L 594,406 L 595,406 L 596,405 L 596,404 L 597,404 L 597,403 L 597,402 L 597,401 L 597,400 L 598,399 L 599,399 L 599,398 L 600,398 L 601,398 L 602,398 L 602,397 L 603,397 L 604,397 L 604,396 L 605,396 L 606,396 L 606,397 L 607,396 L 608,395 L 610,395 L 610,393 L 611,393 L 611,392 L 612,392 L 612,393 L 613,393 L 613,394 " /></g>
</svg>
