<?xml version="1.0" standalone="no"?><!DOCTYPE svg PUBLIC "-//W3C//DTD SVG 1.1//EN" "http://www.w3.org/Graphics/SVG/1.1/DTD/svg11.dtd"><svg xmlns="http://www.w3.org/2000/svg" viewBox="622 369 151 216" version = "1.1">
<g id="31301" ><path d="M 680,374 L 681,375 L 682,374 L 683,373 L 684,373 L 684,372 L 684,373 L 685,373 L 685,372 L 686,372 L 687,372 L 687,373 L 688,373 L 689,373 L 690,373 L 690,374 L 691,374 L 692,374 L 692,373 L 693,374 L 694,374 L 695,374 L 696,374 L 697,374 L 698,375 L 699,375 L 700,375 L 701,375 L 702,375 L 703,375 L 704,375 L 705,375 L 705,376 L 706,376 L 707,377 L 708,377 L 709,377 L 710,377 L 711,377 L 711,376 L 712,376 L 712,377 L 712,376 L 713,376 L 713,377 L 713,376 L 714,376 L 715,376 L 715,377 L 716,377 L 716,378 L 717,378 L 717,379 L 723,379 L 724,379 L 724,378 L 724,377 L 725,377 L 725,376 L 726,376 L 726,377 L 727,377 L 728,377 L 729,377 L 730,377 L 731,377 L 732,377 L 733,377 L 734,377 L 734,378 L 735,378 L 736,378 L 737,378 L 738,378 L 739,379 L 739,380 L 740,380 L 740,381 L 740,382 L 741,382 L 741,383 L 742,383 L 742,384 L 742,385 L 742,386 L 741,386 L 741,387 L 741,388 L 741,391 L 744,395 L 747,402 L 748,402 L 748,403 L 749,404 L 749,405 L 751,406 L 752,407 L 752,408 L 753,409 L 754,409 L 754,410 L 755,412 L 756,412 L 757,414 L 759,414 L 761,414 L 763,415 L 764,417 L 764,418 L 766,418 L 767,419 L 767,421 L 767,422 L 768,422 L 769,422 L 769,423 L 770,423 L 771,423 L 772,423 L 773,423 L 773,424 L 772,424 L 771,424 L 771,425 L 770,425 L 770,426 L 770,427 L 769,427 L 769,428 L 768,428 L 768,429 L 767,429 L 768,429 L 768,430 L 767,430 L 767,431 L 766,431 L 766,432 L 765,432 L 765,433 L 767,435 L 769,435 L 770,435 L 770,436 L 770,438 L 771,439 L 770,441 L 769,441 L 767,441 L 764,441 L 763,441 L 761,441 L 759,442 L 759,444 L 761,448 L 761,449 L 761,451 L 758,455 L 759,458 L 761,457 L 763,458 L 766,461 L 766,464 L 767,466 L 768,466 L 769,466 L 769,467 L 769,468 L 768,470 L 769,472 L 770,474 L 771,476 L 771,479 L 769,479 L 767,480 L 766,480 L 765,480 L 764,480 L 763,480 L 762,480 L 762,479 L 761,479 L 760,479 L 759,480 L 758,480 L 758,481 L 758,482 L 758,483 L 758,484 L 757,485 L 757,486 L 756,487 L 756,488 L 757,488 L 757,489 L 757,490 L 756,490 L 755,490 L 754,490 L 753,490 L 752,490 L 752,489 L 751,489 L 750,489 L 750,490 L 749,490 L 748,490 L 748,491 L 747,491 L 746,491 L 746,492 L 746,493 L 746,494 L 745,494 L 745,495 L 745,496 L 744,497 L 743,497 L 743,498 L 744,499 L 746,501 L 746,502 L 747,504 L 748,506 L 747,507 L 747,508 L 747,509 L 747,510 L 746,510 L 745,510 L 744,510 L 743,510 L 743,511 L 744,512 L 743,513 L 742,514 L 742,515 L 742,516 L 743,516 L 742,516 L 742,517 L 742,518 L 743,519 L 743,520 L 744,520 L 744,521 L 744,522 L 745,522 L 745,523 L 745,524 L 744,525 L 744,526 L 744,527 L 744,528 L 744,530 L 743,533 L 742,533 L 741,533 L 740,533 L 739,532 L 738,532 L 737,532 L 736,532 L 736,533 L 736,534 L 735,534 L 735,535 L 735,536 L 734,536 L 734,537 L 734,538 L 733,538 L 733,539 L 733,540 L 732,540 L 732,541 L 733,541 L 734,542 L 736,542 L 736,543 L 737,544 L 737,546 L 738,547 L 739,548 L 740,549 L 740,552 L 740,553 L 741,555 L 741,557 L 741,562 L 740,563 L 739,562 L 738,562 L 737,562 L 737,563 L 736,563 L 736,564 L 735,564 L 735,565 L 735,566 L 735,567 L 734,567 L 734,568 L 734,569 L 733,569 L 733,570 L 732,570 L 732,571 L 732,572 L 732,573 L 732,574 L 732,575 L 732,576 L 731,576 L 731,577 L 732,577 L 732,578 L 731,578 L 731,579 L 730,579 L 731,579 L 730,579 L 730,580 L 730,581 L 730,582 L 729,582 L 729,583 L 728,583 L 728,584 L 728,585 L 727,585 L 726,585 L 727,585 L 726,585 L 725,585 L 725,584 L 724,584 L 723,583 L 722,583 L 722,582 L 721,582 L 720,582 L 720,581 L 719,581 L 719,580 L 718,579 L 717,579 L 717,578 L 716,578 L 716,577 L 715,577 L 715,576 L 714,576 L 713,576 L 713,575 L 713,574 L 712,574 L 711,573 L 710,573 L 710,572 L 709,572 L 708,572 L 707,572 L 707,571 L 706,571 L 705,571 L 704,571 L 703,572 L 702,572 L 702,573 L 701,573 L 700,573 L 700,572 L 699,572 L 698,572 L 698,571 L 698,570 L 697,570 L 696,570 L 696,569 L 695,569 L 695,568 L 694,568 L 694,567 L 693,567 L 693,566 L 692,566 L 692,565 L 691,565 L 690,564 L 690,563 L 690,562 L 690,561 L 689,560 L 688,559 L 687,558 L 687,557 L 687,556 L 686,556 L 687,556 L 686,555 L 686,554 L 686,553 L 687,552 L 687,551 L 686,551 L 685,551 L 685,550 L 685,549 L 685,548 L 684,548 L 683,549 L 683,548 L 682,547 L 682,546 L 681,546 L 681,545 L 681,544 L 680,543 L 680,542 L 679,542 L 679,541 L 678,540 L 677,539 L 677,538 L 677,537 L 677,536 L 677,535 L 676,535 L 675,535 L 674,535 L 674,534 L 673,534 L 672,534 L 671,534 L 670,534 L 670,533 L 669,533 L 669,532 L 669,531 L 668,531 L 667,531 L 666,531 L 666,532 L 665,532 L 664,532 L 663,532 L 663,531 L 662,531 L 662,530 L 662,529 L 661,529 L 660,529 L 659,529 L 658,529 L 658,528 L 657,528 L 656,528 L 656,527 L 655,527 L 655,526 L 655,525 L 654,525 L 654,524 L 653,524 L 653,523 L 652,523 L 652,522 L 651,522 L 651,521 L 650,521 L 650,520 L 649,520 L 649,519 L 648,519 L 647,519 L 647,518 L 646,518 L 645,518 L 645,517 L 645,516 L 645,515 L 645,514 L 644,514 L 644,513 L 644,512 L 643,512 L 643,511 L 643,510 L 643,509 L 643,508 L 642,508 L 642,507 L 641,507 L 641,506 L 640,506 L 640,505 L 639,505 L 639,504 L 638,504 L 638,503 L 637,503 L 637,502 L 636,502 L 635,501 L 634,501 L 634,500 L 633,500 L 633,499 L 633,498 L 632,498 L 632,497 L 631,497 L 631,496 L 632,496 L 631,495 L 630,495 L 629,496 L 628,496 L 627,496 L 627,495 L 626,495 L 626,494 L 625,494 L 624,494 L 624,493 L 623,493 L 623,492 L 622,492 L 622,491 L 626,490 L 626,491 L 627,491 L 628,491 L 628,490 L 629,490 L 630,490 L 631,490 L 631,491 L 632,491 L 632,490 L 633,490 L 634,490 L 637,489 L 637,488 L 636,487 L 638,485 L 637,485 L 637,484 L 637,482 L 638,481 L 639,479 L 639,478 L 640,476 L 640,475 L 640,474 L 641,474 L 641,475 L 642,475 L 642,476 L 643,476 L 643,477 L 644,477 L 645,477 L 645,476 L 646,477 L 647,477 L 647,478 L 648,478 L 648,479 L 648,480 L 649,480 L 650,480 L 651,480 L 652,480 L 652,479 L 653,479 L 653,478 L 653,477 L 653,476 L 654,476 L 654,475 L 655,475 L 656,475 L 656,474 L 657,474 L 657,473 L 657,472 L 657,471 L 655,470 L 655,469 L 656,469 L 657,469 L 658,469 L 659,468 L 660,467 L 661,467 L 662,466 L 663,465 L 664,465 L 664,464 L 665,462 L 666,461 L 667,461 L 668,460 L 669,458 L 668,458 L 667,457 L 666,457 L 666,454 L 666,453 L 666,452 L 667,452 L 666,451 L 665,450 L 664,449 L 663,448 L 662,448 L 663,447 L 663,446 L 663,445 L 664,445 L 663,445 L 663,444 L 664,444 L 664,443 L 664,442 L 664,441 L 663,441 L 663,440 L 663,439 L 662,437 L 662,433 L 661,432 L 660,431 L 657,428 L 657,427 L 656,426 L 656,425 L 656,424 L 655,423 L 654,423 L 654,422 L 653,422 L 653,421 L 653,420 L 654,419 L 655,418 L 654,418 L 653,417 L 653,416 L 652,416 L 651,416 L 650,415 L 649,413 L 650,413 L 650,412 L 650,411 L 650,410 L 651,410 L 651,409 L 652,409 L 652,408 L 653,408 L 654,408 L 654,407 L 657,407 L 658,404 L 665,399 L 665,398 L 665,397 L 663,393 L 662,391 L 661,391 L 662,386 L 661,386 L 660,386 L 660,385 L 659,385 L 659,384 L 659,383 L 658,383 L 659,383 L 659,382 L 658,382 L 658,381 L 658,380 L 659,379 L 660,379 L 664,377 L 664,376 L 669,374 L 670,373 L 672,372 L 677,370 L 677,369 L 678,371 L 678,373 L 679,373 L 680,374 " /></g>
</svg>
