<?xml version="1.0" standalone="no"?><!DOCTYPE svg PUBLIC "-//W3C//DTD SVG 1.1//EN" "http://www.w3.org/Graphics/SVG/1.1/DTD/svg11.dtd"><svg xmlns="http://www.w3.org/2000/svg" viewBox="544 277 46 37" version = "1.1">
<g id="31401" ><path d="M 588,286 L 590,287 L 585,294 L 579,297 L 578,297 L 577,297 L 576,297 L 576,300 L 576,301 L 575,301 L 575,302 L 575,303 L 574,305 L 574,306 L 574,308 L 574,311 L 573,312 L 574,312 L 573,312 L 573,313 L 573,314 L 572,314 L 571,314 L 570,314 L 569,314 L 568,314 L 568,313 L 568,312 L 567,312 L 566,312 L 566,311 L 565,311 L 564,311 L 564,312 L 563,312 L 563,313 L 562,313 L 561,313 L 560,313 L 559,313 L 558,313 L 557,313 L 556,313 L 556,314 L 555,314 L 554,314 L 554,313 L 553,313 L 552,313 L 551,313 L 550,313 L 550,312 L 549,312 L 549,311 L 548,311 L 548,310 L 547,310 L 547,309 L 547,308 L 546,308 L 546,307 L 546,306 L 545,306 L 545,305 L 546,305 L 546,304 L 545,304 L 545,303 L 545,302 L 544,302 L 544,301 L 544,300 L 545,299 L 548,298 L 548,299 L 548,300 L 550,300 L 550,299 L 551,299 L 550,299 L 552,298 L 553,298 L 554,298 L 554,297 L 551,295 L 551,294 L 553,294 L 554,294 L 554,293 L 554,292 L 555,292 L 556,292 L 556,291 L 556,290 L 557,290 L 558,290 L 559,290 L 560,290 L 561,290 L 562,290 L 561,287 L 565,287 L 565,288 L 566,288 L 567,288 L 568,288 L 569,287 L 570,287 L 571,287 L 572,287 L 573,287 L 573,286 L 574,286 L 575,283 L 575,281 L 577,280 L 579,279 L 579,278 L 580,278 L 581,277 L 582,277 L 582,278 L 582,279 L 583,279 L 584,279 L 584,281 L 585,282 L 587,284 L 588,285 L 588,286 " /></g>
</svg>
