<?xml version="1.0" standalone="no"?><!DOCTYPE svg PUBLIC "-//W3C//DTD SVG 1.1//EN" "http://www.w3.org/Graphics/SVG/1.1/DTD/svg11.dtd"><svg xmlns="http://www.w3.org/2000/svg" viewBox="569 319 27 19" version = "1.1">
<g id="31404" ><path d="M 593,328 L 596,330 L 594,331 L 592,332 L 589,332 L 588,331 L 587,331 L 586,331 L 585,331 L 584,331 L 583,331 L 582,331 L 581,331 L 581,330 L 580,330 L 579,330 L 574,331 L 574,332 L 574,334 L 573,335 L 572,337 L 572,338 L 571,338 L 569,337 L 569,336 L 569,335 L 569,334 L 570,334 L 570,333 L 570,332 L 570,331 L 570,330 L 571,329 L 571,328 L 572,328 L 572,329 L 573,329 L 573,328 L 574,328 L 575,328 L 575,327 L 575,326 L 575,325 L 575,324 L 577,320 L 578,319 L 579,319 L 583,321 L 584,322 L 588,325 L 592,327 L 593,328 " /></g>
</svg>
