<?xml version="1.0" standalone="no"?><!DOCTYPE svg PUBLIC "-//W3C//DTD SVG 1.1//EN" "http://www.w3.org/Graphics/SVG/1.1/DTD/svg11.dtd"><svg xmlns="http://www.w3.org/2000/svg" viewBox="543 310 36 46" version = "1.1">
<g id="31402" ><path d="M 573,329 L 572,329 L 572,328 L 571,328 L 571,329 L 570,330 L 570,331 L 570,332 L 570,333 L 570,334 L 569,334 L 569,335 L 569,336 L 569,337 L 568,340 L 566,341 L 566,343 L 566,344 L 566,345 L 569,346 L 570,346 L 569,347 L 568,347 L 567,347 L 567,348 L 566,349 L 565,349 L 565,351 L 564,351 L 562,352 L 561,352 L 561,353 L 560,354 L 560,355 L 560,356 L 559,356 L 558,356 L 558,355 L 557,355 L 556,355 L 555,355 L 555,354 L 554,354 L 554,353 L 553,353 L 553,352 L 553,351 L 552,351 L 552,350 L 551,350 L 551,349 L 551,348 L 550,348 L 549,348 L 549,347 L 548,347 L 547,346 L 546,346 L 546,345 L 547,345 L 547,344 L 546,344 L 546,343 L 545,343 L 545,342 L 546,342 L 546,341 L 545,341 L 545,340 L 544,340 L 544,339 L 544,338 L 544,337 L 544,336 L 544,335 L 543,335 L 543,334 L 543,333 L 544,333 L 544,332 L 545,331 L 545,330 L 545,329 L 545,328 L 546,328 L 546,327 L 547,326 L 547,325 L 547,324 L 547,323 L 548,323 L 549,323 L 550,323 L 551,322 L 552,318 L 553,317 L 548,316 L 548,311 L 548,310 L 548,311 L 549,311 L 549,312 L 550,312 L 550,313 L 551,313 L 552,313 L 553,313 L 554,313 L 554,314 L 555,314 L 556,314 L 556,313 L 557,313 L 558,313 L 559,313 L 560,313 L 561,313 L 562,313 L 563,313 L 563,312 L 564,312 L 564,311 L 565,311 L 566,311 L 566,312 L 567,312 L 568,312 L 568,313 L 568,314 L 569,314 L 570,314 L 571,314 L 572,314 L 573,314 L 574,314 L 575,314 L 576,314 L 577,315 L 578,316 L 579,317 L 579,318 L 579,319 L 578,319 L 577,320 L 575,324 L 575,325 L 575,326 L 575,327 L 575,328 L 574,328 L 573,328 L 573,329 " /></g>
</svg>
