<?xml version="1.0" standalone="no"?><!DOCTYPE svg PUBLIC "-//W3C//DTD SVG 1.1//EN" "http://www.w3.org/Graphics/SVG/1.1/DTD/svg11.dtd"><svg xmlns="http://www.w3.org/2000/svg" viewBox="566 330 39 34" version = "1.1">
<g id="31405" ><path d="M 596,330 L 599,338 L 599,339 L 599,340 L 599,341 L 598,341 L 598,342 L 597,342 L 597,343 L 597,344 L 597,345 L 596,345 L 596,346 L 596,347 L 595,348 L 595,349 L 595,350 L 596,350 L 596,351 L 597,351 L 598,351 L 598,352 L 599,352 L 599,353 L 600,353 L 601,353 L 601,354 L 602,354 L 603,354 L 603,355 L 603,356 L 604,356 L 604,357 L 604,358 L 604,359 L 605,359 L 605,360 L 605,361 L 604,361 L 602,361 L 601,361 L 600,360 L 599,362 L 598,362 L 597,363 L 597,364 L 596,364 L 595,364 L 592,363 L 591,363 L 590,363 L 589,363 L 588,363 L 588,362 L 587,362 L 587,361 L 586,360 L 585,359 L 585,358 L 585,357 L 585,356 L 585,355 L 585,354 L 584,354 L 584,353 L 585,352 L 585,351 L 584,351 L 583,351 L 583,350 L 582,350 L 582,349 L 581,349 L 581,348 L 580,349 L 579,349 L 578,349 L 578,348 L 577,348 L 577,347 L 576,347 L 576,346 L 576,345 L 575,344 L 574,344 L 574,345 L 573,346 L 572,346 L 572,347 L 571,347 L 570,346 L 569,346 L 566,345 L 566,344 L 566,343 L 566,341 L 568,340 L 569,337 L 571,338 L 572,338 L 572,337 L 573,335 L 574,334 L 574,332 L 574,331 L 579,330 L 580,330 L 581,330 L 581,331 L 582,331 L 583,331 L 584,331 L 585,331 L 586,331 L 587,331 L 588,331 L 589,332 L 592,332 L 594,331 L 596,330 " /></g>
</svg>
