<?xml version="1.0" standalone="no"?><!DOCTYPE svg PUBLIC "-//W3C//DTD SVG 1.1//EN" "http://www.w3.org/Graphics/SVG/1.1/DTD/svg11.dtd"><svg xmlns="http://www.w3.org/2000/svg" viewBox="228 412 137 83" version = "1.1">
<g id="31501" ><path d="M 315,477 L 312,477 L 310,477 L 308,477 L 307,477 L 306,478 L 306,479 L 305,479 L 305,480 L 304,480 L 304,481 L 304,482 L 303,482 L 302,482 L 302,483 L 302,484 L 302,485 L 301,485 L 301,486 L 300,486 L 300,487 L 299,487 L 299,488 L 298,488 L 297,489 L 296,489 L 295,489 L 294,489 L 293,489 L 292,489 L 291,489 L 290,489 L 289,489 L 288,489 L 288,488 L 287,488 L 287,487 L 286,487 L 285,487 L 285,486 L 284,486 L 283,486 L 283,487 L 282,487 L 281,487 L 280,487 L 280,488 L 280,489 L 279,489 L 278,489 L 278,490 L 277,490 L 276,490 L 273,490 L 271,488 L 267,488 L 256,494 L 255,495 L 246,495 L 245,494 L 244,493 L 243,493 L 242,491 L 238,488 L 236,487 L 235,483 L 235,482 L 234,481 L 234,480 L 233,480 L 232,479 L 231,478 L 231,477 L 230,476 L 230,475 L 230,474 L 231,473 L 230,473 L 230,472 L 231,472 L 231,471 L 231,470 L 230,470 L 229,468 L 228,467 L 230,465 L 231,464 L 232,462 L 234,458 L 241,450 L 245,445 L 248,444 L 253,439 L 259,433 L 261,431 L 265,433 L 270,433 L 275,432 L 278,431 L 279,430 L 280,430 L 280,429 L 281,429 L 281,428 L 282,428 L 283,428 L 284,428 L 285,427 L 285,426 L 286,426 L 289,425 L 291,425 L 293,425 L 294,425 L 295,424 L 298,423 L 299,423 L 300,422 L 301,422 L 303,422 L 304,421 L 305,421 L 308,420 L 312,419 L 314,418 L 322,415 L 323,413 L 322,412 L 325,412 L 326,412 L 327,412 L 327,413 L 327,414 L 329,414 L 330,412 L 331,413 L 331,414 L 332,414 L 332,415 L 333,415 L 333,416 L 334,416 L 334,417 L 335,417 L 335,418 L 335,419 L 336,419 L 336,420 L 337,421 L 337,422 L 337,423 L 338,423 L 338,424 L 339,424 L 339,425 L 340,426 L 342,425 L 343,426 L 347,424 L 350,423 L 350,422 L 351,422 L 353,420 L 355,419 L 355,420 L 356,420 L 357,420 L 358,420 L 358,421 L 359,421 L 360,422 L 359,423 L 359,424 L 358,425 L 358,427 L 358,429 L 356,429 L 355,429 L 354,430 L 355,431 L 356,432 L 360,435 L 361,435 L 365,437 L 365,440 L 364,441 L 363,441 L 361,442 L 360,443 L 355,447 L 351,449 L 352,450 L 351,451 L 349,453 L 347,454 L 344,457 L 343,458 L 342,459 L 338,461 L 336,465 L 331,469 L 331,470 L 331,471 L 332,472 L 332,473 L 333,473 L 333,474 L 333,475 L 333,476 L 334,476 L 334,477 L 334,478 L 334,479 L 333,479 L 332,479 L 332,478 L 331,478 L 330,478 L 330,477 L 329,477 L 328,477 L 327,477 L 326,477 L 326,476 L 325,476 L 324,476 L 323,476 L 323,475 L 322,475 L 321,475 L 320,475 L 319,475 L 319,476 L 318,476 L 317,476 L 317,477 L 316,477 L 315,477 " /></g>
</svg>
