<?xml version="1.0" standalone="no"?><!DOCTYPE svg PUBLIC "-//W3C//DTD SVG 1.1//EN" "http://www.w3.org/Graphics/SVG/1.1/DTD/svg11.dtd"><svg xmlns="http://www.w3.org/2000/svg" viewBox="664 63 124 128" version = "1.1">
<g id="31602" ><path d="M 781,64 L 781,65 L 780,65 L 781,65 L 781,66 L 782,66 L 782,67 L 783,68 L 783,69 L 783,70 L 783,71 L 782,71 L 782,72 L 781,72 L 780,72 L 779,72 L 778,72 L 778,73 L 778,74 L 778,75 L 779,75 L 780,75 L 781,76 L 782,76 L 783,76 L 784,77 L 784,78 L 784,79 L 783,79 L 782,79 L 781,79 L 780,79 L 780,78 L 780,77 L 779,77 L 779,76 L 778,76 L 777,76 L 776,77 L 776,78 L 777,78 L 777,79 L 778,79 L 778,80 L 779,80 L 780,80 L 781,81 L 782,81 L 782,80 L 782,81 L 783,81 L 783,82 L 782,82 L 781,82 L 780,82 L 780,83 L 779,83 L 779,84 L 780,84 L 780,85 L 780,84 L 779,84 L 779,85 L 779,86 L 779,87 L 779,86 L 780,86 L 780,85 L 781,86 L 780,86 L 780,87 L 780,88 L 779,88 L 779,89 L 780,89 L 781,89 L 781,90 L 780,90 L 780,91 L 780,92 L 780,91 L 781,91 L 781,92 L 781,93 L 781,94 L 782,94 L 782,95 L 781,95 L 780,95 L 780,96 L 781,96 L 781,97 L 781,98 L 781,97 L 780,97 L 780,96 L 779,96 L 779,97 L 779,98 L 778,98 L 778,99 L 778,100 L 779,100 L 779,101 L 779,102 L 780,102 L 780,103 L 780,104 L 779,104 L 778,104 L 778,105 L 779,105 L 779,106 L 780,106 L 780,107 L 779,107 L 779,108 L 779,109 L 778,110 L 777,110 L 776,110 L 777,110 L 777,111 L 778,111 L 778,112 L 778,113 L 779,113 L 779,114 L 780,115 L 780,116 L 780,117 L 781,117 L 780,117 L 780,118 L 780,119 L 779,119 L 779,120 L 778,120 L 778,121 L 778,122 L 777,122 L 777,123 L 776,123 L 776,124 L 775,124 L 775,125 L 774,125 L 774,126 L 773,126 L 773,127 L 773,128 L 773,129 L 773,130 L 772,130 L 772,131 L 773,132 L 773,133 L 773,134 L 774,134 L 774,135 L 773,135 L 772,135 L 771,135 L 771,136 L 771,137 L 770,138 L 771,138 L 772,139 L 771,139 L 771,140 L 772,140 L 773,140 L 773,141 L 774,141 L 774,142 L 773,142 L 773,143 L 772,143 L 772,144 L 772,145 L 771,145 L 770,145 L 769,145 L 769,146 L 770,146 L 770,147 L 771,147 L 772,147 L 772,148 L 771,148 L 784,148 L 784,150 L 785,150 L 785,151 L 786,152 L 786,153 L 786,154 L 787,154 L 788,155 L 788,156 L 788,157 L 787,158 L 786,158 L 785,158 L 784,158 L 783,159 L 783,160 L 784,160 L 775,184 L 766,191 L 767,187 L 766,186 L 763,186 L 762,184 L 761,183 L 759,183 L 757,182 L 755,181 L 751,179 L 749,178 L 749,174 L 747,170 L 743,167 L 737,166 L 730,164 L 728,163 L 721,163 L 712,162 L 708,159 L 704,158 L 698,153 L 697,152 L 692,152 L 688,171 L 673,168 L 669,169 L 664,151 L 665,151 L 665,150 L 666,150 L 667,150 L 667,149 L 668,149 L 668,148 L 669,147 L 669,148 L 670,148 L 671,149 L 672,149 L 673,149 L 673,148 L 674,148 L 675,148 L 676,148 L 677,148 L 677,147 L 678,147 L 678,146 L 679,146 L 679,145 L 680,145 L 680,144 L 681,144 L 681,145 L 682,145 L 682,144 L 682,143 L 683,143 L 683,142 L 684,141 L 685,141 L 685,140 L 686,140 L 687,140 L 688,140 L 688,139 L 688,138 L 689,138 L 689,137 L 688,137 L 688,136 L 687,136 L 686,136 L 686,135 L 686,134 L 685,134 L 684,134 L 684,133 L 685,133 L 686,133 L 686,132 L 687,132 L 688,132 L 689,132 L 690,132 L 690,131 L 691,132 L 692,132 L 692,131 L 693,131 L 693,130 L 694,130 L 695,130 L 695,129 L 695,130 L 696,130 L 696,131 L 696,132 L 697,132 L 698,132 L 698,131 L 699,131 L 700,130 L 700,129 L 700,128 L 701,128 L 701,127 L 701,126 L 701,125 L 701,124 L 701,123 L 701,122 L 701,121 L 702,120 L 702,119 L 701,118 L 702,118 L 702,117 L 702,116 L 702,115 L 702,114 L 702,113 L 702,112 L 704,108 L 705,107 L 705,106 L 706,106 L 707,105 L 709,105 L 710,105 L 711,105 L 712,104 L 714,102 L 718,100 L 723,99 L 726,99 L 729,99 L 730,98 L 738,94 L 745,90 L 746,89 L 747,88 L 747,87 L 748,87 L 749,87 L 750,87 L 751,87 L 752,86 L 753,86 L 754,86 L 754,87 L 755,87 L 755,86 L 756,86 L 760,84 L 763,80 L 770,77 L 769,77 L 769,76 L 769,75 L 770,75 L 771,75 L 772,74 L 773,74 L 773,73 L 772,73 L 772,72 L 773,71 L 773,72 L 774,72 L 775,72 L 776,73 L 777,73 L 778,72 L 778,71 L 778,70 L 777,70 L 777,69 L 777,68 L 777,67 L 778,67 L 778,66 L 778,65 L 778,64 L 778,63 L 779,63 L 779,64 L 780,64 L 781,64 " /></g>
</svg>
