<?xml version="1.0" standalone="no"?><!DOCTYPE svg PUBLIC "-//W3C//DTD SVG 1.1//EN" "http://www.w3.org/Graphics/SVG/1.1/DTD/svg11.dtd"><svg xmlns="http://www.w3.org/2000/svg" viewBox="553 151 217 137" version = "1.1">
<g id="31601" ><path d="M 664,151 L 669,169 L 673,168 L 688,171 L 692,152 L 697,152 L 698,153 L 704,158 L 708,159 L 712,162 L 721,163 L 728,163 L 730,164 L 737,166 L 743,167 L 747,170 L 749,174 L 749,178 L 751,179 L 755,181 L 757,182 L 759,183 L 761,183 L 762,184 L 763,186 L 766,186 L 767,187 L 766,191 L 765,192 L 765,193 L 764,193 L 763,194 L 764,194 L 764,195 L 764,196 L 764,197 L 764,198 L 764,199 L 765,199 L 765,200 L 765,201 L 765,202 L 764,202 L 764,203 L 765,203 L 765,204 L 766,204 L 766,205 L 766,206 L 766,207 L 766,208 L 766,209 L 766,210 L 765,210 L 765,211 L 766,211 L 767,212 L 766,212 L 766,213 L 767,214 L 767,215 L 768,215 L 768,216 L 768,217 L 769,217 L 769,218 L 769,219 L 769,220 L 768,220 L 767,220 L 767,221 L 768,221 L 769,221 L 769,222 L 769,223 L 768,225 L 768,226 L 768,227 L 768,228 L 769,228 L 769,229 L 769,230 L 770,231 L 770,232 L 770,233 L 769,233 L 770,233 L 770,234 L 769,235 L 768,235 L 768,236 L 768,237 L 767,237 L 766,238 L 765,238 L 764,238 L 763,238 L 763,239 L 762,239 L 762,240 L 761,240 L 761,241 L 760,241 L 760,240 L 759,240 L 759,241 L 759,242 L 758,242 L 757,242 L 756,242 L 756,243 L 756,244 L 755,244 L 755,245 L 754,245 L 754,246 L 753,246 L 753,245 L 752,245 L 752,244 L 751,244 L 750,243 L 750,244 L 749,244 L 748,244 L 748,245 L 747,245 L 747,246 L 747,247 L 746,247 L 745,248 L 744,248 L 744,249 L 743,249 L 744,250 L 743,250 L 742,250 L 742,251 L 741,252 L 741,253 L 741,254 L 742,255 L 742,256 L 743,257 L 742,257 L 742,258 L 741,258 L 741,259 L 740,259 L 740,260 L 741,260 L 741,261 L 740,262 L 740,263 L 739,263 L 739,264 L 738,264 L 738,265 L 737,265 L 737,266 L 736,267 L 735,267 L 735,268 L 735,269 L 734,269 L 734,270 L 733,270 L 733,271 L 732,271 L 732,272 L 732,273 L 732,274 L 732,275 L 732,276 L 732,277 L 732,278 L 732,279 L 732,280 L 732,281 L 730,286 L 726,284 L 723,281 L 718,278 L 714,279 L 711,277 L 705,278 L 702,278 L 699,279 L 699,280 L 698,280 L 697,280 L 696,280 L 695,280 L 695,281 L 694,281 L 694,282 L 693,282 L 692,282 L 691,282 L 690,282 L 689,281 L 688,281 L 688,282 L 687,282 L 686,282 L 685,282 L 683,281 L 681,281 L 679,281 L 678,282 L 671,280 L 669,282 L 666,282 L 657,283 L 646,284 L 645,284 L 644,284 L 643,284 L 643,283 L 642,283 L 641,283 L 629,281 L 628,280 L 623,281 L 621,278 L 619,278 L 618,281 L 618,282 L 617,284 L 616,285 L 615,285 L 614,286 L 613,287 L 612,288 L 611,288 L 610,287 L 605,286 L 599,288 L 593,287 L 591,287 L 590,287 L 588,286 L 588,285 L 587,284 L 585,282 L 584,281 L 584,279 L 583,279 L 582,279 L 582,278 L 582,277 L 582,276 L 581,276 L 581,275 L 581,274 L 581,273 L 580,273 L 580,272 L 580,273 L 579,273 L 579,272 L 578,272 L 577,273 L 576,273 L 575,273 L 574,273 L 573,273 L 572,273 L 572,272 L 572,271 L 573,271 L 573,270 L 572,269 L 572,268 L 571,268 L 571,267 L 570,267 L 571,266 L 571,265 L 570,265 L 569,264 L 568,265 L 567,265 L 566,265 L 566,264 L 565,265 L 564,265 L 564,266 L 563,266 L 562,266 L 561,266 L 561,265 L 560,265 L 560,264 L 559,264 L 558,264 L 558,263 L 559,262 L 560,261 L 562,258 L 560,251 L 555,249 L 553,245 L 559,243 L 562,243 L 563,243 L 565,243 L 565,242 L 566,242 L 567,241 L 568,243 L 569,243 L 570,243 L 572,243 L 574,241 L 574,240 L 575,239 L 575,237 L 576,235 L 576,234 L 577,233 L 577,232 L 578,232 L 579,231 L 579,230 L 580,230 L 581,230 L 582,230 L 583,229 L 585,228 L 590,225 L 592,219 L 593,219 L 593,218 L 594,218 L 594,217 L 595,217 L 595,216 L 595,215 L 596,215 L 597,215 L 597,214 L 598,213 L 599,213 L 599,212 L 601,211 L 603,210 L 605,208 L 606,207 L 606,206 L 606,205 L 607,205 L 607,204 L 608,204 L 609,204 L 609,203 L 610,203 L 610,202 L 611,202 L 611,201 L 611,200 L 612,200 L 612,199 L 612,198 L 613,198 L 613,197 L 614,197 L 614,196 L 615,196 L 615,195 L 616,195 L 616,194 L 617,194 L 617,193 L 618,193 L 618,192 L 619,192 L 618,192 L 619,192 L 619,191 L 620,191 L 620,190 L 620,189 L 621,189 L 621,188 L 622,188 L 622,187 L 622,186 L 623,187 L 623,186 L 623,185 L 624,185 L 624,184 L 624,183 L 625,183 L 625,182 L 625,181 L 626,181 L 626,180 L 627,180 L 627,179 L 628,179 L 628,178 L 629,178 L 630,178 L 631,178 L 632,177 L 633,177 L 634,176 L 635,176 L 636,176 L 637,176 L 637,175 L 638,175 L 639,175 L 640,175 L 640,174 L 641,174 L 641,173 L 642,173 L 642,172 L 643,172 L 644,172 L 644,171 L 645,171 L 645,172 L 645,171 L 646,171 L 647,171 L 648,171 L 648,170 L 650,170 L 650,169 L 651,169 L 651,168 L 652,168 L 652,167 L 652,166 L 652,165 L 651,165 L 651,164 L 652,164 L 652,163 L 653,163 L 654,163 L 654,162 L 654,161 L 655,161 L 655,160 L 656,160 L 656,159 L 657,159 L 657,158 L 658,158 L 658,157 L 659,157 L 659,156 L 660,156 L 660,155 L 661,155 L 662,155 L 662,154 L 663,153 L 663,152 L 664,152 L 664,151 " /></g>
</svg>
