<?xml version="1.0" standalone="no"?><!DOCTYPE svg PUBLIC "-//W3C//DTD SVG 1.1//EN" "http://www.w3.org/Graphics/SVG/1.1/DTD/svg11.dtd"><svg xmlns="http://www.w3.org/2000/svg" viewBox="59 440 101 203" version = "1.1">
<g id="40103" ><path d="M 120,632 L 120,633 L 119,633 L 118,633 L 117,634 L 116,634 L 115,634 L 114,634 L 113,634 L 112,634 L 111,634 L 110,634 L 109,634 L 108,634 L 107,634 L 107,635 L 106,635 L 106,636 L 105,636 L 105,637 L 104,637 L 104,638 L 103,638 L 102,638 L 101,638 L 100,639 L 99,639 L 99,640 L 97,641 L 96,641 L 95,642 L 94,642 L 94,643 L 93,643 L 90,639 L 84,630 L 84,629 L 83,629 L 83,628 L 82,628 L 82,627 L 81,627 L 81,626 L 81,625 L 80,625 L 80,624 L 90,603 L 92,601 L 96,590 L 98,587 L 104,583 L 106,580 L 105,576 L 107,568 L 107,565 L 107,563 L 104,561 L 103,555 L 101,554 L 100,548 L 101,540 L 100,533 L 98,529 L 98,528 L 98,527 L 98,526 L 97,526 L 96,524 L 94,520 L 93,519 L 92,518 L 92,517 L 92,516 L 92,515 L 92,514 L 92,513 L 91,513 L 91,512 L 91,511 L 92,511 L 92,510 L 92,509 L 92,508 L 93,508 L 93,507 L 93,506 L 94,506 L 94,505 L 94,504 L 93,504 L 93,503 L 93,502 L 93,501 L 92,501 L 92,500 L 91,500 L 91,499 L 91,498 L 91,497 L 90,497 L 90,496 L 90,495 L 89,495 L 90,494 L 91,494 L 91,493 L 90,492 L 89,492 L 89,491 L 88,490 L 88,489 L 88,488 L 87,488 L 87,487 L 88,486 L 88,485 L 87,485 L 87,484 L 86,483 L 85,483 L 84,482 L 83,482 L 83,481 L 82,481 L 81,481 L 81,480 L 80,480 L 79,480 L 78,480 L 78,479 L 77,479 L 77,478 L 76,478 L 76,477 L 76,476 L 77,476 L 77,475 L 76,474 L 76,473 L 75,473 L 75,472 L 74,471 L 73,471 L 72,472 L 71,472 L 70,472 L 70,471 L 69,471 L 69,472 L 68,472 L 67,472 L 67,471 L 66,471 L 66,470 L 67,469 L 66,469 L 66,468 L 66,467 L 65,467 L 64,467 L 63,466 L 62,465 L 63,464 L 64,464 L 64,463 L 65,462 L 65,461 L 65,460 L 64,459 L 63,458 L 63,457 L 62,457 L 61,457 L 61,456 L 60,456 L 59,455 L 59,454 L 59,453 L 59,452 L 60,452 L 60,451 L 60,450 L 61,450 L 62,450 L 82,444 L 103,441 L 114,440 L 124,460 L 130,458 L 136,456 L 142,454 L 143,457 L 144,460 L 147,467 L 148,469 L 149,470 L 150,471 L 151,472 L 151,473 L 152,474 L 152,476 L 153,477 L 154,477 L 154,478 L 153,478 L 152,479 L 150,479 L 148,480 L 147,480 L 146,480 L 146,482 L 145,483 L 144,485 L 144,486 L 143,487 L 143,489 L 143,490 L 143,491 L 142,493 L 141,493 L 141,494 L 141,495 L 140,496 L 140,498 L 139,499 L 138,502 L 138,504 L 138,506 L 137,507 L 138,507 L 139,507 L 140,507 L 139,507 L 139,508 L 138,508 L 138,509 L 138,510 L 139,510 L 139,511 L 139,510 L 140,510 L 140,511 L 141,511 L 141,512 L 142,512 L 142,513 L 143,513 L 144,513 L 144,514 L 145,514 L 145,515 L 144,515 L 144,516 L 145,517 L 146,517 L 147,517 L 147,518 L 148,518 L 148,519 L 148,520 L 148,521 L 149,521 L 149,522 L 149,523 L 150,524 L 151,524 L 151,525 L 152,525 L 153,526 L 154,527 L 155,528 L 155,529 L 156,529 L 156,530 L 157,530 L 157,531 L 157,532 L 158,532 L 158,533 L 158,534 L 158,535 L 158,536 L 157,536 L 157,537 L 157,538 L 158,538 L 158,539 L 158,540 L 158,541 L 158,542 L 158,543 L 158,544 L 157,544 L 157,545 L 157,546 L 157,547 L 157,548 L 157,549 L 157,550 L 157,551 L 158,551 L 159,552 L 159,553 L 159,554 L 160,554 L 160,555 L 160,556 L 159,557 L 159,558 L 159,559 L 159,560 L 159,561 L 159,562 L 160,563 L 160,564 L 160,565 L 160,566 L 159,567 L 159,568 L 159,569 L 159,570 L 158,570 L 157,572 L 157,574 L 157,575 L 157,576 L 158,577 L 158,578 L 158,579 L 158,581 L 158,582 L 158,583 L 158,584 L 158,585 L 157,587 L 157,589 L 157,591 L 157,593 L 158,594 L 157,595 L 157,596 L 156,596 L 156,597 L 156,598 L 155,599 L 155,600 L 154,600 L 154,601 L 155,601 L 156,601 L 157,601 L 157,602 L 157,603 L 158,603 L 158,604 L 158,605 L 158,606 L 157,606 L 157,607 L 157,608 L 156,608 L 156,609 L 155,609 L 155,610 L 155,611 L 154,611 L 154,612 L 154,613 L 154,614 L 154,615 L 150,617 L 149,618 L 146,619 L 145,620 L 143,623 L 142,625 L 142,626 L 140,628 L 138,629 L 137,631 L 135,633 L 132,634 L 129,633 L 128,633 L 126,632 L 123,632 L 121,632 L 120,632 " /></g>
</svg>
