<?xml version="1.0" standalone="no"?><!DOCTYPE svg PUBLIC "-//W3C//DTD SVG 1.1//EN" "http://www.w3.org/Graphics/SVG/1.1/DTD/svg11.dtd"><svg xmlns="http://www.w3.org/2000/svg" viewBox="114 406 55 61" version = "1.1">
<g id="40101" ><path d="M 168,451 L 166,456 L 165,467 L 164,467 L 151,464 L 150,464 L 150,463 L 149,462 L 148,462 L 148,463 L 147,463 L 147,464 L 146,464 L 146,465 L 147,465 L 147,466 L 147,467 L 144,460 L 143,457 L 142,454 L 136,456 L 130,458 L 124,460 L 114,440 L 116,430 L 117,423 L 125,415 L 135,406 L 169,415 L 169,430 L 168,450 L 168,451 " /></g>
</svg>
