<?xml version="1.0" standalone="no"?><!DOCTYPE svg PUBLIC "-//W3C//DTD SVG 1.1//EN" "http://www.w3.org/Graphics/SVG/1.1/DTD/svg11.dtd"><svg xmlns="http://www.w3.org/2000/svg" viewBox="105 312 166 176" version = "1.1">
<g id="40104" ><path d="M 230,357 L 234,361 L 236,368 L 241,373 L 242,374 L 243,374 L 243,375 L 243,376 L 245,376 L 246,376 L 248,376 L 248,377 L 249,376 L 251,376 L 249,379 L 250,379 L 250,380 L 250,379 L 250,380 L 251,380 L 252,380 L 252,381 L 252,382 L 253,382 L 253,383 L 254,383 L 254,384 L 256,390 L 257,393 L 258,394 L 259,395 L 262,395 L 263,395 L 264,396 L 265,396 L 266,397 L 267,398 L 268,398 L 268,399 L 267,399 L 267,400 L 268,400 L 268,401 L 268,402 L 268,403 L 268,404 L 267,404 L 267,405 L 268,405 L 267,405 L 267,406 L 268,406 L 270,408 L 270,410 L 270,413 L 271,414 L 270,416 L 262,429 L 261,431 L 259,433 L 253,439 L 248,444 L 245,445 L 241,450 L 234,458 L 232,462 L 231,464 L 230,465 L 228,467 L 227,467 L 226,467 L 226,468 L 225,470 L 224,471 L 220,472 L 214,472 L 212,474 L 210,475 L 205,476 L 204,477 L 203,478 L 199,482 L 198,482 L 194,485 L 192,486 L 190,488 L 188,486 L 186,486 L 184,486 L 181,483 L 179,481 L 175,477 L 174,475 L 173,475 L 171,472 L 168,468 L 165,467 L 166,456 L 168,451 L 168,450 L 169,430 L 169,415 L 135,406 L 125,415 L 122,412 L 105,397 L 110,395 L 123,388 L 121,384 L 115,383 L 110,375 L 109,373 L 115,365 L 126,354 L 127,348 L 134,353 L 134,360 L 133,369 L 131,374 L 137,381 L 153,379 L 154,376 L 155,370 L 158,360 L 158,357 L 159,358 L 161,358 L 161,357 L 163,357 L 163,355 L 163,354 L 164,352 L 167,350 L 169,349 L 170,348 L 172,346 L 172,345 L 174,344 L 174,343 L 174,342 L 172,339 L 171,338 L 171,337 L 169,336 L 168,335 L 170,330 L 172,326 L 182,322 L 183,322 L 184,322 L 196,319 L 199,316 L 201,316 L 208,312 L 213,315 L 217,321 L 217,323 L 213,326 L 212,328 L 211,337 L 215,341 L 216,345 L 217,346 L 218,349 L 221,353 L 224,355 L 230,357 " /></g>
</svg>
