<?xml version="1.0" standalone="no"?><!DOCTYPE svg PUBLIC "-//W3C//DTD SVG 1.1//EN" "http://www.w3.org/Graphics/SVG/1.1/DTD/svg11.dtd"><svg xmlns="http://www.w3.org/2000/svg" viewBox="-70 222 244 228" version = "1.1">
<g id="40102" ><path d="M 91,222 L 91,223 L 92,223 L 92,224 L 93,224 L 94,224 L 94,225 L 95,225 L 96,225 L 96,226 L 97,226 L 98,227 L 98,226 L 98,225 L 99,225 L 100,225 L 100,226 L 101,226 L 101,227 L 102,226 L 103,226 L 104,226 L 105,226 L 106,226 L 106,227 L 107,227 L 107,228 L 108,230 L 109,230 L 109,231 L 108,231 L 108,232 L 108,233 L 108,234 L 108,235 L 107,235 L 107,236 L 108,236 L 108,237 L 109,237 L 109,238 L 110,238 L 110,239 L 110,240 L 111,240 L 111,241 L 111,242 L 111,243 L 111,244 L 111,245 L 111,246 L 112,247 L 112,248 L 112,249 L 112,250 L 111,250 L 112,250 L 111,250 L 111,251 L 110,252 L 110,253 L 111,254 L 112,255 L 113,255 L 114,256 L 114,257 L 115,257 L 116,258 L 117,259 L 122,262 L 124,264 L 127,266 L 129,266 L 133,270 L 140,270 L 145,270 L 146,270 L 148,271 L 150,271 L 152,271 L 153,272 L 155,273 L 154,274 L 155,275 L 156,278 L 158,280 L 162,281 L 166,285 L 167,288 L 168,291 L 167,294 L 163,300 L 160,306 L 157,311 L 158,312 L 160,316 L 162,317 L 163,318 L 165,318 L 170,321 L 170,323 L 171,325 L 172,326 L 170,330 L 168,335 L 169,336 L 171,337 L 171,338 L 172,339 L 174,342 L 174,343 L 174,344 L 172,345 L 172,346 L 170,348 L 169,349 L 167,350 L 164,352 L 163,354 L 163,355 L 163,357 L 161,357 L 161,358 L 159,358 L 158,357 L 158,360 L 155,370 L 154,376 L 153,379 L 137,381 L 131,374 L 133,369 L 134,360 L 134,353 L 127,348 L 126,354 L 115,365 L 109,373 L 110,375 L 115,383 L 121,384 L 123,388 L 110,395 L 105,397 L 122,412 L 125,415 L 117,423 L 116,430 L 114,440 L 103,441 L 82,444 L 62,450 L 62,449 L 62,448 L 61,448 L 60,448 L 60,447 L 60,446 L 59,446 L 59,445 L 59,444 L 59,443 L 58,443 L 58,442 L 58,441 L 58,440 L 57,440 L 56,440 L 55,439 L 54,438 L 54,437 L 53,437 L 53,436 L 53,435 L 52,435 L 52,434 L 52,433 L 51,432 L 51,431 L 50,431 L 50,430 L 49,430 L 49,429 L 49,428 L 48,428 L 47,428 L 46,428 L 46,427 L 46,426 L 45,425 L 45,424 L 45,423 L 45,422 L 44,422 L 44,421 L 43,421 L 42,420 L 41,420 L 40,420 L 39,419 L 39,418 L 39,417 L 39,416 L 40,415 L 40,414 L 41,414 L 41,413 L 40,412 L 40,411 L 40,410 L 39,410 L 40,409 L 40,408 L 40,407 L 41,406 L 41,405 L 40,404 L 40,403 L 39,403 L 38,403 L 38,402 L 38,401 L 37,401 L 37,400 L 37,399 L 36,399 L 36,398 L 36,397 L 35,397 L 35,396 L 36,396 L 36,395 L 35,394 L 35,393 L 34,393 L 34,392 L 33,392 L 33,391 L 32,391 L 32,390 L 31,390 L 31,389 L 31,388 L 30,387 L 30,386 L 29,386 L 29,385 L 28,384 L 27,384 L 27,383 L 27,382 L 28,381 L 28,380 L 28,379 L 27,379 L 26,378 L 25,377 L 24,377 L 24,376 L 25,376 L 25,375 L 24,375 L 24,374 L 23,374 L 22,374 L 21,375 L 20,375 L 14,381 L 8,386 L -5,392 L -10,402 L -16,407 L -25,412 L -32,416 L -37,420 L -41,420 L -42,420 L -43,420 L -44,420 L -44,421 L -45,421 L -46,421 L -47,421 L -48,421 L -48,420 L -49,420 L -49,419 L -50,419 L -51,419 L -58,420 L -59,419 L -58,419 L -59,419 L -59,418 L -60,418 L -60,417 L -59,417 L -59,416 L -60,416 L -60,415 L -61,415 L -61,414 L -62,414 L -63,414 L -63,413 L -64,413 L -64,412 L -64,411 L -65,411 L -65,410 L -65,409 L -65,408 L -65,407 L -66,407 L -66,406 L -67,406 L -67,405 L -68,405 L -68,404 L -69,403 L -70,403 L -70,402 L -68,401 L -65,400 L -62,398 L -60,383 L -53,375 L -52,370 L -41,368 L -39,369 L -37,370 L -22,371 L -21,371 L -21,366 L -21,353 L -12,350 L -3,340 L 1,339 L 1,340 L 1,341 L 1,342 L 2,343 L 2,344 L 3,344 L 3,345 L 3,346 L 4,347 L 5,347 L 5,348 L 6,348 L 6,349 L 7,349 L 8,350 L 9,351 L 9,352 L 9,353 L 10,354 L 10,355 L 11,355 L 11,356 L 12,357 L 12,358 L 12,359 L 12,360 L 13,360 L 23,361 L 31,365 L 35,364 L 61,348 L 52,344 L 57,336 L 66,326 L 66,323 L 64,321 L 64,319 L 63,318 L 60,319 L 57,319 L 56,319 L 54,315 L 50,313 L 46,309 L 46,308 L 45,307 L 45,304 L 44,303 L 42,302 L 43,298 L 45,296 L 46,295 L 47,295 L 47,294 L 47,292 L 46,292 L 47,291 L 47,290 L 45,289 L 45,288 L 44,287 L 45,285 L 46,285 L 46,284 L 46,283 L 46,282 L 47,280 L 48,279 L 48,278 L 48,274 L 48,272 L 48,271 L 49,269 L 50,266 L 51,266 L 53,265 L 54,265 L 55,265 L 56,265 L 57,265 L 58,265 L 58,264 L 59,264 L 60,265 L 60,264 L 61,263 L 60,262 L 61,262 L 61,261 L 61,260 L 61,259 L 61,258 L 62,258 L 62,257 L 63,257 L 64,257 L 65,257 L 66,257 L 66,256 L 67,256 L 67,255 L 68,255 L 68,254 L 68,253 L 69,253 L 69,252 L 68,251 L 68,249 L 68,248 L 68,247 L 67,246 L 68,246 L 68,245 L 69,245 L 69,244 L 69,243 L 69,242 L 70,242 L 70,241 L 71,241 L 71,242 L 72,242 L 73,242 L 74,242 L 75,242 L 75,241 L 76,241 L 76,240 L 76,239 L 77,239 L 77,238 L 78,238 L 78,237 L 78,236 L 79,236 L 79,235 L 78,234 L 79,234 L 79,233 L 79,232 L 80,232 L 80,231 L 81,231 L 81,230 L 81,229 L 82,229 L 82,228 L 83,228 L 84,228 L 85,227 L 86,227 L 86,226 L 87,226 L 88,226 L 88,225 L 89,225 L 89,224 L 89,223 L 89,222 L 90,222 L 90,223 L 90,222 L 91,222 " /></g>
</svg>
