<?xml version="1.0" standalone="no"?><!DOCTYPE svg PUBLIC "-//W3C//DTD SVG 1.1//EN" "http://www.w3.org/Graphics/SVG/1.1/DTD/svg11.dtd"><svg xmlns="http://www.w3.org/2000/svg" viewBox="145 611 336 256" version = "1.1">
<g id="40201" ><path d="M 145,702 L 147,701 L 151,700 L 157,697 L 163,695 L 169,692 L 173,689 L 200,673 L 201,673 L 203,673 L 205,672 L 206,672 L 207,672 L 207,673 L 208,673 L 208,674 L 209,674 L 210,674 L 212,673 L 213,673 L 214,673 L 215,673 L 216,673 L 216,674 L 217,674 L 218,674 L 218,675 L 219,675 L 219,676 L 220,676 L 221,676 L 221,677 L 222,677 L 222,678 L 223,678 L 224,679 L 225,679 L 227,679 L 228,679 L 229,679 L 230,679 L 231,679 L 232,679 L 233,679 L 234,679 L 235,679 L 235,680 L 236,680 L 236,681 L 236,682 L 237,684 L 237,685 L 237,687 L 236,687 L 236,688 L 236,690 L 236,691 L 237,692 L 239,695 L 239,697 L 238,700 L 238,703 L 237,704 L 236,706 L 236,707 L 239,712 L 245,715 L 246,715 L 247,714 L 247,715 L 247,714 L 248,714 L 248,715 L 249,715 L 249,714 L 250,714 L 251,714 L 251,715 L 251,714 L 251,715 L 252,715 L 252,714 L 253,714 L 254,714 L 254,713 L 255,713 L 255,714 L 256,714 L 257,714 L 257,713 L 257,712 L 258,712 L 258,711 L 258,710 L 258,709 L 259,709 L 259,708 L 260,707 L 260,706 L 261,706 L 261,705 L 262,705 L 262,704 L 263,704 L 263,703 L 264,703 L 265,703 L 265,702 L 266,702 L 267,702 L 267,701 L 266,699 L 266,697 L 265,695 L 265,693 L 265,691 L 266,688 L 266,686 L 266,684 L 266,682 L 267,679 L 267,678 L 268,678 L 269,678 L 270,678 L 271,678 L 271,677 L 271,676 L 271,673 L 270,670 L 269,669 L 269,665 L 268,663 L 268,661 L 268,660 L 267,658 L 266,656 L 268,655 L 268,652 L 270,650 L 272,649 L 274,648 L 275,648 L 276,646 L 276,645 L 275,644 L 276,643 L 276,642 L 276,641 L 276,639 L 275,638 L 274,637 L 273,633 L 272,630 L 271,628 L 270,625 L 274,621 L 274,620 L 273,618 L 272,617 L 273,617 L 273,616 L 274,616 L 275,615 L 276,615 L 277,615 L 278,614 L 278,613 L 281,611 L 281,613 L 281,615 L 281,616 L 281,617 L 283,619 L 285,622 L 286,624 L 287,626 L 287,628 L 287,629 L 287,630 L 288,631 L 288,632 L 289,633 L 289,634 L 290,635 L 289,635 L 289,636 L 289,637 L 289,638 L 289,639 L 289,640 L 290,640 L 290,641 L 291,641 L 291,642 L 292,642 L 292,643 L 293,645 L 294,647 L 295,649 L 295,650 L 295,652 L 295,653 L 295,655 L 293,655 L 293,656 L 293,658 L 294,661 L 295,663 L 296,664 L 296,665 L 296,666 L 297,666 L 298,667 L 299,667 L 300,667 L 303,666 L 305,667 L 306,668 L 305,669 L 305,671 L 306,671 L 307,672 L 307,673 L 308,673 L 309,674 L 310,676 L 310,677 L 310,678 L 310,679 L 310,680 L 309,681 L 308,682 L 308,683 L 309,683 L 310,683 L 311,683 L 312,683 L 314,684 L 315,685 L 315,686 L 316,686 L 316,687 L 317,687 L 317,688 L 317,689 L 319,690 L 320,690 L 321,690 L 323,691 L 327,691 L 330,691 L 329,696 L 330,700 L 330,701 L 330,703 L 331,706 L 331,709 L 332,710 L 335,712 L 339,713 L 341,714 L 342,713 L 345,710 L 346,709 L 348,708 L 350,705 L 350,703 L 349,702 L 350,699 L 350,698 L 351,695 L 352,691 L 355,687 L 356,686 L 356,687 L 356,686 L 356,687 L 356,686 L 357,686 L 358,686 L 359,686 L 359,685 L 360,685 L 360,686 L 360,685 L 361,685 L 362,685 L 362,686 L 363,687 L 364,687 L 365,686 L 366,686 L 367,686 L 368,687 L 370,687 L 371,687 L 372,688 L 373,689 L 374,688 L 375,688 L 376,688 L 378,690 L 380,692 L 381,694 L 381,695 L 382,696 L 383,697 L 383,698 L 384,699 L 384,701 L 384,702 L 385,703 L 386,703 L 386,704 L 386,705 L 387,705 L 388,706 L 388,707 L 388,708 L 390,711 L 392,715 L 392,717 L 392,719 L 394,721 L 394,724 L 395,725 L 395,726 L 395,728 L 396,730 L 397,733 L 398,735 L 399,739 L 399,740 L 399,741 L 400,742 L 401,743 L 401,744 L 402,745 L 402,746 L 402,748 L 402,749 L 403,750 L 404,751 L 405,753 L 405,754 L 405,759 L 407,761 L 409,762 L 409,767 L 410,775 L 409,778 L 409,782 L 411,784 L 415,790 L 420,788 L 427,788 L 429,787 L 430,786 L 432,784 L 433,784 L 433,783 L 434,783 L 435,783 L 436,784 L 436,783 L 437,783 L 438,783 L 439,783 L 440,783 L 440,782 L 441,782 L 442,782 L 442,781 L 443,781 L 443,780 L 444,780 L 445,780 L 446,780 L 446,779 L 447,779 L 448,779 L 448,780 L 449,780 L 450,782 L 450,783 L 450,784 L 451,789 L 451,792 L 452,792 L 459,795 L 462,799 L 463,801 L 465,803 L 466,803 L 468,805 L 470,806 L 471,808 L 474,811 L 474,813 L 476,814 L 477,813 L 479,813 L 479,816 L 480,817 L 481,817 L 481,818 L 481,820 L 480,820 L 479,820 L 478,821 L 475,825 L 477,828 L 475,832 L 472,835 L 472,838 L 473,838 L 473,839 L 474,840 L 474,841 L 475,841 L 475,842 L 475,843 L 476,843 L 476,844 L 475,846 L 474,847 L 472,849 L 470,851 L 468,855 L 468,857 L 467,858 L 467,860 L 468,865 L 467,866 L 466,866 L 466,867 L 465,867 L 464,867 L 463,867 L 462,866 L 461,866 L 461,865 L 460,865 L 459,865 L 459,864 L 459,863 L 458,863 L 457,863 L 456,863 L 455,864 L 454,864 L 453,864 L 453,865 L 452,865 L 451,865 L 451,866 L 450,866 L 449,866 L 448,866 L 447,866 L 447,858 L 437,856 L 431,855 L 428,854 L 428,852 L 428,850 L 427,848 L 425,844 L 424,844 L 421,845 L 415,841 L 413,840 L 408,840 L 406,840 L 404,841 L 403,841 L 402,841 L 401,841 L 400,841 L 399,842 L 394,844 L 389,843 L 389,840 L 385,832 L 383,832 L 377,833 L 372,831 L 368,823 L 361,813 L 357,809 L 357,807 L 357,806 L 358,804 L 361,802 L 364,800 L 368,795 L 369,794 L 373,790 L 375,789 L 375,788 L 374,788 L 373,788 L 371,788 L 369,787 L 367,786 L 365,785 L 361,783 L 360,780 L 359,777 L 361,774 L 361,770 L 360,768 L 360,764 L 358,760 L 359,758 L 358,757 L 351,756 L 348,755 L 347,752 L 348,751 L 347,749 L 346,743 L 345,740 L 344,739 L 343,739 L 342,740 L 342,741 L 341,742 L 340,743 L 339,744 L 337,745 L 338,747 L 337,748 L 337,749 L 336,750 L 335,751 L 334,753 L 334,754 L 334,756 L 336,758 L 336,759 L 336,760 L 336,761 L 326,763 L 325,764 L 324,764 L 324,763 L 323,763 L 322,763 L 321,763 L 321,762 L 321,763 L 320,764 L 320,765 L 319,765 L 319,766 L 318,766 L 317,767 L 316,767 L 315,767 L 315,766 L 314,766 L 313,766 L 312,766 L 310,767 L 304,767 L 297,765 L 293,767 L 291,768 L 289,768 L 286,767 L 282,766 L 280,767 L 279,767 L 278,769 L 277,769 L 276,768 L 274,768 L 272,772 L 271,772 L 269,774 L 265,775 L 263,775 L 262,774 L 259,775 L 254,774 L 249,772 L 247,772 L 242,775 L 239,775 L 233,775 L 220,775 L 215,776 L 212,777 L 208,777 L 205,778 L 203,779 L 199,779 L 195,779 L 190,778 L 187,779 L 184,778 L 182,778 L 181,778 L 180,778 L 177,779 L 176,779 L 175,779 L 174,776 L 174,774 L 174,771 L 174,769 L 174,767 L 173,764 L 173,763 L 173,760 L 171,756 L 171,753 L 170,752 L 170,749 L 168,747 L 167,745 L 166,743 L 165,741 L 164,740 L 162,736 L 161,734 L 159,732 L 158,729 L 157,727 L 155,724 L 154,723 L 154,721 L 153,719 L 153,718 L 151,716 L 150,714 L 149,712 L 149,710 L 147,708 L 146,705 L 145,703 L 145,702 " /></g>
</svg>
