<?xml version="1.0" standalone="no"?><!DOCTYPE svg PUBLIC "-//W3C//DTD SVG 1.1//EN" "http://www.w3.org/Graphics/SVG/1.1/DTD/svg11.dtd"><svg xmlns="http://www.w3.org/2000/svg" viewBox="169 820 172 118" version = "1.1">
<g id="40202" ><path d="M 182,820 L 183,821 L 184,822 L 185,823 L 186,824 L 188,824 L 189,825 L 192,826 L 193,827 L 196,828 L 199,829 L 200,831 L 201,832 L 218,838 L 232,842 L 232,843 L 237,846 L 238,848 L 236,857 L 234,863 L 234,864 L 234,865 L 234,866 L 235,867 L 235,868 L 235,869 L 236,869 L 236,870 L 237,871 L 237,872 L 238,872 L 239,873 L 240,873 L 241,873 L 242,874 L 243,874 L 244,875 L 245,875 L 246,876 L 247,876 L 248,876 L 248,877 L 248,878 L 249,878 L 249,879 L 250,879 L 251,880 L 252,880 L 252,881 L 253,881 L 254,882 L 258,882 L 259,882 L 260,882 L 260,883 L 261,883 L 262,883 L 262,884 L 263,884 L 263,885 L 264,885 L 265,886 L 266,886 L 267,886 L 268,886 L 268,887 L 269,887 L 269,888 L 270,888 L 271,888 L 272,888 L 272,889 L 273,890 L 274,890 L 274,889 L 275,889 L 275,890 L 276,890 L 277,890 L 277,891 L 278,891 L 279,891 L 280,892 L 281,892 L 282,893 L 283,894 L 284,894 L 286,895 L 291,896 L 294,896 L 301,892 L 305,891 L 311,892 L 314,893 L 319,897 L 320,897 L 320,896 L 320,897 L 321,897 L 321,896 L 322,896 L 322,895 L 323,895 L 324,895 L 325,896 L 326,896 L 327,896 L 328,896 L 329,897 L 331,898 L 341,906 L 327,914 L 325,916 L 323,918 L 321,919 L 317,920 L 314,925 L 314,926 L 312,928 L 310,928 L 308,928 L 305,928 L 303,928 L 301,928 L 299,928 L 297,928 L 295,928 L 293,929 L 290,930 L 289,930 L 289,929 L 288,929 L 287,929 L 287,930 L 286,930 L 286,931 L 285,931 L 285,932 L 284,932 L 283,932 L 283,933 L 282,934 L 280,935 L 277,935 L 275,935 L 273,935 L 272,935 L 270,933 L 269,933 L 267,932 L 266,932 L 266,931 L 265,931 L 265,930 L 264,929 L 263,929 L 263,930 L 262,931 L 261,931 L 261,932 L 261,931 L 260,931 L 259,931 L 258,931 L 258,932 L 258,931 L 258,930 L 257,930 L 257,929 L 258,929 L 258,928 L 257,928 L 256,928 L 256,929 L 255,929 L 254,929 L 253,929 L 252,929 L 251,929 L 251,930 L 250,930 L 250,929 L 249,929 L 249,930 L 248,930 L 247,930 L 246,930 L 245,930 L 245,931 L 244,931 L 244,932 L 243,932 L 243,933 L 242,933 L 242,934 L 241,934 L 241,933 L 241,934 L 241,935 L 240,935 L 240,936 L 239,936 L 238,936 L 237,936 L 236,936 L 235,936 L 234,937 L 234,938 L 233,938 L 232,938 L 231,938 L 231,937 L 230,937 L 230,938 L 229,938 L 228,938 L 227,937 L 226,937 L 226,936 L 225,936 L 225,935 L 224,935 L 223,935 L 222,935 L 222,934 L 221,934 L 221,933 L 220,933 L 220,932 L 219,932 L 218,932 L 217,931 L 217,930 L 217,929 L 216,929 L 216,928 L 216,927 L 215,927 L 214,926 L 214,925 L 214,924 L 213,924 L 212,924 L 212,923 L 211,923 L 211,922 L 210,922 L 209,922 L 208,922 L 206,921 L 204,919 L 203,918 L 201,917 L 200,917 L 199,916 L 199,915 L 198,915 L 197,914 L 196,914 L 196,913 L 195,913 L 195,912 L 194,912 L 193,912 L 192,912 L 192,911 L 192,910 L 191,910 L 191,909 L 190,909 L 189,909 L 189,908 L 188,908 L 187,908 L 187,909 L 186,909 L 185,909 L 184,909 L 183,909 L 182,909 L 182,910 L 181,910 L 180,910 L 179,910 L 178,910 L 178,911 L 177,911 L 177,912 L 176,912 L 175,912 L 175,913 L 174,912 L 173,912 L 174,911 L 174,910 L 174,909 L 174,908 L 175,908 L 176,906 L 177,905 L 177,904 L 178,904 L 178,903 L 178,902 L 178,901 L 179,900 L 178,900 L 178,899 L 177,899 L 177,898 L 176,898 L 176,897 L 177,897 L 177,896 L 177,895 L 176,895 L 176,894 L 176,893 L 177,893 L 177,892 L 177,891 L 177,890 L 177,889 L 177,888 L 177,887 L 177,886 L 177,885 L 178,884 L 178,883 L 178,882 L 178,881 L 178,880 L 177,879 L 176,879 L 175,878 L 174,878 L 174,877 L 173,877 L 173,876 L 172,876 L 171,875 L 171,874 L 170,874 L 169,874 L 169,873 L 169,872 L 171,870 L 171,867 L 170,864 L 170,863 L 171,862 L 171,861 L 172,861 L 171,861 L 171,860 L 171,859 L 170,858 L 170,854 L 170,850 L 170,849 L 170,848 L 170,846 L 172,842 L 173,840 L 175,838 L 179,831 L 180,828 L 180,825 L 181,822 L 182,821 L 182,820 " /></g>
</svg>
