<?xml version="1.0" standalone="no"?><!DOCTYPE svg PUBLIC "-//W3C//DTD SVG 1.1//EN" "http://www.w3.org/Graphics/SVG/1.1/DTD/svg11.dtd"><svg xmlns="http://www.w3.org/2000/svg" viewBox="-212 427 147 122" version = "1.1">
<g id="40302" ><path d="M -133,429 L -131,430 L -132,433 L -133,437 L -133,440 L -131,443 L -130,446 L -130,450 L -131,452 L -133,455 L -131,455 L -130,456 L -129,456 L -127,457 L -126,458 L -125,458 L -124,459 L -122,461 L -121,462 L -121,463 L -120,463 L -119,463 L -118,463 L -118,464 L -117,464 L -116,465 L -115,465 L -114,466 L -113,466 L -112,467 L -111,467 L -110,466 L -109,467 L -98,461 L -97,461 L -96,461 L -95,462 L -94,462 L -93,461 L -92,460 L -87,457 L -86,457 L -84,459 L -84,460 L -82,461 L -82,462 L -81,463 L -80,464 L -80,465 L -79,466 L -78,467 L -77,467 L -75,469 L -73,472 L -73,473 L -71,476 L -70,477 L -70,478 L -69,479 L -68,480 L -68,481 L -67,483 L -65,488 L -66,488 L -68,488 L -69,488 L -70,487 L -71,487 L -71,488 L -73,489 L -74,490 L -75,490 L -76,491 L -78,491 L -81,492 L -82,493 L -83,493 L -88,496 L -89,497 L -90,499 L -90,500 L -91,500 L -92,500 L -92,501 L -93,501 L -94,501 L -95,502 L -102,507 L -117,515 L -123,524 L -135,530 L -145,531 L -150,540 L -154,542 L -160,545 L -161,546 L -169,548 L -173,549 L -176,549 L -177,547 L -178,546 L -180,543 L -184,539 L -185,537 L -186,532 L -187,531 L -186,528 L -185,524 L -187,517 L -192,517 L -194,515 L -196,516 L -198,515 L -201,514 L -202,510 L -201,507 L -197,505 L -196,502 L -198,491 L -198,490 L -198,489 L -198,488 L -198,487 L -198,486 L -198,485 L -198,484 L -197,482 L -197,480 L -197,479 L -198,479 L -200,479 L -202,478 L -203,476 L -204,476 L -204,475 L -204,472 L -205,472 L -207,471 L -208,469 L -211,467 L -212,466 L -212,464 L -212,462 L -204,458 L -202,460 L -198,464 L -197,464 L -194,463 L -192,462 L -189,460 L -182,461 L -182,460 L -181,460 L -180,460 L -179,460 L -179,459 L -178,459 L -178,460 L -177,460 L -177,459 L -175,457 L -169,455 L -166,454 L -161,454 L -157,450 L -154,448 L -154,446 L -155,444 L -156,442 L -155,442 L -154,442 L -154,441 L -153,441 L -153,440 L -152,440 L -152,439 L -151,439 L -151,440 L -150,439 L -149,438 L -148,438 L -147,438 L -147,437 L -146,437 L -145,437 L -144,437 L -140,434 L -139,430 L -138,429 L -137,429 L -136,429 L -135,428 L -134,427 L -133,428 L -133,429 " /></g>
</svg>
