<?xml version="1.0" standalone="no"?><!DOCTYPE svg PUBLIC "-//W3C//DTD SVG 1.1//EN" "http://www.w3.org/Graphics/SVG/1.1/DTD/svg11.dtd"><svg xmlns="http://www.w3.org/2000/svg" viewBox="-202 470 207 253" version = "1.1">
<g id="40301" ><path d="M 4,651 L -6,660 L -10,665 L -19,673 L -21,674 L -27,676 L -28,677 L -29,677 L -30,678 L -31,678 L -32,678 L -32,679 L -33,678 L -33,679 L -34,679 L -34,678 L -35,678 L -36,678 L -38,679 L -48,676 L -54,678 L -58,678 L -62,678 L -65,678 L -69,684 L -74,690 L -78,692 L -87,697 L -94,700 L -116,714 L -120,718 L -121,718 L -130,720 L -131,721 L -134,722 L -137,723 L -138,723 L -139,723 L -139,722 L -145,721 L -157,708 L -172,689 L -174,676 L -177,659 L -179,655 L -180,649 L -178,646 L -182,629 L -189,619 L -202,613 L -200,605 L -198,604 L -191,598 L -189,595 L -186,592 L -183,590 L -183,588 L -183,586 L -178,582 L -176,579 L -175,579 L -176,578 L -177,576 L -176,573 L -175,572 L -173,571 L -172,570 L -172,569 L -171,569 L -171,568 L -170,568 L -169,567 L -169,566 L -169,565 L -170,564 L -166,560 L -167,558 L -167,556 L -167,552 L -168,551 L -169,548 L -161,546 L -160,545 L -154,542 L -150,540 L -145,531 L -135,530 L -123,524 L -117,515 L -102,507 L -95,502 L -94,501 L -93,501 L -92,501 L -92,500 L -91,500 L -90,500 L -90,499 L -89,497 L -88,496 L -83,493 L -82,493 L -81,492 L -78,491 L -76,491 L -75,490 L -74,490 L -73,489 L -71,488 L -71,487 L -70,487 L -69,488 L -68,488 L -66,488 L -65,488 L -67,483 L -68,481 L -68,480 L -69,479 L -70,478 L -69,477 L -67,476 L -65,475 L -62,475 L -60,473 L -57,471 L -54,470 L -52,471 L -51,472 L -52,473 L -52,474 L -52,475 L -51,475 L -50,475 L -50,476 L -50,478 L -49,478 L -49,479 L -49,480 L -49,481 L -48,481 L -49,483 L -49,484 L -49,485 L -48,485 L -47,486 L -47,487 L -47,488 L -47,489 L -47,490 L -47,491 L -47,492 L -47,493 L -47,494 L -46,495 L -46,496 L -46,497 L -47,498 L -46,500 L -45,503 L -45,504 L -44,505 L -43,506 L -39,506 L -34,506 L -33,507 L -31,508 L -30,512 L -29,517 L -27,523 L -26,527 L -27,529 L -25,530 L -16,548 L -15,551 L -12,552 L -9,550 L -4,545 L -3,546 L -3,547 L -3,548 L -2,548 L -2,549 L -2,550 L -1,552 L -1,553 L 0,553 L 0,554 L 0,555 L 0,556 L 0,557 L 0,558 L 0,559 L 1,559 L 2,560 L 3,562 L 3,564 L 4,564 L 3,565 L 2,565 L 2,566 L 2,567 L 1,567 L 0,567 L 0,566 L -1,566 L -2,566 L -2,567 L -2,568 L -2,569 L -2,570 L -3,570 L -3,571 L -4,571 L -5,571 L -5,572 L -6,572 L -5,573 L -5,574 L -6,574 L -6,575 L -7,575 L -8,575 L -8,577 L -8,580 L -10,584 L -10,585 L -10,586 L -11,587 L -11,588 L -11,589 L -10,590 L -10,591 L -7,594 L -9,604 L -2,609 L 5,620 L 4,623 L 0,633 L -1,641 L 0,646 L 2,648 L 4,651 " /></g>
</svg>
