<?xml version="1.0" standalone="no"?><!DOCTYPE svg PUBLIC "-//W3C//DTD SVG 1.1//EN" "http://www.w3.org/Graphics/SVG/1.1/DTD/svg11.dtd"><svg xmlns="http://www.w3.org/2000/svg" viewBox="-544 312 287 234" version = "1.1">
<g id="40401" ><path d="M -277,313 L -276,314 L -272,318 L -272,317 L -271,317 L -271,316 L -270,316 L -270,315 L -269,315 L -269,314 L -268,314 L -267,314 L -267,315 L -266,315 L -266,314 L -265,314 L -265,313 L -264,313 L -264,314 L -263,314 L -263,315 L -262,315 L -261,316 L -260,316 L -260,317 L -259,318 L -258,319 L -257,320 L -258,321 L -258,322 L -258,323 L -258,324 L -259,324 L -259,325 L -259,326 L -260,326 L -259,326 L -259,327 L -259,328 L -260,328 L -260,329 L -261,329 L -261,330 L -260,330 L -261,331 L -262,331 L -263,331 L -264,331 L -267,333 L -275,340 L -277,348 L -276,364 L -275,365 L -274,365 L -274,366 L -273,366 L -272,367 L -272,368 L -271,368 L -270,368 L -269,369 L -269,370 L -268,370 L -268,371 L -269,371 L -270,372 L -272,374 L -272,376 L -271,377 L -271,378 L -272,378 L -273,378 L -274,379 L -275,379 L -275,380 L -274,380 L -273,380 L -274,381 L -274,382 L -274,383 L -275,383 L -275,384 L -274,384 L -274,385 L -273,385 L -273,386 L -272,386 L -272,387 L -273,387 L -273,388 L -273,389 L -274,389 L -274,390 L -274,391 L -274,392 L -275,392 L -275,393 L -276,393 L -276,394 L -276,395 L -277,396 L -277,398 L -276,399 L -274,401 L -274,402 L -274,404 L -275,405 L -276,407 L -277,409 L -276,412 L -276,413 L -276,414 L -275,414 L -275,415 L -275,416 L -275,417 L -275,418 L -275,419 L -275,420 L -276,420 L -277,420 L -277,421 L -278,421 L -278,422 L -278,423 L -278,424 L -278,425 L -278,426 L -279,426 L -279,427 L -279,428 L -279,429 L -279,430 L -278,430 L -278,431 L -278,432 L -278,433 L -278,434 L -279,434 L -279,435 L -279,436 L -278,437 L -278,438 L -278,439 L -278,440 L -277,440 L -276,440 L -274,440 L -273,439 L -270,440 L -269,441 L -266,442 L -265,444 L -265,446 L -266,450 L -266,452 L -265,456 L -265,459 L -266,462 L -269,468 L -271,469 L -270,471 L -270,473 L -271,474 L -273,479 L -273,483 L -274,484 L -277,484 L -279,483 L -280,481 L -283,478 L -284,477 L -286,477 L -287,476 L -286,475 L -287,473 L -288,472 L -290,472 L -293,471 L -294,471 L -294,472 L -297,474 L -300,476 L -301,477 L -300,479 L -301,481 L -302,482 L -303,484 L -303,487 L -301,488 L -302,492 L -304,492 L -305,494 L -307,494 L -308,492 L -310,491 L -311,491 L -313,492 L -316,493 L -317,494 L -319,493 L -322,493 L -325,491 L -326,492 L -329,493 L -330,491 L -352,492 L -355,491 L -356,491 L -357,491 L -357,490 L -358,490 L -359,490 L -361,489 L -362,489 L -364,488 L -369,488 L -373,490 L -377,493 L -383,494 L -390,493 L -400,492 L -405,492 L -413,495 L -417,496 L -426,502 L -431,506 L -437,510 L -445,513 L -450,524 L -451,524 L -452,524 L -452,525 L -453,525 L -454,525 L -455,525 L -455,526 L -456,526 L -456,527 L -457,527 L -457,528 L -458,528 L -458,529 L -459,529 L -459,530 L -460,530 L -461,530 L -461,531 L -461,532 L -462,532 L -462,533 L -461,533 L -462,534 L -463,535 L -463,536 L -464,536 L -464,537 L -464,536 L -465,536 L -466,536 L -466,535 L -467,535 L -467,534 L -468,534 L -468,533 L -469,533 L -470,533 L -470,534 L -471,534 L -472,535 L -473,536 L -474,536 L -475,537 L -476,536 L -477,537 L -478,537 L -479,537 L -480,538 L -481,538 L -482,538 L -483,538 L -483,539 L -484,540 L -485,540 L -486,541 L -487,541 L -488,541 L -488,542 L -489,542 L -490,542 L -491,542 L -492,543 L -493,543 L -494,543 L -495,543 L -496,543 L -497,543 L -498,543 L -499,543 L -500,543 L -501,543 L -502,544 L -503,544 L -504,544 L -505,544 L -506,544 L -507,544 L -508,545 L -509,545 L -510,545 L -511,545 L -512,546 L -513,546 L -513,545 L -514,545 L -516,545 L -518,545 L -519,545 L -521,545 L -520,541 L -520,535 L -520,534 L -518,530 L -526,524 L -527,523 L -530,520 L -544,504 L -539,492 L -523,480 L -520,474 L -523,465 L -520,462 L -515,461 L -511,459 L -507,455 L -504,453 L -501,452 L -498,448 L -493,447 L -492,447 L -484,443 L -473,438 L -466,432 L -452,430 L -446,429 L -445,429 L -444,429 L -443,430 L -442,430 L -441,430 L -441,429 L -441,428 L -440,428 L -439,427 L -438,427 L -437,427 L -436,426 L -435,426 L -434,426 L -433,426 L -432,426 L -431,425 L -430,425 L -429,425 L -428,425 L -427,425 L -426,426 L -424,426 L -423,425 L -422,424 L -421,424 L -421,423 L -420,423 L -419,423 L -419,422 L -418,422 L -417,422 L -417,421 L -416,421 L -415,420 L -415,419 L -415,418 L -415,417 L -414,416 L -414,415 L -413,415 L -412,414 L -411,414 L -411,413 L -410,413 L -409,413 L -409,412 L -409,411 L -407,411 L -406,410 L -406,411 L -405,411 L -405,410 L -404,411 L -403,411 L -403,412 L -402,412 L -401,412 L -400,412 L -399,411 L -398,411 L -398,412 L -397,412 L -396,412 L -395,412 L -394,412 L -394,411 L -393,411 L -393,410 L -393,409 L -392,409 L -391,409 L -391,408 L -390,408 L -389,408 L -388,408 L -387,408 L -386,409 L -386,408 L -385,408 L -384,408 L -384,407 L -383,406 L -383,405 L -382,405 L -381,405 L -380,405 L -379,405 L -378,405 L -378,404 L -377,404 L -377,403 L -376,403 L -375,403 L -374,402 L -374,401 L -373,401 L -373,400 L -371,399 L -370,399 L -369,398 L -369,397 L -369,396 L -368,396 L -368,395 L -367,395 L -367,394 L -366,394 L -365,394 L -364,394 L -364,393 L -363,393 L -362,393 L -362,392 L -361,392 L -361,391 L -360,391 L -359,390 L -358,390 L -358,389 L -357,389 L -356,389 L -356,388 L -355,388 L -354,388 L -353,388 L -352,387 L -351,387 L -350,388 L -349,388 L -349,389 L -348,389 L -348,388 L -347,388 L -346,388 L -346,387 L -345,387 L -344,387 L -343,386 L -342,386 L -341,386 L -340,385 L -341,382 L -342,381 L -343,381 L -343,379 L -343,378 L -342,377 L -343,373 L -343,372 L -343,368 L -341,362 L -341,359 L -341,357 L -341,355 L -342,354 L -341,353 L -341,352 L -340,351 L -340,350 L -339,349 L -338,349 L -337,349 L -336,349 L -335,349 L -333,350 L -333,351 L -332,350 L -331,350 L -330,351 L -329,350 L -328,349 L -327,348 L -328,348 L -328,347 L -328,346 L -327,346 L -327,345 L -326,345 L -325,345 L -324,344 L -322,343 L -321,343 L -320,344 L -320,345 L -319,345 L -319,344 L -318,344 L -318,342 L -317,340 L -316,339 L -316,338 L -315,338 L -314,338 L -313,337 L -313,336 L -312,336 L -311,336 L -310,336 L -310,337 L -309,338 L -308,338 L -307,338 L -306,337 L -307,337 L -306,336 L -307,335 L -303,331 L -302,331 L -302,330 L -302,329 L -301,329 L -301,328 L -300,328 L -300,327 L -300,326 L -299,326 L -300,325 L -299,325 L -300,325 L -300,324 L -299,323 L -299,324 L -299,323 L -298,323 L -297,323 L -296,323 L -296,322 L -295,322 L -294,322 L -294,321 L -293,321 L -292,321 L -291,321 L -290,321 L -289,320 L -289,319 L -290,318 L -290,317 L -290,316 L -290,315 L -289,315 L -289,314 L -288,314 L -287,313 L -286,313 L -284,313 L -281,312 L -279,312 L -277,313 " /></g>
</svg>
