<?xml version="1.0" standalone="no"?><!DOCTYPE svg PUBLIC "-//W3C//DTD SVG 1.1//EN" "http://www.w3.org/Graphics/SVG/1.1/DTD/svg11.dtd"><svg xmlns="http://www.w3.org/2000/svg" viewBox="-521 453 355 204" version = "1.1">
<g id="40402" ><path d="M -321,656 L -321,657 L -322,657 L -323,657 L -324,657 L -325,657 L -326,657 L -327,657 L -328,657 L -328,656 L -329,656 L -329,657 L -330,657 L -331,656 L -332,656 L -333,656 L -333,655 L -334,655 L -335,655 L -335,654 L -336,654 L -337,654 L -338,654 L -338,653 L -339,653 L -339,654 L -340,654 L -340,655 L -341,655 L -342,655 L -343,655 L -344,655 L -345,655 L -345,654 L -346,654 L -347,654 L -348,654 L -349,654 L -350,654 L -351,654 L -352,654 L -353,653 L -354,653 L -355,653 L -356,653 L -357,652 L -357,651 L -358,651 L -358,650 L -359,650 L -360,650 L -360,651 L -361,651 L -362,651 L -363,651 L -364,650 L -365,650 L -366,650 L -366,649 L -367,649 L -367,650 L -368,650 L -368,649 L -369,649 L -370,649 L -371,649 L -371,648 L -372,648 L -373,648 L -374,648 L -374,647 L -375,647 L -375,646 L -376,646 L -376,645 L -377,646 L -378,646 L -379,646 L -379,645 L -380,645 L -381,645 L -382,645 L -382,644 L -383,645 L -384,645 L -384,644 L -384,643 L -385,643 L -386,642 L -386,641 L -387,641 L -388,641 L -389,641 L -390,641 L -390,640 L -390,639 L -391,639 L -392,639 L -392,638 L -392,637 L -393,636 L -393,635 L -394,634 L -395,633 L -395,632 L -395,631 L -395,630 L -396,629 L -397,628 L -399,627 L -400,627 L -401,627 L -402,626 L -403,626 L -404,626 L -405,626 L -406,626 L -407,626 L -408,626 L -410,627 L -412,627 L -416,629 L -423,630 L -431,632 L -432,632 L -436,633 L -453,638 L -466,646 L -475,648 L -476,649 L -477,648 L -478,648 L -479,648 L -480,648 L -481,648 L -482,648 L -483,648 L -484,648 L -485,648 L -486,649 L -487,649 L -488,649 L -489,649 L -490,649 L -491,649 L -492,649 L -493,649 L -493,650 L -494,650 L -495,650 L -496,651 L -497,651 L -498,651 L -497,647 L -499,644 L -502,641 L -500,630 L -503,618 L -506,607 L -506,606 L -506,605 L -505,605 L -505,604 L -504,604 L -509,598 L -509,595 L -512,587 L -512,578 L -514,577 L -514,575 L -513,574 L -512,572 L -513,570 L -513,569 L -513,568 L -514,566 L -514,565 L -514,564 L -514,563 L -513,563 L -513,562 L -512,562 L -511,562 L -510,558 L -509,558 L -509,557 L -510,557 L -510,556 L -510,555 L -511,555 L -511,554 L -512,554 L -513,554 L -514,554 L -514,553 L -515,553 L -516,552 L -517,552 L -517,551 L -518,551 L -518,550 L -519,550 L -519,549 L -520,549 L -520,548 L -521,548 L -521,547 L -521,545 L -519,545 L -518,545 L -516,545 L -514,545 L -513,545 L -513,546 L -512,546 L -511,545 L -510,545 L -509,545 L -508,545 L -507,544 L -506,544 L -505,544 L -504,544 L -503,544 L -502,544 L -501,543 L -500,543 L -499,543 L -498,543 L -497,543 L -496,543 L -495,543 L -494,543 L -493,543 L -492,543 L -491,542 L -490,542 L -489,542 L -488,542 L -488,541 L -487,541 L -486,541 L -485,540 L -484,540 L -483,539 L -483,538 L -482,538 L -481,538 L -480,538 L -479,537 L -478,537 L -477,537 L -476,536 L -475,537 L -474,536 L -473,536 L -472,535 L -471,534 L -470,534 L -470,533 L -469,533 L -468,533 L -468,534 L -467,534 L -467,535 L -466,535 L -466,536 L -465,536 L -464,536 L -464,537 L -464,536 L -463,536 L -463,535 L -462,534 L -461,533 L -462,533 L -462,532 L -461,532 L -461,531 L -461,530 L -460,530 L -459,530 L -459,529 L -458,529 L -458,528 L -457,528 L -457,527 L -456,527 L -456,526 L -455,526 L -455,525 L -454,525 L -453,525 L -452,525 L -452,524 L -451,524 L -450,524 L -445,513 L -437,510 L -431,506 L -426,502 L -417,496 L -413,495 L -405,492 L -400,492 L -390,493 L -383,494 L -377,493 L -373,490 L -369,488 L -364,488 L -362,489 L -361,489 L -359,490 L -358,490 L -357,490 L -357,491 L -356,491 L -355,491 L -352,492 L -330,491 L -329,493 L -326,492 L -325,491 L -322,493 L -319,493 L -317,494 L -316,493 L -313,492 L -311,491 L -310,491 L -308,492 L -307,494 L -305,494 L -304,492 L -302,492 L -301,488 L -303,487 L -303,484 L -302,482 L -301,481 L -300,479 L -301,477 L -300,476 L -297,474 L -294,472 L -294,471 L -293,471 L -290,472 L -288,472 L -287,473 L -286,475 L -287,476 L -286,477 L -284,477 L -283,478 L -280,481 L -279,483 L -277,484 L -274,484 L -273,483 L -273,479 L -271,474 L -270,473 L -251,459 L -248,456 L -248,457 L -246,458 L -243,459 L -240,459 L -232,455 L -231,455 L -229,453 L -222,456 L -220,456 L -220,455 L -217,456 L -215,456 L -214,458 L -213,460 L -212,462 L -212,464 L -212,466 L -211,467 L -208,469 L -207,471 L -205,472 L -204,472 L -204,475 L -204,476 L -203,476 L -202,478 L -200,479 L -198,479 L -197,479 L -197,480 L -197,482 L -198,484 L -198,485 L -198,486 L -198,487 L -198,488 L -198,489 L -198,490 L -198,491 L -196,502 L -197,505 L -201,507 L -202,510 L -201,514 L -198,515 L -196,516 L -194,515 L -192,517 L -187,517 L -185,524 L -186,528 L -187,531 L -186,532 L -185,537 L -184,539 L -180,543 L -178,546 L -177,547 L -176,549 L -173,549 L -169,548 L -168,551 L -167,552 L -167,556 L -167,558 L -166,560 L -170,564 L -169,565 L -169,566 L -169,567 L -170,568 L -171,568 L -171,569 L -172,569 L -172,570 L -173,571 L -175,572 L -176,573 L -177,576 L -176,578 L -175,579 L -176,579 L -178,582 L -183,586 L -183,588 L -183,590 L -186,592 L -189,595 L -191,598 L -198,604 L -200,605 L -202,613 L -211,612 L -214,611 L -217,610 L -219,611 L -225,608 L -233,611 L -240,609 L -247,613 L -250,614 L -261,620 L -268,625 L -272,626 L -274,626 L -282,630 L -292,632 L -296,638 L -299,639 L -305,641 L -312,647 L -313,649 L -321,656 " /></g>
</svg>
