<?xml version="1.0" standalone="no"?><!DOCTYPE svg PUBLIC "-//W3C//DTD SVG 1.1//EN" "http://www.w3.org/Graphics/SVG/1.1/DTD/svg11.dtd"><svg xmlns="http://www.w3.org/2000/svg" viewBox="-316 721 70 54" version = "1.1">
<g id="40504" ><path d="M -304,722 L -277,728 L -263,721 L -261,724 L -260,725 L -258,729 L -257,736 L -258,737 L -259,738 L -260,738 L -260,739 L -261,739 L -261,740 L -262,740 L -261,741 L -261,742 L -261,743 L -260,743 L -261,744 L -261,745 L -261,746 L -260,746 L -260,747 L -260,748 L -260,749 L -260,750 L -259,750 L -259,751 L -259,752 L -258,752 L -258,753 L -257,753 L -257,754 L -258,754 L -257,754 L -257,755 L -258,755 L -257,755 L -257,756 L -258,756 L -258,757 L -257,757 L -258,757 L -257,757 L -257,758 L -256,758 L -257,758 L -256,758 L -256,759 L -257,759 L -256,759 L -256,760 L -255,760 L -255,759 L -255,760 L -255,761 L -254,761 L -253,761 L -253,762 L -252,762 L -251,762 L -251,763 L -250,763 L -249,763 L -249,764 L -248,764 L -247,764 L -246,771 L -247,772 L -247,773 L -248,774 L -248,773 L -249,773 L -250,774 L -251,775 L -252,774 L -254,774 L -255,773 L -256,773 L -259,773 L -262,772 L -264,771 L -268,768 L -269,766 L -271,764 L -273,761 L -278,756 L -283,752 L -291,751 L -297,748 L -299,747 L -303,742 L -305,741 L -307,739 L -310,737 L -312,731 L -316,721 L -304,722 " /></g>
</svg>
