<?xml version="1.0" standalone="no"?><!DOCTYPE svg PUBLIC "-//W3C//DTD SVG 1.1//EN" "http://www.w3.org/Graphics/SVG/1.1/DTD/svg11.dtd"><svg xmlns="http://www.w3.org/2000/svg" viewBox="-312 608 175 153" version = "1.1">
<g id="40502" ><path d="M -202,613 L -189,619 L -182,629 L -178,646 L -180,649 L -179,655 L -177,659 L -174,676 L -172,689 L -157,708 L -145,721 L -139,722 L -139,723 L -138,723 L -137,723 L -137,724 L -137,725 L -137,726 L -138,726 L -138,727 L -138,728 L -138,729 L -138,730 L -138,731 L -138,732 L -138,733 L -138,734 L -139,734 L -139,735 L -139,736 L -139,737 L -140,737 L -140,738 L -141,739 L -155,744 L -164,747 L -185,759 L -191,761 L -209,758 L -217,759 L -220,758 L -228,754 L -228,753 L -229,753 L -229,752 L -229,751 L -230,751 L -230,750 L -231,750 L -231,749 L -232,748 L -233,748 L -233,747 L -233,746 L -234,746 L -234,745 L -234,744 L -235,743 L -235,742 L -235,741 L -236,740 L -237,738 L -236,736 L -237,735 L -237,734 L -237,733 L -238,733 L -238,732 L -239,732 L -240,732 L -241,732 L -242,731 L -243,730 L -244,729 L -245,729 L -245,728 L -246,728 L -246,727 L -247,726 L -247,725 L -248,725 L -248,724 L -248,723 L -249,723 L -250,723 L -248,720 L -243,712 L -242,711 L -233,704 L -231,702 L -231,700 L -232,698 L -232,697 L -233,697 L -233,696 L -233,695 L -234,695 L -234,694 L -234,693 L -235,692 L -235,691 L -236,691 L -236,690 L -236,689 L -236,688 L -237,687 L -236,687 L -236,686 L -237,686 L -237,685 L -238,685 L -238,684 L -239,684 L -239,683 L -240,683 L -240,682 L -240,681 L -241,681 L -241,680 L -242,680 L -242,679 L -242,678 L -242,677 L -243,677 L -243,676 L -243,677 L -244,677 L -245,677 L -246,677 L -247,676 L -248,676 L -249,676 L -249,677 L -250,677 L -251,677 L -252,677 L -253,677 L -254,677 L -255,677 L -256,677 L -257,677 L -258,677 L -259,677 L -260,676 L -261,676 L -262,676 L -263,672 L -263,671 L -263,668 L -265,663 L -272,662 L -277,658 L -280,655 L -281,655 L -284,655 L -286,654 L -288,654 L -289,655 L -290,655 L -290,657 L -291,658 L -294,660 L -297,658 L -297,656 L -297,654 L -295,652 L -295,650 L -295,649 L -297,647 L -300,646 L -302,647 L -306,648 L -307,647 L -312,647 L -305,641 L -299,639 L -296,638 L -292,632 L -282,630 L -274,626 L -272,626 L -268,625 L -261,620 L -250,614 L -247,613 L -240,609 L -233,611 L -225,608 L -219,611 L -217,610 L -214,611 L -211,612 L -202,613 " /></g>
</svg>
