<?xml version="1.0" standalone="no"?><!DOCTYPE svg PUBLIC "-//W3C//DTD SVG 1.1//EN" "http://www.w3.org/Graphics/SVG/1.1/DTD/svg11.dtd"><svg xmlns="http://www.w3.org/2000/svg" viewBox="-327 646 96 82" version = "1.1">
<g id="40503" ><path d="M -297,647 L -295,649 L -295,650 L -295,652 L -297,654 L -297,656 L -297,658 L -294,660 L -291,658 L -290,657 L -290,655 L -289,655 L -288,654 L -286,654 L -284,655 L -281,655 L -280,655 L -277,658 L -272,662 L -265,663 L -263,668 L -263,671 L -263,672 L -262,676 L -261,676 L -260,676 L -259,677 L -258,677 L -257,677 L -256,677 L -255,677 L -254,677 L -253,677 L -252,677 L -251,677 L -250,677 L -249,677 L -249,676 L -248,676 L -247,676 L -246,677 L -245,677 L -244,677 L -243,677 L -243,676 L -243,677 L -242,677 L -242,678 L -242,679 L -242,680 L -241,680 L -241,681 L -240,681 L -240,682 L -240,683 L -239,683 L -239,684 L -238,684 L -238,685 L -237,685 L -237,686 L -236,686 L -236,687 L -237,687 L -236,688 L -236,689 L -236,690 L -236,691 L -235,691 L -235,692 L -234,693 L -234,694 L -234,695 L -233,695 L -233,696 L -233,697 L -232,697 L -232,698 L -231,700 L -231,702 L -233,704 L -242,711 L -243,710 L -244,709 L -245,709 L -246,708 L -247,708 L -248,707 L -248,706 L -249,705 L -250,707 L -251,709 L -252,710 L -253,710 L -253,711 L -254,711 L -254,712 L -255,712 L -255,713 L -256,713 L -257,713 L -258,713 L -258,714 L -258,715 L -259,715 L -260,715 L -261,716 L -262,716 L -263,716 L -264,717 L -264,718 L -265,718 L -265,719 L -264,720 L -264,721 L -263,721 L -277,728 L -304,722 L -316,721 L -321,713 L -322,712 L -325,706 L -323,699 L -325,697 L -326,692 L -327,690 L -326,675 L -324,672 L -323,665 L -319,659 L -319,658 L -320,658 L -320,659 L -321,659 L -321,658 L -321,657 L -321,656 L -313,649 L -312,647 L -307,647 L -306,648 L -302,647 L -300,646 L -297,647 " /></g>
</svg>
