<?xml version="1.0" standalone="no"?><!DOCTYPE svg PUBLIC "-//W3C//DTD SVG 1.1//EN" "http://www.w3.org/Graphics/SVG/1.1/DTD/svg11.dtd"><svg xmlns="http://www.w3.org/2000/svg" viewBox="-265 705 23 19" version = "1.1">
<g id="40501" ><path d="M -250,723 L -251,724 L -252,724 L -253,724 L -253,723 L -254,723 L -255,723 L -255,722 L -257,722 L -263,721 L -264,721 L -264,720 L -265,719 L -265,718 L -264,718 L -264,717 L -263,716 L -262,716 L -261,716 L -260,715 L -259,715 L -258,715 L -258,714 L -258,713 L -257,713 L -256,713 L -255,713 L -255,712 L -254,712 L -254,711 L -253,711 L -253,710 L -252,710 L -251,709 L -250,707 L -249,705 L -248,706 L -248,707 L -247,708 L -246,708 L -245,709 L -244,709 L -243,710 L -242,711 L -243,712 L -248,720 L -250,723 " /></g>
</svg>
