<?xml version="1.0" standalone="no"?><!DOCTYPE svg PUBLIC "-//W3C//DTD SVG 1.1//EN" "http://www.w3.org/Graphics/SVG/1.1/DTD/svg11.dtd"><svg xmlns="http://www.w3.org/2000/svg" viewBox="148 519 113 116" version = "1.1">
<g id="40601" ><path d="M 203,524 L 204,525 L 205,525 L 206,525 L 206,526 L 207,526 L 207,527 L 208,527 L 209,528 L 209,529 L 210,529 L 210,530 L 210,531 L 211,531 L 211,532 L 211,533 L 212,533 L 212,534 L 213,534 L 214,534 L 214,535 L 214,536 L 213,536 L 214,536 L 214,537 L 215,537 L 215,538 L 216,538 L 216,539 L 217,539 L 217,540 L 218,540 L 218,541 L 219,541 L 220,541 L 221,541 L 222,541 L 222,542 L 222,543 L 223,543 L 223,544 L 224,545 L 224,546 L 225,549 L 225,550 L 226,550 L 226,551 L 226,552 L 226,553 L 226,554 L 225,554 L 225,555 L 225,556 L 225,557 L 225,558 L 225,559 L 225,560 L 225,561 L 226,561 L 226,562 L 226,561 L 226,562 L 227,563 L 228,563 L 229,564 L 230,564 L 230,565 L 232,565 L 234,564 L 235,565 L 238,566 L 240,563 L 242,567 L 243,569 L 245,571 L 247,575 L 249,576 L 251,578 L 253,580 L 254,581 L 255,583 L 258,586 L 261,592 L 255,592 L 248,596 L 246,596 L 243,597 L 243,599 L 239,599 L 235,596 L 234,595 L 233,594 L 232,594 L 232,593 L 232,592 L 232,591 L 231,590 L 230,589 L 229,588 L 229,587 L 227,589 L 225,589 L 224,589 L 222,589 L 221,589 L 221,591 L 219,591 L 217,592 L 217,593 L 216,594 L 217,596 L 216,599 L 215,600 L 214,600 L 214,601 L 213,601 L 212,601 L 211,601 L 211,602 L 210,602 L 210,603 L 210,604 L 209,604 L 209,605 L 209,606 L 208,608 L 208,610 L 206,610 L 204,609 L 203,609 L 201,610 L 200,609 L 199,609 L 198,610 L 197,611 L 197,612 L 197,613 L 197,614 L 198,615 L 200,615 L 200,616 L 200,618 L 201,619 L 201,620 L 200,620 L 200,621 L 199,621 L 198,622 L 198,623 L 198,624 L 197,624 L 197,625 L 197,626 L 196,627 L 196,628 L 196,630 L 196,631 L 195,632 L 193,634 L 192,634 L 188,635 L 179,620 L 178,617 L 177,613 L 154,615 L 154,614 L 154,613 L 154,612 L 154,611 L 155,611 L 155,610 L 155,609 L 156,609 L 156,608 L 157,608 L 157,607 L 157,606 L 158,606 L 158,605 L 158,604 L 158,603 L 157,603 L 157,602 L 157,601 L 156,601 L 155,601 L 154,601 L 154,600 L 155,600 L 155,599 L 156,598 L 156,597 L 156,596 L 157,596 L 157,595 L 158,594 L 157,593 L 157,591 L 157,589 L 157,587 L 158,585 L 158,584 L 158,583 L 158,582 L 158,581 L 158,579 L 158,578 L 158,577 L 157,576 L 157,575 L 157,574 L 157,572 L 158,570 L 159,570 L 159,569 L 159,568 L 159,567 L 160,566 L 160,565 L 160,564 L 160,563 L 159,562 L 159,561 L 159,560 L 159,559 L 159,558 L 159,557 L 160,556 L 160,555 L 160,554 L 159,554 L 159,553 L 159,552 L 158,551 L 157,551 L 157,550 L 157,549 L 157,548 L 157,547 L 157,546 L 157,545 L 157,544 L 158,544 L 158,543 L 158,542 L 158,541 L 158,540 L 158,539 L 158,538 L 157,538 L 157,537 L 157,536 L 158,536 L 158,535 L 158,534 L 158,533 L 158,532 L 157,532 L 157,531 L 157,530 L 156,530 L 156,529 L 155,529 L 155,528 L 154,527 L 153,526 L 152,525 L 151,525 L 151,524 L 150,524 L 149,523 L 149,522 L 149,521 L 148,521 L 148,520 L 148,519 L 179,520 L 181,523 L 184,526 L 185,526 L 186,529 L 188,529 L 192,529 L 193,530 L 196,530 L 198,530 L 200,531 L 201,532 L 204,533 L 203,530 L 202,530 L 201,528 L 201,526 L 202,525 L 203,524 " /></g>
</svg>
