<?xml version="1.0" standalone="no"?><!DOCTYPE svg PUBLIC "-//W3C//DTD SVG 1.1//EN" "http://www.w3.org/Graphics/SVG/1.1/DTD/svg11.dtd"><svg xmlns="http://www.w3.org/2000/svg" viewBox="208 587 68 84" version = "1.1">
<g id="40603" ><path d="M 239,599 L 243,599 L 243,597 L 246,596 L 248,596 L 255,592 L 261,592 L 262,592 L 262,593 L 262,594 L 262,597 L 263,598 L 263,599 L 264,600 L 264,601 L 266,604 L 267,606 L 268,607 L 269,608 L 270,610 L 270,612 L 271,614 L 272,615 L 272,617 L 273,618 L 274,620 L 274,621 L 270,625 L 271,628 L 272,630 L 273,633 L 274,637 L 275,638 L 276,639 L 276,641 L 276,642 L 276,643 L 275,644 L 276,645 L 276,646 L 275,648 L 274,648 L 272,649 L 270,650 L 268,652 L 268,655 L 266,656 L 267,658 L 268,660 L 268,661 L 268,663 L 269,665 L 269,669 L 268,670 L 266,670 L 264,669 L 262,670 L 261,670 L 255,671 L 251,668 L 250,668 L 249,668 L 247,668 L 244,668 L 241,667 L 241,665 L 241,664 L 241,662 L 243,659 L 244,656 L 245,654 L 245,652 L 246,649 L 246,648 L 247,647 L 248,647 L 248,646 L 248,645 L 248,644 L 247,643 L 246,642 L 246,641 L 246,640 L 246,639 L 245,639 L 245,638 L 244,638 L 244,637 L 244,636 L 243,636 L 243,635 L 241,635 L 241,634 L 240,634 L 240,633 L 240,632 L 239,632 L 239,630 L 239,629 L 239,628 L 239,627 L 238,626 L 238,625 L 238,624 L 238,623 L 238,622 L 238,621 L 239,620 L 239,619 L 239,618 L 240,617 L 241,617 L 241,616 L 241,615 L 241,614 L 240,613 L 239,613 L 238,613 L 238,614 L 237,614 L 237,615 L 236,615 L 235,615 L 235,614 L 234,614 L 234,615 L 233,615 L 227,613 L 221,612 L 218,612 L 216,612 L 214,613 L 213,612 L 212,611 L 210,611 L 210,612 L 208,610 L 208,608 L 209,606 L 209,605 L 209,604 L 210,604 L 210,603 L 210,602 L 211,602 L 211,601 L 212,601 L 213,601 L 214,601 L 214,600 L 215,600 L 216,599 L 217,596 L 216,594 L 217,593 L 217,592 L 219,591 L 221,591 L 221,589 L 222,589 L 224,589 L 225,589 L 227,589 L 229,587 L 229,588 L 230,589 L 231,590 L 232,591 L 232,592 L 232,593 L 232,594 L 233,594 L 234,595 L 235,596 L 239,599 " /></g>
</svg>
