<?xml version="1.0" standalone="no"?><!DOCTYPE svg PUBLIC "-//W3C//DTD SVG 1.1//EN" "http://www.w3.org/Graphics/SVG/1.1/DTD/svg11.dtd"><svg xmlns="http://www.w3.org/2000/svg" viewBox="93 609 178 106" version = "1.1">
<g id="40602" ><path d="M 93,643 L 94,643 L 94,642 L 95,642 L 96,641 L 97,641 L 99,640 L 99,639 L 100,639 L 101,638 L 102,638 L 103,638 L 104,638 L 104,637 L 105,637 L 105,636 L 106,636 L 106,635 L 107,635 L 107,634 L 108,634 L 109,634 L 110,634 L 111,634 L 112,634 L 113,634 L 114,634 L 115,634 L 116,634 L 117,634 L 118,633 L 119,633 L 120,633 L 120,632 L 121,632 L 123,632 L 126,632 L 128,633 L 129,633 L 132,634 L 135,633 L 137,631 L 138,629 L 140,628 L 142,626 L 142,625 L 143,623 L 145,620 L 146,619 L 149,618 L 150,617 L 154,615 L 177,613 L 178,617 L 179,620 L 188,635 L 192,634 L 193,634 L 195,632 L 196,631 L 196,630 L 196,628 L 196,627 L 197,626 L 197,625 L 197,624 L 198,624 L 198,623 L 198,622 L 199,621 L 200,621 L 200,620 L 201,620 L 201,619 L 200,618 L 200,616 L 200,615 L 198,615 L 197,614 L 197,613 L 197,612 L 197,611 L 198,610 L 199,609 L 200,609 L 201,610 L 203,609 L 204,609 L 206,610 L 208,610 L 210,612 L 210,611 L 212,611 L 213,612 L 214,613 L 216,612 L 218,612 L 221,612 L 227,613 L 233,615 L 234,615 L 234,614 L 235,614 L 235,615 L 236,615 L 237,615 L 237,614 L 238,614 L 238,613 L 239,613 L 240,613 L 241,614 L 241,615 L 241,616 L 241,617 L 240,617 L 239,618 L 239,619 L 239,620 L 238,621 L 238,622 L 238,623 L 238,624 L 238,625 L 238,626 L 239,627 L 239,628 L 239,629 L 239,630 L 239,632 L 240,632 L 240,633 L 240,634 L 241,634 L 241,635 L 243,635 L 243,636 L 244,636 L 244,637 L 244,638 L 245,638 L 245,639 L 246,639 L 246,640 L 246,641 L 246,642 L 247,643 L 248,644 L 248,645 L 248,646 L 248,647 L 247,647 L 246,648 L 246,649 L 245,652 L 245,654 L 244,656 L 243,659 L 241,662 L 241,664 L 241,665 L 241,667 L 244,668 L 247,668 L 249,668 L 250,668 L 251,668 L 255,671 L 261,670 L 262,670 L 264,669 L 266,670 L 268,670 L 269,669 L 270,670 L 271,673 L 271,676 L 271,677 L 271,678 L 270,678 L 269,678 L 268,678 L 267,678 L 267,679 L 266,682 L 266,684 L 266,686 L 266,688 L 265,691 L 265,693 L 265,695 L 266,697 L 266,699 L 267,701 L 267,702 L 266,702 L 265,702 L 265,703 L 264,703 L 263,703 L 263,704 L 262,704 L 262,705 L 261,705 L 261,706 L 260,706 L 260,707 L 259,708 L 259,709 L 258,709 L 258,710 L 258,711 L 258,712 L 257,712 L 257,713 L 257,714 L 256,714 L 255,714 L 255,713 L 254,713 L 254,714 L 253,714 L 252,714 L 252,715 L 251,715 L 251,714 L 251,715 L 251,714 L 250,714 L 249,714 L 249,715 L 248,715 L 248,714 L 247,714 L 247,715 L 247,714 L 246,715 L 245,715 L 239,712 L 236,707 L 236,706 L 237,704 L 238,703 L 238,700 L 239,697 L 239,695 L 237,692 L 236,691 L 236,690 L 236,688 L 236,687 L 237,687 L 237,685 L 237,684 L 236,682 L 236,681 L 236,680 L 235,680 L 235,679 L 234,679 L 233,679 L 232,679 L 231,679 L 230,679 L 229,679 L 228,679 L 227,679 L 225,679 L 224,679 L 223,678 L 222,678 L 222,677 L 221,677 L 221,676 L 220,676 L 219,676 L 219,675 L 218,675 L 218,674 L 217,674 L 216,674 L 216,673 L 215,673 L 214,673 L 213,673 L 212,673 L 210,674 L 209,674 L 208,674 L 208,673 L 207,673 L 207,672 L 206,672 L 205,672 L 203,673 L 201,673 L 200,673 L 173,689 L 169,692 L 163,695 L 157,697 L 151,700 L 147,701 L 145,702 L 143,700 L 142,698 L 139,695 L 137,695 L 134,696 L 132,696 L 131,697 L 130,697 L 130,696 L 130,695 L 129,694 L 129,693 L 128,692 L 128,691 L 127,691 L 127,690 L 125,687 L 123,684 L 121,681 L 119,677 L 112,667 L 106,660 L 100,652 L 93,643 " /></g>
</svg>
