<?xml version="1.0" standalone="no"?><!DOCTYPE svg PUBLIC "-//W3C//DTD SVG 1.1//EN" "http://www.w3.org/Graphics/SVG/1.1/DTD/svg11.dtd"><svg xmlns="http://www.w3.org/2000/svg" viewBox="203 467 130 150" version = "1.1">
<g id="40701" ><path d="M 255,511 L 255,513 L 256,515 L 256,517 L 256,518 L 254,519 L 254,522 L 255,525 L 256,526 L 259,527 L 259,528 L 259,529 L 259,530 L 260,530 L 261,530 L 262,530 L 263,530 L 264,530 L 265,530 L 266,530 L 266,531 L 267,531 L 268,531 L 269,531 L 270,531 L 270,530 L 270,531 L 271,530 L 274,529 L 276,528 L 279,527 L 282,527 L 283,527 L 284,528 L 285,529 L 286,529 L 287,529 L 288,529 L 289,528 L 290,528 L 290,529 L 291,529 L 292,530 L 293,530 L 294,530 L 295,530 L 296,530 L 296,529 L 297,529 L 298,529 L 299,529 L 300,529 L 301,529 L 302,529 L 303,529 L 304,529 L 305,529 L 306,529 L 307,529 L 308,529 L 309,529 L 309,528 L 309,529 L 310,529 L 311,529 L 311,530 L 312,530 L 312,531 L 313,531 L 313,532 L 314,532 L 315,532 L 316,532 L 317,532 L 317,533 L 318,533 L 319,533 L 320,533 L 320,532 L 320,533 L 321,532 L 322,532 L 322,531 L 323,531 L 324,531 L 325,531 L 326,531 L 327,531 L 327,532 L 328,532 L 329,532 L 330,532 L 331,532 L 332,532 L 332,533 L 333,533 L 333,534 L 333,535 L 332,535 L 332,536 L 332,537 L 331,537 L 331,538 L 331,539 L 330,539 L 330,538 L 329,538 L 329,539 L 329,540 L 328,540 L 328,539 L 328,538 L 327,538 L 327,539 L 327,540 L 327,541 L 326,541 L 326,540 L 326,541 L 325,541 L 325,542 L 324,542 L 323,542 L 322,542 L 321,542 L 320,542 L 320,543 L 319,543 L 318,543 L 317,543 L 316,543 L 315,543 L 313,544 L 309,544 L 308,544 L 308,543 L 307,543 L 306,543 L 305,543 L 304,543 L 303,543 L 303,544 L 302,544 L 301,545 L 300,545 L 299,546 L 298,546 L 297,546 L 297,545 L 297,546 L 296,546 L 295,546 L 295,547 L 294,547 L 294,548 L 293,548 L 292,548 L 291,548 L 290,548 L 289,548 L 288,548 L 287,551 L 286,552 L 282,555 L 274,558 L 272,560 L 270,561 L 265,563 L 270,571 L 270,575 L 270,576 L 273,580 L 274,582 L 275,585 L 276,586 L 275,588 L 275,590 L 276,592 L 276,595 L 277,597 L 279,604 L 281,607 L 281,608 L 280,608 L 280,609 L 280,610 L 281,611 L 278,613 L 278,614 L 277,615 L 276,615 L 275,615 L 274,616 L 273,616 L 273,617 L 272,617 L 272,615 L 271,614 L 270,612 L 270,610 L 269,608 L 268,607 L 267,606 L 266,604 L 264,601 L 264,600 L 263,599 L 263,598 L 262,597 L 262,594 L 262,593 L 262,592 L 261,592 L 258,586 L 255,583 L 254,581 L 253,580 L 251,578 L 249,576 L 247,575 L 245,571 L 243,569 L 242,567 L 240,563 L 238,566 L 235,565 L 234,564 L 232,565 L 230,565 L 230,564 L 229,564 L 228,563 L 227,563 L 226,562 L 226,561 L 226,562 L 226,561 L 225,561 L 225,560 L 225,559 L 225,558 L 225,557 L 225,556 L 225,555 L 225,554 L 226,554 L 226,553 L 226,552 L 226,551 L 226,550 L 225,550 L 225,549 L 224,546 L 224,545 L 223,544 L 223,543 L 222,543 L 222,542 L 222,541 L 221,541 L 220,541 L 219,541 L 218,541 L 218,540 L 217,540 L 217,539 L 216,539 L 216,538 L 215,538 L 215,537 L 214,537 L 214,536 L 213,536 L 214,536 L 214,535 L 214,534 L 213,534 L 212,534 L 212,533 L 211,533 L 211,532 L 211,531 L 210,531 L 210,530 L 210,529 L 209,529 L 209,528 L 208,527 L 207,527 L 207,526 L 206,526 L 206,525 L 205,525 L 204,525 L 203,524 L 204,523 L 205,523 L 205,522 L 206,522 L 209,520 L 209,519 L 210,517 L 212,516 L 217,514 L 220,513 L 221,512 L 223,512 L 227,512 L 226,507 L 227,505 L 226,503 L 221,500 L 217,496 L 216,494 L 214,490 L 213,486 L 212,482 L 212,479 L 212,474 L 214,472 L 220,472 L 224,471 L 225,470 L 226,468 L 226,467 L 227,467 L 228,467 L 229,468 L 230,470 L 231,470 L 231,471 L 231,472 L 230,472 L 230,473 L 231,473 L 230,474 L 230,475 L 230,476 L 231,477 L 231,478 L 232,479 L 233,480 L 234,480 L 234,481 L 235,482 L 235,483 L 236,487 L 238,488 L 242,491 L 243,493 L 244,493 L 245,494 L 246,495 L 247,496 L 248,500 L 251,503 L 252,504 L 252,505 L 253,505 L 254,505 L 255,506 L 255,507 L 255,509 L 255,511 " /></g>
</svg>
