<?xml version="1.0" standalone="no"?><!DOCTYPE svg PUBLIC "-//W3C//DTD SVG 1.1//EN" "http://www.w3.org/Graphics/SVG/1.1/DTD/svg11.dtd"><svg xmlns="http://www.w3.org/2000/svg" viewBox="-190 802 307 280" version = "1.1">
<g id="40801" ><path d="M -16,1082 L -17,1082 L -17,1081 L -17,1080 L -18,1080 L -18,1079 L -19,1079 L -20,1078 L -21,1078 L -22,1078 L -23,1078 L -24,1078 L -25,1078 L -26,1077 L -27,1076 L -27,1075 L -28,1075 L -29,1075 L -29,1074 L -30,1074 L -31,1074 L -31,1073 L -32,1073 L -38,1069 L -42,1068 L -48,1066 L -52,1064 L -65,1057 L -65,1058 L -65,1059 L -65,1060 L -66,1061 L -66,1062 L -67,1062 L -67,1063 L -68,1063 L -69,1063 L -70,1063 L -71,1064 L -72,1064 L -72,1063 L -73,1062 L -74,1061 L -75,1060 L -76,1059 L -77,1059 L -77,1058 L -78,1057 L -79,1058 L -80,1057 L -79,1056 L -79,1055 L -87,1056 L -88,1056 L -94,1057 L -100,1057 L -109,1052 L -114,1044 L -118,1041 L -119,1041 L -127,1039 L -132,1034 L -139,1031 L -142,1031 L -147,1030 L -147,1029 L -151,1022 L -157,1015 L -161,1010 L -166,1002 L -169,998 L -171,994 L -173,993 L -174,992 L -177,991 L -178,990 L -179,989 L -179,988 L -180,988 L -180,987 L -180,986 L -180,985 L -181,985 L -181,984 L -182,984 L -183,984 L -184,983 L -185,983 L -186,982 L -187,982 L -187,981 L -188,981 L -190,978 L -189,978 L -189,977 L -188,977 L -188,976 L -187,975 L -186,974 L -186,973 L -185,973 L -184,973 L -184,972 L -183,972 L -183,971 L -182,970 L -182,969 L -181,968 L -180,967 L -180,966 L -179,966 L -178,966 L -177,966 L -177,965 L -176,965 L -175,965 L -174,965 L -173,965 L -172,965 L -172,964 L -171,964 L -170,964 L -169,964 L -168,964 L -168,963 L -169,963 L -169,962 L -168,962 L -167,962 L -166,962 L -165,961 L -164,961 L -163,961 L -163,960 L -162,960 L -161,960 L -162,947 L -161,886 L -161,885 L -162,884 L -163,884 L -163,883 L -162,883 L -161,882 L -161,881 L -161,880 L -161,879 L -161,878 L -161,877 L -161,876 L -161,875 L -161,874 L -161,873 L -161,872 L -161,871 L -161,870 L -161,869 L -161,868 L -162,868 L -162,867 L -162,866 L -163,865 L -162,864 L -162,863 L -162,862 L -162,861 L -161,860 L -161,859 L -161,858 L -161,857 L -160,856 L -160,855 L -159,855 L -159,854 L -159,853 L -159,852 L -158,852 L -158,851 L -159,851 L -160,851 L -159,851 L -159,850 L -158,849 L -159,849 L -159,850 L -160,850 L -160,849 L -161,849 L -161,848 L -161,847 L -162,847 L -162,846 L -163,846 L -164,845 L -165,845 L -166,844 L -166,843 L -167,843 L -167,842 L -167,841 L -167,840 L -168,839 L -168,838 L -169,837 L -171,837 L -172,836 L -171,835 L -172,835 L -173,834 L -174,834 L -174,833 L -174,832 L -173,831 L -172,831 L -172,830 L -171,829 L -171,828 L -171,827 L -170,826 L -169,826 L -168,826 L -167,826 L -166,826 L -166,827 L -165,827 L -164,827 L -163,827 L -162,826 L -161,826 L -160,826 L -159,826 L -158,826 L -157,826 L -157,825 L -156,825 L -155,825 L -154,825 L -154,824 L -153,824 L -153,823 L -152,823 L -151,823 L -151,822 L -150,822 L -149,822 L -148,822 L -148,821 L -147,821 L -146,821 L -145,821 L -140,818 L -134,816 L -131,809 L -127,806 L -125,804 L -122,803 L -120,802 L -119,802 L -118,802 L -118,803 L -119,803 L -119,804 L -118,804 L -117,805 L -117,804 L -116,804 L -115,803 L -114,803 L -113,803 L -112,803 L -111,804 L -110,805 L -108,807 L -106,808 L -104,809 L -102,809 L -101,809 L -101,808 L -100,808 L -100,809 L -99,809 L -99,808 L -98,808 L -97,808 L -95,808 L -95,809 L -94,809 L -94,810 L -92,811 L -90,811 L -89,811 L -87,810 L -86,810 L -84,809 L -82,809 L -79,809 L -77,809 L -77,810 L -77,811 L -76,812 L -75,813 L -75,814 L -73,815 L -70,817 L -62,820 L -61,820 L -60,820 L -59,820 L -58,819 L -57,819 L -57,818 L -56,818 L -55,817 L -55,816 L -54,816 L -53,816 L -52,816 L -51,816 L -51,815 L -51,814 L -51,813 L -50,813 L -49,813 L -48,813 L -48,812 L -47,812 L -47,811 L -47,810 L -46,810 L -46,809 L -45,808 L -45,809 L -44,809 L -44,808 L -43,808 L -42,808 L -42,809 L -41,809 L -41,808 L -40,808 L -39,808 L -39,809 L -39,810 L -38,810 L -38,811 L -38,812 L -37,812 L -37,813 L -36,813 L -36,814 L -35,814 L -35,815 L -34,815 L -34,816 L -33,816 L -33,817 L -32,817 L -31,817 L -30,817 L -29,817 L -28,816 L -27,816 L -26,816 L -25,816 L -24,816 L -23,816 L -23,815 L -22,815 L -22,814 L -21,813 L -21,812 L -20,812 L -20,811 L -19,810 L -18,810 L -17,809 L -16,808 L -15,808 L -15,807 L -14,807 L -13,807 L -12,806 L -11,806 L -11,805 L -10,805 L -9,805 L -9,804 L -8,804 L -7,804 L -7,803 L -6,803 L -5,803 L -5,804 L -4,804 L -3,804 L -2,803 L -2,804 L -1,804 L 0,804 L 1,804 L 2,805 L 3,805 L 3,806 L 4,806 L 4,805 L 5,805 L 6,805 L 7,805 L 8,804 L 9,804 L 10,804 L 11,804 L 12,804 L 13,804 L 14,805 L 15,805 L 16,806 L 17,806 L 18,806 L 19,806 L 20,806 L 21,806 L 22,806 L 23,806 L 23,805 L 24,805 L 25,804 L 26,804 L 27,804 L 28,804 L 29,804 L 30,804 L 31,803 L 32,803 L 33,804 L 34,803 L 35,803 L 36,803 L 37,803 L 37,804 L 38,804 L 39,805 L 40,805 L 41,805 L 43,805 L 44,805 L 45,805 L 46,805 L 47,806 L 48,806 L 49,806 L 50,806 L 51,806 L 52,806 L 54,806 L 55,807 L 56,807 L 56,808 L 57,808 L 58,809 L 60,810 L 61,810 L 61,811 L 62,811 L 62,812 L 62,813 L 62,814 L 62,815 L 61,815 L 61,816 L 61,817 L 60,818 L 59,818 L 59,819 L 59,820 L 58,820 L 58,821 L 57,821 L 57,822 L 56,823 L 55,824 L 54,825 L 54,826 L 54,827 L 53,828 L 53,829 L 53,830 L 51,832 L 50,833 L 49,834 L 49,835 L 49,836 L 49,837 L 49,838 L 50,838 L 50,839 L 50,840 L 50,841 L 50,842 L 50,843 L 50,844 L 49,844 L 49,845 L 50,845 L 50,846 L 49,847 L 49,848 L 48,848 L 48,849 L 48,850 L 49,852 L 50,852 L 50,853 L 51,854 L 50,855 L 50,856 L 51,857 L 52,858 L 53,858 L 54,857 L 55,857 L 56,856 L 57,857 L 57,858 L 57,859 L 56,860 L 54,861 L 54,862 L 54,863 L 55,863 L 55,864 L 56,864 L 57,864 L 58,865 L 59,865 L 60,865 L 62,864 L 63,865 L 64,865 L 65,866 L 66,866 L 66,867 L 67,868 L 68,868 L 70,869 L 72,867 L 75,867 L 76,867 L 79,868 L 80,868 L 82,869 L 83,870 L 85,874 L 86,874 L 87,874 L 87,875 L 88,875 L 89,875 L 89,876 L 89,877 L 90,878 L 89,878 L 89,879 L 90,879 L 91,880 L 92,880 L 93,881 L 93,882 L 93,883 L 93,884 L 94,884 L 94,885 L 95,884 L 96,885 L 97,885 L 98,885 L 98,886 L 98,887 L 97,887 L 97,888 L 98,888 L 98,889 L 99,890 L 100,891 L 101,892 L 102,892 L 103,892 L 104,892 L 105,892 L 106,892 L 107,893 L 107,894 L 107,895 L 108,895 L 108,896 L 109,896 L 109,897 L 109,896 L 109,897 L 110,897 L 111,897 L 112,897 L 112,898 L 112,897 L 112,898 L 112,899 L 113,899 L 114,900 L 115,901 L 116,902 L 117,902 L 117,903 L 117,904 L 117,905 L 117,906 L 116,906 L 116,907 L 115,907 L 114,907 L 113,908 L 112,908 L 111,908 L 110,909 L 109,909 L 108,909 L 108,910 L 107,910 L 106,911 L 105,911 L 103,912 L 102,912 L 101,912 L 101,913 L 102,915 L 102,918 L 103,921 L 102,921 L 101,921 L 101,922 L 100,922 L 100,923 L 99,923 L 99,924 L 98,924 L 98,925 L 100,927 L 100,928 L 100,929 L 102,931 L 104,935 L 103,935 L 103,934 L 102,934 L 101,933 L 99,933 L 97,932 L 96,931 L 95,931 L 94,931 L 93,931 L 92,931 L 92,930 L 92,931 L 92,930 L 91,930 L 90,930 L 89,930 L 88,930 L 88,929 L 87,929 L 86,929 L 85,929 L 84,929 L 84,930 L 84,931 L 84,932 L 85,932 L 85,933 L 86,933 L 86,934 L 86,935 L 86,936 L 87,936 L 87,935 L 87,936 L 87,937 L 87,938 L 88,939 L 88,940 L 88,941 L 89,941 L 90,941 L 90,942 L 91,942 L 91,943 L 92,943 L 93,943 L 93,944 L 94,944 L 94,945 L 95,946 L 96,946 L 97,946 L 98,947 L 99,947 L 98,948 L 99,949 L 98,949 L 99,949 L 99,950 L 98,950 L 98,951 L 98,952 L 97,952 L 96,952 L 96,953 L 95,954 L 95,955 L 96,955 L 96,956 L 97,956 L 97,957 L 97,958 L 97,959 L 97,960 L 97,961 L 98,962 L 97,962 L 98,962 L 98,963 L 98,964 L 99,964 L 98,964 L 97,965 L 98,967 L 99,970 L 101,971 L 101,972 L 101,973 L 100,973 L 100,974 L 99,974 L 99,975 L 98,975 L 97,975 L 97,976 L 97,977 L 97,978 L 97,979 L 96,979 L 97,979 L 97,980 L 97,981 L 98,982 L 99,982 L 99,983 L 100,983 L 100,984 L 101,984 L 102,985 L 103,985 L 103,986 L 104,986 L 104,987 L 105,988 L 105,989 L 105,990 L 106,990 L 106,991 L 106,992 L 105,992 L 104,992 L 104,993 L 104,994 L 104,995 L 105,995 L 105,996 L 104,996 L 104,997 L 104,998 L 104,999 L 103,999 L 103,1000 L 103,1001 L 103,1002 L 103,1003 L 104,1003 L 104,1004 L 104,1005 L 105,1005 L 105,1006 L 105,1007 L 105,1008 L 105,1009 L 105,1010 L 104,1010 L 104,1011 L 103,1011 L 103,1012 L 102,1012 L 102,1013 L 103,1013 L 103,1014 L 102,1014 L 101,1014 L 101,1015 L 100,1015 L 99,1016 L 98,1016 L 98,1017 L 97,1017 L 96,1017 L 95,1017 L 94,1017 L 93,1017 L 92,1017 L 92,1018 L 91,1018 L 90,1018 L 89,1018 L 89,1019 L 88,1019 L 88,1020 L 88,1021 L 88,1022 L 88,1023 L 88,1024 L 88,1025 L 88,1026 L 87,1026 L 87,1027 L 86,1027 L 86,1028 L 85,1029 L 85,1030 L 84,1030 L 84,1031 L 84,1032 L 84,1033 L 83,1034 L 83,1035 L 83,1036 L 82,1036 L 82,1037 L 78,1040 L 77,1042 L 77,1041 L 77,1040 L 76,1039 L 75,1039 L 75,1038 L 74,1038 L 73,1038 L 73,1037 L 73,1036 L 72,1036 L 71,1036 L 70,1036 L 69,1035 L 68,1034 L 67,1035 L 66,1034 L 65,1034 L 65,1033 L 64,1033 L 64,1032 L 63,1032 L 62,1031 L 62,1030 L 61,1030 L 61,1029 L 60,1029 L 59,1028 L 58,1027 L 57,1027 L 56,1027 L 55,1026 L 54,1026 L 53,1026 L 52,1025 L 51,1025 L 50,1025 L 49,1025 L 48,1024 L 47,1024 L 45,1024 L 44,1024 L 43,1024 L 42,1025 L 41,1025 L 40,1025 L 39,1025 L 38,1025 L 37,1025 L 36,1025 L 35,1025 L 34,1025 L 33,1024 L 32,1024 L 31,1024 L 30,1024 L 29,1024 L 28,1024 L 27,1023 L 26,1023 L 25,1023 L 24,1022 L 23,1022 L 22,1022 L 21,1022 L 20,1021 L 19,1021 L 18,1021 L 17,1021 L 16,1021 L 15,1021 L 14,1021 L 13,1021 L 12,1021 L 11,1022 L 10,1022 L 9,1022 L 8,1023 L 7,1023 L 7,1024 L 6,1024 L 5,1024 L 4,1024 L 3,1024 L 2,1024 L 1,1025 L 0,1025 L -1,1025 L -2,1025 L -3,1025 L -4,1025 L -5,1025 L -6,1025 L -6,1024 L -6,1025 L -7,1024 L -8,1024 L -9,1024 L -9,1025 L -10,1025 L -11,1025 L -12,1025 L -13,1025 L -14,1025 L -14,1026 L -15,1027 L -16,1028 L -16,1029 L -17,1029 L -16,1030 L -16,1031 L -16,1032 L -16,1033 L -16,1034 L -16,1035 L -15,1035 L -15,1036 L -15,1037 L -16,1037 L -15,1038 L -15,1039 L -15,1040 L -15,1041 L -15,1042 L -14,1042 L -14,1043 L -13,1043 L -13,1042 L -13,1043 L -12,1043 L -12,1044 L -12,1045 L -13,1045 L -13,1046 L -13,1045 L -14,1045 L -14,1046 L -13,1046 L -12,1046 L -13,1046 L -12,1047 L -12,1048 L -11,1048 L -11,1049 L -11,1048 L -11,1047 L -11,1048 L -10,1048 L -9,1048 L -9,1049 L -9,1048 L -8,1048 L -8,1049 L -8,1048 L -9,1048 L -9,1047 L -8,1047 L -8,1048 L -7,1048 L -7,1049 L -6,1049 L -6,1048 L -5,1048 L -5,1047 L -5,1048 L -5,1049 L -5,1050 L -4,1050 L -4,1051 L -5,1051 L -5,1052 L -6,1052 L -6,1053 L -7,1053 L -7,1054 L -8,1054 L -8,1055 L -8,1056 L -8,1057 L -7,1057 L -7,1058 L -7,1059 L -7,1060 L -6,1060 L -6,1061 L -5,1061 L -5,1062 L -4,1062 L -4,1063 L -3,1063 L -2,1063 L -3,1063 L -3,1064 L -2,1065 L -1,1065 L 0,1065 L 0,1064 L 0,1063 L 0,1064 L 0,1065 L -1,1065 L -1,1066 L -1,1065 L -2,1065 L -2,1066 L -3,1066 L -3,1067 L -3,1068 L -2,1068 L -2,1069 L -2,1070 L -3,1070 L -4,1070 L -4,1071 L -5,1071 L -6,1071 L -6,1072 L -6,1073 L -6,1074 L -7,1074 L -7,1075 L -8,1075 L -9,1075 L -10,1075 L -11,1075 L -12,1075 L -12,1076 L -12,1075 L -13,1076 L -13,1077 L -14,1077 L -14,1078 L -14,1079 L -14,1080 L -15,1080 L -15,1081 L -15,1082 L -16,1082 " /></g>
</svg>
