<?xml version="1.0" standalone="no"?><!DOCTYPE svg PUBLIC "-//W3C//DTD SVG 1.1//EN" "http://www.w3.org/Graphics/SVG/1.1/DTD/svg11.dtd"><svg xmlns="http://www.w3.org/2000/svg" viewBox="0 0 182 936" version = "1.1">
<g id="40802" ><path d="M 170,850 L 170,854 L 170,858 L 171,859 L 171,860 L 171,861 L 172,861 L 171,861 L 171,862 L 170,863 L 170,864 L 171,867 L 171,870 L 169,872 L 169,873 L 169,874 L 170,874 L 171,874 L 171,875 L 172,876 L 173,876 L 173,877 L 174,877 L 174,878 L 175,878 L 176,879 L 177,879 L 178,880 L 178,881 L 178,882 L 178,883 L 178,884 L 177,885 L 177,886 L 177,887 L 177,888 L 177,889 L 177,890 L 177,891 L 177,892 L 177,893 L 176,893 L 176,894 L 176,895 L 177,895 L 177,896 L 177,897 L 176,897 L 176,898 L 177,898 L 177,899 L 178,899 L 178,900 L 179,900 L 178,901 L 178,902 L 178,903 L 178,904 L 177,904 L 177,905 L 176,906 L 175,908 L 174,908 L 174,909 L 174,910 L 174,911 L 173,912 L 172,911 L 171,910 L 170,909 L 169,909 L 168,909 L 167,909 L 166,909 L 165,909 L 164,910 L 163,910 L 162,910 L 162,911 L 161,911 L 161,912 L 160,913 L 159,913 L 159,912 L 158,912 L 157,912 L 157,911 L 157,910 L 156,910 L 156,909 L 155,909 L 155,910 L 154,910 L 153,910 L 153,911 L 152,910 L 151,909 L 151,908 L 150,908 L 150,907 L 149,906 L 149,905 L 148,905 L 147,905 L 147,904 L 146,905 L 145,906 L 145,907 L 145,908 L 145,909 L 145,910 L 144,911 L 144,912 L 143,913 L 142,914 L 142,915 L 142,916 L 141,916 L 140,917 L 140,918 L 140,919 L 139,920 L 139,921 L 139,922 L 138,922 L 138,923 L 137,923 L 136,923 L 135,924 L 134,924 L 132,924 L 131,924 L 131,925 L 130,925 L 129,925 L 127,926 L 126,926 L 125,927 L 124,928 L 121,930 L 121,931 L 120,932 L 119,932 L 119,933 L 118,933 L 117,933 L 116,933 L 116,934 L 115,934 L 114,934 L 113,934 L 112,935 L 111,935 L 110,935 L 110,936 L 108,935 L 107,935 L 106,935 L 105,935 L 104,935 L 102,931 L 100,929 L 100,928 L 100,927 L 98,925 L 98,924 L 99,924 L 99,923 L 100,923 L 100,922 L 101,922 L 101,921 L 102,921 L 103,921 L 102,918 L 102,915 L 101,913 L 101,912 L 102,912 L 103,912 L 105,911 L 106,911 L 107,910 L 108,910 L 108,909 L 109,909 L 110,909 L 111,908 L 112,908 L 113,908 L 114,907 L 115,907 L 116,907 L 116,906 L 117,906 L 117,905 L 117,904 L 117,903 L 117,902 L 116,902 L 115,901 L 114,900 L 113,899 L 112,899 L 112,898 L 112,897 L 112,898 L 112,897 L 111,897 L 110,897 L 109,897 L 109,896 L 109,897 L 109,896 L 108,896 L 108,895 L 107,895 L 107,894 L 107,893 L 106,892 L 105,892 L 104,892 L 103,892 L 102,892 L 101,892 L 100,891 L 99,890 L 98,889 L 98,888 L 97,888 L 97,887 L 98,887 L 98,886 L 98,885 L 97,885 L 96,885 L 95,884 L 94,885 L 94,884 L 93,884 L 93,883 L 93,882 L 93,881 L 92,880 L 91,880 L 90,879 L 89,879 L 89,878 L 90,878 L 89,877 L 89,876 L 89,875 L 88,875 L 87,875 L 87,874 L 86,874 L 85,874 L 83,870 L 82,869 L 80,868 L 79,868 L 76,867 L 75,867 L 72,867 L 70,869 L 68,868 L 67,868 L 66,867 L 66,866 L 65,866 L 64,865 L 63,865 L 62,864 L 60,865 L 59,865 L 58,865 L 57,864 L 56,864 L 55,864 L 55,863 L 54,863 L 54,862 L 54,861 L 56,860 L 57,859 L 57,858 L 57,857 L 56,856 L 55,857 L 54,857 L 53,858 L 52,858 L 51,857 L 50,856 L 50,855 L 51,854 L 50,853 L 50,852 L 49,852 L 48,850 L 48,849 L 48,848 L 49,848 L 49,847 L 50,846 L 50,845 L 49,845 L 49,844 L 50,844 L 50,843 L 50,842 L 50,841 L 50,840 L 50,839 L 50,838 L 49,838 L 49,837 L 49,836 L 49,835 L 49,834 L 50,833 L 51,832 L 53,830 L 53,829 L 53,828 L 54,827 L 54,826 L 54,825 L 55,824 L 56,823 L 57,822 L 57,821 L 58,821 L 58,820 L 59,820 L 59,819 L 59,818 L 60,818 L 61,817 L 61,816 L 61,815 L 62,815 L 62,814 L 62,813 L 62,812 L 62,811 L 63,811 L 64,811 L 66,811 L 69,812 L 71,812 L 71,813 L 72,814 L 73,815 L 74,815 L 74,816 L 74,817 L 75,818 L 76,818 L 77,819 L 77,820 L 78,820 L 79,820 L 82,818 L 83,818 L 85,819 L 92,817 L 94,817 L 96,816 L 98,816 L 101,814 L 107,815 L 111,815 L 113,817 L 119,812 L 120,813 L 120,814 L 126,813 L 128,813 L 131,810 L 136,809 L 142,810 L 150,815 L 157,815 L 160,815 L 165,815 L 171,815 L 175,815 L 180,816 L 182,816 L 182,817 L 182,818 L 182,819 L 182,821 L 181,822 L 180,825 L 180,828 L 179,831 L 175,838 L 173,840 L 172,842 L 170,846 L 170,848 L 170,849 L 170,850 " /></g></g></g><!-- QGIS extent for clipping, eg in Inkscape -->
</svg>
