<?xml version="1.0" standalone="no"?><!DOCTYPE svg PUBLIC "-//W3C//DTD SVG 1.1//EN" "http://www.w3.org/Graphics/SVG/1.1/DTD/svg11.dtd"><svg xmlns="http://www.w3.org/2000/svg" viewBox="-320 851 159 140" version = "1.1">
<g id="40902" ><path d="M -300,930 L -299,930 L -299,926 L -297,925 L -296,925 L -296,924 L -311,909 L -312,908 L -319,903 L -319,902 L -319,901 L -318,900 L -318,899 L -318,898 L -319,898 L -319,897 L -318,897 L -318,896 L -319,897 L -319,896 L -320,896 L -319,896 L -319,895 L -319,894 L -319,893 L -319,892 L -319,891 L -318,890 L -317,890 L -316,890 L -315,890 L -314,891 L -313,891 L -313,890 L -313,889 L -314,889 L -315,889 L -315,888 L -316,888 L -316,887 L -317,887 L -317,886 L -317,885 L -318,885 L -318,884 L -317,884 L -316,884 L -316,885 L -315,885 L -315,886 L -314,886 L -314,885 L -315,885 L -314,885 L -314,884 L -313,884 L -313,883 L -312,883 L -313,882 L -313,883 L -313,882 L -312,882 L -313,882 L -313,881 L -312,881 L -313,881 L -312,881 L -312,880 L -312,879 L -312,878 L -312,879 L -312,878 L -311,878 L -311,879 L -310,879 L -311,879 L -310,879 L -310,878 L -310,877 L -310,876 L -309,876 L -309,877 L -310,877 L -310,878 L -309,878 L -309,877 L -308,877 L -309,877 L -309,876 L -309,875 L -308,875 L -307,875 L -308,874 L -307,874 L -307,875 L -307,876 L -306,876 L -305,876 L -306,876 L -306,875 L -306,874 L -307,874 L -306,874 L -306,873 L -305,873 L -305,872 L -305,873 L -304,873 L -304,872 L -303,872 L -303,873 L -303,874 L -302,874 L -302,875 L -302,874 L -301,874 L -302,874 L -302,873 L -303,873 L -303,872 L -302,872 L -301,872 L -302,872 L -301,872 L -301,871 L -300,871 L -299,871 L -299,872 L -298,872 L -298,871 L -297,871 L -297,870 L -296,870 L -295,870 L -295,869 L -294,869 L -293,869 L -292,869 L -292,868 L -291,868 L -290,868 L -289,867 L -288,867 L -288,866 L -287,866 L -286,866 L -286,865 L -285,865 L -285,864 L -284,864 L -284,863 L -284,862 L -285,861 L -286,861 L -286,860 L -287,860 L -287,859 L -287,858 L -287,857 L -287,856 L -286,856 L -285,856 L -285,855 L -284,855 L -284,854 L -283,854 L -283,853 L -282,853 L -281,853 L -281,852 L -280,852 L -280,851 L -279,851 L -278,851 L -277,851 L -276,852 L -276,851 L -275,851 L -274,851 L -273,851 L -273,852 L -272,852 L -271,851 L -271,852 L -270,852 L -269,852 L -268,852 L -268,853 L -267,853 L -266,853 L -265,853 L -265,852 L -264,852 L -263,852 L -262,852 L -261,852 L -260,852 L -260,851 L -259,851 L -258,851 L -257,851 L -256,851 L -255,851 L -254,851 L -253,851 L -252,851 L -251,851 L -250,851 L -249,851 L -248,851 L -247,851 L -246,851 L -245,851 L -242,853 L -239,857 L -235,862 L -232,865 L -231,868 L -229,872 L -229,875 L -227,877 L -224,879 L -221,879 L -217,879 L -213,880 L -210,879 L -207,878 L -203,878 L -200,878 L -197,879 L -193,881 L -190,881 L -186,881 L -183,880 L -181,879 L -180,879 L -177,879 L -176,879 L -174,880 L -173,880 L -172,881 L -170,883 L -168,884 L -164,885 L -163,884 L -162,884 L -161,885 L -161,886 L -162,947 L -161,960 L -162,960 L -163,960 L -163,961 L -164,961 L -165,961 L -166,962 L -167,962 L -168,962 L -169,962 L -169,963 L -168,963 L -168,964 L -169,964 L -170,964 L -171,964 L -172,964 L -172,965 L -173,965 L -174,965 L -175,965 L -176,965 L -177,965 L -177,966 L -178,966 L -179,966 L -180,966 L -180,967 L -181,968 L -182,969 L -182,970 L -183,971 L -183,972 L -184,972 L -184,973 L -185,973 L -186,973 L -186,974 L -187,975 L -188,976 L -188,977 L -189,977 L -189,978 L -190,978 L -190,979 L -191,980 L -191,981 L -191,982 L -192,982 L -192,983 L -193,983 L -194,983 L -195,983 L -196,983 L -196,982 L -197,982 L -197,983 L -198,983 L -199,983 L -199,984 L -198,984 L -199,984 L -199,985 L -200,985 L -201,985 L -202,985 L -202,986 L -203,986 L -203,987 L -204,987 L -205,987 L -206,987 L -207,987 L -208,987 L -209,988 L -210,988 L -211,989 L -212,990 L -213,990 L -214,990 L -215,991 L -216,991 L -217,991 L -216,991 L -216,990 L -217,989 L -217,988 L -218,988 L -218,987 L -219,987 L -219,986 L -220,986 L -221,986 L -222,986 L -223,986 L -224,985 L -224,986 L -225,986 L -225,985 L -226,985 L -227,985 L -227,984 L -228,984 L -228,983 L -229,983 L -229,982 L -230,982 L -230,981 L -230,980 L -230,981 L -231,981 L -232,981 L -232,980 L -232,981 L -233,981 L -233,980 L -234,980 L -234,981 L -235,981 L -235,980 L -236,979 L -236,980 L -237,979 L -238,979 L -238,978 L -238,977 L -239,977 L -239,976 L -239,975 L -240,975 L -241,975 L -241,974 L -242,974 L -243,974 L -244,974 L -245,974 L -246,974 L -246,973 L -247,973 L -248,973 L -248,972 L -249,971 L -250,971 L -251,971 L -251,970 L -252,970 L -253,970 L -254,970 L -255,970 L -256,970 L -256,969 L -257,969 L -258,969 L -259,968 L -260,967 L -260,966 L -259,966 L -258,966 L -258,965 L -257,965 L -257,964 L -257,963 L -257,962 L -258,962 L -258,961 L -259,961 L -260,961 L -261,961 L -262,961 L -263,961 L -264,961 L -265,961 L -266,961 L -266,960 L -267,960 L -268,959 L -269,959 L -270,959 L -271,958 L -272,958 L -273,958 L -274,958 L -275,959 L -275,960 L -276,960 L -276,959 L -277,959 L -278,959 L -278,960 L -278,959 L -279,959 L -280,958 L -280,957 L -281,957 L -282,956 L -283,955 L -284,954 L -285,954 L -286,953 L -287,953 L -287,952 L -288,952 L -288,951 L -289,951 L -289,950 L -290,950 L -290,949 L -291,949 L -291,948 L -292,948 L -292,947 L -293,947 L -293,946 L -294,945 L -294,944 L -295,944 L -295,943 L -296,943 L -296,942 L -296,941 L -296,940 L -297,940 L -297,939 L -298,938 L -298,937 L -299,937 L -299,936 L -299,935 L -299,934 L -299,933 L -298,933 L -299,932 L -300,932 L -301,932 L -302,931 L -303,931 L -302,931 L -302,930 L -301,930 L -300,930 " /></g>
</svg>
