<?xml version="1.0" standalone="no"?><!DOCTYPE svg PUBLIC "-//W3C//DTD SVG 1.1//EN" "http://www.w3.org/Graphics/SVG/1.1/DTD/svg11.dtd"><svg xmlns="http://www.w3.org/2000/svg" viewBox="-508 626 291 277" version = "1.1">
<g id="40901" ><path d="M -319,903 L -320,902 L -342,884 L -348,883 L -366,878 L -368,878 L -369,876 L -371,869 L -373,867 L -380,861 L -388,854 L -391,851 L -393,849 L -400,842 L -395,834 L -392,834 L -387,832 L -385,832 L -379,833 L -375,833 L -374,832 L -373,831 L -371,829 L -368,829 L -368,826 L -365,813 L -363,803 L -360,803 L -361,801 L -361,798 L -361,795 L -360,793 L -359,790 L -360,788 L -361,786 L -361,784 L -359,782 L -357,779 L -357,778 L -356,778 L -356,777 L -355,777 L -354,777 L -354,776 L -353,776 L -352,776 L -352,775 L -352,774 L -353,774 L -353,773 L -353,772 L -353,770 L -352,768 L -354,765 L -353,764 L -352,763 L -351,762 L -351,760 L -351,758 L -351,757 L -352,756 L -354,755 L -354,754 L -356,753 L -356,752 L -356,751 L -356,750 L -354,749 L -354,748 L -354,747 L -354,746 L -355,745 L -355,743 L -355,742 L -355,741 L -355,740 L -357,739 L -358,738 L -359,736 L -359,734 L -361,734 L -362,734 L -362,735 L -363,735 L -363,736 L -364,737 L -364,738 L -364,739 L -366,737 L -367,737 L -368,736 L -369,736 L -373,738 L -375,738 L -378,739 L -380,739 L -380,738 L -380,737 L -380,734 L -380,731 L -381,730 L -382,729 L -384,729 L -387,728 L -389,729 L -389,728 L -390,728 L -391,728 L -393,729 L -396,730 L -401,732 L -403,734 L -405,736 L -407,737 L -409,738 L -410,740 L -411,741 L -412,742 L -413,742 L -414,742 L -415,743 L -416,743 L -416,742 L -417,742 L -418,742 L -419,742 L -420,742 L -420,741 L -421,741 L -422,741 L -423,742 L -424,742 L -426,742 L -427,742 L -428,743 L -429,742 L -431,742 L -432,743 L -433,742 L -434,743 L -438,742 L -439,743 L -440,745 L -440,746 L -436,749 L -435,751 L -434,749 L -432,748 L -431,748 L -429,749 L -426,751 L -425,751 L -424,751 L -422,751 L -421,750 L -419,750 L -417,751 L -415,751 L -411,752 L -409,752 L -406,752 L -405,754 L -404,756 L -403,757 L -402,758 L -401,759 L -400,759 L -399,759 L -398,759 L -397,760 L -396,761 L -396,764 L -395,767 L -393,769 L -391,770 L -391,776 L -392,776 L -393,775 L -394,774 L -395,774 L -395,773 L -396,773 L -397,773 L -397,772 L -398,772 L -399,772 L -401,771 L -403,772 L -405,772 L -407,773 L -410,771 L -413,768 L -416,767 L -417,766 L -420,765 L -422,766 L -425,767 L -425,768 L -425,769 L -425,770 L -425,771 L -425,772 L -425,773 L -424,773 L -428,774 L -428,775 L -427,777 L -425,778 L -427,786 L -427,788 L -429,789 L -430,788 L -431,788 L -433,787 L -433,786 L -429,775 L -429,774 L -434,773 L -439,772 L -442,772 L -442,774 L -443,780 L -440,787 L -438,791 L -436,796 L -436,797 L -437,799 L -438,802 L -437,803 L -436,803 L -435,803 L -434,803 L -433,807 L -432,808 L -431,813 L -446,806 L -453,805 L -459,799 L -469,777 L -474,770 L -479,764 L -476,760 L -467,749 L -471,732 L -479,715 L -492,701 L -490,700 L -490,698 L -487,697 L -486,695 L -488,693 L -488,691 L -489,690 L -489,689 L -490,689 L -491,688 L -491,687 L -492,686 L -492,684 L -490,684 L -491,681 L -491,678 L -491,677 L -497,667 L -499,666 L -501,662 L -503,661 L -507,660 L -508,655 L -506,655 L -506,653 L -505,651 L -504,650 L -503,650 L -501,650 L -498,651 L -497,651 L -496,651 L -495,650 L -494,650 L -493,650 L -493,649 L -492,649 L -491,649 L -490,649 L -489,649 L -488,649 L -487,649 L -486,649 L -485,648 L -484,648 L -483,648 L -482,648 L -481,648 L -480,648 L -479,648 L -478,648 L -477,648 L -476,649 L -475,648 L -466,646 L -453,638 L -436,633 L -432,632 L -431,632 L -423,630 L -416,629 L -412,627 L -410,627 L -408,626 L -407,626 L -406,626 L -405,626 L -404,626 L -403,626 L -402,626 L -401,627 L -400,627 L -399,627 L -397,628 L -396,629 L -395,630 L -395,631 L -395,632 L -395,633 L -394,634 L -393,635 L -393,636 L -392,637 L -392,638 L -392,639 L -391,639 L -390,639 L -390,640 L -390,641 L -389,641 L -388,641 L -387,641 L -386,641 L -386,642 L -385,643 L -384,643 L -384,644 L -384,645 L -383,645 L -382,644 L -382,645 L -381,645 L -380,645 L -379,645 L -379,646 L -378,646 L -377,646 L -376,645 L -376,646 L -375,646 L -375,647 L -374,647 L -374,648 L -373,648 L -372,648 L -371,648 L -371,649 L -370,649 L -369,649 L -368,649 L -368,650 L -367,650 L -367,649 L -366,649 L -366,650 L -365,650 L -364,650 L -363,651 L -362,651 L -361,651 L -360,651 L -360,650 L -359,650 L -358,650 L -358,651 L -357,651 L -357,652 L -356,653 L -355,653 L -354,653 L -353,653 L -352,654 L -351,654 L -350,654 L -349,654 L -348,654 L -347,654 L -346,654 L -345,654 L -345,655 L -344,655 L -343,655 L -342,655 L -341,655 L -340,655 L -340,654 L -339,654 L -339,653 L -338,653 L -338,654 L -337,654 L -336,654 L -335,654 L -335,655 L -334,655 L -333,655 L -333,656 L -332,656 L -331,656 L -330,657 L -329,657 L -329,656 L -328,656 L -328,657 L -327,657 L -326,657 L -325,657 L -324,657 L -323,657 L -322,657 L -321,657 L -321,656 L -321,657 L -321,658 L -321,659 L -320,659 L -320,658 L -319,658 L -319,659 L -323,665 L -324,672 L -326,675 L -327,690 L -326,692 L -325,697 L -323,699 L -325,706 L -322,712 L -321,713 L -316,721 L -312,731 L -310,737 L -307,739 L -305,741 L -303,742 L -299,747 L -297,748 L -291,751 L -283,752 L -278,756 L -273,761 L -271,764 L -269,766 L -268,768 L -264,771 L -262,772 L -259,773 L -258,775 L -253,782 L -251,784 L -243,786 L -243,787 L -240,791 L -238,793 L -234,798 L -231,801 L -226,799 L -218,795 L -218,796 L -219,797 L -219,798 L -220,798 L -220,799 L -221,799 L -221,800 L -222,800 L -222,801 L -222,802 L -223,802 L -223,803 L -222,803 L -222,804 L -222,805 L -222,806 L -221,806 L -221,807 L -221,808 L -221,809 L -221,810 L -221,811 L -221,812 L -221,813 L -221,814 L -220,814 L -220,815 L -219,815 L -218,815 L -217,815 L -217,816 L -217,817 L -217,818 L -218,818 L -218,819 L -218,820 L -218,821 L -219,822 L -219,823 L -218,824 L -218,825 L -218,826 L -219,826 L -219,827 L -219,828 L -219,829 L -219,830 L -219,831 L -219,832 L -220,833 L -221,833 L -222,834 L -223,835 L -224,836 L -225,836 L -225,837 L -226,838 L -227,838 L -227,839 L -228,839 L -228,840 L -229,840 L -230,840 L -230,841 L -231,841 L -231,842 L -232,842 L -232,843 L -233,843 L -233,844 L -234,844 L -235,844 L -235,845 L -236,845 L -236,846 L -237,846 L -237,847 L -238,847 L -238,848 L -239,848 L -240,849 L -241,849 L -242,850 L -243,850 L -244,850 L -245,851 L -246,851 L -247,851 L -248,851 L -249,851 L -250,851 L -251,851 L -252,851 L -253,851 L -254,851 L -255,851 L -256,851 L -257,851 L -258,851 L -259,851 L -260,851 L -260,852 L -261,852 L -262,852 L -263,852 L -264,852 L -265,852 L -265,853 L -266,853 L -267,853 L -268,853 L -268,852 L -269,852 L -270,852 L -271,852 L -271,851 L -272,852 L -273,852 L -273,851 L -274,851 L -275,851 L -276,851 L -276,852 L -277,851 L -278,851 L -279,851 L -280,851 L -280,852 L -281,852 L -281,853 L -282,853 L -283,853 L -283,854 L -284,854 L -284,855 L -285,855 L -285,856 L -286,856 L -287,856 L -287,857 L -287,858 L -287,859 L -287,860 L -286,860 L -286,861 L -285,861 L -284,862 L -284,863 L -284,864 L -285,864 L -285,865 L -286,865 L -286,866 L -287,866 L -288,866 L -288,867 L -289,867 L -290,868 L -291,868 L -292,868 L -292,869 L -293,869 L -294,869 L -295,869 L -295,870 L -296,870 L -297,870 L -297,871 L -298,871 L -298,872 L -299,872 L -299,871 L -300,871 L -301,871 L -301,872 L -302,872 L -301,872 L -302,872 L -303,872 L -303,873 L -302,873 L -302,874 L -301,874 L -302,874 L -302,875 L -302,874 L -303,874 L -303,873 L -303,872 L -304,872 L -304,873 L -305,873 L -305,872 L -305,873 L -306,873 L -306,874 L -307,874 L -306,874 L -306,875 L -306,876 L -305,876 L -306,876 L -307,876 L -307,875 L -307,874 L -308,874 L -307,875 L -308,875 L -309,875 L -309,876 L -309,877 L -308,877 L -309,877 L -309,878 L -310,878 L -310,877 L -309,877 L -309,876 L -310,876 L -310,877 L -310,878 L -310,879 L -311,879 L -310,879 L -311,879 L -311,878 L -312,878 L -312,879 L -312,878 L -312,879 L -312,880 L -312,881 L -313,881 L -312,881 L -313,881 L -313,882 L -312,882 L -313,882 L -313,883 L -313,882 L -312,883 L -313,883 L -313,884 L -314,884 L -314,885 L -315,885 L -314,885 L -314,886 L -315,886 L -315,885 L -316,885 L -316,884 L -317,884 L -318,884 L -318,885 L -317,885 L -317,886 L -317,887 L -316,887 L -316,888 L -315,888 L -315,889 L -314,889 L -313,889 L -313,890 L -313,891 L -314,891 L -315,890 L -316,890 L -317,890 L -318,890 L -319,891 L -319,892 L -319,893 L -319,894 L -319,895 L -319,896 L -320,896 L -319,896 L -319,897 L -318,896 L -318,897 L -319,897 L -319,898 L -318,898 L -318,899 L -318,900 L -319,901 L -319,902 L -319,903 " /></g>
</svg>
