<?xml version="1.0" standalone="no"?><!DOCTYPE svg PUBLIC "-//W3C//DTD SVG 1.1//EN" "http://www.w3.org/Graphics/SVG/1.1/DTD/svg11.dtd"><svg xmlns="http://www.w3.org/2000/svg" viewBox="-245 780 120 105" version = "1.1">
<g id="40903" ><path d="M -163,884 L -164,885 L -168,884 L -170,883 L -172,881 L -173,880 L -174,880 L -176,879 L -177,879 L -180,879 L -181,879 L -183,880 L -186,881 L -190,881 L -193,881 L -197,879 L -200,878 L -203,878 L -207,878 L -210,879 L -213,880 L -217,879 L -221,879 L -224,879 L -227,877 L -229,875 L -229,872 L -231,868 L -232,865 L -235,862 L -239,857 L -242,853 L -245,851 L -244,850 L -243,850 L -242,850 L -241,849 L -240,849 L -239,848 L -238,848 L -238,847 L -237,847 L -237,846 L -236,846 L -236,845 L -235,845 L -235,844 L -234,844 L -233,844 L -233,843 L -232,843 L -232,842 L -231,842 L -231,841 L -230,841 L -230,840 L -229,840 L -228,840 L -228,839 L -227,839 L -227,838 L -226,838 L -225,837 L -225,836 L -224,836 L -223,835 L -222,834 L -221,833 L -220,833 L -219,832 L -219,831 L -219,830 L -219,829 L -219,828 L -219,827 L -219,826 L -218,826 L -218,825 L -218,824 L -219,823 L -219,822 L -218,821 L -218,820 L -218,819 L -218,818 L -217,818 L -217,817 L -217,816 L -217,815 L -218,815 L -219,815 L -220,815 L -220,814 L -221,814 L -221,813 L -221,812 L -221,811 L -221,810 L -221,809 L -221,808 L -221,807 L -221,806 L -222,806 L -222,805 L -222,804 L -222,803 L -223,803 L -223,802 L -222,802 L -222,801 L -222,800 L -221,800 L -221,799 L -220,799 L -220,798 L -219,798 L -219,797 L -218,796 L -218,795 L -217,795 L -216,795 L -209,791 L -203,789 L -201,787 L -198,786 L -195,785 L -192,785 L -188,784 L -183,785 L -177,784 L -173,780 L -172,781 L -168,783 L -161,783 L -160,784 L -159,785 L -158,786 L -157,787 L -156,787 L -155,787 L -154,787 L -154,786 L -153,786 L -152,786 L -151,786 L -151,785 L -150,785 L -150,786 L -149,786 L -148,787 L -148,786 L -148,787 L -147,787 L -146,787 L -146,788 L -145,788 L -144,789 L -143,789 L -142,789 L -141,789 L -140,789 L -140,788 L -139,788 L -138,788 L -137,788 L -135,790 L -134,791 L -133,792 L -133,793 L -132,793 L -130,793 L -128,794 L -126,794 L -125,794 L -125,797 L -125,804 L -127,806 L -131,809 L -134,816 L -140,818 L -145,821 L -146,821 L -147,821 L -148,821 L -148,822 L -149,822 L -150,822 L -151,822 L -151,823 L -152,823 L -153,823 L -153,824 L -154,824 L -154,825 L -155,825 L -156,825 L -157,825 L -157,826 L -158,826 L -159,826 L -160,826 L -161,826 L -162,826 L -163,827 L -164,827 L -165,827 L -166,827 L -166,826 L -167,826 L -168,826 L -169,826 L -170,826 L -171,827 L -171,828 L -171,829 L -172,830 L -172,831 L -173,831 L -174,832 L -174,833 L -174,834 L -173,834 L -172,835 L -171,835 L -172,836 L -171,837 L -169,837 L -168,838 L -168,839 L -167,840 L -167,841 L -167,842 L -167,843 L -166,843 L -166,844 L -165,845 L -164,845 L -163,846 L -162,846 L -162,847 L -161,847 L -161,848 L -161,849 L -160,849 L -160,850 L -159,850 L -159,849 L -158,849 L -159,850 L -159,851 L -160,851 L -159,851 L -158,851 L -158,852 L -159,852 L -159,853 L -159,854 L -159,855 L -160,855 L -160,856 L -161,857 L -161,858 L -161,859 L -161,860 L -162,861 L -162,862 L -162,863 L -162,864 L -163,865 L -162,866 L -162,867 L -162,868 L -161,868 L -161,869 L -161,870 L -161,871 L -161,872 L -161,873 L -161,874 L -161,875 L -161,876 L -161,877 L -161,878 L -161,879 L -161,880 L -161,881 L -161,882 L -162,883 L -163,883 L -163,884 " /></g>
</svg>
