<?xml version="1.0" standalone="no"?><!DOCTYPE svg PUBLIC "-//W3C//DTD SVG 1.1//EN" "http://www.w3.org/Graphics/SVG/1.1/DTD/svg11.dtd"><svg xmlns="http://www.w3.org/2000/svg" viewBox="-49 374 180 325" version = "1.1">
<g id="41001" ><path d="M 131,697 L 130,697 L 118,699 L 103,697 L 83,697 L 66,696 L 62,695 L 56,692 L 54,690 L 53,688 L 51,687 L 49,685 L 47,683 L 46,682 L 44,682 L 42,681 L 41,681 L 40,680 L 38,680 L 38,679 L 37,679 L 37,678 L 36,678 L 36,677 L 35,677 L 34,676 L 33,675 L 32,674 L 31,674 L 31,673 L 30,673 L 29,673 L 29,672 L 28,672 L 27,672 L 26,671 L 25,671 L 24,671 L 23,670 L 22,670 L 22,669 L 21,669 L 20,668 L 19,668 L 18,668 L 18,667 L 17,667 L 18,659 L 16,656 L 12,654 L 8,653 L 4,651 L 2,648 L 0,646 L -1,641 L 0,633 L 4,623 L 5,620 L -2,609 L -9,604 L -7,594 L -10,591 L -10,590 L -11,589 L -11,588 L -11,587 L -10,586 L -10,585 L -10,584 L -8,580 L -8,577 L -8,575 L -7,575 L -6,575 L -6,574 L -5,574 L -5,573 L -6,572 L -5,572 L -5,571 L -4,571 L -3,571 L -3,570 L -2,570 L -2,569 L -2,568 L -2,567 L -2,566 L -1,566 L 0,566 L 0,567 L 1,567 L 2,567 L 2,566 L 2,565 L 3,565 L 4,564 L 3,564 L 3,562 L 2,560 L 1,559 L 0,559 L 0,558 L 0,557 L 0,556 L 0,555 L 0,554 L 0,553 L -1,553 L -1,552 L -2,550 L -2,549 L -2,548 L -3,548 L -3,547 L -3,546 L -4,545 L -9,550 L -12,552 L -15,551 L -16,548 L -25,530 L -27,529 L -26,527 L -27,523 L -29,517 L -30,512 L -31,508 L -33,507 L -34,506 L -39,506 L -43,506 L -44,505 L -45,504 L -45,503 L -46,500 L -47,498 L -46,497 L -46,496 L -46,495 L -47,494 L -47,493 L -47,492 L -47,491 L -47,490 L -47,489 L -47,488 L -47,487 L -47,486 L -48,485 L -49,485 L -49,484 L -49,483 L -48,481 L -49,481 L -49,480 L -49,479 L -49,478 L -46,478 L -45,478 L -45,477 L -44,477 L -43,477 L -43,476 L -42,476 L -42,475 L -41,475 L -40,475 L -40,476 L -40,477 L -39,477 L -39,476 L -38,476 L -37,476 L -37,475 L -36,475 L -36,474 L -36,473 L -35,473 L -35,472 L -34,471 L -33,471 L -32,471 L -32,470 L -31,470 L -31,469 L -31,468 L -31,467 L -31,466 L -31,465 L -31,464 L -30,464 L -30,463 L -29,463 L -27,456 L -22,447 L -21,439 L -33,426 L -32,416 L -25,412 L -16,407 L -10,402 L -5,392 L 8,386 L 14,381 L 20,375 L 21,375 L 22,374 L 23,374 L 24,374 L 24,375 L 25,375 L 25,376 L 24,376 L 24,377 L 25,377 L 26,378 L 27,379 L 28,379 L 28,380 L 28,381 L 27,382 L 27,383 L 27,384 L 28,384 L 29,385 L 29,386 L 30,386 L 30,387 L 31,388 L 31,389 L 31,390 L 32,390 L 32,391 L 33,391 L 33,392 L 34,392 L 34,393 L 35,393 L 35,394 L 36,395 L 36,396 L 35,396 L 35,397 L 36,397 L 36,398 L 36,399 L 37,399 L 37,400 L 37,401 L 38,401 L 38,402 L 38,403 L 39,403 L 40,403 L 40,404 L 41,405 L 41,406 L 40,407 L 40,408 L 40,409 L 39,410 L 40,410 L 40,411 L 40,412 L 41,413 L 41,414 L 40,414 L 40,415 L 39,416 L 39,417 L 39,418 L 39,419 L 40,420 L 41,420 L 42,420 L 43,421 L 44,421 L 44,422 L 45,422 L 45,423 L 45,424 L 45,425 L 46,426 L 46,427 L 46,428 L 47,428 L 48,428 L 49,428 L 49,429 L 49,430 L 50,430 L 50,431 L 51,431 L 51,432 L 52,433 L 52,434 L 52,435 L 53,435 L 53,436 L 53,437 L 54,437 L 54,438 L 55,439 L 56,440 L 57,440 L 58,440 L 58,441 L 58,442 L 58,443 L 59,443 L 59,444 L 59,445 L 59,446 L 60,446 L 60,447 L 60,448 L 61,448 L 62,448 L 62,449 L 62,450 L 61,450 L 60,450 L 60,451 L 60,452 L 59,452 L 59,453 L 59,454 L 59,455 L 60,456 L 61,456 L 61,457 L 62,457 L 63,457 L 63,458 L 64,459 L 65,460 L 65,461 L 65,462 L 64,463 L 64,464 L 63,464 L 62,465 L 63,466 L 64,467 L 65,467 L 66,467 L 66,468 L 66,469 L 67,469 L 66,470 L 66,471 L 67,471 L 67,472 L 68,472 L 69,472 L 69,471 L 70,471 L 70,472 L 71,472 L 72,472 L 73,471 L 74,471 L 75,472 L 75,473 L 76,473 L 76,474 L 77,475 L 77,476 L 76,476 L 76,477 L 76,478 L 77,478 L 77,479 L 78,479 L 78,480 L 79,480 L 80,480 L 81,480 L 81,481 L 82,481 L 83,481 L 83,482 L 84,482 L 85,483 L 86,483 L 87,484 L 87,485 L 88,485 L 88,486 L 87,487 L 87,488 L 88,488 L 88,489 L 88,490 L 89,491 L 89,492 L 90,492 L 91,493 L 91,494 L 90,494 L 89,495 L 90,495 L 90,496 L 90,497 L 91,497 L 91,498 L 91,499 L 91,500 L 92,500 L 92,501 L 93,501 L 93,502 L 93,503 L 93,504 L 94,504 L 94,505 L 94,506 L 93,506 L 93,507 L 93,508 L 92,508 L 92,509 L 92,510 L 92,511 L 91,511 L 91,512 L 91,513 L 92,513 L 92,514 L 92,515 L 92,516 L 92,517 L 92,518 L 93,519 L 94,520 L 96,524 L 97,526 L 98,526 L 98,527 L 98,528 L 98,529 L 100,533 L 101,540 L 100,548 L 101,554 L 103,555 L 104,561 L 107,563 L 107,565 L 107,568 L 105,576 L 106,580 L 104,583 L 98,587 L 96,590 L 92,601 L 90,603 L 80,624 L 80,625 L 81,625 L 81,626 L 81,627 L 82,627 L 82,628 L 83,628 L 83,629 L 84,629 L 84,630 L 90,639 L 93,643 L 100,652 L 106,660 L 112,667 L 119,677 L 121,681 L 123,684 L 125,687 L 127,690 L 127,691 L 128,691 L 128,692 L 129,693 L 129,694 L 130,695 L 130,696 L 130,697 L 131,697 " /></g>
</svg>
