<?xml version="1.0" standalone="no"?><!DOCTYPE svg PUBLIC "-//W3C//DTD SVG 1.1//EN" "http://www.w3.org/Graphics/SVG/1.1/DTD/svg11.dtd"><svg xmlns="http://www.w3.org/2000/svg" viewBox="-9 283 75 82" version = "1.1">
<g id="41101" ><path d="M 20,287 L 21,287 L 21,288 L 22,288 L 22,289 L 23,289 L 24,289 L 24,290 L 24,291 L 24,292 L 24,293 L 24,294 L 25,295 L 26,296 L 27,297 L 27,298 L 30,301 L 30,302 L 32,302 L 34,303 L 34,304 L 35,304 L 36,305 L 38,306 L 39,306 L 42,302 L 44,303 L 45,304 L 45,307 L 46,308 L 46,309 L 50,313 L 54,315 L 56,319 L 57,319 L 60,319 L 63,318 L 64,319 L 64,321 L 66,323 L 66,326 L 57,336 L 52,344 L 61,348 L 35,364 L 31,365 L 23,361 L 13,360 L 12,360 L 12,359 L 12,358 L 12,357 L 11,356 L 11,355 L 10,355 L 10,354 L 9,353 L 9,352 L 9,351 L 8,350 L 7,349 L 6,349 L 6,348 L 5,348 L 5,347 L 4,347 L 3,346 L 3,345 L 3,344 L 2,344 L 2,343 L 1,342 L 1,341 L 1,340 L 1,339 L 1,338 L 2,337 L 3,336 L 3,335 L 3,333 L 4,332 L 4,331 L 4,330 L 4,329 L 3,329 L 2,328 L 1,327 L 1,326 L 0,326 L 0,324 L 0,323 L -2,321 L -2,320 L -2,319 L -3,318 L -2,316 L -2,315 L -2,314 L -3,314 L -4,313 L -5,313 L -7,312 L -8,311 L -9,310 L -9,309 L -9,308 L -8,307 L -7,306 L -7,305 L -6,305 L -5,304 L -4,303 L -4,302 L -3,302 L -3,301 L -2,301 L -1,301 L -1,300 L 0,300 L 0,299 L 0,298 L 0,297 L 0,296 L 1,295 L 1,294 L 1,293 L 2,293 L 2,292 L 3,292 L 4,289 L 5,287 L 6,288 L 7,288 L 8,288 L 10,289 L 10,288 L 12,289 L 13,289 L 13,288 L 14,288 L 14,287 L 15,287 L 15,286 L 15,285 L 16,285 L 16,284 L 17,284 L 17,283 L 17,284 L 18,284 L 18,285 L 19,285 L 19,286 L 20,286 L 20,287 " /></g>
</svg>
