<?xml version="1.0" standalone="no"?><!DOCTYPE svg PUBLIC "-//W3C//DTD SVG 1.1//EN" "http://www.w3.org/Graphics/SVG/1.1/DTD/svg11.dtd"><svg xmlns="http://www.w3.org/2000/svg" viewBox="-138 676 121 144" version = "1.1">
<g id="41202" ><path d="M -19,810 L -20,811 L -20,812 L -21,812 L -21,813 L -22,814 L -22,815 L -23,815 L -23,816 L -24,816 L -25,816 L -26,816 L -27,816 L -28,816 L -29,817 L -30,817 L -31,817 L -32,817 L -33,817 L -33,816 L -34,816 L -34,815 L -35,815 L -35,814 L -36,814 L -36,813 L -37,813 L -37,812 L -38,812 L -38,811 L -38,810 L -39,810 L -39,809 L -39,808 L -40,808 L -41,808 L -41,809 L -42,809 L -42,808 L -43,808 L -44,808 L -44,809 L -45,809 L -45,808 L -46,809 L -46,810 L -47,810 L -47,811 L -47,812 L -48,812 L -48,813 L -49,813 L -50,813 L -51,813 L -51,814 L -51,815 L -51,816 L -52,816 L -53,816 L -54,816 L -55,816 L -55,817 L -56,818 L -57,818 L -57,819 L -58,819 L -59,820 L -60,820 L -61,820 L -62,820 L -70,817 L -73,815 L -75,814 L -75,813 L -76,812 L -77,811 L -77,810 L -77,809 L -79,809 L -82,809 L -84,809 L -86,810 L -87,810 L -89,811 L -90,811 L -92,811 L -94,810 L -94,809 L -95,809 L -95,808 L -97,808 L -98,808 L -99,808 L -99,809 L -100,809 L -100,808 L -101,808 L -101,809 L -102,809 L -104,809 L -106,808 L -108,807 L -110,805 L -111,804 L -112,803 L -113,803 L -114,803 L -115,803 L -116,804 L -117,804 L -117,805 L -118,804 L -119,804 L -119,803 L -118,803 L -118,802 L -119,802 L -120,802 L -122,803 L -125,804 L -125,797 L -125,794 L -124,793 L -123,793 L -123,792 L -122,792 L -121,792 L -120,792 L -120,791 L -119,790 L -119,789 L -118,788 L -117,788 L -117,787 L -116,786 L -115,786 L -114,787 L -113,787 L -112,786 L -111,785 L -110,785 L -110,784 L -109,783 L -109,782 L -109,781 L -123,769 L -123,767 L -126,761 L -128,755 L -127,747 L -130,740 L -132,732 L -133,733 L -134,733 L -135,733 L -138,730 L -138,729 L -138,728 L -138,727 L -138,726 L -137,726 L -137,725 L -137,724 L -137,723 L -134,722 L -131,721 L -130,720 L -121,718 L -120,718 L -116,714 L -94,700 L -87,697 L -78,692 L -74,690 L -69,684 L -65,678 L -62,678 L -58,678 L -54,678 L -48,676 L -47,680 L -42,686 L -35,698 L -34,700 L -33,701 L -32,702 L -32,703 L -32,705 L -27,705 L -27,707 L -26,708 L -23,708 L -22,708 L -19,708 L -17,711 L -17,714 L -17,716 L -18,716 L -18,717 L -19,717 L -19,718 L -20,718 L -21,718 L -21,719 L -22,720 L -24,721 L -25,722 L -25,723 L -26,723 L -26,724 L -27,725 L -26,726 L -26,727 L -25,727 L -25,728 L -25,729 L -24,729 L -24,730 L -24,729 L -23,729 L -22,729 L -22,730 L -22,731 L -23,731 L -23,732 L -24,732 L -25,733 L -25,734 L -26,734 L -25,735 L -25,736 L -24,736 L -25,737 L -25,738 L -25,739 L -25,740 L -25,741 L -26,742 L -26,743 L -27,743 L -28,743 L -28,744 L -29,744 L -29,745 L -30,745 L -30,746 L -31,746 L -32,746 L -33,746 L -35,746 L -36,746 L -37,746 L -38,747 L -39,747 L -40,747 L -41,752 L -41,754 L -41,755 L -43,759 L -46,761 L -46,762 L -47,762 L -51,764 L -52,765 L -52,766 L -53,766 L -54,767 L -54,768 L -54,769 L -53,769 L -53,770 L -53,772 L -53,779 L -54,781 L -55,783 L -55,785 L -56,786 L -55,788 L -54,789 L -51,791 L -48,793 L -44,799 L -43,800 L -31,805 L -28,806 L -24,806 L -19,810 " /></g>
</svg>
