<?xml version="1.0" standalone="no"?><!DOCTYPE svg PUBLIC "-//W3C//DTD SVG 1.1//EN" "http://www.w3.org/Graphics/SVG/1.1/DTD/svg11.dtd"><svg xmlns="http://www.w3.org/2000/svg" viewBox="-56 651 238 169" version = "1.1">
<g id="41201" ><path d="M 182,816 L 180,816 L 175,815 L 171,815 L 165,815 L 160,815 L 157,815 L 150,815 L 142,810 L 136,809 L 131,810 L 128,813 L 126,813 L 120,814 L 120,813 L 119,812 L 113,817 L 111,815 L 107,815 L 101,814 L 98,816 L 96,816 L 94,817 L 92,817 L 85,819 L 83,818 L 82,818 L 79,820 L 78,820 L 77,820 L 77,819 L 76,818 L 75,818 L 74,817 L 74,816 L 74,815 L 73,815 L 72,814 L 71,813 L 71,812 L 69,812 L 66,811 L 64,811 L 63,811 L 62,811 L 61,811 L 61,810 L 60,810 L 58,809 L 57,808 L 56,808 L 56,807 L 55,807 L 54,806 L 52,806 L 51,806 L 50,806 L 49,806 L 48,806 L 47,806 L 46,805 L 45,805 L 44,805 L 43,805 L 41,805 L 40,805 L 39,805 L 38,804 L 37,804 L 37,803 L 36,803 L 35,803 L 34,803 L 33,804 L 32,803 L 31,803 L 30,804 L 29,804 L 28,804 L 27,804 L 26,804 L 25,804 L 24,805 L 23,805 L 23,806 L 22,806 L 21,806 L 20,806 L 19,806 L 18,806 L 17,806 L 16,806 L 15,805 L 14,805 L 13,804 L 12,804 L 11,804 L 10,804 L 9,804 L 8,804 L 7,805 L 6,805 L 5,805 L 4,805 L 4,806 L 3,806 L 3,805 L 2,805 L 1,804 L 0,804 L -1,804 L -2,804 L -2,803 L -3,804 L -4,804 L -5,804 L -5,803 L -6,803 L -7,803 L -7,804 L -8,804 L -9,804 L -9,805 L -10,805 L -11,805 L -11,806 L -12,806 L -13,807 L -14,807 L -15,807 L -15,808 L -16,808 L -17,809 L -18,810 L -19,810 L -24,806 L -28,806 L -31,805 L -43,800 L -44,799 L -48,793 L -51,791 L -54,789 L -55,788 L -56,786 L -55,785 L -55,783 L -54,781 L -53,779 L -53,772 L -53,770 L -53,769 L -54,769 L -54,768 L -54,767 L -53,766 L -52,766 L -52,765 L -51,764 L -47,762 L -46,762 L -46,761 L -43,759 L -41,755 L -41,754 L -41,752 L -40,747 L -39,747 L -38,747 L -37,746 L -36,746 L -35,746 L -33,746 L -32,746 L -31,746 L -30,746 L -30,745 L -29,745 L -29,744 L -28,744 L -28,743 L -27,743 L -26,743 L -26,742 L -25,741 L -25,740 L -25,739 L -25,738 L -25,737 L -24,736 L -25,736 L -25,735 L -26,734 L -25,734 L -25,733 L -24,732 L -23,732 L -23,731 L -22,731 L -22,730 L -22,729 L -23,729 L -24,729 L -24,730 L -24,729 L -25,729 L -25,728 L -25,727 L -26,727 L -26,726 L -27,725 L -26,724 L -26,723 L -25,723 L -25,722 L -24,721 L -22,720 L -21,719 L -21,718 L -20,718 L -19,718 L -19,717 L -18,717 L -18,716 L -17,716 L -17,714 L -17,711 L -19,708 L -22,708 L -23,708 L -26,708 L -27,707 L -27,705 L -32,705 L -32,703 L -32,702 L -33,701 L -34,700 L -35,698 L -42,686 L -47,680 L -48,676 L -38,679 L -36,678 L -35,678 L -34,678 L -34,679 L -33,679 L -33,678 L -32,679 L -32,678 L -31,678 L -30,678 L -29,677 L -28,677 L -27,676 L -21,674 L -19,673 L -10,665 L -6,660 L 4,651 L 8,653 L 12,654 L 16,656 L 18,659 L 17,667 L 18,667 L 18,668 L 19,668 L 20,668 L 21,669 L 22,669 L 22,670 L 23,670 L 24,671 L 25,671 L 26,671 L 27,672 L 28,672 L 29,672 L 29,673 L 30,673 L 31,673 L 31,674 L 32,674 L 33,675 L 34,676 L 35,677 L 36,677 L 36,678 L 37,678 L 37,679 L 38,679 L 38,680 L 40,680 L 41,681 L 42,681 L 44,682 L 46,682 L 47,683 L 49,685 L 51,687 L 53,688 L 54,690 L 56,692 L 62,695 L 66,696 L 83,697 L 103,697 L 118,699 L 131,697 L 132,696 L 134,696 L 137,695 L 139,695 L 142,698 L 143,700 L 145,703 L 146,705 L 147,708 L 149,710 L 149,712 L 150,714 L 151,716 L 153,718 L 153,719 L 154,721 L 154,723 L 155,724 L 157,727 L 158,729 L 159,732 L 161,734 L 162,736 L 164,740 L 165,741 L 166,743 L 167,745 L 168,747 L 170,749 L 170,752 L 171,753 L 171,756 L 173,760 L 173,763 L 173,764 L 174,767 L 174,769 L 174,771 L 174,774 L 174,776 L 175,779 L 175,780 L 175,782 L 175,783 L 175,785 L 175,787 L 176,788 L 176,790 L 177,792 L 179,800 L 181,807 L 182,808 L 182,810 L 182,812 L 182,815 L 182,816 " /></g>
</svg>
