<?xml version="1.0" standalone="no"?><!DOCTYPE svg PUBLIC "-//W3C//DTD SVG 1.1//EN" "http://www.w3.org/Graphics/SVG/1.1/DTD/svg11.dtd"><svg xmlns="http://www.w3.org/2000/svg" viewBox="-279 320 139 153" version = "1.1">
<g id="41301" ><path d="M -255,323 L -253,325 L -252,326 L -252,328 L -251,329 L -251,330 L -250,330 L -250,329 L -248,329 L -247,328 L -246,328 L -245,328 L -243,329 L -241,330 L -240,331 L -239,331 L -238,331 L -237,331 L -236,332 L -235,333 L -234,334 L -233,334 L -232,336 L -231,338 L -230,338 L -230,339 L -229,339 L -228,339 L -228,338 L -227,338 L -227,337 L -226,337 L -225,337 L -225,336 L -224,336 L -224,335 L -224,334 L -224,333 L -222,334 L -220,334 L -215,336 L -208,338 L -206,340 L -203,343 L -201,344 L -196,347 L -194,348 L -193,350 L -189,354 L -185,355 L -179,355 L -167,360 L -166,360 L -161,362 L -160,362 L -161,362 L -161,363 L -161,362 L -161,363 L -162,363 L -162,364 L -163,364 L -164,364 L -165,364 L -165,365 L -166,365 L -166,366 L -167,366 L -168,366 L -168,367 L -169,367 L -169,368 L -170,368 L -171,369 L -171,370 L -172,370 L -172,371 L -173,371 L -173,372 L -174,372 L -174,373 L -177,374 L -179,376 L -179,379 L -179,381 L -178,384 L -177,385 L -177,386 L -177,387 L -176,387 L -176,388 L -176,387 L -176,388 L -175,388 L -176,388 L -175,388 L -176,388 L -176,389 L -175,389 L -174,389 L -173,391 L -172,394 L -172,395 L -172,398 L -166,401 L -163,404 L -163,406 L -164,408 L -164,410 L -164,411 L -164,412 L -163,412 L -163,413 L -164,413 L -164,414 L -163,414 L -162,414 L -162,415 L -162,416 L -163,416 L -154,418 L -151,420 L -147,421 L -144,424 L -145,425 L -146,425 L -146,426 L -146,427 L -147,427 L -147,428 L -148,428 L -148,429 L -148,430 L -148,431 L -148,432 L -147,432 L -146,431 L -145,431 L -144,431 L -143,431 L -142,431 L -141,432 L -140,434 L -144,437 L -145,437 L -146,437 L -147,437 L -147,438 L -148,438 L -149,438 L -150,439 L -151,440 L -151,439 L -152,439 L -152,440 L -153,440 L -153,441 L -154,441 L -154,442 L -155,442 L -156,442 L -155,444 L -154,446 L -154,448 L -157,450 L -161,454 L -166,454 L -169,455 L -175,457 L -177,459 L -177,460 L -178,460 L -178,459 L -179,459 L -179,460 L -180,460 L -181,460 L -182,460 L -182,461 L -189,460 L -192,462 L -194,463 L -197,464 L -198,464 L -202,460 L -204,458 L -212,462 L -213,460 L -214,458 L -215,456 L -217,456 L -220,455 L -220,456 L -222,456 L -229,453 L -231,455 L -232,455 L -240,459 L -243,459 L -246,458 L -248,457 L -248,456 L -251,459 L -270,473 L -270,471 L -271,469 L -269,468 L -266,462 L -265,459 L -265,456 L -266,452 L -266,450 L -265,446 L -265,444 L -266,442 L -269,441 L -270,440 L -273,439 L -274,440 L -276,440 L -277,440 L -278,440 L -278,439 L -278,438 L -278,437 L -279,436 L -279,435 L -279,434 L -278,434 L -278,433 L -278,432 L -278,431 L -278,430 L -279,430 L -279,429 L -279,428 L -279,427 L -279,426 L -278,426 L -278,425 L -278,424 L -278,423 L -278,422 L -278,421 L -277,421 L -277,420 L -276,420 L -275,420 L -275,419 L -275,418 L -275,417 L -275,416 L -275,415 L -275,414 L -276,414 L -276,413 L -276,412 L -277,409 L -276,407 L -275,405 L -274,404 L -274,402 L -274,401 L -276,399 L -277,398 L -277,396 L -276,395 L -276,394 L -276,393 L -275,393 L -275,392 L -274,392 L -274,391 L -274,390 L -274,389 L -273,389 L -273,388 L -273,387 L -272,387 L -272,386 L -273,386 L -273,385 L -274,385 L -274,384 L -275,384 L -275,383 L -274,383 L -274,382 L -274,381 L -273,380 L -274,380 L -275,380 L -275,379 L -274,379 L -273,378 L -272,378 L -271,378 L -271,377 L -272,376 L -272,374 L -270,372 L -269,371 L -268,371 L -268,370 L -269,370 L -269,369 L -270,368 L -271,368 L -272,368 L -272,367 L -273,366 L -274,366 L -274,365 L -275,365 L -276,364 L -277,348 L -275,340 L -267,333 L -264,331 L -263,331 L -262,331 L -261,331 L -260,330 L -261,330 L -261,329 L -260,329 L -260,328 L -259,328 L -259,327 L -259,326 L -260,326 L -259,326 L -259,325 L -259,324 L -258,324 L -258,323 L -258,322 L -258,321 L -257,320 L -257,321 L -256,321 L -256,322 L -255,323 " /></g>
</svg>
