<?xml version="1.0" standalone="no"?><!DOCTYPE svg PUBLIC "-//W3C//DTD SVG 1.1//EN" "http://www.w3.org/Graphics/SVG/1.1/DTD/svg11.dtd"><svg xmlns="http://www.w3.org/2000/svg" viewBox="175 739 272 199" version = "1.1">
<g id="41401" ><path d="M 220,775 L 233,775 L 239,775 L 242,775 L 247,772 L 249,772 L 254,774 L 259,775 L 262,774 L 263,775 L 265,775 L 269,774 L 271,772 L 272,772 L 274,768 L 276,768 L 277,769 L 278,769 L 279,767 L 280,767 L 282,766 L 286,767 L 289,768 L 291,768 L 293,767 L 297,765 L 304,767 L 310,767 L 312,766 L 313,766 L 314,766 L 315,766 L 315,767 L 316,767 L 317,767 L 318,766 L 319,766 L 319,765 L 320,765 L 320,764 L 321,763 L 321,762 L 321,763 L 322,763 L 323,763 L 324,763 L 324,764 L 325,764 L 326,763 L 336,761 L 336,760 L 336,759 L 336,758 L 334,756 L 334,754 L 334,753 L 335,751 L 336,750 L 337,749 L 337,748 L 338,747 L 337,745 L 339,744 L 340,743 L 341,742 L 342,741 L 342,740 L 343,739 L 344,739 L 345,740 L 346,743 L 347,749 L 348,751 L 347,752 L 348,755 L 351,756 L 358,757 L 359,758 L 358,760 L 360,764 L 360,768 L 361,770 L 361,774 L 359,777 L 360,780 L 361,783 L 365,785 L 367,786 L 369,787 L 371,788 L 373,788 L 374,788 L 375,788 L 375,789 L 373,790 L 369,794 L 368,795 L 364,800 L 361,802 L 358,804 L 357,806 L 357,807 L 357,809 L 361,813 L 368,823 L 372,831 L 377,833 L 383,832 L 385,832 L 389,840 L 389,843 L 394,844 L 399,842 L 400,841 L 401,841 L 402,841 L 403,841 L 404,841 L 406,840 L 408,840 L 413,840 L 415,841 L 421,845 L 424,844 L 425,844 L 427,848 L 428,850 L 428,852 L 428,854 L 431,855 L 437,856 L 447,858 L 447,866 L 445,868 L 444,868 L 442,870 L 437,871 L 436,873 L 435,877 L 434,879 L 433,881 L 427,883 L 425,885 L 424,886 L 422,886 L 419,885 L 419,887 L 419,889 L 419,890 L 417,891 L 415,895 L 408,909 L 397,924 L 390,937 L 379,938 L 366,921 L 355,913 L 341,906 L 331,898 L 329,897 L 328,896 L 327,896 L 326,896 L 325,896 L 324,895 L 323,895 L 322,895 L 322,896 L 321,896 L 321,897 L 320,897 L 320,896 L 320,897 L 319,897 L 314,893 L 311,892 L 305,891 L 301,892 L 294,896 L 291,896 L 286,895 L 284,894 L 283,894 L 282,893 L 281,892 L 280,892 L 279,891 L 278,891 L 277,891 L 277,890 L 276,890 L 275,890 L 275,889 L 274,889 L 274,890 L 273,890 L 272,889 L 272,888 L 271,888 L 270,888 L 269,888 L 269,887 L 268,887 L 268,886 L 267,886 L 266,886 L 265,886 L 264,885 L 263,885 L 263,884 L 262,884 L 262,883 L 261,883 L 260,883 L 260,882 L 259,882 L 258,882 L 254,882 L 253,881 L 252,881 L 252,880 L 251,880 L 250,879 L 249,879 L 249,878 L 248,878 L 248,877 L 248,876 L 247,876 L 246,876 L 245,875 L 244,875 L 243,874 L 242,874 L 241,873 L 240,873 L 239,873 L 238,872 L 237,872 L 237,871 L 236,870 L 236,869 L 235,869 L 235,868 L 235,867 L 234,866 L 234,865 L 234,864 L 234,863 L 236,857 L 238,848 L 237,846 L 232,843 L 232,842 L 218,838 L 201,832 L 200,831 L 199,829 L 196,828 L 193,827 L 192,826 L 189,825 L 188,824 L 186,824 L 185,823 L 184,822 L 183,821 L 182,820 L 182,819 L 182,818 L 182,817 L 182,815 L 182,812 L 182,810 L 182,808 L 181,807 L 179,800 L 177,792 L 176,790 L 176,788 L 175,787 L 175,785 L 175,783 L 175,782 L 175,780 L 175,779 L 176,779 L 177,779 L 180,778 L 181,778 L 182,778 L 184,778 L 187,779 L 190,778 L 195,779 L 199,779 L 203,779 L 205,778 L 208,777 L 212,777 L 215,776 L 220,775 " /></g>
</svg>
