<?xml version="1.0" standalone="no"?><!DOCTYPE svg PUBLIC "-//W3C//DTD SVG 1.1//EN" "http://www.w3.org/Graphics/SVG/1.1/DTD/svg11.dtd"><svg xmlns="http://www.w3.org/2000/svg" viewBox="-412 769 55 73" version = "1.1">
<g id="41501" ><path d="M -387,769 L -386,770 L -384,770 L -381,771 L -377,774 L -375,774 L -373,775 L -370,775 L -367,773 L -366,773 L -364,775 L -362,776 L -359,777 L -357,779 L -359,782 L -361,784 L -361,786 L -360,788 L -359,790 L -360,793 L -361,795 L -361,798 L -361,801 L -360,803 L -363,803 L -365,813 L -368,826 L -368,829 L -371,829 L -373,831 L -374,832 L -375,833 L -379,833 L -385,832 L -387,832 L -392,834 L -395,834 L -400,842 L -407,837 L -412,829 L -404,821 L -403,820 L -400,817 L -399,816 L -398,813 L -398,810 L -396,809 L -397,806 L -396,804 L -396,801 L -396,799 L -395,797 L -395,795 L -395,794 L -394,794 L -393,793 L -392,792 L -392,791 L -391,789 L -390,789 L -389,788 L -388,788 L -387,788 L -387,787 L -388,787 L -388,786 L -389,785 L -389,784 L -389,783 L -389,781 L -390,779 L -390,778 L -390,777 L -391,776 L -391,770 L -389,769 L -388,769 L -387,769 " /></g>
</svg>
