<?xml version="1.0" standalone="no"?><!DOCTYPE svg PUBLIC "-//W3C//DTD SVG 1.1//EN" "http://www.w3.org/Graphics/SVG/1.1/DTD/svg11.dtd"><svg xmlns="http://www.w3.org/2000/svg" viewBox="-440 728 89 51" version = "1.1">
<g id="41503" ><path d="M -389,728 L -389,729 L -387,728 L -384,729 L -382,729 L -381,730 L -380,731 L -380,734 L -380,737 L -380,738 L -380,739 L -378,739 L -375,738 L -373,738 L -369,736 L -368,736 L -367,737 L -366,737 L -364,739 L -364,738 L -364,737 L -363,736 L -363,735 L -362,735 L -362,734 L -361,734 L -359,734 L -359,736 L -358,738 L -357,739 L -355,740 L -355,741 L -355,742 L -355,743 L -355,745 L -354,746 L -354,747 L -354,748 L -354,749 L -356,750 L -356,751 L -356,752 L -356,753 L -354,754 L -354,755 L -352,756 L -351,757 L -351,758 L -351,760 L -351,762 L -352,763 L -353,764 L -354,765 L -352,768 L -353,770 L -353,772 L -353,773 L -353,774 L -352,774 L -352,775 L -352,776 L -353,776 L -354,776 L -354,777 L -355,777 L -356,777 L -356,778 L -357,778 L -357,779 L -359,777 L -362,776 L -364,775 L -366,773 L -367,773 L -370,775 L -373,775 L -375,774 L -377,774 L -381,771 L -384,770 L -386,770 L -387,769 L -388,769 L -389,769 L -391,770 L -393,769 L -395,767 L -396,764 L -396,761 L -397,760 L -398,759 L -399,759 L -400,759 L -401,759 L -402,758 L -403,757 L -404,756 L -405,754 L -406,752 L -409,752 L -411,752 L -415,751 L -417,751 L -419,750 L -421,750 L -422,751 L -424,751 L -425,751 L -426,751 L -429,749 L -431,748 L -432,748 L -434,749 L -435,751 L -436,749 L -440,746 L -440,745 L -439,743 L -438,742 L -434,743 L -433,742 L -432,743 L -431,742 L -429,742 L -428,743 L -427,742 L -426,742 L -424,742 L -423,742 L -422,741 L -421,741 L -420,741 L -420,742 L -419,742 L -418,742 L -417,742 L -416,742 L -416,743 L -415,743 L -414,742 L -413,742 L -412,742 L -411,741 L -410,740 L -409,738 L -407,737 L -405,736 L -403,734 L -401,732 L -396,730 L -393,729 L -391,728 L -390,728 L -389,728 " /></g>
</svg>
