<?xml version="1.0" standalone="no"?><!DOCTYPE svg PUBLIC "-//W3C//DTD SVG 1.1//EN" "http://www.w3.org/Graphics/SVG/1.1/DTD/svg11.dtd"><svg xmlns="http://www.w3.org/2000/svg" viewBox="-443 765 56 64" version = "1.1">
<g id="41502" ><path d="M -410,771 L -407,773 L -405,772 L -403,772 L -401,771 L -399,772 L -398,772 L -397,772 L -397,773 L -396,773 L -395,773 L -395,774 L -394,774 L -393,775 L -392,776 L -391,776 L -390,777 L -390,778 L -390,779 L -389,781 L -389,783 L -389,784 L -389,785 L -388,786 L -388,787 L -387,787 L -387,788 L -388,788 L -389,788 L -390,789 L -391,789 L -392,791 L -392,792 L -393,793 L -394,794 L -395,794 L -395,795 L -395,797 L -396,799 L -396,801 L -396,804 L -397,806 L -396,809 L -398,810 L -398,813 L -399,816 L -400,817 L -403,820 L -404,821 L -412,829 L -423,821 L -431,813 L -432,808 L -433,807 L -434,803 L -435,803 L -436,803 L -437,803 L -438,802 L -437,799 L -436,797 L -436,796 L -438,791 L -440,787 L -443,780 L -442,774 L -442,772 L -439,772 L -434,773 L -429,774 L -429,775 L -433,786 L -433,787 L -431,788 L -430,788 L -429,789 L -427,788 L -427,786 L -425,778 L -427,777 L -428,775 L -428,774 L -424,773 L -425,773 L -425,772 L -425,771 L -425,770 L -425,769 L -425,768 L -425,767 L -422,766 L -420,765 L -417,766 L -416,767 L -413,768 L -410,771 " /></g>
</svg>
