<?xml version="1.0" standalone="no"?><!DOCTYPE svg PUBLIC "-//W3C//DTD SVG 1.1//EN" "http://www.w3.org/Graphics/SVG/1.1/DTD/svg11.dtd"><svg xmlns="http://www.w3.org/2000/svg" viewBox="-179 359 158 119" version = "1.1">
<g id="41601" ><path d="M -149,360 L -149,361 L -149,362 L -149,363 L -149,364 L -149,365 L -148,367 L -146,370 L -140,373 L -136,376 L -128,379 L -122,384 L -121,384 L -120,384 L -120,385 L -119,385 L -118,385 L -118,386 L -117,386 L -116,386 L -115,386 L -115,387 L -114,387 L -113,387 L -113,388 L -114,388 L -113,389 L -114,389 L -114,390 L -113,390 L -112,390 L -111,390 L -111,391 L -110,391 L -111,391 L -111,392 L -110,392 L -109,392 L -109,393 L -108,393 L -108,394 L -108,395 L -107,396 L -105,398 L -105,399 L -104,399 L -104,398 L -104,399 L -104,398 L -104,399 L -103,399 L -102,399 L -102,400 L -102,401 L -102,402 L -101,402 L -101,403 L -101,402 L -101,403 L -100,403 L -99,403 L -99,404 L -98,404 L -98,405 L -97,405 L -97,406 L -96,406 L -96,407 L -95,407 L -94,407 L -94,408 L -93,408 L -92,408 L -90,409 L -89,409 L -88,409 L -87,409 L -86,409 L -84,408 L -81,408 L -80,407 L -79,407 L -79,406 L -78,406 L -77,406 L -77,405 L -76,405 L -73,404 L -70,402 L -70,403 L -69,403 L -68,404 L -68,405 L -67,405 L -67,406 L -66,406 L -66,407 L -65,407 L -65,408 L -65,409 L -65,410 L -65,411 L -64,411 L -64,412 L -64,413 L -63,413 L -63,414 L -62,414 L -61,414 L -61,415 L -60,415 L -60,416 L -59,416 L -59,417 L -60,417 L -60,418 L -59,418 L -59,419 L -58,419 L -59,419 L -58,420 L -51,419 L -50,419 L -49,419 L -49,420 L -48,420 L -48,421 L -47,421 L -46,421 L -45,421 L -44,421 L -44,420 L -43,420 L -42,420 L -41,420 L -37,420 L -32,416 L -33,426 L -21,439 L -22,447 L -27,456 L -29,463 L -30,463 L -30,464 L -31,464 L -31,465 L -31,466 L -31,467 L -31,468 L -31,469 L -31,470 L -32,470 L -32,471 L -33,471 L -34,471 L -35,472 L -35,473 L -36,473 L -36,474 L -36,475 L -37,475 L -37,476 L -38,476 L -39,476 L -39,477 L -40,477 L -40,476 L -40,475 L -41,475 L -42,475 L -42,476 L -43,476 L -43,477 L -44,477 L -45,477 L -45,478 L -46,478 L -49,478 L -50,478 L -50,476 L -50,475 L -51,475 L -52,475 L -52,474 L -52,473 L -51,472 L -52,471 L -54,470 L -57,471 L -60,473 L -62,475 L -65,475 L -67,476 L -69,477 L -70,478 L -70,477 L -71,476 L -73,473 L -73,472 L -75,469 L -77,467 L -78,467 L -79,466 L -80,465 L -80,464 L -81,463 L -82,462 L -82,461 L -84,460 L -84,459 L -86,457 L -87,457 L -92,460 L -93,461 L -94,462 L -95,462 L -96,461 L -97,461 L -98,461 L -109,467 L -110,466 L -111,467 L -112,467 L -113,466 L -114,466 L -115,465 L -116,465 L -117,464 L -118,464 L -118,463 L -119,463 L -120,463 L -121,463 L -121,462 L -122,461 L -124,459 L -125,458 L -126,458 L -127,457 L -129,456 L -130,456 L -131,455 L -133,455 L -131,452 L -130,450 L -130,446 L -131,443 L -133,440 L -133,437 L -132,433 L -131,430 L -133,429 L -133,428 L -134,427 L -135,428 L -136,429 L -137,429 L -138,429 L -139,430 L -140,434 L -141,432 L -142,431 L -143,431 L -144,431 L -145,431 L -146,431 L -147,432 L -148,432 L -148,431 L -148,430 L -148,429 L -148,428 L -147,428 L -147,427 L -146,427 L -146,426 L -146,425 L -145,425 L -144,424 L -147,421 L -151,420 L -154,418 L -163,416 L -162,416 L -162,415 L -162,414 L -163,414 L -164,414 L -164,413 L -163,413 L -163,412 L -164,412 L -164,411 L -164,410 L -164,408 L -163,406 L -163,404 L -166,401 L -172,398 L -172,395 L -172,394 L -173,391 L -174,389 L -175,389 L -176,389 L -176,388 L -175,388 L -176,388 L -175,388 L -176,388 L -176,387 L -176,388 L -176,387 L -177,387 L -177,386 L -177,385 L -178,384 L -179,381 L -179,379 L -179,376 L -177,374 L -174,373 L -174,372 L -173,372 L -173,371 L -172,371 L -172,370 L -171,370 L -171,369 L -170,368 L -169,368 L -169,367 L -168,367 L -168,366 L -167,366 L -166,366 L -166,365 L -165,365 L -165,364 L -164,364 L -163,364 L -162,364 L -162,363 L -161,363 L -161,362 L -161,363 L -161,362 L -160,362 L -159,362 L -159,361 L -158,361 L -158,362 L -157,362 L -156,362 L -155,362 L -154,362 L -153,362 L -153,361 L -152,361 L -152,360 L -151,360 L -150,360 L -150,359 L -149,360 " /></g>
</svg>
