<?xml version="1.0" standalone="no"?><!DOCTYPE svg PUBLIC "-//W3C//DTD SVG 1.1//EN" "http://www.w3.org/Graphics/SVG/1.1/DTD/svg11.dtd"><svg xmlns="http://www.w3.org/2000/svg" viewBox="389 863 116 159" version = "1.1">
<g id="50104" ><path d="M 456,863 L 457,863 L 458,863 L 459,863 L 459,864 L 459,865 L 460,865 L 461,865 L 461,866 L 462,866 L 463,867 L 464,867 L 465,867 L 466,867 L 467,868 L 467,869 L 468,870 L 468,871 L 468,873 L 468,877 L 469,879 L 468,882 L 468,883 L 468,884 L 468,885 L 469,885 L 469,884 L 470,884 L 470,883 L 471,883 L 471,884 L 471,883 L 472,883 L 473,883 L 474,883 L 473,884 L 474,884 L 474,885 L 474,886 L 475,886 L 476,886 L 476,887 L 477,887 L 478,887 L 479,887 L 479,888 L 479,889 L 480,889 L 480,890 L 479,890 L 480,890 L 480,891 L 481,891 L 482,891 L 482,892 L 483,892 L 484,892 L 485,893 L 485,894 L 486,894 L 486,895 L 486,896 L 485,896 L 486,896 L 487,896 L 486,897 L 487,897 L 487,898 L 486,898 L 486,899 L 487,899 L 487,900 L 488,900 L 488,901 L 489,901 L 490,901 L 490,902 L 491,903 L 491,904 L 492,904 L 493,905 L 492,906 L 493,906 L 493,907 L 494,907 L 495,907 L 496,907 L 496,908 L 497,908 L 497,909 L 497,910 L 497,911 L 498,911 L 499,911 L 500,912 L 500,913 L 501,913 L 502,913 L 503,917 L 504,920 L 505,924 L 505,925 L 505,926 L 505,928 L 504,928 L 504,929 L 504,930 L 504,931 L 503,931 L 503,932 L 503,933 L 503,934 L 504,934 L 504,935 L 504,936 L 503,936 L 503,937 L 503,938 L 503,939 L 503,940 L 503,941 L 503,942 L 503,943 L 503,944 L 502,944 L 502,945 L 502,946 L 502,947 L 502,948 L 503,948 L 502,948 L 503,948 L 503,949 L 504,950 L 504,951 L 504,952 L 504,953 L 505,959 L 500,966 L 498,973 L 493,977 L 485,987 L 483,990 L 481,998 L 480,998 L 479,998 L 478,998 L 477,998 L 477,999 L 476,999 L 476,1000 L 475,1000 L 474,1001 L 483,1012 L 466,1016 L 456,1017 L 452,1017 L 445,1022 L 433,1006 L 423,1001 L 406,984 L 398,971 L 389,949 L 390,937 L 397,924 L 408,909 L 415,895 L 417,891 L 419,890 L 419,889 L 419,887 L 419,885 L 422,886 L 424,886 L 425,885 L 427,883 L 433,881 L 434,879 L 435,877 L 436,873 L 437,871 L 442,870 L 444,868 L 445,868 L 447,866 L 448,866 L 449,866 L 450,866 L 451,866 L 451,865 L 452,865 L 453,865 L 453,864 L 454,864 L 455,864 L 456,863 " /></g>
</svg>
