<?xml version="1.0" standalone="no"?><!DOCTYPE svg PUBLIC "-//W3C//DTD SVG 1.1//EN" "http://www.w3.org/Graphics/SVG/1.1/DTD/svg11.dtd"><svg xmlns="http://www.w3.org/2000/svg" viewBox="466 774 159 140" version = "1.1">
<g id="50102" ><path d="M 553,775 L 554,776 L 556,778 L 558,784 L 559,786 L 560,786 L 560,787 L 564,790 L 566,791 L 569,793 L 569,794 L 571,794 L 572,793 L 573,793 L 575,794 L 576,794 L 577,794 L 578,794 L 579,794 L 579,795 L 580,795 L 581,796 L 582,796 L 582,797 L 583,797 L 583,798 L 584,798 L 585,797 L 586,797 L 586,796 L 587,796 L 587,795 L 588,795 L 588,796 L 589,796 L 589,797 L 590,797 L 590,796 L 591,796 L 591,797 L 593,798 L 595,799 L 597,800 L 599,803 L 600,803 L 600,804 L 599,805 L 598,806 L 597,808 L 597,810 L 597,811 L 598,811 L 599,811 L 600,814 L 601,816 L 602,817 L 602,819 L 603,820 L 604,820 L 605,820 L 606,821 L 607,822 L 608,823 L 608,824 L 610,826 L 611,827 L 611,828 L 612,829 L 613,830 L 615,833 L 615,832 L 616,832 L 616,833 L 617,832 L 618,833 L 619,833 L 622,833 L 623,833 L 625,834 L 625,835 L 625,836 L 624,836 L 624,837 L 623,837 L 623,838 L 622,839 L 622,840 L 621,840 L 621,841 L 621,842 L 621,843 L 621,844 L 620,844 L 618,842 L 617,842 L 617,841 L 616,841 L 615,841 L 614,840 L 613,840 L 612,841 L 612,842 L 611,842 L 611,843 L 610,843 L 610,844 L 609,844 L 608,845 L 609,845 L 609,846 L 609,847 L 610,848 L 610,849 L 610,850 L 611,850 L 611,851 L 611,852 L 610,852 L 610,854 L 609,856 L 609,858 L 610,859 L 609,862 L 610,863 L 612,864 L 612,865 L 612,866 L 613,866 L 615,867 L 614,868 L 614,869 L 613,871 L 613,872 L 611,879 L 613,882 L 613,883 L 611,884 L 609,884 L 607,885 L 607,884 L 606,885 L 605,884 L 605,885 L 603,885 L 602,885 L 601,885 L 600,886 L 597,886 L 596,887 L 595,887 L 594,887 L 594,886 L 591,886 L 589,887 L 589,888 L 589,889 L 588,889 L 587,890 L 586,891 L 586,892 L 587,893 L 586,893 L 587,893 L 587,894 L 587,895 L 586,895 L 586,896 L 587,896 L 587,897 L 587,898 L 587,899 L 586,899 L 585,900 L 585,901 L 584,901 L 585,901 L 585,902 L 585,903 L 584,903 L 584,902 L 584,903 L 584,904 L 584,903 L 585,904 L 584,904 L 583,904 L 582,905 L 581,905 L 581,906 L 580,906 L 580,907 L 579,907 L 578,907 L 577,907 L 576,908 L 576,909 L 575,909 L 575,910 L 574,910 L 573,911 L 571,911 L 569,912 L 568,912 L 567,914 L 566,914 L 565,914 L 564,914 L 562,913 L 562,912 L 562,911 L 561,911 L 561,910 L 561,909 L 561,908 L 560,908 L 559,908 L 560,907 L 560,906 L 560,905 L 561,905 L 562,905 L 562,904 L 561,903 L 560,902 L 560,901 L 559,901 L 559,900 L 559,899 L 559,898 L 559,897 L 559,896 L 559,895 L 558,895 L 558,894 L 557,894 L 556,894 L 556,893 L 555,893 L 554,893 L 553,892 L 552,892 L 551,891 L 550,891 L 550,890 L 549,889 L 549,888 L 548,887 L 547,887 L 547,886 L 547,885 L 546,884 L 545,884 L 544,883 L 544,882 L 543,882 L 542,881 L 541,881 L 540,882 L 538,882 L 533,880 L 531,879 L 529,879 L 528,878 L 526,879 L 525,879 L 522,880 L 521,880 L 519,880 L 509,888 L 506,890 L 501,895 L 499,896 L 499,898 L 498,898 L 497,899 L 495,898 L 494,897 L 494,894 L 492,894 L 488,894 L 486,894 L 485,894 L 485,893 L 484,892 L 483,892 L 482,892 L 482,891 L 481,891 L 480,891 L 480,890 L 479,890 L 480,890 L 480,889 L 479,889 L 479,888 L 479,887 L 478,887 L 477,887 L 476,887 L 476,886 L 475,886 L 474,886 L 474,885 L 474,884 L 473,884 L 474,883 L 473,883 L 472,883 L 471,883 L 471,884 L 471,883 L 470,883 L 470,884 L 469,884 L 469,885 L 468,885 L 468,884 L 468,883 L 468,882 L 469,879 L 468,877 L 468,873 L 468,871 L 468,870 L 467,869 L 467,868 L 466,867 L 466,866 L 467,866 L 468,865 L 467,860 L 467,858 L 468,857 L 468,855 L 470,851 L 472,849 L 474,847 L 475,846 L 476,844 L 476,843 L 475,843 L 475,842 L 475,841 L 474,841 L 474,840 L 473,839 L 473,838 L 472,838 L 472,835 L 475,832 L 477,828 L 475,825 L 478,821 L 479,820 L 480,820 L 481,820 L 481,818 L 481,817 L 480,817 L 479,816 L 479,813 L 480,813 L 481,813 L 482,814 L 483,814 L 484,810 L 486,807 L 486,806 L 487,804 L 487,802 L 489,801 L 491,802 L 493,801 L 495,801 L 495,800 L 496,800 L 496,799 L 496,798 L 497,797 L 497,796 L 498,794 L 500,793 L 501,791 L 501,790 L 502,790 L 503,789 L 504,789 L 505,789 L 506,788 L 507,787 L 507,786 L 510,783 L 511,782 L 514,781 L 515,780 L 517,780 L 518,779 L 521,781 L 523,778 L 526,777 L 528,777 L 529,777 L 531,776 L 532,776 L 537,776 L 541,775 L 545,775 L 548,774 L 553,775 " /></g>
</svg>
