<?xml version="1.0" standalone="no"?><!DOCTYPE svg PUBLIC "-//W3C//DTD SVG 1.1//EN" "http://www.w3.org/Graphics/SVG/1.1/DTD/svg11.dtd"><svg xmlns="http://www.w3.org/2000/svg" viewBox="533 883 136 178" version = "1.1">
<g id="50101" ><path d="M 631,1025 L 631,1028 L 626,1033 L 623,1035 L 620,1036 L 622,1040 L 622,1041 L 622,1042 L 624,1044 L 622,1048 L 622,1049 L 618,1053 L 617,1059 L 614,1061 L 612,1060 L 610,1061 L 609,1061 L 603,1060 L 602,1059 L 601,1055 L 599,1053 L 594,1051 L 592,1050 L 588,1048 L 588,1045 L 589,1043 L 588,1041 L 587,1040 L 585,1038 L 581,1038 L 580,1036 L 578,1035 L 577,1034 L 576,1036 L 575,1037 L 573,1041 L 570,1041 L 564,1037 L 566,1030 L 567,1030 L 567,1025 L 565,1022 L 562,1022 L 554,1024 L 547,1023 L 544,1020 L 543,1018 L 542,1017 L 541,1017 L 540,1017 L 538,1016 L 537,1016 L 535,1017 L 533,1017 L 534,1014 L 536,1011 L 537,1009 L 540,1006 L 542,1005 L 543,1004 L 545,1003 L 546,1002 L 549,1002 L 550,1001 L 549,996 L 551,993 L 555,992 L 560,992 L 561,990 L 561,988 L 564,986 L 566,986 L 567,986 L 568,986 L 569,986 L 570,986 L 571,986 L 571,985 L 572,985 L 573,985 L 573,984 L 574,984 L 575,984 L 575,983 L 576,983 L 576,982 L 577,982 L 576,982 L 576,981 L 577,981 L 577,980 L 577,979 L 577,978 L 578,978 L 579,978 L 579,977 L 579,976 L 579,975 L 579,974 L 580,974 L 581,974 L 581,973 L 582,973 L 582,972 L 582,970 L 582,969 L 579,964 L 576,962 L 573,959 L 570,955 L 565,952 L 567,949 L 568,944 L 572,936 L 571,933 L 571,931 L 571,930 L 571,929 L 570,927 L 570,926 L 570,924 L 569,924 L 567,923 L 564,922 L 563,922 L 562,921 L 561,922 L 560,922 L 559,922 L 557,921 L 556,920 L 556,919 L 555,919 L 555,918 L 555,917 L 555,916 L 555,915 L 555,914 L 555,913 L 555,912 L 556,912 L 556,911 L 557,911 L 557,910 L 558,909 L 558,908 L 559,908 L 559,907 L 559,908 L 560,908 L 561,908 L 561,909 L 561,910 L 561,911 L 562,911 L 562,912 L 562,913 L 564,914 L 565,914 L 566,914 L 567,914 L 568,912 L 569,912 L 571,911 L 573,911 L 574,910 L 575,910 L 575,909 L 576,909 L 576,908 L 577,907 L 578,907 L 579,907 L 580,907 L 580,906 L 581,906 L 581,905 L 582,905 L 583,904 L 584,904 L 585,904 L 584,903 L 584,904 L 584,903 L 584,902 L 584,903 L 585,903 L 585,902 L 585,901 L 584,901 L 585,901 L 585,900 L 586,899 L 587,899 L 587,898 L 587,897 L 587,896 L 586,896 L 586,895 L 587,895 L 587,894 L 587,893 L 586,893 L 587,893 L 586,892 L 586,891 L 587,890 L 588,889 L 589,889 L 589,888 L 589,887 L 591,886 L 594,886 L 594,887 L 595,887 L 596,887 L 597,886 L 600,886 L 601,885 L 602,885 L 603,885 L 605,885 L 605,884 L 606,885 L 607,884 L 607,885 L 609,884 L 611,884 L 613,883 L 614,886 L 614,889 L 616,893 L 617,895 L 618,896 L 620,899 L 620,902 L 620,903 L 621,904 L 622,905 L 623,905 L 624,905 L 624,904 L 625,903 L 625,902 L 624,901 L 624,898 L 624,896 L 625,893 L 626,891 L 628,889 L 629,889 L 630,890 L 631,890 L 632,890 L 634,890 L 635,891 L 637,891 L 638,893 L 639,893 L 642,894 L 642,893 L 643,893 L 644,893 L 645,892 L 646,892 L 647,893 L 648,893 L 649,894 L 650,895 L 651,896 L 651,897 L 652,898 L 652,899 L 653,899 L 653,900 L 654,900 L 655,900 L 655,901 L 656,902 L 656,903 L 657,904 L 658,904 L 659,905 L 659,906 L 660,907 L 660,908 L 661,909 L 661,910 L 661,911 L 661,912 L 661,913 L 662,915 L 662,918 L 661,921 L 660,924 L 661,925 L 661,926 L 661,927 L 661,928 L 662,929 L 663,929 L 663,930 L 664,930 L 665,930 L 666,930 L 666,931 L 667,931 L 667,932 L 668,932 L 668,933 L 669,933 L 669,934 L 668,934 L 667,934 L 667,935 L 666,935 L 666,936 L 665,936 L 665,937 L 665,938 L 664,938 L 663,939 L 662,939 L 661,939 L 660,939 L 660,940 L 659,940 L 658,940 L 657,940 L 657,941 L 656,941 L 654,941 L 652,941 L 651,942 L 651,943 L 649,944 L 647,945 L 645,948 L 645,949 L 645,950 L 645,951 L 645,952 L 644,952 L 643,952 L 642,952 L 641,952 L 640,952 L 640,954 L 640,955 L 641,955 L 642,956 L 643,957 L 644,958 L 645,959 L 646,959 L 647,960 L 646,960 L 646,961 L 645,961 L 645,962 L 644,962 L 644,961 L 643,961 L 643,962 L 642,962 L 641,962 L 640,963 L 640,964 L 639,964 L 639,965 L 638,965 L 638,966 L 637,966 L 636,966 L 635,966 L 634,967 L 633,967 L 632,967 L 632,968 L 631,968 L 631,969 L 631,970 L 630,970 L 630,971 L 630,972 L 629,972 L 629,973 L 628,973 L 626,976 L 626,977 L 627,977 L 627,978 L 626,979 L 628,980 L 628,981 L 627,981 L 627,983 L 627,985 L 626,986 L 626,987 L 624,989 L 623,990 L 622,990 L 620,991 L 620,992 L 619,993 L 620,994 L 620,995 L 620,996 L 620,997 L 621,997 L 622,997 L 623,997 L 623,998 L 623,999 L 623,1000 L 623,1001 L 624,1002 L 625,1003 L 625,1004 L 626,1005 L 625,1006 L 625,1007 L 625,1008 L 624,1008 L 623,1008 L 623,1009 L 623,1011 L 623,1012 L 623,1014 L 622,1014 L 623,1016 L 622,1017 L 622,1018 L 623,1018 L 623,1019 L 623,1020 L 624,1021 L 625,1022 L 626,1022 L 627,1022 L 628,1023 L 631,1025 " /></g>
</svg>
