<?xml version="1.0" standalone="no"?><!DOCTYPE svg PUBLIC "-//W3C//DTD SVG 1.1//EN" "http://www.w3.org/Graphics/SVG/1.1/DTD/svg11.dtd"><svg xmlns="http://www.w3.org/2000/svg" viewBox="474 878 108 140" version = "1.1">
<g id="50103" ><path d="M 528,878 L 529,879 L 531,879 L 533,880 L 538,882 L 540,882 L 541,881 L 542,881 L 543,882 L 544,882 L 544,883 L 545,884 L 546,884 L 547,885 L 547,886 L 547,887 L 548,887 L 549,888 L 549,889 L 550,890 L 550,891 L 551,891 L 552,892 L 553,892 L 554,893 L 555,893 L 556,893 L 556,894 L 557,894 L 558,894 L 558,895 L 559,895 L 559,896 L 559,897 L 559,898 L 559,899 L 559,900 L 559,901 L 560,901 L 560,902 L 561,903 L 562,904 L 562,905 L 561,905 L 560,905 L 560,906 L 560,907 L 559,908 L 559,907 L 559,908 L 558,908 L 558,909 L 557,910 L 557,911 L 556,911 L 556,912 L 555,912 L 555,913 L 555,914 L 555,915 L 555,916 L 555,917 L 555,918 L 555,919 L 556,919 L 556,920 L 557,921 L 559,922 L 560,922 L 561,922 L 562,921 L 563,922 L 564,922 L 567,923 L 569,924 L 570,924 L 570,926 L 570,927 L 571,929 L 571,930 L 571,931 L 571,933 L 572,936 L 568,944 L 567,949 L 565,952 L 570,955 L 573,959 L 576,962 L 579,964 L 582,969 L 582,970 L 582,972 L 582,973 L 581,973 L 581,974 L 580,974 L 579,974 L 579,975 L 579,976 L 579,977 L 579,978 L 578,978 L 577,978 L 577,979 L 577,980 L 577,981 L 576,981 L 576,982 L 577,982 L 576,982 L 576,983 L 575,983 L 575,984 L 574,984 L 573,984 L 573,985 L 572,985 L 571,985 L 571,986 L 570,986 L 569,986 L 568,986 L 567,986 L 566,986 L 564,986 L 561,988 L 561,990 L 560,992 L 555,992 L 551,993 L 549,996 L 550,1001 L 549,1002 L 546,1002 L 545,1003 L 543,1004 L 542,1005 L 540,1006 L 537,1009 L 536,1011 L 534,1014 L 533,1017 L 532,1018 L 531,1018 L 530,1018 L 528,1017 L 522,1015 L 521,1014 L 520,1013 L 520,1011 L 519,1011 L 516,1010 L 515,1010 L 514,1010 L 513,1010 L 512,1010 L 511,1010 L 506,1011 L 492,1013 L 483,1012 L 474,1001 L 475,1000 L 476,1000 L 476,999 L 477,999 L 477,998 L 478,998 L 479,998 L 480,998 L 481,998 L 483,990 L 485,987 L 493,977 L 498,973 L 500,966 L 505,959 L 504,953 L 504,952 L 504,951 L 504,950 L 503,949 L 503,948 L 502,948 L 503,948 L 502,948 L 502,947 L 502,946 L 502,945 L 502,944 L 503,944 L 503,943 L 503,942 L 503,941 L 503,940 L 503,939 L 503,938 L 503,937 L 503,936 L 504,936 L 504,935 L 504,934 L 503,934 L 503,933 L 503,932 L 503,931 L 504,931 L 504,930 L 504,929 L 504,928 L 505,928 L 505,926 L 505,925 L 505,924 L 504,920 L 503,917 L 502,913 L 501,913 L 500,913 L 500,912 L 499,911 L 498,911 L 497,911 L 497,910 L 497,909 L 497,908 L 496,908 L 496,907 L 495,907 L 494,907 L 493,907 L 493,906 L 492,906 L 493,905 L 492,904 L 491,904 L 491,903 L 490,902 L 490,901 L 489,901 L 488,901 L 488,900 L 487,900 L 487,899 L 486,899 L 486,898 L 487,898 L 487,897 L 486,897 L 487,896 L 486,896 L 485,896 L 486,896 L 486,895 L 486,894 L 488,894 L 492,894 L 494,894 L 494,897 L 495,898 L 497,899 L 498,898 L 499,898 L 499,896 L 501,895 L 506,890 L 509,888 L 519,880 L 521,880 L 522,880 L 525,879 L 526,879 L 528,878 " /></g>
</svg>
