<?xml version="1.0" standalone="no"?><!DOCTYPE svg PUBLIC "-//W3C//DTD SVG 1.1//EN" "http://www.w3.org/Graphics/SVG/1.1/DTD/svg11.dtd"><svg xmlns="http://www.w3.org/2000/svg" viewBox="363 623 55 74" version = "1.1">
<g id="50204" ><path d="M 395,625 L 396,626 L 397,626 L 397,627 L 398,627 L 398,628 L 399,628 L 399,629 L 400,629 L 400,630 L 401,630 L 401,631 L 402,631 L 403,631 L 403,632 L 404,632 L 405,632 L 405,633 L 406,633 L 407,633 L 408,633 L 408,634 L 409,634 L 410,633 L 410,634 L 411,634 L 412,634 L 413,634 L 414,634 L 415,635 L 415,634 L 416,634 L 416,635 L 417,635 L 417,636 L 416,636 L 417,636 L 416,636 L 416,637 L 416,638 L 416,639 L 416,640 L 415,640 L 415,641 L 414,641 L 414,642 L 414,643 L 414,644 L 414,645 L 415,646 L 414,646 L 414,647 L 414,648 L 415,648 L 416,649 L 417,649 L 417,650 L 418,650 L 418,651 L 418,652 L 418,653 L 418,654 L 417,655 L 416,655 L 416,656 L 415,656 L 414,656 L 414,657 L 414,658 L 414,659 L 414,660 L 413,660 L 413,661 L 412,662 L 412,663 L 413,663 L 414,663 L 413,664 L 414,664 L 414,665 L 414,664 L 414,665 L 414,666 L 415,666 L 415,667 L 416,667 L 416,668 L 417,668 L 417,669 L 416,669 L 416,668 L 416,669 L 417,669 L 417,670 L 416,670 L 417,670 L 417,671 L 417,672 L 416,672 L 415,672 L 415,673 L 414,673 L 414,675 L 412,677 L 409,678 L 409,679 L 405,682 L 405,683 L 401,686 L 398,688 L 395,690 L 390,693 L 387,693 L 383,697 L 382,696 L 381,695 L 381,694 L 380,692 L 378,690 L 376,688 L 375,688 L 374,688 L 373,689 L 372,688 L 371,687 L 370,687 L 368,687 L 367,686 L 366,686 L 365,686 L 364,687 L 363,687 L 363,682 L 363,678 L 363,674 L 363,673 L 364,672 L 365,672 L 365,670 L 366,668 L 366,666 L 371,656 L 375,655 L 375,653 L 374,650 L 375,649 L 374,647 L 375,645 L 377,646 L 378,646 L 379,643 L 380,639 L 381,639 L 382,637 L 382,635 L 381,632 L 383,631 L 384,631 L 384,630 L 385,630 L 385,629 L 386,629 L 387,628 L 387,627 L 388,627 L 388,628 L 389,628 L 389,629 L 390,629 L 391,629 L 391,628 L 391,627 L 391,626 L 391,625 L 392,625 L 392,624 L 391,624 L 392,624 L 393,625 L 393,624 L 394,624 L 394,623 L 394,624 L 395,624 L 395,625 " /></g>
</svg>
