<?xml version="1.0" standalone="no"?><!DOCTYPE svg PUBLIC "-//W3C//DTD SVG 1.1//EN" "http://www.w3.org/Graphics/SVG/1.1/DTD/svg11.dtd"><svg xmlns="http://www.w3.org/2000/svg" viewBox="265 535 110 76" version = "1.1">
<g id="50203" ><path d="M 366,535 L 367,535 L 367,536 L 368,536 L 369,536 L 370,537 L 370,536 L 370,537 L 371,537 L 370,538 L 370,539 L 371,539 L 372,539 L 372,540 L 372,541 L 373,542 L 374,543 L 374,544 L 375,544 L 374,545 L 375,545 L 374,546 L 373,547 L 371,548 L 369,550 L 366,552 L 363,554 L 362,555 L 359,556 L 360,560 L 360,561 L 360,562 L 361,562 L 361,563 L 362,564 L 362,565 L 362,566 L 363,566 L 363,567 L 363,568 L 362,568 L 361,568 L 359,569 L 358,570 L 357,570 L 357,571 L 357,572 L 357,573 L 358,574 L 358,575 L 359,575 L 360,577 L 360,578 L 361,580 L 361,581 L 360,583 L 360,584 L 359,585 L 358,586 L 356,588 L 354,588 L 350,591 L 349,592 L 348,594 L 347,595 L 344,596 L 343,597 L 341,597 L 332,601 L 326,600 L 324,596 L 323,597 L 320,598 L 315,600 L 314,602 L 310,602 L 304,605 L 294,608 L 292,608 L 283,610 L 281,611 L 280,610 L 280,609 L 280,608 L 281,608 L 281,607 L 279,604 L 277,597 L 276,595 L 276,592 L 275,590 L 275,588 L 276,586 L 275,585 L 274,582 L 273,580 L 270,576 L 270,575 L 270,571 L 265,563 L 270,561 L 272,560 L 274,558 L 282,555 L 286,552 L 287,551 L 288,548 L 289,548 L 290,548 L 291,548 L 292,548 L 293,548 L 294,548 L 294,547 L 295,547 L 295,546 L 296,546 L 297,546 L 297,545 L 297,546 L 298,546 L 299,546 L 300,545 L 301,545 L 302,544 L 303,544 L 303,543 L 304,543 L 305,543 L 306,543 L 307,543 L 308,543 L 308,544 L 309,544 L 313,544 L 315,543 L 316,543 L 317,543 L 318,543 L 319,543 L 320,543 L 320,542 L 321,542 L 322,542 L 323,542 L 324,542 L 325,542 L 325,541 L 326,541 L 326,540 L 326,541 L 327,541 L 327,540 L 328,541 L 329,541 L 330,541 L 330,542 L 331,542 L 331,541 L 332,541 L 333,541 L 334,541 L 335,542 L 336,541 L 336,542 L 337,542 L 337,541 L 337,540 L 338,539 L 339,539 L 339,540 L 340,540 L 341,540 L 342,540 L 342,539 L 342,538 L 342,537 L 343,537 L 344,537 L 346,537 L 349,538 L 350,538 L 351,539 L 352,540 L 353,540 L 354,540 L 354,541 L 355,541 L 356,541 L 357,541 L 358,541 L 359,540 L 360,540 L 361,540 L 361,539 L 362,538 L 362,539 L 363,539 L 364,539 L 364,538 L 364,537 L 365,537 L 365,536 L 365,535 L 366,535 " /></g>
</svg>
