<?xml version="1.0" standalone="no"?><!DOCTYPE svg PUBLIC "-//W3C//DTD SVG 1.1//EN" "http://www.w3.org/Graphics/SVG/1.1/DTD/svg11.dtd"><svg xmlns="http://www.w3.org/2000/svg" viewBox="281 596 99 118" version = "1.1">
<g id="50201" ><path d="M 332,601 L 341,597 L 343,600 L 343,601 L 343,602 L 343,603 L 344,605 L 344,607 L 346,607 L 346,606 L 347,606 L 348,605 L 350,606 L 351,607 L 352,609 L 355,612 L 358,616 L 359,616 L 361,619 L 362,621 L 363,620 L 364,620 L 365,620 L 365,621 L 366,621 L 368,620 L 370,621 L 371,621 L 371,622 L 372,623 L 373,623 L 373,624 L 374,624 L 374,625 L 375,625 L 375,626 L 376,629 L 377,632 L 377,635 L 377,636 L 377,638 L 380,639 L 379,643 L 378,646 L 377,646 L 375,645 L 374,647 L 375,649 L 374,650 L 375,653 L 375,655 L 371,656 L 366,666 L 366,668 L 365,670 L 365,672 L 364,672 L 363,673 L 363,674 L 363,678 L 363,682 L 363,687 L 362,686 L 362,685 L 361,685 L 360,685 L 360,686 L 360,685 L 359,685 L 359,686 L 358,686 L 357,686 L 356,686 L 356,687 L 356,686 L 356,687 L 356,686 L 355,687 L 352,691 L 351,695 L 350,698 L 350,699 L 349,702 L 350,703 L 350,705 L 348,708 L 346,709 L 345,710 L 342,713 L 341,714 L 339,713 L 335,712 L 332,710 L 331,709 L 331,706 L 330,703 L 330,701 L 330,700 L 329,696 L 330,691 L 327,691 L 323,691 L 321,690 L 320,690 L 319,690 L 317,689 L 317,688 L 317,687 L 316,687 L 316,686 L 315,686 L 315,685 L 314,684 L 312,683 L 311,683 L 310,683 L 309,683 L 308,683 L 308,682 L 309,681 L 310,680 L 310,679 L 310,678 L 310,677 L 310,676 L 309,674 L 308,673 L 307,673 L 307,672 L 306,671 L 305,671 L 305,669 L 306,668 L 305,667 L 303,666 L 300,667 L 299,667 L 298,667 L 297,666 L 296,666 L 296,665 L 296,664 L 295,663 L 294,661 L 293,658 L 293,656 L 293,655 L 295,655 L 295,653 L 295,652 L 295,650 L 295,649 L 294,647 L 293,645 L 292,643 L 292,642 L 291,642 L 291,641 L 290,641 L 290,640 L 289,640 L 289,639 L 289,638 L 289,637 L 289,636 L 289,635 L 290,635 L 289,634 L 289,633 L 288,632 L 288,631 L 287,630 L 287,629 L 287,628 L 287,626 L 286,624 L 285,622 L 283,619 L 281,617 L 281,616 L 281,615 L 281,613 L 281,611 L 283,610 L 292,608 L 294,608 L 304,605 L 310,602 L 314,602 L 315,600 L 320,598 L 323,597 L 324,596 L 326,600 L 332,601 " /></g>
</svg>
