<?xml version="1.0" standalone="no"?><!DOCTYPE svg PUBLIC "-//W3C//DTD SVG 1.1//EN" "http://www.w3.org/Graphics/SVG/1.1/DTD/svg11.dtd"><svg xmlns="http://www.w3.org/2000/svg" viewBox="341 518 109 121" version = "1.1">
<g id="50202" ><path d="M 408,518 L 409,520 L 409,521 L 409,522 L 410,522 L 410,523 L 410,524 L 409,524 L 409,525 L 408,525 L 406,527 L 404,532 L 403,534 L 402,534 L 402,535 L 401,535 L 401,536 L 400,536 L 399,536 L 399,537 L 398,537 L 397,538 L 396,540 L 394,543 L 394,544 L 394,545 L 394,546 L 394,547 L 395,547 L 395,548 L 395,549 L 394,549 L 394,550 L 393,550 L 393,551 L 393,552 L 393,553 L 392,553 L 392,554 L 392,555 L 391,555 L 391,556 L 391,557 L 392,557 L 392,558 L 392,559 L 393,559 L 393,560 L 394,560 L 395,560 L 395,561 L 396,561 L 396,562 L 397,562 L 397,563 L 398,563 L 398,564 L 399,564 L 400,564 L 401,564 L 401,565 L 401,566 L 402,566 L 403,566 L 403,567 L 404,567 L 404,568 L 405,568 L 405,569 L 406,569 L 406,570 L 405,570 L 405,571 L 406,571 L 406,572 L 406,573 L 407,573 L 407,574 L 408,574 L 409,574 L 409,575 L 409,576 L 410,576 L 410,577 L 410,578 L 411,578 L 412,578 L 412,579 L 413,579 L 413,580 L 414,580 L 414,579 L 414,580 L 415,580 L 416,580 L 416,581 L 417,581 L 418,581 L 418,582 L 419,582 L 420,582 L 420,583 L 421,583 L 422,583 L 422,584 L 423,584 L 424,584 L 424,585 L 425,585 L 425,586 L 426,586 L 426,587 L 426,588 L 427,588 L 427,589 L 428,589 L 428,590 L 429,590 L 429,591 L 429,592 L 430,592 L 430,593 L 431,594 L 431,595 L 432,595 L 432,596 L 433,596 L 433,597 L 433,598 L 434,598 L 434,599 L 435,599 L 435,600 L 436,600 L 437,601 L 438,602 L 438,603 L 439,603 L 440,603 L 440,604 L 441,604 L 441,605 L 441,606 L 441,607 L 442,607 L 442,608 L 443,608 L 443,609 L 444,609 L 444,610 L 445,611 L 446,611 L 446,612 L 447,612 L 447,613 L 448,613 L 449,613 L 449,614 L 449,613 L 450,614 L 450,615 L 450,616 L 449,616 L 449,617 L 448,618 L 448,619 L 448,620 L 447,620 L 447,621 L 447,622 L 446,622 L 446,623 L 445,623 L 445,624 L 444,624 L 443,624 L 442,624 L 441,624 L 441,623 L 441,622 L 440,622 L 441,622 L 441,621 L 440,621 L 440,622 L 439,622 L 438,622 L 438,621 L 438,622 L 437,622 L 436,622 L 436,623 L 435,623 L 434,623 L 433,623 L 433,624 L 433,625 L 432,625 L 432,624 L 432,625 L 431,625 L 431,626 L 430,626 L 430,627 L 429,627 L 429,628 L 429,629 L 428,630 L 428,631 L 428,632 L 427,632 L 427,633 L 426,633 L 426,634 L 426,635 L 426,636 L 426,637 L 425,637 L 424,637 L 424,636 L 424,635 L 423,635 L 423,634 L 422,634 L 421,634 L 420,634 L 419,634 L 418,634 L 417,634 L 417,635 L 416,635 L 416,634 L 415,634 L 415,635 L 414,634 L 413,634 L 412,634 L 411,634 L 410,634 L 410,633 L 409,634 L 408,634 L 408,633 L 407,633 L 406,633 L 405,633 L 405,632 L 404,632 L 403,632 L 403,631 L 402,631 L 401,631 L 401,630 L 400,630 L 400,629 L 399,629 L 399,628 L 398,628 L 398,627 L 397,627 L 397,626 L 396,626 L 395,625 L 395,624 L 394,624 L 394,623 L 394,624 L 393,624 L 393,625 L 392,624 L 391,624 L 392,624 L 392,625 L 391,625 L 391,626 L 391,627 L 391,628 L 391,629 L 390,629 L 389,629 L 389,628 L 388,628 L 388,627 L 387,627 L 387,628 L 386,629 L 385,629 L 385,630 L 384,630 L 384,631 L 383,631 L 381,632 L 382,635 L 382,637 L 381,639 L 380,639 L 377,638 L 377,636 L 377,635 L 377,632 L 376,629 L 375,626 L 375,625 L 374,625 L 374,624 L 373,624 L 373,623 L 372,623 L 371,622 L 371,621 L 370,621 L 368,620 L 366,621 L 365,621 L 365,620 L 364,620 L 363,620 L 362,621 L 361,619 L 359,616 L 358,616 L 355,612 L 352,609 L 351,607 L 350,606 L 348,605 L 347,606 L 346,606 L 346,607 L 344,607 L 344,605 L 343,603 L 343,602 L 343,601 L 343,600 L 341,597 L 343,597 L 344,596 L 347,595 L 348,594 L 349,592 L 350,591 L 354,588 L 356,588 L 358,586 L 359,585 L 360,584 L 360,583 L 361,581 L 361,580 L 360,578 L 360,577 L 359,575 L 358,575 L 358,574 L 357,573 L 357,572 L 357,571 L 357,570 L 358,570 L 359,569 L 361,568 L 362,568 L 363,568 L 363,567 L 363,566 L 362,566 L 362,565 L 362,564 L 361,563 L 361,562 L 360,562 L 360,561 L 360,560 L 359,556 L 362,555 L 363,554 L 366,552 L 369,550 L 371,548 L 373,547 L 374,546 L 375,545 L 374,545 L 375,544 L 374,544 L 374,543 L 373,542 L 372,541 L 372,540 L 372,539 L 371,539 L 370,539 L 370,538 L 371,537 L 370,537 L 370,536 L 371,534 L 372,532 L 372,531 L 373,530 L 373,529 L 375,528 L 376,528 L 377,528 L 378,528 L 380,525 L 382,522 L 385,520 L 387,520 L 388,519 L 391,518 L 392,519 L 393,518 L 395,518 L 397,519 L 398,518 L 399,519 L 400,519 L 402,520 L 403,519 L 404,518 L 406,518 L 408,518 " /></g>
</svg>
