<?xml version="1.0" standalone="no"?><!DOCTYPE svg PUBLIC "-//W3C//DTD SVG 1.1//EN" "http://www.w3.org/Graphics/SVG/1.1/DTD/svg11.dtd"><svg xmlns="http://www.w3.org/2000/svg" viewBox="651 862 249 138" version = "1.1">
<g id="50301" ><path d="M 713,863 L 714,863 L 715,863 L 716,863 L 716,864 L 717,864 L 718,864 L 718,865 L 719,865 L 719,864 L 720,864 L 720,865 L 721,865 L 721,866 L 721,867 L 720,867 L 720,868 L 721,868 L 721,869 L 721,870 L 721,871 L 722,871 L 723,872 L 724,872 L 724,873 L 725,873 L 726,873 L 727,874 L 728,874 L 729,874 L 730,875 L 731,875 L 732,876 L 733,876 L 734,876 L 735,876 L 736,877 L 736,878 L 736,879 L 737,879 L 737,880 L 737,881 L 738,882 L 738,883 L 739,883 L 739,884 L 739,885 L 739,886 L 740,886 L 741,887 L 741,888 L 742,888 L 743,888 L 744,888 L 745,888 L 746,888 L 747,888 L 748,888 L 749,888 L 750,888 L 750,889 L 751,889 L 752,889 L 753,889 L 753,890 L 754,890 L 755,890 L 756,890 L 757,891 L 758,891 L 759,891 L 760,890 L 761,891 L 762,891 L 763,892 L 764,892 L 765,892 L 766,892 L 767,892 L 768,892 L 769,893 L 769,894 L 770,894 L 771,895 L 771,896 L 772,897 L 771,897 L 771,898 L 772,899 L 773,900 L 774,901 L 775,901 L 776,901 L 777,901 L 777,902 L 778,902 L 779,903 L 780,903 L 781,904 L 782,904 L 783,905 L 784,905 L 785,904 L 786,904 L 787,904 L 787,905 L 788,905 L 788,906 L 789,906 L 790,907 L 790,908 L 790,909 L 791,909 L 792,909 L 793,909 L 793,910 L 794,910 L 794,911 L 795,911 L 796,911 L 797,911 L 798,912 L 799,912 L 799,911 L 800,911 L 801,911 L 802,911 L 803,911 L 804,911 L 804,910 L 805,910 L 806,910 L 806,911 L 807,911 L 808,911 L 808,910 L 809,910 L 810,910 L 811,910 L 812,910 L 812,909 L 813,909 L 814,909 L 815,908 L 816,908 L 817,908 L 817,909 L 818,909 L 818,910 L 818,911 L 819,911 L 819,912 L 820,912 L 821,912 L 822,912 L 822,913 L 823,913 L 823,914 L 824,914 L 825,914 L 826,914 L 827,914 L 828,914 L 829,914 L 830,913 L 831,913 L 831,912 L 831,911 L 832,911 L 833,911 L 833,910 L 833,909 L 834,909 L 835,909 L 836,909 L 837,908 L 838,908 L 838,907 L 839,906 L 840,905 L 841,904 L 842,904 L 843,903 L 844,903 L 845,903 L 847,903 L 848,903 L 849,903 L 850,903 L 851,903 L 852,902 L 853,902 L 854,901 L 856,901 L 857,902 L 858,903 L 859,903 L 859,904 L 860,905 L 861,905 L 862,905 L 863,905 L 864,905 L 865,905 L 866,905 L 867,906 L 868,906 L 869,906 L 869,907 L 870,907 L 871,907 L 872,906 L 873,905 L 873,904 L 874,904 L 875,904 L 875,905 L 875,906 L 875,907 L 875,908 L 876,909 L 876,910 L 877,910 L 878,910 L 879,910 L 879,911 L 880,911 L 881,912 L 881,913 L 881,914 L 881,915 L 881,916 L 880,916 L 880,917 L 880,918 L 880,919 L 881,919 L 882,920 L 883,920 L 883,919 L 884,919 L 885,919 L 885,918 L 886,918 L 887,918 L 887,919 L 888,919 L 888,920 L 889,920 L 890,921 L 891,921 L 891,922 L 892,922 L 893,922 L 894,922 L 895,922 L 895,923 L 895,924 L 895,925 L 894,925 L 894,926 L 895,926 L 896,926 L 896,927 L 896,928 L 895,928 L 895,929 L 896,929 L 896,930 L 897,931 L 897,932 L 897,933 L 897,934 L 897,935 L 898,936 L 899,937 L 899,938 L 899,939 L 899,940 L 899,941 L 900,941 L 900,942 L 900,943 L 899,943 L 899,944 L 898,944 L 898,945 L 897,945 L 896,945 L 896,946 L 895,946 L 894,946 L 894,947 L 893,947 L 892,948 L 891,948 L 890,948 L 890,947 L 889,947 L 888,947 L 888,946 L 887,946 L 887,947 L 886,947 L 886,948 L 886,949 L 885,949 L 885,950 L 884,950 L 883,950 L 882,950 L 881,950 L 882,951 L 881,951 L 882,951 L 881,951 L 881,952 L 882,952 L 881,952 L 881,953 L 882,953 L 881,954 L 881,955 L 882,955 L 882,956 L 882,957 L 882,958 L 882,959 L 882,960 L 882,961 L 882,962 L 882,963 L 881,963 L 880,963 L 879,963 L 879,964 L 878,965 L 875,969 L 873,970 L 871,972 L 869,972 L 867,971 L 866,973 L 865,973 L 864,973 L 863,973 L 862,973 L 861,973 L 860,973 L 859,974 L 858,975 L 857,976 L 856,976 L 855,976 L 856,977 L 856,978 L 855,978 L 855,979 L 856,980 L 857,985 L 857,986 L 858,988 L 858,990 L 857,993 L 854,994 L 852,995 L 852,996 L 851,997 L 850,996 L 850,995 L 851,995 L 851,994 L 850,994 L 850,993 L 851,993 L 850,993 L 851,993 L 850,993 L 850,992 L 850,991 L 849,991 L 849,992 L 848,992 L 848,993 L 848,994 L 848,995 L 848,994 L 847,994 L 846,994 L 846,993 L 845,993 L 845,992 L 843,994 L 843,993 L 842,993 L 842,992 L 841,992 L 841,991 L 840,991 L 839,991 L 839,992 L 838,992 L 838,991 L 837,991 L 836,991 L 836,992 L 835,992 L 834,992 L 833,992 L 833,993 L 832,993 L 831,993 L 827,995 L 826,994 L 826,989 L 825,985 L 822,975 L 822,974 L 822,973 L 821,973 L 821,972 L 820,972 L 820,971 L 821,970 L 821,969 L 821,968 L 820,967 L 819,967 L 820,962 L 818,961 L 814,962 L 813,962 L 812,962 L 811,962 L 810,962 L 809,962 L 808,962 L 809,962 L 808,962 L 808,963 L 808,964 L 807,964 L 807,965 L 808,965 L 809,965 L 808,965 L 808,966 L 808,967 L 807,967 L 807,968 L 804,971 L 804,970 L 804,969 L 803,969 L 803,968 L 802,968 L 802,967 L 802,966 L 802,965 L 801,965 L 801,964 L 801,963 L 801,962 L 801,961 L 800,961 L 800,960 L 800,959 L 799,958 L 796,958 L 795,957 L 792,957 L 786,958 L 786,959 L 785,959 L 785,960 L 784,960 L 783,960 L 783,961 L 782,961 L 782,962 L 783,962 L 781,962 L 781,963 L 781,964 L 781,965 L 782,965 L 783,965 L 783,966 L 783,967 L 783,968 L 784,968 L 785,968 L 785,967 L 786,967 L 786,968 L 786,969 L 786,970 L 785,971 L 784,971 L 784,972 L 783,972 L 783,973 L 784,973 L 784,974 L 784,975 L 783,975 L 782,975 L 781,975 L 781,974 L 780,974 L 780,973 L 779,973 L 778,973 L 777,972 L 776,972 L 776,973 L 775,973 L 775,972 L 774,972 L 773,972 L 773,973 L 772,973 L 772,972 L 771,972 L 770,972 L 770,973 L 769,973 L 769,974 L 768,974 L 768,975 L 767,975 L 767,976 L 766,976 L 765,977 L 765,978 L 764,978 L 764,979 L 763,979 L 764,979 L 764,980 L 764,981 L 763,981 L 763,982 L 762,982 L 762,983 L 761,984 L 761,985 L 761,986 L 761,987 L 760,988 L 758,990 L 756,991 L 753,992 L 752,992 L 751,992 L 740,993 L 739,993 L 739,994 L 739,995 L 738,995 L 738,996 L 737,997 L 736,998 L 735,999 L 734,1000 L 733,1000 L 732,1000 L 732,999 L 731,999 L 731,998 L 730,998 L 729,997 L 728,996 L 725,995 L 724,994 L 723,993 L 722,993 L 721,992 L 719,993 L 719,994 L 718,994 L 717,992 L 716,992 L 716,991 L 716,990 L 716,989 L 715,989 L 715,988 L 714,988 L 713,988 L 712,988 L 712,987 L 711,987 L 710,987 L 710,988 L 709,987 L 709,988 L 708,988 L 707,988 L 706,987 L 704,985 L 702,984 L 701,982 L 700,981 L 700,980 L 699,980 L 699,981 L 698,983 L 698,984 L 697,986 L 697,987 L 696,988 L 696,987 L 695,986 L 694,983 L 693,981 L 692,981 L 692,980 L 691,979 L 690,979 L 688,979 L 688,978 L 686,978 L 685,978 L 684,978 L 682,978 L 680,977 L 679,977 L 679,976 L 678,976 L 677,975 L 676,974 L 675,973 L 673,973 L 672,973 L 669,973 L 666,973 L 666,972 L 665,971 L 665,970 L 664,970 L 664,969 L 663,968 L 663,967 L 662,967 L 662,966 L 662,965 L 661,965 L 663,964 L 663,962 L 662,962 L 661,961 L 661,959 L 661,957 L 660,956 L 658,953 L 657,951 L 655,948 L 654,947 L 653,946 L 651,943 L 651,942 L 652,941 L 654,941 L 656,941 L 657,941 L 657,940 L 658,940 L 659,940 L 660,940 L 660,939 L 661,939 L 662,939 L 663,939 L 664,938 L 665,938 L 665,937 L 665,936 L 666,936 L 666,935 L 667,935 L 667,934 L 668,934 L 669,934 L 669,933 L 668,933 L 668,932 L 667,932 L 667,931 L 666,931 L 666,930 L 665,930 L 664,930 L 663,930 L 663,929 L 662,929 L 661,928 L 661,927 L 662,927 L 663,927 L 664,927 L 664,926 L 665,926 L 666,926 L 666,927 L 667,927 L 668,926 L 668,927 L 669,927 L 670,927 L 671,927 L 672,927 L 673,927 L 674,927 L 674,928 L 675,928 L 676,928 L 676,927 L 677,927 L 677,926 L 678,926 L 679,926 L 679,925 L 680,925 L 681,925 L 682,925 L 683,925 L 685,925 L 686,926 L 687,925 L 688,924 L 689,924 L 688,923 L 688,920 L 688,918 L 688,917 L 688,914 L 688,913 L 688,912 L 688,909 L 688,908 L 689,907 L 688,907 L 688,906 L 688,905 L 687,905 L 686,904 L 684,902 L 684,901 L 684,900 L 684,897 L 685,897 L 686,897 L 687,897 L 689,895 L 690,895 L 692,894 L 693,894 L 694,894 L 695,893 L 695,892 L 696,892 L 696,891 L 692,888 L 692,885 L 690,883 L 691,883 L 691,882 L 692,882 L 693,880 L 696,879 L 697,878 L 698,879 L 700,878 L 700,877 L 701,877 L 701,876 L 702,876 L 702,877 L 702,876 L 702,877 L 703,877 L 703,876 L 703,877 L 703,876 L 703,877 L 704,877 L 705,877 L 705,876 L 706,876 L 707,875 L 706,875 L 707,875 L 707,874 L 708,874 L 708,873 L 707,873 L 708,873 L 708,872 L 709,872 L 708,871 L 709,871 L 708,871 L 708,870 L 708,869 L 707,869 L 707,868 L 708,868 L 709,868 L 709,867 L 709,866 L 709,865 L 710,865 L 710,864 L 710,863 L 711,863 L 712,863 L 712,862 L 712,863 L 712,862 L 713,863 L 713,862 L 713,863 " /></g>
</svg>
