<?xml version="1.0" standalone="no"?><!DOCTYPE svg PUBLIC "-//W3C//DTD SVG 1.1//EN" "http://www.w3.org/Graphics/SVG/1.1/DTD/svg11.dtd"><svg xmlns="http://www.w3.org/2000/svg" viewBox="608 783 112 145" version = "1.1">
<g id="50303" ><path d="M 647,783 L 648,783 L 648,784 L 649,784 L 648,784 L 649,784 L 649,785 L 649,786 L 650,786 L 650,787 L 651,788 L 652,789 L 652,790 L 653,790 L 653,791 L 654,791 L 654,792 L 655,793 L 655,794 L 655,795 L 655,796 L 656,796 L 656,797 L 657,798 L 657,799 L 657,800 L 658,801 L 658,802 L 658,803 L 658,804 L 659,805 L 658,806 L 659,807 L 660,807 L 660,808 L 661,808 L 661,809 L 662,809 L 661,809 L 662,809 L 662,810 L 662,811 L 662,812 L 663,812 L 663,813 L 664,813 L 664,814 L 665,814 L 666,814 L 667,814 L 668,814 L 669,814 L 669,815 L 670,815 L 670,816 L 671,816 L 671,817 L 672,817 L 672,816 L 673,816 L 674,816 L 675,816 L 676,816 L 676,815 L 676,814 L 677,814 L 677,815 L 678,815 L 679,815 L 680,816 L 681,816 L 681,817 L 682,817 L 682,818 L 683,818 L 683,819 L 683,820 L 684,820 L 684,821 L 685,822 L 686,823 L 686,824 L 687,825 L 688,826 L 689,826 L 690,826 L 691,826 L 692,826 L 693,827 L 694,828 L 694,829 L 695,829 L 696,829 L 696,830 L 697,830 L 698,830 L 698,831 L 699,831 L 700,831 L 701,831 L 702,831 L 703,831 L 704,831 L 704,832 L 705,832 L 706,832 L 707,832 L 708,832 L 709,833 L 709,834 L 710,834 L 710,835 L 710,836 L 710,837 L 711,837 L 711,838 L 711,839 L 712,840 L 712,841 L 713,841 L 713,842 L 714,843 L 715,844 L 715,845 L 715,846 L 715,847 L 715,848 L 715,849 L 715,850 L 715,851 L 714,851 L 714,852 L 714,853 L 714,854 L 714,855 L 715,855 L 715,856 L 715,857 L 716,857 L 716,858 L 717,858 L 717,859 L 717,860 L 717,861 L 718,861 L 718,862 L 718,863 L 719,863 L 719,864 L 720,864 L 719,864 L 719,865 L 718,865 L 718,864 L 717,864 L 716,864 L 716,863 L 715,863 L 714,863 L 713,863 L 713,862 L 713,863 L 712,862 L 712,863 L 712,862 L 712,863 L 711,863 L 710,863 L 710,864 L 710,865 L 709,865 L 709,866 L 709,867 L 709,868 L 708,868 L 707,868 L 707,869 L 708,869 L 708,870 L 708,871 L 709,871 L 708,871 L 709,872 L 708,872 L 708,873 L 707,873 L 708,873 L 708,874 L 707,874 L 707,875 L 706,875 L 707,875 L 706,876 L 705,876 L 705,877 L 704,877 L 703,877 L 703,876 L 703,877 L 703,876 L 703,877 L 702,877 L 702,876 L 702,877 L 702,876 L 701,876 L 701,877 L 700,877 L 700,878 L 698,879 L 697,878 L 696,879 L 693,880 L 692,882 L 691,882 L 691,883 L 690,883 L 692,885 L 692,888 L 696,891 L 696,892 L 695,892 L 695,893 L 694,894 L 693,894 L 692,894 L 690,895 L 689,895 L 687,897 L 686,897 L 685,897 L 684,897 L 684,900 L 684,901 L 684,902 L 686,904 L 687,905 L 688,905 L 688,906 L 688,907 L 689,907 L 688,908 L 688,909 L 688,912 L 688,913 L 688,914 L 688,917 L 688,918 L 688,920 L 688,923 L 689,924 L 688,924 L 687,925 L 686,926 L 685,925 L 683,925 L 682,925 L 681,925 L 680,925 L 679,925 L 679,926 L 678,926 L 677,926 L 677,927 L 676,927 L 676,928 L 675,928 L 674,928 L 674,927 L 673,927 L 672,927 L 671,927 L 670,927 L 669,927 L 668,927 L 668,926 L 667,927 L 666,927 L 666,926 L 665,926 L 664,926 L 664,927 L 663,927 L 662,927 L 661,927 L 661,926 L 661,925 L 660,924 L 661,921 L 662,918 L 662,915 L 661,913 L 661,912 L 661,911 L 661,910 L 661,909 L 660,908 L 660,907 L 659,906 L 659,905 L 658,904 L 657,904 L 656,903 L 656,902 L 655,901 L 655,900 L 654,900 L 653,900 L 653,899 L 652,899 L 652,898 L 651,897 L 651,896 L 650,895 L 649,894 L 648,893 L 647,893 L 646,892 L 645,892 L 644,893 L 643,893 L 642,893 L 642,894 L 639,893 L 638,893 L 637,891 L 635,891 L 634,890 L 632,890 L 631,890 L 630,890 L 629,889 L 628,889 L 626,891 L 625,893 L 624,896 L 624,898 L 624,901 L 625,902 L 625,903 L 624,904 L 624,905 L 623,905 L 622,905 L 621,904 L 620,903 L 620,902 L 620,899 L 618,896 L 617,895 L 616,893 L 614,889 L 614,886 L 613,883 L 613,882 L 611,879 L 613,872 L 613,871 L 614,869 L 614,868 L 615,867 L 613,866 L 612,866 L 612,865 L 612,864 L 610,863 L 609,862 L 610,859 L 609,858 L 609,856 L 610,854 L 610,852 L 611,852 L 611,851 L 611,850 L 610,850 L 610,849 L 610,848 L 609,847 L 609,846 L 609,845 L 608,845 L 609,844 L 610,844 L 610,843 L 611,843 L 611,842 L 612,842 L 612,841 L 613,840 L 614,840 L 615,841 L 616,841 L 617,841 L 617,842 L 618,842 L 620,844 L 621,844 L 621,843 L 621,842 L 621,841 L 621,840 L 622,840 L 622,839 L 623,838 L 623,837 L 624,837 L 624,836 L 625,836 L 625,835 L 625,834 L 625,833 L 626,832 L 626,831 L 625,830 L 626,830 L 626,829 L 627,829 L 626,829 L 626,828 L 626,827 L 627,827 L 627,826 L 627,827 L 628,826 L 628,825 L 628,824 L 628,823 L 627,822 L 627,821 L 627,820 L 626,820 L 626,819 L 625,818 L 625,817 L 625,816 L 625,815 L 626,815 L 626,814 L 626,813 L 627,813 L 627,812 L 626,812 L 626,811 L 627,810 L 628,810 L 628,809 L 627,809 L 628,809 L 628,808 L 627,808 L 627,807 L 628,807 L 628,806 L 628,805 L 627,805 L 627,804 L 627,803 L 627,802 L 627,801 L 626,801 L 626,800 L 625,800 L 626,800 L 626,799 L 625,798 L 624,796 L 625,794 L 626,793 L 627,790 L 627,789 L 630,789 L 633,789 L 635,789 L 636,789 L 636,790 L 637,790 L 638,790 L 638,789 L 639,789 L 640,789 L 640,788 L 640,787 L 641,787 L 641,786 L 642,786 L 642,787 L 643,787 L 643,786 L 643,785 L 643,784 L 643,783 L 644,783 L 645,783 L 646,783 L 647,783 " /></g>
</svg>
