<?xml version="1.0" standalone="no"?><!DOCTYPE svg PUBLIC "-//W3C//DTD SVG 1.1//EN" "http://www.w3.org/Graphics/SVG/1.1/DTD/svg11.dtd"><svg xmlns="http://www.w3.org/2000/svg" viewBox="619 943 98 89" version = "1.1">
<g id="50302" ><path d="M 657,951 L 658,953 L 660,956 L 661,957 L 661,959 L 661,961 L 662,962 L 663,962 L 663,964 L 661,965 L 662,965 L 662,966 L 662,967 L 663,967 L 663,968 L 664,969 L 664,970 L 665,970 L 665,971 L 666,972 L 666,973 L 669,973 L 672,973 L 673,973 L 675,973 L 676,974 L 677,975 L 678,976 L 679,976 L 679,977 L 680,977 L 682,978 L 684,978 L 685,978 L 686,978 L 688,978 L 688,979 L 690,979 L 691,979 L 692,980 L 692,981 L 693,981 L 694,983 L 695,986 L 696,987 L 696,988 L 697,987 L 697,986 L 698,984 L 698,983 L 699,981 L 699,980 L 700,980 L 700,981 L 701,982 L 702,984 L 704,985 L 706,987 L 707,988 L 708,988 L 709,988 L 709,987 L 710,988 L 710,989 L 710,990 L 710,991 L 709,991 L 709,992 L 709,993 L 709,994 L 709,995 L 709,996 L 709,997 L 709,996 L 709,997 L 710,997 L 710,998 L 711,999 L 712,999 L 717,1003 L 716,1007 L 715,1007 L 714,1007 L 713,1007 L 712,1007 L 711,1007 L 710,1008 L 709,1008 L 708,1008 L 707,1009 L 706,1009 L 706,1010 L 705,1010 L 705,1011 L 705,1012 L 706,1012 L 706,1013 L 706,1014 L 706,1015 L 706,1016 L 706,1017 L 706,1018 L 706,1019 L 706,1020 L 706,1021 L 706,1022 L 706,1023 L 706,1024 L 705,1024 L 705,1025 L 706,1025 L 706,1026 L 706,1027 L 706,1028 L 706,1029 L 706,1030 L 705,1030 L 704,1030 L 704,1031 L 703,1032 L 703,1031 L 702,1031 L 702,1030 L 702,1029 L 702,1028 L 702,1027 L 702,1026 L 701,1025 L 701,1024 L 701,1023 L 701,1022 L 701,1020 L 700,1019 L 698,1017 L 697,1018 L 696,1019 L 695,1019 L 695,1020 L 694,1020 L 694,1021 L 693,1021 L 693,1022 L 692,1022 L 692,1023 L 692,1024 L 691,1024 L 691,1023 L 690,1023 L 690,1022 L 689,1022 L 689,1023 L 688,1022 L 687,1022 L 685,1022 L 686,1022 L 686,1021 L 685,1021 L 685,1020 L 685,1019 L 686,1020 L 686,1019 L 686,1018 L 685,1018 L 684,1018 L 684,1017 L 683,1017 L 683,1018 L 684,1018 L 683,1018 L 682,1018 L 682,1019 L 681,1019 L 681,1020 L 680,1020 L 680,1019 L 680,1020 L 679,1019 L 679,1018 L 678,1018 L 677,1018 L 676,1018 L 675,1018 L 675,1019 L 674,1019 L 674,1020 L 673,1020 L 672,1021 L 672,1020 L 671,1020 L 670,1020 L 670,1021 L 669,1021 L 668,1021 L 667,1021 L 667,1022 L 666,1022 L 665,1022 L 665,1023 L 664,1023 L 663,1023 L 662,1023 L 661,1023 L 660,1023 L 660,1022 L 659,1022 L 658,1022 L 657,1022 L 656,1023 L 655,1023 L 654,1023 L 652,1023 L 652,1024 L 651,1024 L 650,1024 L 649,1024 L 649,1025 L 648,1024 L 646,1025 L 642,1027 L 641,1026 L 631,1025 L 628,1023 L 627,1022 L 626,1022 L 625,1022 L 624,1021 L 623,1020 L 623,1019 L 623,1018 L 622,1018 L 622,1017 L 623,1016 L 622,1014 L 623,1014 L 623,1012 L 623,1011 L 623,1009 L 623,1008 L 624,1008 L 625,1008 L 625,1007 L 625,1006 L 626,1005 L 625,1004 L 625,1003 L 624,1002 L 623,1001 L 623,1000 L 623,999 L 623,998 L 623,997 L 622,997 L 621,997 L 620,997 L 620,996 L 620,995 L 620,994 L 619,993 L 620,992 L 620,991 L 622,990 L 623,990 L 624,989 L 626,987 L 626,986 L 627,985 L 627,983 L 627,981 L 628,981 L 628,980 L 626,979 L 627,978 L 627,977 L 626,977 L 626,976 L 628,973 L 629,973 L 629,972 L 630,972 L 630,971 L 630,970 L 631,970 L 631,969 L 631,968 L 632,968 L 632,967 L 633,967 L 634,967 L 635,966 L 636,966 L 637,966 L 638,966 L 638,965 L 639,965 L 639,964 L 640,964 L 640,963 L 641,962 L 642,962 L 643,962 L 643,961 L 644,961 L 644,962 L 645,962 L 645,961 L 646,961 L 646,960 L 647,960 L 646,959 L 645,959 L 644,958 L 643,957 L 642,956 L 641,955 L 640,955 L 640,954 L 640,952 L 641,952 L 642,952 L 643,952 L 644,952 L 645,952 L 645,951 L 645,950 L 645,949 L 645,948 L 647,945 L 649,944 L 651,943 L 653,946 L 654,947 L 655,948 L 657,951 " /></g>
</svg>
