<?xml version="1.0" standalone="no"?><!DOCTYPE svg PUBLIC "-//W3C//DTD SVG 1.1//EN" "http://www.w3.org/Graphics/SVG/1.1/DTD/svg11.dtd"><svg xmlns="http://www.w3.org/2000/svg" viewBox="529 664 104 170" version = "1.1">
<g id="50404" ><path d="M 619,750 L 619,751 L 618,752 L 619,752 L 619,753 L 620,753 L 621,753 L 621,754 L 622,755 L 622,758 L 626,762 L 627,764 L 628,764 L 631,767 L 631,769 L 630,771 L 630,772 L 630,773 L 629,774 L 629,775 L 629,776 L 630,776 L 630,777 L 630,778 L 631,779 L 631,780 L 631,781 L 631,782 L 631,783 L 632,783 L 632,784 L 632,785 L 632,786 L 633,787 L 633,789 L 630,789 L 627,789 L 627,790 L 626,793 L 625,794 L 624,796 L 625,798 L 626,799 L 626,800 L 625,800 L 626,800 L 626,801 L 627,801 L 627,802 L 627,803 L 627,804 L 627,805 L 628,805 L 628,806 L 628,807 L 627,807 L 627,808 L 628,808 L 628,809 L 627,809 L 628,809 L 628,810 L 627,810 L 626,811 L 626,812 L 627,812 L 627,813 L 626,813 L 626,814 L 626,815 L 625,815 L 625,816 L 625,817 L 625,818 L 626,819 L 626,820 L 627,820 L 627,821 L 627,822 L 628,823 L 628,824 L 628,825 L 628,826 L 627,827 L 627,826 L 627,827 L 626,827 L 626,828 L 626,829 L 627,829 L 626,829 L 626,830 L 625,830 L 626,831 L 626,832 L 625,833 L 625,834 L 623,833 L 622,833 L 619,833 L 618,833 L 617,832 L 616,833 L 616,832 L 615,832 L 615,833 L 613,830 L 612,829 L 611,828 L 611,827 L 610,826 L 608,824 L 608,823 L 607,822 L 606,821 L 605,820 L 604,820 L 603,820 L 602,819 L 602,817 L 601,816 L 600,814 L 599,811 L 598,811 L 597,811 L 597,810 L 597,808 L 598,806 L 599,805 L 600,804 L 600,803 L 599,803 L 597,800 L 595,799 L 593,798 L 591,797 L 591,796 L 590,796 L 590,797 L 589,797 L 589,796 L 588,796 L 588,795 L 587,795 L 587,796 L 586,796 L 586,797 L 585,797 L 584,798 L 583,798 L 583,797 L 582,797 L 582,796 L 581,796 L 580,795 L 579,795 L 579,794 L 578,794 L 577,794 L 576,794 L 575,794 L 573,793 L 572,793 L 571,794 L 569,794 L 569,793 L 566,791 L 564,790 L 560,787 L 560,786 L 559,786 L 558,784 L 556,778 L 559,779 L 558,777 L 559,774 L 557,768 L 560,767 L 559,764 L 557,761 L 557,759 L 557,755 L 559,754 L 557,753 L 556,753 L 554,746 L 554,741 L 552,738 L 550,737 L 547,737 L 545,736 L 542,735 L 541,735 L 544,732 L 543,731 L 543,730 L 543,729 L 542,728 L 541,727 L 540,726 L 542,725 L 546,722 L 544,719 L 546,715 L 535,709 L 534,706 L 530,708 L 529,706 L 529,705 L 530,705 L 530,704 L 531,704 L 531,703 L 531,702 L 532,702 L 533,702 L 533,701 L 534,701 L 535,701 L 535,700 L 535,699 L 535,698 L 535,697 L 535,696 L 536,696 L 537,696 L 538,696 L 539,696 L 539,695 L 540,695 L 541,694 L 542,693 L 543,692 L 544,692 L 545,692 L 545,691 L 546,691 L 547,691 L 548,691 L 549,691 L 549,692 L 550,693 L 550,694 L 551,694 L 551,695 L 552,695 L 552,696 L 553,696 L 553,697 L 554,697 L 555,697 L 555,698 L 556,698 L 557,697 L 558,696 L 559,696 L 560,696 L 561,695 L 561,694 L 562,694 L 563,694 L 563,693 L 564,693 L 564,692 L 565,692 L 565,691 L 564,691 L 564,690 L 565,690 L 566,690 L 567,690 L 568,690 L 569,690 L 570,690 L 571,689 L 572,689 L 573,689 L 573,688 L 574,688 L 575,688 L 575,687 L 575,686 L 576,686 L 576,685 L 577,685 L 577,684 L 578,684 L 578,683 L 578,682 L 579,682 L 579,681 L 580,680 L 581,680 L 581,679 L 581,678 L 582,678 L 582,677 L 582,676 L 582,675 L 583,675 L 583,674 L 583,673 L 584,673 L 585,672 L 586,672 L 586,671 L 587,671 L 587,670 L 587,669 L 588,669 L 589,668 L 590,668 L 591,668 L 591,667 L 592,667 L 593,667 L 593,666 L 594,666 L 594,665 L 595,665 L 595,664 L 596,664 L 597,664 L 596,665 L 596,666 L 596,667 L 596,668 L 596,669 L 597,669 L 597,670 L 597,671 L 598,671 L 598,672 L 598,673 L 599,674 L 600,675 L 600,676 L 600,677 L 601,678 L 600,678 L 600,679 L 599,679 L 599,680 L 599,681 L 599,682 L 598,683 L 598,684 L 597,685 L 597,686 L 597,688 L 597,689 L 596,690 L 595,691 L 595,692 L 596,694 L 597,697 L 598,700 L 600,701 L 603,701 L 606,704 L 608,705 L 609,705 L 609,706 L 610,706 L 611,707 L 611,708 L 612,708 L 612,709 L 612,710 L 613,710 L 614,710 L 615,710 L 615,711 L 615,712 L 615,713 L 615,714 L 615,715 L 615,716 L 615,717 L 614,719 L 614,723 L 616,725 L 615,728 L 614,730 L 614,731 L 613,731 L 613,732 L 613,733 L 613,734 L 612,734 L 612,735 L 612,737 L 611,737 L 611,738 L 611,739 L 612,739 L 611,740 L 612,740 L 613,740 L 613,741 L 614,741 L 613,741 L 613,742 L 614,742 L 614,743 L 614,744 L 615,744 L 615,745 L 615,746 L 616,746 L 616,747 L 617,747 L 617,748 L 618,748 L 618,749 L 618,750 L 619,750 " /></g>
</svg>
