<?xml version="1.0" standalone="no"?><!DOCTYPE svg PUBLIC "-//W3C//DTD SVG 1.1//EN" "http://www.w3.org/Graphics/SVG/1.1/DTD/svg11.dtd"><svg xmlns="http://www.w3.org/2000/svg" viewBox="383 586 163 156" version = "1.1">
<g id="50403" ><path d="M 479,600 L 480,602 L 481,602 L 482,602 L 483,602 L 485,603 L 486,603 L 487,603 L 488,604 L 489,604 L 490,604 L 491,605 L 492,605 L 493,605 L 493,606 L 495,606 L 496,607 L 496,608 L 497,609 L 497,610 L 498,611 L 499,612 L 499,613 L 500,613 L 500,614 L 501,614 L 501,615 L 501,616 L 502,616 L 503,616 L 504,617 L 505,617 L 505,618 L 506,619 L 507,619 L 508,620 L 509,621 L 510,622 L 511,623 L 511,624 L 512,624 L 515,624 L 518,624 L 520,624 L 521,624 L 522,625 L 523,625 L 523,626 L 524,627 L 525,627 L 526,628 L 527,628 L 528,628 L 528,629 L 528,630 L 529,630 L 530,630 L 531,629 L 532,629 L 533,629 L 533,630 L 534,630 L 535,630 L 536,630 L 536,631 L 537,631 L 538,631 L 539,631 L 539,632 L 540,633 L 541,633 L 542,634 L 543,636 L 544,636 L 545,637 L 545,639 L 546,642 L 545,643 L 544,644 L 543,646 L 541,646 L 539,650 L 537,652 L 536,652 L 534,652 L 533,653 L 533,654 L 532,654 L 530,654 L 529,655 L 528,656 L 525,657 L 524,658 L 523,659 L 522,660 L 520,660 L 515,659 L 515,658 L 514,658 L 514,657 L 514,656 L 513,656 L 513,655 L 513,654 L 512,654 L 511,654 L 510,654 L 508,654 L 506,655 L 506,656 L 505,656 L 505,655 L 504,655 L 503,654 L 502,654 L 502,653 L 500,654 L 499,653 L 497,653 L 497,654 L 495,653 L 494,653 L 492,652 L 491,652 L 490,653 L 489,653 L 488,654 L 487,654 L 486,655 L 485,655 L 484,655 L 484,656 L 483,656 L 483,655 L 482,656 L 482,657 L 483,657 L 484,658 L 484,659 L 484,660 L 485,660 L 485,661 L 485,662 L 486,662 L 485,663 L 486,663 L 486,664 L 487,664 L 488,665 L 488,666 L 489,666 L 490,666 L 491,666 L 492,666 L 492,667 L 493,667 L 494,667 L 495,667 L 495,668 L 496,668 L 497,669 L 498,670 L 499,672 L 499,673 L 502,676 L 503,677 L 503,678 L 503,679 L 503,680 L 503,681 L 503,682 L 502,684 L 502,686 L 502,687 L 503,689 L 503,690 L 502,690 L 501,690 L 501,691 L 501,692 L 497,694 L 490,698 L 478,706 L 480,710 L 475,716 L 474,714 L 472,722 L 452,712 L 431,721 L 427,725 L 423,732 L 422,733 L 414,738 L 408,739 L 407,740 L 406,740 L 405,740 L 404,741 L 403,741 L 403,742 L 402,742 L 401,742 L 400,742 L 399,741 L 399,740 L 399,739 L 398,735 L 397,733 L 396,730 L 395,728 L 395,726 L 395,725 L 394,724 L 394,721 L 392,719 L 392,717 L 392,715 L 390,711 L 388,708 L 388,707 L 388,706 L 387,705 L 386,705 L 386,704 L 386,703 L 385,703 L 384,702 L 384,701 L 384,699 L 383,698 L 383,697 L 387,693 L 390,693 L 395,690 L 398,688 L 401,686 L 405,683 L 405,682 L 409,679 L 409,678 L 412,677 L 414,675 L 414,673 L 415,673 L 415,672 L 416,672 L 417,672 L 417,671 L 417,670 L 416,670 L 417,670 L 417,669 L 416,669 L 416,668 L 416,669 L 417,669 L 417,668 L 416,668 L 416,667 L 415,667 L 415,666 L 414,666 L 414,665 L 414,664 L 414,665 L 414,664 L 413,664 L 414,663 L 413,663 L 412,663 L 412,662 L 413,661 L 413,660 L 414,660 L 414,659 L 414,658 L 414,657 L 414,656 L 415,656 L 416,656 L 416,655 L 417,655 L 418,654 L 418,653 L 418,652 L 418,651 L 418,650 L 417,650 L 417,649 L 416,649 L 415,648 L 414,648 L 414,647 L 414,646 L 415,646 L 414,645 L 414,644 L 414,643 L 414,642 L 414,641 L 415,641 L 415,640 L 416,640 L 416,639 L 416,638 L 416,637 L 416,636 L 417,636 L 416,636 L 417,636 L 417,635 L 416,635 L 417,635 L 417,634 L 418,634 L 419,634 L 420,634 L 421,634 L 422,634 L 423,634 L 423,635 L 424,635 L 424,636 L 424,637 L 425,637 L 426,637 L 426,636 L 426,635 L 426,634 L 426,633 L 427,633 L 427,632 L 428,632 L 428,631 L 428,630 L 429,629 L 429,628 L 429,627 L 430,627 L 430,626 L 431,626 L 431,625 L 432,625 L 432,624 L 432,625 L 433,625 L 433,624 L 433,623 L 434,623 L 435,623 L 436,623 L 436,622 L 437,622 L 438,622 L 438,621 L 438,622 L 439,622 L 440,622 L 440,621 L 441,621 L 441,622 L 440,622 L 441,622 L 441,623 L 441,624 L 442,624 L 443,624 L 444,624 L 445,624 L 445,623 L 446,623 L 446,622 L 447,622 L 447,621 L 447,620 L 448,620 L 448,619 L 448,618 L 449,617 L 449,616 L 450,616 L 450,615 L 450,614 L 449,613 L 449,614 L 449,613 L 448,613 L 447,613 L 447,612 L 446,612 L 446,611 L 445,611 L 444,610 L 444,609 L 443,609 L 443,608 L 442,608 L 442,607 L 441,607 L 441,606 L 441,605 L 441,604 L 440,604 L 441,603 L 442,603 L 442,604 L 443,603 L 444,603 L 444,602 L 445,602 L 445,601 L 446,601 L 447,601 L 448,600 L 447,599 L 447,598 L 448,596 L 449,595 L 449,594 L 450,593 L 451,592 L 454,589 L 455,586 L 459,586 L 462,586 L 466,586 L 468,587 L 471,589 L 472,590 L 474,596 L 475,597 L 477,598 L 477,599 L 478,599 L 479,600 " /></g>
</svg>
