<?xml version="1.0" standalone="no"?><!DOCTYPE svg PUBLIC "-//W3C//DTD SVG 1.1//EN" "http://www.w3.org/Graphics/SVG/1.1/DTD/svg11.dtd"><svg xmlns="http://www.w3.org/2000/svg" viewBox="595 616 131 174" version = "1.1">
<g id="50402" ><path d="M 641,616 L 642,616 L 644,616 L 645,616 L 646,616 L 646,617 L 647,616 L 648,616 L 649,616 L 650,616 L 650,617 L 651,617 L 652,618 L 653,618 L 655,619 L 655,620 L 656,621 L 656,620 L 656,621 L 658,621 L 658,622 L 659,622 L 660,622 L 660,623 L 661,623 L 662,623 L 662,624 L 663,624 L 664,624 L 664,625 L 665,625 L 666,625 L 666,626 L 667,626 L 668,626 L 669,626 L 669,627 L 670,628 L 671,628 L 671,629 L 672,629 L 672,630 L 672,631 L 673,631 L 673,632 L 673,633 L 674,633 L 675,633 L 675,632 L 676,632 L 677,631 L 678,631 L 678,630 L 678,631 L 678,630 L 679,630 L 679,629 L 680,629 L 680,630 L 680,631 L 679,631 L 679,632 L 679,633 L 679,634 L 678,634 L 678,635 L 678,636 L 678,637 L 677,637 L 677,638 L 677,639 L 678,639 L 679,639 L 679,640 L 680,640 L 680,641 L 679,642 L 680,643 L 681,643 L 681,644 L 681,645 L 682,645 L 682,646 L 682,647 L 683,648 L 684,648 L 685,648 L 686,648 L 686,649 L 686,650 L 686,649 L 687,649 L 688,649 L 688,650 L 689,650 L 689,651 L 690,651 L 690,652 L 691,652 L 690,652 L 691,653 L 691,652 L 692,652 L 693,652 L 693,653 L 694,653 L 695,653 L 696,653 L 696,654 L 697,654 L 698,655 L 699,655 L 699,656 L 700,656 L 700,655 L 699,654 L 700,653 L 700,652 L 701,652 L 702,652 L 703,652 L 704,652 L 705,653 L 706,653 L 706,654 L 707,654 L 707,655 L 708,655 L 709,655 L 710,656 L 711,656 L 711,657 L 711,658 L 712,658 L 712,659 L 713,659 L 714,660 L 714,661 L 715,661 L 715,662 L 715,663 L 716,663 L 717,663 L 717,664 L 718,664 L 717,664 L 717,665 L 716,665 L 716,666 L 716,667 L 715,667 L 715,668 L 715,669 L 714,669 L 713,669 L 712,669 L 711,669 L 710,669 L 709,669 L 709,668 L 708,668 L 707,668 L 707,669 L 707,670 L 707,671 L 706,671 L 706,672 L 705,672 L 705,673 L 706,673 L 706,674 L 705,674 L 705,675 L 706,675 L 706,676 L 706,677 L 706,678 L 706,679 L 706,680 L 707,680 L 706,680 L 706,681 L 707,681 L 707,682 L 708,682 L 708,683 L 709,683 L 709,684 L 710,684 L 711,684 L 711,685 L 711,686 L 710,686 L 711,686 L 710,686 L 710,687 L 709,687 L 710,687 L 709,687 L 709,688 L 708,688 L 708,689 L 708,690 L 707,690 L 707,691 L 707,692 L 706,692 L 706,693 L 705,693 L 706,693 L 706,694 L 705,694 L 705,695 L 706,695 L 706,696 L 705,696 L 704,696 L 704,697 L 703,697 L 703,698 L 703,699 L 702,700 L 702,701 L 702,702 L 702,703 L 703,703 L 704,703 L 704,704 L 703,704 L 704,705 L 705,705 L 705,706 L 706,706 L 706,707 L 707,707 L 707,708 L 708,708 L 709,709 L 709,708 L 710,708 L 711,708 L 711,709 L 712,709 L 712,710 L 713,710 L 714,710 L 714,709 L 715,709 L 716,710 L 716,709 L 717,709 L 717,708 L 718,708 L 718,709 L 719,708 L 719,709 L 720,709 L 721,709 L 722,709 L 723,709 L 724,709 L 724,710 L 724,711 L 725,711 L 725,712 L 725,713 L 726,713 L 725,713 L 725,714 L 724,714 L 723,714 L 722,714 L 722,713 L 723,713 L 722,713 L 722,712 L 722,711 L 721,711 L 720,711 L 720,712 L 719,712 L 719,713 L 718,713 L 718,712 L 717,712 L 717,713 L 716,713 L 716,714 L 716,715 L 716,716 L 715,716 L 714,716 L 714,715 L 713,715 L 713,714 L 712,713 L 712,712 L 711,712 L 711,711 L 711,710 L 710,710 L 710,709 L 709,709 L 708,709 L 708,710 L 707,710 L 707,711 L 706,711 L 705,711 L 706,711 L 705,711 L 705,712 L 705,713 L 705,714 L 704,714 L 704,715 L 703,715 L 703,716 L 702,716 L 702,717 L 702,718 L 702,719 L 701,719 L 701,720 L 701,721 L 700,721 L 699,721 L 699,722 L 698,722 L 698,723 L 699,723 L 699,724 L 699,725 L 700,725 L 700,726 L 699,726 L 699,727 L 698,727 L 698,728 L 697,728 L 697,729 L 697,730 L 697,729 L 698,729 L 699,729 L 699,730 L 700,730 L 701,730 L 702,730 L 702,731 L 702,732 L 703,733 L 703,734 L 703,735 L 704,736 L 704,735 L 704,736 L 705,736 L 705,737 L 705,738 L 706,738 L 705,738 L 705,739 L 706,739 L 705,739 L 706,739 L 706,740 L 705,740 L 706,740 L 706,741 L 705,741 L 706,741 L 705,741 L 705,742 L 705,743 L 704,743 L 704,744 L 703,744 L 704,744 L 704,745 L 704,744 L 705,745 L 706,746 L 706,747 L 707,747 L 707,746 L 707,747 L 707,748 L 708,748 L 708,749 L 708,750 L 709,750 L 709,751 L 710,751 L 710,752 L 711,752 L 711,753 L 711,754 L 711,755 L 711,756 L 712,756 L 712,757 L 712,758 L 711,758 L 711,759 L 710,759 L 710,760 L 710,761 L 710,762 L 710,763 L 709,764 L 709,765 L 708,766 L 707,767 L 707,766 L 706,766 L 706,765 L 705,764 L 705,763 L 705,762 L 704,762 L 704,761 L 703,761 L 703,762 L 703,761 L 703,760 L 703,761 L 702,761 L 701,760 L 700,759 L 699,758 L 698,757 L 697,757 L 696,758 L 695,758 L 694,759 L 693,760 L 694,760 L 693,761 L 692,761 L 691,761 L 690,761 L 690,760 L 689,760 L 689,759 L 688,759 L 687,759 L 686,759 L 686,760 L 685,760 L 684,760 L 683,760 L 683,761 L 683,762 L 682,762 L 681,762 L 681,763 L 680,763 L 679,763 L 679,764 L 678,764 L 677,764 L 677,765 L 676,765 L 677,765 L 677,766 L 676,766 L 675,766 L 675,767 L 674,767 L 674,768 L 673,768 L 672,768 L 671,769 L 670,769 L 670,770 L 670,771 L 669,772 L 669,773 L 669,774 L 668,775 L 668,776 L 667,776 L 667,777 L 666,777 L 665,778 L 665,777 L 665,778 L 664,778 L 663,778 L 663,779 L 662,779 L 662,780 L 661,780 L 660,780 L 660,781 L 659,781 L 658,780 L 658,781 L 657,781 L 656,781 L 656,782 L 656,781 L 655,781 L 655,782 L 654,782 L 653,782 L 653,783 L 653,782 L 653,783 L 652,783 L 651,783 L 650,783 L 650,784 L 649,784 L 648,784 L 648,783 L 647,783 L 646,783 L 645,783 L 644,783 L 643,783 L 643,784 L 643,785 L 643,786 L 643,787 L 642,787 L 642,786 L 641,786 L 641,787 L 640,787 L 640,788 L 640,789 L 639,789 L 638,789 L 638,790 L 637,790 L 636,790 L 636,789 L 635,789 L 633,789 L 633,787 L 632,786 L 632,785 L 632,784 L 632,783 L 631,783 L 631,782 L 631,781 L 631,780 L 631,779 L 630,778 L 630,777 L 630,776 L 629,776 L 629,775 L 629,774 L 630,773 L 630,772 L 630,771 L 631,769 L 631,767 L 628,764 L 627,764 L 626,762 L 622,758 L 622,755 L 621,754 L 621,753 L 620,753 L 619,753 L 619,752 L 618,752 L 619,751 L 619,750 L 618,750 L 618,749 L 618,748 L 617,748 L 617,747 L 616,747 L 616,746 L 615,746 L 615,745 L 615,744 L 614,744 L 614,743 L 614,742 L 613,742 L 613,741 L 614,741 L 613,741 L 613,740 L 612,740 L 611,740 L 612,739 L 611,739 L 611,738 L 611,737 L 612,737 L 612,735 L 612,734 L 613,734 L 613,733 L 613,732 L 613,731 L 614,731 L 614,730 L 615,728 L 616,725 L 614,723 L 614,719 L 615,717 L 615,716 L 615,715 L 615,714 L 615,713 L 615,712 L 615,711 L 615,710 L 614,710 L 613,710 L 612,710 L 612,709 L 612,708 L 611,708 L 611,707 L 610,706 L 609,706 L 609,705 L 608,705 L 606,704 L 603,701 L 600,701 L 598,700 L 597,697 L 596,694 L 595,692 L 595,691 L 596,690 L 597,689 L 597,688 L 597,686 L 597,685 L 598,684 L 598,683 L 599,682 L 599,681 L 599,680 L 599,679 L 600,679 L 600,678 L 601,678 L 600,677 L 600,676 L 600,675 L 599,674 L 598,673 L 598,672 L 598,671 L 597,671 L 597,670 L 597,669 L 596,669 L 596,668 L 596,667 L 596,666 L 596,665 L 597,664 L 597,665 L 597,664 L 598,664 L 599,664 L 599,663 L 600,663 L 600,664 L 600,663 L 601,663 L 602,663 L 602,662 L 603,662 L 603,661 L 604,661 L 604,660 L 605,660 L 605,659 L 606,659 L 606,658 L 606,657 L 607,657 L 607,656 L 606,656 L 607,656 L 607,655 L 608,655 L 608,654 L 609,654 L 610,654 L 610,653 L 611,653 L 611,654 L 612,654 L 612,655 L 613,655 L 614,656 L 615,656 L 616,656 L 617,656 L 617,655 L 618,655 L 619,655 L 619,656 L 620,656 L 621,656 L 621,655 L 622,655 L 623,656 L 624,656 L 624,655 L 625,655 L 626,654 L 626,653 L 626,652 L 626,651 L 626,650 L 626,649 L 627,649 L 627,648 L 628,648 L 628,647 L 629,647 L 630,647 L 630,646 L 630,645 L 630,644 L 630,643 L 631,643 L 632,643 L 632,642 L 633,642 L 634,642 L 635,642 L 635,641 L 636,641 L 636,640 L 635,639 L 635,638 L 635,637 L 636,637 L 636,636 L 636,635 L 636,634 L 637,634 L 637,633 L 638,633 L 638,632 L 638,631 L 637,631 L 637,630 L 636,630 L 636,629 L 636,628 L 636,627 L 635,627 L 635,626 L 635,625 L 636,625 L 636,624 L 635,623 L 636,623 L 636,622 L 636,621 L 637,621 L 636,621 L 636,620 L 637,620 L 636,617 L 637,617 L 638,617 L 639,617 L 639,616 L 640,616 L 641,616 " /></g>
</svg>
