<?xml version="1.0" standalone="no"?><!DOCTYPE svg PUBLIC "-//W3C//DTD SVG 1.1//EN" "http://www.w3.org/Graphics/SVG/1.1/DTD/svg11.dtd"><svg xmlns="http://www.w3.org/2000/svg" viewBox="400 609 210 205" version = "1.1">
<g id="50401" ><path d="M 551,610 L 552,610 L 553,610 L 554,611 L 555,611 L 556,611 L 557,611 L 557,610 L 558,609 L 559,609 L 559,610 L 560,610 L 560,611 L 561,611 L 562,612 L 563,613 L 564,613 L 564,614 L 565,614 L 566,614 L 567,614 L 567,615 L 568,615 L 568,616 L 569,616 L 570,616 L 570,617 L 571,617 L 572,617 L 572,618 L 573,618 L 573,619 L 574,619 L 574,620 L 574,621 L 575,621 L 576,621 L 576,622 L 577,622 L 578,622 L 579,623 L 580,623 L 581,623 L 581,622 L 582,622 L 583,623 L 584,624 L 585,624 L 585,625 L 586,625 L 587,625 L 587,626 L 588,626 L 588,627 L 588,628 L 589,628 L 589,629 L 589,630 L 589,631 L 590,631 L 590,632 L 591,632 L 591,633 L 591,634 L 591,635 L 592,635 L 592,636 L 593,636 L 594,636 L 594,637 L 594,638 L 595,638 L 595,639 L 596,639 L 597,639 L 597,640 L 597,641 L 598,641 L 599,641 L 599,642 L 599,643 L 600,643 L 601,643 L 601,644 L 601,645 L 602,645 L 603,645 L 604,646 L 604,647 L 605,647 L 605,648 L 605,649 L 606,650 L 607,650 L 608,650 L 608,651 L 609,651 L 609,652 L 609,653 L 610,653 L 610,654 L 609,654 L 608,654 L 608,655 L 607,655 L 607,656 L 606,656 L 607,656 L 607,657 L 606,657 L 606,658 L 606,659 L 605,659 L 605,660 L 604,660 L 604,661 L 603,661 L 603,662 L 602,662 L 602,663 L 601,663 L 600,663 L 600,664 L 600,663 L 599,663 L 599,664 L 598,664 L 597,664 L 597,665 L 597,664 L 596,664 L 595,664 L 595,665 L 594,665 L 594,666 L 593,666 L 593,667 L 592,667 L 591,667 L 591,668 L 590,668 L 589,668 L 588,669 L 587,669 L 587,670 L 587,671 L 586,671 L 586,672 L 585,672 L 584,673 L 583,673 L 583,674 L 583,675 L 582,675 L 582,676 L 582,677 L 582,678 L 581,678 L 581,679 L 581,680 L 580,680 L 579,681 L 579,682 L 578,682 L 578,683 L 578,684 L 577,684 L 577,685 L 576,685 L 576,686 L 575,686 L 575,687 L 575,688 L 574,688 L 573,688 L 573,689 L 572,689 L 571,689 L 570,690 L 569,690 L 568,690 L 567,690 L 566,690 L 565,690 L 564,690 L 564,691 L 565,691 L 565,692 L 564,692 L 564,693 L 563,693 L 563,694 L 562,694 L 561,694 L 561,695 L 560,696 L 559,696 L 558,696 L 557,697 L 556,698 L 555,698 L 555,697 L 554,697 L 553,697 L 553,696 L 552,696 L 552,695 L 551,695 L 551,694 L 550,694 L 550,693 L 549,692 L 549,691 L 548,691 L 547,691 L 546,691 L 545,691 L 545,692 L 544,692 L 543,692 L 542,693 L 541,694 L 540,695 L 539,695 L 539,696 L 538,696 L 537,696 L 536,696 L 535,696 L 535,697 L 535,698 L 535,699 L 535,700 L 535,701 L 534,701 L 533,701 L 533,702 L 532,702 L 531,702 L 531,703 L 531,704 L 530,704 L 530,705 L 529,705 L 529,706 L 530,708 L 534,706 L 535,709 L 546,715 L 544,719 L 546,722 L 542,725 L 540,726 L 541,727 L 542,728 L 543,729 L 543,730 L 543,731 L 544,732 L 541,735 L 542,735 L 545,736 L 547,737 L 550,737 L 552,738 L 554,741 L 554,746 L 556,753 L 557,753 L 559,754 L 557,755 L 557,759 L 557,761 L 559,764 L 560,767 L 557,768 L 559,774 L 558,777 L 559,779 L 556,778 L 554,776 L 553,775 L 548,774 L 545,775 L 541,775 L 537,776 L 532,776 L 531,776 L 529,777 L 528,777 L 526,777 L 523,778 L 521,781 L 518,779 L 517,780 L 515,780 L 514,781 L 511,782 L 510,783 L 507,786 L 507,787 L 506,788 L 505,789 L 504,789 L 503,789 L 502,790 L 501,790 L 501,791 L 500,793 L 498,794 L 497,796 L 497,797 L 496,798 L 496,799 L 496,800 L 495,800 L 495,801 L 493,801 L 491,802 L 489,801 L 487,802 L 487,804 L 486,806 L 486,807 L 484,810 L 483,814 L 482,814 L 481,813 L 480,813 L 479,813 L 477,813 L 476,814 L 474,813 L 474,811 L 471,808 L 470,806 L 468,805 L 466,803 L 465,803 L 463,801 L 462,799 L 459,795 L 452,792 L 451,792 L 451,789 L 450,784 L 450,783 L 450,782 L 449,780 L 448,780 L 448,779 L 447,779 L 446,779 L 446,780 L 445,780 L 444,780 L 443,780 L 443,781 L 442,781 L 442,782 L 441,782 L 440,782 L 440,783 L 439,783 L 438,783 L 437,783 L 436,783 L 436,784 L 435,783 L 434,783 L 433,783 L 433,784 L 432,784 L 430,786 L 429,787 L 427,788 L 420,788 L 415,790 L 411,784 L 409,782 L 409,778 L 410,775 L 409,767 L 409,762 L 407,761 L 405,759 L 405,754 L 405,753 L 404,751 L 403,750 L 402,749 L 402,748 L 402,746 L 402,745 L 401,744 L 401,743 L 400,742 L 401,742 L 402,742 L 403,742 L 403,741 L 404,741 L 405,740 L 406,740 L 407,740 L 408,739 L 414,738 L 422,733 L 423,732 L 427,725 L 431,721 L 452,712 L 472,722 L 474,714 L 475,716 L 480,710 L 478,706 L 490,698 L 497,694 L 501,692 L 501,691 L 501,690 L 502,690 L 503,690 L 503,689 L 502,687 L 502,686 L 502,684 L 503,682 L 503,681 L 503,680 L 503,679 L 503,678 L 503,677 L 502,676 L 499,673 L 499,672 L 498,670 L 497,669 L 496,668 L 495,668 L 495,667 L 494,667 L 493,667 L 492,667 L 492,666 L 491,666 L 490,666 L 489,666 L 488,666 L 488,665 L 487,664 L 486,664 L 486,663 L 485,663 L 486,662 L 485,662 L 485,661 L 485,660 L 484,660 L 484,659 L 484,658 L 483,657 L 482,657 L 482,656 L 483,655 L 483,656 L 484,656 L 484,655 L 485,655 L 486,655 L 487,654 L 488,654 L 489,653 L 490,653 L 491,652 L 492,652 L 494,653 L 495,653 L 497,654 L 497,653 L 499,653 L 500,654 L 502,653 L 502,654 L 503,654 L 504,655 L 505,655 L 505,656 L 506,656 L 506,655 L 508,654 L 510,654 L 511,654 L 512,654 L 513,654 L 513,655 L 513,656 L 514,656 L 514,657 L 514,658 L 515,658 L 515,659 L 520,660 L 522,660 L 523,659 L 524,658 L 525,657 L 528,656 L 529,655 L 530,654 L 532,654 L 533,654 L 533,653 L 534,652 L 536,652 L 537,652 L 539,650 L 541,646 L 543,646 L 544,644 L 545,643 L 546,642 L 545,639 L 545,637 L 544,636 L 543,636 L 542,634 L 541,633 L 540,633 L 539,632 L 539,631 L 540,631 L 540,630 L 541,630 L 541,629 L 542,628 L 543,628 L 544,628 L 544,627 L 544,628 L 545,628 L 546,628 L 547,628 L 547,627 L 548,627 L 548,626 L 548,625 L 548,624 L 549,624 L 549,623 L 550,622 L 550,621 L 550,620 L 549,620 L 549,619 L 549,618 L 549,617 L 549,616 L 548,616 L 548,615 L 549,615 L 549,614 L 549,613 L 549,612 L 549,611 L 549,610 L 549,609 L 550,609 L 551,609 L 551,610 " /></g>
</svg>
