<?xml version="1.0" standalone="no"?><!DOCTYPE svg PUBLIC "-//W3C//DTD SVG 1.1//EN" "http://www.w3.org/Graphics/SVG/1.1/DTD/svg11.dtd"><svg xmlns="http://www.w3.org/2000/svg" viewBox="525 439 205 157" version = "1.1">
<g id="50502" ><path d="M 558,441 L 559,441 L 560,441 L 561,440 L 562,441 L 562,442 L 563,442 L 563,443 L 564,443 L 564,444 L 565,444 L 565,445 L 566,445 L 567,445 L 567,446 L 568,446 L 568,447 L 568,448 L 569,448 L 569,449 L 570,449 L 571,450 L 572,450 L 572,451 L 573,452 L 574,452 L 575,453 L 575,452 L 576,452 L 577,452 L 577,453 L 578,453 L 578,454 L 579,454 L 580,454 L 581,454 L 581,455 L 581,456 L 582,456 L 583,456 L 583,457 L 583,458 L 583,459 L 583,460 L 584,460 L 584,461 L 585,461 L 586,461 L 586,462 L 587,462 L 587,461 L 588,461 L 588,462 L 589,462 L 589,463 L 590,463 L 591,463 L 591,464 L 592,464 L 593,465 L 593,466 L 594,466 L 595,466 L 596,466 L 596,467 L 597,467 L 597,468 L 597,469 L 598,469 L 599,470 L 600,470 L 601,470 L 601,471 L 601,472 L 602,472 L 603,472 L 604,473 L 605,474 L 606,475 L 607,475 L 608,475 L 608,476 L 608,477 L 608,478 L 609,478 L 609,479 L 610,479 L 610,480 L 611,480 L 611,481 L 612,481 L 613,481 L 614,481 L 614,482 L 615,483 L 615,484 L 616,484 L 616,485 L 616,486 L 616,487 L 616,488 L 617,488 L 618,489 L 619,490 L 620,490 L 620,489 L 620,490 L 621,490 L 621,491 L 621,492 L 622,492 L 623,492 L 623,493 L 624,493 L 624,494 L 625,494 L 626,494 L 626,495 L 627,495 L 627,496 L 628,496 L 629,496 L 630,495 L 631,495 L 632,496 L 631,496 L 631,497 L 632,497 L 632,498 L 633,498 L 633,499 L 633,500 L 634,500 L 634,501 L 635,501 L 636,502 L 637,502 L 637,503 L 638,503 L 638,504 L 639,504 L 639,505 L 640,505 L 640,506 L 641,506 L 641,507 L 642,507 L 642,508 L 643,508 L 643,509 L 643,510 L 643,511 L 643,512 L 644,512 L 644,513 L 644,514 L 645,514 L 645,515 L 645,516 L 645,517 L 645,518 L 646,518 L 647,518 L 647,519 L 648,519 L 649,519 L 649,520 L 650,520 L 650,521 L 651,521 L 651,522 L 652,522 L 652,523 L 653,523 L 653,524 L 654,524 L 654,525 L 655,525 L 655,526 L 655,527 L 656,527 L 656,528 L 657,528 L 658,528 L 658,529 L 659,529 L 660,529 L 661,529 L 662,529 L 662,530 L 662,531 L 663,531 L 663,532 L 664,532 L 665,532 L 666,532 L 666,531 L 667,531 L 668,531 L 669,531 L 669,532 L 669,533 L 670,533 L 670,534 L 671,534 L 672,534 L 673,534 L 674,534 L 674,535 L 675,535 L 676,535 L 677,535 L 677,536 L 677,537 L 677,538 L 677,539 L 678,540 L 679,541 L 679,542 L 680,542 L 680,543 L 681,544 L 681,545 L 681,546 L 682,546 L 682,547 L 683,548 L 683,549 L 684,548 L 685,548 L 685,549 L 685,550 L 685,551 L 686,551 L 687,551 L 687,552 L 686,553 L 686,554 L 686,555 L 687,556 L 686,556 L 687,556 L 687,557 L 687,558 L 688,559 L 689,560 L 690,561 L 690,562 L 690,563 L 690,564 L 691,565 L 692,565 L 692,566 L 693,566 L 693,567 L 694,567 L 694,568 L 695,568 L 695,569 L 696,569 L 696,570 L 697,570 L 698,570 L 698,571 L 698,572 L 699,572 L 700,572 L 700,573 L 701,573 L 702,573 L 702,572 L 703,572 L 704,571 L 705,571 L 706,571 L 707,571 L 707,572 L 708,572 L 709,572 L 710,572 L 710,573 L 711,573 L 712,574 L 713,574 L 713,575 L 713,576 L 714,576 L 715,576 L 715,577 L 716,577 L 716,578 L 717,578 L 717,579 L 718,579 L 719,580 L 719,581 L 720,581 L 720,582 L 721,582 L 722,582 L 722,583 L 723,583 L 724,584 L 725,584 L 725,585 L 726,585 L 727,585 L 728,586 L 728,587 L 729,587 L 729,588 L 729,589 L 730,589 L 729,590 L 728,591 L 728,592 L 728,593 L 728,594 L 728,595 L 727,595 L 726,595 L 726,596 L 725,596 L 724,595 L 723,595 L 722,595 L 722,594 L 721,594 L 720,593 L 719,593 L 718,593 L 717,592 L 716,591 L 715,591 L 714,591 L 714,592 L 713,592 L 712,592 L 711,592 L 711,591 L 710,590 L 709,590 L 708,590 L 707,590 L 707,589 L 706,589 L 705,589 L 704,588 L 704,587 L 703,587 L 702,587 L 701,587 L 700,587 L 700,586 L 699,586 L 699,585 L 698,585 L 697,585 L 696,585 L 695,585 L 695,586 L 694,586 L 694,587 L 693,587 L 692,587 L 692,586 L 691,585 L 691,584 L 690,584 L 690,583 L 689,583 L 688,583 L 687,583 L 686,583 L 686,584 L 685,584 L 684,584 L 684,583 L 683,583 L 682,583 L 681,583 L 680,582 L 679,581 L 678,581 L 678,580 L 677,580 L 676,580 L 676,579 L 675,579 L 674,579 L 673,579 L 673,580 L 672,580 L 672,581 L 671,581 L 670,582 L 669,581 L 668,581 L 667,581 L 666,581 L 666,582 L 666,583 L 665,583 L 665,584 L 664,584 L 663,584 L 663,585 L 662,585 L 662,584 L 661,584 L 660,584 L 659,584 L 659,583 L 658,583 L 658,582 L 657,582 L 657,581 L 656,581 L 656,580 L 655,580 L 654,580 L 653,579 L 652,579 L 652,578 L 651,578 L 651,577 L 650,577 L 650,576 L 649,576 L 648,575 L 647,575 L 646,575 L 645,575 L 643,575 L 642,575 L 638,575 L 637,575 L 636,575 L 635,575 L 634,575 L 633,575 L 632,575 L 632,574 L 631,573 L 629,572 L 627,572 L 626,572 L 625,572 L 624,572 L 622,571 L 622,570 L 621,569 L 620,567 L 620,566 L 619,566 L 618,566 L 617,566 L 615,566 L 615,567 L 614,567 L 613,567 L 611,567 L 611,566 L 610,566 L 609,566 L 608,566 L 607,565 L 606,565 L 605,565 L 605,564 L 604,564 L 604,563 L 603,563 L 603,562 L 602,561 L 602,560 L 601,560 L 600,560 L 599,560 L 599,559 L 598,559 L 598,558 L 597,558 L 597,557 L 596,557 L 596,556 L 595,556 L 594,556 L 593,556 L 593,555 L 592,555 L 591,555 L 591,554 L 591,553 L 590,553 L 589,553 L 589,552 L 588,551 L 588,550 L 587,550 L 586,550 L 585,550 L 584,550 L 584,549 L 583,549 L 583,550 L 582,549 L 581,549 L 581,548 L 581,547 L 580,547 L 580,546 L 580,545 L 580,544 L 580,543 L 580,542 L 579,542 L 579,541 L 579,540 L 578,539 L 578,538 L 577,538 L 577,537 L 576,536 L 576,535 L 575,535 L 575,534 L 574,534 L 573,533 L 572,533 L 572,532 L 571,532 L 570,531 L 569,531 L 568,531 L 568,530 L 567,529 L 567,527 L 567,526 L 567,525 L 567,524 L 568,523 L 568,522 L 567,521 L 567,520 L 566,520 L 566,519 L 565,518 L 564,518 L 564,517 L 564,516 L 562,514 L 560,514 L 559,513 L 557,512 L 556,511 L 555,511 L 554,511 L 552,511 L 549,511 L 546,511 L 544,510 L 544,509 L 541,508 L 541,507 L 538,506 L 538,505 L 539,505 L 538,504 L 539,504 L 539,503 L 538,503 L 539,502 L 538,502 L 538,501 L 539,501 L 539,500 L 540,499 L 541,496 L 544,494 L 544,493 L 544,492 L 544,491 L 545,490 L 544,490 L 543,489 L 542,489 L 541,489 L 541,488 L 540,488 L 539,488 L 539,487 L 535,484 L 534,484 L 534,483 L 533,483 L 533,482 L 533,481 L 532,481 L 531,481 L 531,480 L 530,480 L 530,479 L 530,478 L 530,477 L 530,476 L 530,474 L 528,470 L 527,470 L 526,469 L 525,468 L 526,465 L 526,463 L 528,461 L 528,460 L 529,459 L 529,458 L 530,458 L 532,457 L 532,456 L 532,455 L 533,452 L 534,450 L 536,447 L 537,447 L 538,446 L 539,446 L 540,446 L 540,445 L 541,445 L 542,445 L 543,445 L 544,445 L 545,445 L 546,444 L 547,444 L 548,444 L 548,443 L 548,442 L 549,442 L 550,442 L 551,442 L 552,442 L 552,441 L 553,441 L 554,440 L 554,439 L 555,439 L 556,440 L 557,440 L 557,441 L 558,441 " /></g>
</svg>
