<?xml version="1.0" standalone="no"?><!DOCTYPE svg PUBLIC "-//W3C//DTD SVG 1.1//EN" "http://www.w3.org/Graphics/SVG/1.1/DTD/svg11.dtd"><svg xmlns="http://www.w3.org/2000/svg" viewBox="410 473 228 183" version = "1.1">
<g id="50501" ><path d="M 463,474 L 464,476 L 465,477 L 466,479 L 467,479 L 469,480 L 470,480 L 472,481 L 472,483 L 473,484 L 475,484 L 476,484 L 477,483 L 477,481 L 478,481 L 478,480 L 479,480 L 480,481 L 482,482 L 483,482 L 484,482 L 486,483 L 488,483 L 489,483 L 490,483 L 491,483 L 492,483 L 493,483 L 494,483 L 494,484 L 495,483 L 495,482 L 495,481 L 495,482 L 495,483 L 495,484 L 496,484 L 497,485 L 498,485 L 499,485 L 500,485 L 500,484 L 501,485 L 502,486 L 503,486 L 503,487 L 504,488 L 505,489 L 505,490 L 506,490 L 506,491 L 506,492 L 509,494 L 510,494 L 510,493 L 511,493 L 512,493 L 512,494 L 511,495 L 511,496 L 512,497 L 513,498 L 514,499 L 515,500 L 516,501 L 517,502 L 519,503 L 524,504 L 525,504 L 525,505 L 526,505 L 526,506 L 527,507 L 528,507 L 529,507 L 530,507 L 531,507 L 532,507 L 533,507 L 534,507 L 535,508 L 536,508 L 537,508 L 537,507 L 538,506 L 541,507 L 541,508 L 544,509 L 544,510 L 546,511 L 549,511 L 552,511 L 554,511 L 555,511 L 556,511 L 557,512 L 559,513 L 560,514 L 562,514 L 564,516 L 564,517 L 564,518 L 565,518 L 566,519 L 566,520 L 567,520 L 567,521 L 568,522 L 568,523 L 567,524 L 567,525 L 567,526 L 567,527 L 567,529 L 568,530 L 568,531 L 569,531 L 570,531 L 571,532 L 572,532 L 572,533 L 573,533 L 574,534 L 575,534 L 575,535 L 576,535 L 576,536 L 577,537 L 577,538 L 578,538 L 578,539 L 579,540 L 579,541 L 579,542 L 580,542 L 580,543 L 580,544 L 580,545 L 580,546 L 580,547 L 581,547 L 581,548 L 581,549 L 582,549 L 583,550 L 583,549 L 584,549 L 584,550 L 585,550 L 586,550 L 587,550 L 588,550 L 588,551 L 589,552 L 589,553 L 590,553 L 591,553 L 591,554 L 591,555 L 592,555 L 593,555 L 593,556 L 594,556 L 595,556 L 596,556 L 596,557 L 597,557 L 597,558 L 598,558 L 598,559 L 599,559 L 599,560 L 600,560 L 601,560 L 602,560 L 602,561 L 603,562 L 603,563 L 604,563 L 604,564 L 605,564 L 605,565 L 606,565 L 607,565 L 608,566 L 609,566 L 610,566 L 611,566 L 611,567 L 613,567 L 613,568 L 613,569 L 613,570 L 612,571 L 612,572 L 613,573 L 613,574 L 614,575 L 615,576 L 615,577 L 615,578 L 616,578 L 616,579 L 616,580 L 616,581 L 616,582 L 616,583 L 616,584 L 616,585 L 616,586 L 617,586 L 617,587 L 617,588 L 616,588 L 616,589 L 616,590 L 617,590 L 617,591 L 618,591 L 618,592 L 618,593 L 619,593 L 619,594 L 620,594 L 620,595 L 621,595 L 622,596 L 623,596 L 624,597 L 625,598 L 625,599 L 626,599 L 627,599 L 628,599 L 629,599 L 630,599 L 631,600 L 633,602 L 634,603 L 635,603 L 636,604 L 636,605 L 637,607 L 637,608 L 637,609 L 637,610 L 637,611 L 638,611 L 638,612 L 637,614 L 637,615 L 636,615 L 636,616 L 636,617 L 637,620 L 636,620 L 636,621 L 637,621 L 636,621 L 636,622 L 636,623 L 635,623 L 636,624 L 636,625 L 635,625 L 635,626 L 635,627 L 636,627 L 636,628 L 636,629 L 636,630 L 637,630 L 637,631 L 638,631 L 638,632 L 638,633 L 637,633 L 637,634 L 636,634 L 636,635 L 636,636 L 636,637 L 635,637 L 635,638 L 635,639 L 636,640 L 636,641 L 635,641 L 635,642 L 634,642 L 633,642 L 632,642 L 632,643 L 631,643 L 630,643 L 630,644 L 630,645 L 630,646 L 630,647 L 629,647 L 628,647 L 628,648 L 627,648 L 627,649 L 626,649 L 626,650 L 626,651 L 626,652 L 626,653 L 626,654 L 625,655 L 624,655 L 624,656 L 623,656 L 622,655 L 621,655 L 621,656 L 620,656 L 619,656 L 619,655 L 618,655 L 617,655 L 617,656 L 616,656 L 615,656 L 614,656 L 613,655 L 612,655 L 612,654 L 611,654 L 611,653 L 610,653 L 609,653 L 609,652 L 609,651 L 608,651 L 608,650 L 607,650 L 606,650 L 605,649 L 605,648 L 605,647 L 604,647 L 604,646 L 603,645 L 602,645 L 601,645 L 601,644 L 601,643 L 600,643 L 599,643 L 599,642 L 599,641 L 598,641 L 597,641 L 597,640 L 597,639 L 596,639 L 595,639 L 595,638 L 594,638 L 594,637 L 594,636 L 593,636 L 592,636 L 592,635 L 591,635 L 591,634 L 591,633 L 591,632 L 590,632 L 590,631 L 589,631 L 589,630 L 589,629 L 589,628 L 588,628 L 588,627 L 588,626 L 587,626 L 587,625 L 586,625 L 585,625 L 585,624 L 584,624 L 583,623 L 582,622 L 581,622 L 581,623 L 580,623 L 579,623 L 578,622 L 577,622 L 576,622 L 576,621 L 575,621 L 574,621 L 574,620 L 574,619 L 573,619 L 573,618 L 572,618 L 572,617 L 571,617 L 570,617 L 570,616 L 569,616 L 568,616 L 568,615 L 567,615 L 567,614 L 566,614 L 565,614 L 564,614 L 564,613 L 563,613 L 562,612 L 561,611 L 560,611 L 560,610 L 559,610 L 559,609 L 558,609 L 557,610 L 557,611 L 556,611 L 555,611 L 554,611 L 553,610 L 552,610 L 551,610 L 551,609 L 550,609 L 549,609 L 549,610 L 549,611 L 549,612 L 549,613 L 549,614 L 549,615 L 548,615 L 548,616 L 549,616 L 549,617 L 549,618 L 549,619 L 549,620 L 550,620 L 550,621 L 550,622 L 549,623 L 549,624 L 548,624 L 548,625 L 548,626 L 548,627 L 547,627 L 547,628 L 546,628 L 545,628 L 544,628 L 544,627 L 544,628 L 543,628 L 542,628 L 541,629 L 541,630 L 540,630 L 540,631 L 539,631 L 538,631 L 537,631 L 536,631 L 536,630 L 535,630 L 534,630 L 533,630 L 533,629 L 532,629 L 531,629 L 530,630 L 529,630 L 528,630 L 528,629 L 528,628 L 527,628 L 526,628 L 525,627 L 524,627 L 523,626 L 523,625 L 522,625 L 521,624 L 520,624 L 518,624 L 515,624 L 512,624 L 511,624 L 511,623 L 510,622 L 509,621 L 508,620 L 507,619 L 506,619 L 505,618 L 505,617 L 504,617 L 503,616 L 502,616 L 501,616 L 501,615 L 501,614 L 500,614 L 500,613 L 499,613 L 499,612 L 498,611 L 497,610 L 497,609 L 496,608 L 496,607 L 495,606 L 493,606 L 493,605 L 492,605 L 491,605 L 490,604 L 489,604 L 488,604 L 487,603 L 486,603 L 485,603 L 483,602 L 482,602 L 481,602 L 480,602 L 479,600 L 478,599 L 477,599 L 477,598 L 475,597 L 474,596 L 472,590 L 471,589 L 468,587 L 466,586 L 462,586 L 459,586 L 455,586 L 454,589 L 451,592 L 450,593 L 449,594 L 449,595 L 448,596 L 447,598 L 447,599 L 448,600 L 447,601 L 446,601 L 445,601 L 445,602 L 444,602 L 444,603 L 443,603 L 442,604 L 442,603 L 441,603 L 440,604 L 440,603 L 439,603 L 438,603 L 438,602 L 437,601 L 436,600 L 435,600 L 435,599 L 434,599 L 434,598 L 433,598 L 433,597 L 433,596 L 432,596 L 432,595 L 431,595 L 431,594 L 430,593 L 430,592 L 429,592 L 429,591 L 429,590 L 428,590 L 428,589 L 427,589 L 427,588 L 426,588 L 426,587 L 426,586 L 425,586 L 425,585 L 424,585 L 424,584 L 423,584 L 422,584 L 422,583 L 421,583 L 420,583 L 420,582 L 419,582 L 418,582 L 418,581 L 417,581 L 416,581 L 416,580 L 415,580 L 414,580 L 414,579 L 414,580 L 413,580 L 413,579 L 412,579 L 412,578 L 411,578 L 410,578 L 410,577 L 415,574 L 416,572 L 419,571 L 421,570 L 423,569 L 424,570 L 425,569 L 427,569 L 427,568 L 427,567 L 427,566 L 427,565 L 427,564 L 427,563 L 427,562 L 428,562 L 428,561 L 427,561 L 427,560 L 426,560 L 425,557 L 424,555 L 421,549 L 419,546 L 414,542 L 413,540 L 415,536 L 415,535 L 416,534 L 418,530 L 419,530 L 420,529 L 422,528 L 422,527 L 423,526 L 424,525 L 427,524 L 428,523 L 428,522 L 429,522 L 430,522 L 431,522 L 431,521 L 432,521 L 432,520 L 433,519 L 433,518 L 433,517 L 433,516 L 434,517 L 435,515 L 436,513 L 437,512 L 439,510 L 441,510 L 442,508 L 443,507 L 443,505 L 443,503 L 442,501 L 441,500 L 440,499 L 440,498 L 440,496 L 438,494 L 438,490 L 439,490 L 440,490 L 440,489 L 441,489 L 442,489 L 442,488 L 443,488 L 444,488 L 445,488 L 446,488 L 446,487 L 447,487 L 447,486 L 448,486 L 448,485 L 449,485 L 448,485 L 448,484 L 447,484 L 447,483 L 447,479 L 446,479 L 446,478 L 446,477 L 446,476 L 447,476 L 448,476 L 449,475 L 450,476 L 451,475 L 452,475 L 453,476 L 454,476 L 454,475 L 455,475 L 456,475 L 457,475 L 458,475 L 459,474 L 459,473 L 460,473 L 459,473 L 460,473 L 461,473 L 462,473 L 463,474 " /></g>
</svg>
