<?xml version="1.0" standalone="no"?><!DOCTYPE svg PUBLIC "-//W3C//DTD SVG 1.1//EN" "http://www.w3.org/Graphics/SVG/1.1/DTD/svg11.dtd"><svg xmlns="http://www.w3.org/2000/svg" viewBox="626 1131 145 203" version = "1.1">
<g id="50602" ><path d="M 705,1136 L 705,1138 L 707,1139 L 710,1142 L 711,1142 L 713,1143 L 713,1144 L 714,1144 L 714,1145 L 715,1145 L 715,1146 L 716,1146 L 716,1147 L 717,1147 L 718,1147 L 718,1148 L 719,1148 L 720,1149 L 721,1149 L 721,1150 L 721,1151 L 722,1151 L 725,1154 L 727,1161 L 735,1162 L 735,1163 L 735,1164 L 735,1165 L 734,1166 L 734,1167 L 734,1168 L 733,1168 L 733,1169 L 733,1170 L 732,1173 L 729,1176 L 726,1182 L 724,1187 L 721,1190 L 720,1191 L 720,1192 L 720,1193 L 722,1194 L 723,1195 L 724,1197 L 723,1199 L 723,1200 L 725,1203 L 734,1202 L 740,1198 L 744,1198 L 748,1198 L 750,1198 L 751,1199 L 751,1200 L 752,1201 L 752,1202 L 753,1202 L 753,1203 L 754,1204 L 754,1205 L 755,1205 L 755,1206 L 757,1207 L 763,1213 L 766,1217 L 771,1226 L 771,1227 L 771,1228 L 770,1229 L 770,1230 L 769,1230 L 769,1231 L 768,1232 L 768,1233 L 768,1234 L 768,1235 L 767,1235 L 767,1236 L 768,1236 L 768,1237 L 768,1238 L 769,1238 L 769,1239 L 768,1239 L 768,1240 L 767,1240 L 766,1240 L 766,1241 L 765,1241 L 765,1242 L 765,1243 L 764,1244 L 764,1245 L 763,1245 L 763,1246 L 763,1247 L 762,1247 L 762,1248 L 761,1248 L 761,1249 L 761,1250 L 761,1251 L 762,1251 L 762,1252 L 762,1253 L 762,1254 L 763,1254 L 762,1254 L 762,1255 L 763,1255 L 762,1256 L 762,1257 L 763,1257 L 763,1258 L 763,1259 L 764,1259 L 764,1260 L 763,1260 L 763,1261 L 762,1261 L 761,1261 L 761,1262 L 760,1262 L 760,1263 L 759,1263 L 758,1263 L 757,1263 L 757,1264 L 757,1265 L 758,1265 L 758,1266 L 758,1267 L 759,1267 L 759,1268 L 759,1269 L 760,1269 L 759,1269 L 759,1270 L 759,1271 L 759,1272 L 758,1272 L 758,1271 L 758,1272 L 757,1272 L 756,1272 L 756,1273 L 755,1273 L 755,1274 L 754,1274 L 755,1274 L 755,1275 L 755,1276 L 755,1277 L 754,1278 L 754,1279 L 755,1280 L 755,1281 L 756,1281 L 756,1282 L 755,1285 L 756,1286 L 756,1287 L 755,1287 L 755,1288 L 755,1289 L 755,1290 L 736,1292 L 728,1305 L 722,1306 L 718,1308 L 715,1308 L 706,1306 L 703,1306 L 701,1307 L 699,1309 L 695,1321 L 695,1329 L 684,1333 L 682,1334 L 681,1333 L 681,1332 L 680,1332 L 679,1332 L 680,1331 L 679,1331 L 679,1330 L 679,1329 L 680,1329 L 680,1328 L 681,1328 L 681,1327 L 680,1327 L 679,1327 L 679,1326 L 678,1326 L 678,1325 L 678,1324 L 679,1324 L 679,1323 L 680,1323 L 680,1322 L 680,1321 L 680,1320 L 680,1319 L 679,1318 L 678,1317 L 677,1316 L 676,1315 L 677,1314 L 675,1312 L 672,1312 L 672,1311 L 665,1317 L 663,1318 L 661,1320 L 659,1322 L 658,1322 L 658,1321 L 657,1321 L 657,1322 L 656,1322 L 656,1321 L 655,1321 L 654,1321 L 653,1320 L 652,1320 L 651,1320 L 651,1319 L 650,1319 L 649,1319 L 648,1319 L 647,1319 L 647,1318 L 646,1318 L 646,1319 L 645,1319 L 644,1319 L 643,1319 L 642,1319 L 641,1319 L 641,1320 L 640,1320 L 639,1320 L 639,1319 L 639,1318 L 638,1318 L 638,1317 L 638,1316 L 637,1315 L 637,1314 L 636,1314 L 635,1313 L 634,1313 L 633,1313 L 633,1312 L 632,1312 L 632,1313 L 631,1313 L 630,1314 L 629,1314 L 629,1313 L 628,1313 L 628,1312 L 627,1312 L 627,1311 L 627,1310 L 627,1309 L 627,1308 L 627,1307 L 627,1306 L 628,1305 L 627,1304 L 626,1303 L 626,1302 L 626,1301 L 626,1300 L 626,1299 L 627,1299 L 628,1299 L 629,1298 L 630,1298 L 631,1298 L 633,1299 L 634,1299 L 636,1300 L 638,1300 L 641,1300 L 649,1299 L 651,1298 L 652,1296 L 653,1295 L 655,1292 L 654,1290 L 656,1285 L 657,1283 L 656,1281 L 656,1279 L 655,1278 L 653,1278 L 653,1277 L 651,1273 L 647,1268 L 646,1266 L 642,1264 L 641,1262 L 642,1256 L 643,1252 L 645,1249 L 654,1255 L 654,1252 L 656,1249 L 656,1246 L 656,1244 L 657,1240 L 659,1237 L 659,1231 L 659,1226 L 660,1218 L 658,1202 L 659,1201 L 659,1196 L 660,1191 L 660,1181 L 660,1177 L 659,1175 L 659,1171 L 660,1167 L 655,1162 L 661,1161 L 666,1160 L 672,1159 L 673,1158 L 674,1158 L 676,1155 L 677,1154 L 677,1152 L 677,1151 L 678,1151 L 678,1150 L 677,1150 L 677,1149 L 678,1149 L 677,1148 L 678,1148 L 679,1149 L 680,1150 L 683,1150 L 684,1150 L 686,1150 L 686,1148 L 686,1147 L 686,1146 L 687,1146 L 687,1144 L 686,1143 L 684,1142 L 682,1141 L 682,1139 L 683,1138 L 689,1136 L 693,1136 L 699,1135 L 699,1133 L 699,1132 L 700,1132 L 703,1131 L 705,1136 " /></g>
</svg>
