<?xml version="1.0" standalone="no"?><!DOCTYPE svg PUBLIC "-//W3C//DTD SVG 1.1//EN" "http://www.w3.org/Graphics/SVG/1.1/DTD/svg11.dtd"><svg xmlns="http://www.w3.org/2000/svg" viewBox="432 1109 297 405" version = "1.1">
<g id="50601" ><path d="M 591,1166 L 592,1166 L 592,1167 L 593,1167 L 593,1168 L 593,1169 L 594,1169 L 594,1170 L 593,1170 L 593,1171 L 594,1171 L 594,1172 L 606,1186 L 617,1193 L 620,1194 L 624,1194 L 628,1195 L 627,1197 L 628,1201 L 627,1204 L 631,1203 L 634,1205 L 635,1204 L 639,1206 L 642,1207 L 646,1210 L 652,1214 L 660,1218 L 659,1226 L 659,1231 L 659,1237 L 657,1240 L 656,1244 L 656,1246 L 656,1249 L 654,1252 L 654,1255 L 645,1249 L 643,1252 L 642,1256 L 641,1262 L 642,1264 L 646,1266 L 647,1268 L 651,1273 L 653,1277 L 653,1278 L 655,1278 L 656,1279 L 656,1281 L 657,1283 L 656,1285 L 654,1290 L 655,1292 L 653,1295 L 652,1296 L 651,1298 L 649,1299 L 641,1300 L 638,1300 L 636,1300 L 634,1299 L 633,1299 L 631,1298 L 630,1298 L 629,1298 L 628,1299 L 627,1299 L 626,1299 L 626,1300 L 626,1301 L 626,1302 L 626,1303 L 627,1304 L 628,1305 L 627,1306 L 627,1307 L 627,1308 L 627,1309 L 627,1310 L 627,1311 L 627,1312 L 628,1312 L 628,1313 L 629,1313 L 629,1314 L 630,1314 L 631,1313 L 632,1313 L 632,1312 L 633,1312 L 633,1313 L 634,1313 L 635,1313 L 636,1314 L 637,1314 L 637,1315 L 638,1316 L 638,1317 L 638,1318 L 639,1318 L 639,1319 L 639,1320 L 640,1320 L 641,1320 L 641,1319 L 642,1319 L 643,1319 L 644,1319 L 645,1319 L 646,1319 L 646,1318 L 647,1318 L 647,1319 L 648,1319 L 649,1319 L 650,1319 L 651,1319 L 651,1320 L 652,1320 L 653,1320 L 654,1321 L 655,1321 L 656,1321 L 656,1322 L 657,1322 L 657,1321 L 658,1321 L 658,1322 L 659,1322 L 661,1320 L 663,1318 L 665,1317 L 672,1311 L 672,1312 L 675,1312 L 677,1314 L 676,1315 L 677,1316 L 678,1317 L 679,1318 L 680,1319 L 680,1320 L 680,1321 L 680,1322 L 680,1323 L 679,1323 L 679,1324 L 678,1324 L 678,1325 L 678,1326 L 679,1326 L 679,1327 L 680,1327 L 681,1327 L 681,1328 L 680,1328 L 680,1329 L 679,1329 L 679,1330 L 679,1331 L 680,1331 L 679,1332 L 680,1332 L 681,1332 L 681,1333 L 682,1334 L 684,1333 L 695,1329 L 695,1321 L 699,1309 L 701,1307 L 703,1306 L 706,1306 L 715,1308 L 717,1312 L 717,1313 L 717,1314 L 717,1315 L 717,1316 L 718,1316 L 719,1318 L 720,1318 L 720,1319 L 722,1321 L 723,1321 L 723,1322 L 724,1321 L 724,1322 L 724,1321 L 725,1321 L 725,1322 L 726,1322 L 726,1323 L 727,1323 L 726,1324 L 727,1324 L 727,1325 L 727,1326 L 728,1326 L 728,1327 L 728,1328 L 729,1328 L 729,1329 L 729,1330 L 728,1330 L 728,1331 L 728,1332 L 728,1333 L 727,1333 L 727,1334 L 726,1335 L 726,1336 L 726,1337 L 725,1338 L 726,1338 L 726,1339 L 726,1340 L 726,1341 L 726,1342 L 725,1342 L 725,1343 L 725,1344 L 725,1345 L 724,1345 L 724,1346 L 724,1347 L 723,1348 L 723,1349 L 723,1350 L 723,1351 L 723,1352 L 724,1352 L 724,1353 L 724,1354 L 724,1355 L 724,1356 L 724,1357 L 724,1358 L 724,1359 L 724,1360 L 725,1360 L 725,1361 L 726,1361 L 726,1362 L 726,1363 L 726,1364 L 726,1365 L 725,1365 L 725,1366 L 724,1366 L 724,1367 L 723,1367 L 723,1368 L 722,1368 L 722,1369 L 721,1369 L 721,1370 L 720,1370 L 720,1371 L 720,1372 L 719,1372 L 719,1373 L 720,1373 L 721,1373 L 721,1374 L 721,1375 L 721,1376 L 721,1377 L 722,1377 L 721,1378 L 721,1379 L 721,1380 L 722,1381 L 722,1382 L 723,1382 L 723,1383 L 722,1383 L 723,1383 L 722,1383 L 723,1383 L 723,1384 L 723,1385 L 723,1386 L 724,1387 L 724,1388 L 725,1388 L 725,1389 L 726,1389 L 726,1390 L 725,1390 L 725,1391 L 726,1391 L 726,1392 L 727,1392 L 727,1393 L 727,1394 L 728,1394 L 728,1395 L 728,1396 L 728,1397 L 729,1397 L 728,1397 L 729,1397 L 729,1398 L 728,1398 L 729,1398 L 729,1399 L 729,1400 L 729,1401 L 728,1401 L 729,1401 L 729,1402 L 728,1403 L 728,1404 L 728,1405 L 728,1406 L 728,1407 L 729,1407 L 729,1408 L 729,1409 L 729,1410 L 729,1411 L 728,1411 L 727,1411 L 727,1412 L 727,1413 L 727,1414 L 726,1414 L 726,1413 L 725,1413 L 724,1413 L 723,1413 L 723,1412 L 722,1412 L 721,1412 L 720,1412 L 719,1412 L 719,1413 L 719,1414 L 718,1414 L 718,1415 L 718,1416 L 717,1416 L 717,1417 L 716,1417 L 716,1418 L 715,1418 L 715,1419 L 714,1419 L 713,1419 L 713,1420 L 714,1422 L 711,1438 L 712,1446 L 711,1458 L 708,1465 L 704,1477 L 705,1482 L 705,1488 L 703,1489 L 702,1489 L 702,1490 L 701,1490 L 700,1490 L 700,1491 L 699,1491 L 699,1490 L 698,1490 L 698,1491 L 697,1491 L 696,1491 L 696,1492 L 695,1492 L 694,1492 L 694,1493 L 694,1494 L 695,1494 L 696,1494 L 696,1495 L 695,1495 L 694,1495 L 693,1495 L 693,1496 L 692,1496 L 692,1497 L 692,1496 L 691,1496 L 690,1496 L 689,1496 L 689,1497 L 688,1497 L 688,1498 L 688,1499 L 688,1500 L 687,1500 L 686,1500 L 685,1500 L 685,1499 L 684,1499 L 684,1498 L 683,1497 L 683,1496 L 682,1496 L 681,1496 L 680,1495 L 678,1495 L 677,1495 L 676,1495 L 675,1495 L 674,1495 L 673,1495 L 673,1494 L 672,1494 L 671,1494 L 670,1495 L 670,1494 L 669,1494 L 668,1494 L 667,1494 L 666,1494 L 666,1493 L 666,1492 L 665,1492 L 664,1492 L 664,1491 L 663,1491 L 663,1490 L 662,1490 L 662,1491 L 661,1491 L 661,1492 L 660,1492 L 660,1491 L 659,1491 L 658,1491 L 657,1491 L 657,1492 L 656,1493 L 657,1494 L 657,1495 L 656,1495 L 655,1495 L 655,1496 L 655,1497 L 654,1497 L 654,1498 L 653,1498 L 652,1499 L 652,1500 L 652,1501 L 651,1501 L 650,1501 L 649,1501 L 648,1501 L 647,1501 L 647,1502 L 646,1502 L 645,1502 L 645,1501 L 644,1501 L 643,1501 L 643,1500 L 642,1500 L 642,1501 L 641,1501 L 641,1500 L 640,1500 L 640,1501 L 639,1501 L 638,1501 L 638,1500 L 637,1500 L 636,1500 L 635,1500 L 634,1500 L 634,1499 L 633,1499 L 633,1498 L 632,1498 L 631,1498 L 631,1499 L 631,1500 L 631,1501 L 631,1502 L 630,1503 L 629,1504 L 628,1504 L 627,1505 L 627,1506 L 626,1507 L 625,1507 L 624,1507 L 623,1507 L 622,1508 L 621,1508 L 620,1508 L 619,1507 L 618,1507 L 615,1508 L 615,1510 L 612,1512 L 611,1514 L 608,1514 L 606,1513 L 603,1510 L 598,1509 L 596,1508 L 595,1507 L 595,1504 L 593,1503 L 592,1502 L 591,1502 L 590,1502 L 589,1501 L 589,1502 L 588,1502 L 587,1502 L 587,1503 L 586,1503 L 585,1503 L 585,1502 L 584,1502 L 583,1502 L 583,1501 L 583,1500 L 582,1500 L 582,1499 L 581,1499 L 580,1499 L 580,1500 L 580,1499 L 579,1499 L 578,1499 L 578,1498 L 577,1498 L 577,1497 L 577,1496 L 577,1495 L 576,1494 L 576,1493 L 576,1492 L 576,1491 L 576,1492 L 575,1492 L 574,1492 L 574,1491 L 572,1490 L 568,1487 L 567,1485 L 566,1483 L 564,1483 L 563,1483 L 562,1484 L 561,1484 L 556,1483 L 546,1483 L 547,1480 L 546,1470 L 553,1460 L 554,1458 L 553,1455 L 552,1451 L 545,1449 L 539,1446 L 534,1440 L 529,1439 L 528,1439 L 528,1437 L 527,1437 L 526,1437 L 524,1437 L 523,1437 L 522,1437 L 519,1436 L 514,1436 L 511,1434 L 506,1432 L 505,1430 L 504,1429 L 503,1429 L 502,1429 L 498,1429 L 497,1428 L 494,1428 L 489,1428 L 482,1426 L 455,1414 L 454,1413 L 453,1413 L 453,1412 L 453,1411 L 452,1411 L 452,1410 L 452,1409 L 452,1408 L 452,1407 L 451,1407 L 450,1406 L 450,1405 L 450,1404 L 449,1404 L 449,1403 L 448,1402 L 448,1401 L 447,1401 L 446,1401 L 445,1400 L 445,1399 L 444,1399 L 444,1398 L 443,1398 L 443,1397 L 444,1396 L 443,1396 L 443,1395 L 442,1394 L 442,1393 L 441,1393 L 440,1392 L 439,1392 L 439,1391 L 438,1391 L 438,1390 L 437,1390 L 437,1389 L 436,1389 L 436,1388 L 435,1388 L 435,1387 L 435,1386 L 434,1385 L 433,1385 L 432,1384 L 432,1383 L 441,1373 L 445,1371 L 448,1359 L 448,1356 L 448,1354 L 448,1352 L 447,1348 L 446,1346 L 446,1344 L 445,1342 L 445,1340 L 444,1337 L 443,1336 L 442,1335 L 441,1334 L 442,1333 L 442,1331 L 443,1324 L 445,1322 L 445,1321 L 445,1320 L 446,1319 L 445,1317 L 446,1314 L 446,1313 L 446,1312 L 446,1311 L 446,1309 L 444,1307 L 443,1304 L 442,1303 L 442,1302 L 441,1301 L 440,1299 L 439,1299 L 438,1298 L 437,1297 L 437,1296 L 437,1293 L 437,1292 L 437,1290 L 438,1289 L 439,1288 L 439,1287 L 440,1286 L 440,1285 L 441,1285 L 442,1285 L 442,1284 L 443,1283 L 443,1282 L 444,1282 L 445,1282 L 446,1282 L 447,1282 L 448,1282 L 449,1282 L 450,1282 L 451,1282 L 454,1282 L 455,1281 L 456,1281 L 458,1281 L 459,1280 L 460,1280 L 461,1280 L 463,1280 L 464,1280 L 465,1280 L 465,1279 L 466,1279 L 466,1278 L 466,1277 L 466,1276 L 465,1276 L 465,1275 L 466,1275 L 467,1274 L 467,1273 L 467,1272 L 467,1271 L 467,1270 L 468,1269 L 469,1270 L 469,1269 L 470,1268 L 471,1267 L 473,1267 L 474,1267 L 475,1267 L 476,1267 L 476,1268 L 477,1268 L 477,1269 L 478,1269 L 478,1270 L 479,1270 L 479,1271 L 479,1272 L 480,1272 L 480,1273 L 480,1274 L 480,1275 L 479,1276 L 479,1277 L 480,1277 L 480,1278 L 480,1279 L 481,1279 L 481,1280 L 482,1280 L 482,1281 L 483,1281 L 484,1281 L 484,1282 L 485,1282 L 485,1283 L 486,1283 L 486,1284 L 486,1285 L 487,1285 L 487,1286 L 488,1286 L 488,1287 L 489,1287 L 490,1288 L 491,1288 L 491,1289 L 492,1289 L 492,1290 L 493,1290 L 493,1291 L 493,1292 L 494,1292 L 494,1293 L 495,1293 L 501,1290 L 505,1290 L 507,1290 L 510,1288 L 511,1285 L 513,1284 L 515,1282 L 517,1281 L 520,1280 L 521,1279 L 521,1278 L 521,1277 L 521,1276 L 521,1275 L 520,1274 L 521,1274 L 521,1273 L 521,1272 L 522,1272 L 523,1272 L 524,1272 L 524,1271 L 525,1271 L 526,1271 L 526,1270 L 527,1270 L 528,1270 L 528,1269 L 529,1269 L 530,1269 L 530,1268 L 530,1267 L 530,1266 L 531,1266 L 532,1266 L 532,1265 L 533,1265 L 534,1265 L 534,1264 L 534,1263 L 535,1263 L 536,1263 L 536,1262 L 536,1261 L 537,1261 L 537,1260 L 536,1260 L 537,1260 L 537,1259 L 537,1258 L 538,1258 L 538,1257 L 537,1257 L 536,1256 L 535,1256 L 535,1255 L 535,1254 L 534,1254 L 535,1254 L 534,1254 L 535,1253 L 534,1253 L 534,1252 L 533,1252 L 533,1251 L 532,1251 L 532,1250 L 532,1249 L 533,1245 L 532,1237 L 535,1231 L 536,1232 L 539,1226 L 542,1224 L 543,1221 L 542,1218 L 533,1214 L 531,1211 L 530,1211 L 529,1209 L 528,1207 L 527,1204 L 528,1202 L 530,1194 L 532,1192 L 533,1189 L 535,1187 L 540,1183 L 541,1180 L 542,1178 L 542,1175 L 540,1172 L 539,1169 L 537,1166 L 538,1165 L 537,1163 L 536,1161 L 541,1159 L 545,1159 L 545,1158 L 544,1157 L 543,1156 L 541,1154 L 539,1148 L 538,1146 L 537,1143 L 542,1133 L 540,1129 L 541,1128 L 542,1128 L 543,1128 L 543,1127 L 543,1126 L 543,1125 L 544,1125 L 544,1124 L 544,1123 L 543,1123 L 543,1122 L 543,1121 L 543,1120 L 543,1119 L 543,1118 L 543,1117 L 544,1117 L 544,1116 L 544,1115 L 544,1114 L 544,1113 L 545,1113 L 545,1112 L 544,1112 L 544,1111 L 545,1111 L 546,1111 L 549,1109 L 550,1110 L 551,1114 L 558,1117 L 559,1119 L 564,1122 L 574,1125 L 576,1132 L 579,1134 L 579,1142 L 580,1146 L 582,1151 L 586,1153 L 587,1155 L 587,1156 L 586,1156 L 587,1157 L 586,1158 L 587,1158 L 587,1159 L 587,1160 L 587,1161 L 587,1162 L 587,1163 L 588,1164 L 589,1165 L 590,1165 L 590,1166 L 591,1166 " /></g>
</svg>
