<?xml version="1.0" standalone="no"?><!DOCTYPE svg PUBLIC "-//W3C//DTD SVG 1.1//EN" "http://www.w3.org/Graphics/SVG/1.1/DTD/svg11.dtd"><svg xmlns="http://www.w3.org/2000/svg" viewBox="246 475 129 67" version = "1.1">
<g id="50702" ><path d="M 322,475 L 323,475 L 323,476 L 324,476 L 325,476 L 326,476 L 326,477 L 327,477 L 328,477 L 329,477 L 330,477 L 330,478 L 331,478 L 332,478 L 332,479 L 333,479 L 334,479 L 334,480 L 334,481 L 335,481 L 336,481 L 337,481 L 337,482 L 338,482 L 338,483 L 339,483 L 339,484 L 339,485 L 340,485 L 340,486 L 341,486 L 340,486 L 341,487 L 341,488 L 341,489 L 342,490 L 341,490 L 342,491 L 342,492 L 342,493 L 343,493 L 343,494 L 344,494 L 344,495 L 345,495 L 345,496 L 345,497 L 345,498 L 345,499 L 346,499 L 346,500 L 346,501 L 347,501 L 348,501 L 349,501 L 349,500 L 350,500 L 351,499 L 352,499 L 352,498 L 353,498 L 353,497 L 354,497 L 354,496 L 356,498 L 358,501 L 358,503 L 359,506 L 362,508 L 363,509 L 363,510 L 362,512 L 360,512 L 360,515 L 360,517 L 362,520 L 362,522 L 363,523 L 363,524 L 363,525 L 363,526 L 364,526 L 365,527 L 370,525 L 371,525 L 371,526 L 372,526 L 373,527 L 374,527 L 375,527 L 375,528 L 373,529 L 373,530 L 372,531 L 372,532 L 371,534 L 370,536 L 370,537 L 369,536 L 368,536 L 367,536 L 367,535 L 366,535 L 365,535 L 365,536 L 365,537 L 364,537 L 364,538 L 364,539 L 363,539 L 362,539 L 362,538 L 361,539 L 361,540 L 360,540 L 359,540 L 358,541 L 357,541 L 356,541 L 355,541 L 354,541 L 354,540 L 353,540 L 352,540 L 351,539 L 350,538 L 349,538 L 346,537 L 344,537 L 343,537 L 342,537 L 342,538 L 342,539 L 342,540 L 341,540 L 340,540 L 339,540 L 339,539 L 338,539 L 337,540 L 337,541 L 337,542 L 336,542 L 336,541 L 335,542 L 334,541 L 333,541 L 332,541 L 331,541 L 331,542 L 330,542 L 330,541 L 329,541 L 328,541 L 327,540 L 327,539 L 327,538 L 328,538 L 328,539 L 328,540 L 329,540 L 329,539 L 329,538 L 330,538 L 330,539 L 331,539 L 331,538 L 331,537 L 332,537 L 332,536 L 332,535 L 333,535 L 333,534 L 333,533 L 332,533 L 332,532 L 331,532 L 330,532 L 329,532 L 328,532 L 327,532 L 327,531 L 326,531 L 325,531 L 324,531 L 323,531 L 322,531 L 322,532 L 321,532 L 320,533 L 320,532 L 320,533 L 319,533 L 318,533 L 317,533 L 317,532 L 316,532 L 315,532 L 314,532 L 313,532 L 313,531 L 312,531 L 312,530 L 311,530 L 311,529 L 310,529 L 309,529 L 309,528 L 309,529 L 308,529 L 307,529 L 306,529 L 305,529 L 304,529 L 303,529 L 302,529 L 301,529 L 300,529 L 299,529 L 298,529 L 297,529 L 296,529 L 296,530 L 295,530 L 294,530 L 293,530 L 292,530 L 291,529 L 290,529 L 290,528 L 289,528 L 288,529 L 287,529 L 286,529 L 285,529 L 284,528 L 283,527 L 282,527 L 279,527 L 276,528 L 274,529 L 271,530 L 270,531 L 270,530 L 270,531 L 269,531 L 268,531 L 267,531 L 266,531 L 266,530 L 265,530 L 264,530 L 263,530 L 262,530 L 261,530 L 260,530 L 259,530 L 259,529 L 259,528 L 259,527 L 256,526 L 255,525 L 254,522 L 254,519 L 256,518 L 256,517 L 256,515 L 255,513 L 255,511 L 255,509 L 255,507 L 255,506 L 254,505 L 253,505 L 252,505 L 252,504 L 251,503 L 248,500 L 247,496 L 246,495 L 255,495 L 256,494 L 267,488 L 271,488 L 273,490 L 276,490 L 277,490 L 278,490 L 278,489 L 279,489 L 280,489 L 280,488 L 280,487 L 281,487 L 282,487 L 283,487 L 283,486 L 284,486 L 285,486 L 285,487 L 286,487 L 287,487 L 287,488 L 288,488 L 288,489 L 289,489 L 290,489 L 291,489 L 292,489 L 293,489 L 294,489 L 295,489 L 296,489 L 297,489 L 298,488 L 299,488 L 299,487 L 300,487 L 300,486 L 301,486 L 301,485 L 302,485 L 302,484 L 302,483 L 302,482 L 303,482 L 304,482 L 304,481 L 304,480 L 305,480 L 305,479 L 306,479 L 306,478 L 307,477 L 308,477 L 310,477 L 312,477 L 315,477 L 316,477 L 317,477 L 317,476 L 318,476 L 319,476 L 319,475 L 320,475 L 321,475 L 322,475 " /></g>
</svg>
