<?xml version="1.0" standalone="no"?><!DOCTYPE svg PUBLIC "-//W3C//DTD SVG 1.1//EN" "http://www.w3.org/Graphics/SVG/1.1/DTD/svg11.dtd"><svg xmlns="http://www.w3.org/2000/svg" viewBox="331 432 118 145" version = "1.1">
<g id="50701" ><path d="M 403,433 L 404,433 L 404,434 L 404,435 L 405,435 L 406,435 L 406,436 L 407,436 L 408,436 L 408,437 L 408,436 L 409,436 L 410,436 L 411,436 L 411,437 L 412,437 L 413,437 L 414,437 L 415,437 L 416,438 L 417,437 L 417,436 L 418,435 L 419,434 L 419,435 L 419,436 L 420,436 L 420,437 L 421,438 L 421,439 L 422,439 L 422,440 L 422,441 L 423,441 L 423,442 L 424,442 L 424,443 L 425,443 L 425,444 L 426,444 L 426,445 L 427,445 L 427,446 L 427,447 L 427,448 L 427,449 L 427,450 L 427,451 L 428,451 L 428,452 L 429,452 L 430,453 L 431,453 L 432,454 L 432,455 L 433,455 L 433,456 L 434,456 L 434,457 L 434,458 L 435,458 L 435,459 L 436,459 L 436,458 L 437,458 L 437,457 L 438,457 L 439,457 L 440,457 L 439,458 L 439,459 L 440,460 L 441,460 L 441,461 L 442,461 L 442,462 L 442,463 L 442,464 L 442,465 L 442,466 L 442,467 L 442,468 L 442,469 L 442,470 L 443,470 L 443,471 L 444,471 L 445,472 L 446,473 L 446,474 L 447,474 L 447,476 L 448,476 L 447,476 L 446,476 L 446,477 L 446,478 L 446,479 L 447,479 L 447,483 L 447,484 L 448,484 L 448,485 L 449,485 L 448,485 L 448,486 L 447,486 L 447,487 L 446,487 L 446,488 L 445,488 L 444,488 L 443,488 L 442,488 L 442,489 L 441,489 L 440,489 L 440,490 L 439,490 L 438,490 L 438,494 L 440,496 L 440,498 L 440,499 L 441,500 L 442,501 L 443,503 L 443,505 L 443,507 L 442,508 L 441,510 L 439,510 L 437,512 L 436,513 L 435,515 L 434,517 L 433,516 L 433,517 L 433,518 L 433,519 L 432,520 L 432,521 L 431,521 L 431,522 L 430,522 L 429,522 L 428,522 L 428,523 L 427,524 L 424,525 L 423,526 L 422,527 L 422,528 L 420,529 L 419,530 L 418,530 L 416,534 L 415,535 L 415,536 L 413,540 L 414,542 L 419,546 L 421,549 L 424,555 L 425,557 L 426,560 L 427,560 L 427,561 L 428,561 L 428,562 L 427,562 L 427,563 L 427,564 L 427,565 L 427,566 L 427,567 L 427,568 L 427,569 L 425,569 L 424,570 L 423,569 L 421,570 L 419,571 L 416,572 L 415,574 L 410,577 L 410,576 L 409,576 L 409,575 L 409,574 L 408,574 L 407,574 L 407,573 L 406,573 L 406,572 L 406,571 L 405,571 L 405,570 L 406,570 L 406,569 L 405,569 L 405,568 L 404,568 L 404,567 L 403,567 L 403,566 L 402,566 L 401,566 L 401,565 L 401,564 L 400,564 L 399,564 L 398,564 L 398,563 L 397,563 L 397,562 L 396,562 L 396,561 L 395,561 L 395,560 L 394,560 L 393,560 L 393,559 L 392,559 L 392,558 L 392,557 L 391,557 L 391,556 L 391,555 L 392,555 L 392,554 L 392,553 L 393,553 L 393,552 L 393,551 L 393,550 L 394,550 L 394,549 L 395,549 L 395,548 L 395,547 L 394,547 L 394,546 L 394,545 L 394,544 L 394,543 L 396,540 L 397,538 L 398,537 L 399,537 L 399,536 L 400,536 L 401,536 L 401,535 L 402,535 L 402,534 L 403,534 L 404,532 L 406,527 L 408,525 L 409,525 L 409,524 L 410,524 L 410,523 L 410,522 L 409,522 L 409,521 L 409,520 L 408,518 L 406,518 L 404,518 L 403,519 L 402,520 L 400,519 L 399,519 L 398,518 L 397,519 L 395,518 L 393,518 L 392,519 L 391,518 L 388,519 L 387,520 L 385,520 L 382,522 L 380,525 L 378,528 L 377,528 L 376,528 L 375,528 L 375,527 L 374,527 L 373,527 L 372,526 L 371,526 L 371,525 L 370,525 L 365,527 L 364,526 L 363,526 L 363,525 L 363,524 L 363,523 L 362,522 L 362,520 L 360,517 L 360,515 L 360,512 L 362,512 L 363,510 L 363,509 L 362,508 L 359,506 L 358,503 L 358,501 L 356,498 L 354,496 L 354,497 L 353,497 L 353,498 L 352,498 L 352,499 L 351,499 L 350,500 L 349,500 L 349,501 L 348,501 L 347,501 L 346,501 L 346,500 L 346,499 L 345,499 L 345,498 L 345,497 L 345,496 L 345,495 L 344,495 L 344,494 L 343,494 L 343,493 L 342,493 L 342,492 L 342,491 L 341,490 L 342,490 L 341,489 L 341,488 L 341,487 L 340,486 L 341,486 L 340,486 L 340,485 L 339,485 L 339,484 L 339,483 L 338,483 L 338,482 L 337,482 L 337,481 L 336,481 L 335,481 L 334,481 L 334,480 L 334,479 L 334,478 L 334,477 L 334,476 L 333,476 L 333,475 L 333,474 L 333,473 L 332,473 L 332,472 L 331,471 L 331,470 L 331,469 L 336,465 L 338,461 L 342,459 L 343,458 L 344,457 L 347,454 L 349,453 L 351,451 L 352,450 L 351,449 L 355,447 L 360,443 L 361,442 L 363,441 L 364,441 L 365,440 L 366,441 L 368,441 L 369,441 L 370,441 L 371,440 L 371,439 L 374,438 L 377,437 L 378,437 L 379,437 L 380,437 L 381,437 L 382,436 L 384,436 L 385,435 L 389,435 L 392,436 L 393,436 L 395,436 L 395,435 L 397,434 L 399,433 L 400,433 L 401,433 L 402,433 L 402,432 L 403,432 L 403,433 " /></g>
</svg>
