<?xml version="1.0" standalone="no"?><!DOCTYPE svg PUBLIC "-//W3C//DTD SVG 1.1//EN" "http://www.w3.org/Graphics/SVG/1.1/DTD/svg11.dtd"><svg xmlns="http://www.w3.org/2000/svg" viewBox="393 1483 370 261" version = "1.1">
<g id="50801" ><path d="M 762,1618 L 762,1619 L 762,1620 L 763,1620 L 763,1621 L 763,1622 L 763,1623 L 763,1624 L 763,1625 L 763,1626 L 763,1627 L 762,1627 L 762,1628 L 761,1628 L 761,1629 L 761,1630 L 761,1631 L 762,1631 L 762,1632 L 763,1632 L 763,1631 L 763,1632 L 763,1633 L 763,1634 L 763,1635 L 762,1635 L 763,1636 L 763,1637 L 763,1638 L 762,1638 L 761,1639 L 761,1640 L 762,1640 L 763,1640 L 763,1641 L 763,1642 L 763,1643 L 763,1644 L 763,1645 L 763,1646 L 763,1647 L 763,1648 L 762,1648 L 761,1649 L 761,1650 L 762,1651 L 761,1651 L 761,1652 L 760,1652 L 760,1653 L 761,1653 L 761,1654 L 761,1655 L 760,1656 L 760,1657 L 760,1658 L 759,1658 L 758,1659 L 758,1660 L 757,1660 L 757,1661 L 757,1662 L 757,1663 L 756,1664 L 756,1665 L 757,1666 L 757,1667 L 758,1667 L 758,1668 L 758,1669 L 757,1670 L 756,1670 L 756,1671 L 756,1672 L 755,1672 L 754,1672 L 753,1672 L 753,1673 L 752,1673 L 752,1674 L 753,1674 L 754,1675 L 754,1676 L 753,1676 L 753,1677 L 752,1677 L 753,1678 L 753,1679 L 752,1679 L 752,1680 L 751,1680 L 751,1679 L 750,1679 L 750,1680 L 750,1681 L 749,1681 L 748,1681 L 748,1682 L 747,1682 L 747,1683 L 746,1683 L 746,1684 L 745,1684 L 745,1685 L 745,1686 L 745,1687 L 744,1687 L 743,1687 L 743,1688 L 744,1688 L 744,1689 L 744,1690 L 744,1691 L 744,1692 L 743,1692 L 743,1693 L 742,1693 L 742,1694 L 743,1694 L 744,1694 L 744,1695 L 745,1695 L 745,1696 L 745,1697 L 744,1697 L 745,1698 L 746,1699 L 747,1699 L 747,1700 L 748,1700 L 748,1701 L 747,1702 L 746,1702 L 745,1702 L 744,1702 L 743,1702 L 742,1702 L 741,1701 L 740,1701 L 740,1702 L 740,1703 L 741,1703 L 740,1704 L 740,1705 L 740,1706 L 740,1707 L 739,1707 L 739,1708 L 738,1708 L 738,1709 L 737,1710 L 737,1711 L 737,1712 L 738,1712 L 738,1713 L 738,1714 L 737,1714 L 736,1715 L 736,1716 L 735,1716 L 735,1717 L 735,1718 L 735,1719 L 736,1719 L 736,1720 L 735,1720 L 734,1720 L 734,1721 L 733,1721 L 733,1722 L 734,1722 L 734,1723 L 734,1724 L 733,1724 L 733,1725 L 733,1726 L 733,1727 L 732,1727 L 731,1728 L 730,1728 L 729,1728 L 729,1729 L 729,1730 L 729,1731 L 728,1731 L 728,1732 L 729,1732 L 729,1733 L 729,1734 L 728,1734 L 728,1735 L 727,1735 L 727,1736 L 727,1737 L 726,1737 L 726,1738 L 725,1738 L 724,1737 L 724,1738 L 723,1738 L 722,1738 L 721,1738 L 720,1737 L 719,1737 L 718,1737 L 717,1737 L 717,1738 L 717,1739 L 716,1739 L 715,1738 L 715,1739 L 715,1740 L 714,1740 L 714,1741 L 713,1741 L 713,1742 L 713,1743 L 714,1743 L 714,1744 L 713,1744 L 712,1744 L 711,1744 L 711,1743 L 710,1743 L 711,1743 L 712,1743 L 712,1742 L 711,1742 L 711,1741 L 710,1741 L 710,1740 L 709,1740 L 710,1740 L 709,1739 L 709,1740 L 708,1739 L 709,1739 L 709,1738 L 708,1738 L 708,1739 L 707,1739 L 707,1738 L 706,1738 L 705,1738 L 705,1737 L 705,1736 L 704,1736 L 703,1735 L 703,1736 L 702,1736 L 701,1736 L 700,1736 L 699,1736 L 698,1737 L 697,1737 L 696,1737 L 696,1736 L 695,1736 L 694,1736 L 694,1737 L 693,1737 L 693,1736 L 692,1736 L 691,1736 L 691,1735 L 690,1735 L 690,1734 L 689,1734 L 689,1733 L 688,1732 L 689,1731 L 688,1731 L 688,1730 L 687,1730 L 686,1730 L 687,1729 L 687,1728 L 687,1727 L 686,1727 L 686,1726 L 686,1725 L 685,1725 L 685,1724 L 686,1724 L 686,1723 L 686,1722 L 686,1721 L 686,1720 L 687,1720 L 688,1720 L 688,1719 L 688,1718 L 688,1717 L 689,1717 L 689,1716 L 688,1716 L 688,1717 L 687,1717 L 686,1717 L 685,1717 L 685,1716 L 685,1715 L 685,1714 L 686,1713 L 685,1713 L 685,1712 L 684,1712 L 684,1713 L 683,1713 L 682,1713 L 681,1713 L 681,1712 L 682,1712 L 682,1711 L 682,1710 L 681,1710 L 681,1709 L 680,1709 L 679,1708 L 678,1708 L 678,1707 L 679,1706 L 679,1705 L 678,1705 L 678,1704 L 677,1704 L 676,1703 L 676,1702 L 675,1701 L 675,1700 L 675,1699 L 676,1699 L 677,1698 L 678,1698 L 678,1697 L 677,1697 L 676,1697 L 675,1698 L 674,1697 L 673,1697 L 673,1696 L 672,1696 L 671,1696 L 672,1695 L 673,1695 L 673,1694 L 674,1693 L 675,1693 L 675,1692 L 675,1691 L 676,1691 L 677,1691 L 677,1690 L 677,1689 L 676,1689 L 676,1688 L 675,1688 L 674,1688 L 673,1688 L 673,1687 L 672,1687 L 673,1687 L 672,1687 L 672,1686 L 672,1685 L 671,1684 L 671,1685 L 670,1685 L 670,1684 L 670,1683 L 671,1683 L 670,1683 L 670,1682 L 669,1682 L 669,1681 L 669,1680 L 668,1680 L 668,1679 L 666,1680 L 665,1680 L 663,1680 L 661,1680 L 659,1680 L 657,1680 L 655,1680 L 650,1680 L 648,1680 L 643,1681 L 642,1681 L 638,1682 L 635,1682 L 634,1682 L 632,1681 L 630,1680 L 629,1680 L 627,1680 L 626,1680 L 623,1681 L 619,1681 L 616,1681 L 615,1682 L 615,1683 L 615,1684 L 614,1686 L 613,1688 L 610,1687 L 609,1686 L 607,1685 L 604,1686 L 602,1686 L 600,1686 L 599,1687 L 600,1690 L 600,1692 L 601,1693 L 600,1695 L 601,1697 L 601,1703 L 601,1706 L 602,1707 L 602,1708 L 601,1708 L 601,1709 L 600,1709 L 600,1710 L 599,1710 L 599,1709 L 598,1709 L 597,1709 L 596,1708 L 595,1708 L 594,1708 L 593,1708 L 592,1708 L 592,1709 L 593,1709 L 593,1710 L 594,1710 L 594,1711 L 595,1712 L 594,1712 L 594,1713 L 593,1713 L 592,1713 L 591,1713 L 591,1714 L 590,1714 L 589,1714 L 589,1715 L 588,1715 L 588,1716 L 587,1716 L 587,1717 L 586,1717 L 585,1717 L 584,1717 L 583,1717 L 582,1717 L 581,1717 L 580,1717 L 580,1716 L 579,1716 L 579,1715 L 578,1715 L 577,1715 L 576,1715 L 576,1714 L 575,1714 L 574,1714 L 573,1714 L 572,1714 L 572,1715 L 571,1715 L 570,1716 L 570,1717 L 569,1717 L 569,1718 L 568,1718 L 568,1717 L 567,1717 L 566,1717 L 566,1718 L 565,1718 L 564,1718 L 563,1719 L 562,1719 L 561,1719 L 560,1719 L 559,1719 L 558,1719 L 556,1719 L 554,1720 L 553,1720 L 552,1721 L 550,1722 L 548,1723 L 546,1724 L 543,1725 L 541,1726 L 540,1727 L 539,1728 L 539,1729 L 539,1731 L 540,1731 L 540,1735 L 540,1736 L 538,1736 L 537,1736 L 536,1737 L 535,1737 L 534,1737 L 533,1736 L 532,1736 L 531,1736 L 529,1735 L 528,1735 L 527,1734 L 526,1734 L 525,1733 L 524,1733 L 523,1732 L 522,1732 L 520,1732 L 519,1732 L 518,1732 L 517,1732 L 513,1731 L 509,1728 L 506,1728 L 505,1727 L 503,1727 L 499,1725 L 498,1722 L 497,1719 L 496,1719 L 496,1717 L 495,1716 L 495,1715 L 494,1714 L 494,1713 L 494,1712 L 494,1711 L 494,1710 L 494,1709 L 494,1708 L 493,1708 L 492,1708 L 492,1709 L 491,1709 L 490,1709 L 489,1709 L 488,1710 L 488,1711 L 487,1711 L 486,1711 L 485,1711 L 484,1711 L 483,1710 L 482,1710 L 481,1710 L 480,1710 L 480,1709 L 480,1708 L 479,1708 L 478,1707 L 472,1711 L 470,1711 L 470,1713 L 471,1716 L 468,1729 L 467,1731 L 452,1726 L 445,1723 L 436,1719 L 436,1718 L 435,1718 L 434,1717 L 434,1716 L 433,1716 L 433,1715 L 433,1714 L 432,1714 L 432,1713 L 431,1713 L 431,1712 L 430,1711 L 430,1710 L 430,1709 L 430,1708 L 429,1708 L 428,1708 L 427,1707 L 427,1708 L 426,1709 L 426,1710 L 425,1710 L 424,1710 L 424,1709 L 424,1710 L 424,1709 L 424,1710 L 424,1709 L 423,1709 L 423,1710 L 422,1710 L 422,1711 L 422,1712 L 421,1712 L 421,1713 L 421,1714 L 420,1714 L 420,1715 L 419,1715 L 419,1716 L 418,1716 L 417,1716 L 417,1717 L 417,1716 L 417,1717 L 416,1717 L 415,1718 L 414,1718 L 414,1717 L 414,1716 L 414,1715 L 413,1715 L 413,1714 L 412,1714 L 412,1715 L 411,1715 L 411,1714 L 410,1714 L 409,1714 L 409,1715 L 409,1714 L 408,1714 L 407,1714 L 406,1714 L 405,1714 L 405,1713 L 404,1713 L 403,1713 L 403,1712 L 402,1712 L 402,1713 L 401,1713 L 400,1712 L 400,1711 L 399,1711 L 399,1710 L 398,1710 L 398,1709 L 398,1708 L 398,1707 L 399,1707 L 399,1706 L 399,1705 L 398,1704 L 398,1703 L 398,1702 L 398,1701 L 397,1700 L 396,1699 L 396,1698 L 395,1697 L 395,1696 L 394,1696 L 394,1695 L 394,1694 L 393,1693 L 393,1692 L 394,1691 L 394,1690 L 394,1689 L 394,1688 L 395,1688 L 395,1687 L 395,1686 L 396,1685 L 396,1684 L 396,1683 L 397,1678 L 399,1678 L 405,1672 L 407,1664 L 411,1661 L 416,1659 L 417,1655 L 417,1654 L 417,1653 L 418,1653 L 418,1652 L 418,1651 L 419,1651 L 420,1651 L 420,1650 L 420,1649 L 419,1649 L 419,1648 L 420,1648 L 420,1647 L 420,1646 L 420,1645 L 420,1644 L 420,1643 L 420,1642 L 419,1642 L 419,1641 L 419,1640 L 419,1639 L 419,1638 L 419,1637 L 419,1636 L 419,1635 L 419,1634 L 418,1634 L 419,1634 L 419,1633 L 419,1632 L 419,1631 L 419,1630 L 419,1629 L 419,1628 L 418,1628 L 418,1627 L 417,1626 L 418,1625 L 417,1625 L 418,1624 L 418,1623 L 419,1622 L 420,1622 L 420,1621 L 419,1621 L 419,1620 L 419,1619 L 418,1619 L 418,1618 L 417,1617 L 417,1616 L 416,1616 L 416,1615 L 416,1614 L 415,1614 L 415,1613 L 415,1612 L 415,1611 L 415,1610 L 414,1610 L 414,1609 L 413,1609 L 413,1608 L 413,1607 L 412,1607 L 412,1606 L 412,1605 L 412,1604 L 412,1603 L 413,1603 L 414,1602 L 415,1602 L 416,1602 L 417,1602 L 418,1602 L 419,1601 L 419,1600 L 420,1599 L 419,1596 L 417,1592 L 417,1588 L 419,1582 L 416,1578 L 418,1573 L 417,1569 L 417,1561 L 417,1560 L 417,1558 L 417,1555 L 420,1554 L 425,1553 L 428,1552 L 433,1552 L 434,1552 L 435,1552 L 436,1552 L 437,1552 L 438,1552 L 439,1552 L 440,1553 L 441,1553 L 442,1553 L 443,1554 L 444,1554 L 444,1555 L 445,1556 L 446,1555 L 447,1555 L 448,1556 L 449,1555 L 450,1555 L 451,1555 L 452,1555 L 454,1555 L 455,1556 L 456,1556 L 456,1555 L 457,1556 L 458,1556 L 460,1557 L 461,1557 L 463,1560 L 463,1561 L 463,1562 L 463,1563 L 464,1563 L 465,1564 L 466,1564 L 467,1564 L 468,1564 L 468,1563 L 469,1563 L 470,1562 L 471,1562 L 471,1563 L 471,1562 L 471,1563 L 472,1562 L 473,1562 L 473,1561 L 474,1561 L 475,1561 L 476,1561 L 475,1561 L 476,1561 L 476,1562 L 477,1562 L 478,1562 L 479,1562 L 479,1563 L 480,1563 L 480,1562 L 480,1563 L 481,1563 L 481,1562 L 482,1562 L 482,1563 L 482,1564 L 483,1564 L 484,1564 L 485,1564 L 486,1564 L 486,1565 L 487,1565 L 487,1564 L 488,1564 L 488,1563 L 489,1563 L 489,1562 L 490,1562 L 490,1563 L 490,1564 L 490,1563 L 491,1563 L 492,1563 L 492,1562 L 492,1563 L 493,1563 L 492,1563 L 493,1564 L 493,1565 L 494,1565 L 495,1565 L 496,1565 L 497,1565 L 497,1564 L 498,1564 L 499,1564 L 500,1564 L 501,1564 L 501,1563 L 502,1563 L 503,1563 L 504,1563 L 504,1564 L 505,1564 L 506,1563 L 506,1562 L 506,1559 L 506,1556 L 508,1552 L 508,1550 L 506,1548 L 508,1541 L 510,1539 L 512,1536 L 512,1535 L 513,1534 L 513,1533 L 512,1533 L 513,1533 L 513,1532 L 513,1531 L 513,1530 L 513,1529 L 513,1528 L 513,1527 L 513,1526 L 512,1526 L 513,1525 L 513,1524 L 514,1524 L 514,1523 L 514,1522 L 515,1522 L 515,1523 L 516,1523 L 517,1523 L 517,1522 L 518,1522 L 518,1521 L 519,1521 L 519,1520 L 520,1520 L 521,1520 L 522,1521 L 522,1522 L 523,1522 L 523,1521 L 523,1520 L 524,1519 L 524,1518 L 525,1518 L 525,1517 L 526,1517 L 527,1517 L 528,1517 L 528,1518 L 529,1518 L 530,1518 L 531,1519 L 532,1519 L 532,1520 L 533,1520 L 533,1522 L 534,1524 L 541,1525 L 545,1523 L 547,1522 L 549,1521 L 551,1519 L 552,1518 L 552,1516 L 553,1513 L 552,1510 L 551,1509 L 550,1508 L 549,1505 L 549,1504 L 549,1501 L 549,1498 L 549,1497 L 551,1493 L 550,1492 L 548,1492 L 548,1490 L 546,1489 L 546,1488 L 546,1483 L 556,1483 L 561,1484 L 562,1484 L 563,1483 L 564,1483 L 566,1483 L 567,1485 L 568,1487 L 572,1490 L 574,1491 L 574,1492 L 575,1492 L 576,1492 L 576,1491 L 576,1492 L 576,1493 L 576,1494 L 577,1495 L 577,1496 L 577,1497 L 577,1498 L 578,1498 L 578,1499 L 579,1499 L 580,1499 L 580,1500 L 580,1499 L 581,1499 L 582,1499 L 582,1500 L 583,1500 L 583,1501 L 583,1502 L 584,1502 L 585,1502 L 585,1503 L 586,1503 L 587,1503 L 587,1502 L 588,1502 L 589,1502 L 589,1501 L 590,1502 L 591,1502 L 592,1502 L 593,1503 L 595,1504 L 595,1507 L 596,1508 L 598,1509 L 603,1510 L 606,1513 L 608,1514 L 611,1514 L 612,1512 L 615,1510 L 615,1508 L 618,1507 L 619,1507 L 620,1508 L 621,1508 L 622,1508 L 623,1507 L 624,1507 L 625,1507 L 626,1507 L 627,1506 L 627,1505 L 628,1504 L 629,1504 L 630,1503 L 631,1502 L 631,1501 L 631,1500 L 631,1499 L 631,1498 L 632,1498 L 633,1498 L 633,1499 L 634,1499 L 634,1500 L 635,1500 L 636,1500 L 637,1500 L 638,1500 L 638,1501 L 639,1501 L 640,1501 L 640,1500 L 641,1500 L 641,1501 L 642,1501 L 642,1500 L 643,1500 L 643,1501 L 644,1501 L 645,1501 L 645,1502 L 646,1502 L 647,1502 L 647,1501 L 648,1501 L 649,1501 L 650,1501 L 651,1501 L 652,1501 L 652,1500 L 652,1499 L 653,1498 L 654,1498 L 654,1497 L 655,1497 L 655,1496 L 655,1495 L 656,1495 L 657,1495 L 657,1494 L 656,1493 L 657,1492 L 657,1491 L 658,1491 L 659,1491 L 660,1491 L 660,1492 L 661,1492 L 661,1491 L 662,1491 L 662,1490 L 663,1490 L 663,1491 L 664,1491 L 664,1492 L 665,1492 L 666,1492 L 666,1493 L 666,1494 L 667,1494 L 668,1494 L 669,1494 L 670,1494 L 670,1495 L 671,1494 L 672,1494 L 673,1494 L 673,1495 L 674,1495 L 675,1495 L 676,1495 L 677,1495 L 678,1495 L 680,1495 L 681,1496 L 682,1496 L 683,1496 L 683,1497 L 684,1498 L 684,1499 L 685,1499 L 685,1500 L 686,1500 L 687,1500 L 688,1500 L 688,1499 L 688,1498 L 688,1497 L 689,1497 L 689,1496 L 690,1496 L 691,1496 L 692,1496 L 692,1497 L 692,1496 L 693,1496 L 693,1495 L 694,1495 L 695,1495 L 696,1495 L 696,1494 L 695,1494 L 694,1494 L 694,1493 L 694,1492 L 695,1492 L 696,1492 L 696,1491 L 697,1491 L 698,1491 L 698,1490 L 699,1490 L 699,1491 L 700,1491 L 700,1490 L 701,1490 L 702,1490 L 702,1489 L 703,1489 L 705,1488 L 708,1497 L 710,1503 L 711,1510 L 710,1510 L 710,1511 L 710,1512 L 709,1513 L 709,1514 L 708,1514 L 707,1514 L 706,1514 L 706,1513 L 705,1513 L 705,1514 L 704,1514 L 704,1515 L 703,1515 L 703,1516 L 702,1516 L 701,1516 L 700,1516 L 700,1517 L 699,1517 L 698,1517 L 697,1517 L 697,1519 L 698,1520 L 697,1520 L 697,1521 L 698,1521 L 698,1522 L 698,1523 L 697,1523 L 697,1524 L 698,1525 L 698,1526 L 698,1527 L 700,1543 L 700,1545 L 700,1546 L 699,1546 L 700,1546 L 700,1547 L 699,1547 L 700,1547 L 699,1547 L 699,1548 L 700,1548 L 699,1548 L 700,1548 L 699,1548 L 700,1548 L 699,1548 L 700,1548 L 699,1548 L 700,1548 L 700,1549 L 699,1549 L 699,1550 L 700,1551 L 700,1552 L 701,1552 L 701,1553 L 700,1553 L 700,1554 L 700,1555 L 701,1555 L 701,1556 L 700,1556 L 700,1557 L 701,1557 L 701,1558 L 701,1559 L 701,1560 L 701,1561 L 701,1562 L 701,1563 L 701,1564 L 701,1565 L 700,1565 L 700,1566 L 700,1567 L 700,1568 L 700,1569 L 700,1570 L 699,1570 L 699,1571 L 699,1573 L 699,1574 L 699,1575 L 700,1575 L 700,1576 L 701,1576 L 700,1576 L 700,1577 L 701,1577 L 701,1578 L 701,1579 L 701,1580 L 700,1580 L 700,1581 L 700,1582 L 700,1583 L 700,1584 L 700,1585 L 700,1586 L 700,1587 L 699,1587 L 699,1588 L 699,1589 L 699,1590 L 699,1589 L 700,1589 L 700,1590 L 700,1591 L 700,1592 L 700,1593 L 699,1593 L 699,1594 L 700,1595 L 700,1596 L 699,1597 L 699,1598 L 699,1599 L 706,1600 L 709,1601 L 709,1602 L 708,1602 L 708,1603 L 709,1604 L 709,1605 L 709,1606 L 710,1606 L 710,1607 L 710,1608 L 711,1608 L 712,1608 L 712,1609 L 712,1610 L 711,1611 L 711,1612 L 711,1613 L 711,1615 L 712,1616 L 712,1617 L 712,1618 L 711,1618 L 710,1618 L 710,1619 L 709,1619 L 710,1619 L 711,1621 L 711,1622 L 711,1623 L 711,1624 L 711,1626 L 713,1627 L 714,1628 L 715,1629 L 727,1624 L 736,1627 L 738,1630 L 740,1622 L 740,1621 L 740,1620 L 741,1620 L 741,1619 L 742,1619 L 743,1618 L 743,1619 L 744,1619 L 745,1619 L 745,1620 L 746,1620 L 747,1620 L 747,1621 L 747,1620 L 747,1621 L 748,1621 L 749,1621 L 750,1621 L 750,1622 L 751,1622 L 751,1621 L 752,1621 L 752,1622 L 753,1622 L 754,1622 L 754,1621 L 755,1621 L 756,1621 L 756,1620 L 757,1620 L 757,1619 L 758,1619 L 758,1618 L 759,1618 L 760,1618 L 760,1617 L 760,1618 L 761,1618 L 762,1618 " /></g>
</svg>
