<?xml version="1.0" standalone="no"?><!DOCTYPE svg PUBLIC "-//W3C//DTD SVG 1.1//EN" "http://www.w3.org/Graphics/SVG/1.1/DTD/svg11.dtd"><svg xmlns="http://www.w3.org/2000/svg" viewBox="-351 1312 238 372" version = "1.1">
<g id="50902" ><path d="M -308,1336 L -306,1333 L -304,1330 L -304,1328 L -303,1325 L -302,1325 L -302,1324 L -301,1324 L -301,1323 L -300,1323 L -300,1322 L -299,1322 L -298,1322 L -298,1321 L -297,1321 L -296,1321 L -296,1320 L -295,1320 L -295,1319 L -294,1319 L -294,1318 L -293,1318 L -293,1317 L -292,1317 L -291,1317 L -290,1317 L -289,1317 L -288,1317 L -288,1316 L -287,1316 L -286,1315 L -286,1314 L -285,1314 L -285,1313 L -284,1313 L -284,1312 L -281,1313 L -266,1314 L -262,1315 L -254,1314 L -251,1313 L -250,1313 L -245,1312 L -245,1313 L -245,1314 L -244,1314 L -244,1315 L -243,1315 L -243,1316 L -242,1317 L -241,1318 L -240,1318 L -239,1319 L -239,1320 L -239,1321 L -238,1321 L -237,1322 L -236,1323 L -235,1323 L -235,1324 L -234,1324 L -233,1324 L -232,1324 L -231,1324 L -231,1323 L -230,1323 L -229,1323 L -228,1323 L -228,1324 L -227,1324 L -226,1324 L -224,1325 L -221,1326 L -221,1327 L -220,1327 L -220,1326 L -219,1327 L -218,1327 L -217,1327 L -217,1328 L -216,1328 L -215,1328 L -215,1329 L -214,1329 L -213,1329 L -213,1330 L -212,1330 L -212,1331 L -211,1331 L -211,1332 L -210,1332 L -210,1333 L -209,1333 L -208,1333 L -201,1336 L -197,1339 L -157,1362 L -147,1382 L -120,1413 L -117,1461 L -117,1464 L -116,1468 L -117,1471 L -117,1472 L -116,1477 L -115,1477 L -115,1478 L -116,1478 L -116,1479 L -116,1480 L -115,1480 L -115,1481 L -115,1482 L -114,1485 L -114,1486 L -113,1486 L -113,1487 L -115,1491 L -122,1493 L -138,1497 L -148,1503 L -161,1516 L -164,1518 L -164,1519 L -165,1519 L -165,1520 L -165,1521 L -166,1521 L -166,1522 L -166,1523 L -167,1523 L -167,1524 L -166,1525 L -167,1525 L -167,1526 L -167,1527 L -167,1528 L -167,1529 L -167,1530 L -166,1530 L -166,1531 L -166,1532 L -166,1533 L -166,1534 L -166,1535 L -166,1536 L -151,1549 L -150,1555 L -149,1560 L -150,1578 L -150,1579 L -149,1591 L -149,1592 L -150,1592 L -150,1593 L -150,1594 L -151,1594 L -151,1595 L -151,1596 L -152,1596 L -152,1597 L -152,1598 L -153,1598 L -153,1599 L -153,1600 L -154,1600 L -154,1601 L -155,1601 L -155,1602 L -156,1602 L -156,1603 L -157,1603 L -157,1604 L -157,1605 L -158,1605 L -158,1606 L -158,1607 L -157,1607 L -157,1608 L -158,1608 L -158,1609 L -158,1610 L -158,1611 L -158,1612 L -159,1613 L -159,1614 L -160,1614 L -160,1615 L -160,1616 L -161,1616 L -161,1617 L -161,1618 L -161,1619 L -161,1620 L -161,1621 L -161,1622 L -161,1623 L -161,1624 L -161,1625 L -161,1626 L -161,1627 L -161,1628 L -161,1629 L -161,1630 L -162,1630 L -162,1631 L -163,1631 L -163,1632 L -163,1633 L -163,1634 L -164,1634 L -164,1635 L -164,1636 L -164,1637 L -164,1638 L -165,1638 L -165,1639 L -165,1640 L -166,1640 L -166,1641 L -167,1642 L -167,1643 L -166,1644 L -166,1645 L -167,1646 L -167,1647 L -168,1648 L -168,1649 L -169,1649 L -170,1650 L -171,1650 L -172,1650 L -173,1650 L -173,1651 L -174,1651 L -175,1652 L -176,1652 L -177,1652 L -178,1652 L -178,1653 L -178,1654 L -178,1655 L -178,1656 L -178,1657 L -178,1658 L -177,1658 L -177,1659 L -177,1660 L -178,1660 L -178,1661 L -178,1662 L -178,1663 L -179,1663 L -179,1664 L -180,1664 L -180,1665 L -181,1665 L -182,1666 L -182,1667 L -183,1668 L -183,1669 L -183,1670 L -183,1671 L -183,1672 L -184,1672 L -184,1673 L -184,1674 L -185,1674 L -185,1675 L -188,1677 L -190,1679 L -194,1681 L -200,1684 L -202,1681 L -205,1678 L -207,1677 L -221,1659 L -221,1640 L -221,1583 L -220,1562 L -220,1558 L -237,1528 L -238,1527 L -249,1507 L -259,1489 L -269,1476 L -276,1465 L -282,1457 L -300,1436 L -302,1436 L -304,1437 L -307,1438 L -308,1438 L -310,1438 L -313,1438 L -315,1438 L -317,1438 L -321,1436 L -323,1438 L -329,1437 L -338,1428 L -343,1424 L -351,1421 L -346,1411 L -345,1406 L -344,1402 L -344,1399 L -344,1396 L -342,1389 L -343,1379 L -346,1372 L -347,1368 L -346,1366 L -345,1365 L -343,1364 L -339,1363 L -338,1361 L -337,1354 L -333,1350 L -329,1347 L -329,1345 L -322,1344 L -317,1341 L -312,1338 L -308,1337 L -308,1336 " /></g>
</svg>
