<?xml version="1.0" standalone="no"?><!DOCTYPE svg PUBLIC "-//W3C//DTD SVG 1.1//EN" "http://www.w3.org/Graphics/SVG/1.1/DTD/svg11.dtd"><svg xmlns="http://www.w3.org/2000/svg" viewBox="-200 1021 620 776" version = "1.1">
<g id="50901" ><path d="M 195,1256 L 200,1261 L 218,1276 L 218,1277 L 218,1279 L 219,1282 L 219,1284 L 219,1285 L 220,1286 L 220,1287 L 220,1288 L 220,1289 L 221,1289 L 221,1290 L 222,1290 L 222,1291 L 222,1292 L 223,1292 L 223,1293 L 224,1293 L 224,1294 L 224,1295 L 225,1295 L 225,1296 L 226,1296 L 226,1297 L 227,1297 L 228,1298 L 229,1300 L 231,1302 L 232,1303 L 233,1305 L 234,1306 L 240,1313 L 240,1314 L 258,1376 L 266,1385 L 279,1411 L 289,1420 L 304,1425 L 319,1443 L 347,1440 L 347,1455 L 358,1458 L 359,1458 L 361,1459 L 362,1460 L 362,1462 L 364,1465 L 374,1474 L 375,1476 L 377,1482 L 380,1486 L 381,1490 L 383,1493 L 385,1497 L 386,1498 L 387,1500 L 386,1502 L 386,1503 L 387,1506 L 389,1508 L 390,1510 L 391,1513 L 392,1514 L 393,1515 L 395,1517 L 396,1518 L 397,1519 L 397,1520 L 397,1521 L 397,1523 L 397,1524 L 397,1525 L 396,1525 L 395,1525 L 395,1526 L 394,1526 L 394,1527 L 394,1528 L 394,1529 L 393,1529 L 392,1529 L 391,1530 L 390,1530 L 390,1531 L 389,1531 L 389,1532 L 390,1532 L 390,1533 L 391,1534 L 391,1535 L 390,1535 L 390,1537 L 392,1541 L 392,1544 L 394,1546 L 395,1548 L 397,1549 L 399,1551 L 403,1553 L 404,1555 L 409,1557 L 417,1560 L 417,1561 L 417,1569 L 418,1573 L 416,1578 L 419,1582 L 417,1588 L 417,1592 L 419,1596 L 420,1599 L 408,1593 L 407,1593 L 406,1593 L 406,1592 L 405,1592 L 405,1591 L 404,1591 L 404,1590 L 403,1590 L 403,1589 L 402,1589 L 402,1588 L 401,1588 L 400,1588 L 399,1588 L 399,1587 L 398,1587 L 397,1587 L 396,1587 L 396,1586 L 395,1586 L 394,1585 L 393,1585 L 392,1585 L 391,1585 L 390,1585 L 390,1584 L 389,1584 L 388,1584 L 387,1584 L 387,1585 L 386,1585 L 385,1585 L 384,1585 L 383,1586 L 383,1585 L 382,1585 L 382,1584 L 381,1584 L 381,1585 L 380,1584 L 380,1585 L 379,1585 L 379,1584 L 378,1584 L 377,1584 L 376,1584 L 375,1584 L 375,1583 L 375,1584 L 375,1583 L 374,1583 L 373,1583 L 372,1583 L 371,1583 L 370,1583 L 369,1583 L 369,1584 L 368,1584 L 367,1584 L 366,1584 L 366,1583 L 365,1583 L 364,1583 L 363,1584 L 362,1583 L 361,1584 L 361,1583 L 360,1583 L 359,1583 L 359,1582 L 358,1582 L 358,1581 L 357,1581 L 357,1580 L 356,1580 L 356,1579 L 355,1579 L 355,1578 L 353,1578 L 352,1577 L 351,1577 L 350,1578 L 350,1577 L 349,1577 L 349,1576 L 348,1575 L 347,1575 L 347,1574 L 346,1574 L 346,1573 L 345,1573 L 344,1573 L 344,1572 L 343,1572 L 343,1571 L 343,1570 L 342,1570 L 342,1569 L 341,1569 L 341,1568 L 340,1568 L 340,1567 L 339,1567 L 339,1566 L 338,1566 L 338,1565 L 337,1565 L 336,1565 L 336,1564 L 336,1563 L 335,1563 L 334,1563 L 334,1562 L 333,1562 L 332,1562 L 331,1562 L 331,1561 L 330,1561 L 329,1561 L 329,1560 L 328,1560 L 328,1559 L 327,1559 L 326,1559 L 325,1559 L 324,1559 L 323,1559 L 322,1559 L 321,1559 L 321,1558 L 320,1558 L 319,1558 L 319,1557 L 318,1557 L 317,1557 L 316,1557 L 316,1556 L 315,1556 L 314,1556 L 313,1556 L 312,1556 L 311,1556 L 310,1556 L 310,1557 L 309,1557 L 309,1558 L 308,1558 L 307,1558 L 306,1558 L 306,1559 L 305,1560 L 305,1561 L 305,1562 L 304,1562 L 304,1563 L 303,1564 L 302,1564 L 301,1564 L 300,1564 L 299,1565 L 298,1565 L 297,1565 L 296,1565 L 295,1565 L 295,1566 L 294,1566 L 293,1566 L 292,1566 L 291,1567 L 290,1567 L 290,1568 L 289,1569 L 288,1569 L 287,1570 L 286,1570 L 285,1571 L 285,1572 L 284,1572 L 284,1573 L 283,1573 L 282,1573 L 282,1574 L 281,1574 L 281,1575 L 280,1575 L 279,1575 L 278,1574 L 277,1574 L 276,1574 L 275,1575 L 274,1574 L 273,1574 L 272,1574 L 271,1574 L 271,1573 L 270,1573 L 270,1572 L 270,1571 L 269,1571 L 268,1570 L 267,1570 L 266,1571 L 265,1571 L 264,1571 L 264,1572 L 263,1572 L 262,1572 L 261,1572 L 260,1572 L 259,1572 L 258,1572 L 257,1572 L 257,1573 L 256,1573 L 255,1573 L 254,1573 L 249,1581 L 245,1585 L 238,1601 L 236,1608 L 230,1626 L 226,1628 L 226,1631 L 216,1635 L 205,1647 L 202,1659 L 193,1664 L 166,1692 L 132,1657 L 92,1629 L 87,1627 L 58,1616 L 52,1611 L 47,1602 L 19,1570 L 17,1564 L 12,1546 L 0,1528 L -3,1520 L -3,1508 L -9,1498 L -14,1489 L -20,1485 L -35,1494 L -56,1484 L -65,1490 L -73,1503 L -66,1544 L -65,1547 L -58,1575 L -30,1630 L -17,1636 L -15,1637 L 3,1657 L 13,1667 L 25,1681 L 32,1686 L 38,1688 L 43,1689 L 49,1698 L 50,1700 L 81,1720 L 111,1734 L 122,1736 L 141,1742 L 146,1744 L 153,1746 L 154,1746 L 155,1747 L 156,1748 L 157,1749 L 158,1749 L 158,1750 L 159,1750 L 159,1751 L 160,1751 L 160,1752 L 161,1753 L 161,1754 L 161,1755 L 161,1756 L 162,1757 L 162,1758 L 161,1758 L 161,1759 L 162,1760 L 162,1761 L 162,1762 L 163,1763 L 164,1764 L 165,1767 L 164,1780 L 157,1784 L 123,1794 L 109,1794 L 101,1795 L 93,1793 L 60,1797 L 27,1786 L -14,1786 L -34,1776 L -84,1775 L -99,1780 L -135,1778 L -184,1779 L -181,1742 L -180,1717 L -194,1697 L -200,1684 L -194,1681 L -190,1679 L -188,1677 L -185,1675 L -185,1674 L -184,1674 L -184,1673 L -184,1672 L -183,1672 L -183,1671 L -183,1670 L -183,1669 L -183,1668 L -182,1667 L -182,1666 L -181,1665 L -180,1665 L -180,1664 L -179,1664 L -179,1663 L -178,1663 L -178,1662 L -178,1661 L -178,1660 L -177,1660 L -177,1659 L -177,1658 L -178,1658 L -178,1657 L -178,1656 L -178,1655 L -178,1654 L -178,1653 L -178,1652 L -177,1652 L -176,1652 L -175,1652 L -174,1651 L -173,1651 L -173,1650 L -172,1650 L -171,1650 L -170,1650 L -169,1649 L -168,1649 L -168,1648 L -167,1647 L -167,1646 L -166,1645 L -166,1644 L -167,1643 L -167,1642 L -166,1641 L -166,1640 L -165,1640 L -165,1639 L -165,1638 L -164,1638 L -164,1637 L -164,1636 L -164,1635 L -164,1634 L -163,1634 L -163,1633 L -163,1632 L -163,1631 L -162,1631 L -162,1630 L -161,1630 L -161,1629 L -161,1628 L -161,1627 L -161,1626 L -161,1625 L -161,1624 L -161,1623 L -161,1622 L -161,1621 L -161,1620 L -161,1619 L -161,1618 L -161,1617 L -161,1616 L -160,1616 L -160,1615 L -160,1614 L -159,1614 L -159,1613 L -158,1612 L -158,1611 L -158,1610 L -158,1609 L -158,1608 L -157,1608 L -157,1607 L -158,1607 L -158,1606 L -158,1605 L -157,1605 L -157,1604 L -157,1603 L -156,1603 L -156,1602 L -155,1602 L -155,1601 L -154,1601 L -154,1600 L -153,1600 L -153,1599 L -153,1598 L -152,1598 L -152,1597 L -152,1596 L -151,1596 L -151,1595 L -151,1594 L -150,1594 L -150,1593 L -150,1592 L -149,1592 L -149,1591 L -150,1579 L -150,1578 L -149,1560 L -150,1555 L -151,1549 L -166,1536 L -166,1535 L -166,1534 L -166,1533 L -166,1532 L -166,1531 L -166,1530 L -167,1530 L -167,1529 L -167,1528 L -167,1527 L -167,1526 L -167,1525 L -166,1525 L -167,1524 L -167,1523 L -166,1523 L -166,1522 L -166,1521 L -165,1521 L -165,1520 L -165,1519 L -164,1519 L -164,1518 L -161,1516 L -148,1503 L -138,1497 L -122,1493 L -115,1491 L -113,1487 L -113,1486 L -114,1486 L -114,1485 L -115,1482 L -115,1481 L -115,1480 L -116,1480 L -116,1479 L -116,1478 L -115,1478 L -115,1477 L -116,1477 L -117,1472 L -117,1471 L -116,1468 L -117,1464 L -117,1461 L -120,1413 L -147,1382 L -157,1362 L -113,1293 L -16,1082 L -15,1082 L -15,1081 L -15,1080 L -14,1080 L -14,1079 L -14,1078 L -14,1077 L -13,1077 L -13,1076 L -12,1075 L -12,1076 L -12,1075 L -11,1075 L -10,1075 L -9,1075 L -8,1075 L -7,1075 L -7,1074 L -6,1074 L -6,1073 L -6,1072 L -6,1071 L -5,1071 L -4,1071 L -4,1070 L -3,1070 L -2,1070 L -2,1069 L -2,1068 L -3,1068 L -3,1067 L -3,1066 L -2,1066 L -2,1065 L -1,1065 L -1,1066 L -1,1065 L 0,1065 L 0,1064 L 0,1063 L 0,1064 L 0,1065 L -1,1065 L -2,1065 L -3,1064 L -3,1063 L -2,1063 L -3,1063 L -4,1063 L -4,1062 L -5,1062 L -5,1061 L -6,1061 L -6,1060 L -7,1060 L -7,1059 L -7,1058 L -7,1057 L -8,1057 L -8,1056 L -8,1055 L -8,1054 L -7,1054 L -7,1053 L -6,1053 L -6,1052 L -5,1052 L -5,1051 L -4,1051 L -4,1050 L -5,1050 L -5,1049 L -5,1048 L -5,1047 L -5,1048 L -6,1048 L -6,1049 L -7,1049 L -7,1048 L -8,1048 L -8,1047 L -9,1047 L -9,1048 L -8,1048 L -8,1049 L -8,1048 L -9,1048 L -9,1049 L -9,1048 L -10,1048 L -11,1048 L -11,1047 L -11,1048 L -11,1049 L -11,1048 L -12,1048 L -12,1047 L -13,1046 L -12,1046 L -13,1046 L -14,1046 L -14,1045 L -13,1045 L -13,1046 L -13,1045 L -12,1045 L -12,1044 L -12,1043 L -13,1043 L -13,1042 L -13,1043 L -14,1043 L -14,1042 L -15,1042 L -15,1041 L -15,1040 L -15,1039 L -15,1038 L -16,1037 L -15,1037 L -15,1036 L -15,1035 L -16,1035 L -16,1034 L -16,1033 L -16,1032 L -16,1031 L -16,1030 L -17,1029 L -16,1029 L -16,1028 L -15,1027 L -14,1026 L -14,1025 L -13,1025 L -12,1025 L -11,1025 L -10,1025 L -9,1025 L -9,1024 L -8,1024 L -7,1024 L -6,1025 L -6,1024 L -6,1025 L -5,1025 L -4,1025 L -3,1025 L -2,1025 L -1,1025 L 0,1025 L 1,1025 L 2,1024 L 3,1024 L 4,1024 L 5,1024 L 6,1024 L 7,1024 L 7,1023 L 8,1023 L 9,1022 L 10,1022 L 11,1022 L 12,1021 L 13,1021 L 14,1021 L 15,1021 L 16,1021 L 17,1021 L 18,1021 L 19,1021 L 20,1021 L 21,1022 L 22,1022 L 23,1022 L 24,1022 L 25,1023 L 26,1023 L 27,1023 L 28,1024 L 29,1024 L 30,1024 L 31,1024 L 32,1024 L 33,1024 L 34,1025 L 35,1025 L 36,1025 L 37,1025 L 38,1025 L 39,1025 L 40,1025 L 41,1025 L 42,1025 L 43,1024 L 44,1024 L 45,1024 L 47,1024 L 48,1024 L 49,1025 L 50,1025 L 51,1025 L 52,1025 L 53,1026 L 54,1026 L 55,1026 L 56,1027 L 57,1027 L 58,1027 L 59,1028 L 60,1029 L 61,1029 L 61,1030 L 62,1030 L 62,1031 L 63,1032 L 64,1032 L 64,1033 L 65,1033 L 65,1034 L 66,1034 L 67,1035 L 68,1034 L 69,1035 L 70,1036 L 71,1036 L 72,1036 L 73,1036 L 73,1037 L 73,1038 L 74,1038 L 75,1038 L 75,1039 L 76,1039 L 77,1040 L 77,1041 L 77,1042 L 78,1042 L 78,1041 L 79,1041 L 79,1042 L 80,1042 L 81,1043 L 81,1044 L 81,1045 L 81,1046 L 82,1046 L 83,1046 L 84,1046 L 85,1046 L 86,1046 L 86,1047 L 87,1047 L 88,1048 L 89,1048 L 90,1049 L 91,1049 L 92,1049 L 92,1050 L 93,1050 L 94,1051 L 95,1052 L 96,1053 L 97,1054 L 98,1055 L 98,1056 L 99,1057 L 99,1058 L 99,1059 L 99,1060 L 99,1061 L 100,1062 L 100,1063 L 101,1064 L 100,1066 L 100,1067 L 100,1068 L 100,1069 L 100,1070 L 101,1071 L 102,1071 L 102,1072 L 103,1073 L 104,1073 L 105,1073 L 106,1074 L 107,1074 L 108,1075 L 108,1076 L 109,1076 L 109,1077 L 109,1078 L 109,1079 L 110,1080 L 109,1080 L 109,1081 L 110,1081 L 110,1082 L 110,1083 L 110,1084 L 111,1084 L 111,1085 L 111,1086 L 112,1087 L 112,1088 L 113,1088 L 113,1089 L 113,1090 L 113,1091 L 113,1092 L 113,1093 L 114,1093 L 114,1094 L 115,1094 L 114,1095 L 115,1096 L 115,1097 L 116,1097 L 116,1098 L 116,1099 L 115,1100 L 116,1100 L 116,1101 L 115,1101 L 115,1102 L 115,1103 L 116,1103 L 116,1104 L 115,1104 L 115,1105 L 114,1105 L 114,1106 L 115,1106 L 115,1107 L 115,1108 L 115,1109 L 114,1109 L 113,1109 L 113,1110 L 112,1110 L 112,1111 L 113,1111 L 114,1111 L 114,1112 L 113,1112 L 112,1112 L 113,1112 L 114,1112 L 114,1113 L 115,1113 L 115,1114 L 114,1114 L 114,1115 L 113,1115 L 113,1116 L 112,1116 L 112,1117 L 113,1117 L 113,1116 L 114,1116 L 114,1115 L 115,1115 L 115,1116 L 114,1116 L 114,1117 L 113,1118 L 113,1119 L 112,1119 L 111,1119 L 110,1119 L 110,1120 L 111,1120 L 111,1121 L 112,1121 L 112,1122 L 113,1123 L 113,1122 L 114,1122 L 114,1121 L 115,1121 L 116,1121 L 117,1120 L 118,1120 L 119,1120 L 119,1119 L 120,1119 L 120,1120 L 121,1120 L 121,1121 L 121,1122 L 121,1123 L 122,1123 L 121,1124 L 122,1124 L 123,1125 L 123,1126 L 123,1127 L 123,1128 L 122,1128 L 122,1129 L 123,1129 L 123,1130 L 123,1131 L 124,1132 L 124,1133 L 124,1134 L 125,1134 L 126,1134 L 126,1135 L 127,1136 L 127,1137 L 127,1138 L 128,1138 L 127,1139 L 126,1140 L 125,1141 L 125,1142 L 124,1142 L 124,1143 L 124,1144 L 123,1145 L 123,1146 L 123,1147 L 122,1148 L 122,1149 L 122,1150 L 121,1151 L 121,1152 L 121,1153 L 121,1154 L 121,1155 L 121,1156 L 120,1157 L 120,1158 L 120,1159 L 119,1160 L 119,1161 L 118,1163 L 118,1164 L 118,1165 L 119,1166 L 119,1167 L 120,1168 L 120,1169 L 121,1170 L 121,1171 L 122,1172 L 122,1173 L 123,1174 L 125,1175 L 126,1176 L 127,1177 L 128,1178 L 128,1179 L 129,1179 L 130,1180 L 131,1180 L 132,1181 L 133,1181 L 133,1182 L 134,1182 L 134,1183 L 135,1183 L 136,1183 L 136,1184 L 136,1185 L 137,1186 L 138,1187 L 139,1187 L 139,1188 L 139,1189 L 140,1189 L 141,1190 L 141,1191 L 142,1191 L 143,1192 L 144,1192 L 144,1193 L 145,1193 L 146,1194 L 147,1194 L 148,1195 L 149,1195 L 150,1195 L 151,1196 L 152,1196 L 153,1196 L 154,1196 L 155,1196 L 156,1196 L 157,1196 L 158,1197 L 159,1197 L 160,1197 L 161,1197 L 162,1197 L 163,1197 L 164,1197 L 164,1198 L 165,1198 L 166,1199 L 167,1199 L 167,1200 L 168,1200 L 169,1201 L 169,1202 L 170,1203 L 170,1204 L 171,1205 L 171,1206 L 171,1207 L 171,1208 L 171,1209 L 171,1210 L 171,1211 L 172,1212 L 172,1213 L 173,1213 L 173,1214 L 174,1215 L 174,1216 L 175,1217 L 175,1218 L 177,1218 L 177,1219 L 178,1220 L 178,1221 L 179,1223 L 180,1224 L 181,1225 L 182,1226 L 182,1227 L 183,1228 L 184,1229 L 185,1230 L 185,1231 L 186,1231 L 187,1232 L 188,1232 L 189,1233 L 191,1234 L 192,1235 L 194,1237 L 195,1238 L 197,1239 L 199,1240 L 200,1242 L 201,1243 L 201,1244 L 202,1246 L 202,1248 L 203,1249 L 204,1250 L 204,1251 L 204,1252 L 205,1252 L 204,1253 L 203,1254 L 203,1253 L 203,1254 L 202,1254 L 201,1254 L 200,1254 L 199,1254 L 198,1254 L 198,1255 L 197,1255 L 196,1255 L 195,1255 L 195,1256 " /></g>
</svg>
