<?xml version="1.0" standalone="no"?><!DOCTYPE svg PUBLIC "-//W3C//DTD SVG 1.1//EN" "http://www.w3.org/Graphics/SVG/1.1/DTD/svg11.dtd"><svg xmlns="http://www.w3.org/2000/svg" viewBox="-184 1556 604 540" version = "1.1">
<g id="51001" ><path d="M 314,1556 L 315,1556 L 316,1556 L 316,1557 L 317,1557 L 318,1557 L 319,1557 L 319,1558 L 320,1558 L 321,1558 L 321,1559 L 322,1559 L 323,1559 L 324,1559 L 325,1559 L 326,1559 L 327,1559 L 328,1559 L 328,1560 L 329,1560 L 329,1561 L 330,1561 L 331,1561 L 331,1562 L 332,1562 L 333,1562 L 334,1562 L 334,1563 L 335,1563 L 336,1563 L 336,1564 L 336,1565 L 337,1565 L 338,1565 L 338,1566 L 339,1566 L 339,1567 L 340,1567 L 340,1568 L 341,1568 L 341,1569 L 342,1569 L 342,1570 L 343,1570 L 343,1571 L 343,1572 L 344,1572 L 344,1573 L 345,1573 L 346,1573 L 346,1574 L 347,1574 L 347,1575 L 348,1575 L 349,1576 L 349,1577 L 350,1577 L 350,1578 L 351,1577 L 352,1577 L 353,1578 L 355,1578 L 355,1579 L 356,1579 L 356,1580 L 357,1580 L 357,1581 L 358,1581 L 358,1582 L 359,1582 L 359,1583 L 360,1583 L 361,1583 L 361,1584 L 362,1583 L 363,1584 L 364,1583 L 365,1583 L 366,1583 L 366,1584 L 367,1584 L 368,1584 L 369,1584 L 369,1583 L 370,1583 L 371,1583 L 372,1583 L 373,1583 L 374,1583 L 375,1583 L 375,1584 L 375,1583 L 375,1584 L 376,1584 L 377,1584 L 378,1584 L 379,1584 L 379,1585 L 380,1585 L 380,1584 L 381,1585 L 381,1584 L 382,1584 L 382,1585 L 383,1585 L 383,1586 L 384,1585 L 385,1585 L 386,1585 L 387,1585 L 387,1584 L 388,1584 L 389,1584 L 390,1584 L 390,1585 L 391,1585 L 392,1585 L 393,1585 L 394,1585 L 395,1586 L 396,1586 L 396,1587 L 397,1587 L 398,1587 L 399,1587 L 399,1588 L 400,1588 L 401,1588 L 402,1588 L 402,1589 L 403,1589 L 403,1590 L 404,1590 L 404,1591 L 405,1591 L 405,1592 L 406,1592 L 406,1593 L 407,1593 L 408,1593 L 420,1599 L 419,1600 L 419,1601 L 418,1602 L 417,1602 L 416,1602 L 415,1602 L 414,1602 L 413,1603 L 412,1603 L 412,1604 L 412,1605 L 412,1606 L 412,1607 L 413,1607 L 413,1608 L 413,1609 L 414,1609 L 414,1610 L 415,1610 L 415,1611 L 415,1612 L 415,1613 L 415,1614 L 416,1614 L 416,1615 L 416,1616 L 417,1616 L 417,1617 L 418,1618 L 418,1619 L 419,1619 L 419,1620 L 419,1621 L 420,1621 L 420,1622 L 419,1622 L 418,1623 L 418,1624 L 417,1625 L 418,1625 L 417,1626 L 418,1627 L 418,1628 L 419,1628 L 419,1629 L 419,1630 L 419,1631 L 419,1632 L 419,1633 L 419,1634 L 418,1634 L 419,1634 L 419,1635 L 419,1636 L 419,1637 L 419,1638 L 419,1639 L 419,1640 L 419,1641 L 419,1642 L 420,1642 L 420,1643 L 420,1644 L 420,1645 L 420,1646 L 420,1647 L 420,1648 L 419,1648 L 419,1649 L 420,1649 L 420,1650 L 420,1651 L 419,1651 L 418,1651 L 418,1652 L 418,1653 L 417,1653 L 417,1654 L 417,1655 L 416,1659 L 411,1661 L 407,1664 L 405,1672 L 399,1678 L 397,1678 L 396,1683 L 396,1684 L 396,1685 L 395,1686 L 395,1687 L 395,1688 L 394,1688 L 394,1689 L 394,1690 L 394,1691 L 393,1692 L 393,1693 L 394,1694 L 394,1695 L 394,1696 L 395,1696 L 395,1697 L 396,1698 L 396,1699 L 397,1700 L 398,1701 L 398,1702 L 398,1703 L 398,1704 L 399,1705 L 399,1706 L 399,1707 L 398,1707 L 398,1708 L 398,1709 L 398,1710 L 399,1710 L 399,1711 L 400,1711 L 400,1712 L 401,1713 L 400,1713 L 399,1713 L 398,1713 L 398,1714 L 398,1713 L 398,1714 L 397,1714 L 397,1713 L 396,1713 L 396,1712 L 396,1711 L 396,1710 L 395,1710 L 394,1710 L 394,1709 L 394,1708 L 393,1708 L 392,1708 L 392,1707 L 391,1707 L 391,1706 L 390,1706 L 390,1705 L 390,1704 L 389,1704 L 389,1703 L 389,1702 L 389,1701 L 388,1701 L 388,1700 L 387,1700 L 386,1700 L 386,1699 L 385,1699 L 386,1699 L 385,1699 L 385,1698 L 385,1697 L 384,1697 L 384,1696 L 383,1696 L 383,1695 L 382,1695 L 382,1694 L 381,1694 L 381,1693 L 380,1693 L 379,1693 L 378,1693 L 378,1692 L 377,1692 L 376,1692 L 376,1691 L 375,1691 L 375,1690 L 374,1690 L 374,1689 L 373,1689 L 372,1689 L 371,1689 L 370,1689 L 370,1690 L 369,1690 L 368,1690 L 367,1690 L 367,1691 L 366,1691 L 366,1690 L 365,1690 L 365,1691 L 364,1691 L 363,1691 L 362,1691 L 360,1693 L 359,1696 L 359,1697 L 359,1698 L 360,1700 L 360,1701 L 359,1702 L 358,1704 L 349,1709 L 348,1709 L 344,1710 L 343,1709 L 342,1709 L 341,1709 L 340,1708 L 339,1708 L 338,1708 L 338,1707 L 337,1708 L 336,1707 L 335,1708 L 335,1709 L 333,1710 L 332,1711 L 331,1712 L 329,1713 L 327,1714 L 325,1714 L 323,1713 L 322,1713 L 321,1714 L 319,1714 L 316,1714 L 315,1714 L 312,1716 L 310,1716 L 307,1716 L 306,1715 L 305,1715 L 305,1716 L 304,1718 L 303,1719 L 301,1721 L 300,1721 L 298,1721 L 296,1721 L 295,1721 L 294,1721 L 294,1722 L 292,1723 L 291,1723 L 291,1724 L 289,1725 L 287,1726 L 288,1730 L 288,1733 L 291,1736 L 291,1737 L 293,1740 L 294,1741 L 296,1743 L 296,1745 L 293,1745 L 292,1746 L 291,1747 L 290,1749 L 290,1750 L 290,1752 L 289,1753 L 288,1755 L 287,1757 L 285,1758 L 283,1760 L 283,1761 L 282,1761 L 281,1761 L 281,1762 L 280,1762 L 280,1763 L 280,1764 L 279,1764 L 279,1765 L 278,1765 L 277,1765 L 277,1766 L 276,1766 L 276,1767 L 275,1767 L 275,1768 L 276,1768 L 276,1769 L 276,1770 L 276,1771 L 277,1771 L 277,1772 L 277,1773 L 277,1774 L 276,1774 L 275,1774 L 275,1775 L 274,1775 L 273,1775 L 272,1775 L 272,1776 L 271,1776 L 271,1777 L 270,1777 L 269,1777 L 269,1778 L 268,1779 L 267,1779 L 267,1780 L 266,1780 L 265,1780 L 264,1780 L 263,1780 L 262,1781 L 261,1781 L 260,1781 L 260,1780 L 259,1780 L 259,1781 L 258,1781 L 257,1781 L 256,1781 L 256,1782 L 255,1782 L 255,1783 L 254,1783 L 253,1783 L 253,1784 L 252,1785 L 251,1785 L 251,1786 L 251,1787 L 250,1787 L 250,1788 L 249,1789 L 249,1790 L 248,1791 L 248,1792 L 248,1793 L 248,1794 L 248,1795 L 248,1796 L 248,1797 L 248,1798 L 247,1799 L 246,1803 L 243,1810 L 240,1813 L 215,1828 L 204,1838 L 203,1838 L 203,1839 L 203,1840 L 200,1846 L 199,1849 L 197,1853 L 194,1860 L 191,1863 L 179,1880 L 176,1893 L 179,1895 L 181,1899 L 189,1904 L 192,1918 L 199,1928 L 201,1930 L 201,1931 L 202,1931 L 203,1931 L 203,1932 L 204,1932 L 205,1932 L 205,1933 L 206,1933 L 206,1934 L 207,1934 L 208,1936 L 212,1941 L 214,1946 L 216,1948 L 218,1950 L 198,1957 L 183,1973 L 165,1973 L 167,1993 L 170,2012 L 131,2034 L 114,2065 L 90,2070 L 80,2073 L 72,2075 L 54,2078 L 27,2084 L -14,2093 L -22,2096 L -29,2095 L -77,2089 L -81,2088 L -93,2088 L -104,2077 L -106,2076 L -121,2072 L -120,2060 L -124,2033 L -123,2028 L -122,2023 L -116,2024 L -116,2020 L -117,2017 L -119,2015 L -111,1979 L -119,1964 L -122,1962 L -124,1959 L -124,1954 L -126,1934 L -134,1923 L -144,1903 L -140,1897 L -140,1890 L -135,1884 L -134,1877 L -134,1873 L -138,1861 L -141,1854 L -145,1851 L -146,1843 L -145,1842 L -140,1831 L -140,1828 L -145,1821 L -148,1818 L -149,1816 L -149,1810 L -155,1808 L -161,1805 L -163,1805 L -164,1803 L -165,1800 L -172,1795 L -174,1793 L -184,1785 L -184,1779 L -135,1778 L -99,1780 L -84,1775 L -34,1776 L -14,1786 L 27,1786 L 60,1797 L 93,1793 L 101,1795 L 109,1794 L 123,1794 L 157,1784 L 164,1780 L 165,1767 L 164,1764 L 163,1763 L 162,1762 L 162,1761 L 162,1760 L 161,1759 L 161,1758 L 162,1758 L 162,1757 L 161,1756 L 161,1755 L 161,1754 L 161,1753 L 160,1752 L 160,1751 L 159,1751 L 159,1750 L 158,1750 L 158,1749 L 157,1749 L 156,1748 L 155,1747 L 154,1746 L 153,1746 L 146,1744 L 141,1742 L 145,1737 L 160,1721 L 160,1716 L 166,1692 L 193,1664 L 202,1659 L 205,1647 L 216,1635 L 226,1631 L 226,1628 L 230,1626 L 236,1608 L 238,1601 L 245,1585 L 249,1581 L 254,1573 L 255,1573 L 256,1573 L 257,1573 L 257,1572 L 258,1572 L 259,1572 L 260,1572 L 261,1572 L 262,1572 L 263,1572 L 264,1572 L 264,1571 L 265,1571 L 266,1571 L 267,1570 L 268,1570 L 269,1571 L 270,1571 L 270,1572 L 270,1573 L 271,1573 L 271,1574 L 272,1574 L 273,1574 L 274,1574 L 275,1575 L 276,1574 L 277,1574 L 278,1574 L 279,1575 L 280,1575 L 281,1575 L 281,1574 L 282,1574 L 282,1573 L 283,1573 L 284,1573 L 284,1572 L 285,1572 L 285,1571 L 286,1570 L 287,1570 L 288,1569 L 289,1569 L 290,1568 L 290,1567 L 291,1567 L 292,1566 L 293,1566 L 294,1566 L 295,1566 L 295,1565 L 296,1565 L 297,1565 L 298,1565 L 299,1565 L 300,1564 L 301,1564 L 302,1564 L 303,1564 L 304,1563 L 304,1562 L 305,1562 L 305,1561 L 305,1560 L 306,1559 L 306,1558 L 307,1558 L 308,1558 L 309,1558 L 309,1557 L 310,1557 L 310,1556 L 311,1556 L 312,1556 L 313,1556 L 314,1556 " /></g>
</svg>
