<?xml version="1.0" standalone="no"?><!DOCTYPE svg PUBLIC "-//W3C//DTD SVG 1.1//EN" "http://www.w3.org/Graphics/SVG/1.1/DTD/svg11.dtd"><svg xmlns="http://www.w3.org/2000/svg" viewBox="176 1707 243 243" version = "1.1">
<g id="51003" ><path d="M 348,1709 L 349,1711 L 350,1714 L 352,1717 L 351,1721 L 351,1723 L 350,1724 L 349,1725 L 349,1726 L 349,1728 L 350,1729 L 351,1731 L 353,1734 L 353,1735 L 354,1736 L 354,1737 L 354,1738 L 355,1739 L 356,1740 L 357,1740 L 357,1739 L 358,1739 L 359,1739 L 360,1739 L 360,1740 L 360,1739 L 361,1739 L 362,1739 L 363,1739 L 364,1739 L 365,1739 L 366,1739 L 366,1740 L 367,1740 L 368,1740 L 368,1741 L 369,1741 L 370,1741 L 370,1742 L 371,1742 L 372,1742 L 372,1743 L 373,1743 L 374,1743 L 375,1743 L 376,1743 L 376,1742 L 377,1742 L 378,1742 L 378,1741 L 379,1741 L 380,1741 L 381,1741 L 381,1740 L 382,1740 L 382,1741 L 383,1741 L 383,1742 L 384,1742 L 385,1742 L 386,1741 L 386,1742 L 386,1743 L 387,1743 L 387,1744 L 388,1744 L 388,1745 L 388,1746 L 387,1747 L 386,1747 L 386,1748 L 385,1748 L 384,1748 L 384,1749 L 383,1750 L 383,1751 L 382,1751 L 382,1752 L 381,1752 L 381,1753 L 381,1754 L 382,1754 L 382,1755 L 382,1756 L 383,1757 L 383,1758 L 384,1758 L 385,1758 L 385,1759 L 385,1760 L 386,1760 L 387,1760 L 388,1760 L 389,1761 L 390,1761 L 390,1762 L 391,1762 L 392,1762 L 393,1761 L 394,1762 L 394,1761 L 395,1761 L 396,1761 L 397,1761 L 398,1761 L 398,1762 L 399,1762 L 399,1763 L 400,1763 L 401,1763 L 402,1764 L 403,1764 L 403,1765 L 404,1765 L 405,1765 L 406,1765 L 407,1765 L 408,1766 L 409,1766 L 410,1766 L 410,1767 L 411,1767 L 411,1768 L 412,1768 L 412,1769 L 413,1770 L 414,1770 L 414,1771 L 415,1771 L 416,1771 L 416,1772 L 417,1772 L 417,1773 L 418,1773 L 418,1774 L 418,1775 L 418,1776 L 418,1777 L 418,1778 L 418,1779 L 418,1780 L 419,1780 L 418,1781 L 417,1781 L 417,1782 L 417,1783 L 417,1784 L 417,1785 L 416,1785 L 415,1785 L 415,1786 L 415,1787 L 415,1788 L 416,1789 L 416,1790 L 416,1791 L 416,1792 L 416,1793 L 416,1794 L 416,1795 L 416,1796 L 415,1796 L 415,1797 L 416,1798 L 417,1799 L 417,1800 L 416,1800 L 415,1800 L 415,1801 L 415,1802 L 414,1802 L 413,1802 L 412,1802 L 412,1803 L 412,1804 L 413,1805 L 414,1805 L 414,1806 L 413,1807 L 413,1808 L 412,1808 L 412,1809 L 413,1809 L 413,1808 L 414,1808 L 415,1808 L 415,1809 L 414,1809 L 414,1810 L 413,1811 L 413,1812 L 412,1812 L 411,1813 L 412,1813 L 412,1814 L 413,1814 L 414,1815 L 414,1814 L 414,1815 L 414,1816 L 413,1816 L 412,1817 L 413,1818 L 413,1819 L 413,1820 L 413,1821 L 412,1821 L 411,1822 L 410,1822 L 409,1822 L 408,1822 L 408,1823 L 407,1823 L 406,1823 L 406,1822 L 405,1823 L 405,1822 L 405,1821 L 404,1821 L 404,1822 L 404,1821 L 404,1820 L 403,1820 L 402,1820 L 402,1821 L 401,1821 L 401,1822 L 402,1822 L 402,1823 L 401,1823 L 401,1824 L 402,1824 L 401,1824 L 401,1825 L 401,1826 L 400,1826 L 400,1827 L 400,1828 L 400,1829 L 399,1829 L 399,1830 L 399,1831 L 399,1832 L 398,1832 L 397,1832 L 396,1832 L 396,1831 L 395,1831 L 395,1832 L 394,1832 L 393,1832 L 393,1833 L 394,1835 L 390,1836 L 370,1841 L 358,1844 L 350,1846 L 301,1858 L 296,1867 L 291,1864 L 280,1862 L 262,1872 L 257,1892 L 255,1901 L 254,1908 L 247,1927 L 247,1929 L 246,1932 L 246,1934 L 247,1937 L 247,1939 L 241,1942 L 218,1950 L 216,1948 L 214,1946 L 212,1941 L 208,1936 L 207,1934 L 206,1934 L 206,1933 L 205,1933 L 205,1932 L 204,1932 L 203,1932 L 203,1931 L 202,1931 L 201,1931 L 201,1930 L 199,1928 L 192,1918 L 189,1904 L 181,1899 L 179,1895 L 176,1893 L 179,1880 L 191,1863 L 194,1860 L 197,1853 L 199,1849 L 200,1846 L 203,1840 L 203,1839 L 203,1838 L 204,1838 L 215,1828 L 240,1813 L 243,1810 L 246,1803 L 247,1799 L 248,1798 L 248,1797 L 248,1796 L 248,1795 L 248,1794 L 248,1793 L 248,1792 L 248,1791 L 249,1790 L 249,1789 L 250,1788 L 250,1787 L 251,1787 L 251,1786 L 251,1785 L 252,1785 L 253,1784 L 253,1783 L 254,1783 L 255,1783 L 255,1782 L 256,1782 L 256,1781 L 257,1781 L 258,1781 L 259,1781 L 259,1780 L 260,1780 L 260,1781 L 261,1781 L 262,1781 L 263,1780 L 264,1780 L 265,1780 L 266,1780 L 267,1780 L 267,1779 L 268,1779 L 269,1778 L 269,1777 L 270,1777 L 271,1777 L 271,1776 L 272,1776 L 272,1775 L 273,1775 L 274,1775 L 275,1775 L 275,1774 L 276,1774 L 277,1774 L 277,1773 L 277,1772 L 277,1771 L 276,1771 L 276,1770 L 276,1769 L 276,1768 L 275,1768 L 275,1767 L 276,1767 L 276,1766 L 277,1766 L 277,1765 L 278,1765 L 279,1765 L 279,1764 L 280,1764 L 280,1763 L 280,1762 L 281,1762 L 281,1761 L 282,1761 L 283,1761 L 283,1760 L 285,1758 L 287,1757 L 288,1755 L 289,1753 L 290,1752 L 290,1750 L 290,1749 L 291,1747 L 292,1746 L 293,1745 L 296,1745 L 296,1743 L 294,1741 L 293,1740 L 291,1737 L 291,1736 L 288,1733 L 288,1730 L 287,1726 L 289,1725 L 291,1724 L 291,1723 L 292,1723 L 294,1722 L 294,1721 L 295,1721 L 296,1721 L 298,1721 L 300,1721 L 301,1721 L 303,1719 L 304,1718 L 305,1716 L 305,1715 L 306,1715 L 307,1716 L 310,1716 L 312,1716 L 315,1714 L 316,1714 L 319,1714 L 321,1714 L 322,1713 L 323,1713 L 325,1714 L 327,1714 L 329,1713 L 331,1712 L 332,1711 L 333,1710 L 335,1709 L 335,1708 L 336,1707 L 337,1708 L 338,1707 L 338,1708 L 339,1708 L 340,1708 L 341,1709 L 342,1709 L 343,1709 L 344,1710 L 348,1709 " /></g>
</svg>
