<?xml version="1.0" standalone="no"?><!DOCTYPE svg PUBLIC "-//W3C//DTD SVG 1.1//EN" "http://www.w3.org/Graphics/SVG/1.1/DTD/svg11.dtd"><svg xmlns="http://www.w3.org/2000/svg" viewBox="348 1689 88 84" version = "1.1">
<g id="51002" ><path d="M 372,1689 L 373,1689 L 374,1689 L 374,1690 L 375,1690 L 375,1691 L 376,1691 L 376,1692 L 377,1692 L 378,1692 L 378,1693 L 379,1693 L 380,1693 L 381,1693 L 381,1694 L 382,1694 L 382,1695 L 383,1695 L 383,1696 L 384,1696 L 384,1697 L 385,1697 L 385,1698 L 385,1699 L 386,1699 L 385,1699 L 386,1699 L 386,1700 L 387,1700 L 388,1700 L 388,1701 L 389,1701 L 389,1702 L 389,1703 L 389,1704 L 390,1704 L 390,1705 L 390,1706 L 391,1706 L 391,1707 L 392,1707 L 392,1708 L 393,1708 L 394,1708 L 394,1709 L 394,1710 L 395,1710 L 396,1710 L 396,1711 L 396,1712 L 396,1713 L 397,1713 L 397,1714 L 398,1714 L 398,1713 L 398,1714 L 398,1713 L 399,1713 L 400,1713 L 401,1713 L 402,1713 L 402,1712 L 403,1712 L 403,1713 L 404,1713 L 405,1713 L 405,1714 L 406,1714 L 407,1714 L 408,1714 L 409,1714 L 409,1715 L 409,1714 L 410,1714 L 411,1714 L 411,1715 L 412,1715 L 412,1714 L 413,1714 L 413,1715 L 414,1715 L 414,1716 L 414,1717 L 414,1718 L 415,1718 L 416,1717 L 417,1717 L 417,1716 L 417,1717 L 417,1716 L 418,1716 L 419,1716 L 419,1715 L 420,1715 L 420,1714 L 421,1714 L 421,1713 L 421,1712 L 422,1712 L 422,1711 L 422,1710 L 423,1710 L 423,1709 L 424,1709 L 424,1710 L 424,1709 L 424,1710 L 424,1709 L 424,1710 L 425,1710 L 426,1710 L 426,1709 L 427,1708 L 427,1707 L 428,1708 L 429,1708 L 430,1708 L 430,1709 L 430,1710 L 430,1711 L 431,1712 L 431,1713 L 432,1713 L 432,1714 L 433,1714 L 433,1715 L 433,1716 L 434,1716 L 434,1717 L 435,1718 L 436,1718 L 435,1719 L 435,1720 L 434,1721 L 433,1721 L 432,1721 L 431,1720 L 430,1720 L 430,1721 L 429,1721 L 429,1722 L 428,1723 L 429,1723 L 429,1724 L 429,1725 L 429,1726 L 430,1727 L 430,1728 L 430,1729 L 430,1730 L 430,1731 L 430,1732 L 430,1733 L 430,1734 L 429,1734 L 429,1735 L 429,1736 L 429,1737 L 430,1738 L 430,1739 L 430,1740 L 431,1741 L 431,1742 L 430,1743 L 429,1744 L 429,1745 L 429,1746 L 429,1747 L 429,1748 L 428,1748 L 428,1749 L 428,1750 L 427,1750 L 427,1751 L 427,1752 L 427,1753 L 427,1754 L 426,1754 L 426,1755 L 426,1756 L 426,1757 L 426,1758 L 425,1758 L 425,1759 L 424,1759 L 423,1759 L 423,1760 L 423,1761 L 423,1762 L 423,1763 L 423,1764 L 423,1765 L 422,1765 L 422,1766 L 422,1767 L 422,1768 L 421,1768 L 422,1769 L 422,1770 L 421,1770 L 420,1770 L 420,1771 L 420,1772 L 419,1772 L 419,1773 L 418,1773 L 417,1773 L 417,1772 L 416,1772 L 416,1771 L 415,1771 L 414,1771 L 414,1770 L 413,1770 L 412,1769 L 412,1768 L 411,1768 L 411,1767 L 410,1767 L 410,1766 L 409,1766 L 408,1766 L 407,1765 L 406,1765 L 405,1765 L 404,1765 L 403,1765 L 403,1764 L 402,1764 L 401,1763 L 400,1763 L 399,1763 L 399,1762 L 398,1762 L 398,1761 L 397,1761 L 396,1761 L 395,1761 L 394,1761 L 394,1762 L 393,1761 L 392,1762 L 391,1762 L 390,1762 L 390,1761 L 389,1761 L 388,1760 L 387,1760 L 386,1760 L 385,1760 L 385,1759 L 385,1758 L 384,1758 L 383,1758 L 383,1757 L 382,1756 L 382,1755 L 382,1754 L 381,1754 L 381,1753 L 381,1752 L 382,1752 L 382,1751 L 383,1751 L 383,1750 L 384,1749 L 384,1748 L 385,1748 L 386,1748 L 386,1747 L 387,1747 L 388,1746 L 388,1745 L 388,1744 L 387,1744 L 387,1743 L 386,1743 L 386,1742 L 386,1741 L 385,1742 L 384,1742 L 383,1742 L 383,1741 L 382,1741 L 382,1740 L 381,1740 L 381,1741 L 380,1741 L 379,1741 L 378,1741 L 378,1742 L 377,1742 L 376,1742 L 376,1743 L 375,1743 L 374,1743 L 373,1743 L 372,1743 L 372,1742 L 371,1742 L 370,1742 L 370,1741 L 369,1741 L 368,1741 L 368,1740 L 367,1740 L 366,1740 L 366,1739 L 365,1739 L 364,1739 L 363,1739 L 362,1739 L 361,1739 L 360,1739 L 360,1740 L 360,1739 L 359,1739 L 358,1739 L 357,1739 L 357,1740 L 356,1740 L 355,1739 L 354,1738 L 354,1737 L 354,1736 L 353,1735 L 353,1734 L 351,1731 L 350,1729 L 349,1728 L 349,1726 L 349,1725 L 350,1724 L 351,1723 L 351,1721 L 352,1717 L 350,1714 L 349,1711 L 348,1709 L 349,1709 L 358,1704 L 359,1702 L 360,1701 L 360,1700 L 359,1698 L 359,1697 L 359,1696 L 360,1693 L 362,1691 L 363,1691 L 364,1691 L 365,1691 L 365,1690 L 366,1690 L 366,1691 L 367,1691 L 367,1690 L 368,1690 L 369,1690 L 370,1690 L 370,1689 L 371,1689 L 372,1689 " /></g>
</svg>
