<?xml version="1.0" standalone="no"?><!DOCTYPE svg PUBLIC "-//W3C//DTD SVG 1.1//EN" "http://www.w3.org/Graphics/SVG/1.1/DTD/svg11.dtd"><svg xmlns="http://www.w3.org/2000/svg" viewBox="739 942 202 184" version = "1.1">
<g id="51103" ><path d="M 901,943 L 901,944 L 902,944 L 903,945 L 904,945 L 904,946 L 905,947 L 905,948 L 905,949 L 905,950 L 906,951 L 906,952 L 907,953 L 906,954 L 905,954 L 905,955 L 905,956 L 905,957 L 905,958 L 905,960 L 904,960 L 904,961 L 903,963 L 903,964 L 903,966 L 902,966 L 902,967 L 902,969 L 902,970 L 902,971 L 902,972 L 902,973 L 901,974 L 901,975 L 900,976 L 900,977 L 899,978 L 899,979 L 899,980 L 898,981 L 898,982 L 898,983 L 899,983 L 900,984 L 901,985 L 902,986 L 903,987 L 903,988 L 903,989 L 903,990 L 904,990 L 904,989 L 905,989 L 906,989 L 907,989 L 907,990 L 907,991 L 908,992 L 908,993 L 908,994 L 909,995 L 910,995 L 911,995 L 912,996 L 913,996 L 914,996 L 915,996 L 916,997 L 917,997 L 917,998 L 917,999 L 916,999 L 916,1000 L 917,1001 L 917,1002 L 917,1003 L 917,1004 L 918,1005 L 918,1006 L 919,1006 L 919,1007 L 920,1007 L 920,1008 L 921,1009 L 921,1010 L 922,1011 L 922,1012 L 923,1012 L 923,1013 L 924,1014 L 924,1015 L 925,1015 L 926,1015 L 926,1016 L 927,1017 L 927,1018 L 928,1019 L 928,1020 L 929,1021 L 930,1021 L 931,1021 L 932,1021 L 932,1022 L 932,1023 L 932,1024 L 932,1025 L 933,1026 L 934,1026 L 934,1027 L 934,1028 L 934,1029 L 935,1030 L 934,1031 L 934,1032 L 935,1032 L 935,1033 L 935,1034 L 936,1034 L 937,1035 L 937,1036 L 937,1037 L 937,1038 L 936,1038 L 936,1039 L 937,1040 L 937,1041 L 938,1041 L 938,1042 L 938,1043 L 938,1044 L 938,1045 L 939,1045 L 940,1045 L 941,1045 L 941,1046 L 941,1047 L 940,1047 L 940,1048 L 939,1048 L 939,1049 L 938,1049 L 937,1049 L 936,1049 L 935,1049 L 934,1049 L 934,1050 L 933,1050 L 933,1051 L 932,1051 L 932,1052 L 931,1053 L 931,1054 L 930,1054 L 930,1055 L 929,1055 L 929,1056 L 928,1057 L 928,1058 L 927,1058 L 927,1059 L 926,1059 L 926,1060 L 926,1061 L 926,1062 L 925,1062 L 924,1062 L 924,1063 L 923,1063 L 923,1064 L 922,1065 L 922,1066 L 921,1066 L 921,1067 L 920,1068 L 920,1069 L 919,1070 L 918,1071 L 918,1072 L 918,1073 L 918,1074 L 918,1075 L 917,1075 L 917,1076 L 916,1076 L 916,1077 L 916,1078 L 917,1078 L 917,1079 L 917,1080 L 916,1080 L 916,1081 L 916,1082 L 915,1083 L 915,1084 L 915,1085 L 915,1086 L 915,1087 L 915,1088 L 914,1088 L 914,1089 L 913,1089 L 912,1089 L 912,1090 L 911,1091 L 911,1092 L 910,1092 L 910,1093 L 911,1093 L 910,1094 L 909,1094 L 909,1095 L 908,1096 L 908,1097 L 907,1097 L 906,1097 L 906,1098 L 905,1098 L 905,1097 L 904,1097 L 904,1098 L 903,1098 L 903,1099 L 902,1099 L 902,1100 L 901,1100 L 901,1101 L 901,1102 L 900,1102 L 900,1103 L 900,1104 L 900,1105 L 900,1106 L 899,1106 L 899,1107 L 899,1108 L 898,1108 L 898,1109 L 898,1110 L 897,1110 L 898,1110 L 897,1110 L 898,1110 L 898,1111 L 897,1111 L 897,1112 L 897,1113 L 897,1114 L 896,1114 L 895,1114 L 895,1113 L 893,1112 L 893,1113 L 892,1113 L 891,1113 L 890,1113 L 890,1114 L 889,1114 L 888,1114 L 888,1113 L 888,1112 L 887,1112 L 887,1111 L 886,1111 L 886,1110 L 885,1110 L 885,1109 L 885,1110 L 884,1110 L 884,1109 L 883,1109 L 883,1108 L 882,1108 L 883,1108 L 883,1107 L 882,1107 L 882,1106 L 882,1105 L 881,1105 L 882,1105 L 882,1104 L 881,1104 L 881,1103 L 881,1102 L 880,1102 L 880,1101 L 880,1100 L 881,1100 L 880,1100 L 880,1099 L 880,1098 L 881,1098 L 881,1097 L 881,1096 L 881,1095 L 881,1094 L 880,1094 L 880,1093 L 881,1093 L 881,1092 L 881,1091 L 880,1090 L 880,1089 L 879,1089 L 879,1088 L 878,1088 L 878,1087 L 877,1086 L 877,1085 L 877,1084 L 877,1083 L 876,1083 L 876,1082 L 875,1082 L 875,1081 L 875,1080 L 875,1079 L 874,1079 L 874,1078 L 874,1077 L 873,1077 L 873,1076 L 873,1075 L 873,1074 L 873,1073 L 874,1072 L 874,1071 L 874,1070 L 874,1069 L 875,1069 L 875,1068 L 874,1068 L 874,1067 L 873,1068 L 872,1068 L 872,1067 L 872,1068 L 870,1068 L 869,1069 L 869,1070 L 869,1071 L 869,1072 L 869,1073 L 869,1074 L 866,1075 L 865,1079 L 859,1077 L 854,1072 L 853,1072 L 853,1071 L 852,1071 L 852,1072 L 852,1071 L 852,1072 L 852,1071 L 852,1072 L 851,1072 L 852,1072 L 851,1072 L 851,1071 L 851,1072 L 850,1072 L 850,1071 L 850,1072 L 849,1072 L 849,1071 L 848,1071 L 848,1070 L 849,1070 L 849,1069 L 849,1068 L 848,1068 L 849,1068 L 848,1068 L 848,1067 L 849,1067 L 848,1067 L 849,1067 L 848,1067 L 848,1066 L 848,1065 L 847,1065 L 847,1064 L 847,1063 L 847,1064 L 846,1064 L 846,1063 L 847,1063 L 846,1063 L 845,1063 L 844,1063 L 844,1062 L 844,1061 L 843,1061 L 844,1061 L 843,1061 L 843,1060 L 843,1059 L 843,1058 L 842,1058 L 841,1058 L 841,1057 L 840,1057 L 840,1056 L 839,1056 L 839,1055 L 838,1055 L 838,1054 L 837,1054 L 836,1054 L 836,1053 L 836,1052 L 835,1052 L 835,1051 L 835,1052 L 835,1051 L 834,1051 L 834,1052 L 834,1051 L 834,1052 L 833,1052 L 832,1052 L 827,1051 L 828,1055 L 828,1059 L 827,1060 L 828,1060 L 827,1062 L 826,1063 L 827,1063 L 827,1064 L 827,1065 L 827,1066 L 826,1066 L 826,1068 L 825,1068 L 825,1069 L 825,1071 L 825,1074 L 824,1075 L 824,1076 L 824,1077 L 823,1078 L 822,1078 L 822,1079 L 822,1080 L 822,1081 L 822,1082 L 821,1082 L 821,1083 L 821,1084 L 821,1085 L 821,1086 L 820,1086 L 820,1087 L 821,1087 L 821,1088 L 820,1088 L 820,1089 L 820,1090 L 820,1091 L 820,1092 L 820,1093 L 819,1093 L 819,1094 L 819,1095 L 818,1095 L 818,1096 L 818,1097 L 818,1098 L 818,1099 L 819,1099 L 820,1099 L 821,1100 L 822,1100 L 822,1101 L 823,1101 L 823,1102 L 824,1102 L 824,1103 L 825,1104 L 826,1104 L 825,1105 L 826,1105 L 825,1105 L 825,1106 L 824,1106 L 824,1107 L 824,1108 L 823,1108 L 823,1109 L 822,1109 L 822,1110 L 821,1110 L 821,1111 L 821,1112 L 820,1112 L 820,1113 L 820,1114 L 820,1115 L 820,1116 L 820,1117 L 821,1117 L 818,1119 L 817,1119 L 816,1119 L 816,1118 L 815,1124 L 814,1124 L 815,1124 L 814,1124 L 813,1124 L 813,1125 L 812,1125 L 812,1126 L 811,1126 L 810,1126 L 803,1126 L 797,1124 L 795,1125 L 794,1123 L 792,1122 L 788,1119 L 781,1107 L 779,1102 L 777,1100 L 776,1100 L 774,1100 L 771,1099 L 768,1099 L 765,1098 L 760,1087 L 761,1087 L 761,1086 L 762,1086 L 763,1086 L 763,1087 L 763,1086 L 763,1085 L 763,1084 L 763,1083 L 763,1082 L 762,1083 L 762,1082 L 761,1082 L 761,1081 L 760,1081 L 761,1081 L 760,1080 L 760,1079 L 760,1078 L 760,1077 L 760,1076 L 759,1076 L 759,1075 L 759,1074 L 758,1074 L 758,1073 L 758,1072 L 759,1072 L 758,1071 L 758,1070 L 758,1069 L 757,1069 L 757,1068 L 757,1067 L 757,1066 L 757,1065 L 757,1064 L 756,1064 L 757,1064 L 756,1063 L 757,1063 L 756,1062 L 757,1062 L 756,1062 L 756,1061 L 757,1061 L 757,1060 L 757,1059 L 757,1058 L 757,1057 L 756,1057 L 757,1057 L 757,1056 L 757,1055 L 758,1055 L 759,1055 L 759,1054 L 759,1053 L 758,1053 L 757,1053 L 757,1052 L 758,1052 L 759,1052 L 760,1052 L 761,1052 L 763,1052 L 764,1053 L 765,1053 L 766,1053 L 767,1053 L 767,1052 L 768,1052 L 768,1051 L 768,1050 L 768,1049 L 767,1048 L 765,1044 L 763,1040 L 763,1039 L 763,1038 L 764,1038 L 764,1037 L 763,1037 L 763,1036 L 764,1036 L 764,1035 L 763,1035 L 763,1034 L 762,1033 L 762,1032 L 763,1032 L 763,1031 L 763,1030 L 763,1029 L 763,1028 L 762,1028 L 757,1025 L 756,1024 L 755,1024 L 754,1023 L 752,1021 L 749,1020 L 745,1016 L 744,1013 L 745,1014 L 746,1011 L 747,1008 L 749,1009 L 750,1008 L 750,1006 L 747,1002 L 741,1001 L 741,1000 L 739,1000 L 739,998 L 740,995 L 739,995 L 739,994 L 739,993 L 740,993 L 751,992 L 752,992 L 753,992 L 756,991 L 758,990 L 760,988 L 761,987 L 761,986 L 761,985 L 761,984 L 762,983 L 762,982 L 763,982 L 763,981 L 764,981 L 764,980 L 764,979 L 763,979 L 764,979 L 764,978 L 765,978 L 765,977 L 766,976 L 767,976 L 767,975 L 768,975 L 768,974 L 769,974 L 769,973 L 770,973 L 770,972 L 771,972 L 772,972 L 772,973 L 773,973 L 773,972 L 774,972 L 775,972 L 775,973 L 776,973 L 776,972 L 777,972 L 778,973 L 779,973 L 780,973 L 780,974 L 781,974 L 781,975 L 782,975 L 783,975 L 784,975 L 784,974 L 784,973 L 783,973 L 783,972 L 784,972 L 784,971 L 785,971 L 786,970 L 786,969 L 786,968 L 786,967 L 785,967 L 785,968 L 784,968 L 783,968 L 783,967 L 783,966 L 783,965 L 782,965 L 781,965 L 781,964 L 781,963 L 781,962 L 783,962 L 782,962 L 782,961 L 783,961 L 783,960 L 784,960 L 785,960 L 785,959 L 786,959 L 786,958 L 792,957 L 795,957 L 796,958 L 799,958 L 800,959 L 800,960 L 800,961 L 801,961 L 801,962 L 801,963 L 801,964 L 801,965 L 802,965 L 802,966 L 802,967 L 802,968 L 803,968 L 803,969 L 804,969 L 804,970 L 804,971 L 807,968 L 807,967 L 808,967 L 808,966 L 808,965 L 809,965 L 808,965 L 807,965 L 807,964 L 808,964 L 808,963 L 808,962 L 809,962 L 808,962 L 809,962 L 810,962 L 811,962 L 812,962 L 813,962 L 814,962 L 818,961 L 820,962 L 819,967 L 820,967 L 821,968 L 821,969 L 821,970 L 820,971 L 820,972 L 821,972 L 821,973 L 822,973 L 822,974 L 822,975 L 825,985 L 826,989 L 826,994 L 827,995 L 831,993 L 832,993 L 833,993 L 833,992 L 834,992 L 835,992 L 836,992 L 836,991 L 837,991 L 838,991 L 838,992 L 839,992 L 839,991 L 840,991 L 841,991 L 841,992 L 842,992 L 842,993 L 843,993 L 843,994 L 845,992 L 845,993 L 846,993 L 846,994 L 847,994 L 848,994 L 848,995 L 848,994 L 848,993 L 848,992 L 849,992 L 849,991 L 850,991 L 850,992 L 850,993 L 851,993 L 850,993 L 851,993 L 850,993 L 850,994 L 851,994 L 851,995 L 850,995 L 850,996 L 851,997 L 852,996 L 852,995 L 854,994 L 857,993 L 858,990 L 858,988 L 857,986 L 857,985 L 856,980 L 855,979 L 855,978 L 856,978 L 856,977 L 855,976 L 856,976 L 857,976 L 858,975 L 859,974 L 860,973 L 861,973 L 862,973 L 863,973 L 864,973 L 865,973 L 866,973 L 867,971 L 869,972 L 871,972 L 873,970 L 875,969 L 878,965 L 879,964 L 879,963 L 880,963 L 881,963 L 882,963 L 882,962 L 882,961 L 882,960 L 882,959 L 882,958 L 882,957 L 882,956 L 882,955 L 881,955 L 881,954 L 882,953 L 881,953 L 881,952 L 882,952 L 881,952 L 881,951 L 882,951 L 881,951 L 882,951 L 881,950 L 882,950 L 883,950 L 884,950 L 885,950 L 885,949 L 886,949 L 886,948 L 886,947 L 887,947 L 887,946 L 888,946 L 888,947 L 889,947 L 890,947 L 890,948 L 891,948 L 892,948 L 893,947 L 894,947 L 894,946 L 895,946 L 896,946 L 896,945 L 897,945 L 898,945 L 898,944 L 899,944 L 899,943 L 900,943 L 900,942 L 901,943 " /></g>
</svg>
