<?xml version="1.0" standalone="no"?><!DOCTYPE svg PUBLIC "-//W3C//DTD SVG 1.1//EN" "http://www.w3.org/Graphics/SVG/1.1/DTD/svg11.dtd"><svg xmlns="http://www.w3.org/2000/svg" viewBox="620 987 151 216" version = "1.1">
<g id="51101" ><path d="M 712,987 L 712,988 L 713,988 L 714,988 L 715,988 L 715,989 L 716,989 L 716,990 L 716,991 L 716,992 L 717,992 L 718,994 L 719,994 L 719,993 L 721,992 L 722,993 L 723,993 L 724,994 L 725,995 L 728,996 L 729,997 L 730,998 L 731,998 L 731,999 L 732,999 L 732,1000 L 733,1000 L 734,1000 L 735,999 L 736,998 L 737,997 L 738,996 L 738,995 L 739,995 L 740,995 L 739,998 L 739,1000 L 741,1000 L 741,1001 L 747,1002 L 750,1006 L 750,1008 L 749,1009 L 747,1008 L 746,1011 L 745,1014 L 744,1013 L 745,1016 L 749,1020 L 752,1021 L 754,1023 L 755,1024 L 756,1024 L 757,1025 L 762,1028 L 763,1028 L 763,1029 L 763,1030 L 763,1031 L 763,1032 L 762,1032 L 762,1033 L 763,1034 L 763,1035 L 764,1035 L 764,1036 L 763,1036 L 763,1037 L 764,1037 L 764,1038 L 763,1038 L 763,1039 L 763,1040 L 765,1044 L 767,1048 L 768,1049 L 768,1050 L 768,1051 L 768,1052 L 767,1052 L 767,1053 L 766,1053 L 765,1053 L 764,1053 L 763,1052 L 761,1052 L 760,1052 L 759,1052 L 758,1052 L 757,1052 L 757,1053 L 758,1053 L 759,1053 L 759,1054 L 759,1055 L 758,1055 L 757,1055 L 757,1056 L 757,1057 L 756,1057 L 757,1057 L 757,1058 L 757,1059 L 757,1060 L 757,1061 L 756,1061 L 756,1062 L 757,1062 L 756,1062 L 757,1063 L 756,1063 L 757,1064 L 756,1064 L 757,1064 L 757,1065 L 757,1066 L 757,1067 L 757,1068 L 757,1069 L 758,1069 L 758,1070 L 758,1071 L 759,1072 L 758,1072 L 758,1073 L 758,1074 L 759,1074 L 759,1075 L 759,1076 L 760,1076 L 760,1077 L 760,1078 L 760,1079 L 760,1080 L 761,1081 L 760,1081 L 761,1081 L 761,1082 L 762,1082 L 762,1083 L 763,1082 L 763,1083 L 763,1084 L 763,1085 L 763,1086 L 763,1087 L 763,1086 L 762,1086 L 761,1086 L 761,1087 L 760,1087 L 765,1098 L 768,1099 L 771,1099 L 771,1100 L 771,1101 L 770,1101 L 770,1102 L 769,1103 L 768,1103 L 768,1104 L 768,1105 L 767,1106 L 766,1106 L 766,1107 L 765,1107 L 765,1108 L 765,1109 L 764,1109 L 764,1110 L 764,1111 L 763,1111 L 762,1112 L 761,1112 L 761,1113 L 760,1113 L 759,1114 L 758,1115 L 756,1116 L 756,1118 L 755,1118 L 754,1118 L 755,1118 L 755,1119 L 754,1119 L 754,1120 L 755,1120 L 755,1122 L 753,1122 L 753,1124 L 752,1123 L 751,1122 L 750,1122 L 749,1122 L 748,1122 L 747,1122 L 747,1123 L 746,1123 L 745,1124 L 744,1124 L 744,1123 L 743,1124 L 743,1127 L 743,1128 L 743,1129 L 745,1132 L 746,1133 L 746,1135 L 747,1137 L 749,1138 L 751,1138 L 751,1139 L 751,1140 L 751,1141 L 751,1142 L 752,1144 L 754,1146 L 754,1147 L 754,1148 L 755,1148 L 755,1149 L 755,1150 L 755,1151 L 755,1152 L 756,1152 L 758,1153 L 758,1154 L 759,1154 L 760,1155 L 762,1155 L 763,1156 L 763,1157 L 764,1158 L 765,1159 L 765,1160 L 766,1160 L 766,1161 L 766,1162 L 767,1164 L 768,1168 L 767,1168 L 767,1169 L 767,1170 L 761,1173 L 759,1174 L 757,1173 L 756,1172 L 755,1171 L 752,1175 L 752,1176 L 751,1176 L 752,1176 L 751,1176 L 751,1177 L 750,1177 L 750,1178 L 749,1178 L 749,1177 L 749,1178 L 748,1178 L 747,1178 L 746,1179 L 744,1180 L 742,1184 L 740,1185 L 740,1186 L 740,1187 L 740,1188 L 740,1189 L 741,1190 L 740,1193 L 740,1196 L 740,1198 L 734,1202 L 725,1203 L 723,1200 L 723,1199 L 724,1197 L 723,1195 L 722,1194 L 720,1193 L 720,1192 L 720,1191 L 721,1190 L 724,1187 L 726,1182 L 729,1176 L 732,1173 L 733,1170 L 733,1169 L 733,1168 L 734,1168 L 734,1167 L 734,1166 L 735,1165 L 735,1164 L 735,1163 L 735,1162 L 727,1161 L 725,1154 L 722,1151 L 721,1151 L 721,1150 L 721,1149 L 720,1149 L 719,1148 L 718,1148 L 718,1147 L 717,1147 L 716,1147 L 716,1146 L 715,1146 L 715,1145 L 714,1145 L 714,1144 L 713,1144 L 713,1143 L 711,1142 L 710,1142 L 707,1139 L 705,1138 L 705,1136 L 703,1131 L 700,1132 L 699,1132 L 699,1133 L 699,1135 L 693,1136 L 689,1136 L 683,1138 L 682,1139 L 682,1141 L 684,1142 L 686,1143 L 687,1144 L 687,1146 L 686,1146 L 686,1147 L 686,1148 L 686,1150 L 684,1150 L 683,1150 L 680,1150 L 679,1149 L 678,1148 L 677,1148 L 677,1147 L 676,1147 L 675,1147 L 674,1146 L 673,1139 L 675,1139 L 676,1138 L 677,1138 L 677,1137 L 678,1137 L 679,1136 L 680,1135 L 681,1135 L 682,1135 L 682,1134 L 682,1133 L 682,1132 L 682,1131 L 683,1131 L 683,1130 L 683,1129 L 683,1128 L 683,1127 L 683,1126 L 684,1126 L 684,1125 L 683,1125 L 682,1124 L 680,1122 L 678,1121 L 677,1121 L 677,1119 L 677,1117 L 678,1112 L 679,1112 L 679,1110 L 679,1109 L 680,1106 L 681,1106 L 681,1105 L 682,1105 L 683,1105 L 684,1105 L 684,1104 L 684,1103 L 684,1102 L 684,1101 L 684,1100 L 685,1100 L 690,1100 L 692,1099 L 697,1098 L 697,1096 L 697,1095 L 697,1091 L 697,1089 L 696,1088 L 694,1083 L 690,1081 L 684,1078 L 685,1073 L 682,1072 L 675,1076 L 669,1077 L 661,1078 L 660,1078 L 660,1079 L 661,1079 L 661,1080 L 661,1081 L 661,1082 L 661,1083 L 661,1084 L 660,1084 L 660,1085 L 661,1085 L 660,1085 L 660,1086 L 660,1087 L 660,1088 L 660,1089 L 659,1090 L 659,1091 L 659,1092 L 658,1092 L 658,1093 L 657,1093 L 658,1093 L 657,1093 L 657,1094 L 657,1093 L 657,1092 L 656,1092 L 655,1092 L 655,1091 L 655,1090 L 654,1090 L 653,1090 L 652,1089 L 651,1087 L 649,1084 L 647,1081 L 644,1077 L 642,1075 L 637,1076 L 636,1079 L 635,1079 L 634,1079 L 634,1078 L 634,1077 L 632,1073 L 632,1069 L 633,1065 L 635,1060 L 635,1057 L 639,1054 L 640,1051 L 640,1049 L 640,1047 L 639,1045 L 636,1044 L 635,1041 L 634,1041 L 627,1039 L 622,1040 L 620,1036 L 623,1035 L 626,1033 L 631,1028 L 631,1025 L 641,1026 L 642,1027 L 646,1025 L 648,1024 L 649,1025 L 649,1024 L 650,1024 L 651,1024 L 652,1024 L 652,1023 L 654,1023 L 655,1023 L 656,1023 L 657,1022 L 658,1022 L 659,1022 L 660,1022 L 660,1023 L 661,1023 L 662,1023 L 663,1023 L 664,1023 L 665,1023 L 665,1022 L 666,1022 L 667,1022 L 667,1021 L 668,1021 L 669,1021 L 670,1021 L 670,1020 L 671,1020 L 672,1020 L 672,1021 L 673,1020 L 674,1020 L 674,1019 L 675,1019 L 675,1018 L 676,1018 L 677,1018 L 678,1018 L 679,1018 L 679,1019 L 680,1020 L 680,1019 L 680,1020 L 681,1020 L 681,1019 L 682,1019 L 682,1018 L 683,1018 L 684,1018 L 683,1018 L 683,1017 L 684,1017 L 684,1018 L 685,1018 L 686,1018 L 686,1019 L 686,1020 L 685,1019 L 685,1020 L 685,1021 L 686,1021 L 686,1022 L 685,1022 L 687,1022 L 688,1022 L 689,1023 L 689,1022 L 690,1022 L 690,1023 L 691,1023 L 691,1024 L 692,1024 L 692,1023 L 692,1022 L 693,1022 L 693,1021 L 694,1021 L 694,1020 L 695,1020 L 695,1019 L 696,1019 L 697,1018 L 698,1017 L 700,1019 L 701,1020 L 701,1022 L 701,1023 L 701,1024 L 701,1025 L 702,1026 L 702,1027 L 702,1028 L 702,1029 L 702,1030 L 702,1031 L 703,1031 L 703,1032 L 704,1031 L 704,1030 L 705,1030 L 706,1030 L 706,1029 L 706,1028 L 706,1027 L 706,1026 L 706,1025 L 705,1025 L 705,1024 L 706,1024 L 706,1023 L 706,1022 L 706,1021 L 706,1020 L 706,1019 L 706,1018 L 706,1017 L 706,1016 L 706,1015 L 706,1014 L 706,1013 L 706,1012 L 705,1012 L 705,1011 L 705,1010 L 706,1010 L 706,1009 L 707,1009 L 708,1008 L 709,1008 L 710,1008 L 711,1007 L 712,1007 L 713,1007 L 714,1007 L 715,1007 L 716,1007 L 717,1003 L 712,999 L 711,999 L 710,998 L 710,997 L 709,997 L 709,996 L 709,997 L 709,996 L 709,995 L 709,994 L 709,993 L 709,992 L 709,991 L 710,991 L 710,990 L 710,989 L 710,988 L 710,987 L 711,987 L 712,987 " /></g>
</svg>
