<?xml version="1.0" standalone="no"?><!DOCTYPE svg PUBLIC "-//W3C//DTD SVG 1.1//EN" "http://www.w3.org/Graphics/SVG/1.1/DTD/svg11.dtd"><svg xmlns="http://www.w3.org/2000/svg" viewBox="549 1039 148 179" version = "1.1">
<g id="51102" ><path d="M 677,1148 L 678,1149 L 677,1149 L 677,1150 L 678,1150 L 678,1151 L 677,1151 L 677,1152 L 677,1154 L 676,1155 L 674,1158 L 673,1158 L 672,1159 L 666,1160 L 661,1161 L 655,1162 L 660,1167 L 659,1171 L 659,1175 L 660,1177 L 660,1181 L 660,1191 L 659,1196 L 659,1201 L 658,1202 L 660,1218 L 652,1214 L 646,1210 L 642,1207 L 639,1206 L 635,1204 L 634,1205 L 631,1203 L 627,1204 L 628,1201 L 627,1197 L 628,1195 L 624,1194 L 620,1194 L 617,1193 L 606,1186 L 594,1172 L 594,1171 L 593,1171 L 593,1170 L 594,1170 L 594,1169 L 593,1169 L 593,1168 L 593,1167 L 592,1167 L 592,1166 L 591,1166 L 590,1166 L 590,1165 L 589,1165 L 588,1164 L 587,1163 L 587,1162 L 587,1161 L 587,1160 L 587,1159 L 587,1158 L 586,1158 L 587,1157 L 586,1156 L 587,1156 L 587,1155 L 586,1153 L 582,1151 L 580,1146 L 579,1142 L 579,1134 L 576,1132 L 574,1125 L 564,1122 L 559,1119 L 558,1117 L 551,1114 L 550,1110 L 549,1109 L 550,1106 L 549,1104 L 550,1101 L 551,1100 L 551,1098 L 552,1098 L 552,1097 L 554,1098 L 555,1098 L 557,1098 L 559,1096 L 561,1092 L 562,1092 L 562,1091 L 563,1091 L 563,1090 L 563,1089 L 563,1088 L 563,1087 L 564,1087 L 564,1088 L 565,1088 L 566,1088 L 567,1088 L 568,1088 L 568,1089 L 569,1090 L 569,1091 L 569,1092 L 570,1092 L 570,1093 L 571,1093 L 571,1094 L 572,1094 L 573,1094 L 574,1094 L 574,1093 L 575,1093 L 575,1094 L 576,1094 L 576,1093 L 577,1092 L 577,1091 L 578,1090 L 578,1089 L 579,1089 L 579,1090 L 580,1090 L 580,1089 L 581,1089 L 581,1088 L 582,1088 L 583,1088 L 583,1087 L 583,1086 L 584,1086 L 585,1086 L 585,1085 L 586,1085 L 586,1084 L 586,1083 L 587,1083 L 587,1082 L 587,1081 L 588,1081 L 589,1080 L 590,1080 L 590,1079 L 593,1079 L 593,1077 L 592,1075 L 591,1073 L 592,1069 L 592,1068 L 592,1067 L 592,1066 L 591,1065 L 592,1064 L 592,1063 L 591,1063 L 591,1062 L 590,1061 L 589,1061 L 589,1055 L 588,1052 L 588,1050 L 588,1048 L 592,1050 L 594,1051 L 599,1053 L 601,1055 L 602,1059 L 603,1060 L 609,1061 L 610,1061 L 612,1060 L 614,1061 L 617,1059 L 618,1053 L 622,1049 L 622,1048 L 624,1044 L 622,1042 L 622,1041 L 622,1040 L 627,1039 L 634,1041 L 635,1041 L 636,1044 L 639,1045 L 640,1047 L 640,1049 L 640,1051 L 639,1054 L 635,1057 L 635,1060 L 633,1065 L 632,1069 L 632,1073 L 634,1077 L 634,1078 L 634,1079 L 635,1079 L 636,1079 L 637,1076 L 642,1075 L 644,1077 L 647,1081 L 649,1084 L 651,1087 L 652,1089 L 653,1090 L 654,1090 L 655,1090 L 655,1091 L 655,1092 L 656,1092 L 657,1092 L 657,1093 L 657,1094 L 657,1093 L 658,1093 L 657,1093 L 658,1093 L 658,1092 L 659,1092 L 659,1091 L 659,1090 L 660,1089 L 660,1088 L 660,1087 L 660,1086 L 660,1085 L 661,1085 L 660,1085 L 660,1084 L 661,1084 L 661,1083 L 661,1082 L 661,1081 L 661,1080 L 661,1079 L 660,1079 L 660,1078 L 661,1078 L 669,1077 L 675,1076 L 682,1072 L 685,1073 L 684,1078 L 690,1081 L 694,1083 L 696,1088 L 697,1089 L 697,1091 L 697,1095 L 697,1096 L 697,1098 L 692,1099 L 690,1100 L 685,1100 L 684,1100 L 684,1101 L 684,1102 L 684,1103 L 684,1104 L 684,1105 L 683,1105 L 682,1105 L 681,1105 L 681,1106 L 680,1106 L 679,1109 L 679,1110 L 679,1112 L 678,1112 L 677,1117 L 677,1119 L 677,1121 L 678,1121 L 680,1122 L 682,1124 L 683,1125 L 684,1125 L 684,1126 L 683,1126 L 683,1127 L 683,1128 L 683,1129 L 683,1130 L 683,1131 L 682,1131 L 682,1132 L 682,1133 L 682,1134 L 682,1135 L 681,1135 L 680,1135 L 679,1136 L 678,1137 L 677,1137 L 677,1138 L 676,1138 L 675,1139 L 673,1139 L 674,1146 L 675,1147 L 676,1147 L 677,1147 L 677,1148 " /></g>
</svg>
