<?xml version="1.0" standalone="no"?><!DOCTYPE svg PUBLIC "-//W3C//DTD SVG 1.1//EN" "http://www.w3.org/Graphics/SVG/1.1/DTD/svg11.dtd"><svg xmlns="http://www.w3.org/2000/svg" viewBox="77 904 371 539" version = "1.1">
<g id="51201" ><path d="M 366,921 L 379,938 L 390,937 L 389,949 L 398,971 L 406,984 L 391,988 L 379,994 L 364,1001 L 362,999 L 360,998 L 354,995 L 344,992 L 343,992 L 341,992 L 340,993 L 339,993 L 339,992 L 338,992 L 338,991 L 337,991 L 336,991 L 335,991 L 335,992 L 334,992 L 334,993 L 333,993 L 332,993 L 332,994 L 332,995 L 331,995 L 331,996 L 330,996 L 329,996 L 329,997 L 328,997 L 328,998 L 327,998 L 326,998 L 325,998 L 324,998 L 323,998 L 323,997 L 322,997 L 322,998 L 321,998 L 320,998 L 319,998 L 318,998 L 317,998 L 316,998 L 315,998 L 314,999 L 313,999 L 312,999 L 312,998 L 311,998 L 310,998 L 310,999 L 309,999 L 309,1000 L 308,1000 L 307,1000 L 306,1000 L 306,1001 L 306,1000 L 306,1001 L 305,1001 L 305,1000 L 304,999 L 304,1000 L 304,999 L 303,999 L 302,999 L 302,998 L 301,998 L 301,997 L 301,996 L 301,995 L 300,995 L 300,996 L 300,995 L 299,995 L 299,996 L 298,996 L 298,995 L 298,994 L 297,994 L 296,994 L 296,995 L 295,995 L 294,995 L 294,996 L 293,996 L 292,996 L 292,995 L 291,995 L 291,996 L 291,997 L 290,997 L 289,998 L 288,998 L 287,998 L 286,998 L 286,999 L 285,999 L 285,1000 L 285,999 L 284,1000 L 284,999 L 283,999 L 282,1000 L 282,1001 L 281,1001 L 281,1002 L 280,1002 L 279,1003 L 278,1003 L 278,1004 L 277,1004 L 276,1004 L 276,1005 L 275,1005 L 274,1005 L 273,1005 L 273,1006 L 272,1006 L 272,1007 L 272,1006 L 271,1006 L 271,1007 L 271,1006 L 270,1006 L 269,1006 L 268,1006 L 267,1007 L 266,1007 L 266,1006 L 266,1007 L 265,1007 L 266,1008 L 265,1008 L 264,1009 L 264,1010 L 263,1011 L 262,1011 L 261,1011 L 260,1011 L 260,1010 L 259,1011 L 258,1011 L 257,1011 L 256,1012 L 255,1012 L 253,1015 L 248,1019 L 247,1019 L 246,1019 L 245,1019 L 245,1020 L 244,1020 L 244,1021 L 243,1021 L 242,1021 L 241,1021 L 240,1021 L 236,1022 L 235,1024 L 228,1025 L 220,1028 L 211,1030 L 211,1031 L 210,1031 L 211,1031 L 210,1032 L 210,1033 L 210,1034 L 209,1034 L 209,1035 L 210,1036 L 210,1037 L 210,1038 L 209,1038 L 209,1039 L 208,1039 L 207,1040 L 207,1039 L 206,1039 L 205,1039 L 204,1039 L 203,1039 L 203,1040 L 202,1040 L 201,1041 L 200,1041 L 199,1044 L 199,1047 L 199,1049 L 199,1051 L 199,1052 L 199,1053 L 202,1056 L 206,1062 L 209,1063 L 212,1065 L 213,1064 L 214,1065 L 215,1065 L 216,1065 L 217,1065 L 218,1065 L 219,1065 L 220,1066 L 220,1067 L 221,1068 L 222,1069 L 223,1069 L 223,1070 L 224,1071 L 225,1072 L 226,1072 L 226,1073 L 227,1074 L 226,1075 L 227,1076 L 227,1078 L 228,1080 L 228,1082 L 228,1084 L 227,1085 L 227,1087 L 226,1089 L 224,1093 L 223,1096 L 222,1097 L 219,1099 L 217,1101 L 215,1103 L 214,1104 L 213,1105 L 212,1105 L 212,1106 L 212,1107 L 211,1107 L 211,1108 L 211,1109 L 210,1109 L 209,1109 L 209,1110 L 208,1110 L 208,1111 L 207,1112 L 206,1112 L 205,1114 L 204,1116 L 203,1118 L 203,1120 L 204,1121 L 205,1121 L 205,1122 L 204,1124 L 204,1126 L 204,1128 L 204,1132 L 204,1134 L 204,1136 L 204,1137 L 205,1137 L 206,1137 L 207,1137 L 208,1137 L 208,1138 L 209,1138 L 210,1138 L 211,1138 L 212,1138 L 212,1139 L 213,1141 L 214,1142 L 215,1143 L 216,1143 L 217,1143 L 218,1143 L 219,1143 L 219,1144 L 220,1144 L 221,1144 L 221,1145 L 222,1145 L 223,1145 L 224,1144 L 225,1145 L 226,1145 L 226,1146 L 227,1146 L 227,1147 L 228,1147 L 229,1147 L 232,1148 L 240,1145 L 250,1148 L 257,1147 L 260,1146 L 264,1145 L 272,1149 L 277,1154 L 277,1158 L 275,1160 L 274,1160 L 270,1163 L 253,1166 L 244,1173 L 243,1176 L 244,1180 L 236,1180 L 235,1183 L 232,1190 L 233,1192 L 233,1197 L 246,1196 L 261,1195 L 269,1197 L 277,1196 L 281,1194 L 286,1189 L 291,1186 L 294,1189 L 296,1192 L 299,1194 L 301,1196 L 300,1199 L 300,1200 L 301,1200 L 301,1201 L 301,1202 L 302,1202 L 303,1203 L 304,1205 L 304,1206 L 305,1206 L 305,1207 L 306,1207 L 307,1207 L 307,1208 L 307,1209 L 308,1209 L 308,1210 L 308,1211 L 308,1212 L 307,1213 L 307,1214 L 307,1215 L 308,1216 L 307,1217 L 306,1218 L 306,1219 L 306,1220 L 306,1221 L 307,1223 L 304,1233 L 302,1240 L 300,1244 L 299,1244 L 299,1245 L 298,1245 L 298,1246 L 297,1246 L 296,1246 L 296,1247 L 295,1247 L 292,1251 L 287,1253 L 287,1254 L 286,1257 L 287,1260 L 285,1262 L 284,1263 L 283,1267 L 282,1269 L 279,1272 L 279,1276 L 278,1278 L 278,1279 L 281,1283 L 282,1285 L 285,1294 L 286,1298 L 287,1300 L 286,1304 L 285,1310 L 285,1313 L 285,1315 L 285,1316 L 286,1316 L 286,1317 L 287,1317 L 287,1318 L 288,1318 L 288,1319 L 289,1319 L 290,1320 L 291,1320 L 292,1320 L 293,1320 L 294,1319 L 295,1319 L 295,1318 L 296,1317 L 297,1316 L 298,1315 L 299,1316 L 300,1316 L 300,1317 L 301,1317 L 302,1318 L 303,1318 L 304,1319 L 305,1319 L 306,1319 L 307,1319 L 308,1319 L 309,1319 L 310,1319 L 311,1319 L 312,1319 L 313,1319 L 313,1320 L 314,1320 L 315,1321 L 316,1321 L 317,1321 L 318,1321 L 319,1321 L 320,1321 L 321,1321 L 322,1321 L 322,1320 L 323,1320 L 324,1321 L 325,1321 L 325,1320 L 326,1320 L 326,1319 L 327,1319 L 327,1318 L 328,1318 L 328,1317 L 329,1317 L 329,1318 L 330,1317 L 336,1318 L 338,1317 L 351,1316 L 357,1317 L 358,1317 L 359,1318 L 367,1318 L 376,1319 L 378,1319 L 380,1320 L 386,1321 L 390,1322 L 397,1324 L 399,1324 L 401,1326 L 403,1326 L 404,1325 L 405,1325 L 406,1325 L 407,1325 L 410,1325 L 412,1326 L 415,1327 L 417,1329 L 419,1330 L 422,1331 L 424,1330 L 426,1330 L 427,1331 L 430,1331 L 431,1331 L 437,1332 L 439,1332 L 442,1331 L 442,1333 L 441,1334 L 442,1335 L 443,1336 L 444,1337 L 445,1340 L 445,1342 L 446,1344 L 446,1346 L 447,1348 L 448,1352 L 448,1354 L 448,1356 L 448,1359 L 445,1371 L 441,1373 L 432,1383 L 422,1392 L 421,1393 L 417,1396 L 408,1403 L 397,1410 L 380,1417 L 370,1420 L 360,1431 L 348,1432 L 347,1440 L 319,1443 L 304,1425 L 289,1420 L 279,1411 L 266,1385 L 258,1376 L 240,1314 L 240,1313 L 234,1306 L 233,1305 L 232,1303 L 231,1302 L 229,1300 L 228,1298 L 227,1297 L 226,1297 L 226,1296 L 225,1296 L 225,1295 L 224,1295 L 224,1294 L 224,1293 L 223,1293 L 223,1292 L 222,1292 L 222,1291 L 222,1290 L 221,1290 L 221,1289 L 220,1289 L 220,1288 L 220,1287 L 220,1286 L 219,1285 L 219,1284 L 219,1282 L 218,1279 L 218,1277 L 218,1276 L 200,1261 L 195,1256 L 195,1255 L 196,1255 L 197,1255 L 198,1255 L 198,1254 L 199,1254 L 200,1254 L 201,1254 L 202,1254 L 203,1254 L 203,1253 L 203,1254 L 204,1253 L 205,1252 L 204,1252 L 204,1251 L 204,1250 L 203,1249 L 202,1248 L 202,1246 L 201,1244 L 201,1243 L 200,1242 L 199,1240 L 197,1239 L 195,1238 L 194,1237 L 192,1235 L 191,1234 L 189,1233 L 188,1232 L 187,1232 L 186,1231 L 185,1231 L 185,1230 L 184,1229 L 183,1228 L 182,1227 L 182,1226 L 181,1225 L 180,1224 L 179,1223 L 178,1221 L 178,1220 L 177,1219 L 177,1218 L 175,1218 L 175,1217 L 174,1216 L 174,1215 L 173,1214 L 173,1213 L 172,1213 L 172,1212 L 171,1211 L 171,1210 L 171,1209 L 171,1208 L 171,1207 L 171,1206 L 171,1205 L 170,1204 L 170,1203 L 169,1202 L 169,1201 L 168,1200 L 167,1200 L 167,1199 L 166,1199 L 165,1198 L 164,1198 L 164,1197 L 163,1197 L 162,1197 L 161,1197 L 160,1197 L 159,1197 L 158,1197 L 157,1196 L 156,1196 L 155,1196 L 154,1196 L 153,1196 L 152,1196 L 151,1196 L 150,1195 L 149,1195 L 148,1195 L 147,1194 L 146,1194 L 145,1193 L 144,1193 L 144,1192 L 143,1192 L 142,1191 L 141,1191 L 141,1190 L 140,1189 L 139,1189 L 139,1188 L 139,1187 L 138,1187 L 137,1186 L 136,1185 L 136,1184 L 136,1183 L 135,1183 L 134,1183 L 134,1182 L 133,1182 L 133,1181 L 132,1181 L 131,1180 L 130,1180 L 129,1179 L 128,1179 L 128,1178 L 127,1177 L 126,1176 L 125,1175 L 123,1174 L 122,1173 L 122,1172 L 121,1171 L 121,1170 L 120,1169 L 120,1168 L 119,1167 L 119,1166 L 118,1165 L 118,1164 L 118,1163 L 119,1161 L 119,1160 L 120,1159 L 120,1158 L 120,1157 L 121,1156 L 121,1155 L 121,1154 L 121,1153 L 121,1152 L 121,1151 L 122,1150 L 122,1149 L 122,1148 L 123,1147 L 123,1146 L 123,1145 L 124,1144 L 124,1143 L 124,1142 L 125,1142 L 125,1141 L 126,1140 L 127,1139 L 128,1138 L 127,1138 L 127,1137 L 127,1136 L 126,1135 L 126,1134 L 125,1134 L 124,1134 L 124,1133 L 124,1132 L 123,1131 L 123,1130 L 123,1129 L 122,1129 L 122,1128 L 123,1128 L 123,1127 L 123,1126 L 123,1125 L 122,1124 L 121,1124 L 122,1123 L 121,1123 L 121,1122 L 121,1121 L 121,1120 L 120,1120 L 120,1119 L 119,1119 L 119,1120 L 118,1120 L 117,1120 L 116,1121 L 115,1121 L 114,1121 L 114,1122 L 113,1122 L 113,1123 L 112,1122 L 112,1121 L 111,1121 L 111,1120 L 110,1120 L 110,1119 L 111,1119 L 112,1119 L 113,1119 L 113,1118 L 114,1117 L 114,1116 L 115,1116 L 115,1115 L 114,1115 L 114,1116 L 113,1116 L 113,1117 L 112,1117 L 112,1116 L 113,1116 L 113,1115 L 114,1115 L 114,1114 L 115,1114 L 115,1113 L 114,1113 L 114,1112 L 113,1112 L 112,1112 L 113,1112 L 114,1112 L 114,1111 L 113,1111 L 112,1111 L 112,1110 L 113,1110 L 113,1109 L 114,1109 L 115,1109 L 115,1108 L 115,1107 L 115,1106 L 114,1106 L 114,1105 L 115,1105 L 115,1104 L 116,1104 L 116,1103 L 115,1103 L 115,1102 L 115,1101 L 116,1101 L 116,1100 L 115,1100 L 116,1099 L 116,1098 L 116,1097 L 115,1097 L 115,1096 L 114,1095 L 115,1094 L 114,1094 L 114,1093 L 113,1093 L 113,1092 L 113,1091 L 113,1090 L 113,1089 L 113,1088 L 112,1088 L 112,1087 L 111,1086 L 111,1085 L 111,1084 L 110,1084 L 110,1083 L 110,1082 L 110,1081 L 109,1081 L 109,1080 L 110,1080 L 109,1079 L 109,1078 L 109,1077 L 109,1076 L 108,1076 L 108,1075 L 107,1074 L 106,1074 L 105,1073 L 104,1073 L 103,1073 L 102,1072 L 102,1071 L 101,1071 L 100,1070 L 100,1069 L 100,1068 L 100,1067 L 100,1066 L 101,1064 L 100,1063 L 100,1062 L 99,1061 L 99,1060 L 99,1059 L 99,1058 L 99,1057 L 98,1056 L 98,1055 L 97,1054 L 96,1053 L 95,1052 L 94,1051 L 93,1050 L 92,1050 L 92,1049 L 91,1049 L 90,1049 L 89,1048 L 88,1048 L 87,1047 L 86,1047 L 86,1046 L 85,1046 L 84,1046 L 83,1046 L 82,1046 L 81,1046 L 81,1045 L 81,1044 L 81,1043 L 80,1042 L 79,1042 L 79,1041 L 78,1041 L 78,1042 L 77,1042 L 78,1040 L 82,1037 L 82,1036 L 83,1036 L 83,1035 L 83,1034 L 84,1033 L 84,1032 L 84,1031 L 84,1030 L 85,1030 L 85,1029 L 86,1028 L 86,1027 L 87,1027 L 87,1026 L 88,1026 L 88,1025 L 88,1024 L 88,1023 L 88,1022 L 88,1021 L 88,1020 L 88,1019 L 89,1019 L 89,1018 L 90,1018 L 91,1018 L 92,1018 L 92,1017 L 93,1017 L 94,1017 L 95,1017 L 96,1017 L 97,1017 L 98,1017 L 98,1016 L 99,1016 L 100,1015 L 101,1015 L 101,1014 L 102,1014 L 103,1014 L 103,1013 L 102,1013 L 102,1012 L 103,1012 L 103,1011 L 104,1011 L 104,1010 L 105,1010 L 105,1009 L 105,1008 L 105,1007 L 105,1006 L 105,1005 L 104,1005 L 104,1004 L 104,1003 L 103,1003 L 103,1002 L 103,1001 L 103,1000 L 103,999 L 104,999 L 104,998 L 104,997 L 104,996 L 105,996 L 105,995 L 104,995 L 104,994 L 104,993 L 104,992 L 105,992 L 106,992 L 106,991 L 106,990 L 105,990 L 105,989 L 105,988 L 104,987 L 104,986 L 103,986 L 103,985 L 102,985 L 101,984 L 100,984 L 100,983 L 99,983 L 99,982 L 98,982 L 97,981 L 97,980 L 97,979 L 96,979 L 97,979 L 97,978 L 97,977 L 97,976 L 97,975 L 98,975 L 99,975 L 99,974 L 100,974 L 100,973 L 101,973 L 101,972 L 101,971 L 99,970 L 98,967 L 97,965 L 98,964 L 99,964 L 98,964 L 98,963 L 98,962 L 97,962 L 98,962 L 97,961 L 97,960 L 97,959 L 97,958 L 97,957 L 97,956 L 96,956 L 96,955 L 95,955 L 95,954 L 96,953 L 96,952 L 97,952 L 98,952 L 98,951 L 98,950 L 99,950 L 99,949 L 98,949 L 99,949 L 98,948 L 99,947 L 98,947 L 97,946 L 96,946 L 95,946 L 94,945 L 94,944 L 93,944 L 93,943 L 92,943 L 91,943 L 91,942 L 90,942 L 90,941 L 89,941 L 88,941 L 88,940 L 88,939 L 87,938 L 87,937 L 87,936 L 87,935 L 87,936 L 86,936 L 86,935 L 86,934 L 86,933 L 85,933 L 85,932 L 84,932 L 84,931 L 84,930 L 84,929 L 85,929 L 86,929 L 87,929 L 88,929 L 88,930 L 89,930 L 90,930 L 91,930 L 92,930 L 92,931 L 92,930 L 92,931 L 93,931 L 94,931 L 95,931 L 96,931 L 97,932 L 99,933 L 101,933 L 102,934 L 103,934 L 103,935 L 104,935 L 105,935 L 106,935 L 107,935 L 108,935 L 110,936 L 110,935 L 111,935 L 112,935 L 113,934 L 114,934 L 115,934 L 116,934 L 116,933 L 117,933 L 118,933 L 119,933 L 119,932 L 120,932 L 121,931 L 121,930 L 124,928 L 125,927 L 126,926 L 127,926 L 129,925 L 130,925 L 131,925 L 131,924 L 132,924 L 134,924 L 135,924 L 136,923 L 137,923 L 138,923 L 138,922 L 139,922 L 139,921 L 139,920 L 140,919 L 140,918 L 140,917 L 141,916 L 142,916 L 142,915 L 142,914 L 143,913 L 144,912 L 144,911 L 145,910 L 145,909 L 145,908 L 145,907 L 145,906 L 146,905 L 147,904 L 147,905 L 148,905 L 149,905 L 149,906 L 150,907 L 150,908 L 151,908 L 151,909 L 152,910 L 153,911 L 153,910 L 154,910 L 155,910 L 155,909 L 156,909 L 156,910 L 157,910 L 157,911 L 157,912 L 158,912 L 159,912 L 159,913 L 160,913 L 161,912 L 161,911 L 162,911 L 162,910 L 163,910 L 164,910 L 165,909 L 166,909 L 167,909 L 168,909 L 169,909 L 170,909 L 171,910 L 172,911 L 173,912 L 174,912 L 175,913 L 175,912 L 176,912 L 177,912 L 177,911 L 178,911 L 178,910 L 179,910 L 180,910 L 181,910 L 182,910 L 182,909 L 183,909 L 184,909 L 185,909 L 186,909 L 187,909 L 187,908 L 188,908 L 189,908 L 189,909 L 190,909 L 191,909 L 191,910 L 192,910 L 192,911 L 192,912 L 193,912 L 194,912 L 195,912 L 195,913 L 196,913 L 196,914 L 197,914 L 198,915 L 199,915 L 199,916 L 200,917 L 201,917 L 203,918 L 204,919 L 206,921 L 208,922 L 209,922 L 210,922 L 211,922 L 211,923 L 212,923 L 212,924 L 213,924 L 214,924 L 214,925 L 214,926 L 215,927 L 216,927 L 216,928 L 216,929 L 217,929 L 217,930 L 217,931 L 218,932 L 219,932 L 220,932 L 220,933 L 221,933 L 221,934 L 222,934 L 222,935 L 223,935 L 224,935 L 225,935 L 225,936 L 226,936 L 226,937 L 227,937 L 228,938 L 229,938 L 230,938 L 230,937 L 231,937 L 231,938 L 232,938 L 233,938 L 234,938 L 234,937 L 235,936 L 236,936 L 237,936 L 238,936 L 239,936 L 240,936 L 240,935 L 241,935 L 241,934 L 241,933 L 241,934 L 242,934 L 242,933 L 243,933 L 243,932 L 244,932 L 244,931 L 245,931 L 245,930 L 246,930 L 247,930 L 248,930 L 249,930 L 249,929 L 250,929 L 250,930 L 251,930 L 251,929 L 252,929 L 253,929 L 254,929 L 255,929 L 256,929 L 256,928 L 257,928 L 258,928 L 258,929 L 257,929 L 257,930 L 258,930 L 258,931 L 258,932 L 258,931 L 259,931 L 260,931 L 261,931 L 261,932 L 261,931 L 262,931 L 263,930 L 263,929 L 264,929 L 265,930 L 265,931 L 266,931 L 266,932 L 267,932 L 269,933 L 270,933 L 272,935 L 273,935 L 275,935 L 277,935 L 280,935 L 282,934 L 283,933 L 283,932 L 284,932 L 285,932 L 285,931 L 286,931 L 286,930 L 287,930 L 287,929 L 288,929 L 289,929 L 289,930 L 290,930 L 293,929 L 295,928 L 297,928 L 299,928 L 301,928 L 303,928 L 305,928 L 308,928 L 310,928 L 312,928 L 314,926 L 314,925 L 317,920 L 321,919 L 323,918 L 325,916 L 327,914 L 341,906 L 355,913 L 366,921 " /></g>
</svg>
