<?xml version="1.0" standalone="no"?><!DOCTYPE svg PUBLIC "-//W3C//DTD SVG 1.1//EN" "http://www.w3.org/Graphics/SVG/1.1/DTD/svg11.dtd"><svg xmlns="http://www.w3.org/2000/svg" viewBox="199 984 346 348" version = "1.1">
<g id="51202" ><path d="M 423,1001 L 433,1006 L 445,1022 L 444,1023 L 444,1024 L 443,1024 L 442,1025 L 442,1026 L 442,1027 L 442,1028 L 442,1029 L 443,1029 L 443,1030 L 444,1030 L 444,1031 L 445,1032 L 445,1033 L 445,1034 L 446,1035 L 446,1036 L 446,1037 L 446,1038 L 447,1038 L 447,1039 L 447,1040 L 447,1041 L 447,1042 L 446,1042 L 446,1043 L 446,1044 L 446,1045 L 446,1046 L 446,1047 L 445,1048 L 445,1049 L 444,1049 L 441,1058 L 444,1068 L 444,1074 L 446,1080 L 446,1081 L 446,1083 L 446,1085 L 447,1086 L 448,1090 L 449,1090 L 455,1089 L 458,1088 L 459,1088 L 460,1088 L 463,1087 L 464,1086 L 465,1086 L 468,1085 L 468,1084 L 470,1084 L 471,1084 L 472,1085 L 473,1085 L 474,1085 L 476,1085 L 477,1085 L 478,1085 L 480,1084 L 482,1084 L 483,1084 L 484,1083 L 486,1083 L 487,1083 L 489,1082 L 492,1082 L 493,1082 L 494,1082 L 496,1082 L 497,1083 L 499,1083 L 502,1086 L 506,1086 L 509,1087 L 510,1087 L 510,1088 L 511,1088 L 512,1089 L 512,1090 L 513,1090 L 514,1091 L 514,1092 L 514,1093 L 515,1094 L 515,1095 L 514,1095 L 514,1096 L 513,1096 L 513,1097 L 512,1097 L 511,1098 L 511,1099 L 511,1100 L 512,1100 L 513,1101 L 514,1102 L 515,1102 L 515,1103 L 515,1104 L 516,1105 L 517,1105 L 519,1105 L 520,1104 L 521,1104 L 523,1104 L 524,1104 L 525,1104 L 526,1104 L 527,1104 L 528,1104 L 528,1103 L 529,1103 L 530,1103 L 531,1103 L 531,1102 L 532,1103 L 533,1103 L 534,1104 L 535,1104 L 535,1105 L 535,1106 L 536,1106 L 537,1108 L 538,1108 L 539,1108 L 540,1108 L 540,1109 L 541,1109 L 541,1110 L 542,1110 L 542,1111 L 543,1111 L 544,1112 L 544,1111 L 544,1112 L 545,1112 L 545,1113 L 544,1113 L 544,1114 L 544,1115 L 544,1116 L 544,1117 L 543,1117 L 543,1118 L 543,1119 L 543,1120 L 543,1121 L 543,1122 L 543,1123 L 544,1123 L 544,1124 L 544,1125 L 543,1125 L 543,1126 L 543,1127 L 543,1128 L 542,1128 L 541,1128 L 540,1129 L 542,1133 L 537,1143 L 538,1146 L 539,1148 L 541,1154 L 543,1156 L 544,1157 L 545,1158 L 545,1159 L 541,1159 L 536,1161 L 537,1163 L 538,1165 L 537,1166 L 539,1169 L 540,1172 L 542,1175 L 542,1178 L 541,1180 L 540,1183 L 535,1187 L 533,1189 L 532,1192 L 530,1194 L 528,1202 L 527,1204 L 528,1207 L 529,1209 L 530,1211 L 531,1211 L 533,1214 L 542,1218 L 543,1221 L 542,1224 L 539,1226 L 536,1232 L 535,1231 L 532,1237 L 533,1245 L 532,1249 L 532,1250 L 532,1251 L 533,1251 L 533,1252 L 534,1252 L 534,1253 L 535,1253 L 534,1254 L 535,1254 L 534,1254 L 535,1254 L 535,1255 L 535,1256 L 536,1256 L 537,1257 L 538,1257 L 538,1258 L 537,1258 L 537,1259 L 537,1260 L 536,1260 L 537,1260 L 537,1261 L 536,1261 L 536,1262 L 536,1263 L 535,1263 L 534,1263 L 534,1264 L 534,1265 L 533,1265 L 532,1265 L 532,1266 L 531,1266 L 530,1266 L 530,1267 L 530,1268 L 530,1269 L 529,1269 L 528,1269 L 528,1270 L 527,1270 L 526,1270 L 526,1271 L 525,1271 L 524,1271 L 524,1272 L 523,1272 L 522,1272 L 521,1272 L 521,1273 L 521,1274 L 520,1274 L 521,1275 L 521,1276 L 521,1277 L 521,1278 L 521,1279 L 520,1280 L 517,1281 L 515,1282 L 513,1284 L 511,1285 L 510,1288 L 507,1290 L 505,1290 L 501,1290 L 495,1293 L 494,1293 L 494,1292 L 493,1292 L 493,1291 L 493,1290 L 492,1290 L 492,1289 L 491,1289 L 491,1288 L 490,1288 L 489,1287 L 488,1287 L 488,1286 L 487,1286 L 487,1285 L 486,1285 L 486,1284 L 486,1283 L 485,1283 L 485,1282 L 484,1282 L 484,1281 L 483,1281 L 482,1281 L 482,1280 L 481,1280 L 481,1279 L 480,1279 L 480,1278 L 480,1277 L 479,1277 L 479,1276 L 480,1275 L 480,1274 L 480,1273 L 480,1272 L 479,1272 L 479,1271 L 479,1270 L 478,1270 L 478,1269 L 477,1269 L 477,1268 L 476,1268 L 476,1267 L 475,1267 L 474,1267 L 473,1267 L 471,1267 L 470,1268 L 469,1269 L 469,1270 L 468,1269 L 467,1270 L 467,1271 L 467,1272 L 467,1273 L 467,1274 L 466,1275 L 465,1275 L 465,1276 L 466,1276 L 466,1277 L 466,1278 L 466,1279 L 465,1279 L 465,1280 L 464,1280 L 463,1280 L 461,1280 L 460,1280 L 459,1280 L 458,1281 L 456,1281 L 455,1281 L 454,1282 L 451,1282 L 450,1282 L 449,1282 L 448,1282 L 447,1282 L 446,1282 L 445,1282 L 444,1282 L 443,1282 L 443,1283 L 442,1284 L 442,1285 L 441,1285 L 440,1285 L 440,1286 L 439,1287 L 439,1288 L 438,1289 L 437,1290 L 437,1292 L 437,1293 L 437,1296 L 437,1297 L 438,1298 L 439,1299 L 440,1299 L 441,1301 L 442,1302 L 442,1303 L 443,1304 L 444,1307 L 446,1309 L 446,1311 L 446,1312 L 446,1313 L 446,1314 L 445,1317 L 446,1319 L 445,1320 L 445,1321 L 445,1322 L 443,1324 L 442,1331 L 439,1332 L 437,1332 L 431,1331 L 430,1331 L 427,1331 L 426,1330 L 424,1330 L 422,1331 L 419,1330 L 417,1329 L 415,1327 L 412,1326 L 410,1325 L 407,1325 L 406,1325 L 405,1325 L 404,1325 L 403,1326 L 401,1326 L 399,1324 L 397,1324 L 390,1322 L 386,1321 L 380,1320 L 378,1319 L 376,1319 L 367,1318 L 359,1318 L 358,1317 L 357,1317 L 351,1316 L 338,1317 L 336,1318 L 330,1317 L 329,1318 L 329,1317 L 328,1317 L 328,1318 L 327,1318 L 327,1319 L 326,1319 L 326,1320 L 325,1320 L 325,1321 L 324,1321 L 323,1320 L 322,1320 L 322,1321 L 321,1321 L 320,1321 L 319,1321 L 318,1321 L 317,1321 L 316,1321 L 315,1321 L 314,1320 L 313,1320 L 313,1319 L 312,1319 L 311,1319 L 310,1319 L 309,1319 L 308,1319 L 307,1319 L 306,1319 L 305,1319 L 304,1319 L 303,1318 L 302,1318 L 301,1317 L 300,1317 L 300,1316 L 299,1316 L 298,1315 L 297,1316 L 296,1317 L 295,1318 L 295,1319 L 294,1319 L 293,1320 L 292,1320 L 291,1320 L 290,1320 L 289,1319 L 288,1319 L 288,1318 L 287,1318 L 287,1317 L 286,1317 L 286,1316 L 285,1316 L 285,1315 L 285,1313 L 285,1310 L 286,1304 L 287,1300 L 286,1298 L 285,1294 L 282,1285 L 281,1283 L 278,1279 L 278,1278 L 279,1276 L 279,1272 L 282,1269 L 283,1267 L 284,1263 L 285,1262 L 287,1260 L 286,1257 L 287,1254 L 287,1253 L 292,1251 L 295,1247 L 296,1247 L 296,1246 L 297,1246 L 298,1246 L 298,1245 L 299,1245 L 299,1244 L 300,1244 L 302,1240 L 304,1233 L 307,1223 L 306,1221 L 306,1220 L 306,1219 L 306,1218 L 307,1217 L 308,1216 L 307,1215 L 307,1214 L 307,1213 L 308,1212 L 308,1211 L 308,1210 L 308,1209 L 307,1209 L 307,1208 L 307,1207 L 306,1207 L 305,1207 L 305,1206 L 304,1206 L 304,1205 L 303,1203 L 302,1202 L 301,1202 L 301,1201 L 301,1200 L 300,1200 L 300,1199 L 301,1196 L 299,1194 L 296,1192 L 294,1189 L 291,1186 L 286,1189 L 281,1194 L 277,1196 L 269,1197 L 261,1195 L 246,1196 L 233,1197 L 233,1192 L 232,1190 L 235,1183 L 236,1180 L 244,1180 L 243,1176 L 244,1173 L 253,1166 L 270,1163 L 274,1160 L 275,1160 L 277,1158 L 277,1154 L 272,1149 L 264,1145 L 260,1146 L 257,1147 L 250,1148 L 240,1145 L 232,1148 L 229,1147 L 228,1147 L 227,1147 L 227,1146 L 226,1146 L 226,1145 L 225,1145 L 224,1144 L 223,1145 L 222,1145 L 221,1145 L 221,1144 L 220,1144 L 219,1144 L 219,1143 L 218,1143 L 217,1143 L 216,1143 L 215,1143 L 214,1142 L 213,1141 L 212,1139 L 212,1138 L 211,1138 L 210,1138 L 209,1138 L 208,1138 L 208,1137 L 207,1137 L 206,1137 L 205,1137 L 204,1137 L 204,1136 L 204,1134 L 204,1132 L 204,1128 L 204,1126 L 204,1124 L 205,1122 L 205,1121 L 204,1121 L 203,1120 L 203,1118 L 204,1116 L 205,1114 L 206,1112 L 207,1112 L 208,1111 L 208,1110 L 209,1110 L 209,1109 L 210,1109 L 211,1109 L 211,1108 L 211,1107 L 212,1107 L 212,1106 L 212,1105 L 213,1105 L 214,1104 L 215,1103 L 217,1101 L 219,1099 L 222,1097 L 223,1096 L 224,1093 L 226,1089 L 227,1087 L 227,1085 L 228,1084 L 228,1082 L 228,1080 L 227,1078 L 227,1076 L 226,1075 L 227,1074 L 226,1073 L 226,1072 L 225,1072 L 224,1071 L 223,1070 L 223,1069 L 222,1069 L 221,1068 L 220,1067 L 220,1066 L 219,1065 L 218,1065 L 217,1065 L 216,1065 L 215,1065 L 214,1065 L 213,1064 L 212,1065 L 209,1063 L 206,1062 L 202,1056 L 199,1053 L 199,1052 L 199,1051 L 199,1049 L 199,1047 L 199,1044 L 200,1041 L 201,1041 L 202,1040 L 203,1040 L 203,1039 L 204,1039 L 205,1039 L 206,1039 L 207,1039 L 207,1040 L 208,1039 L 209,1039 L 209,1038 L 210,1038 L 210,1037 L 210,1036 L 209,1035 L 209,1034 L 210,1034 L 210,1033 L 210,1032 L 211,1031 L 210,1031 L 211,1031 L 211,1030 L 220,1028 L 228,1025 L 235,1024 L 236,1022 L 240,1021 L 241,1021 L 242,1021 L 243,1021 L 244,1021 L 244,1020 L 245,1020 L 245,1019 L 246,1019 L 247,1019 L 248,1019 L 253,1015 L 255,1012 L 256,1012 L 257,1011 L 258,1011 L 259,1011 L 260,1010 L 260,1011 L 261,1011 L 262,1011 L 263,1011 L 264,1010 L 264,1009 L 265,1008 L 266,1008 L 265,1007 L 266,1007 L 266,1006 L 266,1007 L 267,1007 L 268,1006 L 269,1006 L 270,1006 L 271,1006 L 271,1007 L 271,1006 L 272,1006 L 272,1007 L 272,1006 L 273,1006 L 273,1005 L 274,1005 L 275,1005 L 276,1005 L 276,1004 L 277,1004 L 278,1004 L 278,1003 L 279,1003 L 280,1002 L 281,1002 L 281,1001 L 282,1001 L 282,1000 L 283,999 L 284,999 L 284,1000 L 285,999 L 285,1000 L 285,999 L 286,999 L 286,998 L 287,998 L 288,998 L 289,998 L 290,997 L 291,997 L 291,996 L 291,995 L 292,995 L 292,996 L 293,996 L 294,996 L 294,995 L 295,995 L 296,995 L 296,994 L 297,994 L 298,994 L 298,995 L 298,996 L 299,996 L 299,995 L 300,995 L 300,996 L 300,995 L 301,995 L 301,996 L 301,997 L 301,998 L 302,998 L 302,999 L 303,999 L 304,999 L 304,1000 L 304,999 L 305,1000 L 305,1001 L 306,1001 L 306,1000 L 306,1001 L 306,1000 L 307,1000 L 308,1000 L 309,1000 L 309,999 L 310,999 L 310,998 L 311,998 L 312,998 L 312,999 L 313,999 L 314,999 L 315,998 L 316,998 L 317,998 L 318,998 L 319,998 L 320,998 L 321,998 L 322,998 L 322,997 L 323,997 L 323,998 L 324,998 L 325,998 L 326,998 L 327,998 L 328,998 L 328,997 L 329,997 L 329,996 L 330,996 L 331,996 L 331,995 L 332,995 L 332,994 L 332,993 L 333,993 L 334,993 L 334,992 L 335,992 L 335,991 L 336,991 L 337,991 L 338,991 L 338,992 L 339,992 L 339,993 L 340,993 L 341,992 L 343,992 L 344,992 L 354,995 L 360,998 L 362,999 L 364,1001 L 379,994 L 391,988 L 406,984 L 423,1001 " /></g>
</svg>
