<?xml version="1.0" standalone="no"?><!DOCTYPE svg PUBLIC "-//W3C//DTD SVG 1.1//EN" "http://www.w3.org/Graphics/SVG/1.1/DTD/svg11.dtd"><svg xmlns="http://www.w3.org/2000/svg" viewBox="441 1010 152 102" version = "1.1">
<g id="51203" ><path d="M 514,1010 L 515,1010 L 516,1010 L 519,1011 L 520,1011 L 520,1013 L 521,1014 L 522,1015 L 528,1017 L 530,1018 L 531,1018 L 532,1018 L 533,1017 L 535,1017 L 537,1016 L 538,1016 L 540,1017 L 541,1017 L 542,1017 L 543,1018 L 544,1020 L 547,1023 L 554,1024 L 562,1022 L 565,1022 L 567,1025 L 567,1030 L 566,1030 L 564,1037 L 570,1041 L 573,1041 L 575,1037 L 576,1036 L 577,1034 L 578,1035 L 580,1036 L 581,1038 L 585,1038 L 587,1040 L 588,1041 L 589,1043 L 588,1045 L 588,1048 L 588,1050 L 588,1052 L 589,1055 L 589,1061 L 590,1061 L 591,1062 L 591,1063 L 592,1063 L 592,1064 L 591,1065 L 592,1066 L 592,1067 L 592,1068 L 592,1069 L 591,1073 L 592,1075 L 593,1077 L 593,1079 L 590,1079 L 590,1080 L 589,1080 L 588,1081 L 587,1081 L 587,1082 L 587,1083 L 586,1083 L 586,1084 L 586,1085 L 585,1085 L 585,1086 L 584,1086 L 583,1086 L 583,1087 L 583,1088 L 582,1088 L 581,1088 L 581,1089 L 580,1089 L 580,1090 L 579,1090 L 579,1089 L 578,1089 L 578,1090 L 577,1091 L 577,1092 L 576,1093 L 576,1094 L 575,1094 L 575,1093 L 574,1093 L 574,1094 L 573,1094 L 572,1094 L 571,1094 L 571,1093 L 570,1093 L 570,1092 L 569,1092 L 569,1091 L 569,1090 L 568,1089 L 568,1088 L 567,1088 L 566,1088 L 565,1088 L 564,1088 L 564,1087 L 563,1087 L 563,1088 L 563,1089 L 563,1090 L 563,1091 L 562,1091 L 562,1092 L 561,1092 L 559,1096 L 557,1098 L 555,1098 L 554,1098 L 552,1097 L 552,1098 L 551,1098 L 551,1100 L 550,1101 L 549,1104 L 550,1106 L 549,1109 L 546,1111 L 545,1111 L 544,1111 L 544,1112 L 543,1111 L 542,1111 L 542,1110 L 541,1110 L 541,1109 L 540,1109 L 540,1108 L 539,1108 L 538,1108 L 537,1108 L 536,1106 L 535,1106 L 535,1105 L 535,1104 L 534,1104 L 533,1103 L 532,1103 L 531,1102 L 531,1103 L 530,1103 L 529,1103 L 528,1103 L 528,1104 L 527,1104 L 526,1104 L 525,1104 L 524,1104 L 523,1104 L 521,1104 L 520,1104 L 519,1105 L 517,1105 L 516,1105 L 515,1104 L 515,1103 L 515,1102 L 514,1102 L 513,1101 L 512,1100 L 511,1100 L 511,1099 L 511,1098 L 512,1097 L 513,1097 L 513,1096 L 514,1096 L 514,1095 L 515,1095 L 515,1094 L 514,1093 L 514,1092 L 514,1091 L 513,1090 L 512,1090 L 512,1089 L 511,1088 L 510,1088 L 510,1087 L 509,1087 L 506,1086 L 502,1086 L 499,1083 L 497,1083 L 496,1082 L 494,1082 L 493,1082 L 492,1082 L 489,1082 L 487,1083 L 486,1083 L 484,1083 L 483,1084 L 482,1084 L 480,1084 L 478,1085 L 477,1085 L 476,1085 L 474,1085 L 473,1085 L 472,1085 L 471,1084 L 470,1084 L 468,1084 L 468,1085 L 465,1086 L 464,1086 L 463,1087 L 460,1088 L 459,1088 L 458,1088 L 455,1089 L 449,1090 L 448,1090 L 447,1086 L 446,1085 L 446,1083 L 446,1081 L 446,1080 L 444,1074 L 444,1068 L 441,1058 L 444,1049 L 445,1049 L 445,1048 L 446,1047 L 446,1046 L 446,1045 L 446,1044 L 446,1043 L 446,1042 L 447,1042 L 447,1041 L 447,1040 L 447,1039 L 447,1038 L 446,1038 L 446,1037 L 446,1036 L 446,1035 L 445,1034 L 445,1033 L 445,1032 L 444,1031 L 444,1030 L 443,1030 L 443,1029 L 442,1029 L 442,1028 L 442,1027 L 442,1026 L 442,1025 L 443,1024 L 444,1024 L 444,1023 L 445,1022 L 452,1017 L 456,1017 L 466,1016 L 483,1012 L 492,1013 L 506,1011 L 511,1010 L 512,1010 L 513,1010 L 514,1010 " /></g>
</svg>
