<?xml version="1.0" standalone="no"?><!DOCTYPE svg PUBLIC "-//W3C//DTD SVG 1.1//EN" "http://www.w3.org/Graphics/SVG/1.1/DTD/svg11.dtd"><svg xmlns="http://www.w3.org/2000/svg" viewBox="459 423 86 85" version = "1.1">
<g id="51302" ><path d="M 513,423 L 513,424 L 513,425 L 513,426 L 513,427 L 514,427 L 514,428 L 515,428 L 515,429 L 516,429 L 517,429 L 517,430 L 518,430 L 519,430 L 519,431 L 520,431 L 520,432 L 521,432 L 521,433 L 522,433 L 522,434 L 523,434 L 523,433 L 523,432 L 524,431 L 525,431 L 525,432 L 526,432 L 527,432 L 527,433 L 527,434 L 528,434 L 529,434 L 529,435 L 529,436 L 530,436 L 530,437 L 530,438 L 530,439 L 529,439 L 530,440 L 529,440 L 529,441 L 529,442 L 530,443 L 531,443 L 531,444 L 532,444 L 532,445 L 532,446 L 532,447 L 533,447 L 534,447 L 535,447 L 536,447 L 534,450 L 533,452 L 532,455 L 532,456 L 532,457 L 530,458 L 529,458 L 529,459 L 528,460 L 528,461 L 526,463 L 526,465 L 525,468 L 526,469 L 527,470 L 528,470 L 530,474 L 530,476 L 530,477 L 530,478 L 530,479 L 530,480 L 531,480 L 531,481 L 532,481 L 533,481 L 533,482 L 533,483 L 534,483 L 534,484 L 535,484 L 539,487 L 539,488 L 540,488 L 541,488 L 541,489 L 542,489 L 543,489 L 544,490 L 545,490 L 544,491 L 544,492 L 544,493 L 544,494 L 541,496 L 540,499 L 539,500 L 539,501 L 538,501 L 538,502 L 539,502 L 538,503 L 539,503 L 539,504 L 538,504 L 539,505 L 538,505 L 538,506 L 537,507 L 537,508 L 536,508 L 535,508 L 534,507 L 533,507 L 532,507 L 531,507 L 530,507 L 529,507 L 528,507 L 527,507 L 526,506 L 526,505 L 525,505 L 525,504 L 524,504 L 519,503 L 517,502 L 516,501 L 515,500 L 514,499 L 513,498 L 512,497 L 511,496 L 511,495 L 512,494 L 512,493 L 511,493 L 510,493 L 510,494 L 509,494 L 506,492 L 506,491 L 506,490 L 505,490 L 505,489 L 504,488 L 503,487 L 503,486 L 502,486 L 501,485 L 500,484 L 500,485 L 499,485 L 498,485 L 497,485 L 496,484 L 495,484 L 495,483 L 495,482 L 495,481 L 495,482 L 495,483 L 494,484 L 494,483 L 493,483 L 492,483 L 491,483 L 490,483 L 489,483 L 488,483 L 486,483 L 484,482 L 483,482 L 482,482 L 480,481 L 479,480 L 478,480 L 478,481 L 477,481 L 477,483 L 476,484 L 475,484 L 473,484 L 472,483 L 472,481 L 470,480 L 469,480 L 467,479 L 466,479 L 465,477 L 464,476 L 463,474 L 462,473 L 461,473 L 460,473 L 459,473 L 460,473 L 460,472 L 461,472 L 461,471 L 462,471 L 462,470 L 462,469 L 463,469 L 463,468 L 463,467 L 464,466 L 464,465 L 463,463 L 463,462 L 463,460 L 462,458 L 461,457 L 461,456 L 461,455 L 461,454 L 461,453 L 460,453 L 461,452 L 462,452 L 462,451 L 463,451 L 464,451 L 464,450 L 465,450 L 465,451 L 466,451 L 467,450 L 468,450 L 468,449 L 469,449 L 470,449 L 471,449 L 471,450 L 472,450 L 472,451 L 473,452 L 474,452 L 475,452 L 476,451 L 477,451 L 478,451 L 478,450 L 479,450 L 480,450 L 480,449 L 481,449 L 481,448 L 482,448 L 483,447 L 484,447 L 485,447 L 485,446 L 486,446 L 487,446 L 487,447 L 488,447 L 489,447 L 489,446 L 490,446 L 491,446 L 491,445 L 491,444 L 492,444 L 492,443 L 493,443 L 493,442 L 494,442 L 494,441 L 495,441 L 495,440 L 496,440 L 496,439 L 497,439 L 498,439 L 498,438 L 499,438 L 499,437 L 500,437 L 500,436 L 500,435 L 501,435 L 501,434 L 501,433 L 502,433 L 501,433 L 501,432 L 502,432 L 501,432 L 501,431 L 501,430 L 502,430 L 502,429 L 503,429 L 503,428 L 504,428 L 505,428 L 505,427 L 506,427 L 506,426 L 507,426 L 507,425 L 508,425 L 509,424 L 510,424 L 511,424 L 512,424 L 513,423 " /></g>
</svg>
