<?xml version="1.0" standalone="no"?><!DOCTYPE svg PUBLIC "-//W3C//DTD SVG 1.1//EN" "http://www.w3.org/Graphics/SVG/1.1/DTD/svg11.dtd"><svg xmlns="http://www.w3.org/2000/svg" viewBox="419 384 94 92" version = "1.1">
<g id="51301" ><path d="M 477,385 L 478,385 L 479,385 L 480,385 L 481,386 L 482,386 L 482,387 L 482,388 L 483,388 L 483,389 L 483,388 L 484,388 L 484,389 L 485,389 L 486,389 L 487,390 L 488,390 L 488,391 L 489,391 L 490,391 L 490,392 L 491,392 L 491,393 L 492,393 L 492,394 L 493,394 L 494,394 L 495,395 L 496,396 L 496,397 L 496,398 L 497,398 L 497,399 L 498,399 L 498,400 L 498,401 L 499,401 L 500,402 L 501,402 L 501,403 L 501,404 L 502,404 L 501,405 L 502,405 L 502,406 L 502,407 L 503,407 L 504,407 L 504,408 L 504,409 L 504,410 L 504,411 L 505,411 L 505,412 L 506,412 L 506,413 L 506,414 L 507,415 L 507,416 L 508,416 L 508,417 L 508,418 L 509,418 L 509,419 L 510,419 L 510,420 L 511,420 L 511,421 L 512,421 L 512,422 L 513,422 L 513,423 L 512,424 L 511,424 L 510,424 L 509,424 L 508,425 L 507,425 L 507,426 L 506,426 L 506,427 L 505,427 L 505,428 L 504,428 L 503,428 L 503,429 L 502,429 L 502,430 L 501,430 L 501,431 L 501,432 L 502,432 L 501,432 L 501,433 L 502,433 L 501,433 L 501,434 L 501,435 L 500,435 L 500,436 L 500,437 L 499,437 L 499,438 L 498,438 L 498,439 L 497,439 L 496,439 L 496,440 L 495,440 L 495,441 L 494,441 L 494,442 L 493,442 L 493,443 L 492,443 L 492,444 L 491,444 L 491,445 L 491,446 L 490,446 L 489,446 L 489,447 L 488,447 L 487,447 L 487,446 L 486,446 L 485,446 L 485,447 L 484,447 L 483,447 L 482,448 L 481,448 L 481,449 L 480,449 L 480,450 L 479,450 L 478,450 L 478,451 L 477,451 L 476,451 L 475,452 L 474,452 L 473,452 L 472,451 L 472,450 L 471,450 L 471,449 L 470,449 L 469,449 L 468,449 L 468,450 L 467,450 L 466,451 L 465,451 L 465,450 L 464,450 L 464,451 L 463,451 L 462,451 L 462,452 L 461,452 L 460,453 L 461,453 L 461,454 L 461,455 L 461,456 L 461,457 L 462,458 L 463,460 L 463,462 L 463,463 L 464,465 L 464,466 L 463,467 L 463,468 L 463,469 L 462,469 L 462,470 L 462,471 L 461,471 L 461,472 L 460,472 L 460,473 L 459,473 L 460,473 L 459,473 L 459,474 L 458,475 L 457,475 L 456,475 L 455,475 L 454,475 L 454,476 L 453,476 L 452,475 L 451,475 L 450,476 L 449,475 L 448,476 L 447,476 L 447,474 L 446,474 L 446,473 L 445,472 L 444,471 L 443,471 L 443,470 L 442,470 L 442,469 L 442,468 L 442,467 L 442,466 L 442,465 L 442,464 L 442,463 L 442,462 L 442,461 L 441,461 L 441,460 L 440,460 L 439,459 L 439,458 L 440,457 L 439,457 L 438,457 L 437,457 L 437,458 L 436,458 L 436,459 L 435,459 L 435,458 L 434,458 L 434,457 L 434,456 L 433,456 L 433,455 L 432,455 L 432,454 L 431,453 L 430,453 L 429,452 L 428,452 L 428,451 L 427,451 L 427,450 L 427,449 L 427,448 L 427,447 L 427,446 L 427,445 L 426,445 L 426,444 L 425,444 L 425,443 L 424,443 L 424,442 L 423,442 L 423,441 L 422,441 L 422,440 L 422,439 L 421,439 L 421,438 L 420,437 L 420,436 L 419,436 L 419,435 L 419,434 L 419,433 L 420,433 L 421,433 L 421,432 L 421,431 L 421,430 L 422,430 L 422,429 L 423,429 L 423,428 L 425,427 L 426,428 L 427,431 L 427,432 L 427,433 L 429,433 L 431,432 L 432,432 L 433,433 L 434,433 L 435,432 L 435,430 L 436,430 L 436,428 L 437,427 L 439,427 L 440,426 L 441,426 L 442,426 L 444,424 L 446,426 L 447,426 L 448,426 L 448,427 L 449,427 L 450,427 L 451,426 L 452,426 L 452,425 L 454,425 L 454,424 L 455,424 L 454,423 L 454,422 L 454,421 L 455,420 L 456,420 L 455,419 L 455,418 L 456,417 L 457,417 L 457,415 L 459,413 L 461,410 L 465,408 L 470,403 L 470,402 L 471,402 L 471,401 L 471,400 L 471,399 L 471,398 L 471,397 L 471,396 L 471,395 L 471,394 L 472,394 L 471,394 L 472,394 L 472,393 L 472,392 L 472,391 L 473,391 L 473,390 L 474,390 L 473,390 L 474,390 L 474,389 L 474,388 L 475,388 L 475,387 L 475,386 L 476,386 L 476,385 L 476,384 L 477,385 " /></g>
</svg>
