<?xml version="1.0" standalone="no"?><!DOCTYPE svg PUBLIC "-//W3C//DTD SVG 1.1//EN" "http://www.w3.org/Graphics/SVG/1.1/DTD/svg11.dtd"><svg xmlns="http://www.w3.org/2000/svg" viewBox="-229 998 213 364" version = "1.1">
<g id="51402" ><path d="M -173,1225 L -172,1225 L -166,1214 L -153,1199 L -152,1198 L -140,1185 L -139,1183 L -140,1183 L -142,1182 L -144,1180 L -162,1167 L -181,1047 L -181,1039 L -183,1033 L -184,1024 L -174,1019 L -173,1008 L -169,998 L -166,1002 L -161,1010 L -157,1015 L -151,1022 L -147,1029 L -147,1030 L -142,1031 L -139,1031 L -132,1034 L -127,1039 L -119,1041 L -118,1041 L -114,1044 L -109,1052 L -100,1057 L -94,1057 L -88,1056 L -87,1056 L -79,1055 L -79,1056 L -80,1057 L -79,1058 L -78,1057 L -77,1058 L -77,1059 L -76,1059 L -75,1060 L -74,1061 L -73,1062 L -72,1063 L -72,1064 L -71,1064 L -70,1063 L -69,1063 L -68,1063 L -67,1063 L -67,1062 L -66,1062 L -66,1061 L -65,1060 L -65,1059 L -65,1058 L -65,1057 L -52,1064 L -48,1066 L -42,1068 L -38,1069 L -32,1073 L -31,1073 L -31,1074 L -30,1074 L -29,1074 L -29,1075 L -28,1075 L -27,1075 L -27,1076 L -26,1077 L -25,1078 L -24,1078 L -23,1078 L -22,1078 L -21,1078 L -20,1078 L -19,1079 L -18,1079 L -18,1080 L -17,1080 L -17,1081 L -17,1082 L -16,1082 L -113,1293 L -157,1362 L -197,1339 L -201,1336 L -208,1333 L -209,1333 L -210,1333 L -210,1332 L -211,1332 L -211,1331 L -212,1331 L -212,1330 L -213,1330 L -213,1329 L -214,1329 L -215,1329 L -215,1328 L -216,1328 L -217,1328 L -217,1327 L -218,1327 L -219,1327 L -220,1326 L -220,1327 L -221,1327 L -221,1326 L -224,1325 L -226,1324 L -227,1324 L -228,1324 L -228,1323 L -229,1323 L -216,1312 L -210,1301 L -202,1283 L -192,1262 L -182,1241 L -179,1236 L -173,1226 L -173,1225 " /></g>
</svg>
