<?xml version="1.0" standalone="no"?><!DOCTYPE svg PUBLIC "-//W3C//DTD SVG 1.1//EN" "http://www.w3.org/Graphics/SVG/1.1/DTD/svg11.dtd"><svg xmlns="http://www.w3.org/2000/svg" viewBox="-420 931 281 405" version = "1.1">
<g id="51401" ><path d="M -179,1236 L -182,1241 L -192,1262 L -202,1283 L -210,1301 L -216,1312 L -229,1323 L -230,1323 L -231,1323 L -231,1324 L -232,1324 L -233,1324 L -234,1324 L -235,1324 L -235,1323 L -236,1323 L -237,1322 L -238,1321 L -239,1321 L -239,1320 L -239,1319 L -240,1318 L -241,1318 L -242,1317 L -243,1316 L -243,1315 L -244,1315 L -244,1314 L -245,1314 L -245,1313 L -245,1312 L -250,1313 L -251,1313 L -254,1314 L -262,1315 L -266,1314 L -281,1313 L -284,1312 L -284,1313 L -285,1313 L -285,1314 L -286,1314 L -286,1315 L -287,1316 L -288,1316 L -288,1317 L -289,1317 L -290,1317 L -291,1317 L -292,1317 L -293,1317 L -293,1318 L -294,1318 L -294,1319 L -295,1319 L -295,1320 L -296,1320 L -296,1321 L -297,1321 L -298,1321 L -298,1322 L -299,1322 L -300,1322 L -300,1323 L -301,1323 L -301,1324 L -302,1324 L -302,1325 L -303,1325 L -304,1328 L -304,1330 L -306,1333 L -308,1336 L -311,1330 L -324,1324 L -335,1318 L -352,1314 L -357,1308 L -359,1305 L -365,1304 L -384,1294 L -408,1274 L -409,1244 L -399,1243 L -382,1233 L -382,1229 L -384,1223 L -393,1220 L -394,1214 L -400,1203 L -400,1186 L -392,1180 L -397,1174 L -396,1169 L -403,1166 L -409,1163 L -416,1166 L -420,1164 L -419,1157 L -418,1154 L -417,1147 L -399,1144 L -393,1143 L -375,1137 L -356,1137 L -350,1137 L -345,1128 L -343,1121 L -338,1104 L -335,1095 L -339,1088 L -342,1084 L -340,1075 L -338,1069 L -359,1063 L -361,1063 L -369,1050 L -379,1044 L -384,1037 L -392,1036 L -390,1026 L -382,1023 L -369,1020 L -363,1008 L -361,1000 L -352,988 L -347,985 L -329,960 L -314,941 L -308,933 L -304,931 L -303,931 L -302,931 L -301,932 L -300,932 L -299,932 L -298,933 L -299,933 L -299,934 L -299,935 L -299,936 L -299,937 L -298,937 L -298,938 L -297,939 L -297,940 L -296,940 L -296,941 L -296,942 L -296,943 L -295,943 L -295,944 L -294,944 L -294,945 L -293,946 L -293,947 L -292,947 L -292,948 L -291,948 L -291,949 L -290,949 L -290,950 L -289,950 L -289,951 L -288,951 L -288,952 L -287,952 L -287,953 L -286,953 L -285,954 L -284,954 L -283,955 L -282,956 L -281,957 L -280,957 L -280,958 L -279,959 L -278,959 L -278,960 L -278,959 L -277,959 L -276,959 L -276,960 L -275,960 L -275,959 L -274,958 L -273,958 L -272,958 L -271,958 L -270,959 L -269,959 L -268,959 L -267,960 L -266,960 L -266,961 L -265,961 L -264,961 L -263,961 L -262,961 L -261,961 L -260,961 L -259,961 L -258,961 L -258,962 L -257,962 L -257,963 L -257,964 L -257,965 L -258,965 L -258,966 L -259,966 L -260,966 L -260,967 L -259,968 L -258,969 L -257,969 L -256,969 L -256,970 L -255,970 L -254,970 L -253,970 L -252,970 L -251,970 L -251,971 L -250,971 L -249,971 L -248,972 L -248,973 L -247,973 L -246,973 L -246,974 L -245,974 L -244,974 L -243,974 L -242,974 L -241,974 L -241,975 L -240,975 L -239,975 L -239,976 L -239,977 L -238,977 L -238,978 L -238,979 L -237,979 L -236,980 L -236,979 L -235,980 L -235,981 L -234,981 L -234,980 L -233,980 L -233,981 L -232,981 L -232,980 L -232,981 L -231,981 L -230,981 L -230,980 L -230,981 L -230,982 L -229,982 L -229,983 L -228,983 L -228,984 L -227,984 L -227,985 L -226,985 L -225,985 L -225,986 L -224,986 L -224,985 L -223,986 L -222,986 L -221,986 L -220,986 L -219,986 L -219,987 L -218,987 L -218,988 L -217,988 L -217,989 L -216,990 L -216,991 L -217,991 L -216,991 L -215,991 L -214,990 L -213,990 L -212,990 L -211,989 L -210,988 L -209,988 L -208,987 L -207,987 L -206,987 L -205,987 L -204,987 L -203,987 L -203,986 L -202,986 L -202,985 L -201,985 L -200,985 L -199,985 L -199,984 L -198,984 L -199,984 L -199,983 L -198,983 L -197,983 L -197,982 L -196,982 L -196,983 L -195,983 L -194,983 L -193,983 L -192,983 L -192,982 L -191,982 L -191,981 L -191,980 L -190,979 L -190,978 L -188,981 L -187,981 L -187,982 L -186,982 L -185,983 L -184,983 L -183,984 L -182,984 L -181,984 L -181,985 L -180,985 L -180,986 L -180,987 L -180,988 L -179,988 L -179,989 L -178,990 L -177,991 L -174,992 L -173,993 L -171,994 L -169,998 L -173,1008 L -174,1019 L -184,1024 L -183,1033 L -181,1039 L -181,1047 L -162,1167 L -144,1180 L -142,1182 L -140,1183 L -139,1183 L -140,1185 L -152,1198 L -153,1199 L -166,1214 L -172,1225 L -179,1236 " /></g>
</svg>
