<?xml version="1.0" standalone="no"?><!DOCTYPE svg PUBLIC "-//W3C//DTD SVG 1.1//EN" "http://www.w3.org/Graphics/SVG/1.1/DTD/svg11.dtd"><svg xmlns="http://www.w3.org/2000/svg" viewBox="467 1679 318 150" version = "1.1">
<g id="51501" ><path d="M 669,1680 L 669,1681 L 669,1682 L 670,1682 L 670,1683 L 671,1683 L 670,1683 L 670,1684 L 670,1685 L 671,1685 L 671,1684 L 672,1685 L 672,1686 L 672,1687 L 673,1687 L 672,1687 L 673,1687 L 673,1688 L 674,1688 L 675,1688 L 676,1688 L 676,1689 L 677,1689 L 677,1690 L 677,1691 L 676,1691 L 675,1691 L 675,1692 L 675,1693 L 674,1693 L 673,1694 L 673,1695 L 672,1695 L 671,1696 L 672,1696 L 673,1696 L 673,1697 L 674,1697 L 675,1698 L 676,1697 L 677,1697 L 678,1697 L 678,1698 L 677,1698 L 676,1699 L 675,1699 L 675,1700 L 675,1701 L 676,1702 L 676,1703 L 677,1704 L 678,1704 L 678,1705 L 679,1705 L 679,1706 L 678,1707 L 678,1708 L 679,1708 L 680,1709 L 681,1709 L 681,1710 L 682,1710 L 682,1711 L 682,1712 L 681,1712 L 681,1713 L 682,1713 L 683,1713 L 684,1713 L 684,1712 L 685,1712 L 685,1713 L 686,1713 L 685,1714 L 685,1715 L 685,1716 L 685,1717 L 686,1717 L 687,1717 L 688,1717 L 688,1716 L 689,1716 L 689,1717 L 688,1717 L 688,1718 L 688,1719 L 688,1720 L 687,1720 L 686,1720 L 686,1721 L 686,1722 L 686,1723 L 686,1724 L 685,1724 L 685,1725 L 686,1725 L 686,1726 L 686,1727 L 687,1727 L 687,1728 L 687,1729 L 686,1730 L 687,1730 L 688,1730 L 688,1731 L 689,1731 L 688,1732 L 689,1733 L 689,1734 L 690,1734 L 690,1735 L 691,1735 L 691,1736 L 692,1736 L 693,1736 L 693,1737 L 694,1737 L 694,1736 L 695,1736 L 696,1736 L 696,1737 L 697,1737 L 698,1737 L 699,1736 L 700,1736 L 701,1736 L 702,1736 L 703,1736 L 703,1735 L 704,1736 L 705,1736 L 705,1737 L 705,1738 L 706,1738 L 707,1738 L 707,1739 L 708,1739 L 708,1738 L 709,1738 L 709,1739 L 708,1739 L 709,1740 L 709,1739 L 710,1740 L 709,1740 L 710,1740 L 710,1741 L 711,1741 L 711,1742 L 712,1742 L 712,1743 L 711,1743 L 710,1743 L 711,1743 L 711,1744 L 712,1744 L 713,1744 L 714,1744 L 714,1743 L 713,1743 L 713,1742 L 713,1741 L 714,1741 L 714,1740 L 714,1741 L 714,1742 L 715,1742 L 715,1743 L 714,1744 L 715,1745 L 715,1746 L 714,1746 L 714,1747 L 714,1748 L 713,1748 L 713,1749 L 712,1749 L 712,1750 L 713,1750 L 713,1751 L 712,1751 L 712,1752 L 711,1752 L 710,1752 L 709,1752 L 708,1752 L 708,1753 L 707,1753 L 707,1752 L 706,1752 L 706,1753 L 706,1754 L 706,1755 L 706,1756 L 705,1756 L 705,1757 L 706,1757 L 706,1758 L 707,1759 L 707,1760 L 708,1760 L 708,1761 L 708,1762 L 708,1763 L 709,1764 L 710,1764 L 710,1765 L 711,1765 L 711,1766 L 712,1766 L 712,1767 L 713,1767 L 713,1768 L 714,1768 L 715,1769 L 716,1769 L 717,1769 L 718,1770 L 719,1770 L 719,1771 L 720,1771 L 720,1772 L 721,1772 L 721,1773 L 722,1773 L 723,1773 L 724,1773 L 724,1774 L 725,1774 L 726,1774 L 726,1775 L 727,1775 L 727,1776 L 728,1776 L 728,1777 L 729,1777 L 729,1778 L 730,1778 L 731,1778 L 731,1779 L 732,1779 L 732,1780 L 733,1780 L 734,1780 L 735,1781 L 736,1781 L 737,1781 L 737,1782 L 738,1782 L 739,1783 L 740,1783 L 741,1783 L 741,1784 L 742,1784 L 743,1784 L 744,1784 L 745,1784 L 746,1784 L 747,1784 L 748,1783 L 749,1783 L 750,1783 L 751,1783 L 751,1782 L 752,1782 L 753,1782 L 754,1782 L 755,1782 L 756,1782 L 757,1782 L 758,1782 L 759,1782 L 759,1783 L 760,1783 L 761,1784 L 762,1784 L 763,1785 L 764,1785 L 764,1786 L 764,1787 L 765,1787 L 766,1788 L 767,1789 L 768,1789 L 769,1790 L 769,1789 L 770,1790 L 771,1790 L 772,1790 L 773,1790 L 773,1791 L 774,1791 L 774,1792 L 775,1792 L 775,1793 L 776,1793 L 777,1794 L 778,1795 L 778,1796 L 779,1796 L 780,1796 L 781,1796 L 782,1796 L 783,1796 L 784,1796 L 784,1797 L 785,1798 L 785,1800 L 783,1810 L 781,1818 L 783,1820 L 728,1821 L 710,1821 L 706,1821 L 704,1821 L 703,1822 L 702,1822 L 700,1822 L 699,1822 L 697,1822 L 696,1822 L 694,1822 L 693,1822 L 692,1822 L 691,1822 L 690,1822 L 689,1822 L 688,1822 L 687,1822 L 686,1822 L 686,1823 L 685,1823 L 684,1823 L 684,1824 L 683,1824 L 682,1824 L 681,1823 L 680,1823 L 679,1823 L 678,1823 L 677,1823 L 676,1822 L 675,1822 L 674,1822 L 673,1822 L 672,1822 L 672,1821 L 671,1821 L 669,1821 L 668,1821 L 666,1820 L 665,1820 L 664,1820 L 663,1820 L 662,1819 L 661,1819 L 660,1819 L 659,1819 L 658,1818 L 657,1818 L 656,1818 L 654,1818 L 653,1817 L 652,1817 L 652,1818 L 651,1818 L 651,1819 L 651,1820 L 650,1820 L 650,1821 L 650,1822 L 650,1821 L 650,1822 L 649,1822 L 650,1822 L 649,1822 L 649,1823 L 650,1823 L 650,1822 L 650,1823 L 650,1824 L 649,1824 L 649,1825 L 648,1825 L 648,1824 L 648,1825 L 647,1825 L 647,1824 L 647,1825 L 647,1824 L 646,1824 L 645,1824 L 644,1824 L 643,1824 L 643,1825 L 643,1824 L 642,1824 L 641,1824 L 640,1824 L 640,1825 L 639,1825 L 639,1824 L 638,1824 L 637,1824 L 637,1825 L 636,1825 L 636,1826 L 635,1827 L 634,1827 L 633,1826 L 633,1827 L 632,1827 L 631,1828 L 630,1827 L 629,1827 L 628,1827 L 627,1827 L 627,1828 L 626,1828 L 626,1829 L 625,1829 L 624,1829 L 623,1829 L 622,1829 L 621,1829 L 620,1829 L 619,1829 L 618,1829 L 617,1829 L 616,1829 L 615,1829 L 615,1828 L 614,1828 L 614,1827 L 613,1827 L 613,1826 L 612,1826 L 611,1826 L 610,1826 L 610,1825 L 609,1825 L 608,1825 L 607,1825 L 606,1825 L 606,1824 L 605,1824 L 605,1825 L 604,1826 L 603,1826 L 603,1827 L 602,1827 L 602,1828 L 601,1828 L 600,1828 L 599,1828 L 598,1828 L 597,1828 L 596,1828 L 596,1829 L 595,1829 L 595,1828 L 594,1828 L 593,1828 L 593,1827 L 592,1827 L 592,1826 L 591,1826 L 590,1826 L 589,1825 L 588,1825 L 588,1824 L 587,1824 L 586,1824 L 586,1823 L 585,1823 L 585,1822 L 584,1822 L 585,1822 L 584,1822 L 584,1821 L 583,1821 L 583,1820 L 582,1820 L 582,1819 L 581,1819 L 580,1819 L 580,1818 L 579,1817 L 578,1817 L 577,1817 L 576,1817 L 575,1817 L 573,1815 L 572,1813 L 570,1811 L 569,1809 L 567,1807 L 565,1805 L 564,1804 L 563,1802 L 561,1799 L 559,1797 L 557,1795 L 556,1794 L 554,1791 L 551,1789 L 551,1788 L 548,1785 L 546,1782 L 544,1779 L 535,1769 L 527,1768 L 518,1767 L 513,1767 L 499,1765 L 494,1765 L 495,1756 L 495,1749 L 484,1736 L 467,1731 L 468,1729 L 471,1716 L 470,1713 L 470,1711 L 472,1711 L 478,1707 L 479,1708 L 480,1708 L 480,1709 L 480,1710 L 481,1710 L 482,1710 L 483,1710 L 484,1711 L 485,1711 L 486,1711 L 487,1711 L 488,1711 L 488,1710 L 489,1709 L 490,1709 L 491,1709 L 492,1709 L 492,1708 L 493,1708 L 494,1708 L 494,1709 L 494,1710 L 494,1711 L 494,1712 L 494,1713 L 494,1714 L 495,1715 L 495,1716 L 496,1717 L 496,1719 L 497,1719 L 498,1722 L 499,1725 L 503,1727 L 505,1727 L 506,1728 L 509,1728 L 513,1731 L 517,1732 L 518,1732 L 519,1732 L 520,1732 L 522,1732 L 523,1732 L 524,1733 L 525,1733 L 526,1734 L 527,1734 L 528,1735 L 529,1735 L 531,1736 L 532,1736 L 533,1736 L 534,1737 L 535,1737 L 536,1737 L 537,1736 L 538,1736 L 540,1736 L 540,1735 L 540,1731 L 539,1731 L 539,1729 L 539,1728 L 540,1727 L 541,1726 L 543,1725 L 546,1724 L 548,1723 L 550,1722 L 552,1721 L 553,1720 L 554,1720 L 556,1719 L 558,1719 L 559,1719 L 560,1719 L 561,1719 L 562,1719 L 563,1719 L 564,1718 L 565,1718 L 566,1718 L 566,1717 L 567,1717 L 568,1717 L 568,1718 L 569,1718 L 569,1717 L 570,1717 L 570,1716 L 571,1715 L 572,1715 L 572,1714 L 573,1714 L 574,1714 L 575,1714 L 576,1714 L 576,1715 L 577,1715 L 578,1715 L 579,1715 L 579,1716 L 580,1716 L 580,1717 L 581,1717 L 582,1717 L 583,1717 L 584,1717 L 585,1717 L 586,1717 L 587,1717 L 587,1716 L 588,1716 L 588,1715 L 589,1715 L 589,1714 L 590,1714 L 591,1714 L 591,1713 L 592,1713 L 593,1713 L 594,1713 L 594,1712 L 595,1712 L 594,1711 L 594,1710 L 593,1710 L 593,1709 L 592,1709 L 592,1708 L 593,1708 L 594,1708 L 595,1708 L 596,1708 L 597,1709 L 598,1709 L 599,1709 L 599,1710 L 600,1710 L 600,1709 L 601,1709 L 601,1708 L 602,1708 L 602,1707 L 601,1706 L 601,1703 L 601,1697 L 600,1695 L 601,1693 L 600,1692 L 600,1690 L 599,1687 L 600,1686 L 602,1686 L 604,1686 L 607,1685 L 609,1686 L 610,1687 L 613,1688 L 614,1686 L 615,1684 L 615,1683 L 615,1682 L 616,1681 L 619,1681 L 623,1681 L 626,1680 L 627,1680 L 629,1680 L 630,1680 L 632,1681 L 634,1682 L 635,1682 L 638,1682 L 642,1681 L 643,1681 L 648,1680 L 650,1680 L 655,1680 L 657,1680 L 659,1680 L 661,1680 L 663,1680 L 665,1680 L 666,1680 L 668,1679 L 668,1680 L 669,1680 " /></g>
</svg>
