<?xml version="1.0" standalone="no"?><!DOCTYPE svg PUBLIC "-//W3C//DTD SVG 1.1//EN" "http://www.w3.org/Graphics/SVG/1.1/DTD/svg11.dtd"><svg xmlns="http://www.w3.org/2000/svg" viewBox="-73 1484 239 258" version = "1.1">
<g id="51601" ><path d="M 166,1692 L 160,1716 L 160,1721 L 145,1737 L 141,1742 L 122,1736 L 111,1734 L 81,1720 L 50,1700 L 49,1698 L 43,1689 L 38,1688 L 32,1686 L 25,1681 L 13,1667 L 3,1657 L -15,1637 L -17,1636 L -30,1630 L -58,1575 L -65,1547 L -66,1544 L -73,1503 L -65,1490 L -56,1484 L -35,1494 L -20,1485 L -14,1489 L -9,1498 L -3,1508 L -3,1520 L 0,1528 L 12,1546 L 17,1564 L 19,1570 L 47,1602 L 52,1611 L 58,1616 L 87,1627 L 92,1629 L 132,1657 L 166,1692 " /></g>
</svg>
