<svg xmlns="http://www.w3.org/2000/svg" viewBox="705 1418 1060 670">
  <g class="mapa">
    <g id="601">
      <path id="60101" d="M 980,1537 L 981,1537 L 982,1537 L 984,1537 L 986,1539 L 985,1543 L 983,1551 L 984,1552 L 991,1552 L 993,1551 L 995,1551 L 998,1551 L 999,1553 L 1000,1556 L 999,1557 L 999,1559 L 999,1561 L 1000,1563 L 1002,1566 L 1007,1566 L 1012,1568 L 1016,1571 L 1017,1570 L 1019,1570 L 1020,1571 L 1021,1572 L 1022,1573 L 1023,1572 L 1024,1572 L 1024,1571 L 1025,1571 L 1025,1570 L 1025,1569 L 1025,1568 L 1026,1568 L 1026,1567 L 1025,1567 L 1026,1567 L 1026,1566 L 1027,1566 L 1028,1566 L 1028,1565 L 1028,1566 L 1029,1566 L 1029,1565 L 1030,1565 L 1030,1564 L 1031,1564 L 1032,1563 L 1033,1563 L 1033,1562 L 1034,1562 L 1034,1561 L 1034,1560 L 1035,1560 L 1034,1560 L 1034,1561 L 1035,1561 L 1035,1562 L 1036,1563 L 1036,1564 L 1037,1564 L 1038,1564 L 1038,1565 L 1039,1565 L 1039,1566 L 1040,1566 L 1041,1567 L 1042,1567 L 1043,1567 L 1044,1566 L 1045,1566 L 1046,1566 L 1046,1565 L 1047,1565 L 1047,1564 L 1048,1564 L 1048,1565 L 1048,1564 L 1049,1564 L 1049,1565 L 1050,1565 L 1051,1564 L 1051,1565 L 1052,1565 L 1053,1565 L 1054,1564 L 1055,1564 L 1056,1564 L 1057,1564 L 1058,1564 L 1059,1564 L 1060,1564 L 1061,1564 L 1061,1563 L 1062,1563 L 1062,1562 L 1063,1562 L 1064,1562 L 1065,1561 L 1064,1563 L 1064,1565 L 1062,1565 L 1062,1568 L 1061,1569 L 1061,1571 L 1061,1572 L 1060,1574 L 1060,1577 L 1061,1578 L 1062,1579 L 1058,1586 L 1052,1586 L 1051,1586 L 1050,1586 L 1049,1586 L 1048,1586 L 1048,1587 L 1048,1588 L 1048,1589 L 1047,1589 L 1047,1590 L 1046,1590 L 1046,1591 L 1045,1591 L 1045,1592 L 1044,1592 L 1044,1593 L 1045,1593 L 1044,1593 L 1045,1593 L 1044,1593 L 1044,1594 L 1045,1595 L 1045,1596 L 1044,1596 L 1043,1596 L 1043,1597 L 1042,1597 L 1042,1598 L 1041,1598 L 1040,1598 L 1039,1598 L 1039,1599 L 1038,1602 L 1038,1604 L 1036,1606 L 1036,1609 L 1036,1611 L 1037,1611 L 1037,1612 L 1037,1613 L 1038,1613 L 1038,1614 L 1039,1614 L 1040,1614 L 1041,1614 L 1041,1613 L 1042,1613 L 1042,1614 L 1043,1614 L 1043,1612 L 1045,1607 L 1050,1608 L 1052,1609 L 1053,1614 L 1057,1616 L 1059,1618 L 1060,1621 L 1060,1624 L 1059,1625 L 1059,1626 L 1059,1628 L 1058,1630 L 1059,1632 L 1066,1638 L 1070,1642 L 1072,1650 L 1071,1655 L 1068,1658 L 1066,1661 L 1064,1664 L 1065,1667 L 1066,1668 L 1066,1669 L 1067,1669 L 1067,1670 L 1067,1671 L 1066,1671 L 1066,1672 L 1066,1673 L 1065,1673 L 1065,1674 L 1065,1675 L 1065,1676 L 1065,1677 L 1065,1678 L 1065,1679 L 1065,1680 L 1065,1681 L 1064,1681 L 1064,1682 L 1064,1683 L 1063,1683 L 1063,1684 L 1063,1685 L 1064,1685 L 1064,1686 L 1063,1686 L 1064,1686 L 1064,1687 L 1064,1688 L 1064,1689 L 1064,1690 L 1064,1691 L 1064,1692 L 1065,1692 L 1065,1693 L 1065,1694 L 1065,1695 L 1064,1695 L 1064,1696 L 1063,1696 L 1063,1697 L 1063,1698 L 1063,1699 L 1062,1699 L 1062,1700 L 1061,1700 L 1061,1701 L 1062,1701 L 1061,1701 L 1061,1702 L 1061,1703 L 1060,1703 L 1060,1704 L 1060,1705 L 1060,1706 L 1059,1706 L 1059,1707 L 1059,1708 L 1060,1708 L 1059,1709 L 1059,1710 L 1059,1711 L 1059,1712 L 1059,1713 L 1059,1714 L 1058,1714 L 1058,1715 L 1058,1716 L 1059,1716 L 1059,1717 L 1060,1717 L 1060,1718 L 1060,1719 L 1061,1719 L 1061,1720 L 1062,1721 L 1061,1721 L 1062,1721 L 1062,1722 L 1063,1722 L 1063,1723 L 1063,1724 L 1064,1724 L 1063,1725 L 1062,1725 L 1062,1726 L 1063,1726 L 1063,1727 L 1063,1728 L 1062,1728 L 1062,1729 L 1063,1729 L 1062,1729 L 1062,1730 L 1063,1731 L 1062,1731 L 1061,1731 L 1060,1732 L 1060,1731 L 1059,1731 L 1059,1730 L 1058,1730 L 1057,1730 L 1057,1729 L 1056,1728 L 1056,1727 L 1055,1727 L 1054,1727 L 1053,1727 L 1052,1727 L 1051,1726 L 1050,1727 L 1048,1727 L 1047,1727 L 1047,1728 L 1046,1728 L 1046,1729 L 1045,1729 L 1044,1729 L 1043,1730 L 1041,1733 L 1039,1736 L 1037,1739 L 1036,1741 L 1035,1742 L 1034,1743 L 1033,1743 L 1031,1744 L 1030,1745 L 1029,1746 L 1028,1746 L 1027,1746 L 1026,1746 L 1024,1746 L 1023,1746 L 1022,1746 L 1022,1745 L 1021,1745 L 1020,1746 L 1020,1747 L 1019,1747 L 1018,1747 L 1017,1747 L 1017,1746 L 1016,1746 L 1015,1746 L 1014,1746 L 1014,1745 L 1013,1744 L 1013,1743 L 1013,1742 L 1013,1741 L 1013,1740 L 1014,1740 L 1014,1739 L 1014,1738 L 1014,1737 L 1014,1736 L 1015,1736 L 1015,1735 L 1016,1735 L 1016,1734 L 1016,1733 L 1017,1733 L 1016,1733 L 1016,1732 L 1015,1732 L 1014,1731 L 1015,1731 L 1014,1731 L 1014,1730 L 1014,1729 L 1014,1728 L 1014,1727 L 1014,1726 L 1015,1726 L 1015,1725 L 1015,1724 L 1016,1724 L 1016,1723 L 1016,1722 L 1016,1721 L 1016,1720 L 1016,1718 L 1015,1717 L 1013,1717 L 1010,1718 L 1009,1717 L 1009,1716 L 1011,1713 L 1010,1710 L 1011,1705 L 1014,1695 L 1014,1694 L 1015,1694 L 1015,1693 L 1015,1692 L 1016,1692 L 1017,1692 L 1017,1691 L 1018,1691 L 1018,1690 L 1019,1690 L 1018,1690 L 1018,1689 L 1018,1688 L 1019,1688 L 1019,1687 L 1018,1687 L 1019,1687 L 1018,1687 L 1018,1686 L 1017,1686 L 1017,1687 L 1017,1688 L 1016,1688 L 1015,1688 L 1015,1687 L 1015,1686 L 1015,1685 L 1015,1684 L 1014,1684 L 1015,1684 L 1015,1683 L 1014,1683 L 1015,1683 L 1015,1682 L 1016,1682 L 1015,1681 L 1015,1680 L 1014,1680 L 1013,1680 L 1012,1679 L 1012,1678 L 1011,1678 L 1011,1677 L 1010,1677 L 1009,1676 L 1008,1676 L 1008,1675 L 1008,1674 L 1007,1674 L 1007,1673 L 1006,1673 L 1005,1673 L 1004,1671 L 1003,1670 L 999,1669 L 999,1668 L 988,1665 L 988,1664 L 987,1664 L 986,1664 L 985,1664 L 984,1664 L 983,1664 L 983,1663 L 982,1663 L 981,1663 L 980,1663 L 979,1664 L 978,1663 L 976,1663 L 975,1663 L 973,1663 L 972,1664 L 971,1665 L 971,1666 L 970,1666 L 970,1667 L 969,1667 L 968,1667 L 967,1667 L 966,1667 L 966,1666 L 965,1666 L 965,1667 L 965,1668 L 966,1668 L 966,1669 L 965,1669 L 964,1669 L 964,1668 L 964,1667 L 964,1666 L 963,1666 L 963,1665 L 963,1664 L 962,1664 L 962,1663 L 961,1663 L 960,1663 L 959,1663 L 959,1662 L 958,1662 L 958,1661 L 957,1661 L 956,1661 L 955,1661 L 954,1661 L 953,1661 L 952,1661 L 951,1661 L 951,1662 L 950,1662 L 950,1663 L 950,1664 L 949,1665 L 948,1666 L 948,1667 L 947,1667 L 947,1668 L 946,1668 L 946,1669 L 946,1670 L 945,1671 L 945,1672 L 943,1673 L 942,1672 L 941,1672 L 940,1673 L 939,1673 L 938,1674 L 938,1673 L 936,1674 L 935,1673 L 935,1672 L 934,1672 L 934,1671 L 933,1670 L 932,1671 L 929,1671 L 929,1673 L 928,1673 L 928,1675 L 929,1675 L 928,1677 L 927,1678 L 926,1679 L 925,1680 L 924,1681 L 924,1682 L 922,1685 L 919,1687 L 919,1688 L 918,1689 L 917,1691 L 910,1692 L 906,1694 L 899,1693 L 895,1691 L 891,1698 L 894,1700 L 894,1701 L 894,1702 L 894,1703 L 892,1704 L 892,1706 L 891,1709 L 890,1710 L 889,1711 L 887,1711 L 884,1712 L 881,1711 L 878,1709 L 876,1710 L 874,1710 L 871,1710 L 869,1710 L 869,1711 L 864,1716 L 861,1717 L 859,1716 L 858,1717 L 857,1716 L 855,1716 L 855,1717 L 853,1718 L 851,1719 L 849,1715 L 848,1713 L 848,1711 L 848,1709 L 848,1708 L 846,1707 L 846,1703 L 847,1702 L 847,1700 L 852,1697 L 852,1696 L 852,1695 L 850,1690 L 851,1688 L 851,1686 L 854,1679 L 852,1677 L 853,1677 L 854,1676 L 856,1676 L 856,1675 L 857,1674 L 857,1673 L 857,1672 L 857,1671 L 857,1670 L 857,1669 L 858,1669 L 858,1668 L 858,1667 L 859,1667 L 859,1666 L 859,1665 L 860,1665 L 861,1665 L 861,1664 L 861,1663 L 861,1662 L 861,1661 L 860,1661 L 860,1660 L 861,1660 L 868,1660 L 870,1659 L 872,1659 L 872,1657 L 873,1656 L 874,1655 L 874,1653 L 875,1651 L 876,1652 L 879,1652 L 880,1652 L 884,1652 L 886,1651 L 887,1649 L 890,1648 L 891,1648 L 892,1648 L 895,1648 L 896,1647 L 899,1645 L 901,1645 L 902,1646 L 904,1646 L 905,1646 L 907,1645 L 909,1643 L 909,1642 L 911,1641 L 912,1639 L 913,1639 L 914,1638 L 916,1637 L 917,1635 L 917,1634 L 920,1632 L 920,1631 L 920,1629 L 919,1627 L 919,1626 L 920,1626 L 920,1625 L 921,1625 L 922,1624 L 923,1624 L 924,1624 L 925,1624 L 926,1624 L 926,1623 L 927,1623 L 927,1622 L 927,1621 L 927,1620 L 927,1619 L 927,1618 L 928,1618 L 928,1617 L 928,1616 L 928,1615 L 929,1615 L 929,1614 L 930,1613 L 931,1613 L 932,1612 L 933,1611 L 933,1610 L 934,1610 L 935,1609 L 936,1608 L 936,1607 L 937,1607 L 937,1606 L 937,1605 L 938,1605 L 938,1604 L 939,1604 L 939,1603 L 939,1602 L 940,1602 L 940,1601 L 941,1601 L 940,1600 L 941,1600 L 941,1599 L 942,1599 L 942,1598 L 942,1597 L 943,1596 L 942,1595 L 942,1594 L 942,1593 L 942,1592 L 942,1591 L 942,1590 L 943,1590 L 943,1589 L 944,1589 L 944,1588 L 945,1588 L 946,1588 L 946,1587 L 947,1587 L 948,1587 L 948,1586 L 949,1586 L 950,1586 L 951,1586 L 951,1585 L 952,1585 L 952,1586 L 953,1586 L 954,1586 L 955,1586 L 956,1586 L 957,1585 L 958,1585 L 959,1585 L 960,1585 L 961,1585 L 961,1584 L 962,1584 L 962,1583 L 962,1582 L 963,1582 L 963,1580 L 963,1579 L 964,1577 L 964,1576 L 964,1572 L 965,1572 L 966,1572 L 967,1567 L 966,1565 L 968,1565 L 972,1564 L 972,1563 L 972,1560 L 972,1559 L 972,1558 L 971,1556 L 970,1553 L 969,1548 L 971,1546 L 972,1546 L 973,1544 L 973,1542 L 975,1540 L 975,1539 L 976,1539 L 976,1538 L 976,1537 L 976,1536 L 977,1536 L 978,1536 L 979,1536 L 980,1537"/>
    </g>
    <g id="602">
      <path id="60201" d="M 1015,1717 L 1016,1718 L 1016,1720 L 1016,1721 L 1016,1722 L 1016,1723 L 1016,1724 L 1015,1724 L 1015,1725 L 1015,1726 L 1014,1726 L 1014,1727 L 1014,1728 L 1014,1729 L 1014,1730 L 1014,1731 L 1015,1731 L 1014,1731 L 1015,1732 L 1016,1732 L 1016,1733 L 1017,1733 L 1016,1733 L 1016,1734 L 1016,1735 L 1015,1735 L 1015,1736 L 1014,1736 L 1014,1737 L 1014,1738 L 1014,1739 L 1014,1740 L 1013,1740 L 1013,1741 L 1013,1742 L 1013,1743 L 1013,1744 L 1014,1745 L 1014,1746 L 1015,1746 L 1016,1746 L 1017,1746 L 1017,1747 L 1018,1747 L 1019,1747 L 1020,1747 L 1020,1746 L 1021,1745 L 1022,1745 L 1022,1746 L 1023,1746 L 1024,1746 L 1026,1746 L 1027,1746 L 1028,1746 L 1029,1746 L 1030,1745 L 1031,1744 L 1033,1743 L 1034,1743 L 1035,1742 L 1036,1741 L 1037,1739 L 1039,1736 L 1041,1733 L 1043,1730 L 1044,1729 L 1045,1729 L 1046,1729 L 1046,1728 L 1047,1728 L 1047,1727 L 1048,1727 L 1050,1727 L 1051,1726 L 1052,1727 L 1053,1727 L 1054,1727 L 1055,1727 L 1056,1727 L 1056,1728 L 1057,1729 L 1057,1730 L 1058,1730 L 1059,1730 L 1059,1731 L 1060,1731 L 1060,1732 L 1061,1732 L 1061,1733 L 1061,1734 L 1061,1735 L 1061,1736 L 1061,1737 L 1062,1737 L 1063,1737 L 1063,1738 L 1063,1739 L 1062,1739 L 1063,1740 L 1063,1741 L 1063,1742 L 1062,1742 L 1062,1743 L 1061,1743 L 1060,1743 L 1060,1744 L 1061,1745 L 1061,1746 L 1060,1746 L 1060,1747 L 1060,1748 L 1061,1748 L 1062,1748 L 1062,1749 L 1061,1750 L 1061,1751 L 1061,1752 L 1061,1753 L 1061,1754 L 1061,1755 L 1061,1756 L 1060,1756 L 1060,1757 L 1060,1758 L 1060,1759 L 1060,1760 L 1060,1761 L 1060,1762 L 1060,1763 L 1061,1763 L 1062,1764 L 1062,1765 L 1062,1766 L 1063,1766 L 1063,1767 L 1064,1768 L 1063,1768 L 1064,1769 L 1065,1769 L 1065,1770 L 1065,1771 L 1066,1771 L 1066,1772 L 1066,1773 L 1067,1773 L 1068,1773 L 1069,1773 L 1069,1774 L 1069,1775 L 1069,1776 L 1069,1777 L 1069,1776 L 1070,1776 L 1071,1776 L 1072,1776 L 1073,1775 L 1074,1775 L 1074,1774 L 1075,1774 L 1076,1775 L 1077,1774 L 1078,1774 L 1078,1775 L 1079,1775 L 1080,1775 L 1081,1775 L 1081,1776 L 1080,1776 L 1080,1777 L 1080,1778 L 1081,1778 L 1081,1779 L 1080,1779 L 1080,1780 L 1080,1779 L 1079,1779 L 1079,1778 L 1078,1778 L 1077,1779 L 1077,1780 L 1078,1780 L 1078,1781 L 1079,1781 L 1079,1782 L 1080,1782 L 1080,1783 L 1079,1783 L 1078,1783 L 1078,1782 L 1078,1783 L 1077,1783 L 1077,1784 L 1077,1785 L 1076,1785 L 1076,1786 L 1077,1787 L 1078,1788 L 1078,1789 L 1077,1789 L 1076,1789 L 1076,1790 L 1076,1791 L 1077,1791 L 1077,1792 L 1078,1792 L 1077,1793 L 1077,1794 L 1076,1793 L 1076,1794 L 1075,1794 L 1076,1795 L 1077,1795 L 1078,1795 L 1078,1794 L 1079,1794 L 1080,1794 L 1080,1795 L 1079,1796 L 1080,1796 L 1081,1796 L 1082,1796 L 1083,1796 L 1084,1796 L 1085,1796 L 1085,1797 L 1084,1797 L 1084,1798 L 1084,1799 L 1085,1800 L 1085,1801 L 1085,1802 L 1084,1803 L 1083,1804 L 1083,1805 L 1083,1806 L 1083,1807 L 1082,1808 L 1082,1809 L 1081,1809 L 1080,1809 L 1080,1808 L 1079,1808 L 1079,1809 L 1079,1810 L 1079,1811 L 1079,1812 L 1079,1813 L 1079,1814 L 1079,1815 L 1079,1816 L 1078,1816 L 1078,1817 L 1078,1818 L 1079,1818 L 1079,1819 L 1078,1819 L 1077,1818 L 1077,1819 L 1076,1819 L 1076,1820 L 1076,1821 L 1076,1822 L 1076,1823 L 1076,1824 L 1077,1824 L 1077,1825 L 1077,1826 L 1077,1827 L 1077,1828 L 1076,1829 L 1076,1830 L 1076,1831 L 1075,1832 L 1074,1832 L 1074,1833 L 1075,1833 L 1076,1833 L 1076,1834 L 1076,1835 L 1077,1836 L 1078,1836 L 1079,1836 L 1079,1837 L 1080,1837 L 1080,1838 L 1081,1838 L 1081,1839 L 1082,1839 L 1083,1839 L 1084,1838 L 1085,1838 L 1086,1838 L 1087,1838 L 1087,1837 L 1087,1838 L 1088,1838 L 1088,1839 L 1089,1839 L 1090,1839 L 1091,1839 L 1091,1838 L 1092,1838 L 1092,1839 L 1092,1840 L 1093,1840 L 1093,1841 L 1093,1842 L 1094,1842 L 1095,1842 L 1096,1842 L 1097,1842 L 1097,1843 L 1098,1843 L 1099,1843 L 1099,1842 L 1100,1842 L 1101,1842 L 1101,1841 L 1102,1841 L 1103,1841 L 1104,1840 L 1104,1841 L 1105,1841 L 1105,1842 L 1106,1842 L 1107,1842 L 1107,1841 L 1107,1840 L 1106,1840 L 1106,1839 L 1105,1839 L 1105,1838 L 1105,1837 L 1104,1837 L 1104,1836 L 1105,1836 L 1105,1837 L 1106,1837 L 1107,1837 L 1107,1836 L 1107,1835 L 1107,1834 L 1108,1834 L 1108,1835 L 1109,1835 L 1109,1834 L 1109,1833 L 1110,1833 L 1111,1833 L 1112,1833 L 1112,1832 L 1113,1832 L 1113,1833 L 1114,1833 L 1115,1833 L 1115,1832 L 1116,1832 L 1116,1833 L 1115,1833 L 1115,1834 L 1115,1835 L 1116,1835 L 1116,1836 L 1116,1835 L 1117,1835 L 1117,1834 L 1117,1833 L 1118,1833 L 1118,1834 L 1119,1834 L 1119,1835 L 1120,1835 L 1120,1836 L 1121,1836 L 1122,1836 L 1122,1837 L 1123,1838 L 1123,1839 L 1124,1839 L 1124,1840 L 1123,1840 L 1122,1840 L 1121,1840 L 1121,1841 L 1122,1841 L 1123,1842 L 1124,1842 L 1125,1842 L 1125,1843 L 1125,1844 L 1125,1845 L 1126,1845 L 1127,1845 L 1128,1845 L 1128,1846 L 1128,1847 L 1129,1847 L 1130,1847 L 1130,1846 L 1130,1845 L 1130,1844 L 1130,1843 L 1131,1843 L 1132,1844 L 1133,1844 L 1133,1845 L 1133,1846 L 1133,1847 L 1133,1848 L 1134,1848 L 1134,1849 L 1133,1849 L 1132,1849 L 1131,1848 L 1130,1848 L 1130,1849 L 1130,1850 L 1130,1851 L 1131,1852 L 1131,1853 L 1130,1853 L 1129,1853 L 1128,1853 L 1128,1854 L 1129,1854 L 1129,1855 L 1130,1856 L 1130,1857 L 1131,1857 L 1131,1856 L 1132,1856 L 1132,1857 L 1131,1857 L 1131,1858 L 1132,1858 L 1133,1858 L 1134,1858 L 1135,1859 L 1136,1860 L 1137,1860 L 1138,1860 L 1139,1860 L 1140,1860 L 1140,1861 L 1141,1862 L 1142,1862 L 1143,1862 L 1144,1862 L 1144,1863 L 1144,1864 L 1144,1865 L 1145,1865 L 1146,1866 L 1146,1867 L 1146,1868 L 1146,1869 L 1145,1869 L 1145,1870 L 1145,1871 L 1144,1871 L 1144,1872 L 1144,1873 L 1144,1874 L 1144,1875 L 1145,1876 L 1146,1876 L 1147,1876 L 1147,1877 L 1147,1878 L 1146,1879 L 1146,1880 L 1146,1881 L 1145,1881 L 1144,1882 L 1145,1882 L 1145,1883 L 1146,1883 L 1146,1884 L 1146,1885 L 1145,1885 L 1145,1886 L 1145,1887 L 1146,1887 L 1145,1888 L 1144,1888 L 1143,1888 L 1142,1888 L 1142,1889 L 1143,1889 L 1143,1890 L 1143,1891 L 1144,1892 L 1144,1893 L 1143,1893 L 1142,1894 L 1142,1895 L 1142,1896 L 1142,1897 L 1142,1898 L 1143,1898 L 1143,1899 L 1143,1900 L 1144,1900 L 1144,1901 L 1143,1901 L 1142,1901 L 1141,1901 L 1140,1901 L 1139,1901 L 1138,1901 L 1138,1902 L 1137,1902 L 1137,1903 L 1137,1904 L 1138,1904 L 1139,1904 L 1140,1904 L 1142,1904 L 1144,1905 L 1145,1905 L 1146,1905 L 1147,1905 L 1148,1905 L 1148,1906 L 1148,1907 L 1148,1908 L 1146,1911 L 1145,1912 L 1142,1913 L 1142,1914 L 1142,1915 L 1143,1916 L 1145,1919 L 1145,1920 L 1144,1921 L 1142,1920 L 1141,1920 L 1141,1921 L 1141,1924 L 1142,1927 L 1142,1928 L 1140,1929 L 1139,1929 L 1136,1928 L 1134,1929 L 1133,1930 L 1133,1931 L 1133,1933 L 1135,1935 L 1135,1936 L 1134,1937 L 1132,1937 L 1131,1938 L 1130,1939 L 1130,1943 L 1129,1944 L 1128,1944 L 1127,1944 L 1127,1945 L 1127,1947 L 1127,1949 L 1125,1950 L 1123,1948 L 1121,1950 L 1120,1951 L 1119,1953 L 1118,1956 L 1117,1957 L 1115,1956 L 1113,1958 L 1113,1960 L 1112,1962 L 1109,1968 L 1109,1974 L 1105,1974 L 1105,1975 L 1104,1979 L 1101,1978 L 1100,1981 L 1043,1982 L 1044,1981 L 1044,1980 L 1044,1979 L 1043,1979 L 1042,1978 L 1041,1978 L 1041,1977 L 1041,1976 L 1042,1976 L 1042,1975 L 1043,1975 L 1043,1974 L 1043,1973 L 1043,1972 L 1042,1972 L 1041,1971 L 1040,1971 L 1039,1971 L 1039,1970 L 1038,1970 L 1038,1968 L 1037,1968 L 1037,1967 L 1036,1967 L 1035,1967 L 1034,1967 L 1033,1967 L 1032,1967 L 1031,1967 L 1031,1966 L 1030,1966 L 1030,1965 L 1030,1964 L 1030,1963 L 1031,1963 L 1032,1963 L 1032,1962 L 1032,1961 L 1031,1961 L 1030,1961 L 1029,1961 L 1028,1961 L 1027,1960 L 1027,1959 L 1027,1958 L 1027,1957 L 1026,1956 L 1026,1957 L 1025,1957 L 1024,1957 L 1024,1956 L 1024,1955 L 1023,1955 L 1022,1956 L 1021,1955 L 1021,1954 L 1021,1953 L 1020,1953 L 1019,1953 L 1019,1952 L 1019,1951 L 1019,1950 L 1020,1950 L 1021,1950 L 1022,1950 L 1022,1949 L 1022,1948 L 1021,1948 L 1020,1947 L 1019,1946 L 1018,1946 L 1017,1945 L 1017,1944 L 1017,1943 L 1017,1942 L 1017,1941 L 1017,1940 L 1017,1939 L 1016,1938 L 1015,1938 L 1014,1938 L 1014,1939 L 1013,1940 L 1012,1940 L 1011,1940 L 1010,1941 L 1009,1941 L 1007,1941 L 1006,1941 L 1005,1941 L 1005,1940 L 1005,1939 L 1006,1938 L 1006,1937 L 1007,1936 L 1008,1936 L 1008,1934 L 1009,1933 L 1009,1932 L 1009,1931 L 1008,1930 L 1007,1929 L 1006,1929 L 1006,1928 L 1004,1927 L 1003,1926 L 1002,1925 L 1001,1925 L 1000,1924 L 998,1923 L 997,1922 L 995,1921 L 994,1920 L 993,1919 L 992,1918 L 992,1917 L 991,1916 L 991,1915 L 992,1914 L 992,1913 L 992,1912 L 992,1911 L 993,1910 L 993,1909 L 992,1909 L 992,1908 L 992,1907 L 991,1906 L 991,1905 L 991,1904 L 992,1904 L 992,1903 L 992,1902 L 992,1901 L 992,1900 L 993,1900 L 994,1899 L 995,1899 L 996,1899 L 997,1899 L 997,1898 L 998,1897 L 998,1896 L 999,1895 L 1000,1894 L 1000,1893 L 1000,1892 L 1001,1891 L 1001,1890 L 1001,1889 L 1001,1888 L 1001,1887 L 997,1884 L 996,1883 L 995,1883 L 994,1882 L 993,1881 L 992,1880 L 991,1880 L 991,1879 L 990,1879 L 990,1878 L 989,1878 L 988,1877 L 987,1877 L 987,1876 L 986,1876 L 985,1876 L 984,1875 L 983,1875 L 982,1875 L 982,1874 L 982,1873 L 981,1873 L 980,1873 L 980,1872 L 980,1871 L 980,1870 L 979,1869 L 979,1868 L 978,1867 L 978,1866 L 977,1866 L 976,1865 L 975,1865 L 975,1864 L 975,1863 L 974,1863 L 974,1862 L 974,1861 L 973,1861 L 973,1862 L 972,1862 L 972,1861 L 971,1861 L 971,1860 L 970,1860 L 969,1860 L 969,1859 L 968,1859 L 968,1858 L 967,1858 L 967,1857 L 966,1857 L 965,1857 L 965,1856 L 964,1856 L 963,1856 L 963,1855 L 962,1855 L 962,1856 L 961,1856 L 961,1857 L 960,1857 L 959,1857 L 958,1857 L 957,1856 L 956,1856 L 955,1855 L 954,1855 L 953,1855 L 952,1855 L 951,1855 L 950,1855 L 949,1855 L 948,1855 L 947,1855 L 947,1856 L 946,1856 L 945,1855 L 945,1856 L 944,1856 L 944,1855 L 943,1855 L 942,1855 L 942,1856 L 941,1856 L 941,1857 L 940,1857 L 939,1857 L 939,1858 L 939,1857 L 938,1857 L 937,1857 L 936,1857 L 935,1857 L 934,1857 L 933,1856 L 932,1856 L 931,1855 L 931,1854 L 931,1853 L 930,1853 L 929,1852 L 928,1852 L 927,1852 L 927,1853 L 927,1852 L 926,1852 L 925,1852 L 925,1851 L 924,1851 L 924,1852 L 923,1852 L 923,1851 L 922,1852 L 922,1851 L 921,1852 L 921,1851 L 920,1851 L 919,1851 L 919,1850 L 918,1850 L 918,1849 L 917,1849 L 917,1848 L 917,1849 L 917,1848 L 916,1848 L 916,1847 L 915,1847 L 914,1847 L 914,1846 L 915,1846 L 914,1846 L 913,1846 L 913,1845 L 912,1845 L 911,1845 L 911,1844 L 910,1844 L 909,1844 L 909,1843 L 908,1843 L 909,1843 L 909,1842 L 908,1842 L 907,1842 L 908,1842 L 907,1842 L 907,1841 L 906,1841 L 906,1840 L 906,1841 L 906,1840 L 905,1840 L 904,1840 L 904,1839 L 903,1840 L 903,1839 L 902,1839 L 902,1840 L 901,1840 L 901,1839 L 901,1838 L 900,1838 L 900,1839 L 900,1838 L 899,1838 L 899,1839 L 899,1838 L 898,1838 L 898,1837 L 897,1837 L 896,1837 L 896,1836 L 895,1836 L 895,1835 L 894,1835 L 893,1835 L 893,1834 L 892,1834 L 892,1833 L 891,1833 L 890,1833 L 889,1833 L 889,1832 L 888,1832 L 888,1831 L 887,1831 L 886,1831 L 886,1832 L 886,1833 L 885,1833 L 885,1834 L 884,1834 L 885,1834 L 884,1835 L 883,1835 L 883,1834 L 882,1835 L 882,1834 L 882,1833 L 881,1833 L 880,1833 L 879,1833 L 879,1832 L 878,1832 L 877,1832 L 876,1832 L 875,1832 L 874,1832 L 874,1833 L 874,1832 L 873,1833 L 873,1832 L 873,1833 L 872,1833 L 872,1832 L 872,1833 L 872,1832 L 871,1832 L 870,1832 L 870,1831 L 870,1832 L 870,1831 L 869,1831 L 868,1831 L 867,1831 L 867,1830 L 867,1829 L 866,1829 L 865,1829 L 865,1828 L 864,1829 L 863,1828 L 862,1828 L 861,1828 L 861,1827 L 860,1827 L 860,1826 L 859,1826 L 859,1827 L 858,1827 L 858,1826 L 857,1826 L 856,1827 L 856,1826 L 855,1825 L 854,1825 L 853,1825 L 852,1825 L 852,1824 L 851,1824 L 851,1823 L 850,1824 L 850,1823 L 850,1822 L 849,1822 L 850,1822 L 849,1822 L 849,1821 L 848,1821 L 848,1820 L 828,1820 L 828,1819 L 828,1817 L 828,1814 L 829,1812 L 829,1810 L 830,1807 L 831,1805 L 831,1798 L 831,1796 L 830,1793 L 830,1792 L 831,1792 L 832,1791 L 833,1789 L 833,1788 L 833,1787 L 832,1786 L 832,1784 L 831,1783 L 832,1783 L 831,1781 L 831,1780 L 830,1779 L 829,1778 L 829,1777 L 829,1776 L 830,1775 L 830,1774 L 831,1774 L 832,1773 L 833,1773 L 834,1774 L 834,1773 L 835,1773 L 835,1772 L 836,1772 L 840,1766 L 840,1765 L 840,1764 L 840,1763 L 840,1762 L 840,1761 L 840,1760 L 839,1759 L 840,1758 L 842,1755 L 842,1754 L 843,1753 L 841,1747 L 842,1747 L 842,1746 L 843,1745 L 844,1745 L 844,1744 L 845,1745 L 847,1746 L 847,1745 L 847,1744 L 847,1743 L 847,1742 L 848,1742 L 848,1741 L 849,1740 L 850,1740 L 851,1741 L 851,1740 L 851,1739 L 852,1738 L 853,1738 L 854,1737 L 854,1736 L 855,1736 L 856,1736 L 857,1736 L 858,1736 L 859,1736 L 860,1736 L 861,1736 L 862,1736 L 862,1737 L 863,1737 L 864,1737 L 865,1737 L 866,1737 L 867,1737 L 867,1738 L 868,1738 L 869,1738 L 870,1737 L 871,1737 L 872,1737 L 873,1737 L 873,1736 L 874,1736 L 875,1736 L 876,1736 L 877,1736 L 877,1737 L 878,1737 L 879,1736 L 881,1736 L 881,1737 L 882,1737 L 885,1738 L 886,1738 L 886,1737 L 887,1737 L 887,1738 L 888,1738 L 890,1738 L 891,1738 L 892,1738 L 894,1737 L 894,1738 L 895,1738 L 896,1737 L 897,1737 L 898,1736 L 899,1736 L 900,1736 L 901,1737 L 901,1738 L 903,1738 L 905,1737 L 905,1736 L 906,1734 L 907,1733 L 909,1732 L 910,1731 L 911,1730 L 912,1730 L 912,1729 L 913,1730 L 914,1729 L 915,1729 L 916,1729 L 918,1727 L 920,1726 L 921,1727 L 923,1728 L 923,1729 L 923,1730 L 923,1732 L 923,1733 L 923,1734 L 923,1735 L 924,1736 L 926,1737 L 926,1738 L 927,1739 L 929,1739 L 929,1740 L 932,1740 L 932,1739 L 933,1739 L 933,1737 L 933,1736 L 934,1736 L 935,1736 L 936,1735 L 937,1735 L 939,1735 L 942,1735 L 944,1735 L 947,1732 L 947,1733 L 948,1733 L 949,1732 L 949,1731 L 951,1732 L 952,1732 L 953,1733 L 954,1733 L 954,1734 L 955,1734 L 957,1734 L 960,1735 L 962,1736 L 964,1735 L 966,1736 L 967,1736 L 968,1736 L 969,1735 L 970,1735 L 971,1735 L 971,1736 L 972,1736 L 972,1737 L 973,1737 L 973,1738 L 974,1738 L 974,1739 L 975,1739 L 976,1740 L 976,1739 L 977,1739 L 977,1740 L 977,1739 L 978,1739 L 978,1738 L 978,1737 L 979,1736 L 979,1735 L 980,1735 L 980,1734 L 980,1733 L 981,1732 L 981,1731 L 982,1731 L 982,1730 L 982,1731 L 983,1731 L 984,1731 L 985,1731 L 986,1731 L 987,1731 L 987,1732 L 988,1732 L 988,1731 L 989,1731 L 990,1731 L 990,1732 L 991,1732 L 992,1732 L 993,1731 L 993,1730 L 994,1730 L 994,1729 L 995,1729 L 995,1728 L 996,1728 L 996,1727 L 996,1726 L 997,1726 L 997,1725 L 997,1724 L 997,1723 L 998,1723 L 999,1723 L 999,1722 L 998,1722 L 998,1721 L 997,1721 L 998,1720 L 1000,1720 L 1002,1720 L 1002,1719 L 1004,1718 L 1005,1718 L 1007,1718 L 1008,1718 L 1009,1717 L 1010,1718 L 1013,1717 L 1015,1717"/>
      <path id="60202" d="M 1095,2017 L 1094,2019 L 1093,2021 L 1093,2022 L 1093,2024 L 1092,2025 L 1093,2027 L 1092,2028 L 1091,2029 L 1090,2030 L 1090,2031 L 1090,2032 L 1090,2033 L 1091,2035 L 1092,2036 L 1090,2038 L 1091,2039 L 1091,2040 L 1093,2040 L 1091,2042 L 1089,2042 L 1087,2043 L 1086,2044 L 1088,2045 L 1091,2046 L 1092,2048 L 1091,2050 L 1089,2052 L 1088,2053 L 1088,2055 L 1089,2057 L 1088,2057 L 1086,2059 L 1085,2063 L 1086,2070 L 1085,2072 L 1083,2073 L 1082,2073 L 1080,2073 L 1079,2073 L 1078,2074 L 1079,2075 L 1080,2077 L 1081,2078 L 1081,2081 L 1079,2081 L 1078,2081 L 1077,2082 L 1077,2084 L 1077,2085 L 1077,2086 L 1077,2088 L 1075,2088 L 1075,2086 L 1076,2085 L 1076,2084 L 1076,2083 L 1074,2083 L 1073,2084 L 1072,2085 L 1071,2085 L 1070,2085 L 1069,2085 L 1068,2083 L 1067,2082 L 1067,2080 L 1068,2079 L 1069,2081 L 1070,2081 L 1071,2081 L 1071,2080 L 1071,2078 L 1071,2077 L 1071,2076 L 1071,2074 L 1072,2073 L 1071,2071 L 1071,2069 L 1070,2067 L 1070,2064 L 1069,2063 L 1066,2062 L 1066,2061 L 1066,2059 L 1066,2058 L 1067,2055 L 1068,2053 L 1067,2050 L 1066,2048 L 1067,2044 L 1067,2043 L 1066,2042 L 1065,2042 L 1065,2041 L 1064,2040 L 1064,2039 L 1063,2038 L 1063,2037 L 1062,2036 L 1061,2036 L 1060,2035 L 1059,2035 L 1058,2035 L 1057,2036 L 1056,2036 L 1056,2035 L 1056,2034 L 1055,2034 L 1054,2033 L 1053,2033 L 1052,2033 L 1052,2034 L 1051,2034 L 1050,2034 L 1049,2034 L 1049,2033 L 1048,2033 L 1048,2034 L 1047,2034 L 1047,2033 L 1046,2033 L 1046,2032 L 1047,2032 L 1047,2031 L 1048,2031 L 1049,2031 L 1050,2031 L 1050,2030 L 1049,2030 L 1048,2030 L 1048,2029 L 1048,2028 L 1047,2028 L 1047,2027 L 1047,2026 L 1047,2025 L 1048,2024 L 1049,2024 L 1049,2023 L 1048,2022 L 1048,2021 L 1047,2021 L 1045,2021 L 1044,2020 L 1043,2020 L 1042,2020 L 1041,2019 L 1041,2018 L 1041,2017 L 1041,2016 L 1041,2015 L 1042,2014 L 1042,2013 L 1042,2012 L 1041,2012 L 1040,2012 L 1039,2011 L 1038,2011 L 1037,2010 L 1036,2010 L 1036,2009 L 1035,2008 L 1035,2007 L 1034,2007 L 1033,2006 L 1033,2005 L 1034,2005 L 1035,2005 L 1036,2005 L 1037,2006 L 1038,2006 L 1039,2006 L 1039,2005 L 1039,2004 L 1039,2003 L 1038,2003 L 1037,2004 L 1036,2004 L 1036,2003 L 1036,2002 L 1035,2001 L 1036,2001 L 1036,2000 L 1037,2000 L 1037,1999 L 1038,1998 L 1037,1997 L 1037,1996 L 1038,1995 L 1038,1994 L 1037,1993 L 1037,1992 L 1038,1991 L 1038,1990 L 1039,1989 L 1038,1989 L 1037,1989 L 1037,1988 L 1036,1987 L 1037,1986 L 1038,1986 L 1039,1986 L 1040,1986 L 1041,1985 L 1042,1984 L 1043,1983 L 1043,1982 L 1100,1981 L 1100,1984 L 1100,1985 L 1099,1986 L 1100,1990 L 1100,1993 L 1101,1996 L 1101,2000 L 1100,2002 L 1098,2004 L 1095,2003 L 1092,2010 L 1100,2015 L 1099,2017 L 1095,2017"/>
    </g>
    <g id="603">
      <path id="60301" d="M 1279,1793 L 1278,1793 L 1278,1792 L 1277,1792 L 1276,1792 L 1275,1792 L 1275,1791 L 1274,1785 L 1274,1782 L 1275,1778 L 1276,1778 L 1275,1773 L 1275,1769 L 1277,1764 L 1277,1756 L 1279,1754 L 1280,1751 L 1280,1749 L 1281,1746 L 1284,1747 L 1286,1745 L 1286,1740 L 1288,1734 L 1289,1732 L 1290,1727 L 1293,1720 L 1296,1712 L 1297,1707 L 1299,1701 L 1301,1692 L 1302,1683 L 1302,1678 L 1303,1669 L 1304,1667 L 1305,1663 L 1306,1656 L 1307,1653 L 1308,1650 L 1309,1646 L 1308,1646 L 1308,1645 L 1308,1644 L 1309,1644 L 1311,1644 L 1313,1646 L 1315,1646 L 1323,1647 L 1344,1650 L 1357,1651 L 1366,1652 L 1368,1650 L 1382,1643 L 1383,1642 L 1388,1642 L 1396,1640 L 1397,1639 L 1400,1640 L 1407,1641 L 1424,1644 L 1426,1644 L 1428,1644 L 1432,1645 L 1437,1645 L 1439,1645 L 1443,1644 L 1443,1643 L 1445,1643 L 1446,1642 L 1449,1640 L 1451,1640 L 1460,1636 L 1477,1632 L 1479,1634 L 1496,1639 L 1506,1638 L 1507,1639 L 1508,1640 L 1510,1640 L 1512,1641 L 1513,1641 L 1515,1645 L 1517,1652 L 1519,1654 L 1520,1656 L 1525,1666 L 1529,1675 L 1532,1682 L 1536,1690 L 1537,1695 L 1539,1706 L 1541,1709 L 1544,1713 L 1546,1716 L 1547,1717 L 1548,1717 L 1550,1718 L 1553,1721 L 1554,1723 L 1554,1724 L 1553,1726 L 1552,1727 L 1553,1731 L 1557,1734 L 1558,1735 L 1560,1737 L 1562,1739 L 1563,1741 L 1564,1744 L 1566,1745 L 1569,1748 L 1571,1752 L 1572,1753 L 1571,1754 L 1570,1757 L 1569,1760 L 1568,1764 L 1567,1766 L 1568,1771 L 1569,1774 L 1570,1775 L 1571,1776 L 1572,1778 L 1573,1780 L 1573,1782 L 1574,1784 L 1575,1787 L 1578,1788 L 1581,1791 L 1582,1791 L 1581,1793 L 1578,1793 L 1562,1793 L 1549,1793 L 1516,1793 L 1515,1793 L 1512,1793 L 1507,1793 L 1504,1793 L 1498,1793 L 1490,1793 L 1484,1793 L 1475,1793 L 1460,1793 L 1454,1793 L 1444,1793 L 1439,1793 L 1434,1793 L 1432,1793 L 1413,1793 L 1412,1793 L 1391,1793 L 1389,1793 L 1381,1793 L 1372,1793 L 1364,1793 L 1356,1793 L 1350,1793 L 1349,1793 L 1348,1793 L 1293,1793 L 1293,1794 L 1292,1795 L 1292,1796 L 1292,1797 L 1293,1797 L 1293,1798 L 1292,1798 L 1292,1799 L 1292,1800 L 1292,1801 L 1291,1802 L 1291,1803 L 1290,1803 L 1290,1804 L 1290,1805 L 1291,1805 L 1290,1805 L 1291,1805 L 1290,1805 L 1290,1806 L 1289,1806 L 1289,1807 L 1290,1807 L 1289,1807 L 1289,1808 L 1289,1809 L 1288,1809 L 1288,1810 L 1287,1810 L 1287,1809 L 1288,1809 L 1287,1809 L 1288,1809 L 1287,1809 L 1288,1808 L 1287,1808 L 1287,1807 L 1287,1806 L 1286,1806 L 1286,1805 L 1287,1805 L 1287,1806 L 1287,1805 L 1286,1805 L 1287,1805 L 1287,1804 L 1287,1803 L 1288,1803 L 1288,1802 L 1287,1802 L 1287,1801 L 1286,1800 L 1286,1801 L 1286,1800 L 1286,1799 L 1286,1798 L 1285,1797 L 1286,1797 L 1286,1796 L 1285,1796 L 1284,1796 L 1284,1797 L 1283,1797 L 1283,1796 L 1282,1796 L 1282,1797 L 1281,1797 L 1280,1797 L 1280,1796 L 1280,1795 L 1279,1795 L 1279,1794 L 1279,1793"/>
      <path id="60302" d="M 1275,1792 L 1264,1792 L 1245,1792 L 1242,1792 L 1215,1792 L 1208,1792 L 1204,1792 L 1204,1793 L 1203,1793 L 1202,1794 L 1202,1795 L 1202,1796 L 1202,1795 L 1201,1795 L 1200,1795 L 1200,1796 L 1201,1796 L 1202,1796 L 1202,1797 L 1202,1798 L 1201,1798 L 1201,1799 L 1200,1799 L 1200,1800 L 1200,1801 L 1201,1801 L 1201,1802 L 1200,1802 L 1200,1803 L 1200,1804 L 1199,1804 L 1198,1804 L 1197,1804 L 1197,1805 L 1197,1806 L 1198,1806 L 1198,1807 L 1197,1807 L 1196,1807 L 1196,1808 L 1197,1808 L 1198,1808 L 1198,1809 L 1197,1809 L 1196,1809 L 1196,1810 L 1196,1811 L 1197,1811 L 1198,1810 L 1198,1811 L 1198,1812 L 1197,1812 L 1196,1812 L 1196,1813 L 1195,1813 L 1194,1813 L 1194,1814 L 1195,1814 L 1196,1814 L 1196,1815 L 1195,1815 L 1195,1816 L 1195,1817 L 1195,1818 L 1195,1819 L 1196,1819 L 1195,1819 L 1194,1819 L 1194,1820 L 1195,1820 L 1195,1821 L 1194,1821 L 1194,1822 L 1194,1823 L 1193,1823 L 1192,1823 L 1192,1822 L 1191,1822 L 1191,1821 L 1190,1821 L 1190,1820 L 1190,1819 L 1189,1819 L 1188,1819 L 1187,1819 L 1187,1820 L 1187,1821 L 1188,1821 L 1189,1821 L 1189,1822 L 1189,1823 L 1188,1823 L 1188,1822 L 1187,1823 L 1186,1823 L 1186,1824 L 1185,1824 L 1185,1825 L 1185,1826 L 1184,1826 L 1184,1827 L 1185,1827 L 1186,1827 L 1186,1828 L 1186,1829 L 1185,1829 L 1185,1828 L 1185,1827 L 1184,1827 L 1183,1827 L 1182,1827 L 1182,1828 L 1181,1828 L 1182,1829 L 1183,1829 L 1183,1828 L 1184,1828 L 1184,1829 L 1184,1830 L 1183,1830 L 1184,1830 L 1185,1830 L 1185,1831 L 1184,1832 L 1183,1832 L 1182,1832 L 1182,1833 L 1182,1834 L 1182,1835 L 1183,1835 L 1183,1836 L 1184,1836 L 1184,1837 L 1183,1837 L 1182,1837 L 1182,1838 L 1181,1838 L 1181,1839 L 1182,1839 L 1182,1840 L 1181,1840 L 1181,1841 L 1181,1842 L 1180,1842 L 1180,1843 L 1180,1844 L 1181,1844 L 1181,1845 L 1180,1845 L 1180,1846 L 1179,1846 L 1178,1847 L 1178,1848 L 1177,1848 L 1176,1848 L 1175,1848 L 1175,1849 L 1174,1850 L 1174,1851 L 1173,1851 L 1173,1852 L 1174,1852 L 1174,1853 L 1175,1853 L 1175,1854 L 1176,1854 L 1176,1855 L 1175,1855 L 1174,1855 L 1173,1855 L 1172,1855 L 1171,1856 L 1170,1857 L 1170,1858 L 1170,1859 L 1170,1860 L 1171,1860 L 1171,1861 L 1172,1862 L 1173,1862 L 1172,1862 L 1172,1863 L 1172,1864 L 1171,1864 L 1171,1865 L 1170,1865 L 1170,1866 L 1169,1866 L 1168,1866 L 1168,1867 L 1168,1868 L 1169,1868 L 1170,1868 L 1171,1868 L 1170,1869 L 1171,1869 L 1171,1870 L 1170,1871 L 1169,1871 L 1168,1871 L 1168,1872 L 1169,1872 L 1170,1872 L 1170,1873 L 1169,1873 L 1168,1873 L 1167,1873 L 1167,1874 L 1168,1874 L 1168,1875 L 1167,1875 L 1166,1875 L 1165,1874 L 1164,1874 L 1163,1874 L 1162,1874 L 1162,1873 L 1162,1872 L 1161,1872 L 1160,1872 L 1160,1873 L 1160,1874 L 1159,1874 L 1159,1875 L 1158,1876 L 1158,1877 L 1157,1878 L 1156,1879 L 1156,1880 L 1157,1881 L 1157,1882 L 1156,1882 L 1156,1883 L 1156,1884 L 1157,1885 L 1157,1886 L 1156,1886 L 1156,1887 L 1155,1887 L 1155,1886 L 1155,1885 L 1154,1885 L 1154,1886 L 1154,1887 L 1153,1888 L 1153,1889 L 1153,1890 L 1152,1890 L 1152,1891 L 1151,1891 L 1151,1892 L 1151,1893 L 1150,1893 L 1151,1894 L 1152,1894 L 1153,1894 L 1153,1895 L 1152,1896 L 1151,1896 L 1150,1897 L 1149,1897 L 1148,1898 L 1148,1899 L 1149,1899 L 1149,1898 L 1150,1898 L 1151,1898 L 1151,1899 L 1150,1900 L 1150,1901 L 1149,1901 L 1148,1901 L 1147,1902 L 1147,1903 L 1148,1903 L 1148,1904 L 1147,1905 L 1146,1905 L 1145,1905 L 1144,1905 L 1142,1904 L 1140,1904 L 1139,1904 L 1138,1904 L 1137,1904 L 1137,1903 L 1137,1902 L 1138,1902 L 1138,1901 L 1139,1901 L 1140,1901 L 1141,1901 L 1142,1901 L 1143,1901 L 1144,1901 L 1144,1900 L 1143,1900 L 1143,1899 L 1143,1898 L 1142,1898 L 1142,1897 L 1142,1896 L 1142,1895 L 1142,1894 L 1143,1893 L 1144,1893 L 1144,1892 L 1143,1891 L 1143,1890 L 1143,1889 L 1142,1889 L 1142,1888 L 1143,1888 L 1144,1888 L 1145,1888 L 1146,1887 L 1145,1887 L 1145,1886 L 1145,1885 L 1146,1885 L 1146,1884 L 1146,1883 L 1145,1883 L 1145,1882 L 1144,1882 L 1145,1881 L 1146,1881 L 1146,1880 L 1146,1879 L 1147,1878 L 1147,1877 L 1147,1876 L 1146,1876 L 1145,1876 L 1144,1875 L 1144,1874 L 1144,1873 L 1144,1872 L 1144,1871 L 1145,1871 L 1145,1870 L 1145,1869 L 1146,1869 L 1146,1868 L 1146,1867 L 1146,1866 L 1145,1865 L 1144,1865 L 1144,1864 L 1144,1863 L 1144,1862 L 1143,1862 L 1142,1862 L 1141,1862 L 1140,1861 L 1140,1860 L 1139,1860 L 1138,1860 L 1137,1860 L 1136,1860 L 1135,1859 L 1134,1858 L 1133,1858 L 1132,1858 L 1131,1858 L 1131,1857 L 1132,1857 L 1132,1856 L 1131,1856 L 1131,1857 L 1130,1857 L 1130,1856 L 1129,1855 L 1129,1854 L 1128,1854 L 1128,1853 L 1129,1853 L 1130,1853 L 1131,1853 L 1131,1852 L 1130,1851 L 1130,1850 L 1130,1849 L 1130,1848 L 1131,1848 L 1132,1849 L 1133,1849 L 1134,1849 L 1134,1848 L 1133,1848 L 1133,1847 L 1133,1846 L 1133,1845 L 1133,1844 L 1132,1844 L 1131,1843 L 1130,1843 L 1130,1844 L 1130,1845 L 1130,1846 L 1130,1847 L 1129,1847 L 1128,1847 L 1128,1846 L 1128,1845 L 1127,1845 L 1126,1845 L 1125,1845 L 1125,1844 L 1125,1843 L 1125,1842 L 1124,1842 L 1123,1842 L 1122,1841 L 1121,1841 L 1121,1840 L 1122,1840 L 1123,1840 L 1124,1840 L 1124,1839 L 1123,1839 L 1123,1838 L 1122,1837 L 1122,1836 L 1121,1836 L 1120,1836 L 1120,1835 L 1119,1835 L 1119,1834 L 1118,1834 L 1118,1833 L 1117,1833 L 1117,1834 L 1117,1835 L 1116,1835 L 1116,1836 L 1116,1835 L 1115,1835 L 1115,1834 L 1115,1833 L 1116,1833 L 1116,1832 L 1115,1832 L 1115,1833 L 1114,1833 L 1113,1833 L 1113,1832 L 1112,1832 L 1112,1833 L 1111,1833 L 1110,1833 L 1109,1833 L 1109,1834 L 1109,1835 L 1108,1835 L 1108,1834 L 1107,1834 L 1107,1835 L 1107,1836 L 1107,1837 L 1106,1837 L 1105,1837 L 1105,1836 L 1104,1836 L 1104,1837 L 1105,1837 L 1105,1838 L 1105,1839 L 1106,1839 L 1106,1840 L 1107,1840 L 1107,1841 L 1107,1842 L 1106,1842 L 1105,1842 L 1105,1841 L 1104,1841 L 1104,1840 L 1103,1841 L 1102,1841 L 1101,1841 L 1101,1842 L 1100,1842 L 1099,1842 L 1099,1843 L 1098,1843 L 1097,1843 L 1097,1842 L 1096,1842 L 1095,1842 L 1094,1842 L 1093,1842 L 1093,1841 L 1093,1840 L 1092,1840 L 1092,1839 L 1092,1838 L 1091,1838 L 1091,1839 L 1090,1839 L 1089,1839 L 1088,1839 L 1088,1838 L 1087,1838 L 1087,1837 L 1087,1838 L 1086,1838 L 1085,1838 L 1084,1838 L 1083,1839 L 1082,1839 L 1081,1839 L 1081,1838 L 1080,1838 L 1080,1837 L 1079,1837 L 1079,1836 L 1078,1836 L 1077,1836 L 1076,1835 L 1076,1834 L 1076,1833 L 1075,1833 L 1074,1833 L 1074,1832 L 1075,1832 L 1076,1831 L 1076,1830 L 1076,1829 L 1077,1828 L 1077,1827 L 1077,1826 L 1077,1825 L 1077,1824 L 1076,1824 L 1076,1823 L 1076,1822 L 1076,1821 L 1076,1820 L 1076,1819 L 1077,1819 L 1077,1818 L 1078,1819 L 1079,1819 L 1079,1818 L 1078,1818 L 1078,1817 L 1078,1816 L 1079,1816 L 1079,1815 L 1079,1814 L 1079,1813 L 1079,1812 L 1079,1811 L 1079,1810 L 1079,1809 L 1079,1808 L 1080,1808 L 1080,1809 L 1081,1809 L 1082,1809 L 1082,1808 L 1083,1807 L 1083,1806 L 1083,1805 L 1083,1804 L 1084,1803 L 1085,1802 L 1085,1801 L 1085,1800 L 1084,1799 L 1084,1798 L 1084,1797 L 1085,1797 L 1085,1796 L 1084,1796 L 1083,1796 L 1082,1796 L 1081,1796 L 1080,1796 L 1079,1796 L 1080,1795 L 1080,1794 L 1079,1794 L 1078,1794 L 1078,1795 L 1077,1795 L 1076,1795 L 1075,1794 L 1076,1794 L 1076,1793 L 1077,1794 L 1077,1793 L 1078,1792 L 1077,1792 L 1077,1791 L 1076,1791 L 1076,1790 L 1076,1789 L 1077,1789 L 1078,1789 L 1078,1788 L 1077,1787 L 1076,1786 L 1076,1785 L 1077,1785 L 1077,1784 L 1077,1783 L 1078,1783 L 1078,1782 L 1078,1783 L 1079,1783 L 1080,1783 L 1080,1782 L 1079,1782 L 1079,1781 L 1078,1781 L 1078,1780 L 1077,1780 L 1077,1779 L 1078,1778 L 1079,1778 L 1079,1779 L 1080,1779 L 1080,1780 L 1080,1779 L 1081,1779 L 1081,1778 L 1082,1779 L 1082,1778 L 1083,1778 L 1084,1778 L 1085,1778 L 1085,1779 L 1086,1778 L 1088,1778 L 1092,1779 L 1094,1779 L 1096,1779 L 1097,1778 L 1099,1779 L 1102,1778 L 1103,1778 L 1105,1777 L 1106,1777 L 1107,1777 L 1107,1776 L 1108,1776 L 1109,1776 L 1110,1777 L 1110,1776 L 1111,1776 L 1112,1777 L 1112,1779 L 1113,1779 L 1113,1780 L 1114,1780 L 1114,1781 L 1115,1781 L 1116,1780 L 1117,1780 L 1118,1780 L 1119,1780 L 1120,1780 L 1121,1780 L 1122,1781 L 1123,1782 L 1123,1783 L 1124,1783 L 1124,1784 L 1125,1784 L 1125,1785 L 1126,1785 L 1127,1786 L 1128,1786 L 1129,1787 L 1129,1788 L 1130,1788 L 1131,1788 L 1132,1788 L 1133,1788 L 1134,1788 L 1135,1788 L 1136,1788 L 1136,1787 L 1136,1786 L 1137,1786 L 1137,1785 L 1138,1785 L 1139,1784 L 1140,1783 L 1140,1782 L 1142,1781 L 1142,1780 L 1143,1779 L 1144,1778 L 1145,1777 L 1146,1777 L 1146,1776 L 1147,1776 L 1147,1775 L 1148,1775 L 1149,1774 L 1150,1775 L 1151,1776 L 1151,1777 L 1151,1778 L 1152,1778 L 1154,1778 L 1155,1778 L 1157,1778 L 1161,1777 L 1164,1776 L 1170,1769 L 1174,1762 L 1175,1756 L 1175,1746 L 1175,1743 L 1176,1737 L 1178,1731 L 1179,1723 L 1182,1712 L 1179,1706 L 1180,1703 L 1183,1700 L 1185,1694 L 1187,1687 L 1189,1679 L 1191,1677 L 1192,1674 L 1192,1671 L 1195,1668 L 1195,1661 L 1196,1658 L 1196,1655 L 1197,1651 L 1199,1651 L 1201,1650 L 1200,1648 L 1199,1646 L 1198,1645 L 1199,1643 L 1199,1640 L 1198,1638 L 1199,1636 L 1199,1634 L 1199,1633 L 1200,1633 L 1201,1631 L 1202,1629 L 1204,1629 L 1207,1631 L 1208,1631 L 1209,1631 L 1210,1631 L 1210,1632 L 1210,1631 L 1211,1631 L 1212,1631 L 1213,1631 L 1214,1631 L 1214,1630 L 1215,1630 L 1216,1630 L 1217,1630 L 1218,1630 L 1218,1631 L 1219,1631 L 1220,1631 L 1221,1631 L 1222,1631 L 1222,1632 L 1222,1631 L 1222,1632 L 1223,1632 L 1224,1632 L 1225,1632 L 1226,1632 L 1227,1632 L 1228,1632 L 1228,1631 L 1229,1631 L 1230,1631 L 1231,1631 L 1232,1631 L 1233,1631 L 1233,1630 L 1234,1630 L 1235,1630 L 1236,1629 L 1237,1629 L 1238,1629 L 1239,1629 L 1240,1629 L 1241,1629 L 1242,1629 L 1243,1630 L 1244,1630 L 1245,1631 L 1246,1630 L 1246,1629 L 1247,1629 L 1247,1628 L 1248,1628 L 1249,1628 L 1249,1629 L 1250,1629 L 1251,1629 L 1252,1628 L 1252,1627 L 1253,1627 L 1253,1626 L 1254,1626 L 1254,1625 L 1254,1624 L 1254,1623 L 1253,1623 L 1253,1622 L 1254,1622 L 1253,1622 L 1253,1621 L 1254,1621 L 1253,1621 L 1253,1620 L 1253,1619 L 1253,1618 L 1253,1617 L 1254,1617 L 1253,1617 L 1253,1616 L 1252,1616 L 1252,1615 L 1253,1615 L 1253,1614 L 1253,1613 L 1252,1613 L 1253,1613 L 1253,1612 L 1253,1611 L 1253,1610 L 1254,1610 L 1254,1609 L 1254,1608 L 1255,1608 L 1254,1608 L 1254,1607 L 1254,1606 L 1254,1607 L 1255,1607 L 1255,1606 L 1255,1605 L 1254,1605 L 1254,1604 L 1253,1604 L 1253,1603 L 1254,1603 L 1254,1602 L 1254,1601 L 1254,1600 L 1254,1599 L 1254,1598 L 1254,1597 L 1254,1596 L 1255,1596 L 1256,1595 L 1256,1594 L 1255,1594 L 1255,1593 L 1256,1593 L 1257,1593 L 1257,1592 L 1258,1592 L 1258,1591 L 1258,1590 L 1259,1590 L 1258,1589 L 1258,1588 L 1259,1588 L 1259,1587 L 1258,1587 L 1259,1586 L 1259,1585 L 1260,1585 L 1260,1584 L 1260,1583 L 1261,1583 L 1261,1584 L 1261,1585 L 1262,1585 L 1262,1586 L 1263,1586 L 1263,1587 L 1264,1587 L 1265,1587 L 1266,1587 L 1266,1588 L 1267,1588 L 1268,1588 L 1269,1588 L 1270,1588 L 1270,1589 L 1271,1588 L 1272,1588 L 1272,1589 L 1273,1589 L 1274,1589 L 1274,1590 L 1275,1590 L 1275,1591 L 1276,1591 L 1277,1591 L 1277,1590 L 1278,1590 L 1278,1589 L 1278,1590 L 1279,1590 L 1280,1590 L 1279,1589 L 1280,1589 L 1281,1589 L 1282,1589 L 1283,1589 L 1284,1589 L 1284,1590 L 1285,1590 L 1286,1590 L 1287,1589 L 1288,1589 L 1289,1589 L 1289,1588 L 1290,1589 L 1291,1589 L 1292,1589 L 1293,1589 L 1294,1589 L 1295,1589 L 1295,1588 L 1296,1588 L 1296,1587 L 1297,1586 L 1297,1585 L 1297,1584 L 1298,1584 L 1298,1583 L 1298,1582 L 1299,1582 L 1300,1582 L 1300,1581 L 1301,1581 L 1301,1580 L 1302,1580 L 1303,1580 L 1303,1579 L 1304,1579 L 1304,1578 L 1304,1577 L 1304,1576 L 1304,1575 L 1305,1575 L 1305,1574 L 1306,1574 L 1306,1573 L 1305,1573 L 1305,1572 L 1306,1572 L 1305,1572 L 1305,1571 L 1306,1571 L 1307,1571 L 1307,1570 L 1306,1570 L 1306,1569 L 1307,1569 L 1306,1569 L 1307,1568 L 1307,1567 L 1308,1567 L 1307,1567 L 1307,1566 L 1308,1566 L 1308,1565 L 1308,1564 L 1308,1563 L 1309,1563 L 1308,1562 L 1309,1561 L 1310,1561 L 1309,1560 L 1310,1560 L 1311,1560 L 1313,1560 L 1314,1559 L 1316,1559 L 1317,1559 L 1318,1559 L 1318,1560 L 1319,1560 L 1320,1561 L 1321,1561 L 1321,1562 L 1320,1563 L 1320,1564 L 1319,1565 L 1319,1567 L 1320,1568 L 1320,1569 L 1319,1570 L 1319,1571 L 1319,1572 L 1319,1573 L 1319,1574 L 1319,1575 L 1320,1576 L 1320,1577 L 1320,1578 L 1319,1579 L 1318,1580 L 1317,1581 L 1318,1581 L 1318,1582 L 1318,1583 L 1318,1584 L 1318,1585 L 1318,1586 L 1319,1588 L 1319,1589 L 1319,1590 L 1319,1591 L 1318,1591 L 1318,1592 L 1318,1593 L 1317,1594 L 1316,1594 L 1315,1596 L 1315,1597 L 1315,1598 L 1315,1600 L 1315,1601 L 1314,1601 L 1315,1601 L 1315,1602 L 1316,1602 L 1317,1603 L 1318,1603 L 1318,1604 L 1319,1605 L 1319,1606 L 1318,1606 L 1318,1607 L 1317,1607 L 1316,1608 L 1315,1609 L 1314,1609 L 1313,1608 L 1313,1609 L 1313,1610 L 1313,1611 L 1313,1612 L 1312,1612 L 1312,1613 L 1312,1614 L 1312,1615 L 1312,1616 L 1313,1616 L 1313,1619 L 1312,1620 L 1312,1621 L 1312,1623 L 1311,1623 L 1311,1624 L 1311,1625 L 1311,1626 L 1311,1627 L 1311,1628 L 1311,1629 L 1311,1630 L 1310,1630 L 1310,1631 L 1310,1632 L 1309,1633 L 1308,1635 L 1309,1636 L 1309,1637 L 1309,1638 L 1309,1639 L 1308,1640 L 1309,1641 L 1309,1642 L 1309,1643 L 1309,1644 L 1308,1644 L 1308,1645 L 1308,1646 L 1309,1646 L 1308,1650 L 1307,1653 L 1306,1656 L 1305,1663 L 1304,1667 L 1303,1669 L 1302,1678 L 1302,1683 L 1301,1692 L 1299,1701 L 1297,1707 L 1296,1712 L 1293,1720 L 1290,1727 L 1289,1732 L 1288,1734 L 1286,1740 L 1286,1745 L 1284,1747 L 1281,1746 L 1280,1749 L 1280,1751 L 1279,1754 L 1277,1756 L 1277,1764 L 1275,1769 L 1275,1773 L 1276,1778 L 1275,1778 L 1274,1782 L 1274,1785 L 1275,1791 L 1275,1792"/>
      <path id="60303" d="M 1506,1638 L 1496,1639 L 1479,1634 L 1477,1632 L 1460,1636 L 1451,1640 L 1449,1640 L 1446,1642 L 1445,1643 L 1443,1643 L 1443,1644 L 1439,1645 L 1437,1645 L 1432,1645 L 1428,1644 L 1426,1644 L 1424,1644 L 1407,1641 L 1400,1640 L 1397,1639 L 1396,1640 L 1388,1642 L 1383,1642 L 1382,1643 L 1368,1650 L 1366,1652 L 1357,1651 L 1344,1650 L 1323,1647 L 1315,1646 L 1313,1646 L 1311,1644 L 1309,1644 L 1309,1643 L 1309,1642 L 1309,1641 L 1308,1640 L 1309,1639 L 1309,1638 L 1309,1637 L 1309,1636 L 1308,1635 L 1309,1633 L 1310,1632 L 1310,1631 L 1310,1630 L 1311,1630 L 1311,1629 L 1311,1628 L 1311,1627 L 1311,1626 L 1311,1625 L 1311,1624 L 1311,1623 L 1312,1623 L 1312,1621 L 1312,1620 L 1313,1619 L 1313,1616 L 1312,1616 L 1312,1615 L 1312,1614 L 1312,1613 L 1312,1612 L 1313,1612 L 1313,1611 L 1313,1610 L 1313,1609 L 1313,1608 L 1314,1609 L 1315,1609 L 1316,1608 L 1317,1607 L 1318,1607 L 1318,1606 L 1319,1606 L 1319,1605 L 1318,1604 L 1318,1603 L 1317,1603 L 1316,1602 L 1315,1602 L 1315,1601 L 1314,1601 L 1315,1601 L 1315,1600 L 1315,1598 L 1315,1597 L 1315,1596 L 1316,1594 L 1317,1594 L 1318,1593 L 1318,1592 L 1318,1591 L 1319,1591 L 1319,1590 L 1319,1589 L 1319,1588 L 1318,1586 L 1318,1585 L 1318,1584 L 1318,1583 L 1318,1582 L 1318,1581 L 1317,1581 L 1318,1580 L 1319,1579 L 1320,1578 L 1320,1577 L 1320,1576 L 1319,1575 L 1319,1574 L 1319,1573 L 1319,1572 L 1319,1571 L 1319,1570 L 1320,1569 L 1320,1568 L 1319,1567 L 1319,1565 L 1320,1564 L 1320,1563 L 1321,1562 L 1321,1561 L 1320,1561 L 1319,1560 L 1318,1560 L 1318,1559 L 1317,1559 L 1316,1559 L 1314,1559 L 1313,1560 L 1311,1560 L 1310,1560 L 1309,1560 L 1310,1561 L 1309,1561 L 1308,1562 L 1309,1563 L 1308,1563 L 1308,1564 L 1308,1565 L 1308,1566 L 1307,1566 L 1307,1567 L 1308,1567 L 1307,1567 L 1307,1568 L 1306,1569 L 1307,1569 L 1306,1569 L 1306,1570 L 1307,1570 L 1307,1571 L 1306,1571 L 1305,1571 L 1305,1572 L 1306,1572 L 1305,1572 L 1305,1573 L 1306,1573 L 1306,1574 L 1305,1574 L 1305,1575 L 1304,1575 L 1304,1576 L 1304,1577 L 1304,1578 L 1304,1579 L 1303,1579 L 1303,1580 L 1302,1580 L 1301,1580 L 1301,1581 L 1300,1581 L 1300,1582 L 1299,1582 L 1298,1582 L 1298,1583 L 1298,1584 L 1297,1584 L 1297,1585 L 1297,1586 L 1296,1587 L 1296,1588 L 1295,1588 L 1295,1589 L 1294,1589 L 1293,1589 L 1292,1589 L 1291,1589 L 1290,1589 L 1289,1588 L 1289,1589 L 1288,1589 L 1287,1589 L 1286,1590 L 1285,1590 L 1284,1590 L 1284,1589 L 1283,1589 L 1282,1589 L 1283,1588 L 1283,1587 L 1283,1585 L 1283,1584 L 1284,1583 L 1285,1582 L 1285,1581 L 1285,1580 L 1285,1579 L 1286,1578 L 1286,1577 L 1286,1576 L 1286,1575 L 1286,1574 L 1287,1573 L 1287,1572 L 1287,1571 L 1288,1571 L 1288,1570 L 1288,1569 L 1289,1567 L 1290,1565 L 1291,1565 L 1291,1562 L 1292,1558 L 1293,1554 L 1294,1554 L 1295,1553 L 1294,1552 L 1295,1550 L 1294,1550 L 1294,1549 L 1295,1548 L 1295,1547 L 1295,1546 L 1296,1546 L 1296,1545 L 1296,1544 L 1296,1543 L 1297,1543 L 1297,1542 L 1297,1541 L 1297,1540 L 1297,1539 L 1297,1538 L 1296,1538 L 1297,1537 L 1298,1535 L 1299,1534 L 1299,1533 L 1299,1532 L 1299,1531 L 1299,1530 L 1300,1528 L 1301,1523 L 1303,1519 L 1303,1517 L 1304,1514 L 1304,1513 L 1304,1512 L 1305,1511 L 1305,1509 L 1305,1507 L 1306,1503 L 1306,1502 L 1307,1501 L 1307,1500 L 1307,1499 L 1308,1498 L 1308,1497 L 1308,1495 L 1308,1491 L 1312,1481 L 1315,1469 L 1315,1465 L 1317,1457 L 1338,1457 L 1347,1457 L 1348,1457 L 1349,1457 L 1431,1457 L 1432,1457 L 1516,1457 L 1765,1454 L 1765,1457 L 1765,1476 L 1753,1513 L 1735,1570 L 1717,1625 L 1699,1681 L 1681,1737 L 1663,1793 L 1645,1849 L 1644,1850 L 1644,1851 L 1644,1852 L 1643,1853 L 1643,1854 L 1643,1855 L 1642,1857 L 1642,1859 L 1641,1860 L 1641,1861 L 1640,1863 L 1640,1865 L 1639,1866 L 1639,1868 L 1638,1869 L 1638,1871 L 1637,1872 L 1636,1874 L 1636,1875 L 1635,1876 L 1634,1876 L 1632,1876 L 1629,1874 L 1628,1872 L 1627,1871 L 1625,1869 L 1625,1868 L 1624,1866 L 1623,1865 L 1622,1862 L 1622,1860 L 1621,1859 L 1621,1857 L 1621,1856 L 1620,1856 L 1619,1857 L 1617,1860 L 1614,1863 L 1613,1863 L 1612,1863 L 1611,1863 L 1610,1861 L 1609,1859 L 1609,1857 L 1608,1854 L 1608,1853 L 1607,1851 L 1605,1849 L 1603,1846 L 1601,1845 L 1600,1844 L 1599,1843 L 1598,1843 L 1596,1843 L 1596,1844 L 1595,1845 L 1594,1846 L 1593,1847 L 1593,1849 L 1592,1850 L 1591,1850 L 1590,1850 L 1589,1850 L 1589,1849 L 1589,1848 L 1587,1845 L 1586,1844 L 1585,1842 L 1584,1841 L 1582,1839 L 1580,1837 L 1579,1835 L 1580,1834 L 1580,1832 L 1580,1831 L 1581,1829 L 1582,1829 L 1582,1828 L 1581,1827 L 1580,1825 L 1580,1822 L 1581,1821 L 1583,1818 L 1583,1816 L 1584,1815 L 1585,1814 L 1586,1813 L 1585,1812 L 1583,1811 L 1582,1810 L 1580,1810 L 1579,1808 L 1579,1806 L 1579,1805 L 1578,1804 L 1578,1803 L 1580,1802 L 1581,1801 L 1582,1800 L 1583,1799 L 1584,1797 L 1584,1795 L 1584,1794 L 1583,1793 L 1582,1793 L 1581,1793 L 1582,1791 L 1581,1791 L 1578,1788 L 1575,1787 L 1574,1784 L 1573,1782 L 1573,1780 L 1572,1778 L 1571,1776 L 1570,1775 L 1569,1774 L 1568,1771 L 1567,1766 L 1568,1764 L 1569,1760 L 1570,1757 L 1571,1754 L 1572,1753 L 1571,1752 L 1569,1748 L 1566,1745 L 1564,1744 L 1563,1741 L 1562,1739 L 1560,1737 L 1558,1735 L 1557,1734 L 1553,1731 L 1552,1727 L 1553,1726 L 1554,1724 L 1554,1723 L 1553,1721 L 1550,1718 L 1548,1717 L 1547,1717 L 1546,1716 L 1544,1713 L 1541,1709 L 1539,1706 L 1537,1695 L 1536,1690 L 1532,1682 L 1529,1675 L 1525,1666 L 1520,1656 L 1519,1654 L 1517,1652 L 1515,1645 L 1513,1641 L 1512,1641 L 1510,1640 L 1508,1640 L 1507,1639 L 1506,1638"/>
    </g>
    <g id="604">
      <path id="60401" d="M 957,1661 L 958,1661 L 958,1662 L 959,1662 L 959,1663 L 960,1663 L 961,1663 L 962,1663 L 962,1664 L 963,1664 L 963,1665 L 963,1666 L 964,1666 L 964,1667 L 964,1668 L 964,1669 L 965,1669 L 966,1669 L 966,1668 L 965,1668 L 965,1667 L 965,1666 L 966,1666 L 966,1667 L 967,1667 L 968,1667 L 969,1667 L 970,1667 L 970,1666 L 971,1666 L 971,1665 L 972,1664 L 973,1663 L 975,1663 L 976,1663 L 978,1663 L 979,1664 L 980,1663 L 981,1663 L 982,1663 L 983,1663 L 983,1664 L 984,1664 L 985,1664 L 986,1664 L 987,1664 L 988,1664 L 988,1665 L 999,1668 L 999,1669 L 1003,1670 L 1004,1671 L 1005,1673 L 1006,1673 L 1007,1673 L 1007,1674 L 1008,1674 L 1008,1675 L 1008,1676 L 1009,1676 L 1010,1677 L 1011,1677 L 1011,1678 L 1012,1678 L 1012,1679 L 1013,1680 L 1014,1680 L 1015,1680 L 1015,1681 L 1016,1682 L 1015,1682 L 1015,1683 L 1014,1683 L 1015,1683 L 1015,1684 L 1014,1684 L 1015,1684 L 1015,1685 L 1015,1686 L 1015,1687 L 1015,1688 L 1016,1688 L 1017,1688 L 1017,1687 L 1017,1686 L 1018,1686 L 1018,1687 L 1019,1687 L 1018,1687 L 1019,1687 L 1019,1688 L 1018,1688 L 1018,1689 L 1018,1690 L 1019,1690 L 1018,1690 L 1018,1691 L 1017,1691 L 1017,1692 L 1016,1692 L 1015,1692 L 1015,1693 L 1015,1694 L 1014,1694 L 1014,1695 L 1011,1705 L 1010,1710 L 1011,1713 L 1009,1716 L 1009,1717 L 1008,1718 L 1007,1718 L 1005,1718 L 1004,1718 L 1002,1719 L 1002,1720 L 1000,1720 L 998,1720 L 997,1721 L 998,1721 L 998,1722 L 999,1722 L 999,1723 L 998,1723 L 997,1723 L 997,1724 L 997,1725 L 997,1726 L 996,1726 L 996,1727 L 996,1728 L 995,1728 L 995,1729 L 994,1729 L 994,1730 L 993,1730 L 993,1731 L 992,1732 L 991,1732 L 990,1732 L 990,1731 L 989,1731 L 988,1731 L 988,1732 L 987,1732 L 987,1731 L 986,1731 L 985,1731 L 984,1731 L 983,1731 L 982,1731 L 982,1730 L 982,1731 L 981,1731 L 981,1732 L 980,1733 L 980,1734 L 980,1735 L 979,1735 L 979,1736 L 978,1737 L 978,1738 L 978,1739 L 977,1739 L 977,1740 L 977,1739 L 976,1739 L 976,1740 L 975,1739 L 974,1739 L 974,1738 L 973,1738 L 973,1737 L 972,1737 L 972,1736 L 971,1736 L 971,1735 L 970,1735 L 969,1735 L 968,1736 L 967,1736 L 966,1736 L 964,1735 L 962,1736 L 960,1735 L 957,1734 L 955,1734 L 954,1734 L 954,1733 L 953,1733 L 952,1732 L 951,1732 L 949,1731 L 949,1732 L 948,1733 L 947,1733 L 947,1732 L 944,1735 L 942,1735 L 939,1735 L 937,1735 L 936,1735 L 935,1736 L 934,1736 L 933,1736 L 933,1737 L 933,1739 L 932,1739 L 932,1740 L 929,1740 L 929,1739 L 927,1739 L 926,1738 L 926,1737 L 924,1736 L 923,1735 L 923,1734 L 923,1733 L 923,1732 L 923,1730 L 923,1729 L 923,1728 L 921,1727 L 920,1726 L 918,1727 L 916,1729 L 915,1729 L 914,1729 L 913,1730 L 912,1729 L 912,1730 L 911,1730 L 910,1731 L 909,1732 L 907,1733 L 906,1734 L 905,1736 L 905,1737 L 903,1738 L 901,1738 L 901,1737 L 900,1736 L 899,1736 L 898,1736 L 897,1737 L 896,1737 L 895,1738 L 894,1738 L 894,1737 L 892,1738 L 891,1738 L 890,1738 L 888,1738 L 887,1738 L 887,1737 L 886,1737 L 886,1738 L 885,1738 L 882,1737 L 881,1737 L 881,1736 L 879,1736 L 878,1737 L 877,1737 L 877,1736 L 876,1736 L 875,1736 L 874,1736 L 873,1736 L 873,1737 L 872,1737 L 871,1737 L 870,1737 L 869,1738 L 868,1738 L 867,1738 L 867,1737 L 866,1737 L 865,1737 L 864,1737 L 863,1737 L 862,1737 L 862,1736 L 861,1736 L 860,1736 L 859,1736 L 858,1736 L 857,1736 L 856,1736 L 855,1736 L 854,1736 L 854,1737 L 853,1738 L 852,1738 L 851,1739 L 851,1740 L 851,1741 L 850,1740 L 849,1740 L 848,1741 L 848,1742 L 847,1742 L 847,1743 L 847,1744 L 847,1745 L 847,1746 L 845,1745 L 845,1744 L 845,1742 L 844,1740 L 843,1740 L 843,1738 L 843,1735 L 844,1734 L 844,1733 L 844,1732 L 843,1730 L 842,1728 L 844,1726 L 846,1725 L 847,1723 L 846,1721 L 848,1720 L 851,1719 L 853,1718 L 855,1717 L 855,1716 L 857,1716 L 858,1717 L 859,1716 L 861,1717 L 864,1716 L 869,1711 L 869,1710 L 871,1710 L 874,1710 L 876,1710 L 878,1709 L 881,1711 L 884,1712 L 887,1711 L 889,1711 L 890,1710 L 891,1709 L 892,1706 L 892,1704 L 894,1703 L 894,1702 L 894,1701 L 894,1700 L 891,1698 L 895,1691 L 899,1693 L 906,1694 L 910,1692 L 917,1691 L 918,1689 L 919,1688 L 919,1687 L 922,1685 L 924,1682 L 924,1681 L 925,1680 L 926,1679 L 927,1678 L 928,1677 L 929,1675 L 928,1675 L 928,1673 L 929,1673 L 929,1671 L 932,1671 L 933,1670 L 934,1671 L 934,1672 L 935,1672 L 935,1673 L 936,1674 L 938,1673 L 938,1674 L 939,1673 L 940,1673 L 941,1672 L 942,1672 L 943,1673 L 945,1672 L 945,1671 L 946,1670 L 946,1669 L 946,1668 L 947,1668 L 947,1667 L 948,1667 L 948,1666 L 949,1665 L 950,1664 L 950,1663 L 950,1662 L 951,1662 L 951,1661 L 952,1661 L 953,1661 L 954,1661 L 955,1661 L 956,1661 L 957,1661"/>
      <path id="60402" d="M 766,1619 L 767,1619 L 767,1620 L 768,1620 L 769,1621 L 770,1621 L 771,1621 L 771,1622 L 772,1622 L 772,1623 L 773,1623 L 774,1623 L 775,1623 L 775,1624 L 776,1624 L 776,1625 L 777,1625 L 778,1625 L 779,1625 L 779,1626 L 780,1626 L 781,1626 L 782,1626 L 783,1626 L 783,1627 L 784,1626 L 784,1627 L 785,1627 L 785,1626 L 785,1627 L 786,1627 L 787,1629 L 791,1626 L 793,1624 L 797,1619 L 800,1621 L 817,1628 L 817,1629 L 818,1634 L 818,1636 L 818,1640 L 819,1641 L 823,1643 L 824,1643 L 825,1643 L 826,1644 L 831,1645 L 832,1646 L 833,1647 L 833,1649 L 834,1655 L 837,1661 L 838,1661 L 847,1662 L 854,1663 L 854,1662 L 855,1661 L 855,1660 L 855,1659 L 854,1659 L 854,1658 L 855,1658 L 855,1657 L 855,1656 L 855,1655 L 854,1655 L 855,1655 L 854,1654 L 854,1653 L 854,1652 L 855,1652 L 855,1651 L 855,1650 L 855,1649 L 855,1648 L 856,1648 L 856,1649 L 857,1649 L 858,1649 L 858,1650 L 859,1651 L 859,1652 L 859,1653 L 860,1653 L 859,1653 L 860,1653 L 859,1653 L 859,1654 L 860,1654 L 860,1655 L 860,1656 L 860,1657 L 860,1658 L 860,1659 L 860,1660 L 860,1661 L 861,1661 L 861,1662 L 861,1663 L 861,1664 L 861,1665 L 860,1665 L 859,1665 L 859,1666 L 859,1667 L 858,1667 L 858,1668 L 858,1669 L 857,1669 L 857,1670 L 857,1671 L 857,1672 L 857,1673 L 857,1674 L 856,1675 L 856,1676 L 854,1676 L 853,1677 L 852,1677 L 854,1679 L 851,1686 L 851,1688 L 850,1690 L 852,1695 L 852,1696 L 852,1697 L 847,1700 L 847,1702 L 846,1703 L 846,1707 L 848,1708 L 848,1709 L 848,1711 L 848,1713 L 849,1715 L 851,1719 L 848,1720 L 846,1721 L 847,1723 L 846,1725 L 844,1726 L 842,1728 L 843,1730 L 844,1732 L 844,1733 L 844,1734 L 843,1735 L 843,1738 L 843,1740 L 844,1740 L 845,1742 L 845,1744 L 845,1745 L 844,1744 L 844,1745 L 843,1745 L 842,1746 L 842,1747 L 841,1747 L 843,1753 L 842,1754 L 842,1755 L 840,1758 L 839,1759 L 840,1760 L 840,1761 L 840,1762 L 840,1763 L 840,1764 L 840,1765 L 840,1766 L 836,1772 L 835,1772 L 835,1773 L 834,1773 L 834,1774 L 833,1773 L 832,1773 L 831,1774 L 830,1774 L 830,1775 L 829,1776 L 829,1777 L 829,1778 L 830,1779 L 831,1780 L 831,1781 L 832,1783 L 831,1783 L 832,1784 L 832,1786 L 833,1787 L 833,1788 L 833,1789 L 832,1791 L 831,1792 L 830,1792 L 830,1793 L 831,1796 L 831,1798 L 831,1805 L 830,1807 L 829,1810 L 829,1812 L 828,1814 L 828,1817 L 828,1819 L 828,1820 L 799,1820 L 783,1820 L 781,1818 L 783,1810 L 785,1800 L 785,1798 L 784,1797 L 784,1796 L 783,1796 L 782,1796 L 781,1796 L 780,1796 L 779,1796 L 778,1796 L 778,1795 L 777,1794 L 776,1793 L 775,1793 L 775,1792 L 774,1792 L 774,1791 L 773,1791 L 773,1790 L 772,1790 L 771,1790 L 770,1790 L 769,1789 L 769,1790 L 768,1789 L 767,1789 L 766,1788 L 765,1787 L 764,1787 L 764,1786 L 764,1785 L 763,1785 L 762,1784 L 761,1784 L 760,1783 L 759,1783 L 759,1782 L 758,1782 L 757,1782 L 756,1782 L 755,1782 L 754,1782 L 753,1782 L 752,1782 L 751,1782 L 751,1783 L 750,1783 L 749,1783 L 748,1783 L 747,1784 L 746,1784 L 745,1784 L 744,1784 L 743,1784 L 742,1784 L 741,1784 L 741,1783 L 740,1783 L 739,1783 L 738,1782 L 737,1782 L 737,1781 L 736,1781 L 735,1781 L 734,1780 L 733,1780 L 732,1780 L 732,1779 L 731,1779 L 731,1778 L 730,1778 L 729,1778 L 729,1777 L 728,1777 L 728,1776 L 727,1776 L 727,1775 L 726,1775 L 726,1774 L 725,1774 L 724,1774 L 724,1773 L 723,1773 L 722,1773 L 721,1773 L 721,1772 L 720,1772 L 720,1771 L 719,1771 L 719,1770 L 718,1770 L 717,1769 L 716,1769 L 715,1769 L 714,1768 L 713,1768 L 713,1767 L 712,1767 L 712,1766 L 711,1766 L 711,1765 L 710,1765 L 710,1764 L 709,1764 L 708,1763 L 708,1762 L 708,1761 L 708,1760 L 707,1760 L 707,1759 L 706,1758 L 706,1757 L 705,1757 L 705,1756 L 706,1756 L 706,1755 L 706,1754 L 706,1753 L 706,1752 L 707,1752 L 707,1753 L 708,1753 L 708,1752 L 709,1752 L 710,1752 L 711,1752 L 712,1752 L 712,1751 L 713,1751 L 713,1750 L 712,1750 L 712,1749 L 713,1749 L 713,1748 L 714,1748 L 714,1747 L 714,1746 L 715,1746 L 715,1745 L 714,1744 L 715,1743 L 715,1742 L 714,1742 L 714,1741 L 714,1740 L 715,1740 L 715,1739 L 715,1738 L 716,1739 L 717,1739 L 717,1738 L 717,1737 L 718,1737 L 719,1737 L 720,1737 L 721,1738 L 722,1738 L 723,1738 L 724,1738 L 724,1737 L 725,1738 L 726,1738 L 726,1737 L 727,1737 L 727,1736 L 727,1735 L 728,1735 L 728,1734 L 729,1734 L 729,1733 L 729,1732 L 728,1732 L 728,1731 L 729,1731 L 729,1730 L 729,1729 L 729,1728 L 730,1728 L 731,1728 L 732,1727 L 733,1727 L 733,1726 L 733,1725 L 733,1724 L 734,1724 L 734,1723 L 734,1722 L 733,1722 L 733,1721 L 734,1721 L 734,1720 L 735,1720 L 736,1720 L 736,1719 L 735,1719 L 735,1718 L 735,1717 L 735,1716 L 736,1716 L 736,1715 L 737,1714 L 738,1714 L 738,1713 L 738,1712 L 737,1712 L 737,1711 L 737,1710 L 738,1709 L 738,1708 L 739,1708 L 739,1707 L 740,1707 L 740,1706 L 740,1705 L 740,1704 L 741,1703 L 740,1703 L 740,1702 L 740,1701 L 741,1701 L 742,1702 L 743,1702 L 744,1702 L 745,1702 L 746,1702 L 747,1702 L 748,1701 L 748,1700 L 747,1700 L 747,1699 L 746,1699 L 745,1698 L 744,1697 L 745,1697 L 745,1696 L 745,1695 L 744,1695 L 744,1694 L 743,1694 L 742,1694 L 742,1693 L 743,1693 L 743,1692 L 744,1692 L 744,1691 L 744,1690 L 744,1689 L 744,1688 L 743,1688 L 743,1687 L 744,1687 L 745,1687 L 745,1686 L 745,1685 L 745,1684 L 746,1684 L 746,1683 L 747,1683 L 747,1682 L 748,1682 L 748,1681 L 749,1681 L 750,1681 L 750,1680 L 750,1679 L 751,1679 L 751,1680 L 752,1680 L 752,1679 L 753,1679 L 753,1678 L 752,1677 L 753,1677 L 753,1676 L 754,1676 L 754,1675 L 753,1674 L 752,1674 L 752,1673 L 753,1673 L 753,1672 L 754,1672 L 755,1672 L 756,1672 L 756,1671 L 756,1670 L 757,1670 L 758,1669 L 758,1668 L 758,1667 L 757,1667 L 757,1666 L 756,1665 L 756,1664 L 757,1663 L 757,1662 L 757,1661 L 757,1660 L 758,1660 L 758,1659 L 759,1658 L 760,1658 L 760,1657 L 760,1656 L 761,1655 L 761,1654 L 761,1653 L 760,1653 L 760,1652 L 761,1652 L 761,1651 L 762,1651 L 761,1650 L 761,1649 L 762,1648 L 763,1648 L 763,1647 L 763,1646 L 763,1645 L 763,1644 L 763,1643 L 763,1642 L 763,1641 L 763,1640 L 762,1640 L 761,1640 L 761,1639 L 762,1638 L 763,1638 L 763,1637 L 763,1636 L 762,1635 L 763,1635 L 763,1634 L 763,1633 L 763,1632 L 763,1631 L 763,1632 L 762,1632 L 762,1631 L 761,1631 L 761,1630 L 761,1629 L 761,1628 L 762,1628 L 762,1627 L 763,1627 L 763,1626 L 763,1625 L 763,1624 L 763,1623 L 763,1622 L 763,1621 L 763,1620 L 764,1619 L 765,1619 L 766,1619"/>
    </g>
    <g id="605">
      <path id="60501" d="M 949,1435 L 949,1436 L 950,1436 L 951,1436 L 952,1437 L 953,1437 L 954,1437 L 955,1437 L 956,1436 L 957,1436 L 958,1436 L 958,1437 L 959,1437 L 960,1437 L 960,1438 L 961,1438 L 961,1439 L 962,1439 L 962,1440 L 961,1440 L 962,1441 L 963,1441 L 964,1441 L 965,1441 L 965,1442 L 965,1443 L 965,1444 L 965,1445 L 966,1445 L 966,1446 L 967,1446 L 967,1447 L 968,1447 L 969,1447 L 970,1447 L 970,1448 L 971,1448 L 971,1449 L 972,1449 L 972,1450 L 973,1450 L 974,1450 L 974,1449 L 975,1449 L 976,1449 L 977,1449 L 977,1450 L 978,1450 L 979,1451 L 979,1452 L 979,1453 L 979,1454 L 979,1455 L 980,1455 L 980,1456 L 980,1457 L 981,1457 L 981,1458 L 982,1458 L 982,1459 L 983,1459 L 983,1458 L 984,1458 L 985,1458 L 985,1459 L 985,1460 L 985,1461 L 985,1462 L 986,1462 L 987,1462 L 987,1463 L 987,1464 L 986,1464 L 986,1465 L 987,1465 L 987,1466 L 987,1467 L 988,1467 L 989,1467 L 990,1467 L 991,1467 L 991,1468 L 991,1469 L 991,1470 L 991,1471 L 991,1472 L 992,1472 L 992,1473 L 992,1474 L 993,1474 L 994,1475 L 995,1476 L 995,1477 L 996,1477 L 996,1478 L 997,1478 L 997,1479 L 997,1480 L 998,1481 L 998,1482 L 997,1482 L 998,1483 L 998,1484 L 999,1484 L 1000,1484 L 1001,1484 L 1001,1485 L 1001,1486 L 1001,1487 L 1002,1487 L 1003,1487 L 1004,1488 L 1004,1489 L 1005,1489 L 1006,1489 L 1007,1489 L 1008,1489 L 1009,1490 L 1010,1490 L 1010,1489 L 1011,1489 L 1011,1488 L 1012,1488 L 1013,1488 L 1014,1488 L 1015,1488 L 1016,1487 L 1017,1487 L 1018,1487 L 1019,1487 L 1020,1487 L 1020,1486 L 1020,1485 L 1021,1485 L 1022,1485 L 1023,1485 L 1024,1485 L 1025,1485 L 1026,1485 L 1027,1484 L 1028,1484 L 1029,1485 L 1030,1485 L 1031,1485 L 1032,1486 L 1033,1487 L 1034,1488 L 1035,1488 L 1035,1489 L 1036,1490 L 1037,1490 L 1037,1491 L 1038,1490 L 1039,1490 L 1040,1490 L 1040,1489 L 1041,1489 L 1042,1490 L 1043,1490 L 1043,1491 L 1043,1492 L 1043,1493 L 1044,1493 L 1045,1493 L 1046,1494 L 1047,1494 L 1047,1495 L 1047,1496 L 1048,1496 L 1049,1497 L 1050,1497 L 1050,1498 L 1050,1499 L 1050,1500 L 1050,1501 L 1050,1502 L 1050,1503 L 1050,1504 L 1050,1505 L 1049,1505 L 1048,1506 L 1047,1507 L 1047,1508 L 1046,1509 L 1045,1510 L 1045,1511 L 1045,1512 L 1044,1513 L 1043,1514 L 1042,1514 L 1041,1514 L 1041,1515 L 1040,1515 L 1040,1516 L 1040,1517 L 1040,1518 L 1040,1519 L 1040,1520 L 1040,1521 L 1040,1522 L 1040,1523 L 1039,1523 L 1039,1524 L 1039,1525 L 1039,1526 L 1039,1527 L 1040,1528 L 1040,1529 L 1039,1530 L 1039,1531 L 1039,1532 L 1039,1533 L 1039,1534 L 1039,1535 L 1039,1536 L 1038,1536 L 1037,1536 L 1037,1537 L 1036,1537 L 1036,1538 L 1036,1539 L 1037,1540 L 1037,1541 L 1037,1542 L 1037,1543 L 1037,1544 L 1037,1545 L 1036,1546 L 1036,1547 L 1035,1548 L 1035,1549 L 1034,1550 L 1034,1551 L 1033,1551 L 1034,1552 L 1034,1553 L 1035,1553 L 1035,1554 L 1035,1555 L 1035,1556 L 1035,1557 L 1035,1558 L 1035,1560 L 1034,1560 L 1034,1561 L 1034,1562 L 1033,1562 L 1033,1563 L 1032,1563 L 1031,1564 L 1030,1564 L 1030,1565 L 1029,1565 L 1029,1566 L 1028,1566 L 1028,1565 L 1028,1566 L 1027,1566 L 1026,1566 L 1026,1567 L 1025,1567 L 1026,1567 L 1026,1568 L 1025,1568 L 1025,1569 L 1025,1570 L 1025,1571 L 1024,1571 L 1024,1572 L 1023,1572 L 1022,1573 L 1021,1572 L 1020,1571 L 1019,1570 L 1017,1570 L 1016,1571 L 1012,1568 L 1007,1566 L 1002,1566 L 1000,1563 L 999,1561 L 999,1559 L 999,1557 L 1000,1556 L 999,1553 L 998,1551 L 995,1551 L 993,1551 L 991,1552 L 984,1552 L 983,1551 L 985,1543 L 986,1539 L 984,1537 L 982,1537 L 981,1537 L 980,1537 L 979,1536 L 978,1536 L 977,1536 L 976,1536 L 976,1537 L 976,1538 L 976,1539 L 975,1539 L 975,1540 L 973,1542 L 973,1544 L 972,1546 L 971,1546 L 969,1548 L 970,1553 L 971,1556 L 972,1558 L 972,1559 L 972,1560 L 972,1563 L 972,1564 L 968,1565 L 966,1565 L 967,1567 L 966,1572 L 965,1572 L 964,1572 L 964,1576 L 964,1577 L 963,1579 L 963,1580 L 963,1582 L 962,1582 L 962,1583 L 962,1584 L 961,1584 L 961,1585 L 960,1585 L 959,1585 L 958,1585 L 957,1585 L 956,1586 L 955,1586 L 954,1586 L 953,1586 L 952,1586 L 952,1585 L 951,1585 L 951,1586 L 950,1586 L 949,1586 L 948,1586 L 948,1587 L 947,1587 L 946,1587 L 946,1588 L 945,1588 L 944,1588 L 944,1589 L 943,1589 L 943,1590 L 942,1590 L 942,1591 L 942,1592 L 942,1593 L 942,1594 L 942,1595 L 943,1596 L 942,1597 L 942,1598 L 942,1599 L 941,1599 L 941,1600 L 940,1600 L 941,1601 L 940,1601 L 940,1602 L 939,1602 L 939,1603 L 939,1604 L 938,1604 L 938,1605 L 937,1605 L 937,1606 L 937,1607 L 936,1607 L 936,1608 L 935,1609 L 934,1610 L 933,1610 L 933,1611 L 932,1612 L 931,1613 L 930,1613 L 929,1614 L 929,1615 L 928,1615 L 928,1616 L 928,1617 L 928,1618 L 927,1618 L 927,1619 L 927,1620 L 927,1621 L 927,1622 L 927,1623 L 926,1623 L 926,1624 L 925,1624 L 924,1624 L 923,1624 L 922,1624 L 921,1625 L 920,1625 L 920,1626 L 919,1626 L 919,1627 L 920,1629 L 920,1631 L 920,1632 L 917,1634 L 917,1635 L 916,1637 L 914,1638 L 913,1639 L 912,1639 L 911,1641 L 909,1642 L 909,1643 L 907,1645 L 905,1646 L 904,1646 L 902,1646 L 901,1645 L 899,1645 L 896,1647 L 895,1648 L 892,1648 L 891,1648 L 890,1648 L 887,1649 L 886,1651 L 884,1652 L 880,1652 L 879,1652 L 876,1652 L 875,1651 L 874,1651 L 874,1647 L 876,1644 L 877,1644 L 880,1641 L 881,1640 L 882,1639 L 884,1638 L 885,1638 L 887,1637 L 888,1637 L 888,1636 L 889,1636 L 889,1634 L 890,1634 L 890,1633 L 891,1632 L 891,1631 L 891,1626 L 891,1625 L 890,1623 L 889,1621 L 888,1621 L 888,1622 L 887,1622 L 886,1622 L 885,1622 L 885,1621 L 884,1621 L 884,1620 L 883,1620 L 883,1619 L 882,1618 L 882,1617 L 882,1616 L 882,1615 L 882,1614 L 882,1613 L 883,1613 L 883,1612 L 884,1612 L 884,1613 L 885,1613 L 885,1612 L 885,1611 L 885,1610 L 884,1610 L 884,1609 L 883,1609 L 882,1609 L 882,1608 L 882,1607 L 883,1607 L 883,1606 L 883,1605 L 883,1604 L 883,1603 L 882,1603 L 882,1602 L 883,1602 L 883,1601 L 883,1600 L 883,1599 L 883,1598 L 882,1598 L 882,1599 L 881,1599 L 881,1600 L 880,1600 L 880,1601 L 879,1601 L 878,1601 L 878,1600 L 878,1601 L 877,1601 L 876,1601 L 875,1601 L 874,1601 L 874,1600 L 873,1600 L 872,1600 L 871,1600 L 871,1597 L 871,1589 L 872,1587 L 871,1584 L 871,1580 L 871,1575 L 870,1570 L 870,1564 L 870,1562 L 871,1558 L 872,1552 L 871,1548 L 872,1546 L 873,1544 L 872,1540 L 873,1539 L 873,1537 L 878,1534 L 882,1530 L 885,1527 L 886,1526 L 888,1523 L 890,1522 L 893,1519 L 895,1515 L 902,1512 L 903,1512 L 903,1511 L 902,1511 L 902,1510 L 901,1510 L 902,1509 L 903,1508 L 903,1507 L 904,1507 L 904,1506 L 903,1506 L 903,1505 L 903,1504 L 903,1503 L 902,1503 L 902,1502 L 902,1501 L 902,1500 L 902,1499 L 902,1498 L 902,1497 L 901,1497 L 901,1496 L 902,1496 L 902,1495 L 903,1495 L 903,1494 L 902,1494 L 902,1493 L 901,1493 L 901,1492 L 901,1491 L 900,1490 L 900,1489 L 900,1488 L 900,1487 L 901,1487 L 902,1487 L 903,1488 L 904,1487 L 905,1487 L 905,1488 L 906,1487 L 907,1487 L 907,1488 L 908,1488 L 909,1488 L 910,1488 L 911,1488 L 911,1489 L 912,1489 L 912,1488 L 913,1488 L 914,1487 L 914,1486 L 914,1485 L 915,1484 L 915,1483 L 916,1482 L 916,1481 L 916,1480 L 915,1479 L 916,1479 L 916,1478 L 916,1477 L 917,1477 L 918,1477 L 919,1477 L 920,1476 L 921,1476 L 921,1475 L 921,1474 L 921,1473 L 921,1472 L 920,1472 L 920,1471 L 919,1471 L 919,1470 L 919,1469 L 919,1468 L 919,1467 L 920,1467 L 920,1466 L 921,1466 L 922,1465 L 923,1465 L 923,1464 L 924,1464 L 924,1463 L 923,1463 L 923,1462 L 922,1462 L 923,1461 L 924,1460 L 924,1459 L 925,1458 L 925,1457 L 926,1457 L 926,1456 L 926,1455 L 927,1455 L 927,1454 L 927,1453 L 927,1452 L 927,1451 L 926,1451 L 925,1451 L 925,1450 L 926,1450 L 926,1449 L 927,1449 L 928,1449 L 930,1448 L 931,1448 L 931,1447 L 932,1447 L 933,1447 L 934,1446 L 935,1445 L 935,1444 L 935,1443 L 935,1442 L 935,1441 L 935,1440 L 935,1439 L 936,1439 L 936,1438 L 936,1437 L 937,1437 L 937,1436 L 938,1436 L 939,1436 L 939,1435 L 940,1435 L 941,1435 L 942,1435 L 942,1434 L 943,1434 L 944,1434 L 945,1433 L 946,1433 L 947,1433 L 947,1434 L 948,1434 L 949,1434 L 949,1435"/>
      <path id="60502" d="M 791,1438 L 792,1438 L 793,1438 L 792,1439 L 792,1440 L 793,1440 L 793,1441 L 793,1442 L 794,1443 L 794,1444 L 795,1444 L 795,1443 L 795,1442 L 795,1441 L 796,1441 L 796,1440 L 796,1441 L 797,1441 L 797,1442 L 798,1442 L 798,1443 L 798,1444 L 799,1444 L 800,1444 L 801,1444 L 801,1443 L 802,1443 L 802,1442 L 803,1442 L 803,1443 L 804,1444 L 804,1445 L 804,1446 L 805,1446 L 806,1446 L 807,1446 L 808,1446 L 809,1446 L 809,1447 L 808,1447 L 808,1448 L 807,1448 L 807,1449 L 807,1450 L 808,1450 L 809,1450 L 809,1449 L 810,1449 L 811,1449 L 812,1448 L 812,1447 L 811,1447 L 811,1448 L 811,1447 L 810,1447 L 811,1446 L 812,1446 L 813,1446 L 813,1447 L 814,1447 L 814,1448 L 815,1449 L 816,1448 L 817,1448 L 817,1447 L 817,1446 L 816,1446 L 816,1445 L 816,1444 L 817,1443 L 818,1443 L 819,1444 L 820,1444 L 821,1444 L 821,1443 L 821,1442 L 822,1442 L 822,1443 L 822,1444 L 822,1445 L 822,1446 L 823,1446 L 824,1446 L 824,1447 L 825,1447 L 825,1448 L 824,1449 L 825,1450 L 826,1450 L 826,1449 L 826,1450 L 826,1451 L 826,1452 L 826,1453 L 827,1453 L 828,1454 L 827,1455 L 828,1455 L 829,1455 L 829,1456 L 830,1456 L 831,1456 L 831,1457 L 830,1458 L 830,1457 L 829,1457 L 829,1458 L 828,1458 L 828,1459 L 829,1459 L 830,1459 L 831,1459 L 831,1460 L 832,1460 L 832,1461 L 833,1461 L 834,1461 L 835,1461 L 836,1462 L 837,1462 L 837,1461 L 836,1460 L 835,1460 L 835,1459 L 835,1458 L 836,1458 L 836,1459 L 837,1459 L 838,1460 L 838,1461 L 838,1462 L 838,1463 L 837,1464 L 836,1464 L 836,1465 L 837,1465 L 838,1465 L 839,1465 L 839,1464 L 839,1463 L 840,1463 L 841,1463 L 841,1464 L 841,1465 L 841,1466 L 842,1466 L 843,1466 L 844,1466 L 844,1465 L 845,1465 L 846,1465 L 846,1464 L 845,1464 L 845,1463 L 844,1463 L 844,1462 L 844,1461 L 845,1461 L 846,1461 L 846,1462 L 846,1463 L 847,1463 L 848,1463 L 848,1462 L 848,1461 L 848,1460 L 849,1459 L 850,1459 L 850,1460 L 850,1461 L 851,1461 L 852,1461 L 853,1461 L 853,1462 L 854,1462 L 855,1462 L 855,1463 L 856,1463 L 856,1464 L 855,1464 L 854,1464 L 853,1464 L 853,1465 L 854,1465 L 855,1465 L 856,1465 L 857,1465 L 857,1466 L 858,1466 L 859,1466 L 859,1465 L 859,1464 L 860,1464 L 861,1465 L 861,1466 L 861,1467 L 862,1467 L 863,1467 L 863,1468 L 863,1469 L 862,1470 L 863,1470 L 864,1470 L 864,1469 L 865,1469 L 866,1469 L 866,1468 L 865,1468 L 864,1467 L 865,1467 L 864,1467 L 864,1466 L 864,1465 L 864,1464 L 865,1464 L 865,1465 L 866,1465 L 867,1465 L 868,1465 L 869,1466 L 870,1466 L 870,1467 L 870,1468 L 871,1468 L 871,1469 L 870,1469 L 870,1470 L 871,1470 L 871,1471 L 871,1472 L 871,1473 L 871,1474 L 872,1474 L 872,1475 L 872,1476 L 873,1476 L 874,1476 L 875,1476 L 876,1476 L 876,1475 L 877,1475 L 878,1475 L 879,1474 L 879,1475 L 880,1475 L 881,1475 L 882,1475 L 883,1475 L 883,1476 L 884,1476 L 884,1477 L 885,1477 L 884,1478 L 883,1478 L 883,1479 L 882,1479 L 881,1479 L 880,1480 L 881,1480 L 881,1481 L 882,1481 L 883,1482 L 884,1482 L 884,1483 L 885,1483 L 886,1483 L 887,1483 L 888,1483 L 889,1483 L 890,1483 L 891,1483 L 891,1484 L 892,1484 L 893,1484 L 893,1485 L 894,1485 L 894,1486 L 895,1486 L 896,1486 L 896,1487 L 896,1488 L 895,1488 L 894,1488 L 894,1489 L 894,1490 L 894,1491 L 894,1492 L 895,1492 L 896,1492 L 897,1492 L 897,1491 L 898,1491 L 898,1492 L 899,1492 L 900,1492 L 901,1492 L 901,1491 L 901,1492 L 901,1493 L 902,1493 L 902,1494 L 903,1494 L 903,1495 L 902,1495 L 902,1496 L 901,1496 L 901,1497 L 902,1497 L 902,1498 L 902,1499 L 902,1500 L 902,1501 L 902,1502 L 902,1503 L 903,1503 L 903,1504 L 903,1505 L 903,1506 L 904,1506 L 904,1507 L 903,1507 L 903,1508 L 902,1509 L 901,1510 L 902,1510 L 902,1511 L 903,1511 L 903,1512 L 902,1512 L 895,1515 L 893,1519 L 890,1522 L 888,1523 L 886,1526 L 885,1527 L 882,1530 L 878,1534 L 873,1537 L 873,1539 L 872,1540 L 873,1544 L 872,1546 L 871,1548 L 872,1552 L 871,1558 L 870,1562 L 870,1564 L 870,1570 L 871,1575 L 871,1580 L 871,1584 L 872,1587 L 871,1589 L 871,1597 L 871,1600 L 872,1600 L 873,1600 L 874,1600 L 874,1601 L 875,1601 L 876,1601 L 877,1601 L 878,1601 L 878,1600 L 878,1601 L 879,1601 L 880,1601 L 880,1600 L 881,1600 L 881,1599 L 882,1599 L 882,1598 L 883,1598 L 883,1599 L 883,1600 L 883,1601 L 883,1602 L 882,1602 L 882,1603 L 883,1603 L 883,1604 L 883,1605 L 883,1606 L 883,1607 L 882,1607 L 882,1608 L 882,1609 L 883,1609 L 884,1609 L 884,1610 L 885,1610 L 885,1611 L 885,1612 L 885,1613 L 884,1613 L 884,1612 L 883,1612 L 883,1613 L 882,1613 L 882,1614 L 882,1615 L 882,1616 L 882,1617 L 882,1618 L 883,1619 L 883,1620 L 884,1620 L 884,1621 L 885,1621 L 885,1622 L 886,1622 L 887,1622 L 888,1622 L 888,1621 L 889,1621 L 890,1623 L 891,1625 L 891,1626 L 891,1631 L 891,1632 L 890,1633 L 890,1634 L 889,1634 L 889,1636 L 888,1636 L 888,1637 L 887,1637 L 885,1638 L 884,1638 L 882,1639 L 881,1640 L 880,1641 L 877,1644 L 876,1644 L 874,1647 L 874,1651 L 875,1651 L 874,1653 L 874,1655 L 873,1656 L 872,1657 L 872,1659 L 870,1659 L 868,1660 L 861,1660 L 860,1660 L 860,1659 L 860,1658 L 860,1657 L 860,1656 L 860,1655 L 860,1654 L 859,1654 L 859,1653 L 860,1653 L 859,1653 L 860,1653 L 859,1653 L 859,1652 L 859,1651 L 858,1650 L 858,1649 L 857,1649 L 856,1649 L 856,1648 L 855,1648 L 855,1649 L 855,1650 L 855,1651 L 855,1652 L 854,1652 L 854,1653 L 854,1654 L 855,1655 L 854,1655 L 855,1655 L 855,1656 L 855,1657 L 855,1658 L 854,1658 L 854,1659 L 855,1659 L 855,1660 L 855,1661 L 854,1662 L 854,1663 L 847,1662 L 838,1661 L 837,1661 L 834,1655 L 833,1649 L 833,1647 L 832,1646 L 831,1645 L 826,1644 L 825,1643 L 824,1643 L 823,1643 L 819,1641 L 818,1640 L 818,1636 L 818,1634 L 817,1629 L 817,1628 L 800,1621 L 797,1619 L 793,1624 L 791,1626 L 787,1629 L 786,1627 L 785,1627 L 785,1626 L 785,1627 L 784,1627 L 784,1626 L 783,1627 L 783,1626 L 782,1626 L 781,1626 L 780,1626 L 779,1626 L 779,1625 L 778,1625 L 777,1625 L 776,1625 L 776,1624 L 775,1624 L 775,1623 L 774,1623 L 773,1623 L 772,1623 L 772,1622 L 771,1622 L 771,1621 L 770,1621 L 769,1621 L 768,1620 L 767,1620 L 767,1619 L 766,1619 L 765,1619 L 764,1619 L 763,1620 L 762,1620 L 762,1619 L 762,1618 L 763,1617 L 763,1616 L 763,1615 L 762,1615 L 762,1614 L 762,1613 L 763,1612 L 764,1612 L 764,1611 L 764,1610 L 764,1609 L 764,1608 L 764,1607 L 765,1606 L 765,1605 L 764,1605 L 764,1604 L 764,1603 L 764,1602 L 764,1601 L 765,1600 L 766,1600 L 766,1599 L 767,1599 L 767,1598 L 766,1597 L 766,1596 L 766,1595 L 766,1594 L 767,1594 L 767,1593 L 766,1593 L 766,1592 L 767,1592 L 768,1591 L 768,1590 L 768,1589 L 768,1588 L 767,1588 L 767,1587 L 767,1586 L 768,1586 L 769,1586 L 768,1586 L 768,1585 L 768,1584 L 768,1583 L 768,1582 L 768,1581 L 768,1580 L 768,1579 L 769,1579 L 769,1578 L 769,1577 L 769,1576 L 770,1576 L 770,1575 L 770,1574 L 771,1574 L 770,1573 L 769,1573 L 769,1572 L 769,1571 L 770,1570 L 769,1570 L 769,1569 L 770,1569 L 771,1569 L 772,1569 L 772,1568 L 772,1567 L 771,1567 L 771,1566 L 770,1566 L 770,1565 L 771,1565 L 771,1564 L 772,1564 L 773,1564 L 773,1563 L 772,1563 L 772,1562 L 772,1561 L 773,1561 L 773,1560 L 772,1560 L 772,1559 L 773,1559 L 773,1558 L 772,1558 L 772,1557 L 773,1557 L 773,1556 L 774,1556 L 774,1555 L 774,1554 L 775,1554 L 774,1554 L 774,1553 L 773,1553 L 773,1552 L 773,1551 L 774,1551 L 774,1550 L 774,1549 L 773,1549 L 773,1548 L 773,1547 L 772,1547 L 772,1546 L 772,1545 L 772,1544 L 772,1545 L 773,1545 L 773,1544 L 773,1543 L 772,1543 L 771,1543 L 770,1543 L 770,1542 L 771,1542 L 771,1541 L 772,1541 L 773,1541 L 773,1542 L 774,1542 L 774,1543 L 775,1542 L 775,1541 L 774,1541 L 774,1540 L 774,1539 L 774,1538 L 775,1538 L 775,1537 L 776,1537 L 776,1536 L 775,1536 L 774,1535 L 775,1535 L 775,1534 L 775,1533 L 776,1533 L 776,1532 L 776,1531 L 777,1531 L 778,1531 L 778,1530 L 778,1529 L 778,1528 L 777,1527 L 776,1527 L 776,1526 L 777,1526 L 777,1525 L 778,1525 L 778,1524 L 777,1523 L 776,1522 L 775,1521 L 774,1521 L 775,1521 L 775,1520 L 775,1519 L 776,1519 L 777,1518 L 777,1517 L 777,1516 L 777,1515 L 778,1515 L 778,1514 L 779,1514 L 780,1513 L 781,1512 L 782,1511 L 782,1510 L 782,1509 L 781,1509 L 781,1508 L 782,1508 L 782,1507 L 781,1507 L 781,1506 L 780,1506 L 780,1505 L 781,1505 L 782,1504 L 782,1503 L 781,1503 L 780,1503 L 780,1504 L 779,1504 L 779,1503 L 778,1503 L 779,1502 L 778,1502 L 778,1501 L 779,1501 L 779,1500 L 779,1499 L 778,1499 L 778,1498 L 778,1497 L 779,1497 L 779,1496 L 779,1495 L 779,1494 L 779,1493 L 779,1492 L 779,1491 L 780,1491 L 780,1490 L 779,1490 L 779,1489 L 778,1489 L 778,1488 L 779,1488 L 779,1487 L 779,1486 L 778,1486 L 778,1485 L 778,1484 L 778,1483 L 778,1482 L 778,1481 L 778,1480 L 778,1479 L 779,1479 L 779,1478 L 778,1478 L 778,1477 L 779,1477 L 779,1476 L 779,1475 L 779,1474 L 780,1473 L 780,1472 L 779,1472 L 779,1471 L 780,1471 L 779,1471 L 779,1470 L 779,1469 L 779,1468 L 780,1468 L 780,1467 L 780,1466 L 779,1466 L 780,1466 L 780,1465 L 781,1465 L 781,1464 L 781,1463 L 782,1463 L 782,1462 L 781,1462 L 782,1462 L 782,1461 L 782,1460 L 782,1459 L 781,1459 L 782,1459 L 781,1459 L 781,1458 L 782,1458 L 782,1457 L 782,1456 L 781,1456 L 781,1455 L 781,1454 L 781,1453 L 781,1452 L 781,1451 L 781,1450 L 782,1450 L 783,1449 L 783,1448 L 782,1448 L 782,1447 L 782,1446 L 783,1446 L 783,1445 L 784,1445 L 784,1444 L 783,1444 L 783,1443 L 784,1443 L 785,1442 L 785,1441 L 786,1441 L 786,1442 L 787,1441 L 787,1440 L 786,1440 L 786,1439 L 787,1439 L 788,1439 L 789,1439 L 790,1439 L 790,1438 L 791,1438"/>
    </g>
    <g id="606">
      <path id="60601" d="M 1125,1418 L 1126,1418 L 1127,1418 L 1128,1418 L 1128,1419 L 1128,1420 L 1128,1421 L 1128,1422 L 1127,1423 L 1127,1424 L 1128,1424 L 1129,1425 L 1130,1425 L 1130,1426 L 1131,1427 L 1131,1428 L 1132,1429 L 1132,1430 L 1133,1430 L 1134,1430 L 1134,1429 L 1135,1429 L 1136,1429 L 1136,1430 L 1137,1430 L 1137,1431 L 1138,1431 L 1139,1431 L 1140,1431 L 1140,1430 L 1140,1429 L 1141,1429 L 1141,1428 L 1142,1427 L 1143,1426 L 1144,1427 L 1145,1427 L 1145,1428 L 1146,1428 L 1147,1429 L 1148,1429 L 1149,1429 L 1150,1429 L 1151,1428 L 1153,1429 L 1154,1430 L 1155,1430 L 1155,1431 L 1156,1431 L 1156,1432 L 1156,1433 L 1157,1433 L 1157,1434 L 1158,1434 L 1159,1434 L 1159,1435 L 1159,1436 L 1160,1436 L 1160,1437 L 1160,1438 L 1160,1439 L 1160,1440 L 1161,1441 L 1162,1441 L 1163,1441 L 1164,1441 L 1165,1441 L 1166,1441 L 1166,1442 L 1167,1442 L 1168,1442 L 1169,1442 L 1169,1443 L 1171,1443 L 1173,1444 L 1174,1443 L 1174,1442 L 1175,1442 L 1175,1441 L 1176,1441 L 1177,1441 L 1177,1440 L 1177,1439 L 1177,1438 L 1178,1438 L 1179,1438 L 1179,1439 L 1179,1440 L 1179,1441 L 1179,1442 L 1179,1443 L 1178,1444 L 1178,1445 L 1178,1446 L 1178,1447 L 1179,1447 L 1179,1448 L 1180,1449 L 1180,1450 L 1180,1451 L 1179,1452 L 1178,1453 L 1178,1454 L 1178,1455 L 1178,1456 L 1179,1456 L 1180,1457 L 1180,1458 L 1181,1458 L 1182,1458 L 1183,1458 L 1184,1458 L 1185,1457 L 1226,1457 L 1263,1457 L 1265,1457 L 1274,1457 L 1277,1457 L 1311,1457 L 1317,1457 L 1315,1465 L 1315,1469 L 1312,1481 L 1308,1491 L 1308,1495 L 1308,1497 L 1308,1498 L 1307,1499 L 1307,1500 L 1307,1501 L 1306,1502 L 1306,1503 L 1305,1507 L 1305,1509 L 1305,1511 L 1304,1512 L 1304,1513 L 1304,1514 L 1303,1517 L 1303,1519 L 1301,1523 L 1300,1528 L 1299,1530 L 1299,1531 L 1299,1532 L 1299,1533 L 1299,1534 L 1298,1535 L 1297,1537 L 1296,1538 L 1297,1538 L 1297,1539 L 1297,1540 L 1297,1541 L 1297,1542 L 1297,1543 L 1296,1543 L 1296,1544 L 1296,1545 L 1296,1546 L 1295,1546 L 1295,1547 L 1295,1548 L 1294,1549 L 1294,1550 L 1295,1550 L 1294,1552 L 1295,1553 L 1294,1554 L 1293,1554 L 1292,1558 L 1291,1562 L 1291,1565 L 1290,1565 L 1289,1567 L 1288,1569 L 1288,1570 L 1288,1571 L 1287,1571 L 1287,1572 L 1287,1573 L 1286,1574 L 1286,1575 L 1286,1576 L 1286,1577 L 1286,1578 L 1285,1579 L 1285,1580 L 1285,1581 L 1285,1582 L 1284,1583 L 1283,1584 L 1283,1585 L 1283,1587 L 1283,1588 L 1282,1589 L 1281,1589 L 1280,1589 L 1279,1589 L 1280,1590 L 1279,1590 L 1278,1590 L 1278,1589 L 1278,1590 L 1277,1590 L 1277,1591 L 1276,1591 L 1275,1591 L 1275,1590 L 1274,1590 L 1274,1589 L 1273,1589 L 1272,1589 L 1272,1588 L 1271,1588 L 1270,1589 L 1270,1588 L 1269,1588 L 1268,1588 L 1267,1588 L 1266,1588 L 1266,1587 L 1265,1587 L 1264,1587 L 1263,1587 L 1263,1586 L 1262,1586 L 1262,1585 L 1261,1585 L 1261,1584 L 1261,1583 L 1260,1583 L 1260,1584 L 1260,1585 L 1259,1585 L 1259,1586 L 1258,1587 L 1259,1587 L 1259,1588 L 1258,1588 L 1258,1589 L 1259,1590 L 1258,1590 L 1258,1591 L 1258,1592 L 1257,1592 L 1257,1593 L 1256,1593 L 1255,1593 L 1255,1594 L 1256,1594 L 1256,1595 L 1255,1596 L 1254,1596 L 1254,1597 L 1254,1598 L 1254,1599 L 1254,1600 L 1254,1601 L 1254,1602 L 1254,1603 L 1253,1603 L 1253,1604 L 1254,1604 L 1254,1605 L 1255,1605 L 1255,1606 L 1255,1607 L 1254,1607 L 1254,1606 L 1254,1607 L 1254,1608 L 1255,1608 L 1254,1608 L 1254,1609 L 1254,1610 L 1253,1610 L 1253,1611 L 1253,1612 L 1253,1613 L 1252,1613 L 1253,1613 L 1253,1614 L 1253,1615 L 1252,1615 L 1252,1616 L 1253,1616 L 1253,1617 L 1254,1617 L 1253,1617 L 1253,1618 L 1253,1619 L 1253,1620 L 1253,1621 L 1254,1621 L 1253,1621 L 1253,1622 L 1254,1622 L 1253,1622 L 1253,1623 L 1254,1623 L 1254,1624 L 1254,1625 L 1254,1626 L 1253,1626 L 1253,1627 L 1252,1627 L 1252,1628 L 1251,1629 L 1250,1629 L 1249,1629 L 1249,1628 L 1248,1628 L 1247,1628 L 1247,1629 L 1246,1629 L 1246,1630 L 1245,1631 L 1244,1630 L 1243,1630 L 1242,1629 L 1241,1629 L 1240,1629 L 1239,1629 L 1238,1629 L 1237,1629 L 1236,1629 L 1235,1630 L 1234,1630 L 1233,1630 L 1233,1631 L 1232,1631 L 1231,1631 L 1230,1631 L 1229,1631 L 1228,1631 L 1228,1632 L 1227,1632 L 1226,1632 L 1225,1632 L 1224,1632 L 1223,1632 L 1222,1632 L 1222,1631 L 1222,1632 L 1222,1631 L 1221,1631 L 1220,1631 L 1219,1631 L 1218,1631 L 1218,1630 L 1217,1630 L 1216,1630 L 1215,1630 L 1214,1630 L 1214,1631 L 1213,1631 L 1212,1631 L 1211,1631 L 1210,1631 L 1210,1632 L 1210,1631 L 1209,1631 L 1208,1631 L 1207,1631 L 1204,1629 L 1202,1629 L 1201,1631 L 1200,1633 L 1199,1633 L 1199,1634 L 1199,1636 L 1198,1638 L 1199,1640 L 1199,1643 L 1198,1645 L 1199,1646 L 1200,1648 L 1201,1650 L 1199,1651 L 1197,1651 L 1196,1655 L 1196,1658 L 1195,1661 L 1195,1668 L 1192,1671 L 1192,1674 L 1191,1677 L 1189,1679 L 1187,1687 L 1185,1694 L 1183,1700 L 1180,1703 L 1179,1706 L 1182,1712 L 1179,1723 L 1178,1731 L 1176,1737 L 1175,1743 L 1175,1746 L 1175,1756 L 1174,1762 L 1170,1769 L 1164,1776 L 1161,1777 L 1157,1778 L 1155,1778 L 1154,1778 L 1152,1778 L 1151,1778 L 1151,1777 L 1151,1776 L 1150,1775 L 1149,1774 L 1148,1775 L 1147,1775 L 1147,1776 L 1146,1776 L 1146,1777 L 1145,1777 L 1144,1778 L 1143,1779 L 1142,1780 L 1142,1781 L 1140,1782 L 1140,1783 L 1139,1784 L 1138,1785 L 1137,1785 L 1137,1786 L 1136,1786 L 1136,1787 L 1136,1788 L 1135,1788 L 1134,1788 L 1133,1788 L 1132,1788 L 1131,1788 L 1130,1788 L 1129,1788 L 1129,1787 L 1128,1786 L 1127,1786 L 1126,1785 L 1125,1785 L 1125,1784 L 1124,1784 L 1124,1783 L 1123,1783 L 1123,1782 L 1122,1781 L 1121,1780 L 1120,1780 L 1119,1780 L 1118,1780 L 1117,1780 L 1116,1780 L 1115,1781 L 1114,1781 L 1114,1780 L 1113,1780 L 1113,1779 L 1112,1779 L 1112,1777 L 1111,1776 L 1110,1776 L 1110,1777 L 1109,1776 L 1108,1776 L 1107,1776 L 1107,1777 L 1106,1777 L 1105,1777 L 1103,1778 L 1102,1778 L 1099,1779 L 1097,1778 L 1096,1779 L 1094,1779 L 1092,1779 L 1088,1778 L 1086,1778 L 1085,1779 L 1085,1778 L 1084,1778 L 1083,1778 L 1082,1778 L 1082,1779 L 1081,1778 L 1080,1778 L 1080,1777 L 1080,1776 L 1081,1776 L 1081,1775 L 1080,1775 L 1079,1775 L 1078,1775 L 1078,1774 L 1077,1774 L 1076,1775 L 1075,1774 L 1074,1774 L 1074,1775 L 1073,1775 L 1072,1776 L 1071,1776 L 1070,1776 L 1069,1776 L 1069,1777 L 1069,1776 L 1069,1775 L 1069,1774 L 1069,1773 L 1068,1773 L 1067,1773 L 1066,1773 L 1066,1772 L 1066,1771 L 1065,1771 L 1065,1770 L 1065,1769 L 1064,1769 L 1063,1768 L 1064,1768 L 1063,1767 L 1063,1766 L 1062,1766 L 1062,1765 L 1062,1764 L 1061,1763 L 1060,1763 L 1060,1762 L 1060,1761 L 1060,1760 L 1060,1759 L 1060,1758 L 1060,1757 L 1060,1756 L 1061,1756 L 1061,1755 L 1061,1754 L 1061,1753 L 1061,1752 L 1061,1751 L 1061,1750 L 1062,1749 L 1062,1748 L 1061,1748 L 1060,1748 L 1060,1747 L 1060,1746 L 1061,1746 L 1061,1745 L 1060,1744 L 1060,1743 L 1061,1743 L 1062,1743 L 1062,1742 L 1063,1742 L 1063,1741 L 1063,1740 L 1062,1739 L 1063,1739 L 1063,1738 L 1063,1737 L 1062,1737 L 1061,1737 L 1061,1736 L 1061,1735 L 1061,1734 L 1061,1733 L 1061,1732 L 1060,1732 L 1061,1731 L 1062,1731 L 1063,1731 L 1062,1730 L 1062,1729 L 1063,1729 L 1062,1729 L 1062,1728 L 1063,1728 L 1063,1727 L 1063,1726 L 1062,1726 L 1062,1725 L 1063,1725 L 1064,1724 L 1063,1724 L 1063,1723 L 1063,1722 L 1062,1722 L 1062,1721 L 1061,1721 L 1062,1721 L 1061,1720 L 1061,1719 L 1060,1719 L 1060,1718 L 1060,1717 L 1059,1717 L 1059,1716 L 1058,1716 L 1058,1715 L 1058,1714 L 1059,1714 L 1059,1713 L 1059,1712 L 1059,1711 L 1059,1710 L 1059,1709 L 1060,1708 L 1059,1708 L 1059,1707 L 1059,1706 L 1060,1706 L 1060,1705 L 1060,1704 L 1060,1703 L 1061,1703 L 1061,1702 L 1061,1701 L 1062,1701 L 1061,1701 L 1061,1700 L 1062,1700 L 1062,1699 L 1063,1699 L 1063,1698 L 1063,1697 L 1063,1696 L 1064,1696 L 1064,1695 L 1065,1695 L 1065,1694 L 1065,1693 L 1065,1692 L 1064,1692 L 1064,1691 L 1064,1690 L 1064,1689 L 1064,1688 L 1064,1687 L 1064,1686 L 1063,1686 L 1064,1686 L 1064,1685 L 1063,1685 L 1063,1684 L 1063,1683 L 1064,1683 L 1064,1682 L 1064,1681 L 1065,1681 L 1065,1680 L 1065,1679 L 1065,1678 L 1065,1677 L 1065,1676 L 1065,1675 L 1065,1674 L 1065,1673 L 1066,1673 L 1066,1672 L 1066,1671 L 1067,1671 L 1067,1670 L 1067,1669 L 1066,1669 L 1066,1668 L 1065,1667 L 1064,1664 L 1066,1661 L 1068,1658 L 1071,1655 L 1072,1650 L 1070,1642 L 1066,1638 L 1059,1632 L 1058,1630 L 1059,1628 L 1059,1626 L 1059,1625 L 1060,1624 L 1060,1621 L 1059,1618 L 1057,1616 L 1053,1614 L 1052,1609 L 1050,1608 L 1045,1607 L 1043,1612 L 1043,1614 L 1042,1614 L 1042,1613 L 1041,1613 L 1041,1614 L 1040,1614 L 1039,1614 L 1038,1614 L 1038,1613 L 1037,1613 L 1037,1612 L 1037,1611 L 1036,1611 L 1036,1609 L 1036,1606 L 1038,1604 L 1038,1602 L 1039,1599 L 1039,1598 L 1040,1598 L 1041,1598 L 1042,1598 L 1042,1597 L 1043,1597 L 1043,1596 L 1044,1596 L 1045,1596 L 1045,1595 L 1044,1594 L 1044,1593 L 1045,1593 L 1044,1593 L 1045,1593 L 1044,1593 L 1044,1592 L 1045,1592 L 1045,1591 L 1046,1591 L 1046,1590 L 1047,1590 L 1047,1589 L 1048,1589 L 1048,1588 L 1048,1587 L 1048,1586 L 1049,1586 L 1050,1586 L 1051,1586 L 1052,1586 L 1058,1586 L 1062,1579 L 1061,1578 L 1060,1577 L 1060,1574 L 1061,1572 L 1061,1571 L 1061,1569 L 1062,1568 L 1062,1565 L 1064,1565 L 1064,1563 L 1065,1561 L 1064,1562 L 1063,1562 L 1062,1562 L 1062,1563 L 1061,1563 L 1061,1564 L 1060,1564 L 1059,1564 L 1058,1564 L 1057,1564 L 1056,1564 L 1055,1564 L 1054,1564 L 1053,1565 L 1052,1565 L 1051,1565 L 1051,1564 L 1050,1565 L 1049,1565 L 1049,1564 L 1048,1564 L 1048,1565 L 1048,1564 L 1047,1564 L 1047,1565 L 1046,1565 L 1046,1566 L 1045,1566 L 1044,1566 L 1043,1567 L 1042,1567 L 1041,1567 L 1040,1566 L 1039,1566 L 1039,1565 L 1038,1565 L 1038,1564 L 1037,1564 L 1036,1564 L 1036,1563 L 1035,1562 L 1035,1561 L 1034,1561 L 1034,1560 L 1035,1560 L 1035,1558 L 1035,1557 L 1035,1556 L 1035,1555 L 1035,1554 L 1035,1553 L 1034,1553 L 1034,1552 L 1033,1551 L 1034,1551 L 1034,1550 L 1035,1549 L 1035,1548 L 1036,1547 L 1036,1546 L 1037,1545 L 1037,1544 L 1037,1543 L 1037,1542 L 1037,1541 L 1037,1540 L 1036,1539 L 1036,1538 L 1036,1537 L 1037,1537 L 1037,1536 L 1038,1536 L 1039,1536 L 1039,1535 L 1039,1534 L 1039,1533 L 1039,1532 L 1039,1531 L 1039,1530 L 1040,1529 L 1040,1528 L 1039,1527 L 1039,1526 L 1039,1525 L 1039,1524 L 1039,1523 L 1040,1523 L 1040,1522 L 1040,1521 L 1040,1520 L 1040,1519 L 1040,1518 L 1040,1517 L 1040,1516 L 1040,1515 L 1041,1515 L 1041,1514 L 1042,1514 L 1043,1514 L 1044,1513 L 1045,1512 L 1045,1511 L 1045,1510 L 1046,1509 L 1047,1508 L 1047,1507 L 1048,1506 L 1049,1505 L 1050,1505 L 1050,1504 L 1050,1503 L 1050,1502 L 1050,1501 L 1050,1500 L 1050,1499 L 1050,1498 L 1051,1498 L 1052,1498 L 1052,1499 L 1053,1499 L 1053,1500 L 1053,1501 L 1053,1502 L 1054,1502 L 1055,1502 L 1056,1502 L 1056,1503 L 1057,1503 L 1058,1503 L 1058,1504 L 1059,1504 L 1060,1504 L 1061,1504 L 1062,1504 L 1062,1505 L 1062,1504 L 1063,1504 L 1063,1505 L 1064,1505 L 1065,1505 L 1066,1505 L 1067,1505 L 1067,1504 L 1068,1504 L 1068,1503 L 1069,1503 L 1070,1503 L 1070,1504 L 1071,1503 L 1072,1503 L 1072,1502 L 1073,1502 L 1074,1502 L 1075,1502 L 1076,1502 L 1077,1502 L 1078,1502 L 1078,1501 L 1079,1501 L 1080,1501 L 1080,1502 L 1081,1502 L 1082,1502 L 1082,1501 L 1083,1501 L 1084,1501 L 1085,1501 L 1086,1501 L 1087,1501 L 1088,1501 L 1089,1501 L 1089,1502 L 1090,1503 L 1090,1502 L 1091,1502 L 1092,1503 L 1093,1503 L 1094,1503 L 1094,1504 L 1095,1504 L 1096,1504 L 1097,1504 L 1097,1505 L 1098,1505 L 1099,1505 L 1099,1506 L 1100,1506 L 1100,1507 L 1101,1507 L 1102,1507 L 1103,1507 L 1104,1507 L 1105,1507 L 1106,1507 L 1106,1506 L 1107,1506 L 1107,1505 L 1108,1504 L 1109,1504 L 1110,1503 L 1111,1503 L 1112,1503 L 1113,1503 L 1114,1503 L 1114,1502 L 1113,1502 L 1113,1501 L 1114,1500 L 1114,1499 L 1114,1498 L 1114,1497 L 1115,1497 L 1115,1496 L 1115,1495 L 1114,1494 L 1115,1494 L 1115,1493 L 1116,1493 L 1116,1492 L 1116,1491 L 1117,1490 L 1117,1489 L 1117,1488 L 1118,1487 L 1118,1486 L 1117,1486 L 1117,1485 L 1116,1484 L 1116,1483 L 1116,1482 L 1116,1481 L 1115,1480 L 1115,1479 L 1114,1478 L 1114,1477 L 1114,1476 L 1115,1476 L 1116,1475 L 1116,1474 L 1116,1473 L 1116,1472 L 1116,1471 L 1115,1471 L 1115,1470 L 1114,1470 L 1114,1469 L 1114,1468 L 1114,1467 L 1115,1467 L 1116,1467 L 1117,1467 L 1118,1467 L 1119,1467 L 1120,1467 L 1120,1466 L 1121,1466 L 1121,1465 L 1120,1465 L 1120,1464 L 1120,1463 L 1120,1462 L 1119,1461 L 1118,1460 L 1117,1460 L 1116,1460 L 1116,1459 L 1116,1458 L 1117,1458 L 1117,1457 L 1118,1458 L 1119,1457 L 1119,1456 L 1119,1455 L 1120,1454 L 1120,1453 L 1119,1453 L 1119,1452 L 1118,1452 L 1117,1452 L 1117,1451 L 1117,1450 L 1117,1449 L 1118,1449 L 1118,1448 L 1117,1448 L 1117,1447 L 1117,1446 L 1117,1445 L 1118,1445 L 1119,1445 L 1120,1445 L 1120,1444 L 1121,1443 L 1120,1443 L 1120,1442 L 1120,1441 L 1119,1441 L 1118,1442 L 1117,1442 L 1116,1442 L 1116,1443 L 1115,1443 L 1115,1442 L 1115,1441 L 1116,1441 L 1117,1441 L 1117,1440 L 1118,1440 L 1118,1439 L 1118,1438 L 1118,1437 L 1119,1437 L 1120,1437 L 1120,1436 L 1120,1435 L 1119,1435 L 1119,1434 L 1118,1434 L 1118,1433 L 1119,1432 L 1119,1431 L 1120,1431 L 1120,1430 L 1120,1429 L 1120,1428 L 1120,1427 L 1120,1426 L 1120,1425 L 1121,1425 L 1122,1424 L 1122,1423 L 1123,1422 L 1122,1422 L 1122,1421 L 1121,1421 L 1121,1420 L 1121,1419 L 1121,1418 L 1122,1418 L 1123,1418 L 1124,1418 L 1125,1418"/>
    </g>
  </g>
</svg>
