<?xml version="1.0" standalone="no"?><!DOCTYPE svg PUBLIC "-//W3C//DTD SVG 1.1//EN" "http://www.w3.org/Graphics/SVG/1.1/DTD/svg11.dtd"><svg xmlns="http://www.w3.org/2000/svg" viewBox="846 1536 226 211" version = "1.1">
<g id="60101" ><path d="M 980,1537 L 981,1537 L 982,1537 L 984,1537 L 986,1539 L 985,1543 L 983,1551 L 984,1552 L 991,1552 L 993,1551 L 995,1551 L 998,1551 L 999,1553 L 1000,1556 L 999,1557 L 999,1559 L 999,1561 L 1000,1563 L 1002,1566 L 1007,1566 L 1012,1568 L 1016,1571 L 1017,1570 L 1019,1570 L 1020,1571 L 1021,1572 L 1022,1573 L 1023,1572 L 1024,1572 L 1024,1571 L 1025,1571 L 1025,1570 L 1025,1569 L 1025,1568 L 1026,1568 L 1026,1567 L 1025,1567 L 1026,1567 L 1026,1566 L 1027,1566 L 1028,1566 L 1028,1565 L 1028,1566 L 1029,1566 L 1029,1565 L 1030,1565 L 1030,1564 L 1031,1564 L 1032,1563 L 1033,1563 L 1033,1562 L 1034,1562 L 1034,1561 L 1034,1560 L 1035,1560 L 1034,1560 L 1034,1561 L 1035,1561 L 1035,1562 L 1036,1563 L 1036,1564 L 1037,1564 L 1038,1564 L 1038,1565 L 1039,1565 L 1039,1566 L 1040,1566 L 1041,1567 L 1042,1567 L 1043,1567 L 1044,1566 L 1045,1566 L 1046,1566 L 1046,1565 L 1047,1565 L 1047,1564 L 1048,1564 L 1048,1565 L 1048,1564 L 1049,1564 L 1049,1565 L 1050,1565 L 1051,1564 L 1051,1565 L 1052,1565 L 1053,1565 L 1054,1564 L 1055,1564 L 1056,1564 L 1057,1564 L 1058,1564 L 1059,1564 L 1060,1564 L 1061,1564 L 1061,1563 L 1062,1563 L 1062,1562 L 1063,1562 L 1064,1562 L 1065,1561 L 1064,1563 L 1064,1565 L 1062,1565 L 1062,1568 L 1061,1569 L 1061,1571 L 1061,1572 L 1060,1574 L 1060,1577 L 1061,1578 L 1062,1579 L 1058,1586 L 1052,1586 L 1051,1586 L 1050,1586 L 1049,1586 L 1048,1586 L 1048,1587 L 1048,1588 L 1048,1589 L 1047,1589 L 1047,1590 L 1046,1590 L 1046,1591 L 1045,1591 L 1045,1592 L 1044,1592 L 1044,1593 L 1045,1593 L 1044,1593 L 1045,1593 L 1044,1593 L 1044,1594 L 1045,1595 L 1045,1596 L 1044,1596 L 1043,1596 L 1043,1597 L 1042,1597 L 1042,1598 L 1041,1598 L 1040,1598 L 1039,1598 L 1039,1599 L 1038,1602 L 1038,1604 L 1036,1606 L 1036,1609 L 1036,1611 L 1037,1611 L 1037,1612 L 1037,1613 L 1038,1613 L 1038,1614 L 1039,1614 L 1040,1614 L 1041,1614 L 1041,1613 L 1042,1613 L 1042,1614 L 1043,1614 L 1043,1612 L 1045,1607 L 1050,1608 L 1052,1609 L 1053,1614 L 1057,1616 L 1059,1618 L 1060,1621 L 1060,1624 L 1059,1625 L 1059,1626 L 1059,1628 L 1058,1630 L 1059,1632 L 1066,1638 L 1070,1642 L 1072,1650 L 1071,1655 L 1068,1658 L 1066,1661 L 1064,1664 L 1065,1667 L 1066,1668 L 1066,1669 L 1067,1669 L 1067,1670 L 1067,1671 L 1066,1671 L 1066,1672 L 1066,1673 L 1065,1673 L 1065,1674 L 1065,1675 L 1065,1676 L 1065,1677 L 1065,1678 L 1065,1679 L 1065,1680 L 1065,1681 L 1064,1681 L 1064,1682 L 1064,1683 L 1063,1683 L 1063,1684 L 1063,1685 L 1064,1685 L 1064,1686 L 1063,1686 L 1064,1686 L 1064,1687 L 1064,1688 L 1064,1689 L 1064,1690 L 1064,1691 L 1064,1692 L 1065,1692 L 1065,1693 L 1065,1694 L 1065,1695 L 1064,1695 L 1064,1696 L 1063,1696 L 1063,1697 L 1063,1698 L 1063,1699 L 1062,1699 L 1062,1700 L 1061,1700 L 1061,1701 L 1062,1701 L 1061,1701 L 1061,1702 L 1061,1703 L 1060,1703 L 1060,1704 L 1060,1705 L 1060,1706 L 1059,1706 L 1059,1707 L 1059,1708 L 1060,1708 L 1059,1709 L 1059,1710 L 1059,1711 L 1059,1712 L 1059,1713 L 1059,1714 L 1058,1714 L 1058,1715 L 1058,1716 L 1059,1716 L 1059,1717 L 1060,1717 L 1060,1718 L 1060,1719 L 1061,1719 L 1061,1720 L 1062,1721 L 1061,1721 L 1062,1721 L 1062,1722 L 1063,1722 L 1063,1723 L 1063,1724 L 1064,1724 L 1063,1725 L 1062,1725 L 1062,1726 L 1063,1726 L 1063,1727 L 1063,1728 L 1062,1728 L 1062,1729 L 1063,1729 L 1062,1729 L 1062,1730 L 1063,1731 L 1062,1731 L 1061,1731 L 1060,1732 L 1060,1731 L 1059,1731 L 1059,1730 L 1058,1730 L 1057,1730 L 1057,1729 L 1056,1728 L 1056,1727 L 1055,1727 L 1054,1727 L 1053,1727 L 1052,1727 L 1051,1726 L 1050,1727 L 1048,1727 L 1047,1727 L 1047,1728 L 1046,1728 L 1046,1729 L 1045,1729 L 1044,1729 L 1043,1730 L 1041,1733 L 1039,1736 L 1037,1739 L 1036,1741 L 1035,1742 L 1034,1743 L 1033,1743 L 1031,1744 L 1030,1745 L 1029,1746 L 1028,1746 L 1027,1746 L 1026,1746 L 1024,1746 L 1023,1746 L 1022,1746 L 1022,1745 L 1021,1745 L 1020,1746 L 1020,1747 L 1019,1747 L 1018,1747 L 1017,1747 L 1017,1746 L 1016,1746 L 1015,1746 L 1014,1746 L 1014,1745 L 1013,1744 L 1013,1743 L 1013,1742 L 1013,1741 L 1013,1740 L 1014,1740 L 1014,1739 L 1014,1738 L 1014,1737 L 1014,1736 L 1015,1736 L 1015,1735 L 1016,1735 L 1016,1734 L 1016,1733 L 1017,1733 L 1016,1733 L 1016,1732 L 1015,1732 L 1014,1731 L 1015,1731 L 1014,1731 L 1014,1730 L 1014,1729 L 1014,1728 L 1014,1727 L 1014,1726 L 1015,1726 L 1015,1725 L 1015,1724 L 1016,1724 L 1016,1723 L 1016,1722 L 1016,1721 L 1016,1720 L 1016,1718 L 1015,1717 L 1013,1717 L 1010,1718 L 1009,1717 L 1009,1716 L 1011,1713 L 1010,1710 L 1011,1705 L 1014,1695 L 1014,1694 L 1015,1694 L 1015,1693 L 1015,1692 L 1016,1692 L 1017,1692 L 1017,1691 L 1018,1691 L 1018,1690 L 1019,1690 L 1018,1690 L 1018,1689 L 1018,1688 L 1019,1688 L 1019,1687 L 1018,1687 L 1019,1687 L 1018,1687 L 1018,1686 L 1017,1686 L 1017,1687 L 1017,1688 L 1016,1688 L 1015,1688 L 1015,1687 L 1015,1686 L 1015,1685 L 1015,1684 L 1014,1684 L 1015,1684 L 1015,1683 L 1014,1683 L 1015,1683 L 1015,1682 L 1016,1682 L 1015,1681 L 1015,1680 L 1014,1680 L 1013,1680 L 1012,1679 L 1012,1678 L 1011,1678 L 1011,1677 L 1010,1677 L 1009,1676 L 1008,1676 L 1008,1675 L 1008,1674 L 1007,1674 L 1007,1673 L 1006,1673 L 1005,1673 L 1004,1671 L 1003,1670 L 999,1669 L 999,1668 L 988,1665 L 988,1664 L 987,1664 L 986,1664 L 985,1664 L 984,1664 L 983,1664 L 983,1663 L 982,1663 L 981,1663 L 980,1663 L 979,1664 L 978,1663 L 976,1663 L 975,1663 L 973,1663 L 972,1664 L 971,1665 L 971,1666 L 970,1666 L 970,1667 L 969,1667 L 968,1667 L 967,1667 L 966,1667 L 966,1666 L 965,1666 L 965,1667 L 965,1668 L 966,1668 L 966,1669 L 965,1669 L 964,1669 L 964,1668 L 964,1667 L 964,1666 L 963,1666 L 963,1665 L 963,1664 L 962,1664 L 962,1663 L 961,1663 L 960,1663 L 959,1663 L 959,1662 L 958,1662 L 958,1661 L 957,1661 L 956,1661 L 955,1661 L 954,1661 L 953,1661 L 952,1661 L 951,1661 L 951,1662 L 950,1662 L 950,1663 L 950,1664 L 949,1665 L 948,1666 L 948,1667 L 947,1667 L 947,1668 L 946,1668 L 946,1669 L 946,1670 L 945,1671 L 945,1672 L 943,1673 L 942,1672 L 941,1672 L 940,1673 L 939,1673 L 938,1674 L 938,1673 L 936,1674 L 935,1673 L 935,1672 L 934,1672 L 934,1671 L 933,1670 L 932,1671 L 929,1671 L 929,1673 L 928,1673 L 928,1675 L 929,1675 L 928,1677 L 927,1678 L 926,1679 L 925,1680 L 924,1681 L 924,1682 L 922,1685 L 919,1687 L 919,1688 L 918,1689 L 917,1691 L 910,1692 L 906,1694 L 899,1693 L 895,1691 L 891,1698 L 894,1700 L 894,1701 L 894,1702 L 894,1703 L 892,1704 L 892,1706 L 891,1709 L 890,1710 L 889,1711 L 887,1711 L 884,1712 L 881,1711 L 878,1709 L 876,1710 L 874,1710 L 871,1710 L 869,1710 L 869,1711 L 864,1716 L 861,1717 L 859,1716 L 858,1717 L 857,1716 L 855,1716 L 855,1717 L 853,1718 L 851,1719 L 849,1715 L 848,1713 L 848,1711 L 848,1709 L 848,1708 L 846,1707 L 846,1703 L 847,1702 L 847,1700 L 852,1697 L 852,1696 L 852,1695 L 850,1690 L 851,1688 L 851,1686 L 854,1679 L 852,1677 L 853,1677 L 854,1676 L 856,1676 L 856,1675 L 857,1674 L 857,1673 L 857,1672 L 857,1671 L 857,1670 L 857,1669 L 858,1669 L 858,1668 L 858,1667 L 859,1667 L 859,1666 L 859,1665 L 860,1665 L 861,1665 L 861,1664 L 861,1663 L 861,1662 L 861,1661 L 860,1661 L 860,1660 L 861,1660 L 868,1660 L 870,1659 L 872,1659 L 872,1657 L 873,1656 L 874,1655 L 874,1653 L 875,1651 L 876,1652 L 879,1652 L 880,1652 L 884,1652 L 886,1651 L 887,1649 L 890,1648 L 891,1648 L 892,1648 L 895,1648 L 896,1647 L 899,1645 L 901,1645 L 902,1646 L 904,1646 L 905,1646 L 907,1645 L 909,1643 L 909,1642 L 911,1641 L 912,1639 L 913,1639 L 914,1638 L 916,1637 L 917,1635 L 917,1634 L 920,1632 L 920,1631 L 920,1629 L 919,1627 L 919,1626 L 920,1626 L 920,1625 L 921,1625 L 922,1624 L 923,1624 L 924,1624 L 925,1624 L 926,1624 L 926,1623 L 927,1623 L 927,1622 L 927,1621 L 927,1620 L 927,1619 L 927,1618 L 928,1618 L 928,1617 L 928,1616 L 928,1615 L 929,1615 L 929,1614 L 930,1613 L 931,1613 L 932,1612 L 933,1611 L 933,1610 L 934,1610 L 935,1609 L 936,1608 L 936,1607 L 937,1607 L 937,1606 L 937,1605 L 938,1605 L 938,1604 L 939,1604 L 939,1603 L 939,1602 L 940,1602 L 940,1601 L 941,1601 L 940,1600 L 941,1600 L 941,1599 L 942,1599 L 942,1598 L 942,1597 L 943,1596 L 942,1595 L 942,1594 L 942,1593 L 942,1592 L 942,1591 L 942,1590 L 943,1590 L 943,1589 L 944,1589 L 944,1588 L 945,1588 L 946,1588 L 946,1587 L 947,1587 L 948,1587 L 948,1586 L 949,1586 L 950,1586 L 951,1586 L 951,1585 L 952,1585 L 952,1586 L 953,1586 L 954,1586 L 955,1586 L 956,1586 L 957,1585 L 958,1585 L 959,1585 L 960,1585 L 961,1585 L 961,1584 L 962,1584 L 962,1583 L 962,1582 L 963,1582 L 963,1580 L 963,1579 L 964,1577 L 964,1576 L 964,1572 L 965,1572 L 966,1572 L 967,1567 L 966,1565 L 968,1565 L 972,1564 L 972,1563 L 972,1560 L 972,1559 L 972,1558 L 971,1556 L 970,1553 L 969,1548 L 971,1546 L 972,1546 L 973,1544 L 973,1542 L 975,1540 L 975,1539 L 976,1539 L 976,1538 L 976,1537 L 976,1536 L 977,1536 L 978,1536 L 979,1536 L 980,1537 " /></g>
</svg>
