<?xml version="1.0" standalone="no"?><!DOCTYPE svg PUBLIC "-//W3C//DTD SVG 1.1//EN" "http://www.w3.org/Graphics/SVG/1.1/DTD/svg11.dtd"><svg xmlns="http://www.w3.org/2000/svg" viewBox="1033 1981 68 107" version = "1.1">
<g id="60202" ><path d="M 1095,2017 L 1094,2019 L 1093,2021 L 1093,2022 L 1093,2024 L 1092,2025 L 1093,2027 L 1092,2028 L 1091,2029 L 1090,2030 L 1090,2031 L 1090,2032 L 1090,2033 L 1091,2035 L 1092,2036 L 1090,2038 L 1091,2039 L 1091,2040 L 1093,2040 L 1091,2042 L 1089,2042 L 1087,2043 L 1086,2044 L 1088,2045 L 1091,2046 L 1092,2048 L 1091,2050 L 1089,2052 L 1088,2053 L 1088,2055 L 1089,2057 L 1088,2057 L 1086,2059 L 1085,2063 L 1086,2070 L 1085,2072 L 1083,2073 L 1082,2073 L 1080,2073 L 1079,2073 L 1078,2074 L 1079,2075 L 1080,2077 L 1081,2078 L 1081,2081 L 1079,2081 L 1078,2081 L 1077,2082 L 1077,2084 L 1077,2085 L 1077,2086 L 1077,2088 L 1075,2088 L 1075,2086 L 1076,2085 L 1076,2084 L 1076,2083 L 1074,2083 L 1073,2084 L 1072,2085 L 1071,2085 L 1070,2085 L 1069,2085 L 1068,2083 L 1067,2082 L 1067,2080 L 1068,2079 L 1069,2081 L 1070,2081 L 1071,2081 L 1071,2080 L 1071,2078 L 1071,2077 L 1071,2076 L 1071,2074 L 1072,2073 L 1071,2071 L 1071,2069 L 1070,2067 L 1070,2064 L 1069,2063 L 1066,2062 L 1066,2061 L 1066,2059 L 1066,2058 L 1067,2055 L 1068,2053 L 1067,2050 L 1066,2048 L 1067,2044 L 1067,2043 L 1066,2042 L 1065,2042 L 1065,2041 L 1064,2040 L 1064,2039 L 1063,2038 L 1063,2037 L 1062,2036 L 1061,2036 L 1060,2035 L 1059,2035 L 1058,2035 L 1057,2036 L 1056,2036 L 1056,2035 L 1056,2034 L 1055,2034 L 1054,2033 L 1053,2033 L 1052,2033 L 1052,2034 L 1051,2034 L 1050,2034 L 1049,2034 L 1049,2033 L 1048,2033 L 1048,2034 L 1047,2034 L 1047,2033 L 1046,2033 L 1046,2032 L 1047,2032 L 1047,2031 L 1048,2031 L 1049,2031 L 1050,2031 L 1050,2030 L 1049,2030 L 1048,2030 L 1048,2029 L 1048,2028 L 1047,2028 L 1047,2027 L 1047,2026 L 1047,2025 L 1048,2024 L 1049,2024 L 1049,2023 L 1048,2022 L 1048,2021 L 1047,2021 L 1045,2021 L 1044,2020 L 1043,2020 L 1042,2020 L 1041,2019 L 1041,2018 L 1041,2017 L 1041,2016 L 1041,2015 L 1042,2014 L 1042,2013 L 1042,2012 L 1041,2012 L 1040,2012 L 1039,2011 L 1038,2011 L 1037,2010 L 1036,2010 L 1036,2009 L 1035,2008 L 1035,2007 L 1034,2007 L 1033,2006 L 1033,2005 L 1034,2005 L 1035,2005 L 1036,2005 L 1037,2006 L 1038,2006 L 1039,2006 L 1039,2005 L 1039,2004 L 1039,2003 L 1038,2003 L 1037,2004 L 1036,2004 L 1036,2003 L 1036,2002 L 1035,2001 L 1036,2001 L 1036,2000 L 1037,2000 L 1037,1999 L 1038,1998 L 1037,1997 L 1037,1996 L 1038,1995 L 1038,1994 L 1037,1993 L 1037,1992 L 1038,1991 L 1038,1990 L 1039,1989 L 1038,1989 L 1037,1989 L 1037,1988 L 1036,1987 L 1037,1986 L 1038,1986 L 1039,1986 L 1040,1986 L 1041,1985 L 1042,1984 L 1043,1983 L 1043,1982 L 1100,1981 L 1100,1984 L 1100,1985 L 1099,1986 L 1100,1990 L 1100,1993 L 1101,1996 L 1101,2000 L 1100,2002 L 1098,2004 L 1095,2003 L 1092,2010 L 1100,2015 L 1099,2017 L 1095,2017 " /></g>
</svg>
