<?xml version="1.0" standalone="no"?><!DOCTYPE svg PUBLIC "-//W3C//DTD SVG 1.1//EN" "http://www.w3.org/Graphics/SVG/1.1/DTD/svg11.dtd"><svg xmlns="http://www.w3.org/2000/svg" viewBox="828 1717 320 265" version = "1.1">
<g id="60201" ><path d="M 1015,1717 L 1016,1718 L 1016,1720 L 1016,1721 L 1016,1722 L 1016,1723 L 1016,1724 L 1015,1724 L 1015,1725 L 1015,1726 L 1014,1726 L 1014,1727 L 1014,1728 L 1014,1729 L 1014,1730 L 1014,1731 L 1015,1731 L 1014,1731 L 1015,1732 L 1016,1732 L 1016,1733 L 1017,1733 L 1016,1733 L 1016,1734 L 1016,1735 L 1015,1735 L 1015,1736 L 1014,1736 L 1014,1737 L 1014,1738 L 1014,1739 L 1014,1740 L 1013,1740 L 1013,1741 L 1013,1742 L 1013,1743 L 1013,1744 L 1014,1745 L 1014,1746 L 1015,1746 L 1016,1746 L 1017,1746 L 1017,1747 L 1018,1747 L 1019,1747 L 1020,1747 L 1020,1746 L 1021,1745 L 1022,1745 L 1022,1746 L 1023,1746 L 1024,1746 L 1026,1746 L 1027,1746 L 1028,1746 L 1029,1746 L 1030,1745 L 1031,1744 L 1033,1743 L 1034,1743 L 1035,1742 L 1036,1741 L 1037,1739 L 1039,1736 L 1041,1733 L 1043,1730 L 1044,1729 L 1045,1729 L 1046,1729 L 1046,1728 L 1047,1728 L 1047,1727 L 1048,1727 L 1050,1727 L 1051,1726 L 1052,1727 L 1053,1727 L 1054,1727 L 1055,1727 L 1056,1727 L 1056,1728 L 1057,1729 L 1057,1730 L 1058,1730 L 1059,1730 L 1059,1731 L 1060,1731 L 1060,1732 L 1061,1732 L 1061,1733 L 1061,1734 L 1061,1735 L 1061,1736 L 1061,1737 L 1062,1737 L 1063,1737 L 1063,1738 L 1063,1739 L 1062,1739 L 1063,1740 L 1063,1741 L 1063,1742 L 1062,1742 L 1062,1743 L 1061,1743 L 1060,1743 L 1060,1744 L 1061,1745 L 1061,1746 L 1060,1746 L 1060,1747 L 1060,1748 L 1061,1748 L 1062,1748 L 1062,1749 L 1061,1750 L 1061,1751 L 1061,1752 L 1061,1753 L 1061,1754 L 1061,1755 L 1061,1756 L 1060,1756 L 1060,1757 L 1060,1758 L 1060,1759 L 1060,1760 L 1060,1761 L 1060,1762 L 1060,1763 L 1061,1763 L 1062,1764 L 1062,1765 L 1062,1766 L 1063,1766 L 1063,1767 L 1064,1768 L 1063,1768 L 1064,1769 L 1065,1769 L 1065,1770 L 1065,1771 L 1066,1771 L 1066,1772 L 1066,1773 L 1067,1773 L 1068,1773 L 1069,1773 L 1069,1774 L 1069,1775 L 1069,1776 L 1069,1777 L 1069,1776 L 1070,1776 L 1071,1776 L 1072,1776 L 1073,1775 L 1074,1775 L 1074,1774 L 1075,1774 L 1076,1775 L 1077,1774 L 1078,1774 L 1078,1775 L 1079,1775 L 1080,1775 L 1081,1775 L 1081,1776 L 1080,1776 L 1080,1777 L 1080,1778 L 1081,1778 L 1081,1779 L 1080,1779 L 1080,1780 L 1080,1779 L 1079,1779 L 1079,1778 L 1078,1778 L 1077,1779 L 1077,1780 L 1078,1780 L 1078,1781 L 1079,1781 L 1079,1782 L 1080,1782 L 1080,1783 L 1079,1783 L 1078,1783 L 1078,1782 L 1078,1783 L 1077,1783 L 1077,1784 L 1077,1785 L 1076,1785 L 1076,1786 L 1077,1787 L 1078,1788 L 1078,1789 L 1077,1789 L 1076,1789 L 1076,1790 L 1076,1791 L 1077,1791 L 1077,1792 L 1078,1792 L 1077,1793 L 1077,1794 L 1076,1793 L 1076,1794 L 1075,1794 L 1076,1795 L 1077,1795 L 1078,1795 L 1078,1794 L 1079,1794 L 1080,1794 L 1080,1795 L 1079,1796 L 1080,1796 L 1081,1796 L 1082,1796 L 1083,1796 L 1084,1796 L 1085,1796 L 1085,1797 L 1084,1797 L 1084,1798 L 1084,1799 L 1085,1800 L 1085,1801 L 1085,1802 L 1084,1803 L 1083,1804 L 1083,1805 L 1083,1806 L 1083,1807 L 1082,1808 L 1082,1809 L 1081,1809 L 1080,1809 L 1080,1808 L 1079,1808 L 1079,1809 L 1079,1810 L 1079,1811 L 1079,1812 L 1079,1813 L 1079,1814 L 1079,1815 L 1079,1816 L 1078,1816 L 1078,1817 L 1078,1818 L 1079,1818 L 1079,1819 L 1078,1819 L 1077,1818 L 1077,1819 L 1076,1819 L 1076,1820 L 1076,1821 L 1076,1822 L 1076,1823 L 1076,1824 L 1077,1824 L 1077,1825 L 1077,1826 L 1077,1827 L 1077,1828 L 1076,1829 L 1076,1830 L 1076,1831 L 1075,1832 L 1074,1832 L 1074,1833 L 1075,1833 L 1076,1833 L 1076,1834 L 1076,1835 L 1077,1836 L 1078,1836 L 1079,1836 L 1079,1837 L 1080,1837 L 1080,1838 L 1081,1838 L 1081,1839 L 1082,1839 L 1083,1839 L 1084,1838 L 1085,1838 L 1086,1838 L 1087,1838 L 1087,1837 L 1087,1838 L 1088,1838 L 1088,1839 L 1089,1839 L 1090,1839 L 1091,1839 L 1091,1838 L 1092,1838 L 1092,1839 L 1092,1840 L 1093,1840 L 1093,1841 L 1093,1842 L 1094,1842 L 1095,1842 L 1096,1842 L 1097,1842 L 1097,1843 L 1098,1843 L 1099,1843 L 1099,1842 L 1100,1842 L 1101,1842 L 1101,1841 L 1102,1841 L 1103,1841 L 1104,1840 L 1104,1841 L 1105,1841 L 1105,1842 L 1106,1842 L 1107,1842 L 1107,1841 L 1107,1840 L 1106,1840 L 1106,1839 L 1105,1839 L 1105,1838 L 1105,1837 L 1104,1837 L 1104,1836 L 1105,1836 L 1105,1837 L 1106,1837 L 1107,1837 L 1107,1836 L 1107,1835 L 1107,1834 L 1108,1834 L 1108,1835 L 1109,1835 L 1109,1834 L 1109,1833 L 1110,1833 L 1111,1833 L 1112,1833 L 1112,1832 L 1113,1832 L 1113,1833 L 1114,1833 L 1115,1833 L 1115,1832 L 1116,1832 L 1116,1833 L 1115,1833 L 1115,1834 L 1115,1835 L 1116,1835 L 1116,1836 L 1116,1835 L 1117,1835 L 1117,1834 L 1117,1833 L 1118,1833 L 1118,1834 L 1119,1834 L 1119,1835 L 1120,1835 L 1120,1836 L 1121,1836 L 1122,1836 L 1122,1837 L 1123,1838 L 1123,1839 L 1124,1839 L 1124,1840 L 1123,1840 L 1122,1840 L 1121,1840 L 1121,1841 L 1122,1841 L 1123,1842 L 1124,1842 L 1125,1842 L 1125,1843 L 1125,1844 L 1125,1845 L 1126,1845 L 1127,1845 L 1128,1845 L 1128,1846 L 1128,1847 L 1129,1847 L 1130,1847 L 1130,1846 L 1130,1845 L 1130,1844 L 1130,1843 L 1131,1843 L 1132,1844 L 1133,1844 L 1133,1845 L 1133,1846 L 1133,1847 L 1133,1848 L 1134,1848 L 1134,1849 L 1133,1849 L 1132,1849 L 1131,1848 L 1130,1848 L 1130,1849 L 1130,1850 L 1130,1851 L 1131,1852 L 1131,1853 L 1130,1853 L 1129,1853 L 1128,1853 L 1128,1854 L 1129,1854 L 1129,1855 L 1130,1856 L 1130,1857 L 1131,1857 L 1131,1856 L 1132,1856 L 1132,1857 L 1131,1857 L 1131,1858 L 1132,1858 L 1133,1858 L 1134,1858 L 1135,1859 L 1136,1860 L 1137,1860 L 1138,1860 L 1139,1860 L 1140,1860 L 1140,1861 L 1141,1862 L 1142,1862 L 1143,1862 L 1144,1862 L 1144,1863 L 1144,1864 L 1144,1865 L 1145,1865 L 1146,1866 L 1146,1867 L 1146,1868 L 1146,1869 L 1145,1869 L 1145,1870 L 1145,1871 L 1144,1871 L 1144,1872 L 1144,1873 L 1144,1874 L 1144,1875 L 1145,1876 L 1146,1876 L 1147,1876 L 1147,1877 L 1147,1878 L 1146,1879 L 1146,1880 L 1146,1881 L 1145,1881 L 1144,1882 L 1145,1882 L 1145,1883 L 1146,1883 L 1146,1884 L 1146,1885 L 1145,1885 L 1145,1886 L 1145,1887 L 1146,1887 L 1145,1888 L 1144,1888 L 1143,1888 L 1142,1888 L 1142,1889 L 1143,1889 L 1143,1890 L 1143,1891 L 1144,1892 L 1144,1893 L 1143,1893 L 1142,1894 L 1142,1895 L 1142,1896 L 1142,1897 L 1142,1898 L 1143,1898 L 1143,1899 L 1143,1900 L 1144,1900 L 1144,1901 L 1143,1901 L 1142,1901 L 1141,1901 L 1140,1901 L 1139,1901 L 1138,1901 L 1138,1902 L 1137,1902 L 1137,1903 L 1137,1904 L 1138,1904 L 1139,1904 L 1140,1904 L 1142,1904 L 1144,1905 L 1145,1905 L 1146,1905 L 1147,1905 L 1148,1905 L 1148,1906 L 1148,1907 L 1148,1908 L 1146,1911 L 1145,1912 L 1142,1913 L 1142,1914 L 1142,1915 L 1143,1916 L 1145,1919 L 1145,1920 L 1144,1921 L 1142,1920 L 1141,1920 L 1141,1921 L 1141,1924 L 1142,1927 L 1142,1928 L 1140,1929 L 1139,1929 L 1136,1928 L 1134,1929 L 1133,1930 L 1133,1931 L 1133,1933 L 1135,1935 L 1135,1936 L 1134,1937 L 1132,1937 L 1131,1938 L 1130,1939 L 1130,1943 L 1129,1944 L 1128,1944 L 1127,1944 L 1127,1945 L 1127,1947 L 1127,1949 L 1125,1950 L 1123,1948 L 1121,1950 L 1120,1951 L 1119,1953 L 1118,1956 L 1117,1957 L 1115,1956 L 1113,1958 L 1113,1960 L 1112,1962 L 1109,1968 L 1109,1974 L 1105,1974 L 1105,1975 L 1104,1979 L 1101,1978 L 1100,1981 L 1043,1982 L 1044,1981 L 1044,1980 L 1044,1979 L 1043,1979 L 1042,1978 L 1041,1978 L 1041,1977 L 1041,1976 L 1042,1976 L 1042,1975 L 1043,1975 L 1043,1974 L 1043,1973 L 1043,1972 L 1042,1972 L 1041,1971 L 1040,1971 L 1039,1971 L 1039,1970 L 1038,1970 L 1038,1968 L 1037,1968 L 1037,1967 L 1036,1967 L 1035,1967 L 1034,1967 L 1033,1967 L 1032,1967 L 1031,1967 L 1031,1966 L 1030,1966 L 1030,1965 L 1030,1964 L 1030,1963 L 1031,1963 L 1032,1963 L 1032,1962 L 1032,1961 L 1031,1961 L 1030,1961 L 1029,1961 L 1028,1961 L 1027,1960 L 1027,1959 L 1027,1958 L 1027,1957 L 1026,1956 L 1026,1957 L 1025,1957 L 1024,1957 L 1024,1956 L 1024,1955 L 1023,1955 L 1022,1956 L 1021,1955 L 1021,1954 L 1021,1953 L 1020,1953 L 1019,1953 L 1019,1952 L 1019,1951 L 1019,1950 L 1020,1950 L 1021,1950 L 1022,1950 L 1022,1949 L 1022,1948 L 1021,1948 L 1020,1947 L 1019,1946 L 1018,1946 L 1017,1945 L 1017,1944 L 1017,1943 L 1017,1942 L 1017,1941 L 1017,1940 L 1017,1939 L 1016,1938 L 1015,1938 L 1014,1938 L 1014,1939 L 1013,1940 L 1012,1940 L 1011,1940 L 1010,1941 L 1009,1941 L 1007,1941 L 1006,1941 L 1005,1941 L 1005,1940 L 1005,1939 L 1006,1938 L 1006,1937 L 1007,1936 L 1008,1936 L 1008,1934 L 1009,1933 L 1009,1932 L 1009,1931 L 1008,1930 L 1007,1929 L 1006,1929 L 1006,1928 L 1004,1927 L 1003,1926 L 1002,1925 L 1001,1925 L 1000,1924 L 998,1923 L 997,1922 L 995,1921 L 994,1920 L 993,1919 L 992,1918 L 992,1917 L 991,1916 L 991,1915 L 992,1914 L 992,1913 L 992,1912 L 992,1911 L 993,1910 L 993,1909 L 992,1909 L 992,1908 L 992,1907 L 991,1906 L 991,1905 L 991,1904 L 992,1904 L 992,1903 L 992,1902 L 992,1901 L 992,1900 L 993,1900 L 994,1899 L 995,1899 L 996,1899 L 997,1899 L 997,1898 L 998,1897 L 998,1896 L 999,1895 L 1000,1894 L 1000,1893 L 1000,1892 L 1001,1891 L 1001,1890 L 1001,1889 L 1001,1888 L 1001,1887 L 997,1884 L 996,1883 L 995,1883 L 994,1882 L 993,1881 L 992,1880 L 991,1880 L 991,1879 L 990,1879 L 990,1878 L 989,1878 L 988,1877 L 987,1877 L 987,1876 L 986,1876 L 985,1876 L 984,1875 L 983,1875 L 982,1875 L 982,1874 L 982,1873 L 981,1873 L 980,1873 L 980,1872 L 980,1871 L 980,1870 L 979,1869 L 979,1868 L 978,1867 L 978,1866 L 977,1866 L 976,1865 L 975,1865 L 975,1864 L 975,1863 L 974,1863 L 974,1862 L 974,1861 L 973,1861 L 973,1862 L 972,1862 L 972,1861 L 971,1861 L 971,1860 L 970,1860 L 969,1860 L 969,1859 L 968,1859 L 968,1858 L 967,1858 L 967,1857 L 966,1857 L 965,1857 L 965,1856 L 964,1856 L 963,1856 L 963,1855 L 962,1855 L 962,1856 L 961,1856 L 961,1857 L 960,1857 L 959,1857 L 958,1857 L 957,1856 L 956,1856 L 955,1855 L 954,1855 L 953,1855 L 952,1855 L 951,1855 L 950,1855 L 949,1855 L 948,1855 L 947,1855 L 947,1856 L 946,1856 L 945,1855 L 945,1856 L 944,1856 L 944,1855 L 943,1855 L 942,1855 L 942,1856 L 941,1856 L 941,1857 L 940,1857 L 939,1857 L 939,1858 L 939,1857 L 938,1857 L 937,1857 L 936,1857 L 935,1857 L 934,1857 L 933,1856 L 932,1856 L 931,1855 L 931,1854 L 931,1853 L 930,1853 L 929,1852 L 928,1852 L 927,1852 L 927,1853 L 927,1852 L 926,1852 L 925,1852 L 925,1851 L 924,1851 L 924,1852 L 923,1852 L 923,1851 L 922,1852 L 922,1851 L 921,1852 L 921,1851 L 920,1851 L 919,1851 L 919,1850 L 918,1850 L 918,1849 L 917,1849 L 917,1848 L 917,1849 L 917,1848 L 916,1848 L 916,1847 L 915,1847 L 914,1847 L 914,1846 L 915,1846 L 914,1846 L 913,1846 L 913,1845 L 912,1845 L 911,1845 L 911,1844 L 910,1844 L 909,1844 L 909,1843 L 908,1843 L 909,1843 L 909,1842 L 908,1842 L 907,1842 L 908,1842 L 907,1842 L 907,1841 L 906,1841 L 906,1840 L 906,1841 L 906,1840 L 905,1840 L 904,1840 L 904,1839 L 903,1840 L 903,1839 L 902,1839 L 902,1840 L 901,1840 L 901,1839 L 901,1838 L 900,1838 L 900,1839 L 900,1838 L 899,1838 L 899,1839 L 899,1838 L 898,1838 L 898,1837 L 897,1837 L 896,1837 L 896,1836 L 895,1836 L 895,1835 L 894,1835 L 893,1835 L 893,1834 L 892,1834 L 892,1833 L 891,1833 L 890,1833 L 889,1833 L 889,1832 L 888,1832 L 888,1831 L 887,1831 L 886,1831 L 886,1832 L 886,1833 L 885,1833 L 885,1834 L 884,1834 L 885,1834 L 884,1835 L 883,1835 L 883,1834 L 882,1835 L 882,1834 L 882,1833 L 881,1833 L 880,1833 L 879,1833 L 879,1832 L 878,1832 L 877,1832 L 876,1832 L 875,1832 L 874,1832 L 874,1833 L 874,1832 L 873,1833 L 873,1832 L 873,1833 L 872,1833 L 872,1832 L 872,1833 L 872,1832 L 871,1832 L 870,1832 L 870,1831 L 870,1832 L 870,1831 L 869,1831 L 868,1831 L 867,1831 L 867,1830 L 867,1829 L 866,1829 L 865,1829 L 865,1828 L 864,1829 L 863,1828 L 862,1828 L 861,1828 L 861,1827 L 860,1827 L 860,1826 L 859,1826 L 859,1827 L 858,1827 L 858,1826 L 857,1826 L 856,1827 L 856,1826 L 855,1825 L 854,1825 L 853,1825 L 852,1825 L 852,1824 L 851,1824 L 851,1823 L 850,1824 L 850,1823 L 850,1822 L 849,1822 L 850,1822 L 849,1822 L 849,1821 L 848,1821 L 848,1820 L 828,1820 L 828,1819 L 828,1817 L 828,1814 L 829,1812 L 829,1810 L 830,1807 L 831,1805 L 831,1798 L 831,1796 L 830,1793 L 830,1792 L 831,1792 L 832,1791 L 833,1789 L 833,1788 L 833,1787 L 832,1786 L 832,1784 L 831,1783 L 832,1783 L 831,1781 L 831,1780 L 830,1779 L 829,1778 L 829,1777 L 829,1776 L 830,1775 L 830,1774 L 831,1774 L 832,1773 L 833,1773 L 834,1774 L 834,1773 L 835,1773 L 835,1772 L 836,1772 L 840,1766 L 840,1765 L 840,1764 L 840,1763 L 840,1762 L 840,1761 L 840,1760 L 839,1759 L 840,1758 L 842,1755 L 842,1754 L 843,1753 L 841,1747 L 842,1747 L 842,1746 L 843,1745 L 844,1745 L 844,1744 L 845,1745 L 847,1746 L 847,1745 L 847,1744 L 847,1743 L 847,1742 L 848,1742 L 848,1741 L 849,1740 L 850,1740 L 851,1741 L 851,1740 L 851,1739 L 852,1738 L 853,1738 L 854,1737 L 854,1736 L 855,1736 L 856,1736 L 857,1736 L 858,1736 L 859,1736 L 860,1736 L 861,1736 L 862,1736 L 862,1737 L 863,1737 L 864,1737 L 865,1737 L 866,1737 L 867,1737 L 867,1738 L 868,1738 L 869,1738 L 870,1737 L 871,1737 L 872,1737 L 873,1737 L 873,1736 L 874,1736 L 875,1736 L 876,1736 L 877,1736 L 877,1737 L 878,1737 L 879,1736 L 881,1736 L 881,1737 L 882,1737 L 885,1738 L 886,1738 L 886,1737 L 887,1737 L 887,1738 L 888,1738 L 890,1738 L 891,1738 L 892,1738 L 894,1737 L 894,1738 L 895,1738 L 896,1737 L 897,1737 L 898,1736 L 899,1736 L 900,1736 L 901,1737 L 901,1738 L 903,1738 L 905,1737 L 905,1736 L 906,1734 L 907,1733 L 909,1732 L 910,1731 L 911,1730 L 912,1730 L 912,1729 L 913,1730 L 914,1729 L 915,1729 L 916,1729 L 918,1727 L 920,1726 L 921,1727 L 923,1728 L 923,1729 L 923,1730 L 923,1732 L 923,1733 L 923,1734 L 923,1735 L 924,1736 L 926,1737 L 926,1738 L 927,1739 L 929,1739 L 929,1740 L 932,1740 L 932,1739 L 933,1739 L 933,1737 L 933,1736 L 934,1736 L 935,1736 L 936,1735 L 937,1735 L 939,1735 L 942,1735 L 944,1735 L 947,1732 L 947,1733 L 948,1733 L 949,1732 L 949,1731 L 951,1732 L 952,1732 L 953,1733 L 954,1733 L 954,1734 L 955,1734 L 957,1734 L 960,1735 L 962,1736 L 964,1735 L 966,1736 L 967,1736 L 968,1736 L 969,1735 L 970,1735 L 971,1735 L 971,1736 L 972,1736 L 972,1737 L 973,1737 L 973,1738 L 974,1738 L 974,1739 L 975,1739 L 976,1740 L 976,1739 L 977,1739 L 977,1740 L 977,1739 L 978,1739 L 978,1738 L 978,1737 L 979,1736 L 979,1735 L 980,1735 L 980,1734 L 980,1733 L 981,1732 L 981,1731 L 982,1731 L 982,1730 L 982,1731 L 983,1731 L 984,1731 L 985,1731 L 986,1731 L 987,1731 L 987,1732 L 988,1732 L 988,1731 L 989,1731 L 990,1731 L 990,1732 L 991,1732 L 992,1732 L 993,1731 L 993,1730 L 994,1730 L 994,1729 L 995,1729 L 995,1728 L 996,1728 L 996,1727 L 996,1726 L 997,1726 L 997,1725 L 997,1724 L 997,1723 L 998,1723 L 999,1723 L 999,1722 L 998,1722 L 998,1721 L 997,1721 L 998,1720 L 1000,1720 L 1002,1720 L 1002,1719 L 1004,1718 L 1005,1718 L 1007,1718 L 1008,1718 L 1009,1717 L 1010,1718 L 1013,1717 L 1015,1717 " /></g>
</svg>
