<?xml version="1.0" standalone="no"?><!DOCTYPE svg PUBLIC "-//W3C//DTD SVG 1.1//EN" "http://www.w3.org/Graphics/SVG/1.1/DTD/svg11.dtd"><svg xmlns="http://www.w3.org/2000/svg" viewBox="1282 1454 483 422" version = "1.1">
<g id="60303" ><path d="M 1506,1638 L 1496,1639 L 1479,1634 L 1477,1632 L 1460,1636 L 1451,1640 L 1449,1640 L 1446,1642 L 1445,1643 L 1443,1643 L 1443,1644 L 1439,1645 L 1437,1645 L 1432,1645 L 1428,1644 L 1426,1644 L 1424,1644 L 1407,1641 L 1400,1640 L 1397,1639 L 1396,1640 L 1388,1642 L 1383,1642 L 1382,1643 L 1368,1650 L 1366,1652 L 1357,1651 L 1344,1650 L 1323,1647 L 1315,1646 L 1313,1646 L 1311,1644 L 1309,1644 L 1309,1643 L 1309,1642 L 1309,1641 L 1308,1640 L 1309,1639 L 1309,1638 L 1309,1637 L 1309,1636 L 1308,1635 L 1309,1633 L 1310,1632 L 1310,1631 L 1310,1630 L 1311,1630 L 1311,1629 L 1311,1628 L 1311,1627 L 1311,1626 L 1311,1625 L 1311,1624 L 1311,1623 L 1312,1623 L 1312,1621 L 1312,1620 L 1313,1619 L 1313,1616 L 1312,1616 L 1312,1615 L 1312,1614 L 1312,1613 L 1312,1612 L 1313,1612 L 1313,1611 L 1313,1610 L 1313,1609 L 1313,1608 L 1314,1609 L 1315,1609 L 1316,1608 L 1317,1607 L 1318,1607 L 1318,1606 L 1319,1606 L 1319,1605 L 1318,1604 L 1318,1603 L 1317,1603 L 1316,1602 L 1315,1602 L 1315,1601 L 1314,1601 L 1315,1601 L 1315,1600 L 1315,1598 L 1315,1597 L 1315,1596 L 1316,1594 L 1317,1594 L 1318,1593 L 1318,1592 L 1318,1591 L 1319,1591 L 1319,1590 L 1319,1589 L 1319,1588 L 1318,1586 L 1318,1585 L 1318,1584 L 1318,1583 L 1318,1582 L 1318,1581 L 1317,1581 L 1318,1580 L 1319,1579 L 1320,1578 L 1320,1577 L 1320,1576 L 1319,1575 L 1319,1574 L 1319,1573 L 1319,1572 L 1319,1571 L 1319,1570 L 1320,1569 L 1320,1568 L 1319,1567 L 1319,1565 L 1320,1564 L 1320,1563 L 1321,1562 L 1321,1561 L 1320,1561 L 1319,1560 L 1318,1560 L 1318,1559 L 1317,1559 L 1316,1559 L 1314,1559 L 1313,1560 L 1311,1560 L 1310,1560 L 1309,1560 L 1310,1561 L 1309,1561 L 1308,1562 L 1309,1563 L 1308,1563 L 1308,1564 L 1308,1565 L 1308,1566 L 1307,1566 L 1307,1567 L 1308,1567 L 1307,1567 L 1307,1568 L 1306,1569 L 1307,1569 L 1306,1569 L 1306,1570 L 1307,1570 L 1307,1571 L 1306,1571 L 1305,1571 L 1305,1572 L 1306,1572 L 1305,1572 L 1305,1573 L 1306,1573 L 1306,1574 L 1305,1574 L 1305,1575 L 1304,1575 L 1304,1576 L 1304,1577 L 1304,1578 L 1304,1579 L 1303,1579 L 1303,1580 L 1302,1580 L 1301,1580 L 1301,1581 L 1300,1581 L 1300,1582 L 1299,1582 L 1298,1582 L 1298,1583 L 1298,1584 L 1297,1584 L 1297,1585 L 1297,1586 L 1296,1587 L 1296,1588 L 1295,1588 L 1295,1589 L 1294,1589 L 1293,1589 L 1292,1589 L 1291,1589 L 1290,1589 L 1289,1588 L 1289,1589 L 1288,1589 L 1287,1589 L 1286,1590 L 1285,1590 L 1284,1590 L 1284,1589 L 1283,1589 L 1282,1589 L 1283,1588 L 1283,1587 L 1283,1585 L 1283,1584 L 1284,1583 L 1285,1582 L 1285,1581 L 1285,1580 L 1285,1579 L 1286,1578 L 1286,1577 L 1286,1576 L 1286,1575 L 1286,1574 L 1287,1573 L 1287,1572 L 1287,1571 L 1288,1571 L 1288,1570 L 1288,1569 L 1289,1567 L 1290,1565 L 1291,1565 L 1291,1562 L 1292,1558 L 1293,1554 L 1294,1554 L 1295,1553 L 1294,1552 L 1295,1550 L 1294,1550 L 1294,1549 L 1295,1548 L 1295,1547 L 1295,1546 L 1296,1546 L 1296,1545 L 1296,1544 L 1296,1543 L 1297,1543 L 1297,1542 L 1297,1541 L 1297,1540 L 1297,1539 L 1297,1538 L 1296,1538 L 1297,1537 L 1298,1535 L 1299,1534 L 1299,1533 L 1299,1532 L 1299,1531 L 1299,1530 L 1300,1528 L 1301,1523 L 1303,1519 L 1303,1517 L 1304,1514 L 1304,1513 L 1304,1512 L 1305,1511 L 1305,1509 L 1305,1507 L 1306,1503 L 1306,1502 L 1307,1501 L 1307,1500 L 1307,1499 L 1308,1498 L 1308,1497 L 1308,1495 L 1308,1491 L 1312,1481 L 1315,1469 L 1315,1465 L 1317,1457 L 1338,1457 L 1347,1457 L 1348,1457 L 1349,1457 L 1431,1457 L 1432,1457 L 1516,1457 L 1765,1454 L 1765,1457 L 1765,1476 L 1753,1513 L 1735,1570 L 1717,1625 L 1699,1681 L 1681,1737 L 1663,1793 L 1645,1849 L 1644,1850 L 1644,1851 L 1644,1852 L 1643,1853 L 1643,1854 L 1643,1855 L 1642,1857 L 1642,1859 L 1641,1860 L 1641,1861 L 1640,1863 L 1640,1865 L 1639,1866 L 1639,1868 L 1638,1869 L 1638,1871 L 1637,1872 L 1636,1874 L 1636,1875 L 1635,1876 L 1634,1876 L 1632,1876 L 1629,1874 L 1628,1872 L 1627,1871 L 1625,1869 L 1625,1868 L 1624,1866 L 1623,1865 L 1622,1862 L 1622,1860 L 1621,1859 L 1621,1857 L 1621,1856 L 1620,1856 L 1619,1857 L 1617,1860 L 1614,1863 L 1613,1863 L 1612,1863 L 1611,1863 L 1610,1861 L 1609,1859 L 1609,1857 L 1608,1854 L 1608,1853 L 1607,1851 L 1605,1849 L 1603,1846 L 1601,1845 L 1600,1844 L 1599,1843 L 1598,1843 L 1596,1843 L 1596,1844 L 1595,1845 L 1594,1846 L 1593,1847 L 1593,1849 L 1592,1850 L 1591,1850 L 1590,1850 L 1589,1850 L 1589,1849 L 1589,1848 L 1587,1845 L 1586,1844 L 1585,1842 L 1584,1841 L 1582,1839 L 1580,1837 L 1579,1835 L 1580,1834 L 1580,1832 L 1580,1831 L 1581,1829 L 1582,1829 L 1582,1828 L 1581,1827 L 1580,1825 L 1580,1822 L 1581,1821 L 1583,1818 L 1583,1816 L 1584,1815 L 1585,1814 L 1586,1813 L 1585,1812 L 1583,1811 L 1582,1810 L 1580,1810 L 1579,1808 L 1579,1806 L 1579,1805 L 1578,1804 L 1578,1803 L 1580,1802 L 1581,1801 L 1582,1800 L 1583,1799 L 1584,1797 L 1584,1795 L 1584,1794 L 1583,1793 L 1582,1793 L 1581,1793 L 1582,1791 L 1581,1791 L 1578,1788 L 1575,1787 L 1574,1784 L 1573,1782 L 1573,1780 L 1572,1778 L 1571,1776 L 1570,1775 L 1569,1774 L 1568,1771 L 1567,1766 L 1568,1764 L 1569,1760 L 1570,1757 L 1571,1754 L 1572,1753 L 1571,1752 L 1569,1748 L 1566,1745 L 1564,1744 L 1563,1741 L 1562,1739 L 1560,1737 L 1558,1735 L 1557,1734 L 1553,1731 L 1552,1727 L 1553,1726 L 1554,1724 L 1554,1723 L 1553,1721 L 1550,1718 L 1548,1717 L 1547,1717 L 1546,1716 L 1544,1713 L 1541,1709 L 1539,1706 L 1537,1695 L 1536,1690 L 1532,1682 L 1529,1675 L 1525,1666 L 1520,1656 L 1519,1654 L 1517,1652 L 1515,1645 L 1513,1641 L 1512,1641 L 1510,1640 L 1508,1640 L 1507,1639 L 1506,1638 " /></g>
</svg>
