<?xml version="1.0" standalone="no"?><!DOCTYPE svg PUBLIC "-//W3C//DTD SVG 1.1//EN" "http://www.w3.org/Graphics/SVG/1.1/DTD/svg11.dtd"><svg xmlns="http://www.w3.org/2000/svg" viewBox="1074 1559 247 346" version = "1.1">
<g id="60302" ><path d="M 1275,1792 L 1264,1792 L 1245,1792 L 1242,1792 L 1215,1792 L 1208,1792 L 1204,1792 L 1204,1793 L 1203,1793 L 1202,1794 L 1202,1795 L 1202,1796 L 1202,1795 L 1201,1795 L 1200,1795 L 1200,1796 L 1201,1796 L 1202,1796 L 1202,1797 L 1202,1798 L 1201,1798 L 1201,1799 L 1200,1799 L 1200,1800 L 1200,1801 L 1201,1801 L 1201,1802 L 1200,1802 L 1200,1803 L 1200,1804 L 1199,1804 L 1198,1804 L 1197,1804 L 1197,1805 L 1197,1806 L 1198,1806 L 1198,1807 L 1197,1807 L 1196,1807 L 1196,1808 L 1197,1808 L 1198,1808 L 1198,1809 L 1197,1809 L 1196,1809 L 1196,1810 L 1196,1811 L 1197,1811 L 1198,1810 L 1198,1811 L 1198,1812 L 1197,1812 L 1196,1812 L 1196,1813 L 1195,1813 L 1194,1813 L 1194,1814 L 1195,1814 L 1196,1814 L 1196,1815 L 1195,1815 L 1195,1816 L 1195,1817 L 1195,1818 L 1195,1819 L 1196,1819 L 1195,1819 L 1194,1819 L 1194,1820 L 1195,1820 L 1195,1821 L 1194,1821 L 1194,1822 L 1194,1823 L 1193,1823 L 1192,1823 L 1192,1822 L 1191,1822 L 1191,1821 L 1190,1821 L 1190,1820 L 1190,1819 L 1189,1819 L 1188,1819 L 1187,1819 L 1187,1820 L 1187,1821 L 1188,1821 L 1189,1821 L 1189,1822 L 1189,1823 L 1188,1823 L 1188,1822 L 1187,1823 L 1186,1823 L 1186,1824 L 1185,1824 L 1185,1825 L 1185,1826 L 1184,1826 L 1184,1827 L 1185,1827 L 1186,1827 L 1186,1828 L 1186,1829 L 1185,1829 L 1185,1828 L 1185,1827 L 1184,1827 L 1183,1827 L 1182,1827 L 1182,1828 L 1181,1828 L 1182,1829 L 1183,1829 L 1183,1828 L 1184,1828 L 1184,1829 L 1184,1830 L 1183,1830 L 1184,1830 L 1185,1830 L 1185,1831 L 1184,1832 L 1183,1832 L 1182,1832 L 1182,1833 L 1182,1834 L 1182,1835 L 1183,1835 L 1183,1836 L 1184,1836 L 1184,1837 L 1183,1837 L 1182,1837 L 1182,1838 L 1181,1838 L 1181,1839 L 1182,1839 L 1182,1840 L 1181,1840 L 1181,1841 L 1181,1842 L 1180,1842 L 1180,1843 L 1180,1844 L 1181,1844 L 1181,1845 L 1180,1845 L 1180,1846 L 1179,1846 L 1178,1847 L 1178,1848 L 1177,1848 L 1176,1848 L 1175,1848 L 1175,1849 L 1174,1850 L 1174,1851 L 1173,1851 L 1173,1852 L 1174,1852 L 1174,1853 L 1175,1853 L 1175,1854 L 1176,1854 L 1176,1855 L 1175,1855 L 1174,1855 L 1173,1855 L 1172,1855 L 1171,1856 L 1170,1857 L 1170,1858 L 1170,1859 L 1170,1860 L 1171,1860 L 1171,1861 L 1172,1862 L 1173,1862 L 1172,1862 L 1172,1863 L 1172,1864 L 1171,1864 L 1171,1865 L 1170,1865 L 1170,1866 L 1169,1866 L 1168,1866 L 1168,1867 L 1168,1868 L 1169,1868 L 1170,1868 L 1171,1868 L 1170,1869 L 1171,1869 L 1171,1870 L 1170,1871 L 1169,1871 L 1168,1871 L 1168,1872 L 1169,1872 L 1170,1872 L 1170,1873 L 1169,1873 L 1168,1873 L 1167,1873 L 1167,1874 L 1168,1874 L 1168,1875 L 1167,1875 L 1166,1875 L 1165,1874 L 1164,1874 L 1163,1874 L 1162,1874 L 1162,1873 L 1162,1872 L 1161,1872 L 1160,1872 L 1160,1873 L 1160,1874 L 1159,1874 L 1159,1875 L 1158,1876 L 1158,1877 L 1157,1878 L 1156,1879 L 1156,1880 L 1157,1881 L 1157,1882 L 1156,1882 L 1156,1883 L 1156,1884 L 1157,1885 L 1157,1886 L 1156,1886 L 1156,1887 L 1155,1887 L 1155,1886 L 1155,1885 L 1154,1885 L 1154,1886 L 1154,1887 L 1153,1888 L 1153,1889 L 1153,1890 L 1152,1890 L 1152,1891 L 1151,1891 L 1151,1892 L 1151,1893 L 1150,1893 L 1151,1894 L 1152,1894 L 1153,1894 L 1153,1895 L 1152,1896 L 1151,1896 L 1150,1897 L 1149,1897 L 1148,1898 L 1148,1899 L 1149,1899 L 1149,1898 L 1150,1898 L 1151,1898 L 1151,1899 L 1150,1900 L 1150,1901 L 1149,1901 L 1148,1901 L 1147,1902 L 1147,1903 L 1148,1903 L 1148,1904 L 1147,1905 L 1146,1905 L 1145,1905 L 1144,1905 L 1142,1904 L 1140,1904 L 1139,1904 L 1138,1904 L 1137,1904 L 1137,1903 L 1137,1902 L 1138,1902 L 1138,1901 L 1139,1901 L 1140,1901 L 1141,1901 L 1142,1901 L 1143,1901 L 1144,1901 L 1144,1900 L 1143,1900 L 1143,1899 L 1143,1898 L 1142,1898 L 1142,1897 L 1142,1896 L 1142,1895 L 1142,1894 L 1143,1893 L 1144,1893 L 1144,1892 L 1143,1891 L 1143,1890 L 1143,1889 L 1142,1889 L 1142,1888 L 1143,1888 L 1144,1888 L 1145,1888 L 1146,1887 L 1145,1887 L 1145,1886 L 1145,1885 L 1146,1885 L 1146,1884 L 1146,1883 L 1145,1883 L 1145,1882 L 1144,1882 L 1145,1881 L 1146,1881 L 1146,1880 L 1146,1879 L 1147,1878 L 1147,1877 L 1147,1876 L 1146,1876 L 1145,1876 L 1144,1875 L 1144,1874 L 1144,1873 L 1144,1872 L 1144,1871 L 1145,1871 L 1145,1870 L 1145,1869 L 1146,1869 L 1146,1868 L 1146,1867 L 1146,1866 L 1145,1865 L 1144,1865 L 1144,1864 L 1144,1863 L 1144,1862 L 1143,1862 L 1142,1862 L 1141,1862 L 1140,1861 L 1140,1860 L 1139,1860 L 1138,1860 L 1137,1860 L 1136,1860 L 1135,1859 L 1134,1858 L 1133,1858 L 1132,1858 L 1131,1858 L 1131,1857 L 1132,1857 L 1132,1856 L 1131,1856 L 1131,1857 L 1130,1857 L 1130,1856 L 1129,1855 L 1129,1854 L 1128,1854 L 1128,1853 L 1129,1853 L 1130,1853 L 1131,1853 L 1131,1852 L 1130,1851 L 1130,1850 L 1130,1849 L 1130,1848 L 1131,1848 L 1132,1849 L 1133,1849 L 1134,1849 L 1134,1848 L 1133,1848 L 1133,1847 L 1133,1846 L 1133,1845 L 1133,1844 L 1132,1844 L 1131,1843 L 1130,1843 L 1130,1844 L 1130,1845 L 1130,1846 L 1130,1847 L 1129,1847 L 1128,1847 L 1128,1846 L 1128,1845 L 1127,1845 L 1126,1845 L 1125,1845 L 1125,1844 L 1125,1843 L 1125,1842 L 1124,1842 L 1123,1842 L 1122,1841 L 1121,1841 L 1121,1840 L 1122,1840 L 1123,1840 L 1124,1840 L 1124,1839 L 1123,1839 L 1123,1838 L 1122,1837 L 1122,1836 L 1121,1836 L 1120,1836 L 1120,1835 L 1119,1835 L 1119,1834 L 1118,1834 L 1118,1833 L 1117,1833 L 1117,1834 L 1117,1835 L 1116,1835 L 1116,1836 L 1116,1835 L 1115,1835 L 1115,1834 L 1115,1833 L 1116,1833 L 1116,1832 L 1115,1832 L 1115,1833 L 1114,1833 L 1113,1833 L 1113,1832 L 1112,1832 L 1112,1833 L 1111,1833 L 1110,1833 L 1109,1833 L 1109,1834 L 1109,1835 L 1108,1835 L 1108,1834 L 1107,1834 L 1107,1835 L 1107,1836 L 1107,1837 L 1106,1837 L 1105,1837 L 1105,1836 L 1104,1836 L 1104,1837 L 1105,1837 L 1105,1838 L 1105,1839 L 1106,1839 L 1106,1840 L 1107,1840 L 1107,1841 L 1107,1842 L 1106,1842 L 1105,1842 L 1105,1841 L 1104,1841 L 1104,1840 L 1103,1841 L 1102,1841 L 1101,1841 L 1101,1842 L 1100,1842 L 1099,1842 L 1099,1843 L 1098,1843 L 1097,1843 L 1097,1842 L 1096,1842 L 1095,1842 L 1094,1842 L 1093,1842 L 1093,1841 L 1093,1840 L 1092,1840 L 1092,1839 L 1092,1838 L 1091,1838 L 1091,1839 L 1090,1839 L 1089,1839 L 1088,1839 L 1088,1838 L 1087,1838 L 1087,1837 L 1087,1838 L 1086,1838 L 1085,1838 L 1084,1838 L 1083,1839 L 1082,1839 L 1081,1839 L 1081,1838 L 1080,1838 L 1080,1837 L 1079,1837 L 1079,1836 L 1078,1836 L 1077,1836 L 1076,1835 L 1076,1834 L 1076,1833 L 1075,1833 L 1074,1833 L 1074,1832 L 1075,1832 L 1076,1831 L 1076,1830 L 1076,1829 L 1077,1828 L 1077,1827 L 1077,1826 L 1077,1825 L 1077,1824 L 1076,1824 L 1076,1823 L 1076,1822 L 1076,1821 L 1076,1820 L 1076,1819 L 1077,1819 L 1077,1818 L 1078,1819 L 1079,1819 L 1079,1818 L 1078,1818 L 1078,1817 L 1078,1816 L 1079,1816 L 1079,1815 L 1079,1814 L 1079,1813 L 1079,1812 L 1079,1811 L 1079,1810 L 1079,1809 L 1079,1808 L 1080,1808 L 1080,1809 L 1081,1809 L 1082,1809 L 1082,1808 L 1083,1807 L 1083,1806 L 1083,1805 L 1083,1804 L 1084,1803 L 1085,1802 L 1085,1801 L 1085,1800 L 1084,1799 L 1084,1798 L 1084,1797 L 1085,1797 L 1085,1796 L 1084,1796 L 1083,1796 L 1082,1796 L 1081,1796 L 1080,1796 L 1079,1796 L 1080,1795 L 1080,1794 L 1079,1794 L 1078,1794 L 1078,1795 L 1077,1795 L 1076,1795 L 1075,1794 L 1076,1794 L 1076,1793 L 1077,1794 L 1077,1793 L 1078,1792 L 1077,1792 L 1077,1791 L 1076,1791 L 1076,1790 L 1076,1789 L 1077,1789 L 1078,1789 L 1078,1788 L 1077,1787 L 1076,1786 L 1076,1785 L 1077,1785 L 1077,1784 L 1077,1783 L 1078,1783 L 1078,1782 L 1078,1783 L 1079,1783 L 1080,1783 L 1080,1782 L 1079,1782 L 1079,1781 L 1078,1781 L 1078,1780 L 1077,1780 L 1077,1779 L 1078,1778 L 1079,1778 L 1079,1779 L 1080,1779 L 1080,1780 L 1080,1779 L 1081,1779 L 1081,1778 L 1082,1779 L 1082,1778 L 1083,1778 L 1084,1778 L 1085,1778 L 1085,1779 L 1086,1778 L 1088,1778 L 1092,1779 L 1094,1779 L 1096,1779 L 1097,1778 L 1099,1779 L 1102,1778 L 1103,1778 L 1105,1777 L 1106,1777 L 1107,1777 L 1107,1776 L 1108,1776 L 1109,1776 L 1110,1777 L 1110,1776 L 1111,1776 L 1112,1777 L 1112,1779 L 1113,1779 L 1113,1780 L 1114,1780 L 1114,1781 L 1115,1781 L 1116,1780 L 1117,1780 L 1118,1780 L 1119,1780 L 1120,1780 L 1121,1780 L 1122,1781 L 1123,1782 L 1123,1783 L 1124,1783 L 1124,1784 L 1125,1784 L 1125,1785 L 1126,1785 L 1127,1786 L 1128,1786 L 1129,1787 L 1129,1788 L 1130,1788 L 1131,1788 L 1132,1788 L 1133,1788 L 1134,1788 L 1135,1788 L 1136,1788 L 1136,1787 L 1136,1786 L 1137,1786 L 1137,1785 L 1138,1785 L 1139,1784 L 1140,1783 L 1140,1782 L 1142,1781 L 1142,1780 L 1143,1779 L 1144,1778 L 1145,1777 L 1146,1777 L 1146,1776 L 1147,1776 L 1147,1775 L 1148,1775 L 1149,1774 L 1150,1775 L 1151,1776 L 1151,1777 L 1151,1778 L 1152,1778 L 1154,1778 L 1155,1778 L 1157,1778 L 1161,1777 L 1164,1776 L 1170,1769 L 1174,1762 L 1175,1756 L 1175,1746 L 1175,1743 L 1176,1737 L 1178,1731 L 1179,1723 L 1182,1712 L 1179,1706 L 1180,1703 L 1183,1700 L 1185,1694 L 1187,1687 L 1189,1679 L 1191,1677 L 1192,1674 L 1192,1671 L 1195,1668 L 1195,1661 L 1196,1658 L 1196,1655 L 1197,1651 L 1199,1651 L 1201,1650 L 1200,1648 L 1199,1646 L 1198,1645 L 1199,1643 L 1199,1640 L 1198,1638 L 1199,1636 L 1199,1634 L 1199,1633 L 1200,1633 L 1201,1631 L 1202,1629 L 1204,1629 L 1207,1631 L 1208,1631 L 1209,1631 L 1210,1631 L 1210,1632 L 1210,1631 L 1211,1631 L 1212,1631 L 1213,1631 L 1214,1631 L 1214,1630 L 1215,1630 L 1216,1630 L 1217,1630 L 1218,1630 L 1218,1631 L 1219,1631 L 1220,1631 L 1221,1631 L 1222,1631 L 1222,1632 L 1222,1631 L 1222,1632 L 1223,1632 L 1224,1632 L 1225,1632 L 1226,1632 L 1227,1632 L 1228,1632 L 1228,1631 L 1229,1631 L 1230,1631 L 1231,1631 L 1232,1631 L 1233,1631 L 1233,1630 L 1234,1630 L 1235,1630 L 1236,1629 L 1237,1629 L 1238,1629 L 1239,1629 L 1240,1629 L 1241,1629 L 1242,1629 L 1243,1630 L 1244,1630 L 1245,1631 L 1246,1630 L 1246,1629 L 1247,1629 L 1247,1628 L 1248,1628 L 1249,1628 L 1249,1629 L 1250,1629 L 1251,1629 L 1252,1628 L 1252,1627 L 1253,1627 L 1253,1626 L 1254,1626 L 1254,1625 L 1254,1624 L 1254,1623 L 1253,1623 L 1253,1622 L 1254,1622 L 1253,1622 L 1253,1621 L 1254,1621 L 1253,1621 L 1253,1620 L 1253,1619 L 1253,1618 L 1253,1617 L 1254,1617 L 1253,1617 L 1253,1616 L 1252,1616 L 1252,1615 L 1253,1615 L 1253,1614 L 1253,1613 L 1252,1613 L 1253,1613 L 1253,1612 L 1253,1611 L 1253,1610 L 1254,1610 L 1254,1609 L 1254,1608 L 1255,1608 L 1254,1608 L 1254,1607 L 1254,1606 L 1254,1607 L 1255,1607 L 1255,1606 L 1255,1605 L 1254,1605 L 1254,1604 L 1253,1604 L 1253,1603 L 1254,1603 L 1254,1602 L 1254,1601 L 1254,1600 L 1254,1599 L 1254,1598 L 1254,1597 L 1254,1596 L 1255,1596 L 1256,1595 L 1256,1594 L 1255,1594 L 1255,1593 L 1256,1593 L 1257,1593 L 1257,1592 L 1258,1592 L 1258,1591 L 1258,1590 L 1259,1590 L 1258,1589 L 1258,1588 L 1259,1588 L 1259,1587 L 1258,1587 L 1259,1586 L 1259,1585 L 1260,1585 L 1260,1584 L 1260,1583 L 1261,1583 L 1261,1584 L 1261,1585 L 1262,1585 L 1262,1586 L 1263,1586 L 1263,1587 L 1264,1587 L 1265,1587 L 1266,1587 L 1266,1588 L 1267,1588 L 1268,1588 L 1269,1588 L 1270,1588 L 1270,1589 L 1271,1588 L 1272,1588 L 1272,1589 L 1273,1589 L 1274,1589 L 1274,1590 L 1275,1590 L 1275,1591 L 1276,1591 L 1277,1591 L 1277,1590 L 1278,1590 L 1278,1589 L 1278,1590 L 1279,1590 L 1280,1590 L 1279,1589 L 1280,1589 L 1281,1589 L 1282,1589 L 1283,1589 L 1284,1589 L 1284,1590 L 1285,1590 L 1286,1590 L 1287,1589 L 1288,1589 L 1289,1589 L 1289,1588 L 1290,1589 L 1291,1589 L 1292,1589 L 1293,1589 L 1294,1589 L 1295,1589 L 1295,1588 L 1296,1588 L 1296,1587 L 1297,1586 L 1297,1585 L 1297,1584 L 1298,1584 L 1298,1583 L 1298,1582 L 1299,1582 L 1300,1582 L 1300,1581 L 1301,1581 L 1301,1580 L 1302,1580 L 1303,1580 L 1303,1579 L 1304,1579 L 1304,1578 L 1304,1577 L 1304,1576 L 1304,1575 L 1305,1575 L 1305,1574 L 1306,1574 L 1306,1573 L 1305,1573 L 1305,1572 L 1306,1572 L 1305,1572 L 1305,1571 L 1306,1571 L 1307,1571 L 1307,1570 L 1306,1570 L 1306,1569 L 1307,1569 L 1306,1569 L 1307,1568 L 1307,1567 L 1308,1567 L 1307,1567 L 1307,1566 L 1308,1566 L 1308,1565 L 1308,1564 L 1308,1563 L 1309,1563 L 1308,1562 L 1309,1561 L 1310,1561 L 1309,1560 L 1310,1560 L 1311,1560 L 1313,1560 L 1314,1559 L 1316,1559 L 1317,1559 L 1318,1559 L 1318,1560 L 1319,1560 L 1320,1561 L 1321,1561 L 1321,1562 L 1320,1563 L 1320,1564 L 1319,1565 L 1319,1567 L 1320,1568 L 1320,1569 L 1319,1570 L 1319,1571 L 1319,1572 L 1319,1573 L 1319,1574 L 1319,1575 L 1320,1576 L 1320,1577 L 1320,1578 L 1319,1579 L 1318,1580 L 1317,1581 L 1318,1581 L 1318,1582 L 1318,1583 L 1318,1584 L 1318,1585 L 1318,1586 L 1319,1588 L 1319,1589 L 1319,1590 L 1319,1591 L 1318,1591 L 1318,1592 L 1318,1593 L 1317,1594 L 1316,1594 L 1315,1596 L 1315,1597 L 1315,1598 L 1315,1600 L 1315,1601 L 1314,1601 L 1315,1601 L 1315,1602 L 1316,1602 L 1317,1603 L 1318,1603 L 1318,1604 L 1319,1605 L 1319,1606 L 1318,1606 L 1318,1607 L 1317,1607 L 1316,1608 L 1315,1609 L 1314,1609 L 1313,1608 L 1313,1609 L 1313,1610 L 1313,1611 L 1313,1612 L 1312,1612 L 1312,1613 L 1312,1614 L 1312,1615 L 1312,1616 L 1313,1616 L 1313,1619 L 1312,1620 L 1312,1621 L 1312,1623 L 1311,1623 L 1311,1624 L 1311,1625 L 1311,1626 L 1311,1627 L 1311,1628 L 1311,1629 L 1311,1630 L 1310,1630 L 1310,1631 L 1310,1632 L 1309,1633 L 1308,1635 L 1309,1636 L 1309,1637 L 1309,1638 L 1309,1639 L 1308,1640 L 1309,1641 L 1309,1642 L 1309,1643 L 1309,1644 L 1308,1644 L 1308,1645 L 1308,1646 L 1309,1646 L 1308,1650 L 1307,1653 L 1306,1656 L 1305,1663 L 1304,1667 L 1303,1669 L 1302,1678 L 1302,1683 L 1301,1692 L 1299,1701 L 1297,1707 L 1296,1712 L 1293,1720 L 1290,1727 L 1289,1732 L 1288,1734 L 1286,1740 L 1286,1745 L 1284,1747 L 1281,1746 L 1280,1749 L 1280,1751 L 1279,1754 L 1277,1756 L 1277,1764 L 1275,1769 L 1275,1773 L 1276,1778 L 1275,1778 L 1274,1782 L 1274,1785 L 1275,1791 L 1275,1792 " /></g>
</svg>
