<?xml version="1.0" standalone="no"?><!DOCTYPE svg PUBLIC "-//W3C//DTD SVG 1.1//EN" "http://www.w3.org/Graphics/SVG/1.1/DTD/svg11.dtd"><svg xmlns="http://www.w3.org/2000/svg" viewBox="1274 1632 308 178" version = "1.1">
<g id="60301" ><path d="M 1279,1793 L 1278,1793 L 1278,1792 L 1277,1792 L 1276,1792 L 1275,1792 L 1275,1791 L 1274,1785 L 1274,1782 L 1275,1778 L 1276,1778 L 1275,1773 L 1275,1769 L 1277,1764 L 1277,1756 L 1279,1754 L 1280,1751 L 1280,1749 L 1281,1746 L 1284,1747 L 1286,1745 L 1286,1740 L 1288,1734 L 1289,1732 L 1290,1727 L 1293,1720 L 1296,1712 L 1297,1707 L 1299,1701 L 1301,1692 L 1302,1683 L 1302,1678 L 1303,1669 L 1304,1667 L 1305,1663 L 1306,1656 L 1307,1653 L 1308,1650 L 1309,1646 L 1308,1646 L 1308,1645 L 1308,1644 L 1309,1644 L 1311,1644 L 1313,1646 L 1315,1646 L 1323,1647 L 1344,1650 L 1357,1651 L 1366,1652 L 1368,1650 L 1382,1643 L 1383,1642 L 1388,1642 L 1396,1640 L 1397,1639 L 1400,1640 L 1407,1641 L 1424,1644 L 1426,1644 L 1428,1644 L 1432,1645 L 1437,1645 L 1439,1645 L 1443,1644 L 1443,1643 L 1445,1643 L 1446,1642 L 1449,1640 L 1451,1640 L 1460,1636 L 1477,1632 L 1479,1634 L 1496,1639 L 1506,1638 L 1507,1639 L 1508,1640 L 1510,1640 L 1512,1641 L 1513,1641 L 1515,1645 L 1517,1652 L 1519,1654 L 1520,1656 L 1525,1666 L 1529,1675 L 1532,1682 L 1536,1690 L 1537,1695 L 1539,1706 L 1541,1709 L 1544,1713 L 1546,1716 L 1547,1717 L 1548,1717 L 1550,1718 L 1553,1721 L 1554,1723 L 1554,1724 L 1553,1726 L 1552,1727 L 1553,1731 L 1557,1734 L 1558,1735 L 1560,1737 L 1562,1739 L 1563,1741 L 1564,1744 L 1566,1745 L 1569,1748 L 1571,1752 L 1572,1753 L 1571,1754 L 1570,1757 L 1569,1760 L 1568,1764 L 1567,1766 L 1568,1771 L 1569,1774 L 1570,1775 L 1571,1776 L 1572,1778 L 1573,1780 L 1573,1782 L 1574,1784 L 1575,1787 L 1578,1788 L 1581,1791 L 1582,1791 L 1581,1793 L 1578,1793 L 1562,1793 L 1549,1793 L 1516,1793 L 1515,1793 L 1512,1793 L 1507,1793 L 1504,1793 L 1498,1793 L 1490,1793 L 1484,1793 L 1475,1793 L 1460,1793 L 1454,1793 L 1444,1793 L 1439,1793 L 1434,1793 L 1432,1793 L 1413,1793 L 1412,1793 L 1391,1793 L 1389,1793 L 1381,1793 L 1372,1793 L 1364,1793 L 1356,1793 L 1350,1793 L 1349,1793 L 1348,1793 L 1293,1793 L 1293,1794 L 1292,1795 L 1292,1796 L 1292,1797 L 1293,1797 L 1293,1798 L 1292,1798 L 1292,1799 L 1292,1800 L 1292,1801 L 1291,1802 L 1291,1803 L 1290,1803 L 1290,1804 L 1290,1805 L 1291,1805 L 1290,1805 L 1291,1805 L 1290,1805 L 1290,1806 L 1289,1806 L 1289,1807 L 1290,1807 L 1289,1807 L 1289,1808 L 1289,1809 L 1288,1809 L 1288,1810 L 1287,1810 L 1287,1809 L 1288,1809 L 1287,1809 L 1288,1809 L 1287,1809 L 1288,1808 L 1287,1808 L 1287,1807 L 1287,1806 L 1286,1806 L 1286,1805 L 1287,1805 L 1287,1806 L 1287,1805 L 1286,1805 L 1287,1805 L 1287,1804 L 1287,1803 L 1288,1803 L 1288,1802 L 1287,1802 L 1287,1801 L 1286,1800 L 1286,1801 L 1286,1800 L 1286,1799 L 1286,1798 L 1285,1797 L 1286,1797 L 1286,1796 L 1285,1796 L 1284,1796 L 1284,1797 L 1283,1797 L 1283,1796 L 1282,1796 L 1282,1797 L 1281,1797 L 1280,1797 L 1280,1796 L 1280,1795 L 1279,1795 L 1279,1794 L 1279,1793 " /></g>
</svg>
