<?xml version="1.0" standalone="no"?><!DOCTYPE svg PUBLIC "-//W3C//DTD SVG 1.1//EN" "http://www.w3.org/Graphics/SVG/1.1/DTD/svg11.dtd"><svg xmlns="http://www.w3.org/2000/svg" viewBox="842 1661 177 85" version = "1.1">
<g id="60401" ><path d="M 957,1661 L 958,1661 L 958,1662 L 959,1662 L 959,1663 L 960,1663 L 961,1663 L 962,1663 L 962,1664 L 963,1664 L 963,1665 L 963,1666 L 964,1666 L 964,1667 L 964,1668 L 964,1669 L 965,1669 L 966,1669 L 966,1668 L 965,1668 L 965,1667 L 965,1666 L 966,1666 L 966,1667 L 967,1667 L 968,1667 L 969,1667 L 970,1667 L 970,1666 L 971,1666 L 971,1665 L 972,1664 L 973,1663 L 975,1663 L 976,1663 L 978,1663 L 979,1664 L 980,1663 L 981,1663 L 982,1663 L 983,1663 L 983,1664 L 984,1664 L 985,1664 L 986,1664 L 987,1664 L 988,1664 L 988,1665 L 999,1668 L 999,1669 L 1003,1670 L 1004,1671 L 1005,1673 L 1006,1673 L 1007,1673 L 1007,1674 L 1008,1674 L 1008,1675 L 1008,1676 L 1009,1676 L 1010,1677 L 1011,1677 L 1011,1678 L 1012,1678 L 1012,1679 L 1013,1680 L 1014,1680 L 1015,1680 L 1015,1681 L 1016,1682 L 1015,1682 L 1015,1683 L 1014,1683 L 1015,1683 L 1015,1684 L 1014,1684 L 1015,1684 L 1015,1685 L 1015,1686 L 1015,1687 L 1015,1688 L 1016,1688 L 1017,1688 L 1017,1687 L 1017,1686 L 1018,1686 L 1018,1687 L 1019,1687 L 1018,1687 L 1019,1687 L 1019,1688 L 1018,1688 L 1018,1689 L 1018,1690 L 1019,1690 L 1018,1690 L 1018,1691 L 1017,1691 L 1017,1692 L 1016,1692 L 1015,1692 L 1015,1693 L 1015,1694 L 1014,1694 L 1014,1695 L 1011,1705 L 1010,1710 L 1011,1713 L 1009,1716 L 1009,1717 L 1008,1718 L 1007,1718 L 1005,1718 L 1004,1718 L 1002,1719 L 1002,1720 L 1000,1720 L 998,1720 L 997,1721 L 998,1721 L 998,1722 L 999,1722 L 999,1723 L 998,1723 L 997,1723 L 997,1724 L 997,1725 L 997,1726 L 996,1726 L 996,1727 L 996,1728 L 995,1728 L 995,1729 L 994,1729 L 994,1730 L 993,1730 L 993,1731 L 992,1732 L 991,1732 L 990,1732 L 990,1731 L 989,1731 L 988,1731 L 988,1732 L 987,1732 L 987,1731 L 986,1731 L 985,1731 L 984,1731 L 983,1731 L 982,1731 L 982,1730 L 982,1731 L 981,1731 L 981,1732 L 980,1733 L 980,1734 L 980,1735 L 979,1735 L 979,1736 L 978,1737 L 978,1738 L 978,1739 L 977,1739 L 977,1740 L 977,1739 L 976,1739 L 976,1740 L 975,1739 L 974,1739 L 974,1738 L 973,1738 L 973,1737 L 972,1737 L 972,1736 L 971,1736 L 971,1735 L 970,1735 L 969,1735 L 968,1736 L 967,1736 L 966,1736 L 964,1735 L 962,1736 L 960,1735 L 957,1734 L 955,1734 L 954,1734 L 954,1733 L 953,1733 L 952,1732 L 951,1732 L 949,1731 L 949,1732 L 948,1733 L 947,1733 L 947,1732 L 944,1735 L 942,1735 L 939,1735 L 937,1735 L 936,1735 L 935,1736 L 934,1736 L 933,1736 L 933,1737 L 933,1739 L 932,1739 L 932,1740 L 929,1740 L 929,1739 L 927,1739 L 926,1738 L 926,1737 L 924,1736 L 923,1735 L 923,1734 L 923,1733 L 923,1732 L 923,1730 L 923,1729 L 923,1728 L 921,1727 L 920,1726 L 918,1727 L 916,1729 L 915,1729 L 914,1729 L 913,1730 L 912,1729 L 912,1730 L 911,1730 L 910,1731 L 909,1732 L 907,1733 L 906,1734 L 905,1736 L 905,1737 L 903,1738 L 901,1738 L 901,1737 L 900,1736 L 899,1736 L 898,1736 L 897,1737 L 896,1737 L 895,1738 L 894,1738 L 894,1737 L 892,1738 L 891,1738 L 890,1738 L 888,1738 L 887,1738 L 887,1737 L 886,1737 L 886,1738 L 885,1738 L 882,1737 L 881,1737 L 881,1736 L 879,1736 L 878,1737 L 877,1737 L 877,1736 L 876,1736 L 875,1736 L 874,1736 L 873,1736 L 873,1737 L 872,1737 L 871,1737 L 870,1737 L 869,1738 L 868,1738 L 867,1738 L 867,1737 L 866,1737 L 865,1737 L 864,1737 L 863,1737 L 862,1737 L 862,1736 L 861,1736 L 860,1736 L 859,1736 L 858,1736 L 857,1736 L 856,1736 L 855,1736 L 854,1736 L 854,1737 L 853,1738 L 852,1738 L 851,1739 L 851,1740 L 851,1741 L 850,1740 L 849,1740 L 848,1741 L 848,1742 L 847,1742 L 847,1743 L 847,1744 L 847,1745 L 847,1746 L 845,1745 L 845,1744 L 845,1742 L 844,1740 L 843,1740 L 843,1738 L 843,1735 L 844,1734 L 844,1733 L 844,1732 L 843,1730 L 842,1728 L 844,1726 L 846,1725 L 847,1723 L 846,1721 L 848,1720 L 851,1719 L 853,1718 L 855,1717 L 855,1716 L 857,1716 L 858,1717 L 859,1716 L 861,1717 L 864,1716 L 869,1711 L 869,1710 L 871,1710 L 874,1710 L 876,1710 L 878,1709 L 881,1711 L 884,1712 L 887,1711 L 889,1711 L 890,1710 L 891,1709 L 892,1706 L 892,1704 L 894,1703 L 894,1702 L 894,1701 L 894,1700 L 891,1698 L 895,1691 L 899,1693 L 906,1694 L 910,1692 L 917,1691 L 918,1689 L 919,1688 L 919,1687 L 922,1685 L 924,1682 L 924,1681 L 925,1680 L 926,1679 L 927,1678 L 928,1677 L 929,1675 L 928,1675 L 928,1673 L 929,1673 L 929,1671 L 932,1671 L 933,1670 L 934,1671 L 934,1672 L 935,1672 L 935,1673 L 936,1674 L 938,1673 L 938,1674 L 939,1673 L 940,1673 L 941,1672 L 942,1672 L 943,1673 L 945,1672 L 945,1671 L 946,1670 L 946,1669 L 946,1668 L 947,1668 L 947,1667 L 948,1667 L 948,1666 L 949,1665 L 950,1664 L 950,1663 L 950,1662 L 951,1662 L 951,1661 L 952,1661 L 953,1661 L 954,1661 L 955,1661 L 956,1661 L 957,1661 " /></g>
</svg>
