<?xml version="1.0" standalone="no"?><!DOCTYPE svg PUBLIC "-//W3C//DTD SVG 1.1//EN" "http://www.w3.org/Graphics/SVG/1.1/DTD/svg11.dtd"><svg xmlns="http://www.w3.org/2000/svg" viewBox="705 1619 156 201" version = "1.1">
<g id="60402" ><path d="M 766,1619 L 767,1619 L 767,1620 L 768,1620 L 769,1621 L 770,1621 L 771,1621 L 771,1622 L 772,1622 L 772,1623 L 773,1623 L 774,1623 L 775,1623 L 775,1624 L 776,1624 L 776,1625 L 777,1625 L 778,1625 L 779,1625 L 779,1626 L 780,1626 L 781,1626 L 782,1626 L 783,1626 L 783,1627 L 784,1626 L 784,1627 L 785,1627 L 785,1626 L 785,1627 L 786,1627 L 787,1629 L 791,1626 L 793,1624 L 797,1619 L 800,1621 L 817,1628 L 817,1629 L 818,1634 L 818,1636 L 818,1640 L 819,1641 L 823,1643 L 824,1643 L 825,1643 L 826,1644 L 831,1645 L 832,1646 L 833,1647 L 833,1649 L 834,1655 L 837,1661 L 838,1661 L 847,1662 L 854,1663 L 854,1662 L 855,1661 L 855,1660 L 855,1659 L 854,1659 L 854,1658 L 855,1658 L 855,1657 L 855,1656 L 855,1655 L 854,1655 L 855,1655 L 854,1654 L 854,1653 L 854,1652 L 855,1652 L 855,1651 L 855,1650 L 855,1649 L 855,1648 L 856,1648 L 856,1649 L 857,1649 L 858,1649 L 858,1650 L 859,1651 L 859,1652 L 859,1653 L 860,1653 L 859,1653 L 860,1653 L 859,1653 L 859,1654 L 860,1654 L 860,1655 L 860,1656 L 860,1657 L 860,1658 L 860,1659 L 860,1660 L 860,1661 L 861,1661 L 861,1662 L 861,1663 L 861,1664 L 861,1665 L 860,1665 L 859,1665 L 859,1666 L 859,1667 L 858,1667 L 858,1668 L 858,1669 L 857,1669 L 857,1670 L 857,1671 L 857,1672 L 857,1673 L 857,1674 L 856,1675 L 856,1676 L 854,1676 L 853,1677 L 852,1677 L 854,1679 L 851,1686 L 851,1688 L 850,1690 L 852,1695 L 852,1696 L 852,1697 L 847,1700 L 847,1702 L 846,1703 L 846,1707 L 848,1708 L 848,1709 L 848,1711 L 848,1713 L 849,1715 L 851,1719 L 848,1720 L 846,1721 L 847,1723 L 846,1725 L 844,1726 L 842,1728 L 843,1730 L 844,1732 L 844,1733 L 844,1734 L 843,1735 L 843,1738 L 843,1740 L 844,1740 L 845,1742 L 845,1744 L 845,1745 L 844,1744 L 844,1745 L 843,1745 L 842,1746 L 842,1747 L 841,1747 L 843,1753 L 842,1754 L 842,1755 L 840,1758 L 839,1759 L 840,1760 L 840,1761 L 840,1762 L 840,1763 L 840,1764 L 840,1765 L 840,1766 L 836,1772 L 835,1772 L 835,1773 L 834,1773 L 834,1774 L 833,1773 L 832,1773 L 831,1774 L 830,1774 L 830,1775 L 829,1776 L 829,1777 L 829,1778 L 830,1779 L 831,1780 L 831,1781 L 832,1783 L 831,1783 L 832,1784 L 832,1786 L 833,1787 L 833,1788 L 833,1789 L 832,1791 L 831,1792 L 830,1792 L 830,1793 L 831,1796 L 831,1798 L 831,1805 L 830,1807 L 829,1810 L 829,1812 L 828,1814 L 828,1817 L 828,1819 L 828,1820 L 799,1820 L 783,1820 L 781,1818 L 783,1810 L 785,1800 L 785,1798 L 784,1797 L 784,1796 L 783,1796 L 782,1796 L 781,1796 L 780,1796 L 779,1796 L 778,1796 L 778,1795 L 777,1794 L 776,1793 L 775,1793 L 775,1792 L 774,1792 L 774,1791 L 773,1791 L 773,1790 L 772,1790 L 771,1790 L 770,1790 L 769,1789 L 769,1790 L 768,1789 L 767,1789 L 766,1788 L 765,1787 L 764,1787 L 764,1786 L 764,1785 L 763,1785 L 762,1784 L 761,1784 L 760,1783 L 759,1783 L 759,1782 L 758,1782 L 757,1782 L 756,1782 L 755,1782 L 754,1782 L 753,1782 L 752,1782 L 751,1782 L 751,1783 L 750,1783 L 749,1783 L 748,1783 L 747,1784 L 746,1784 L 745,1784 L 744,1784 L 743,1784 L 742,1784 L 741,1784 L 741,1783 L 740,1783 L 739,1783 L 738,1782 L 737,1782 L 737,1781 L 736,1781 L 735,1781 L 734,1780 L 733,1780 L 732,1780 L 732,1779 L 731,1779 L 731,1778 L 730,1778 L 729,1778 L 729,1777 L 728,1777 L 728,1776 L 727,1776 L 727,1775 L 726,1775 L 726,1774 L 725,1774 L 724,1774 L 724,1773 L 723,1773 L 722,1773 L 721,1773 L 721,1772 L 720,1772 L 720,1771 L 719,1771 L 719,1770 L 718,1770 L 717,1769 L 716,1769 L 715,1769 L 714,1768 L 713,1768 L 713,1767 L 712,1767 L 712,1766 L 711,1766 L 711,1765 L 710,1765 L 710,1764 L 709,1764 L 708,1763 L 708,1762 L 708,1761 L 708,1760 L 707,1760 L 707,1759 L 706,1758 L 706,1757 L 705,1757 L 705,1756 L 706,1756 L 706,1755 L 706,1754 L 706,1753 L 706,1752 L 707,1752 L 707,1753 L 708,1753 L 708,1752 L 709,1752 L 710,1752 L 711,1752 L 712,1752 L 712,1751 L 713,1751 L 713,1750 L 712,1750 L 712,1749 L 713,1749 L 713,1748 L 714,1748 L 714,1747 L 714,1746 L 715,1746 L 715,1745 L 714,1744 L 715,1743 L 715,1742 L 714,1742 L 714,1741 L 714,1740 L 715,1740 L 715,1739 L 715,1738 L 716,1739 L 717,1739 L 717,1738 L 717,1737 L 718,1737 L 719,1737 L 720,1737 L 721,1738 L 722,1738 L 723,1738 L 724,1738 L 724,1737 L 725,1738 L 726,1738 L 726,1737 L 727,1737 L 727,1736 L 727,1735 L 728,1735 L 728,1734 L 729,1734 L 729,1733 L 729,1732 L 728,1732 L 728,1731 L 729,1731 L 729,1730 L 729,1729 L 729,1728 L 730,1728 L 731,1728 L 732,1727 L 733,1727 L 733,1726 L 733,1725 L 733,1724 L 734,1724 L 734,1723 L 734,1722 L 733,1722 L 733,1721 L 734,1721 L 734,1720 L 735,1720 L 736,1720 L 736,1719 L 735,1719 L 735,1718 L 735,1717 L 735,1716 L 736,1716 L 736,1715 L 737,1714 L 738,1714 L 738,1713 L 738,1712 L 737,1712 L 737,1711 L 737,1710 L 738,1709 L 738,1708 L 739,1708 L 739,1707 L 740,1707 L 740,1706 L 740,1705 L 740,1704 L 741,1703 L 740,1703 L 740,1702 L 740,1701 L 741,1701 L 742,1702 L 743,1702 L 744,1702 L 745,1702 L 746,1702 L 747,1702 L 748,1701 L 748,1700 L 747,1700 L 747,1699 L 746,1699 L 745,1698 L 744,1697 L 745,1697 L 745,1696 L 745,1695 L 744,1695 L 744,1694 L 743,1694 L 742,1694 L 742,1693 L 743,1693 L 743,1692 L 744,1692 L 744,1691 L 744,1690 L 744,1689 L 744,1688 L 743,1688 L 743,1687 L 744,1687 L 745,1687 L 745,1686 L 745,1685 L 745,1684 L 746,1684 L 746,1683 L 747,1683 L 747,1682 L 748,1682 L 748,1681 L 749,1681 L 750,1681 L 750,1680 L 750,1679 L 751,1679 L 751,1680 L 752,1680 L 752,1679 L 753,1679 L 753,1678 L 752,1677 L 753,1677 L 753,1676 L 754,1676 L 754,1675 L 753,1674 L 752,1674 L 752,1673 L 753,1673 L 753,1672 L 754,1672 L 755,1672 L 756,1672 L 756,1671 L 756,1670 L 757,1670 L 758,1669 L 758,1668 L 758,1667 L 757,1667 L 757,1666 L 756,1665 L 756,1664 L 757,1663 L 757,1662 L 757,1661 L 757,1660 L 758,1660 L 758,1659 L 759,1658 L 760,1658 L 760,1657 L 760,1656 L 761,1655 L 761,1654 L 761,1653 L 760,1653 L 760,1652 L 761,1652 L 761,1651 L 762,1651 L 761,1650 L 761,1649 L 762,1648 L 763,1648 L 763,1647 L 763,1646 L 763,1645 L 763,1644 L 763,1643 L 763,1642 L 763,1641 L 763,1640 L 762,1640 L 761,1640 L 761,1639 L 762,1638 L 763,1638 L 763,1637 L 763,1636 L 762,1635 L 763,1635 L 763,1634 L 763,1633 L 763,1632 L 763,1631 L 763,1632 L 762,1632 L 762,1631 L 761,1631 L 761,1630 L 761,1629 L 761,1628 L 762,1628 L 762,1627 L 763,1627 L 763,1626 L 763,1625 L 763,1624 L 763,1623 L 763,1622 L 763,1621 L 763,1620 L 764,1619 L 765,1619 L 766,1619 " /></g>
</svg>
