<?xml version="1.0" standalone="no"?><!DOCTYPE svg PUBLIC "-//W3C//DTD SVG 1.1//EN" "http://www.w3.org/Graphics/SVG/1.1/DTD/svg11.dtd"><svg xmlns="http://www.w3.org/2000/svg" viewBox="762 1438 142 225" version = "1.1">
<g id="60502" ><path d="M 791,1438 L 792,1438 L 793,1438 L 792,1439 L 792,1440 L 793,1440 L 793,1441 L 793,1442 L 794,1443 L 794,1444 L 795,1444 L 795,1443 L 795,1442 L 795,1441 L 796,1441 L 796,1440 L 796,1441 L 797,1441 L 797,1442 L 798,1442 L 798,1443 L 798,1444 L 799,1444 L 800,1444 L 801,1444 L 801,1443 L 802,1443 L 802,1442 L 803,1442 L 803,1443 L 804,1444 L 804,1445 L 804,1446 L 805,1446 L 806,1446 L 807,1446 L 808,1446 L 809,1446 L 809,1447 L 808,1447 L 808,1448 L 807,1448 L 807,1449 L 807,1450 L 808,1450 L 809,1450 L 809,1449 L 810,1449 L 811,1449 L 812,1448 L 812,1447 L 811,1447 L 811,1448 L 811,1447 L 810,1447 L 811,1446 L 812,1446 L 813,1446 L 813,1447 L 814,1447 L 814,1448 L 815,1449 L 816,1448 L 817,1448 L 817,1447 L 817,1446 L 816,1446 L 816,1445 L 816,1444 L 817,1443 L 818,1443 L 819,1444 L 820,1444 L 821,1444 L 821,1443 L 821,1442 L 822,1442 L 822,1443 L 822,1444 L 822,1445 L 822,1446 L 823,1446 L 824,1446 L 824,1447 L 825,1447 L 825,1448 L 824,1449 L 825,1450 L 826,1450 L 826,1449 L 826,1450 L 826,1451 L 826,1452 L 826,1453 L 827,1453 L 828,1454 L 827,1455 L 828,1455 L 829,1455 L 829,1456 L 830,1456 L 831,1456 L 831,1457 L 830,1458 L 830,1457 L 829,1457 L 829,1458 L 828,1458 L 828,1459 L 829,1459 L 830,1459 L 831,1459 L 831,1460 L 832,1460 L 832,1461 L 833,1461 L 834,1461 L 835,1461 L 836,1462 L 837,1462 L 837,1461 L 836,1460 L 835,1460 L 835,1459 L 835,1458 L 836,1458 L 836,1459 L 837,1459 L 838,1460 L 838,1461 L 838,1462 L 838,1463 L 837,1464 L 836,1464 L 836,1465 L 837,1465 L 838,1465 L 839,1465 L 839,1464 L 839,1463 L 840,1463 L 841,1463 L 841,1464 L 841,1465 L 841,1466 L 842,1466 L 843,1466 L 844,1466 L 844,1465 L 845,1465 L 846,1465 L 846,1464 L 845,1464 L 845,1463 L 844,1463 L 844,1462 L 844,1461 L 845,1461 L 846,1461 L 846,1462 L 846,1463 L 847,1463 L 848,1463 L 848,1462 L 848,1461 L 848,1460 L 849,1459 L 850,1459 L 850,1460 L 850,1461 L 851,1461 L 852,1461 L 853,1461 L 853,1462 L 854,1462 L 855,1462 L 855,1463 L 856,1463 L 856,1464 L 855,1464 L 854,1464 L 853,1464 L 853,1465 L 854,1465 L 855,1465 L 856,1465 L 857,1465 L 857,1466 L 858,1466 L 859,1466 L 859,1465 L 859,1464 L 860,1464 L 861,1465 L 861,1466 L 861,1467 L 862,1467 L 863,1467 L 863,1468 L 863,1469 L 862,1470 L 863,1470 L 864,1470 L 864,1469 L 865,1469 L 866,1469 L 866,1468 L 865,1468 L 864,1467 L 865,1467 L 864,1467 L 864,1466 L 864,1465 L 864,1464 L 865,1464 L 865,1465 L 866,1465 L 867,1465 L 868,1465 L 869,1466 L 870,1466 L 870,1467 L 870,1468 L 871,1468 L 871,1469 L 870,1469 L 870,1470 L 871,1470 L 871,1471 L 871,1472 L 871,1473 L 871,1474 L 872,1474 L 872,1475 L 872,1476 L 873,1476 L 874,1476 L 875,1476 L 876,1476 L 876,1475 L 877,1475 L 878,1475 L 879,1474 L 879,1475 L 880,1475 L 881,1475 L 882,1475 L 883,1475 L 883,1476 L 884,1476 L 884,1477 L 885,1477 L 884,1478 L 883,1478 L 883,1479 L 882,1479 L 881,1479 L 880,1480 L 881,1480 L 881,1481 L 882,1481 L 883,1482 L 884,1482 L 884,1483 L 885,1483 L 886,1483 L 887,1483 L 888,1483 L 889,1483 L 890,1483 L 891,1483 L 891,1484 L 892,1484 L 893,1484 L 893,1485 L 894,1485 L 894,1486 L 895,1486 L 896,1486 L 896,1487 L 896,1488 L 895,1488 L 894,1488 L 894,1489 L 894,1490 L 894,1491 L 894,1492 L 895,1492 L 896,1492 L 897,1492 L 897,1491 L 898,1491 L 898,1492 L 899,1492 L 900,1492 L 901,1492 L 901,1491 L 901,1492 L 901,1493 L 902,1493 L 902,1494 L 903,1494 L 903,1495 L 902,1495 L 902,1496 L 901,1496 L 901,1497 L 902,1497 L 902,1498 L 902,1499 L 902,1500 L 902,1501 L 902,1502 L 902,1503 L 903,1503 L 903,1504 L 903,1505 L 903,1506 L 904,1506 L 904,1507 L 903,1507 L 903,1508 L 902,1509 L 901,1510 L 902,1510 L 902,1511 L 903,1511 L 903,1512 L 902,1512 L 895,1515 L 893,1519 L 890,1522 L 888,1523 L 886,1526 L 885,1527 L 882,1530 L 878,1534 L 873,1537 L 873,1539 L 872,1540 L 873,1544 L 872,1546 L 871,1548 L 872,1552 L 871,1558 L 870,1562 L 870,1564 L 870,1570 L 871,1575 L 871,1580 L 871,1584 L 872,1587 L 871,1589 L 871,1597 L 871,1600 L 872,1600 L 873,1600 L 874,1600 L 874,1601 L 875,1601 L 876,1601 L 877,1601 L 878,1601 L 878,1600 L 878,1601 L 879,1601 L 880,1601 L 880,1600 L 881,1600 L 881,1599 L 882,1599 L 882,1598 L 883,1598 L 883,1599 L 883,1600 L 883,1601 L 883,1602 L 882,1602 L 882,1603 L 883,1603 L 883,1604 L 883,1605 L 883,1606 L 883,1607 L 882,1607 L 882,1608 L 882,1609 L 883,1609 L 884,1609 L 884,1610 L 885,1610 L 885,1611 L 885,1612 L 885,1613 L 884,1613 L 884,1612 L 883,1612 L 883,1613 L 882,1613 L 882,1614 L 882,1615 L 882,1616 L 882,1617 L 882,1618 L 883,1619 L 883,1620 L 884,1620 L 884,1621 L 885,1621 L 885,1622 L 886,1622 L 887,1622 L 888,1622 L 888,1621 L 889,1621 L 890,1623 L 891,1625 L 891,1626 L 891,1631 L 891,1632 L 890,1633 L 890,1634 L 889,1634 L 889,1636 L 888,1636 L 888,1637 L 887,1637 L 885,1638 L 884,1638 L 882,1639 L 881,1640 L 880,1641 L 877,1644 L 876,1644 L 874,1647 L 874,1651 L 875,1651 L 874,1653 L 874,1655 L 873,1656 L 872,1657 L 872,1659 L 870,1659 L 868,1660 L 861,1660 L 860,1660 L 860,1659 L 860,1658 L 860,1657 L 860,1656 L 860,1655 L 860,1654 L 859,1654 L 859,1653 L 860,1653 L 859,1653 L 860,1653 L 859,1653 L 859,1652 L 859,1651 L 858,1650 L 858,1649 L 857,1649 L 856,1649 L 856,1648 L 855,1648 L 855,1649 L 855,1650 L 855,1651 L 855,1652 L 854,1652 L 854,1653 L 854,1654 L 855,1655 L 854,1655 L 855,1655 L 855,1656 L 855,1657 L 855,1658 L 854,1658 L 854,1659 L 855,1659 L 855,1660 L 855,1661 L 854,1662 L 854,1663 L 847,1662 L 838,1661 L 837,1661 L 834,1655 L 833,1649 L 833,1647 L 832,1646 L 831,1645 L 826,1644 L 825,1643 L 824,1643 L 823,1643 L 819,1641 L 818,1640 L 818,1636 L 818,1634 L 817,1629 L 817,1628 L 800,1621 L 797,1619 L 793,1624 L 791,1626 L 787,1629 L 786,1627 L 785,1627 L 785,1626 L 785,1627 L 784,1627 L 784,1626 L 783,1627 L 783,1626 L 782,1626 L 781,1626 L 780,1626 L 779,1626 L 779,1625 L 778,1625 L 777,1625 L 776,1625 L 776,1624 L 775,1624 L 775,1623 L 774,1623 L 773,1623 L 772,1623 L 772,1622 L 771,1622 L 771,1621 L 770,1621 L 769,1621 L 768,1620 L 767,1620 L 767,1619 L 766,1619 L 765,1619 L 764,1619 L 763,1620 L 762,1620 L 762,1619 L 762,1618 L 763,1617 L 763,1616 L 763,1615 L 762,1615 L 762,1614 L 762,1613 L 763,1612 L 764,1612 L 764,1611 L 764,1610 L 764,1609 L 764,1608 L 764,1607 L 765,1606 L 765,1605 L 764,1605 L 764,1604 L 764,1603 L 764,1602 L 764,1601 L 765,1600 L 766,1600 L 766,1599 L 767,1599 L 767,1598 L 766,1597 L 766,1596 L 766,1595 L 766,1594 L 767,1594 L 767,1593 L 766,1593 L 766,1592 L 767,1592 L 768,1591 L 768,1590 L 768,1589 L 768,1588 L 767,1588 L 767,1587 L 767,1586 L 768,1586 L 769,1586 L 768,1586 L 768,1585 L 768,1584 L 768,1583 L 768,1582 L 768,1581 L 768,1580 L 768,1579 L 769,1579 L 769,1578 L 769,1577 L 769,1576 L 770,1576 L 770,1575 L 770,1574 L 771,1574 L 770,1573 L 769,1573 L 769,1572 L 769,1571 L 770,1570 L 769,1570 L 769,1569 L 770,1569 L 771,1569 L 772,1569 L 772,1568 L 772,1567 L 771,1567 L 771,1566 L 770,1566 L 770,1565 L 771,1565 L 771,1564 L 772,1564 L 773,1564 L 773,1563 L 772,1563 L 772,1562 L 772,1561 L 773,1561 L 773,1560 L 772,1560 L 772,1559 L 773,1559 L 773,1558 L 772,1558 L 772,1557 L 773,1557 L 773,1556 L 774,1556 L 774,1555 L 774,1554 L 775,1554 L 774,1554 L 774,1553 L 773,1553 L 773,1552 L 773,1551 L 774,1551 L 774,1550 L 774,1549 L 773,1549 L 773,1548 L 773,1547 L 772,1547 L 772,1546 L 772,1545 L 772,1544 L 772,1545 L 773,1545 L 773,1544 L 773,1543 L 772,1543 L 771,1543 L 770,1543 L 770,1542 L 771,1542 L 771,1541 L 772,1541 L 773,1541 L 773,1542 L 774,1542 L 774,1543 L 775,1542 L 775,1541 L 774,1541 L 774,1540 L 774,1539 L 774,1538 L 775,1538 L 775,1537 L 776,1537 L 776,1536 L 775,1536 L 774,1535 L 775,1535 L 775,1534 L 775,1533 L 776,1533 L 776,1532 L 776,1531 L 777,1531 L 778,1531 L 778,1530 L 778,1529 L 778,1528 L 777,1527 L 776,1527 L 776,1526 L 777,1526 L 777,1525 L 778,1525 L 778,1524 L 777,1523 L 776,1522 L 775,1521 L 774,1521 L 775,1521 L 775,1520 L 775,1519 L 776,1519 L 777,1518 L 777,1517 L 777,1516 L 777,1515 L 778,1515 L 778,1514 L 779,1514 L 780,1513 L 781,1512 L 782,1511 L 782,1510 L 782,1509 L 781,1509 L 781,1508 L 782,1508 L 782,1507 L 781,1507 L 781,1506 L 780,1506 L 780,1505 L 781,1505 L 782,1504 L 782,1503 L 781,1503 L 780,1503 L 780,1504 L 779,1504 L 779,1503 L 778,1503 L 779,1502 L 778,1502 L 778,1501 L 779,1501 L 779,1500 L 779,1499 L 778,1499 L 778,1498 L 778,1497 L 779,1497 L 779,1496 L 779,1495 L 779,1494 L 779,1493 L 779,1492 L 779,1491 L 780,1491 L 780,1490 L 779,1490 L 779,1489 L 778,1489 L 778,1488 L 779,1488 L 779,1487 L 779,1486 L 778,1486 L 778,1485 L 778,1484 L 778,1483 L 778,1482 L 778,1481 L 778,1480 L 778,1479 L 779,1479 L 779,1478 L 778,1478 L 778,1477 L 779,1477 L 779,1476 L 779,1475 L 779,1474 L 780,1473 L 780,1472 L 779,1472 L 779,1471 L 780,1471 L 779,1471 L 779,1470 L 779,1469 L 779,1468 L 780,1468 L 780,1467 L 780,1466 L 779,1466 L 780,1466 L 780,1465 L 781,1465 L 781,1464 L 781,1463 L 782,1463 L 782,1462 L 781,1462 L 782,1462 L 782,1461 L 782,1460 L 782,1459 L 781,1459 L 782,1459 L 781,1459 L 781,1458 L 782,1458 L 782,1457 L 782,1456 L 781,1456 L 781,1455 L 781,1454 L 781,1453 L 781,1452 L 781,1451 L 781,1450 L 782,1450 L 783,1449 L 783,1448 L 782,1448 L 782,1447 L 782,1446 L 783,1446 L 783,1445 L 784,1445 L 784,1444 L 783,1444 L 783,1443 L 784,1443 L 785,1442 L 785,1441 L 786,1441 L 786,1442 L 787,1441 L 787,1440 L 786,1440 L 786,1439 L 787,1439 L 788,1439 L 789,1439 L 790,1439 L 790,1438 L 791,1438 " /></g>
</svg>
