<?xml version="1.0" standalone="no"?><!DOCTYPE svg PUBLIC "-//W3C//DTD SVG 1.1//EN" "http://www.w3.org/Graphics/SVG/1.1/DTD/svg11.dtd"><svg xmlns="http://www.w3.org/2000/svg" viewBox="870 1433 180 219" version = "1.1">
<g id="60501" ><path d="M 949,1435 L 949,1436 L 950,1436 L 951,1436 L 952,1437 L 953,1437 L 954,1437 L 955,1437 L 956,1436 L 957,1436 L 958,1436 L 958,1437 L 959,1437 L 960,1437 L 960,1438 L 961,1438 L 961,1439 L 962,1439 L 962,1440 L 961,1440 L 962,1441 L 963,1441 L 964,1441 L 965,1441 L 965,1442 L 965,1443 L 965,1444 L 965,1445 L 966,1445 L 966,1446 L 967,1446 L 967,1447 L 968,1447 L 969,1447 L 970,1447 L 970,1448 L 971,1448 L 971,1449 L 972,1449 L 972,1450 L 973,1450 L 974,1450 L 974,1449 L 975,1449 L 976,1449 L 977,1449 L 977,1450 L 978,1450 L 979,1451 L 979,1452 L 979,1453 L 979,1454 L 979,1455 L 980,1455 L 980,1456 L 980,1457 L 981,1457 L 981,1458 L 982,1458 L 982,1459 L 983,1459 L 983,1458 L 984,1458 L 985,1458 L 985,1459 L 985,1460 L 985,1461 L 985,1462 L 986,1462 L 987,1462 L 987,1463 L 987,1464 L 986,1464 L 986,1465 L 987,1465 L 987,1466 L 987,1467 L 988,1467 L 989,1467 L 990,1467 L 991,1467 L 991,1468 L 991,1469 L 991,1470 L 991,1471 L 991,1472 L 992,1472 L 992,1473 L 992,1474 L 993,1474 L 994,1475 L 995,1476 L 995,1477 L 996,1477 L 996,1478 L 997,1478 L 997,1479 L 997,1480 L 998,1481 L 998,1482 L 997,1482 L 998,1483 L 998,1484 L 999,1484 L 1000,1484 L 1001,1484 L 1001,1485 L 1001,1486 L 1001,1487 L 1002,1487 L 1003,1487 L 1004,1488 L 1004,1489 L 1005,1489 L 1006,1489 L 1007,1489 L 1008,1489 L 1009,1490 L 1010,1490 L 1010,1489 L 1011,1489 L 1011,1488 L 1012,1488 L 1013,1488 L 1014,1488 L 1015,1488 L 1016,1487 L 1017,1487 L 1018,1487 L 1019,1487 L 1020,1487 L 1020,1486 L 1020,1485 L 1021,1485 L 1022,1485 L 1023,1485 L 1024,1485 L 1025,1485 L 1026,1485 L 1027,1484 L 1028,1484 L 1029,1485 L 1030,1485 L 1031,1485 L 1032,1486 L 1033,1487 L 1034,1488 L 1035,1488 L 1035,1489 L 1036,1490 L 1037,1490 L 1037,1491 L 1038,1490 L 1039,1490 L 1040,1490 L 1040,1489 L 1041,1489 L 1042,1490 L 1043,1490 L 1043,1491 L 1043,1492 L 1043,1493 L 1044,1493 L 1045,1493 L 1046,1494 L 1047,1494 L 1047,1495 L 1047,1496 L 1048,1496 L 1049,1497 L 1050,1497 L 1050,1498 L 1050,1499 L 1050,1500 L 1050,1501 L 1050,1502 L 1050,1503 L 1050,1504 L 1050,1505 L 1049,1505 L 1048,1506 L 1047,1507 L 1047,1508 L 1046,1509 L 1045,1510 L 1045,1511 L 1045,1512 L 1044,1513 L 1043,1514 L 1042,1514 L 1041,1514 L 1041,1515 L 1040,1515 L 1040,1516 L 1040,1517 L 1040,1518 L 1040,1519 L 1040,1520 L 1040,1521 L 1040,1522 L 1040,1523 L 1039,1523 L 1039,1524 L 1039,1525 L 1039,1526 L 1039,1527 L 1040,1528 L 1040,1529 L 1039,1530 L 1039,1531 L 1039,1532 L 1039,1533 L 1039,1534 L 1039,1535 L 1039,1536 L 1038,1536 L 1037,1536 L 1037,1537 L 1036,1537 L 1036,1538 L 1036,1539 L 1037,1540 L 1037,1541 L 1037,1542 L 1037,1543 L 1037,1544 L 1037,1545 L 1036,1546 L 1036,1547 L 1035,1548 L 1035,1549 L 1034,1550 L 1034,1551 L 1033,1551 L 1034,1552 L 1034,1553 L 1035,1553 L 1035,1554 L 1035,1555 L 1035,1556 L 1035,1557 L 1035,1558 L 1035,1560 L 1034,1560 L 1034,1561 L 1034,1562 L 1033,1562 L 1033,1563 L 1032,1563 L 1031,1564 L 1030,1564 L 1030,1565 L 1029,1565 L 1029,1566 L 1028,1566 L 1028,1565 L 1028,1566 L 1027,1566 L 1026,1566 L 1026,1567 L 1025,1567 L 1026,1567 L 1026,1568 L 1025,1568 L 1025,1569 L 1025,1570 L 1025,1571 L 1024,1571 L 1024,1572 L 1023,1572 L 1022,1573 L 1021,1572 L 1020,1571 L 1019,1570 L 1017,1570 L 1016,1571 L 1012,1568 L 1007,1566 L 1002,1566 L 1000,1563 L 999,1561 L 999,1559 L 999,1557 L 1000,1556 L 999,1553 L 998,1551 L 995,1551 L 993,1551 L 991,1552 L 984,1552 L 983,1551 L 985,1543 L 986,1539 L 984,1537 L 982,1537 L 981,1537 L 980,1537 L 979,1536 L 978,1536 L 977,1536 L 976,1536 L 976,1537 L 976,1538 L 976,1539 L 975,1539 L 975,1540 L 973,1542 L 973,1544 L 972,1546 L 971,1546 L 969,1548 L 970,1553 L 971,1556 L 972,1558 L 972,1559 L 972,1560 L 972,1563 L 972,1564 L 968,1565 L 966,1565 L 967,1567 L 966,1572 L 965,1572 L 964,1572 L 964,1576 L 964,1577 L 963,1579 L 963,1580 L 963,1582 L 962,1582 L 962,1583 L 962,1584 L 961,1584 L 961,1585 L 960,1585 L 959,1585 L 958,1585 L 957,1585 L 956,1586 L 955,1586 L 954,1586 L 953,1586 L 952,1586 L 952,1585 L 951,1585 L 951,1586 L 950,1586 L 949,1586 L 948,1586 L 948,1587 L 947,1587 L 946,1587 L 946,1588 L 945,1588 L 944,1588 L 944,1589 L 943,1589 L 943,1590 L 942,1590 L 942,1591 L 942,1592 L 942,1593 L 942,1594 L 942,1595 L 943,1596 L 942,1597 L 942,1598 L 942,1599 L 941,1599 L 941,1600 L 940,1600 L 941,1601 L 940,1601 L 940,1602 L 939,1602 L 939,1603 L 939,1604 L 938,1604 L 938,1605 L 937,1605 L 937,1606 L 937,1607 L 936,1607 L 936,1608 L 935,1609 L 934,1610 L 933,1610 L 933,1611 L 932,1612 L 931,1613 L 930,1613 L 929,1614 L 929,1615 L 928,1615 L 928,1616 L 928,1617 L 928,1618 L 927,1618 L 927,1619 L 927,1620 L 927,1621 L 927,1622 L 927,1623 L 926,1623 L 926,1624 L 925,1624 L 924,1624 L 923,1624 L 922,1624 L 921,1625 L 920,1625 L 920,1626 L 919,1626 L 919,1627 L 920,1629 L 920,1631 L 920,1632 L 917,1634 L 917,1635 L 916,1637 L 914,1638 L 913,1639 L 912,1639 L 911,1641 L 909,1642 L 909,1643 L 907,1645 L 905,1646 L 904,1646 L 902,1646 L 901,1645 L 899,1645 L 896,1647 L 895,1648 L 892,1648 L 891,1648 L 890,1648 L 887,1649 L 886,1651 L 884,1652 L 880,1652 L 879,1652 L 876,1652 L 875,1651 L 874,1651 L 874,1647 L 876,1644 L 877,1644 L 880,1641 L 881,1640 L 882,1639 L 884,1638 L 885,1638 L 887,1637 L 888,1637 L 888,1636 L 889,1636 L 889,1634 L 890,1634 L 890,1633 L 891,1632 L 891,1631 L 891,1626 L 891,1625 L 890,1623 L 889,1621 L 888,1621 L 888,1622 L 887,1622 L 886,1622 L 885,1622 L 885,1621 L 884,1621 L 884,1620 L 883,1620 L 883,1619 L 882,1618 L 882,1617 L 882,1616 L 882,1615 L 882,1614 L 882,1613 L 883,1613 L 883,1612 L 884,1612 L 884,1613 L 885,1613 L 885,1612 L 885,1611 L 885,1610 L 884,1610 L 884,1609 L 883,1609 L 882,1609 L 882,1608 L 882,1607 L 883,1607 L 883,1606 L 883,1605 L 883,1604 L 883,1603 L 882,1603 L 882,1602 L 883,1602 L 883,1601 L 883,1600 L 883,1599 L 883,1598 L 882,1598 L 882,1599 L 881,1599 L 881,1600 L 880,1600 L 880,1601 L 879,1601 L 878,1601 L 878,1600 L 878,1601 L 877,1601 L 876,1601 L 875,1601 L 874,1601 L 874,1600 L 873,1600 L 872,1600 L 871,1600 L 871,1597 L 871,1589 L 872,1587 L 871,1584 L 871,1580 L 871,1575 L 870,1570 L 870,1564 L 870,1562 L 871,1558 L 872,1552 L 871,1548 L 872,1546 L 873,1544 L 872,1540 L 873,1539 L 873,1537 L 878,1534 L 882,1530 L 885,1527 L 886,1526 L 888,1523 L 890,1522 L 893,1519 L 895,1515 L 902,1512 L 903,1512 L 903,1511 L 902,1511 L 902,1510 L 901,1510 L 902,1509 L 903,1508 L 903,1507 L 904,1507 L 904,1506 L 903,1506 L 903,1505 L 903,1504 L 903,1503 L 902,1503 L 902,1502 L 902,1501 L 902,1500 L 902,1499 L 902,1498 L 902,1497 L 901,1497 L 901,1496 L 902,1496 L 902,1495 L 903,1495 L 903,1494 L 902,1494 L 902,1493 L 901,1493 L 901,1492 L 901,1491 L 900,1490 L 900,1489 L 900,1488 L 900,1487 L 901,1487 L 902,1487 L 903,1488 L 904,1487 L 905,1487 L 905,1488 L 906,1487 L 907,1487 L 907,1488 L 908,1488 L 909,1488 L 910,1488 L 911,1488 L 911,1489 L 912,1489 L 912,1488 L 913,1488 L 914,1487 L 914,1486 L 914,1485 L 915,1484 L 915,1483 L 916,1482 L 916,1481 L 916,1480 L 915,1479 L 916,1479 L 916,1478 L 916,1477 L 917,1477 L 918,1477 L 919,1477 L 920,1476 L 921,1476 L 921,1475 L 921,1474 L 921,1473 L 921,1472 L 920,1472 L 920,1471 L 919,1471 L 919,1470 L 919,1469 L 919,1468 L 919,1467 L 920,1467 L 920,1466 L 921,1466 L 922,1465 L 923,1465 L 923,1464 L 924,1464 L 924,1463 L 923,1463 L 923,1462 L 922,1462 L 923,1461 L 924,1460 L 924,1459 L 925,1458 L 925,1457 L 926,1457 L 926,1456 L 926,1455 L 927,1455 L 927,1454 L 927,1453 L 927,1452 L 927,1451 L 926,1451 L 925,1451 L 925,1450 L 926,1450 L 926,1449 L 927,1449 L 928,1449 L 930,1448 L 931,1448 L 931,1447 L 932,1447 L 933,1447 L 934,1446 L 935,1445 L 935,1444 L 935,1443 L 935,1442 L 935,1441 L 935,1440 L 935,1439 L 936,1439 L 936,1438 L 936,1437 L 937,1437 L 937,1436 L 938,1436 L 939,1436 L 939,1435 L 940,1435 L 941,1435 L 942,1435 L 942,1434 L 943,1434 L 944,1434 L 945,1433 L 946,1433 L 947,1433 L 947,1434 L 948,1434 L 949,1434 L 949,1435 " /></g>
</svg>
