<?xml version="1.0" standalone="no"?><!DOCTYPE svg PUBLIC "-//W3C//DTD SVG 1.1//EN" "http://www.w3.org/Graphics/SVG/1.1/DTD/svg11.dtd"><svg xmlns="http://www.w3.org/2000/svg" viewBox="1033 1418 284 370" version = "1.1">
<g id="60601" ><path d="M 1125,1418 L 1126,1418 L 1127,1418 L 1128,1418 L 1128,1419 L 1128,1420 L 1128,1421 L 1128,1422 L 1127,1423 L 1127,1424 L 1128,1424 L 1129,1425 L 1130,1425 L 1130,1426 L 1131,1427 L 1131,1428 L 1132,1429 L 1132,1430 L 1133,1430 L 1134,1430 L 1134,1429 L 1135,1429 L 1136,1429 L 1136,1430 L 1137,1430 L 1137,1431 L 1138,1431 L 1139,1431 L 1140,1431 L 1140,1430 L 1140,1429 L 1141,1429 L 1141,1428 L 1142,1427 L 1143,1426 L 1144,1427 L 1145,1427 L 1145,1428 L 1146,1428 L 1147,1429 L 1148,1429 L 1149,1429 L 1150,1429 L 1151,1428 L 1153,1429 L 1154,1430 L 1155,1430 L 1155,1431 L 1156,1431 L 1156,1432 L 1156,1433 L 1157,1433 L 1157,1434 L 1158,1434 L 1159,1434 L 1159,1435 L 1159,1436 L 1160,1436 L 1160,1437 L 1160,1438 L 1160,1439 L 1160,1440 L 1161,1441 L 1162,1441 L 1163,1441 L 1164,1441 L 1165,1441 L 1166,1441 L 1166,1442 L 1167,1442 L 1168,1442 L 1169,1442 L 1169,1443 L 1171,1443 L 1173,1444 L 1174,1443 L 1174,1442 L 1175,1442 L 1175,1441 L 1176,1441 L 1177,1441 L 1177,1440 L 1177,1439 L 1177,1438 L 1178,1438 L 1179,1438 L 1179,1439 L 1179,1440 L 1179,1441 L 1179,1442 L 1179,1443 L 1178,1444 L 1178,1445 L 1178,1446 L 1178,1447 L 1179,1447 L 1179,1448 L 1180,1449 L 1180,1450 L 1180,1451 L 1179,1452 L 1178,1453 L 1178,1454 L 1178,1455 L 1178,1456 L 1179,1456 L 1180,1457 L 1180,1458 L 1181,1458 L 1182,1458 L 1183,1458 L 1184,1458 L 1185,1457 L 1226,1457 L 1263,1457 L 1265,1457 L 1274,1457 L 1277,1457 L 1311,1457 L 1317,1457 L 1315,1465 L 1315,1469 L 1312,1481 L 1308,1491 L 1308,1495 L 1308,1497 L 1308,1498 L 1307,1499 L 1307,1500 L 1307,1501 L 1306,1502 L 1306,1503 L 1305,1507 L 1305,1509 L 1305,1511 L 1304,1512 L 1304,1513 L 1304,1514 L 1303,1517 L 1303,1519 L 1301,1523 L 1300,1528 L 1299,1530 L 1299,1531 L 1299,1532 L 1299,1533 L 1299,1534 L 1298,1535 L 1297,1537 L 1296,1538 L 1297,1538 L 1297,1539 L 1297,1540 L 1297,1541 L 1297,1542 L 1297,1543 L 1296,1543 L 1296,1544 L 1296,1545 L 1296,1546 L 1295,1546 L 1295,1547 L 1295,1548 L 1294,1549 L 1294,1550 L 1295,1550 L 1294,1552 L 1295,1553 L 1294,1554 L 1293,1554 L 1292,1558 L 1291,1562 L 1291,1565 L 1290,1565 L 1289,1567 L 1288,1569 L 1288,1570 L 1288,1571 L 1287,1571 L 1287,1572 L 1287,1573 L 1286,1574 L 1286,1575 L 1286,1576 L 1286,1577 L 1286,1578 L 1285,1579 L 1285,1580 L 1285,1581 L 1285,1582 L 1284,1583 L 1283,1584 L 1283,1585 L 1283,1587 L 1283,1588 L 1282,1589 L 1281,1589 L 1280,1589 L 1279,1589 L 1280,1590 L 1279,1590 L 1278,1590 L 1278,1589 L 1278,1590 L 1277,1590 L 1277,1591 L 1276,1591 L 1275,1591 L 1275,1590 L 1274,1590 L 1274,1589 L 1273,1589 L 1272,1589 L 1272,1588 L 1271,1588 L 1270,1589 L 1270,1588 L 1269,1588 L 1268,1588 L 1267,1588 L 1266,1588 L 1266,1587 L 1265,1587 L 1264,1587 L 1263,1587 L 1263,1586 L 1262,1586 L 1262,1585 L 1261,1585 L 1261,1584 L 1261,1583 L 1260,1583 L 1260,1584 L 1260,1585 L 1259,1585 L 1259,1586 L 1258,1587 L 1259,1587 L 1259,1588 L 1258,1588 L 1258,1589 L 1259,1590 L 1258,1590 L 1258,1591 L 1258,1592 L 1257,1592 L 1257,1593 L 1256,1593 L 1255,1593 L 1255,1594 L 1256,1594 L 1256,1595 L 1255,1596 L 1254,1596 L 1254,1597 L 1254,1598 L 1254,1599 L 1254,1600 L 1254,1601 L 1254,1602 L 1254,1603 L 1253,1603 L 1253,1604 L 1254,1604 L 1254,1605 L 1255,1605 L 1255,1606 L 1255,1607 L 1254,1607 L 1254,1606 L 1254,1607 L 1254,1608 L 1255,1608 L 1254,1608 L 1254,1609 L 1254,1610 L 1253,1610 L 1253,1611 L 1253,1612 L 1253,1613 L 1252,1613 L 1253,1613 L 1253,1614 L 1253,1615 L 1252,1615 L 1252,1616 L 1253,1616 L 1253,1617 L 1254,1617 L 1253,1617 L 1253,1618 L 1253,1619 L 1253,1620 L 1253,1621 L 1254,1621 L 1253,1621 L 1253,1622 L 1254,1622 L 1253,1622 L 1253,1623 L 1254,1623 L 1254,1624 L 1254,1625 L 1254,1626 L 1253,1626 L 1253,1627 L 1252,1627 L 1252,1628 L 1251,1629 L 1250,1629 L 1249,1629 L 1249,1628 L 1248,1628 L 1247,1628 L 1247,1629 L 1246,1629 L 1246,1630 L 1245,1631 L 1244,1630 L 1243,1630 L 1242,1629 L 1241,1629 L 1240,1629 L 1239,1629 L 1238,1629 L 1237,1629 L 1236,1629 L 1235,1630 L 1234,1630 L 1233,1630 L 1233,1631 L 1232,1631 L 1231,1631 L 1230,1631 L 1229,1631 L 1228,1631 L 1228,1632 L 1227,1632 L 1226,1632 L 1225,1632 L 1224,1632 L 1223,1632 L 1222,1632 L 1222,1631 L 1222,1632 L 1222,1631 L 1221,1631 L 1220,1631 L 1219,1631 L 1218,1631 L 1218,1630 L 1217,1630 L 1216,1630 L 1215,1630 L 1214,1630 L 1214,1631 L 1213,1631 L 1212,1631 L 1211,1631 L 1210,1631 L 1210,1632 L 1210,1631 L 1209,1631 L 1208,1631 L 1207,1631 L 1204,1629 L 1202,1629 L 1201,1631 L 1200,1633 L 1199,1633 L 1199,1634 L 1199,1636 L 1198,1638 L 1199,1640 L 1199,1643 L 1198,1645 L 1199,1646 L 1200,1648 L 1201,1650 L 1199,1651 L 1197,1651 L 1196,1655 L 1196,1658 L 1195,1661 L 1195,1668 L 1192,1671 L 1192,1674 L 1191,1677 L 1189,1679 L 1187,1687 L 1185,1694 L 1183,1700 L 1180,1703 L 1179,1706 L 1182,1712 L 1179,1723 L 1178,1731 L 1176,1737 L 1175,1743 L 1175,1746 L 1175,1756 L 1174,1762 L 1170,1769 L 1164,1776 L 1161,1777 L 1157,1778 L 1155,1778 L 1154,1778 L 1152,1778 L 1151,1778 L 1151,1777 L 1151,1776 L 1150,1775 L 1149,1774 L 1148,1775 L 1147,1775 L 1147,1776 L 1146,1776 L 1146,1777 L 1145,1777 L 1144,1778 L 1143,1779 L 1142,1780 L 1142,1781 L 1140,1782 L 1140,1783 L 1139,1784 L 1138,1785 L 1137,1785 L 1137,1786 L 1136,1786 L 1136,1787 L 1136,1788 L 1135,1788 L 1134,1788 L 1133,1788 L 1132,1788 L 1131,1788 L 1130,1788 L 1129,1788 L 1129,1787 L 1128,1786 L 1127,1786 L 1126,1785 L 1125,1785 L 1125,1784 L 1124,1784 L 1124,1783 L 1123,1783 L 1123,1782 L 1122,1781 L 1121,1780 L 1120,1780 L 1119,1780 L 1118,1780 L 1117,1780 L 1116,1780 L 1115,1781 L 1114,1781 L 1114,1780 L 1113,1780 L 1113,1779 L 1112,1779 L 1112,1777 L 1111,1776 L 1110,1776 L 1110,1777 L 1109,1776 L 1108,1776 L 1107,1776 L 1107,1777 L 1106,1777 L 1105,1777 L 1103,1778 L 1102,1778 L 1099,1779 L 1097,1778 L 1096,1779 L 1094,1779 L 1092,1779 L 1088,1778 L 1086,1778 L 1085,1779 L 1085,1778 L 1084,1778 L 1083,1778 L 1082,1778 L 1082,1779 L 1081,1778 L 1080,1778 L 1080,1777 L 1080,1776 L 1081,1776 L 1081,1775 L 1080,1775 L 1079,1775 L 1078,1775 L 1078,1774 L 1077,1774 L 1076,1775 L 1075,1774 L 1074,1774 L 1074,1775 L 1073,1775 L 1072,1776 L 1071,1776 L 1070,1776 L 1069,1776 L 1069,1777 L 1069,1776 L 1069,1775 L 1069,1774 L 1069,1773 L 1068,1773 L 1067,1773 L 1066,1773 L 1066,1772 L 1066,1771 L 1065,1771 L 1065,1770 L 1065,1769 L 1064,1769 L 1063,1768 L 1064,1768 L 1063,1767 L 1063,1766 L 1062,1766 L 1062,1765 L 1062,1764 L 1061,1763 L 1060,1763 L 1060,1762 L 1060,1761 L 1060,1760 L 1060,1759 L 1060,1758 L 1060,1757 L 1060,1756 L 1061,1756 L 1061,1755 L 1061,1754 L 1061,1753 L 1061,1752 L 1061,1751 L 1061,1750 L 1062,1749 L 1062,1748 L 1061,1748 L 1060,1748 L 1060,1747 L 1060,1746 L 1061,1746 L 1061,1745 L 1060,1744 L 1060,1743 L 1061,1743 L 1062,1743 L 1062,1742 L 1063,1742 L 1063,1741 L 1063,1740 L 1062,1739 L 1063,1739 L 1063,1738 L 1063,1737 L 1062,1737 L 1061,1737 L 1061,1736 L 1061,1735 L 1061,1734 L 1061,1733 L 1061,1732 L 1060,1732 L 1061,1731 L 1062,1731 L 1063,1731 L 1062,1730 L 1062,1729 L 1063,1729 L 1062,1729 L 1062,1728 L 1063,1728 L 1063,1727 L 1063,1726 L 1062,1726 L 1062,1725 L 1063,1725 L 1064,1724 L 1063,1724 L 1063,1723 L 1063,1722 L 1062,1722 L 1062,1721 L 1061,1721 L 1062,1721 L 1061,1720 L 1061,1719 L 1060,1719 L 1060,1718 L 1060,1717 L 1059,1717 L 1059,1716 L 1058,1716 L 1058,1715 L 1058,1714 L 1059,1714 L 1059,1713 L 1059,1712 L 1059,1711 L 1059,1710 L 1059,1709 L 1060,1708 L 1059,1708 L 1059,1707 L 1059,1706 L 1060,1706 L 1060,1705 L 1060,1704 L 1060,1703 L 1061,1703 L 1061,1702 L 1061,1701 L 1062,1701 L 1061,1701 L 1061,1700 L 1062,1700 L 1062,1699 L 1063,1699 L 1063,1698 L 1063,1697 L 1063,1696 L 1064,1696 L 1064,1695 L 1065,1695 L 1065,1694 L 1065,1693 L 1065,1692 L 1064,1692 L 1064,1691 L 1064,1690 L 1064,1689 L 1064,1688 L 1064,1687 L 1064,1686 L 1063,1686 L 1064,1686 L 1064,1685 L 1063,1685 L 1063,1684 L 1063,1683 L 1064,1683 L 1064,1682 L 1064,1681 L 1065,1681 L 1065,1680 L 1065,1679 L 1065,1678 L 1065,1677 L 1065,1676 L 1065,1675 L 1065,1674 L 1065,1673 L 1066,1673 L 1066,1672 L 1066,1671 L 1067,1671 L 1067,1670 L 1067,1669 L 1066,1669 L 1066,1668 L 1065,1667 L 1064,1664 L 1066,1661 L 1068,1658 L 1071,1655 L 1072,1650 L 1070,1642 L 1066,1638 L 1059,1632 L 1058,1630 L 1059,1628 L 1059,1626 L 1059,1625 L 1060,1624 L 1060,1621 L 1059,1618 L 1057,1616 L 1053,1614 L 1052,1609 L 1050,1608 L 1045,1607 L 1043,1612 L 1043,1614 L 1042,1614 L 1042,1613 L 1041,1613 L 1041,1614 L 1040,1614 L 1039,1614 L 1038,1614 L 1038,1613 L 1037,1613 L 1037,1612 L 1037,1611 L 1036,1611 L 1036,1609 L 1036,1606 L 1038,1604 L 1038,1602 L 1039,1599 L 1039,1598 L 1040,1598 L 1041,1598 L 1042,1598 L 1042,1597 L 1043,1597 L 1043,1596 L 1044,1596 L 1045,1596 L 1045,1595 L 1044,1594 L 1044,1593 L 1045,1593 L 1044,1593 L 1045,1593 L 1044,1593 L 1044,1592 L 1045,1592 L 1045,1591 L 1046,1591 L 1046,1590 L 1047,1590 L 1047,1589 L 1048,1589 L 1048,1588 L 1048,1587 L 1048,1586 L 1049,1586 L 1050,1586 L 1051,1586 L 1052,1586 L 1058,1586 L 1062,1579 L 1061,1578 L 1060,1577 L 1060,1574 L 1061,1572 L 1061,1571 L 1061,1569 L 1062,1568 L 1062,1565 L 1064,1565 L 1064,1563 L 1065,1561 L 1064,1562 L 1063,1562 L 1062,1562 L 1062,1563 L 1061,1563 L 1061,1564 L 1060,1564 L 1059,1564 L 1058,1564 L 1057,1564 L 1056,1564 L 1055,1564 L 1054,1564 L 1053,1565 L 1052,1565 L 1051,1565 L 1051,1564 L 1050,1565 L 1049,1565 L 1049,1564 L 1048,1564 L 1048,1565 L 1048,1564 L 1047,1564 L 1047,1565 L 1046,1565 L 1046,1566 L 1045,1566 L 1044,1566 L 1043,1567 L 1042,1567 L 1041,1567 L 1040,1566 L 1039,1566 L 1039,1565 L 1038,1565 L 1038,1564 L 1037,1564 L 1036,1564 L 1036,1563 L 1035,1562 L 1035,1561 L 1034,1561 L 1034,1560 L 1035,1560 L 1035,1558 L 1035,1557 L 1035,1556 L 1035,1555 L 1035,1554 L 1035,1553 L 1034,1553 L 1034,1552 L 1033,1551 L 1034,1551 L 1034,1550 L 1035,1549 L 1035,1548 L 1036,1547 L 1036,1546 L 1037,1545 L 1037,1544 L 1037,1543 L 1037,1542 L 1037,1541 L 1037,1540 L 1036,1539 L 1036,1538 L 1036,1537 L 1037,1537 L 1037,1536 L 1038,1536 L 1039,1536 L 1039,1535 L 1039,1534 L 1039,1533 L 1039,1532 L 1039,1531 L 1039,1530 L 1040,1529 L 1040,1528 L 1039,1527 L 1039,1526 L 1039,1525 L 1039,1524 L 1039,1523 L 1040,1523 L 1040,1522 L 1040,1521 L 1040,1520 L 1040,1519 L 1040,1518 L 1040,1517 L 1040,1516 L 1040,1515 L 1041,1515 L 1041,1514 L 1042,1514 L 1043,1514 L 1044,1513 L 1045,1512 L 1045,1511 L 1045,1510 L 1046,1509 L 1047,1508 L 1047,1507 L 1048,1506 L 1049,1505 L 1050,1505 L 1050,1504 L 1050,1503 L 1050,1502 L 1050,1501 L 1050,1500 L 1050,1499 L 1050,1498 L 1051,1498 L 1052,1498 L 1052,1499 L 1053,1499 L 1053,1500 L 1053,1501 L 1053,1502 L 1054,1502 L 1055,1502 L 1056,1502 L 1056,1503 L 1057,1503 L 1058,1503 L 1058,1504 L 1059,1504 L 1060,1504 L 1061,1504 L 1062,1504 L 1062,1505 L 1062,1504 L 1063,1504 L 1063,1505 L 1064,1505 L 1065,1505 L 1066,1505 L 1067,1505 L 1067,1504 L 1068,1504 L 1068,1503 L 1069,1503 L 1070,1503 L 1070,1504 L 1071,1503 L 1072,1503 L 1072,1502 L 1073,1502 L 1074,1502 L 1075,1502 L 1076,1502 L 1077,1502 L 1078,1502 L 1078,1501 L 1079,1501 L 1080,1501 L 1080,1502 L 1081,1502 L 1082,1502 L 1082,1501 L 1083,1501 L 1084,1501 L 1085,1501 L 1086,1501 L 1087,1501 L 1088,1501 L 1089,1501 L 1089,1502 L 1090,1503 L 1090,1502 L 1091,1502 L 1092,1503 L 1093,1503 L 1094,1503 L 1094,1504 L 1095,1504 L 1096,1504 L 1097,1504 L 1097,1505 L 1098,1505 L 1099,1505 L 1099,1506 L 1100,1506 L 1100,1507 L 1101,1507 L 1102,1507 L 1103,1507 L 1104,1507 L 1105,1507 L 1106,1507 L 1106,1506 L 1107,1506 L 1107,1505 L 1108,1504 L 1109,1504 L 1110,1503 L 1111,1503 L 1112,1503 L 1113,1503 L 1114,1503 L 1114,1502 L 1113,1502 L 1113,1501 L 1114,1500 L 1114,1499 L 1114,1498 L 1114,1497 L 1115,1497 L 1115,1496 L 1115,1495 L 1114,1494 L 1115,1494 L 1115,1493 L 1116,1493 L 1116,1492 L 1116,1491 L 1117,1490 L 1117,1489 L 1117,1488 L 1118,1487 L 1118,1486 L 1117,1486 L 1117,1485 L 1116,1484 L 1116,1483 L 1116,1482 L 1116,1481 L 1115,1480 L 1115,1479 L 1114,1478 L 1114,1477 L 1114,1476 L 1115,1476 L 1116,1475 L 1116,1474 L 1116,1473 L 1116,1472 L 1116,1471 L 1115,1471 L 1115,1470 L 1114,1470 L 1114,1469 L 1114,1468 L 1114,1467 L 1115,1467 L 1116,1467 L 1117,1467 L 1118,1467 L 1119,1467 L 1120,1467 L 1120,1466 L 1121,1466 L 1121,1465 L 1120,1465 L 1120,1464 L 1120,1463 L 1120,1462 L 1119,1461 L 1118,1460 L 1117,1460 L 1116,1460 L 1116,1459 L 1116,1458 L 1117,1458 L 1117,1457 L 1118,1458 L 1119,1457 L 1119,1456 L 1119,1455 L 1120,1454 L 1120,1453 L 1119,1453 L 1119,1452 L 1118,1452 L 1117,1452 L 1117,1451 L 1117,1450 L 1117,1449 L 1118,1449 L 1118,1448 L 1117,1448 L 1117,1447 L 1117,1446 L 1117,1445 L 1118,1445 L 1119,1445 L 1120,1445 L 1120,1444 L 1121,1443 L 1120,1443 L 1120,1442 L 1120,1441 L 1119,1441 L 1118,1442 L 1117,1442 L 1116,1442 L 1116,1443 L 1115,1443 L 1115,1442 L 1115,1441 L 1116,1441 L 1117,1441 L 1117,1440 L 1118,1440 L 1118,1439 L 1118,1438 L 1118,1437 L 1119,1437 L 1120,1437 L 1120,1436 L 1120,1435 L 1119,1435 L 1119,1434 L 1118,1434 L 1118,1433 L 1119,1432 L 1119,1431 L 1120,1431 L 1120,1430 L 1120,1429 L 1120,1428 L 1120,1427 L 1120,1426 L 1120,1425 L 1121,1425 L 1122,1424 L 1122,1423 L 1123,1422 L 1122,1422 L 1122,1421 L 1121,1421 L 1121,1420 L 1121,1419 L 1121,1418 L 1122,1418 L 1123,1418 L 1124,1418 L 1125,1418 " /></g>
</svg>
