<?xml version="1.0" standalone="no"?><!DOCTYPE svg PUBLIC "-//W3C//DTD SVG 1.1//EN" "http://www.w3.org/Graphics/SVG/1.1/DTD/svg11.dtd"><svg xmlns="http://www.w3.org/2000/svg" viewBox="1352 393 174 147" version = "1.1">
<g id="70104" ><path d="M 1435,394 L 1436,394 L 1437,395 L 1438,396 L 1440,398 L 1441,399 L 1441,401 L 1441,402 L 1441,404 L 1441,405 L 1441,406 L 1441,407 L 1443,407 L 1444,407 L 1445,408 L 1446,408 L 1447,409 L 1448,410 L 1449,410 L 1450,411 L 1451,411 L 1452,412 L 1453,413 L 1454,414 L 1454,415 L 1455,415 L 1455,416 L 1456,416 L 1457,416 L 1457,417 L 1458,416 L 1458,417 L 1458,418 L 1459,418 L 1459,419 L 1460,419 L 1461,420 L 1462,420 L 1463,421 L 1464,422 L 1465,422 L 1466,422 L 1467,422 L 1467,421 L 1468,422 L 1469,422 L 1469,423 L 1470,423 L 1471,424 L 1472,425 L 1473,425 L 1474,425 L 1475,426 L 1476,426 L 1477,426 L 1477,427 L 1478,427 L 1479,427 L 1480,427 L 1480,428 L 1481,428 L 1482,427 L 1482,428 L 1483,428 L 1484,428 L 1484,429 L 1485,430 L 1486,430 L 1487,431 L 1488,431 L 1489,432 L 1490,432 L 1491,432 L 1491,431 L 1492,431 L 1493,431 L 1494,431 L 1495,432 L 1496,432 L 1496,433 L 1497,433 L 1497,434 L 1498,434 L 1498,435 L 1499,434 L 1499,435 L 1499,436 L 1500,436 L 1501,436 L 1500,437 L 1501,437 L 1503,437 L 1503,438 L 1503,439 L 1504,439 L 1505,439 L 1505,440 L 1506,440 L 1507,440 L 1507,441 L 1506,441 L 1507,441 L 1508,441 L 1509,441 L 1510,441 L 1511,441 L 1512,441 L 1511,441 L 1511,442 L 1512,442 L 1513,443 L 1514,443 L 1514,442 L 1515,442 L 1516,442 L 1517,442 L 1518,442 L 1519,442 L 1519,443 L 1519,444 L 1520,444 L 1520,443 L 1521,445 L 1521,446 L 1521,447 L 1522,448 L 1522,449 L 1522,450 L 1523,451 L 1523,452 L 1523,453 L 1523,454 L 1524,455 L 1525,456 L 1525,457 L 1526,457 L 1488,458 L 1487,455 L 1484,458 L 1460,459 L 1459,473 L 1467,473 L 1467,486 L 1472,486 L 1473,507 L 1452,507 L 1452,509 L 1453,510 L 1453,511 L 1453,512 L 1453,513 L 1453,515 L 1453,517 L 1453,519 L 1452,522 L 1453,525 L 1453,526 L 1453,529 L 1453,532 L 1453,534 L 1453,535 L 1452,535 L 1452,536 L 1451,536 L 1450,536 L 1449,536 L 1449,537 L 1448,537 L 1448,536 L 1447,535 L 1447,534 L 1446,534 L 1446,535 L 1445,535 L 1445,534 L 1444,534 L 1443,534 L 1442,534 L 1442,535 L 1441,535 L 1440,535 L 1440,534 L 1439,533 L 1440,533 L 1439,533 L 1438,533 L 1438,532 L 1437,532 L 1436,532 L 1436,531 L 1436,530 L 1435,530 L 1434,530 L 1434,529 L 1433,529 L 1432,529 L 1432,530 L 1431,530 L 1430,530 L 1430,529 L 1429,529 L 1428,529 L 1427,529 L 1426,529 L 1425,529 L 1424,529 L 1424,528 L 1423,528 L 1423,527 L 1422,527 L 1422,526 L 1421,526 L 1420,526 L 1420,527 L 1419,528 L 1419,529 L 1418,529 L 1418,530 L 1418,531 L 1417,531 L 1416,532 L 1415,533 L 1414,533 L 1413,533 L 1412,533 L 1411,533 L 1410,533 L 1410,534 L 1409,533 L 1408,534 L 1408,533 L 1407,532 L 1406,531 L 1406,530 L 1405,530 L 1404,530 L 1403,530 L 1402,530 L 1401,530 L 1400,530 L 1400,529 L 1399,529 L 1399,528 L 1398,528 L 1397,527 L 1396,527 L 1395,527 L 1394,527 L 1393,527 L 1392,528 L 1391,528 L 1390,528 L 1389,529 L 1388,529 L 1387,530 L 1386,531 L 1385,531 L 1385,532 L 1384,532 L 1384,533 L 1383,533 L 1382,533 L 1381,533 L 1381,534 L 1380,534 L 1379,534 L 1378,535 L 1377,535 L 1377,536 L 1376,536 L 1376,537 L 1375,537 L 1374,537 L 1374,538 L 1373,538 L 1373,537 L 1372,537 L 1371,538 L 1370,538 L 1369,538 L 1369,539 L 1368,539 L 1367,539 L 1367,540 L 1366,540 L 1365,540 L 1364,540 L 1363,540 L 1362,540 L 1360,539 L 1359,539 L 1358,539 L 1357,539 L 1356,539 L 1355,539 L 1354,539 L 1353,539 L 1352,538 L 1353,537 L 1354,535 L 1355,535 L 1356,534 L 1357,534 L 1358,534 L 1358,533 L 1359,533 L 1358,532 L 1359,531 L 1360,531 L 1361,531 L 1362,530 L 1363,530 L 1364,529 L 1365,529 L 1365,528 L 1366,528 L 1367,527 L 1367,526 L 1368,526 L 1368,525 L 1369,525 L 1370,524 L 1370,523 L 1371,523 L 1372,523 L 1372,522 L 1373,522 L 1374,522 L 1375,522 L 1376,522 L 1376,523 L 1377,523 L 1377,524 L 1378,524 L 1378,525 L 1378,524 L 1378,523 L 1379,523 L 1380,524 L 1380,523 L 1381,523 L 1382,523 L 1383,523 L 1384,523 L 1383,522 L 1383,521 L 1384,520 L 1385,520 L 1385,519 L 1386,519 L 1386,518 L 1387,518 L 1387,517 L 1388,517 L 1388,516 L 1387,515 L 1387,514 L 1388,514 L 1389,513 L 1389,514 L 1390,514 L 1390,513 L 1391,513 L 1392,513 L 1393,513 L 1393,512 L 1393,511 L 1394,511 L 1395,511 L 1396,511 L 1397,511 L 1397,510 L 1397,509 L 1398,508 L 1399,508 L 1400,508 L 1400,507 L 1401,507 L 1402,507 L 1402,506 L 1403,506 L 1403,505 L 1403,504 L 1404,504 L 1404,502 L 1403,502 L 1403,501 L 1403,500 L 1402,500 L 1402,499 L 1401,499 L 1400,499 L 1400,498 L 1399,498 L 1400,497 L 1400,496 L 1399,495 L 1398,494 L 1397,493 L 1397,492 L 1397,491 L 1398,491 L 1398,490 L 1399,490 L 1399,489 L 1400,489 L 1401,489 L 1401,488 L 1402,488 L 1402,487 L 1403,487 L 1403,486 L 1404,486 L 1404,485 L 1405,485 L 1406,485 L 1406,486 L 1407,486 L 1407,485 L 1408,485 L 1409,485 L 1410,485 L 1410,484 L 1411,484 L 1412,484 L 1413,484 L 1414,484 L 1415,484 L 1416,484 L 1417,484 L 1418,484 L 1418,483 L 1417,482 L 1417,481 L 1417,480 L 1417,479 L 1417,478 L 1416,478 L 1416,477 L 1416,476 L 1416,475 L 1417,474 L 1418,473 L 1418,472 L 1418,471 L 1418,470 L 1419,469 L 1419,468 L 1419,467 L 1419,466 L 1419,465 L 1420,465 L 1420,464 L 1421,464 L 1422,464 L 1423,463 L 1424,463 L 1425,463 L 1425,462 L 1426,462 L 1426,461 L 1426,460 L 1425,460 L 1424,459 L 1423,459 L 1423,458 L 1422,458 L 1423,458 L 1423,457 L 1423,456 L 1422,456 L 1421,455 L 1420,455 L 1419,455 L 1417,455 L 1416,454 L 1416,455 L 1416,456 L 1415,458 L 1414,458 L 1412,457 L 1411,456 L 1410,456 L 1410,455 L 1409,455 L 1408,454 L 1408,453 L 1406,454 L 1405,455 L 1404,455 L 1404,456 L 1403,456 L 1402,456 L 1402,455 L 1402,454 L 1401,454 L 1401,453 L 1401,452 L 1401,451 L 1401,450 L 1401,449 L 1401,448 L 1401,447 L 1400,447 L 1399,446 L 1399,444 L 1398,442 L 1399,441 L 1399,439 L 1399,438 L 1398,438 L 1398,437 L 1398,436 L 1397,435 L 1396,435 L 1397,435 L 1397,434 L 1398,433 L 1398,432 L 1399,432 L 1398,432 L 1398,431 L 1397,431 L 1396,430 L 1396,429 L 1395,429 L 1395,428 L 1395,427 L 1396,427 L 1396,426 L 1396,425 L 1397,425 L 1398,425 L 1398,424 L 1399,424 L 1399,423 L 1399,422 L 1399,421 L 1399,420 L 1400,420 L 1400,419 L 1400,418 L 1400,417 L 1400,416 L 1401,416 L 1401,415 L 1401,414 L 1401,413 L 1401,412 L 1401,411 L 1402,411 L 1402,410 L 1403,410 L 1404,410 L 1405,409 L 1406,408 L 1407,408 L 1408,407 L 1409,407 L 1410,407 L 1411,407 L 1412,407 L 1413,407 L 1414,407 L 1414,408 L 1415,408 L 1415,409 L 1416,409 L 1417,409 L 1417,408 L 1418,408 L 1419,407 L 1420,407 L 1420,406 L 1421,405 L 1421,404 L 1421,403 L 1421,402 L 1421,401 L 1421,400 L 1420,400 L 1420,399 L 1421,398 L 1422,398 L 1423,398 L 1424,397 L 1425,397 L 1426,396 L 1426,395 L 1427,394 L 1428,394 L 1429,394 L 1430,394 L 1431,394 L 1432,393 L 1433,393 L 1434,393 L 1435,394 " /></g>
</svg>
