<?xml version="1.0" standalone="no"?><!DOCTYPE svg PUBLIC "-//W3C//DTD SVG 1.1//EN" "http://www.w3.org/Graphics/SVG/1.1/DTD/svg11.dtd"><svg xmlns="http://www.w3.org/2000/svg" viewBox="1421 292 175 166" version = "1.1">
<g id="70101" ><path d="M 1596,308 L 1595,310 L 1595,313 L 1594,315 L 1592,317 L 1591,318 L 1590,321 L 1590,323 L 1589,324 L 1588,325 L 1587,327 L 1587,328 L 1587,330 L 1588,331 L 1588,332 L 1589,333 L 1590,335 L 1592,336 L 1575,337 L 1558,337 L 1517,337 L 1499,337 L 1499,394 L 1506,397 L 1508,398 L 1510,398 L 1511,398 L 1513,398 L 1514,398 L 1515,398 L 1516,398 L 1518,398 L 1519,398 L 1522,398 L 1523,397 L 1524,397 L 1525,396 L 1526,396 L 1527,395 L 1528,395 L 1529,395 L 1530,396 L 1531,396 L 1532,396 L 1533,396 L 1534,396 L 1535,396 L 1536,396 L 1536,395 L 1537,395 L 1538,395 L 1538,396 L 1539,396 L 1539,397 L 1539,398 L 1540,398 L 1540,399 L 1541,399 L 1542,400 L 1543,400 L 1544,400 L 1545,400 L 1546,400 L 1547,400 L 1547,401 L 1547,400 L 1547,401 L 1548,400 L 1549,400 L 1549,401 L 1550,401 L 1551,400 L 1552,400 L 1553,400 L 1553,401 L 1554,401 L 1554,400 L 1555,400 L 1556,400 L 1557,400 L 1557,399 L 1558,399 L 1559,399 L 1559,400 L 1560,400 L 1560,399 L 1561,398 L 1561,399 L 1562,399 L 1563,399 L 1564,399 L 1565,399 L 1565,398 L 1566,398 L 1567,398 L 1568,398 L 1569,398 L 1569,397 L 1570,397 L 1571,397 L 1571,396 L 1572,396 L 1572,395 L 1573,394 L 1573,395 L 1574,395 L 1575,395 L 1575,396 L 1576,396 L 1576,397 L 1577,397 L 1578,396 L 1578,395 L 1579,395 L 1578,395 L 1579,395 L 1579,394 L 1580,394 L 1580,393 L 1581,393 L 1582,393 L 1582,394 L 1583,394 L 1584,394 L 1585,394 L 1586,394 L 1587,394 L 1587,393 L 1588,393 L 1589,393 L 1590,393 L 1590,392 L 1591,392 L 1592,392 L 1593,392 L 1595,393 L 1594,393 L 1593,395 L 1592,396 L 1591,398 L 1590,399 L 1590,401 L 1590,403 L 1590,404 L 1590,405 L 1590,406 L 1590,407 L 1589,408 L 1588,409 L 1587,409 L 1586,409 L 1584,410 L 1583,411 L 1583,413 L 1582,414 L 1581,418 L 1580,419 L 1580,421 L 1581,421 L 1582,422 L 1583,422 L 1584,423 L 1585,424 L 1586,425 L 1586,426 L 1586,427 L 1587,429 L 1587,431 L 1588,432 L 1589,433 L 1590,434 L 1590,435 L 1591,436 L 1591,437 L 1591,438 L 1591,439 L 1590,439 L 1589,440 L 1588,441 L 1587,441 L 1586,442 L 1584,442 L 1583,442 L 1582,442 L 1581,443 L 1580,444 L 1580,446 L 1580,447 L 1580,449 L 1580,451 L 1580,452 L 1581,455 L 1576,458 L 1554,458 L 1554,457 L 1526,457 L 1525,457 L 1525,456 L 1524,455 L 1523,454 L 1523,453 L 1523,452 L 1523,451 L 1522,450 L 1522,449 L 1522,448 L 1521,447 L 1521,446 L 1521,445 L 1520,443 L 1520,444 L 1519,444 L 1519,443 L 1519,442 L 1518,442 L 1517,442 L 1516,442 L 1515,442 L 1514,442 L 1514,443 L 1513,443 L 1512,442 L 1511,442 L 1511,441 L 1512,441 L 1511,441 L 1510,441 L 1509,441 L 1508,441 L 1507,441 L 1506,441 L 1507,441 L 1507,440 L 1506,440 L 1505,440 L 1505,439 L 1504,439 L 1503,439 L 1503,438 L 1503,437 L 1501,437 L 1500,437 L 1501,436 L 1500,436 L 1499,436 L 1499,435 L 1499,434 L 1498,435 L 1498,434 L 1497,434 L 1497,433 L 1496,433 L 1496,432 L 1495,432 L 1494,431 L 1493,431 L 1492,431 L 1491,431 L 1491,432 L 1490,432 L 1489,432 L 1488,431 L 1487,431 L 1486,430 L 1485,430 L 1484,429 L 1484,428 L 1483,428 L 1482,428 L 1482,427 L 1481,428 L 1480,428 L 1480,427 L 1479,427 L 1478,427 L 1477,427 L 1477,426 L 1476,426 L 1475,426 L 1474,425 L 1473,425 L 1472,425 L 1471,424 L 1470,423 L 1469,423 L 1469,422 L 1468,422 L 1467,421 L 1467,422 L 1466,422 L 1465,422 L 1464,422 L 1463,421 L 1462,420 L 1461,420 L 1460,419 L 1459,419 L 1459,418 L 1458,418 L 1458,417 L 1458,416 L 1457,417 L 1457,416 L 1456,416 L 1455,416 L 1455,415 L 1454,415 L 1454,414 L 1453,413 L 1452,412 L 1451,411 L 1450,411 L 1449,410 L 1448,410 L 1447,409 L 1446,408 L 1445,408 L 1444,407 L 1443,407 L 1441,407 L 1441,406 L 1441,405 L 1441,404 L 1441,402 L 1441,401 L 1441,399 L 1440,398 L 1438,396 L 1437,395 L 1436,394 L 1435,394 L 1434,393 L 1433,393 L 1432,393 L 1431,394 L 1430,394 L 1429,394 L 1428,394 L 1427,394 L 1426,395 L 1426,396 L 1425,397 L 1424,397 L 1423,398 L 1422,398 L 1421,398 L 1421,397 L 1421,396 L 1422,396 L 1422,395 L 1422,394 L 1423,394 L 1423,393 L 1424,393 L 1424,392 L 1425,391 L 1425,390 L 1426,390 L 1426,389 L 1427,389 L 1427,388 L 1428,388 L 1429,388 L 1429,387 L 1430,387 L 1431,387 L 1432,387 L 1432,386 L 1433,386 L 1433,385 L 1434,385 L 1434,384 L 1436,383 L 1437,383 L 1437,382 L 1438,382 L 1438,381 L 1439,381 L 1439,380 L 1439,379 L 1440,379 L 1440,378 L 1441,377 L 1441,376 L 1441,375 L 1441,374 L 1442,373 L 1443,372 L 1444,371 L 1445,370 L 1446,370 L 1446,369 L 1446,368 L 1446,367 L 1446,366 L 1446,365 L 1446,364 L 1446,363 L 1446,362 L 1447,362 L 1447,361 L 1447,360 L 1448,359 L 1448,358 L 1449,357 L 1449,356 L 1449,355 L 1450,354 L 1450,353 L 1450,352 L 1450,351 L 1451,351 L 1451,350 L 1450,350 L 1450,349 L 1450,348 L 1450,347 L 1449,346 L 1449,345 L 1448,344 L 1448,343 L 1448,342 L 1447,342 L 1447,341 L 1447,340 L 1447,339 L 1448,338 L 1449,337 L 1450,337 L 1450,336 L 1451,336 L 1451,335 L 1451,334 L 1451,333 L 1451,332 L 1451,331 L 1451,330 L 1451,328 L 1451,327 L 1450,326 L 1450,325 L 1450,324 L 1450,323 L 1449,322 L 1449,321 L 1449,320 L 1449,319 L 1450,319 L 1450,317 L 1451,316 L 1450,315 L 1450,313 L 1451,313 L 1452,314 L 1452,315 L 1452,317 L 1452,318 L 1454,319 L 1454,320 L 1454,321 L 1453,321 L 1453,322 L 1454,323 L 1454,324 L 1455,324 L 1456,324 L 1457,324 L 1457,325 L 1458,325 L 1459,325 L 1460,326 L 1461,327 L 1461,328 L 1461,329 L 1462,330 L 1463,330 L 1464,330 L 1464,337 L 1464,340 L 1469,339 L 1485,338 L 1486,337 L 1488,335 L 1488,334 L 1488,333 L 1490,333 L 1492,333 L 1492,332 L 1493,332 L 1494,332 L 1495,332 L 1496,332 L 1496,331 L 1497,331 L 1498,330 L 1499,330 L 1499,329 L 1499,328 L 1500,328 L 1500,327 L 1500,326 L 1500,325 L 1502,325 L 1506,324 L 1509,323 L 1513,323 L 1515,323 L 1516,323 L 1522,319 L 1523,317 L 1527,315 L 1531,314 L 1545,309 L 1547,309 L 1549,309 L 1553,307 L 1557,304 L 1567,295 L 1570,294 L 1574,294 L 1587,292 L 1587,293 L 1587,294 L 1587,295 L 1588,296 L 1589,297 L 1590,297 L 1591,298 L 1592,299 L 1593,299 L 1594,300 L 1595,300 L 1595,301 L 1596,302 L 1596,304 L 1596,306 L 1596,308 " /></g>
</svg>
