<?xml version="1.0" standalone="no"?><!DOCTYPE svg PUBLIC "-//W3C//DTD SVG 1.1//EN" "http://www.w3.org/Graphics/SVG/1.1/DTD/svg11.dtd"><svg xmlns="http://www.w3.org/2000/svg" viewBox="1300 385 126 158" version = "1.1">
<g id="70105" ><path d="M 1322,468 L 1321,462 L 1317,460 L 1312,457 L 1310,455 L 1310,454 L 1310,453 L 1310,452 L 1310,451 L 1311,451 L 1310,451 L 1310,450 L 1310,449 L 1310,448 L 1310,447 L 1310,446 L 1310,445 L 1310,444 L 1310,443 L 1309,443 L 1309,442 L 1308,442 L 1308,441 L 1308,440 L 1308,439 L 1308,438 L 1308,437 L 1308,436 L 1308,435 L 1307,435 L 1307,434 L 1307,433 L 1306,433 L 1305,433 L 1305,432 L 1304,432 L 1304,431 L 1303,432 L 1302,432 L 1302,433 L 1302,432 L 1301,432 L 1301,431 L 1301,430 L 1300,430 L 1300,429 L 1301,429 L 1302,429 L 1303,429 L 1303,428 L 1304,428 L 1304,427 L 1305,427 L 1305,426 L 1306,426 L 1307,426 L 1309,423 L 1310,423 L 1311,423 L 1311,422 L 1312,422 L 1313,422 L 1313,421 L 1314,421 L 1315,421 L 1315,420 L 1315,419 L 1315,418 L 1315,417 L 1316,417 L 1316,416 L 1317,416 L 1317,415 L 1318,415 L 1319,415 L 1320,415 L 1320,414 L 1321,414 L 1322,414 L 1322,413 L 1323,413 L 1323,412 L 1324,412 L 1325,412 L 1325,411 L 1326,411 L 1327,410 L 1327,409 L 1328,409 L 1328,408 L 1329,408 L 1330,408 L 1330,409 L 1331,409 L 1331,408 L 1332,408 L 1332,407 L 1332,406 L 1333,406 L 1334,406 L 1334,405 L 1334,404 L 1334,403 L 1333,403 L 1333,402 L 1334,402 L 1334,401 L 1333,401 L 1334,401 L 1334,400 L 1335,400 L 1335,399 L 1335,398 L 1336,398 L 1336,397 L 1337,397 L 1337,396 L 1337,395 L 1337,394 L 1338,394 L 1338,393 L 1338,392 L 1337,392 L 1337,391 L 1337,390 L 1337,389 L 1338,389 L 1338,388 L 1339,388 L 1340,387 L 1341,387 L 1342,387 L 1342,386 L 1343,385 L 1346,386 L 1347,388 L 1350,392 L 1354,393 L 1355,394 L 1355,396 L 1355,397 L 1354,397 L 1354,398 L 1355,399 L 1355,400 L 1355,401 L 1355,402 L 1355,403 L 1355,404 L 1355,405 L 1355,406 L 1355,407 L 1355,408 L 1355,409 L 1356,410 L 1356,411 L 1357,412 L 1358,412 L 1358,413 L 1358,414 L 1358,415 L 1358,416 L 1359,417 L 1359,418 L 1359,419 L 1359,420 L 1359,422 L 1359,423 L 1359,424 L 1359,425 L 1359,426 L 1360,427 L 1361,427 L 1362,427 L 1362,428 L 1363,428 L 1363,429 L 1364,429 L 1365,429 L 1366,429 L 1367,429 L 1368,429 L 1369,429 L 1369,430 L 1369,429 L 1370,429 L 1371,430 L 1372,430 L 1373,429 L 1374,429 L 1375,429 L 1375,430 L 1376,432 L 1377,431 L 1378,431 L 1379,431 L 1380,431 L 1382,430 L 1383,430 L 1384,430 L 1385,430 L 1385,429 L 1385,428 L 1386,428 L 1387,428 L 1388,428 L 1389,428 L 1390,428 L 1391,428 L 1392,428 L 1392,427 L 1392,426 L 1393,426 L 1393,427 L 1394,427 L 1395,428 L 1395,429 L 1396,429 L 1396,430 L 1397,431 L 1398,431 L 1398,432 L 1399,432 L 1398,432 L 1398,433 L 1397,434 L 1397,435 L 1396,435 L 1397,435 L 1398,436 L 1398,437 L 1398,438 L 1399,438 L 1399,439 L 1399,441 L 1398,442 L 1399,444 L 1399,446 L 1400,447 L 1401,447 L 1401,448 L 1401,449 L 1401,450 L 1401,451 L 1401,452 L 1401,453 L 1401,454 L 1402,454 L 1402,455 L 1402,456 L 1403,456 L 1404,456 L 1404,455 L 1405,455 L 1406,454 L 1408,453 L 1408,454 L 1409,455 L 1410,455 L 1410,456 L 1411,456 L 1412,457 L 1414,458 L 1415,458 L 1416,456 L 1416,455 L 1416,454 L 1417,455 L 1419,455 L 1420,455 L 1421,455 L 1422,456 L 1423,456 L 1423,457 L 1423,458 L 1422,458 L 1423,458 L 1423,459 L 1424,459 L 1425,460 L 1426,460 L 1426,461 L 1426,462 L 1425,462 L 1425,463 L 1424,463 L 1423,463 L 1422,464 L 1421,464 L 1420,464 L 1420,465 L 1419,465 L 1419,466 L 1419,467 L 1419,468 L 1419,469 L 1418,470 L 1418,471 L 1418,472 L 1418,473 L 1417,474 L 1416,475 L 1416,476 L 1416,477 L 1416,478 L 1417,478 L 1417,479 L 1417,480 L 1417,481 L 1417,482 L 1418,483 L 1418,484 L 1417,484 L 1416,484 L 1415,484 L 1414,484 L 1413,484 L 1412,484 L 1411,484 L 1410,484 L 1410,485 L 1409,485 L 1408,485 L 1407,485 L 1407,486 L 1406,486 L 1406,485 L 1405,485 L 1404,485 L 1404,486 L 1403,486 L 1403,487 L 1402,487 L 1402,488 L 1401,488 L 1401,489 L 1400,489 L 1399,489 L 1399,490 L 1398,490 L 1398,491 L 1397,491 L 1397,492 L 1397,493 L 1398,494 L 1399,495 L 1400,496 L 1400,497 L 1399,498 L 1400,498 L 1400,499 L 1401,499 L 1402,499 L 1402,500 L 1403,500 L 1403,501 L 1403,502 L 1404,502 L 1404,504 L 1403,504 L 1403,505 L 1403,506 L 1402,506 L 1402,507 L 1401,507 L 1400,507 L 1400,508 L 1399,508 L 1398,508 L 1397,509 L 1397,510 L 1397,511 L 1396,511 L 1395,511 L 1394,511 L 1393,511 L 1393,512 L 1393,513 L 1392,513 L 1391,513 L 1390,513 L 1390,514 L 1389,514 L 1389,513 L 1388,514 L 1387,514 L 1387,515 L 1388,516 L 1388,517 L 1387,517 L 1387,518 L 1386,518 L 1386,519 L 1385,519 L 1385,520 L 1384,520 L 1383,521 L 1383,522 L 1384,523 L 1383,523 L 1382,523 L 1381,523 L 1380,523 L 1380,524 L 1379,523 L 1378,523 L 1378,524 L 1378,525 L 1378,524 L 1377,524 L 1377,523 L 1376,523 L 1376,522 L 1375,522 L 1374,522 L 1373,522 L 1372,522 L 1372,523 L 1371,523 L 1370,523 L 1370,524 L 1369,525 L 1368,525 L 1368,526 L 1367,526 L 1367,527 L 1366,528 L 1365,528 L 1365,529 L 1364,529 L 1363,530 L 1362,530 L 1361,531 L 1360,531 L 1359,531 L 1358,532 L 1359,533 L 1358,533 L 1358,534 L 1357,534 L 1356,534 L 1355,535 L 1354,535 L 1353,537 L 1352,538 L 1344,543 L 1339,533 L 1338,525 L 1337,521 L 1337,517 L 1342,510 L 1333,502 L 1331,496 L 1329,495 L 1328,496 L 1326,491 L 1326,487 L 1325,486 L 1325,484 L 1324,483 L 1325,480 L 1325,478 L 1324,477 L 1324,475 L 1323,471 L 1323,470 L 1322,468 " /></g>
</svg>
