<?xml version="1.0" standalone="no"?><!DOCTYPE svg PUBLIC "-//W3C//DTD SVG 1.1//EN" "http://www.w3.org/Graphics/SVG/1.1/DTD/svg11.dtd"><svg xmlns="http://www.w3.org/2000/svg" viewBox="1340 302 111 130" version = "1.1">
<g id="70103" ><path d="M 1373,302 L 1374,302 L 1374,303 L 1375,303 L 1376,303 L 1377,303 L 1378,302 L 1379,302 L 1380,302 L 1381,302 L 1381,303 L 1382,304 L 1382,303 L 1383,303 L 1384,304 L 1387,303 L 1387,304 L 1387,305 L 1388,305 L 1389,305 L 1390,305 L 1391,305 L 1392,305 L 1394,306 L 1394,307 L 1395,308 L 1395,309 L 1395,310 L 1395,311 L 1395,312 L 1397,314 L 1397,315 L 1398,316 L 1398,317 L 1398,318 L 1398,320 L 1398,321 L 1398,322 L 1397,323 L 1406,326 L 1406,325 L 1407,325 L 1407,324 L 1407,323 L 1406,323 L 1406,322 L 1405,322 L 1405,321 L 1405,320 L 1405,319 L 1406,319 L 1407,319 L 1407,320 L 1408,320 L 1408,319 L 1409,319 L 1410,319 L 1410,318 L 1410,319 L 1411,319 L 1411,320 L 1412,320 L 1412,321 L 1413,321 L 1413,322 L 1413,321 L 1413,322 L 1414,322 L 1415,323 L 1415,322 L 1416,322 L 1416,323 L 1416,324 L 1416,325 L 1417,326 L 1418,326 L 1425,323 L 1427,322 L 1428,321 L 1428,320 L 1429,320 L 1429,319 L 1430,319 L 1429,319 L 1430,319 L 1430,318 L 1430,319 L 1430,318 L 1431,318 L 1431,317 L 1432,317 L 1434,316 L 1437,318 L 1445,320 L 1448,319 L 1450,319 L 1449,319 L 1449,320 L 1449,321 L 1449,322 L 1450,323 L 1450,324 L 1450,325 L 1450,326 L 1451,327 L 1451,328 L 1451,330 L 1451,331 L 1451,332 L 1451,333 L 1451,334 L 1451,335 L 1451,336 L 1450,336 L 1450,337 L 1449,337 L 1448,338 L 1447,339 L 1447,340 L 1447,341 L 1447,342 L 1448,342 L 1448,343 L 1448,344 L 1449,345 L 1449,346 L 1450,347 L 1450,348 L 1450,349 L 1450,350 L 1451,350 L 1451,351 L 1450,351 L 1450,352 L 1450,353 L 1450,354 L 1449,355 L 1449,356 L 1449,357 L 1448,358 L 1448,359 L 1447,360 L 1447,361 L 1447,362 L 1446,362 L 1446,363 L 1446,364 L 1446,365 L 1446,366 L 1446,367 L 1446,368 L 1446,369 L 1446,370 L 1445,370 L 1444,371 L 1443,372 L 1442,373 L 1441,374 L 1441,375 L 1441,376 L 1441,377 L 1440,378 L 1440,379 L 1439,379 L 1439,380 L 1439,381 L 1438,381 L 1438,382 L 1437,382 L 1437,383 L 1436,383 L 1434,384 L 1434,385 L 1433,385 L 1433,386 L 1432,386 L 1432,387 L 1431,387 L 1430,387 L 1429,387 L 1429,388 L 1428,388 L 1427,388 L 1427,389 L 1426,389 L 1426,390 L 1425,390 L 1425,391 L 1424,392 L 1424,393 L 1423,393 L 1423,394 L 1422,394 L 1422,395 L 1422,396 L 1421,396 L 1421,397 L 1421,398 L 1420,399 L 1420,400 L 1421,400 L 1421,401 L 1421,402 L 1421,403 L 1421,404 L 1421,405 L 1420,406 L 1420,407 L 1419,407 L 1418,408 L 1417,408 L 1417,409 L 1416,409 L 1415,409 L 1415,408 L 1414,408 L 1414,407 L 1413,407 L 1412,407 L 1411,407 L 1410,407 L 1409,407 L 1408,407 L 1407,408 L 1406,408 L 1405,409 L 1404,410 L 1403,410 L 1402,410 L 1402,411 L 1401,411 L 1401,412 L 1401,413 L 1401,414 L 1401,415 L 1401,416 L 1400,416 L 1400,417 L 1400,418 L 1400,419 L 1400,420 L 1399,420 L 1399,421 L 1399,422 L 1399,423 L 1399,424 L 1398,424 L 1398,425 L 1397,425 L 1396,425 L 1396,426 L 1396,427 L 1395,427 L 1395,428 L 1394,427 L 1393,427 L 1393,426 L 1392,426 L 1392,427 L 1392,428 L 1391,428 L 1390,428 L 1389,428 L 1388,428 L 1387,428 L 1386,428 L 1385,428 L 1385,429 L 1385,430 L 1384,430 L 1383,430 L 1382,430 L 1380,431 L 1379,431 L 1378,431 L 1377,431 L 1376,432 L 1375,430 L 1375,429 L 1374,429 L 1373,429 L 1372,430 L 1371,430 L 1370,429 L 1369,429 L 1369,430 L 1369,429 L 1368,429 L 1367,429 L 1366,429 L 1365,429 L 1364,429 L 1363,429 L 1363,428 L 1362,428 L 1362,427 L 1361,427 L 1360,427 L 1359,426 L 1359,425 L 1359,424 L 1359,423 L 1359,422 L 1359,420 L 1359,419 L 1359,418 L 1359,417 L 1358,416 L 1358,415 L 1358,414 L 1358,413 L 1358,412 L 1357,412 L 1356,411 L 1356,410 L 1355,409 L 1355,408 L 1355,407 L 1355,406 L 1355,405 L 1355,404 L 1355,403 L 1355,402 L 1355,401 L 1355,400 L 1355,399 L 1354,398 L 1354,397 L 1355,397 L 1355,396 L 1355,394 L 1354,393 L 1350,392 L 1347,388 L 1346,386 L 1343,385 L 1341,383 L 1340,380 L 1343,373 L 1343,372 L 1343,371 L 1343,370 L 1344,370 L 1344,369 L 1345,367 L 1346,365 L 1346,364 L 1348,362 L 1348,361 L 1349,361 L 1349,360 L 1349,359 L 1351,358 L 1351,357 L 1351,356 L 1352,356 L 1352,355 L 1352,354 L 1353,354 L 1353,353 L 1352,353 L 1353,353 L 1353,352 L 1353,351 L 1353,350 L 1354,350 L 1354,349 L 1353,349 L 1354,349 L 1354,348 L 1354,347 L 1354,346 L 1355,346 L 1355,345 L 1356,345 L 1356,344 L 1357,343 L 1357,344 L 1357,343 L 1358,343 L 1358,342 L 1358,341 L 1359,341 L 1359,340 L 1360,340 L 1359,340 L 1359,339 L 1360,339 L 1360,340 L 1360,339 L 1360,338 L 1361,338 L 1361,337 L 1361,336 L 1361,335 L 1360,335 L 1360,334 L 1361,334 L 1361,333 L 1361,332 L 1362,332 L 1361,332 L 1361,331 L 1361,330 L 1361,329 L 1361,328 L 1361,327 L 1361,326 L 1362,326 L 1363,325 L 1362,325 L 1362,324 L 1362,323 L 1361,323 L 1361,322 L 1362,322 L 1363,322 L 1364,321 L 1365,320 L 1366,320 L 1367,320 L 1368,320 L 1368,319 L 1368,318 L 1367,318 L 1367,317 L 1367,316 L 1367,315 L 1368,315 L 1369,314 L 1370,314 L 1371,314 L 1371,313 L 1370,312 L 1371,311 L 1372,310 L 1372,309 L 1371,308 L 1371,307 L 1371,306 L 1371,305 L 1371,304 L 1371,303 L 1371,302 L 1372,302 L 1373,302 " /></g>
</svg>
