<?xml version="1.0" standalone="no"?><!DOCTYPE svg PUBLIC "-//W3C//DTD SVG 1.1//EN" "http://www.w3.org/Graphics/SVG/1.1/DTD/svg11.dtd"><svg xmlns="http://www.w3.org/2000/svg" viewBox="1499 336 106 65" version = "1.1">
<g id="70102" ><path d="M 1517,337 L 1558,337 L 1575,337 L 1592,336 L 1592,338 L 1593,339 L 1593,341 L 1593,342 L 1592,343 L 1592,344 L 1591,345 L 1590,346 L 1590,347 L 1591,349 L 1592,350 L 1594,351 L 1596,351 L 1598,352 L 1599,353 L 1601,355 L 1602,356 L 1603,358 L 1603,360 L 1603,362 L 1604,363 L 1605,364 L 1605,365 L 1605,366 L 1604,367 L 1604,368 L 1603,369 L 1601,370 L 1600,371 L 1599,372 L 1597,373 L 1596,374 L 1596,375 L 1596,377 L 1597,378 L 1597,379 L 1597,380 L 1598,382 L 1599,383 L 1599,384 L 1598,385 L 1597,386 L 1596,386 L 1596,387 L 1596,388 L 1596,389 L 1596,390 L 1596,391 L 1595,391 L 1595,393 L 1593,392 L 1592,392 L 1591,392 L 1590,392 L 1590,393 L 1589,393 L 1588,393 L 1587,393 L 1587,394 L 1586,394 L 1585,394 L 1584,394 L 1583,394 L 1582,394 L 1582,393 L 1581,393 L 1580,393 L 1580,394 L 1579,394 L 1579,395 L 1578,395 L 1579,395 L 1578,395 L 1578,396 L 1577,397 L 1576,397 L 1576,396 L 1575,396 L 1575,395 L 1574,395 L 1573,395 L 1573,394 L 1572,395 L 1572,396 L 1571,396 L 1571,397 L 1570,397 L 1569,397 L 1569,398 L 1568,398 L 1567,398 L 1566,398 L 1565,398 L 1565,399 L 1564,399 L 1563,399 L 1562,399 L 1561,399 L 1561,398 L 1560,399 L 1560,400 L 1559,400 L 1559,399 L 1558,399 L 1557,399 L 1557,400 L 1556,400 L 1555,400 L 1554,400 L 1554,401 L 1553,401 L 1553,400 L 1552,400 L 1551,400 L 1550,401 L 1549,401 L 1549,400 L 1548,400 L 1547,401 L 1547,400 L 1547,401 L 1547,400 L 1546,400 L 1545,400 L 1544,400 L 1543,400 L 1542,400 L 1541,399 L 1540,399 L 1540,398 L 1539,398 L 1539,397 L 1539,396 L 1538,396 L 1538,395 L 1537,395 L 1536,395 L 1536,396 L 1535,396 L 1534,396 L 1533,396 L 1532,396 L 1531,396 L 1530,396 L 1529,395 L 1528,395 L 1527,395 L 1526,396 L 1525,396 L 1524,397 L 1523,397 L 1522,398 L 1519,398 L 1518,398 L 1516,398 L 1515,398 L 1514,398 L 1513,398 L 1511,398 L 1510,398 L 1508,398 L 1506,397 L 1499,394 L 1499,337 L 1517,337 " /></g>
</svg>
