<?xml version="1.0" standalone="no"?><!DOCTYPE svg PUBLIC "-//W3C//DTD SVG 1.1//EN" "http://www.w3.org/Graphics/SVG/1.1/DTD/svg11.dtd"><svg xmlns="http://www.w3.org/2000/svg" viewBox="1430 126 113 214" version = "1.1">
<g id="70201" ><path d="M 1506,128 L 1507,128 L 1507,129 L 1508,129 L 1508,128 L 1509,128 L 1509,127 L 1510,127 L 1511,127 L 1511,128 L 1511,129 L 1511,130 L 1512,130 L 1512,131 L 1513,131 L 1514,132 L 1515,132 L 1516,132 L 1516,131 L 1517,131 L 1518,131 L 1519,131 L 1520,131 L 1521,131 L 1522,131 L 1505,147 L 1504,147 L 1504,148 L 1504,149 L 1509,157 L 1510,158 L 1511,159 L 1512,159 L 1513,160 L 1514,160 L 1515,161 L 1516,161 L 1517,162 L 1518,162 L 1519,162 L 1519,163 L 1520,163 L 1520,164 L 1521,164 L 1522,164 L 1523,164 L 1524,164 L 1524,165 L 1525,165 L 1525,166 L 1524,166 L 1524,167 L 1525,167 L 1525,168 L 1525,169 L 1524,170 L 1524,171 L 1525,172 L 1525,173 L 1524,174 L 1524,175 L 1524,176 L 1525,176 L 1526,177 L 1526,178 L 1526,179 L 1526,180 L 1527,181 L 1528,181 L 1528,182 L 1528,183 L 1528,184 L 1529,184 L 1529,185 L 1530,185 L 1528,187 L 1528,188 L 1528,189 L 1527,189 L 1527,190 L 1527,191 L 1526,191 L 1526,192 L 1525,193 L 1525,194 L 1524,194 L 1524,195 L 1528,202 L 1529,202 L 1530,202 L 1530,201 L 1531,201 L 1532,201 L 1533,201 L 1534,200 L 1535,201 L 1536,201 L 1537,201 L 1537,202 L 1538,202 L 1538,203 L 1539,202 L 1539,203 L 1539,204 L 1539,205 L 1540,205 L 1539,206 L 1540,206 L 1540,207 L 1539,207 L 1539,208 L 1540,208 L 1540,209 L 1541,209 L 1541,210 L 1540,210 L 1540,211 L 1541,212 L 1541,213 L 1541,214 L 1542,215 L 1542,216 L 1541,216 L 1541,217 L 1542,218 L 1542,219 L 1542,220 L 1542,221 L 1543,221 L 1543,222 L 1543,223 L 1542,224 L 1542,225 L 1543,225 L 1543,226 L 1543,227 L 1543,228 L 1543,229 L 1542,229 L 1542,230 L 1541,230 L 1540,230 L 1540,231 L 1539,231 L 1539,232 L 1539,233 L 1538,233 L 1538,234 L 1538,235 L 1538,236 L 1537,236 L 1537,237 L 1536,237 L 1536,238 L 1535,238 L 1535,239 L 1534,239 L 1534,240 L 1533,240 L 1533,241 L 1533,242 L 1532,242 L 1531,242 L 1531,243 L 1531,244 L 1531,245 L 1531,246 L 1531,247 L 1532,247 L 1532,248 L 1532,249 L 1532,250 L 1532,251 L 1532,252 L 1533,252 L 1533,253 L 1534,253 L 1534,254 L 1534,255 L 1534,256 L 1533,256 L 1533,257 L 1532,257 L 1532,258 L 1533,258 L 1534,258 L 1533,258 L 1533,259 L 1534,259 L 1535,259 L 1536,259 L 1537,259 L 1538,259 L 1538,260 L 1537,260 L 1537,261 L 1537,262 L 1537,263 L 1537,264 L 1537,265 L 1536,265 L 1536,266 L 1535,268 L 1534,271 L 1534,282 L 1534,283 L 1533,290 L 1534,303 L 1534,305 L 1534,306 L 1534,307 L 1534,308 L 1533,309 L 1532,310 L 1532,311 L 1531,312 L 1531,313 L 1531,314 L 1527,315 L 1523,317 L 1522,319 L 1516,323 L 1515,323 L 1513,323 L 1509,323 L 1506,324 L 1502,325 L 1500,325 L 1500,326 L 1500,327 L 1500,328 L 1499,328 L 1499,329 L 1499,330 L 1498,330 L 1497,331 L 1496,331 L 1496,332 L 1495,332 L 1494,332 L 1493,332 L 1492,332 L 1492,333 L 1490,333 L 1488,333 L 1488,334 L 1488,335 L 1486,337 L 1485,338 L 1469,339 L 1464,340 L 1464,337 L 1464,330 L 1463,330 L 1462,330 L 1461,329 L 1461,328 L 1461,327 L 1460,326 L 1459,325 L 1458,325 L 1457,325 L 1457,324 L 1456,324 L 1455,324 L 1454,324 L 1454,323 L 1453,322 L 1453,321 L 1454,321 L 1454,320 L 1454,319 L 1452,318 L 1452,317 L 1452,315 L 1452,314 L 1451,313 L 1450,313 L 1450,312 L 1450,311 L 1450,310 L 1449,310 L 1449,309 L 1448,308 L 1448,307 L 1448,306 L 1448,305 L 1447,305 L 1447,304 L 1447,303 L 1446,303 L 1446,302 L 1446,301 L 1447,301 L 1447,300 L 1446,299 L 1446,298 L 1445,297 L 1445,296 L 1445,295 L 1445,294 L 1446,292 L 1446,291 L 1446,289 L 1446,288 L 1446,287 L 1445,286 L 1445,285 L 1444,283 L 1443,282 L 1443,281 L 1443,279 L 1443,278 L 1443,277 L 1442,277 L 1442,276 L 1441,275 L 1441,274 L 1440,273 L 1439,272 L 1438,272 L 1438,271 L 1438,270 L 1438,269 L 1437,269 L 1437,268 L 1437,267 L 1436,267 L 1436,266 L 1436,265 L 1435,265 L 1434,264 L 1434,263 L 1433,263 L 1432,262 L 1431,262 L 1431,261 L 1430,260 L 1430,259 L 1430,258 L 1430,257 L 1439,252 L 1440,251 L 1439,251 L 1439,250 L 1438,250 L 1438,249 L 1439,249 L 1439,248 L 1438,248 L 1438,247 L 1437,247 L 1436,247 L 1436,246 L 1435,246 L 1435,245 L 1435,244 L 1434,244 L 1434,243 L 1434,242 L 1435,243 L 1436,243 L 1437,243 L 1437,242 L 1438,242 L 1438,241 L 1438,240 L 1439,240 L 1440,240 L 1444,240 L 1448,241 L 1452,243 L 1452,242 L 1453,242 L 1454,241 L 1454,240 L 1453,241 L 1453,240 L 1453,239 L 1453,238 L 1454,237 L 1453,237 L 1453,236 L 1453,235 L 1454,234 L 1454,233 L 1455,233 L 1455,232 L 1458,233 L 1460,233 L 1465,233 L 1465,232 L 1465,231 L 1465,230 L 1465,229 L 1466,229 L 1466,228 L 1466,227 L 1467,227 L 1467,226 L 1468,226 L 1469,226 L 1470,226 L 1470,225 L 1470,224 L 1470,223 L 1469,222 L 1469,221 L 1469,220 L 1469,219 L 1470,219 L 1469,219 L 1469,218 L 1468,218 L 1467,218 L 1466,218 L 1466,217 L 1466,216 L 1467,216 L 1467,215 L 1467,214 L 1467,213 L 1468,213 L 1469,212 L 1470,212 L 1471,212 L 1471,211 L 1472,211 L 1472,210 L 1472,209 L 1473,209 L 1474,209 L 1474,208 L 1473,208 L 1473,207 L 1474,207 L 1474,206 L 1473,206 L 1474,205 L 1474,204 L 1474,203 L 1475,203 L 1475,202 L 1476,202 L 1476,201 L 1476,200 L 1477,199 L 1477,198 L 1478,198 L 1479,197 L 1480,197 L 1481,197 L 1482,196 L 1482,195 L 1483,194 L 1484,194 L 1484,193 L 1485,192 L 1486,192 L 1487,192 L 1488,192 L 1488,191 L 1488,190 L 1488,189 L 1488,188 L 1489,188 L 1489,187 L 1489,186 L 1488,186 L 1488,185 L 1488,184 L 1488,183 L 1488,182 L 1488,181 L 1488,180 L 1489,180 L 1490,180 L 1490,179 L 1491,179 L 1490,179 L 1491,179 L 1491,178 L 1492,178 L 1492,177 L 1492,176 L 1492,175 L 1492,174 L 1492,173 L 1492,172 L 1492,171 L 1492,170 L 1491,170 L 1491,169 L 1492,168 L 1493,167 L 1493,166 L 1493,165 L 1493,164 L 1493,163 L 1493,162 L 1493,161 L 1493,160 L 1494,160 L 1494,159 L 1494,158 L 1495,158 L 1496,158 L 1496,157 L 1496,156 L 1497,156 L 1497,155 L 1498,155 L 1498,154 L 1498,153 L 1498,152 L 1497,152 L 1497,151 L 1496,151 L 1496,150 L 1496,149 L 1496,148 L 1495,148 L 1495,147 L 1494,147 L 1493,147 L 1493,146 L 1492,146 L 1492,145 L 1492,144 L 1492,143 L 1492,142 L 1491,142 L 1491,141 L 1491,140 L 1492,138 L 1493,138 L 1494,137 L 1494,136 L 1495,135 L 1496,134 L 1497,133 L 1498,131 L 1498,130 L 1499,130 L 1500,129 L 1501,128 L 1502,128 L 1503,127 L 1504,126 L 1505,126 L 1506,127 L 1506,128 " /></g>
</svg>
