<?xml version="1.0" standalone="no"?><!DOCTYPE svg PUBLIC "-//W3C//DTD SVG 1.1//EN" "http://www.w3.org/Graphics/SVG/1.1/DTD/svg11.dtd"><svg xmlns="http://www.w3.org/2000/svg" viewBox="1504 131 105 183" version = "1.1">
<g id="70202" ><path d="M 1519,140 L 1520,141 L 1521,141 L 1522,141 L 1523,142 L 1524,143 L 1524,144 L 1525,144 L 1526,145 L 1527,145 L 1528,145 L 1529,145 L 1530,144 L 1532,144 L 1533,144 L 1534,144 L 1535,144 L 1536,144 L 1538,144 L 1539,144 L 1540,144 L 1540,145 L 1541,146 L 1542,148 L 1543,149 L 1543,150 L 1543,151 L 1543,153 L 1544,153 L 1546,153 L 1547,153 L 1548,154 L 1549,155 L 1550,156 L 1551,156 L 1552,155 L 1552,154 L 1553,153 L 1554,152 L 1555,153 L 1556,153 L 1557,154 L 1558,155 L 1558,156 L 1559,156 L 1560,156 L 1561,156 L 1561,157 L 1562,157 L 1562,158 L 1563,158 L 1565,158 L 1566,159 L 1568,159 L 1569,159 L 1570,160 L 1572,160 L 1573,160 L 1575,160 L 1576,160 L 1577,161 L 1578,161 L 1579,162 L 1580,162 L 1581,163 L 1582,164 L 1583,165 L 1583,166 L 1584,167 L 1584,168 L 1584,169 L 1585,169 L 1586,170 L 1587,170 L 1588,170 L 1589,170 L 1589,171 L 1591,172 L 1593,173 L 1594,175 L 1595,176 L 1595,177 L 1597,179 L 1599,179 L 1600,180 L 1602,180 L 1603,180 L 1605,179 L 1606,179 L 1607,181 L 1606,183 L 1605,184 L 1604,184 L 1604,185 L 1603,185 L 1603,187 L 1603,188 L 1604,189 L 1605,190 L 1605,191 L 1606,192 L 1607,193 L 1608,193 L 1609,194 L 1609,195 L 1609,196 L 1608,197 L 1607,199 L 1605,202 L 1604,203 L 1604,205 L 1603,206 L 1603,208 L 1603,209 L 1604,211 L 1604,213 L 1604,216 L 1603,217 L 1602,219 L 1602,220 L 1602,222 L 1603,222 L 1604,223 L 1605,224 L 1604,225 L 1604,227 L 1604,228 L 1605,229 L 1606,231 L 1606,232 L 1607,233 L 1607,234 L 1607,235 L 1607,237 L 1606,238 L 1606,240 L 1605,240 L 1604,240 L 1603,240 L 1602,240 L 1601,240 L 1600,241 L 1599,242 L 1598,243 L 1598,244 L 1598,245 L 1598,247 L 1599,248 L 1599,249 L 1598,250 L 1598,251 L 1598,252 L 1598,253 L 1598,254 L 1599,255 L 1600,255 L 1600,256 L 1601,256 L 1601,257 L 1601,259 L 1601,260 L 1600,260 L 1599,260 L 1598,261 L 1597,261 L 1597,262 L 1597,263 L 1598,264 L 1599,265 L 1600,266 L 1601,267 L 1601,269 L 1600,270 L 1598,271 L 1597,271 L 1595,271 L 1593,271 L 1591,271 L 1590,271 L 1589,271 L 1588,273 L 1588,274 L 1588,275 L 1588,276 L 1589,277 L 1589,278 L 1589,280 L 1589,282 L 1588,282 L 1588,283 L 1587,284 L 1587,286 L 1587,287 L 1587,289 L 1587,290 L 1587,291 L 1587,292 L 1574,294 L 1570,294 L 1567,295 L 1557,304 L 1553,307 L 1549,309 L 1547,309 L 1545,309 L 1531,314 L 1531,313 L 1531,312 L 1532,311 L 1532,310 L 1533,309 L 1534,308 L 1534,307 L 1534,306 L 1534,305 L 1534,303 L 1533,290 L 1534,283 L 1534,282 L 1534,271 L 1535,268 L 1536,266 L 1536,265 L 1537,265 L 1537,264 L 1537,263 L 1537,262 L 1537,261 L 1537,260 L 1538,260 L 1538,259 L 1537,259 L 1536,259 L 1535,259 L 1534,259 L 1533,259 L 1533,258 L 1534,258 L 1533,258 L 1532,258 L 1532,257 L 1533,257 L 1533,256 L 1534,256 L 1534,255 L 1534,254 L 1534,253 L 1533,253 L 1533,252 L 1532,252 L 1532,251 L 1532,250 L 1532,249 L 1532,248 L 1532,247 L 1531,247 L 1531,246 L 1531,245 L 1531,244 L 1531,243 L 1531,242 L 1532,242 L 1533,242 L 1533,241 L 1533,240 L 1534,240 L 1534,239 L 1535,239 L 1535,238 L 1536,238 L 1536,237 L 1537,237 L 1537,236 L 1538,236 L 1538,235 L 1538,234 L 1538,233 L 1539,233 L 1539,232 L 1539,231 L 1540,231 L 1540,230 L 1541,230 L 1542,230 L 1542,229 L 1543,229 L 1543,228 L 1543,227 L 1543,226 L 1543,225 L 1542,225 L 1542,224 L 1543,223 L 1543,222 L 1543,221 L 1542,221 L 1542,220 L 1542,219 L 1542,218 L 1541,217 L 1541,216 L 1542,216 L 1542,215 L 1541,214 L 1541,213 L 1541,212 L 1540,211 L 1540,210 L 1541,210 L 1541,209 L 1540,209 L 1540,208 L 1539,208 L 1539,207 L 1540,207 L 1540,206 L 1539,206 L 1540,205 L 1539,205 L 1539,204 L 1539,203 L 1539,202 L 1538,203 L 1538,202 L 1537,202 L 1537,201 L 1536,201 L 1535,201 L 1534,200 L 1533,201 L 1532,201 L 1531,201 L 1530,201 L 1530,202 L 1529,202 L 1528,202 L 1524,195 L 1524,194 L 1525,194 L 1525,193 L 1526,192 L 1526,191 L 1527,191 L 1527,190 L 1527,189 L 1528,189 L 1528,188 L 1528,187 L 1530,185 L 1529,185 L 1529,184 L 1528,184 L 1528,183 L 1528,182 L 1528,181 L 1527,181 L 1526,180 L 1526,179 L 1526,178 L 1526,177 L 1525,176 L 1524,176 L 1524,175 L 1524,174 L 1525,173 L 1525,172 L 1524,171 L 1524,170 L 1525,169 L 1525,168 L 1525,167 L 1524,167 L 1524,166 L 1525,166 L 1525,165 L 1524,165 L 1524,164 L 1523,164 L 1522,164 L 1521,164 L 1520,164 L 1520,163 L 1519,163 L 1519,162 L 1518,162 L 1517,162 L 1516,161 L 1515,161 L 1514,160 L 1513,160 L 1512,159 L 1511,159 L 1510,158 L 1509,157 L 1504,149 L 1504,148 L 1504,147 L 1505,147 L 1522,131 L 1522,132 L 1522,133 L 1521,133 L 1521,134 L 1521,135 L 1521,136 L 1521,137 L 1520,138 L 1519,139 L 1519,140 " /></g>
</svg>
