<?xml version="1.0" standalone="no"?><!DOCTYPE svg PUBLIC "-//W3C//DTD SVG 1.1//EN" "http://www.w3.org/Graphics/SVG/1.1/DTD/svg11.dtd"><svg xmlns="http://www.w3.org/2000/svg" viewBox="1901 -153 383 402" version = "1.1">
<g id="70302" ><path d="M 2091,-148 L 2092,-147 L 2093,-147 L 2093,-146 L 2093,-145 L 2093,-144 L 2094,-144 L 2094,-143 L 2095,-143 L 2096,-142 L 2096,-140 L 2097,-139 L 2097,-138 L 2097,-137 L 2098,-137 L 2098,-136 L 2099,-136 L 2099,-135 L 2099,-134 L 2100,-134 L 2100,-133 L 2100,-132 L 2100,-131 L 2099,-131 L 2099,-130 L 2100,-130 L 2100,-129 L 2100,-128 L 2100,-127 L 2101,-124 L 2106,-109 L 2112,-100 L 2115,-93 L 2121,-77 L 2121,-76 L 2121,-75 L 2122,-75 L 2122,-74 L 2121,-74 L 2121,-73 L 2121,-72 L 2122,-71 L 2123,-71 L 2124,-71 L 2125,-70 L 2127,-69 L 2128,-69 L 2129,-69 L 2130,-69 L 2130,-68 L 2131,-68 L 2131,-67 L 2132,-66 L 2132,-65 L 2133,-65 L 2133,-64 L 2134,-64 L 2135,-64 L 2136,-64 L 2137,-64 L 2138,-64 L 2138,-63 L 2139,-63 L 2148,-59 L 2152,-58 L 2157,-56 L 2165,-55 L 2166,-56 L 2179,-59 L 2186,-61 L 2189,-62 L 2194,-63 L 2204,-63 L 2210,-63 L 2210,-59 L 2214,-49 L 2220,-36 L 2221,-27 L 2224,-19 L 2228,-7 L 2233,8 L 2236,17 L 2238,24 L 2238,25 L 2237,26 L 2236,27 L 2235,30 L 2234,31 L 2232,35 L 2231,38 L 2230,41 L 2229,43 L 2229,44 L 2227,46 L 2227,47 L 2226,48 L 2226,49 L 2226,50 L 2226,52 L 2227,54 L 2227,57 L 2228,59 L 2228,61 L 2229,62 L 2229,63 L 2230,63 L 2232,64 L 2236,66 L 2240,68 L 2243,70 L 2243,71 L 2245,71 L 2246,71 L 2247,73 L 2248,74 L 2250,75 L 2251,76 L 2251,78 L 2255,79 L 2256,79 L 2259,80 L 2262,81 L 2266,82 L 2270,84 L 2271,84 L 2274,86 L 2275,87 L 2276,87 L 2277,88 L 2277,87 L 2278,88 L 2279,88 L 2280,88 L 2280,89 L 2280,90 L 2281,91 L 2282,92 L 2283,93 L 2282,94 L 2282,96 L 2281,97 L 2280,97 L 2280,98 L 2280,100 L 2280,101 L 2281,102 L 2281,103 L 2281,105 L 2282,105 L 2283,105 L 2283,106 L 2282,107 L 2282,108 L 2281,109 L 2281,110 L 2281,111 L 2281,112 L 2281,113 L 2281,114 L 2281,116 L 2282,116 L 2282,117 L 2283,118 L 2282,118 L 2281,119 L 2280,119 L 2280,120 L 2281,121 L 2282,121 L 2282,122 L 2281,123 L 2282,124 L 2283,124 L 2283,125 L 2284,126 L 2284,127 L 2283,128 L 2283,129 L 2283,130 L 2283,132 L 2283,133 L 2284,133 L 2283,134 L 2282,135 L 2282,136 L 2283,137 L 2284,138 L 2283,139 L 2282,140 L 2282,141 L 2281,141 L 2281,142 L 2280,143 L 2279,144 L 2278,144 L 2277,144 L 2276,145 L 2276,146 L 2276,148 L 2275,149 L 2275,150 L 2275,151 L 2274,152 L 2274,153 L 2273,154 L 2272,155 L 2271,155 L 2270,156 L 2270,157 L 2269,158 L 2268,158 L 2268,159 L 2267,159 L 2266,159 L 2266,160 L 2265,161 L 2264,161 L 2264,162 L 2264,163 L 2263,163 L 2262,163 L 2261,163 L 2261,164 L 2260,164 L 2260,165 L 2261,165 L 2261,166 L 2261,167 L 2261,168 L 2261,169 L 2260,168 L 2259,168 L 2258,169 L 2256,170 L 2255,171 L 2254,171 L 2253,170 L 2252,170 L 2252,171 L 2251,171 L 2250,171 L 2250,172 L 2249,173 L 2248,174 L 2247,174 L 2247,173 L 2246,173 L 2245,173 L 2244,173 L 2243,173 L 2242,173 L 2241,173 L 2240,173 L 2240,174 L 2240,175 L 2241,175 L 2241,176 L 2241,177 L 2241,178 L 2240,178 L 2239,178 L 2238,179 L 2237,179 L 2236,179 L 2236,180 L 2237,180 L 2237,181 L 2236,181 L 2236,182 L 2237,182 L 2236,182 L 2236,183 L 2236,184 L 2236,185 L 2236,186 L 2235,186 L 2235,187 L 2234,187 L 2234,188 L 2233,188 L 2233,189 L 2232,189 L 2232,190 L 2231,191 L 2231,192 L 2230,192 L 2230,193 L 2229,193 L 2228,193 L 2228,194 L 2227,194 L 2226,194 L 2225,194 L 2224,194 L 2223,194 L 2222,194 L 2221,194 L 2221,195 L 2220,195 L 2219,195 L 2219,196 L 2218,196 L 2217,196 L 2217,197 L 2216,197 L 2216,198 L 2215,198 L 2215,197 L 2214,197 L 2214,198 L 2213,198 L 2213,199 L 2212,199 L 2212,200 L 2211,200 L 2211,201 L 2210,201 L 2210,202 L 2211,202 L 2211,203 L 2210,203 L 2210,204 L 2210,205 L 2210,206 L 2210,207 L 2210,208 L 2210,209 L 2211,209 L 2211,210 L 2210,210 L 2210,211 L 2210,212 L 2210,213 L 2209,213 L 2208,213 L 2207,213 L 2206,213 L 2205,213 L 2204,213 L 2203,213 L 2202,213 L 2201,213 L 2201,212 L 2200,212 L 2199,212 L 2199,213 L 2199,212 L 2198,212 L 2197,212 L 2197,213 L 2196,213 L 2196,212 L 2196,213 L 2195,213 L 2194,213 L 2194,214 L 2193,214 L 2193,213 L 2192,213 L 2191,213 L 2191,214 L 2190,214 L 2190,215 L 2190,216 L 2189,216 L 2189,217 L 2188,218 L 2187,218 L 2187,219 L 2186,220 L 2186,221 L 2185,221 L 2185,222 L 2185,223 L 2184,223 L 2184,224 L 2183,224 L 2183,225 L 2182,225 L 2182,226 L 2181,226 L 2180,226 L 2179,226 L 2179,227 L 2178,227 L 2179,227 L 2178,227 L 2178,228 L 2177,228 L 2176,228 L 2175,228 L 2174,228 L 2174,227 L 2173,227 L 2172,227 L 2172,228 L 2171,228 L 2170,228 L 2169,228 L 2168,228 L 2168,229 L 2167,229 L 2166,229 L 2165,229 L 2165,228 L 2164,228 L 2163,228 L 2163,227 L 2162,227 L 2162,229 L 2162,230 L 2162,231 L 2161,231 L 2160,231 L 2159,231 L 2158,231 L 2157,231 L 2157,232 L 2156,232 L 2156,233 L 2155,233 L 2154,233 L 2154,232 L 2153,232 L 2153,233 L 2152,233 L 2152,232 L 2151,232 L 2151,231 L 2150,231 L 2149,231 L 2148,231 L 2147,231 L 2146,231 L 2146,232 L 2147,232 L 2147,233 L 2146,233 L 2146,234 L 2145,234 L 2144,234 L 2143,234 L 2142,234 L 2142,235 L 2142,236 L 2141,236 L 2141,237 L 2141,236 L 2140,236 L 2139,236 L 2138,236 L 2137,236 L 2136,236 L 2135,236 L 2134,236 L 2133,236 L 2133,237 L 2132,237 L 2131,237 L 2131,236 L 2130,236 L 2129,236 L 2128,236 L 2127,236 L 2126,236 L 2126,237 L 2125,237 L 2125,236 L 2124,236 L 2123,237 L 2122,237 L 2121,237 L 2120,237 L 2119,237 L 2119,238 L 2119,237 L 2118,237 L 2118,238 L 2117,238 L 2117,237 L 2116,237 L 2116,238 L 2115,238 L 2115,239 L 2115,240 L 2116,240 L 2116,241 L 2116,242 L 2116,243 L 2115,244 L 2114,244 L 2113,244 L 2112,244 L 2111,244 L 2110,244 L 2110,245 L 2109,245 L 2109,246 L 2108,246 L 2107,246 L 2107,247 L 2106,247 L 2106,248 L 2105,248 L 2105,249 L 2104,249 L 2103,249 L 2103,248 L 2102,247 L 2101,247 L 2100,248 L 2099,248 L 2099,247 L 2098,247 L 2099,247 L 2099,246 L 2098,246 L 2097,246 L 2096,247 L 2095,247 L 2094,247 L 2093,247 L 2093,246 L 2093,245 L 2092,245 L 2092,246 L 2091,245 L 2091,244 L 2090,244 L 2090,243 L 2089,243 L 2088,243 L 2088,242 L 2088,243 L 2087,243 L 2087,242 L 2087,241 L 2086,241 L 2085,241 L 2085,240 L 2085,239 L 2084,238 L 2083,238 L 2082,238 L 2082,237 L 2081,237 L 2081,238 L 2080,238 L 2080,237 L 2079,237 L 2079,238 L 2078,238 L 2078,239 L 2077,239 L 2076,239 L 2075,239 L 2075,238 L 2074,238 L 2074,237 L 2073,237 L 2072,237 L 2072,238 L 2071,238 L 2071,237 L 2070,237 L 2070,236 L 2070,235 L 2070,234 L 2070,233 L 2069,233 L 2068,233 L 2068,232 L 2067,232 L 2066,232 L 2066,231 L 2065,231 L 2065,230 L 2064,230 L 2064,229 L 2063,229 L 2062,230 L 2062,229 L 2061,229 L 2060,229 L 2060,228 L 2059,228 L 2059,229 L 2058,229 L 2057,229 L 2056,229 L 2055,229 L 2055,230 L 2055,231 L 2054,231 L 2054,230 L 2054,229 L 2054,228 L 2053,228 L 2051,228 L 2050,228 L 2049,228 L 2048,228 L 2048,229 L 2048,228 L 2048,229 L 2047,229 L 2046,229 L 2045,229 L 2045,230 L 2046,230 L 2046,231 L 2047,232 L 2046,232 L 2045,232 L 2045,233 L 2044,233 L 2044,234 L 2043,234 L 2042,234 L 2041,234 L 2040,234 L 2040,233 L 2039,233 L 2038,233 L 2038,232 L 2038,231 L 2039,231 L 2039,230 L 2039,229 L 2040,229 L 2040,228 L 2041,228 L 2041,227 L 2041,226 L 2040,226 L 2040,225 L 2041,225 L 2041,224 L 2040,224 L 2040,223 L 2039,223 L 2038,223 L 2037,223 L 2037,224 L 2036,225 L 2035,225 L 2035,224 L 2035,225 L 2034,225 L 2034,224 L 2033,224 L 2033,225 L 2032,225 L 2032,224 L 2031,225 L 2031,224 L 2030,224 L 2030,225 L 2031,225 L 2031,226 L 2030,226 L 2030,227 L 2031,227 L 2031,228 L 2030,228 L 2030,229 L 2030,228 L 2029,228 L 2028,228 L 2027,228 L 2027,229 L 2027,230 L 2026,230 L 2025,230 L 2024,230 L 2024,229 L 2024,228 L 2023,228 L 2023,227 L 2023,226 L 2023,225 L 2023,224 L 2023,223 L 2023,222 L 2023,221 L 2022,221 L 2022,222 L 2021,222 L 2021,223 L 2020,223 L 2019,223 L 2019,224 L 2018,223 L 2017,223 L 2017,222 L 2017,221 L 2017,220 L 2017,219 L 2017,218 L 2018,218 L 2018,217 L 2018,216 L 2018,215 L 2019,215 L 2020,215 L 2021,215 L 2021,214 L 2021,215 L 2021,214 L 2021,213 L 2022,213 L 2021,213 L 2021,212 L 2021,211 L 2020,211 L 2019,211 L 2018,211 L 2018,210 L 2017,210 L 2016,210 L 2015,210 L 2015,209 L 2015,210 L 2014,210 L 2013,210 L 2013,209 L 2012,209 L 2012,208 L 2011,208 L 2011,209 L 2010,209 L 2009,209 L 2009,210 L 2008,210 L 2008,209 L 2008,208 L 2008,207 L 2008,206 L 2007,205 L 2006,205 L 2006,204 L 2005,204 L 2005,203 L 2005,204 L 2004,204 L 2003,204 L 2004,203 L 1997,200 L 1996,199 L 1996,198 L 1995,198 L 1994,198 L 1993,198 L 1993,197 L 1994,197 L 1994,196 L 1993,196 L 1992,196 L 1992,195 L 1992,194 L 1992,193 L 1992,192 L 1993,192 L 1993,191 L 1994,191 L 1993,191 L 1993,190 L 1992,190 L 1992,191 L 1992,190 L 1991,190 L 1990,191 L 1990,190 L 1989,190 L 1988,190 L 1987,190 L 1987,189 L 1986,189 L 1986,188 L 1985,188 L 1984,188 L 1984,189 L 1984,188 L 1983,188 L 1984,188 L 1984,187 L 1983,187 L 1983,186 L 1983,185 L 1983,184 L 1984,183 L 1985,182 L 1985,181 L 1986,180 L 1986,179 L 1985,179 L 1985,178 L 1985,177 L 1986,177 L 1987,177 L 1987,178 L 1988,178 L 1988,177 L 1988,176 L 1989,176 L 1989,175 L 1990,175 L 1990,174 L 1990,173 L 1990,172 L 1989,172 L 1988,172 L 1988,171 L 1987,171 L 1986,172 L 1986,173 L 1986,174 L 1985,174 L 1984,174 L 1983,174 L 1983,175 L 1982,175 L 1982,176 L 1982,177 L 1982,178 L 1981,178 L 1981,177 L 1980,177 L 1979,177 L 1979,176 L 1978,176 L 1977,176 L 1977,175 L 1977,174 L 1976,173 L 1977,173 L 1976,173 L 1976,172 L 1975,172 L 1975,173 L 1974,172 L 1974,171 L 1973,171 L 1972,171 L 1972,172 L 1968,174 L 1967,174 L 1966,174 L 1965,174 L 1965,173 L 1965,172 L 1965,171 L 1964,171 L 1963,171 L 1962,171 L 1962,170 L 1962,171 L 1961,171 L 1961,170 L 1961,169 L 1961,168 L 1961,167 L 1962,166 L 1961,165 L 1960,164 L 1955,161 L 1953,160 L 1952,160 L 1951,159 L 1951,158 L 1951,157 L 1950,157 L 1949,158 L 1949,159 L 1949,160 L 1948,160 L 1948,159 L 1948,160 L 1947,160 L 1947,159 L 1946,159 L 1946,158 L 1946,157 L 1945,157 L 1944,157 L 1943,157 L 1942,156 L 1941,156 L 1940,155 L 1940,154 L 1939,154 L 1938,154 L 1937,155 L 1936,155 L 1935,155 L 1934,155 L 1934,154 L 1934,153 L 1933,153 L 1933,154 L 1932,154 L 1932,153 L 1931,153 L 1931,152 L 1930,153 L 1930,152 L 1931,152 L 1932,152 L 1932,151 L 1931,151 L 1930,151 L 1930,150 L 1929,150 L 1929,149 L 1928,149 L 1928,148 L 1929,148 L 1928,148 L 1927,148 L 1927,147 L 1926,147 L 1926,146 L 1925,146 L 1925,147 L 1924,147 L 1924,146 L 1925,146 L 1925,145 L 1924,145 L 1923,145 L 1923,144 L 1922,144 L 1921,145 L 1921,144 L 1921,143 L 1920,143 L 1919,143 L 1918,143 L 1917,143 L 1917,144 L 1918,144 L 1918,145 L 1917,145 L 1916,145 L 1916,144 L 1915,144 L 1914,144 L 1914,145 L 1913,145 L 1913,144 L 1912,145 L 1912,144 L 1911,144 L 1911,145 L 1910,145 L 1910,146 L 1909,146 L 1909,147 L 1909,146 L 1908,146 L 1908,147 L 1907,147 L 1907,148 L 1906,148 L 1905,148 L 1904,148 L 1904,147 L 1905,147 L 1905,146 L 1905,147 L 1906,147 L 1906,146 L 1907,146 L 1906,146 L 1906,145 L 1907,145 L 1907,144 L 1908,144 L 1908,145 L 1908,144 L 1908,143 L 1908,142 L 1908,143 L 1909,143 L 1910,143 L 1910,142 L 1911,142 L 1911,141 L 1910,141 L 1911,141 L 1912,141 L 1911,141 L 1911,140 L 1912,140 L 1912,139 L 1912,138 L 1913,138 L 1912,138 L 1912,137 L 1911,137 L 1910,138 L 1910,137 L 1909,137 L 1909,138 L 1909,139 L 1909,140 L 1908,140 L 1908,141 L 1907,140 L 1907,139 L 1906,139 L 1906,138 L 1906,137 L 1907,137 L 1906,137 L 1906,136 L 1905,136 L 1905,137 L 1905,136 L 1905,135 L 1904,135 L 1903,135 L 1902,135 L 1901,135 L 1901,134 L 1901,133 L 1902,133 L 1903,133 L 1903,132 L 1904,132 L 1903,132 L 1903,131 L 1903,130 L 1904,130 L 1904,129 L 1904,128 L 1904,127 L 1904,126 L 1903,126 L 1903,125 L 1904,125 L 1904,124 L 1905,124 L 1905,123 L 1905,124 L 1905,123 L 1906,123 L 1906,124 L 1907,124 L 1906,124 L 1907,124 L 1907,123 L 1907,124 L 1908,124 L 1907,124 L 1907,123 L 1908,123 L 1907,123 L 1907,122 L 1908,123 L 1908,122 L 1908,123 L 1908,122 L 1908,123 L 1909,123 L 1909,124 L 1910,124 L 1911,124 L 1910,125 L 1911,125 L 1912,125 L 1913,125 L 1913,124 L 1914,124 L 1914,123 L 1914,124 L 1914,123 L 1915,123 L 1916,123 L 1915,123 L 1916,123 L 1916,124 L 1916,125 L 1916,124 L 1917,124 L 1918,124 L 1918,125 L 1919,125 L 1920,125 L 1920,126 L 1921,126 L 1921,125 L 1921,126 L 1922,126 L 1923,126 L 1924,127 L 1925,127 L 1926,126 L 1927,126 L 1927,125 L 1928,125 L 1929,125 L 1930,125 L 1930,126 L 1930,127 L 1929,127 L 1929,128 L 1930,128 L 1931,128 L 1932,128 L 1932,127 L 1933,128 L 1934,128 L 1935,128 L 1936,128 L 1937,128 L 1937,129 L 1938,129 L 1939,129 L 1939,128 L 1940,128 L 1940,127 L 1941,127 L 1942,127 L 1942,126 L 1943,126 L 1943,125 L 1944,125 L 1944,124 L 1945,124 L 1946,124 L 1947,124 L 1947,123 L 1948,123 L 1948,122 L 1949,122 L 1950,122 L 1951,123 L 1952,123 L 1952,122 L 1953,122 L 1953,121 L 1954,121 L 1955,121 L 1956,121 L 1956,120 L 1956,119 L 1957,119 L 1958,119 L 1958,118 L 1958,119 L 1959,119 L 1959,120 L 1960,120 L 1960,121 L 1961,121 L 1961,122 L 1962,122 L 1962,123 L 1963,123 L 1963,122 L 1964,122 L 1964,121 L 1965,121 L 1965,120 L 1965,119 L 1966,119 L 1966,118 L 1966,117 L 1966,116 L 1966,115 L 1966,114 L 1967,113 L 1967,112 L 1967,111 L 1968,111 L 1968,110 L 1968,109 L 1967,109 L 1967,108 L 1966,108 L 1966,106 L 1967,101 L 1967,97 L 1967,85 L 1968,83 L 1968,76 L 1968,72 L 1969,57 L 1969,46 L 1970,21 L 1971,4 L 1972,-10 L 1973,-26 L 1973,-35 L 1973,-36 L 1973,-41 L 1974,-52 L 1973,-53 L 1973,-54 L 1973,-55 L 1973,-56 L 1974,-56 L 1974,-57 L 1974,-58 L 1973,-58 L 1973,-59 L 1973,-60 L 1972,-60 L 1972,-61 L 1972,-62 L 1971,-62 L 1970,-62 L 1970,-63 L 1970,-64 L 1970,-65 L 1969,-65 L 1970,-66 L 1970,-67 L 1969,-68 L 1969,-69 L 1970,-69 L 1970,-70 L 1970,-71 L 1970,-72 L 1969,-72 L 1969,-73 L 1969,-74 L 1968,-74 L 1967,-74 L 1967,-75 L 1967,-76 L 1967,-77 L 1967,-78 L 1967,-79 L 1967,-80 L 1967,-81 L 1968,-81 L 1968,-82 L 1968,-83 L 1969,-83 L 1969,-84 L 1970,-85 L 1969,-85 L 1969,-86 L 1968,-86 L 1968,-87 L 1967,-87 L 1967,-88 L 1968,-89 L 1968,-90 L 1967,-90 L 1967,-91 L 1967,-92 L 1967,-93 L 1967,-94 L 1966,-94 L 1966,-95 L 1966,-96 L 1965,-96 L 1965,-97 L 1965,-98 L 1965,-99 L 1965,-100 L 1964,-100 L 1964,-101 L 1963,-101 L 1963,-102 L 1963,-103 L 1962,-104 L 1962,-105 L 1962,-106 L 1962,-107 L 1962,-108 L 1963,-108 L 1963,-109 L 1963,-110 L 1963,-111 L 1963,-112 L 1963,-113 L 1963,-114 L 1963,-115 L 1963,-116 L 1963,-117 L 1963,-118 L 1963,-119 L 1963,-120 L 1963,-121 L 1962,-121 L 1961,-121 L 1960,-121 L 1959,-122 L 1959,-123 L 1958,-123 L 1958,-124 L 1958,-125 L 1958,-126 L 1957,-126 L 1957,-127 L 1957,-128 L 1957,-129 L 1957,-130 L 1956,-130 L 1955,-131 L 1955,-132 L 1954,-132 L 2089,-153 L 2089,-152 L 2089,-151 L 2089,-150 L 2090,-150 L 2090,-149 L 2090,-148 L 2091,-148 " /></g>
</svg>
