<?xml version="1.0" standalone="no"?><!DOCTYPE svg PUBLIC "-//W3C//DTD SVG 1.1//EN" "http://www.w3.org/Graphics/SVG/1.1/DTD/svg11.dtd"><svg xmlns="http://www.w3.org/2000/svg" viewBox="2226 -94 465 297" version = "1.1">
<g id="70303" ><path d="M 2524,-94 L 2571,-86 L 2604,-83 L 2621,-76 L 2651,-74 L 2691,-72 L 2691,-70 L 2691,-62 L 2691,-56 L 2691,-51 L 2690,-44 L 2690,-42 L 2690,-40 L 2690,-39 L 2690,-37 L 2690,-33 L 2690,-32 L 2690,-30 L 2690,-27 L 2690,-25 L 2689,-21 L 2689,-19 L 2689,-18 L 2689,-16 L 2689,-14 L 2689,-9 L 2689,-4 L 2689,0 L 2689,4 L 2688,7 L 2688,12 L 2688,16 L 2688,19 L 2688,25 L 2688,33 L 2687,42 L 2687,53 L 2686,67 L 2686,74 L 2686,82 L 2685,96 L 2685,103 L 2685,111 L 2685,117 L 2497,160 L 2479,164 L 2423,177 L 2395,184 L 2383,186 L 2375,188 L 2374,190 L 2373,190 L 2372,190 L 2371,190 L 2370,191 L 2370,192 L 2369,192 L 2368,192 L 2367,192 L 2366,192 L 2365,191 L 2364,191 L 2364,192 L 2363,192 L 2363,193 L 2362,193 L 2362,192 L 2361,193 L 2360,193 L 2359,193 L 2359,192 L 2358,192 L 2357,192 L 2356,191 L 2356,190 L 2355,190 L 2355,189 L 2354,189 L 2353,189 L 2353,188 L 2352,188 L 2352,187 L 2351,187 L 2350,187 L 2350,188 L 2349,188 L 2348,188 L 2348,189 L 2347,189 L 2347,190 L 2347,191 L 2346,191 L 2345,191 L 2344,191 L 2343,191 L 2343,190 L 2342,190 L 2342,191 L 2341,191 L 2340,191 L 2340,192 L 2339,192 L 2338,192 L 2338,193 L 2337,193 L 2336,193 L 2335,192 L 2334,192 L 2333,192 L 2333,193 L 2334,193 L 2333,193 L 2332,193 L 2332,194 L 2332,195 L 2331,195 L 2331,196 L 2331,197 L 2332,197 L 2332,198 L 2333,198 L 2333,199 L 2332,199 L 2332,200 L 2331,200 L 2330,200 L 2330,201 L 2329,201 L 2328,201 L 2327,201 L 2327,202 L 2326,202 L 2325,202 L 2324,203 L 2323,203 L 2322,203 L 2321,203 L 2320,203 L 2319,203 L 2319,201 L 2318,201 L 2318,200 L 2317,200 L 2316,200 L 2315,200 L 2314,200 L 2313,200 L 2312,200 L 2311,200 L 2310,200 L 2309,200 L 2309,199 L 2309,198 L 2308,198 L 2308,197 L 2307,197 L 2307,196 L 2306,196 L 2306,195 L 2305,195 L 2304,195 L 2303,195 L 2302,195 L 2301,195 L 2300,195 L 2300,194 L 2299,194 L 2298,194 L 2298,193 L 2297,193 L 2297,192 L 2296,191 L 2296,190 L 2295,190 L 2295,189 L 2295,188 L 2295,187 L 2296,187 L 2296,186 L 2291,183 L 2290,183 L 2289,183 L 2289,184 L 2288,184 L 2287,184 L 2287,183 L 2286,183 L 2285,183 L 2284,183 L 2284,182 L 2284,183 L 2283,183 L 2283,182 L 2283,183 L 2282,182 L 2282,183 L 2282,182 L 2281,182 L 2281,183 L 2281,182 L 2281,183 L 2280,183 L 2280,182 L 2279,182 L 2278,182 L 2277,182 L 2276,182 L 2276,181 L 2275,181 L 2274,181 L 2274,180 L 2273,180 L 2272,180 L 2271,180 L 2270,180 L 2269,180 L 2269,179 L 2268,179 L 2268,178 L 2267,178 L 2267,177 L 2266,177 L 2265,177 L 2264,177 L 2264,176 L 2263,176 L 2263,175 L 2263,176 L 2262,175 L 2261,175 L 2260,175 L 2260,176 L 2259,176 L 2259,175 L 2258,175 L 2258,176 L 2257,176 L 2256,176 L 2256,177 L 2255,177 L 2255,176 L 2254,176 L 2254,177 L 2254,176 L 2253,176 L 2253,175 L 2252,175 L 2252,176 L 2252,175 L 2251,175 L 2251,176 L 2251,175 L 2251,174 L 2251,173 L 2250,173 L 2249,173 L 2250,172 L 2250,171 L 2251,171 L 2252,171 L 2252,170 L 2253,170 L 2254,171 L 2255,171 L 2256,170 L 2258,169 L 2259,168 L 2260,168 L 2261,169 L 2261,168 L 2261,167 L 2261,166 L 2261,165 L 2260,165 L 2260,164 L 2261,164 L 2261,163 L 2262,163 L 2263,163 L 2264,163 L 2264,162 L 2264,161 L 2265,161 L 2266,160 L 2266,159 L 2267,159 L 2268,159 L 2268,158 L 2269,158 L 2270,157 L 2270,156 L 2271,155 L 2272,155 L 2273,154 L 2274,153 L 2274,152 L 2275,151 L 2275,150 L 2275,149 L 2276,148 L 2276,146 L 2276,145 L 2277,144 L 2278,144 L 2279,144 L 2280,143 L 2281,142 L 2281,141 L 2282,141 L 2282,140 L 2283,139 L 2284,138 L 2283,137 L 2282,136 L 2282,135 L 2283,134 L 2284,133 L 2283,133 L 2283,132 L 2283,130 L 2283,129 L 2283,128 L 2284,127 L 2284,126 L 2283,125 L 2283,124 L 2282,124 L 2281,123 L 2282,122 L 2282,121 L 2281,121 L 2280,120 L 2280,119 L 2281,119 L 2282,118 L 2283,118 L 2282,117 L 2282,116 L 2281,116 L 2281,114 L 2281,113 L 2281,112 L 2281,111 L 2281,110 L 2281,109 L 2282,108 L 2282,107 L 2283,106 L 2283,105 L 2282,105 L 2281,105 L 2281,103 L 2281,102 L 2280,101 L 2280,100 L 2280,98 L 2280,97 L 2281,97 L 2282,96 L 2282,94 L 2283,93 L 2282,92 L 2281,91 L 2280,90 L 2280,89 L 2280,88 L 2279,88 L 2278,88 L 2277,87 L 2277,88 L 2276,87 L 2275,87 L 2274,86 L 2271,84 L 2270,84 L 2266,82 L 2262,81 L 2259,80 L 2256,79 L 2255,79 L 2251,78 L 2251,76 L 2250,75 L 2248,74 L 2247,73 L 2246,71 L 2245,71 L 2243,71 L 2243,70 L 2240,68 L 2236,66 L 2232,64 L 2230,63 L 2229,63 L 2229,62 L 2228,61 L 2228,59 L 2227,57 L 2227,54 L 2226,52 L 2226,50 L 2226,49 L 2226,48 L 2227,47 L 2227,46 L 2229,44 L 2229,43 L 2230,41 L 2231,38 L 2232,35 L 2234,31 L 2235,30 L 2236,27 L 2237,26 L 2238,25 L 2239,24 L 2242,23 L 2253,19 L 2261,15 L 2268,13 L 2280,8 L 2285,6 L 2297,1 L 2306,-2 L 2321,-7 L 2326,-10 L 2328,-10 L 2335,-13 L 2349,-19 L 2355,-21 L 2369,-27 L 2401,-40 L 2424,-49 L 2432,-53 L 2433,-53 L 2434,-53 L 2439,-55 L 2444,-56 L 2449,-57 L 2450,-56 L 2451,-56 L 2452,-55 L 2452,-56 L 2453,-57 L 2454,-57 L 2455,-57 L 2456,-57 L 2457,-57 L 2458,-57 L 2459,-57 L 2459,-58 L 2460,-59 L 2461,-60 L 2462,-60 L 2463,-60 L 2464,-60 L 2464,-61 L 2465,-61 L 2465,-62 L 2465,-63 L 2465,-64 L 2465,-65 L 2466,-64 L 2467,-64 L 2468,-65 L 2469,-65 L 2470,-65 L 2471,-65 L 2472,-64 L 2473,-64 L 2474,-64 L 2474,-65 L 2474,-66 L 2476,-66 L 2477,-67 L 2478,-68 L 2482,-70 L 2486,-72 L 2489,-74 L 2493,-77 L 2498,-80 L 2502,-83 L 2506,-85 L 2509,-87 L 2513,-89 L 2517,-91 L 2523,-94 L 2524,-94 " /></g>
</svg>
