<?xml version="1.0" standalone="no"?><!DOCTYPE svg PUBLIC "-//W3C//DTD SVG 1.1//EN" "http://www.w3.org/Graphics/SVG/1.1/DTD/svg11.dtd"><svg xmlns="http://www.w3.org/2000/svg" viewBox="1804 -1068 889 1093" version = "1.1">
<g id="70301" ><path d="M 2192,-1060 L 2192,-1059 L 2191,-1059 L 2191,-1058 L 2190,-1058 L 2190,-1059 L 2189,-1059 L 2189,-1060 L 2188,-1059 L 2188,-1060 L 2187,-1060 L 2187,-1059 L 2186,-1059 L 2185,-1059 L 2185,-1058 L 2185,-1057 L 2185,-1056 L 2185,-1055 L 2185,-1054 L 2186,-1054 L 2186,-1053 L 2187,-1053 L 2187,-1052 L 2188,-1052 L 2188,-1051 L 2188,-1050 L 2188,-1049 L 2187,-1049 L 2187,-1050 L 2187,-1051 L 2186,-1051 L 2186,-1052 L 2185,-1052 L 2184,-1052 L 2184,-1051 L 2184,-1050 L 2184,-1049 L 2185,-1049 L 2185,-1048 L 2185,-1047 L 2185,-1046 L 2186,-1046 L 2186,-1045 L 2186,-1044 L 2185,-1044 L 2185,-1043 L 2186,-1043 L 2187,-1043 L 2188,-1043 L 2189,-1044 L 2190,-1044 L 2191,-1044 L 2191,-1045 L 2192,-1045 L 2193,-1045 L 2193,-1046 L 2192,-1046 L 2192,-1047 L 2192,-1048 L 2193,-1048 L 2194,-1048 L 2194,-1047 L 2195,-1047 L 2196,-1047 L 2196,-1048 L 2197,-1048 L 2198,-1048 L 2199,-1048 L 2200,-1048 L 2200,-1047 L 2201,-1047 L 2201,-1046 L 2201,-1045 L 2201,-1044 L 2202,-1043 L 2203,-1043 L 2204,-1043 L 2205,-1043 L 2206,-1043 L 2207,-1044 L 2207,-1045 L 2208,-1045 L 2209,-1046 L 2210,-1047 L 2211,-1047 L 2212,-1047 L 2213,-1047 L 2214,-1047 L 2214,-1046 L 2215,-1046 L 2216,-1046 L 2216,-1045 L 2216,-1044 L 2215,-1044 L 2215,-1043 L 2214,-1043 L 2214,-1042 L 2213,-1042 L 2213,-1041 L 2213,-1040 L 2213,-1039 L 2214,-1039 L 2214,-1038 L 2214,-1037 L 2215,-1037 L 2215,-1036 L 2216,-1036 L 2216,-1035 L 2216,-1034 L 2217,-1034 L 2217,-1033 L 2218,-1033 L 2218,-1032 L 2219,-1032 L 2219,-1031 L 2220,-1031 L 2220,-1030 L 2221,-1030 L 2222,-1030 L 2222,-1029 L 2223,-1029 L 2224,-1028 L 2225,-1028 L 2225,-1027 L 2226,-1027 L 2226,-1026 L 2226,-1025 L 2227,-1025 L 2227,-1024 L 2227,-1023 L 2228,-1023 L 2228,-1022 L 2228,-1021 L 2229,-1021 L 2229,-1020 L 2230,-1020 L 2231,-1020 L 2231,-1019 L 2232,-1019 L 2233,-1019 L 2234,-1019 L 2234,-1018 L 2235,-1018 L 2236,-1018 L 2236,-1017 L 2237,-1017 L 2238,-1016 L 2239,-1016 L 2240,-1016 L 2240,-1017 L 2241,-1017 L 2241,-1018 L 2242,-1018 L 2243,-1018 L 2244,-1018 L 2245,-1017 L 2246,-1017 L 2247,-1017 L 2248,-1016 L 2249,-1016 L 2249,-1015 L 2250,-1014 L 2250,-1013 L 2250,-1012 L 2251,-1012 L 2251,-1011 L 2251,-1010 L 2251,-1009 L 2252,-1009 L 2252,-1008 L 2253,-1008 L 2254,-1008 L 2255,-1008 L 2256,-1008 L 2257,-1008 L 2258,-1008 L 2259,-1008 L 2260,-1008 L 2261,-1007 L 2262,-1007 L 2263,-1007 L 2264,-1007 L 2264,-1006 L 2265,-1006 L 2265,-1005 L 2265,-1004 L 2266,-1004 L 2266,-1003 L 2265,-1003 L 2265,-1002 L 2265,-1001 L 2265,-1000 L 2265,-999 L 2266,-999 L 2267,-998 L 2268,-998 L 2268,-997 L 2269,-997 L 2270,-997 L 2271,-998 L 2272,-998 L 2273,-998 L 2274,-999 L 2275,-999 L 2276,-999 L 2277,-999 L 2277,-998 L 2278,-998 L 2279,-998 L 2279,-997 L 2280,-997 L 2281,-997 L 2281,-996 L 2282,-996 L 2283,-996 L 2284,-996 L 2285,-996 L 2285,-997 L 2286,-997 L 2286,-996 L 2287,-996 L 2287,-995 L 2287,-994 L 2287,-993 L 2287,-992 L 2288,-992 L 2288,-991 L 2289,-991 L 2289,-990 L 2289,-989 L 2290,-989 L 2290,-988 L 2291,-988 L 2291,-989 L 2291,-990 L 2291,-991 L 2290,-991 L 2290,-992 L 2290,-993 L 2290,-994 L 2291,-994 L 2292,-994 L 2293,-994 L 2293,-993 L 2293,-992 L 2293,-991 L 2293,-990 L 2294,-989 L 2294,-988 L 2295,-988 L 2295,-987 L 2296,-987 L 2296,-986 L 2297,-986 L 2298,-986 L 2299,-986 L 2299,-985 L 2300,-984 L 2301,-984 L 2301,-983 L 2302,-983 L 2303,-982 L 2303,-981 L 2304,-981 L 2304,-982 L 2304,-983 L 2304,-984 L 2305,-984 L 2305,-983 L 2305,-982 L 2306,-982 L 2306,-981 L 2307,-981 L 2308,-981 L 2308,-982 L 2308,-983 L 2309,-983 L 2309,-984 L 2309,-985 L 2310,-985 L 2311,-985 L 2312,-985 L 2313,-985 L 2313,-986 L 2314,-987 L 2315,-987 L 2316,-987 L 2316,-986 L 2316,-985 L 2317,-985 L 2318,-985 L 2319,-985 L 2319,-984 L 2319,-983 L 2319,-982 L 2319,-981 L 2319,-980 L 2320,-980 L 2320,-981 L 2320,-980 L 2320,-979 L 2321,-979 L 2321,-978 L 2320,-978 L 2320,-977 L 2321,-977 L 2322,-977 L 2323,-977 L 2324,-978 L 2325,-978 L 2325,-979 L 2326,-979 L 2326,-978 L 2326,-977 L 2327,-977 L 2328,-977 L 2329,-977 L 2329,-978 L 2330,-978 L 2330,-977 L 2331,-977 L 2331,-976 L 2330,-976 L 2330,-975 L 2329,-974 L 2330,-974 L 2330,-973 L 2331,-973 L 2332,-973 L 2333,-973 L 2334,-973 L 2333,-972 L 2333,-971 L 2332,-971 L 2332,-970 L 2333,-970 L 2334,-970 L 2335,-970 L 2335,-969 L 2336,-969 L 2337,-969 L 2337,-968 L 2338,-967 L 2338,-966 L 2339,-966 L 2339,-965 L 2340,-965 L 2340,-966 L 2340,-967 L 2340,-968 L 2340,-969 L 2340,-970 L 2341,-970 L 2342,-969 L 2343,-969 L 2344,-969 L 2345,-969 L 2346,-969 L 2347,-969 L 2348,-969 L 2348,-970 L 2348,-969 L 2349,-969 L 2350,-969 L 2350,-968 L 2350,-967 L 2350,-966 L 2349,-965 L 2349,-964 L 2348,-964 L 2348,-963 L 2347,-963 L 2347,-962 L 2346,-962 L 2346,-961 L 2347,-961 L 2348,-961 L 2349,-961 L 2350,-961 L 2351,-961 L 2352,-962 L 2353,-962 L 2353,-961 L 2354,-961 L 2355,-961 L 2355,-962 L 2356,-962 L 2356,-963 L 2357,-963 L 2358,-962 L 2359,-962 L 2360,-962 L 2360,-961 L 2361,-961 L 2362,-961 L 2363,-961 L 2365,-961 L 2366,-961 L 2367,-961 L 2368,-960 L 2369,-960 L 2369,-959 L 2370,-958 L 2370,-957 L 2369,-957 L 2369,-956 L 2369,-955 L 2369,-954 L 2369,-953 L 2369,-952 L 2368,-951 L 2368,-950 L 2367,-949 L 2366,-949 L 2365,-949 L 2365,-948 L 2366,-947 L 2367,-947 L 2367,-946 L 2367,-945 L 2366,-944 L 2365,-943 L 2365,-942 L 2366,-942 L 2366,-941 L 2367,-941 L 2368,-941 L 2369,-941 L 2370,-941 L 2371,-941 L 2372,-941 L 2373,-940 L 2373,-938 L 2373,-937 L 2373,-936 L 2372,-935 L 2372,-934 L 2372,-933 L 2372,-932 L 2372,-931 L 2373,-931 L 2374,-931 L 2375,-930 L 2375,-929 L 2375,-928 L 2375,-927 L 2375,-926 L 2375,-925 L 2375,-924 L 2375,-923 L 2375,-922 L 2375,-921 L 2375,-920 L 2375,-919 L 2375,-918 L 2375,-917 L 2375,-916 L 2375,-915 L 2375,-914 L 2376,-914 L 2376,-913 L 2376,-912 L 2377,-912 L 2377,-911 L 2378,-910 L 2378,-909 L 2378,-908 L 2379,-907 L 2379,-906 L 2379,-905 L 2380,-905 L 2380,-904 L 2380,-903 L 2381,-903 L 2381,-902 L 2382,-902 L 2382,-901 L 2383,-901 L 2384,-900 L 2384,-899 L 2385,-899 L 2385,-898 L 2386,-898 L 2386,-897 L 2387,-897 L 2387,-896 L 2387,-895 L 2387,-894 L 2387,-893 L 2387,-892 L 2387,-891 L 2387,-890 L 2388,-890 L 2388,-889 L 2387,-887 L 2386,-886 L 2386,-884 L 2386,-883 L 2385,-882 L 2384,-880 L 2383,-880 L 2382,-879 L 2382,-878 L 2381,-878 L 2381,-877 L 2381,-876 L 2380,-876 L 2380,-875 L 2380,-874 L 2380,-873 L 2379,-872 L 2378,-871 L 2377,-869 L 2376,-869 L 2376,-868 L 2375,-868 L 2374,-867 L 2374,-866 L 2373,-865 L 2372,-865 L 2371,-864 L 2370,-863 L 2370,-862 L 2369,-861 L 2368,-861 L 2367,-860 L 2367,-858 L 2366,-857 L 2366,-856 L 2365,-856 L 2365,-855 L 2365,-854 L 2365,-853 L 2366,-851 L 2366,-849 L 2366,-848 L 2366,-847 L 2365,-847 L 2365,-846 L 2365,-845 L 2365,-843 L 2365,-841 L 2365,-840 L 2364,-839 L 2363,-838 L 2363,-837 L 2363,-836 L 2362,-835 L 2362,-834 L 2362,-833 L 2362,-832 L 2362,-831 L 2362,-830 L 2363,-830 L 2364,-831 L 2365,-831 L 2365,-830 L 2366,-830 L 2367,-830 L 2367,-829 L 2367,-828 L 2368,-827 L 2368,-826 L 2368,-825 L 2368,-824 L 2368,-823 L 2368,-822 L 2368,-821 L 2368,-819 L 2369,-816 L 2370,-815 L 2371,-814 L 2372,-813 L 2372,-812 L 2372,-811 L 2372,-810 L 2371,-809 L 2370,-808 L 2369,-808 L 2369,-807 L 2369,-804 L 2369,-803 L 2370,-802 L 2371,-801 L 2371,-800 L 2371,-799 L 2372,-799 L 2372,-798 L 2372,-797 L 2373,-796 L 2373,-795 L 2373,-794 L 2373,-793 L 2373,-792 L 2374,-791 L 2374,-790 L 2374,-789 L 2375,-788 L 2375,-787 L 2375,-786 L 2378,-785 L 2379,-784 L 2380,-784 L 2381,-783 L 2383,-782 L 2384,-780 L 2385,-779 L 2385,-778 L 2385,-777 L 2386,-776 L 2387,-776 L 2388,-775 L 2389,-775 L 2389,-774 L 2390,-773 L 2391,-773 L 2392,-773 L 2392,-772 L 2392,-770 L 2393,-770 L 2394,-770 L 2395,-770 L 2395,-769 L 2396,-768 L 2396,-766 L 2396,-764 L 2396,-763 L 2396,-762 L 2396,-761 L 2395,-761 L 2394,-761 L 2393,-761 L 2392,-760 L 2391,-759 L 2390,-758 L 2389,-757 L 2389,-756 L 2390,-755 L 2390,-754 L 2390,-752 L 2391,-751 L 2391,-750 L 2392,-750 L 2392,-749 L 2393,-748 L 2393,-747 L 2394,-746 L 2394,-745 L 2395,-744 L 2397,-742 L 2398,-740 L 2399,-738 L 2400,-737 L 2402,-732 L 2404,-730 L 2405,-728 L 2407,-726 L 2407,-725 L 2407,-724 L 2407,-723 L 2408,-723 L 2409,-723 L 2409,-722 L 2410,-722 L 2410,-721 L 2410,-720 L 2409,-720 L 2409,-719 L 2409,-718 L 2409,-717 L 2410,-716 L 2411,-715 L 2410,-715 L 2409,-715 L 2408,-714 L 2409,-714 L 2409,-713 L 2410,-713 L 2411,-712 L 2411,-711 L 2411,-710 L 2411,-709 L 2411,-708 L 2412,-707 L 2412,-706 L 2412,-705 L 2413,-705 L 2413,-704 L 2413,-703 L 2413,-702 L 2413,-701 L 2413,-700 L 2413,-699 L 2414,-699 L 2414,-698 L 2414,-697 L 2414,-696 L 2414,-695 L 2413,-695 L 2414,-694 L 2414,-693 L 2414,-692 L 2415,-691 L 2415,-690 L 2415,-689 L 2416,-688 L 2416,-687 L 2417,-687 L 2418,-687 L 2418,-686 L 2419,-686 L 2420,-686 L 2421,-686 L 2422,-686 L 2423,-685 L 2424,-684 L 2425,-684 L 2425,-683 L 2426,-683 L 2427,-683 L 2428,-683 L 2429,-683 L 2430,-684 L 2431,-684 L 2432,-684 L 2432,-683 L 2433,-683 L 2433,-682 L 2433,-681 L 2433,-680 L 2433,-679 L 2433,-678 L 2433,-677 L 2433,-675 L 2433,-674 L 2433,-673 L 2433,-672 L 2433,-671 L 2433,-670 L 2433,-669 L 2433,-668 L 2433,-667 L 2433,-666 L 2434,-665 L 2434,-664 L 2434,-663 L 2434,-662 L 2434,-661 L 2434,-660 L 2434,-659 L 2434,-658 L 2434,-657 L 2434,-656 L 2434,-655 L 2434,-654 L 2434,-653 L 2434,-652 L 2434,-651 L 2434,-650 L 2434,-649 L 2434,-648 L 2434,-647 L 2434,-646 L 2434,-644 L 2435,-639 L 2436,-633 L 2436,-627 L 2436,-619 L 2438,-597 L 2438,-591 L 2438,-581 L 2439,-576 L 2439,-570 L 2439,-564 L 2439,-561 L 2439,-559 L 2440,-557 L 2442,-525 L 2439,-525 L 2435,-525 L 2424,-525 L 2420,-525 L 2415,-525 L 2413,-525 L 2409,-525 L 2408,-525 L 2407,-525 L 2404,-524 L 2402,-525 L 2401,-525 L 2400,-525 L 2398,-525 L 2396,-524 L 2395,-524 L 2392,-525 L 2391,-525 L 2389,-524 L 2388,-524 L 2387,-524 L 2386,-525 L 2384,-525 L 2381,-525 L 2380,-525 L 2379,-525 L 2377,-525 L 2375,-525 L 2373,-525 L 2363,-525 L 2358,-524 L 2357,-524 L 2356,-524 L 2356,-525 L 2337,-525 L 2331,-524 L 2344,-510 L 2352,-501 L 2354,-498 L 2355,-498 L 2356,-497 L 2357,-496 L 2357,-495 L 2358,-495 L 2360,-492 L 2361,-492 L 2362,-491 L 2363,-489 L 2364,-488 L 2366,-486 L 2382,-468 L 2385,-464 L 2402,-445 L 2410,-436 L 2415,-430 L 2421,-424 L 2427,-417 L 2434,-410 L 2444,-398 L 2445,-393 L 2445,-390 L 2446,-384 L 2446,-377 L 2451,-333 L 2455,-302 L 2458,-275 L 2460,-256 L 2462,-233 L 2463,-222 L 2464,-211 L 2464,-207 L 2464,-194 L 2464,-183 L 2465,-168 L 2465,-164 L 2465,-160 L 2465,-156 L 2465,-148 L 2465,-139 L 2466,-133 L 2467,-133 L 2469,-133 L 2471,-133 L 2472,-133 L 2476,-133 L 2478,-133 L 2483,-132 L 2484,-132 L 2485,-132 L 2488,-132 L 2492,-132 L 2497,-132 L 2500,-132 L 2503,-132 L 2507,-132 L 2509,-132 L 2515,-132 L 2520,-131 L 2524,-131 L 2531,-131 L 2532,-131 L 2533,-131 L 2534,-131 L 2535,-131 L 2536,-131 L 2537,-131 L 2538,-131 L 2539,-131 L 2540,-131 L 2541,-131 L 2542,-131 L 2543,-131 L 2544,-131 L 2545,-131 L 2546,-131 L 2547,-131 L 2548,-131 L 2549,-131 L 2550,-131 L 2551,-131 L 2552,-131 L 2553,-131 L 2554,-131 L 2555,-131 L 2556,-131 L 2557,-131 L 2558,-130 L 2559,-130 L 2560,-130 L 2561,-130 L 2562,-130 L 2563,-130 L 2564,-130 L 2565,-130 L 2566,-130 L 2567,-130 L 2568,-130 L 2569,-130 L 2570,-130 L 2571,-130 L 2572,-130 L 2573,-130 L 2574,-130 L 2575,-130 L 2576,-130 L 2577,-130 L 2578,-130 L 2579,-130 L 2580,-130 L 2581,-130 L 2582,-130 L 2583,-130 L 2584,-130 L 2585,-130 L 2586,-130 L 2587,-130 L 2588,-130 L 2589,-130 L 2590,-130 L 2591,-130 L 2592,-130 L 2593,-130 L 2594,-130 L 2595,-130 L 2596,-130 L 2597,-130 L 2598,-130 L 2599,-130 L 2600,-130 L 2601,-130 L 2602,-130 L 2603,-130 L 2604,-130 L 2605,-130 L 2606,-130 L 2607,-130 L 2608,-130 L 2609,-130 L 2610,-130 L 2611,-130 L 2612,-130 L 2613,-130 L 2614,-130 L 2614,-129 L 2615,-129 L 2616,-129 L 2617,-129 L 2618,-129 L 2619,-129 L 2620,-129 L 2621,-129 L 2622,-129 L 2623,-129 L 2624,-129 L 2625,-129 L 2626,-129 L 2627,-129 L 2628,-129 L 2629,-129 L 2630,-129 L 2631,-129 L 2632,-129 L 2633,-129 L 2634,-129 L 2635,-129 L 2636,-129 L 2637,-129 L 2638,-129 L 2639,-129 L 2640,-129 L 2641,-129 L 2642,-129 L 2643,-129 L 2644,-129 L 2645,-129 L 2646,-129 L 2647,-129 L 2648,-129 L 2649,-129 L 2650,-129 L 2651,-129 L 2652,-129 L 2653,-129 L 2654,-129 L 2655,-129 L 2656,-129 L 2657,-129 L 2658,-129 L 2659,-129 L 2660,-129 L 2661,-129 L 2662,-129 L 2663,-129 L 2664,-129 L 2665,-129 L 2666,-129 L 2667,-129 L 2668,-129 L 2669,-129 L 2670,-129 L 2671,-129 L 2672,-129 L 2673,-129 L 2674,-129 L 2675,-128 L 2676,-128 L 2677,-128 L 2678,-128 L 2679,-128 L 2693,-127 L 2693,-126 L 2693,-123 L 2693,-119 L 2693,-116 L 2693,-112 L 2693,-108 L 2692,-105 L 2692,-103 L 2692,-99 L 2692,-93 L 2692,-89 L 2692,-86 L 2692,-83 L 2692,-80 L 2691,-74 L 2691,-72 L 2651,-74 L 2621,-76 L 2604,-83 L 2571,-86 L 2524,-94 L 2523,-94 L 2517,-91 L 2513,-89 L 2509,-87 L 2506,-85 L 2502,-83 L 2498,-80 L 2493,-77 L 2489,-74 L 2486,-72 L 2482,-70 L 2478,-68 L 2477,-67 L 2476,-66 L 2474,-66 L 2474,-65 L 2474,-64 L 2473,-64 L 2472,-64 L 2471,-65 L 2470,-65 L 2469,-65 L 2468,-65 L 2467,-64 L 2466,-64 L 2465,-65 L 2465,-64 L 2465,-63 L 2465,-62 L 2465,-61 L 2464,-61 L 2464,-60 L 2463,-60 L 2462,-60 L 2461,-60 L 2460,-59 L 2459,-58 L 2459,-57 L 2458,-57 L 2457,-57 L 2456,-57 L 2455,-57 L 2454,-57 L 2453,-57 L 2452,-56 L 2452,-55 L 2451,-56 L 2450,-56 L 2449,-57 L 2444,-56 L 2439,-55 L 2434,-53 L 2433,-53 L 2432,-53 L 2424,-49 L 2401,-40 L 2369,-27 L 2355,-21 L 2349,-19 L 2335,-13 L 2328,-10 L 2326,-10 L 2321,-7 L 2306,-2 L 2297,1 L 2285,6 L 2280,8 L 2268,13 L 2261,15 L 2253,19 L 2242,23 L 2239,24 L 2238,25 L 2238,24 L 2236,17 L 2233,8 L 2228,-7 L 2224,-19 L 2221,-27 L 2220,-36 L 2214,-49 L 2210,-59 L 2210,-63 L 2204,-63 L 2194,-63 L 2189,-62 L 2186,-61 L 2179,-59 L 2166,-56 L 2165,-55 L 2157,-56 L 2152,-58 L 2148,-59 L 2139,-63 L 2138,-63 L 2138,-64 L 2137,-64 L 2136,-64 L 2135,-64 L 2134,-64 L 2133,-64 L 2133,-65 L 2132,-65 L 2132,-66 L 2131,-67 L 2131,-68 L 2130,-68 L 2130,-69 L 2129,-69 L 2128,-69 L 2127,-69 L 2125,-70 L 2124,-71 L 2123,-71 L 2122,-71 L 2121,-72 L 2121,-73 L 2121,-74 L 2122,-74 L 2122,-75 L 2121,-75 L 2121,-76 L 2121,-77 L 2115,-93 L 2112,-100 L 2106,-109 L 2101,-124 L 2100,-127 L 2100,-128 L 2100,-129 L 2100,-130 L 2099,-130 L 2099,-131 L 2100,-131 L 2100,-132 L 2100,-133 L 2100,-134 L 2099,-134 L 2099,-135 L 2099,-136 L 2098,-136 L 2098,-137 L 2097,-137 L 2097,-138 L 2097,-139 L 2096,-140 L 2096,-142 L 2095,-143 L 2094,-143 L 2094,-144 L 2093,-144 L 2093,-145 L 2093,-146 L 2093,-147 L 2092,-147 L 2091,-148 L 2090,-148 L 2090,-149 L 2090,-150 L 2089,-150 L 2089,-151 L 2089,-152 L 2089,-153 L 1954,-132 L 1955,-133 L 1955,-134 L 1955,-135 L 1956,-135 L 1956,-136 L 1956,-137 L 1956,-138 L 1956,-139 L 1956,-140 L 1957,-141 L 1957,-142 L 1958,-142 L 1959,-143 L 1959,-144 L 1958,-144 L 1958,-145 L 1958,-146 L 1958,-147 L 1958,-148 L 1958,-149 L 1958,-150 L 1958,-151 L 1959,-151 L 1959,-152 L 1960,-152 L 1960,-153 L 1960,-154 L 1961,-154 L 1961,-155 L 1961,-156 L 1962,-156 L 1962,-157 L 1961,-157 L 1961,-158 L 1961,-159 L 1961,-160 L 1961,-161 L 1961,-162 L 1961,-163 L 1961,-164 L 1960,-164 L 1960,-165 L 1960,-166 L 1959,-166 L 1959,-167 L 1959,-168 L 1958,-168 L 1958,-169 L 1959,-169 L 1958,-169 L 1958,-170 L 1959,-171 L 1959,-172 L 1958,-172 L 1958,-173 L 1957,-173 L 1958,-173 L 1958,-174 L 1959,-174 L 1959,-175 L 1959,-176 L 1960,-176 L 1960,-177 L 1960,-178 L 1959,-178 L 1960,-178 L 1960,-179 L 1959,-179 L 1959,-180 L 1960,-180 L 1959,-180 L 1959,-181 L 1959,-182 L 1959,-183 L 1959,-184 L 1959,-185 L 1959,-186 L 1960,-187 L 1959,-187 L 1959,-188 L 1959,-189 L 1959,-190 L 1960,-190 L 1960,-191 L 1960,-192 L 1961,-192 L 1960,-192 L 1960,-193 L 1960,-196 L 1960,-201 L 1961,-207 L 1962,-214 L 1964,-218 L 1966,-221 L 1966,-224 L 1968,-229 L 1970,-233 L 1970,-234 L 1971,-235 L 1971,-236 L 1971,-237 L 1971,-238 L 1972,-239 L 1972,-240 L 1973,-240 L 1973,-241 L 1974,-242 L 1974,-243 L 1975,-243 L 1975,-244 L 1976,-244 L 1977,-245 L 1978,-245 L 1979,-246 L 1980,-246 L 1981,-247 L 1982,-247 L 1983,-247 L 1984,-248 L 1985,-248 L 1985,-249 L 1986,-249 L 1987,-250 L 1988,-250 L 1989,-251 L 1989,-252 L 1990,-252 L 1990,-253 L 1991,-253 L 1991,-254 L 1991,-255 L 1992,-255 L 1993,-256 L 1993,-257 L 1993,-258 L 1994,-258 L 1994,-259 L 1993,-260 L 1993,-261 L 1993,-262 L 1994,-263 L 1994,-264 L 1995,-264 L 1994,-265 L 1995,-265 L 1995,-266 L 1996,-266 L 1996,-267 L 1995,-267 L 1996,-268 L 1996,-269 L 1996,-270 L 1996,-271 L 1995,-272 L 1995,-273 L 1994,-273 L 1994,-274 L 1994,-275 L 1993,-276 L 1993,-277 L 1993,-278 L 1993,-279 L 1992,-280 L 1992,-281 L 1991,-281 L 1991,-282 L 1990,-283 L 1990,-284 L 1989,-284 L 1989,-285 L 1989,-286 L 1989,-287 L 1989,-288 L 1989,-289 L 1989,-290 L 1989,-291 L 1988,-291 L 1988,-292 L 1988,-293 L 1987,-294 L 1986,-294 L 1986,-295 L 1985,-295 L 1984,-295 L 1983,-296 L 1983,-297 L 1984,-298 L 1985,-298 L 1985,-299 L 1986,-299 L 1987,-300 L 1988,-300 L 1989,-300 L 1990,-300 L 1991,-300 L 1992,-300 L 1993,-300 L 1994,-300 L 1994,-299 L 1995,-299 L 1996,-299 L 1996,-298 L 1996,-297 L 1996,-296 L 1997,-296 L 1997,-295 L 1998,-294 L 1999,-294 L 2000,-294 L 2000,-295 L 2001,-295 L 2002,-295 L 2003,-295 L 2004,-296 L 2005,-297 L 2006,-297 L 2006,-298 L 2005,-299 L 2005,-300 L 2005,-301 L 2006,-301 L 2006,-302 L 2006,-303 L 2007,-304 L 2007,-305 L 2008,-305 L 2008,-306 L 2009,-307 L 2009,-308 L 2010,-308 L 2010,-309 L 2010,-310 L 2010,-311 L 2010,-312 L 2010,-313 L 2010,-314 L 2009,-315 L 2008,-316 L 2008,-317 L 2007,-317 L 2008,-318 L 2008,-319 L 2008,-320 L 2009,-321 L 2009,-323 L 2010,-324 L 2010,-325 L 2011,-326 L 2010,-327 L 2010,-328 L 2011,-328 L 2011,-329 L 2012,-330 L 2011,-331 L 2011,-332 L 2011,-333 L 2011,-334 L 2011,-335 L 2013,-338 L 2013,-341 L 2013,-342 L 2014,-343 L 2014,-344 L 2014,-346 L 2014,-347 L 2013,-348 L 2014,-349 L 2015,-358 L 2017,-375 L 2021,-412 L 2022,-425 L 2022,-429 L 2023,-433 L 2023,-438 L 2024,-443 L 2024,-449 L 2024,-450 L 2024,-451 L 2023,-452 L 2023,-453 L 2022,-453 L 2022,-454 L 2021,-454 L 2021,-455 L 2021,-456 L 2021,-457 L 2022,-457 L 2022,-458 L 2021,-459 L 2021,-460 L 2021,-461 L 2021,-462 L 2021,-463 L 2021,-464 L 2021,-465 L 2020,-466 L 2020,-467 L 2019,-467 L 2018,-467 L 2018,-468 L 2018,-469 L 2018,-470 L 2019,-470 L 2019,-471 L 2019,-472 L 2020,-472 L 2020,-473 L 2019,-473 L 2019,-474 L 2018,-476 L 2018,-477 L 2018,-478 L 2017,-478 L 2017,-479 L 2018,-479 L 2018,-480 L 2019,-480 L 2020,-481 L 2020,-482 L 2021,-482 L 2021,-483 L 2021,-484 L 2022,-484 L 2022,-485 L 2022,-486 L 2022,-487 L 2022,-488 L 2022,-489 L 2022,-490 L 2023,-490 L 2022,-491 L 2023,-492 L 2023,-493 L 2023,-494 L 2022,-494 L 2022,-495 L 2023,-496 L 2023,-497 L 2023,-498 L 2024,-500 L 2024,-501 L 2024,-503 L 2024,-504 L 2024,-505 L 2024,-506 L 2025,-507 L 2026,-508 L 2026,-509 L 2027,-510 L 2027,-512 L 2027,-513 L 2026,-513 L 2026,-514 L 2026,-515 L 2026,-516 L 2026,-517 L 2027,-517 L 2027,-518 L 2027,-519 L 2027,-520 L 2026,-521 L 2026,-522 L 2025,-523 L 2025,-524 L 2025,-525 L 2024,-526 L 2023,-527 L 2023,-528 L 2023,-529 L 2023,-530 L 2023,-531 L 2023,-532 L 2023,-533 L 2023,-535 L 2023,-536 L 2023,-538 L 2023,-539 L 2023,-540 L 2023,-541 L 2023,-542 L 2023,-543 L 2023,-544 L 2023,-545 L 2023,-546 L 2023,-547 L 2023,-548 L 2023,-549 L 2023,-550 L 2022,-550 L 2022,-551 L 2022,-552 L 2022,-553 L 2023,-554 L 2023,-555 L 2023,-556 L 2023,-557 L 2023,-558 L 2023,-559 L 2023,-560 L 2023,-561 L 2023,-562 L 2023,-563 L 2023,-564 L 2023,-565 L 2022,-566 L 2022,-567 L 2022,-568 L 2021,-569 L 2022,-571 L 2022,-572 L 2022,-573 L 2022,-574 L 2022,-575 L 2022,-577 L 2022,-578 L 2021,-578 L 2021,-579 L 2021,-580 L 2020,-581 L 2020,-582 L 2020,-583 L 2019,-583 L 2019,-584 L 2020,-584 L 2020,-585 L 2019,-585 L 2019,-586 L 2018,-587 L 2018,-588 L 2018,-589 L 2018,-590 L 2018,-591 L 2019,-591 L 2019,-592 L 2019,-593 L 2018,-593 L 2017,-593 L 2016,-593 L 2016,-592 L 2015,-592 L 2015,-593 L 2014,-594 L 2014,-595 L 2015,-596 L 2015,-597 L 2015,-598 L 2014,-598 L 2014,-599 L 2014,-600 L 2014,-601 L 2014,-602 L 2014,-603 L 2014,-604 L 2013,-604 L 2013,-605 L 2013,-606 L 2013,-607 L 2012,-607 L 2012,-608 L 2012,-609 L 2011,-609 L 2011,-610 L 2010,-611 L 2010,-612 L 2010,-613 L 2009,-613 L 2009,-614 L 2009,-615 L 2009,-616 L 2009,-617 L 2009,-618 L 2009,-619 L 2009,-620 L 2009,-621 L 2009,-622 L 2009,-623 L 2008,-623 L 2007,-623 L 2006,-623 L 2005,-623 L 2005,-624 L 2004,-624 L 2004,-625 L 2004,-626 L 2003,-627 L 2004,-627 L 2004,-629 L 2004,-630 L 2004,-631 L 2004,-632 L 2004,-633 L 2003,-633 L 2003,-634 L 2003,-635 L 2002,-635 L 2002,-636 L 2001,-636 L 2001,-637 L 2001,-638 L 2001,-639 L 2000,-640 L 2000,-641 L 2000,-642 L 2000,-643 L 2000,-644 L 1999,-645 L 1999,-646 L 1998,-647 L 1997,-647 L 1997,-648 L 1996,-648 L 1996,-649 L 1996,-648 L 1995,-648 L 1995,-649 L 1994,-650 L 1994,-651 L 1993,-651 L 1993,-652 L 1992,-652 L 1992,-653 L 1992,-654 L 1992,-655 L 1992,-656 L 1991,-656 L 1991,-657 L 1990,-657 L 1990,-658 L 1990,-659 L 1990,-660 L 1989,-660 L 1989,-659 L 1988,-659 L 1988,-658 L 1989,-658 L 1988,-658 L 1988,-657 L 1987,-656 L 1987,-657 L 1986,-657 L 1985,-657 L 1985,-656 L 1984,-656 L 1984,-657 L 1983,-657 L 1982,-657 L 1981,-657 L 1980,-657 L 1980,-658 L 1979,-658 L 1979,-659 L 1978,-659 L 1978,-660 L 1977,-660 L 1976,-660 L 1975,-660 L 1975,-661 L 1974,-661 L 1974,-662 L 1973,-662 L 1972,-663 L 1972,-664 L 1972,-665 L 1972,-666 L 1972,-667 L 1972,-668 L 1972,-669 L 1971,-669 L 1971,-670 L 1971,-671 L 1970,-671 L 1970,-672 L 1970,-673 L 1970,-674 L 1969,-674 L 1969,-675 L 1968,-675 L 1967,-675 L 1967,-676 L 1966,-676 L 1966,-677 L 1967,-677 L 1966,-677 L 1966,-678 L 1965,-678 L 1965,-679 L 1964,-679 L 1963,-680 L 1962,-680 L 1962,-681 L 1961,-681 L 1962,-682 L 1961,-682 L 1961,-683 L 1961,-684 L 1960,-685 L 1961,-685 L 1961,-686 L 1960,-686 L 1960,-687 L 1959,-687 L 1959,-688 L 1958,-688 L 1957,-688 L 1957,-689 L 1957,-690 L 1957,-691 L 1957,-692 L 1956,-692 L 1955,-692 L 1955,-693 L 1954,-693 L 1954,-694 L 1953,-694 L 1953,-695 L 1952,-695 L 1943,-716 L 1938,-723 L 1929,-732 L 1896,-755 L 1892,-758 L 1889,-760 L 1887,-761 L 1884,-763 L 1875,-767 L 1870,-770 L 1865,-774 L 1859,-777 L 1852,-782 L 1846,-786 L 1840,-791 L 1830,-796 L 1826,-800 L 1822,-802 L 1816,-807 L 1812,-811 L 1809,-814 L 1807,-818 L 1807,-820 L 1806,-823 L 1805,-826 L 1805,-835 L 1805,-845 L 1804,-867 L 1804,-890 L 1804,-908 L 1805,-925 L 1805,-929 L 1805,-943 L 1806,-971 L 1806,-972 L 2011,-1050 L 2013,-1050 L 2014,-1050 L 2014,-1049 L 2015,-1048 L 2015,-1047 L 2015,-1046 L 2016,-1046 L 2016,-1045 L 2017,-1045 L 2017,-1044 L 2018,-1044 L 2019,-1044 L 2020,-1044 L 2021,-1044 L 2022,-1044 L 2023,-1044 L 2024,-1044 L 2025,-1044 L 2025,-1043 L 2026,-1043 L 2027,-1043 L 2027,-1042 L 2028,-1042 L 2029,-1042 L 2031,-1042 L 2032,-1042 L 2032,-1043 L 2033,-1043 L 2034,-1043 L 2035,-1043 L 2035,-1044 L 2036,-1044 L 2037,-1044 L 2038,-1044 L 2039,-1044 L 2040,-1044 L 2041,-1045 L 2042,-1045 L 2043,-1045 L 2044,-1045 L 2044,-1046 L 2045,-1046 L 2046,-1046 L 2046,-1047 L 2047,-1047 L 2048,-1047 L 2049,-1047 L 2050,-1047 L 2050,-1048 L 2051,-1048 L 2051,-1047 L 2052,-1047 L 2053,-1047 L 2053,-1048 L 2053,-1049 L 2052,-1050 L 2052,-1051 L 2053,-1051 L 2053,-1052 L 2054,-1053 L 2055,-1053 L 2056,-1053 L 2057,-1053 L 2057,-1054 L 2058,-1054 L 2059,-1054 L 2060,-1054 L 2061,-1054 L 2062,-1053 L 2063,-1053 L 2064,-1053 L 2065,-1053 L 2066,-1053 L 2067,-1053 L 2068,-1053 L 2069,-1053 L 2070,-1053 L 2071,-1053 L 2071,-1054 L 2072,-1054 L 2073,-1054 L 2074,-1054 L 2074,-1055 L 2074,-1056 L 2074,-1057 L 2074,-1058 L 2075,-1058 L 2075,-1059 L 2076,-1059 L 2077,-1059 L 2078,-1059 L 2079,-1059 L 2080,-1059 L 2081,-1059 L 2082,-1059 L 2083,-1059 L 2084,-1059 L 2085,-1059 L 2085,-1058 L 2086,-1058 L 2087,-1058 L 2087,-1059 L 2088,-1059 L 2087,-1060 L 2088,-1060 L 2088,-1061 L 2089,-1061 L 2090,-1061 L 2091,-1061 L 2092,-1061 L 2092,-1060 L 2093,-1059 L 2094,-1059 L 2095,-1058 L 2096,-1059 L 2097,-1060 L 2098,-1061 L 2099,-1061 L 2099,-1062 L 2100,-1062 L 2101,-1062 L 2102,-1062 L 2103,-1062 L 2104,-1061 L 2105,-1061 L 2106,-1061 L 2106,-1060 L 2107,-1060 L 2107,-1059 L 2107,-1058 L 2106,-1058 L 2106,-1057 L 2106,-1056 L 2106,-1055 L 2107,-1055 L 2108,-1055 L 2108,-1054 L 2108,-1053 L 2109,-1053 L 2109,-1052 L 2109,-1051 L 2110,-1051 L 2111,-1051 L 2112,-1050 L 2113,-1050 L 2114,-1050 L 2115,-1050 L 2115,-1051 L 2116,-1051 L 2117,-1052 L 2118,-1052 L 2119,-1051 L 2121,-1049 L 2122,-1049 L 2122,-1048 L 2123,-1048 L 2124,-1049 L 2125,-1050 L 2126,-1050 L 2126,-1051 L 2126,-1052 L 2126,-1053 L 2125,-1053 L 2124,-1054 L 2124,-1055 L 2125,-1055 L 2125,-1056 L 2125,-1057 L 2126,-1057 L 2126,-1058 L 2127,-1058 L 2127,-1057 L 2127,-1056 L 2127,-1055 L 2128,-1055 L 2129,-1055 L 2129,-1056 L 2130,-1056 L 2130,-1057 L 2131,-1057 L 2131,-1056 L 2132,-1056 L 2133,-1056 L 2133,-1055 L 2134,-1055 L 2135,-1055 L 2135,-1054 L 2136,-1054 L 2136,-1053 L 2136,-1052 L 2137,-1052 L 2137,-1051 L 2137,-1050 L 2138,-1050 L 2139,-1050 L 2139,-1051 L 2139,-1052 L 2139,-1053 L 2139,-1054 L 2139,-1055 L 2139,-1056 L 2140,-1056 L 2141,-1056 L 2141,-1055 L 2141,-1054 L 2141,-1053 L 2141,-1052 L 2141,-1051 L 2142,-1051 L 2142,-1050 L 2142,-1051 L 2143,-1051 L 2143,-1052 L 2144,-1052 L 2144,-1053 L 2145,-1053 L 2146,-1053 L 2147,-1053 L 2148,-1053 L 2148,-1052 L 2149,-1052 L 2149,-1051 L 2150,-1051 L 2151,-1050 L 2152,-1050 L 2153,-1050 L 2154,-1052 L 2153,-1053 L 2153,-1054 L 2153,-1055 L 2153,-1056 L 2154,-1056 L 2155,-1057 L 2155,-1058 L 2156,-1058 L 2156,-1059 L 2156,-1060 L 2156,-1061 L 2157,-1061 L 2157,-1062 L 2157,-1063 L 2158,-1063 L 2158,-1062 L 2158,-1061 L 2158,-1060 L 2159,-1060 L 2160,-1060 L 2160,-1061 L 2161,-1061 L 2162,-1061 L 2163,-1060 L 2164,-1060 L 2165,-1060 L 2166,-1060 L 2167,-1060 L 2167,-1059 L 2167,-1058 L 2167,-1057 L 2168,-1057 L 2168,-1056 L 2169,-1056 L 2170,-1056 L 2171,-1057 L 2172,-1057 L 2173,-1057 L 2174,-1057 L 2174,-1058 L 2175,-1058 L 2175,-1059 L 2175,-1060 L 2174,-1061 L 2174,-1062 L 2173,-1062 L 2172,-1063 L 2171,-1063 L 2170,-1063 L 2170,-1064 L 2170,-1065 L 2170,-1066 L 2170,-1067 L 2171,-1067 L 2172,-1068 L 2173,-1068 L 2174,-1068 L 2175,-1068 L 2176,-1068 L 2177,-1068 L 2178,-1067 L 2179,-1067 L 2180,-1067 L 2181,-1067 L 2182,-1066 L 2183,-1066 L 2184,-1065 L 2185,-1065 L 2186,-1065 L 2187,-1065 L 2187,-1064 L 2188,-1064 L 2189,-1064 L 2190,-1064 L 2191,-1064 L 2191,-1063 L 2192,-1063 L 2192,-1062 L 2192,-1061 L 2192,-1060 " /></g>
</svg>
