<?xml version="1.0" standalone="no"?><!DOCTYPE svg PUBLIC "-//W3C//DTD SVG 1.1//EN" "http://www.w3.org/Graphics/SVG/1.1/DTD/svg11.dtd"><svg xmlns="http://www.w3.org/2000/svg" viewBox="1103 -132 149 376" version = "1.1">
<g id="70404" ><path d="M 1107,-132 L 1107,-131 L 1107,-130 L 1108,-130 L 1108,-131 L 1108,-132 L 1109,-132 L 1109,-131 L 1109,-130 L 1109,-129 L 1110,-129 L 1110,-130 L 1111,-130 L 1111,-131 L 1111,-130 L 1112,-130 L 1112,-131 L 1113,-131 L 1113,-130 L 1114,-130 L 1115,-130 L 1116,-130 L 1116,-131 L 1117,-131 L 1118,-131 L 1119,-131 L 1119,-130 L 1120,-130 L 1120,-129 L 1121,-129 L 1121,-128 L 1122,-128 L 1122,-129 L 1122,-130 L 1123,-130 L 1124,-129 L 1124,-130 L 1125,-129 L 1124,-129 L 1124,-128 L 1125,-128 L 1126,-127 L 1126,-128 L 1127,-128 L 1127,-129 L 1126,-129 L 1127,-129 L 1127,-128 L 1128,-128 L 1128,-129 L 1129,-129 L 1129,-130 L 1130,-129 L 1129,-129 L 1129,-128 L 1129,-127 L 1130,-127 L 1130,-126 L 1131,-126 L 1131,-127 L 1131,-128 L 1132,-128 L 1132,-129 L 1133,-129 L 1133,-128 L 1132,-128 L 1133,-128 L 1133,-127 L 1134,-127 L 1133,-126 L 1133,-127 L 1132,-127 L 1132,-126 L 1131,-126 L 1132,-126 L 1132,-125 L 1133,-125 L 1134,-125 L 1135,-125 L 1135,-124 L 1136,-124 L 1136,-123 L 1136,-122 L 1136,-121 L 1137,-121 L 1136,-121 L 1136,-120 L 1136,-119 L 1136,-118 L 1137,-118 L 1138,-118 L 1139,-118 L 1139,-119 L 1139,-120 L 1138,-120 L 1139,-120 L 1139,-121 L 1139,-120 L 1140,-120 L 1140,-121 L 1140,-120 L 1141,-120 L 1142,-120 L 1142,-119 L 1142,-118 L 1141,-118 L 1142,-118 L 1142,-117 L 1142,-116 L 1143,-116 L 1143,-117 L 1143,-118 L 1143,-119 L 1144,-119 L 1144,-118 L 1145,-118 L 1146,-118 L 1146,-119 L 1146,-118 L 1147,-118 L 1147,-117 L 1146,-117 L 1145,-117 L 1145,-116 L 1146,-117 L 1146,-116 L 1146,-115 L 1147,-115 L 1147,-116 L 1148,-116 L 1148,-117 L 1149,-117 L 1150,-117 L 1151,-116 L 1151,-115 L 1150,-114 L 1151,-114 L 1152,-114 L 1152,-115 L 1153,-115 L 1153,-114 L 1153,-113 L 1154,-112 L 1154,-113 L 1154,-114 L 1155,-114 L 1156,-114 L 1156,-113 L 1156,-112 L 1157,-112 L 1157,-111 L 1158,-111 L 1157,-111 L 1157,-110 L 1156,-110 L 1156,-109 L 1157,-109 L 1158,-109 L 1158,-108 L 1159,-108 L 1158,-108 L 1158,-107 L 1157,-107 L 1157,-106 L 1157,-105 L 1156,-105 L 1157,-105 L 1157,-106 L 1156,-106 L 1155,-106 L 1155,-105 L 1156,-104 L 1156,-103 L 1155,-103 L 1156,-103 L 1156,-102 L 1157,-102 L 1157,-101 L 1157,-102 L 1157,-101 L 1158,-101 L 1158,-100 L 1157,-100 L 1158,-100 L 1157,-100 L 1157,-99 L 1158,-99 L 1158,-98 L 1158,-97 L 1157,-97 L 1158,-97 L 1157,-97 L 1157,-96 L 1158,-96 L 1159,-96 L 1159,-95 L 1160,-95 L 1159,-95 L 1159,-96 L 1160,-96 L 1160,-95 L 1160,-94 L 1161,-94 L 1162,-95 L 1163,-95 L 1163,-94 L 1162,-94 L 1162,-93 L 1163,-93 L 1162,-93 L 1162,-92 L 1161,-92 L 1161,-91 L 1161,-92 L 1161,-91 L 1160,-91 L 1161,-91 L 1160,-91 L 1159,-91 L 1159,-90 L 1158,-90 L 1158,-89 L 1159,-89 L 1159,-88 L 1158,-88 L 1159,-88 L 1159,-87 L 1158,-87 L 1158,-86 L 1158,-85 L 1158,-84 L 1157,-84 L 1157,-85 L 1157,-84 L 1157,-85 L 1157,-84 L 1157,-83 L 1158,-83 L 1158,-82 L 1157,-82 L 1157,-81 L 1156,-81 L 1156,-80 L 1155,-80 L 1155,-81 L 1155,-80 L 1154,-80 L 1155,-80 L 1155,-79 L 1155,-78 L 1156,-78 L 1156,-77 L 1156,-76 L 1157,-76 L 1157,-75 L 1157,-74 L 1158,-74 L 1158,-73 L 1158,-74 L 1159,-73 L 1160,-73 L 1160,-72 L 1160,-71 L 1160,-70 L 1159,-70 L 1159,-69 L 1160,-69 L 1160,-68 L 1161,-68 L 1161,-67 L 1162,-67 L 1162,-66 L 1163,-66 L 1162,-66 L 1163,-66 L 1163,-65 L 1163,-64 L 1164,-64 L 1164,-63 L 1164,-62 L 1163,-62 L 1163,-61 L 1163,-62 L 1163,-61 L 1162,-61 L 1162,-60 L 1162,-59 L 1162,-60 L 1161,-60 L 1161,-59 L 1162,-59 L 1161,-59 L 1161,-58 L 1162,-58 L 1162,-57 L 1162,-58 L 1163,-58 L 1163,-57 L 1162,-57 L 1162,-56 L 1163,-56 L 1162,-56 L 1162,-55 L 1162,-54 L 1162,-53 L 1163,-53 L 1164,-52 L 1164,-51 L 1163,-51 L 1164,-50 L 1163,-50 L 1163,-49 L 1163,-48 L 1163,-47 L 1164,-48 L 1164,-47 L 1164,-46 L 1164,-45 L 1163,-45 L 1164,-45 L 1164,-44 L 1163,-44 L 1164,-44 L 1164,-43 L 1163,-43 L 1164,-43 L 1165,-43 L 1165,-44 L 1165,-43 L 1166,-43 L 1166,-42 L 1165,-42 L 1166,-42 L 1165,-42 L 1166,-41 L 1165,-41 L 1165,-40 L 1166,-40 L 1166,-39 L 1165,-39 L 1165,-38 L 1166,-37 L 1167,-38 L 1167,-37 L 1168,-37 L 1169,-37 L 1169,-38 L 1169,-37 L 1169,-36 L 1170,-36 L 1170,-37 L 1170,-38 L 1169,-38 L 1170,-38 L 1171,-38 L 1171,-39 L 1172,-40 L 1173,-40 L 1174,-40 L 1174,-39 L 1173,-39 L 1174,-39 L 1174,-38 L 1174,-39 L 1174,-40 L 1175,-40 L 1175,-39 L 1176,-39 L 1177,-39 L 1177,-40 L 1177,-39 L 1178,-40 L 1178,-39 L 1179,-39 L 1180,-38 L 1180,-39 L 1181,-39 L 1180,-39 L 1180,-38 L 1181,-38 L 1180,-38 L 1181,-38 L 1182,-38 L 1182,-37 L 1183,-37 L 1183,-36 L 1182,-36 L 1182,-35 L 1183,-35 L 1183,-36 L 1183,-35 L 1182,-35 L 1183,-35 L 1183,-34 L 1182,-34 L 1182,-33 L 1181,-33 L 1181,-32 L 1182,-32 L 1182,-31 L 1182,-32 L 1181,-32 L 1181,-31 L 1182,-31 L 1181,-30 L 1181,-29 L 1180,-29 L 1181,-29 L 1181,-28 L 1181,-29 L 1180,-29 L 1180,-28 L 1181,-28 L 1180,-27 L 1181,-27 L 1181,-26 L 1182,-26 L 1182,-25 L 1183,-24 L 1183,-23 L 1182,-23 L 1183,-22 L 1182,-22 L 1182,-21 L 1183,-21 L 1182,-21 L 1182,-20 L 1183,-20 L 1183,-19 L 1182,-19 L 1182,-18 L 1182,-17 L 1181,-17 L 1181,-16 L 1181,-15 L 1180,-15 L 1180,-14 L 1180,-13 L 1180,-12 L 1179,-12 L 1178,-12 L 1177,-12 L 1178,-12 L 1178,-11 L 1178,-12 L 1178,-11 L 1179,-11 L 1178,-11 L 1178,-10 L 1177,-10 L 1177,-9 L 1178,-9 L 1177,-9 L 1177,-8 L 1178,-8 L 1178,-7 L 1177,-7 L 1178,-7 L 1177,-7 L 1177,-6 L 1177,-7 L 1177,-6 L 1178,-6 L 1178,-5 L 1177,-5 L 1177,-4 L 1176,-5 L 1176,-4 L 1175,-4 L 1176,-4 L 1176,-3 L 1175,-3 L 1175,-2 L 1175,-1 L 1175,-2 L 1176,-2 L 1176,-1 L 1177,-1 L 1178,-1 L 1178,0 L 1177,0 L 1177,-1 L 1177,0 L 1178,0 L 1177,0 L 1177,1 L 1176,1 L 1177,1 L 1177,2 L 1177,3 L 1176,3 L 1177,3 L 1176,3 L 1176,2 L 1175,2 L 1175,3 L 1175,4 L 1174,4 L 1174,5 L 1173,5 L 1174,5 L 1174,6 L 1173,6 L 1174,6 L 1174,7 L 1173,6 L 1173,7 L 1172,7 L 1172,8 L 1173,8 L 1173,9 L 1172,9 L 1172,10 L 1172,11 L 1173,11 L 1172,11 L 1172,12 L 1171,13 L 1172,13 L 1172,14 L 1171,14 L 1171,13 L 1171,14 L 1170,14 L 1171,14 L 1170,14 L 1170,15 L 1171,15 L 1170,15 L 1170,16 L 1170,17 L 1171,17 L 1171,18 L 1171,19 L 1172,19 L 1171,19 L 1172,19 L 1172,20 L 1171,20 L 1171,21 L 1172,21 L 1172,22 L 1171,22 L 1172,23 L 1171,23 L 1172,23 L 1172,24 L 1171,24 L 1171,25 L 1171,26 L 1172,26 L 1172,27 L 1173,27 L 1172,27 L 1173,28 L 1173,27 L 1173,28 L 1174,28 L 1173,28 L 1174,28 L 1175,28 L 1175,29 L 1174,29 L 1174,30 L 1175,30 L 1175,31 L 1175,32 L 1175,31 L 1176,31 L 1176,32 L 1176,31 L 1176,32 L 1177,32 L 1176,32 L 1177,32 L 1176,33 L 1176,34 L 1176,33 L 1177,33 L 1177,32 L 1178,32 L 1178,33 L 1178,34 L 1179,33 L 1178,33 L 1179,33 L 1180,33 L 1180,34 L 1179,34 L 1180,34 L 1180,35 L 1179,35 L 1179,36 L 1179,37 L 1179,36 L 1180,36 L 1180,37 L 1180,36 L 1181,36 L 1181,37 L 1181,38 L 1182,38 L 1183,38 L 1183,39 L 1183,40 L 1183,39 L 1184,39 L 1185,40 L 1184,40 L 1184,41 L 1185,41 L 1186,41 L 1186,42 L 1187,42 L 1186,43 L 1186,42 L 1186,43 L 1185,43 L 1186,43 L 1186,44 L 1187,44 L 1187,43 L 1187,44 L 1188,44 L 1189,44 L 1189,45 L 1188,45 L 1189,45 L 1190,45 L 1189,45 L 1190,46 L 1190,47 L 1190,46 L 1191,46 L 1192,46 L 1192,47 L 1193,47 L 1193,48 L 1194,48 L 1195,48 L 1194,48 L 1194,49 L 1195,49 L 1195,48 L 1195,49 L 1194,49 L 1195,49 L 1195,50 L 1194,50 L 1194,51 L 1195,51 L 1195,50 L 1195,51 L 1196,51 L 1196,52 L 1197,52 L 1197,53 L 1198,53 L 1198,52 L 1199,52 L 1198,52 L 1199,52 L 1199,53 L 1200,53 L 1199,53 L 1199,54 L 1199,53 L 1200,53 L 1200,54 L 1199,54 L 1199,55 L 1199,54 L 1198,55 L 1199,55 L 1199,56 L 1200,56 L 1199,56 L 1200,56 L 1200,57 L 1201,57 L 1201,58 L 1201,59 L 1201,58 L 1201,59 L 1201,60 L 1200,60 L 1199,60 L 1199,61 L 1200,61 L 1201,61 L 1200,61 L 1200,62 L 1201,62 L 1201,63 L 1200,63 L 1200,62 L 1200,63 L 1200,64 L 1201,64 L 1200,64 L 1200,65 L 1200,66 L 1201,66 L 1201,67 L 1202,66 L 1202,67 L 1202,68 L 1201,68 L 1201,69 L 1200,69 L 1201,70 L 1200,70 L 1200,71 L 1200,70 L 1199,70 L 1198,70 L 1197,70 L 1197,71 L 1197,72 L 1196,72 L 1195,72 L 1195,73 L 1194,73 L 1195,73 L 1194,73 L 1194,74 L 1194,75 L 1193,75 L 1193,76 L 1194,76 L 1194,77 L 1194,78 L 1195,78 L 1195,77 L 1195,78 L 1196,78 L 1195,78 L 1195,79 L 1196,79 L 1196,80 L 1197,80 L 1197,81 L 1196,81 L 1196,80 L 1196,81 L 1195,81 L 1195,82 L 1196,82 L 1196,83 L 1197,83 L 1196,83 L 1196,84 L 1197,84 L 1196,84 L 1196,85 L 1197,84 L 1198,84 L 1198,85 L 1197,85 L 1197,86 L 1197,85 L 1196,85 L 1195,85 L 1196,85 L 1196,86 L 1195,86 L 1195,87 L 1196,87 L 1195,87 L 1196,87 L 1196,88 L 1195,88 L 1196,88 L 1196,89 L 1197,89 L 1198,89 L 1197,89 L 1197,90 L 1198,90 L 1199,90 L 1199,91 L 1198,91 L 1199,91 L 1198,92 L 1197,92 L 1197,93 L 1196,93 L 1196,94 L 1195,94 L 1195,95 L 1195,94 L 1195,95 L 1194,95 L 1194,94 L 1194,95 L 1193,95 L 1194,95 L 1195,95 L 1194,96 L 1195,96 L 1196,96 L 1196,97 L 1197,97 L 1197,98 L 1196,98 L 1196,99 L 1197,99 L 1197,100 L 1198,100 L 1198,101 L 1199,100 L 1200,100 L 1201,100 L 1202,100 L 1203,100 L 1203,101 L 1202,101 L 1202,102 L 1203,102 L 1204,102 L 1203,102 L 1203,103 L 1204,104 L 1204,103 L 1205,103 L 1206,103 L 1206,102 L 1206,101 L 1207,101 L 1208,102 L 1209,102 L 1210,102 L 1211,102 L 1211,103 L 1212,103 L 1213,103 L 1213,102 L 1214,102 L 1215,102 L 1215,103 L 1216,103 L 1217,103 L 1218,103 L 1218,102 L 1219,103 L 1219,104 L 1220,104 L 1221,104 L 1221,103 L 1222,102 L 1222,103 L 1223,103 L 1223,104 L 1224,104 L 1224,105 L 1223,105 L 1224,105 L 1224,106 L 1225,106 L 1225,105 L 1226,105 L 1226,106 L 1226,107 L 1227,107 L 1228,107 L 1228,106 L 1229,106 L 1230,106 L 1230,107 L 1231,107 L 1232,107 L 1232,108 L 1233,108 L 1234,108 L 1234,109 L 1235,109 L 1235,108 L 1236,109 L 1235,109 L 1235,110 L 1236,110 L 1236,109 L 1237,109 L 1237,110 L 1237,109 L 1238,109 L 1238,110 L 1238,109 L 1238,110 L 1239,110 L 1239,109 L 1239,110 L 1240,110 L 1239,110 L 1240,110 L 1239,110 L 1239,111 L 1240,111 L 1240,110 L 1240,111 L 1241,111 L 1241,112 L 1242,112 L 1242,111 L 1243,111 L 1230,136 L 1223,139 L 1222,139 L 1222,140 L 1221,140 L 1220,141 L 1220,142 L 1220,143 L 1220,144 L 1221,145 L 1221,146 L 1221,147 L 1220,147 L 1219,148 L 1218,148 L 1217,148 L 1216,148 L 1215,149 L 1215,150 L 1215,151 L 1216,151 L 1217,151 L 1218,151 L 1220,151 L 1221,151 L 1222,151 L 1223,151 L 1224,151 L 1225,152 L 1226,153 L 1226,154 L 1227,155 L 1227,156 L 1227,157 L 1227,158 L 1226,159 L 1225,159 L 1225,160 L 1224,160 L 1224,161 L 1223,161 L 1223,162 L 1222,162 L 1222,163 L 1223,163 L 1235,166 L 1238,166 L 1238,175 L 1251,175 L 1251,197 L 1252,210 L 1252,216 L 1252,223 L 1252,240 L 1239,244 L 1239,242 L 1229,242 L 1228,242 L 1228,241 L 1227,240 L 1227,239 L 1226,239 L 1225,238 L 1224,237 L 1223,237 L 1223,236 L 1222,235 L 1222,234 L 1221,233 L 1221,232 L 1221,231 L 1221,230 L 1221,229 L 1222,229 L 1222,228 L 1222,227 L 1222,226 L 1222,225 L 1223,224 L 1224,223 L 1225,222 L 1226,221 L 1225,220 L 1225,219 L 1226,218 L 1226,217 L 1226,216 L 1225,215 L 1225,214 L 1224,214 L 1223,213 L 1222,213 L 1221,213 L 1220,213 L 1219,213 L 1218,213 L 1217,213 L 1215,214 L 1214,214 L 1213,213 L 1212,212 L 1211,212 L 1211,211 L 1211,210 L 1211,209 L 1211,208 L 1211,207 L 1210,206 L 1209,205 L 1208,205 L 1208,204 L 1207,204 L 1206,203 L 1206,202 L 1206,201 L 1206,200 L 1206,199 L 1207,198 L 1207,197 L 1207,196 L 1206,195 L 1206,194 L 1205,194 L 1204,193 L 1204,192 L 1203,192 L 1202,192 L 1201,192 L 1201,191 L 1200,191 L 1200,190 L 1200,189 L 1200,188 L 1200,187 L 1201,186 L 1202,185 L 1202,184 L 1203,183 L 1203,182 L 1204,181 L 1204,180 L 1204,179 L 1204,173 L 1194,175 L 1192,174 L 1191,174 L 1190,174 L 1189,172 L 1188,171 L 1188,170 L 1188,169 L 1187,168 L 1187,167 L 1186,167 L 1185,167 L 1184,167 L 1183,168 L 1182,168 L 1181,168 L 1180,167 L 1179,166 L 1179,165 L 1179,164 L 1179,163 L 1180,162 L 1181,161 L 1182,161 L 1182,160 L 1183,160 L 1184,159 L 1185,158 L 1185,157 L 1185,156 L 1185,155 L 1186,154 L 1186,153 L 1187,152 L 1186,151 L 1186,150 L 1186,149 L 1185,148 L 1185,147 L 1184,146 L 1183,146 L 1183,145 L 1182,145 L 1181,145 L 1180,145 L 1180,144 L 1179,144 L 1178,144 L 1177,143 L 1176,143 L 1175,143 L 1174,143 L 1173,142 L 1172,142 L 1172,141 L 1172,140 L 1173,139 L 1173,138 L 1173,137 L 1173,136 L 1173,135 L 1174,133 L 1175,133 L 1175,132 L 1176,131 L 1177,131 L 1178,131 L 1179,131 L 1180,131 L 1181,131 L 1182,131 L 1182,130 L 1181,129 L 1181,128 L 1180,127 L 1179,127 L 1178,126 L 1176,126 L 1175,126 L 1173,126 L 1171,126 L 1171,125 L 1171,124 L 1171,123 L 1171,122 L 1171,121 L 1171,120 L 1171,119 L 1172,117 L 1172,116 L 1171,115 L 1171,114 L 1170,114 L 1169,113 L 1169,112 L 1169,111 L 1168,111 L 1167,110 L 1166,110 L 1165,111 L 1164,111 L 1163,111 L 1162,111 L 1161,111 L 1161,112 L 1160,112 L 1159,113 L 1158,112 L 1159,112 L 1159,111 L 1159,110 L 1159,109 L 1159,108 L 1159,107 L 1160,106 L 1160,105 L 1161,105 L 1161,104 L 1162,104 L 1163,103 L 1163,102 L 1163,101 L 1163,100 L 1162,100 L 1161,99 L 1160,101 L 1159,99 L 1158,99 L 1157,99 L 1156,99 L 1155,99 L 1154,99 L 1154,100 L 1154,101 L 1154,102 L 1155,102 L 1156,103 L 1156,104 L 1157,104 L 1156,105 L 1156,106 L 1155,106 L 1155,107 L 1154,107 L 1154,108 L 1153,108 L 1153,107 L 1152,107 L 1152,106 L 1152,105 L 1152,104 L 1151,104 L 1150,104 L 1149,104 L 1148,103 L 1148,102 L 1147,102 L 1148,101 L 1149,100 L 1150,99 L 1151,98 L 1152,98 L 1153,97 L 1154,97 L 1155,97 L 1155,96 L 1155,95 L 1155,94 L 1154,94 L 1154,93 L 1153,93 L 1152,93 L 1151,94 L 1150,94 L 1148,94 L 1148,93 L 1147,92 L 1147,91 L 1147,90 L 1148,90 L 1149,89 L 1150,89 L 1150,90 L 1151,90 L 1152,91 L 1153,91 L 1153,90 L 1154,90 L 1155,90 L 1156,89 L 1156,88 L 1156,87 L 1156,86 L 1155,86 L 1154,85 L 1153,85 L 1152,85 L 1151,84 L 1151,83 L 1150,83 L 1150,82 L 1151,81 L 1151,80 L 1151,79 L 1151,78 L 1150,77 L 1149,76 L 1148,76 L 1148,75 L 1149,75 L 1150,75 L 1151,74 L 1152,72 L 1152,71 L 1152,70 L 1152,69 L 1151,69 L 1150,69 L 1149,69 L 1148,68 L 1147,68 L 1146,68 L 1145,67 L 1144,67 L 1143,67 L 1143,66 L 1142,65 L 1142,64 L 1142,63 L 1143,63 L 1143,62 L 1143,61 L 1142,61 L 1142,60 L 1141,60 L 1140,59 L 1140,58 L 1141,58 L 1142,58 L 1143,58 L 1144,58 L 1145,58 L 1145,59 L 1146,59 L 1146,58 L 1147,58 L 1147,56 L 1146,56 L 1146,55 L 1145,55 L 1144,54 L 1143,54 L 1142,54 L 1142,53 L 1141,53 L 1140,52 L 1140,51 L 1139,51 L 1139,50 L 1140,49 L 1141,49 L 1142,48 L 1142,49 L 1143,49 L 1144,48 L 1145,48 L 1146,47 L 1146,46 L 1145,45 L 1144,45 L 1143,45 L 1143,46 L 1142,46 L 1141,45 L 1141,44 L 1141,43 L 1142,43 L 1142,42 L 1143,42 L 1144,41 L 1145,40 L 1146,40 L 1146,39 L 1146,38 L 1145,38 L 1144,39 L 1143,39 L 1142,39 L 1142,40 L 1141,40 L 1141,39 L 1140,39 L 1139,38 L 1140,37 L 1140,36 L 1141,36 L 1142,36 L 1143,36 L 1143,35 L 1143,34 L 1142,34 L 1141,34 L 1140,33 L 1139,33 L 1139,32 L 1139,31 L 1139,30 L 1139,29 L 1138,29 L 1137,28 L 1136,28 L 1136,27 L 1136,26 L 1137,26 L 1137,25 L 1136,25 L 1135,25 L 1135,24 L 1134,24 L 1134,23 L 1133,23 L 1133,22 L 1133,21 L 1133,20 L 1134,20 L 1134,21 L 1135,21 L 1136,22 L 1136,23 L 1137,24 L 1138,24 L 1139,24 L 1139,23 L 1139,22 L 1138,21 L 1137,20 L 1137,19 L 1138,19 L 1138,18 L 1139,18 L 1139,17 L 1140,17 L 1140,16 L 1140,15 L 1140,14 L 1140,13 L 1139,13 L 1139,12 L 1138,12 L 1138,11 L 1139,11 L 1139,10 L 1140,10 L 1140,11 L 1141,11 L 1141,12 L 1141,13 L 1142,13 L 1142,12 L 1142,11 L 1142,10 L 1142,9 L 1143,9 L 1144,9 L 1144,10 L 1145,9 L 1146,8 L 1146,7 L 1146,6 L 1147,6 L 1148,6 L 1148,7 L 1149,7 L 1150,6 L 1150,5 L 1149,5 L 1149,4 L 1148,4 L 1148,3 L 1147,2 L 1147,1 L 1148,1 L 1149,1 L 1150,1 L 1150,0 L 1150,-1 L 1149,-2 L 1149,-3 L 1149,-4 L 1150,-4 L 1151,-4 L 1151,-5 L 1150,-6 L 1150,-7 L 1150,-8 L 1149,-8 L 1149,-9 L 1149,-10 L 1148,-11 L 1148,-12 L 1147,-12 L 1147,-13 L 1146,-13 L 1146,-12 L 1145,-12 L 1145,-11 L 1144,-11 L 1144,-12 L 1144,-13 L 1145,-14 L 1146,-14 L 1146,-15 L 1145,-15 L 1145,-16 L 1144,-16 L 1143,-15 L 1142,-15 L 1142,-14 L 1141,-14 L 1141,-15 L 1141,-16 L 1142,-16 L 1143,-16 L 1143,-17 L 1144,-17 L 1144,-18 L 1145,-18 L 1145,-19 L 1144,-19 L 1143,-20 L 1142,-19 L 1142,-18 L 1142,-17 L 1141,-17 L 1141,-18 L 1140,-18 L 1140,-19 L 1140,-20 L 1139,-21 L 1138,-21 L 1137,-21 L 1137,-22 L 1136,-22 L 1135,-23 L 1136,-23 L 1137,-23 L 1137,-24 L 1136,-24 L 1135,-24 L 1135,-25 L 1134,-25 L 1134,-26 L 1133,-26 L 1133,-27 L 1132,-27 L 1132,-28 L 1133,-28 L 1134,-28 L 1134,-29 L 1135,-29 L 1134,-29 L 1134,-30 L 1133,-30 L 1133,-31 L 1132,-31 L 1132,-32 L 1132,-33 L 1133,-33 L 1133,-34 L 1134,-34 L 1133,-34 L 1133,-35 L 1132,-35 L 1131,-35 L 1131,-36 L 1132,-36 L 1132,-37 L 1133,-37 L 1133,-36 L 1134,-36 L 1135,-36 L 1136,-36 L 1136,-37 L 1135,-38 L 1134,-39 L 1133,-39 L 1133,-40 L 1133,-41 L 1134,-41 L 1135,-41 L 1136,-41 L 1137,-41 L 1138,-41 L 1138,-40 L 1139,-40 L 1140,-40 L 1140,-41 L 1139,-42 L 1138,-42 L 1138,-43 L 1139,-43 L 1140,-44 L 1140,-45 L 1139,-45 L 1139,-46 L 1138,-46 L 1138,-47 L 1137,-47 L 1136,-47 L 1135,-47 L 1135,-48 L 1135,-49 L 1136,-49 L 1136,-50 L 1137,-50 L 1137,-51 L 1136,-51 L 1136,-52 L 1135,-52 L 1135,-51 L 1134,-51 L 1134,-52 L 1134,-53 L 1134,-54 L 1133,-54 L 1133,-55 L 1132,-55 L 1131,-55 L 1131,-56 L 1131,-57 L 1130,-57 L 1130,-56 L 1129,-56 L 1128,-56 L 1128,-57 L 1128,-58 L 1129,-58 L 1129,-59 L 1129,-60 L 1128,-60 L 1128,-61 L 1127,-62 L 1128,-62 L 1129,-62 L 1130,-62 L 1130,-63 L 1129,-63 L 1129,-64 L 1129,-65 L 1129,-66 L 1128,-66 L 1128,-67 L 1129,-68 L 1129,-69 L 1130,-69 L 1130,-70 L 1130,-71 L 1129,-71 L 1129,-70 L 1129,-69 L 1128,-68 L 1127,-68 L 1126,-68 L 1125,-68 L 1125,-69 L 1126,-69 L 1127,-70 L 1128,-70 L 1128,-71 L 1127,-72 L 1127,-73 L 1127,-74 L 1128,-74 L 1128,-73 L 1129,-73 L 1130,-73 L 1130,-72 L 1131,-72 L 1131,-71 L 1132,-71 L 1133,-71 L 1132,-71 L 1132,-72 L 1132,-73 L 1131,-73 L 1131,-74 L 1131,-75 L 1132,-75 L 1132,-74 L 1133,-74 L 1133,-73 L 1134,-73 L 1134,-74 L 1135,-74 L 1135,-75 L 1134,-75 L 1133,-75 L 1133,-76 L 1134,-76 L 1135,-76 L 1135,-77 L 1135,-78 L 1135,-79 L 1135,-80 L 1135,-81 L 1134,-81 L 1133,-81 L 1132,-81 L 1131,-81 L 1131,-82 L 1131,-83 L 1132,-83 L 1133,-83 L 1134,-83 L 1134,-84 L 1133,-84 L 1133,-85 L 1132,-86 L 1132,-87 L 1133,-87 L 1133,-88 L 1134,-88 L 1134,-89 L 1133,-89 L 1132,-89 L 1132,-90 L 1132,-91 L 1132,-92 L 1131,-92 L 1131,-91 L 1131,-90 L 1130,-89 L 1130,-90 L 1129,-90 L 1128,-90 L 1128,-89 L 1127,-89 L 1126,-89 L 1126,-90 L 1126,-91 L 1127,-91 L 1127,-92 L 1126,-92 L 1126,-93 L 1126,-94 L 1127,-94 L 1127,-95 L 1126,-95 L 1125,-95 L 1124,-95 L 1124,-96 L 1124,-97 L 1125,-97 L 1124,-98 L 1124,-97 L 1123,-97 L 1122,-96 L 1122,-97 L 1121,-97 L 1120,-98 L 1119,-98 L 1119,-99 L 1118,-100 L 1117,-100 L 1117,-101 L 1118,-101 L 1118,-102 L 1118,-103 L 1118,-104 L 1118,-105 L 1119,-105 L 1119,-106 L 1119,-107 L 1120,-108 L 1119,-109 L 1118,-109 L 1118,-110 L 1119,-111 L 1119,-112 L 1119,-111 L 1118,-111 L 1118,-112 L 1119,-112 L 1120,-113 L 1119,-114 L 1118,-114 L 1117,-114 L 1116,-115 L 1116,-116 L 1116,-117 L 1116,-118 L 1115,-118 L 1114,-118 L 1114,-117 L 1113,-117 L 1113,-118 L 1114,-118 L 1114,-119 L 1113,-119 L 1112,-119 L 1111,-120 L 1111,-121 L 1110,-121 L 1109,-122 L 1108,-122 L 1108,-123 L 1108,-124 L 1108,-125 L 1108,-126 L 1107,-126 L 1107,-127 L 1106,-127 L 1106,-128 L 1105,-127 L 1104,-127 L 1104,-128 L 1105,-128 L 1105,-129 L 1105,-130 L 1104,-130 L 1103,-130 L 1103,-131 L 1104,-131 L 1105,-132 L 1106,-131 L 1106,-132 L 1107,-132 " /></g>
</svg>
