<?xml version="1.0" standalone="no"?><!DOCTYPE svg PUBLIC "-//W3C//DTD SVG 1.1//EN" "http://www.w3.org/Graphics/SVG/1.1/DTD/svg11.dtd"><svg xmlns="http://www.w3.org/2000/svg" viewBox="1108 224 255 233" version = "1.1">
<g id="70401" ><path d="M 1315,225 L 1315,226 L 1315,227 L 1316,227 L 1316,228 L 1317,228 L 1317,229 L 1318,228 L 1319,228 L 1320,228 L 1321,228 L 1321,229 L 1320,229 L 1321,229 L 1322,229 L 1323,229 L 1323,230 L 1324,230 L 1324,231 L 1325,231 L 1326,231 L 1326,232 L 1327,232 L 1328,232 L 1328,233 L 1328,234 L 1329,234 L 1329,233 L 1330,233 L 1330,234 L 1331,234 L 1331,235 L 1331,236 L 1332,236 L 1332,237 L 1333,237 L 1332,237 L 1332,238 L 1333,238 L 1334,239 L 1333,239 L 1333,240 L 1335,242 L 1336,242 L 1337,243 L 1338,244 L 1339,244 L 1339,243 L 1340,243 L 1341,244 L 1341,245 L 1341,246 L 1341,247 L 1342,247 L 1341,247 L 1342,248 L 1342,249 L 1343,249 L 1343,248 L 1344,248 L 1343,249 L 1343,250 L 1344,251 L 1345,251 L 1345,252 L 1346,252 L 1346,253 L 1347,253 L 1348,253 L 1348,254 L 1349,254 L 1349,255 L 1349,256 L 1349,257 L 1348,257 L 1347,257 L 1346,257 L 1346,258 L 1346,259 L 1347,259 L 1346,259 L 1346,260 L 1347,260 L 1347,261 L 1346,261 L 1345,261 L 1345,260 L 1344,260 L 1344,259 L 1343,258 L 1343,259 L 1342,259 L 1342,260 L 1341,260 L 1341,261 L 1341,262 L 1342,262 L 1342,263 L 1343,264 L 1344,265 L 1345,265 L 1346,265 L 1347,265 L 1347,264 L 1346,264 L 1346,263 L 1347,263 L 1347,264 L 1348,264 L 1348,263 L 1349,263 L 1349,264 L 1349,265 L 1348,265 L 1347,265 L 1347,266 L 1346,266 L 1346,267 L 1345,268 L 1346,268 L 1346,269 L 1346,270 L 1345,270 L 1345,271 L 1345,272 L 1345,273 L 1346,273 L 1346,274 L 1346,275 L 1347,275 L 1346,276 L 1346,277 L 1347,277 L 1347,278 L 1346,278 L 1347,278 L 1347,279 L 1346,279 L 1346,278 L 1345,278 L 1345,277 L 1345,276 L 1344,276 L 1344,277 L 1344,278 L 1343,278 L 1342,278 L 1341,278 L 1341,279 L 1341,280 L 1341,281 L 1341,282 L 1340,282 L 1340,283 L 1340,284 L 1339,284 L 1339,285 L 1340,286 L 1339,287 L 1338,287 L 1338,288 L 1338,289 L 1338,290 L 1339,290 L 1338,291 L 1337,291 L 1337,290 L 1337,289 L 1337,290 L 1336,290 L 1336,291 L 1336,292 L 1335,292 L 1336,293 L 1336,294 L 1335,294 L 1336,294 L 1336,295 L 1337,294 L 1338,295 L 1339,296 L 1338,296 L 1338,297 L 1337,297 L 1337,298 L 1338,298 L 1338,299 L 1337,299 L 1338,299 L 1338,300 L 1338,301 L 1337,301 L 1336,301 L 1336,302 L 1337,302 L 1336,302 L 1337,302 L 1337,303 L 1338,303 L 1338,304 L 1338,305 L 1339,305 L 1339,304 L 1340,304 L 1340,305 L 1339,305 L 1340,305 L 1340,306 L 1340,305 L 1341,305 L 1341,306 L 1342,306 L 1342,307 L 1342,308 L 1343,308 L 1343,309 L 1343,310 L 1344,310 L 1345,311 L 1345,312 L 1345,313 L 1346,313 L 1347,313 L 1347,314 L 1348,314 L 1348,315 L 1348,316 L 1348,317 L 1348,318 L 1348,319 L 1349,319 L 1349,320 L 1350,320 L 1351,320 L 1351,321 L 1351,322 L 1352,322 L 1352,323 L 1353,324 L 1354,324 L 1355,324 L 1356,324 L 1357,324 L 1357,323 L 1358,323 L 1359,323 L 1360,323 L 1360,322 L 1361,322 L 1361,323 L 1362,323 L 1362,324 L 1362,325 L 1363,325 L 1362,326 L 1361,326 L 1361,327 L 1361,328 L 1361,329 L 1361,330 L 1361,331 L 1361,332 L 1362,332 L 1361,332 L 1361,333 L 1361,334 L 1360,334 L 1360,335 L 1361,335 L 1361,336 L 1361,337 L 1361,338 L 1360,338 L 1360,339 L 1360,340 L 1360,339 L 1359,339 L 1359,340 L 1360,340 L 1359,340 L 1359,341 L 1358,341 L 1358,342 L 1358,343 L 1357,343 L 1357,344 L 1357,343 L 1356,344 L 1356,345 L 1355,345 L 1355,346 L 1354,346 L 1354,347 L 1354,348 L 1354,349 L 1353,349 L 1354,349 L 1354,350 L 1353,350 L 1353,351 L 1353,352 L 1353,353 L 1352,353 L 1353,353 L 1353,354 L 1352,354 L 1352,355 L 1352,356 L 1351,356 L 1351,357 L 1351,358 L 1349,359 L 1349,360 L 1349,361 L 1348,361 L 1348,362 L 1346,364 L 1346,365 L 1345,367 L 1344,369 L 1344,370 L 1343,370 L 1343,371 L 1343,372 L 1343,373 L 1340,380 L 1341,383 L 1343,385 L 1342,386 L 1342,387 L 1341,387 L 1340,387 L 1339,388 L 1338,388 L 1338,389 L 1337,389 L 1337,390 L 1337,391 L 1337,392 L 1338,392 L 1338,393 L 1338,394 L 1337,394 L 1337,395 L 1337,396 L 1337,397 L 1336,397 L 1336,398 L 1335,398 L 1335,399 L 1335,400 L 1334,400 L 1334,401 L 1333,401 L 1334,401 L 1334,402 L 1333,402 L 1333,403 L 1334,403 L 1334,404 L 1334,405 L 1334,406 L 1333,406 L 1332,406 L 1332,407 L 1332,408 L 1331,408 L 1331,409 L 1330,409 L 1330,408 L 1329,408 L 1328,408 L 1328,409 L 1327,409 L 1327,410 L 1326,411 L 1325,411 L 1325,412 L 1324,412 L 1323,412 L 1323,413 L 1322,413 L 1322,414 L 1321,414 L 1320,414 L 1320,415 L 1319,415 L 1318,415 L 1317,415 L 1317,416 L 1316,416 L 1316,417 L 1315,417 L 1315,418 L 1315,419 L 1315,420 L 1315,421 L 1314,421 L 1313,421 L 1313,422 L 1312,422 L 1311,422 L 1311,423 L 1310,423 L 1309,423 L 1307,426 L 1306,426 L 1305,426 L 1305,427 L 1304,427 L 1304,428 L 1303,428 L 1303,429 L 1302,429 L 1301,429 L 1300,429 L 1300,430 L 1301,430 L 1301,431 L 1301,432 L 1302,432 L 1302,433 L 1302,432 L 1303,432 L 1304,431 L 1304,432 L 1305,432 L 1305,433 L 1306,433 L 1307,433 L 1307,434 L 1307,435 L 1308,435 L 1308,436 L 1308,437 L 1308,438 L 1308,439 L 1308,440 L 1308,441 L 1308,442 L 1309,442 L 1309,443 L 1310,443 L 1310,444 L 1310,445 L 1310,446 L 1310,447 L 1310,448 L 1310,449 L 1310,450 L 1310,451 L 1311,451 L 1310,451 L 1310,452 L 1310,453 L 1310,454 L 1310,455 L 1307,454 L 1304,454 L 1301,455 L 1300,454 L 1299,452 L 1298,452 L 1295,452 L 1293,453 L 1292,453 L 1290,452 L 1287,451 L 1285,453 L 1282,452 L 1282,451 L 1281,451 L 1281,452 L 1280,452 L 1279,453 L 1278,454 L 1277,454 L 1276,454 L 1275,454 L 1276,454 L 1275,455 L 1274,455 L 1273,455 L 1274,456 L 1273,456 L 1273,457 L 1272,457 L 1272,456 L 1271,456 L 1270,456 L 1269,456 L 1268,456 L 1268,457 L 1267,457 L 1267,456 L 1266,456 L 1266,457 L 1265,457 L 1264,457 L 1263,457 L 1263,456 L 1263,455 L 1262,455 L 1262,454 L 1261,454 L 1260,454 L 1259,454 L 1259,453 L 1259,452 L 1259,451 L 1259,450 L 1259,449 L 1258,448 L 1258,447 L 1257,447 L 1257,446 L 1257,445 L 1256,445 L 1257,445 L 1257,444 L 1257,443 L 1258,443 L 1258,442 L 1258,441 L 1258,440 L 1259,440 L 1258,440 L 1258,439 L 1259,439 L 1259,438 L 1260,438 L 1260,437 L 1261,437 L 1261,438 L 1261,437 L 1262,436 L 1262,435 L 1263,435 L 1262,435 L 1262,434 L 1261,434 L 1261,433 L 1260,433 L 1260,432 L 1260,431 L 1261,431 L 1261,430 L 1260,430 L 1260,429 L 1259,429 L 1260,429 L 1259,428 L 1259,427 L 1258,427 L 1257,427 L 1257,426 L 1256,426 L 1255,425 L 1254,425 L 1255,424 L 1255,423 L 1255,422 L 1254,422 L 1254,421 L 1255,421 L 1255,420 L 1256,420 L 1255,420 L 1255,419 L 1255,418 L 1256,418 L 1256,417 L 1256,418 L 1257,418 L 1257,417 L 1257,416 L 1258,416 L 1258,415 L 1258,416 L 1258,415 L 1257,415 L 1257,414 L 1257,413 L 1257,412 L 1256,412 L 1256,411 L 1255,411 L 1255,410 L 1255,409 L 1254,409 L 1254,408 L 1253,408 L 1253,407 L 1252,407 L 1252,406 L 1252,405 L 1251,405 L 1251,404 L 1251,403 L 1251,402 L 1251,403 L 1250,403 L 1249,403 L 1249,404 L 1249,403 L 1249,404 L 1248,404 L 1248,405 L 1248,404 L 1247,404 L 1247,405 L 1246,405 L 1245,405 L 1244,405 L 1243,405 L 1242,406 L 1243,406 L 1242,407 L 1241,407 L 1241,408 L 1241,407 L 1240,408 L 1241,408 L 1241,409 L 1240,409 L 1239,409 L 1239,410 L 1238,410 L 1238,409 L 1237,409 L 1237,410 L 1236,410 L 1235,410 L 1234,410 L 1234,409 L 1233,409 L 1233,410 L 1232,410 L 1233,410 L 1232,410 L 1231,410 L 1230,410 L 1230,409 L 1229,409 L 1228,409 L 1228,410 L 1228,409 L 1227,409 L 1226,409 L 1225,409 L 1224,409 L 1224,408 L 1223,408 L 1223,409 L 1222,409 L 1222,410 L 1221,410 L 1220,410 L 1219,410 L 1218,410 L 1217,409 L 1216,409 L 1215,409 L 1214,409 L 1213,409 L 1212,409 L 1211,409 L 1210,410 L 1209,410 L 1208,410 L 1207,410 L 1207,409 L 1205,406 L 1204,403 L 1199,402 L 1198,401 L 1193,401 L 1190,400 L 1190,397 L 1182,392 L 1181,392 L 1181,391 L 1181,390 L 1181,389 L 1180,389 L 1179,390 L 1179,389 L 1179,388 L 1179,387 L 1178,387 L 1178,388 L 1177,388 L 1177,387 L 1177,386 L 1176,386 L 1176,387 L 1176,386 L 1176,385 L 1175,385 L 1175,386 L 1175,385 L 1174,385 L 1174,384 L 1173,383 L 1172,382 L 1171,382 L 1172,382 L 1172,381 L 1173,381 L 1174,381 L 1173,381 L 1173,380 L 1173,379 L 1173,378 L 1173,377 L 1173,376 L 1172,375 L 1171,375 L 1170,375 L 1170,374 L 1169,374 L 1169,373 L 1168,372 L 1167,372 L 1167,371 L 1167,370 L 1166,370 L 1165,370 L 1165,369 L 1164,368 L 1164,367 L 1165,367 L 1164,367 L 1164,366 L 1163,366 L 1162,366 L 1161,366 L 1161,367 L 1160,367 L 1159,367 L 1158,367 L 1158,366 L 1157,366 L 1157,367 L 1157,366 L 1156,366 L 1155,366 L 1155,365 L 1154,365 L 1153,365 L 1152,365 L 1152,366 L 1151,366 L 1151,365 L 1150,365 L 1149,365 L 1148,365 L 1147,366 L 1147,367 L 1146,368 L 1146,369 L 1145,369 L 1144,369 L 1144,370 L 1143,370 L 1143,371 L 1143,372 L 1142,372 L 1142,373 L 1141,373 L 1140,373 L 1139,373 L 1138,373 L 1137,373 L 1137,372 L 1136,372 L 1135,372 L 1135,371 L 1134,371 L 1133,371 L 1133,370 L 1132,370 L 1132,371 L 1132,372 L 1133,373 L 1133,374 L 1133,375 L 1133,376 L 1133,377 L 1132,377 L 1132,378 L 1131,378 L 1131,379 L 1130,379 L 1129,379 L 1129,378 L 1128,377 L 1127,377 L 1126,377 L 1126,376 L 1125,376 L 1125,375 L 1124,375 L 1123,374 L 1123,375 L 1122,374 L 1122,373 L 1121,373 L 1121,372 L 1121,371 L 1120,371 L 1120,370 L 1119,370 L 1119,369 L 1118,368 L 1117,368 L 1117,367 L 1116,367 L 1116,366 L 1116,367 L 1115,367 L 1115,368 L 1114,368 L 1114,367 L 1113,367 L 1113,366 L 1112,366 L 1112,365 L 1111,365 L 1110,364 L 1110,365 L 1109,365 L 1108,365 L 1108,364 L 1108,363 L 1108,362 L 1108,361 L 1109,361 L 1109,360 L 1109,359 L 1110,359 L 1109,359 L 1109,358 L 1110,358 L 1110,357 L 1111,357 L 1110,357 L 1110,356 L 1111,356 L 1111,355 L 1111,354 L 1111,353 L 1112,354 L 1112,353 L 1112,354 L 1113,354 L 1113,353 L 1114,353 L 1114,352 L 1115,352 L 1116,352 L 1116,353 L 1117,353 L 1118,353 L 1119,353 L 1119,354 L 1120,354 L 1121,354 L 1121,353 L 1122,353 L 1123,353 L 1123,352 L 1124,352 L 1124,353 L 1125,353 L 1126,353 L 1125,352 L 1124,352 L 1124,351 L 1125,351 L 1125,350 L 1126,351 L 1127,351 L 1127,350 L 1127,349 L 1128,349 L 1128,350 L 1129,349 L 1128,349 L 1129,348 L 1129,347 L 1128,347 L 1127,347 L 1126,346 L 1126,345 L 1127,345 L 1127,344 L 1127,343 L 1127,342 L 1128,342 L 1129,343 L 1129,342 L 1128,342 L 1128,341 L 1129,341 L 1129,340 L 1130,340 L 1131,340 L 1131,339 L 1130,338 L 1130,337 L 1130,336 L 1130,335 L 1130,334 L 1130,333 L 1129,332 L 1130,332 L 1130,331 L 1130,330 L 1131,330 L 1131,329 L 1131,328 L 1132,328 L 1133,328 L 1133,327 L 1134,327 L 1134,326 L 1135,326 L 1136,326 L 1136,325 L 1137,325 L 1137,324 L 1138,324 L 1139,323 L 1138,322 L 1138,321 L 1139,321 L 1139,320 L 1139,319 L 1139,318 L 1140,317 L 1141,317 L 1141,318 L 1142,318 L 1143,318 L 1143,319 L 1144,319 L 1145,320 L 1146,321 L 1147,321 L 1147,322 L 1148,322 L 1148,323 L 1149,323 L 1150,323 L 1151,323 L 1151,324 L 1152,324 L 1153,324 L 1153,325 L 1154,325 L 1155,325 L 1156,325 L 1157,325 L 1158,325 L 1159,325 L 1160,325 L 1161,325 L 1162,325 L 1163,325 L 1163,324 L 1163,325 L 1163,324 L 1164,324 L 1164,323 L 1165,323 L 1166,323 L 1166,324 L 1166,325 L 1167,325 L 1168,325 L 1169,325 L 1169,324 L 1170,324 L 1171,324 L 1172,325 L 1172,324 L 1172,325 L 1173,325 L 1173,326 L 1174,326 L 1175,325 L 1176,325 L 1176,324 L 1177,324 L 1177,323 L 1176,323 L 1175,323 L 1174,323 L 1174,322 L 1174,321 L 1174,320 L 1175,320 L 1175,319 L 1175,318 L 1176,317 L 1176,316 L 1176,315 L 1176,314 L 1177,314 L 1177,313 L 1177,312 L 1178,312 L 1179,311 L 1180,310 L 1181,309 L 1182,309 L 1182,308 L 1183,307 L 1184,307 L 1185,307 L 1187,307 L 1188,307 L 1190,308 L 1191,309 L 1191,310 L 1191,311 L 1191,312 L 1192,312 L 1193,312 L 1194,313 L 1195,313 L 1195,314 L 1196,314 L 1196,315 L 1197,315 L 1197,314 L 1198,314 L 1199,314 L 1199,313 L 1200,313 L 1201,313 L 1202,313 L 1203,313 L 1204,313 L 1204,312 L 1205,312 L 1205,311 L 1206,310 L 1207,310 L 1207,309 L 1207,308 L 1208,308 L 1208,307 L 1209,306 L 1210,307 L 1210,308 L 1211,308 L 1211,309 L 1211,310 L 1211,311 L 1212,311 L 1213,310 L 1213,311 L 1213,312 L 1213,313 L 1214,313 L 1215,313 L 1216,313 L 1216,314 L 1217,315 L 1218,316 L 1219,317 L 1219,318 L 1218,318 L 1218,319 L 1219,320 L 1220,321 L 1220,322 L 1221,323 L 1221,324 L 1222,325 L 1221,325 L 1221,326 L 1221,327 L 1222,327 L 1222,328 L 1223,329 L 1222,329 L 1222,330 L 1221,330 L 1221,331 L 1221,332 L 1222,332 L 1223,332 L 1223,331 L 1224,331 L 1225,331 L 1226,331 L 1232,326 L 1233,325 L 1235,324 L 1238,322 L 1239,322 L 1241,320 L 1242,319 L 1243,318 L 1249,315 L 1249,314 L 1250,315 L 1250,314 L 1251,314 L 1251,313 L 1251,312 L 1251,311 L 1251,310 L 1250,310 L 1250,309 L 1251,309 L 1251,308 L 1252,308 L 1252,307 L 1254,307 L 1259,303 L 1259,302 L 1260,301 L 1260,300 L 1261,300 L 1260,299 L 1261,299 L 1262,299 L 1262,298 L 1263,298 L 1263,297 L 1264,297 L 1264,296 L 1264,297 L 1265,297 L 1265,296 L 1264,296 L 1264,295 L 1264,294 L 1264,293 L 1264,292 L 1263,292 L 1263,291 L 1264,291 L 1264,290 L 1264,289 L 1265,289 L 1265,288 L 1266,288 L 1267,288 L 1269,286 L 1270,284 L 1270,283 L 1270,282 L 1270,281 L 1269,280 L 1269,279 L 1270,278 L 1270,277 L 1269,277 L 1269,276 L 1269,275 L 1268,275 L 1269,275 L 1269,274 L 1268,274 L 1269,274 L 1269,273 L 1269,272 L 1268,272 L 1268,271 L 1269,271 L 1270,271 L 1270,270 L 1271,270 L 1272,270 L 1273,270 L 1273,269 L 1274,269 L 1274,268 L 1275,268 L 1275,267 L 1276,267 L 1277,267 L 1277,266 L 1277,265 L 1278,265 L 1278,264 L 1278,263 L 1279,263 L 1280,263 L 1280,262 L 1281,262 L 1282,261 L 1285,260 L 1288,258 L 1290,257 L 1291,257 L 1291,256 L 1290,256 L 1291,256 L 1291,255 L 1291,254 L 1292,254 L 1292,253 L 1291,253 L 1292,253 L 1291,253 L 1292,253 L 1292,252 L 1292,251 L 1292,250 L 1292,249 L 1291,249 L 1291,248 L 1291,247 L 1291,246 L 1291,245 L 1290,245 L 1289,244 L 1289,243 L 1288,243 L 1288,242 L 1289,242 L 1289,241 L 1290,241 L 1290,240 L 1290,239 L 1291,239 L 1291,240 L 1291,239 L 1292,239 L 1292,238 L 1292,237 L 1293,236 L 1293,235 L 1293,234 L 1292,234 L 1292,233 L 1292,232 L 1292,231 L 1293,231 L 1293,232 L 1293,233 L 1294,233 L 1294,234 L 1295,234 L 1295,233 L 1296,233 L 1297,233 L 1297,234 L 1297,233 L 1298,233 L 1299,232 L 1299,233 L 1300,233 L 1301,233 L 1302,233 L 1303,233 L 1303,234 L 1303,235 L 1303,234 L 1303,235 L 1304,235 L 1304,234 L 1304,233 L 1304,232 L 1305,232 L 1305,233 L 1306,233 L 1307,233 L 1307,232 L 1306,232 L 1307,232 L 1308,232 L 1308,231 L 1309,231 L 1310,231 L 1311,231 L 1311,230 L 1312,230 L 1312,229 L 1311,229 L 1312,229 L 1312,228 L 1312,227 L 1313,227 L 1312,227 L 1313,227 L 1313,226 L 1312,226 L 1313,226 L 1313,225 L 1314,225 L 1314,226 L 1314,225 L 1315,225 L 1315,224 L 1315,225 " /></g>
</svg>
