<?xml version="1.0" standalone="no"?><!DOCTYPE svg PUBLIC "-//W3C//DTD SVG 1.1//EN" "http://www.w3.org/Graphics/SVG/1.1/DTD/svg11.dtd"><svg xmlns="http://www.w3.org/2000/svg" viewBox="898 -288 338 614" version = "1.1">
<g id="70403" ><path d="M 936,-288 L 938,-287 L 939,-287 L 940,-287 L 940,-286 L 939,-285 L 939,-284 L 939,-283 L 938,-282 L 938,-281 L 939,-281 L 939,-280 L 940,-280 L 940,-281 L 940,-282 L 941,-282 L 942,-283 L 943,-283 L 943,-282 L 944,-282 L 943,-281 L 942,-281 L 942,-280 L 942,-279 L 943,-279 L 944,-280 L 945,-280 L 946,-280 L 947,-280 L 948,-280 L 949,-279 L 948,-279 L 947,-279 L 947,-278 L 948,-277 L 948,-276 L 949,-276 L 950,-276 L 951,-276 L 952,-275 L 952,-274 L 951,-274 L 950,-273 L 949,-273 L 949,-272 L 949,-271 L 948,-270 L 949,-269 L 950,-269 L 950,-268 L 949,-267 L 950,-266 L 951,-265 L 953,-264 L 954,-264 L 954,-263 L 955,-263 L 956,-262 L 956,-261 L 957,-259 L 958,-258 L 959,-258 L 960,-258 L 961,-259 L 961,-260 L 962,-260 L 962,-261 L 963,-260 L 963,-259 L 964,-259 L 966,-259 L 967,-260 L 967,-261 L 967,-262 L 968,-262 L 969,-262 L 970,-262 L 971,-262 L 972,-262 L 972,-261 L 972,-260 L 971,-259 L 970,-257 L 970,-256 L 969,-256 L 969,-255 L 970,-255 L 971,-255 L 972,-254 L 973,-254 L 974,-253 L 974,-251 L 974,-250 L 975,-250 L 976,-250 L 977,-250 L 978,-250 L 979,-250 L 980,-250 L 981,-250 L 982,-250 L 983,-250 L 982,-249 L 982,-248 L 982,-247 L 981,-247 L 980,-247 L 979,-247 L 979,-246 L 980,-245 L 980,-244 L 981,-244 L 981,-243 L 982,-243 L 982,-242 L 983,-242 L 983,-241 L 984,-241 L 984,-242 L 984,-243 L 983,-244 L 982,-244 L 982,-245 L 983,-245 L 983,-246 L 984,-246 L 985,-245 L 986,-244 L 987,-244 L 988,-243 L 989,-243 L 990,-243 L 990,-244 L 989,-244 L 989,-245 L 988,-245 L 988,-246 L 987,-246 L 987,-247 L 987,-248 L 987,-249 L 988,-249 L 989,-249 L 989,-248 L 990,-248 L 990,-247 L 990,-246 L 991,-246 L 992,-245 L 993,-245 L 993,-244 L 993,-243 L 994,-243 L 995,-244 L 995,-245 L 996,-245 L 996,-246 L 995,-246 L 994,-246 L 993,-246 L 992,-246 L 992,-247 L 993,-248 L 993,-249 L 994,-249 L 994,-250 L 995,-250 L 995,-249 L 996,-247 L 996,-246 L 997,-245 L 997,-244 L 997,-243 L 997,-242 L 998,-242 L 999,-242 L 1000,-242 L 1000,-243 L 1000,-244 L 999,-244 L 999,-245 L 1000,-245 L 1001,-245 L 1002,-245 L 1003,-245 L 1003,-244 L 1004,-243 L 1004,-242 L 1004,-241 L 1003,-241 L 1003,-239 L 1002,-239 L 1002,-238 L 1001,-239 L 1000,-239 L 1000,-240 L 999,-240 L 999,-239 L 999,-238 L 998,-238 L 998,-237 L 997,-237 L 997,-236 L 996,-236 L 996,-235 L 996,-234 L 996,-233 L 996,-232 L 997,-232 L 998,-233 L 999,-234 L 1000,-234 L 1001,-234 L 1002,-234 L 1003,-234 L 1004,-234 L 1005,-233 L 1006,-233 L 1007,-232 L 1007,-231 L 1007,-230 L 1008,-230 L 1007,-230 L 1006,-229 L 1005,-229 L 1005,-228 L 1005,-227 L 1005,-226 L 1006,-226 L 1007,-226 L 1007,-225 L 1008,-225 L 1009,-225 L 1009,-224 L 1010,-224 L 1011,-223 L 1010,-223 L 1009,-223 L 1009,-222 L 1008,-222 L 1009,-222 L 1009,-221 L 1010,-221 L 1010,-222 L 1011,-222 L 1011,-221 L 1010,-221 L 1010,-220 L 1011,-220 L 1012,-220 L 1013,-221 L 1014,-221 L 1015,-221 L 1015,-222 L 1015,-223 L 1016,-223 L 1016,-222 L 1017,-222 L 1018,-222 L 1019,-222 L 1019,-223 L 1020,-223 L 1021,-223 L 1022,-223 L 1022,-222 L 1023,-223 L 1023,-224 L 1023,-225 L 1023,-226 L 1024,-226 L 1024,-225 L 1025,-225 L 1025,-226 L 1025,-227 L 1026,-227 L 1026,-228 L 1027,-227 L 1027,-226 L 1026,-226 L 1026,-225 L 1026,-224 L 1026,-223 L 1025,-223 L 1024,-222 L 1024,-221 L 1025,-220 L 1024,-220 L 1024,-219 L 1024,-218 L 1025,-218 L 1025,-217 L 1026,-217 L 1026,-216 L 1027,-215 L 1028,-215 L 1028,-216 L 1029,-216 L 1029,-215 L 1030,-214 L 1029,-214 L 1029,-213 L 1029,-212 L 1030,-212 L 1030,-213 L 1031,-213 L 1032,-213 L 1031,-212 L 1032,-211 L 1032,-212 L 1033,-212 L 1034,-212 L 1035,-212 L 1036,-212 L 1037,-212 L 1037,-213 L 1036,-213 L 1036,-214 L 1037,-214 L 1037,-213 L 1038,-213 L 1039,-213 L 1039,-212 L 1040,-212 L 1040,-211 L 1039,-211 L 1039,-210 L 1040,-210 L 1041,-209 L 1041,-208 L 1042,-208 L 1042,-207 L 1043,-207 L 1043,-206 L 1044,-206 L 1045,-206 L 1045,-207 L 1046,-207 L 1046,-206 L 1046,-205 L 1047,-205 L 1047,-206 L 1048,-206 L 1048,-207 L 1049,-207 L 1049,-208 L 1050,-208 L 1051,-208 L 1052,-209 L 1053,-208 L 1052,-207 L 1053,-207 L 1054,-207 L 1054,-208 L 1055,-208 L 1056,-207 L 1057,-207 L 1058,-207 L 1058,-208 L 1059,-208 L 1059,-207 L 1060,-207 L 1061,-207 L 1062,-207 L 1062,-206 L 1063,-206 L 1064,-205 L 1064,-204 L 1065,-204 L 1066,-204 L 1066,-203 L 1066,-202 L 1066,-201 L 1066,-200 L 1066,-201 L 1067,-201 L 1067,-200 L 1068,-200 L 1069,-200 L 1069,-199 L 1070,-199 L 1070,-198 L 1071,-197 L 1071,-198 L 1072,-198 L 1072,-197 L 1071,-196 L 1071,-195 L 1072,-195 L 1073,-194 L 1073,-193 L 1072,-193 L 1072,-192 L 1073,-192 L 1073,-191 L 1074,-191 L 1074,-190 L 1075,-190 L 1075,-189 L 1074,-188 L 1073,-188 L 1074,-188 L 1074,-187 L 1074,-186 L 1073,-186 L 1073,-185 L 1073,-184 L 1074,-183 L 1074,-182 L 1075,-183 L 1076,-183 L 1076,-182 L 1076,-183 L 1077,-183 L 1078,-183 L 1079,-183 L 1080,-183 L 1081,-183 L 1082,-183 L 1082,-182 L 1081,-182 L 1082,-182 L 1082,-181 L 1083,-181 L 1083,-180 L 1084,-180 L 1084,-179 L 1085,-178 L 1085,-177 L 1086,-177 L 1085,-176 L 1085,-177 L 1084,-177 L 1084,-176 L 1084,-175 L 1085,-175 L 1085,-174 L 1086,-174 L 1086,-173 L 1087,-173 L 1087,-172 L 1088,-172 L 1088,-171 L 1089,-171 L 1089,-170 L 1089,-169 L 1090,-169 L 1090,-170 L 1091,-170 L 1091,-169 L 1092,-169 L 1092,-168 L 1092,-167 L 1091,-167 L 1091,-166 L 1092,-166 L 1092,-165 L 1093,-165 L 1093,-166 L 1093,-167 L 1094,-167 L 1094,-168 L 1095,-168 L 1095,-167 L 1095,-166 L 1096,-166 L 1097,-166 L 1097,-165 L 1098,-165 L 1099,-164 L 1100,-165 L 1100,-164 L 1101,-164 L 1101,-165 L 1101,-164 L 1102,-164 L 1102,-163 L 1102,-162 L 1101,-162 L 1100,-162 L 1100,-161 L 1101,-161 L 1102,-161 L 1102,-160 L 1103,-160 L 1104,-159 L 1103,-159 L 1103,-158 L 1102,-158 L 1101,-158 L 1102,-158 L 1103,-157 L 1103,-156 L 1102,-156 L 1101,-156 L 1101,-155 L 1101,-154 L 1101,-153 L 1102,-153 L 1103,-154 L 1104,-154 L 1104,-153 L 1103,-153 L 1102,-153 L 1102,-152 L 1101,-151 L 1100,-150 L 1101,-149 L 1102,-150 L 1103,-151 L 1103,-150 L 1103,-149 L 1102,-149 L 1102,-148 L 1102,-147 L 1102,-146 L 1102,-145 L 1102,-144 L 1101,-145 L 1100,-145 L 1099,-145 L 1099,-144 L 1100,-144 L 1101,-144 L 1102,-143 L 1103,-143 L 1102,-142 L 1102,-143 L 1101,-142 L 1101,-141 L 1102,-140 L 1102,-141 L 1103,-141 L 1103,-140 L 1104,-140 L 1105,-140 L 1105,-141 L 1106,-141 L 1106,-140 L 1105,-139 L 1106,-138 L 1107,-137 L 1107,-136 L 1106,-136 L 1106,-137 L 1105,-137 L 1104,-137 L 1103,-137 L 1102,-136 L 1102,-135 L 1102,-134 L 1102,-133 L 1103,-133 L 1104,-133 L 1104,-134 L 1104,-135 L 1105,-134 L 1105,-133 L 1106,-133 L 1106,-132 L 1105,-132 L 1104,-131 L 1103,-131 L 1103,-130 L 1104,-130 L 1105,-130 L 1105,-129 L 1105,-128 L 1104,-128 L 1104,-127 L 1105,-127 L 1106,-128 L 1106,-127 L 1107,-127 L 1107,-126 L 1108,-126 L 1108,-125 L 1108,-124 L 1108,-123 L 1108,-122 L 1109,-122 L 1110,-121 L 1111,-121 L 1111,-120 L 1112,-119 L 1113,-119 L 1114,-119 L 1114,-118 L 1113,-118 L 1113,-117 L 1114,-117 L 1114,-118 L 1115,-118 L 1116,-118 L 1116,-117 L 1116,-116 L 1116,-115 L 1117,-114 L 1118,-114 L 1119,-114 L 1120,-113 L 1119,-112 L 1118,-112 L 1118,-111 L 1119,-111 L 1119,-112 L 1119,-111 L 1118,-110 L 1118,-109 L 1119,-109 L 1120,-108 L 1119,-107 L 1119,-106 L 1119,-105 L 1118,-105 L 1118,-104 L 1118,-103 L 1118,-102 L 1118,-101 L 1117,-101 L 1117,-100 L 1118,-100 L 1119,-99 L 1119,-98 L 1120,-98 L 1121,-97 L 1122,-97 L 1122,-96 L 1123,-97 L 1124,-97 L 1124,-98 L 1125,-97 L 1124,-97 L 1124,-96 L 1124,-95 L 1125,-95 L 1126,-95 L 1127,-95 L 1127,-94 L 1126,-94 L 1126,-93 L 1126,-92 L 1127,-92 L 1127,-91 L 1126,-91 L 1126,-90 L 1126,-89 L 1127,-89 L 1128,-89 L 1128,-90 L 1129,-90 L 1130,-90 L 1130,-89 L 1131,-90 L 1131,-91 L 1131,-92 L 1132,-92 L 1132,-91 L 1132,-90 L 1132,-89 L 1133,-89 L 1134,-89 L 1134,-88 L 1133,-88 L 1133,-87 L 1132,-87 L 1132,-86 L 1133,-85 L 1133,-84 L 1134,-84 L 1134,-83 L 1133,-83 L 1132,-83 L 1131,-83 L 1131,-82 L 1131,-81 L 1132,-81 L 1133,-81 L 1134,-81 L 1135,-81 L 1135,-80 L 1135,-79 L 1135,-78 L 1135,-77 L 1135,-76 L 1134,-76 L 1133,-76 L 1133,-75 L 1134,-75 L 1135,-75 L 1135,-74 L 1134,-74 L 1134,-73 L 1133,-73 L 1133,-74 L 1132,-74 L 1132,-75 L 1131,-75 L 1131,-74 L 1131,-73 L 1132,-73 L 1132,-72 L 1132,-71 L 1133,-71 L 1132,-71 L 1131,-71 L 1131,-72 L 1130,-72 L 1130,-73 L 1129,-73 L 1128,-73 L 1128,-74 L 1127,-74 L 1127,-73 L 1127,-72 L 1128,-71 L 1128,-70 L 1127,-70 L 1126,-69 L 1125,-69 L 1125,-68 L 1126,-68 L 1127,-68 L 1128,-68 L 1129,-69 L 1129,-70 L 1129,-71 L 1130,-71 L 1130,-70 L 1130,-69 L 1129,-69 L 1129,-68 L 1128,-67 L 1128,-66 L 1129,-66 L 1129,-65 L 1129,-64 L 1129,-63 L 1130,-63 L 1130,-62 L 1129,-62 L 1128,-62 L 1127,-62 L 1128,-61 L 1128,-60 L 1129,-60 L 1129,-59 L 1129,-58 L 1128,-58 L 1128,-57 L 1128,-56 L 1129,-56 L 1130,-56 L 1130,-57 L 1131,-57 L 1131,-56 L 1131,-55 L 1132,-55 L 1133,-55 L 1133,-54 L 1134,-54 L 1134,-53 L 1134,-52 L 1134,-51 L 1135,-51 L 1135,-52 L 1136,-52 L 1136,-51 L 1137,-51 L 1137,-50 L 1136,-50 L 1136,-49 L 1135,-49 L 1135,-48 L 1135,-47 L 1136,-47 L 1137,-47 L 1138,-47 L 1138,-46 L 1139,-46 L 1139,-45 L 1140,-45 L 1140,-44 L 1139,-43 L 1138,-43 L 1138,-42 L 1139,-42 L 1140,-41 L 1140,-40 L 1139,-40 L 1138,-40 L 1138,-41 L 1137,-41 L 1136,-41 L 1135,-41 L 1134,-41 L 1133,-41 L 1133,-40 L 1133,-39 L 1134,-39 L 1135,-38 L 1136,-37 L 1136,-36 L 1135,-36 L 1134,-36 L 1133,-36 L 1133,-37 L 1132,-37 L 1132,-36 L 1131,-36 L 1131,-35 L 1132,-35 L 1133,-35 L 1133,-34 L 1134,-34 L 1133,-34 L 1133,-33 L 1132,-33 L 1132,-32 L 1132,-31 L 1133,-31 L 1133,-30 L 1134,-30 L 1134,-29 L 1135,-29 L 1134,-29 L 1134,-28 L 1133,-28 L 1132,-28 L 1132,-27 L 1133,-27 L 1133,-26 L 1134,-26 L 1134,-25 L 1135,-25 L 1135,-24 L 1136,-24 L 1137,-24 L 1137,-23 L 1136,-23 L 1135,-23 L 1136,-22 L 1137,-22 L 1137,-21 L 1138,-21 L 1139,-21 L 1140,-20 L 1140,-19 L 1140,-18 L 1141,-18 L 1141,-17 L 1142,-17 L 1142,-18 L 1142,-19 L 1143,-20 L 1144,-19 L 1145,-19 L 1145,-18 L 1144,-18 L 1144,-17 L 1143,-17 L 1143,-16 L 1142,-16 L 1141,-16 L 1141,-15 L 1141,-14 L 1142,-14 L 1142,-15 L 1143,-15 L 1144,-16 L 1145,-16 L 1145,-15 L 1146,-15 L 1146,-14 L 1145,-14 L 1144,-13 L 1144,-12 L 1144,-11 L 1145,-11 L 1145,-12 L 1146,-12 L 1146,-13 L 1147,-13 L 1147,-12 L 1148,-12 L 1148,-11 L 1149,-10 L 1149,-9 L 1149,-8 L 1150,-8 L 1150,-7 L 1150,-6 L 1151,-5 L 1151,-4 L 1150,-4 L 1149,-4 L 1149,-3 L 1149,-2 L 1150,-1 L 1150,0 L 1150,1 L 1149,1 L 1148,1 L 1147,1 L 1147,2 L 1148,3 L 1148,4 L 1149,4 L 1149,5 L 1150,5 L 1150,6 L 1149,7 L 1148,7 L 1148,6 L 1147,6 L 1146,6 L 1146,7 L 1146,8 L 1145,9 L 1144,10 L 1144,9 L 1143,9 L 1142,9 L 1142,10 L 1142,11 L 1142,12 L 1142,13 L 1141,13 L 1141,12 L 1141,11 L 1140,11 L 1140,10 L 1139,10 L 1139,11 L 1138,11 L 1138,12 L 1139,12 L 1139,13 L 1140,13 L 1140,14 L 1140,15 L 1140,16 L 1140,17 L 1139,17 L 1139,18 L 1138,18 L 1138,19 L 1137,19 L 1137,20 L 1138,21 L 1139,22 L 1139,23 L 1139,24 L 1138,24 L 1137,24 L 1136,23 L 1136,22 L 1135,21 L 1134,21 L 1134,20 L 1133,20 L 1133,21 L 1133,22 L 1133,23 L 1134,23 L 1134,24 L 1135,24 L 1135,25 L 1136,25 L 1137,25 L 1137,26 L 1136,26 L 1136,27 L 1136,28 L 1137,28 L 1138,29 L 1139,29 L 1139,30 L 1139,31 L 1139,32 L 1139,33 L 1140,33 L 1141,34 L 1142,34 L 1143,34 L 1143,35 L 1143,36 L 1142,36 L 1141,36 L 1140,36 L 1140,37 L 1139,38 L 1140,39 L 1141,39 L 1141,40 L 1142,40 L 1142,39 L 1143,39 L 1144,39 L 1145,38 L 1146,38 L 1146,39 L 1146,40 L 1145,40 L 1144,41 L 1143,42 L 1142,42 L 1142,43 L 1141,43 L 1141,44 L 1141,45 L 1142,46 L 1143,46 L 1143,45 L 1144,45 L 1145,45 L 1146,46 L 1146,47 L 1145,48 L 1144,48 L 1143,49 L 1142,49 L 1142,48 L 1141,49 L 1140,49 L 1139,50 L 1139,51 L 1140,51 L 1140,52 L 1141,53 L 1142,53 L 1142,54 L 1143,54 L 1144,54 L 1145,55 L 1146,55 L 1146,56 L 1147,56 L 1147,58 L 1146,58 L 1146,59 L 1145,59 L 1145,58 L 1144,58 L 1143,58 L 1142,58 L 1141,58 L 1140,58 L 1140,59 L 1141,60 L 1142,60 L 1142,61 L 1143,61 L 1143,62 L 1143,63 L 1142,63 L 1142,64 L 1142,65 L 1143,66 L 1143,67 L 1144,67 L 1145,67 L 1146,68 L 1147,68 L 1148,68 L 1149,69 L 1150,69 L 1151,69 L 1152,69 L 1152,70 L 1152,71 L 1152,72 L 1151,74 L 1150,75 L 1149,75 L 1148,75 L 1148,76 L 1149,76 L 1150,77 L 1151,78 L 1151,79 L 1151,80 L 1151,81 L 1150,82 L 1150,83 L 1151,83 L 1151,84 L 1152,85 L 1153,85 L 1154,85 L 1155,86 L 1156,86 L 1156,87 L 1156,88 L 1156,89 L 1155,90 L 1154,90 L 1153,90 L 1153,91 L 1152,91 L 1151,90 L 1150,90 L 1150,89 L 1149,89 L 1148,90 L 1147,90 L 1147,91 L 1147,92 L 1148,93 L 1148,94 L 1150,94 L 1151,94 L 1152,93 L 1153,93 L 1154,93 L 1154,94 L 1155,94 L 1155,95 L 1155,96 L 1155,97 L 1154,97 L 1153,97 L 1152,98 L 1151,98 L 1150,99 L 1149,100 L 1148,101 L 1147,102 L 1148,102 L 1148,103 L 1149,104 L 1150,104 L 1151,104 L 1152,104 L 1152,105 L 1152,106 L 1152,107 L 1153,107 L 1153,108 L 1154,108 L 1154,107 L 1155,107 L 1155,106 L 1156,106 L 1156,105 L 1157,104 L 1156,104 L 1156,103 L 1155,102 L 1154,102 L 1154,101 L 1154,100 L 1154,99 L 1155,99 L 1156,99 L 1157,99 L 1158,99 L 1159,99 L 1160,101 L 1161,99 L 1162,100 L 1163,100 L 1163,101 L 1163,102 L 1163,103 L 1162,104 L 1161,104 L 1161,105 L 1160,105 L 1160,106 L 1159,107 L 1159,108 L 1159,109 L 1159,110 L 1159,111 L 1159,112 L 1158,112 L 1159,113 L 1160,112 L 1161,112 L 1161,111 L 1162,111 L 1163,111 L 1164,111 L 1165,111 L 1166,110 L 1167,110 L 1168,111 L 1169,111 L 1169,112 L 1169,113 L 1170,114 L 1171,114 L 1171,115 L 1172,116 L 1172,117 L 1171,119 L 1171,120 L 1171,121 L 1171,122 L 1171,123 L 1171,124 L 1171,125 L 1171,126 L 1173,126 L 1175,126 L 1176,126 L 1178,126 L 1179,127 L 1180,127 L 1181,128 L 1181,129 L 1182,130 L 1182,131 L 1181,131 L 1180,131 L 1179,131 L 1178,131 L 1177,131 L 1176,131 L 1175,132 L 1175,133 L 1174,133 L 1173,135 L 1173,136 L 1173,137 L 1173,138 L 1173,139 L 1172,140 L 1172,141 L 1172,142 L 1173,142 L 1174,143 L 1175,143 L 1176,143 L 1177,143 L 1178,144 L 1179,144 L 1180,144 L 1180,145 L 1181,145 L 1182,145 L 1183,145 L 1183,146 L 1184,146 L 1185,147 L 1185,148 L 1186,149 L 1186,150 L 1186,151 L 1187,152 L 1186,153 L 1186,154 L 1185,155 L 1185,156 L 1185,157 L 1185,158 L 1184,159 L 1183,160 L 1182,160 L 1182,161 L 1181,161 L 1180,162 L 1179,163 L 1179,164 L 1179,165 L 1179,166 L 1180,167 L 1181,168 L 1182,168 L 1183,168 L 1184,167 L 1185,167 L 1186,167 L 1187,167 L 1187,168 L 1188,169 L 1188,170 L 1188,171 L 1189,172 L 1190,174 L 1191,174 L 1192,174 L 1194,175 L 1204,173 L 1204,179 L 1204,180 L 1204,181 L 1203,182 L 1203,183 L 1202,184 L 1202,185 L 1201,186 L 1200,187 L 1200,188 L 1200,189 L 1200,190 L 1200,191 L 1201,191 L 1201,192 L 1202,192 L 1203,192 L 1204,192 L 1204,193 L 1205,194 L 1206,194 L 1206,195 L 1207,196 L 1207,197 L 1207,198 L 1206,199 L 1206,200 L 1206,201 L 1206,202 L 1206,203 L 1207,204 L 1208,204 L 1208,205 L 1209,205 L 1210,206 L 1211,207 L 1211,208 L 1211,209 L 1211,210 L 1211,211 L 1211,212 L 1212,212 L 1213,213 L 1214,214 L 1215,214 L 1217,213 L 1218,213 L 1219,213 L 1220,213 L 1221,213 L 1222,213 L 1223,213 L 1224,214 L 1225,214 L 1225,215 L 1226,216 L 1226,217 L 1226,218 L 1225,219 L 1225,220 L 1226,221 L 1225,222 L 1224,223 L 1223,224 L 1222,225 L 1222,226 L 1222,227 L 1222,228 L 1222,229 L 1221,229 L 1221,230 L 1221,231 L 1221,232 L 1221,233 L 1222,234 L 1222,235 L 1223,236 L 1223,237 L 1224,237 L 1225,238 L 1226,239 L 1227,239 L 1227,240 L 1228,241 L 1228,242 L 1229,242 L 1229,243 L 1230,245 L 1231,246 L 1232,248 L 1234,249 L 1234,251 L 1233,252 L 1232,253 L 1232,254 L 1232,255 L 1233,257 L 1234,257 L 1235,258 L 1236,260 L 1235,261 L 1234,262 L 1233,263 L 1232,263 L 1232,264 L 1231,264 L 1230,266 L 1229,267 L 1228,268 L 1227,270 L 1226,272 L 1226,273 L 1225,275 L 1225,276 L 1225,277 L 1226,278 L 1226,279 L 1226,280 L 1227,281 L 1228,282 L 1228,283 L 1228,284 L 1228,286 L 1229,287 L 1229,288 L 1229,289 L 1228,289 L 1227,289 L 1226,288 L 1225,287 L 1223,286 L 1223,285 L 1222,285 L 1221,284 L 1220,284 L 1219,284 L 1219,285 L 1218,285 L 1217,286 L 1216,287 L 1215,287 L 1214,288 L 1213,288 L 1213,289 L 1213,290 L 1212,291 L 1212,292 L 1212,293 L 1213,294 L 1214,295 L 1214,296 L 1213,296 L 1213,297 L 1213,298 L 1213,299 L 1213,300 L 1212,300 L 1211,301 L 1212,301 L 1213,301 L 1213,302 L 1212,302 L 1211,302 L 1211,303 L 1211,304 L 1210,304 L 1209,304 L 1208,305 L 1209,306 L 1208,307 L 1208,308 L 1207,308 L 1207,309 L 1207,310 L 1206,310 L 1205,311 L 1205,312 L 1204,312 L 1204,313 L 1203,313 L 1202,313 L 1201,313 L 1200,313 L 1199,313 L 1199,314 L 1198,314 L 1197,314 L 1197,315 L 1196,315 L 1196,314 L 1195,314 L 1195,313 L 1194,313 L 1193,312 L 1192,312 L 1191,312 L 1191,311 L 1191,310 L 1191,309 L 1190,308 L 1188,307 L 1187,307 L 1185,307 L 1184,307 L 1183,307 L 1182,308 L 1182,309 L 1181,309 L 1180,310 L 1179,311 L 1178,312 L 1177,312 L 1177,313 L 1177,314 L 1176,314 L 1176,315 L 1176,316 L 1176,317 L 1175,318 L 1175,319 L 1175,320 L 1174,320 L 1174,321 L 1174,322 L 1174,323 L 1175,323 L 1176,323 L 1177,323 L 1177,324 L 1176,324 L 1176,325 L 1175,325 L 1174,326 L 1173,326 L 1173,325 L 1172,325 L 1172,324 L 1172,325 L 1171,324 L 1170,324 L 1169,324 L 1169,325 L 1168,325 L 1167,325 L 1166,325 L 1166,324 L 1166,323 L 1165,323 L 1164,323 L 1164,324 L 1163,324 L 1163,325 L 1163,324 L 1163,325 L 1162,325 L 1161,325 L 1160,325 L 1159,325 L 1158,325 L 1157,325 L 1156,325 L 1155,325 L 1154,325 L 1153,325 L 1153,324 L 1152,324 L 1151,324 L 1151,323 L 1150,323 L 1149,323 L 1148,323 L 1148,322 L 1147,322 L 1147,321 L 1146,321 L 1145,320 L 1144,319 L 1143,319 L 1143,318 L 1142,318 L 1141,318 L 1141,317 L 1141,316 L 1140,316 L 1141,315 L 1140,315 L 1140,314 L 1140,313 L 1140,312 L 1140,311 L 1141,311 L 1141,310 L 1141,309 L 1141,308 L 1142,308 L 1141,308 L 1141,307 L 1142,307 L 1143,307 L 1142,306 L 1142,305 L 1142,304 L 1141,303 L 1140,303 L 1140,302 L 1141,302 L 1142,302 L 1142,301 L 1142,300 L 1141,299 L 1141,298 L 1140,298 L 1139,297 L 1138,297 L 1137,297 L 1136,297 L 1135,297 L 1135,296 L 1134,296 L 1133,296 L 1132,296 L 1132,295 L 1131,295 L 1130,295 L 1130,294 L 1129,294 L 1128,294 L 1128,293 L 1127,293 L 1126,293 L 1125,292 L 1124,292 L 1124,291 L 1123,291 L 1122,291 L 1121,291 L 1121,292 L 1120,292 L 1120,291 L 1119,291 L 1119,290 L 1118,290 L 1117,290 L 1116,290 L 1115,290 L 1115,289 L 1114,289 L 1113,288 L 1113,289 L 1112,289 L 1112,288 L 1111,288 L 1111,287 L 1111,286 L 1110,286 L 1108,285 L 1107,285 L 1107,284 L 1106,284 L 1106,283 L 1105,282 L 1105,281 L 1104,281 L 1103,280 L 1103,279 L 1102,279 L 1101,279 L 1100,279 L 1100,278 L 1100,277 L 1099,277 L 1099,276 L 1099,275 L 1098,274 L 1098,273 L 1098,272 L 1098,271 L 1099,270 L 1098,270 L 1098,269 L 1099,269 L 1099,268 L 1099,267 L 1098,267 L 1097,267 L 1096,267 L 1095,267 L 1095,266 L 1095,265 L 1095,264 L 1096,264 L 1097,263 L 1097,262 L 1097,261 L 1098,261 L 1097,260 L 1097,258 L 1097,257 L 1096,256 L 1096,255 L 1095,255 L 1095,254 L 1095,253 L 1096,253 L 1096,252 L 1097,252 L 1098,252 L 1098,251 L 1097,251 L 1096,250 L 1096,249 L 1097,248 L 1098,248 L 1099,248 L 1100,248 L 1100,247 L 1100,246 L 1101,246 L 1101,245 L 1101,244 L 1101,243 L 1101,242 L 1102,242 L 1102,241 L 1102,240 L 1102,239 L 1103,239 L 1102,239 L 1102,238 L 1102,237 L 1101,237 L 1101,236 L 1102,236 L 1102,235 L 1101,235 L 1101,234 L 1101,233 L 1102,233 L 1102,232 L 1102,231 L 1101,230 L 1101,229 L 1100,229 L 1100,228 L 1101,228 L 1100,228 L 1100,227 L 1100,226 L 1099,225 L 1099,224 L 1100,224 L 1100,223 L 1100,222 L 1100,221 L 1101,221 L 1101,220 L 1100,220 L 1099,220 L 1099,219 L 1099,218 L 1098,217 L 1098,216 L 1099,216 L 1099,215 L 1098,215 L 1097,214 L 1096,214 L 1095,213 L 1094,213 L 1094,214 L 1093,214 L 1092,214 L 1092,213 L 1092,212 L 1091,212 L 1090,212 L 1089,211 L 1088,211 L 1088,210 L 1089,210 L 1089,209 L 1088,209 L 1087,209 L 1086,209 L 1086,208 L 1086,207 L 1086,206 L 1086,205 L 1086,204 L 1087,204 L 1086,203 L 1086,202 L 1085,202 L 1084,202 L 1083,202 L 1082,202 L 1081,202 L 1080,201 L 1080,200 L 1079,200 L 1078,200 L 1077,200 L 1077,201 L 1076,201 L 1077,202 L 1077,203 L 1078,203 L 1078,204 L 1079,204 L 1080,205 L 1080,206 L 1080,207 L 1079,207 L 1078,206 L 1077,206 L 1076,205 L 1076,204 L 1076,203 L 1075,202 L 1074,202 L 1073,202 L 1072,202 L 1071,202 L 1070,202 L 1069,202 L 1068,203 L 1067,202 L 1067,201 L 1067,200 L 1067,199 L 1067,198 L 1067,197 L 1068,196 L 1069,195 L 1070,195 L 1071,196 L 1072,196 L 1073,195 L 1073,194 L 1073,193 L 1072,193 L 1071,193 L 1070,192 L 1069,192 L 1068,191 L 1068,190 L 1068,189 L 1068,188 L 1069,188 L 1069,187 L 1069,186 L 1070,185 L 1069,185 L 1069,184 L 1068,183 L 1068,184 L 1067,184 L 1066,184 L 1065,184 L 1065,185 L 1064,185 L 1063,185 L 1062,186 L 1062,187 L 1062,188 L 1063,189 L 1063,190 L 1063,191 L 1062,191 L 1061,191 L 1060,191 L 1059,191 L 1058,191 L 1057,191 L 1056,190 L 1057,190 L 1057,189 L 1057,188 L 1058,188 L 1058,187 L 1058,186 L 1058,185 L 1058,184 L 1057,183 L 1056,182 L 1055,181 L 1056,180 L 1057,180 L 1058,180 L 1059,180 L 1060,180 L 1061,180 L 1061,179 L 1062,178 L 1062,177 L 1061,176 L 1060,175 L 1059,175 L 1058,176 L 1057,176 L 1057,177 L 1056,177 L 1055,177 L 1054,176 L 1054,175 L 1053,174 L 1053,173 L 1052,172 L 1051,172 L 1050,172 L 1049,173 L 1048,173 L 1047,172 L 1047,171 L 1047,170 L 1048,170 L 1049,170 L 1050,169 L 1051,169 L 1052,169 L 1052,168 L 1052,167 L 1051,166 L 1050,165 L 1049,165 L 1048,166 L 1048,167 L 1047,167 L 1046,168 L 1045,168 L 1044,168 L 1044,167 L 1044,166 L 1044,165 L 1045,164 L 1047,164 L 1048,164 L 1049,164 L 1050,164 L 1050,163 L 1050,162 L 1049,161 L 1048,160 L 1047,160 L 1046,161 L 1046,162 L 1045,163 L 1045,164 L 1044,164 L 1043,164 L 1042,164 L 1042,163 L 1042,162 L 1041,161 L 1040,161 L 1039,161 L 1039,162 L 1039,163 L 1039,164 L 1039,165 L 1039,166 L 1038,167 L 1037,167 L 1036,167 L 1035,166 L 1035,165 L 1035,164 L 1035,163 L 1036,162 L 1037,161 L 1037,160 L 1037,159 L 1036,158 L 1035,157 L 1034,157 L 1033,158 L 1032,159 L 1032,160 L 1031,161 L 1030,161 L 1029,161 L 1028,161 L 1027,160 L 1027,159 L 1026,158 L 1025,158 L 1024,158 L 1023,159 L 1022,160 L 1021,160 L 1020,160 L 1019,160 L 1019,159 L 1018,159 L 1017,159 L 1017,158 L 1017,157 L 1017,156 L 1018,156 L 1019,155 L 1020,155 L 1021,155 L 1021,154 L 1021,153 L 1021,152 L 1020,152 L 1019,151 L 1018,150 L 1017,150 L 1015,149 L 1014,148 L 1014,147 L 1014,146 L 1014,145 L 1013,144 L 1012,144 L 1011,144 L 1010,144 L 1009,145 L 1008,146 L 1008,147 L 1007,147 L 1006,147 L 1006,146 L 1005,145 L 1004,145 L 1003,144 L 1001,144 L 1000,143 L 999,143 L 998,144 L 997,144 L 997,143 L 997,142 L 997,141 L 998,140 L 998,139 L 999,138 L 1000,138 L 1001,138 L 1002,138 L 1003,137 L 1003,136 L 1003,135 L 1004,135 L 1005,135 L 1006,135 L 1007,135 L 1008,135 L 1008,134 L 1008,133 L 1007,133 L 1006,132 L 1005,133 L 1003,133 L 1002,133 L 1001,133 L 999,132 L 998,132 L 997,133 L 997,134 L 997,135 L 997,136 L 996,137 L 995,137 L 994,136 L 993,136 L 992,135 L 992,134 L 991,133 L 990,133 L 989,133 L 988,134 L 987,134 L 987,133 L 986,132 L 986,131 L 987,131 L 988,130 L 989,130 L 990,129 L 991,128 L 992,127 L 992,126 L 991,125 L 990,124 L 989,124 L 988,125 L 987,126 L 986,127 L 985,128 L 985,130 L 984,131 L 984,132 L 983,132 L 982,132 L 982,131 L 981,130 L 980,129 L 979,129 L 978,129 L 977,128 L 976,128 L 976,127 L 976,126 L 977,125 L 978,125 L 979,126 L 980,126 L 981,127 L 982,127 L 982,128 L 983,128 L 984,127 L 984,126 L 984,125 L 983,125 L 982,124 L 981,124 L 980,123 L 980,122 L 979,122 L 978,122 L 977,123 L 976,124 L 976,125 L 975,126 L 974,125 L 973,125 L 973,124 L 973,123 L 973,122 L 974,121 L 975,120 L 974,119 L 973,118 L 973,119 L 972,119 L 971,120 L 970,120 L 970,121 L 970,122 L 971,123 L 972,124 L 972,125 L 971,126 L 970,126 L 969,127 L 968,127 L 967,126 L 966,125 L 966,124 L 966,123 L 966,121 L 966,120 L 967,119 L 968,119 L 969,118 L 970,118 L 971,117 L 971,116 L 970,115 L 969,115 L 968,115 L 967,115 L 966,116 L 965,116 L 964,116 L 963,116 L 962,116 L 961,115 L 960,114 L 959,114 L 958,115 L 958,116 L 958,117 L 959,117 L 959,118 L 959,119 L 958,119 L 957,119 L 957,118 L 956,118 L 955,118 L 954,118 L 954,119 L 953,119 L 953,120 L 952,120 L 951,120 L 950,120 L 950,119 L 949,118 L 950,117 L 950,116 L 950,115 L 949,114 L 949,113 L 950,112 L 951,112 L 952,113 L 953,113 L 954,114 L 955,114 L 955,113 L 956,113 L 956,112 L 955,111 L 954,110 L 954,109 L 952,109 L 951,108 L 949,108 L 948,109 L 947,109 L 947,111 L 948,112 L 948,113 L 947,114 L 946,114 L 945,115 L 944,114 L 944,113 L 943,112 L 943,111 L 943,110 L 944,109 L 946,108 L 947,108 L 948,107 L 949,107 L 949,106 L 949,105 L 949,104 L 950,103 L 951,103 L 952,104 L 953,105 L 953,106 L 954,107 L 955,106 L 955,105 L 955,104 L 954,103 L 953,102 L 952,102 L 951,101 L 949,100 L 948,99 L 947,98 L 946,98 L 945,98 L 944,98 L 944,99 L 944,100 L 944,101 L 945,102 L 945,103 L 945,104 L 944,104 L 943,104 L 942,104 L 941,103 L 940,102 L 940,101 L 941,100 L 941,99 L 942,99 L 943,98 L 943,97 L 943,95 L 942,94 L 941,94 L 940,95 L 939,97 L 938,98 L 936,98 L 935,98 L 934,97 L 934,96 L 933,96 L 932,95 L 931,94 L 930,94 L 931,93 L 932,93 L 932,94 L 933,94 L 934,93 L 935,93 L 935,92 L 935,91 L 934,90 L 933,90 L 933,89 L 933,88 L 934,88 L 935,88 L 936,88 L 936,89 L 937,89 L 937,90 L 938,90 L 939,90 L 939,89 L 940,88 L 939,87 L 938,86 L 937,86 L 936,85 L 934,85 L 933,86 L 932,87 L 931,87 L 930,86 L 929,85 L 929,84 L 930,83 L 931,82 L 932,81 L 933,81 L 934,81 L 935,81 L 936,80 L 937,80 L 937,79 L 937,78 L 936,77 L 935,76 L 935,75 L 934,75 L 933,75 L 932,76 L 932,77 L 932,78 L 931,79 L 930,79 L 929,79 L 928,79 L 927,79 L 927,78 L 926,78 L 926,77 L 926,76 L 927,75 L 928,75 L 929,75 L 930,74 L 931,74 L 932,73 L 933,73 L 934,72 L 934,70 L 934,69 L 933,69 L 932,68 L 931,69 L 930,69 L 930,70 L 929,71 L 928,71 L 927,72 L 926,72 L 924,72 L 923,72 L 923,71 L 923,70 L 923,69 L 924,69 L 925,68 L 927,68 L 929,68 L 930,68 L 931,67 L 932,67 L 933,66 L 933,65 L 933,64 L 932,64 L 931,64 L 930,64 L 929,64 L 928,64 L 926,64 L 925,65 L 925,66 L 924,66 L 924,67 L 923,67 L 922,67 L 922,66 L 921,65 L 920,64 L 919,64 L 918,63 L 917,62 L 916,61 L 916,60 L 916,59 L 916,58 L 916,57 L 915,56 L 915,55 L 916,54 L 916,53 L 917,52 L 918,52 L 919,51 L 920,50 L 920,49 L 920,48 L 919,47 L 918,46 L 917,45 L 916,45 L 915,45 L 914,46 L 913,46 L 912,45 L 911,44 L 911,42 L 911,41 L 910,40 L 909,39 L 908,39 L 908,38 L 907,38 L 907,37 L 907,36 L 908,36 L 909,35 L 909,36 L 910,36 L 911,36 L 911,37 L 912,38 L 913,38 L 914,38 L 914,37 L 915,37 L 915,36 L 915,35 L 914,34 L 913,34 L 912,34 L 911,34 L 910,34 L 909,34 L 908,35 L 907,35 L 906,36 L 905,37 L 904,37 L 903,38 L 902,38 L 901,38 L 901,37 L 901,36 L 902,35 L 903,33 L 903,32 L 902,31 L 902,30 L 901,29 L 900,29 L 899,28 L 898,26 L 899,25 L 899,24 L 900,24 L 900,23 L 901,23 L 901,22 L 902,21 L 903,21 L 905,21 L 906,22 L 906,23 L 908,23 L 910,24 L 911,25 L 912,25 L 913,26 L 913,27 L 913,28 L 914,29 L 915,30 L 916,30 L 917,29 L 918,29 L 918,28 L 919,27 L 919,26 L 919,25 L 919,23 L 919,21 L 919,20 L 918,19 L 917,19 L 916,18 L 915,18 L 914,18 L 913,18 L 912,17 L 911,17 L 910,15 L 909,14 L 909,13 L 910,12 L 910,11 L 911,11 L 912,11 L 914,10 L 915,10 L 916,9 L 917,8 L 918,7 L 918,6 L 918,4 L 918,3 L 918,1 L 918,0 L 919,0 L 920,-1 L 921,-2 L 922,-2 L 922,-1 L 923,-1 L 924,0 L 924,1 L 924,2 L 923,3 L 922,4 L 922,5 L 922,6 L 922,7 L 922,8 L 923,8 L 924,8 L 925,8 L 926,8 L 927,7 L 927,6 L 927,5 L 927,4 L 927,3 L 927,2 L 927,1 L 927,0 L 928,0 L 928,-1 L 927,-2 L 926,-3 L 925,-4 L 924,-5 L 923,-6 L 922,-7 L 921,-7 L 920,-7 L 919,-7 L 918,-7 L 917,-8 L 916,-8 L 916,-9 L 916,-10 L 917,-11 L 917,-12 L 918,-13 L 919,-14 L 919,-15 L 920,-16 L 921,-17 L 923,-17 L 924,-18 L 927,-20 L 928,-21 L 929,-22 L 930,-23 L 930,-24 L 930,-26 L 930,-27 L 930,-29 L 930,-30 L 930,-32 L 930,-34 L 929,-35 L 928,-35 L 926,-35 L 926,-36 L 926,-37 L 927,-38 L 928,-39 L 929,-39 L 930,-40 L 931,-40 L 932,-40 L 933,-41 L 933,-42 L 933,-43 L 933,-44 L 932,-45 L 931,-46 L 930,-47 L 929,-47 L 929,-48 L 929,-49 L 930,-50 L 931,-51 L 932,-51 L 933,-51 L 934,-51 L 936,-51 L 938,-51 L 939,-51 L 940,-50 L 940,-49 L 940,-48 L 939,-47 L 938,-46 L 937,-44 L 937,-43 L 938,-43 L 938,-42 L 939,-41 L 940,-41 L 942,-41 L 943,-41 L 944,-42 L 944,-43 L 944,-44 L 945,-45 L 945,-46 L 946,-47 L 946,-48 L 946,-49 L 945,-50 L 944,-51 L 943,-51 L 942,-52 L 942,-53 L 942,-54 L 943,-55 L 944,-56 L 946,-56 L 947,-56 L 949,-57 L 950,-58 L 950,-59 L 950,-60 L 949,-60 L 948,-60 L 947,-60 L 946,-59 L 946,-58 L 945,-58 L 944,-58 L 943,-58 L 942,-58 L 942,-59 L 942,-60 L 942,-61 L 943,-62 L 943,-63 L 944,-63 L 945,-64 L 946,-64 L 947,-64 L 948,-63 L 949,-63 L 950,-62 L 951,-62 L 951,-61 L 952,-60 L 953,-60 L 954,-60 L 954,-61 L 955,-61 L 955,-62 L 955,-63 L 955,-64 L 954,-65 L 954,-66 L 953,-67 L 952,-69 L 951,-69 L 951,-70 L 950,-71 L 951,-72 L 951,-73 L 952,-74 L 953,-74 L 954,-75 L 954,-76 L 954,-77 L 953,-77 L 953,-78 L 951,-78 L 950,-78 L 949,-78 L 948,-78 L 947,-79 L 947,-80 L 947,-81 L 947,-82 L 948,-82 L 950,-83 L 951,-83 L 952,-83 L 953,-84 L 954,-85 L 954,-86 L 955,-86 L 956,-87 L 957,-88 L 957,-89 L 958,-91 L 959,-92 L 960,-93 L 961,-94 L 961,-95 L 961,-96 L 960,-96 L 959,-97 L 958,-97 L 957,-96 L 956,-96 L 955,-95 L 954,-95 L 953,-94 L 951,-94 L 950,-94 L 949,-94 L 948,-94 L 948,-95 L 948,-96 L 948,-97 L 949,-98 L 950,-98 L 951,-99 L 951,-100 L 950,-101 L 949,-101 L 948,-101 L 947,-101 L 946,-101 L 945,-102 L 944,-102 L 944,-103 L 943,-103 L 943,-104 L 943,-105 L 944,-106 L 945,-106 L 946,-106 L 947,-106 L 948,-105 L 949,-105 L 950,-104 L 951,-104 L 952,-103 L 953,-102 L 954,-102 L 954,-101 L 954,-100 L 954,-99 L 955,-99 L 956,-99 L 957,-100 L 958,-100 L 958,-101 L 958,-102 L 958,-103 L 958,-104 L 958,-105 L 957,-106 L 958,-107 L 958,-108 L 959,-109 L 960,-110 L 961,-110 L 962,-111 L 963,-111 L 964,-111 L 965,-112 L 965,-113 L 965,-114 L 964,-115 L 963,-115 L 962,-115 L 961,-115 L 960,-114 L 958,-113 L 957,-113 L 956,-112 L 955,-112 L 954,-112 L 953,-113 L 953,-114 L 953,-115 L 954,-116 L 955,-117 L 957,-118 L 958,-119 L 961,-119 L 962,-120 L 963,-120 L 964,-121 L 964,-122 L 964,-123 L 963,-123 L 962,-124 L 961,-124 L 960,-125 L 959,-125 L 958,-125 L 957,-125 L 956,-125 L 955,-125 L 954,-125 L 953,-124 L 952,-124 L 952,-123 L 951,-122 L 950,-122 L 949,-122 L 949,-123 L 948,-123 L 948,-124 L 948,-125 L 949,-125 L 949,-126 L 950,-127 L 951,-128 L 951,-129 L 952,-129 L 952,-130 L 953,-130 L 953,-131 L 954,-132 L 955,-133 L 956,-134 L 957,-134 L 958,-134 L 958,-135 L 958,-136 L 958,-137 L 958,-138 L 958,-139 L 958,-140 L 957,-140 L 957,-141 L 956,-141 L 955,-141 L 954,-141 L 954,-142 L 954,-143 L 955,-144 L 956,-146 L 956,-148 L 956,-150 L 956,-151 L 956,-152 L 955,-153 L 953,-153 L 952,-154 L 951,-154 L 950,-155 L 948,-155 L 947,-156 L 945,-157 L 944,-157 L 944,-158 L 944,-159 L 944,-160 L 945,-161 L 946,-162 L 947,-162 L 947,-163 L 948,-164 L 949,-164 L 949,-163 L 949,-162 L 949,-161 L 948,-160 L 949,-160 L 949,-159 L 950,-159 L 951,-159 L 952,-159 L 952,-160 L 953,-161 L 952,-162 L 952,-163 L 952,-164 L 953,-165 L 953,-166 L 954,-167 L 954,-168 L 955,-169 L 956,-171 L 956,-172 L 956,-173 L 955,-174 L 955,-175 L 955,-176 L 954,-176 L 953,-177 L 952,-178 L 951,-179 L 952,-180 L 953,-181 L 954,-181 L 955,-181 L 955,-182 L 956,-182 L 956,-183 L 956,-185 L 957,-185 L 957,-186 L 958,-187 L 959,-188 L 958,-189 L 957,-189 L 956,-189 L 955,-189 L 954,-188 L 953,-187 L 952,-186 L 952,-185 L 952,-184 L 952,-183 L 952,-182 L 951,-182 L 950,-182 L 949,-182 L 948,-183 L 947,-184 L 947,-185 L 946,-185 L 947,-186 L 947,-187 L 948,-187 L 949,-187 L 950,-188 L 950,-189 L 950,-190 L 949,-191 L 948,-191 L 947,-192 L 946,-192 L 945,-191 L 944,-191 L 943,-192 L 942,-193 L 941,-193 L 940,-194 L 939,-194 L 938,-194 L 937,-194 L 937,-195 L 938,-196 L 939,-197 L 940,-198 L 941,-199 L 942,-199 L 944,-199 L 945,-198 L 946,-197 L 946,-196 L 946,-194 L 946,-193 L 946,-192 L 947,-192 L 948,-192 L 949,-193 L 950,-194 L 950,-195 L 949,-196 L 948,-197 L 948,-198 L 948,-199 L 948,-200 L 949,-202 L 949,-203 L 948,-203 L 947,-203 L 946,-203 L 945,-202 L 945,-200 L 944,-200 L 943,-200 L 942,-200 L 941,-201 L 941,-202 L 942,-203 L 943,-204 L 944,-206 L 944,-207 L 945,-208 L 946,-209 L 946,-210 L 946,-211 L 945,-211 L 945,-212 L 944,-212 L 943,-212 L 942,-213 L 941,-213 L 940,-214 L 940,-215 L 939,-215 L 938,-215 L 938,-214 L 938,-213 L 939,-212 L 940,-211 L 940,-210 L 939,-209 L 938,-208 L 937,-208 L 936,-208 L 936,-209 L 935,-210 L 935,-211 L 936,-213 L 936,-215 L 937,-216 L 937,-217 L 939,-218 L 940,-218 L 941,-218 L 942,-218 L 943,-218 L 944,-217 L 945,-217 L 946,-217 L 946,-218 L 946,-219 L 945,-220 L 943,-221 L 942,-221 L 940,-221 L 938,-220 L 937,-219 L 936,-219 L 935,-219 L 935,-220 L 935,-221 L 935,-222 L 936,-223 L 937,-225 L 939,-226 L 941,-227 L 942,-228 L 943,-229 L 943,-230 L 943,-231 L 943,-232 L 943,-233 L 942,-233 L 941,-234 L 940,-233 L 939,-233 L 938,-232 L 938,-230 L 938,-229 L 938,-228 L 937,-227 L 936,-227 L 935,-227 L 934,-227 L 933,-227 L 932,-228 L 933,-228 L 933,-229 L 934,-229 L 935,-230 L 935,-231 L 936,-234 L 937,-235 L 938,-236 L 938,-237 L 937,-237 L 937,-238 L 936,-238 L 935,-238 L 934,-238 L 933,-238 L 932,-238 L 931,-238 L 930,-237 L 929,-237 L 928,-237 L 927,-238 L 928,-239 L 928,-240 L 928,-241 L 928,-242 L 928,-243 L 929,-245 L 929,-246 L 930,-247 L 931,-247 L 932,-247 L 933,-247 L 935,-247 L 936,-248 L 936,-249 L 936,-250 L 936,-251 L 935,-252 L 934,-253 L 933,-253 L 932,-254 L 931,-256 L 931,-257 L 931,-258 L 932,-258 L 933,-257 L 934,-256 L 935,-255 L 936,-254 L 937,-254 L 938,-254 L 938,-255 L 939,-256 L 938,-256 L 938,-257 L 937,-258 L 937,-261 L 936,-262 L 935,-262 L 934,-263 L 933,-263 L 932,-264 L 931,-264 L 930,-264 L 929,-265 L 929,-266 L 929,-267 L 929,-268 L 930,-269 L 931,-270 L 931,-271 L 931,-272 L 932,-273 L 932,-274 L 932,-275 L 932,-276 L 933,-277 L 934,-278 L 935,-280 L 936,-282 L 937,-284 L 937,-285 L 937,-286 L 936,-287 L 936,-288 " /></g>
</svg>
