<?xml version="1.0" standalone="no"?><!DOCTYPE svg PUBLIC "-//W3C//DTD SVG 1.1//EN" "http://www.w3.org/Graphics/SVG/1.1/DTD/svg11.dtd"><svg xmlns="http://www.w3.org/2000/svg" viewBox="1208 109 110 223" version = "1.1">
<g id="70402" ><path d="M 1249,109 L 1250,109 L 1251,109 L 1250,109 L 1251,109 L 1251,110 L 1252,110 L 1252,111 L 1253,111 L 1252,110 L 1253,110 L 1254,110 L 1255,110 L 1256,110 L 1255,110 L 1255,111 L 1256,111 L 1255,111 L 1256,111 L 1256,112 L 1257,112 L 1256,112 L 1257,112 L 1257,113 L 1257,112 L 1257,113 L 1258,112 L 1257,112 L 1258,112 L 1259,112 L 1260,112 L 1261,112 L 1261,113 L 1261,114 L 1261,115 L 1262,115 L 1262,116 L 1263,116 L 1263,115 L 1263,114 L 1263,113 L 1264,114 L 1264,113 L 1265,113 L 1265,114 L 1265,113 L 1266,114 L 1266,115 L 1266,116 L 1266,117 L 1267,117 L 1267,118 L 1267,119 L 1267,120 L 1268,121 L 1269,121 L 1269,122 L 1270,123 L 1269,123 L 1269,124 L 1270,124 L 1271,124 L 1270,124 L 1270,125 L 1271,125 L 1270,126 L 1270,127 L 1271,127 L 1271,128 L 1272,128 L 1272,129 L 1273,129 L 1273,130 L 1272,130 L 1273,131 L 1273,130 L 1274,130 L 1274,129 L 1275,129 L 1275,130 L 1275,131 L 1276,131 L 1276,132 L 1277,132 L 1277,131 L 1277,132 L 1278,132 L 1278,131 L 1278,132 L 1278,131 L 1278,132 L 1279,132 L 1279,131 L 1280,132 L 1281,132 L 1282,132 L 1282,133 L 1282,132 L 1282,133 L 1283,132 L 1283,131 L 1284,131 L 1284,132 L 1285,132 L 1286,132 L 1286,133 L 1286,134 L 1287,134 L 1287,135 L 1287,136 L 1287,135 L 1288,135 L 1288,136 L 1289,136 L 1290,136 L 1290,137 L 1291,136 L 1291,137 L 1292,138 L 1292,139 L 1293,140 L 1293,141 L 1294,141 L 1294,142 L 1293,142 L 1293,143 L 1294,143 L 1293,143 L 1293,144 L 1294,144 L 1294,145 L 1294,146 L 1294,147 L 1295,147 L 1296,147 L 1295,147 L 1296,147 L 1297,147 L 1297,146 L 1298,146 L 1298,147 L 1299,147 L 1300,147 L 1300,148 L 1300,149 L 1301,149 L 1302,149 L 1301,149 L 1301,150 L 1302,150 L 1303,150 L 1303,151 L 1302,151 L 1302,152 L 1301,152 L 1302,152 L 1302,153 L 1303,153 L 1303,154 L 1304,154 L 1304,155 L 1305,155 L 1304,156 L 1305,156 L 1305,157 L 1306,157 L 1306,156 L 1306,157 L 1306,158 L 1307,158 L 1308,158 L 1308,159 L 1309,159 L 1310,159 L 1310,160 L 1311,160 L 1311,161 L 1312,162 L 1311,162 L 1311,163 L 1310,163 L 1310,164 L 1310,165 L 1310,166 L 1309,166 L 1310,166 L 1310,167 L 1310,166 L 1310,167 L 1310,168 L 1311,168 L 1311,169 L 1310,169 L 1310,170 L 1311,170 L 1310,170 L 1310,171 L 1309,171 L 1310,171 L 1309,171 L 1309,172 L 1310,172 L 1310,173 L 1311,174 L 1311,175 L 1311,176 L 1312,176 L 1311,176 L 1311,177 L 1311,178 L 1312,178 L 1312,179 L 1312,180 L 1313,180 L 1313,181 L 1314,181 L 1313,181 L 1313,182 L 1313,183 L 1314,183 L 1314,184 L 1314,185 L 1314,186 L 1314,187 L 1315,187 L 1315,188 L 1315,189 L 1315,190 L 1315,191 L 1315,192 L 1315,193 L 1315,194 L 1315,195 L 1315,196 L 1316,196 L 1315,196 L 1315,197 L 1316,197 L 1317,197 L 1317,198 L 1316,198 L 1315,198 L 1315,199 L 1315,200 L 1315,201 L 1314,201 L 1314,202 L 1314,203 L 1315,203 L 1315,204 L 1316,204 L 1316,205 L 1316,206 L 1317,206 L 1317,207 L 1318,207 L 1318,208 L 1318,209 L 1317,209 L 1317,210 L 1316,210 L 1315,210 L 1315,211 L 1315,212 L 1314,212 L 1314,213 L 1313,213 L 1313,214 L 1312,215 L 1311,215 L 1311,216 L 1312,216 L 1312,217 L 1312,218 L 1313,218 L 1313,219 L 1313,220 L 1314,220 L 1314,221 L 1314,222 L 1314,223 L 1315,223 L 1315,224 L 1315,225 L 1314,225 L 1314,226 L 1314,225 L 1313,225 L 1313,226 L 1312,226 L 1313,226 L 1313,227 L 1312,227 L 1313,227 L 1312,227 L 1312,228 L 1312,229 L 1311,229 L 1312,229 L 1312,230 L 1311,230 L 1311,231 L 1310,231 L 1309,231 L 1308,231 L 1308,232 L 1307,232 L 1306,232 L 1307,232 L 1307,233 L 1306,233 L 1305,233 L 1305,232 L 1304,232 L 1304,233 L 1304,234 L 1304,235 L 1303,235 L 1303,234 L 1303,235 L 1303,234 L 1303,233 L 1302,233 L 1301,233 L 1300,233 L 1299,233 L 1299,232 L 1298,233 L 1297,233 L 1297,234 L 1297,233 L 1296,233 L 1295,233 L 1295,234 L 1294,234 L 1294,233 L 1293,233 L 1293,232 L 1293,231 L 1292,231 L 1292,232 L 1292,233 L 1292,234 L 1293,234 L 1293,235 L 1293,236 L 1292,237 L 1292,238 L 1292,239 L 1291,239 L 1291,240 L 1291,239 L 1290,239 L 1290,240 L 1290,241 L 1289,241 L 1289,242 L 1288,242 L 1288,243 L 1289,243 L 1289,244 L 1290,245 L 1291,245 L 1291,246 L 1291,247 L 1291,248 L 1291,249 L 1292,249 L 1292,250 L 1292,251 L 1292,252 L 1292,253 L 1291,253 L 1292,253 L 1291,253 L 1292,253 L 1292,254 L 1291,254 L 1291,255 L 1291,256 L 1290,256 L 1291,256 L 1291,257 L 1290,257 L 1288,258 L 1285,260 L 1282,261 L 1281,262 L 1280,262 L 1280,263 L 1279,263 L 1278,263 L 1278,264 L 1278,265 L 1277,265 L 1277,266 L 1277,267 L 1276,267 L 1275,267 L 1275,268 L 1274,268 L 1274,269 L 1273,269 L 1273,270 L 1272,270 L 1271,270 L 1270,270 L 1270,271 L 1269,271 L 1268,271 L 1268,272 L 1269,272 L 1269,273 L 1269,274 L 1268,274 L 1269,274 L 1269,275 L 1268,275 L 1269,275 L 1269,276 L 1269,277 L 1270,277 L 1270,278 L 1269,279 L 1269,280 L 1270,281 L 1270,282 L 1270,283 L 1270,284 L 1269,286 L 1267,288 L 1266,288 L 1265,288 L 1265,289 L 1264,289 L 1264,290 L 1264,291 L 1263,291 L 1263,292 L 1264,292 L 1264,293 L 1264,294 L 1264,295 L 1264,296 L 1265,296 L 1265,297 L 1264,297 L 1264,296 L 1264,297 L 1263,297 L 1263,298 L 1262,298 L 1262,299 L 1261,299 L 1260,299 L 1261,300 L 1260,300 L 1260,301 L 1259,302 L 1259,303 L 1254,307 L 1252,307 L 1252,308 L 1251,308 L 1251,309 L 1250,309 L 1250,310 L 1251,310 L 1251,311 L 1251,312 L 1251,313 L 1251,314 L 1250,314 L 1250,315 L 1249,314 L 1249,315 L 1243,318 L 1242,319 L 1241,320 L 1239,322 L 1238,322 L 1235,324 L 1233,325 L 1232,326 L 1226,331 L 1225,331 L 1224,331 L 1223,331 L 1223,332 L 1222,332 L 1221,332 L 1221,331 L 1221,330 L 1222,330 L 1222,329 L 1223,329 L 1222,328 L 1222,327 L 1221,327 L 1221,326 L 1221,325 L 1222,325 L 1221,324 L 1221,323 L 1220,322 L 1220,321 L 1219,320 L 1218,319 L 1218,318 L 1219,318 L 1219,317 L 1218,316 L 1217,315 L 1216,314 L 1216,313 L 1215,313 L 1214,313 L 1213,313 L 1213,312 L 1213,311 L 1213,310 L 1212,311 L 1211,311 L 1211,310 L 1211,309 L 1211,308 L 1210,308 L 1210,307 L 1209,306 L 1208,305 L 1209,304 L 1210,304 L 1211,304 L 1211,303 L 1211,302 L 1212,302 L 1213,302 L 1213,301 L 1212,301 L 1211,301 L 1212,300 L 1213,300 L 1213,299 L 1213,298 L 1213,297 L 1213,296 L 1214,296 L 1214,295 L 1213,294 L 1212,293 L 1212,292 L 1212,291 L 1213,290 L 1213,289 L 1213,288 L 1214,288 L 1215,287 L 1216,287 L 1217,286 L 1218,285 L 1219,285 L 1219,284 L 1220,284 L 1221,284 L 1222,285 L 1223,285 L 1223,286 L 1225,287 L 1226,288 L 1227,289 L 1228,289 L 1229,289 L 1229,288 L 1229,287 L 1228,286 L 1228,284 L 1228,283 L 1228,282 L 1227,281 L 1226,280 L 1226,279 L 1226,278 L 1225,277 L 1225,276 L 1225,275 L 1226,273 L 1226,272 L 1227,270 L 1228,268 L 1229,267 L 1230,266 L 1231,264 L 1232,264 L 1232,263 L 1233,263 L 1234,262 L 1235,261 L 1236,260 L 1235,258 L 1234,257 L 1233,257 L 1232,255 L 1232,254 L 1232,253 L 1233,252 L 1234,251 L 1234,249 L 1232,248 L 1231,246 L 1230,245 L 1229,243 L 1229,242 L 1239,242 L 1239,244 L 1252,240 L 1252,223 L 1252,216 L 1252,210 L 1251,197 L 1251,175 L 1238,175 L 1238,166 L 1235,166 L 1223,163 L 1222,163 L 1222,162 L 1223,162 L 1223,161 L 1224,161 L 1224,160 L 1225,160 L 1225,159 L 1226,159 L 1227,158 L 1227,157 L 1227,156 L 1227,155 L 1226,154 L 1226,153 L 1225,152 L 1224,151 L 1223,151 L 1222,151 L 1221,151 L 1220,151 L 1218,151 L 1217,151 L 1216,151 L 1215,151 L 1215,150 L 1215,149 L 1216,148 L 1217,148 L 1218,148 L 1219,148 L 1220,147 L 1221,147 L 1221,146 L 1221,145 L 1220,144 L 1220,143 L 1220,142 L 1220,141 L 1221,140 L 1222,140 L 1222,139 L 1223,139 L 1230,136 L 1243,111 L 1243,110 L 1243,109 L 1243,110 L 1243,109 L 1244,109 L 1243,109 L 1244,109 L 1245,109 L 1246,109 L 1246,110 L 1247,110 L 1248,110 L 1248,109 L 1249,109 L 1248,109 L 1249,109 " /></g>
</svg>
