<?xml version="1.0" standalone="no"?><!DOCTYPE svg PUBLIC "-//W3C//DTD SVG 1.1//EN" "http://www.w3.org/Graphics/SVG/1.1/DTD/svg11.dtd"><svg xmlns="http://www.w3.org/2000/svg" viewBox="1580 200 565 332" version = "1.1">
<g id="70502" ><path d="M 2004,204 L 2005,204 L 2005,203 L 2005,204 L 2006,204 L 2006,205 L 2007,205 L 2008,206 L 2008,207 L 2008,208 L 2008,209 L 2008,210 L 2009,210 L 2009,209 L 2010,209 L 2011,209 L 2011,208 L 2012,208 L 2012,209 L 2013,209 L 2013,210 L 2014,210 L 2015,210 L 2015,209 L 2015,210 L 2016,210 L 2017,210 L 2018,210 L 2018,211 L 2019,211 L 2020,211 L 2021,211 L 2021,212 L 2021,213 L 2022,213 L 2021,213 L 2021,214 L 2021,215 L 2021,214 L 2021,215 L 2020,215 L 2019,215 L 2018,215 L 2018,216 L 2018,217 L 2018,218 L 2017,218 L 2017,219 L 2017,220 L 2017,221 L 2017,222 L 2017,223 L 2018,223 L 2019,224 L 2019,223 L 2020,223 L 2021,223 L 2021,222 L 2022,222 L 2022,221 L 2023,221 L 2023,222 L 2023,223 L 2023,224 L 2023,225 L 2023,226 L 2023,227 L 2023,228 L 2024,228 L 2024,229 L 2024,230 L 2025,230 L 2026,230 L 2027,230 L 2027,229 L 2027,228 L 2028,228 L 2029,228 L 2030,228 L 2030,229 L 2030,228 L 2031,228 L 2031,227 L 2030,227 L 2030,226 L 2031,226 L 2031,225 L 2030,225 L 2030,224 L 2031,224 L 2031,225 L 2032,224 L 2032,225 L 2033,225 L 2033,224 L 2034,224 L 2034,225 L 2035,225 L 2035,224 L 2035,225 L 2036,225 L 2037,224 L 2037,223 L 2038,223 L 2039,223 L 2040,223 L 2040,224 L 2041,224 L 2041,225 L 2040,225 L 2040,226 L 2041,226 L 2041,227 L 2041,228 L 2040,228 L 2040,229 L 2039,229 L 2039,230 L 2039,231 L 2038,231 L 2038,232 L 2038,233 L 2039,233 L 2040,233 L 2040,234 L 2041,234 L 2042,234 L 2043,234 L 2044,234 L 2044,233 L 2045,233 L 2045,232 L 2046,232 L 2047,232 L 2046,231 L 2046,230 L 2045,230 L 2045,229 L 2046,229 L 2047,229 L 2048,229 L 2048,228 L 2048,229 L 2048,228 L 2049,228 L 2050,228 L 2051,228 L 2053,228 L 2054,228 L 2054,229 L 2054,230 L 2054,231 L 2055,231 L 2055,230 L 2055,229 L 2056,229 L 2057,229 L 2058,229 L 2059,229 L 2059,228 L 2060,228 L 2060,229 L 2061,229 L 2062,229 L 2062,230 L 2063,229 L 2064,229 L 2064,230 L 2065,230 L 2065,231 L 2066,231 L 2066,232 L 2067,232 L 2068,232 L 2068,233 L 2069,233 L 2070,233 L 2070,234 L 2070,235 L 2070,236 L 2070,237 L 2071,237 L 2071,238 L 2072,238 L 2072,237 L 2073,237 L 2074,237 L 2074,238 L 2075,238 L 2075,239 L 2076,239 L 2077,239 L 2078,239 L 2078,238 L 2079,238 L 2079,237 L 2080,237 L 2080,238 L 2081,238 L 2081,237 L 2082,237 L 2082,238 L 2083,238 L 2084,238 L 2085,239 L 2085,240 L 2085,241 L 2086,241 L 2087,241 L 2087,242 L 2087,243 L 2088,243 L 2088,242 L 2088,243 L 2089,243 L 2090,243 L 2090,244 L 2091,244 L 2091,245 L 2092,246 L 2092,245 L 2093,245 L 2093,246 L 2093,247 L 2094,247 L 2095,247 L 2096,247 L 2097,246 L 2098,246 L 2099,246 L 2099,247 L 2098,247 L 2099,247 L 2099,248 L 2100,248 L 2101,247 L 2102,247 L 2103,248 L 2103,249 L 2102,249 L 2101,249 L 2101,250 L 2100,250 L 2100,251 L 2101,251 L 2101,252 L 2102,252 L 2102,253 L 2103,253 L 2102,253 L 2102,254 L 2102,255 L 2102,256 L 2103,256 L 2103,257 L 2104,257 L 2104,258 L 2105,258 L 2106,258 L 2107,258 L 2107,257 L 2107,256 L 2108,256 L 2109,256 L 2109,257 L 2110,257 L 2110,258 L 2111,258 L 2111,257 L 2112,257 L 2112,256 L 2113,256 L 2113,257 L 2114,257 L 2114,256 L 2115,256 L 2115,257 L 2115,258 L 2116,258 L 2117,258 L 2117,259 L 2116,259 L 2116,260 L 2115,260 L 2114,260 L 2114,261 L 2113,261 L 2112,261 L 2112,262 L 2112,263 L 2113,263 L 2113,264 L 2112,264 L 2111,264 L 2111,265 L 2112,265 L 2112,266 L 2112,267 L 2113,267 L 2113,266 L 2114,266 L 2114,267 L 2115,267 L 2116,267 L 2117,267 L 2118,267 L 2118,268 L 2118,269 L 2118,270 L 2119,270 L 2119,271 L 2119,272 L 2120,272 L 2120,273 L 2121,273 L 2121,274 L 2122,274 L 2123,274 L 2122,274 L 2122,275 L 2123,275 L 2123,276 L 2122,276 L 2122,277 L 2123,277 L 2123,278 L 2122,278 L 2121,278 L 2121,279 L 2122,279 L 2122,280 L 2123,280 L 2124,280 L 2124,281 L 2125,280 L 2125,281 L 2125,282 L 2125,281 L 2126,281 L 2126,282 L 2127,282 L 2127,281 L 2127,282 L 2128,283 L 2129,283 L 2129,284 L 2128,284 L 2129,285 L 2129,286 L 2128,286 L 2128,285 L 2128,286 L 2128,287 L 2129,287 L 2130,287 L 2131,287 L 2131,286 L 2131,287 L 2132,287 L 2132,288 L 2133,288 L 2133,287 L 2134,287 L 2134,288 L 2134,287 L 2135,288 L 2134,288 L 2135,289 L 2134,289 L 2133,289 L 2134,289 L 2134,290 L 2135,290 L 2135,291 L 2134,291 L 2134,292 L 2135,292 L 2136,292 L 2136,293 L 2136,292 L 2137,292 L 2137,293 L 2137,292 L 2138,293 L 2138,292 L 2139,293 L 2139,294 L 2139,295 L 2139,296 L 2138,297 L 2138,298 L 2139,298 L 2139,299 L 2140,299 L 2140,300 L 2139,300 L 2138,300 L 2137,300 L 2137,301 L 2136,301 L 2136,302 L 2137,302 L 2137,301 L 2137,302 L 2137,303 L 2137,302 L 2136,302 L 2136,303 L 2135,303 L 2134,303 L 2134,304 L 2133,304 L 2133,305 L 2132,305 L 2132,304 L 2132,305 L 2131,305 L 2131,306 L 2130,306 L 2130,307 L 2130,308 L 2130,309 L 2131,309 L 2131,310 L 2131,311 L 2131,310 L 2132,310 L 2133,310 L 2133,311 L 2133,310 L 2133,311 L 2134,311 L 2135,311 L 2136,311 L 2136,312 L 2137,312 L 2138,312 L 2139,312 L 2139,313 L 2140,313 L 2140,314 L 2139,314 L 2139,315 L 2140,315 L 2141,315 L 2141,316 L 2140,316 L 2141,316 L 2141,317 L 2142,317 L 2143,317 L 2142,317 L 2142,318 L 2143,318 L 2143,319 L 2144,319 L 2144,320 L 2145,320 L 2145,321 L 2144,321 L 2145,321 L 2145,322 L 2144,322 L 2144,323 L 2143,323 L 2142,323 L 2142,324 L 2142,325 L 2141,325 L 2142,326 L 2141,326 L 2142,327 L 2143,327 L 2143,326 L 2143,327 L 2142,328 L 2142,329 L 2142,330 L 2142,329 L 2143,329 L 2143,330 L 2143,331 L 2144,331 L 2143,332 L 2144,332 L 2144,333 L 2144,334 L 2143,334 L 2143,335 L 2144,335 L 2144,336 L 2143,336 L 2143,335 L 2142,335 L 2142,336 L 2141,336 L 2140,336 L 2140,337 L 2139,337 L 2139,338 L 2139,339 L 2138,339 L 2138,340 L 2138,341 L 2137,341 L 2138,341 L 2138,342 L 2138,343 L 2138,344 L 2137,343 L 2137,344 L 2137,345 L 2136,345 L 2136,346 L 2135,346 L 2134,346 L 2133,347 L 2133,346 L 2133,347 L 2132,347 L 2132,346 L 2132,347 L 2131,347 L 2130,346 L 2129,346 L 2129,347 L 2130,347 L 2129,347 L 2129,348 L 2128,348 L 2128,349 L 2128,348 L 2127,348 L 2126,348 L 2126,349 L 2127,349 L 2127,350 L 2126,350 L 2125,350 L 2125,351 L 2124,351 L 2124,352 L 2123,352 L 2123,353 L 2123,354 L 2122,354 L 2121,354 L 2120,354 L 2119,354 L 2119,355 L 2118,355 L 2118,354 L 2118,355 L 2117,356 L 2117,355 L 2116,355 L 2116,356 L 2116,355 L 2115,355 L 2114,355 L 2114,356 L 2113,356 L 2113,357 L 2113,358 L 2113,359 L 2113,360 L 2114,360 L 2114,361 L 2114,362 L 2113,362 L 2113,363 L 2114,363 L 2115,363 L 2114,363 L 2114,364 L 2114,365 L 2114,366 L 2115,366 L 2115,365 L 2115,366 L 2116,366 L 2117,366 L 2117,367 L 2118,368 L 2119,368 L 2120,368 L 2121,368 L 2122,368 L 2122,369 L 2122,368 L 2123,368 L 2123,369 L 2124,369 L 2123,369 L 2123,370 L 2124,370 L 2124,369 L 2125,369 L 2125,370 L 2125,371 L 2126,371 L 2126,372 L 2127,372 L 2127,373 L 2128,373 L 2128,374 L 2128,375 L 2129,375 L 2129,376 L 2129,377 L 2128,377 L 2128,378 L 2129,378 L 2128,378 L 2128,379 L 2127,379 L 2127,380 L 2126,380 L 2126,379 L 2125,379 L 2125,378 L 2124,378 L 2124,377 L 2123,377 L 2122,377 L 2122,378 L 2121,378 L 2120,378 L 2119,379 L 2119,380 L 2120,380 L 2119,380 L 2120,380 L 2119,380 L 2119,381 L 2119,382 L 2118,382 L 2118,383 L 2118,384 L 2119,384 L 2119,385 L 2119,386 L 2118,386 L 2118,387 L 2118,388 L 2118,389 L 2118,390 L 2118,391 L 2118,392 L 2119,392 L 2119,393 L 2119,394 L 2120,394 L 2120,395 L 2119,395 L 2119,396 L 2118,396 L 2117,396 L 2117,397 L 2115,413 L 2111,443 L 2110,449 L 2108,484 L 2104,507 L 2102,519 L 2102,521 L 2100,532 L 2091,531 L 1970,513 L 1928,506 L 1908,502 L 1719,472 L 1664,466 L 1646,463 L 1623,460 L 1601,458 L 1581,455 L 1580,452 L 1580,451 L 1580,449 L 1580,447 L 1580,446 L 1580,444 L 1581,443 L 1582,442 L 1583,442 L 1584,442 L 1586,442 L 1587,441 L 1588,441 L 1589,440 L 1590,439 L 1591,439 L 1591,438 L 1591,437 L 1591,436 L 1590,435 L 1590,434 L 1589,433 L 1588,432 L 1587,431 L 1587,429 L 1586,427 L 1586,426 L 1586,425 L 1585,424 L 1584,423 L 1583,422 L 1582,422 L 1581,421 L 1580,421 L 1580,419 L 1581,418 L 1582,414 L 1583,413 L 1583,411 L 1584,410 L 1586,409 L 1587,409 L 1588,409 L 1589,408 L 1590,407 L 1590,406 L 1590,405 L 1590,404 L 1590,403 L 1590,401 L 1590,399 L 1591,398 L 1592,396 L 1593,395 L 1594,393 L 1595,393 L 1595,391 L 1596,391 L 1596,390 L 1596,389 L 1596,388 L 1596,387 L 1596,386 L 1597,386 L 1598,385 L 1599,384 L 1599,383 L 1598,382 L 1597,380 L 1597,379 L 1597,378 L 1596,377 L 1596,375 L 1596,374 L 1597,373 L 1599,372 L 1600,371 L 1601,370 L 1603,369 L 1604,368 L 1604,367 L 1605,366 L 1605,365 L 1605,364 L 1604,363 L 1603,362 L 1603,360 L 1603,358 L 1602,356 L 1601,355 L 1599,353 L 1598,352 L 1596,351 L 1594,351 L 1592,350 L 1591,349 L 1590,347 L 1590,346 L 1591,345 L 1592,344 L 1592,343 L 1593,342 L 1593,341 L 1593,339 L 1592,338 L 1592,336 L 1590,335 L 1589,333 L 1588,332 L 1588,331 L 1587,330 L 1587,328 L 1587,327 L 1588,325 L 1589,324 L 1590,323 L 1590,321 L 1591,318 L 1592,317 L 1594,315 L 1595,313 L 1595,310 L 1596,308 L 1596,306 L 1596,304 L 1596,302 L 1595,301 L 1595,300 L 1594,300 L 1593,299 L 1592,299 L 1591,298 L 1590,297 L 1589,297 L 1588,296 L 1587,295 L 1587,294 L 1587,293 L 1587,292 L 1587,291 L 1587,290 L 1587,289 L 1587,287 L 1587,286 L 1587,284 L 1588,283 L 1588,282 L 1589,282 L 1593,281 L 1612,278 L 1644,270 L 1671,268 L 1699,264 L 1750,256 L 1780,251 L 1800,247 L 1837,241 L 1902,232 L 1927,228 L 1949,219 L 1997,200 L 2004,203 L 2003,204 L 2004,204 " /></g>
</svg>
