<?xml version="1.0" standalone="no"?><!DOCTYPE svg PUBLIC "-//W3C//DTD SVG 1.1//EN" "http://www.w3.org/Graphics/SVG/1.1/DTD/svg11.dtd"><svg xmlns="http://www.w3.org/2000/svg" viewBox="2484 328 389 346" version = "1.1">
<g id="70503" ><path d="M 2664,329 L 2665,329 L 2666,329 L 2667,329 L 2668,329 L 2669,330 L 2670,330 L 2670,329 L 2671,329 L 2672,329 L 2673,329 L 2683,331 L 2683,334 L 2683,342 L 2683,349 L 2683,356 L 2683,363 L 2683,368 L 2683,371 L 2683,377 L 2683,382 L 2683,387 L 2683,393 L 2683,399 L 2683,404 L 2683,409 L 2683,412 L 2682,419 L 2683,421 L 2682,428 L 2682,431 L 2682,435 L 2682,440 L 2682,443 L 2682,450 L 2682,451 L 2682,454 L 2682,455 L 2683,456 L 2683,457 L 2775,488 L 2863,659 L 2872,672 L 2872,673 L 2873,673 L 2872,673 L 2872,674 L 2871,674 L 2870,674 L 2870,673 L 2870,674 L 2869,674 L 2869,673 L 2869,674 L 2868,674 L 2867,674 L 2867,673 L 2868,673 L 2867,673 L 2867,672 L 2866,672 L 2865,672 L 2864,672 L 2864,671 L 2864,672 L 2864,671 L 2863,671 L 2863,672 L 2862,672 L 2862,671 L 2861,671 L 2860,671 L 2861,671 L 2860,671 L 2860,670 L 2860,669 L 2860,668 L 2860,667 L 2859,667 L 2859,666 L 2860,666 L 2859,666 L 2859,665 L 2860,665 L 2859,665 L 2859,664 L 2859,665 L 2858,665 L 2858,664 L 2857,664 L 2857,663 L 2856,663 L 2855,663 L 2854,663 L 2853,663 L 2852,663 L 2852,664 L 2851,664 L 2851,665 L 2850,666 L 2850,667 L 2850,668 L 2849,668 L 2849,669 L 2849,670 L 2848,670 L 2848,669 L 2847,669 L 2847,668 L 2846,668 L 2845,668 L 2845,667 L 2844,667 L 2844,666 L 2843,666 L 2842,666 L 2841,666 L 2841,667 L 2841,668 L 2840,668 L 2840,669 L 2839,669 L 2839,670 L 2838,670 L 2837,670 L 2837,669 L 2837,668 L 2836,668 L 2835,668 L 2834,668 L 2834,669 L 2833,669 L 2832,669 L 2832,670 L 2832,671 L 2832,672 L 2831,672 L 2830,672 L 2830,671 L 2829,671 L 2829,670 L 2829,669 L 2828,669 L 2827,669 L 2828,668 L 2827,668 L 2827,667 L 2826,667 L 2826,666 L 2825,666 L 2824,666 L 2824,665 L 2823,665 L 2822,665 L 2821,665 L 2820,665 L 2820,664 L 2819,665 L 2818,665 L 2818,664 L 2817,664 L 2816,664 L 2815,664 L 2814,664 L 2814,665 L 2813,665 L 2812,665 L 2812,666 L 2811,666 L 2810,666 L 2809,666 L 2809,665 L 2808,665 L 2808,666 L 2808,665 L 2807,665 L 2806,665 L 2806,666 L 2805,666 L 2804,666 L 2803,665 L 2802,664 L 2801,664 L 2800,664 L 2799,664 L 2798,665 L 2797,665 L 2797,666 L 2796,666 L 2796,667 L 2796,668 L 2795,668 L 2795,669 L 2794,669 L 2793,669 L 2792,669 L 2792,670 L 2791,670 L 2791,669 L 2790,669 L 2789,669 L 2789,668 L 2788,668 L 2788,667 L 2787,667 L 2786,667 L 2786,666 L 2785,666 L 2785,665 L 2785,664 L 2784,664 L 2783,664 L 2782,664 L 2781,664 L 2781,663 L 2781,662 L 2781,661 L 2780,661 L 2779,661 L 2778,661 L 2778,660 L 2777,660 L 2776,660 L 2775,661 L 2774,661 L 2774,662 L 2774,661 L 2773,661 L 2773,660 L 2772,660 L 2772,659 L 2771,659 L 2771,658 L 2770,658 L 2770,657 L 2769,657 L 2769,656 L 2769,655 L 2769,654 L 2768,654 L 2767,654 L 2767,655 L 2767,656 L 2766,656 L 2766,657 L 2765,657 L 2765,658 L 2765,659 L 2764,660 L 2764,659 L 2763,659 L 2762,659 L 2762,658 L 2761,658 L 2760,658 L 2759,658 L 2759,659 L 2759,658 L 2758,658 L 2757,658 L 2756,658 L 2756,657 L 2755,657 L 2754,657 L 2754,656 L 2753,656 L 2752,656 L 2752,655 L 2752,654 L 2752,653 L 2751,653 L 2751,652 L 2750,652 L 2750,651 L 2749,651 L 2748,651 L 2748,650 L 2747,651 L 2746,651 L 2745,651 L 2744,651 L 2744,652 L 2744,653 L 2743,653 L 2742,653 L 2742,654 L 2741,654 L 2741,653 L 2740,654 L 2740,653 L 2739,653 L 2738,653 L 2738,652 L 2737,652 L 2736,652 L 2735,652 L 2735,653 L 2734,653 L 2733,653 L 2733,652 L 2732,652 L 2731,652 L 2731,653 L 2729,653 L 2728,652 L 2727,652 L 2727,653 L 2726,653 L 2726,654 L 2726,653 L 2725,653 L 2724,653 L 2724,654 L 2723,654 L 2722,654 L 2722,653 L 2722,652 L 2722,651 L 2721,650 L 2721,649 L 2722,649 L 2722,648 L 2722,647 L 2722,646 L 2721,646 L 2721,647 L 2720,647 L 2719,647 L 2719,646 L 2718,646 L 2717,646 L 2716,646 L 2715,646 L 2714,646 L 2714,645 L 2713,645 L 2712,645 L 2711,645 L 2711,644 L 2711,645 L 2710,645 L 2710,644 L 2711,644 L 2710,644 L 2709,644 L 2709,643 L 2708,643 L 2708,644 L 2707,644 L 2707,645 L 2706,645 L 2705,645 L 2705,646 L 2704,646 L 2703,646 L 2703,645 L 2702,645 L 2702,646 L 2701,646 L 2700,646 L 2700,645 L 2699,645 L 2699,644 L 2699,643 L 2698,643 L 2698,642 L 2698,641 L 2697,641 L 2696,641 L 2695,641 L 2694,641 L 2694,642 L 2693,642 L 2693,643 L 2693,644 L 2692,645 L 2691,645 L 2690,645 L 2689,645 L 2689,644 L 2688,644 L 2687,644 L 2686,644 L 2685,644 L 2685,645 L 2684,645 L 2684,644 L 2683,644 L 2682,644 L 2682,645 L 2681,645 L 2680,645 L 2679,645 L 2678,645 L 2678,644 L 2677,644 L 2677,645 L 2676,645 L 2675,644 L 2674,644 L 2674,645 L 2673,644 L 2673,643 L 2672,642 L 2672,641 L 2671,641 L 2672,641 L 2671,640 L 2670,640 L 2670,639 L 2669,639 L 2669,638 L 2668,638 L 2667,638 L 2666,638 L 2665,638 L 2665,637 L 2664,637 L 2664,636 L 2663,636 L 2663,635 L 2662,635 L 2662,634 L 2661,634 L 2661,633 L 2660,633 L 2660,632 L 2660,631 L 2660,630 L 2660,629 L 2659,629 L 2658,629 L 2657,629 L 2657,630 L 2656,630 L 2655,630 L 2655,631 L 2654,631 L 2654,630 L 2653,630 L 2653,629 L 2653,628 L 2653,627 L 2652,627 L 2651,627 L 2651,626 L 2650,626 L 2649,626 L 2648,626 L 2649,626 L 2649,625 L 2648,625 L 2647,625 L 2647,624 L 2646,624 L 2646,623 L 2645,623 L 2644,623 L 2644,622 L 2643,622 L 2643,621 L 2642,621 L 2642,620 L 2641,620 L 2641,621 L 2640,621 L 2639,621 L 2638,621 L 2638,622 L 2637,622 L 2637,621 L 2636,621 L 2635,621 L 2634,621 L 2634,620 L 2633,620 L 2633,619 L 2633,618 L 2632,618 L 2631,618 L 2631,617 L 2630,617 L 2630,616 L 2629,616 L 2629,615 L 2630,615 L 2630,614 L 2630,613 L 2629,613 L 2629,612 L 2628,612 L 2628,611 L 2627,611 L 2627,610 L 2627,609 L 2532,596 L 2523,594 L 2505,592 L 2484,589 L 2485,574 L 2490,515 L 2491,512 L 2492,509 L 2492,506 L 2495,495 L 2495,493 L 2496,487 L 2497,484 L 2498,481 L 2498,479 L 2498,478 L 2498,477 L 2498,476 L 2497,476 L 2498,475 L 2498,474 L 2499,473 L 2499,472 L 2498,472 L 2499,472 L 2499,471 L 2499,470 L 2499,469 L 2499,468 L 2499,467 L 2499,466 L 2499,465 L 2499,464 L 2499,463 L 2499,462 L 2499,461 L 2499,460 L 2499,459 L 2500,458 L 2500,457 L 2500,456 L 2501,456 L 2501,455 L 2501,454 L 2502,454 L 2502,453 L 2503,453 L 2503,452 L 2504,452 L 2505,452 L 2505,451 L 2504,446 L 2503,446 L 2503,445 L 2502,445 L 2502,444 L 2501,444 L 2502,443 L 2503,442 L 2503,441 L 2504,441 L 2504,440 L 2504,439 L 2504,438 L 2504,437 L 2504,436 L 2505,436 L 2505,435 L 2506,435 L 2506,436 L 2507,436 L 2507,435 L 2508,435 L 2508,434 L 2508,433 L 2508,432 L 2509,432 L 2509,431 L 2509,430 L 2509,429 L 2509,428 L 2510,428 L 2509,428 L 2509,427 L 2510,427 L 2511,426 L 2512,425 L 2512,424 L 2513,424 L 2514,424 L 2514,423 L 2513,423 L 2514,422 L 2515,422 L 2515,421 L 2515,420 L 2516,420 L 2517,420 L 2517,419 L 2517,418 L 2516,418 L 2517,418 L 2516,418 L 2516,417 L 2517,417 L 2517,416 L 2517,415 L 2517,414 L 2518,414 L 2517,414 L 2518,414 L 2517,414 L 2518,414 L 2518,413 L 2518,412 L 2519,412 L 2519,411 L 2519,410 L 2520,410 L 2520,409 L 2520,408 L 2521,408 L 2521,407 L 2522,407 L 2523,407 L 2523,406 L 2524,406 L 2524,405 L 2525,405 L 2525,404 L 2525,403 L 2526,403 L 2526,402 L 2527,402 L 2527,401 L 2528,401 L 2528,400 L 2527,400 L 2527,399 L 2528,399 L 2528,398 L 2528,397 L 2529,397 L 2529,396 L 2529,395 L 2530,395 L 2530,394 L 2531,394 L 2532,394 L 2532,393 L 2533,393 L 2533,392 L 2533,391 L 2534,391 L 2534,390 L 2535,389 L 2536,389 L 2537,389 L 2538,389 L 2538,388 L 2538,387 L 2539,387 L 2539,386 L 2539,385 L 2539,384 L 2539,383 L 2539,382 L 2540,382 L 2540,381 L 2541,381 L 2541,382 L 2542,381 L 2542,380 L 2543,380 L 2543,379 L 2544,379 L 2545,379 L 2545,380 L 2546,379 L 2546,378 L 2547,378 L 2547,379 L 2548,379 L 2548,380 L 2549,380 L 2549,381 L 2549,380 L 2550,380 L 2550,381 L 2551,381 L 2551,380 L 2552,380 L 2553,380 L 2554,380 L 2554,379 L 2554,380 L 2555,380 L 2555,379 L 2556,379 L 2557,379 L 2558,379 L 2559,379 L 2560,379 L 2560,380 L 2560,381 L 2561,381 L 2561,382 L 2562,382 L 2563,383 L 2563,384 L 2564,384 L 2564,385 L 2565,386 L 2566,386 L 2566,385 L 2567,385 L 2567,384 L 2568,384 L 2569,384 L 2569,385 L 2570,386 L 2570,387 L 2571,387 L 2572,387 L 2572,388 L 2573,388 L 2574,388 L 2575,388 L 2582,385 L 2583,385 L 2585,384 L 2588,383 L 2590,382 L 2593,381 L 2594,380 L 2595,380 L 2596,380 L 2597,380 L 2598,379 L 2599,379 L 2600,379 L 2601,379 L 2603,378 L 2604,377 L 2605,377 L 2606,376 L 2607,376 L 2607,375 L 2608,375 L 2609,375 L 2610,375 L 2611,375 L 2612,375 L 2613,374 L 2614,374 L 2615,374 L 2616,374 L 2621,371 L 2623,369 L 2623,368 L 2624,366 L 2626,359 L 2628,349 L 2628,345 L 2628,343 L 2629,341 L 2630,340 L 2631,339 L 2633,339 L 2634,339 L 2635,338 L 2636,338 L 2638,337 L 2640,336 L 2641,336 L 2642,335 L 2643,334 L 2644,334 L 2645,333 L 2647,332 L 2649,331 L 2651,331 L 2652,330 L 2654,330 L 2656,329 L 2657,329 L 2659,329 L 2661,329 L 2662,329 L 2662,328 L 2663,329 L 2664,329 " /></g>
</svg>
