<?xml version="1.0" standalone="no"?><!DOCTYPE svg PUBLIC "-//W3C//DTD SVG 1.1//EN" "http://www.w3.org/Graphics/SVG/1.1/DTD/svg11.dtd"><svg xmlns="http://www.w3.org/2000/svg" viewBox="2100 117 585 472" version = "1.1">
<g id="70501" ><path d="M 2684,169 L 2684,178 L 2684,183 L 2684,188 L 2684,198 L 2684,203 L 2684,207 L 2684,215 L 2684,224 L 2684,229 L 2684,232 L 2684,236 L 2684,240 L 2684,249 L 2684,254 L 2684,259 L 2684,266 L 2683,273 L 2683,278 L 2683,284 L 2683,290 L 2683,297 L 2683,306 L 2683,313 L 2683,320 L 2683,325 L 2683,331 L 2673,329 L 2672,329 L 2671,329 L 2670,329 L 2670,330 L 2669,330 L 2668,329 L 2667,329 L 2666,329 L 2665,329 L 2664,329 L 2663,329 L 2662,328 L 2662,329 L 2661,329 L 2659,329 L 2657,329 L 2656,329 L 2654,330 L 2652,330 L 2651,331 L 2649,331 L 2647,332 L 2645,333 L 2644,334 L 2643,334 L 2642,335 L 2641,336 L 2640,336 L 2638,337 L 2636,338 L 2635,338 L 2634,339 L 2633,339 L 2631,339 L 2630,340 L 2629,341 L 2628,343 L 2628,345 L 2628,349 L 2626,359 L 2624,366 L 2623,368 L 2623,369 L 2621,371 L 2616,374 L 2615,374 L 2614,374 L 2613,374 L 2612,375 L 2611,375 L 2610,375 L 2609,375 L 2608,375 L 2607,375 L 2607,376 L 2606,376 L 2605,377 L 2604,377 L 2603,378 L 2601,379 L 2600,379 L 2599,379 L 2598,379 L 2597,380 L 2596,380 L 2595,380 L 2594,380 L 2593,381 L 2590,382 L 2588,383 L 2585,384 L 2583,385 L 2582,385 L 2575,388 L 2574,388 L 2573,388 L 2572,388 L 2572,387 L 2571,387 L 2570,387 L 2570,386 L 2569,385 L 2569,384 L 2568,384 L 2567,384 L 2567,385 L 2566,385 L 2566,386 L 2565,386 L 2564,385 L 2564,384 L 2563,384 L 2563,383 L 2562,382 L 2561,382 L 2561,381 L 2560,381 L 2560,380 L 2560,379 L 2559,379 L 2558,379 L 2557,379 L 2556,379 L 2555,379 L 2555,380 L 2554,380 L 2554,379 L 2554,380 L 2553,380 L 2552,380 L 2551,380 L 2551,381 L 2550,381 L 2550,380 L 2549,380 L 2549,381 L 2549,380 L 2548,380 L 2548,379 L 2547,379 L 2547,378 L 2546,378 L 2546,379 L 2545,380 L 2545,379 L 2544,379 L 2543,379 L 2543,380 L 2542,380 L 2542,381 L 2541,382 L 2541,381 L 2540,381 L 2540,382 L 2539,382 L 2539,383 L 2539,384 L 2539,385 L 2539,386 L 2539,387 L 2538,387 L 2538,388 L 2538,389 L 2537,389 L 2536,389 L 2535,389 L 2534,390 L 2534,391 L 2533,391 L 2533,392 L 2533,393 L 2532,393 L 2532,394 L 2531,394 L 2530,394 L 2530,395 L 2529,395 L 2529,396 L 2529,397 L 2528,397 L 2528,398 L 2528,399 L 2527,399 L 2527,400 L 2528,400 L 2528,401 L 2527,401 L 2527,402 L 2526,402 L 2526,403 L 2525,403 L 2525,404 L 2525,405 L 2524,405 L 2524,406 L 2523,406 L 2523,407 L 2522,407 L 2521,407 L 2521,408 L 2520,408 L 2520,409 L 2520,410 L 2519,410 L 2519,411 L 2519,412 L 2518,412 L 2518,413 L 2518,414 L 2517,414 L 2518,414 L 2517,414 L 2518,414 L 2517,414 L 2517,415 L 2517,416 L 2517,417 L 2516,417 L 2516,418 L 2517,418 L 2516,418 L 2517,418 L 2517,419 L 2517,420 L 2516,420 L 2515,420 L 2515,421 L 2515,422 L 2514,422 L 2513,423 L 2514,423 L 2514,424 L 2513,424 L 2512,424 L 2512,425 L 2511,426 L 2510,427 L 2509,427 L 2509,428 L 2510,428 L 2509,428 L 2509,429 L 2509,430 L 2509,431 L 2509,432 L 2508,432 L 2508,433 L 2508,434 L 2508,435 L 2507,435 L 2507,436 L 2506,436 L 2506,435 L 2505,435 L 2505,436 L 2504,436 L 2504,437 L 2504,438 L 2504,439 L 2504,440 L 2504,441 L 2503,441 L 2503,442 L 2502,443 L 2501,444 L 2502,444 L 2502,445 L 2503,445 L 2503,446 L 2504,446 L 2505,451 L 2505,452 L 2504,452 L 2503,452 L 2503,453 L 2502,453 L 2502,454 L 2501,454 L 2501,455 L 2501,456 L 2500,456 L 2500,457 L 2500,458 L 2499,459 L 2499,460 L 2499,461 L 2499,462 L 2499,463 L 2499,464 L 2499,465 L 2499,466 L 2499,467 L 2499,468 L 2499,469 L 2499,470 L 2499,471 L 2499,472 L 2498,472 L 2499,472 L 2499,473 L 2498,474 L 2498,475 L 2497,476 L 2498,476 L 2498,477 L 2498,478 L 2498,479 L 2498,481 L 2497,484 L 2496,487 L 2495,493 L 2495,495 L 2492,506 L 2492,509 L 2491,512 L 2490,515 L 2485,574 L 2484,589 L 2100,532 L 2102,521 L 2102,519 L 2104,507 L 2108,484 L 2110,449 L 2111,443 L 2115,413 L 2117,397 L 2117,396 L 2118,396 L 2119,396 L 2119,395 L 2120,395 L 2120,394 L 2119,394 L 2119,393 L 2119,392 L 2118,392 L 2118,391 L 2118,390 L 2118,389 L 2118,388 L 2118,387 L 2118,386 L 2119,386 L 2119,385 L 2119,384 L 2118,384 L 2118,383 L 2118,382 L 2119,382 L 2119,381 L 2119,380 L 2120,380 L 2119,380 L 2120,380 L 2119,380 L 2119,379 L 2120,378 L 2121,378 L 2122,378 L 2122,377 L 2123,377 L 2124,377 L 2124,378 L 2125,378 L 2125,379 L 2126,379 L 2126,380 L 2127,380 L 2127,379 L 2128,379 L 2128,378 L 2129,378 L 2128,378 L 2128,377 L 2129,377 L 2129,376 L 2129,375 L 2128,375 L 2128,374 L 2128,373 L 2127,373 L 2127,372 L 2126,372 L 2126,371 L 2125,371 L 2125,370 L 2125,369 L 2124,369 L 2124,370 L 2123,370 L 2123,369 L 2124,369 L 2123,369 L 2123,368 L 2122,368 L 2122,369 L 2122,368 L 2121,368 L 2120,368 L 2119,368 L 2118,368 L 2117,367 L 2117,366 L 2116,366 L 2115,366 L 2115,365 L 2115,366 L 2114,366 L 2114,365 L 2114,364 L 2114,363 L 2115,363 L 2114,363 L 2113,363 L 2113,362 L 2114,362 L 2114,361 L 2114,360 L 2113,360 L 2113,359 L 2113,358 L 2113,357 L 2113,356 L 2114,356 L 2114,355 L 2115,355 L 2116,355 L 2116,356 L 2116,355 L 2117,355 L 2117,356 L 2118,355 L 2118,354 L 2118,355 L 2119,355 L 2119,354 L 2120,354 L 2121,354 L 2122,354 L 2123,354 L 2123,353 L 2123,352 L 2124,352 L 2124,351 L 2125,351 L 2125,350 L 2126,350 L 2127,350 L 2127,349 L 2126,349 L 2126,348 L 2127,348 L 2128,348 L 2128,349 L 2128,348 L 2129,348 L 2129,347 L 2130,347 L 2129,347 L 2129,346 L 2130,346 L 2131,347 L 2132,347 L 2132,346 L 2132,347 L 2133,347 L 2133,346 L 2133,347 L 2134,346 L 2135,346 L 2136,346 L 2136,345 L 2137,345 L 2137,344 L 2137,343 L 2138,344 L 2138,343 L 2138,342 L 2138,341 L 2137,341 L 2138,341 L 2138,340 L 2138,339 L 2139,339 L 2139,338 L 2139,337 L 2140,337 L 2140,336 L 2141,336 L 2142,336 L 2142,335 L 2143,335 L 2143,336 L 2144,336 L 2144,335 L 2143,335 L 2143,334 L 2144,334 L 2144,333 L 2144,332 L 2143,332 L 2144,331 L 2143,331 L 2143,330 L 2143,329 L 2142,329 L 2142,330 L 2142,329 L 2142,328 L 2143,327 L 2143,326 L 2143,327 L 2142,327 L 2141,326 L 2142,326 L 2141,325 L 2142,325 L 2142,324 L 2142,323 L 2143,323 L 2144,323 L 2144,322 L 2145,322 L 2145,321 L 2144,321 L 2145,321 L 2145,320 L 2144,320 L 2144,319 L 2143,319 L 2143,318 L 2142,318 L 2142,317 L 2143,317 L 2142,317 L 2141,317 L 2141,316 L 2140,316 L 2141,316 L 2141,315 L 2140,315 L 2139,315 L 2139,314 L 2140,314 L 2140,313 L 2139,313 L 2139,312 L 2138,312 L 2137,312 L 2136,312 L 2136,311 L 2135,311 L 2134,311 L 2133,311 L 2133,310 L 2133,311 L 2133,310 L 2132,310 L 2131,310 L 2131,311 L 2131,310 L 2131,309 L 2130,309 L 2130,308 L 2130,307 L 2130,306 L 2131,306 L 2131,305 L 2132,305 L 2132,304 L 2132,305 L 2133,305 L 2133,304 L 2134,304 L 2134,303 L 2135,303 L 2136,303 L 2136,302 L 2137,302 L 2137,303 L 2137,302 L 2137,301 L 2137,302 L 2136,302 L 2136,301 L 2137,301 L 2137,300 L 2138,300 L 2139,300 L 2140,300 L 2140,299 L 2139,299 L 2139,298 L 2138,298 L 2138,297 L 2139,296 L 2139,295 L 2139,294 L 2139,293 L 2138,292 L 2138,293 L 2137,292 L 2137,293 L 2137,292 L 2136,292 L 2136,293 L 2136,292 L 2135,292 L 2134,292 L 2134,291 L 2135,291 L 2135,290 L 2134,290 L 2134,289 L 2133,289 L 2134,289 L 2135,289 L 2134,288 L 2135,288 L 2134,287 L 2134,288 L 2134,287 L 2133,287 L 2133,288 L 2132,288 L 2132,287 L 2131,287 L 2131,286 L 2131,287 L 2130,287 L 2129,287 L 2128,287 L 2128,286 L 2128,285 L 2128,286 L 2129,286 L 2129,285 L 2128,284 L 2129,284 L 2129,283 L 2128,283 L 2127,282 L 2127,281 L 2127,282 L 2126,282 L 2126,281 L 2125,281 L 2125,282 L 2125,281 L 2125,280 L 2124,281 L 2124,280 L 2123,280 L 2122,280 L 2122,279 L 2121,279 L 2121,278 L 2122,278 L 2123,278 L 2123,277 L 2122,277 L 2122,276 L 2123,276 L 2123,275 L 2122,275 L 2122,274 L 2123,274 L 2122,274 L 2121,274 L 2121,273 L 2120,273 L 2120,272 L 2119,272 L 2119,271 L 2119,270 L 2118,270 L 2118,269 L 2118,268 L 2118,267 L 2117,267 L 2116,267 L 2115,267 L 2114,267 L 2114,266 L 2113,266 L 2113,267 L 2112,267 L 2112,266 L 2112,265 L 2111,265 L 2111,264 L 2112,264 L 2113,264 L 2113,263 L 2112,263 L 2112,262 L 2112,261 L 2113,261 L 2114,261 L 2114,260 L 2115,260 L 2116,260 L 2116,259 L 2117,259 L 2117,258 L 2116,258 L 2115,258 L 2115,257 L 2115,256 L 2114,256 L 2114,257 L 2113,257 L 2113,256 L 2112,256 L 2112,257 L 2111,257 L 2111,258 L 2110,258 L 2110,257 L 2109,257 L 2109,256 L 2108,256 L 2107,256 L 2107,257 L 2107,258 L 2106,258 L 2105,258 L 2104,258 L 2104,257 L 2103,257 L 2103,256 L 2102,256 L 2102,255 L 2102,254 L 2102,253 L 2103,253 L 2102,253 L 2102,252 L 2101,252 L 2101,251 L 2100,251 L 2100,250 L 2101,250 L 2101,249 L 2102,249 L 2103,249 L 2104,249 L 2105,249 L 2105,248 L 2106,248 L 2106,247 L 2107,247 L 2107,246 L 2108,246 L 2109,246 L 2109,245 L 2110,245 L 2110,244 L 2111,244 L 2112,244 L 2113,244 L 2114,244 L 2115,244 L 2116,243 L 2116,242 L 2116,241 L 2116,240 L 2115,240 L 2115,239 L 2115,238 L 2116,238 L 2116,237 L 2117,237 L 2117,238 L 2118,238 L 2118,237 L 2119,237 L 2119,238 L 2119,237 L 2120,237 L 2121,237 L 2122,237 L 2123,237 L 2124,236 L 2125,236 L 2125,237 L 2126,237 L 2126,236 L 2127,236 L 2128,236 L 2129,236 L 2130,236 L 2131,236 L 2131,237 L 2132,237 L 2133,237 L 2133,236 L 2134,236 L 2135,236 L 2136,236 L 2137,236 L 2138,236 L 2139,236 L 2140,236 L 2141,236 L 2141,237 L 2141,236 L 2142,236 L 2142,235 L 2142,234 L 2143,234 L 2144,234 L 2145,234 L 2146,234 L 2146,233 L 2147,233 L 2147,232 L 2146,232 L 2146,231 L 2147,231 L 2148,231 L 2149,231 L 2150,231 L 2151,231 L 2151,232 L 2152,232 L 2152,233 L 2153,233 L 2153,232 L 2154,232 L 2154,233 L 2155,233 L 2156,233 L 2156,232 L 2157,232 L 2157,231 L 2158,231 L 2159,231 L 2160,231 L 2161,231 L 2162,231 L 2162,230 L 2162,229 L 2162,227 L 2163,227 L 2163,228 L 2164,228 L 2165,228 L 2165,229 L 2166,229 L 2167,229 L 2168,229 L 2168,228 L 2169,228 L 2170,228 L 2171,228 L 2172,228 L 2172,227 L 2173,227 L 2174,227 L 2174,228 L 2175,228 L 2176,228 L 2177,228 L 2178,228 L 2178,227 L 2179,227 L 2178,227 L 2179,227 L 2179,226 L 2180,226 L 2181,226 L 2182,226 L 2182,225 L 2183,225 L 2183,224 L 2184,224 L 2184,223 L 2185,223 L 2185,222 L 2185,221 L 2186,221 L 2186,220 L 2187,219 L 2187,218 L 2188,218 L 2189,217 L 2189,216 L 2190,216 L 2190,215 L 2190,214 L 2191,214 L 2191,213 L 2192,213 L 2193,213 L 2193,214 L 2194,214 L 2194,213 L 2195,213 L 2196,213 L 2196,212 L 2196,213 L 2197,213 L 2197,212 L 2198,212 L 2199,212 L 2199,213 L 2199,212 L 2200,212 L 2201,212 L 2201,213 L 2202,213 L 2203,213 L 2204,213 L 2205,213 L 2206,213 L 2207,213 L 2208,213 L 2209,213 L 2210,213 L 2210,212 L 2210,211 L 2210,210 L 2211,210 L 2211,209 L 2210,209 L 2210,208 L 2210,207 L 2210,206 L 2210,205 L 2210,204 L 2210,203 L 2211,203 L 2211,202 L 2210,202 L 2210,201 L 2211,201 L 2211,200 L 2212,200 L 2212,199 L 2213,199 L 2213,198 L 2214,198 L 2214,197 L 2215,197 L 2215,198 L 2216,198 L 2216,197 L 2217,197 L 2217,196 L 2218,196 L 2219,196 L 2219,195 L 2220,195 L 2221,195 L 2221,194 L 2222,194 L 2223,194 L 2224,194 L 2225,194 L 2226,194 L 2227,194 L 2228,194 L 2228,193 L 2229,193 L 2230,193 L 2230,192 L 2231,192 L 2231,191 L 2232,190 L 2232,189 L 2233,189 L 2233,188 L 2234,188 L 2234,187 L 2235,187 L 2235,186 L 2236,186 L 2236,185 L 2236,184 L 2236,183 L 2236,182 L 2237,182 L 2236,182 L 2236,181 L 2237,181 L 2237,180 L 2236,180 L 2236,179 L 2237,179 L 2238,179 L 2239,178 L 2240,178 L 2241,178 L 2241,177 L 2241,176 L 2241,175 L 2240,175 L 2240,174 L 2240,173 L 2241,173 L 2242,173 L 2243,173 L 2244,173 L 2245,173 L 2246,173 L 2247,173 L 2247,174 L 2248,174 L 2249,173 L 2250,173 L 2251,173 L 2251,174 L 2251,175 L 2251,176 L 2251,175 L 2252,175 L 2252,176 L 2252,175 L 2253,175 L 2253,176 L 2254,176 L 2254,177 L 2254,176 L 2255,176 L 2255,177 L 2256,177 L 2256,176 L 2257,176 L 2258,176 L 2258,175 L 2259,175 L 2259,176 L 2260,176 L 2260,175 L 2261,175 L 2262,175 L 2263,176 L 2263,175 L 2263,176 L 2264,176 L 2264,177 L 2265,177 L 2266,177 L 2267,177 L 2267,178 L 2268,178 L 2268,179 L 2269,179 L 2269,180 L 2270,180 L 2271,180 L 2272,180 L 2273,180 L 2274,180 L 2274,181 L 2275,181 L 2276,181 L 2276,182 L 2277,182 L 2278,182 L 2279,182 L 2280,182 L 2280,183 L 2281,183 L 2281,182 L 2281,183 L 2281,182 L 2282,182 L 2282,183 L 2282,182 L 2283,183 L 2283,182 L 2283,183 L 2284,183 L 2284,182 L 2284,183 L 2285,183 L 2286,183 L 2287,183 L 2287,184 L 2288,184 L 2289,184 L 2289,183 L 2290,183 L 2291,183 L 2296,186 L 2296,187 L 2295,187 L 2295,188 L 2295,189 L 2295,190 L 2296,190 L 2296,191 L 2297,192 L 2297,193 L 2298,193 L 2298,194 L 2299,194 L 2300,194 L 2300,195 L 2301,195 L 2302,195 L 2303,195 L 2304,195 L 2305,195 L 2306,195 L 2306,196 L 2307,196 L 2307,197 L 2308,197 L 2308,198 L 2309,198 L 2309,199 L 2309,200 L 2310,200 L 2311,200 L 2312,200 L 2313,200 L 2314,200 L 2315,200 L 2316,200 L 2317,200 L 2318,200 L 2318,201 L 2319,201 L 2319,203 L 2320,203 L 2321,203 L 2322,203 L 2323,203 L 2324,203 L 2325,202 L 2326,202 L 2327,202 L 2327,201 L 2328,201 L 2329,201 L 2330,201 L 2330,200 L 2331,200 L 2332,200 L 2332,199 L 2333,199 L 2333,198 L 2332,198 L 2332,197 L 2331,197 L 2331,196 L 2331,195 L 2332,195 L 2332,194 L 2332,193 L 2333,193 L 2334,193 L 2333,193 L 2333,192 L 2334,192 L 2335,192 L 2336,193 L 2337,193 L 2338,193 L 2338,192 L 2339,192 L 2340,192 L 2340,191 L 2341,191 L 2342,191 L 2342,190 L 2343,190 L 2343,191 L 2344,191 L 2345,191 L 2346,191 L 2347,191 L 2347,190 L 2347,189 L 2348,189 L 2348,188 L 2349,188 L 2350,188 L 2350,187 L 2351,187 L 2352,187 L 2352,188 L 2353,188 L 2353,189 L 2354,189 L 2355,189 L 2355,190 L 2356,190 L 2356,191 L 2357,192 L 2358,192 L 2359,192 L 2359,193 L 2360,193 L 2361,193 L 2362,192 L 2362,193 L 2363,193 L 2363,192 L 2364,192 L 2364,191 L 2365,191 L 2366,192 L 2367,192 L 2368,192 L 2369,192 L 2370,192 L 2370,191 L 2371,190 L 2372,190 L 2373,190 L 2374,190 L 2375,188 L 2383,186 L 2395,184 L 2423,177 L 2479,164 L 2497,160 L 2685,117 L 2685,119 L 2685,129 L 2685,133 L 2685,142 L 2685,146 L 2685,152 L 2684,157 L 2684,169 " /></g>
</svg>
