<?xml version="1.0" standalone="no"?><!DOCTYPE svg PUBLIC "-//W3C//DTD SVG 1.1//EN" "http://www.w3.org/Graphics/SVG/1.1/DTD/svg11.dtd"><svg xmlns="http://www.w3.org/2000/svg" viewBox="1373 262 78 64" version = "1.1">
<g id="70603" ><path d="M 1446,301 L 1446,302 L 1446,303 L 1447,303 L 1447,304 L 1447,305 L 1448,305 L 1448,306 L 1448,307 L 1448,308 L 1449,309 L 1449,310 L 1450,310 L 1450,311 L 1450,312 L 1450,313 L 1450,315 L 1451,316 L 1450,317 L 1450,319 L 1448,319 L 1445,320 L 1437,318 L 1434,316 L 1432,317 L 1431,317 L 1431,318 L 1430,318 L 1430,319 L 1430,318 L 1430,319 L 1429,319 L 1430,319 L 1429,319 L 1429,320 L 1428,320 L 1428,321 L 1427,322 L 1425,323 L 1418,326 L 1417,326 L 1416,325 L 1416,324 L 1416,323 L 1416,322 L 1415,322 L 1415,323 L 1414,322 L 1413,322 L 1413,321 L 1413,322 L 1413,321 L 1412,321 L 1412,320 L 1411,320 L 1411,319 L 1410,319 L 1410,318 L 1410,319 L 1409,319 L 1408,319 L 1408,320 L 1407,320 L 1407,319 L 1406,319 L 1405,319 L 1405,320 L 1405,321 L 1405,322 L 1406,322 L 1406,323 L 1407,323 L 1407,324 L 1407,325 L 1406,325 L 1406,326 L 1397,323 L 1398,322 L 1398,321 L 1398,320 L 1398,318 L 1398,317 L 1398,316 L 1397,315 L 1397,314 L 1395,312 L 1395,311 L 1395,310 L 1395,309 L 1395,308 L 1394,307 L 1394,306 L 1392,305 L 1391,305 L 1390,305 L 1389,305 L 1388,305 L 1387,305 L 1387,304 L 1387,303 L 1384,304 L 1383,303 L 1382,303 L 1382,304 L 1381,303 L 1381,302 L 1380,302 L 1379,302 L 1378,302 L 1377,303 L 1376,303 L 1375,303 L 1374,303 L 1374,302 L 1373,302 L 1380,297 L 1393,287 L 1407,272 L 1431,262 L 1432,262 L 1433,263 L 1434,263 L 1434,264 L 1435,265 L 1436,265 L 1436,266 L 1436,267 L 1437,267 L 1437,268 L 1437,269 L 1438,269 L 1438,270 L 1438,271 L 1438,272 L 1439,272 L 1440,273 L 1441,274 L 1441,275 L 1442,276 L 1442,277 L 1443,277 L 1443,278 L 1443,279 L 1443,281 L 1443,282 L 1444,283 L 1445,285 L 1445,286 L 1446,287 L 1446,288 L 1446,289 L 1446,291 L 1446,292 L 1445,294 L 1445,295 L 1445,296 L 1445,297 L 1446,298 L 1446,299 L 1447,300 L 1447,301 L 1446,301 " /></g>
</svg>
