<?xml version="1.0" standalone="no"?><!DOCTYPE svg PUBLIC "-//W3C//DTD SVG 1.1//EN" "http://www.w3.org/Graphics/SVG/1.1/DTD/svg11.dtd"><svg xmlns="http://www.w3.org/2000/svg" viewBox="1309 165 122 159" version = "1.1">
<g id="70601" ><path d="M 1402,169 L 1403,170 L 1403,171 L 1403,172 L 1403,173 L 1404,173 L 1404,174 L 1404,175 L 1404,176 L 1405,176 L 1405,177 L 1404,177 L 1404,178 L 1404,179 L 1404,180 L 1405,180 L 1406,180 L 1406,181 L 1407,181 L 1407,182 L 1408,183 L 1408,184 L 1407,184 L 1406,185 L 1405,186 L 1404,187 L 1404,188 L 1403,189 L 1403,190 L 1403,191 L 1403,193 L 1403,195 L 1404,196 L 1405,197 L 1406,197 L 1407,198 L 1408,197 L 1409,197 L 1410,197 L 1411,198 L 1411,199 L 1410,199 L 1410,200 L 1410,201 L 1411,201 L 1411,202 L 1411,203 L 1410,204 L 1411,205 L 1411,206 L 1410,206 L 1410,207 L 1410,208 L 1410,209 L 1410,210 L 1410,211 L 1410,212 L 1410,213 L 1409,214 L 1408,214 L 1407,214 L 1407,215 L 1407,216 L 1408,217 L 1408,219 L 1407,220 L 1407,221 L 1407,222 L 1407,223 L 1407,224 L 1407,225 L 1405,227 L 1405,228 L 1404,229 L 1404,232 L 1404,234 L 1405,235 L 1405,236 L 1406,238 L 1405,238 L 1405,240 L 1406,240 L 1406,241 L 1407,242 L 1408,242 L 1408,243 L 1409,243 L 1410,243 L 1411,243 L 1411,244 L 1412,244 L 1412,245 L 1412,246 L 1413,246 L 1414,247 L 1414,248 L 1415,249 L 1415,250 L 1417,250 L 1418,251 L 1419,252 L 1420,253 L 1421,253 L 1422,253 L 1423,253 L 1424,253 L 1425,253 L 1426,253 L 1427,253 L 1428,254 L 1429,255 L 1430,255 L 1430,256 L 1430,257 L 1430,258 L 1430,259 L 1430,260 L 1431,261 L 1431,262 L 1407,272 L 1393,287 L 1380,297 L 1373,302 L 1372,302 L 1371,302 L 1371,303 L 1371,304 L 1371,305 L 1371,306 L 1371,307 L 1371,308 L 1372,309 L 1372,310 L 1371,311 L 1370,312 L 1371,313 L 1371,314 L 1370,314 L 1369,314 L 1368,315 L 1367,315 L 1367,316 L 1367,317 L 1367,318 L 1368,318 L 1368,319 L 1368,320 L 1367,320 L 1366,320 L 1365,320 L 1364,321 L 1363,322 L 1362,322 L 1361,322 L 1360,322 L 1360,323 L 1359,323 L 1358,323 L 1357,323 L 1357,324 L 1356,324 L 1355,324 L 1354,324 L 1353,324 L 1352,323 L 1352,322 L 1351,322 L 1351,321 L 1351,320 L 1350,320 L 1349,320 L 1349,319 L 1348,319 L 1348,318 L 1348,317 L 1348,316 L 1348,315 L 1348,314 L 1347,314 L 1347,313 L 1346,313 L 1345,313 L 1345,312 L 1345,311 L 1344,310 L 1343,310 L 1343,309 L 1343,308 L 1342,308 L 1342,307 L 1342,306 L 1341,306 L 1341,305 L 1340,305 L 1340,306 L 1340,305 L 1339,305 L 1340,305 L 1340,304 L 1339,304 L 1339,305 L 1338,305 L 1338,304 L 1338,303 L 1337,303 L 1337,302 L 1336,302 L 1337,302 L 1336,302 L 1336,301 L 1337,301 L 1338,301 L 1338,300 L 1338,299 L 1337,299 L 1338,299 L 1338,298 L 1337,298 L 1337,297 L 1338,297 L 1338,296 L 1339,296 L 1338,295 L 1337,294 L 1336,295 L 1336,294 L 1335,294 L 1336,294 L 1336,293 L 1335,292 L 1336,292 L 1336,291 L 1336,290 L 1337,290 L 1337,289 L 1337,290 L 1337,291 L 1338,291 L 1339,290 L 1338,290 L 1338,289 L 1338,288 L 1338,287 L 1339,287 L 1340,286 L 1339,285 L 1339,284 L 1340,284 L 1340,283 L 1340,282 L 1341,282 L 1341,281 L 1341,280 L 1341,279 L 1341,278 L 1342,278 L 1343,278 L 1344,278 L 1344,277 L 1344,276 L 1345,276 L 1345,277 L 1345,278 L 1346,278 L 1346,279 L 1347,279 L 1347,278 L 1346,278 L 1347,278 L 1347,277 L 1346,277 L 1346,276 L 1347,275 L 1346,275 L 1346,274 L 1346,273 L 1345,273 L 1345,272 L 1345,271 L 1345,270 L 1346,270 L 1346,269 L 1346,268 L 1345,268 L 1346,267 L 1346,266 L 1347,266 L 1347,265 L 1348,265 L 1349,265 L 1349,264 L 1349,263 L 1348,263 L 1348,264 L 1347,264 L 1347,263 L 1346,263 L 1346,264 L 1347,264 L 1347,265 L 1346,265 L 1345,265 L 1344,265 L 1343,264 L 1342,263 L 1342,262 L 1341,262 L 1341,261 L 1341,260 L 1342,260 L 1342,259 L 1343,259 L 1343,258 L 1344,259 L 1344,260 L 1345,260 L 1345,261 L 1346,261 L 1347,261 L 1347,260 L 1346,260 L 1346,259 L 1347,259 L 1346,259 L 1346,258 L 1346,257 L 1347,257 L 1348,257 L 1349,257 L 1349,256 L 1349,255 L 1349,254 L 1348,254 L 1348,253 L 1347,253 L 1346,253 L 1346,252 L 1345,252 L 1345,251 L 1344,251 L 1343,250 L 1343,249 L 1344,248 L 1343,248 L 1343,249 L 1342,249 L 1342,248 L 1341,247 L 1342,247 L 1341,247 L 1341,246 L 1341,245 L 1341,244 L 1340,243 L 1339,243 L 1339,244 L 1338,244 L 1337,243 L 1336,242 L 1335,242 L 1333,240 L 1333,239 L 1334,239 L 1333,238 L 1332,238 L 1332,237 L 1333,237 L 1332,237 L 1332,236 L 1331,236 L 1331,235 L 1331,234 L 1330,234 L 1330,233 L 1329,233 L 1329,234 L 1328,234 L 1328,233 L 1328,232 L 1327,232 L 1326,232 L 1326,231 L 1325,231 L 1324,231 L 1324,230 L 1323,230 L 1323,229 L 1322,229 L 1321,229 L 1320,229 L 1321,229 L 1321,228 L 1320,228 L 1319,228 L 1318,228 L 1317,229 L 1317,228 L 1316,228 L 1316,227 L 1315,227 L 1315,226 L 1315,225 L 1315,224 L 1315,223 L 1314,223 L 1314,222 L 1314,221 L 1314,220 L 1313,220 L 1313,219 L 1313,218 L 1312,218 L 1312,217 L 1312,216 L 1311,216 L 1311,215 L 1312,215 L 1313,214 L 1313,213 L 1314,213 L 1314,212 L 1315,212 L 1315,211 L 1315,210 L 1316,210 L 1317,210 L 1317,209 L 1318,209 L 1318,208 L 1318,207 L 1317,207 L 1317,206 L 1316,206 L 1316,205 L 1316,204 L 1315,204 L 1315,203 L 1314,203 L 1314,202 L 1314,201 L 1315,201 L 1315,200 L 1315,199 L 1315,198 L 1316,198 L 1317,198 L 1317,197 L 1316,197 L 1315,197 L 1315,196 L 1316,196 L 1315,196 L 1315,195 L 1315,194 L 1315,193 L 1315,192 L 1315,191 L 1315,190 L 1315,189 L 1315,188 L 1315,187 L 1314,187 L 1314,186 L 1314,185 L 1314,184 L 1314,183 L 1313,183 L 1313,182 L 1313,181 L 1314,181 L 1313,181 L 1313,180 L 1312,180 L 1312,179 L 1312,178 L 1311,178 L 1311,177 L 1311,176 L 1312,176 L 1311,176 L 1311,175 L 1311,174 L 1310,173 L 1310,172 L 1309,172 L 1309,171 L 1310,171 L 1309,171 L 1310,171 L 1341,166 L 1354,173 L 1360,180 L 1366,180 L 1378,175 L 1391,170 L 1399,165 L 1400,165 L 1400,166 L 1401,167 L 1401,168 L 1402,168 L 1402,169 " /></g>
</svg>
