<?xml version="1.0" standalone="no"?><!DOCTYPE svg PUBLIC "-//W3C//DTD SVG 1.1//EN" "http://www.w3.org/Graphics/SVG/1.1/DTD/svg11.dtd"><svg xmlns="http://www.w3.org/2000/svg" viewBox="1005 -238 394 418" version = "1.1">
<g id="70602" ><path d="M 1104,-187 L 1104,-186 L 1104,-185 L 1105,-184 L 1106,-184 L 1106,-183 L 1107,-183 L 1107,-182 L 1108,-182 L 1109,-182 L 1110,-182 L 1111,-182 L 1111,-183 L 1111,-184 L 1112,-184 L 1113,-184 L 1113,-185 L 1114,-186 L 1114,-187 L 1115,-187 L 1116,-187 L 1116,-186 L 1115,-186 L 1115,-185 L 1116,-185 L 1116,-184 L 1116,-183 L 1116,-182 L 1117,-182 L 1117,-181 L 1118,-181 L 1118,-180 L 1119,-180 L 1120,-180 L 1121,-180 L 1122,-180 L 1123,-181 L 1124,-181 L 1125,-181 L 1125,-182 L 1124,-183 L 1125,-183 L 1125,-184 L 1125,-185 L 1125,-184 L 1126,-183 L 1127,-183 L 1128,-183 L 1128,-184 L 1129,-184 L 1129,-185 L 1130,-185 L 1130,-186 L 1131,-186 L 1132,-186 L 1132,-185 L 1133,-185 L 1134,-185 L 1134,-184 L 1135,-184 L 1135,-185 L 1135,-184 L 1136,-184 L 1135,-184 L 1136,-184 L 1136,-183 L 1136,-184 L 1136,-185 L 1137,-185 L 1137,-186 L 1138,-186 L 1139,-186 L 1139,-185 L 1140,-185 L 1140,-186 L 1140,-187 L 1141,-187 L 1141,-186 L 1141,-185 L 1142,-185 L 1143,-185 L 1143,-186 L 1143,-187 L 1144,-187 L 1145,-187 L 1145,-188 L 1146,-189 L 1147,-189 L 1148,-188 L 1149,-188 L 1150,-188 L 1151,-188 L 1151,-189 L 1150,-189 L 1150,-190 L 1151,-190 L 1151,-189 L 1152,-189 L 1153,-189 L 1153,-188 L 1152,-188 L 1152,-187 L 1153,-187 L 1153,-188 L 1154,-188 L 1154,-187 L 1153,-187 L 1153,-186 L 1153,-185 L 1153,-184 L 1154,-184 L 1154,-183 L 1155,-183 L 1156,-183 L 1157,-183 L 1156,-183 L 1156,-184 L 1156,-185 L 1157,-185 L 1157,-184 L 1157,-183 L 1158,-183 L 1158,-184 L 1159,-184 L 1159,-183 L 1160,-183 L 1160,-182 L 1159,-182 L 1158,-182 L 1158,-181 L 1158,-180 L 1158,-181 L 1159,-181 L 1160,-181 L 1161,-181 L 1160,-180 L 1159,-180 L 1159,-179 L 1160,-179 L 1160,-178 L 1159,-178 L 1159,-177 L 1159,-176 L 1159,-175 L 1160,-176 L 1161,-177 L 1162,-177 L 1163,-177 L 1164,-177 L 1165,-177 L 1165,-176 L 1164,-176 L 1164,-175 L 1165,-175 L 1166,-175 L 1166,-174 L 1166,-173 L 1166,-172 L 1165,-172 L 1166,-172 L 1167,-172 L 1167,-171 L 1167,-170 L 1167,-169 L 1168,-169 L 1168,-168 L 1169,-168 L 1169,-167 L 1169,-166 L 1170,-166 L 1170,-165 L 1169,-165 L 1169,-164 L 1170,-164 L 1170,-163 L 1171,-164 L 1171,-165 L 1171,-164 L 1172,-164 L 1173,-164 L 1173,-165 L 1172,-165 L 1172,-166 L 1171,-166 L 1171,-167 L 1170,-167 L 1170,-168 L 1171,-168 L 1172,-168 L 1173,-168 L 1173,-167 L 1173,-166 L 1173,-167 L 1174,-167 L 1174,-166 L 1173,-166 L 1173,-165 L 1173,-164 L 1173,-163 L 1174,-163 L 1175,-163 L 1175,-162 L 1176,-162 L 1176,-163 L 1176,-162 L 1177,-161 L 1178,-161 L 1178,-162 L 1178,-163 L 1179,-163 L 1179,-164 L 1178,-164 L 1178,-165 L 1179,-165 L 1180,-165 L 1180,-166 L 1180,-167 L 1179,-167 L 1180,-168 L 1180,-167 L 1181,-167 L 1182,-167 L 1183,-167 L 1183,-166 L 1183,-165 L 1182,-165 L 1183,-165 L 1183,-164 L 1182,-164 L 1182,-163 L 1183,-163 L 1183,-164 L 1184,-164 L 1185,-164 L 1184,-163 L 1184,-162 L 1184,-161 L 1183,-161 L 1183,-160 L 1184,-160 L 1184,-161 L 1185,-161 L 1186,-162 L 1186,-161 L 1186,-160 L 1186,-159 L 1186,-158 L 1186,-159 L 1187,-159 L 1188,-159 L 1188,-160 L 1188,-161 L 1188,-160 L 1188,-159 L 1189,-159 L 1190,-159 L 1190,-158 L 1189,-158 L 1189,-157 L 1190,-157 L 1191,-157 L 1191,-156 L 1192,-156 L 1193,-156 L 1193,-155 L 1192,-155 L 1191,-155 L 1190,-155 L 1190,-154 L 1191,-154 L 1191,-155 L 1192,-155 L 1192,-154 L 1192,-153 L 1191,-153 L 1192,-153 L 1193,-153 L 1193,-152 L 1194,-152 L 1194,-151 L 1194,-150 L 1193,-150 L 1193,-149 L 1192,-149 L 1192,-148 L 1193,-148 L 1193,-147 L 1192,-147 L 1193,-147 L 1194,-146 L 1195,-146 L 1194,-146 L 1194,-145 L 1195,-145 L 1195,-146 L 1196,-146 L 1196,-145 L 1197,-145 L 1198,-145 L 1198,-144 L 1199,-144 L 1198,-144 L 1197,-144 L 1197,-143 L 1198,-143 L 1198,-142 L 1197,-142 L 1197,-141 L 1198,-141 L 1198,-140 L 1199,-140 L 1199,-139 L 1200,-139 L 1201,-139 L 1200,-139 L 1201,-140 L 1202,-140 L 1202,-139 L 1203,-139 L 1203,-140 L 1203,-141 L 1204,-141 L 1204,-140 L 1204,-139 L 1203,-139 L 1203,-138 L 1202,-138 L 1202,-137 L 1203,-137 L 1203,-138 L 1204,-138 L 1205,-138 L 1205,-137 L 1204,-137 L 1203,-137 L 1203,-136 L 1204,-136 L 1204,-135 L 1205,-135 L 1205,-136 L 1206,-136 L 1206,-135 L 1207,-135 L 1207,-136 L 1208,-136 L 1208,-135 L 1207,-135 L 1208,-135 L 1208,-134 L 1209,-134 L 1209,-135 L 1210,-134 L 1210,-133 L 1209,-133 L 1208,-133 L 1208,-132 L 1207,-132 L 1207,-131 L 1207,-132 L 1206,-132 L 1206,-131 L 1207,-131 L 1206,-131 L 1205,-131 L 1204,-131 L 1204,-130 L 1204,-129 L 1205,-129 L 1205,-130 L 1206,-130 L 1205,-129 L 1206,-129 L 1206,-130 L 1207,-130 L 1207,-129 L 1207,-128 L 1206,-128 L 1206,-127 L 1206,-126 L 1207,-126 L 1207,-125 L 1208,-125 L 1208,-124 L 1208,-123 L 1209,-123 L 1209,-124 L 1210,-124 L 1210,-125 L 1211,-125 L 1211,-126 L 1212,-126 L 1213,-126 L 1213,-125 L 1212,-124 L 1212,-123 L 1213,-123 L 1213,-124 L 1213,-123 L 1214,-123 L 1215,-123 L 1215,-122 L 1214,-122 L 1213,-122 L 1212,-122 L 1212,-121 L 1213,-121 L 1213,-120 L 1213,-119 L 1214,-119 L 1213,-119 L 1213,-120 L 1214,-120 L 1215,-120 L 1215,-119 L 1216,-119 L 1216,-120 L 1217,-120 L 1217,-119 L 1217,-118 L 1218,-118 L 1217,-118 L 1216,-118 L 1215,-118 L 1215,-117 L 1216,-117 L 1217,-117 L 1217,-116 L 1216,-116 L 1215,-116 L 1215,-115 L 1214,-116 L 1214,-115 L 1214,-114 L 1215,-114 L 1216,-114 L 1216,-113 L 1216,-112 L 1217,-112 L 1216,-111 L 1215,-110 L 1214,-109 L 1214,-108 L 1215,-108 L 1215,-109 L 1216,-109 L 1217,-110 L 1218,-110 L 1217,-110 L 1217,-109 L 1217,-108 L 1216,-108 L 1215,-107 L 1216,-107 L 1217,-107 L 1218,-107 L 1218,-106 L 1219,-106 L 1219,-107 L 1220,-107 L 1221,-107 L 1222,-107 L 1223,-108 L 1224,-108 L 1224,-107 L 1223,-107 L 1223,-106 L 1223,-105 L 1222,-105 L 1221,-105 L 1222,-105 L 1222,-104 L 1223,-104 L 1223,-103 L 1224,-103 L 1224,-102 L 1225,-102 L 1226,-102 L 1226,-101 L 1227,-101 L 1227,-102 L 1226,-102 L 1227,-103 L 1227,-104 L 1228,-104 L 1229,-104 L 1229,-103 L 1229,-102 L 1230,-102 L 1230,-103 L 1229,-103 L 1229,-104 L 1229,-105 L 1230,-105 L 1231,-105 L 1231,-104 L 1231,-105 L 1232,-105 L 1232,-104 L 1231,-104 L 1232,-104 L 1233,-104 L 1233,-103 L 1233,-102 L 1233,-101 L 1232,-101 L 1233,-101 L 1233,-100 L 1232,-100 L 1232,-99 L 1232,-98 L 1232,-97 L 1232,-96 L 1233,-96 L 1234,-96 L 1234,-95 L 1234,-96 L 1235,-96 L 1236,-96 L 1237,-96 L 1237,-97 L 1236,-97 L 1236,-98 L 1237,-98 L 1237,-97 L 1238,-97 L 1239,-97 L 1240,-97 L 1241,-97 L 1242,-97 L 1241,-97 L 1241,-96 L 1240,-96 L 1240,-95 L 1239,-95 L 1238,-95 L 1238,-94 L 1237,-94 L 1236,-94 L 1236,-93 L 1237,-93 L 1238,-93 L 1238,-92 L 1239,-92 L 1240,-92 L 1240,-91 L 1241,-91 L 1242,-91 L 1242,-90 L 1243,-90 L 1243,-89 L 1242,-89 L 1242,-88 L 1243,-88 L 1242,-88 L 1242,-87 L 1241,-87 L 1241,-86 L 1241,-85 L 1241,-84 L 1242,-84 L 1242,-85 L 1243,-85 L 1244,-85 L 1244,-84 L 1243,-84 L 1243,-83 L 1243,-82 L 1244,-82 L 1243,-81 L 1243,-82 L 1242,-82 L 1242,-81 L 1243,-81 L 1243,-80 L 1242,-80 L 1241,-80 L 1240,-80 L 1240,-79 L 1241,-79 L 1242,-79 L 1242,-78 L 1243,-78 L 1244,-78 L 1244,-77 L 1244,-76 L 1243,-76 L 1243,-75 L 1244,-75 L 1245,-74 L 1246,-74 L 1246,-75 L 1246,-76 L 1247,-75 L 1247,-74 L 1248,-74 L 1248,-73 L 1248,-72 L 1247,-72 L 1247,-71 L 1246,-71 L 1246,-70 L 1246,-69 L 1247,-69 L 1248,-69 L 1248,-68 L 1247,-68 L 1246,-67 L 1246,-66 L 1245,-66 L 1245,-65 L 1246,-65 L 1247,-63 L 1248,-63 L 1248,-64 L 1248,-63 L 1249,-63 L 1249,-62 L 1250,-61 L 1250,-60 L 1251,-60 L 1251,-59 L 1252,-59 L 1251,-59 L 1251,-58 L 1250,-58 L 1249,-58 L 1248,-58 L 1248,-59 L 1247,-60 L 1247,-61 L 1247,-62 L 1246,-62 L 1246,-63 L 1245,-63 L 1244,-63 L 1243,-63 L 1242,-63 L 1242,-62 L 1241,-62 L 1241,-61 L 1240,-61 L 1240,-60 L 1239,-60 L 1238,-60 L 1237,-60 L 1237,-59 L 1236,-59 L 1236,-58 L 1235,-58 L 1235,-59 L 1234,-59 L 1234,-60 L 1234,-61 L 1233,-61 L 1233,-60 L 1232,-60 L 1232,-61 L 1231,-60 L 1232,-60 L 1232,-59 L 1233,-58 L 1234,-58 L 1234,-57 L 1233,-57 L 1232,-57 L 1231,-57 L 1230,-57 L 1230,-56 L 1231,-56 L 1231,-55 L 1231,-54 L 1230,-54 L 1231,-54 L 1231,-53 L 1232,-53 L 1232,-52 L 1233,-52 L 1233,-53 L 1233,-52 L 1234,-52 L 1234,-51 L 1235,-51 L 1236,-51 L 1237,-51 L 1237,-50 L 1238,-50 L 1238,-49 L 1238,-48 L 1237,-48 L 1237,-47 L 1237,-46 L 1237,-45 L 1237,-44 L 1237,-43 L 1238,-43 L 1238,-42 L 1238,-41 L 1239,-41 L 1239,-40 L 1240,-40 L 1241,-40 L 1241,-39 L 1242,-39 L 1243,-39 L 1244,-39 L 1245,-39 L 1245,-40 L 1246,-40 L 1247,-41 L 1247,-40 L 1248,-40 L 1248,-39 L 1249,-39 L 1249,-38 L 1250,-39 L 1251,-39 L 1251,-38 L 1252,-38 L 1252,-37 L 1253,-37 L 1254,-37 L 1254,-36 L 1255,-36 L 1256,-36 L 1257,-36 L 1258,-36 L 1259,-36 L 1259,-35 L 1259,-36 L 1260,-36 L 1259,-36 L 1259,-37 L 1259,-36 L 1258,-37 L 1259,-37 L 1260,-38 L 1261,-38 L 1261,-37 L 1262,-37 L 1263,-38 L 1263,-39 L 1262,-39 L 1262,-40 L 1263,-40 L 1263,-41 L 1263,-40 L 1263,-39 L 1264,-39 L 1265,-39 L 1266,-39 L 1266,-38 L 1266,-37 L 1267,-37 L 1268,-37 L 1268,-38 L 1269,-38 L 1269,-37 L 1270,-36 L 1270,-35 L 1271,-35 L 1270,-35 L 1270,-34 L 1269,-34 L 1269,-33 L 1270,-33 L 1271,-33 L 1271,-34 L 1272,-35 L 1272,-34 L 1273,-34 L 1273,-33 L 1272,-33 L 1271,-33 L 1271,-32 L 1271,-31 L 1272,-31 L 1273,-31 L 1273,-32 L 1273,-33 L 1273,-32 L 1274,-32 L 1274,-31 L 1274,-30 L 1274,-31 L 1273,-31 L 1272,-31 L 1272,-30 L 1273,-30 L 1274,-29 L 1274,-28 L 1275,-28 L 1275,-29 L 1275,-30 L 1275,-31 L 1276,-31 L 1276,-30 L 1277,-30 L 1277,-29 L 1278,-29 L 1277,-29 L 1277,-28 L 1277,-27 L 1277,-26 L 1278,-26 L 1278,-27 L 1278,-28 L 1279,-28 L 1280,-28 L 1279,-27 L 1279,-26 L 1279,-25 L 1278,-25 L 1279,-24 L 1279,-23 L 1280,-23 L 1281,-23 L 1281,-22 L 1282,-22 L 1283,-22 L 1283,-23 L 1283,-22 L 1283,-21 L 1282,-21 L 1282,-22 L 1283,-22 L 1282,-22 L 1282,-21 L 1282,-20 L 1282,-19 L 1283,-19 L 1282,-18 L 1282,-17 L 1283,-17 L 1283,-16 L 1282,-15 L 1282,-14 L 1281,-14 L 1281,-13 L 1280,-12 L 1279,-12 L 1279,-11 L 1278,-11 L 1278,-10 L 1279,-10 L 1280,-10 L 1280,-9 L 1281,-9 L 1281,-8 L 1281,-7 L 1282,-7 L 1283,-7 L 1283,-6 L 1283,-5 L 1284,-5 L 1284,-4 L 1285,-4 L 1285,-5 L 1285,-4 L 1286,-4 L 1287,-4 L 1288,-4 L 1288,-3 L 1289,-2 L 1288,-2 L 1288,-1 L 1288,0 L 1288,-1 L 1287,-1 L 1287,0 L 1287,1 L 1287,2 L 1286,2 L 1287,2 L 1287,3 L 1287,4 L 1286,3 L 1285,4 L 1286,4 L 1286,5 L 1285,5 L 1285,6 L 1286,6 L 1286,7 L 1286,8 L 1286,9 L 1286,10 L 1286,11 L 1286,12 L 1287,12 L 1287,13 L 1288,13 L 1288,14 L 1289,14 L 1289,13 L 1290,13 L 1291,13 L 1292,13 L 1292,14 L 1291,14 L 1292,14 L 1293,14 L 1294,14 L 1295,14 L 1295,13 L 1296,13 L 1296,12 L 1297,12 L 1297,11 L 1298,11 L 1298,10 L 1299,10 L 1300,10 L 1301,11 L 1302,12 L 1302,11 L 1303,11 L 1303,12 L 1303,13 L 1304,13 L 1303,14 L 1302,15 L 1303,15 L 1303,16 L 1303,17 L 1302,18 L 1302,19 L 1302,20 L 1303,20 L 1303,21 L 1304,21 L 1304,22 L 1305,22 L 1306,22 L 1306,23 L 1307,23 L 1307,24 L 1307,25 L 1307,26 L 1308,26 L 1308,27 L 1309,27 L 1310,27 L 1310,28 L 1311,28 L 1311,27 L 1312,27 L 1312,28 L 1313,29 L 1313,30 L 1314,30 L 1314,31 L 1314,32 L 1314,33 L 1315,33 L 1316,34 L 1317,34 L 1318,34 L 1318,35 L 1318,36 L 1318,37 L 1317,37 L 1318,38 L 1318,39 L 1318,40 L 1318,41 L 1319,41 L 1319,42 L 1320,42 L 1320,43 L 1321,44 L 1321,45 L 1321,46 L 1322,46 L 1323,46 L 1323,47 L 1322,48 L 1323,48 L 1323,49 L 1324,49 L 1324,50 L 1325,50 L 1326,50 L 1326,51 L 1327,51 L 1327,52 L 1328,52 L 1329,53 L 1330,53 L 1331,53 L 1331,54 L 1332,54 L 1333,54 L 1333,55 L 1333,56 L 1333,55 L 1334,55 L 1335,55 L 1336,56 L 1337,56 L 1337,57 L 1338,57 L 1339,58 L 1340,58 L 1340,59 L 1340,60 L 1341,60 L 1341,61 L 1342,61 L 1342,62 L 1343,61 L 1344,61 L 1344,62 L 1345,62 L 1345,61 L 1345,62 L 1345,63 L 1346,63 L 1347,63 L 1348,64 L 1347,64 L 1346,64 L 1347,65 L 1347,66 L 1347,67 L 1348,67 L 1349,67 L 1349,68 L 1348,68 L 1349,69 L 1350,69 L 1350,70 L 1351,70 L 1352,70 L 1353,70 L 1353,69 L 1353,70 L 1352,71 L 1353,71 L 1354,71 L 1354,72 L 1355,72 L 1355,73 L 1355,74 L 1356,74 L 1356,75 L 1357,75 L 1358,75 L 1358,76 L 1358,77 L 1357,78 L 1358,78 L 1358,79 L 1357,79 L 1358,79 L 1358,80 L 1358,81 L 1358,82 L 1358,83 L 1358,84 L 1358,85 L 1358,86 L 1359,86 L 1359,87 L 1360,88 L 1360,89 L 1360,90 L 1359,91 L 1359,92 L 1359,93 L 1359,94 L 1358,94 L 1358,95 L 1358,96 L 1359,96 L 1359,97 L 1360,97 L 1361,97 L 1361,98 L 1362,98 L 1363,98 L 1363,99 L 1364,99 L 1364,100 L 1365,100 L 1366,100 L 1366,101 L 1367,101 L 1368,101 L 1368,102 L 1368,103 L 1367,103 L 1367,104 L 1366,104 L 1366,105 L 1367,105 L 1368,105 L 1368,106 L 1368,107 L 1368,108 L 1369,108 L 1370,108 L 1370,107 L 1370,108 L 1371,108 L 1371,109 L 1371,110 L 1372,110 L 1372,109 L 1373,109 L 1373,110 L 1374,110 L 1374,111 L 1375,111 L 1375,112 L 1375,113 L 1376,113 L 1376,114 L 1376,115 L 1375,116 L 1376,116 L 1376,117 L 1377,117 L 1378,117 L 1378,118 L 1379,118 L 1379,119 L 1379,120 L 1380,121 L 1380,122 L 1380,123 L 1380,124 L 1380,125 L 1381,125 L 1381,126 L 1381,127 L 1381,128 L 1380,128 L 1380,129 L 1380,130 L 1381,130 L 1381,131 L 1381,132 L 1382,132 L 1382,133 L 1382,134 L 1383,134 L 1384,134 L 1384,135 L 1384,136 L 1385,136 L 1385,137 L 1386,137 L 1386,138 L 1387,138 L 1387,139 L 1388,139 L 1387,140 L 1388,140 L 1387,141 L 1387,142 L 1387,143 L 1387,144 L 1388,144 L 1389,145 L 1390,146 L 1390,147 L 1391,147 L 1392,147 L 1393,147 L 1393,148 L 1393,149 L 1393,150 L 1392,150 L 1392,151 L 1393,151 L 1393,152 L 1392,153 L 1393,154 L 1394,155 L 1394,156 L 1395,157 L 1396,157 L 1396,158 L 1397,158 L 1397,159 L 1397,160 L 1398,161 L 1398,162 L 1398,163 L 1398,164 L 1399,165 L 1391,170 L 1378,175 L 1366,180 L 1360,180 L 1354,173 L 1341,166 L 1310,171 L 1310,170 L 1311,170 L 1310,170 L 1310,169 L 1311,169 L 1311,168 L 1310,168 L 1310,167 L 1310,166 L 1310,167 L 1310,166 L 1309,166 L 1310,166 L 1310,165 L 1310,164 L 1310,163 L 1311,163 L 1311,162 L 1312,162 L 1311,161 L 1311,160 L 1310,160 L 1310,159 L 1309,159 L 1308,159 L 1308,158 L 1307,158 L 1306,158 L 1306,157 L 1306,156 L 1306,157 L 1305,157 L 1305,156 L 1304,156 L 1305,155 L 1304,155 L 1304,154 L 1303,154 L 1303,153 L 1302,153 L 1302,152 L 1301,152 L 1302,152 L 1302,151 L 1303,151 L 1303,150 L 1302,150 L 1301,150 L 1301,149 L 1302,149 L 1301,149 L 1300,149 L 1300,148 L 1300,147 L 1299,147 L 1298,147 L 1298,146 L 1297,146 L 1297,147 L 1296,147 L 1295,147 L 1296,147 L 1295,147 L 1294,147 L 1294,146 L 1294,145 L 1294,144 L 1293,144 L 1293,143 L 1294,143 L 1293,143 L 1293,142 L 1294,142 L 1294,141 L 1293,141 L 1293,140 L 1292,139 L 1292,138 L 1291,137 L 1291,136 L 1290,137 L 1290,136 L 1289,136 L 1288,136 L 1288,135 L 1287,135 L 1287,136 L 1287,135 L 1287,134 L 1286,134 L 1286,133 L 1286,132 L 1285,132 L 1284,132 L 1284,131 L 1283,131 L 1283,132 L 1282,133 L 1282,132 L 1282,133 L 1282,132 L 1281,132 L 1280,132 L 1279,131 L 1279,132 L 1278,132 L 1278,131 L 1278,132 L 1278,131 L 1278,132 L 1277,132 L 1277,131 L 1277,132 L 1276,132 L 1276,131 L 1275,131 L 1275,130 L 1275,129 L 1274,129 L 1274,130 L 1273,130 L 1273,131 L 1272,130 L 1273,130 L 1273,129 L 1272,129 L 1272,128 L 1271,128 L 1271,127 L 1270,127 L 1270,126 L 1271,125 L 1270,125 L 1270,124 L 1271,124 L 1270,124 L 1269,124 L 1269,123 L 1270,123 L 1269,122 L 1269,121 L 1268,121 L 1267,120 L 1267,119 L 1267,118 L 1267,117 L 1266,117 L 1266,116 L 1266,115 L 1266,114 L 1265,113 L 1265,114 L 1265,113 L 1264,113 L 1264,114 L 1263,113 L 1263,114 L 1263,115 L 1263,116 L 1262,116 L 1262,115 L 1261,115 L 1261,114 L 1261,113 L 1261,112 L 1260,112 L 1259,112 L 1258,112 L 1257,112 L 1258,112 L 1257,113 L 1257,112 L 1257,113 L 1257,112 L 1256,112 L 1257,112 L 1256,112 L 1256,111 L 1255,111 L 1256,111 L 1255,111 L 1255,110 L 1256,110 L 1255,110 L 1254,110 L 1253,110 L 1252,110 L 1253,111 L 1252,111 L 1252,110 L 1251,110 L 1251,109 L 1250,109 L 1251,109 L 1250,109 L 1249,109 L 1248,109 L 1249,109 L 1248,109 L 1248,110 L 1247,110 L 1246,110 L 1246,109 L 1245,109 L 1244,109 L 1243,109 L 1244,109 L 1243,109 L 1243,110 L 1243,109 L 1243,110 L 1243,111 L 1242,111 L 1242,112 L 1241,112 L 1241,111 L 1240,111 L 1240,110 L 1240,111 L 1239,111 L 1239,110 L 1240,110 L 1239,110 L 1240,110 L 1239,110 L 1239,109 L 1239,110 L 1238,110 L 1238,109 L 1238,110 L 1238,109 L 1237,109 L 1237,110 L 1237,109 L 1236,109 L 1236,110 L 1235,110 L 1235,109 L 1236,109 L 1235,108 L 1235,109 L 1234,109 L 1234,108 L 1233,108 L 1232,108 L 1232,107 L 1231,107 L 1230,107 L 1230,106 L 1229,106 L 1228,106 L 1228,107 L 1227,107 L 1226,107 L 1226,106 L 1226,105 L 1225,105 L 1225,106 L 1224,106 L 1224,105 L 1223,105 L 1224,105 L 1224,104 L 1223,104 L 1223,103 L 1222,103 L 1222,102 L 1221,103 L 1221,104 L 1220,104 L 1219,104 L 1219,103 L 1218,102 L 1218,103 L 1217,103 L 1216,103 L 1215,103 L 1215,102 L 1214,102 L 1213,102 L 1213,103 L 1212,103 L 1211,103 L 1211,102 L 1210,102 L 1209,102 L 1208,102 L 1207,101 L 1206,101 L 1206,102 L 1206,103 L 1205,103 L 1204,103 L 1204,104 L 1203,103 L 1203,102 L 1204,102 L 1203,102 L 1202,102 L 1202,101 L 1203,101 L 1203,100 L 1202,100 L 1201,100 L 1200,100 L 1199,100 L 1198,101 L 1198,100 L 1197,100 L 1197,99 L 1196,99 L 1196,98 L 1197,98 L 1197,97 L 1196,97 L 1196,96 L 1195,96 L 1194,96 L 1195,95 L 1194,95 L 1193,95 L 1194,95 L 1194,94 L 1194,95 L 1195,95 L 1195,94 L 1195,95 L 1195,94 L 1196,94 L 1196,93 L 1197,93 L 1197,92 L 1198,92 L 1199,91 L 1198,91 L 1199,91 L 1199,90 L 1198,90 L 1197,90 L 1197,89 L 1198,89 L 1197,89 L 1196,89 L 1196,88 L 1195,88 L 1196,88 L 1196,87 L 1195,87 L 1196,87 L 1195,87 L 1195,86 L 1196,86 L 1196,85 L 1195,85 L 1196,85 L 1197,85 L 1197,86 L 1197,85 L 1198,85 L 1198,84 L 1197,84 L 1196,85 L 1196,84 L 1197,84 L 1196,84 L 1196,83 L 1197,83 L 1196,83 L 1196,82 L 1195,82 L 1195,81 L 1196,81 L 1196,80 L 1196,81 L 1197,81 L 1197,80 L 1196,80 L 1196,79 L 1195,79 L 1195,78 L 1196,78 L 1195,78 L 1195,77 L 1195,78 L 1194,78 L 1194,77 L 1194,76 L 1193,76 L 1193,75 L 1194,75 L 1194,74 L 1194,73 L 1195,73 L 1194,73 L 1195,73 L 1195,72 L 1196,72 L 1197,72 L 1197,71 L 1197,70 L 1198,70 L 1199,70 L 1200,70 L 1200,71 L 1200,70 L 1201,70 L 1200,69 L 1201,69 L 1201,68 L 1202,68 L 1202,67 L 1202,66 L 1201,67 L 1201,66 L 1200,66 L 1200,65 L 1200,64 L 1201,64 L 1200,64 L 1200,63 L 1200,62 L 1200,63 L 1201,63 L 1201,62 L 1200,62 L 1200,61 L 1201,61 L 1200,61 L 1199,61 L 1199,60 L 1200,60 L 1201,60 L 1201,59 L 1201,58 L 1201,59 L 1201,58 L 1201,57 L 1200,57 L 1200,56 L 1199,56 L 1200,56 L 1199,56 L 1199,55 L 1198,55 L 1199,54 L 1199,55 L 1199,54 L 1200,54 L 1200,53 L 1199,53 L 1199,54 L 1199,53 L 1200,53 L 1199,53 L 1199,52 L 1198,52 L 1199,52 L 1198,52 L 1198,53 L 1197,53 L 1197,52 L 1196,52 L 1196,51 L 1195,51 L 1195,50 L 1195,51 L 1194,51 L 1194,50 L 1195,50 L 1195,49 L 1194,49 L 1195,49 L 1195,48 L 1195,49 L 1194,49 L 1194,48 L 1195,48 L 1194,48 L 1193,48 L 1193,47 L 1192,47 L 1192,46 L 1191,46 L 1190,46 L 1190,47 L 1190,46 L 1189,45 L 1190,45 L 1189,45 L 1188,45 L 1189,45 L 1189,44 L 1188,44 L 1187,44 L 1187,43 L 1187,44 L 1186,44 L 1186,43 L 1185,43 L 1186,43 L 1186,42 L 1186,43 L 1187,42 L 1186,42 L 1186,41 L 1185,41 L 1184,41 L 1184,40 L 1185,40 L 1184,39 L 1183,39 L 1183,40 L 1183,39 L 1183,38 L 1182,38 L 1181,38 L 1181,37 L 1181,36 L 1180,36 L 1180,37 L 1180,36 L 1179,36 L 1179,37 L 1179,36 L 1179,35 L 1180,35 L 1180,34 L 1179,34 L 1180,34 L 1180,33 L 1179,33 L 1178,33 L 1179,33 L 1178,34 L 1178,33 L 1178,32 L 1177,32 L 1177,33 L 1176,33 L 1176,34 L 1176,33 L 1177,32 L 1176,32 L 1177,32 L 1176,32 L 1176,31 L 1176,32 L 1176,31 L 1175,31 L 1175,32 L 1175,31 L 1175,30 L 1174,30 L 1174,29 L 1175,29 L 1175,28 L 1174,28 L 1173,28 L 1174,28 L 1173,28 L 1173,27 L 1173,28 L 1172,27 L 1173,27 L 1172,27 L 1172,26 L 1171,26 L 1171,25 L 1171,24 L 1172,24 L 1172,23 L 1171,23 L 1172,23 L 1171,22 L 1172,22 L 1172,21 L 1171,21 L 1171,20 L 1172,20 L 1172,19 L 1171,19 L 1172,19 L 1171,19 L 1171,18 L 1171,17 L 1170,17 L 1170,16 L 1170,15 L 1171,15 L 1170,15 L 1170,14 L 1171,14 L 1170,14 L 1171,14 L 1171,13 L 1171,14 L 1172,14 L 1172,13 L 1171,13 L 1172,12 L 1172,11 L 1173,11 L 1172,11 L 1172,10 L 1172,9 L 1173,9 L 1173,8 L 1172,8 L 1172,7 L 1173,7 L 1173,6 L 1174,7 L 1174,6 L 1173,6 L 1174,6 L 1174,5 L 1173,5 L 1174,5 L 1174,4 L 1175,4 L 1175,3 L 1175,2 L 1176,2 L 1176,3 L 1177,3 L 1176,3 L 1177,3 L 1177,2 L 1177,1 L 1176,1 L 1177,1 L 1177,0 L 1178,0 L 1177,0 L 1177,-1 L 1177,0 L 1178,0 L 1178,-1 L 1177,-1 L 1176,-1 L 1176,-2 L 1175,-2 L 1175,-1 L 1175,-2 L 1175,-3 L 1176,-3 L 1176,-4 L 1175,-4 L 1176,-4 L 1176,-5 L 1177,-4 L 1177,-5 L 1178,-5 L 1178,-6 L 1177,-6 L 1177,-7 L 1177,-6 L 1177,-7 L 1178,-7 L 1177,-7 L 1178,-7 L 1178,-8 L 1177,-8 L 1177,-9 L 1178,-9 L 1177,-9 L 1177,-10 L 1178,-10 L 1178,-11 L 1179,-11 L 1178,-11 L 1178,-12 L 1178,-11 L 1178,-12 L 1177,-12 L 1178,-12 L 1179,-12 L 1180,-12 L 1180,-13 L 1180,-14 L 1180,-15 L 1181,-15 L 1181,-16 L 1181,-17 L 1182,-17 L 1182,-18 L 1182,-19 L 1183,-19 L 1183,-20 L 1182,-20 L 1182,-21 L 1183,-21 L 1182,-21 L 1182,-22 L 1183,-22 L 1182,-23 L 1183,-23 L 1183,-24 L 1182,-25 L 1182,-26 L 1181,-26 L 1181,-27 L 1180,-27 L 1181,-28 L 1180,-28 L 1180,-29 L 1181,-29 L 1181,-28 L 1181,-29 L 1180,-29 L 1181,-29 L 1181,-30 L 1182,-31 L 1181,-31 L 1181,-32 L 1182,-32 L 1182,-31 L 1182,-32 L 1181,-32 L 1181,-33 L 1182,-33 L 1182,-34 L 1183,-34 L 1183,-35 L 1182,-35 L 1183,-35 L 1183,-36 L 1183,-35 L 1182,-35 L 1182,-36 L 1183,-36 L 1183,-37 L 1182,-37 L 1182,-38 L 1181,-38 L 1180,-38 L 1181,-38 L 1180,-38 L 1180,-39 L 1181,-39 L 1180,-39 L 1180,-38 L 1179,-39 L 1178,-39 L 1178,-40 L 1177,-39 L 1177,-40 L 1177,-39 L 1176,-39 L 1175,-39 L 1175,-40 L 1174,-40 L 1174,-39 L 1174,-38 L 1174,-39 L 1173,-39 L 1174,-39 L 1174,-40 L 1173,-40 L 1172,-40 L 1171,-39 L 1171,-38 L 1170,-38 L 1169,-38 L 1170,-38 L 1170,-37 L 1170,-36 L 1169,-36 L 1169,-37 L 1169,-38 L 1169,-37 L 1168,-37 L 1167,-37 L 1167,-38 L 1166,-37 L 1165,-38 L 1165,-39 L 1166,-39 L 1166,-40 L 1165,-40 L 1165,-41 L 1166,-41 L 1165,-42 L 1166,-42 L 1165,-42 L 1166,-42 L 1166,-43 L 1165,-43 L 1165,-44 L 1165,-43 L 1164,-43 L 1163,-43 L 1164,-43 L 1164,-44 L 1163,-44 L 1164,-44 L 1164,-45 L 1163,-45 L 1164,-45 L 1164,-46 L 1164,-47 L 1164,-48 L 1163,-47 L 1163,-48 L 1163,-49 L 1163,-50 L 1164,-50 L 1163,-51 L 1164,-51 L 1164,-52 L 1163,-53 L 1162,-53 L 1162,-54 L 1162,-55 L 1162,-56 L 1163,-56 L 1162,-56 L 1162,-57 L 1163,-57 L 1163,-58 L 1162,-58 L 1162,-57 L 1162,-58 L 1161,-58 L 1161,-59 L 1162,-59 L 1161,-59 L 1161,-60 L 1162,-60 L 1162,-59 L 1162,-60 L 1162,-61 L 1163,-61 L 1163,-62 L 1163,-61 L 1163,-62 L 1164,-62 L 1164,-63 L 1164,-64 L 1163,-64 L 1163,-65 L 1163,-66 L 1162,-66 L 1163,-66 L 1162,-66 L 1162,-67 L 1161,-67 L 1161,-68 L 1160,-68 L 1160,-69 L 1159,-69 L 1159,-70 L 1160,-70 L 1160,-71 L 1160,-72 L 1160,-73 L 1159,-73 L 1158,-74 L 1158,-73 L 1158,-74 L 1157,-74 L 1157,-75 L 1157,-76 L 1156,-76 L 1156,-77 L 1156,-78 L 1155,-78 L 1155,-79 L 1155,-80 L 1154,-80 L 1155,-80 L 1155,-81 L 1155,-80 L 1156,-80 L 1156,-81 L 1157,-81 L 1157,-82 L 1158,-82 L 1158,-83 L 1157,-83 L 1157,-84 L 1157,-85 L 1157,-84 L 1157,-85 L 1157,-84 L 1158,-84 L 1158,-85 L 1158,-86 L 1158,-87 L 1159,-87 L 1159,-88 L 1158,-88 L 1159,-88 L 1159,-89 L 1158,-89 L 1158,-90 L 1159,-90 L 1159,-91 L 1160,-91 L 1161,-91 L 1160,-91 L 1161,-91 L 1161,-92 L 1161,-91 L 1161,-92 L 1162,-92 L 1162,-93 L 1163,-93 L 1162,-93 L 1162,-94 L 1163,-94 L 1163,-95 L 1162,-95 L 1161,-94 L 1160,-94 L 1160,-95 L 1160,-96 L 1159,-96 L 1159,-95 L 1160,-95 L 1159,-95 L 1159,-96 L 1158,-96 L 1157,-96 L 1157,-97 L 1158,-97 L 1157,-97 L 1158,-97 L 1158,-98 L 1158,-99 L 1157,-99 L 1157,-100 L 1158,-100 L 1157,-100 L 1158,-100 L 1158,-101 L 1157,-101 L 1157,-102 L 1157,-101 L 1157,-102 L 1156,-102 L 1156,-103 L 1155,-103 L 1156,-103 L 1156,-104 L 1155,-105 L 1155,-106 L 1156,-106 L 1157,-106 L 1157,-105 L 1156,-105 L 1157,-105 L 1157,-106 L 1157,-107 L 1158,-107 L 1158,-108 L 1159,-108 L 1158,-108 L 1158,-109 L 1157,-109 L 1156,-109 L 1156,-110 L 1157,-110 L 1157,-111 L 1158,-111 L 1157,-111 L 1157,-112 L 1156,-112 L 1156,-113 L 1156,-114 L 1155,-114 L 1154,-114 L 1154,-113 L 1154,-112 L 1153,-113 L 1153,-114 L 1153,-115 L 1152,-115 L 1152,-114 L 1151,-114 L 1150,-114 L 1151,-115 L 1151,-116 L 1150,-117 L 1149,-117 L 1148,-117 L 1148,-116 L 1147,-116 L 1147,-115 L 1146,-115 L 1146,-116 L 1146,-117 L 1145,-116 L 1145,-117 L 1146,-117 L 1147,-117 L 1147,-118 L 1146,-118 L 1146,-119 L 1146,-118 L 1145,-118 L 1144,-118 L 1144,-119 L 1143,-119 L 1143,-118 L 1143,-117 L 1143,-116 L 1142,-116 L 1142,-117 L 1142,-118 L 1141,-118 L 1142,-118 L 1142,-119 L 1142,-120 L 1141,-120 L 1140,-120 L 1140,-121 L 1140,-120 L 1139,-120 L 1139,-121 L 1139,-120 L 1138,-120 L 1139,-120 L 1139,-119 L 1139,-118 L 1138,-118 L 1137,-118 L 1136,-118 L 1136,-119 L 1136,-120 L 1136,-121 L 1137,-121 L 1136,-121 L 1136,-122 L 1136,-123 L 1136,-124 L 1135,-124 L 1135,-125 L 1134,-125 L 1133,-125 L 1132,-125 L 1132,-126 L 1131,-126 L 1132,-126 L 1132,-127 L 1133,-127 L 1133,-126 L 1134,-127 L 1133,-127 L 1133,-128 L 1132,-128 L 1133,-128 L 1133,-129 L 1132,-129 L 1132,-128 L 1131,-128 L 1131,-127 L 1131,-126 L 1130,-126 L 1130,-127 L 1129,-127 L 1129,-128 L 1129,-129 L 1130,-129 L 1129,-130 L 1129,-129 L 1128,-129 L 1128,-128 L 1127,-128 L 1127,-129 L 1126,-129 L 1127,-129 L 1127,-128 L 1126,-128 L 1126,-127 L 1125,-128 L 1124,-128 L 1124,-129 L 1125,-129 L 1124,-130 L 1124,-129 L 1123,-130 L 1122,-130 L 1122,-129 L 1122,-128 L 1121,-128 L 1121,-129 L 1120,-129 L 1120,-130 L 1119,-130 L 1119,-131 L 1118,-131 L 1117,-131 L 1116,-131 L 1116,-130 L 1115,-130 L 1114,-130 L 1113,-130 L 1113,-131 L 1112,-131 L 1112,-130 L 1111,-130 L 1111,-131 L 1111,-130 L 1110,-130 L 1110,-129 L 1109,-129 L 1109,-130 L 1109,-131 L 1109,-132 L 1108,-132 L 1108,-131 L 1108,-130 L 1107,-130 L 1107,-131 L 1107,-132 L 1106,-132 L 1106,-131 L 1105,-132 L 1106,-132 L 1106,-133 L 1105,-133 L 1105,-134 L 1104,-135 L 1104,-134 L 1104,-133 L 1103,-133 L 1102,-133 L 1102,-134 L 1102,-135 L 1102,-136 L 1103,-137 L 1104,-137 L 1105,-137 L 1106,-137 L 1106,-136 L 1107,-136 L 1107,-137 L 1106,-138 L 1105,-139 L 1106,-140 L 1106,-141 L 1105,-141 L 1105,-140 L 1104,-140 L 1103,-140 L 1103,-141 L 1102,-141 L 1102,-140 L 1101,-141 L 1101,-142 L 1102,-143 L 1102,-142 L 1103,-143 L 1102,-143 L 1101,-144 L 1100,-144 L 1099,-144 L 1099,-145 L 1100,-145 L 1101,-145 L 1102,-144 L 1102,-145 L 1102,-146 L 1102,-147 L 1102,-148 L 1102,-149 L 1103,-149 L 1103,-150 L 1103,-151 L 1102,-150 L 1101,-149 L 1100,-150 L 1101,-151 L 1102,-152 L 1102,-153 L 1103,-153 L 1104,-153 L 1104,-154 L 1103,-154 L 1102,-153 L 1101,-153 L 1101,-154 L 1101,-155 L 1101,-156 L 1102,-156 L 1103,-156 L 1103,-157 L 1102,-158 L 1101,-158 L 1102,-158 L 1103,-158 L 1103,-159 L 1104,-159 L 1103,-160 L 1102,-160 L 1102,-161 L 1101,-161 L 1100,-161 L 1100,-162 L 1101,-162 L 1102,-162 L 1102,-163 L 1102,-164 L 1101,-164 L 1101,-165 L 1101,-164 L 1100,-164 L 1100,-165 L 1099,-164 L 1098,-165 L 1097,-165 L 1097,-166 L 1096,-166 L 1095,-166 L 1095,-167 L 1095,-168 L 1094,-168 L 1094,-167 L 1093,-167 L 1093,-166 L 1093,-165 L 1092,-165 L 1092,-166 L 1091,-166 L 1091,-167 L 1092,-167 L 1092,-168 L 1092,-169 L 1091,-169 L 1091,-170 L 1090,-170 L 1090,-169 L 1089,-169 L 1089,-170 L 1089,-171 L 1088,-171 L 1088,-172 L 1087,-172 L 1087,-173 L 1086,-173 L 1086,-174 L 1085,-174 L 1085,-175 L 1084,-175 L 1084,-176 L 1084,-177 L 1085,-177 L 1085,-176 L 1086,-177 L 1085,-177 L 1085,-178 L 1084,-179 L 1084,-180 L 1083,-180 L 1083,-181 L 1082,-181 L 1082,-182 L 1081,-182 L 1082,-182 L 1082,-183 L 1081,-183 L 1080,-183 L 1079,-183 L 1078,-183 L 1077,-183 L 1076,-183 L 1076,-182 L 1076,-183 L 1075,-183 L 1074,-182 L 1074,-183 L 1073,-184 L 1073,-185 L 1073,-186 L 1074,-186 L 1074,-187 L 1074,-188 L 1073,-188 L 1074,-188 L 1075,-189 L 1075,-190 L 1074,-190 L 1074,-191 L 1073,-191 L 1073,-192 L 1072,-192 L 1072,-193 L 1073,-193 L 1073,-194 L 1072,-195 L 1071,-195 L 1071,-196 L 1072,-197 L 1072,-198 L 1071,-198 L 1071,-197 L 1070,-198 L 1070,-199 L 1069,-199 L 1069,-200 L 1068,-200 L 1067,-200 L 1067,-201 L 1066,-201 L 1066,-200 L 1066,-201 L 1066,-202 L 1066,-203 L 1066,-204 L 1065,-204 L 1064,-204 L 1064,-205 L 1063,-206 L 1062,-206 L 1062,-207 L 1061,-207 L 1060,-207 L 1059,-207 L 1059,-208 L 1058,-208 L 1058,-207 L 1057,-207 L 1056,-207 L 1055,-208 L 1054,-208 L 1054,-207 L 1053,-207 L 1052,-207 L 1053,-208 L 1052,-209 L 1051,-208 L 1050,-208 L 1049,-208 L 1049,-207 L 1048,-207 L 1048,-206 L 1047,-206 L 1047,-205 L 1046,-205 L 1046,-206 L 1046,-207 L 1045,-207 L 1045,-206 L 1044,-206 L 1043,-206 L 1043,-207 L 1042,-207 L 1042,-208 L 1041,-208 L 1041,-209 L 1040,-210 L 1039,-210 L 1039,-211 L 1040,-211 L 1040,-212 L 1039,-212 L 1039,-213 L 1038,-213 L 1037,-213 L 1037,-214 L 1036,-214 L 1036,-213 L 1037,-213 L 1037,-212 L 1036,-212 L 1035,-212 L 1034,-212 L 1033,-212 L 1032,-212 L 1032,-211 L 1031,-212 L 1032,-213 L 1031,-213 L 1030,-213 L 1030,-212 L 1029,-212 L 1029,-213 L 1029,-214 L 1030,-214 L 1029,-215 L 1029,-216 L 1028,-216 L 1028,-215 L 1027,-215 L 1026,-216 L 1026,-217 L 1025,-217 L 1025,-218 L 1024,-218 L 1024,-219 L 1024,-220 L 1025,-220 L 1024,-221 L 1024,-222 L 1025,-223 L 1026,-223 L 1026,-224 L 1026,-225 L 1026,-226 L 1027,-226 L 1027,-227 L 1026,-228 L 1026,-227 L 1025,-227 L 1025,-226 L 1025,-225 L 1024,-225 L 1024,-226 L 1023,-226 L 1023,-225 L 1023,-224 L 1023,-223 L 1022,-222 L 1022,-223 L 1021,-223 L 1020,-223 L 1019,-223 L 1019,-222 L 1018,-222 L 1017,-222 L 1016,-222 L 1016,-223 L 1015,-223 L 1015,-222 L 1015,-221 L 1014,-221 L 1013,-221 L 1012,-220 L 1011,-220 L 1010,-220 L 1010,-221 L 1011,-221 L 1011,-222 L 1010,-222 L 1010,-221 L 1009,-221 L 1009,-222 L 1008,-222 L 1009,-222 L 1009,-223 L 1010,-223 L 1011,-223 L 1010,-224 L 1009,-224 L 1009,-225 L 1008,-225 L 1007,-225 L 1007,-226 L 1006,-226 L 1005,-226 L 1005,-227 L 1005,-228 L 1005,-229 L 1006,-229 L 1007,-230 L 1008,-230 L 1009,-230 L 1010,-230 L 1011,-230 L 1011,-229 L 1012,-229 L 1012,-228 L 1012,-227 L 1011,-227 L 1011,-226 L 1012,-226 L 1013,-225 L 1014,-225 L 1014,-226 L 1015,-226 L 1014,-227 L 1013,-228 L 1013,-229 L 1014,-229 L 1014,-228 L 1015,-228 L 1016,-228 L 1016,-229 L 1016,-230 L 1017,-230 L 1017,-229 L 1018,-229 L 1019,-229 L 1020,-228 L 1021,-229 L 1020,-229 L 1020,-230 L 1019,-231 L 1020,-231 L 1020,-232 L 1020,-233 L 1021,-234 L 1022,-235 L 1023,-236 L 1023,-237 L 1024,-238 L 1025,-238 L 1025,-237 L 1025,-236 L 1026,-236 L 1027,-236 L 1027,-235 L 1027,-234 L 1026,-234 L 1026,-233 L 1025,-233 L 1025,-232 L 1026,-231 L 1026,-230 L 1027,-230 L 1027,-231 L 1028,-232 L 1029,-231 L 1030,-231 L 1031,-231 L 1032,-231 L 1033,-231 L 1034,-231 L 1034,-230 L 1034,-229 L 1034,-228 L 1034,-227 L 1034,-226 L 1035,-226 L 1036,-227 L 1037,-227 L 1037,-228 L 1038,-229 L 1039,-229 L 1039,-228 L 1039,-227 L 1040,-227 L 1040,-226 L 1041,-226 L 1041,-225 L 1042,-224 L 1043,-224 L 1044,-224 L 1044,-223 L 1045,-223 L 1045,-224 L 1045,-225 L 1045,-226 L 1046,-227 L 1046,-226 L 1046,-225 L 1046,-224 L 1046,-223 L 1047,-223 L 1048,-223 L 1048,-224 L 1049,-224 L 1049,-223 L 1050,-222 L 1050,-221 L 1050,-220 L 1051,-220 L 1052,-221 L 1052,-222 L 1053,-223 L 1054,-223 L 1054,-222 L 1054,-221 L 1054,-220 L 1054,-219 L 1055,-218 L 1055,-217 L 1055,-216 L 1056,-216 L 1056,-217 L 1057,-217 L 1058,-217 L 1059,-217 L 1059,-218 L 1059,-219 L 1060,-219 L 1060,-220 L 1061,-220 L 1062,-220 L 1063,-219 L 1064,-219 L 1063,-218 L 1063,-217 L 1064,-216 L 1064,-215 L 1065,-215 L 1066,-215 L 1067,-215 L 1068,-216 L 1069,-215 L 1070,-215 L 1070,-216 L 1071,-216 L 1072,-217 L 1073,-217 L 1074,-216 L 1074,-215 L 1075,-214 L 1076,-215 L 1076,-216 L 1077,-216 L 1077,-215 L 1078,-215 L 1079,-214 L 1080,-214 L 1081,-214 L 1082,-214 L 1082,-215 L 1081,-216 L 1081,-217 L 1082,-217 L 1082,-216 L 1083,-215 L 1084,-215 L 1084,-216 L 1085,-216 L 1085,-215 L 1086,-215 L 1087,-215 L 1087,-216 L 1086,-216 L 1086,-217 L 1086,-218 L 1087,-218 L 1088,-217 L 1088,-218 L 1088,-219 L 1088,-220 L 1089,-221 L 1089,-220 L 1090,-220 L 1090,-219 L 1091,-219 L 1092,-220 L 1093,-220 L 1093,-219 L 1093,-218 L 1093,-217 L 1094,-217 L 1095,-217 L 1095,-216 L 1094,-216 L 1094,-215 L 1095,-215 L 1096,-215 L 1097,-215 L 1096,-215 L 1096,-214 L 1097,-214 L 1097,-213 L 1098,-213 L 1098,-212 L 1098,-211 L 1099,-210 L 1099,-209 L 1100,-209 L 1101,-209 L 1101,-208 L 1101,-207 L 1100,-206 L 1100,-205 L 1100,-204 L 1101,-203 L 1101,-202 L 1102,-202 L 1102,-201 L 1103,-201 L 1103,-200 L 1102,-200 L 1102,-199 L 1101,-198 L 1102,-198 L 1103,-198 L 1104,-197 L 1104,-196 L 1104,-197 L 1103,-197 L 1102,-196 L 1102,-195 L 1101,-195 L 1101,-194 L 1101,-193 L 1102,-193 L 1102,-192 L 1102,-191 L 1102,-190 L 1103,-190 L 1104,-190 L 1104,-189 L 1104,-188 L 1103,-188 L 1102,-188 L 1102,-187 L 1103,-187 L 1104,-187 " /></g>
</svg>
