<?xml version="1.0" standalone="no"?><!DOCTYPE svg PUBLIC "-//W3C//DTD SVG 1.1//EN" "http://www.w3.org/Graphics/SVG/1.1/DTD/svg11.dtd"><svg xmlns="http://www.w3.org/2000/svg" viewBox="1283 1074 136 124" version = "1.1">
<g id="70706" ><path d="M 1376,1074 L 1377,1074 L 1378,1074 L 1378,1075 L 1379,1075 L 1379,1076 L 1380,1076 L 1381,1076 L 1382,1076 L 1384,1078 L 1384,1077 L 1385,1077 L 1385,1076 L 1386,1076 L 1387,1076 L 1388,1076 L 1389,1076 L 1390,1076 L 1391,1076 L 1391,1077 L 1392,1077 L 1393,1077 L 1393,1076 L 1394,1076 L 1394,1077 L 1394,1076 L 1394,1077 L 1395,1076 L 1396,1076 L 1396,1075 L 1397,1075 L 1398,1075 L 1399,1075 L 1399,1076 L 1400,1076 L 1401,1076 L 1401,1075 L 1402,1075 L 1403,1075 L 1404,1075 L 1405,1075 L 1406,1075 L 1407,1075 L 1408,1075 L 1409,1075 L 1410,1075 L 1411,1075 L 1411,1078 L 1412,1079 L 1412,1082 L 1412,1084 L 1414,1086 L 1416,1091 L 1416,1096 L 1416,1098 L 1417,1100 L 1417,1102 L 1417,1106 L 1417,1109 L 1417,1111 L 1418,1114 L 1418,1118 L 1418,1120 L 1418,1123 L 1419,1124 L 1418,1125 L 1417,1125 L 1417,1126 L 1418,1126 L 1417,1126 L 1417,1127 L 1417,1128 L 1417,1129 L 1418,1130 L 1418,1131 L 1417,1131 L 1417,1130 L 1416,1129 L 1416,1130 L 1416,1129 L 1416,1130 L 1415,1130 L 1415,1131 L 1415,1132 L 1415,1133 L 1415,1134 L 1414,1134 L 1414,1133 L 1414,1132 L 1413,1132 L 1413,1131 L 1412,1131 L 1411,1131 L 1411,1132 L 1410,1132 L 1409,1132 L 1408,1132 L 1408,1133 L 1409,1134 L 1408,1134 L 1408,1135 L 1407,1136 L 1408,1136 L 1409,1136 L 1409,1137 L 1409,1138 L 1409,1139 L 1409,1140 L 1408,1140 L 1408,1139 L 1407,1139 L 1407,1138 L 1406,1138 L 1406,1137 L 1406,1136 L 1406,1135 L 1406,1134 L 1405,1134 L 1405,1135 L 1404,1135 L 1405,1135 L 1405,1136 L 1404,1136 L 1404,1137 L 1405,1137 L 1405,1138 L 1405,1139 L 1404,1139 L 1404,1138 L 1404,1139 L 1403,1139 L 1403,1140 L 1402,1140 L 1402,1141 L 1401,1141 L 1401,1142 L 1402,1142 L 1402,1143 L 1403,1143 L 1403,1144 L 1402,1144 L 1402,1143 L 1401,1143 L 1400,1143 L 1399,1143 L 1399,1144 L 1399,1145 L 1399,1146 L 1398,1146 L 1397,1146 L 1397,1145 L 1396,1145 L 1396,1146 L 1396,1147 L 1396,1148 L 1395,1149 L 1394,1149 L 1393,1149 L 1393,1150 L 1392,1150 L 1391,1150 L 1390,1151 L 1389,1151 L 1388,1152 L 1387,1153 L 1386,1154 L 1385,1154 L 1384,1154 L 1383,1154 L 1382,1153 L 1382,1152 L 1381,1152 L 1381,1151 L 1380,1151 L 1380,1150 L 1379,1150 L 1378,1150 L 1377,1150 L 1376,1149 L 1375,1149 L 1375,1150 L 1374,1151 L 1374,1150 L 1373,1151 L 1372,1150 L 1371,1150 L 1370,1150 L 1369,1150 L 1369,1149 L 1368,1149 L 1367,1149 L 1366,1149 L 1365,1149 L 1364,1149 L 1364,1150 L 1363,1150 L 1363,1151 L 1362,1151 L 1362,1152 L 1361,1152 L 1361,1153 L 1361,1154 L 1361,1155 L 1361,1156 L 1361,1157 L 1360,1157 L 1360,1158 L 1360,1159 L 1359,1159 L 1359,1160 L 1358,1160 L 1357,1161 L 1357,1162 L 1357,1163 L 1357,1164 L 1357,1165 L 1357,1166 L 1357,1167 L 1357,1168 L 1357,1169 L 1357,1170 L 1357,1171 L 1358,1171 L 1358,1172 L 1357,1172 L 1357,1173 L 1358,1173 L 1358,1174 L 1357,1174 L 1357,1175 L 1357,1176 L 1357,1177 L 1358,1177 L 1357,1177 L 1357,1178 L 1357,1179 L 1356,1179 L 1356,1180 L 1356,1181 L 1356,1182 L 1355,1182 L 1355,1183 L 1355,1184 L 1356,1185 L 1356,1186 L 1355,1186 L 1355,1187 L 1356,1187 L 1350,1191 L 1345,1194 L 1338,1198 L 1324,1196 L 1313,1193 L 1311,1192 L 1306,1190 L 1298,1189 L 1298,1188 L 1297,1188 L 1296,1188 L 1295,1188 L 1294,1188 L 1293,1187 L 1292,1187 L 1291,1187 L 1290,1187 L 1290,1186 L 1289,1186 L 1289,1185 L 1288,1185 L 1287,1185 L 1287,1184 L 1286,1184 L 1285,1184 L 1284,1184 L 1283,1184 L 1283,1183 L 1283,1181 L 1283,1180 L 1283,1178 L 1283,1175 L 1285,1173 L 1285,1170 L 1284,1170 L 1283,1169 L 1283,1168 L 1284,1167 L 1285,1167 L 1286,1167 L 1287,1167 L 1288,1166 L 1289,1166 L 1289,1165 L 1289,1164 L 1288,1164 L 1287,1163 L 1287,1162 L 1288,1162 L 1289,1162 L 1290,1162 L 1290,1163 L 1291,1163 L 1292,1163 L 1293,1163 L 1293,1162 L 1293,1161 L 1293,1160 L 1293,1159 L 1292,1159 L 1292,1158 L 1292,1157 L 1292,1156 L 1293,1156 L 1293,1157 L 1294,1157 L 1295,1157 L 1296,1157 L 1297,1156 L 1298,1155 L 1298,1154 L 1298,1153 L 1299,1153 L 1299,1152 L 1299,1151 L 1299,1150 L 1299,1149 L 1300,1149 L 1300,1148 L 1301,1148 L 1302,1148 L 1302,1149 L 1303,1150 L 1304,1150 L 1305,1151 L 1305,1150 L 1305,1149 L 1305,1147 L 1305,1146 L 1305,1145 L 1304,1144 L 1304,1143 L 1304,1142 L 1304,1141 L 1304,1140 L 1303,1140 L 1302,1139 L 1302,1138 L 1301,1137 L 1301,1136 L 1302,1136 L 1302,1135 L 1303,1135 L 1304,1135 L 1305,1135 L 1306,1135 L 1307,1135 L 1307,1134 L 1306,1134 L 1306,1133 L 1306,1132 L 1307,1132 L 1307,1133 L 1307,1132 L 1307,1131 L 1308,1131 L 1309,1132 L 1309,1133 L 1310,1133 L 1311,1132 L 1312,1132 L 1312,1131 L 1313,1132 L 1313,1133 L 1314,1133 L 1315,1133 L 1315,1132 L 1316,1132 L 1315,1131 L 1315,1130 L 1315,1129 L 1314,1129 L 1314,1128 L 1314,1127 L 1315,1127 L 1316,1127 L 1316,1126 L 1317,1126 L 1317,1125 L 1317,1124 L 1318,1124 L 1318,1121 L 1319,1116 L 1319,1113 L 1319,1109 L 1320,1106 L 1321,1102 L 1322,1098 L 1323,1093 L 1325,1089 L 1328,1088 L 1331,1087 L 1342,1085 L 1346,1083 L 1347,1082 L 1347,1081 L 1348,1081 L 1349,1080 L 1350,1080 L 1351,1080 L 1352,1080 L 1353,1081 L 1355,1081 L 1357,1081 L 1358,1080 L 1359,1079 L 1360,1079 L 1360,1078 L 1361,1078 L 1361,1077 L 1362,1077 L 1362,1078 L 1363,1078 L 1363,1079 L 1364,1079 L 1365,1078 L 1365,1077 L 1366,1077 L 1366,1076 L 1367,1076 L 1368,1075 L 1369,1075 L 1370,1076 L 1370,1075 L 1371,1076 L 1372,1075 L 1373,1075 L 1373,1074 L 1374,1074 L 1375,1074 L 1376,1074 L 1375,1074 L 1376,1074 " /></g>
</svg>
