<?xml version="1.0" standalone="no"?><!DOCTYPE svg PUBLIC "-//W3C//DTD SVG 1.1//EN" "http://www.w3.org/Graphics/SVG/1.1/DTD/svg11.dtd"><svg xmlns="http://www.w3.org/2000/svg" viewBox="1355 455 1548 814" version = "1.1">
<g id="70702" ><path d="M 2629,616 L 2630,616 L 2630,617 L 2631,617 L 2631,618 L 2632,618 L 2633,618 L 2633,619 L 2633,620 L 2634,620 L 2634,621 L 2635,621 L 2636,621 L 2637,621 L 2637,622 L 2638,622 L 2638,621 L 2639,621 L 2640,621 L 2641,621 L 2641,620 L 2642,620 L 2642,621 L 2643,621 L 2643,622 L 2644,622 L 2644,623 L 2645,623 L 2646,623 L 2646,624 L 2647,624 L 2647,625 L 2648,625 L 2649,625 L 2649,626 L 2648,626 L 2649,626 L 2650,626 L 2651,626 L 2651,627 L 2652,627 L 2653,627 L 2653,628 L 2653,629 L 2653,630 L 2654,630 L 2654,631 L 2655,631 L 2655,630 L 2656,630 L 2657,630 L 2657,629 L 2658,629 L 2659,629 L 2660,629 L 2660,630 L 2660,631 L 2660,632 L 2660,633 L 2661,633 L 2661,634 L 2662,634 L 2662,635 L 2663,635 L 2663,636 L 2664,636 L 2664,637 L 2665,637 L 2665,638 L 2666,638 L 2667,638 L 2668,638 L 2669,638 L 2669,639 L 2670,639 L 2670,640 L 2671,640 L 2672,641 L 2671,641 L 2672,641 L 2672,642 L 2673,643 L 2673,644 L 2674,645 L 2674,644 L 2675,644 L 2676,645 L 2677,645 L 2677,644 L 2678,644 L 2678,645 L 2679,645 L 2680,645 L 2681,645 L 2682,645 L 2682,644 L 2683,644 L 2684,644 L 2684,645 L 2685,645 L 2685,644 L 2686,644 L 2687,644 L 2688,644 L 2689,644 L 2689,645 L 2690,645 L 2691,645 L 2692,645 L 2693,644 L 2693,643 L 2693,642 L 2694,642 L 2694,641 L 2695,641 L 2696,641 L 2697,641 L 2698,641 L 2698,642 L 2698,643 L 2699,643 L 2699,644 L 2699,645 L 2700,645 L 2700,646 L 2701,646 L 2702,646 L 2702,645 L 2703,645 L 2703,646 L 2704,646 L 2705,646 L 2705,645 L 2706,645 L 2707,645 L 2707,644 L 2708,644 L 2708,643 L 2709,643 L 2709,644 L 2710,644 L 2711,644 L 2710,644 L 2710,645 L 2711,645 L 2711,644 L 2711,645 L 2712,645 L 2713,645 L 2714,645 L 2714,646 L 2715,646 L 2716,646 L 2717,646 L 2718,646 L 2719,646 L 2719,647 L 2720,647 L 2721,647 L 2721,646 L 2722,646 L 2722,647 L 2722,648 L 2722,649 L 2721,649 L 2721,650 L 2722,651 L 2722,652 L 2722,653 L 2722,654 L 2723,654 L 2724,654 L 2724,653 L 2725,653 L 2726,653 L 2726,654 L 2726,653 L 2727,653 L 2727,652 L 2728,652 L 2729,653 L 2731,653 L 2731,652 L 2732,652 L 2733,652 L 2733,653 L 2734,653 L 2735,653 L 2735,652 L 2736,652 L 2737,652 L 2738,652 L 2738,653 L 2739,653 L 2740,653 L 2740,654 L 2741,653 L 2741,654 L 2742,654 L 2742,653 L 2743,653 L 2744,653 L 2744,652 L 2744,651 L 2745,651 L 2746,651 L 2747,651 L 2748,650 L 2748,651 L 2749,651 L 2750,651 L 2750,652 L 2751,652 L 2751,653 L 2752,653 L 2752,654 L 2752,655 L 2752,656 L 2753,656 L 2754,656 L 2754,657 L 2755,657 L 2756,657 L 2756,658 L 2757,658 L 2758,658 L 2759,658 L 2759,659 L 2759,658 L 2760,658 L 2761,658 L 2762,658 L 2762,659 L 2763,659 L 2764,659 L 2764,660 L 2765,659 L 2765,658 L 2765,657 L 2766,657 L 2766,656 L 2767,656 L 2767,655 L 2767,654 L 2768,654 L 2769,654 L 2769,655 L 2769,656 L 2769,657 L 2770,657 L 2770,658 L 2771,658 L 2771,659 L 2772,659 L 2772,660 L 2773,660 L 2773,661 L 2774,661 L 2774,662 L 2774,661 L 2775,661 L 2776,660 L 2777,660 L 2778,660 L 2778,661 L 2779,661 L 2780,661 L 2781,661 L 2781,662 L 2781,663 L 2781,664 L 2782,664 L 2783,664 L 2784,664 L 2785,664 L 2785,665 L 2785,666 L 2786,666 L 2786,667 L 2787,667 L 2788,667 L 2788,668 L 2789,668 L 2789,669 L 2790,669 L 2791,669 L 2791,670 L 2792,670 L 2792,669 L 2793,669 L 2794,669 L 2795,669 L 2795,668 L 2796,668 L 2796,667 L 2796,666 L 2797,666 L 2797,665 L 2798,665 L 2799,664 L 2800,664 L 2801,664 L 2802,664 L 2803,665 L 2804,666 L 2805,666 L 2806,666 L 2806,665 L 2807,665 L 2808,665 L 2808,666 L 2808,665 L 2809,665 L 2809,666 L 2810,666 L 2811,666 L 2812,666 L 2812,665 L 2813,665 L 2814,665 L 2814,664 L 2815,664 L 2816,664 L 2817,664 L 2818,664 L 2818,665 L 2819,665 L 2820,664 L 2820,665 L 2821,665 L 2822,665 L 2823,665 L 2824,665 L 2824,666 L 2825,666 L 2826,666 L 2826,667 L 2827,667 L 2827,668 L 2828,668 L 2827,669 L 2828,669 L 2829,669 L 2829,670 L 2829,671 L 2830,671 L 2830,672 L 2831,672 L 2832,672 L 2832,671 L 2832,670 L 2832,669 L 2833,669 L 2834,669 L 2834,668 L 2835,668 L 2836,668 L 2837,668 L 2837,669 L 2837,670 L 2838,670 L 2839,670 L 2839,669 L 2840,669 L 2840,668 L 2841,668 L 2841,667 L 2841,666 L 2842,666 L 2843,666 L 2844,666 L 2844,667 L 2845,667 L 2845,668 L 2846,668 L 2847,668 L 2847,669 L 2848,669 L 2848,670 L 2849,670 L 2849,669 L 2849,668 L 2850,668 L 2850,667 L 2850,666 L 2851,665 L 2851,664 L 2852,664 L 2852,663 L 2853,663 L 2854,663 L 2855,663 L 2856,663 L 2857,663 L 2857,664 L 2858,664 L 2858,665 L 2859,665 L 2859,664 L 2859,665 L 2860,665 L 2859,665 L 2859,666 L 2860,666 L 2859,666 L 2859,667 L 2860,667 L 2860,668 L 2860,669 L 2860,670 L 2860,671 L 2861,671 L 2860,671 L 2861,671 L 2862,671 L 2862,672 L 2863,672 L 2863,671 L 2864,671 L 2864,672 L 2864,671 L 2864,672 L 2865,672 L 2866,672 L 2867,672 L 2867,673 L 2868,673 L 2867,673 L 2867,674 L 2868,674 L 2869,674 L 2869,673 L 2869,674 L 2870,674 L 2870,673 L 2870,674 L 2871,674 L 2872,674 L 2872,673 L 2873,673 L 2872,673 L 2872,672 L 2903,717 L 2864,780 L 2826,902 L 2821,900 L 2809,900 L 2776,899 L 2643,890 L 2563,886 L 2546,885 L 2532,884 L 2523,886 L 2513,889 L 2505,891 L 2492,894 L 2484,896 L 2476,898 L 2464,901 L 2456,903 L 2441,907 L 2431,910 L 2423,912 L 2408,916 L 2393,920 L 2390,921 L 2379,923 L 2369,926 L 2355,929 L 2352,930 L 2350,931 L 2346,932 L 2342,933 L 2339,934 L 2337,934 L 2332,935 L 2329,936 L 2326,937 L 2325,937 L 2322,938 L 2321,938 L 2320,938 L 2318,938 L 2316,939 L 2311,939 L 2309,940 L 2307,940 L 2303,941 L 2301,941 L 2300,941 L 2299,941 L 2291,943 L 2281,944 L 2277,945 L 2275,945 L 2269,946 L 2263,947 L 2251,949 L 2245,950 L 2243,950 L 2238,951 L 2232,952 L 2228,953 L 2222,954 L 2188,959 L 2183,960 L 2179,960 L 2174,961 L 2170,962 L 2166,963 L 2165,963 L 2162,963 L 2158,964 L 2153,965 L 2147,966 L 2144,966 L 2134,968 L 2131,968 L 2123,970 L 2119,970 L 2113,971 L 2106,972 L 2103,973 L 2098,973 L 2093,974 L 2090,975 L 2087,975 L 2078,977 L 2072,977 L 2066,978 L 2060,979 L 2054,980 L 2046,982 L 2038,983 L 2027,985 L 2020,986 L 2007,988 L 1988,991 L 1974,993 L 1967,994 L 1959,995 L 1954,996 L 1951,996 L 1945,997 L 1941,998 L 1940,1000 L 1940,1001 L 1940,1002 L 1939,1003 L 1939,1004 L 1939,1005 L 1938,1005 L 1938,1006 L 1938,1007 L 1938,1008 L 1937,1010 L 1934,1016 L 1929,1028 L 1924,1040 L 1920,1051 L 1914,1064 L 1914,1066 L 1912,1069 L 1909,1078 L 1903,1091 L 1898,1104 L 1895,1112 L 1889,1125 L 1888,1128 L 1886,1134 L 1884,1137 L 1883,1141 L 1881,1144 L 1880,1148 L 1879,1150 L 1878,1151 L 1876,1154 L 1873,1158 L 1871,1160 L 1869,1164 L 1866,1168 L 1864,1170 L 1863,1171 L 1863,1172 L 1862,1173 L 1861,1174 L 1860,1175 L 1860,1176 L 1859,1177 L 1858,1178 L 1853,1185 L 1843,1199 L 1837,1207 L 1831,1215 L 1825,1224 L 1819,1232 L 1814,1239 L 1811,1243 L 1805,1251 L 1800,1258 L 1797,1263 L 1793,1268 L 1792,1269 L 1620,1269 L 1621,1212 L 1481,1212 L 1470,1213 L 1460,1212 L 1458,1211 L 1454,1210 L 1453,1204 L 1453,1198 L 1452,1195 L 1451,1191 L 1450,1186 L 1451,1183 L 1450,1181 L 1447,1180 L 1445,1180 L 1444,1179 L 1442,1179 L 1439,1179 L 1437,1179 L 1435,1179 L 1434,1179 L 1433,1179 L 1432,1179 L 1431,1180 L 1429,1179 L 1427,1179 L 1426,1179 L 1425,1179 L 1424,1179 L 1423,1179 L 1423,1178 L 1423,1179 L 1422,1179 L 1421,1179 L 1421,1180 L 1420,1180 L 1420,1179 L 1419,1179 L 1419,1178 L 1418,1178 L 1417,1178 L 1416,1178 L 1416,1177 L 1416,1176 L 1415,1177 L 1414,1176 L 1413,1176 L 1412,1176 L 1411,1176 L 1410,1175 L 1409,1175 L 1408,1175 L 1407,1175 L 1404,1175 L 1403,1175 L 1402,1174 L 1399,1173 L 1399,1174 L 1398,1174 L 1394,1173 L 1391,1173 L 1390,1173 L 1389,1173 L 1389,1174 L 1388,1174 L 1388,1175 L 1387,1175 L 1386,1175 L 1386,1176 L 1385,1176 L 1384,1176 L 1384,1175 L 1383,1175 L 1383,1176 L 1382,1177 L 1381,1178 L 1380,1179 L 1379,1179 L 1378,1179 L 1377,1180 L 1376,1180 L 1375,1180 L 1375,1181 L 1374,1181 L 1373,1182 L 1372,1182 L 1370,1183 L 1368,1183 L 1367,1184 L 1366,1185 L 1366,1186 L 1365,1186 L 1364,1187 L 1363,1187 L 1362,1188 L 1361,1188 L 1358,1188 L 1356,1187 L 1355,1187 L 1355,1186 L 1356,1186 L 1356,1185 L 1355,1184 L 1355,1183 L 1355,1182 L 1356,1182 L 1356,1181 L 1356,1180 L 1356,1179 L 1357,1179 L 1357,1178 L 1357,1177 L 1358,1177 L 1357,1177 L 1357,1176 L 1357,1175 L 1357,1174 L 1358,1174 L 1358,1173 L 1357,1173 L 1357,1172 L 1358,1172 L 1358,1171 L 1357,1171 L 1357,1170 L 1357,1169 L 1357,1168 L 1357,1167 L 1357,1166 L 1357,1165 L 1357,1164 L 1357,1163 L 1357,1162 L 1357,1161 L 1358,1160 L 1359,1160 L 1359,1159 L 1360,1159 L 1360,1158 L 1360,1157 L 1361,1157 L 1361,1156 L 1361,1155 L 1361,1154 L 1361,1153 L 1361,1152 L 1362,1152 L 1362,1151 L 1363,1151 L 1363,1150 L 1364,1150 L 1364,1149 L 1365,1149 L 1366,1149 L 1367,1149 L 1368,1149 L 1369,1149 L 1369,1150 L 1370,1150 L 1371,1150 L 1372,1150 L 1373,1151 L 1374,1150 L 1374,1151 L 1375,1150 L 1375,1149 L 1376,1149 L 1377,1150 L 1378,1150 L 1379,1150 L 1380,1150 L 1380,1151 L 1381,1151 L 1381,1152 L 1382,1152 L 1382,1153 L 1383,1154 L 1384,1154 L 1385,1154 L 1386,1154 L 1387,1153 L 1388,1152 L 1389,1151 L 1390,1151 L 1391,1150 L 1392,1150 L 1393,1150 L 1393,1149 L 1394,1149 L 1395,1149 L 1396,1148 L 1396,1147 L 1396,1146 L 1396,1145 L 1397,1145 L 1397,1146 L 1398,1146 L 1399,1146 L 1399,1145 L 1399,1144 L 1399,1143 L 1400,1143 L 1401,1143 L 1402,1143 L 1402,1144 L 1403,1144 L 1403,1143 L 1402,1143 L 1402,1142 L 1401,1142 L 1401,1141 L 1402,1141 L 1402,1140 L 1403,1140 L 1403,1139 L 1404,1139 L 1404,1138 L 1404,1139 L 1405,1139 L 1405,1138 L 1405,1137 L 1404,1137 L 1404,1136 L 1405,1136 L 1405,1135 L 1404,1135 L 1405,1135 L 1405,1134 L 1406,1134 L 1406,1135 L 1406,1136 L 1406,1137 L 1406,1138 L 1407,1138 L 1407,1139 L 1408,1139 L 1408,1140 L 1409,1140 L 1409,1139 L 1409,1138 L 1409,1137 L 1409,1136 L 1408,1136 L 1407,1136 L 1408,1135 L 1408,1134 L 1409,1134 L 1408,1133 L 1408,1132 L 1409,1132 L 1410,1132 L 1411,1132 L 1411,1131 L 1412,1131 L 1413,1131 L 1413,1132 L 1414,1132 L 1414,1133 L 1414,1134 L 1415,1134 L 1415,1133 L 1415,1132 L 1415,1131 L 1415,1130 L 1416,1130 L 1416,1129 L 1416,1130 L 1416,1129 L 1417,1130 L 1417,1131 L 1418,1131 L 1418,1130 L 1417,1129 L 1417,1128 L 1417,1127 L 1417,1126 L 1418,1126 L 1417,1126 L 1417,1125 L 1418,1125 L 1419,1124 L 1418,1123 L 1418,1120 L 1418,1118 L 1418,1114 L 1417,1111 L 1417,1109 L 1417,1106 L 1417,1102 L 1417,1100 L 1416,1098 L 1416,1096 L 1416,1091 L 1414,1086 L 1412,1084 L 1412,1082 L 1412,1079 L 1411,1078 L 1411,1075 L 1411,1074 L 1412,1071 L 1412,1068 L 1411,1064 L 1411,1057 L 1410,1054 L 1410,1044 L 1410,1039 L 1409,1032 L 1409,1031 L 1410,1030 L 1410,1029 L 1410,1028 L 1411,1028 L 1410,1027 L 1410,1026 L 1410,1025 L 1410,1024 L 1410,1023 L 1410,1022 L 1409,1020 L 1409,1018 L 1408,1015 L 1407,1012 L 1407,1006 L 1406,1004 L 1407,1001 L 1406,1000 L 1405,997 L 1405,994 L 1404,992 L 1402,984 L 1401,980 L 1401,976 L 1402,974 L 1402,970 L 1403,967 L 1402,964 L 1400,962 L 1400,959 L 1400,956 L 1400,954 L 1400,950 L 1400,948 L 1399,944 L 1399,941 L 1398,938 L 1397,935 L 1397,931 L 1396,929 L 1396,927 L 1396,925 L 1395,924 L 1393,923 L 1393,920 L 1392,920 L 1391,917 L 1390,914 L 1390,913 L 1392,913 L 1393,913 L 1394,914 L 1395,914 L 1396,914 L 1397,914 L 1398,914 L 1401,914 L 1405,913 L 1406,912 L 1406,913 L 1407,913 L 1407,912 L 1408,912 L 1408,911 L 1408,910 L 1407,910 L 1405,908 L 1403,904 L 1401,902 L 1400,899 L 1397,896 L 1395,893 L 1394,891 L 1390,887 L 1388,885 L 1384,883 L 1383,878 L 1381,875 L 1379,870 L 1379,867 L 1375,861 L 1375,859 L 1375,858 L 1376,858 L 1376,857 L 1377,856 L 1378,855 L 1380,854 L 1382,853 L 1383,852 L 1383,850 L 1384,849 L 1386,847 L 1387,846 L 1387,844 L 1386,843 L 1386,841 L 1385,841 L 1386,838 L 1385,835 L 1385,834 L 1385,833 L 1384,833 L 1385,832 L 1385,831 L 1385,830 L 1386,829 L 1386,828 L 1386,827 L 1385,826 L 1386,826 L 1386,825 L 1385,825 L 1386,825 L 1386,824 L 1386,823 L 1386,822 L 1385,822 L 1384,821 L 1384,820 L 1384,819 L 1383,819 L 1383,818 L 1382,818 L 1381,818 L 1381,817 L 1382,817 L 1382,816 L 1381,815 L 1380,815 L 1380,814 L 1379,814 L 1379,813 L 1379,812 L 1380,810 L 1380,809 L 1380,807 L 1380,806 L 1380,805 L 1380,804 L 1380,803 L 1381,803 L 1381,802 L 1382,802 L 1382,801 L 1383,801 L 1383,800 L 1384,800 L 1385,796 L 1386,794 L 1387,792 L 1387,790 L 1387,789 L 1387,787 L 1387,785 L 1387,784 L 1387,783 L 1387,781 L 1387,776 L 1387,775 L 1387,773 L 1388,772 L 1388,771 L 1389,770 L 1389,769 L 1389,768 L 1389,767 L 1389,766 L 1389,765 L 1389,764 L 1389,763 L 1389,762 L 1390,762 L 1391,760 L 1392,759 L 1394,759 L 1397,758 L 1399,756 L 1400,755 L 1401,753 L 1402,750 L 1404,747 L 1404,745 L 1405,742 L 1406,741 L 1408,739 L 1408,737 L 1408,734 L 1408,732 L 1408,731 L 1408,729 L 1408,727 L 1409,725 L 1409,724 L 1411,722 L 1413,722 L 1416,721 L 1419,720 L 1420,720 L 1421,720 L 1423,720 L 1425,720 L 1426,720 L 1427,721 L 1429,721 L 1430,721 L 1432,721 L 1434,720 L 1435,719 L 1436,719 L 1437,719 L 1440,719 L 1441,719 L 1442,719 L 1443,718 L 1445,717 L 1447,716 L 1448,715 L 1448,714 L 1449,713 L 1450,712 L 1451,710 L 1451,709 L 1451,708 L 1451,707 L 1451,706 L 1451,705 L 1452,704 L 1453,703 L 1454,702 L 1455,702 L 1457,702 L 1458,700 L 1459,699 L 1460,698 L 1460,697 L 1460,696 L 1461,694 L 1464,692 L 1470,686 L 1470,685 L 1471,683 L 1472,681 L 1474,679 L 1475,678 L 1476,674 L 1478,672 L 1479,670 L 1480,669 L 1482,668 L 1483,667 L 1484,666 L 1484,665 L 1484,663 L 1484,661 L 1484,659 L 1483,657 L 1483,656 L 1483,654 L 1484,653 L 1485,651 L 1487,650 L 1489,650 L 1490,650 L 1492,649 L 1494,648 L 1496,646 L 1498,645 L 1500,644 L 1501,644 L 1503,643 L 1509,639 L 1510,638 L 1512,636 L 1515,635 L 1516,634 L 1516,632 L 1516,630 L 1515,628 L 1515,626 L 1514,624 L 1514,623 L 1514,622 L 1516,621 L 1516,620 L 1518,620 L 1519,619 L 1522,618 L 1523,617 L 1524,616 L 1525,614 L 1527,613 L 1528,612 L 1529,610 L 1530,609 L 1532,607 L 1533,606 L 1533,604 L 1534,603 L 1535,603 L 1535,602 L 1537,602 L 1538,602 L 1538,600 L 1538,599 L 1538,596 L 1538,594 L 1538,592 L 1538,591 L 1538,590 L 1539,589 L 1539,587 L 1541,586 L 1542,585 L 1543,584 L 1544,582 L 1547,578 L 1549,575 L 1550,574 L 1550,573 L 1550,571 L 1552,569 L 1553,566 L 1553,565 L 1553,563 L 1553,562 L 1553,560 L 1553,559 L 1554,558 L 1554,557 L 1555,556 L 1556,555 L 1556,553 L 1556,551 L 1556,550 L 1556,549 L 1557,548 L 1557,546 L 1557,545 L 1558,544 L 1558,542 L 1559,541 L 1559,540 L 1559,539 L 1558,538 L 1558,537 L 1557,537 L 1557,536 L 1556,535 L 1556,533 L 1555,532 L 1555,531 L 1554,531 L 1554,530 L 1554,529 L 1555,529 L 1555,528 L 1555,527 L 1556,526 L 1557,525 L 1557,524 L 1557,523 L 1558,522 L 1559,521 L 1559,520 L 1560,519 L 1561,518 L 1562,517 L 1563,516 L 1563,515 L 1563,514 L 1564,514 L 1564,513 L 1565,513 L 1566,512 L 1567,512 L 1568,511 L 1569,510 L 1569,509 L 1569,508 L 1569,507 L 1568,505 L 1567,503 L 1566,502 L 1566,501 L 1566,500 L 1566,499 L 1567,498 L 1567,497 L 1568,496 L 1567,495 L 1567,494 L 1567,493 L 1566,492 L 1566,490 L 1566,489 L 1566,488 L 1566,487 L 1567,487 L 1567,486 L 1567,485 L 1567,484 L 1568,483 L 1569,482 L 1570,482 L 1572,481 L 1573,481 L 1574,480 L 1575,479 L 1576,479 L 1577,478 L 1577,477 L 1578,476 L 1578,475 L 1579,474 L 1580,473 L 1580,472 L 1580,471 L 1581,470 L 1581,469 L 1580,468 L 1581,467 L 1581,466 L 1581,465 L 1581,464 L 1581,463 L 1581,462 L 1581,461 L 1581,460 L 1581,459 L 1581,458 L 1581,457 L 1581,455 L 1601,458 L 1623,460 L 1646,463 L 1664,466 L 1719,472 L 1908,502 L 1928,506 L 1970,513 L 2091,531 L 2100,532 L 2484,589 L 2505,592 L 2523,594 L 2532,596 L 2627,609 L 2627,610 L 2627,611 L 2628,611 L 2628,612 L 2629,612 L 2629,613 L 2630,613 L 2630,614 L 2630,615 L 2629,615 L 2629,616 " /></g>
</svg>
