<?xml version="1.0" standalone="no"?><!DOCTYPE svg PUBLIC "-//W3C//DTD SVG 1.1//EN" "http://www.w3.org/Graphics/SVG/1.1/DTD/svg11.dtd"><svg xmlns="http://www.w3.org/2000/svg" viewBox="1279 1182 124 97" version = "1.1">
<g id="70704" ><path d="M 1378,1186 L 1382,1189 L 1382,1190 L 1382,1191 L 1382,1192 L 1383,1193 L 1383,1194 L 1384,1195 L 1384,1196 L 1384,1197 L 1385,1197 L 1385,1198 L 1385,1199 L 1384,1200 L 1384,1201 L 1384,1202 L 1384,1203 L 1383,1204 L 1384,1205 L 1383,1205 L 1382,1206 L 1383,1207 L 1383,1208 L 1383,1209 L 1384,1209 L 1385,1210 L 1386,1211 L 1387,1211 L 1387,1212 L 1388,1213 L 1388,1214 L 1389,1215 L 1390,1215 L 1391,1216 L 1397,1219 L 1399,1223 L 1400,1225 L 1401,1226 L 1402,1227 L 1403,1227 L 1403,1228 L 1402,1228 L 1402,1229 L 1402,1230 L 1401,1230 L 1401,1231 L 1401,1232 L 1400,1233 L 1400,1234 L 1399,1234 L 1399,1235 L 1399,1236 L 1397,1239 L 1397,1240 L 1396,1241 L 1396,1242 L 1396,1243 L 1395,1243 L 1395,1244 L 1394,1244 L 1393,1244 L 1392,1244 L 1391,1245 L 1390,1245 L 1390,1244 L 1389,1244 L 1388,1244 L 1387,1244 L 1386,1245 L 1385,1247 L 1384,1248 L 1383,1248 L 1383,1249 L 1383,1250 L 1383,1251 L 1383,1252 L 1383,1253 L 1383,1254 L 1383,1255 L 1383,1256 L 1382,1256 L 1382,1257 L 1381,1257 L 1381,1258 L 1382,1258 L 1382,1259 L 1381,1259 L 1381,1260 L 1381,1261 L 1380,1261 L 1380,1262 L 1380,1263 L 1379,1264 L 1378,1264 L 1378,1265 L 1378,1266 L 1378,1267 L 1378,1268 L 1377,1268 L 1376,1268 L 1375,1268 L 1374,1268 L 1373,1268 L 1372,1267 L 1371,1267 L 1370,1267 L 1369,1267 L 1369,1268 L 1368,1269 L 1367,1269 L 1366,1270 L 1365,1270 L 1364,1271 L 1363,1271 L 1362,1271 L 1362,1272 L 1361,1272 L 1361,1273 L 1360,1273 L 1359,1273 L 1358,1273 L 1357,1273 L 1356,1273 L 1356,1274 L 1355,1274 L 1354,1274 L 1353,1274 L 1352,1274 L 1351,1274 L 1350,1274 L 1349,1274 L 1348,1273 L 1347,1274 L 1346,1274 L 1345,1274 L 1344,1274 L 1345,1275 L 1345,1276 L 1344,1276 L 1344,1275 L 1343,1275 L 1342,1275 L 1341,1275 L 1340,1274 L 1339,1274 L 1338,1274 L 1337,1274 L 1337,1273 L 1337,1272 L 1336,1272 L 1336,1273 L 1335,1273 L 1334,1273 L 1334,1272 L 1333,1272 L 1332,1272 L 1331,1272 L 1330,1272 L 1329,1272 L 1328,1272 L 1327,1272 L 1327,1271 L 1326,1271 L 1325,1271 L 1324,1271 L 1323,1271 L 1322,1271 L 1322,1270 L 1321,1270 L 1321,1269 L 1320,1269 L 1320,1270 L 1319,1270 L 1318,1270 L 1318,1271 L 1317,1271 L 1317,1272 L 1317,1273 L 1316,1273 L 1315,1273 L 1314,1273 L 1314,1274 L 1313,1274 L 1313,1275 L 1312,1275 L 1311,1275 L 1311,1276 L 1310,1275 L 1310,1276 L 1309,1276 L 1308,1276 L 1307,1276 L 1305,1276 L 1303,1276 L 1302,1277 L 1299,1277 L 1297,1279 L 1293,1279 L 1289,1278 L 1287,1277 L 1285,1270 L 1285,1267 L 1285,1265 L 1285,1264 L 1285,1263 L 1284,1263 L 1284,1262 L 1284,1261 L 1284,1260 L 1284,1259 L 1284,1258 L 1284,1257 L 1284,1256 L 1284,1255 L 1284,1254 L 1283,1254 L 1284,1254 L 1283,1253 L 1284,1252 L 1284,1251 L 1284,1250 L 1284,1249 L 1284,1248 L 1285,1248 L 1285,1247 L 1284,1247 L 1284,1246 L 1284,1245 L 1284,1244 L 1284,1243 L 1284,1240 L 1284,1238 L 1284,1237 L 1284,1236 L 1284,1234 L 1284,1233 L 1284,1232 L 1283,1232 L 1284,1232 L 1284,1231 L 1283,1231 L 1283,1230 L 1283,1229 L 1283,1228 L 1283,1227 L 1283,1225 L 1282,1224 L 1283,1223 L 1283,1222 L 1283,1221 L 1283,1220 L 1282,1220 L 1282,1219 L 1282,1218 L 1282,1217 L 1282,1216 L 1282,1215 L 1283,1215 L 1283,1214 L 1284,1214 L 1284,1213 L 1283,1213 L 1283,1212 L 1282,1212 L 1282,1211 L 1281,1211 L 1281,1210 L 1282,1210 L 1282,1209 L 1281,1208 L 1280,1208 L 1281,1208 L 1281,1207 L 1280,1207 L 1279,1206 L 1280,1205 L 1281,1204 L 1281,1203 L 1282,1203 L 1282,1202 L 1283,1202 L 1282,1201 L 1283,1201 L 1284,1201 L 1284,1200 L 1284,1199 L 1284,1198 L 1285,1198 L 1285,1197 L 1286,1197 L 1286,1196 L 1286,1195 L 1286,1194 L 1287,1194 L 1287,1193 L 1288,1193 L 1288,1192 L 1288,1191 L 1288,1190 L 1287,1190 L 1287,1189 L 1287,1188 L 1287,1187 L 1286,1187 L 1285,1187 L 1285,1186 L 1285,1185 L 1286,1184 L 1287,1184 L 1287,1185 L 1288,1185 L 1289,1185 L 1289,1186 L 1290,1186 L 1290,1187 L 1291,1187 L 1292,1187 L 1293,1187 L 1294,1188 L 1295,1188 L 1296,1188 L 1297,1188 L 1298,1188 L 1298,1189 L 1306,1190 L 1311,1192 L 1313,1193 L 1324,1196 L 1338,1198 L 1345,1194 L 1350,1191 L 1356,1187 L 1358,1188 L 1361,1188 L 1362,1188 L 1363,1187 L 1364,1187 L 1365,1186 L 1366,1186 L 1366,1185 L 1367,1184 L 1368,1183 L 1370,1183 L 1372,1182 L 1374,1183 L 1375,1184 L 1376,1184 L 1377,1185 L 1378,1186 " /></g>
</svg>
