<?xml version="1.0" standalone="no"?><!DOCTYPE svg PUBLIC "-//W3C//DTD SVG 1.1//EN" "http://www.w3.org/Graphics/SVG/1.1/DTD/svg11.dtd"><svg xmlns="http://www.w3.org/2000/svg" viewBox="1271 915 71 255" version = "1.1">
<g id="70701" ><path d="M 1290,919 L 1292,919 L 1295,920 L 1298,920 L 1303,923 L 1307,926 L 1310,926 L 1312,927 L 1314,930 L 1314,933 L 1315,935 L 1314,942 L 1314,943 L 1314,948 L 1313,951 L 1315,961 L 1315,964 L 1315,966 L 1315,969 L 1315,972 L 1316,973 L 1316,975 L 1316,977 L 1317,985 L 1318,988 L 1318,990 L 1319,998 L 1320,1000 L 1323,1006 L 1323,1007 L 1323,1008 L 1322,1009 L 1322,1010 L 1321,1010 L 1320,1010 L 1319,1011 L 1317,1012 L 1316,1012 L 1315,1013 L 1315,1014 L 1314,1014 L 1315,1015 L 1316,1015 L 1316,1016 L 1317,1015 L 1318,1015 L 1318,1016 L 1319,1016 L 1320,1016 L 1320,1015 L 1321,1015 L 1322,1015 L 1323,1016 L 1324,1016 L 1324,1015 L 1325,1016 L 1326,1016 L 1326,1017 L 1327,1017 L 1327,1018 L 1328,1018 L 1329,1018 L 1329,1019 L 1330,1020 L 1332,1020 L 1333,1022 L 1334,1026 L 1335,1029 L 1335,1031 L 1337,1035 L 1339,1037 L 1339,1040 L 1339,1041 L 1339,1046 L 1339,1051 L 1339,1053 L 1339,1058 L 1339,1060 L 1339,1061 L 1340,1064 L 1339,1066 L 1340,1067 L 1340,1072 L 1340,1075 L 1341,1078 L 1341,1080 L 1341,1081 L 1341,1083 L 1342,1085 L 1331,1087 L 1328,1088 L 1325,1089 L 1323,1093 L 1322,1098 L 1321,1102 L 1320,1106 L 1319,1109 L 1319,1113 L 1319,1116 L 1318,1121 L 1318,1124 L 1317,1124 L 1317,1125 L 1317,1126 L 1316,1126 L 1316,1127 L 1315,1127 L 1314,1127 L 1314,1128 L 1314,1129 L 1315,1129 L 1315,1130 L 1315,1131 L 1316,1132 L 1315,1132 L 1315,1133 L 1314,1133 L 1313,1133 L 1313,1132 L 1312,1131 L 1312,1132 L 1311,1132 L 1310,1133 L 1309,1133 L 1309,1132 L 1308,1131 L 1307,1131 L 1307,1132 L 1307,1133 L 1307,1132 L 1306,1132 L 1306,1133 L 1306,1134 L 1307,1134 L 1307,1135 L 1306,1135 L 1305,1135 L 1304,1135 L 1303,1135 L 1302,1135 L 1302,1136 L 1301,1136 L 1301,1137 L 1302,1138 L 1302,1139 L 1303,1140 L 1304,1140 L 1304,1141 L 1304,1142 L 1304,1143 L 1304,1144 L 1305,1145 L 1305,1146 L 1305,1147 L 1305,1149 L 1305,1150 L 1305,1151 L 1304,1150 L 1303,1150 L 1302,1149 L 1302,1148 L 1301,1148 L 1300,1148 L 1300,1149 L 1299,1149 L 1299,1150 L 1299,1151 L 1299,1152 L 1299,1153 L 1298,1153 L 1298,1154 L 1298,1155 L 1297,1156 L 1296,1157 L 1295,1157 L 1294,1157 L 1293,1157 L 1293,1156 L 1292,1156 L 1292,1157 L 1292,1158 L 1292,1159 L 1293,1159 L 1293,1160 L 1293,1161 L 1293,1162 L 1293,1163 L 1292,1163 L 1291,1163 L 1290,1163 L 1290,1162 L 1289,1162 L 1288,1162 L 1287,1162 L 1287,1163 L 1288,1164 L 1289,1164 L 1289,1165 L 1289,1166 L 1288,1166 L 1287,1167 L 1286,1167 L 1285,1167 L 1284,1167 L 1283,1168 L 1283,1169 L 1284,1170 L 1285,1170 L 1284,1170 L 1282,1170 L 1282,1168 L 1282,1167 L 1281,1166 L 1281,1164 L 1280,1164 L 1280,1163 L 1279,1163 L 1278,1163 L 1277,1162 L 1276,1162 L 1275,1161 L 1274,1160 L 1273,1160 L 1273,1159 L 1274,1158 L 1274,1157 L 1273,1156 L 1273,1155 L 1273,1154 L 1273,1152 L 1273,1151 L 1273,1150 L 1273,1149 L 1273,1148 L 1273,1147 L 1273,1146 L 1273,1145 L 1272,1144 L 1273,1144 L 1273,1143 L 1273,1142 L 1273,1141 L 1272,1141 L 1272,1140 L 1272,1139 L 1272,1138 L 1272,1137 L 1273,1136 L 1272,1136 L 1272,1135 L 1272,1134 L 1271,1134 L 1271,1133 L 1272,1132 L 1271,1132 L 1271,1131 L 1271,1130 L 1271,1129 L 1272,1129 L 1272,1128 L 1272,1127 L 1272,1126 L 1272,1125 L 1272,1124 L 1272,1123 L 1272,1122 L 1272,1121 L 1273,1121 L 1273,1120 L 1273,1119 L 1273,1118 L 1273,1117 L 1273,1116 L 1273,1115 L 1273,1114 L 1274,1113 L 1274,1112 L 1274,1111 L 1275,1110 L 1275,1109 L 1274,1109 L 1274,1108 L 1275,1108 L 1275,1107 L 1275,1106 L 1276,1106 L 1276,1105 L 1276,1104 L 1276,1103 L 1276,1102 L 1277,1101 L 1277,1100 L 1277,1099 L 1277,1098 L 1277,1097 L 1277,1096 L 1276,1096 L 1276,1095 L 1276,1094 L 1276,1093 L 1276,1092 L 1277,1092 L 1276,1092 L 1276,1091 L 1276,1090 L 1275,1090 L 1275,1089 L 1276,1089 L 1276,1088 L 1276,1087 L 1276,1086 L 1276,1085 L 1276,1084 L 1276,1083 L 1276,1082 L 1277,1081 L 1277,1080 L 1278,1080 L 1278,1079 L 1277,1079 L 1278,1078 L 1277,1078 L 1278,1078 L 1278,1077 L 1278,1076 L 1279,1076 L 1279,1075 L 1279,1074 L 1279,1073 L 1278,1072 L 1279,1072 L 1279,1071 L 1278,1070 L 1278,1069 L 1278,1068 L 1278,1067 L 1278,1066 L 1278,1065 L 1278,1064 L 1277,1064 L 1277,1063 L 1277,1062 L 1276,1062 L 1276,1061 L 1276,1060 L 1276,1059 L 1276,1058 L 1275,1058 L 1275,1057 L 1275,1056 L 1275,1055 L 1275,1054 L 1275,1053 L 1276,1052 L 1276,1051 L 1276,1050 L 1276,1049 L 1276,1048 L 1276,1047 L 1275,1047 L 1275,1046 L 1275,1045 L 1275,1044 L 1275,1043 L 1275,1042 L 1275,1041 L 1275,1040 L 1275,1039 L 1275,1038 L 1275,1037 L 1275,1036 L 1276,1036 L 1276,1035 L 1276,1034 L 1276,1033 L 1276,1032 L 1276,1031 L 1276,1030 L 1275,1030 L 1275,1029 L 1276,1029 L 1276,1028 L 1276,1027 L 1276,1026 L 1276,1025 L 1276,1024 L 1276,1023 L 1276,1022 L 1276,1021 L 1276,1020 L 1276,1019 L 1277,1019 L 1277,1018 L 1277,1017 L 1277,1016 L 1277,1015 L 1277,1014 L 1278,1014 L 1278,1013 L 1278,1012 L 1278,1011 L 1278,1010 L 1279,1010 L 1279,1009 L 1280,1009 L 1280,1008 L 1280,1007 L 1281,1006 L 1281,1005 L 1282,1005 L 1282,1004 L 1282,1003 L 1282,1002 L 1281,1001 L 1280,1000 L 1280,999 L 1280,998 L 1280,997 L 1280,996 L 1280,995 L 1280,994 L 1280,993 L 1280,992 L 1280,991 L 1280,990 L 1281,990 L 1282,990 L 1282,989 L 1282,988 L 1283,987 L 1284,987 L 1284,986 L 1284,985 L 1285,984 L 1284,984 L 1284,983 L 1283,983 L 1283,982 L 1282,982 L 1281,982 L 1281,981 L 1281,980 L 1281,979 L 1280,979 L 1280,978 L 1279,978 L 1279,977 L 1279,976 L 1278,976 L 1278,975 L 1278,974 L 1278,973 L 1278,972 L 1278,971 L 1278,970 L 1277,970 L 1277,969 L 1278,969 L 1278,968 L 1279,968 L 1279,967 L 1279,966 L 1279,965 L 1278,965 L 1279,964 L 1279,963 L 1279,962 L 1280,962 L 1279,962 L 1279,961 L 1279,960 L 1279,959 L 1279,958 L 1279,957 L 1279,956 L 1280,955 L 1281,955 L 1280,954 L 1280,953 L 1280,952 L 1280,951 L 1280,950 L 1281,948 L 1281,947 L 1279,945 L 1279,944 L 1280,942 L 1278,936 L 1277,934 L 1276,932 L 1276,930 L 1277,929 L 1277,927 L 1276,927 L 1276,926 L 1275,925 L 1276,924 L 1276,923 L 1276,921 L 1276,920 L 1276,918 L 1275,918 L 1274,917 L 1275,917 L 1276,917 L 1276,918 L 1277,918 L 1277,917 L 1277,918 L 1278,918 L 1279,918 L 1278,918 L 1278,919 L 1279,919 L 1280,919 L 1280,920 L 1281,920 L 1282,920 L 1282,919 L 1283,919 L 1284,919 L 1284,920 L 1284,921 L 1285,921 L 1285,920 L 1286,920 L 1286,919 L 1286,918 L 1285,918 L 1285,917 L 1286,916 L 1286,915 L 1287,915 L 1288,915 L 1288,916 L 1289,916 L 1289,917 L 1290,918 L 1290,919 " /></g>
</svg>
