<?xml version="1.0" standalone="no"?><!DOCTYPE svg PUBLIC "-//W3C//DTD SVG 1.1//EN" "http://www.w3.org/Graphics/SVG/1.1/DTD/svg11.dtd"><svg xmlns="http://www.w3.org/2000/svg" viewBox="1282 455 299 309" version = "1.1">
<g id="70703" ><path d="M 1488,458 L 1526,457 L 1554,457 L 1554,458 L 1576,458 L 1581,455 L 1581,457 L 1581,458 L 1581,459 L 1581,460 L 1581,461 L 1581,462 L 1581,463 L 1581,464 L 1581,465 L 1581,466 L 1581,467 L 1580,468 L 1581,469 L 1581,470 L 1580,471 L 1580,472 L 1580,473 L 1579,474 L 1578,475 L 1578,476 L 1577,477 L 1577,478 L 1576,479 L 1575,479 L 1574,480 L 1573,481 L 1572,481 L 1570,482 L 1569,482 L 1568,483 L 1567,484 L 1567,485 L 1567,486 L 1567,487 L 1566,487 L 1566,488 L 1566,489 L 1566,490 L 1566,492 L 1567,493 L 1567,494 L 1567,495 L 1568,496 L 1567,497 L 1567,498 L 1566,499 L 1566,500 L 1566,501 L 1566,502 L 1567,503 L 1568,505 L 1569,507 L 1569,508 L 1569,509 L 1569,510 L 1568,511 L 1567,512 L 1566,512 L 1565,513 L 1564,513 L 1564,514 L 1563,514 L 1563,515 L 1563,516 L 1562,517 L 1561,518 L 1560,519 L 1559,520 L 1559,521 L 1558,522 L 1557,523 L 1557,524 L 1557,525 L 1556,526 L 1555,527 L 1555,528 L 1555,529 L 1554,529 L 1554,530 L 1554,531 L 1555,531 L 1555,532 L 1556,533 L 1556,535 L 1557,536 L 1557,537 L 1558,537 L 1558,538 L 1559,539 L 1559,540 L 1559,541 L 1558,542 L 1558,544 L 1557,545 L 1557,546 L 1557,548 L 1556,549 L 1556,550 L 1556,551 L 1556,553 L 1556,555 L 1555,556 L 1554,557 L 1554,558 L 1553,559 L 1553,560 L 1553,562 L 1553,563 L 1553,565 L 1553,566 L 1552,569 L 1550,571 L 1550,573 L 1550,574 L 1549,575 L 1547,578 L 1544,582 L 1543,584 L 1542,585 L 1541,586 L 1539,587 L 1539,589 L 1538,590 L 1538,591 L 1538,592 L 1538,594 L 1538,596 L 1538,599 L 1538,600 L 1538,602 L 1537,602 L 1535,602 L 1535,603 L 1534,603 L 1533,604 L 1533,606 L 1532,607 L 1530,609 L 1529,610 L 1528,612 L 1527,613 L 1525,614 L 1524,616 L 1523,617 L 1522,618 L 1519,619 L 1518,620 L 1516,620 L 1516,621 L 1514,622 L 1514,623 L 1514,624 L 1515,626 L 1515,628 L 1516,630 L 1516,632 L 1516,634 L 1515,635 L 1512,636 L 1510,638 L 1509,639 L 1503,643 L 1501,644 L 1500,644 L 1498,645 L 1496,646 L 1494,648 L 1492,649 L 1490,650 L 1489,650 L 1487,650 L 1485,651 L 1484,653 L 1483,654 L 1483,656 L 1483,657 L 1484,659 L 1484,661 L 1484,663 L 1484,665 L 1484,666 L 1483,667 L 1482,668 L 1480,669 L 1479,670 L 1478,672 L 1476,674 L 1475,678 L 1474,679 L 1472,681 L 1471,683 L 1470,685 L 1470,686 L 1464,692 L 1461,694 L 1460,696 L 1460,697 L 1460,698 L 1459,699 L 1458,700 L 1457,702 L 1455,702 L 1454,702 L 1453,703 L 1452,704 L 1451,705 L 1451,706 L 1451,707 L 1451,708 L 1451,709 L 1451,710 L 1450,712 L 1449,713 L 1448,714 L 1448,715 L 1447,716 L 1445,717 L 1443,718 L 1442,719 L 1441,719 L 1440,719 L 1437,719 L 1436,719 L 1435,719 L 1434,720 L 1432,721 L 1430,721 L 1429,721 L 1427,721 L 1426,720 L 1425,720 L 1423,720 L 1421,720 L 1420,720 L 1419,720 L 1416,721 L 1413,722 L 1411,722 L 1409,724 L 1409,725 L 1408,727 L 1408,729 L 1408,731 L 1408,732 L 1408,734 L 1408,737 L 1408,739 L 1406,741 L 1405,742 L 1404,745 L 1404,747 L 1402,750 L 1401,753 L 1400,755 L 1399,756 L 1397,758 L 1394,759 L 1392,759 L 1389,759 L 1387,759 L 1385,757 L 1384,755 L 1383,755 L 1382,754 L 1381,754 L 1380,755 L 1379,755 L 1379,756 L 1378,757 L 1378,758 L 1377,758 L 1376,760 L 1375,760 L 1375,761 L 1374,761 L 1373,760 L 1372,760 L 1372,759 L 1371,759 L 1370,759 L 1369,759 L 1368,759 L 1368,760 L 1368,761 L 1368,762 L 1367,762 L 1367,763 L 1366,763 L 1366,762 L 1365,761 L 1364,760 L 1364,759 L 1363,758 L 1362,758 L 1361,758 L 1360,758 L 1359,758 L 1359,759 L 1360,760 L 1360,761 L 1359,762 L 1359,761 L 1358,761 L 1357,761 L 1356,761 L 1356,762 L 1355,762 L 1355,763 L 1354,763 L 1353,762 L 1353,761 L 1353,760 L 1352,759 L 1351,759 L 1350,759 L 1351,760 L 1351,761 L 1351,762 L 1351,763 L 1350,763 L 1350,764 L 1349,763 L 1349,762 L 1349,761 L 1348,761 L 1348,762 L 1347,763 L 1347,762 L 1346,762 L 1345,762 L 1344,762 L 1343,762 L 1342,761 L 1342,760 L 1341,761 L 1340,762 L 1339,762 L 1339,761 L 1339,760 L 1338,759 L 1337,759 L 1337,758 L 1336,757 L 1336,756 L 1337,755 L 1337,754 L 1337,753 L 1337,752 L 1338,751 L 1338,750 L 1338,749 L 1338,747 L 1338,746 L 1339,745 L 1338,744 L 1337,744 L 1337,743 L 1337,742 L 1337,741 L 1336,741 L 1336,742 L 1335,742 L 1334,742 L 1333,741 L 1332,741 L 1332,740 L 1331,740 L 1331,741 L 1331,742 L 1330,742 L 1330,741 L 1330,740 L 1330,739 L 1330,738 L 1330,737 L 1329,736 L 1328,736 L 1328,735 L 1328,734 L 1328,733 L 1327,733 L 1326,733 L 1325,733 L 1324,733 L 1323,732 L 1322,732 L 1322,731 L 1321,731 L 1321,730 L 1321,729 L 1322,729 L 1323,729 L 1323,728 L 1323,727 L 1322,727 L 1321,727 L 1322,726 L 1323,726 L 1323,725 L 1324,725 L 1325,725 L 1326,724 L 1327,724 L 1328,724 L 1328,725 L 1329,724 L 1329,723 L 1330,722 L 1331,722 L 1332,722 L 1332,723 L 1333,723 L 1334,722 L 1334,721 L 1334,720 L 1334,719 L 1333,718 L 1333,717 L 1334,717 L 1334,716 L 1335,716 L 1335,715 L 1336,715 L 1336,714 L 1337,713 L 1338,712 L 1339,711 L 1338,711 L 1338,710 L 1338,709 L 1338,708 L 1339,708 L 1339,707 L 1339,706 L 1339,705 L 1339,704 L 1339,703 L 1339,702 L 1338,702 L 1338,701 L 1339,701 L 1339,700 L 1340,700 L 1340,699 L 1340,698 L 1340,697 L 1339,696 L 1339,695 L 1339,694 L 1339,693 L 1338,693 L 1338,692 L 1337,692 L 1337,691 L 1336,691 L 1335,691 L 1334,691 L 1333,691 L 1333,692 L 1332,692 L 1332,693 L 1331,693 L 1331,694 L 1331,695 L 1330,695 L 1329,695 L 1329,694 L 1328,694 L 1327,694 L 1326,694 L 1326,693 L 1325,693 L 1325,692 L 1324,692 L 1323,692 L 1322,692 L 1322,693 L 1323,693 L 1324,693 L 1324,694 L 1323,694 L 1323,695 L 1322,695 L 1321,695 L 1321,696 L 1321,695 L 1321,694 L 1320,694 L 1320,695 L 1320,696 L 1319,696 L 1320,696 L 1320,697 L 1319,697 L 1319,696 L 1318,696 L 1317,696 L 1316,696 L 1316,697 L 1315,698 L 1314,698 L 1313,698 L 1313,697 L 1313,696 L 1312,696 L 1311,696 L 1311,695 L 1311,694 L 1310,694 L 1309,693 L 1309,692 L 1308,692 L 1308,691 L 1308,690 L 1308,689 L 1307,689 L 1306,688 L 1306,687 L 1307,687 L 1307,686 L 1307,685 L 1306,685 L 1305,685 L 1305,686 L 1304,686 L 1304,685 L 1303,685 L 1303,684 L 1303,683 L 1302,683 L 1303,683 L 1304,683 L 1304,682 L 1304,681 L 1303,681 L 1303,680 L 1302,680 L 1302,681 L 1301,681 L 1301,680 L 1301,679 L 1302,679 L 1302,678 L 1303,678 L 1303,677 L 1302,677 L 1302,676 L 1301,676 L 1301,677 L 1300,677 L 1299,677 L 1299,678 L 1298,678 L 1297,678 L 1297,677 L 1297,676 L 1298,676 L 1298,675 L 1299,675 L 1299,674 L 1300,674 L 1300,673 L 1300,672 L 1299,672 L 1299,671 L 1298,671 L 1297,671 L 1297,670 L 1296,670 L 1296,669 L 1295,669 L 1294,668 L 1293,668 L 1292,668 L 1292,667 L 1291,667 L 1290,667 L 1290,668 L 1289,668 L 1289,667 L 1290,667 L 1290,666 L 1290,665 L 1291,665 L 1290,665 L 1290,664 L 1291,664 L 1292,664 L 1292,663 L 1292,662 L 1292,661 L 1291,661 L 1291,660 L 1291,659 L 1290,659 L 1289,659 L 1289,658 L 1288,658 L 1288,659 L 1288,660 L 1288,659 L 1287,658 L 1286,658 L 1285,658 L 1285,657 L 1286,657 L 1286,656 L 1286,655 L 1287,655 L 1286,655 L 1286,654 L 1285,654 L 1285,653 L 1285,652 L 1284,651 L 1284,650 L 1284,649 L 1284,648 L 1283,648 L 1283,647 L 1283,646 L 1284,646 L 1283,645 L 1284,645 L 1284,644 L 1283,644 L 1283,643 L 1284,643 L 1284,642 L 1284,641 L 1285,641 L 1286,641 L 1286,640 L 1287,640 L 1286,640 L 1286,639 L 1285,639 L 1286,639 L 1287,639 L 1288,639 L 1288,638 L 1287,638 L 1286,638 L 1286,637 L 1286,636 L 1286,635 L 1286,634 L 1286,633 L 1286,634 L 1285,634 L 1284,635 L 1284,634 L 1284,633 L 1285,633 L 1285,632 L 1285,631 L 1285,630 L 1285,629 L 1284,629 L 1284,628 L 1284,627 L 1283,627 L 1283,626 L 1284,625 L 1284,624 L 1283,624 L 1284,623 L 1284,622 L 1285,622 L 1284,621 L 1284,620 L 1285,620 L 1285,619 L 1285,618 L 1285,617 L 1284,617 L 1284,616 L 1284,615 L 1284,614 L 1284,613 L 1283,613 L 1283,612 L 1283,611 L 1282,611 L 1283,611 L 1283,610 L 1284,610 L 1285,610 L 1286,610 L 1287,610 L 1288,609 L 1288,610 L 1288,609 L 1289,609 L 1290,608 L 1290,607 L 1290,606 L 1289,606 L 1289,605 L 1289,604 L 1289,603 L 1290,603 L 1290,602 L 1290,601 L 1291,601 L 1291,600 L 1291,599 L 1292,599 L 1292,598 L 1293,598 L 1294,598 L 1295,598 L 1296,597 L 1297,597 L 1297,598 L 1298,598 L 1298,597 L 1299,597 L 1299,596 L 1299,595 L 1298,595 L 1299,594 L 1299,593 L 1299,592 L 1298,591 L 1298,590 L 1298,589 L 1298,587 L 1300,586 L 1301,586 L 1302,586 L 1303,586 L 1304,585 L 1306,584 L 1307,583 L 1307,582 L 1307,581 L 1308,581 L 1308,580 L 1308,579 L 1309,579 L 1311,577 L 1311,576 L 1310,576 L 1311,575 L 1311,574 L 1310,573 L 1311,573 L 1311,572 L 1313,572 L 1314,572 L 1315,572 L 1316,572 L 1318,571 L 1320,571 L 1321,570 L 1322,570 L 1324,571 L 1325,571 L 1327,570 L 1329,569 L 1331,569 L 1333,567 L 1335,567 L 1336,568 L 1338,568 L 1339,570 L 1341,570 L 1342,570 L 1343,570 L 1344,569 L 1344,568 L 1345,567 L 1346,564 L 1346,563 L 1345,562 L 1345,560 L 1344,558 L 1345,557 L 1344,555 L 1343,555 L 1343,553 L 1343,549 L 1345,548 L 1344,546 L 1344,545 L 1344,543 L 1352,538 L 1353,539 L 1354,539 L 1355,539 L 1356,539 L 1357,539 L 1358,539 L 1359,539 L 1360,539 L 1362,540 L 1363,540 L 1364,540 L 1365,540 L 1366,540 L 1367,540 L 1367,539 L 1368,539 L 1369,539 L 1369,538 L 1370,538 L 1371,538 L 1372,537 L 1373,537 L 1373,538 L 1374,538 L 1374,537 L 1375,537 L 1376,537 L 1376,536 L 1377,536 L 1377,535 L 1378,535 L 1379,534 L 1380,534 L 1381,534 L 1381,533 L 1382,533 L 1383,533 L 1384,533 L 1384,532 L 1385,532 L 1385,531 L 1386,531 L 1387,530 L 1388,529 L 1389,529 L 1390,528 L 1391,528 L 1392,528 L 1393,527 L 1394,527 L 1395,527 L 1396,527 L 1397,527 L 1398,528 L 1399,528 L 1399,529 L 1400,529 L 1400,530 L 1401,530 L 1402,530 L 1403,530 L 1404,530 L 1405,530 L 1406,530 L 1406,531 L 1407,532 L 1408,533 L 1408,534 L 1409,533 L 1410,534 L 1410,533 L 1411,533 L 1412,533 L 1413,533 L 1414,533 L 1415,533 L 1416,532 L 1417,531 L 1418,531 L 1418,530 L 1418,529 L 1419,529 L 1419,528 L 1420,527 L 1420,526 L 1421,526 L 1422,526 L 1422,527 L 1423,527 L 1423,528 L 1424,528 L 1424,529 L 1425,529 L 1426,529 L 1427,529 L 1428,529 L 1429,529 L 1430,529 L 1430,530 L 1431,530 L 1432,530 L 1432,529 L 1433,529 L 1434,529 L 1434,530 L 1435,530 L 1436,530 L 1436,531 L 1436,532 L 1437,532 L 1438,532 L 1438,533 L 1439,533 L 1440,533 L 1439,533 L 1440,534 L 1440,535 L 1441,535 L 1442,535 L 1442,534 L 1443,534 L 1444,534 L 1445,534 L 1445,535 L 1446,535 L 1446,534 L 1447,534 L 1447,535 L 1448,536 L 1448,537 L 1449,537 L 1449,536 L 1450,536 L 1451,536 L 1452,536 L 1452,535 L 1453,535 L 1453,534 L 1453,532 L 1453,529 L 1453,526 L 1453,525 L 1452,522 L 1453,519 L 1453,517 L 1453,515 L 1453,513 L 1453,512 L 1453,511 L 1453,510 L 1452,509 L 1452,507 L 1473,507 L 1472,486 L 1467,486 L 1467,473 L 1459,473 L 1460,459 L 1484,458 L 1487,455 L 1488,458 " /></g>
</svg>
