<?xml version="1.0" standalone="no"?><!DOCTYPE svg PUBLIC "-//W3C//DTD SVG 1.1//EN" "http://www.w3.org/Graphics/SVG/1.1/DTD/svg11.dtd"><svg xmlns="http://www.w3.org/2000/svg" viewBox="1267 754 145 331" version = "1.1">
<g id="70705" ><path d="M 1275,898 L 1275,897 L 1275,893 L 1276,891 L 1275,890 L 1276,879 L 1277,876 L 1276,872 L 1274,870 L 1274,867 L 1273,864 L 1273,861 L 1270,858 L 1269,857 L 1269,855 L 1269,854 L 1270,854 L 1270,853 L 1269,852 L 1269,851 L 1268,850 L 1268,848 L 1267,847 L 1267,846 L 1267,845 L 1267,844 L 1267,842 L 1267,841 L 1267,840 L 1267,838 L 1268,837 L 1269,835 L 1270,834 L 1270,833 L 1270,831 L 1270,829 L 1271,829 L 1271,828 L 1271,827 L 1272,827 L 1272,826 L 1273,826 L 1273,825 L 1274,825 L 1275,825 L 1275,824 L 1275,823 L 1276,823 L 1276,822 L 1275,822 L 1275,821 L 1276,820 L 1275,820 L 1275,819 L 1275,818 L 1276,818 L 1276,817 L 1276,816 L 1277,815 L 1277,814 L 1277,813 L 1277,812 L 1278,812 L 1278,811 L 1278,810 L 1278,809 L 1277,809 L 1278,808 L 1278,807 L 1279,807 L 1279,806 L 1279,805 L 1279,804 L 1279,803 L 1279,802 L 1280,802 L 1280,801 L 1279,801 L 1279,800 L 1280,799 L 1282,798 L 1283,798 L 1284,799 L 1284,800 L 1283,801 L 1283,802 L 1282,803 L 1283,803 L 1283,804 L 1284,804 L 1285,804 L 1286,803 L 1287,803 L 1288,803 L 1289,803 L 1289,804 L 1290,804 L 1291,804 L 1292,804 L 1292,805 L 1291,805 L 1291,806 L 1290,806 L 1289,806 L 1289,807 L 1288,807 L 1287,807 L 1287,808 L 1288,809 L 1288,810 L 1289,811 L 1290,811 L 1291,811 L 1292,811 L 1293,812 L 1293,813 L 1292,813 L 1292,814 L 1293,814 L 1293,815 L 1294,815 L 1295,815 L 1295,814 L 1296,814 L 1297,813 L 1298,813 L 1299,813 L 1299,814 L 1298,815 L 1298,816 L 1299,816 L 1300,816 L 1300,815 L 1300,814 L 1301,814 L 1302,815 L 1303,815 L 1304,815 L 1304,816 L 1305,816 L 1306,816 L 1306,817 L 1306,818 L 1306,819 L 1307,819 L 1307,818 L 1307,817 L 1308,817 L 1308,816 L 1309,816 L 1309,817 L 1310,817 L 1311,817 L 1312,816 L 1313,816 L 1314,816 L 1314,817 L 1315,817 L 1316,817 L 1316,818 L 1317,818 L 1318,818 L 1319,818 L 1320,818 L 1321,818 L 1322,817 L 1322,816 L 1322,815 L 1323,815 L 1323,814 L 1324,814 L 1325,814 L 1326,814 L 1327,814 L 1328,815 L 1329,815 L 1329,816 L 1330,816 L 1330,815 L 1330,814 L 1330,813 L 1330,812 L 1330,811 L 1330,810 L 1329,809 L 1328,809 L 1327,808 L 1328,808 L 1328,807 L 1329,807 L 1329,806 L 1330,805 L 1330,804 L 1330,803 L 1331,802 L 1332,801 L 1333,801 L 1333,800 L 1334,800 L 1334,799 L 1334,798 L 1334,797 L 1333,796 L 1333,795 L 1332,795 L 1332,794 L 1331,794 L 1330,793 L 1330,792 L 1331,792 L 1331,791 L 1332,791 L 1333,791 L 1334,791 L 1335,791 L 1335,790 L 1335,789 L 1334,789 L 1334,788 L 1333,787 L 1332,786 L 1332,785 L 1333,785 L 1334,785 L 1334,784 L 1334,783 L 1333,782 L 1333,781 L 1332,779 L 1331,779 L 1330,778 L 1329,778 L 1328,778 L 1328,777 L 1329,776 L 1329,775 L 1330,775 L 1330,774 L 1331,774 L 1331,775 L 1332,775 L 1332,776 L 1333,776 L 1334,776 L 1334,775 L 1335,775 L 1335,774 L 1335,773 L 1335,772 L 1335,771 L 1334,770 L 1334,769 L 1334,768 L 1334,767 L 1334,766 L 1335,766 L 1335,765 L 1336,765 L 1337,764 L 1337,763 L 1337,762 L 1336,761 L 1336,760 L 1336,759 L 1337,759 L 1338,759 L 1339,760 L 1339,761 L 1339,762 L 1340,762 L 1341,761 L 1342,760 L 1342,761 L 1343,762 L 1344,762 L 1345,762 L 1346,762 L 1347,762 L 1347,763 L 1348,762 L 1348,761 L 1349,761 L 1349,762 L 1349,763 L 1350,764 L 1350,763 L 1351,763 L 1351,762 L 1351,761 L 1351,760 L 1350,759 L 1351,759 L 1352,759 L 1353,760 L 1353,761 L 1353,762 L 1354,763 L 1355,763 L 1355,762 L 1356,762 L 1356,761 L 1357,761 L 1358,761 L 1359,761 L 1359,762 L 1360,761 L 1360,760 L 1359,759 L 1359,758 L 1360,758 L 1361,758 L 1362,758 L 1363,758 L 1364,759 L 1364,760 L 1365,761 L 1366,762 L 1366,763 L 1367,763 L 1367,762 L 1368,762 L 1368,761 L 1368,760 L 1368,759 L 1369,759 L 1370,759 L 1371,759 L 1372,759 L 1372,760 L 1373,760 L 1374,761 L 1375,761 L 1375,760 L 1376,760 L 1377,758 L 1378,758 L 1378,757 L 1379,756 L 1379,755 L 1380,755 L 1381,754 L 1382,754 L 1383,755 L 1384,755 L 1385,757 L 1387,759 L 1389,759 L 1392,759 L 1391,760 L 1390,762 L 1389,762 L 1389,763 L 1389,764 L 1389,765 L 1389,766 L 1389,767 L 1389,768 L 1389,769 L 1389,770 L 1388,771 L 1388,772 L 1387,773 L 1387,775 L 1387,776 L 1387,781 L 1387,783 L 1387,784 L 1387,785 L 1387,787 L 1387,789 L 1387,790 L 1387,792 L 1386,794 L 1385,796 L 1384,800 L 1383,800 L 1383,801 L 1382,801 L 1382,802 L 1381,802 L 1381,803 L 1380,803 L 1380,804 L 1380,805 L 1380,806 L 1380,807 L 1380,809 L 1380,810 L 1379,812 L 1379,813 L 1379,814 L 1380,814 L 1380,815 L 1381,815 L 1382,816 L 1382,817 L 1381,817 L 1381,818 L 1382,818 L 1383,818 L 1383,819 L 1384,819 L 1384,820 L 1384,821 L 1385,822 L 1386,822 L 1386,823 L 1386,824 L 1386,825 L 1385,825 L 1386,825 L 1386,826 L 1385,826 L 1386,827 L 1386,828 L 1386,829 L 1385,830 L 1385,831 L 1385,832 L 1384,833 L 1385,833 L 1385,834 L 1385,835 L 1386,838 L 1385,841 L 1386,841 L 1386,843 L 1387,844 L 1387,846 L 1386,847 L 1384,849 L 1383,850 L 1383,852 L 1382,853 L 1380,854 L 1378,855 L 1377,856 L 1376,857 L 1376,858 L 1375,858 L 1375,859 L 1375,861 L 1379,867 L 1379,870 L 1381,875 L 1383,878 L 1384,883 L 1388,885 L 1390,887 L 1394,891 L 1395,893 L 1397,896 L 1400,899 L 1401,902 L 1403,904 L 1405,908 L 1407,910 L 1408,910 L 1408,911 L 1408,912 L 1407,912 L 1407,913 L 1406,913 L 1406,912 L 1405,913 L 1401,914 L 1398,914 L 1397,914 L 1396,914 L 1395,914 L 1394,914 L 1393,913 L 1392,913 L 1390,913 L 1390,914 L 1391,917 L 1392,920 L 1393,920 L 1393,923 L 1395,924 L 1396,925 L 1396,927 L 1396,929 L 1397,931 L 1397,935 L 1398,938 L 1399,941 L 1399,944 L 1400,948 L 1400,950 L 1400,954 L 1400,956 L 1400,959 L 1400,962 L 1402,964 L 1403,967 L 1402,970 L 1402,974 L 1401,976 L 1401,980 L 1402,984 L 1404,992 L 1405,994 L 1405,997 L 1406,1000 L 1407,1001 L 1406,1004 L 1407,1006 L 1407,1012 L 1408,1015 L 1409,1018 L 1409,1020 L 1410,1022 L 1410,1023 L 1410,1024 L 1410,1025 L 1410,1026 L 1410,1027 L 1411,1028 L 1410,1028 L 1410,1029 L 1410,1030 L 1409,1031 L 1409,1032 L 1410,1039 L 1410,1044 L 1410,1054 L 1411,1057 L 1411,1064 L 1412,1068 L 1412,1071 L 1411,1074 L 1411,1075 L 1410,1075 L 1409,1075 L 1408,1075 L 1407,1075 L 1406,1075 L 1405,1075 L 1404,1075 L 1403,1075 L 1402,1075 L 1401,1075 L 1401,1076 L 1400,1076 L 1399,1076 L 1399,1075 L 1398,1075 L 1397,1075 L 1396,1075 L 1396,1076 L 1395,1076 L 1394,1077 L 1394,1076 L 1394,1077 L 1394,1076 L 1393,1076 L 1393,1077 L 1392,1077 L 1391,1077 L 1391,1076 L 1390,1076 L 1389,1076 L 1388,1076 L 1387,1076 L 1386,1076 L 1385,1076 L 1385,1077 L 1384,1077 L 1384,1078 L 1382,1076 L 1381,1076 L 1380,1076 L 1379,1076 L 1379,1075 L 1378,1075 L 1378,1074 L 1377,1074 L 1376,1074 L 1375,1074 L 1376,1074 L 1375,1074 L 1374,1074 L 1373,1074 L 1373,1075 L 1372,1075 L 1371,1076 L 1370,1075 L 1370,1076 L 1369,1075 L 1368,1075 L 1367,1076 L 1366,1076 L 1366,1077 L 1365,1077 L 1365,1078 L 1364,1079 L 1363,1079 L 1363,1078 L 1362,1078 L 1362,1077 L 1361,1077 L 1361,1078 L 1360,1078 L 1360,1079 L 1359,1079 L 1358,1080 L 1357,1081 L 1355,1081 L 1353,1081 L 1352,1080 L 1351,1080 L 1350,1080 L 1349,1080 L 1348,1081 L 1347,1081 L 1347,1082 L 1346,1083 L 1342,1085 L 1341,1083 L 1341,1081 L 1341,1080 L 1341,1078 L 1340,1075 L 1340,1072 L 1340,1067 L 1339,1066 L 1340,1064 L 1339,1061 L 1339,1060 L 1339,1058 L 1339,1053 L 1339,1051 L 1339,1046 L 1339,1041 L 1339,1040 L 1339,1037 L 1337,1035 L 1335,1031 L 1335,1029 L 1334,1026 L 1333,1022 L 1332,1020 L 1330,1020 L 1329,1019 L 1329,1018 L 1328,1018 L 1327,1018 L 1327,1017 L 1326,1017 L 1326,1016 L 1325,1016 L 1324,1015 L 1324,1016 L 1323,1016 L 1322,1015 L 1321,1015 L 1320,1015 L 1320,1016 L 1319,1016 L 1318,1016 L 1318,1015 L 1317,1015 L 1316,1016 L 1316,1015 L 1315,1015 L 1314,1014 L 1315,1014 L 1315,1013 L 1316,1012 L 1317,1012 L 1319,1011 L 1320,1010 L 1321,1010 L 1322,1010 L 1322,1009 L 1323,1008 L 1323,1007 L 1323,1006 L 1320,1000 L 1319,998 L 1318,990 L 1318,988 L 1317,985 L 1316,977 L 1316,975 L 1316,973 L 1315,972 L 1315,969 L 1315,966 L 1315,964 L 1315,961 L 1313,951 L 1314,948 L 1314,943 L 1314,942 L 1315,935 L 1314,933 L 1314,930 L 1312,927 L 1310,926 L 1307,926 L 1303,923 L 1298,920 L 1295,920 L 1292,919 L 1290,919 L 1290,918 L 1289,917 L 1289,916 L 1288,916 L 1288,915 L 1287,915 L 1286,915 L 1286,916 L 1285,917 L 1285,918 L 1286,918 L 1286,919 L 1286,920 L 1285,920 L 1285,921 L 1284,921 L 1284,920 L 1284,919 L 1283,919 L 1282,919 L 1282,920 L 1281,920 L 1280,920 L 1280,919 L 1279,919 L 1278,919 L 1278,918 L 1279,918 L 1278,918 L 1277,918 L 1277,917 L 1277,918 L 1276,918 L 1276,917 L 1275,917 L 1274,917 L 1274,916 L 1274,915 L 1275,915 L 1275,914 L 1276,913 L 1276,912 L 1277,912 L 1278,911 L 1277,911 L 1277,910 L 1276,910 L 1276,909 L 1275,909 L 1275,908 L 1275,907 L 1274,907 L 1273,907 L 1273,906 L 1273,905 L 1273,904 L 1273,903 L 1272,903 L 1272,902 L 1273,902 L 1273,901 L 1274,901 L 1274,900 L 1274,899 L 1273,899 L 1274,899 L 1274,898 L 1275,898 " /></g>
</svg>
