<?xml version="1.0" standalone="no"?><!DOCTYPE svg PUBLIC "-//W3C//DTD SVG 1.1//EN" "http://www.w3.org/Graphics/SVG/1.1/DTD/svg11.dtd"><svg xmlns="http://www.w3.org/2000/svg" viewBox="1372 1173 249 102" version = "1.1">
<g id="70707" ><path d="M 1398,1174 L 1399,1174 L 1399,1173 L 1402,1174 L 1403,1175 L 1404,1175 L 1407,1175 L 1408,1175 L 1409,1175 L 1410,1175 L 1411,1176 L 1412,1176 L 1413,1176 L 1414,1176 L 1415,1177 L 1416,1176 L 1416,1177 L 1416,1178 L 1417,1178 L 1418,1178 L 1419,1178 L 1419,1179 L 1420,1179 L 1420,1180 L 1421,1180 L 1421,1179 L 1422,1179 L 1423,1179 L 1423,1178 L 1423,1179 L 1424,1179 L 1425,1179 L 1426,1179 L 1427,1179 L 1429,1179 L 1431,1180 L 1432,1179 L 1433,1179 L 1434,1179 L 1435,1179 L 1437,1179 L 1439,1179 L 1442,1179 L 1444,1179 L 1445,1180 L 1447,1180 L 1450,1181 L 1451,1183 L 1450,1186 L 1451,1191 L 1452,1195 L 1453,1198 L 1453,1204 L 1454,1210 L 1458,1211 L 1460,1212 L 1470,1213 L 1481,1212 L 1621,1212 L 1620,1269 L 1510,1270 L 1502,1270 L 1433,1275 L 1432,1275 L 1420,1275 L 1414,1275 L 1407,1275 L 1397,1275 L 1397,1274 L 1397,1273 L 1396,1273 L 1397,1272 L 1396,1271 L 1397,1270 L 1396,1269 L 1396,1268 L 1396,1267 L 1396,1266 L 1397,1266 L 1397,1265 L 1398,1264 L 1398,1263 L 1399,1262 L 1399,1261 L 1397,1259 L 1398,1257 L 1397,1256 L 1397,1255 L 1397,1254 L 1397,1253 L 1397,1252 L 1396,1252 L 1396,1253 L 1395,1253 L 1394,1253 L 1393,1253 L 1392,1253 L 1391,1253 L 1391,1254 L 1390,1254 L 1390,1253 L 1390,1254 L 1389,1254 L 1388,1254 L 1387,1254 L 1386,1255 L 1383,1254 L 1383,1253 L 1383,1252 L 1383,1251 L 1383,1250 L 1383,1249 L 1383,1248 L 1384,1248 L 1385,1247 L 1386,1245 L 1387,1244 L 1388,1244 L 1389,1244 L 1390,1244 L 1390,1245 L 1391,1245 L 1392,1244 L 1393,1244 L 1394,1244 L 1395,1244 L 1395,1243 L 1396,1243 L 1396,1242 L 1396,1241 L 1397,1240 L 1397,1239 L 1399,1236 L 1399,1235 L 1399,1234 L 1400,1234 L 1400,1233 L 1401,1232 L 1401,1231 L 1401,1230 L 1402,1230 L 1402,1229 L 1402,1228 L 1403,1228 L 1403,1227 L 1402,1227 L 1401,1226 L 1400,1225 L 1399,1223 L 1397,1219 L 1391,1216 L 1390,1215 L 1389,1215 L 1388,1214 L 1388,1213 L 1387,1212 L 1387,1211 L 1386,1211 L 1385,1210 L 1384,1209 L 1383,1209 L 1383,1208 L 1383,1207 L 1382,1206 L 1383,1205 L 1384,1205 L 1383,1204 L 1384,1203 L 1384,1202 L 1384,1201 L 1384,1200 L 1385,1199 L 1385,1198 L 1385,1197 L 1384,1197 L 1384,1196 L 1384,1195 L 1383,1194 L 1383,1193 L 1382,1192 L 1382,1191 L 1382,1190 L 1382,1189 L 1378,1186 L 1377,1185 L 1376,1184 L 1375,1184 L 1374,1183 L 1372,1182 L 1373,1182 L 1374,1181 L 1375,1181 L 1375,1180 L 1376,1180 L 1377,1180 L 1378,1179 L 1379,1179 L 1380,1179 L 1381,1178 L 1382,1177 L 1383,1176 L 1383,1175 L 1384,1175 L 1384,1176 L 1385,1176 L 1386,1176 L 1386,1175 L 1387,1175 L 1388,1175 L 1388,1174 L 1389,1174 L 1389,1173 L 1390,1173 L 1391,1173 L 1394,1173 L 1398,1174 " /></g>
</svg>
