<?xml version="1.0" standalone="no"?><!DOCTYPE svg PUBLIC "-//W3C//DTD SVG 1.1//EN" "http://www.w3.org/Graphics/SVG/1.1/DTD/svg11.dtd"><svg xmlns="http://www.w3.org/2000/svg" viewBox="1098 505 69 92" version = "1.1">
<g id="70802" ><path d="M 1152,508 L 1152,509 L 1153,509 L 1153,510 L 1153,511 L 1153,512 L 1154,512 L 1154,513 L 1155,513 L 1155,514 L 1156,515 L 1156,516 L 1156,517 L 1156,518 L 1156,519 L 1156,520 L 1157,521 L 1157,522 L 1158,522 L 1159,522 L 1159,523 L 1160,523 L 1160,524 L 1160,525 L 1161,525 L 1162,526 L 1161,527 L 1162,528 L 1161,529 L 1161,530 L 1162,530 L 1162,531 L 1162,532 L 1162,533 L 1163,534 L 1164,534 L 1164,535 L 1164,536 L 1164,537 L 1164,538 L 1164,539 L 1164,540 L 1164,541 L 1164,542 L 1163,542 L 1163,543 L 1163,544 L 1163,545 L 1163,546 L 1163,547 L 1163,548 L 1162,548 L 1162,549 L 1163,549 L 1162,549 L 1162,550 L 1163,550 L 1162,550 L 1162,551 L 1163,551 L 1162,551 L 1163,552 L 1163,553 L 1163,554 L 1163,555 L 1164,555 L 1164,556 L 1164,557 L 1163,557 L 1163,558 L 1163,559 L 1164,559 L 1164,560 L 1164,561 L 1164,562 L 1165,562 L 1165,563 L 1164,563 L 1164,564 L 1165,564 L 1165,565 L 1166,565 L 1165,566 L 1165,567 L 1166,567 L 1167,567 L 1166,567 L 1166,568 L 1165,568 L 1165,569 L 1166,569 L 1167,569 L 1167,570 L 1166,570 L 1166,571 L 1167,571 L 1167,572 L 1166,572 L 1166,573 L 1166,574 L 1166,573 L 1166,574 L 1167,574 L 1166,574 L 1166,575 L 1165,575 L 1164,575 L 1164,576 L 1165,576 L 1164,576 L 1164,577 L 1163,577 L 1162,578 L 1162,579 L 1161,580 L 1160,580 L 1160,581 L 1161,581 L 1160,581 L 1160,582 L 1159,582 L 1159,583 L 1160,583 L 1159,583 L 1159,584 L 1160,584 L 1160,585 L 1159,585 L 1159,586 L 1160,586 L 1160,587 L 1160,588 L 1160,589 L 1161,590 L 1160,590 L 1160,591 L 1160,592 L 1159,593 L 1158,594 L 1157,595 L 1156,595 L 1155,595 L 1155,596 L 1154,596 L 1153,596 L 1153,597 L 1152,597 L 1150,597 L 1150,596 L 1150,595 L 1149,595 L 1149,594 L 1148,594 L 1147,594 L 1147,593 L 1146,593 L 1146,592 L 1145,592 L 1144,592 L 1144,591 L 1143,591 L 1143,590 L 1142,590 L 1141,589 L 1141,588 L 1140,587 L 1140,586 L 1140,585 L 1140,584 L 1139,584 L 1140,584 L 1140,583 L 1139,583 L 1140,583 L 1140,582 L 1140,581 L 1139,581 L 1139,580 L 1138,580 L 1138,579 L 1138,578 L 1138,577 L 1138,576 L 1137,576 L 1138,576 L 1137,576 L 1137,575 L 1136,575 L 1136,574 L 1135,574 L 1135,573 L 1135,574 L 1134,574 L 1134,573 L 1134,574 L 1134,573 L 1133,573 L 1132,573 L 1131,573 L 1130,573 L 1130,572 L 1129,572 L 1128,572 L 1127,572 L 1126,572 L 1126,573 L 1126,574 L 1127,574 L 1126,574 L 1126,575 L 1125,575 L 1125,576 L 1125,577 L 1124,577 L 1124,576 L 1123,576 L 1122,576 L 1122,575 L 1121,574 L 1120,574 L 1119,573 L 1118,573 L 1118,572 L 1118,571 L 1119,571 L 1119,570 L 1120,570 L 1121,570 L 1122,570 L 1122,569 L 1123,569 L 1124,569 L 1124,568 L 1124,567 L 1124,566 L 1125,565 L 1126,565 L 1126,564 L 1125,564 L 1125,563 L 1126,563 L 1125,562 L 1125,561 L 1125,560 L 1125,559 L 1124,559 L 1123,559 L 1122,559 L 1121,559 L 1121,560 L 1120,560 L 1120,561 L 1119,561 L 1118,561 L 1118,562 L 1117,562 L 1116,562 L 1115,562 L 1115,561 L 1114,561 L 1114,560 L 1112,556 L 1108,549 L 1105,548 L 1105,547 L 1103,545 L 1101,542 L 1099,537 L 1098,531 L 1098,528 L 1099,528 L 1105,524 L 1105,523 L 1105,522 L 1105,521 L 1105,520 L 1106,520 L 1105,520 L 1106,520 L 1106,519 L 1106,518 L 1107,518 L 1107,517 L 1107,516 L 1106,516 L 1106,515 L 1107,515 L 1107,514 L 1111,514 L 1112,514 L 1113,514 L 1114,514 L 1115,514 L 1116,514 L 1117,514 L 1117,513 L 1118,513 L 1119,513 L 1123,511 L 1123,510 L 1124,510 L 1125,510 L 1125,509 L 1126,509 L 1127,509 L 1128,509 L 1128,508 L 1129,508 L 1130,508 L 1131,508 L 1132,508 L 1132,507 L 1133,507 L 1134,507 L 1134,508 L 1135,508 L 1136,508 L 1137,508 L 1137,509 L 1138,509 L 1139,509 L 1139,508 L 1140,508 L 1141,508 L 1142,508 L 1143,508 L 1144,508 L 1145,508 L 1146,508 L 1147,508 L 1147,509 L 1148,509 L 1148,508 L 1148,507 L 1149,507 L 1149,506 L 1149,505 L 1150,505 L 1151,505 L 1151,506 L 1151,507 L 1151,508 L 1152,508 " /></g>
</svg>
