<?xml version="1.0" standalone="no"?><!DOCTYPE svg PUBLIC "-//W3C//DTD SVG 1.1//EN" "http://www.w3.org/Graphics/SVG/1.1/DTD/svg11.dtd"><svg xmlns="http://www.w3.org/2000/svg" viewBox="1071 654 90 122" version = "1.1">
<g id="70805" ><path d="M 1137,667 L 1138,667 L 1139,668 L 1140,668 L 1140,669 L 1141,669 L 1141,670 L 1142,670 L 1143,670 L 1144,670 L 1145,670 L 1145,669 L 1146,669 L 1147,669 L 1148,669 L 1149,669 L 1150,669 L 1151,669 L 1151,670 L 1152,670 L 1153,670 L 1154,670 L 1155,670 L 1154,670 L 1154,671 L 1153,672 L 1154,672 L 1154,673 L 1154,674 L 1155,674 L 1155,675 L 1155,676 L 1156,675 L 1156,676 L 1157,676 L 1157,677 L 1158,677 L 1159,677 L 1159,678 L 1159,679 L 1160,679 L 1160,680 L 1161,680 L 1160,680 L 1160,681 L 1161,681 L 1161,682 L 1161,683 L 1161,684 L 1161,685 L 1161,686 L 1161,687 L 1161,688 L 1160,688 L 1160,689 L 1159,689 L 1159,690 L 1159,691 L 1159,692 L 1158,692 L 1158,693 L 1159,693 L 1159,694 L 1159,695 L 1158,695 L 1157,695 L 1157,696 L 1158,696 L 1159,696 L 1159,697 L 1160,697 L 1159,697 L 1159,698 L 1159,699 L 1160,700 L 1160,701 L 1160,702 L 1160,703 L 1160,704 L 1160,705 L 1160,706 L 1161,707 L 1161,708 L 1160,708 L 1160,709 L 1160,710 L 1161,710 L 1160,710 L 1159,710 L 1158,710 L 1157,710 L 1157,711 L 1156,711 L 1155,711 L 1154,711 L 1153,711 L 1153,712 L 1152,712 L 1151,712 L 1150,712 L 1150,713 L 1149,713 L 1148,713 L 1147,714 L 1147,715 L 1147,716 L 1146,716 L 1146,717 L 1145,717 L 1145,716 L 1144,716 L 1144,717 L 1143,717 L 1143,716 L 1142,716 L 1141,716 L 1142,716 L 1141,717 L 1142,717 L 1142,718 L 1142,719 L 1142,720 L 1141,721 L 1141,722 L 1141,723 L 1141,724 L 1140,724 L 1140,725 L 1139,725 L 1139,726 L 1138,726 L 1138,727 L 1137,727 L 1137,728 L 1136,728 L 1136,729 L 1136,730 L 1135,730 L 1135,731 L 1135,732 L 1135,733 L 1135,734 L 1135,735 L 1136,735 L 1135,735 L 1136,736 L 1137,736 L 1137,737 L 1138,737 L 1138,738 L 1139,738 L 1139,739 L 1139,740 L 1139,741 L 1140,741 L 1139,741 L 1139,742 L 1139,743 L 1140,743 L 1140,744 L 1140,745 L 1141,745 L 1142,746 L 1141,746 L 1141,747 L 1141,748 L 1142,748 L 1142,749 L 1142,750 L 1143,750 L 1143,751 L 1143,752 L 1144,752 L 1144,753 L 1143,753 L 1144,753 L 1145,754 L 1145,755 L 1145,756 L 1146,756 L 1146,757 L 1145,757 L 1145,758 L 1145,759 L 1146,759 L 1147,759 L 1147,760 L 1146,760 L 1146,761 L 1145,761 L 1145,762 L 1145,763 L 1145,764 L 1146,764 L 1145,764 L 1145,765 L 1146,765 L 1145,765 L 1145,766 L 1145,767 L 1145,766 L 1146,766 L 1146,767 L 1146,768 L 1146,769 L 1146,770 L 1146,771 L 1145,771 L 1144,771 L 1145,771 L 1144,771 L 1144,772 L 1144,773 L 1145,773 L 1144,773 L 1144,774 L 1145,774 L 1145,775 L 1144,775 L 1143,775 L 1142,776 L 1141,776 L 1141,775 L 1140,775 L 1140,774 L 1139,773 L 1138,773 L 1137,773 L 1135,774 L 1134,774 L 1133,774 L 1132,774 L 1131,774 L 1130,775 L 1129,774 L 1128,774 L 1127,774 L 1127,775 L 1126,775 L 1126,774 L 1125,774 L 1124,774 L 1123,773 L 1123,772 L 1122,771 L 1121,771 L 1120,771 L 1120,772 L 1119,772 L 1119,771 L 1118,770 L 1118,769 L 1117,769 L 1116,768 L 1115,767 L 1116,767 L 1116,766 L 1116,765 L 1116,764 L 1115,764 L 1114,764 L 1114,765 L 1114,764 L 1114,763 L 1114,762 L 1115,762 L 1115,761 L 1115,760 L 1115,759 L 1114,758 L 1114,757 L 1113,757 L 1114,756 L 1114,755 L 1114,754 L 1114,753 L 1113,753 L 1112,751 L 1111,751 L 1111,750 L 1110,750 L 1110,749 L 1110,748 L 1110,747 L 1110,746 L 1110,745 L 1109,745 L 1108,744 L 1107,744 L 1106,744 L 1106,743 L 1106,742 L 1106,741 L 1105,741 L 1104,740 L 1104,739 L 1104,738 L 1103,738 L 1103,737 L 1102,737 L 1102,738 L 1101,738 L 1101,737 L 1100,737 L 1100,736 L 1100,735 L 1099,735 L 1099,734 L 1098,734 L 1098,733 L 1097,733 L 1096,732 L 1095,731 L 1095,730 L 1094,730 L 1093,730 L 1092,730 L 1091,731 L 1090,730 L 1089,730 L 1088,730 L 1087,729 L 1087,728 L 1086,728 L 1086,727 L 1085,726 L 1084,726 L 1084,725 L 1084,724 L 1085,723 L 1086,723 L 1086,722 L 1086,721 L 1086,718 L 1085,716 L 1085,714 L 1085,713 L 1083,711 L 1083,709 L 1081,706 L 1079,706 L 1078,705 L 1077,705 L 1076,705 L 1075,704 L 1075,703 L 1075,702 L 1077,702 L 1077,701 L 1077,700 L 1076,699 L 1076,698 L 1075,697 L 1074,696 L 1074,693 L 1075,692 L 1075,691 L 1076,689 L 1077,688 L 1077,685 L 1078,683 L 1077,681 L 1077,680 L 1077,678 L 1076,677 L 1076,676 L 1077,676 L 1077,675 L 1077,674 L 1076,673 L 1075,673 L 1074,674 L 1073,674 L 1072,674 L 1072,673 L 1071,673 L 1071,672 L 1072,672 L 1072,671 L 1072,670 L 1073,670 L 1073,669 L 1074,669 L 1074,668 L 1074,667 L 1074,666 L 1075,665 L 1075,666 L 1076,666 L 1077,666 L 1077,665 L 1076,664 L 1076,663 L 1076,662 L 1075,662 L 1075,661 L 1075,660 L 1076,659 L 1077,659 L 1078,658 L 1079,659 L 1079,658 L 1079,657 L 1079,656 L 1080,656 L 1081,656 L 1081,655 L 1082,655 L 1082,654 L 1083,655 L 1083,656 L 1084,656 L 1084,655 L 1084,654 L 1085,654 L 1086,654 L 1087,654 L 1088,654 L 1088,655 L 1089,655 L 1089,656 L 1090,656 L 1091,656 L 1091,655 L 1092,655 L 1093,655 L 1094,655 L 1095,655 L 1095,656 L 1096,657 L 1097,657 L 1098,657 L 1099,657 L 1100,657 L 1101,657 L 1102,657 L 1103,657 L 1103,656 L 1103,657 L 1104,657 L 1105,657 L 1106,657 L 1106,656 L 1107,656 L 1108,656 L 1109,656 L 1110,656 L 1111,655 L 1112,655 L 1113,654 L 1114,654 L 1113,654 L 1113,655 L 1114,655 L 1114,656 L 1114,657 L 1115,657 L 1115,658 L 1116,659 L 1116,660 L 1117,660 L 1117,661 L 1118,661 L 1118,662 L 1119,662 L 1119,661 L 1119,662 L 1120,662 L 1121,662 L 1121,661 L 1122,661 L 1123,661 L 1124,661 L 1125,661 L 1126,661 L 1127,661 L 1127,662 L 1128,662 L 1129,662 L 1129,663 L 1129,662 L 1130,662 L 1130,663 L 1131,663 L 1131,664 L 1132,664 L 1132,665 L 1133,665 L 1133,666 L 1134,666 L 1135,666 L 1136,666 L 1136,667 L 1137,667 " /></g>
</svg>
