<?xml version="1.0" standalone="no"?><!DOCTYPE svg PUBLIC "-//W3C//DTD SVG 1.1//EN" "http://www.w3.org/Graphics/SVG/1.1/DTD/svg11.dtd"><svg xmlns="http://www.w3.org/2000/svg" viewBox="1081 547 258 300" version = "1.1">
<g id="70801" ><path d="M 1116,562 L 1117,562 L 1118,562 L 1118,561 L 1119,561 L 1120,561 L 1120,560 L 1121,560 L 1121,559 L 1122,559 L 1123,559 L 1124,559 L 1125,559 L 1125,560 L 1125,561 L 1125,562 L 1126,563 L 1125,563 L 1125,564 L 1126,564 L 1126,565 L 1125,565 L 1124,566 L 1124,567 L 1124,568 L 1124,569 L 1123,569 L 1122,569 L 1122,570 L 1121,570 L 1120,570 L 1119,570 L 1119,571 L 1118,571 L 1118,572 L 1118,573 L 1119,573 L 1120,574 L 1121,574 L 1122,575 L 1122,576 L 1123,576 L 1124,576 L 1124,577 L 1125,577 L 1125,576 L 1125,575 L 1126,575 L 1126,574 L 1127,574 L 1126,574 L 1126,573 L 1126,572 L 1127,572 L 1128,572 L 1129,572 L 1130,572 L 1130,573 L 1131,573 L 1132,573 L 1133,573 L 1134,573 L 1134,574 L 1134,573 L 1134,574 L 1135,574 L 1135,573 L 1135,574 L 1136,574 L 1136,575 L 1137,575 L 1137,576 L 1138,576 L 1137,576 L 1138,576 L 1138,577 L 1138,578 L 1138,579 L 1138,580 L 1139,580 L 1139,581 L 1140,581 L 1140,582 L 1140,583 L 1139,583 L 1140,583 L 1140,584 L 1139,584 L 1140,584 L 1140,585 L 1140,586 L 1140,587 L 1141,588 L 1141,589 L 1142,590 L 1143,590 L 1143,591 L 1144,591 L 1144,592 L 1145,592 L 1146,592 L 1146,593 L 1147,593 L 1147,594 L 1148,594 L 1149,594 L 1149,595 L 1150,595 L 1150,596 L 1150,597 L 1152,597 L 1153,597 L 1153,596 L 1154,596 L 1155,596 L 1155,595 L 1156,595 L 1157,595 L 1158,594 L 1159,593 L 1160,592 L 1160,591 L 1160,590 L 1161,590 L 1160,589 L 1160,588 L 1160,587 L 1160,586 L 1159,586 L 1159,585 L 1160,585 L 1160,584 L 1159,584 L 1159,583 L 1160,583 L 1159,583 L 1159,582 L 1160,582 L 1160,581 L 1161,581 L 1160,581 L 1160,580 L 1161,580 L 1162,579 L 1162,578 L 1163,577 L 1164,577 L 1164,576 L 1165,576 L 1164,576 L 1164,575 L 1165,575 L 1166,575 L 1166,574 L 1167,574 L 1166,574 L 1166,573 L 1167,573 L 1167,574 L 1167,573 L 1167,574 L 1168,574 L 1168,575 L 1168,576 L 1168,577 L 1169,577 L 1169,576 L 1169,577 L 1170,577 L 1170,578 L 1170,579 L 1170,580 L 1171,580 L 1171,581 L 1170,581 L 1170,582 L 1171,582 L 1171,583 L 1171,584 L 1172,584 L 1172,585 L 1173,585 L 1173,586 L 1174,586 L 1174,587 L 1175,587 L 1175,588 L 1176,588 L 1177,588 L 1178,589 L 1179,589 L 1180,589 L 1180,590 L 1181,589 L 1181,590 L 1182,590 L 1183,590 L 1183,591 L 1183,592 L 1184,592 L 1184,593 L 1184,594 L 1185,594 L 1185,595 L 1184,595 L 1184,596 L 1185,596 L 1186,596 L 1187,596 L 1187,597 L 1188,597 L 1188,596 L 1188,597 L 1188,596 L 1189,596 L 1190,596 L 1191,596 L 1192,596 L 1192,597 L 1193,597 L 1194,598 L 1195,598 L 1196,598 L 1197,598 L 1199,597 L 1200,598 L 1201,598 L 1201,599 L 1201,600 L 1201,601 L 1201,603 L 1201,609 L 1201,614 L 1202,617 L 1205,620 L 1208,624 L 1207,629 L 1211,636 L 1211,642 L 1212,645 L 1211,649 L 1211,653 L 1213,654 L 1213,656 L 1213,659 L 1213,664 L 1210,669 L 1212,673 L 1211,677 L 1211,681 L 1212,682 L 1212,683 L 1213,683 L 1213,684 L 1214,684 L 1214,685 L 1215,685 L 1215,686 L 1216,686 L 1217,686 L 1217,687 L 1217,686 L 1218,687 L 1218,688 L 1219,688 L 1220,688 L 1221,688 L 1221,689 L 1222,689 L 1223,689 L 1223,690 L 1224,690 L 1224,691 L 1224,692 L 1224,693 L 1223,693 L 1222,693 L 1222,694 L 1222,695 L 1222,696 L 1222,697 L 1223,697 L 1224,697 L 1224,698 L 1225,699 L 1225,700 L 1226,700 L 1227,700 L 1227,701 L 1228,701 L 1228,702 L 1229,702 L 1229,703 L 1230,703 L 1230,704 L 1231,704 L 1232,704 L 1232,705 L 1233,705 L 1234,705 L 1235,705 L 1235,706 L 1236,706 L 1236,707 L 1237,707 L 1238,707 L 1238,708 L 1239,707 L 1240,707 L 1241,707 L 1241,708 L 1242,708 L 1242,709 L 1243,709 L 1243,710 L 1244,710 L 1244,711 L 1245,711 L 1246,711 L 1246,712 L 1247,711 L 1247,712 L 1248,712 L 1247,712 L 1248,712 L 1248,713 L 1249,713 L 1249,714 L 1249,715 L 1250,715 L 1252,715 L 1256,717 L 1263,719 L 1270,717 L 1273,715 L 1277,712 L 1282,712 L 1283,712 L 1284,713 L 1285,714 L 1286,714 L 1287,714 L 1288,715 L 1289,715 L 1289,716 L 1290,717 L 1291,718 L 1291,719 L 1292,719 L 1293,719 L 1294,719 L 1295,720 L 1295,721 L 1296,721 L 1296,722 L 1297,722 L 1297,723 L 1298,723 L 1299,723 L 1300,723 L 1301,723 L 1302,723 L 1302,722 L 1303,722 L 1304,722 L 1305,722 L 1306,722 L 1306,721 L 1307,721 L 1308,721 L 1308,722 L 1309,722 L 1309,723 L 1309,724 L 1309,725 L 1310,725 L 1310,726 L 1310,727 L 1311,728 L 1312,728 L 1312,729 L 1313,729 L 1314,729 L 1315,729 L 1316,729 L 1317,729 L 1318,729 L 1318,728 L 1319,729 L 1320,729 L 1320,730 L 1320,731 L 1320,730 L 1321,730 L 1321,731 L 1322,731 L 1322,732 L 1323,732 L 1324,733 L 1325,733 L 1326,733 L 1327,733 L 1328,733 L 1328,734 L 1328,735 L 1328,736 L 1329,736 L 1330,737 L 1330,738 L 1330,739 L 1330,740 L 1330,741 L 1330,742 L 1331,742 L 1331,741 L 1331,740 L 1332,740 L 1332,741 L 1333,741 L 1334,742 L 1335,742 L 1336,742 L 1336,741 L 1337,741 L 1337,742 L 1337,743 L 1337,744 L 1338,744 L 1339,745 L 1338,746 L 1338,747 L 1338,749 L 1338,750 L 1338,751 L 1337,752 L 1337,753 L 1337,754 L 1337,755 L 1336,756 L 1336,757 L 1337,758 L 1337,759 L 1336,759 L 1336,760 L 1336,761 L 1337,762 L 1337,763 L 1337,764 L 1336,765 L 1335,765 L 1335,766 L 1334,766 L 1334,767 L 1334,768 L 1334,769 L 1334,770 L 1335,771 L 1335,772 L 1335,773 L 1335,774 L 1335,775 L 1334,775 L 1334,776 L 1333,776 L 1332,776 L 1332,775 L 1331,775 L 1331,774 L 1330,774 L 1330,775 L 1329,775 L 1329,776 L 1328,777 L 1328,778 L 1329,778 L 1330,778 L 1331,779 L 1332,779 L 1333,781 L 1333,782 L 1334,783 L 1334,784 L 1334,785 L 1333,785 L 1332,785 L 1332,786 L 1333,787 L 1334,788 L 1334,789 L 1335,789 L 1335,790 L 1335,791 L 1334,791 L 1333,791 L 1332,791 L 1331,791 L 1331,792 L 1330,792 L 1330,793 L 1331,794 L 1332,794 L 1332,795 L 1333,795 L 1333,796 L 1334,797 L 1334,798 L 1334,799 L 1334,800 L 1333,800 L 1333,801 L 1332,801 L 1331,802 L 1330,803 L 1330,804 L 1330,805 L 1329,806 L 1329,807 L 1328,807 L 1328,808 L 1327,808 L 1328,809 L 1329,809 L 1330,810 L 1330,811 L 1330,812 L 1330,813 L 1330,814 L 1330,815 L 1330,816 L 1329,816 L 1329,815 L 1328,815 L 1327,814 L 1326,814 L 1325,814 L 1324,814 L 1323,814 L 1323,815 L 1322,815 L 1322,816 L 1322,817 L 1321,818 L 1320,818 L 1319,818 L 1318,818 L 1317,818 L 1316,818 L 1316,817 L 1315,817 L 1314,817 L 1314,816 L 1313,816 L 1312,816 L 1311,817 L 1310,817 L 1309,817 L 1309,816 L 1308,816 L 1308,817 L 1307,817 L 1307,818 L 1307,819 L 1306,819 L 1306,818 L 1306,817 L 1306,816 L 1305,816 L 1304,816 L 1304,815 L 1303,815 L 1302,815 L 1301,814 L 1300,814 L 1300,815 L 1300,816 L 1299,816 L 1298,816 L 1298,815 L 1299,814 L 1299,813 L 1298,813 L 1297,813 L 1296,814 L 1295,814 L 1295,815 L 1294,815 L 1293,815 L 1293,814 L 1292,814 L 1292,813 L 1293,813 L 1293,812 L 1292,811 L 1291,811 L 1290,811 L 1289,811 L 1288,810 L 1288,809 L 1287,808 L 1287,807 L 1288,807 L 1289,807 L 1289,806 L 1290,806 L 1291,806 L 1291,805 L 1292,805 L 1292,804 L 1291,804 L 1290,804 L 1289,804 L 1289,803 L 1288,803 L 1287,803 L 1286,803 L 1285,804 L 1284,804 L 1283,804 L 1283,803 L 1282,803 L 1283,802 L 1283,801 L 1284,800 L 1284,799 L 1283,798 L 1282,798 L 1280,799 L 1279,799 L 1279,800 L 1278,800 L 1277,800 L 1276,800 L 1275,801 L 1274,801 L 1274,800 L 1275,799 L 1275,798 L 1274,797 L 1273,796 L 1272,795 L 1271,795 L 1270,795 L 1270,796 L 1270,797 L 1270,798 L 1269,798 L 1269,799 L 1268,799 L 1267,799 L 1266,799 L 1266,798 L 1265,798 L 1264,798 L 1264,797 L 1263,797 L 1262,797 L 1261,797 L 1261,796 L 1260,796 L 1259,795 L 1258,796 L 1257,796 L 1256,797 L 1255,797 L 1255,798 L 1255,799 L 1255,800 L 1256,800 L 1256,801 L 1255,801 L 1254,801 L 1253,800 L 1252,800 L 1251,800 L 1251,799 L 1250,799 L 1250,800 L 1249,800 L 1248,801 L 1247,801 L 1247,802 L 1246,803 L 1245,803 L 1245,802 L 1244,802 L 1244,801 L 1244,800 L 1243,800 L 1242,801 L 1241,801 L 1240,801 L 1239,801 L 1238,801 L 1238,802 L 1237,802 L 1236,802 L 1235,801 L 1235,800 L 1234,800 L 1234,799 L 1234,798 L 1233,798 L 1233,797 L 1232,797 L 1231,797 L 1230,797 L 1229,797 L 1228,797 L 1227,797 L 1226,798 L 1225,797 L 1224,797 L 1223,797 L 1222,796 L 1221,796 L 1221,795 L 1220,795 L 1219,795 L 1218,795 L 1218,796 L 1217,796 L 1217,797 L 1216,797 L 1215,796 L 1214,795 L 1214,796 L 1213,797 L 1214,797 L 1214,798 L 1215,798 L 1215,799 L 1216,799 L 1216,800 L 1215,801 L 1215,800 L 1214,800 L 1213,800 L 1212,801 L 1212,802 L 1212,803 L 1211,804 L 1211,805 L 1211,806 L 1211,808 L 1211,809 L 1211,810 L 1211,811 L 1211,812 L 1212,813 L 1212,814 L 1211,814 L 1211,815 L 1212,815 L 1212,816 L 1213,816 L 1213,817 L 1213,818 L 1212,818 L 1211,819 L 1212,819 L 1212,820 L 1213,820 L 1213,821 L 1213,822 L 1213,823 L 1212,823 L 1212,824 L 1212,825 L 1211,825 L 1211,826 L 1211,827 L 1211,828 L 1210,828 L 1210,829 L 1211,829 L 1212,829 L 1212,830 L 1212,831 L 1211,831 L 1211,832 L 1211,833 L 1211,834 L 1211,835 L 1210,835 L 1210,836 L 1211,836 L 1211,837 L 1212,837 L 1212,838 L 1212,839 L 1211,840 L 1210,840 L 1210,841 L 1209,841 L 1208,842 L 1208,843 L 1207,843 L 1207,844 L 1207,845 L 1208,845 L 1208,846 L 1208,847 L 1207,847 L 1206,847 L 1206,846 L 1205,846 L 1205,845 L 1204,845 L 1204,844 L 1203,844 L 1202,845 L 1201,845 L 1200,845 L 1200,846 L 1199,846 L 1199,845 L 1198,845 L 1198,844 L 1197,844 L 1196,844 L 1195,844 L 1195,843 L 1194,843 L 1193,844 L 1193,845 L 1192,845 L 1191,845 L 1191,846 L 1190,845 L 1189,845 L 1188,845 L 1187,845 L 1186,845 L 1185,846 L 1184,846 L 1183,846 L 1182,845 L 1181,845 L 1180,845 L 1179,844 L 1178,844 L 1178,845 L 1177,845 L 1177,844 L 1176,844 L 1176,843 L 1175,843 L 1175,842 L 1175,841 L 1174,841 L 1174,840 L 1173,840 L 1174,839 L 1174,838 L 1174,837 L 1174,836 L 1173,835 L 1172,835 L 1171,835 L 1171,834 L 1171,833 L 1171,832 L 1171,831 L 1171,830 L 1171,829 L 1170,829 L 1169,829 L 1168,829 L 1168,828 L 1167,828 L 1167,827 L 1167,826 L 1167,825 L 1167,824 L 1168,824 L 1169,824 L 1169,823 L 1170,823 L 1171,823 L 1170,822 L 1169,822 L 1168,821 L 1167,820 L 1168,820 L 1169,819 L 1169,818 L 1168,818 L 1167,818 L 1166,818 L 1166,817 L 1166,816 L 1166,815 L 1167,815 L 1167,814 L 1166,814 L 1166,813 L 1167,813 L 1167,812 L 1167,811 L 1167,810 L 1166,810 L 1166,809 L 1166,808 L 1165,808 L 1165,807 L 1165,806 L 1165,805 L 1166,805 L 1166,804 L 1165,804 L 1165,803 L 1164,803 L 1164,802 L 1163,802 L 1162,802 L 1162,801 L 1163,801 L 1163,800 L 1162,800 L 1162,799 L 1163,798 L 1163,797 L 1163,796 L 1162,796 L 1162,795 L 1161,795 L 1160,794 L 1159,794 L 1159,793 L 1160,793 L 1160,792 L 1160,791 L 1160,790 L 1160,789 L 1159,789 L 1159,788 L 1158,787 L 1158,786 L 1157,786 L 1156,786 L 1155,785 L 1154,784 L 1154,783 L 1154,784 L 1153,784 L 1152,784 L 1152,785 L 1151,785 L 1151,784 L 1151,783 L 1151,782 L 1150,782 L 1149,782 L 1148,782 L 1148,781 L 1148,780 L 1148,779 L 1147,778 L 1147,777 L 1147,776 L 1146,776 L 1145,776 L 1144,775 L 1145,775 L 1145,774 L 1144,774 L 1144,773 L 1145,773 L 1144,773 L 1144,772 L 1144,771 L 1145,771 L 1144,771 L 1145,771 L 1146,771 L 1146,770 L 1146,769 L 1146,768 L 1146,767 L 1146,766 L 1145,766 L 1145,767 L 1145,766 L 1145,765 L 1146,765 L 1145,765 L 1145,764 L 1146,764 L 1145,764 L 1145,763 L 1145,762 L 1145,761 L 1146,761 L 1146,760 L 1147,760 L 1147,759 L 1146,759 L 1145,759 L 1145,758 L 1145,757 L 1146,757 L 1146,756 L 1145,756 L 1145,755 L 1145,754 L 1144,753 L 1143,753 L 1144,753 L 1144,752 L 1143,752 L 1143,751 L 1143,750 L 1142,750 L 1142,749 L 1142,748 L 1141,748 L 1141,747 L 1141,746 L 1142,746 L 1141,745 L 1140,745 L 1140,744 L 1140,743 L 1139,743 L 1139,742 L 1139,741 L 1140,741 L 1139,741 L 1139,740 L 1139,739 L 1139,738 L 1138,738 L 1138,737 L 1137,737 L 1137,736 L 1136,736 L 1135,735 L 1136,735 L 1135,735 L 1135,734 L 1135,733 L 1135,732 L 1135,731 L 1135,730 L 1136,730 L 1136,729 L 1136,728 L 1137,728 L 1137,727 L 1138,727 L 1138,726 L 1139,726 L 1139,725 L 1140,725 L 1140,724 L 1141,724 L 1141,723 L 1141,722 L 1141,721 L 1142,720 L 1142,719 L 1142,718 L 1142,717 L 1141,717 L 1142,716 L 1141,716 L 1142,716 L 1143,716 L 1143,717 L 1144,717 L 1144,716 L 1145,716 L 1145,717 L 1146,717 L 1146,716 L 1147,716 L 1147,715 L 1147,714 L 1148,713 L 1149,713 L 1150,713 L 1150,712 L 1151,712 L 1152,712 L 1153,712 L 1153,711 L 1154,711 L 1155,711 L 1156,711 L 1157,711 L 1157,710 L 1158,710 L 1159,710 L 1160,710 L 1161,710 L 1160,710 L 1160,709 L 1160,708 L 1161,708 L 1161,707 L 1160,706 L 1160,705 L 1160,704 L 1160,703 L 1160,702 L 1160,701 L 1160,700 L 1159,699 L 1159,698 L 1159,697 L 1160,697 L 1159,697 L 1159,696 L 1158,696 L 1157,696 L 1157,695 L 1158,695 L 1159,695 L 1159,694 L 1159,693 L 1158,693 L 1158,692 L 1159,692 L 1159,691 L 1159,690 L 1159,689 L 1160,689 L 1160,688 L 1161,688 L 1161,687 L 1161,686 L 1161,685 L 1161,684 L 1161,683 L 1161,682 L 1161,681 L 1160,681 L 1160,680 L 1161,680 L 1160,680 L 1160,679 L 1159,679 L 1159,678 L 1159,677 L 1158,677 L 1157,677 L 1157,676 L 1156,676 L 1156,675 L 1155,676 L 1155,675 L 1155,674 L 1154,674 L 1154,673 L 1154,672 L 1153,672 L 1154,671 L 1154,670 L 1155,670 L 1154,670 L 1153,670 L 1152,670 L 1151,670 L 1151,669 L 1150,669 L 1149,669 L 1148,669 L 1147,669 L 1146,669 L 1145,669 L 1145,670 L 1144,670 L 1143,670 L 1142,670 L 1141,670 L 1141,669 L 1140,669 L 1140,668 L 1139,668 L 1138,667 L 1137,667 L 1136,667 L 1136,666 L 1135,666 L 1134,666 L 1133,666 L 1133,665 L 1132,665 L 1132,664 L 1131,664 L 1131,663 L 1130,663 L 1130,662 L 1129,662 L 1129,663 L 1129,662 L 1128,662 L 1127,662 L 1127,661 L 1126,661 L 1125,661 L 1124,661 L 1123,661 L 1122,661 L 1121,661 L 1121,662 L 1120,662 L 1119,662 L 1119,661 L 1119,662 L 1118,662 L 1118,661 L 1117,661 L 1117,660 L 1116,660 L 1116,659 L 1115,658 L 1115,657 L 1114,657 L 1114,656 L 1114,655 L 1113,655 L 1113,654 L 1114,654 L 1113,654 L 1112,655 L 1111,655 L 1110,656 L 1109,656 L 1108,656 L 1107,656 L 1106,656 L 1106,657 L 1105,657 L 1104,657 L 1103,657 L 1103,656 L 1103,657 L 1102,657 L 1101,657 L 1100,657 L 1099,657 L 1098,657 L 1097,657 L 1096,657 L 1095,656 L 1095,655 L 1094,655 L 1093,655 L 1092,655 L 1091,655 L 1091,656 L 1090,656 L 1089,656 L 1089,655 L 1088,655 L 1088,654 L 1087,654 L 1086,654 L 1085,654 L 1084,654 L 1084,653 L 1085,653 L 1085,652 L 1086,652 L 1086,651 L 1087,651 L 1087,650 L 1087,649 L 1086,649 L 1086,648 L 1085,647 L 1084,647 L 1084,646 L 1083,646 L 1083,645 L 1084,645 L 1085,644 L 1085,643 L 1085,642 L 1085,641 L 1084,641 L 1084,640 L 1083,640 L 1082,640 L 1082,639 L 1082,638 L 1083,638 L 1083,637 L 1082,637 L 1081,637 L 1081,636 L 1082,636 L 1083,636 L 1083,635 L 1083,634 L 1084,634 L 1084,635 L 1084,636 L 1085,636 L 1086,636 L 1086,635 L 1087,635 L 1088,634 L 1088,633 L 1089,632 L 1089,631 L 1089,630 L 1090,629 L 1091,626 L 1090,622 L 1090,621 L 1091,621 L 1091,620 L 1091,619 L 1092,619 L 1091,618 L 1091,617 L 1091,616 L 1090,615 L 1089,615 L 1089,616 L 1089,617 L 1088,617 L 1087,617 L 1087,616 L 1086,616 L 1085,606 L 1086,602 L 1087,601 L 1088,596 L 1090,593 L 1092,589 L 1091,587 L 1094,584 L 1094,582 L 1093,579 L 1094,578 L 1097,572 L 1096,567 L 1095,564 L 1098,561 L 1099,557 L 1100,557 L 1103,557 L 1104,556 L 1106,556 L 1106,554 L 1106,551 L 1105,547 L 1105,548 L 1108,549 L 1112,556 L 1114,560 L 1114,561 L 1115,561 L 1115,562 L 1116,562 " /></g>
</svg>
