<?xml version="1.0" standalone="no"?><!DOCTYPE svg PUBLIC "-//W3C//DTD SVG 1.1//EN" "http://www.w3.org/Graphics/SVG/1.1/DTD/svg11.dtd"><svg xmlns="http://www.w3.org/2000/svg" viewBox="1199 584 141 147" version = "1.1">
<g id="70804" ><path d="M 1284,585 L 1285,586 L 1285,587 L 1286,587 L 1286,588 L 1287,588 L 1287,589 L 1288,589 L 1288,590 L 1289,590 L 1289,589 L 1290,589 L 1291,589 L 1292,588 L 1293,588 L 1294,588 L 1295,588 L 1296,588 L 1297,588 L 1297,587 L 1298,587 L 1298,589 L 1298,590 L 1298,591 L 1299,592 L 1299,593 L 1299,594 L 1298,595 L 1299,595 L 1299,596 L 1299,597 L 1298,597 L 1298,598 L 1297,598 L 1297,597 L 1296,597 L 1295,598 L 1294,598 L 1293,598 L 1292,598 L 1292,599 L 1291,599 L 1291,600 L 1291,601 L 1290,601 L 1290,602 L 1290,603 L 1289,603 L 1289,604 L 1289,605 L 1289,606 L 1290,606 L 1290,607 L 1290,608 L 1289,609 L 1288,609 L 1288,610 L 1288,609 L 1287,610 L 1286,610 L 1285,610 L 1284,610 L 1283,610 L 1283,611 L 1282,611 L 1283,611 L 1283,612 L 1283,613 L 1284,613 L 1284,614 L 1284,615 L 1284,616 L 1284,617 L 1285,617 L 1285,618 L 1285,619 L 1285,620 L 1284,620 L 1284,621 L 1285,622 L 1284,622 L 1284,623 L 1283,624 L 1284,624 L 1284,625 L 1283,626 L 1283,627 L 1284,627 L 1284,628 L 1284,629 L 1285,629 L 1285,630 L 1285,631 L 1285,632 L 1285,633 L 1284,633 L 1284,634 L 1284,635 L 1285,634 L 1286,634 L 1286,633 L 1286,634 L 1286,635 L 1286,636 L 1286,637 L 1286,638 L 1287,638 L 1288,638 L 1288,639 L 1287,639 L 1286,639 L 1285,639 L 1286,639 L 1286,640 L 1287,640 L 1286,640 L 1286,641 L 1285,641 L 1284,641 L 1284,642 L 1284,643 L 1283,643 L 1283,644 L 1284,644 L 1284,645 L 1283,645 L 1284,646 L 1283,646 L 1283,647 L 1283,648 L 1284,648 L 1284,649 L 1284,650 L 1284,651 L 1285,652 L 1285,653 L 1285,654 L 1286,654 L 1286,655 L 1287,655 L 1286,655 L 1286,656 L 1286,657 L 1285,657 L 1285,658 L 1286,658 L 1287,658 L 1288,659 L 1288,660 L 1288,659 L 1288,658 L 1289,658 L 1289,659 L 1290,659 L 1291,659 L 1291,660 L 1291,661 L 1292,661 L 1292,662 L 1292,663 L 1292,664 L 1291,664 L 1290,664 L 1290,665 L 1291,665 L 1290,665 L 1290,666 L 1290,667 L 1289,667 L 1289,668 L 1290,668 L 1290,667 L 1291,667 L 1292,667 L 1292,668 L 1293,668 L 1294,668 L 1295,669 L 1296,669 L 1296,670 L 1297,670 L 1297,671 L 1298,671 L 1299,671 L 1299,672 L 1300,672 L 1300,673 L 1300,674 L 1299,674 L 1299,675 L 1298,675 L 1298,676 L 1297,676 L 1297,677 L 1297,678 L 1298,678 L 1299,678 L 1299,677 L 1300,677 L 1301,677 L 1301,676 L 1302,676 L 1302,677 L 1303,677 L 1303,678 L 1302,678 L 1302,679 L 1301,679 L 1301,680 L 1301,681 L 1302,681 L 1302,680 L 1303,680 L 1303,681 L 1304,681 L 1304,682 L 1304,683 L 1303,683 L 1302,683 L 1303,683 L 1303,684 L 1303,685 L 1304,685 L 1304,686 L 1305,686 L 1305,685 L 1306,685 L 1307,685 L 1307,686 L 1307,687 L 1306,687 L 1306,688 L 1307,689 L 1308,689 L 1308,690 L 1308,691 L 1308,692 L 1309,692 L 1309,693 L 1310,694 L 1311,694 L 1311,695 L 1311,696 L 1312,696 L 1313,696 L 1313,697 L 1313,698 L 1314,698 L 1315,698 L 1316,697 L 1316,696 L 1317,696 L 1318,696 L 1319,696 L 1319,697 L 1320,697 L 1320,696 L 1319,696 L 1320,696 L 1320,695 L 1320,694 L 1321,694 L 1321,695 L 1321,696 L 1321,695 L 1322,695 L 1323,695 L 1323,694 L 1324,694 L 1324,693 L 1323,693 L 1322,693 L 1322,692 L 1323,692 L 1324,692 L 1325,692 L 1325,693 L 1326,693 L 1326,694 L 1327,694 L 1328,694 L 1329,694 L 1329,695 L 1330,695 L 1331,695 L 1331,694 L 1331,693 L 1332,693 L 1332,692 L 1333,692 L 1333,691 L 1334,691 L 1335,691 L 1336,691 L 1337,691 L 1337,692 L 1338,692 L 1338,693 L 1339,693 L 1339,694 L 1339,695 L 1339,696 L 1340,697 L 1340,698 L 1340,699 L 1340,700 L 1339,700 L 1339,701 L 1338,701 L 1338,702 L 1339,702 L 1339,703 L 1339,704 L 1339,705 L 1339,706 L 1339,707 L 1339,708 L 1338,708 L 1338,709 L 1338,710 L 1338,711 L 1339,711 L 1338,712 L 1337,713 L 1336,714 L 1336,715 L 1335,715 L 1335,716 L 1334,716 L 1334,717 L 1333,717 L 1333,718 L 1334,719 L 1334,720 L 1334,721 L 1334,722 L 1333,723 L 1332,723 L 1332,722 L 1331,722 L 1330,722 L 1329,723 L 1329,724 L 1328,725 L 1328,724 L 1327,724 L 1326,724 L 1325,725 L 1324,725 L 1323,725 L 1323,726 L 1322,726 L 1321,727 L 1322,727 L 1323,727 L 1323,728 L 1323,729 L 1322,729 L 1321,729 L 1321,730 L 1321,731 L 1321,730 L 1320,730 L 1320,731 L 1320,730 L 1320,729 L 1319,729 L 1318,728 L 1318,729 L 1317,729 L 1316,729 L 1315,729 L 1314,729 L 1313,729 L 1312,729 L 1312,728 L 1311,728 L 1310,727 L 1310,726 L 1310,725 L 1309,725 L 1309,724 L 1309,723 L 1309,722 L 1308,722 L 1308,721 L 1307,721 L 1306,721 L 1306,722 L 1305,722 L 1304,722 L 1303,722 L 1302,722 L 1302,723 L 1301,723 L 1300,723 L 1299,723 L 1298,723 L 1297,723 L 1297,722 L 1296,722 L 1296,721 L 1295,721 L 1295,720 L 1294,719 L 1293,719 L 1292,719 L 1291,719 L 1291,718 L 1290,717 L 1289,716 L 1289,715 L 1288,715 L 1287,714 L 1286,714 L 1285,714 L 1284,713 L 1283,712 L 1282,712 L 1277,712 L 1273,715 L 1270,717 L 1263,719 L 1256,717 L 1252,715 L 1250,715 L 1249,715 L 1249,714 L 1249,713 L 1248,713 L 1248,712 L 1247,712 L 1248,712 L 1247,712 L 1247,711 L 1246,712 L 1246,711 L 1245,711 L 1244,711 L 1244,710 L 1243,710 L 1243,709 L 1242,709 L 1242,708 L 1241,708 L 1241,707 L 1240,707 L 1239,707 L 1238,708 L 1238,707 L 1237,707 L 1236,707 L 1236,706 L 1235,706 L 1235,705 L 1234,705 L 1233,705 L 1232,705 L 1232,704 L 1231,704 L 1230,704 L 1230,703 L 1229,703 L 1229,702 L 1228,702 L 1228,701 L 1227,701 L 1227,700 L 1226,700 L 1225,700 L 1225,699 L 1224,698 L 1224,697 L 1223,697 L 1222,697 L 1222,696 L 1222,695 L 1222,694 L 1222,693 L 1223,693 L 1224,693 L 1224,692 L 1224,691 L 1224,690 L 1223,690 L 1223,689 L 1222,689 L 1221,689 L 1221,688 L 1220,688 L 1219,688 L 1218,688 L 1218,687 L 1217,686 L 1217,687 L 1217,686 L 1216,686 L 1215,686 L 1215,685 L 1214,685 L 1214,684 L 1213,684 L 1213,683 L 1212,683 L 1212,682 L 1211,681 L 1211,677 L 1212,673 L 1210,669 L 1213,664 L 1213,659 L 1213,656 L 1213,654 L 1211,653 L 1211,649 L 1212,645 L 1211,642 L 1211,636 L 1207,629 L 1208,624 L 1205,620 L 1202,617 L 1201,614 L 1201,609 L 1201,603 L 1201,601 L 1201,600 L 1201,599 L 1201,598 L 1200,598 L 1199,597 L 1201,596 L 1203,594 L 1204,594 L 1204,593 L 1205,593 L 1206,593 L 1206,592 L 1207,592 L 1208,592 L 1208,591 L 1208,592 L 1209,592 L 1209,593 L 1210,593 L 1210,594 L 1210,595 L 1211,595 L 1211,596 L 1212,596 L 1213,596 L 1214,596 L 1214,597 L 1215,597 L 1215,598 L 1216,598 L 1217,598 L 1217,599 L 1218,599 L 1219,599 L 1219,598 L 1220,598 L 1221,598 L 1222,597 L 1222,598 L 1223,598 L 1224,598 L 1224,599 L 1225,599 L 1226,599 L 1227,599 L 1227,598 L 1228,598 L 1229,598 L 1230,598 L 1230,597 L 1231,597 L 1232,597 L 1233,597 L 1233,598 L 1234,598 L 1235,598 L 1236,599 L 1237,600 L 1238,600 L 1238,599 L 1239,598 L 1239,599 L 1240,599 L 1240,600 L 1241,600 L 1241,601 L 1241,602 L 1242,602 L 1242,601 L 1242,600 L 1242,599 L 1242,600 L 1243,600 L 1244,600 L 1244,599 L 1245,599 L 1245,600 L 1246,600 L 1247,600 L 1247,599 L 1247,598 L 1248,598 L 1248,597 L 1255,596 L 1264,596 L 1266,595 L 1267,595 L 1268,594 L 1269,593 L 1269,591 L 1270,591 L 1270,590 L 1271,590 L 1272,590 L 1272,589 L 1273,589 L 1274,589 L 1275,589 L 1275,588 L 1276,588 L 1277,588 L 1277,587 L 1278,587 L 1279,587 L 1279,586 L 1280,586 L 1280,585 L 1281,585 L 1281,584 L 1282,584 L 1283,584 L 1283,585 L 1284,585 " /></g>
</svg>
