<?xml version="1.0" standalone="no"?><!DOCTYPE svg PUBLIC "-//W3C//DTD SVG 1.1//EN" "http://www.w3.org/Graphics/SVG/1.1/DTD/svg11.dtd"><svg xmlns="http://www.w3.org/2000/svg" viewBox="1015 503 92 132" version = "1.1">
<g id="70803" ><path d="M 1077,504 L 1078,504 L 1079,504 L 1080,504 L 1081,504 L 1082,504 L 1083,504 L 1084,504 L 1084,505 L 1084,506 L 1085,507 L 1085,508 L 1089,509 L 1093,509 L 1098,510 L 1106,514 L 1107,514 L 1107,515 L 1106,515 L 1106,516 L 1107,516 L 1107,517 L 1107,518 L 1106,518 L 1106,519 L 1106,520 L 1105,520 L 1106,520 L 1105,520 L 1105,521 L 1105,522 L 1105,523 L 1105,524 L 1099,528 L 1098,528 L 1098,531 L 1099,537 L 1101,542 L 1103,545 L 1105,547 L 1106,551 L 1106,554 L 1106,556 L 1104,556 L 1103,557 L 1100,557 L 1099,557 L 1098,561 L 1095,564 L 1096,567 L 1097,572 L 1094,578 L 1093,579 L 1094,582 L 1094,584 L 1091,587 L 1092,589 L 1090,593 L 1088,596 L 1087,601 L 1086,602 L 1085,606 L 1086,616 L 1087,616 L 1087,617 L 1088,617 L 1089,617 L 1089,616 L 1089,615 L 1090,615 L 1091,616 L 1091,617 L 1091,618 L 1092,619 L 1091,619 L 1091,620 L 1091,621 L 1090,621 L 1090,622 L 1091,626 L 1090,629 L 1089,630 L 1089,631 L 1089,632 L 1088,633 L 1088,634 L 1087,635 L 1086,635 L 1085,635 L 1085,634 L 1084,634 L 1084,633 L 1084,632 L 1084,631 L 1085,631 L 1085,630 L 1084,630 L 1084,629 L 1083,629 L 1083,628 L 1082,628 L 1081,628 L 1080,628 L 1080,627 L 1081,627 L 1081,626 L 1081,625 L 1081,624 L 1081,623 L 1080,623 L 1079,623 L 1079,622 L 1079,621 L 1079,620 L 1079,619 L 1079,618 L 1080,618 L 1080,617 L 1079,617 L 1079,616 L 1078,615 L 1078,616 L 1077,616 L 1076,616 L 1075,615 L 1074,615 L 1074,616 L 1073,617 L 1073,616 L 1072,616 L 1072,615 L 1071,614 L 1071,613 L 1070,613 L 1069,613 L 1069,612 L 1069,611 L 1069,610 L 1069,609 L 1068,609 L 1067,609 L 1066,608 L 1065,608 L 1064,608 L 1064,609 L 1064,608 L 1063,608 L 1063,607 L 1062,607 L 1061,606 L 1061,607 L 1060,607 L 1059,607 L 1059,606 L 1059,605 L 1058,605 L 1057,605 L 1056,604 L 1056,603 L 1055,604 L 1055,603 L 1054,603 L 1053,603 L 1053,602 L 1053,601 L 1052,601 L 1051,601 L 1050,601 L 1050,600 L 1049,600 L 1048,600 L 1047,600 L 1047,601 L 1046,601 L 1046,600 L 1045,600 L 1045,599 L 1045,598 L 1044,598 L 1043,598 L 1043,597 L 1043,596 L 1042,596 L 1042,595 L 1041,595 L 1041,594 L 1041,593 L 1040,592 L 1040,591 L 1039,591 L 1039,590 L 1038,590 L 1038,589 L 1037,588 L 1038,588 L 1038,587 L 1038,586 L 1037,586 L 1037,585 L 1036,585 L 1036,584 L 1035,584 L 1036,583 L 1036,582 L 1037,582 L 1037,581 L 1037,580 L 1037,579 L 1037,578 L 1037,577 L 1037,576 L 1037,575 L 1036,575 L 1036,574 L 1035,574 L 1034,574 L 1034,573 L 1033,573 L 1033,574 L 1032,574 L 1032,575 L 1031,575 L 1031,574 L 1031,573 L 1032,573 L 1032,572 L 1033,572 L 1034,572 L 1034,571 L 1033,571 L 1034,571 L 1034,570 L 1033,569 L 1032,569 L 1032,568 L 1033,568 L 1033,567 L 1033,566 L 1034,566 L 1034,565 L 1035,565 L 1035,564 L 1035,563 L 1036,563 L 1036,562 L 1035,562 L 1035,561 L 1034,560 L 1033,560 L 1033,559 L 1032,559 L 1032,558 L 1031,558 L 1031,559 L 1030,559 L 1030,558 L 1029,558 L 1028,558 L 1027,558 L 1027,557 L 1027,556 L 1026,557 L 1026,558 L 1025,558 L 1025,557 L 1025,556 L 1024,556 L 1024,555 L 1023,555 L 1023,554 L 1024,553 L 1025,553 L 1025,552 L 1026,552 L 1025,551 L 1024,552 L 1023,551 L 1022,550 L 1023,550 L 1023,549 L 1023,548 L 1022,548 L 1021,548 L 1020,548 L 1019,548 L 1018,548 L 1018,547 L 1019,547 L 1019,546 L 1019,545 L 1019,544 L 1020,544 L 1020,543 L 1020,542 L 1019,542 L 1020,542 L 1020,541 L 1019,541 L 1019,540 L 1018,540 L 1018,541 L 1017,541 L 1017,540 L 1018,540 L 1018,539 L 1019,539 L 1019,538 L 1019,537 L 1020,537 L 1019,537 L 1018,537 L 1018,536 L 1018,535 L 1017,535 L 1017,534 L 1017,533 L 1017,532 L 1017,531 L 1017,530 L 1016,529 L 1015,529 L 1016,529 L 1016,528 L 1015,528 L 1015,527 L 1016,527 L 1016,528 L 1017,528 L 1018,528 L 1018,527 L 1018,528 L 1019,528 L 1020,528 L 1020,527 L 1020,528 L 1021,528 L 1022,528 L 1023,528 L 1023,527 L 1023,528 L 1024,528 L 1024,527 L 1023,527 L 1024,527 L 1024,526 L 1024,525 L 1025,525 L 1025,526 L 1025,525 L 1025,524 L 1026,524 L 1026,523 L 1027,523 L 1028,523 L 1029,523 L 1028,523 L 1028,524 L 1029,524 L 1029,523 L 1030,523 L 1031,524 L 1032,524 L 1033,524 L 1034,524 L 1035,524 L 1036,524 L 1037,524 L 1038,524 L 1039,524 L 1039,523 L 1040,523 L 1040,522 L 1041,522 L 1041,523 L 1042,523 L 1042,522 L 1042,521 L 1043,521 L 1044,521 L 1044,520 L 1043,520 L 1043,519 L 1043,520 L 1042,520 L 1042,519 L 1042,518 L 1043,518 L 1043,517 L 1042,517 L 1042,518 L 1042,517 L 1042,516 L 1042,515 L 1041,515 L 1040,515 L 1041,515 L 1041,514 L 1042,514 L 1042,513 L 1042,512 L 1043,512 L 1044,512 L 1045,512 L 1046,512 L 1047,512 L 1048,512 L 1048,513 L 1049,513 L 1049,514 L 1050,514 L 1051,514 L 1053,515 L 1054,516 L 1056,517 L 1057,517 L 1058,517 L 1059,517 L 1060,516 L 1061,515 L 1062,515 L 1063,514 L 1064,513 L 1065,513 L 1066,512 L 1067,511 L 1068,510 L 1069,510 L 1069,509 L 1070,508 L 1071,508 L 1071,507 L 1072,507 L 1072,506 L 1073,506 L 1073,505 L 1074,505 L 1075,504 L 1076,503 L 1077,504 " /></g>
</svg>
