<?xml version="1.0" standalone="no"?><!DOCTYPE svg PUBLIC "-//W3C//DTD SVG 1.1//EN" "http://www.w3.org/Graphics/SVG/1.1/DTD/svg11.dtd"><svg xmlns="http://www.w3.org/2000/svg" viewBox="1165 534 77 65" version = "1.1">
<g id="70904" ><path d="M 1238,594 L 1237,594 L 1236,594 L 1236,595 L 1236,594 L 1235,594 L 1235,595 L 1236,595 L 1235,595 L 1234,595 L 1234,596 L 1234,597 L 1233,597 L 1233,598 L 1233,597 L 1232,597 L 1231,597 L 1230,597 L 1230,598 L 1229,598 L 1228,598 L 1227,598 L 1227,599 L 1226,599 L 1225,599 L 1224,599 L 1224,598 L 1223,598 L 1222,598 L 1222,597 L 1221,598 L 1220,598 L 1219,598 L 1219,599 L 1218,599 L 1217,599 L 1217,598 L 1216,598 L 1215,598 L 1215,597 L 1214,597 L 1214,596 L 1213,596 L 1212,596 L 1211,596 L 1211,595 L 1210,595 L 1210,594 L 1210,593 L 1209,593 L 1209,592 L 1208,592 L 1208,591 L 1208,592 L 1207,592 L 1206,592 L 1206,593 L 1205,593 L 1204,593 L 1204,594 L 1203,594 L 1201,596 L 1199,597 L 1197,598 L 1196,598 L 1195,598 L 1194,598 L 1193,597 L 1192,597 L 1192,596 L 1191,596 L 1190,596 L 1189,596 L 1188,596 L 1188,597 L 1188,596 L 1188,597 L 1187,597 L 1187,596 L 1186,596 L 1185,596 L 1184,596 L 1184,595 L 1185,595 L 1185,594 L 1184,594 L 1184,593 L 1184,592 L 1183,592 L 1183,591 L 1183,590 L 1182,590 L 1181,590 L 1181,589 L 1180,590 L 1180,589 L 1179,589 L 1178,589 L 1177,588 L 1176,588 L 1175,588 L 1175,587 L 1174,587 L 1174,586 L 1173,586 L 1173,585 L 1172,585 L 1172,584 L 1171,584 L 1171,583 L 1171,582 L 1170,582 L 1170,581 L 1171,581 L 1171,580 L 1170,580 L 1170,579 L 1170,578 L 1170,577 L 1169,577 L 1169,576 L 1169,577 L 1168,577 L 1168,576 L 1168,575 L 1168,574 L 1167,574 L 1167,573 L 1167,574 L 1167,573 L 1166,573 L 1166,574 L 1166,573 L 1166,572 L 1167,572 L 1167,571 L 1166,571 L 1166,570 L 1167,570 L 1167,569 L 1166,569 L 1165,569 L 1165,568 L 1166,568 L 1166,567 L 1167,567 L 1166,567 L 1165,567 L 1165,566 L 1166,566 L 1167,566 L 1168,566 L 1169,565 L 1169,564 L 1170,563 L 1170,562 L 1171,561 L 1172,560 L 1173,560 L 1173,559 L 1174,558 L 1175,557 L 1176,556 L 1177,555 L 1177,554 L 1178,553 L 1179,553 L 1179,552 L 1180,552 L 1180,551 L 1181,551 L 1182,550 L 1182,549 L 1183,549 L 1183,548 L 1184,548 L 1184,547 L 1185,547 L 1186,546 L 1186,547 L 1187,547 L 1188,547 L 1188,546 L 1189,546 L 1189,545 L 1190,545 L 1190,544 L 1191,544 L 1191,543 L 1191,542 L 1190,542 L 1189,542 L 1188,542 L 1188,541 L 1189,541 L 1189,540 L 1190,540 L 1191,540 L 1192,539 L 1193,538 L 1194,538 L 1194,537 L 1195,537 L 1195,536 L 1196,536 L 1196,535 L 1197,535 L 1197,534 L 1198,534 L 1198,535 L 1199,535 L 1200,535 L 1200,536 L 1199,536 L 1200,536 L 1200,537 L 1200,538 L 1200,539 L 1200,540 L 1199,540 L 1199,541 L 1199,542 L 1199,543 L 1200,543 L 1199,543 L 1199,544 L 1198,544 L 1198,545 L 1198,546 L 1198,547 L 1197,547 L 1197,548 L 1198,548 L 1198,549 L 1199,549 L 1199,550 L 1198,550 L 1199,551 L 1199,552 L 1199,553 L 1200,553 L 1201,553 L 1201,554 L 1202,554 L 1202,553 L 1203,553 L 1204,553 L 1204,554 L 1204,555 L 1205,555 L 1205,556 L 1206,556 L 1206,557 L 1206,558 L 1207,558 L 1208,558 L 1209,558 L 1210,558 L 1212,559 L 1213,558 L 1214,558 L 1215,557 L 1216,557 L 1216,556 L 1217,555 L 1218,554 L 1219,553 L 1220,552 L 1221,552 L 1221,553 L 1222,553 L 1222,554 L 1221,554 L 1222,554 L 1222,555 L 1223,555 L 1223,554 L 1224,554 L 1225,554 L 1226,554 L 1226,555 L 1226,556 L 1227,556 L 1227,557 L 1228,557 L 1228,558 L 1229,558 L 1228,559 L 1229,559 L 1228,559 L 1228,560 L 1228,561 L 1228,562 L 1228,563 L 1229,563 L 1229,564 L 1230,564 L 1230,565 L 1230,566 L 1229,567 L 1230,567 L 1230,568 L 1229,568 L 1230,568 L 1230,569 L 1229,569 L 1229,570 L 1229,571 L 1230,571 L 1230,572 L 1231,572 L 1231,573 L 1232,573 L 1231,573 L 1231,574 L 1232,574 L 1232,575 L 1232,574 L 1233,574 L 1233,575 L 1234,575 L 1234,576 L 1234,577 L 1234,578 L 1235,578 L 1235,579 L 1236,579 L 1236,580 L 1237,580 L 1236,580 L 1237,580 L 1237,581 L 1237,582 L 1238,582 L 1238,583 L 1239,584 L 1240,584 L 1241,584 L 1242,584 L 1242,585 L 1242,586 L 1242,587 L 1241,587 L 1241,588 L 1240,588 L 1241,588 L 1241,589 L 1241,590 L 1242,590 L 1242,591 L 1242,592 L 1241,592 L 1241,593 L 1240,593 L 1239,593 L 1239,594 L 1238,594 " /></g>
</svg>
