<?xml version="1.0" standalone="no"?><!DOCTYPE svg PUBLIC "-//W3C//DTD SVG 1.1//EN" "http://www.w3.org/Graphics/SVG/1.1/DTD/svg11.dtd"><svg xmlns="http://www.w3.org/2000/svg" viewBox="1178 392 168 210" version = "1.1">
<g id="70901" ><path d="M 1190,400 L 1193,401 L 1198,401 L 1199,402 L 1204,403 L 1205,406 L 1207,409 L 1207,410 L 1208,410 L 1209,410 L 1210,410 L 1211,409 L 1212,409 L 1213,409 L 1214,409 L 1215,409 L 1216,409 L 1217,409 L 1218,410 L 1219,410 L 1220,410 L 1221,410 L 1222,410 L 1222,409 L 1223,409 L 1223,408 L 1224,408 L 1224,409 L 1225,409 L 1226,409 L 1227,409 L 1228,409 L 1228,410 L 1228,409 L 1229,409 L 1230,409 L 1230,410 L 1231,410 L 1232,410 L 1233,410 L 1232,410 L 1233,410 L 1233,409 L 1234,409 L 1234,410 L 1235,410 L 1236,410 L 1237,410 L 1237,409 L 1238,409 L 1238,410 L 1239,410 L 1239,409 L 1240,409 L 1241,409 L 1241,408 L 1240,408 L 1241,407 L 1241,408 L 1241,407 L 1242,407 L 1243,406 L 1242,406 L 1243,405 L 1244,405 L 1245,405 L 1246,405 L 1247,405 L 1247,404 L 1248,404 L 1248,405 L 1248,404 L 1249,404 L 1249,403 L 1249,404 L 1249,403 L 1250,403 L 1251,403 L 1251,402 L 1251,403 L 1251,404 L 1251,405 L 1252,405 L 1252,406 L 1252,407 L 1253,407 L 1253,408 L 1254,408 L 1254,409 L 1255,409 L 1255,410 L 1255,411 L 1256,411 L 1256,412 L 1257,412 L 1257,413 L 1257,414 L 1257,415 L 1258,415 L 1258,416 L 1258,415 L 1258,416 L 1257,416 L 1257,417 L 1257,418 L 1256,418 L 1256,417 L 1256,418 L 1255,418 L 1255,419 L 1255,420 L 1256,420 L 1255,420 L 1255,421 L 1254,421 L 1254,422 L 1255,422 L 1255,423 L 1255,424 L 1254,425 L 1255,425 L 1256,426 L 1257,426 L 1257,427 L 1258,427 L 1259,427 L 1259,428 L 1260,429 L 1259,429 L 1260,429 L 1260,430 L 1261,430 L 1261,431 L 1260,431 L 1260,432 L 1260,433 L 1261,433 L 1261,434 L 1262,434 L 1262,435 L 1263,435 L 1262,435 L 1262,436 L 1261,437 L 1261,438 L 1261,437 L 1260,437 L 1260,438 L 1259,438 L 1259,439 L 1258,439 L 1258,440 L 1259,440 L 1258,440 L 1258,441 L 1258,442 L 1258,443 L 1257,443 L 1257,444 L 1257,445 L 1256,445 L 1257,445 L 1257,446 L 1257,447 L 1258,447 L 1258,448 L 1259,449 L 1259,450 L 1259,451 L 1259,452 L 1259,453 L 1259,454 L 1260,454 L 1261,454 L 1262,454 L 1262,455 L 1263,455 L 1263,456 L 1263,457 L 1264,457 L 1265,457 L 1266,457 L 1266,456 L 1267,456 L 1267,457 L 1268,457 L 1268,456 L 1269,456 L 1270,456 L 1271,456 L 1272,456 L 1272,457 L 1273,457 L 1273,456 L 1274,456 L 1273,455 L 1274,455 L 1275,455 L 1276,454 L 1275,454 L 1276,454 L 1277,454 L 1278,454 L 1279,453 L 1280,452 L 1281,452 L 1281,451 L 1282,451 L 1282,452 L 1285,453 L 1287,451 L 1290,452 L 1292,453 L 1293,453 L 1295,452 L 1298,452 L 1299,452 L 1300,454 L 1301,455 L 1304,454 L 1307,454 L 1310,455 L 1312,457 L 1317,460 L 1321,462 L 1322,468 L 1323,470 L 1323,471 L 1324,475 L 1324,477 L 1325,478 L 1325,480 L 1324,483 L 1325,484 L 1325,486 L 1326,487 L 1326,491 L 1328,496 L 1329,495 L 1331,496 L 1333,502 L 1342,510 L 1337,517 L 1337,521 L 1338,525 L 1339,533 L 1344,543 L 1344,545 L 1344,546 L 1345,548 L 1343,549 L 1343,553 L 1343,555 L 1344,555 L 1345,557 L 1344,558 L 1345,560 L 1345,562 L 1346,563 L 1346,564 L 1345,567 L 1344,568 L 1344,569 L 1343,570 L 1342,570 L 1341,570 L 1339,570 L 1338,568 L 1336,568 L 1335,567 L 1333,567 L 1331,569 L 1329,569 L 1327,570 L 1325,571 L 1324,571 L 1322,570 L 1321,570 L 1320,571 L 1318,571 L 1316,572 L 1315,572 L 1314,572 L 1313,572 L 1311,572 L 1311,573 L 1310,573 L 1311,574 L 1311,575 L 1310,576 L 1311,576 L 1311,577 L 1309,579 L 1308,579 L 1308,580 L 1308,581 L 1307,581 L 1307,582 L 1307,583 L 1306,584 L 1304,585 L 1303,586 L 1302,586 L 1301,586 L 1300,586 L 1298,587 L 1297,587 L 1297,588 L 1296,588 L 1295,588 L 1294,588 L 1293,588 L 1292,588 L 1291,589 L 1290,589 L 1289,589 L 1289,590 L 1288,590 L 1288,589 L 1287,589 L 1287,588 L 1286,588 L 1286,587 L 1285,587 L 1285,586 L 1284,585 L 1283,585 L 1283,584 L 1282,584 L 1281,584 L 1281,585 L 1280,585 L 1280,586 L 1279,586 L 1279,587 L 1278,587 L 1277,587 L 1277,588 L 1276,588 L 1275,588 L 1275,589 L 1274,589 L 1273,589 L 1272,589 L 1272,590 L 1271,590 L 1270,590 L 1270,591 L 1269,591 L 1269,593 L 1268,594 L 1267,595 L 1266,595 L 1264,596 L 1255,596 L 1248,597 L 1248,598 L 1247,598 L 1247,599 L 1247,600 L 1246,600 L 1245,600 L 1245,599 L 1244,599 L 1244,600 L 1243,600 L 1242,600 L 1242,599 L 1242,600 L 1242,601 L 1242,602 L 1241,602 L 1241,601 L 1241,600 L 1240,600 L 1240,599 L 1239,599 L 1239,598 L 1238,599 L 1238,600 L 1237,600 L 1236,599 L 1235,598 L 1234,598 L 1233,598 L 1233,597 L 1234,597 L 1234,596 L 1234,595 L 1235,595 L 1236,595 L 1235,595 L 1235,594 L 1236,594 L 1236,595 L 1236,594 L 1237,594 L 1238,594 L 1239,594 L 1239,593 L 1240,593 L 1241,593 L 1241,592 L 1242,592 L 1242,591 L 1242,590 L 1241,590 L 1241,589 L 1241,588 L 1240,588 L 1241,588 L 1241,587 L 1242,587 L 1242,586 L 1242,585 L 1242,584 L 1241,584 L 1240,584 L 1239,584 L 1238,583 L 1238,582 L 1237,582 L 1237,581 L 1237,580 L 1236,580 L 1237,580 L 1236,580 L 1236,579 L 1235,579 L 1235,578 L 1234,578 L 1234,577 L 1234,576 L 1234,575 L 1233,575 L 1233,574 L 1232,574 L 1232,575 L 1232,574 L 1231,574 L 1231,573 L 1232,573 L 1231,573 L 1231,572 L 1230,572 L 1230,571 L 1229,571 L 1229,570 L 1229,569 L 1230,569 L 1230,568 L 1229,568 L 1230,568 L 1230,567 L 1229,567 L 1230,566 L 1230,565 L 1230,564 L 1229,564 L 1229,563 L 1228,563 L 1228,562 L 1228,561 L 1228,560 L 1228,559 L 1229,559 L 1228,559 L 1229,558 L 1228,558 L 1228,557 L 1227,557 L 1227,556 L 1226,556 L 1226,555 L 1226,554 L 1225,554 L 1224,554 L 1223,554 L 1223,555 L 1222,555 L 1222,554 L 1221,554 L 1222,554 L 1222,553 L 1221,553 L 1221,552 L 1220,552 L 1219,553 L 1218,554 L 1217,555 L 1216,556 L 1216,557 L 1215,557 L 1214,558 L 1213,558 L 1212,559 L 1210,558 L 1209,558 L 1208,558 L 1207,558 L 1206,558 L 1206,557 L 1206,556 L 1205,556 L 1205,555 L 1204,555 L 1204,554 L 1204,553 L 1203,553 L 1202,553 L 1202,554 L 1201,554 L 1201,553 L 1200,553 L 1199,553 L 1199,552 L 1199,551 L 1198,550 L 1199,550 L 1199,549 L 1198,549 L 1198,548 L 1197,548 L 1197,547 L 1198,547 L 1198,546 L 1198,545 L 1198,544 L 1199,544 L 1199,543 L 1200,543 L 1199,543 L 1199,542 L 1199,541 L 1199,540 L 1200,540 L 1200,539 L 1200,538 L 1200,537 L 1200,536 L 1199,536 L 1200,536 L 1200,535 L 1199,535 L 1198,535 L 1198,534 L 1197,534 L 1196,534 L 1196,533 L 1196,532 L 1197,532 L 1197,531 L 1198,531 L 1199,531 L 1198,530 L 1198,529 L 1198,528 L 1198,527 L 1198,526 L 1197,526 L 1197,525 L 1197,524 L 1197,523 L 1198,523 L 1197,523 L 1198,523 L 1198,522 L 1198,521 L 1197,521 L 1197,520 L 1197,519 L 1196,519 L 1195,519 L 1194,519 L 1194,518 L 1195,518 L 1195,517 L 1195,516 L 1194,516 L 1195,516 L 1195,515 L 1196,515 L 1196,514 L 1195,514 L 1196,514 L 1196,513 L 1196,514 L 1195,514 L 1195,513 L 1196,513 L 1196,512 L 1197,512 L 1196,512 L 1196,511 L 1195,511 L 1195,510 L 1196,510 L 1197,510 L 1196,510 L 1195,510 L 1196,509 L 1197,509 L 1197,508 L 1197,507 L 1198,507 L 1199,508 L 1200,508 L 1201,508 L 1202,508 L 1203,508 L 1204,508 L 1205,508 L 1206,508 L 1207,508 L 1207,509 L 1208,509 L 1209,509 L 1210,509 L 1210,508 L 1211,507 L 1212,506 L 1213,503 L 1214,502 L 1213,501 L 1213,500 L 1214,499 L 1215,498 L 1215,497 L 1214,497 L 1212,497 L 1212,496 L 1212,495 L 1213,494 L 1213,491 L 1213,490 L 1214,490 L 1215,489 L 1215,488 L 1214,488 L 1214,487 L 1215,487 L 1215,486 L 1215,485 L 1215,484 L 1215,482 L 1216,481 L 1217,481 L 1219,478 L 1222,474 L 1223,474 L 1224,474 L 1225,473 L 1226,472 L 1227,471 L 1227,470 L 1226,469 L 1226,468 L 1226,467 L 1226,466 L 1226,465 L 1225,465 L 1225,464 L 1224,464 L 1224,463 L 1223,463 L 1223,462 L 1222,462 L 1222,461 L 1223,461 L 1223,460 L 1222,460 L 1222,459 L 1222,458 L 1221,458 L 1221,459 L 1221,458 L 1220,458 L 1220,457 L 1219,457 L 1219,456 L 1220,456 L 1219,456 L 1220,455 L 1220,454 L 1220,453 L 1219,452 L 1218,452 L 1218,451 L 1219,451 L 1218,451 L 1218,450 L 1217,449 L 1216,449 L 1216,448 L 1216,447 L 1215,447 L 1214,447 L 1214,446 L 1214,445 L 1213,445 L 1213,444 L 1212,444 L 1212,443 L 1212,442 L 1211,442 L 1210,442 L 1210,441 L 1209,441 L 1209,440 L 1208,440 L 1208,439 L 1208,438 L 1208,437 L 1207,437 L 1207,436 L 1206,436 L 1206,435 L 1206,434 L 1205,434 L 1206,434 L 1206,433 L 1205,433 L 1205,432 L 1204,432 L 1204,431 L 1204,430 L 1203,430 L 1202,430 L 1202,429 L 1202,428 L 1201,428 L 1200,428 L 1200,427 L 1200,426 L 1199,426 L 1200,426 L 1200,425 L 1199,425 L 1199,424 L 1199,425 L 1200,425 L 1200,424 L 1199,423 L 1199,422 L 1199,421 L 1199,420 L 1198,420 L 1198,419 L 1198,418 L 1197,418 L 1197,417 L 1198,417 L 1197,417 L 1196,417 L 1196,416 L 1195,416 L 1195,417 L 1195,416 L 1194,416 L 1193,416 L 1193,415 L 1192,415 L 1192,414 L 1191,414 L 1191,413 L 1190,413 L 1189,413 L 1188,413 L 1188,412 L 1187,411 L 1186,411 L 1186,412 L 1185,412 L 1184,411 L 1183,410 L 1182,410 L 1182,409 L 1181,409 L 1181,408 L 1180,408 L 1180,407 L 1179,407 L 1178,406 L 1179,406 L 1179,405 L 1180,405 L 1180,404 L 1180,403 L 1179,402 L 1180,401 L 1181,401 L 1181,400 L 1180,400 L 1180,399 L 1181,398 L 1182,398 L 1182,397 L 1182,396 L 1182,395 L 1181,395 L 1181,394 L 1181,393 L 1181,392 L 1182,392 L 1190,397 L 1190,400 " /></g>
</svg>
