<?xml version="1.0" standalone="no"?><!DOCTYPE svg PUBLIC "-//W3C//DTD SVG 1.1//EN" "http://www.w3.org/Graphics/SVG/1.1/DTD/svg11.dtd"><svg xmlns="http://www.w3.org/2000/svg" viewBox="1072 364 125 202" version = "1.1">
<g id="70902" ><path d="M 1111,365 L 1112,365 L 1112,366 L 1113,366 L 1113,367 L 1114,367 L 1114,368 L 1115,368 L 1115,367 L 1116,367 L 1116,366 L 1116,367 L 1117,367 L 1117,368 L 1118,368 L 1119,369 L 1119,370 L 1120,370 L 1120,371 L 1121,371 L 1121,372 L 1121,373 L 1122,373 L 1122,374 L 1123,375 L 1123,374 L 1124,375 L 1125,375 L 1125,376 L 1126,376 L 1126,377 L 1127,377 L 1128,377 L 1129,378 L 1129,379 L 1130,379 L 1130,380 L 1130,381 L 1129,381 L 1129,382 L 1129,383 L 1129,384 L 1130,384 L 1130,385 L 1130,386 L 1130,387 L 1131,387 L 1131,388 L 1131,389 L 1131,390 L 1131,391 L 1131,392 L 1132,392 L 1132,393 L 1133,394 L 1134,395 L 1135,395 L 1136,395 L 1137,396 L 1138,396 L 1139,397 L 1139,400 L 1140,401 L 1141,403 L 1142,406 L 1143,409 L 1143,411 L 1143,413 L 1145,415 L 1145,417 L 1146,420 L 1146,423 L 1147,426 L 1148,428 L 1153,432 L 1156,437 L 1158,450 L 1159,452 L 1162,454 L 1163,457 L 1163,462 L 1166,465 L 1166,472 L 1167,479 L 1167,484 L 1168,488 L 1167,491 L 1167,492 L 1170,495 L 1170,497 L 1169,500 L 1170,501 L 1170,503 L 1171,504 L 1172,507 L 1173,508 L 1175,509 L 1175,511 L 1175,512 L 1177,514 L 1177,515 L 1176,516 L 1176,518 L 1178,520 L 1179,520 L 1180,521 L 1181,520 L 1183,521 L 1186,523 L 1188,524 L 1189,526 L 1194,530 L 1196,531 L 1197,532 L 1196,532 L 1196,533 L 1196,534 L 1197,534 L 1197,535 L 1196,535 L 1196,536 L 1195,536 L 1195,537 L 1194,537 L 1194,538 L 1193,538 L 1192,539 L 1191,540 L 1190,540 L 1189,540 L 1189,541 L 1188,541 L 1188,542 L 1189,542 L 1190,542 L 1191,542 L 1191,543 L 1191,544 L 1190,544 L 1190,545 L 1189,545 L 1189,546 L 1188,546 L 1188,547 L 1187,547 L 1186,547 L 1186,546 L 1185,547 L 1184,547 L 1184,548 L 1183,548 L 1183,549 L 1182,549 L 1182,550 L 1181,551 L 1180,551 L 1180,552 L 1179,552 L 1179,553 L 1178,553 L 1177,554 L 1177,555 L 1176,556 L 1175,557 L 1174,558 L 1173,559 L 1173,560 L 1172,560 L 1171,561 L 1170,562 L 1170,563 L 1169,564 L 1169,565 L 1168,566 L 1167,566 L 1166,566 L 1165,566 L 1166,565 L 1165,565 L 1165,564 L 1164,564 L 1164,563 L 1165,563 L 1165,562 L 1164,562 L 1164,561 L 1164,560 L 1164,559 L 1163,559 L 1163,558 L 1163,557 L 1164,557 L 1164,556 L 1164,555 L 1163,555 L 1163,554 L 1163,553 L 1163,552 L 1162,551 L 1163,551 L 1162,551 L 1162,550 L 1163,550 L 1162,550 L 1162,549 L 1163,549 L 1162,549 L 1162,548 L 1163,548 L 1163,547 L 1163,546 L 1163,545 L 1163,544 L 1163,543 L 1163,542 L 1164,542 L 1164,541 L 1164,540 L 1164,539 L 1164,538 L 1164,537 L 1164,536 L 1164,535 L 1164,534 L 1163,534 L 1162,533 L 1162,532 L 1162,531 L 1162,530 L 1161,530 L 1161,529 L 1162,528 L 1161,527 L 1162,526 L 1161,525 L 1160,525 L 1160,524 L 1160,523 L 1159,523 L 1159,522 L 1158,522 L 1157,522 L 1157,521 L 1156,520 L 1156,519 L 1156,518 L 1156,517 L 1156,516 L 1156,515 L 1155,514 L 1155,513 L 1154,513 L 1154,512 L 1153,512 L 1153,511 L 1153,510 L 1153,509 L 1152,509 L 1152,508 L 1151,508 L 1151,507 L 1151,506 L 1151,505 L 1150,505 L 1149,505 L 1149,506 L 1149,507 L 1148,507 L 1148,508 L 1148,509 L 1147,509 L 1147,508 L 1146,508 L 1145,508 L 1144,508 L 1143,508 L 1142,508 L 1141,508 L 1140,508 L 1139,508 L 1139,509 L 1138,509 L 1137,509 L 1137,508 L 1136,508 L 1135,508 L 1134,508 L 1134,507 L 1133,507 L 1132,507 L 1132,508 L 1131,508 L 1130,508 L 1129,508 L 1128,508 L 1128,509 L 1127,509 L 1126,509 L 1125,509 L 1125,510 L 1124,510 L 1123,510 L 1123,511 L 1119,513 L 1118,513 L 1117,513 L 1117,514 L 1116,514 L 1115,514 L 1114,514 L 1113,514 L 1112,514 L 1111,514 L 1107,514 L 1106,514 L 1098,510 L 1093,509 L 1089,509 L 1085,508 L 1085,507 L 1084,506 L 1084,505 L 1084,504 L 1083,504 L 1082,504 L 1081,504 L 1080,504 L 1079,504 L 1078,504 L 1077,504 L 1076,503 L 1075,502 L 1074,502 L 1073,500 L 1073,499 L 1073,498 L 1074,498 L 1074,497 L 1073,497 L 1073,496 L 1073,495 L 1072,494 L 1073,494 L 1073,493 L 1073,492 L 1073,491 L 1073,490 L 1072,490 L 1072,489 L 1072,488 L 1072,487 L 1073,487 L 1073,486 L 1073,487 L 1074,487 L 1075,487 L 1075,488 L 1076,488 L 1077,488 L 1078,488 L 1079,488 L 1079,487 L 1078,487 L 1079,487 L 1080,487 L 1080,486 L 1081,486 L 1081,485 L 1082,485 L 1083,484 L 1084,484 L 1084,483 L 1085,483 L 1086,483 L 1086,482 L 1087,482 L 1087,481 L 1088,481 L 1088,480 L 1089,480 L 1090,479 L 1091,478 L 1090,476 L 1089,473 L 1089,468 L 1089,466 L 1089,465 L 1088,461 L 1087,458 L 1086,457 L 1087,457 L 1088,457 L 1088,456 L 1089,456 L 1090,456 L 1091,456 L 1091,457 L 1092,457 L 1093,457 L 1094,458 L 1095,458 L 1096,458 L 1096,459 L 1096,458 L 1096,457 L 1096,456 L 1096,457 L 1095,457 L 1095,456 L 1096,456 L 1096,455 L 1095,455 L 1096,455 L 1096,454 L 1095,454 L 1095,453 L 1094,453 L 1095,453 L 1095,452 L 1094,452 L 1094,451 L 1093,451 L 1093,450 L 1094,450 L 1094,449 L 1094,448 L 1095,448 L 1095,447 L 1096,447 L 1096,446 L 1097,446 L 1098,445 L 1098,444 L 1099,444 L 1099,443 L 1099,442 L 1099,441 L 1100,441 L 1100,440 L 1100,439 L 1100,438 L 1100,437 L 1100,436 L 1100,435 L 1100,434 L 1099,434 L 1099,433 L 1099,432 L 1098,432 L 1098,431 L 1098,430 L 1097,429 L 1097,428 L 1097,427 L 1096,427 L 1096,426 L 1095,425 L 1095,424 L 1095,423 L 1095,422 L 1095,421 L 1095,420 L 1096,420 L 1096,419 L 1096,418 L 1096,417 L 1096,416 L 1097,415 L 1098,415 L 1098,414 L 1099,414 L 1099,413 L 1099,412 L 1100,412 L 1100,411 L 1099,411 L 1099,410 L 1098,409 L 1098,408 L 1097,408 L 1097,407 L 1096,407 L 1096,406 L 1097,405 L 1097,404 L 1098,404 L 1099,403 L 1099,402 L 1099,401 L 1098,401 L 1099,400 L 1099,399 L 1100,399 L 1100,398 L 1101,398 L 1101,397 L 1101,396 L 1100,396 L 1099,396 L 1098,396 L 1098,395 L 1097,395 L 1096,395 L 1096,394 L 1096,393 L 1096,392 L 1097,392 L 1097,391 L 1097,390 L 1097,389 L 1098,388 L 1098,387 L 1098,386 L 1100,384 L 1100,383 L 1100,382 L 1101,381 L 1101,380 L 1102,379 L 1103,378 L 1103,377 L 1103,376 L 1104,376 L 1104,375 L 1104,374 L 1104,373 L 1104,372 L 1104,371 L 1105,371 L 1105,370 L 1106,369 L 1106,368 L 1107,368 L 1107,367 L 1108,367 L 1108,366 L 1108,365 L 1109,365 L 1110,365 L 1110,364 L 1111,365 " /></g>
</svg>
