<?xml version="1.0" standalone="no"?><!DOCTYPE svg PUBLIC "-//W3C//DTD SVG 1.1//EN" "http://www.w3.org/Graphics/SVG/1.1/DTD/svg11.dtd"><svg xmlns="http://www.w3.org/2000/svg" viewBox="1129 365 98 167" version = "1.1">
<g id="70903" ><path d="M 1150,365 L 1151,365 L 1151,366 L 1152,366 L 1152,365 L 1153,365 L 1154,365 L 1155,365 L 1155,366 L 1156,366 L 1157,366 L 1157,367 L 1157,366 L 1158,366 L 1158,367 L 1159,367 L 1160,367 L 1161,367 L 1161,366 L 1162,366 L 1163,366 L 1164,366 L 1164,367 L 1165,367 L 1164,367 L 1164,368 L 1165,369 L 1165,370 L 1166,370 L 1167,370 L 1167,371 L 1167,372 L 1168,372 L 1169,373 L 1169,374 L 1170,374 L 1170,375 L 1171,375 L 1172,375 L 1173,376 L 1173,377 L 1173,378 L 1173,379 L 1173,380 L 1173,381 L 1174,381 L 1173,381 L 1172,381 L 1172,382 L 1171,382 L 1172,382 L 1173,383 L 1174,384 L 1174,385 L 1175,385 L 1175,386 L 1175,385 L 1176,385 L 1176,386 L 1176,387 L 1176,386 L 1177,386 L 1177,387 L 1177,388 L 1178,388 L 1178,387 L 1179,387 L 1179,388 L 1179,389 L 1179,390 L 1180,389 L 1181,389 L 1181,390 L 1181,391 L 1181,392 L 1181,393 L 1181,394 L 1181,395 L 1182,395 L 1182,396 L 1182,397 L 1182,398 L 1181,398 L 1180,399 L 1180,400 L 1181,400 L 1181,401 L 1180,401 L 1179,402 L 1180,403 L 1180,404 L 1180,405 L 1179,405 L 1179,406 L 1178,406 L 1179,407 L 1180,407 L 1180,408 L 1181,408 L 1181,409 L 1182,409 L 1182,410 L 1183,410 L 1184,411 L 1185,412 L 1186,412 L 1186,411 L 1187,411 L 1188,412 L 1188,413 L 1189,413 L 1190,413 L 1191,413 L 1191,414 L 1192,414 L 1192,415 L 1193,415 L 1193,416 L 1194,416 L 1195,416 L 1195,417 L 1195,416 L 1196,416 L 1196,417 L 1197,417 L 1198,417 L 1197,417 L 1197,418 L 1198,418 L 1198,419 L 1198,420 L 1199,420 L 1199,421 L 1199,422 L 1199,423 L 1200,424 L 1200,425 L 1199,425 L 1199,424 L 1199,425 L 1200,425 L 1200,426 L 1199,426 L 1200,426 L 1200,427 L 1200,428 L 1201,428 L 1202,428 L 1202,429 L 1202,430 L 1203,430 L 1204,430 L 1204,431 L 1204,432 L 1205,432 L 1205,433 L 1206,433 L 1206,434 L 1205,434 L 1206,434 L 1206,435 L 1206,436 L 1207,436 L 1207,437 L 1208,437 L 1208,438 L 1208,439 L 1208,440 L 1209,440 L 1209,441 L 1210,441 L 1210,442 L 1211,442 L 1212,442 L 1212,443 L 1212,444 L 1213,444 L 1213,445 L 1214,445 L 1214,446 L 1214,447 L 1215,447 L 1216,447 L 1216,448 L 1216,449 L 1217,449 L 1218,450 L 1218,451 L 1219,451 L 1218,451 L 1218,452 L 1219,452 L 1220,453 L 1220,454 L 1220,455 L 1219,456 L 1220,456 L 1219,456 L 1219,457 L 1220,457 L 1220,458 L 1221,458 L 1221,459 L 1221,458 L 1222,458 L 1222,459 L 1222,460 L 1223,460 L 1223,461 L 1222,461 L 1222,462 L 1223,462 L 1223,463 L 1224,463 L 1224,464 L 1225,464 L 1225,465 L 1226,465 L 1226,466 L 1226,467 L 1226,468 L 1226,469 L 1227,470 L 1227,471 L 1226,472 L 1225,473 L 1224,474 L 1223,474 L 1222,474 L 1219,478 L 1217,481 L 1216,481 L 1215,482 L 1215,484 L 1215,485 L 1215,486 L 1215,487 L 1214,487 L 1214,488 L 1215,488 L 1215,489 L 1214,490 L 1213,490 L 1213,491 L 1213,494 L 1212,495 L 1212,496 L 1212,497 L 1214,497 L 1215,497 L 1215,498 L 1214,499 L 1213,500 L 1213,501 L 1214,502 L 1213,503 L 1212,506 L 1211,507 L 1210,508 L 1210,509 L 1209,509 L 1208,509 L 1207,509 L 1207,508 L 1206,508 L 1205,508 L 1204,508 L 1203,508 L 1202,508 L 1201,508 L 1200,508 L 1199,508 L 1198,507 L 1197,507 L 1197,508 L 1197,509 L 1196,509 L 1195,510 L 1196,510 L 1197,510 L 1196,510 L 1195,510 L 1195,511 L 1196,511 L 1196,512 L 1197,512 L 1196,512 L 1196,513 L 1195,513 L 1195,514 L 1196,514 L 1196,513 L 1196,514 L 1195,514 L 1196,514 L 1196,515 L 1195,515 L 1195,516 L 1194,516 L 1195,516 L 1195,517 L 1195,518 L 1194,518 L 1194,519 L 1195,519 L 1196,519 L 1197,519 L 1197,520 L 1197,521 L 1198,521 L 1198,522 L 1198,523 L 1197,523 L 1198,523 L 1197,523 L 1197,524 L 1197,525 L 1197,526 L 1198,526 L 1198,527 L 1198,528 L 1198,529 L 1198,530 L 1199,531 L 1198,531 L 1197,531 L 1197,532 L 1196,531 L 1194,530 L 1189,526 L 1188,524 L 1186,523 L 1183,521 L 1181,520 L 1180,521 L 1179,520 L 1178,520 L 1176,518 L 1176,516 L 1177,515 L 1177,514 L 1175,512 L 1175,511 L 1175,509 L 1173,508 L 1172,507 L 1171,504 L 1170,503 L 1170,501 L 1169,500 L 1170,497 L 1170,495 L 1167,492 L 1167,491 L 1168,488 L 1167,484 L 1167,479 L 1166,472 L 1166,465 L 1163,462 L 1163,457 L 1162,454 L 1159,452 L 1158,450 L 1156,437 L 1153,432 L 1148,428 L 1147,426 L 1146,423 L 1146,420 L 1145,417 L 1145,415 L 1143,413 L 1143,411 L 1143,409 L 1142,406 L 1141,403 L 1140,401 L 1139,400 L 1139,397 L 1138,396 L 1137,396 L 1136,395 L 1135,395 L 1134,395 L 1133,394 L 1132,393 L 1132,392 L 1131,392 L 1131,391 L 1131,390 L 1131,389 L 1131,388 L 1131,387 L 1130,387 L 1130,386 L 1130,385 L 1130,384 L 1129,384 L 1129,383 L 1129,382 L 1129,381 L 1130,381 L 1130,380 L 1130,379 L 1131,379 L 1131,378 L 1132,378 L 1132,377 L 1133,377 L 1133,376 L 1133,375 L 1133,374 L 1133,373 L 1132,372 L 1132,371 L 1132,370 L 1133,370 L 1133,371 L 1134,371 L 1135,371 L 1135,372 L 1136,372 L 1137,372 L 1137,373 L 1138,373 L 1139,373 L 1140,373 L 1141,373 L 1142,373 L 1142,372 L 1143,372 L 1143,371 L 1143,370 L 1144,370 L 1144,369 L 1145,369 L 1146,369 L 1146,368 L 1147,367 L 1147,366 L 1148,365 L 1149,365 L 1150,365 " /></g>
</svg>
