<?xml version="1.0" standalone="no"?><!DOCTYPE svg PUBLIC "-//W3C//DTD SVG 1.1//EN" "http://www.w3.org/Graphics/SVG/1.1/DTD/svg11.dtd"><svg xmlns="http://www.w3.org/2000/svg" viewBox="1104 -207 339 309" version = "1.1">
<g id="71005" ><path d="M 1178,-207 L 1178,-206 L 1179,-206 L 1179,-205 L 1179,-204 L 1180,-204 L 1180,-203 L 1181,-203 L 1181,-202 L 1182,-202 L 1182,-201 L 1182,-200 L 1183,-200 L 1183,-199 L 1184,-199 L 1184,-198 L 1184,-197 L 1183,-197 L 1183,-196 L 1183,-195 L 1184,-195 L 1184,-194 L 1185,-194 L 1185,-193 L 1185,-192 L 1186,-192 L 1187,-192 L 1188,-192 L 1188,-191 L 1189,-191 L 1190,-191 L 1190,-192 L 1191,-191 L 1191,-190 L 1192,-190 L 1192,-189 L 1193,-189 L 1193,-188 L 1193,-187 L 1194,-187 L 1194,-186 L 1195,-186 L 1195,-187 L 1195,-186 L 1196,-186 L 1197,-186 L 1198,-186 L 1198,-185 L 1199,-185 L 1200,-185 L 1200,-186 L 1201,-186 L 1202,-186 L 1203,-186 L 1203,-187 L 1203,-186 L 1204,-186 L 1204,-185 L 1205,-185 L 1205,-184 L 1205,-183 L 1206,-183 L 1206,-182 L 1207,-181 L 1208,-180 L 1208,-179 L 1208,-178 L 1207,-178 L 1207,-177 L 1208,-177 L 1209,-177 L 1209,-176 L 1210,-176 L 1210,-177 L 1211,-177 L 1212,-177 L 1212,-176 L 1213,-176 L 1213,-177 L 1214,-177 L 1215,-177 L 1216,-177 L 1216,-176 L 1217,-176 L 1217,-175 L 1217,-174 L 1217,-173 L 1218,-173 L 1219,-173 L 1219,-172 L 1220,-172 L 1221,-172 L 1222,-172 L 1223,-172 L 1223,-171 L 1224,-171 L 1224,-170 L 1225,-170 L 1226,-170 L 1226,-169 L 1227,-169 L 1228,-168 L 1228,-167 L 1229,-167 L 1230,-166 L 1231,-166 L 1231,-165 L 1232,-165 L 1232,-164 L 1233,-164 L 1234,-164 L 1235,-164 L 1236,-164 L 1237,-164 L 1237,-163 L 1237,-162 L 1238,-162 L 1238,-161 L 1237,-161 L 1237,-160 L 1238,-160 L 1238,-159 L 1237,-159 L 1238,-158 L 1238,-159 L 1239,-159 L 1239,-160 L 1240,-160 L 1240,-159 L 1239,-159 L 1240,-159 L 1240,-158 L 1241,-158 L 1241,-159 L 1240,-159 L 1241,-159 L 1241,-160 L 1242,-160 L 1242,-161 L 1243,-161 L 1244,-160 L 1245,-160 L 1245,-159 L 1245,-158 L 1246,-158 L 1246,-157 L 1247,-157 L 1247,-158 L 1247,-159 L 1248,-159 L 1249,-159 L 1250,-159 L 1250,-160 L 1251,-160 L 1251,-159 L 1252,-159 L 1253,-159 L 1254,-159 L 1254,-158 L 1255,-157 L 1256,-157 L 1256,-158 L 1257,-158 L 1257,-159 L 1258,-159 L 1259,-159 L 1260,-159 L 1261,-159 L 1262,-159 L 1263,-158 L 1264,-158 L 1265,-157 L 1266,-157 L 1267,-157 L 1267,-158 L 1268,-158 L 1268,-157 L 1269,-156 L 1270,-155 L 1270,-154 L 1271,-153 L 1272,-152 L 1272,-151 L 1272,-150 L 1273,-150 L 1273,-149 L 1274,-149 L 1275,-149 L 1275,-148 L 1276,-148 L 1276,-147 L 1277,-147 L 1277,-146 L 1277,-145 L 1278,-145 L 1278,-144 L 1279,-144 L 1279,-143 L 1280,-143 L 1280,-142 L 1281,-142 L 1281,-141 L 1282,-141 L 1283,-141 L 1283,-142 L 1284,-142 L 1285,-142 L 1286,-142 L 1287,-141 L 1288,-140 L 1288,-139 L 1288,-138 L 1289,-138 L 1290,-138 L 1291,-138 L 1292,-138 L 1292,-137 L 1293,-137 L 1293,-136 L 1294,-135 L 1294,-134 L 1295,-133 L 1295,-132 L 1296,-132 L 1297,-132 L 1298,-132 L 1298,-133 L 1299,-133 L 1300,-132 L 1299,-132 L 1299,-131 L 1299,-130 L 1299,-129 L 1300,-129 L 1301,-129 L 1301,-130 L 1301,-131 L 1301,-132 L 1301,-133 L 1302,-133 L 1302,-132 L 1303,-132 L 1303,-131 L 1304,-131 L 1304,-130 L 1304,-129 L 1304,-128 L 1305,-127 L 1306,-126 L 1307,-125 L 1307,-124 L 1308,-123 L 1308,-122 L 1309,-121 L 1309,-120 L 1310,-120 L 1310,-119 L 1310,-118 L 1311,-118 L 1312,-118 L 1312,-117 L 1313,-117 L 1313,-116 L 1314,-116 L 1315,-116 L 1316,-115 L 1317,-115 L 1317,-116 L 1318,-116 L 1319,-116 L 1320,-116 L 1320,-115 L 1321,-115 L 1322,-115 L 1322,-116 L 1323,-116 L 1324,-116 L 1324,-115 L 1325,-115 L 1326,-116 L 1327,-116 L 1327,-117 L 1328,-117 L 1329,-117 L 1329,-116 L 1330,-116 L 1331,-115 L 1332,-115 L 1333,-115 L 1333,-114 L 1334,-114 L 1334,-113 L 1334,-112 L 1334,-111 L 1335,-111 L 1336,-111 L 1336,-110 L 1336,-109 L 1336,-108 L 1336,-107 L 1337,-106 L 1337,-105 L 1337,-104 L 1337,-103 L 1338,-103 L 1339,-103 L 1340,-102 L 1339,-102 L 1339,-101 L 1338,-101 L 1338,-100 L 1339,-100 L 1340,-100 L 1340,-99 L 1340,-98 L 1340,-97 L 1341,-97 L 1341,-96 L 1342,-96 L 1342,-97 L 1342,-98 L 1343,-98 L 1343,-97 L 1344,-97 L 1343,-96 L 1343,-95 L 1344,-95 L 1345,-94 L 1345,-93 L 1345,-92 L 1346,-92 L 1347,-92 L 1348,-92 L 1348,-93 L 1349,-93 L 1349,-92 L 1348,-92 L 1347,-91 L 1347,-90 L 1348,-90 L 1349,-90 L 1350,-90 L 1350,-91 L 1350,-92 L 1351,-92 L 1351,-91 L 1352,-91 L 1353,-91 L 1354,-92 L 1355,-91 L 1355,-90 L 1355,-89 L 1356,-89 L 1356,-90 L 1357,-90 L 1358,-90 L 1358,-89 L 1358,-88 L 1359,-88 L 1360,-89 L 1361,-89 L 1361,-88 L 1361,-87 L 1362,-86 L 1362,-85 L 1363,-85 L 1364,-85 L 1364,-84 L 1363,-84 L 1363,-85 L 1363,-84 L 1362,-84 L 1362,-83 L 1362,-82 L 1362,-81 L 1363,-80 L 1363,-81 L 1363,-82 L 1364,-82 L 1364,-83 L 1365,-83 L 1365,-84 L 1366,-84 L 1366,-83 L 1366,-82 L 1365,-81 L 1365,-80 L 1364,-80 L 1364,-79 L 1364,-78 L 1364,-77 L 1365,-76 L 1365,-75 L 1366,-75 L 1366,-74 L 1366,-73 L 1367,-72 L 1366,-72 L 1365,-72 L 1364,-72 L 1364,-71 L 1364,-70 L 1365,-68 L 1365,-67 L 1366,-67 L 1366,-66 L 1365,-66 L 1365,-65 L 1365,-64 L 1365,-63 L 1364,-63 L 1364,-62 L 1364,-61 L 1365,-61 L 1365,-60 L 1365,-59 L 1365,-58 L 1366,-58 L 1366,-57 L 1366,-56 L 1365,-55 L 1365,-54 L 1364,-54 L 1364,-53 L 1365,-53 L 1365,-52 L 1366,-52 L 1366,-51 L 1365,-51 L 1365,-50 L 1364,-50 L 1365,-50 L 1366,-50 L 1366,-49 L 1367,-49 L 1367,-50 L 1367,-49 L 1368,-49 L 1369,-49 L 1370,-49 L 1369,-49 L 1369,-48 L 1370,-48 L 1371,-48 L 1372,-48 L 1373,-48 L 1373,-47 L 1374,-47 L 1375,-47 L 1376,-47 L 1377,-47 L 1378,-47 L 1378,-46 L 1378,-45 L 1379,-45 L 1378,-45 L 1377,-45 L 1376,-44 L 1375,-44 L 1375,-43 L 1376,-43 L 1376,-42 L 1376,-43 L 1377,-43 L 1378,-42 L 1378,-41 L 1379,-41 L 1380,-40 L 1381,-40 L 1382,-40 L 1383,-40 L 1384,-40 L 1384,-39 L 1384,-38 L 1383,-37 L 1383,-36 L 1384,-36 L 1385,-36 L 1386,-36 L 1386,-35 L 1387,-35 L 1387,-34 L 1386,-34 L 1386,-33 L 1386,-32 L 1386,-31 L 1385,-31 L 1386,-31 L 1387,-31 L 1387,-30 L 1388,-29 L 1388,-28 L 1387,-28 L 1387,-27 L 1388,-27 L 1388,-26 L 1389,-26 L 1390,-26 L 1390,-25 L 1390,-24 L 1391,-23 L 1392,-23 L 1392,-24 L 1393,-24 L 1394,-24 L 1394,-23 L 1394,-22 L 1394,-21 L 1395,-21 L 1396,-21 L 1397,-21 L 1397,-20 L 1398,-20 L 1399,-19 L 1400,-19 L 1401,-19 L 1401,-20 L 1402,-20 L 1402,-19 L 1403,-19 L 1403,-18 L 1404,-17 L 1404,-16 L 1405,-16 L 1405,-15 L 1406,-15 L 1406,-14 L 1406,-13 L 1407,-13 L 1407,-14 L 1408,-14 L 1408,-13 L 1408,-12 L 1407,-12 L 1408,-12 L 1408,-11 L 1407,-11 L 1406,-11 L 1406,-10 L 1407,-10 L 1407,-9 L 1408,-9 L 1408,-8 L 1409,-8 L 1408,-7 L 1407,-7 L 1406,-7 L 1406,-6 L 1405,-6 L 1404,-6 L 1403,-6 L 1403,-5 L 1404,-5 L 1405,-5 L 1406,-5 L 1407,-5 L 1408,-6 L 1409,-6 L 1410,-6 L 1411,-6 L 1412,-6 L 1412,-7 L 1413,-7 L 1413,-6 L 1414,-5 L 1415,-6 L 1416,-7 L 1416,-6 L 1417,-6 L 1417,-5 L 1418,-5 L 1418,-4 L 1419,-4 L 1419,-3 L 1418,-3 L 1417,-3 L 1416,-3 L 1417,-2 L 1417,-1 L 1418,-1 L 1418,-2 L 1419,-2 L 1419,-1 L 1420,0 L 1421,0 L 1421,-1 L 1421,-2 L 1422,-3 L 1423,-3 L 1424,-3 L 1425,-3 L 1425,-4 L 1426,-4 L 1426,-3 L 1426,-2 L 1426,-1 L 1427,-1 L 1428,-1 L 1429,-1 L 1429,0 L 1430,0 L 1431,1 L 1431,2 L 1432,3 L 1433,4 L 1434,4 L 1434,3 L 1434,2 L 1433,2 L 1433,1 L 1434,1 L 1435,1 L 1436,1 L 1436,2 L 1437,3 L 1437,4 L 1437,5 L 1438,5 L 1438,6 L 1439,6 L 1439,7 L 1440,7 L 1441,7 L 1441,6 L 1442,6 L 1442,7 L 1441,8 L 1441,9 L 1441,10 L 1442,10 L 1442,11 L 1443,11 L 1441,26 L 1437,34 L 1423,51 L 1423,50 L 1423,49 L 1423,48 L 1422,48 L 1423,47 L 1423,46 L 1422,46 L 1422,45 L 1421,45 L 1421,46 L 1421,47 L 1420,47 L 1419,47 L 1418,47 L 1417,47 L 1417,46 L 1417,45 L 1418,45 L 1417,44 L 1416,45 L 1415,45 L 1415,44 L 1416,44 L 1416,43 L 1415,42 L 1414,42 L 1414,41 L 1413,41 L 1413,42 L 1412,42 L 1412,41 L 1413,41 L 1413,40 L 1406,46 L 1407,74 L 1403,81 L 1396,95 L 1368,102 L 1368,101 L 1367,101 L 1366,101 L 1366,100 L 1365,100 L 1364,100 L 1364,99 L 1363,99 L 1363,98 L 1362,98 L 1361,98 L 1361,97 L 1360,97 L 1359,97 L 1359,96 L 1358,96 L 1358,95 L 1358,94 L 1359,94 L 1359,93 L 1359,92 L 1359,91 L 1360,90 L 1360,89 L 1360,88 L 1359,87 L 1359,86 L 1358,86 L 1358,85 L 1358,84 L 1358,83 L 1358,82 L 1358,81 L 1358,80 L 1358,79 L 1357,79 L 1358,79 L 1358,78 L 1357,78 L 1358,77 L 1358,76 L 1358,75 L 1357,75 L 1356,75 L 1356,74 L 1355,74 L 1355,73 L 1355,72 L 1354,72 L 1354,71 L 1353,71 L 1352,71 L 1353,70 L 1353,69 L 1353,70 L 1352,70 L 1351,70 L 1350,70 L 1350,69 L 1349,69 L 1348,68 L 1349,68 L 1349,67 L 1348,67 L 1347,67 L 1347,66 L 1347,65 L 1346,64 L 1347,64 L 1348,64 L 1347,63 L 1346,63 L 1345,63 L 1345,62 L 1345,61 L 1345,62 L 1344,62 L 1344,61 L 1343,61 L 1342,62 L 1342,61 L 1341,61 L 1341,60 L 1340,60 L 1340,59 L 1340,58 L 1339,58 L 1338,57 L 1337,57 L 1337,56 L 1336,56 L 1335,55 L 1334,55 L 1333,55 L 1333,56 L 1333,55 L 1333,54 L 1332,54 L 1331,54 L 1331,53 L 1330,53 L 1329,53 L 1328,52 L 1327,52 L 1327,51 L 1326,51 L 1326,50 L 1325,50 L 1324,50 L 1324,49 L 1323,49 L 1323,48 L 1322,48 L 1323,47 L 1323,46 L 1322,46 L 1321,46 L 1321,45 L 1321,44 L 1320,43 L 1320,42 L 1319,42 L 1319,41 L 1318,41 L 1318,40 L 1318,39 L 1318,38 L 1317,37 L 1318,37 L 1318,36 L 1318,35 L 1318,34 L 1317,34 L 1316,34 L 1315,33 L 1314,33 L 1314,32 L 1314,31 L 1314,30 L 1313,30 L 1313,29 L 1312,28 L 1312,27 L 1311,27 L 1311,28 L 1310,28 L 1310,27 L 1309,27 L 1308,27 L 1308,26 L 1307,26 L 1307,25 L 1307,24 L 1307,23 L 1306,23 L 1306,22 L 1305,22 L 1304,22 L 1304,21 L 1303,21 L 1303,20 L 1302,20 L 1302,19 L 1302,18 L 1303,17 L 1303,16 L 1303,15 L 1302,15 L 1303,14 L 1304,13 L 1303,13 L 1303,12 L 1303,11 L 1302,11 L 1302,12 L 1301,11 L 1300,10 L 1299,10 L 1298,10 L 1298,11 L 1297,11 L 1297,12 L 1296,12 L 1296,13 L 1295,13 L 1295,14 L 1294,14 L 1293,14 L 1292,14 L 1291,14 L 1292,14 L 1292,13 L 1291,13 L 1290,13 L 1289,13 L 1289,14 L 1288,14 L 1288,13 L 1287,13 L 1287,12 L 1286,12 L 1286,11 L 1286,10 L 1286,9 L 1286,8 L 1286,7 L 1286,6 L 1285,6 L 1285,5 L 1286,5 L 1286,4 L 1285,4 L 1286,3 L 1287,4 L 1287,3 L 1287,2 L 1286,2 L 1287,2 L 1287,1 L 1287,0 L 1287,-1 L 1288,-1 L 1288,0 L 1288,-1 L 1288,-2 L 1289,-2 L 1288,-3 L 1288,-4 L 1287,-4 L 1286,-4 L 1285,-4 L 1285,-5 L 1285,-4 L 1284,-4 L 1284,-5 L 1283,-5 L 1283,-6 L 1283,-7 L 1282,-7 L 1281,-7 L 1281,-8 L 1281,-9 L 1280,-9 L 1280,-10 L 1279,-10 L 1278,-10 L 1278,-11 L 1279,-11 L 1279,-12 L 1280,-12 L 1281,-13 L 1281,-14 L 1282,-14 L 1282,-15 L 1283,-16 L 1283,-17 L 1282,-17 L 1282,-18 L 1283,-19 L 1282,-19 L 1282,-20 L 1282,-21 L 1282,-22 L 1283,-22 L 1282,-22 L 1282,-21 L 1283,-21 L 1283,-22 L 1283,-23 L 1283,-22 L 1282,-22 L 1281,-22 L 1281,-23 L 1280,-23 L 1279,-23 L 1279,-24 L 1278,-25 L 1279,-25 L 1279,-26 L 1279,-27 L 1280,-28 L 1279,-28 L 1278,-28 L 1278,-27 L 1278,-26 L 1277,-26 L 1277,-27 L 1277,-28 L 1277,-29 L 1278,-29 L 1277,-29 L 1277,-30 L 1276,-30 L 1276,-31 L 1275,-31 L 1275,-30 L 1275,-29 L 1275,-28 L 1274,-28 L 1274,-29 L 1273,-30 L 1272,-30 L 1272,-31 L 1273,-31 L 1274,-31 L 1274,-30 L 1274,-31 L 1274,-32 L 1273,-32 L 1273,-33 L 1273,-32 L 1273,-31 L 1272,-31 L 1271,-31 L 1271,-32 L 1271,-33 L 1272,-33 L 1273,-33 L 1273,-34 L 1272,-34 L 1272,-35 L 1271,-34 L 1271,-33 L 1270,-33 L 1269,-33 L 1269,-34 L 1270,-34 L 1270,-35 L 1271,-35 L 1270,-35 L 1270,-36 L 1269,-37 L 1269,-38 L 1268,-38 L 1268,-37 L 1267,-37 L 1266,-37 L 1266,-38 L 1266,-39 L 1265,-39 L 1264,-39 L 1263,-39 L 1263,-40 L 1263,-41 L 1263,-40 L 1262,-40 L 1262,-39 L 1263,-39 L 1263,-38 L 1262,-37 L 1261,-37 L 1261,-38 L 1260,-38 L 1259,-37 L 1258,-37 L 1259,-36 L 1259,-37 L 1259,-36 L 1260,-36 L 1259,-36 L 1259,-35 L 1259,-36 L 1258,-36 L 1257,-36 L 1256,-36 L 1255,-36 L 1254,-36 L 1254,-37 L 1253,-37 L 1252,-37 L 1252,-38 L 1251,-38 L 1251,-39 L 1250,-39 L 1249,-38 L 1249,-39 L 1248,-39 L 1248,-40 L 1247,-40 L 1247,-41 L 1246,-40 L 1245,-40 L 1245,-39 L 1244,-39 L 1243,-39 L 1242,-39 L 1241,-39 L 1241,-40 L 1240,-40 L 1239,-40 L 1239,-41 L 1238,-41 L 1238,-42 L 1238,-43 L 1237,-43 L 1237,-44 L 1237,-45 L 1237,-46 L 1237,-47 L 1237,-48 L 1238,-48 L 1238,-49 L 1238,-50 L 1237,-50 L 1237,-51 L 1236,-51 L 1235,-51 L 1234,-51 L 1234,-52 L 1233,-52 L 1233,-53 L 1233,-52 L 1232,-52 L 1232,-53 L 1231,-53 L 1231,-54 L 1230,-54 L 1231,-54 L 1231,-55 L 1231,-56 L 1230,-56 L 1230,-57 L 1231,-57 L 1232,-57 L 1233,-57 L 1234,-57 L 1234,-58 L 1233,-58 L 1232,-59 L 1232,-60 L 1231,-60 L 1232,-61 L 1232,-60 L 1233,-60 L 1233,-61 L 1234,-61 L 1234,-60 L 1234,-59 L 1235,-59 L 1235,-58 L 1236,-58 L 1236,-59 L 1237,-59 L 1237,-60 L 1238,-60 L 1239,-60 L 1240,-60 L 1240,-61 L 1241,-61 L 1241,-62 L 1242,-62 L 1242,-63 L 1243,-63 L 1244,-63 L 1245,-63 L 1246,-63 L 1246,-62 L 1247,-62 L 1247,-61 L 1247,-60 L 1248,-59 L 1248,-58 L 1249,-58 L 1250,-58 L 1251,-58 L 1251,-59 L 1252,-59 L 1251,-59 L 1251,-60 L 1250,-60 L 1250,-61 L 1249,-62 L 1249,-63 L 1248,-63 L 1248,-64 L 1248,-63 L 1247,-63 L 1246,-65 L 1245,-65 L 1245,-66 L 1246,-66 L 1246,-67 L 1247,-68 L 1248,-68 L 1248,-69 L 1247,-69 L 1246,-69 L 1246,-70 L 1246,-71 L 1247,-71 L 1247,-72 L 1248,-72 L 1248,-73 L 1248,-74 L 1247,-74 L 1247,-75 L 1246,-76 L 1246,-75 L 1246,-74 L 1245,-74 L 1244,-75 L 1243,-75 L 1243,-76 L 1244,-76 L 1244,-77 L 1244,-78 L 1243,-78 L 1242,-78 L 1242,-79 L 1241,-79 L 1240,-79 L 1240,-80 L 1241,-80 L 1242,-80 L 1243,-80 L 1243,-81 L 1242,-81 L 1242,-82 L 1243,-82 L 1243,-81 L 1244,-82 L 1243,-82 L 1243,-83 L 1243,-84 L 1244,-84 L 1244,-85 L 1243,-85 L 1242,-85 L 1242,-84 L 1241,-84 L 1241,-85 L 1241,-86 L 1241,-87 L 1242,-87 L 1242,-88 L 1243,-88 L 1242,-88 L 1242,-89 L 1243,-89 L 1243,-90 L 1242,-90 L 1242,-91 L 1241,-91 L 1240,-91 L 1240,-92 L 1239,-92 L 1238,-92 L 1238,-93 L 1237,-93 L 1236,-93 L 1236,-94 L 1237,-94 L 1238,-94 L 1238,-95 L 1239,-95 L 1240,-95 L 1240,-96 L 1241,-96 L 1241,-97 L 1242,-97 L 1241,-97 L 1240,-97 L 1239,-97 L 1238,-97 L 1237,-97 L 1237,-98 L 1236,-98 L 1236,-97 L 1237,-97 L 1237,-96 L 1236,-96 L 1235,-96 L 1234,-96 L 1234,-95 L 1234,-96 L 1233,-96 L 1232,-96 L 1232,-97 L 1232,-98 L 1232,-99 L 1232,-100 L 1233,-100 L 1233,-101 L 1232,-101 L 1233,-101 L 1233,-102 L 1233,-103 L 1233,-104 L 1232,-104 L 1231,-104 L 1232,-104 L 1232,-105 L 1231,-105 L 1231,-104 L 1231,-105 L 1230,-105 L 1229,-105 L 1229,-104 L 1229,-103 L 1230,-103 L 1230,-102 L 1229,-102 L 1229,-103 L 1229,-104 L 1228,-104 L 1227,-104 L 1227,-103 L 1226,-102 L 1227,-102 L 1227,-101 L 1226,-101 L 1226,-102 L 1225,-102 L 1224,-102 L 1224,-103 L 1223,-103 L 1223,-104 L 1222,-104 L 1222,-105 L 1221,-105 L 1222,-105 L 1223,-105 L 1223,-106 L 1223,-107 L 1224,-107 L 1224,-108 L 1223,-108 L 1222,-107 L 1221,-107 L 1220,-107 L 1219,-107 L 1219,-106 L 1218,-106 L 1218,-107 L 1217,-107 L 1216,-107 L 1215,-107 L 1216,-108 L 1217,-108 L 1217,-109 L 1217,-110 L 1218,-110 L 1217,-110 L 1216,-109 L 1215,-109 L 1215,-108 L 1214,-108 L 1214,-109 L 1215,-110 L 1216,-111 L 1217,-112 L 1216,-112 L 1216,-113 L 1216,-114 L 1215,-114 L 1214,-114 L 1214,-115 L 1214,-116 L 1215,-115 L 1215,-116 L 1216,-116 L 1217,-116 L 1217,-117 L 1216,-117 L 1215,-117 L 1215,-118 L 1216,-118 L 1217,-118 L 1218,-118 L 1217,-118 L 1217,-119 L 1217,-120 L 1216,-120 L 1216,-119 L 1215,-119 L 1215,-120 L 1214,-120 L 1213,-120 L 1213,-119 L 1214,-119 L 1213,-119 L 1213,-120 L 1213,-121 L 1212,-121 L 1212,-122 L 1213,-122 L 1214,-122 L 1215,-122 L 1215,-123 L 1214,-123 L 1213,-123 L 1213,-124 L 1213,-123 L 1212,-123 L 1212,-124 L 1213,-125 L 1213,-126 L 1212,-126 L 1211,-126 L 1211,-125 L 1210,-125 L 1210,-124 L 1209,-124 L 1209,-123 L 1208,-123 L 1208,-124 L 1208,-125 L 1207,-125 L 1207,-126 L 1206,-126 L 1206,-127 L 1206,-128 L 1207,-128 L 1207,-129 L 1207,-130 L 1206,-130 L 1206,-129 L 1205,-129 L 1206,-130 L 1205,-130 L 1205,-129 L 1204,-129 L 1204,-130 L 1204,-131 L 1205,-131 L 1206,-131 L 1207,-131 L 1206,-131 L 1206,-132 L 1207,-132 L 1207,-131 L 1207,-132 L 1208,-132 L 1208,-133 L 1209,-133 L 1210,-133 L 1210,-134 L 1209,-135 L 1209,-134 L 1208,-134 L 1208,-135 L 1207,-135 L 1208,-135 L 1208,-136 L 1207,-136 L 1207,-135 L 1206,-135 L 1206,-136 L 1205,-136 L 1205,-135 L 1204,-135 L 1204,-136 L 1203,-136 L 1203,-137 L 1204,-137 L 1205,-137 L 1205,-138 L 1204,-138 L 1203,-138 L 1203,-137 L 1202,-137 L 1202,-138 L 1203,-138 L 1203,-139 L 1204,-139 L 1204,-140 L 1204,-141 L 1203,-141 L 1203,-140 L 1203,-139 L 1202,-139 L 1202,-140 L 1201,-140 L 1200,-139 L 1201,-139 L 1200,-139 L 1199,-139 L 1199,-140 L 1198,-140 L 1198,-141 L 1197,-141 L 1197,-142 L 1198,-142 L 1198,-143 L 1197,-143 L 1197,-144 L 1198,-144 L 1199,-144 L 1198,-144 L 1198,-145 L 1197,-145 L 1196,-145 L 1196,-146 L 1195,-146 L 1195,-145 L 1194,-145 L 1194,-146 L 1195,-146 L 1194,-146 L 1193,-147 L 1192,-147 L 1193,-147 L 1193,-148 L 1192,-148 L 1192,-149 L 1193,-149 L 1193,-150 L 1194,-150 L 1194,-151 L 1194,-152 L 1193,-152 L 1193,-153 L 1192,-153 L 1191,-153 L 1192,-153 L 1192,-154 L 1192,-155 L 1191,-155 L 1191,-154 L 1190,-154 L 1190,-155 L 1191,-155 L 1192,-155 L 1193,-155 L 1193,-156 L 1192,-156 L 1191,-156 L 1191,-157 L 1190,-157 L 1189,-157 L 1189,-158 L 1190,-158 L 1190,-159 L 1189,-159 L 1188,-159 L 1188,-160 L 1188,-161 L 1188,-160 L 1188,-159 L 1187,-159 L 1186,-159 L 1186,-158 L 1186,-159 L 1186,-160 L 1186,-161 L 1186,-162 L 1185,-161 L 1184,-161 L 1184,-160 L 1183,-160 L 1183,-161 L 1184,-161 L 1184,-162 L 1184,-163 L 1185,-164 L 1184,-164 L 1183,-164 L 1183,-163 L 1182,-163 L 1182,-164 L 1183,-164 L 1183,-165 L 1182,-165 L 1183,-165 L 1183,-166 L 1183,-167 L 1182,-167 L 1181,-167 L 1180,-167 L 1180,-168 L 1179,-167 L 1180,-167 L 1180,-166 L 1180,-165 L 1179,-165 L 1178,-165 L 1178,-164 L 1179,-164 L 1179,-163 L 1178,-163 L 1178,-162 L 1178,-161 L 1177,-161 L 1176,-162 L 1176,-163 L 1176,-162 L 1175,-162 L 1175,-163 L 1174,-163 L 1173,-163 L 1173,-164 L 1173,-165 L 1173,-166 L 1174,-166 L 1174,-167 L 1173,-167 L 1173,-166 L 1173,-167 L 1173,-168 L 1172,-168 L 1171,-168 L 1170,-168 L 1170,-167 L 1171,-167 L 1171,-166 L 1172,-166 L 1172,-165 L 1173,-165 L 1173,-164 L 1172,-164 L 1171,-164 L 1171,-165 L 1171,-164 L 1170,-163 L 1170,-164 L 1169,-164 L 1169,-165 L 1170,-165 L 1170,-166 L 1169,-166 L 1169,-167 L 1169,-168 L 1168,-168 L 1168,-169 L 1167,-169 L 1167,-170 L 1167,-171 L 1167,-172 L 1166,-172 L 1165,-172 L 1166,-172 L 1166,-173 L 1166,-174 L 1166,-175 L 1165,-175 L 1164,-175 L 1164,-176 L 1165,-176 L 1165,-177 L 1164,-177 L 1163,-177 L 1162,-177 L 1161,-177 L 1160,-176 L 1159,-175 L 1159,-176 L 1159,-177 L 1159,-178 L 1160,-178 L 1160,-179 L 1159,-179 L 1159,-180 L 1160,-180 L 1161,-181 L 1160,-181 L 1159,-181 L 1158,-181 L 1158,-180 L 1158,-181 L 1158,-182 L 1159,-182 L 1160,-182 L 1160,-183 L 1159,-183 L 1159,-184 L 1158,-184 L 1158,-183 L 1157,-183 L 1157,-184 L 1157,-185 L 1156,-185 L 1156,-184 L 1156,-183 L 1157,-183 L 1156,-183 L 1155,-183 L 1154,-183 L 1154,-184 L 1153,-184 L 1153,-185 L 1153,-186 L 1153,-187 L 1154,-187 L 1154,-188 L 1153,-188 L 1153,-187 L 1152,-187 L 1152,-188 L 1153,-188 L 1153,-189 L 1152,-189 L 1151,-189 L 1151,-190 L 1150,-190 L 1150,-189 L 1151,-189 L 1151,-188 L 1150,-188 L 1149,-188 L 1148,-188 L 1147,-189 L 1146,-189 L 1145,-188 L 1145,-187 L 1144,-187 L 1143,-187 L 1143,-186 L 1143,-185 L 1142,-185 L 1141,-185 L 1141,-186 L 1141,-187 L 1140,-187 L 1140,-186 L 1140,-185 L 1139,-185 L 1139,-186 L 1138,-186 L 1137,-186 L 1137,-185 L 1136,-185 L 1136,-184 L 1136,-183 L 1136,-184 L 1135,-184 L 1136,-184 L 1135,-184 L 1135,-185 L 1135,-184 L 1134,-184 L 1134,-185 L 1133,-185 L 1132,-185 L 1132,-186 L 1131,-186 L 1130,-186 L 1130,-185 L 1129,-185 L 1129,-184 L 1128,-184 L 1128,-183 L 1127,-183 L 1126,-183 L 1125,-184 L 1125,-185 L 1125,-184 L 1125,-183 L 1124,-183 L 1125,-182 L 1125,-181 L 1124,-181 L 1123,-181 L 1122,-180 L 1121,-180 L 1120,-180 L 1119,-180 L 1118,-180 L 1118,-181 L 1117,-181 L 1117,-182 L 1116,-182 L 1116,-183 L 1116,-184 L 1116,-185 L 1115,-185 L 1115,-186 L 1116,-186 L 1116,-187 L 1115,-187 L 1114,-187 L 1114,-186 L 1113,-185 L 1113,-184 L 1112,-184 L 1111,-184 L 1111,-183 L 1111,-182 L 1110,-182 L 1109,-182 L 1108,-182 L 1107,-182 L 1107,-183 L 1106,-183 L 1106,-184 L 1105,-184 L 1104,-185 L 1104,-186 L 1104,-187 L 1105,-187 L 1106,-187 L 1106,-186 L 1107,-186 L 1108,-186 L 1109,-186 L 1109,-187 L 1109,-188 L 1110,-188 L 1110,-187 L 1111,-187 L 1111,-188 L 1111,-189 L 1112,-189 L 1112,-190 L 1113,-190 L 1114,-190 L 1115,-189 L 1116,-189 L 1117,-189 L 1117,-190 L 1118,-190 L 1118,-191 L 1119,-191 L 1119,-190 L 1118,-190 L 1118,-189 L 1119,-189 L 1120,-189 L 1120,-190 L 1121,-190 L 1122,-190 L 1122,-189 L 1122,-188 L 1123,-188 L 1123,-189 L 1124,-189 L 1125,-189 L 1125,-188 L 1126,-189 L 1126,-190 L 1125,-190 L 1124,-190 L 1124,-191 L 1125,-191 L 1126,-191 L 1127,-191 L 1128,-191 L 1129,-191 L 1129,-192 L 1128,-192 L 1127,-192 L 1127,-193 L 1128,-193 L 1128,-194 L 1129,-195 L 1129,-196 L 1129,-195 L 1130,-195 L 1130,-194 L 1130,-193 L 1131,-193 L 1131,-194 L 1132,-195 L 1133,-195 L 1133,-194 L 1134,-194 L 1135,-194 L 1135,-193 L 1136,-193 L 1137,-194 L 1137,-195 L 1138,-196 L 1138,-195 L 1139,-195 L 1140,-195 L 1141,-195 L 1141,-196 L 1141,-197 L 1140,-197 L 1140,-196 L 1139,-196 L 1139,-197 L 1138,-197 L 1139,-198 L 1140,-198 L 1140,-199 L 1140,-200 L 1141,-199 L 1141,-198 L 1141,-197 L 1142,-198 L 1143,-199 L 1144,-199 L 1144,-198 L 1143,-198 L 1143,-197 L 1144,-196 L 1144,-197 L 1145,-197 L 1146,-197 L 1145,-196 L 1145,-195 L 1146,-195 L 1146,-194 L 1147,-194 L 1148,-194 L 1148,-195 L 1149,-195 L 1149,-196 L 1149,-197 L 1150,-197 L 1150,-196 L 1150,-195 L 1151,-195 L 1151,-196 L 1152,-196 L 1153,-196 L 1153,-195 L 1154,-195 L 1154,-194 L 1155,-195 L 1154,-195 L 1154,-196 L 1155,-196 L 1156,-196 L 1156,-197 L 1157,-197 L 1158,-198 L 1157,-199 L 1158,-199 L 1159,-199 L 1159,-200 L 1159,-201 L 1158,-201 L 1158,-202 L 1158,-203 L 1157,-203 L 1158,-204 L 1158,-203 L 1159,-203 L 1160,-203 L 1160,-202 L 1161,-202 L 1161,-201 L 1162,-201 L 1162,-200 L 1163,-200 L 1164,-200 L 1165,-200 L 1166,-201 L 1167,-201 L 1167,-200 L 1168,-200 L 1168,-199 L 1168,-200 L 1168,-201 L 1169,-201 L 1169,-202 L 1170,-202 L 1170,-201 L 1171,-201 L 1171,-202 L 1172,-202 L 1172,-203 L 1172,-204 L 1173,-204 L 1173,-205 L 1173,-206 L 1174,-206 L 1175,-206 L 1175,-207 L 1176,-207 L 1177,-207 L 1178,-207 " /></g>
</svg>
