<?xml version="1.0" standalone="no"?><!DOCTYPE svg PUBLIC "-//W3C//DTD SVG 1.1//EN" "http://www.w3.org/Graphics/SVG/1.1/DTD/svg11.dtd"><svg xmlns="http://www.w3.org/2000/svg" viewBox="1402 111 109 100" version = "1.1">
<g id="71002" ><path d="M 1503,116 L 1503,117 L 1503,118 L 1502,119 L 1502,120 L 1503,121 L 1504,120 L 1505,120 L 1506,121 L 1507,121 L 1508,121 L 1509,122 L 1510,123 L 1511,124 L 1511,125 L 1510,125 L 1509,124 L 1508,124 L 1507,124 L 1506,124 L 1505,124 L 1505,125 L 1505,126 L 1504,126 L 1503,127 L 1502,128 L 1501,128 L 1500,129 L 1499,130 L 1498,130 L 1498,131 L 1497,133 L 1496,134 L 1495,135 L 1494,136 L 1494,137 L 1493,138 L 1492,138 L 1491,140 L 1491,141 L 1491,142 L 1492,142 L 1492,143 L 1492,144 L 1492,145 L 1492,146 L 1493,146 L 1493,147 L 1494,147 L 1495,147 L 1495,148 L 1496,148 L 1496,149 L 1496,150 L 1496,151 L 1497,151 L 1497,152 L 1498,152 L 1498,153 L 1498,154 L 1498,155 L 1497,155 L 1497,156 L 1496,156 L 1496,157 L 1496,158 L 1495,158 L 1494,158 L 1494,159 L 1494,160 L 1493,160 L 1493,161 L 1493,162 L 1493,163 L 1493,164 L 1493,165 L 1493,166 L 1493,167 L 1492,168 L 1491,169 L 1491,170 L 1492,170 L 1492,171 L 1492,172 L 1492,173 L 1492,174 L 1492,175 L 1492,176 L 1492,177 L 1492,178 L 1491,178 L 1491,179 L 1490,179 L 1491,179 L 1490,179 L 1490,180 L 1489,180 L 1488,180 L 1488,181 L 1488,182 L 1488,183 L 1488,184 L 1488,185 L 1488,186 L 1489,186 L 1489,187 L 1489,188 L 1488,188 L 1488,189 L 1488,190 L 1488,191 L 1488,192 L 1487,192 L 1486,192 L 1485,192 L 1484,193 L 1484,194 L 1483,194 L 1482,195 L 1482,196 L 1481,197 L 1480,197 L 1479,197 L 1478,198 L 1477,198 L 1477,199 L 1476,200 L 1476,201 L 1476,202 L 1475,202 L 1475,203 L 1474,203 L 1474,204 L 1474,205 L 1473,206 L 1474,206 L 1474,207 L 1473,207 L 1473,208 L 1472,208 L 1471,208 L 1470,208 L 1469,208 L 1468,208 L 1467,208 L 1466,208 L 1466,209 L 1465,209 L 1464,209 L 1463,209 L 1462,209 L 1461,210 L 1460,210 L 1459,210 L 1458,210 L 1458,211 L 1457,211 L 1453,211 L 1451,211 L 1448,210 L 1448,211 L 1445,211 L 1443,209 L 1437,211 L 1438,210 L 1438,209 L 1437,209 L 1437,208 L 1436,208 L 1436,207 L 1437,207 L 1437,206 L 1436,206 L 1436,205 L 1436,204 L 1435,202 L 1435,200 L 1434,199 L 1420,199 L 1410,200 L 1410,199 L 1411,199 L 1411,198 L 1410,197 L 1409,197 L 1408,197 L 1407,198 L 1406,197 L 1405,197 L 1404,196 L 1403,195 L 1403,193 L 1403,191 L 1403,190 L 1403,189 L 1404,188 L 1404,187 L 1405,186 L 1406,185 L 1407,184 L 1408,184 L 1408,183 L 1407,182 L 1407,181 L 1406,181 L 1406,180 L 1405,180 L 1404,180 L 1404,179 L 1404,178 L 1404,177 L 1405,177 L 1405,176 L 1404,176 L 1404,175 L 1404,174 L 1404,173 L 1403,173 L 1403,172 L 1403,171 L 1403,170 L 1402,169 L 1430,159 L 1431,159 L 1432,160 L 1433,160 L 1433,159 L 1434,159 L 1434,161 L 1437,160 L 1437,162 L 1441,160 L 1441,161 L 1443,161 L 1443,160 L 1443,159 L 1443,158 L 1445,157 L 1448,157 L 1450,156 L 1451,156 L 1453,155 L 1454,156 L 1457,155 L 1457,154 L 1458,154 L 1458,153 L 1458,152 L 1458,151 L 1458,150 L 1458,149 L 1458,148 L 1458,147 L 1457,147 L 1457,146 L 1457,145 L 1457,144 L 1457,143 L 1457,142 L 1457,141 L 1456,141 L 1456,140 L 1456,139 L 1457,139 L 1458,139 L 1459,139 L 1459,137 L 1459,133 L 1472,132 L 1476,132 L 1477,131 L 1477,130 L 1477,129 L 1477,128 L 1476,127 L 1476,126 L 1482,121 L 1488,117 L 1494,113 L 1500,111 L 1501,111 L 1502,111 L 1503,112 L 1503,113 L 1503,114 L 1503,115 L 1503,116 " /></g>
</svg>
