<?xml version="1.0" standalone="no"?><!DOCTYPE svg PUBLIC "-//W3C//DTD SVG 1.1//EN" "http://www.w3.org/Graphics/SVG/1.1/DTD/svg11.dtd"><svg xmlns="http://www.w3.org/2000/svg" viewBox="1404 199 70 58" version = "1.1">
<g id="71001" ><path d="M 1434,199 L 1435,200 L 1435,202 L 1436,204 L 1436,205 L 1436,206 L 1437,206 L 1437,207 L 1436,207 L 1436,208 L 1437,208 L 1437,209 L 1438,209 L 1438,210 L 1437,211 L 1443,209 L 1445,211 L 1448,211 L 1448,210 L 1451,211 L 1453,211 L 1457,211 L 1458,211 L 1458,210 L 1459,210 L 1460,210 L 1461,210 L 1462,209 L 1463,209 L 1464,209 L 1465,209 L 1466,209 L 1466,208 L 1467,208 L 1468,208 L 1469,208 L 1470,208 L 1471,208 L 1472,208 L 1473,208 L 1474,208 L 1474,209 L 1473,209 L 1472,209 L 1472,210 L 1472,211 L 1471,211 L 1471,212 L 1470,212 L 1469,212 L 1468,213 L 1467,213 L 1467,214 L 1467,215 L 1467,216 L 1466,216 L 1466,217 L 1466,218 L 1467,218 L 1468,218 L 1469,218 L 1469,219 L 1470,219 L 1469,219 L 1469,220 L 1469,221 L 1469,222 L 1470,223 L 1470,224 L 1470,225 L 1470,226 L 1469,226 L 1468,226 L 1467,226 L 1467,227 L 1466,227 L 1466,228 L 1466,229 L 1465,229 L 1465,230 L 1465,231 L 1465,232 L 1465,233 L 1460,233 L 1458,233 L 1455,232 L 1455,233 L 1454,233 L 1454,234 L 1453,235 L 1453,236 L 1453,237 L 1454,237 L 1453,238 L 1453,239 L 1453,240 L 1453,241 L 1454,240 L 1454,241 L 1453,242 L 1452,242 L 1452,243 L 1448,241 L 1444,240 L 1440,240 L 1439,240 L 1438,240 L 1438,241 L 1438,242 L 1437,242 L 1437,243 L 1436,243 L 1435,243 L 1434,242 L 1434,243 L 1434,244 L 1435,244 L 1435,245 L 1435,246 L 1436,246 L 1436,247 L 1437,247 L 1438,247 L 1438,248 L 1439,248 L 1439,249 L 1438,249 L 1438,250 L 1439,250 L 1439,251 L 1440,251 L 1439,252 L 1430,257 L 1430,256 L 1430,255 L 1429,255 L 1428,254 L 1427,253 L 1426,253 L 1425,253 L 1424,253 L 1423,253 L 1422,253 L 1421,253 L 1420,253 L 1419,252 L 1418,251 L 1417,250 L 1415,250 L 1415,249 L 1414,248 L 1414,247 L 1413,246 L 1412,246 L 1412,245 L 1412,244 L 1411,244 L 1411,243 L 1410,243 L 1409,243 L 1408,243 L 1408,242 L 1407,242 L 1406,241 L 1406,240 L 1405,240 L 1405,238 L 1406,238 L 1405,236 L 1405,235 L 1404,234 L 1404,232 L 1404,229 L 1405,228 L 1405,227 L 1407,225 L 1407,224 L 1407,223 L 1407,222 L 1407,221 L 1407,220 L 1408,219 L 1408,217 L 1407,216 L 1407,215 L 1407,214 L 1408,214 L 1409,214 L 1410,213 L 1410,212 L 1410,211 L 1410,210 L 1410,209 L 1410,208 L 1410,207 L 1410,206 L 1411,206 L 1411,205 L 1410,204 L 1411,203 L 1411,202 L 1411,201 L 1410,201 L 1410,200 L 1420,199 L 1434,199 " /></g>
</svg>
