<?xml version="1.0" standalone="no"?><!DOCTYPE svg PUBLIC "-//W3C//DTD SVG 1.1//EN" "http://www.w3.org/Graphics/SVG/1.1/DTD/svg11.dtd"><svg xmlns="http://www.w3.org/2000/svg" viewBox="1396 9 106 120" version = "1.1">
<g id="71004" ><path d="M 1447,13 L 1448,13 L 1449,13 L 1449,12 L 1450,12 L 1451,12 L 1452,12 L 1453,12 L 1453,11 L 1454,11 L 1455,11 L 1456,11 L 1456,12 L 1457,12 L 1458,13 L 1457,14 L 1459,15 L 1460,15 L 1461,15 L 1462,15 L 1462,16 L 1462,17 L 1463,17 L 1463,18 L 1464,18 L 1464,19 L 1463,19 L 1463,20 L 1462,20 L 1463,21 L 1464,21 L 1465,21 L 1465,22 L 1466,22 L 1467,23 L 1467,24 L 1467,25 L 1466,25 L 1465,25 L 1464,25 L 1464,26 L 1463,26 L 1464,26 L 1465,27 L 1466,27 L 1467,28 L 1468,27 L 1469,27 L 1470,27 L 1470,28 L 1469,28 L 1469,29 L 1468,30 L 1467,30 L 1466,30 L 1466,31 L 1466,32 L 1467,33 L 1468,33 L 1469,32 L 1470,32 L 1470,33 L 1470,34 L 1470,35 L 1470,36 L 1470,37 L 1470,38 L 1471,39 L 1472,39 L 1473,39 L 1474,39 L 1475,39 L 1476,39 L 1476,40 L 1475,41 L 1474,42 L 1475,42 L 1475,43 L 1475,44 L 1476,44 L 1477,44 L 1477,43 L 1477,42 L 1476,42 L 1476,41 L 1477,41 L 1478,41 L 1478,42 L 1478,43 L 1479,43 L 1480,43 L 1481,43 L 1481,44 L 1480,45 L 1480,46 L 1479,46 L 1479,47 L 1480,47 L 1481,47 L 1481,46 L 1482,46 L 1483,46 L 1483,47 L 1484,47 L 1484,48 L 1484,49 L 1484,50 L 1484,49 L 1485,49 L 1486,48 L 1486,49 L 1487,49 L 1488,49 L 1489,49 L 1490,49 L 1490,50 L 1491,51 L 1491,52 L 1492,52 L 1492,53 L 1492,54 L 1493,55 L 1492,56 L 1492,57 L 1491,57 L 1491,58 L 1490,58 L 1489,58 L 1488,59 L 1488,60 L 1488,61 L 1489,61 L 1489,62 L 1488,62 L 1488,63 L 1488,64 L 1488,65 L 1488,66 L 1488,67 L 1487,68 L 1487,69 L 1487,70 L 1487,71 L 1487,72 L 1487,73 L 1487,74 L 1486,74 L 1486,75 L 1485,75 L 1485,76 L 1485,77 L 1484,77 L 1484,78 L 1484,79 L 1485,80 L 1485,81 L 1486,81 L 1487,82 L 1487,81 L 1488,81 L 1488,80 L 1489,80 L 1490,80 L 1491,80 L 1491,81 L 1491,82 L 1491,83 L 1491,84 L 1491,85 L 1492,85 L 1493,85 L 1494,86 L 1495,86 L 1496,86 L 1496,87 L 1496,88 L 1495,88 L 1495,89 L 1494,89 L 1494,90 L 1493,90 L 1493,89 L 1492,89 L 1491,89 L 1491,88 L 1490,88 L 1489,88 L 1489,87 L 1488,87 L 1488,88 L 1488,89 L 1488,90 L 1489,90 L 1489,91 L 1490,91 L 1490,92 L 1491,92 L 1492,92 L 1492,93 L 1492,94 L 1493,94 L 1494,94 L 1495,93 L 1495,94 L 1495,95 L 1496,95 L 1496,96 L 1495,96 L 1494,96 L 1495,96 L 1495,97 L 1496,97 L 1496,98 L 1495,98 L 1494,98 L 1494,99 L 1493,99 L 1492,99 L 1491,99 L 1491,100 L 1490,100 L 1491,100 L 1492,100 L 1493,100 L 1493,99 L 1494,99 L 1495,99 L 1496,99 L 1497,99 L 1497,98 L 1498,98 L 1498,97 L 1499,97 L 1499,98 L 1500,98 L 1500,99 L 1501,99 L 1501,100 L 1502,100 L 1502,101 L 1501,101 L 1501,102 L 1500,103 L 1498,104 L 1476,104 L 1468,110 L 1460,110 L 1460,121 L 1422,129 L 1415,129 L 1415,122 L 1406,122 L 1406,121 L 1407,119 L 1407,118 L 1406,118 L 1406,117 L 1406,116 L 1405,116 L 1405,115 L 1404,115 L 1404,114 L 1404,113 L 1403,113 L 1404,113 L 1404,112 L 1405,112 L 1405,111 L 1406,111 L 1406,110 L 1406,109 L 1406,108 L 1405,108 L 1405,107 L 1404,107 L 1404,106 L 1403,106 L 1403,105 L 1403,104 L 1402,104 L 1402,103 L 1402,102 L 1401,102 L 1402,102 L 1402,101 L 1401,101 L 1401,100 L 1400,99 L 1400,98 L 1399,98 L 1398,98 L 1398,97 L 1397,97 L 1397,96 L 1396,96 L 1396,95 L 1403,81 L 1407,74 L 1406,46 L 1413,40 L 1413,41 L 1412,41 L 1412,42 L 1413,42 L 1413,41 L 1414,41 L 1414,42 L 1415,42 L 1416,43 L 1416,44 L 1415,44 L 1415,45 L 1416,45 L 1417,44 L 1418,45 L 1417,45 L 1417,46 L 1417,47 L 1418,47 L 1419,47 L 1420,47 L 1421,47 L 1421,46 L 1421,45 L 1422,45 L 1422,46 L 1423,46 L 1423,47 L 1422,48 L 1423,48 L 1423,49 L 1423,50 L 1423,51 L 1437,34 L 1441,26 L 1443,11 L 1444,11 L 1445,10 L 1446,10 L 1446,9 L 1447,9 L 1447,10 L 1447,11 L 1447,12 L 1447,13 " /></g>
</svg>
