<?xml version="1.0" standalone="no"?><!DOCTYPE svg PUBLIC "-//W3C//DTD SVG 1.1//EN" "http://www.w3.org/Graphics/SVG/1.1/DTD/svg11.dtd"><svg xmlns="http://www.w3.org/2000/svg" viewBox="1366 95 137 74" version = "1.1">
<g id="71003" ><path d="M 1397,97 L 1398,97 L 1398,98 L 1399,98 L 1400,98 L 1400,99 L 1401,100 L 1401,101 L 1402,101 L 1402,102 L 1401,102 L 1402,102 L 1402,103 L 1402,104 L 1403,104 L 1403,105 L 1403,106 L 1404,106 L 1404,107 L 1405,107 L 1405,108 L 1406,108 L 1406,109 L 1406,110 L 1406,111 L 1405,111 L 1405,112 L 1404,112 L 1404,113 L 1403,113 L 1404,113 L 1404,114 L 1404,115 L 1405,115 L 1405,116 L 1406,116 L 1406,117 L 1406,118 L 1407,118 L 1407,119 L 1406,121 L 1406,122 L 1415,122 L 1415,129 L 1422,129 L 1460,121 L 1460,110 L 1468,110 L 1476,104 L 1498,104 L 1500,103 L 1501,102 L 1502,103 L 1503,104 L 1503,105 L 1503,106 L 1503,107 L 1503,108 L 1502,108 L 1502,109 L 1501,109 L 1500,110 L 1500,111 L 1494,113 L 1488,117 L 1482,121 L 1476,126 L 1476,127 L 1477,128 L 1477,129 L 1477,130 L 1477,131 L 1476,132 L 1472,132 L 1459,133 L 1459,137 L 1459,139 L 1458,139 L 1457,139 L 1456,139 L 1456,140 L 1456,141 L 1457,141 L 1457,142 L 1457,143 L 1457,144 L 1457,145 L 1457,146 L 1457,147 L 1458,147 L 1458,148 L 1458,149 L 1458,150 L 1458,151 L 1458,152 L 1458,153 L 1458,154 L 1457,154 L 1457,155 L 1454,156 L 1453,155 L 1451,156 L 1450,156 L 1448,157 L 1445,157 L 1443,158 L 1443,159 L 1443,160 L 1443,161 L 1441,161 L 1441,160 L 1437,162 L 1437,160 L 1434,161 L 1434,159 L 1433,159 L 1433,160 L 1432,160 L 1431,159 L 1430,159 L 1402,169 L 1402,168 L 1401,168 L 1401,167 L 1400,166 L 1400,165 L 1399,165 L 1398,164 L 1398,163 L 1398,162 L 1398,161 L 1397,160 L 1397,159 L 1397,158 L 1396,158 L 1396,157 L 1395,157 L 1394,156 L 1394,155 L 1393,154 L 1392,153 L 1393,152 L 1393,151 L 1392,151 L 1392,150 L 1393,150 L 1393,149 L 1393,148 L 1393,147 L 1392,147 L 1391,147 L 1390,147 L 1390,146 L 1389,145 L 1388,144 L 1387,144 L 1387,143 L 1387,142 L 1387,141 L 1388,140 L 1387,140 L 1388,139 L 1387,139 L 1387,138 L 1386,138 L 1386,137 L 1385,137 L 1385,136 L 1384,136 L 1384,135 L 1384,134 L 1383,134 L 1382,134 L 1382,133 L 1382,132 L 1381,132 L 1381,131 L 1381,130 L 1380,130 L 1380,129 L 1380,128 L 1381,128 L 1381,127 L 1381,126 L 1381,125 L 1380,125 L 1380,124 L 1380,123 L 1380,122 L 1380,121 L 1379,120 L 1379,119 L 1379,118 L 1378,118 L 1378,117 L 1377,117 L 1376,117 L 1376,116 L 1375,116 L 1376,115 L 1376,114 L 1376,113 L 1375,113 L 1375,112 L 1375,111 L 1374,111 L 1374,110 L 1373,110 L 1373,109 L 1372,109 L 1372,110 L 1371,110 L 1371,109 L 1371,108 L 1370,108 L 1370,107 L 1370,108 L 1369,108 L 1368,108 L 1368,107 L 1368,106 L 1368,105 L 1367,105 L 1366,105 L 1366,104 L 1367,104 L 1367,103 L 1368,103 L 1368,102 L 1396,95 L 1396,96 L 1397,96 L 1397,97 " /></g>
</svg>
