<?xml version="1.0" standalone="no"?><!DOCTYPE svg PUBLIC "-//W3C//DTD SVG 1.1//EN" "http://www.w3.org/Graphics/SVG/1.1/DTD/svg11.dtd"><svg xmlns="http://www.w3.org/2000/svg" viewBox="1364 -54 380 225" version = "1.1">
<g id="71103" ><path d="M 1619,-54 L 1620,-54 L 1620,-53 L 1621,-53 L 1621,-52 L 1621,-51 L 1622,-51 L 1623,-51 L 1623,-52 L 1622,-52 L 1623,-52 L 1624,-52 L 1623,-51 L 1624,-51 L 1624,-52 L 1625,-52 L 1625,-51 L 1625,-50 L 1624,-50 L 1624,-49 L 1624,-48 L 1623,-48 L 1623,-47 L 1623,-46 L 1624,-46 L 1624,-45 L 1623,-45 L 1624,-45 L 1624,-44 L 1625,-45 L 1626,-45 L 1626,-44 L 1627,-44 L 1627,-43 L 1626,-43 L 1626,-42 L 1626,-41 L 1627,-41 L 1628,-41 L 1629,-41 L 1630,-40 L 1630,-39 L 1629,-39 L 1629,-38 L 1628,-38 L 1628,-37 L 1627,-37 L 1626,-37 L 1626,-36 L 1626,-35 L 1627,-35 L 1628,-35 L 1629,-35 L 1629,-34 L 1630,-34 L 1629,-33 L 1628,-33 L 1628,-32 L 1627,-32 L 1627,-31 L 1628,-31 L 1629,-31 L 1630,-31 L 1630,-32 L 1631,-32 L 1632,-32 L 1631,-32 L 1631,-33 L 1632,-33 L 1631,-33 L 1631,-34 L 1632,-33 L 1633,-33 L 1634,-32 L 1633,-32 L 1633,-31 L 1634,-31 L 1635,-31 L 1635,-30 L 1634,-30 L 1635,-30 L 1635,-29 L 1635,-30 L 1636,-30 L 1636,-29 L 1637,-29 L 1637,-30 L 1636,-30 L 1636,-31 L 1637,-31 L 1637,-30 L 1637,-31 L 1638,-31 L 1638,-32 L 1639,-32 L 1640,-32 L 1640,-33 L 1641,-33 L 1641,-34 L 1642,-34 L 1643,-33 L 1643,-34 L 1644,-34 L 1645,-33 L 1645,-34 L 1646,-34 L 1646,-33 L 1646,-34 L 1647,-34 L 1647,-35 L 1646,-35 L 1645,-35 L 1644,-35 L 1644,-36 L 1645,-36 L 1645,-37 L 1646,-37 L 1647,-37 L 1646,-37 L 1646,-36 L 1647,-36 L 1648,-35 L 1648,-36 L 1649,-36 L 1649,-37 L 1648,-37 L 1648,-38 L 1649,-38 L 1649,-37 L 1650,-36 L 1650,-35 L 1649,-35 L 1649,-34 L 1648,-34 L 1648,-33 L 1648,-32 L 1649,-32 L 1650,-32 L 1650,-31 L 1650,-30 L 1650,-29 L 1650,-28 L 1651,-28 L 1651,-29 L 1652,-30 L 1653,-30 L 1654,-30 L 1654,-29 L 1654,-28 L 1654,-27 L 1653,-26 L 1653,-25 L 1654,-25 L 1654,-24 L 1655,-24 L 1656,-23 L 1656,-22 L 1657,-22 L 1658,-22 L 1659,-21 L 1660,-21 L 1661,-21 L 1661,-22 L 1661,-23 L 1662,-23 L 1663,-23 L 1664,-22 L 1665,-22 L 1666,-22 L 1667,-22 L 1667,-23 L 1667,-24 L 1668,-24 L 1668,-23 L 1668,-22 L 1669,-22 L 1669,-21 L 1670,-20 L 1670,-19 L 1671,-19 L 1671,-18 L 1670,-17 L 1671,-17 L 1671,-16 L 1672,-16 L 1673,-16 L 1674,-16 L 1674,-15 L 1674,-14 L 1675,-14 L 1676,-14 L 1676,-13 L 1677,-13 L 1677,-12 L 1678,-12 L 1678,-11 L 1677,-11 L 1677,-10 L 1677,-9 L 1678,-8 L 1678,-7 L 1679,-7 L 1680,-6 L 1680,-5 L 1681,-5 L 1682,-4 L 1682,-5 L 1683,-6 L 1684,-6 L 1685,-6 L 1685,-7 L 1685,-8 L 1686,-8 L 1686,-7 L 1685,-7 L 1685,-6 L 1686,-6 L 1686,-7 L 1687,-7 L 1688,-6 L 1688,-5 L 1687,-5 L 1687,-4 L 1687,-5 L 1688,-4 L 1687,-4 L 1687,-3 L 1688,-3 L 1689,-3 L 1689,-2 L 1688,-2 L 1688,-1 L 1688,0 L 1689,0 L 1689,1 L 1689,2 L 1688,2 L 1688,3 L 1689,3 L 1689,2 L 1690,2 L 1690,3 L 1691,4 L 1691,5 L 1691,6 L 1691,7 L 1692,7 L 1693,7 L 1693,6 L 1694,6 L 1694,7 L 1694,8 L 1695,8 L 1695,7 L 1696,8 L 1696,9 L 1695,8 L 1695,9 L 1694,9 L 1694,10 L 1693,10 L 1693,11 L 1693,10 L 1694,10 L 1694,11 L 1695,11 L 1695,12 L 1695,13 L 1695,14 L 1696,14 L 1696,15 L 1697,15 L 1697,14 L 1697,13 L 1697,12 L 1698,12 L 1698,13 L 1699,13 L 1699,12 L 1699,11 L 1699,12 L 1700,13 L 1701,13 L 1701,12 L 1700,12 L 1701,11 L 1701,10 L 1700,10 L 1700,9 L 1701,9 L 1701,10 L 1701,11 L 1702,11 L 1703,11 L 1703,12 L 1702,12 L 1702,13 L 1703,13 L 1703,12 L 1703,13 L 1704,13 L 1705,13 L 1704,14 L 1703,14 L 1703,15 L 1704,15 L 1705,15 L 1706,15 L 1705,15 L 1705,14 L 1705,13 L 1705,14 L 1706,14 L 1707,14 L 1706,14 L 1706,15 L 1707,15 L 1707,16 L 1708,15 L 1709,15 L 1709,16 L 1708,16 L 1707,16 L 1707,17 L 1708,17 L 1708,18 L 1708,19 L 1709,19 L 1709,18 L 1709,17 L 1710,17 L 1711,17 L 1711,18 L 1710,18 L 1709,18 L 1710,18 L 1710,19 L 1709,19 L 1709,20 L 1708,21 L 1708,22 L 1708,23 L 1707,23 L 1707,24 L 1706,24 L 1707,24 L 1707,25 L 1708,24 L 1709,24 L 1710,24 L 1709,24 L 1709,25 L 1709,26 L 1708,26 L 1708,27 L 1707,27 L 1707,28 L 1708,27 L 1708,28 L 1709,28 L 1709,29 L 1710,29 L 1710,30 L 1711,30 L 1712,30 L 1712,31 L 1711,31 L 1711,30 L 1711,31 L 1711,32 L 1710,32 L 1709,32 L 1709,33 L 1710,33 L 1711,33 L 1711,32 L 1712,33 L 1711,34 L 1710,34 L 1710,33 L 1709,33 L 1709,34 L 1710,34 L 1711,34 L 1711,35 L 1712,35 L 1711,36 L 1711,35 L 1710,35 L 1710,36 L 1710,37 L 1709,37 L 1709,36 L 1708,36 L 1708,37 L 1709,37 L 1709,38 L 1709,39 L 1710,39 L 1711,39 L 1711,40 L 1710,40 L 1711,40 L 1711,41 L 1710,41 L 1709,41 L 1709,42 L 1710,42 L 1710,43 L 1709,43 L 1710,43 L 1710,44 L 1709,44 L 1710,45 L 1710,46 L 1711,46 L 1712,45 L 1713,45 L 1712,45 L 1712,46 L 1712,47 L 1711,47 L 1711,48 L 1712,48 L 1712,49 L 1711,49 L 1712,50 L 1713,50 L 1714,50 L 1715,50 L 1715,51 L 1715,52 L 1716,52 L 1715,51 L 1716,51 L 1716,52 L 1717,52 L 1717,51 L 1717,52 L 1718,52 L 1719,52 L 1719,53 L 1720,53 L 1721,53 L 1721,52 L 1722,52 L 1722,53 L 1723,53 L 1723,54 L 1724,54 L 1724,55 L 1723,55 L 1723,56 L 1722,56 L 1722,57 L 1721,58 L 1721,59 L 1721,60 L 1721,61 L 1721,62 L 1721,63 L 1722,64 L 1721,64 L 1722,64 L 1722,65 L 1722,66 L 1722,67 L 1723,67 L 1723,68 L 1724,68 L 1724,69 L 1725,69 L 1725,70 L 1726,70 L 1726,71 L 1727,71 L 1727,72 L 1727,73 L 1727,74 L 1727,75 L 1728,75 L 1728,76 L 1728,77 L 1728,78 L 1729,79 L 1729,78 L 1730,78 L 1730,79 L 1731,79 L 1731,80 L 1730,80 L 1730,81 L 1731,81 L 1731,82 L 1731,83 L 1730,83 L 1730,84 L 1730,85 L 1731,85 L 1732,85 L 1733,85 L 1734,86 L 1734,87 L 1735,87 L 1735,88 L 1736,88 L 1735,88 L 1735,89 L 1735,90 L 1736,90 L 1736,91 L 1736,92 L 1736,93 L 1737,93 L 1737,94 L 1737,95 L 1738,95 L 1739,95 L 1739,96 L 1740,96 L 1740,97 L 1740,98 L 1740,99 L 1740,100 L 1740,101 L 1740,102 L 1740,103 L 1739,103 L 1739,104 L 1738,105 L 1739,106 L 1739,107 L 1740,108 L 1740,109 L 1741,109 L 1742,110 L 1742,111 L 1741,111 L 1741,112 L 1741,113 L 1740,113 L 1741,113 L 1741,114 L 1742,115 L 1742,116 L 1742,117 L 1742,118 L 1742,119 L 1743,119 L 1744,119 L 1744,120 L 1744,121 L 1743,121 L 1743,122 L 1743,123 L 1744,123 L 1744,124 L 1744,125 L 1743,125 L 1743,126 L 1743,127 L 1730,129 L 1712,130 L 1666,140 L 1650,147 L 1645,144 L 1646,144 L 1646,143 L 1647,143 L 1646,143 L 1646,142 L 1645,142 L 1645,141 L 1645,140 L 1644,140 L 1643,140 L 1643,139 L 1644,139 L 1644,138 L 1644,137 L 1644,136 L 1645,136 L 1645,135 L 1636,134 L 1635,139 L 1634,140 L 1633,141 L 1631,141 L 1630,142 L 1629,142 L 1628,142 L 1628,143 L 1627,143 L 1627,144 L 1625,146 L 1624,147 L 1623,147 L 1623,148 L 1622,148 L 1621,149 L 1619,149 L 1618,149 L 1617,150 L 1616,150 L 1615,151 L 1614,151 L 1614,152 L 1613,153 L 1611,156 L 1611,157 L 1610,158 L 1609,159 L 1605,161 L 1600,164 L 1597,166 L 1590,170 L 1589,171 L 1589,170 L 1588,170 L 1587,170 L 1586,170 L 1585,169 L 1584,169 L 1584,168 L 1584,167 L 1583,166 L 1583,165 L 1582,164 L 1581,163 L 1580,162 L 1579,162 L 1578,161 L 1577,161 L 1576,160 L 1575,160 L 1573,160 L 1572,160 L 1570,160 L 1569,159 L 1568,159 L 1566,159 L 1565,158 L 1563,158 L 1562,158 L 1562,157 L 1561,157 L 1561,156 L 1560,156 L 1559,156 L 1558,156 L 1558,155 L 1557,154 L 1556,153 L 1555,153 L 1554,152 L 1553,153 L 1552,154 L 1552,155 L 1551,156 L 1550,156 L 1549,155 L 1548,154 L 1547,153 L 1546,153 L 1544,153 L 1543,153 L 1543,151 L 1543,150 L 1543,149 L 1542,148 L 1541,146 L 1540,145 L 1540,144 L 1539,144 L 1538,144 L 1536,144 L 1535,144 L 1534,144 L 1533,144 L 1532,144 L 1530,144 L 1529,145 L 1528,145 L 1527,145 L 1526,145 L 1525,144 L 1524,144 L 1524,143 L 1523,142 L 1522,141 L 1521,141 L 1520,141 L 1519,140 L 1519,139 L 1520,138 L 1521,137 L 1521,136 L 1521,135 L 1521,134 L 1521,133 L 1522,133 L 1522,132 L 1522,131 L 1521,131 L 1520,131 L 1519,131 L 1518,131 L 1517,131 L 1516,131 L 1516,132 L 1515,132 L 1514,132 L 1513,131 L 1512,131 L 1512,130 L 1511,130 L 1511,129 L 1511,128 L 1511,127 L 1510,127 L 1509,127 L 1509,128 L 1508,128 L 1508,129 L 1507,129 L 1507,128 L 1506,128 L 1506,127 L 1505,126 L 1505,125 L 1505,124 L 1506,124 L 1507,124 L 1508,124 L 1509,124 L 1510,125 L 1511,125 L 1511,124 L 1510,123 L 1509,122 L 1508,121 L 1507,121 L 1506,121 L 1505,120 L 1504,120 L 1503,121 L 1502,120 L 1502,119 L 1503,118 L 1503,117 L 1503,116 L 1503,115 L 1503,114 L 1503,113 L 1503,112 L 1502,111 L 1501,111 L 1500,111 L 1500,110 L 1501,109 L 1502,109 L 1502,108 L 1503,108 L 1503,107 L 1503,106 L 1503,105 L 1503,104 L 1502,103 L 1501,102 L 1501,101 L 1502,101 L 1502,100 L 1501,100 L 1501,99 L 1500,99 L 1500,98 L 1499,98 L 1499,97 L 1498,97 L 1498,98 L 1497,98 L 1497,99 L 1496,99 L 1495,99 L 1494,99 L 1493,99 L 1493,100 L 1492,100 L 1491,100 L 1490,100 L 1491,100 L 1491,99 L 1492,99 L 1493,99 L 1494,99 L 1494,98 L 1495,98 L 1496,98 L 1496,97 L 1495,97 L 1495,96 L 1494,96 L 1495,96 L 1496,96 L 1496,95 L 1495,95 L 1495,94 L 1495,93 L 1494,94 L 1493,94 L 1492,94 L 1492,93 L 1492,92 L 1491,92 L 1490,92 L 1490,91 L 1489,91 L 1489,90 L 1488,90 L 1488,89 L 1488,88 L 1488,87 L 1489,87 L 1489,88 L 1490,88 L 1491,88 L 1491,89 L 1492,89 L 1493,89 L 1493,90 L 1494,90 L 1494,89 L 1495,89 L 1495,88 L 1496,88 L 1496,87 L 1496,86 L 1495,86 L 1494,86 L 1493,85 L 1492,85 L 1491,85 L 1491,84 L 1491,83 L 1491,82 L 1491,81 L 1491,80 L 1490,80 L 1489,80 L 1488,80 L 1488,81 L 1487,81 L 1487,82 L 1486,81 L 1485,81 L 1485,80 L 1484,79 L 1484,78 L 1484,77 L 1485,77 L 1485,76 L 1485,75 L 1486,75 L 1486,74 L 1487,74 L 1487,73 L 1487,72 L 1487,71 L 1487,70 L 1487,69 L 1487,68 L 1488,67 L 1488,66 L 1488,65 L 1488,64 L 1488,63 L 1488,62 L 1489,62 L 1489,61 L 1488,61 L 1488,60 L 1488,59 L 1489,58 L 1490,58 L 1491,58 L 1491,57 L 1492,57 L 1492,56 L 1493,55 L 1492,54 L 1492,53 L 1492,52 L 1491,52 L 1491,51 L 1490,50 L 1490,49 L 1489,49 L 1488,49 L 1487,49 L 1486,49 L 1486,48 L 1485,49 L 1484,49 L 1484,50 L 1484,49 L 1484,48 L 1484,47 L 1483,47 L 1483,46 L 1482,46 L 1481,46 L 1481,47 L 1480,47 L 1479,47 L 1479,46 L 1480,46 L 1480,45 L 1481,44 L 1481,43 L 1480,43 L 1479,43 L 1478,43 L 1478,42 L 1478,41 L 1477,41 L 1476,41 L 1476,42 L 1477,42 L 1477,43 L 1477,44 L 1476,44 L 1475,44 L 1475,43 L 1475,42 L 1474,42 L 1475,41 L 1476,40 L 1476,39 L 1475,39 L 1474,39 L 1473,39 L 1472,39 L 1471,39 L 1470,38 L 1470,37 L 1470,36 L 1470,35 L 1470,34 L 1470,33 L 1470,32 L 1469,32 L 1468,33 L 1467,33 L 1466,32 L 1466,31 L 1466,30 L 1467,30 L 1468,30 L 1469,29 L 1469,28 L 1470,28 L 1470,27 L 1469,27 L 1468,27 L 1467,28 L 1466,27 L 1465,27 L 1464,26 L 1463,26 L 1464,26 L 1464,25 L 1465,25 L 1466,25 L 1467,25 L 1467,24 L 1467,23 L 1466,22 L 1465,22 L 1465,21 L 1464,21 L 1463,21 L 1462,20 L 1463,20 L 1463,19 L 1464,19 L 1464,18 L 1463,18 L 1463,17 L 1462,17 L 1462,16 L 1462,15 L 1461,15 L 1460,15 L 1459,15 L 1457,14 L 1458,13 L 1457,12 L 1456,12 L 1456,11 L 1455,11 L 1454,11 L 1453,11 L 1453,12 L 1452,12 L 1451,12 L 1450,12 L 1449,12 L 1449,13 L 1448,13 L 1447,13 L 1447,12 L 1447,11 L 1447,10 L 1447,9 L 1446,9 L 1446,10 L 1445,10 L 1444,11 L 1443,11 L 1442,11 L 1442,10 L 1441,10 L 1441,9 L 1441,8 L 1442,7 L 1442,6 L 1441,6 L 1441,7 L 1440,7 L 1439,7 L 1439,6 L 1438,6 L 1438,5 L 1437,5 L 1437,4 L 1437,3 L 1436,2 L 1436,1 L 1435,1 L 1434,1 L 1433,1 L 1433,2 L 1434,2 L 1434,3 L 1434,4 L 1433,4 L 1432,3 L 1431,2 L 1431,1 L 1430,0 L 1429,0 L 1429,-1 L 1428,-1 L 1427,-1 L 1426,-1 L 1426,-2 L 1426,-3 L 1426,-4 L 1425,-4 L 1425,-3 L 1424,-3 L 1423,-3 L 1422,-3 L 1421,-2 L 1421,-1 L 1421,0 L 1420,0 L 1419,-1 L 1419,-2 L 1418,-2 L 1418,-1 L 1417,-1 L 1417,-2 L 1416,-3 L 1417,-3 L 1418,-3 L 1419,-3 L 1419,-4 L 1418,-4 L 1418,-5 L 1417,-5 L 1417,-6 L 1416,-6 L 1416,-7 L 1415,-6 L 1414,-5 L 1413,-6 L 1413,-7 L 1412,-7 L 1412,-6 L 1411,-6 L 1410,-6 L 1409,-6 L 1408,-6 L 1407,-5 L 1406,-5 L 1405,-5 L 1404,-5 L 1403,-5 L 1403,-6 L 1404,-6 L 1405,-6 L 1406,-6 L 1406,-7 L 1407,-7 L 1408,-7 L 1409,-8 L 1408,-8 L 1408,-9 L 1407,-9 L 1407,-10 L 1406,-10 L 1406,-11 L 1407,-11 L 1408,-11 L 1408,-12 L 1407,-12 L 1408,-12 L 1408,-13 L 1408,-14 L 1407,-14 L 1407,-13 L 1406,-13 L 1406,-14 L 1406,-15 L 1405,-15 L 1405,-16 L 1404,-16 L 1404,-17 L 1403,-18 L 1403,-19 L 1402,-19 L 1402,-20 L 1401,-20 L 1401,-19 L 1400,-19 L 1399,-19 L 1398,-20 L 1397,-20 L 1397,-21 L 1396,-21 L 1395,-21 L 1394,-21 L 1394,-22 L 1394,-23 L 1394,-24 L 1393,-24 L 1392,-24 L 1392,-23 L 1391,-23 L 1390,-24 L 1390,-25 L 1390,-26 L 1389,-26 L 1388,-26 L 1388,-27 L 1387,-27 L 1387,-28 L 1388,-28 L 1388,-29 L 1387,-30 L 1387,-31 L 1386,-31 L 1385,-31 L 1386,-31 L 1386,-32 L 1386,-33 L 1386,-34 L 1387,-34 L 1387,-35 L 1386,-35 L 1386,-36 L 1385,-36 L 1384,-36 L 1383,-36 L 1383,-37 L 1384,-38 L 1384,-39 L 1384,-40 L 1383,-40 L 1382,-40 L 1381,-40 L 1380,-40 L 1379,-41 L 1378,-41 L 1378,-42 L 1377,-43 L 1376,-43 L 1376,-42 L 1376,-43 L 1375,-43 L 1375,-44 L 1376,-44 L 1377,-45 L 1378,-45 L 1379,-45 L 1378,-45 L 1378,-46 L 1378,-47 L 1377,-47 L 1376,-47 L 1375,-47 L 1374,-47 L 1373,-47 L 1373,-48 L 1372,-48 L 1371,-48 L 1370,-48 L 1369,-48 L 1369,-49 L 1370,-49 L 1369,-49 L 1368,-49 L 1367,-49 L 1367,-50 L 1367,-49 L 1366,-49 L 1366,-50 L 1365,-50 L 1364,-50 L 1365,-50 L 1365,-51 L 1366,-51 L 1366,-52 L 1592,-52 L 1593,-52 L 1594,-51 L 1595,-51 L 1596,-51 L 1597,-51 L 1598,-51 L 1598,-52 L 1599,-52 L 1600,-53 L 1601,-53 L 1601,-52 L 1602,-51 L 1603,-52 L 1604,-52 L 1605,-51 L 1605,-52 L 1606,-52 L 1607,-52 L 1607,-51 L 1606,-51 L 1607,-51 L 1607,-52 L 1608,-52 L 1608,-51 L 1608,-52 L 1609,-52 L 1610,-52 L 1609,-52 L 1609,-53 L 1609,-54 L 1610,-54 L 1610,-53 L 1611,-53 L 1611,-52 L 1611,-51 L 1612,-51 L 1612,-50 L 1612,-49 L 1613,-49 L 1613,-50 L 1612,-50 L 1612,-51 L 1613,-51 L 1613,-50 L 1614,-51 L 1613,-51 L 1613,-52 L 1614,-52 L 1615,-52 L 1615,-51 L 1614,-51 L 1615,-51 L 1616,-51 L 1617,-50 L 1617,-51 L 1617,-52 L 1618,-52 L 1617,-52 L 1617,-53 L 1617,-54 L 1618,-54 L 1619,-54 " /></g>
</svg>
