<?xml version="1.0" standalone="no"?><!DOCTYPE svg PUBLIC "-//W3C//DTD SVG 1.1//EN" "http://www.w3.org/Graphics/SVG/1.1/DTD/svg11.dtd"><svg xmlns="http://www.w3.org/2000/svg" viewBox="1648 -63 120 79" version = "1.1">
<g id="71105" ><path d="M 1687,-62 L 1687,-61 L 1688,-61 L 1688,-60 L 1689,-60 L 1689,-59 L 1690,-59 L 1691,-58 L 1692,-58 L 1692,-59 L 1693,-59 L 1694,-59 L 1694,-60 L 1694,-59 L 1695,-59 L 1696,-59 L 1696,-58 L 1695,-58 L 1695,-57 L 1696,-57 L 1696,-56 L 1697,-56 L 1698,-56 L 1699,-56 L 1699,-57 L 1700,-57 L 1700,-56 L 1700,-55 L 1700,-54 L 1699,-54 L 1699,-53 L 1700,-53 L 1699,-53 L 1700,-53 L 1699,-53 L 1700,-53 L 1700,-52 L 1700,-53 L 1701,-53 L 1701,-52 L 1701,-53 L 1701,-52 L 1702,-52 L 1703,-52 L 1704,-52 L 1704,-53 L 1705,-53 L 1706,-53 L 1707,-53 L 1708,-53 L 1709,-53 L 1709,-52 L 1710,-52 L 1710,-51 L 1709,-51 L 1710,-50 L 1710,-51 L 1711,-51 L 1712,-51 L 1712,-50 L 1712,-51 L 1712,-50 L 1713,-50 L 1713,-49 L 1714,-49 L 1714,-48 L 1715,-48 L 1715,-47 L 1715,-46 L 1716,-46 L 1716,-47 L 1717,-47 L 1718,-47 L 1719,-47 L 1720,-47 L 1720,-46 L 1721,-46 L 1721,-45 L 1721,-46 L 1721,-45 L 1722,-45 L 1722,-46 L 1721,-47 L 1721,-48 L 1722,-48 L 1723,-48 L 1723,-49 L 1724,-49 L 1725,-49 L 1725,-48 L 1726,-48 L 1726,-49 L 1726,-50 L 1727,-50 L 1727,-51 L 1727,-52 L 1728,-52 L 1729,-52 L 1730,-52 L 1730,-53 L 1731,-53 L 1731,-54 L 1732,-54 L 1732,-53 L 1732,-52 L 1732,-51 L 1732,-50 L 1732,-49 L 1733,-49 L 1733,-50 L 1734,-50 L 1735,-50 L 1736,-50 L 1736,-51 L 1737,-51 L 1738,-51 L 1738,-50 L 1738,-49 L 1739,-49 L 1739,-50 L 1740,-50 L 1740,-51 L 1741,-51 L 1741,-50 L 1740,-49 L 1741,-49 L 1741,-50 L 1742,-50 L 1742,-51 L 1743,-50 L 1744,-50 L 1744,-49 L 1745,-49 L 1745,-50 L 1746,-50 L 1747,-50 L 1747,-49 L 1747,-48 L 1746,-48 L 1746,-49 L 1745,-49 L 1745,-48 L 1744,-48 L 1743,-48 L 1742,-48 L 1742,-47 L 1742,-46 L 1743,-46 L 1743,-47 L 1744,-47 L 1744,-46 L 1745,-46 L 1745,-45 L 1745,-44 L 1744,-44 L 1744,-45 L 1744,-44 L 1743,-44 L 1744,-44 L 1744,-43 L 1745,-43 L 1746,-43 L 1746,-44 L 1747,-44 L 1747,-43 L 1748,-43 L 1749,-43 L 1749,-44 L 1749,-43 L 1750,-43 L 1751,-43 L 1751,-42 L 1752,-42 L 1753,-42 L 1753,-41 L 1752,-41 L 1753,-41 L 1752,-41 L 1752,-40 L 1753,-40 L 1753,-39 L 1754,-39 L 1754,-40 L 1755,-40 L 1756,-40 L 1756,-39 L 1756,-38 L 1757,-38 L 1757,-39 L 1758,-39 L 1758,-38 L 1758,-37 L 1759,-37 L 1759,-38 L 1760,-38 L 1760,-37 L 1759,-37 L 1759,-36 L 1759,-35 L 1760,-35 L 1760,-34 L 1761,-34 L 1761,-35 L 1760,-36 L 1761,-36 L 1761,-37 L 1762,-37 L 1762,-36 L 1763,-36 L 1764,-37 L 1764,-38 L 1765,-38 L 1765,-37 L 1766,-37 L 1766,-36 L 1766,-35 L 1767,-35 L 1766,-36 L 1767,-36 L 1768,-36 L 1768,-35 L 1767,-34 L 1766,-32 L 1764,-28 L 1760,-20 L 1755,-15 L 1749,-8 L 1743,-6 L 1735,-4 L 1728,-4 L 1724,-4 L 1721,-5 L 1718,-5 L 1717,-6 L 1714,-8 L 1710,-9 L 1709,-10 L 1710,-3 L 1710,7 L 1708,15 L 1707,16 L 1707,15 L 1706,15 L 1706,14 L 1707,14 L 1706,14 L 1705,14 L 1705,13 L 1705,14 L 1705,15 L 1706,15 L 1705,15 L 1704,15 L 1703,15 L 1703,14 L 1704,14 L 1705,13 L 1704,13 L 1703,13 L 1703,12 L 1703,13 L 1702,13 L 1702,12 L 1703,12 L 1703,11 L 1702,11 L 1701,11 L 1701,10 L 1701,9 L 1700,9 L 1700,10 L 1701,10 L 1701,11 L 1700,12 L 1701,12 L 1701,13 L 1700,13 L 1699,12 L 1699,11 L 1699,12 L 1699,13 L 1698,13 L 1698,12 L 1697,12 L 1697,13 L 1697,14 L 1697,15 L 1696,15 L 1696,14 L 1695,14 L 1695,13 L 1695,12 L 1695,11 L 1694,11 L 1694,10 L 1693,10 L 1693,11 L 1693,10 L 1694,10 L 1694,9 L 1695,9 L 1695,8 L 1696,9 L 1696,8 L 1695,7 L 1695,8 L 1694,8 L 1694,7 L 1694,6 L 1693,6 L 1693,7 L 1692,7 L 1691,7 L 1691,6 L 1691,5 L 1691,4 L 1690,3 L 1690,2 L 1689,2 L 1689,3 L 1688,3 L 1688,2 L 1689,2 L 1689,1 L 1689,0 L 1688,0 L 1688,-1 L 1688,-2 L 1689,-2 L 1689,-3 L 1688,-3 L 1687,-3 L 1687,-4 L 1688,-4 L 1687,-5 L 1687,-4 L 1687,-5 L 1688,-5 L 1688,-6 L 1687,-7 L 1686,-7 L 1686,-6 L 1685,-6 L 1685,-7 L 1686,-7 L 1686,-8 L 1685,-8 L 1685,-7 L 1685,-6 L 1684,-6 L 1683,-6 L 1682,-5 L 1682,-4 L 1681,-5 L 1680,-5 L 1680,-6 L 1679,-7 L 1678,-7 L 1678,-8 L 1677,-9 L 1677,-10 L 1677,-11 L 1678,-11 L 1678,-12 L 1677,-12 L 1677,-13 L 1676,-13 L 1676,-14 L 1675,-14 L 1674,-14 L 1674,-15 L 1674,-16 L 1673,-16 L 1672,-16 L 1671,-16 L 1671,-17 L 1670,-17 L 1671,-18 L 1671,-19 L 1670,-19 L 1670,-20 L 1669,-21 L 1669,-22 L 1668,-22 L 1668,-23 L 1668,-24 L 1667,-24 L 1667,-23 L 1667,-22 L 1666,-22 L 1665,-22 L 1664,-22 L 1663,-23 L 1662,-23 L 1661,-23 L 1661,-22 L 1661,-21 L 1660,-21 L 1659,-21 L 1658,-22 L 1657,-22 L 1656,-22 L 1656,-23 L 1655,-24 L 1654,-24 L 1654,-25 L 1653,-25 L 1653,-26 L 1654,-27 L 1654,-28 L 1654,-29 L 1654,-30 L 1653,-30 L 1652,-30 L 1651,-29 L 1651,-28 L 1650,-28 L 1650,-29 L 1650,-30 L 1650,-31 L 1650,-32 L 1649,-32 L 1648,-32 L 1648,-33 L 1648,-34 L 1649,-34 L 1649,-35 L 1650,-35 L 1650,-36 L 1649,-37 L 1649,-38 L 1649,-39 L 1650,-39 L 1650,-40 L 1651,-40 L 1650,-40 L 1651,-40 L 1651,-41 L 1652,-41 L 1652,-42 L 1652,-43 L 1652,-44 L 1652,-45 L 1653,-45 L 1654,-45 L 1654,-46 L 1653,-46 L 1654,-46 L 1654,-47 L 1655,-47 L 1656,-47 L 1657,-47 L 1658,-47 L 1658,-46 L 1659,-46 L 1659,-47 L 1660,-47 L 1660,-46 L 1660,-47 L 1661,-47 L 1661,-46 L 1662,-47 L 1661,-47 L 1661,-48 L 1662,-48 L 1662,-47 L 1663,-47 L 1664,-47 L 1663,-47 L 1664,-46 L 1665,-46 L 1665,-47 L 1664,-47 L 1665,-47 L 1665,-48 L 1666,-48 L 1666,-49 L 1667,-49 L 1667,-50 L 1668,-50 L 1669,-50 L 1670,-50 L 1670,-51 L 1671,-51 L 1671,-52 L 1671,-53 L 1672,-53 L 1673,-53 L 1673,-54 L 1674,-54 L 1674,-55 L 1675,-55 L 1676,-55 L 1676,-56 L 1677,-56 L 1677,-57 L 1677,-56 L 1677,-55 L 1678,-55 L 1679,-55 L 1680,-55 L 1681,-55 L 1681,-56 L 1682,-56 L 1682,-57 L 1683,-57 L 1684,-57 L 1684,-58 L 1685,-58 L 1685,-59 L 1684,-59 L 1684,-60 L 1683,-60 L 1683,-61 L 1684,-61 L 1684,-62 L 1685,-62 L 1685,-63 L 1686,-63 L 1686,-62 L 1687,-62 " /></g>
</svg>
