<?xml version="1.0" standalone="no"?><!DOCTYPE svg PUBLIC "-//W3C//DTD SVG 1.1//EN" "http://www.w3.org/Graphics/SVG/1.1/DTD/svg11.dtd"><svg xmlns="http://www.w3.org/2000/svg" viewBox="1619 -272 142 243" version = "1.1">
<g id="71102" ><path d="M 1656,-272 L 1657,-272 L 1658,-272 L 1658,-271 L 1658,-270 L 1659,-270 L 1659,-269 L 1659,-268 L 1660,-268 L 1660,-269 L 1661,-269 L 1661,-270 L 1661,-271 L 1662,-271 L 1663,-271 L 1664,-270 L 1665,-270 L 1665,-269 L 1666,-269 L 1666,-268 L 1667,-268 L 1668,-268 L 1669,-268 L 1670,-267 L 1671,-267 L 1672,-267 L 1672,-266 L 1673,-266 L 1674,-266 L 1675,-266 L 1675,-265 L 1676,-265 L 1677,-265 L 1678,-265 L 1679,-265 L 1680,-265 L 1680,-266 L 1681,-266 L 1681,-265 L 1682,-265 L 1683,-264 L 1684,-264 L 1685,-263 L 1686,-263 L 1687,-263 L 1688,-263 L 1689,-263 L 1690,-262 L 1691,-262 L 1691,-261 L 1692,-261 L 1693,-261 L 1694,-261 L 1693,-261 L 1693,-260 L 1692,-260 L 1692,-259 L 1692,-258 L 1693,-258 L 1693,-259 L 1694,-259 L 1695,-259 L 1695,-260 L 1696,-260 L 1696,-261 L 1697,-261 L 1697,-262 L 1698,-262 L 1698,-261 L 1699,-261 L 1699,-260 L 1700,-260 L 1701,-260 L 1702,-261 L 1703,-261 L 1703,-260 L 1704,-259 L 1705,-259 L 1705,-260 L 1706,-259 L 1706,-258 L 1705,-258 L 1705,-257 L 1704,-257 L 1704,-256 L 1705,-255 L 1705,-254 L 1706,-254 L 1707,-254 L 1707,-253 L 1708,-253 L 1709,-253 L 1709,-252 L 1710,-252 L 1710,-251 L 1710,-250 L 1711,-250 L 1711,-249 L 1711,-248 L 1712,-248 L 1712,-247 L 1711,-247 L 1710,-247 L 1710,-246 L 1709,-246 L 1709,-245 L 1709,-244 L 1710,-243 L 1710,-242 L 1711,-241 L 1712,-241 L 1712,-240 L 1713,-240 L 1714,-240 L 1715,-240 L 1716,-240 L 1716,-239 L 1715,-239 L 1715,-238 L 1715,-237 L 1714,-237 L 1713,-236 L 1713,-235 L 1712,-235 L 1712,-234 L 1711,-234 L 1711,-233 L 1711,-232 L 1711,-231 L 1712,-231 L 1712,-230 L 1712,-229 L 1712,-228 L 1712,-227 L 1712,-226 L 1713,-226 L 1713,-225 L 1713,-224 L 1714,-224 L 1714,-223 L 1715,-223 L 1715,-222 L 1716,-222 L 1717,-222 L 1717,-221 L 1717,-220 L 1718,-220 L 1718,-219 L 1719,-219 L 1720,-218 L 1721,-217 L 1722,-217 L 1722,-216 L 1723,-216 L 1724,-216 L 1725,-215 L 1725,-214 L 1725,-213 L 1724,-213 L 1724,-212 L 1725,-212 L 1726,-212 L 1726,-211 L 1726,-212 L 1726,-211 L 1727,-211 L 1727,-212 L 1727,-211 L 1728,-211 L 1728,-210 L 1727,-210 L 1726,-210 L 1726,-209 L 1725,-209 L 1724,-209 L 1723,-209 L 1722,-209 L 1722,-208 L 1723,-208 L 1724,-208 L 1724,-207 L 1725,-207 L 1725,-206 L 1726,-206 L 1726,-205 L 1727,-205 L 1728,-205 L 1727,-204 L 1727,-203 L 1726,-203 L 1726,-202 L 1726,-201 L 1725,-201 L 1726,-200 L 1726,-199 L 1727,-199 L 1728,-199 L 1729,-199 L 1729,-198 L 1730,-198 L 1731,-198 L 1731,-199 L 1732,-198 L 1731,-198 L 1731,-197 L 1731,-196 L 1732,-196 L 1732,-195 L 1733,-195 L 1733,-194 L 1733,-193 L 1734,-193 L 1735,-193 L 1735,-192 L 1734,-192 L 1734,-191 L 1734,-190 L 1733,-190 L 1733,-189 L 1734,-189 L 1734,-188 L 1735,-187 L 1735,-188 L 1736,-188 L 1736,-189 L 1737,-189 L 1738,-189 L 1737,-189 L 1737,-188 L 1736,-188 L 1737,-187 L 1737,-186 L 1738,-186 L 1739,-187 L 1739,-186 L 1739,-185 L 1740,-185 L 1741,-185 L 1741,-186 L 1741,-185 L 1741,-184 L 1742,-184 L 1741,-184 L 1741,-183 L 1742,-183 L 1743,-183 L 1743,-182 L 1744,-182 L 1745,-182 L 1746,-182 L 1747,-182 L 1747,-181 L 1747,-180 L 1747,-179 L 1747,-178 L 1747,-177 L 1746,-177 L 1746,-178 L 1745,-178 L 1745,-177 L 1745,-176 L 1746,-176 L 1746,-175 L 1745,-174 L 1746,-174 L 1745,-174 L 1745,-173 L 1744,-173 L 1744,-172 L 1744,-171 L 1745,-171 L 1746,-171 L 1746,-170 L 1746,-169 L 1747,-169 L 1747,-168 L 1747,-167 L 1748,-167 L 1749,-167 L 1750,-166 L 1751,-166 L 1751,-165 L 1750,-165 L 1750,-164 L 1751,-164 L 1752,-164 L 1753,-164 L 1754,-163 L 1754,-162 L 1753,-162 L 1754,-162 L 1754,-161 L 1753,-161 L 1752,-161 L 1752,-160 L 1753,-159 L 1753,-158 L 1754,-158 L 1754,-157 L 1754,-156 L 1754,-157 L 1753,-157 L 1753,-156 L 1753,-155 L 1754,-155 L 1754,-154 L 1754,-153 L 1753,-153 L 1754,-152 L 1753,-152 L 1753,-151 L 1753,-150 L 1753,-149 L 1753,-148 L 1753,-147 L 1754,-147 L 1754,-146 L 1755,-146 L 1755,-145 L 1755,-144 L 1756,-144 L 1756,-143 L 1756,-142 L 1756,-141 L 1757,-141 L 1757,-142 L 1758,-142 L 1758,-141 L 1757,-141 L 1757,-140 L 1758,-140 L 1758,-139 L 1759,-139 L 1759,-138 L 1759,-137 L 1760,-137 L 1761,-137 L 1761,-136 L 1761,-135 L 1761,-134 L 1760,-134 L 1760,-133 L 1759,-133 L 1758,-133 L 1758,-132 L 1757,-132 L 1756,-132 L 1756,-131 L 1756,-132 L 1757,-121 L 1757,-120 L 1756,-120 L 1756,-119 L 1755,-119 L 1755,-118 L 1756,-118 L 1756,-117 L 1756,-116 L 1755,-116 L 1755,-115 L 1755,-114 L 1755,-113 L 1756,-113 L 1755,-113 L 1755,-112 L 1755,-111 L 1755,-110 L 1756,-110 L 1756,-109 L 1756,-108 L 1755,-108 L 1755,-107 L 1756,-107 L 1756,-106 L 1755,-106 L 1756,-105 L 1755,-105 L 1755,-104 L 1755,-103 L 1754,-102 L 1753,-102 L 1753,-103 L 1752,-103 L 1752,-102 L 1752,-101 L 1751,-101 L 1751,-100 L 1751,-99 L 1750,-99 L 1749,-99 L 1748,-99 L 1748,-98 L 1747,-98 L 1747,-97 L 1747,-96 L 1747,-88 L 1745,-85 L 1745,-84 L 1745,-83 L 1744,-82 L 1744,-81 L 1744,-80 L 1744,-79 L 1744,-78 L 1743,-77 L 1743,-76 L 1742,-76 L 1742,-75 L 1741,-75 L 1741,-74 L 1741,-73 L 1741,-72 L 1742,-71 L 1741,-71 L 1741,-70 L 1741,-69 L 1741,-68 L 1740,-68 L 1740,-67 L 1740,-66 L 1740,-65 L 1740,-64 L 1740,-63 L 1740,-62 L 1740,-61 L 1740,-60 L 1739,-59 L 1739,-58 L 1738,-58 L 1738,-57 L 1738,-56 L 1738,-55 L 1739,-55 L 1739,-54 L 1739,-53 L 1739,-52 L 1738,-52 L 1738,-51 L 1737,-51 L 1736,-51 L 1736,-50 L 1735,-50 L 1734,-50 L 1733,-50 L 1733,-49 L 1732,-49 L 1732,-50 L 1732,-51 L 1732,-52 L 1732,-53 L 1732,-54 L 1731,-54 L 1731,-53 L 1730,-53 L 1730,-52 L 1729,-52 L 1728,-52 L 1727,-52 L 1727,-51 L 1727,-50 L 1726,-50 L 1726,-49 L 1726,-48 L 1725,-48 L 1725,-49 L 1724,-49 L 1723,-49 L 1723,-48 L 1722,-48 L 1721,-48 L 1721,-47 L 1722,-46 L 1722,-45 L 1721,-45 L 1721,-46 L 1721,-45 L 1721,-46 L 1720,-46 L 1720,-47 L 1719,-47 L 1718,-47 L 1717,-47 L 1716,-47 L 1716,-46 L 1715,-46 L 1715,-47 L 1715,-48 L 1714,-48 L 1714,-49 L 1713,-49 L 1713,-50 L 1712,-50 L 1712,-51 L 1712,-50 L 1712,-51 L 1711,-51 L 1710,-51 L 1710,-50 L 1709,-51 L 1710,-51 L 1710,-52 L 1709,-52 L 1709,-53 L 1708,-53 L 1707,-53 L 1706,-53 L 1705,-53 L 1704,-53 L 1704,-52 L 1703,-52 L 1702,-52 L 1701,-52 L 1701,-53 L 1701,-52 L 1701,-53 L 1700,-53 L 1700,-52 L 1700,-53 L 1699,-53 L 1700,-53 L 1699,-53 L 1700,-53 L 1699,-53 L 1699,-54 L 1700,-54 L 1700,-55 L 1700,-56 L 1700,-57 L 1699,-57 L 1699,-56 L 1698,-56 L 1697,-56 L 1696,-56 L 1696,-57 L 1695,-57 L 1695,-58 L 1696,-58 L 1696,-59 L 1695,-59 L 1694,-59 L 1694,-60 L 1694,-59 L 1693,-59 L 1692,-59 L 1692,-58 L 1691,-58 L 1690,-59 L 1689,-59 L 1689,-60 L 1688,-60 L 1688,-61 L 1687,-61 L 1687,-62 L 1686,-62 L 1686,-63 L 1685,-63 L 1685,-62 L 1684,-62 L 1684,-61 L 1683,-61 L 1683,-60 L 1684,-60 L 1684,-59 L 1685,-59 L 1685,-58 L 1684,-58 L 1684,-57 L 1683,-57 L 1682,-57 L 1682,-56 L 1681,-56 L 1681,-55 L 1680,-55 L 1679,-55 L 1678,-55 L 1677,-55 L 1677,-56 L 1677,-57 L 1677,-56 L 1676,-56 L 1676,-55 L 1675,-55 L 1674,-55 L 1674,-54 L 1673,-54 L 1673,-53 L 1672,-53 L 1671,-53 L 1671,-52 L 1671,-51 L 1670,-51 L 1670,-50 L 1669,-50 L 1668,-50 L 1667,-50 L 1667,-49 L 1666,-49 L 1666,-48 L 1665,-48 L 1665,-47 L 1664,-47 L 1665,-47 L 1665,-46 L 1664,-46 L 1663,-47 L 1664,-47 L 1663,-47 L 1662,-47 L 1662,-48 L 1661,-48 L 1661,-47 L 1662,-47 L 1661,-46 L 1661,-47 L 1660,-47 L 1660,-46 L 1660,-47 L 1659,-47 L 1659,-46 L 1658,-46 L 1658,-47 L 1657,-47 L 1656,-47 L 1655,-47 L 1654,-47 L 1654,-46 L 1653,-46 L 1654,-46 L 1654,-45 L 1653,-45 L 1652,-45 L 1652,-44 L 1652,-43 L 1652,-42 L 1652,-41 L 1651,-41 L 1651,-40 L 1650,-40 L 1651,-40 L 1650,-40 L 1650,-39 L 1649,-39 L 1649,-38 L 1648,-38 L 1648,-37 L 1649,-37 L 1649,-36 L 1648,-36 L 1648,-35 L 1647,-36 L 1646,-36 L 1646,-37 L 1647,-37 L 1646,-37 L 1645,-37 L 1645,-36 L 1644,-36 L 1644,-35 L 1645,-35 L 1646,-35 L 1647,-35 L 1647,-34 L 1646,-34 L 1646,-33 L 1646,-34 L 1645,-34 L 1645,-33 L 1644,-34 L 1643,-34 L 1643,-33 L 1642,-34 L 1641,-34 L 1641,-33 L 1640,-33 L 1640,-32 L 1639,-32 L 1638,-32 L 1638,-31 L 1637,-31 L 1637,-30 L 1637,-31 L 1636,-31 L 1636,-30 L 1637,-30 L 1637,-29 L 1636,-29 L 1636,-30 L 1635,-30 L 1635,-29 L 1635,-30 L 1634,-30 L 1635,-30 L 1635,-31 L 1634,-31 L 1633,-31 L 1633,-32 L 1634,-32 L 1633,-33 L 1632,-33 L 1631,-34 L 1631,-33 L 1632,-33 L 1631,-33 L 1631,-32 L 1632,-32 L 1631,-32 L 1630,-32 L 1630,-31 L 1629,-31 L 1628,-31 L 1627,-31 L 1627,-32 L 1628,-32 L 1628,-33 L 1629,-33 L 1630,-34 L 1629,-34 L 1629,-35 L 1628,-35 L 1627,-35 L 1626,-35 L 1626,-36 L 1626,-37 L 1627,-37 L 1628,-37 L 1628,-38 L 1629,-38 L 1629,-39 L 1630,-39 L 1630,-40 L 1629,-41 L 1628,-41 L 1627,-41 L 1626,-41 L 1626,-42 L 1626,-43 L 1627,-43 L 1627,-44 L 1626,-44 L 1626,-45 L 1625,-45 L 1624,-44 L 1624,-45 L 1623,-45 L 1624,-45 L 1624,-46 L 1623,-46 L 1623,-47 L 1623,-48 L 1624,-48 L 1624,-49 L 1624,-50 L 1625,-50 L 1625,-51 L 1625,-52 L 1624,-52 L 1624,-51 L 1623,-51 L 1624,-52 L 1623,-52 L 1622,-52 L 1623,-52 L 1623,-51 L 1622,-51 L 1621,-51 L 1621,-52 L 1621,-53 L 1620,-53 L 1620,-54 L 1619,-54 L 1619,-55 L 1619,-56 L 1620,-56 L 1620,-57 L 1621,-57 L 1621,-58 L 1622,-58 L 1623,-58 L 1624,-58 L 1624,-59 L 1625,-59 L 1625,-60 L 1625,-61 L 1626,-62 L 1626,-63 L 1626,-64 L 1627,-64 L 1627,-65 L 1626,-65 L 1627,-65 L 1627,-66 L 1627,-67 L 1628,-68 L 1628,-69 L 1628,-70 L 1629,-70 L 1629,-71 L 1628,-71 L 1628,-72 L 1628,-73 L 1627,-74 L 1627,-75 L 1627,-76 L 1627,-77 L 1626,-78 L 1626,-79 L 1627,-79 L 1627,-78 L 1628,-78 L 1628,-79 L 1628,-80 L 1629,-80 L 1629,-81 L 1628,-81 L 1627,-82 L 1627,-83 L 1626,-83 L 1625,-83 L 1625,-84 L 1624,-84 L 1625,-85 L 1626,-86 L 1626,-87 L 1626,-86 L 1627,-86 L 1627,-87 L 1627,-88 L 1638,-159 L 1655,-272 L 1656,-272 " /></g>
</svg>
