<?xml version="1.0" standalone="no"?><!DOCTYPE svg PUBLIC "-//W3C//DTD SVG 1.1//EN" "http://www.w3.org/Graphics/SVG/1.1/DTD/svg11.dtd"><svg xmlns="http://www.w3.org/2000/svg" viewBox="1588 123 409 159" version = "1.1">
<g id="71106" ><path d="M 1864,126 L 1903,125 L 1903,126 L 1904,126 L 1904,127 L 1904,128 L 1904,129 L 1904,130 L 1903,130 L 1903,131 L 1903,132 L 1904,132 L 1903,132 L 1903,133 L 1902,133 L 1901,133 L 1901,134 L 1901,135 L 1902,135 L 1903,135 L 1904,135 L 1905,135 L 1905,136 L 1905,137 L 1905,136 L 1906,136 L 1906,137 L 1907,137 L 1906,137 L 1906,138 L 1906,139 L 1907,139 L 1907,140 L 1908,141 L 1908,140 L 1909,140 L 1909,139 L 1909,138 L 1909,137 L 1910,137 L 1910,138 L 1911,137 L 1912,137 L 1912,138 L 1913,138 L 1912,138 L 1912,139 L 1912,140 L 1911,140 L 1911,141 L 1912,141 L 1911,141 L 1910,141 L 1911,141 L 1911,142 L 1910,142 L 1910,143 L 1909,143 L 1908,143 L 1908,142 L 1908,143 L 1908,144 L 1908,145 L 1908,144 L 1907,144 L 1907,145 L 1906,145 L 1906,146 L 1907,146 L 1906,146 L 1906,147 L 1905,147 L 1905,146 L 1905,147 L 1904,147 L 1904,148 L 1905,148 L 1906,148 L 1907,148 L 1907,147 L 1908,147 L 1908,146 L 1909,146 L 1909,147 L 1909,146 L 1910,146 L 1910,145 L 1911,145 L 1911,144 L 1912,144 L 1912,145 L 1913,144 L 1913,145 L 1914,145 L 1914,144 L 1915,144 L 1916,144 L 1916,145 L 1917,145 L 1918,145 L 1918,144 L 1917,144 L 1917,143 L 1918,143 L 1919,143 L 1920,143 L 1921,143 L 1921,144 L 1921,145 L 1922,144 L 1923,144 L 1923,145 L 1924,145 L 1925,145 L 1925,146 L 1924,146 L 1924,147 L 1925,147 L 1925,146 L 1926,146 L 1926,147 L 1927,147 L 1927,148 L 1928,148 L 1929,148 L 1928,148 L 1928,149 L 1929,149 L 1929,150 L 1930,150 L 1930,151 L 1931,151 L 1932,151 L 1932,152 L 1931,152 L 1930,152 L 1930,153 L 1931,152 L 1931,153 L 1932,153 L 1932,154 L 1933,154 L 1933,153 L 1934,153 L 1934,154 L 1934,155 L 1935,155 L 1936,155 L 1937,155 L 1938,154 L 1939,154 L 1940,154 L 1940,155 L 1941,156 L 1942,156 L 1943,157 L 1944,157 L 1945,157 L 1946,157 L 1946,158 L 1946,159 L 1947,159 L 1947,160 L 1948,160 L 1948,159 L 1948,160 L 1949,160 L 1949,159 L 1949,158 L 1950,157 L 1951,157 L 1951,158 L 1951,159 L 1952,160 L 1953,160 L 1955,161 L 1960,164 L 1961,165 L 1962,166 L 1961,167 L 1961,168 L 1961,169 L 1961,170 L 1961,171 L 1962,171 L 1962,170 L 1962,171 L 1963,171 L 1964,171 L 1965,171 L 1965,172 L 1965,173 L 1965,174 L 1966,174 L 1967,174 L 1968,174 L 1972,172 L 1972,171 L 1973,171 L 1974,171 L 1974,172 L 1975,173 L 1975,172 L 1976,172 L 1976,173 L 1977,173 L 1976,173 L 1977,174 L 1977,175 L 1977,176 L 1978,176 L 1979,176 L 1979,177 L 1980,177 L 1981,177 L 1981,178 L 1982,178 L 1982,177 L 1982,176 L 1982,175 L 1983,175 L 1983,174 L 1984,174 L 1985,174 L 1986,174 L 1986,173 L 1986,172 L 1987,171 L 1988,171 L 1988,172 L 1989,172 L 1990,172 L 1990,173 L 1990,174 L 1990,175 L 1989,175 L 1989,176 L 1988,176 L 1988,177 L 1988,178 L 1987,178 L 1987,177 L 1986,177 L 1985,177 L 1985,178 L 1985,179 L 1986,179 L 1986,180 L 1985,181 L 1985,182 L 1984,183 L 1983,184 L 1983,185 L 1983,186 L 1983,187 L 1984,187 L 1984,188 L 1983,188 L 1984,188 L 1984,189 L 1984,188 L 1985,188 L 1986,188 L 1986,189 L 1987,189 L 1987,190 L 1988,190 L 1989,190 L 1990,190 L 1990,191 L 1991,190 L 1992,190 L 1992,191 L 1992,190 L 1993,190 L 1993,191 L 1994,191 L 1993,191 L 1993,192 L 1992,192 L 1992,193 L 1992,194 L 1992,195 L 1992,196 L 1993,196 L 1994,196 L 1994,197 L 1993,197 L 1993,198 L 1994,198 L 1995,198 L 1996,198 L 1996,199 L 1997,200 L 1949,219 L 1927,228 L 1902,232 L 1837,241 L 1800,247 L 1780,251 L 1750,256 L 1699,264 L 1671,268 L 1644,270 L 1612,278 L 1593,281 L 1589,282 L 1589,280 L 1589,278 L 1589,277 L 1588,276 L 1588,275 L 1588,274 L 1588,273 L 1589,271 L 1590,271 L 1591,271 L 1593,271 L 1595,271 L 1597,271 L 1598,271 L 1600,270 L 1601,269 L 1601,267 L 1600,266 L 1599,265 L 1598,264 L 1597,263 L 1597,262 L 1597,261 L 1598,261 L 1599,260 L 1600,260 L 1601,260 L 1601,259 L 1601,257 L 1601,256 L 1600,256 L 1600,255 L 1599,255 L 1598,254 L 1598,253 L 1598,252 L 1598,251 L 1598,250 L 1599,249 L 1599,248 L 1598,247 L 1598,245 L 1598,244 L 1598,243 L 1599,242 L 1600,241 L 1601,240 L 1602,240 L 1603,240 L 1604,240 L 1605,240 L 1606,240 L 1606,238 L 1607,237 L 1607,235 L 1607,234 L 1607,233 L 1606,232 L 1606,231 L 1605,229 L 1604,228 L 1604,227 L 1604,225 L 1605,224 L 1604,223 L 1603,222 L 1602,222 L 1602,220 L 1602,219 L 1603,217 L 1604,216 L 1604,213 L 1604,211 L 1603,209 L 1603,208 L 1603,206 L 1604,205 L 1604,203 L 1605,202 L 1607,199 L 1608,197 L 1609,196 L 1609,195 L 1609,194 L 1608,193 L 1607,193 L 1606,192 L 1605,191 L 1605,190 L 1604,189 L 1603,188 L 1603,187 L 1603,185 L 1604,185 L 1604,184 L 1605,184 L 1606,183 L 1607,181 L 1606,179 L 1605,179 L 1603,180 L 1602,180 L 1600,180 L 1599,179 L 1597,179 L 1595,177 L 1595,176 L 1594,175 L 1593,173 L 1591,172 L 1589,171 L 1590,170 L 1597,166 L 1600,164 L 1605,161 L 1609,159 L 1610,158 L 1611,157 L 1611,156 L 1613,153 L 1614,152 L 1614,151 L 1615,151 L 1616,150 L 1617,150 L 1618,149 L 1619,149 L 1621,149 L 1622,148 L 1623,148 L 1623,147 L 1624,147 L 1625,146 L 1627,144 L 1627,143 L 1628,143 L 1628,142 L 1629,142 L 1630,142 L 1631,141 L 1633,141 L 1634,140 L 1635,139 L 1636,134 L 1645,135 L 1645,136 L 1644,136 L 1644,137 L 1644,138 L 1644,139 L 1643,139 L 1643,140 L 1644,140 L 1645,140 L 1645,141 L 1645,142 L 1646,142 L 1646,143 L 1647,143 L 1646,143 L 1646,144 L 1645,144 L 1650,147 L 1666,140 L 1712,130 L 1730,129 L 1743,127 L 1769,125 L 1792,123 L 1827,125 L 1863,126 L 1864,126 " /></g>
</svg>
