<?xml version="1.0" standalone="no"?><!DOCTYPE svg PUBLIC "-//W3C//DTD SVG 1.1//EN" "http://www.w3.org/Graphics/SVG/1.1/DTD/svg11.dtd"><svg xmlns="http://www.w3.org/2000/svg" viewBox="1585 -972 442 1099" version = "1.1">
<g id="71101" ><path d="M 1804,-908 L 1804,-890 L 1804,-867 L 1805,-845 L 1805,-835 L 1805,-826 L 1806,-823 L 1807,-820 L 1807,-818 L 1809,-814 L 1812,-811 L 1816,-807 L 1822,-802 L 1826,-800 L 1830,-796 L 1840,-791 L 1846,-786 L 1852,-782 L 1859,-777 L 1865,-774 L 1870,-770 L 1875,-767 L 1884,-763 L 1887,-761 L 1889,-760 L 1892,-758 L 1896,-755 L 1929,-732 L 1938,-723 L 1943,-716 L 1952,-695 L 1953,-695 L 1953,-694 L 1954,-694 L 1954,-693 L 1955,-693 L 1955,-692 L 1956,-692 L 1957,-692 L 1957,-691 L 1957,-690 L 1957,-689 L 1957,-688 L 1958,-688 L 1959,-688 L 1959,-687 L 1960,-687 L 1960,-686 L 1961,-686 L 1961,-685 L 1960,-685 L 1961,-684 L 1961,-683 L 1961,-682 L 1962,-682 L 1961,-681 L 1962,-681 L 1962,-680 L 1963,-680 L 1964,-679 L 1965,-679 L 1965,-678 L 1966,-678 L 1966,-677 L 1967,-677 L 1966,-677 L 1966,-676 L 1967,-676 L 1967,-675 L 1968,-675 L 1969,-675 L 1969,-674 L 1970,-674 L 1970,-673 L 1970,-672 L 1970,-671 L 1971,-671 L 1971,-670 L 1971,-669 L 1972,-669 L 1972,-668 L 1972,-667 L 1972,-666 L 1972,-665 L 1972,-664 L 1972,-663 L 1973,-662 L 1974,-662 L 1974,-661 L 1975,-661 L 1975,-660 L 1976,-660 L 1977,-660 L 1978,-660 L 1978,-659 L 1979,-659 L 1979,-658 L 1980,-658 L 1980,-657 L 1981,-657 L 1982,-657 L 1983,-657 L 1984,-657 L 1984,-656 L 1985,-656 L 1985,-657 L 1986,-657 L 1987,-657 L 1987,-656 L 1988,-657 L 1988,-658 L 1989,-658 L 1988,-658 L 1988,-659 L 1989,-659 L 1989,-660 L 1990,-660 L 1990,-659 L 1990,-658 L 1990,-657 L 1991,-657 L 1991,-656 L 1992,-656 L 1992,-655 L 1992,-654 L 1992,-653 L 1992,-652 L 1993,-652 L 1993,-651 L 1994,-651 L 1994,-650 L 1995,-649 L 1995,-648 L 1996,-648 L 1996,-649 L 1996,-648 L 1997,-648 L 1997,-647 L 1998,-647 L 1999,-646 L 1999,-645 L 2000,-644 L 2000,-643 L 2000,-642 L 2000,-641 L 2000,-640 L 2001,-639 L 2001,-638 L 2001,-637 L 2001,-636 L 2002,-636 L 2002,-635 L 2003,-635 L 2003,-634 L 2003,-633 L 2004,-633 L 2004,-632 L 2004,-631 L 2004,-630 L 2004,-629 L 2004,-627 L 2003,-627 L 2004,-626 L 2004,-625 L 2004,-624 L 2005,-624 L 2005,-623 L 2006,-623 L 2007,-623 L 2008,-623 L 2009,-623 L 2009,-622 L 2009,-621 L 2009,-620 L 2009,-619 L 2009,-618 L 2009,-617 L 2009,-616 L 2009,-615 L 2009,-614 L 2009,-613 L 2010,-613 L 2010,-612 L 2010,-611 L 2011,-610 L 2011,-609 L 2012,-609 L 2012,-608 L 2012,-607 L 2013,-607 L 2013,-606 L 2013,-605 L 2013,-604 L 2014,-604 L 2014,-603 L 2014,-602 L 2014,-601 L 2014,-600 L 2014,-599 L 2014,-598 L 2015,-598 L 2015,-597 L 2015,-596 L 2014,-595 L 2014,-594 L 2015,-593 L 2015,-592 L 2016,-592 L 2016,-593 L 2017,-593 L 2018,-593 L 2019,-593 L 2019,-592 L 2019,-591 L 2018,-591 L 2018,-590 L 2018,-589 L 2018,-588 L 2018,-587 L 2019,-586 L 2019,-585 L 2020,-585 L 2020,-584 L 2019,-584 L 2019,-583 L 2020,-583 L 2020,-582 L 2020,-581 L 2021,-580 L 2021,-579 L 2021,-578 L 2022,-578 L 2022,-577 L 2022,-575 L 2022,-574 L 2022,-573 L 2022,-572 L 2022,-571 L 2021,-569 L 2022,-568 L 2022,-567 L 2022,-566 L 2023,-565 L 2023,-564 L 2023,-563 L 2023,-562 L 2023,-561 L 2023,-560 L 2023,-559 L 2023,-558 L 2023,-557 L 2023,-556 L 2023,-555 L 2023,-554 L 2022,-553 L 2022,-552 L 2022,-551 L 2022,-550 L 2023,-550 L 2023,-549 L 2023,-548 L 2023,-547 L 2023,-546 L 2023,-545 L 2023,-544 L 2023,-543 L 2023,-542 L 2023,-541 L 2023,-540 L 2023,-539 L 2023,-538 L 2023,-536 L 2023,-535 L 2023,-533 L 2023,-532 L 2023,-531 L 2023,-530 L 2023,-529 L 2023,-528 L 2023,-527 L 2024,-526 L 2025,-525 L 2025,-524 L 2025,-523 L 2026,-522 L 2026,-521 L 2027,-520 L 2027,-519 L 2027,-518 L 2027,-517 L 2026,-517 L 2026,-516 L 2026,-515 L 2026,-514 L 2026,-513 L 2027,-513 L 2027,-512 L 2027,-510 L 2026,-509 L 2026,-508 L 2025,-507 L 2024,-506 L 2024,-505 L 2024,-504 L 2024,-503 L 2024,-501 L 2024,-500 L 2023,-498 L 2023,-497 L 2023,-496 L 2022,-495 L 2022,-494 L 2023,-494 L 2023,-493 L 2023,-492 L 2022,-491 L 2023,-490 L 2022,-490 L 2022,-489 L 2022,-488 L 2022,-487 L 2022,-486 L 2022,-485 L 2022,-484 L 2021,-484 L 2021,-483 L 2021,-482 L 2020,-482 L 2020,-481 L 2019,-480 L 2018,-480 L 2018,-479 L 2017,-479 L 2017,-478 L 2018,-478 L 2018,-477 L 2018,-476 L 2019,-474 L 2019,-473 L 2020,-473 L 2020,-472 L 2019,-472 L 2019,-471 L 2019,-470 L 2018,-470 L 2018,-469 L 2018,-468 L 2018,-467 L 2019,-467 L 2020,-467 L 2020,-466 L 2021,-465 L 2021,-464 L 2021,-463 L 2021,-462 L 2021,-461 L 2021,-460 L 2021,-459 L 2022,-458 L 2022,-457 L 2021,-457 L 2021,-456 L 2021,-455 L 2021,-454 L 2022,-454 L 2022,-453 L 2023,-453 L 2023,-452 L 2024,-451 L 2024,-450 L 2024,-449 L 2024,-443 L 2023,-438 L 2023,-433 L 2022,-429 L 2022,-425 L 2021,-412 L 2017,-375 L 2015,-358 L 2014,-349 L 2013,-348 L 2014,-347 L 2014,-346 L 2014,-344 L 2014,-343 L 2013,-342 L 2013,-341 L 2013,-338 L 2011,-335 L 2011,-334 L 2011,-333 L 2011,-332 L 2011,-331 L 2012,-330 L 2011,-329 L 2011,-328 L 2010,-328 L 2010,-327 L 2011,-326 L 2010,-325 L 2010,-324 L 2009,-323 L 2009,-321 L 2008,-320 L 2008,-319 L 2008,-318 L 2007,-317 L 2008,-317 L 2008,-316 L 2009,-315 L 2010,-314 L 2010,-313 L 2010,-312 L 2010,-311 L 2010,-310 L 2010,-309 L 2010,-308 L 2009,-308 L 2009,-307 L 2008,-306 L 2008,-305 L 2007,-305 L 2007,-304 L 2006,-303 L 2006,-302 L 2006,-301 L 2005,-301 L 2005,-300 L 2005,-299 L 2006,-298 L 2006,-297 L 2005,-297 L 2004,-296 L 2003,-295 L 2002,-295 L 2001,-295 L 2000,-295 L 2000,-294 L 1999,-294 L 1998,-294 L 1997,-295 L 1997,-296 L 1996,-296 L 1996,-297 L 1996,-298 L 1996,-299 L 1995,-299 L 1994,-299 L 1994,-300 L 1993,-300 L 1992,-300 L 1991,-300 L 1990,-300 L 1989,-300 L 1988,-300 L 1987,-300 L 1986,-299 L 1985,-299 L 1985,-298 L 1984,-298 L 1983,-297 L 1983,-296 L 1984,-295 L 1985,-295 L 1986,-295 L 1986,-294 L 1987,-294 L 1988,-293 L 1988,-292 L 1988,-291 L 1989,-291 L 1989,-290 L 1989,-289 L 1989,-288 L 1989,-287 L 1989,-286 L 1989,-285 L 1989,-284 L 1990,-284 L 1990,-283 L 1991,-282 L 1991,-281 L 1992,-281 L 1992,-280 L 1993,-279 L 1993,-278 L 1993,-277 L 1993,-276 L 1994,-275 L 1994,-274 L 1994,-273 L 1995,-273 L 1995,-272 L 1996,-271 L 1996,-270 L 1996,-269 L 1996,-268 L 1995,-267 L 1996,-267 L 1996,-266 L 1995,-266 L 1995,-265 L 1994,-265 L 1995,-264 L 1994,-264 L 1994,-263 L 1993,-262 L 1993,-261 L 1993,-260 L 1994,-259 L 1994,-258 L 1993,-258 L 1993,-257 L 1993,-256 L 1992,-255 L 1991,-255 L 1991,-254 L 1991,-253 L 1990,-253 L 1990,-252 L 1989,-252 L 1989,-251 L 1988,-250 L 1987,-250 L 1986,-249 L 1985,-249 L 1985,-248 L 1984,-248 L 1983,-247 L 1982,-247 L 1981,-247 L 1980,-246 L 1979,-246 L 1978,-245 L 1977,-245 L 1976,-244 L 1975,-244 L 1975,-243 L 1974,-243 L 1974,-242 L 1973,-241 L 1973,-240 L 1972,-240 L 1972,-239 L 1971,-238 L 1971,-237 L 1971,-236 L 1971,-235 L 1970,-234 L 1970,-233 L 1968,-229 L 1966,-224 L 1966,-221 L 1964,-218 L 1962,-214 L 1961,-207 L 1960,-201 L 1960,-196 L 1960,-193 L 1960,-192 L 1961,-192 L 1960,-192 L 1960,-191 L 1960,-190 L 1959,-190 L 1959,-189 L 1959,-188 L 1959,-187 L 1960,-187 L 1959,-186 L 1959,-185 L 1959,-184 L 1959,-183 L 1959,-182 L 1959,-181 L 1959,-180 L 1960,-180 L 1959,-180 L 1959,-179 L 1960,-179 L 1960,-178 L 1959,-178 L 1960,-178 L 1960,-177 L 1960,-176 L 1959,-176 L 1959,-175 L 1959,-174 L 1958,-174 L 1958,-173 L 1957,-173 L 1958,-173 L 1958,-172 L 1959,-172 L 1959,-171 L 1958,-170 L 1958,-169 L 1959,-169 L 1958,-169 L 1958,-168 L 1959,-168 L 1959,-167 L 1959,-166 L 1960,-166 L 1960,-165 L 1960,-164 L 1961,-164 L 1961,-163 L 1961,-162 L 1961,-161 L 1961,-160 L 1961,-159 L 1961,-158 L 1961,-157 L 1962,-157 L 1962,-156 L 1961,-156 L 1961,-155 L 1961,-154 L 1960,-154 L 1960,-153 L 1960,-152 L 1959,-152 L 1959,-151 L 1958,-151 L 1958,-150 L 1958,-149 L 1958,-148 L 1958,-147 L 1958,-146 L 1958,-145 L 1958,-144 L 1959,-144 L 1959,-143 L 1958,-142 L 1957,-142 L 1957,-141 L 1956,-140 L 1956,-139 L 1956,-138 L 1956,-137 L 1956,-136 L 1956,-135 L 1955,-135 L 1955,-134 L 1955,-133 L 1954,-132 L 1955,-132 L 1955,-131 L 1956,-130 L 1957,-130 L 1957,-129 L 1957,-128 L 1957,-127 L 1957,-126 L 1958,-126 L 1958,-125 L 1958,-124 L 1958,-123 L 1959,-123 L 1959,-122 L 1960,-121 L 1961,-121 L 1962,-121 L 1963,-121 L 1963,-120 L 1963,-119 L 1963,-118 L 1963,-117 L 1963,-116 L 1963,-115 L 1963,-114 L 1963,-113 L 1963,-112 L 1963,-111 L 1963,-110 L 1963,-109 L 1963,-108 L 1962,-108 L 1962,-107 L 1962,-106 L 1962,-105 L 1962,-104 L 1963,-103 L 1963,-102 L 1963,-101 L 1964,-101 L 1964,-100 L 1965,-100 L 1965,-99 L 1965,-98 L 1965,-97 L 1965,-96 L 1966,-96 L 1966,-95 L 1966,-94 L 1967,-94 L 1967,-93 L 1967,-92 L 1967,-91 L 1967,-90 L 1968,-90 L 1968,-89 L 1967,-88 L 1967,-87 L 1968,-87 L 1968,-86 L 1969,-86 L 1969,-85 L 1970,-85 L 1969,-84 L 1969,-83 L 1968,-83 L 1968,-82 L 1968,-81 L 1967,-81 L 1967,-80 L 1967,-79 L 1967,-78 L 1967,-77 L 1967,-76 L 1967,-75 L 1967,-74 L 1968,-74 L 1969,-74 L 1969,-73 L 1969,-72 L 1970,-72 L 1970,-71 L 1970,-70 L 1970,-69 L 1969,-69 L 1969,-68 L 1970,-67 L 1970,-66 L 1969,-65 L 1970,-65 L 1970,-64 L 1970,-63 L 1970,-62 L 1971,-62 L 1972,-62 L 1972,-61 L 1972,-60 L 1973,-60 L 1973,-59 L 1973,-58 L 1974,-58 L 1974,-57 L 1974,-56 L 1973,-56 L 1973,-55 L 1973,-54 L 1973,-53 L 1973,-52 L 1972,-52 L 1972,-51 L 1972,-50 L 1971,-50 L 1970,-51 L 1970,-50 L 1969,-50 L 1970,-50 L 1970,-49 L 1969,-49 L 1969,-48 L 1968,-48 L 1968,-47 L 1969,-47 L 1969,-46 L 1968,-46 L 1968,-45 L 1968,-44 L 1967,-44 L 1967,-43 L 1966,-43 L 1966,-42 L 1965,-42 L 1965,-41 L 1964,-42 L 1963,-41 L 1963,-40 L 1962,-40 L 1961,-40 L 1960,-40 L 1959,-40 L 1958,-40 L 1959,-40 L 1959,-39 L 1959,-38 L 1958,-38 L 1957,-38 L 1956,-37 L 1955,-37 L 1955,-36 L 1955,-35 L 1954,-35 L 1953,-36 L 1952,-36 L 1951,-35 L 1951,-34 L 1950,-34 L 1950,-33 L 1949,-33 L 1949,-34 L 1949,-35 L 1948,-35 L 1948,-34 L 1947,-34 L 1947,-33 L 1946,-33 L 1946,-34 L 1945,-34 L 1944,-35 L 1944,-34 L 1943,-34 L 1943,-33 L 1943,-34 L 1942,-34 L 1941,-34 L 1940,-34 L 1940,-33 L 1939,-33 L 1939,-32 L 1940,-32 L 1941,-32 L 1941,-31 L 1940,-31 L 1940,-30 L 1939,-30 L 1938,-30 L 1939,-30 L 1938,-30 L 1938,-29 L 1938,-28 L 1937,-28 L 1936,-28 L 1935,-28 L 1934,-27 L 1934,-26 L 1933,-26 L 1933,-25 L 1932,-25 L 1931,-25 L 1931,-24 L 1930,-24 L 1930,-23 L 1929,-23 L 1929,-22 L 1928,-22 L 1928,-21 L 1927,-21 L 1927,-20 L 1926,-20 L 1927,-20 L 1927,-19 L 1926,-19 L 1925,-19 L 1925,-20 L 1924,-20 L 1924,-21 L 1923,-21 L 1923,-20 L 1923,-19 L 1922,-19 L 1922,-18 L 1922,-17 L 1923,-17 L 1923,-16 L 1922,-16 L 1922,-15 L 1922,-14 L 1921,-14 L 1921,-13 L 1920,-14 L 1919,-13 L 1919,-12 L 1919,-11 L 1919,-10 L 1919,-9 L 1918,-9 L 1918,-8 L 1917,-8 L 1916,-8 L 1917,-8 L 1916,-9 L 1916,-10 L 1916,-11 L 1915,-11 L 1914,-11 L 1913,-11 L 1913,-10 L 1913,-11 L 1912,-11 L 1911,-11 L 1910,-11 L 1910,-12 L 1911,-13 L 1912,-13 L 1912,-14 L 1912,-15 L 1911,-15 L 1911,-16 L 1910,-16 L 1910,-17 L 1910,-18 L 1909,-18 L 1908,-18 L 1908,-19 L 1908,-20 L 1907,-20 L 1906,-21 L 1906,-20 L 1905,-20 L 1905,-21 L 1905,-22 L 1904,-22 L 1903,-22 L 1903,-23 L 1902,-23 L 1902,-24 L 1901,-24 L 1901,-25 L 1900,-25 L 1899,-25 L 1898,-25 L 1897,-25 L 1896,-25 L 1895,-25 L 1895,-26 L 1894,-26 L 1893,-26 L 1893,-27 L 1892,-27 L 1892,-28 L 1892,-29 L 1892,-30 L 1891,-30 L 1891,-31 L 1890,-31 L 1889,-31 L 1889,-32 L 1888,-32 L 1888,-33 L 1887,-33 L 1887,-34 L 1887,-33 L 1886,-34 L 1886,-35 L 1885,-35 L 1885,-36 L 1884,-37 L 1883,-38 L 1882,-38 L 1881,-38 L 1880,-38 L 1879,-38 L 1879,-39 L 1878,-40 L 1878,-39 L 1877,-39 L 1876,-39 L 1875,-39 L 1874,-39 L 1873,-39 L 1872,-39 L 1872,-40 L 1871,-40 L 1870,-40 L 1869,-40 L 1868,-40 L 1868,-39 L 1867,-39 L 1866,-39 L 1865,-39 L 1863,-39 L 1848,-12 L 1833,12 L 1818,33 L 1801,62 L 1798,69 L 1798,70 L 1799,70 L 1798,70 L 1798,71 L 1797,71 L 1796,72 L 1796,73 L 1796,74 L 1796,75 L 1795,75 L 1795,76 L 1795,77 L 1794,77 L 1794,76 L 1793,76 L 1792,76 L 1791,76 L 1790,76 L 1789,76 L 1789,75 L 1788,75 L 1787,75 L 1786,75 L 1786,74 L 1786,73 L 1785,73 L 1784,73 L 1784,72 L 1784,71 L 1783,71 L 1782,71 L 1782,70 L 1781,70 L 1780,70 L 1779,70 L 1779,71 L 1779,72 L 1779,73 L 1780,74 L 1779,74 L 1778,74 L 1778,75 L 1778,74 L 1777,74 L 1777,75 L 1778,75 L 1777,75 L 1777,76 L 1777,75 L 1776,75 L 1776,76 L 1777,77 L 1777,76 L 1778,76 L 1778,77 L 1779,77 L 1778,77 L 1777,77 L 1776,77 L 1776,78 L 1777,78 L 1778,78 L 1778,79 L 1779,79 L 1779,78 L 1780,78 L 1780,79 L 1780,80 L 1781,80 L 1781,79 L 1780,79 L 1780,78 L 1780,79 L 1781,79 L 1782,78 L 1783,78 L 1783,79 L 1782,79 L 1782,80 L 1782,79 L 1782,80 L 1783,80 L 1782,81 L 1782,80 L 1782,81 L 1783,82 L 1783,81 L 1784,81 L 1784,82 L 1785,82 L 1785,81 L 1785,80 L 1786,81 L 1786,80 L 1787,80 L 1786,80 L 1787,81 L 1787,80 L 1788,80 L 1788,81 L 1787,81 L 1788,81 L 1788,82 L 1788,81 L 1789,81 L 1789,80 L 1790,80 L 1790,81 L 1789,81 L 1789,82 L 1790,82 L 1791,81 L 1791,82 L 1791,83 L 1792,83 L 1792,84 L 1793,84 L 1793,85 L 1792,85 L 1793,85 L 1793,86 L 1793,85 L 1794,85 L 1795,85 L 1795,86 L 1795,85 L 1794,85 L 1794,86 L 1795,86 L 1796,86 L 1796,87 L 1797,87 L 1796,87 L 1797,87 L 1797,88 L 1798,87 L 1798,88 L 1799,88 L 1799,89 L 1800,89 L 1801,89 L 1802,89 L 1801,89 L 1801,90 L 1800,90 L 1800,91 L 1800,90 L 1801,90 L 1801,91 L 1802,91 L 1802,90 L 1802,89 L 1803,89 L 1803,90 L 1802,90 L 1803,90 L 1803,91 L 1804,91 L 1805,91 L 1806,91 L 1807,91 L 1806,91 L 1806,92 L 1807,92 L 1808,92 L 1809,92 L 1809,93 L 1809,94 L 1808,93 L 1807,93 L 1808,93 L 1808,94 L 1807,94 L 1807,95 L 1808,95 L 1808,94 L 1809,94 L 1810,95 L 1810,96 L 1811,96 L 1812,96 L 1812,97 L 1811,97 L 1812,97 L 1812,98 L 1813,98 L 1813,97 L 1813,96 L 1813,95 L 1813,96 L 1814,96 L 1814,97 L 1815,97 L 1816,97 L 1816,98 L 1815,98 L 1814,98 L 1814,99 L 1815,99 L 1816,99 L 1816,100 L 1817,101 L 1816,101 L 1816,100 L 1815,100 L 1815,101 L 1815,102 L 1815,103 L 1814,102 L 1813,102 L 1813,103 L 1814,103 L 1815,103 L 1816,103 L 1817,103 L 1817,104 L 1818,104 L 1818,103 L 1818,104 L 1819,104 L 1819,105 L 1820,105 L 1820,106 L 1820,107 L 1820,106 L 1821,106 L 1822,106 L 1822,107 L 1822,108 L 1823,108 L 1824,108 L 1824,109 L 1825,109 L 1826,109 L 1826,110 L 1827,110 L 1826,110 L 1826,109 L 1827,109 L 1828,109 L 1828,108 L 1829,108 L 1829,109 L 1830,109 L 1831,109 L 1831,110 L 1831,109 L 1832,109 L 1832,110 L 1833,110 L 1833,109 L 1833,110 L 1834,110 L 1834,111 L 1835,111 L 1834,111 L 1833,112 L 1834,112 L 1834,113 L 1834,112 L 1835,112 L 1835,111 L 1835,112 L 1836,112 L 1836,113 L 1837,113 L 1837,112 L 1836,112 L 1837,112 L 1838,112 L 1839,112 L 1840,112 L 1840,113 L 1839,113 L 1839,112 L 1839,113 L 1839,114 L 1840,114 L 1841,114 L 1841,113 L 1842,113 L 1842,112 L 1843,112 L 1844,112 L 1844,113 L 1843,113 L 1843,112 L 1843,113 L 1843,114 L 1844,114 L 1844,113 L 1844,112 L 1845,112 L 1844,113 L 1844,114 L 1845,113 L 1846,113 L 1846,112 L 1846,111 L 1847,111 L 1846,111 L 1846,110 L 1845,110 L 1846,110 L 1846,109 L 1847,109 L 1848,109 L 1848,110 L 1849,110 L 1849,111 L 1850,111 L 1849,111 L 1849,112 L 1849,113 L 1849,112 L 1850,112 L 1851,112 L 1851,113 L 1851,114 L 1851,113 L 1852,113 L 1852,114 L 1853,114 L 1852,114 L 1852,115 L 1852,114 L 1851,114 L 1850,114 L 1850,115 L 1851,115 L 1851,116 L 1852,116 L 1852,115 L 1852,116 L 1853,116 L 1854,116 L 1853,116 L 1852,116 L 1852,117 L 1853,117 L 1853,118 L 1854,118 L 1854,117 L 1854,118 L 1855,118 L 1856,118 L 1857,118 L 1856,118 L 1856,119 L 1857,119 L 1858,120 L 1857,120 L 1857,119 L 1856,119 L 1856,120 L 1857,120 L 1857,121 L 1858,121 L 1859,121 L 1858,121 L 1858,122 L 1859,122 L 1859,121 L 1859,122 L 1860,122 L 1860,121 L 1861,122 L 1860,122 L 1860,123 L 1861,123 L 1862,123 L 1862,124 L 1861,124 L 1862,124 L 1861,125 L 1862,125 L 1862,126 L 1862,125 L 1863,125 L 1863,126 L 1864,126 L 1863,126 L 1827,125 L 1792,123 L 1769,125 L 1743,127 L 1743,126 L 1743,125 L 1744,125 L 1744,124 L 1744,123 L 1743,123 L 1743,122 L 1743,121 L 1744,121 L 1744,120 L 1744,119 L 1743,119 L 1742,119 L 1742,118 L 1742,117 L 1742,116 L 1742,115 L 1741,114 L 1741,113 L 1740,113 L 1741,113 L 1741,112 L 1741,111 L 1742,111 L 1742,110 L 1741,109 L 1740,109 L 1740,108 L 1739,107 L 1739,106 L 1738,105 L 1739,104 L 1739,103 L 1740,103 L 1740,102 L 1740,101 L 1740,100 L 1740,99 L 1740,98 L 1740,97 L 1740,96 L 1739,96 L 1739,95 L 1738,95 L 1737,95 L 1737,94 L 1737,93 L 1736,93 L 1736,92 L 1736,91 L 1736,90 L 1735,90 L 1735,89 L 1735,88 L 1736,88 L 1735,88 L 1735,87 L 1734,87 L 1734,86 L 1733,85 L 1732,85 L 1731,85 L 1730,85 L 1730,84 L 1730,83 L 1731,83 L 1731,82 L 1731,81 L 1730,81 L 1730,80 L 1731,80 L 1731,79 L 1730,79 L 1730,78 L 1729,78 L 1729,79 L 1728,78 L 1728,77 L 1728,76 L 1728,75 L 1727,75 L 1727,74 L 1727,73 L 1727,72 L 1727,71 L 1726,71 L 1726,70 L 1725,70 L 1725,69 L 1724,69 L 1724,68 L 1723,68 L 1723,67 L 1722,67 L 1722,66 L 1722,65 L 1722,64 L 1721,64 L 1722,64 L 1721,63 L 1721,62 L 1721,61 L 1721,60 L 1721,59 L 1721,58 L 1722,57 L 1722,56 L 1723,56 L 1723,55 L 1724,55 L 1724,54 L 1723,54 L 1723,53 L 1722,53 L 1722,52 L 1721,52 L 1721,53 L 1720,53 L 1719,53 L 1719,52 L 1718,52 L 1717,52 L 1717,51 L 1717,52 L 1716,52 L 1716,51 L 1715,51 L 1716,52 L 1715,52 L 1715,51 L 1715,50 L 1714,50 L 1713,50 L 1712,50 L 1711,49 L 1712,49 L 1712,48 L 1711,48 L 1711,47 L 1712,47 L 1712,46 L 1712,45 L 1713,45 L 1712,45 L 1711,46 L 1710,46 L 1710,45 L 1709,44 L 1710,44 L 1710,43 L 1709,43 L 1710,43 L 1710,42 L 1709,42 L 1709,41 L 1710,41 L 1711,41 L 1711,40 L 1710,40 L 1711,40 L 1711,39 L 1710,39 L 1709,39 L 1709,38 L 1709,37 L 1708,37 L 1708,36 L 1709,36 L 1709,37 L 1710,37 L 1710,36 L 1710,35 L 1711,35 L 1711,36 L 1712,35 L 1711,35 L 1711,34 L 1710,34 L 1709,34 L 1709,33 L 1710,33 L 1710,34 L 1711,34 L 1712,33 L 1711,32 L 1711,33 L 1710,33 L 1709,33 L 1709,32 L 1710,32 L 1711,32 L 1711,31 L 1711,30 L 1711,31 L 1712,31 L 1712,30 L 1711,30 L 1710,30 L 1710,29 L 1709,29 L 1709,28 L 1708,28 L 1708,27 L 1707,28 L 1707,27 L 1708,27 L 1708,26 L 1709,26 L 1709,25 L 1709,24 L 1710,24 L 1709,24 L 1708,24 L 1707,25 L 1707,24 L 1706,24 L 1707,24 L 1707,23 L 1708,23 L 1708,22 L 1708,21 L 1709,20 L 1709,19 L 1710,19 L 1710,18 L 1709,18 L 1710,18 L 1711,18 L 1711,17 L 1710,17 L 1709,17 L 1709,18 L 1709,19 L 1708,19 L 1708,18 L 1708,17 L 1707,17 L 1707,16 L 1708,16 L 1709,16 L 1709,15 L 1708,15 L 1710,7 L 1710,-3 L 1709,-10 L 1710,-9 L 1714,-8 L 1717,-6 L 1718,-5 L 1721,-5 L 1724,-4 L 1728,-4 L 1735,-4 L 1743,-6 L 1749,-8 L 1755,-15 L 1760,-20 L 1764,-28 L 1766,-32 L 1767,-34 L 1768,-35 L 1768,-36 L 1767,-36 L 1766,-36 L 1767,-35 L 1766,-35 L 1766,-36 L 1766,-37 L 1765,-37 L 1765,-38 L 1764,-38 L 1764,-37 L 1763,-36 L 1762,-36 L 1762,-37 L 1761,-37 L 1761,-36 L 1760,-36 L 1761,-35 L 1761,-34 L 1760,-34 L 1760,-35 L 1759,-35 L 1759,-36 L 1759,-37 L 1760,-37 L 1760,-38 L 1759,-38 L 1759,-37 L 1758,-37 L 1758,-38 L 1758,-39 L 1757,-39 L 1757,-38 L 1756,-38 L 1756,-39 L 1756,-40 L 1755,-40 L 1754,-40 L 1754,-39 L 1753,-39 L 1753,-40 L 1752,-40 L 1752,-41 L 1753,-41 L 1752,-41 L 1753,-41 L 1753,-42 L 1752,-42 L 1751,-42 L 1751,-43 L 1750,-43 L 1749,-43 L 1749,-44 L 1749,-43 L 1748,-43 L 1747,-43 L 1747,-44 L 1746,-44 L 1746,-43 L 1745,-43 L 1744,-43 L 1744,-44 L 1743,-44 L 1744,-44 L 1744,-45 L 1744,-44 L 1745,-44 L 1745,-45 L 1745,-46 L 1744,-46 L 1744,-47 L 1743,-47 L 1743,-46 L 1742,-46 L 1742,-47 L 1742,-48 L 1743,-48 L 1744,-48 L 1745,-48 L 1745,-49 L 1746,-49 L 1746,-48 L 1747,-48 L 1747,-49 L 1747,-50 L 1746,-50 L 1745,-50 L 1745,-49 L 1744,-49 L 1744,-50 L 1743,-50 L 1742,-51 L 1742,-50 L 1741,-50 L 1741,-49 L 1740,-49 L 1741,-50 L 1741,-51 L 1740,-51 L 1740,-50 L 1739,-50 L 1739,-49 L 1738,-49 L 1738,-50 L 1738,-51 L 1737,-51 L 1738,-51 L 1738,-52 L 1739,-52 L 1739,-53 L 1739,-54 L 1739,-55 L 1738,-55 L 1738,-56 L 1738,-57 L 1738,-58 L 1739,-58 L 1739,-59 L 1740,-60 L 1740,-61 L 1740,-62 L 1740,-63 L 1740,-64 L 1740,-65 L 1740,-66 L 1740,-67 L 1740,-68 L 1741,-68 L 1741,-69 L 1741,-70 L 1741,-71 L 1742,-71 L 1741,-72 L 1741,-73 L 1741,-74 L 1741,-75 L 1742,-75 L 1742,-76 L 1743,-76 L 1743,-77 L 1744,-78 L 1744,-79 L 1744,-80 L 1744,-81 L 1744,-82 L 1745,-83 L 1745,-84 L 1745,-85 L 1747,-88 L 1747,-96 L 1747,-97 L 1747,-98 L 1748,-98 L 1748,-99 L 1749,-99 L 1750,-99 L 1751,-99 L 1751,-100 L 1751,-101 L 1752,-101 L 1752,-102 L 1752,-103 L 1753,-103 L 1753,-102 L 1754,-102 L 1755,-103 L 1755,-104 L 1755,-105 L 1756,-105 L 1755,-106 L 1756,-106 L 1756,-107 L 1755,-107 L 1755,-108 L 1756,-108 L 1756,-109 L 1756,-110 L 1755,-110 L 1755,-111 L 1755,-112 L 1755,-113 L 1756,-113 L 1755,-113 L 1755,-114 L 1755,-115 L 1755,-116 L 1756,-116 L 1756,-117 L 1756,-118 L 1755,-118 L 1755,-119 L 1756,-119 L 1756,-120 L 1757,-120 L 1757,-121 L 1756,-132 L 1756,-131 L 1756,-132 L 1757,-132 L 1758,-132 L 1758,-133 L 1759,-133 L 1760,-133 L 1760,-134 L 1761,-134 L 1761,-135 L 1761,-136 L 1761,-137 L 1760,-137 L 1759,-137 L 1759,-138 L 1759,-139 L 1758,-139 L 1758,-140 L 1757,-140 L 1757,-141 L 1758,-141 L 1758,-142 L 1757,-142 L 1757,-141 L 1756,-141 L 1756,-142 L 1756,-143 L 1756,-144 L 1755,-144 L 1755,-145 L 1755,-146 L 1754,-146 L 1754,-147 L 1753,-147 L 1753,-148 L 1753,-149 L 1753,-150 L 1753,-151 L 1753,-152 L 1754,-152 L 1753,-153 L 1754,-153 L 1754,-154 L 1754,-155 L 1753,-155 L 1753,-156 L 1753,-157 L 1754,-157 L 1754,-156 L 1754,-157 L 1754,-158 L 1753,-158 L 1753,-159 L 1752,-160 L 1752,-161 L 1753,-161 L 1754,-161 L 1754,-162 L 1753,-162 L 1754,-162 L 1754,-163 L 1753,-164 L 1752,-164 L 1751,-164 L 1750,-164 L 1750,-165 L 1751,-165 L 1751,-166 L 1750,-166 L 1749,-167 L 1748,-167 L 1747,-167 L 1747,-168 L 1747,-169 L 1746,-169 L 1746,-170 L 1746,-171 L 1745,-171 L 1744,-171 L 1744,-172 L 1744,-173 L 1745,-173 L 1745,-174 L 1746,-174 L 1745,-174 L 1746,-175 L 1746,-176 L 1745,-176 L 1745,-177 L 1745,-178 L 1746,-178 L 1746,-177 L 1747,-177 L 1747,-178 L 1747,-179 L 1747,-180 L 1747,-181 L 1747,-182 L 1746,-182 L 1745,-182 L 1744,-182 L 1743,-182 L 1743,-183 L 1742,-183 L 1741,-183 L 1741,-184 L 1742,-184 L 1741,-184 L 1741,-185 L 1741,-186 L 1741,-185 L 1740,-185 L 1739,-185 L 1739,-186 L 1739,-187 L 1738,-186 L 1737,-186 L 1737,-187 L 1736,-188 L 1737,-188 L 1737,-189 L 1738,-189 L 1737,-189 L 1736,-189 L 1736,-188 L 1735,-188 L 1735,-187 L 1734,-188 L 1734,-189 L 1733,-189 L 1733,-190 L 1734,-190 L 1734,-191 L 1734,-192 L 1735,-192 L 1735,-193 L 1734,-193 L 1733,-193 L 1733,-194 L 1733,-195 L 1732,-195 L 1732,-196 L 1731,-196 L 1731,-197 L 1731,-198 L 1732,-198 L 1731,-199 L 1731,-198 L 1730,-198 L 1729,-198 L 1729,-199 L 1728,-199 L 1727,-199 L 1726,-199 L 1726,-200 L 1725,-201 L 1726,-201 L 1726,-202 L 1726,-203 L 1727,-203 L 1727,-204 L 1728,-205 L 1727,-205 L 1726,-205 L 1726,-206 L 1725,-206 L 1725,-207 L 1724,-207 L 1724,-208 L 1723,-208 L 1722,-208 L 1722,-209 L 1723,-209 L 1724,-209 L 1725,-209 L 1726,-209 L 1726,-210 L 1727,-210 L 1728,-210 L 1728,-211 L 1727,-211 L 1727,-212 L 1727,-211 L 1726,-211 L 1726,-212 L 1726,-211 L 1726,-212 L 1725,-212 L 1724,-212 L 1724,-213 L 1725,-213 L 1725,-214 L 1725,-215 L 1724,-216 L 1723,-216 L 1722,-216 L 1722,-217 L 1721,-217 L 1720,-218 L 1719,-219 L 1718,-219 L 1718,-220 L 1717,-220 L 1717,-221 L 1717,-222 L 1716,-222 L 1715,-222 L 1715,-223 L 1714,-223 L 1714,-224 L 1713,-224 L 1713,-225 L 1713,-226 L 1712,-226 L 1712,-227 L 1712,-228 L 1712,-229 L 1712,-230 L 1712,-231 L 1711,-231 L 1711,-232 L 1711,-233 L 1711,-234 L 1712,-234 L 1712,-235 L 1713,-235 L 1713,-236 L 1714,-237 L 1715,-237 L 1715,-238 L 1715,-239 L 1716,-239 L 1716,-240 L 1715,-240 L 1714,-240 L 1713,-240 L 1712,-240 L 1712,-241 L 1711,-241 L 1710,-242 L 1710,-243 L 1709,-244 L 1709,-245 L 1709,-246 L 1710,-246 L 1710,-247 L 1711,-247 L 1712,-247 L 1712,-248 L 1711,-248 L 1711,-249 L 1711,-250 L 1710,-250 L 1710,-251 L 1710,-252 L 1709,-252 L 1709,-253 L 1708,-253 L 1707,-253 L 1707,-254 L 1706,-254 L 1705,-254 L 1705,-255 L 1704,-256 L 1704,-257 L 1705,-257 L 1705,-258 L 1706,-258 L 1706,-259 L 1705,-260 L 1705,-259 L 1704,-259 L 1703,-260 L 1703,-261 L 1702,-261 L 1701,-260 L 1700,-260 L 1699,-260 L 1699,-261 L 1698,-261 L 1698,-262 L 1697,-262 L 1697,-261 L 1696,-261 L 1696,-260 L 1695,-260 L 1695,-259 L 1694,-259 L 1693,-259 L 1693,-258 L 1692,-258 L 1692,-259 L 1692,-260 L 1693,-260 L 1693,-261 L 1694,-261 L 1693,-261 L 1692,-261 L 1691,-261 L 1691,-262 L 1690,-262 L 1689,-263 L 1688,-263 L 1687,-263 L 1686,-263 L 1685,-263 L 1684,-264 L 1683,-264 L 1682,-265 L 1681,-265 L 1681,-266 L 1680,-266 L 1680,-265 L 1679,-265 L 1678,-265 L 1677,-265 L 1676,-265 L 1675,-265 L 1675,-266 L 1674,-266 L 1673,-266 L 1672,-266 L 1672,-267 L 1671,-267 L 1670,-267 L 1669,-268 L 1668,-268 L 1667,-268 L 1666,-268 L 1666,-269 L 1665,-269 L 1665,-270 L 1664,-270 L 1663,-271 L 1662,-271 L 1661,-271 L 1661,-270 L 1661,-269 L 1660,-269 L 1660,-268 L 1659,-268 L 1659,-269 L 1659,-270 L 1658,-270 L 1658,-271 L 1658,-272 L 1657,-272 L 1656,-272 L 1655,-272 L 1670,-359 L 1670,-360 L 1670,-361 L 1671,-362 L 1671,-363 L 1671,-364 L 1671,-365 L 1672,-367 L 1672,-369 L 1672,-370 L 1672,-371 L 1673,-372 L 1673,-373 L 1673,-374 L 1672,-375 L 1671,-375 L 1671,-376 L 1670,-377 L 1671,-377 L 1672,-377 L 1673,-377 L 1674,-378 L 1674,-379 L 1673,-380 L 1673,-381 L 1674,-382 L 1676,-382 L 1678,-382 L 1679,-382 L 1679,-383 L 1680,-383 L 1681,-383 L 1681,-384 L 1681,-385 L 1680,-385 L 1680,-386 L 1681,-387 L 1680,-387 L 1680,-388 L 1680,-389 L 1680,-390 L 1680,-391 L 1681,-391 L 1681,-392 L 1682,-393 L 1682,-395 L 1682,-396 L 1681,-396 L 1682,-397 L 1682,-398 L 1681,-399 L 1680,-400 L 1679,-401 L 1678,-402 L 1677,-402 L 1676,-403 L 1675,-403 L 1674,-404 L 1673,-405 L 1672,-406 L 1671,-407 L 1670,-408 L 1669,-408 L 1668,-409 L 1668,-410 L 1667,-411 L 1665,-411 L 1665,-412 L 1666,-413 L 1666,-414 L 1667,-415 L 1668,-416 L 1668,-417 L 1668,-418 L 1667,-419 L 1668,-420 L 1669,-421 L 1670,-422 L 1671,-422 L 1671,-423 L 1671,-424 L 1671,-425 L 1671,-426 L 1672,-426 L 1673,-427 L 1673,-428 L 1673,-429 L 1672,-429 L 1673,-430 L 1674,-430 L 1675,-430 L 1676,-431 L 1677,-431 L 1677,-432 L 1678,-432 L 1678,-433 L 1679,-433 L 1679,-434 L 1679,-435 L 1680,-436 L 1680,-437 L 1680,-438 L 1680,-439 L 1679,-439 L 1679,-440 L 1678,-440 L 1678,-441 L 1677,-442 L 1676,-443 L 1675,-444 L 1675,-445 L 1675,-446 L 1674,-447 L 1674,-448 L 1674,-449 L 1673,-450 L 1672,-451 L 1672,-452 L 1673,-452 L 1673,-453 L 1673,-454 L 1674,-454 L 1675,-454 L 1675,-455 L 1676,-455 L 1676,-456 L 1676,-457 L 1676,-458 L 1676,-459 L 1676,-460 L 1676,-461 L 1676,-462 L 1676,-463 L 1676,-464 L 1676,-465 L 1675,-465 L 1676,-466 L 1676,-467 L 1676,-468 L 1676,-469 L 1676,-470 L 1677,-470 L 1677,-471 L 1677,-472 L 1677,-473 L 1676,-473 L 1676,-474 L 1675,-474 L 1676,-474 L 1676,-475 L 1675,-475 L 1675,-476 L 1675,-477 L 1674,-478 L 1675,-479 L 1676,-479 L 1677,-479 L 1677,-480 L 1677,-481 L 1677,-482 L 1677,-483 L 1676,-484 L 1676,-485 L 1676,-486 L 1677,-487 L 1676,-488 L 1676,-489 L 1677,-490 L 1677,-492 L 1678,-493 L 1678,-494 L 1680,-495 L 1680,-496 L 1681,-496 L 1682,-496 L 1683,-497 L 1684,-497 L 1685,-497 L 1685,-498 L 1685,-499 L 1686,-500 L 1686,-501 L 1687,-501 L 1687,-502 L 1687,-503 L 1687,-504 L 1687,-505 L 1687,-506 L 1688,-507 L 1689,-507 L 1689,-508 L 1689,-509 L 1689,-510 L 1689,-511 L 1689,-512 L 1688,-512 L 1687,-512 L 1687,-513 L 1687,-514 L 1687,-515 L 1688,-515 L 1687,-515 L 1687,-516 L 1687,-517 L 1687,-518 L 1687,-519 L 1688,-519 L 1688,-520 L 1688,-521 L 1687,-521 L 1688,-522 L 1688,-523 L 1689,-524 L 1690,-524 L 1689,-525 L 1689,-526 L 1688,-526 L 1687,-526 L 1687,-525 L 1686,-525 L 1685,-525 L 1685,-524 L 1685,-523 L 1685,-522 L 1684,-522 L 1684,-521 L 1683,-521 L 1683,-520 L 1682,-520 L 1681,-520 L 1681,-521 L 1680,-521 L 1679,-521 L 1679,-522 L 1678,-521 L 1678,-522 L 1677,-523 L 1676,-524 L 1676,-525 L 1675,-525 L 1675,-526 L 1674,-526 L 1674,-525 L 1673,-525 L 1672,-525 L 1671,-525 L 1671,-526 L 1672,-526 L 1672,-527 L 1673,-527 L 1672,-527 L 1672,-528 L 1671,-528 L 1671,-529 L 1671,-530 L 1671,-531 L 1670,-531 L 1670,-530 L 1670,-531 L 1670,-532 L 1669,-532 L 1668,-532 L 1667,-532 L 1667,-533 L 1666,-533 L 1666,-534 L 1667,-534 L 1668,-534 L 1668,-535 L 1668,-536 L 1668,-537 L 1668,-538 L 1667,-538 L 1667,-539 L 1667,-540 L 1666,-540 L 1666,-539 L 1666,-540 L 1665,-540 L 1665,-541 L 1664,-541 L 1664,-542 L 1663,-542 L 1662,-542 L 1661,-542 L 1661,-543 L 1660,-543 L 1659,-543 L 1659,-544 L 1658,-544 L 1658,-545 L 1657,-545 L 1657,-546 L 1656,-546 L 1656,-547 L 1657,-547 L 1658,-547 L 1658,-548 L 1657,-548 L 1658,-548 L 1657,-549 L 1657,-550 L 1656,-550 L 1656,-551 L 1656,-552 L 1657,-552 L 1657,-553 L 1657,-554 L 1656,-554 L 1656,-555 L 1655,-555 L 1655,-556 L 1654,-556 L 1653,-556 L 1652,-556 L 1651,-556 L 1651,-557 L 1651,-558 L 1651,-559 L 1650,-559 L 1649,-559 L 1649,-560 L 1648,-560 L 1647,-559 L 1646,-559 L 1645,-559 L 1645,-560 L 1644,-560 L 1643,-560 L 1642,-560 L 1642,-559 L 1642,-560 L 1641,-560 L 1640,-560 L 1640,-559 L 1639,-559 L 1639,-558 L 1638,-558 L 1638,-559 L 1639,-559 L 1638,-559 L 1638,-560 L 1637,-560 L 1637,-559 L 1636,-560 L 1637,-560 L 1638,-561 L 1638,-562 L 1637,-562 L 1637,-563 L 1636,-563 L 1636,-564 L 1637,-564 L 1638,-564 L 1638,-565 L 1639,-565 L 1640,-565 L 1640,-566 L 1640,-567 L 1639,-567 L 1639,-568 L 1640,-568 L 1640,-569 L 1640,-570 L 1639,-570 L 1639,-571 L 1640,-571 L 1639,-571 L 1639,-572 L 1638,-572 L 1638,-573 L 1638,-574 L 1637,-574 L 1637,-575 L 1637,-576 L 1636,-576 L 1636,-577 L 1637,-577 L 1637,-578 L 1636,-578 L 1636,-579 L 1636,-580 L 1636,-581 L 1636,-582 L 1635,-582 L 1635,-583 L 1635,-584 L 1636,-584 L 1636,-583 L 1636,-584 L 1636,-585 L 1635,-585 L 1634,-585 L 1635,-585 L 1635,-586 L 1636,-587 L 1637,-588 L 1636,-588 L 1636,-589 L 1635,-589 L 1636,-590 L 1635,-590 L 1635,-591 L 1635,-592 L 1636,-592 L 1636,-591 L 1637,-591 L 1637,-592 L 1636,-592 L 1636,-593 L 1637,-593 L 1637,-594 L 1638,-594 L 1638,-595 L 1638,-596 L 1638,-595 L 1639,-595 L 1640,-595 L 1640,-594 L 1641,-594 L 1641,-595 L 1642,-595 L 1642,-596 L 1643,-596 L 1643,-597 L 1642,-597 L 1642,-598 L 1642,-599 L 1642,-598 L 1643,-598 L 1643,-599 L 1642,-599 L 1642,-600 L 1641,-600 L 1640,-600 L 1639,-600 L 1639,-601 L 1639,-602 L 1638,-601 L 1638,-602 L 1638,-603 L 1639,-603 L 1640,-603 L 1640,-604 L 1639,-604 L 1639,-605 L 1640,-605 L 1640,-604 L 1640,-605 L 1640,-606 L 1641,-606 L 1641,-607 L 1640,-607 L 1640,-608 L 1639,-608 L 1638,-608 L 1638,-609 L 1637,-609 L 1636,-609 L 1636,-610 L 1637,-610 L 1637,-611 L 1636,-611 L 1635,-612 L 1636,-612 L 1636,-613 L 1636,-614 L 1636,-615 L 1637,-615 L 1637,-616 L 1636,-616 L 1636,-617 L 1635,-617 L 1636,-618 L 1636,-617 L 1637,-617 L 1637,-618 L 1637,-619 L 1638,-619 L 1639,-619 L 1639,-620 L 1639,-621 L 1639,-622 L 1639,-623 L 1638,-623 L 1637,-623 L 1636,-624 L 1635,-624 L 1635,-625 L 1636,-625 L 1637,-625 L 1636,-625 L 1636,-626 L 1637,-626 L 1636,-627 L 1636,-628 L 1635,-628 L 1636,-628 L 1636,-629 L 1635,-629 L 1634,-629 L 1634,-630 L 1634,-631 L 1634,-632 L 1635,-632 L 1635,-633 L 1635,-634 L 1634,-634 L 1634,-635 L 1634,-636 L 1635,-636 L 1635,-637 L 1636,-637 L 1636,-636 L 1637,-636 L 1637,-637 L 1637,-638 L 1637,-637 L 1638,-637 L 1638,-638 L 1638,-639 L 1638,-640 L 1638,-641 L 1639,-641 L 1639,-642 L 1639,-643 L 1640,-643 L 1640,-644 L 1639,-644 L 1639,-645 L 1640,-645 L 1641,-645 L 1641,-646 L 1641,-645 L 1642,-645 L 1642,-646 L 1642,-647 L 1642,-648 L 1643,-647 L 1644,-647 L 1644,-648 L 1645,-648 L 1645,-649 L 1644,-649 L 1644,-650 L 1645,-650 L 1645,-651 L 1645,-650 L 1645,-651 L 1646,-651 L 1646,-652 L 1645,-652 L 1645,-653 L 1645,-654 L 1646,-655 L 1646,-656 L 1646,-657 L 1645,-657 L 1644,-657 L 1644,-658 L 1644,-659 L 1643,-659 L 1642,-659 L 1642,-660 L 1642,-661 L 1642,-662 L 1641,-662 L 1642,-662 L 1642,-663 L 1641,-663 L 1641,-664 L 1641,-665 L 1642,-665 L 1642,-664 L 1643,-665 L 1643,-664 L 1643,-665 L 1643,-666 L 1644,-666 L 1643,-666 L 1643,-667 L 1642,-667 L 1642,-668 L 1642,-669 L 1641,-668 L 1641,-669 L 1642,-669 L 1642,-670 L 1643,-670 L 1643,-671 L 1643,-672 L 1643,-671 L 1644,-671 L 1644,-672 L 1644,-673 L 1644,-674 L 1643,-675 L 1643,-676 L 1643,-677 L 1642,-677 L 1641,-677 L 1641,-676 L 1640,-676 L 1639,-676 L 1639,-675 L 1638,-675 L 1638,-676 L 1637,-676 L 1636,-677 L 1636,-678 L 1635,-678 L 1635,-677 L 1634,-676 L 1633,-676 L 1633,-677 L 1632,-677 L 1632,-676 L 1631,-676 L 1631,-677 L 1631,-678 L 1631,-679 L 1632,-679 L 1633,-679 L 1633,-680 L 1634,-680 L 1635,-680 L 1635,-681 L 1635,-682 L 1635,-683 L 1634,-683 L 1633,-683 L 1633,-682 L 1632,-682 L 1632,-683 L 1633,-683 L 1633,-684 L 1632,-684 L 1632,-683 L 1631,-684 L 1630,-684 L 1631,-684 L 1631,-685 L 1631,-686 L 1630,-686 L 1629,-686 L 1629,-685 L 1628,-685 L 1627,-685 L 1628,-685 L 1628,-686 L 1628,-687 L 1627,-687 L 1627,-688 L 1627,-687 L 1626,-687 L 1626,-688 L 1626,-689 L 1626,-690 L 1626,-691 L 1626,-690 L 1627,-690 L 1627,-691 L 1628,-691 L 1629,-691 L 1630,-691 L 1630,-692 L 1630,-693 L 1629,-693 L 1630,-693 L 1631,-693 L 1631,-692 L 1631,-693 L 1632,-693 L 1632,-694 L 1632,-693 L 1632,-694 L 1632,-695 L 1631,-695 L 1631,-696 L 1630,-696 L 1629,-696 L 1629,-697 L 1630,-697 L 1630,-698 L 1629,-698 L 1628,-698 L 1628,-699 L 1627,-699 L 1627,-700 L 1628,-700 L 1628,-701 L 1627,-701 L 1626,-701 L 1626,-702 L 1627,-702 L 1627,-701 L 1627,-702 L 1627,-703 L 1628,-703 L 1628,-704 L 1628,-705 L 1627,-705 L 1628,-705 L 1628,-706 L 1627,-706 L 1627,-707 L 1628,-707 L 1628,-708 L 1627,-708 L 1627,-709 L 1626,-709 L 1626,-708 L 1625,-709 L 1625,-710 L 1624,-710 L 1623,-710 L 1623,-709 L 1624,-709 L 1624,-708 L 1623,-708 L 1622,-708 L 1622,-709 L 1623,-709 L 1623,-710 L 1622,-710 L 1622,-711 L 1621,-711 L 1621,-710 L 1620,-710 L 1620,-709 L 1619,-709 L 1618,-710 L 1618,-711 L 1617,-711 L 1617,-712 L 1617,-713 L 1616,-713 L 1617,-713 L 1617,-714 L 1616,-714 L 1616,-715 L 1617,-715 L 1617,-716 L 1616,-716 L 1616,-717 L 1617,-717 L 1616,-717 L 1616,-718 L 1615,-719 L 1616,-719 L 1616,-720 L 1616,-721 L 1615,-721 L 1614,-720 L 1613,-721 L 1612,-721 L 1611,-721 L 1610,-721 L 1610,-722 L 1610,-723 L 1611,-723 L 1611,-724 L 1611,-725 L 1610,-725 L 1610,-724 L 1609,-724 L 1609,-725 L 1609,-726 L 1609,-727 L 1609,-728 L 1610,-728 L 1609,-728 L 1608,-728 L 1608,-729 L 1609,-729 L 1609,-730 L 1608,-730 L 1608,-731 L 1607,-731 L 1607,-732 L 1608,-732 L 1608,-733 L 1609,-733 L 1608,-734 L 1608,-733 L 1607,-733 L 1607,-734 L 1607,-735 L 1608,-735 L 1608,-736 L 1607,-737 L 1607,-738 L 1606,-738 L 1606,-737 L 1605,-737 L 1605,-738 L 1605,-739 L 1604,-739 L 1604,-740 L 1604,-741 L 1605,-741 L 1605,-740 L 1605,-741 L 1605,-742 L 1606,-742 L 1606,-743 L 1606,-744 L 1607,-744 L 1607,-745 L 1608,-745 L 1608,-746 L 1607,-746 L 1607,-747 L 1606,-747 L 1605,-748 L 1604,-748 L 1604,-747 L 1604,-746 L 1603,-746 L 1603,-747 L 1603,-748 L 1602,-748 L 1602,-749 L 1602,-750 L 1603,-750 L 1604,-750 L 1604,-751 L 1603,-752 L 1603,-751 L 1602,-751 L 1601,-751 L 1601,-752 L 1601,-753 L 1601,-754 L 1601,-755 L 1601,-756 L 1602,-756 L 1601,-756 L 1601,-757 L 1601,-758 L 1602,-758 L 1602,-759 L 1603,-759 L 1602,-759 L 1601,-760 L 1602,-760 L 1602,-761 L 1601,-761 L 1601,-762 L 1601,-763 L 1601,-764 L 1601,-765 L 1600,-765 L 1599,-765 L 1599,-766 L 1598,-766 L 1599,-766 L 1599,-767 L 1599,-768 L 1598,-768 L 1597,-768 L 1597,-769 L 1598,-769 L 1598,-770 L 1598,-771 L 1597,-772 L 1596,-772 L 1595,-772 L 1595,-773 L 1594,-773 L 1594,-774 L 1593,-774 L 1593,-775 L 1592,-775 L 1591,-775 L 1591,-776 L 1592,-776 L 1592,-777 L 1592,-778 L 1592,-779 L 1593,-779 L 1593,-780 L 1593,-781 L 1593,-780 L 1592,-780 L 1591,-781 L 1590,-781 L 1590,-782 L 1589,-783 L 1589,-784 L 1589,-785 L 1589,-786 L 1590,-787 L 1590,-788 L 1590,-789 L 1589,-789 L 1589,-788 L 1588,-788 L 1587,-787 L 1586,-788 L 1587,-788 L 1587,-789 L 1586,-789 L 1586,-790 L 1585,-790 L 1585,-791 L 1585,-792 L 1585,-793 L 1585,-794 L 1586,-794 L 1587,-794 L 1587,-795 L 1588,-796 L 1587,-796 L 1586,-796 L 1586,-797 L 1585,-797 L 1585,-798 L 1586,-798 L 1587,-798 L 1587,-799 L 1588,-799 L 1587,-800 L 1588,-800 L 1588,-801 L 1589,-801 L 1589,-802 L 1590,-802 L 1590,-803 L 1590,-804 L 1591,-804 L 1592,-805 L 1593,-806 L 1594,-806 L 1594,-807 L 1594,-808 L 1595,-809 L 1596,-809 L 1597,-810 L 1596,-811 L 1596,-812 L 1595,-812 L 1596,-813 L 1596,-814 L 1596,-815 L 1596,-816 L 1597,-816 L 1596,-817 L 1596,-818 L 1596,-819 L 1597,-820 L 1596,-821 L 1596,-822 L 1595,-823 L 1596,-823 L 1596,-824 L 1597,-824 L 1598,-824 L 1599,-824 L 1598,-825 L 1599,-826 L 1599,-827 L 1599,-828 L 1598,-829 L 1599,-829 L 1599,-830 L 1598,-831 L 1598,-832 L 1597,-832 L 1597,-833 L 1596,-833 L 1596,-834 L 1597,-834 L 1598,-834 L 1599,-834 L 1599,-835 L 1599,-836 L 1599,-837 L 1600,-837 L 1601,-837 L 1601,-838 L 1601,-839 L 1601,-840 L 1601,-841 L 1601,-842 L 1602,-843 L 1602,-842 L 1603,-842 L 1604,-842 L 1605,-841 L 1606,-841 L 1607,-842 L 1608,-842 L 1607,-843 L 1607,-844 L 1606,-844 L 1606,-845 L 1605,-845 L 1605,-846 L 1605,-847 L 1606,-847 L 1606,-848 L 1606,-849 L 1606,-850 L 1607,-850 L 1608,-850 L 1609,-850 L 1610,-850 L 1610,-851 L 1610,-852 L 1611,-852 L 1611,-853 L 1612,-853 L 1613,-853 L 1614,-852 L 1614,-853 L 1615,-853 L 1616,-854 L 1616,-855 L 1617,-855 L 1617,-856 L 1617,-857 L 1618,-858 L 1618,-859 L 1619,-859 L 1620,-859 L 1620,-860 L 1619,-860 L 1619,-861 L 1620,-861 L 1621,-861 L 1621,-862 L 1620,-863 L 1620,-864 L 1620,-865 L 1621,-865 L 1621,-866 L 1620,-866 L 1620,-867 L 1620,-868 L 1621,-869 L 1622,-869 L 1622,-870 L 1623,-870 L 1623,-871 L 1624,-870 L 1625,-870 L 1625,-871 L 1626,-872 L 1626,-871 L 1626,-872 L 1626,-873 L 1626,-872 L 1625,-872 L 1625,-873 L 1625,-874 L 1625,-875 L 1626,-876 L 1626,-877 L 1626,-878 L 1626,-879 L 1625,-880 L 1625,-881 L 1625,-882 L 1625,-883 L 1624,-883 L 1624,-884 L 1624,-885 L 1623,-885 L 1623,-886 L 1623,-887 L 1622,-887 L 1622,-888 L 1622,-889 L 1621,-889 L 1622,-889 L 1622,-890 L 1621,-890 L 1620,-890 L 1620,-891 L 1620,-892 L 1620,-893 L 1620,-894 L 1619,-894 L 1619,-893 L 1619,-894 L 1618,-894 L 1618,-895 L 1617,-895 L 1617,-896 L 1617,-897 L 1617,-898 L 1617,-899 L 1616,-899 L 1616,-900 L 1806,-972 L 1806,-971 L 1805,-943 L 1805,-929 L 1805,-925 L 1804,-908 " /></g>
</svg>
