<?xml version="1.0" standalone="no"?><!DOCTYPE svg PUBLIC "-//W3C//DTD SVG 1.1//EN" "http://www.w3.org/Graphics/SVG/1.1/DTD/svg11.dtd"><svg xmlns="http://www.w3.org/2000/svg" viewBox="1776 -53 198 182" version = "1.1">
<g id="71104" ><path d="M 1974,-52 L 1973,-41 L 1973,-36 L 1973,-35 L 1973,-26 L 1972,-10 L 1971,4 L 1970,21 L 1969,46 L 1969,57 L 1968,72 L 1968,76 L 1968,83 L 1967,85 L 1967,97 L 1967,101 L 1966,106 L 1966,108 L 1967,108 L 1967,109 L 1968,109 L 1968,110 L 1968,111 L 1967,111 L 1967,112 L 1967,113 L 1966,114 L 1966,115 L 1966,116 L 1966,117 L 1966,118 L 1966,119 L 1965,119 L 1965,120 L 1965,121 L 1964,121 L 1964,122 L 1963,122 L 1963,123 L 1962,123 L 1962,122 L 1961,122 L 1961,121 L 1960,121 L 1960,120 L 1959,120 L 1959,119 L 1958,119 L 1958,118 L 1958,119 L 1957,119 L 1956,119 L 1956,120 L 1956,121 L 1955,121 L 1954,121 L 1953,121 L 1953,122 L 1952,122 L 1952,123 L 1951,123 L 1950,122 L 1949,122 L 1948,122 L 1948,123 L 1947,123 L 1947,124 L 1946,124 L 1945,124 L 1944,124 L 1944,125 L 1943,125 L 1943,126 L 1942,126 L 1942,127 L 1941,127 L 1940,127 L 1940,128 L 1939,128 L 1939,129 L 1938,129 L 1937,129 L 1937,128 L 1936,128 L 1935,128 L 1934,128 L 1933,128 L 1932,127 L 1932,128 L 1931,128 L 1930,128 L 1929,128 L 1929,127 L 1930,127 L 1930,126 L 1930,125 L 1929,125 L 1928,125 L 1927,125 L 1927,126 L 1926,126 L 1925,127 L 1924,127 L 1923,126 L 1922,126 L 1921,126 L 1921,125 L 1921,126 L 1920,126 L 1920,125 L 1919,125 L 1918,125 L 1918,124 L 1917,124 L 1916,124 L 1916,125 L 1916,124 L 1916,123 L 1915,123 L 1916,123 L 1915,123 L 1914,123 L 1914,124 L 1914,123 L 1914,124 L 1913,124 L 1913,125 L 1912,125 L 1911,125 L 1910,125 L 1911,124 L 1910,124 L 1909,124 L 1909,123 L 1908,123 L 1908,122 L 1908,123 L 1908,122 L 1908,123 L 1907,122 L 1907,123 L 1908,123 L 1907,123 L 1907,124 L 1908,124 L 1907,124 L 1907,123 L 1907,124 L 1906,124 L 1907,124 L 1906,124 L 1906,123 L 1905,123 L 1905,124 L 1905,123 L 1905,124 L 1904,124 L 1904,125 L 1903,125 L 1864,126 L 1863,126 L 1863,125 L 1862,125 L 1862,126 L 1862,125 L 1861,125 L 1862,124 L 1861,124 L 1862,124 L 1862,123 L 1861,123 L 1860,123 L 1860,122 L 1861,122 L 1860,121 L 1860,122 L 1859,122 L 1859,121 L 1859,122 L 1858,122 L 1858,121 L 1859,121 L 1858,121 L 1857,121 L 1857,120 L 1856,120 L 1856,119 L 1857,119 L 1857,120 L 1858,120 L 1857,119 L 1856,119 L 1856,118 L 1857,118 L 1856,118 L 1855,118 L 1854,118 L 1854,117 L 1854,118 L 1853,118 L 1853,117 L 1852,117 L 1852,116 L 1853,116 L 1854,116 L 1853,116 L 1852,116 L 1852,115 L 1852,116 L 1851,116 L 1851,115 L 1850,115 L 1850,114 L 1851,114 L 1852,114 L 1852,115 L 1852,114 L 1853,114 L 1852,114 L 1852,113 L 1851,113 L 1851,114 L 1851,113 L 1851,112 L 1850,112 L 1849,112 L 1849,113 L 1849,112 L 1849,111 L 1850,111 L 1849,111 L 1849,110 L 1848,110 L 1848,109 L 1847,109 L 1846,109 L 1846,110 L 1845,110 L 1846,110 L 1846,111 L 1847,111 L 1846,111 L 1846,112 L 1846,113 L 1845,113 L 1844,114 L 1844,113 L 1845,112 L 1844,112 L 1844,113 L 1844,114 L 1843,114 L 1843,113 L 1843,112 L 1843,113 L 1844,113 L 1844,112 L 1843,112 L 1842,112 L 1842,113 L 1841,113 L 1841,114 L 1840,114 L 1839,114 L 1839,113 L 1839,112 L 1839,113 L 1840,113 L 1840,112 L 1839,112 L 1838,112 L 1837,112 L 1836,112 L 1837,112 L 1837,113 L 1836,113 L 1836,112 L 1835,112 L 1835,111 L 1835,112 L 1834,112 L 1834,113 L 1834,112 L 1833,112 L 1834,111 L 1835,111 L 1834,111 L 1834,110 L 1833,110 L 1833,109 L 1833,110 L 1832,110 L 1832,109 L 1831,109 L 1831,110 L 1831,109 L 1830,109 L 1829,109 L 1829,108 L 1828,108 L 1828,109 L 1827,109 L 1826,109 L 1826,110 L 1827,110 L 1826,110 L 1826,109 L 1825,109 L 1824,109 L 1824,108 L 1823,108 L 1822,108 L 1822,107 L 1822,106 L 1821,106 L 1820,106 L 1820,107 L 1820,106 L 1820,105 L 1819,105 L 1819,104 L 1818,104 L 1818,103 L 1818,104 L 1817,104 L 1817,103 L 1816,103 L 1815,103 L 1814,103 L 1813,103 L 1813,102 L 1814,102 L 1815,103 L 1815,102 L 1815,101 L 1815,100 L 1816,100 L 1816,101 L 1817,101 L 1816,100 L 1816,99 L 1815,99 L 1814,99 L 1814,98 L 1815,98 L 1816,98 L 1816,97 L 1815,97 L 1814,97 L 1814,96 L 1813,96 L 1813,95 L 1813,96 L 1813,97 L 1813,98 L 1812,98 L 1812,97 L 1811,97 L 1812,97 L 1812,96 L 1811,96 L 1810,96 L 1810,95 L 1809,94 L 1808,94 L 1808,95 L 1807,95 L 1807,94 L 1808,94 L 1808,93 L 1807,93 L 1808,93 L 1809,94 L 1809,93 L 1809,92 L 1808,92 L 1807,92 L 1806,92 L 1806,91 L 1807,91 L 1806,91 L 1805,91 L 1804,91 L 1803,91 L 1803,90 L 1802,90 L 1803,90 L 1803,89 L 1802,89 L 1802,90 L 1802,91 L 1801,91 L 1801,90 L 1800,90 L 1800,91 L 1800,90 L 1801,90 L 1801,89 L 1802,89 L 1801,89 L 1800,89 L 1799,89 L 1799,88 L 1798,88 L 1798,87 L 1797,88 L 1797,87 L 1796,87 L 1797,87 L 1796,87 L 1796,86 L 1795,86 L 1794,86 L 1794,85 L 1795,85 L 1795,86 L 1795,85 L 1794,85 L 1793,85 L 1793,86 L 1793,85 L 1792,85 L 1793,85 L 1793,84 L 1792,84 L 1792,83 L 1791,83 L 1791,82 L 1791,81 L 1790,82 L 1789,82 L 1789,81 L 1790,81 L 1790,80 L 1789,80 L 1789,81 L 1788,81 L 1788,82 L 1788,81 L 1787,81 L 1788,81 L 1788,80 L 1787,80 L 1787,81 L 1786,80 L 1787,80 L 1786,80 L 1786,81 L 1785,80 L 1785,81 L 1785,82 L 1784,82 L 1784,81 L 1783,81 L 1783,82 L 1782,81 L 1782,80 L 1782,81 L 1783,80 L 1782,80 L 1782,79 L 1782,80 L 1782,79 L 1783,79 L 1783,78 L 1782,78 L 1781,79 L 1780,79 L 1780,78 L 1780,79 L 1781,79 L 1781,80 L 1780,80 L 1780,79 L 1780,78 L 1779,78 L 1779,79 L 1778,79 L 1778,78 L 1777,78 L 1776,78 L 1776,77 L 1777,77 L 1778,77 L 1779,77 L 1778,77 L 1778,76 L 1777,76 L 1777,77 L 1776,76 L 1776,75 L 1777,75 L 1777,76 L 1777,75 L 1778,75 L 1777,75 L 1777,74 L 1778,74 L 1778,75 L 1778,74 L 1779,74 L 1780,74 L 1779,73 L 1779,72 L 1779,71 L 1779,70 L 1780,70 L 1781,70 L 1782,70 L 1782,71 L 1783,71 L 1784,71 L 1784,72 L 1784,73 L 1785,73 L 1786,73 L 1786,74 L 1786,75 L 1787,75 L 1788,75 L 1789,75 L 1789,76 L 1790,76 L 1791,76 L 1792,76 L 1793,76 L 1794,76 L 1794,77 L 1795,77 L 1795,76 L 1795,75 L 1796,75 L 1796,74 L 1796,73 L 1796,72 L 1797,71 L 1798,71 L 1798,70 L 1799,70 L 1798,70 L 1798,69 L 1801,62 L 1818,33 L 1833,12 L 1848,-12 L 1863,-39 L 1865,-39 L 1866,-39 L 1867,-39 L 1868,-39 L 1868,-40 L 1869,-40 L 1870,-40 L 1871,-40 L 1872,-40 L 1872,-39 L 1873,-39 L 1874,-39 L 1875,-39 L 1876,-39 L 1877,-39 L 1878,-39 L 1878,-40 L 1879,-39 L 1879,-38 L 1880,-38 L 1881,-38 L 1882,-38 L 1883,-38 L 1884,-37 L 1885,-36 L 1885,-35 L 1886,-35 L 1886,-34 L 1887,-33 L 1887,-34 L 1887,-33 L 1888,-33 L 1888,-32 L 1889,-32 L 1889,-31 L 1890,-31 L 1891,-31 L 1891,-30 L 1892,-30 L 1892,-29 L 1892,-28 L 1892,-27 L 1893,-27 L 1893,-26 L 1894,-26 L 1895,-26 L 1895,-25 L 1896,-25 L 1897,-25 L 1898,-25 L 1899,-25 L 1900,-25 L 1901,-25 L 1901,-24 L 1902,-24 L 1902,-23 L 1903,-23 L 1903,-22 L 1904,-22 L 1905,-22 L 1905,-21 L 1905,-20 L 1906,-20 L 1906,-21 L 1907,-20 L 1908,-20 L 1908,-19 L 1908,-18 L 1909,-18 L 1910,-18 L 1910,-17 L 1910,-16 L 1911,-16 L 1911,-15 L 1912,-15 L 1912,-14 L 1912,-13 L 1911,-13 L 1910,-12 L 1910,-11 L 1911,-11 L 1912,-11 L 1913,-11 L 1913,-10 L 1913,-11 L 1914,-11 L 1915,-11 L 1916,-11 L 1916,-10 L 1916,-9 L 1917,-8 L 1916,-8 L 1917,-8 L 1918,-8 L 1918,-9 L 1919,-9 L 1919,-10 L 1919,-11 L 1919,-12 L 1919,-13 L 1920,-14 L 1921,-13 L 1921,-14 L 1922,-14 L 1922,-15 L 1922,-16 L 1923,-16 L 1923,-17 L 1922,-17 L 1922,-18 L 1922,-19 L 1923,-19 L 1923,-20 L 1923,-21 L 1924,-21 L 1924,-20 L 1925,-20 L 1925,-19 L 1926,-19 L 1927,-19 L 1927,-20 L 1926,-20 L 1927,-20 L 1927,-21 L 1928,-21 L 1928,-22 L 1929,-22 L 1929,-23 L 1930,-23 L 1930,-24 L 1931,-24 L 1931,-25 L 1932,-25 L 1933,-25 L 1933,-26 L 1934,-26 L 1934,-27 L 1935,-28 L 1936,-28 L 1937,-28 L 1938,-28 L 1938,-29 L 1938,-30 L 1939,-30 L 1938,-30 L 1939,-30 L 1940,-30 L 1940,-31 L 1941,-31 L 1941,-32 L 1940,-32 L 1939,-32 L 1939,-33 L 1940,-33 L 1940,-34 L 1941,-34 L 1942,-34 L 1943,-34 L 1943,-33 L 1943,-34 L 1944,-34 L 1944,-35 L 1945,-34 L 1946,-34 L 1946,-33 L 1947,-33 L 1947,-34 L 1948,-34 L 1948,-35 L 1949,-35 L 1949,-34 L 1949,-33 L 1950,-33 L 1950,-34 L 1951,-34 L 1951,-35 L 1952,-36 L 1953,-36 L 1954,-35 L 1955,-35 L 1955,-36 L 1955,-37 L 1956,-37 L 1957,-38 L 1958,-38 L 1959,-38 L 1959,-39 L 1959,-40 L 1958,-40 L 1959,-40 L 1960,-40 L 1961,-40 L 1962,-40 L 1963,-40 L 1963,-41 L 1964,-42 L 1965,-41 L 1965,-42 L 1966,-42 L 1966,-43 L 1967,-43 L 1967,-44 L 1968,-44 L 1968,-45 L 1968,-46 L 1969,-46 L 1969,-47 L 1968,-47 L 1968,-48 L 1969,-48 L 1969,-49 L 1970,-49 L 1970,-50 L 1969,-50 L 1970,-50 L 1970,-51 L 1971,-50 L 1972,-50 L 1972,-51 L 1972,-52 L 1973,-52 L 1973,-53 L 1974,-52 " /></g>
</svg>
