<?xml version="1.0" standalone="no"?><!DOCTYPE svg PUBLIC "-//W3C//DTD SVG 1.1//EN" "http://www.w3.org/Graphics/SVG/1.1/DTD/svg11.dtd"><svg xmlns="http://www.w3.org/2000/svg" viewBox="2682 -133 635 621" version = "1.1">
<g id="71201" ><path d="M 2694,-127 L 2695,-127 L 2696,-127 L 2697,-127 L 2698,-127 L 2699,-127 L 2700,-127 L 2702,-127 L 2704,-127 L 2706,-127 L 2708,-127 L 2709,-127 L 2710,-127 L 2711,-127 L 2712,-127 L 2713,-127 L 2714,-127 L 2715,-127 L 2716,-127 L 2717,-127 L 2718,-127 L 2718,-126 L 2719,-126 L 2720,-126 L 2721,-126 L 2722,-126 L 2723,-126 L 2724,-126 L 2725,-126 L 2726,-126 L 2727,-126 L 2728,-126 L 2729,-126 L 2730,-126 L 2731,-126 L 2732,-126 L 2733,-126 L 2734,-126 L 2735,-126 L 2736,-126 L 2737,-126 L 2738,-126 L 2739,-126 L 2740,-126 L 2741,-125 L 2742,-125 L 2743,-125 L 2744,-125 L 2745,-125 L 2746,-125 L 2747,-125 L 2748,-125 L 2749,-125 L 2750,-125 L 2751,-125 L 2752,-125 L 2753,-125 L 2754,-125 L 2755,-125 L 2756,-125 L 2757,-125 L 2758,-125 L 2759,-125 L 2760,-125 L 2761,-125 L 2762,-125 L 2763,-125 L 2763,-124 L 2764,-124 L 2765,-124 L 2766,-124 L 2767,-124 L 2768,-124 L 2769,-124 L 2770,-124 L 2771,-124 L 2772,-124 L 2773,-124 L 2774,-124 L 2775,-124 L 2776,-124 L 2777,-124 L 2778,-124 L 2779,-124 L 2780,-124 L 2780,-123 L 2781,-123 L 2782,-123 L 2783,-123 L 2784,-123 L 2785,-123 L 2786,-123 L 2787,-123 L 2788,-123 L 2789,-123 L 2790,-123 L 2791,-123 L 2792,-123 L 2793,-123 L 2794,-123 L 2795,-123 L 2796,-123 L 2797,-123 L 2798,-123 L 2799,-123 L 2800,-123 L 2801,-123 L 2802,-123 L 2803,-123 L 2804,-122 L 2805,-122 L 2806,-122 L 2807,-122 L 2808,-122 L 2809,-122 L 2810,-122 L 2811,-122 L 2812,-122 L 2813,-122 L 2814,-122 L 2815,-122 L 2816,-122 L 2817,-122 L 2818,-122 L 2819,-122 L 2820,-122 L 2821,-122 L 2822,-122 L 2823,-122 L 2824,-122 L 2825,-122 L 2826,-122 L 2826,-121 L 2827,-121 L 2828,-121 L 2829,-121 L 2830,-121 L 2831,-121 L 2832,-121 L 2833,-121 L 2834,-121 L 2835,-121 L 2836,-121 L 2837,-121 L 2838,-121 L 2839,-121 L 2840,-121 L 2841,-121 L 2842,-121 L 2843,-121 L 2844,-121 L 2845,-121 L 2846,-121 L 2847,-121 L 2848,-121 L 2849,-121 L 2850,-121 L 2851,-121 L 2852,-121 L 2853,-120 L 2854,-120 L 2855,-120 L 2856,-120 L 2857,-120 L 2858,-120 L 2859,-120 L 2859,-121 L 2871,-120 L 2881,-120 L 2891,-119 L 2917,-118 L 2924,-118 L 2932,-118 L 2935,-117 L 2935,-118 L 2935,-117 L 2943,-117 L 2944,-117 L 2945,-117 L 2946,-117 L 2947,-117 L 2948,-117 L 2949,-117 L 2950,-117 L 2951,-117 L 2952,-117 L 2953,-117 L 2954,-117 L 2955,-117 L 2956,-116 L 2957,-116 L 2958,-116 L 2959,-116 L 2960,-116 L 2961,-116 L 2962,-116 L 2963,-116 L 2964,-116 L 2965,-116 L 2966,-116 L 2967,-116 L 2968,-116 L 2969,-116 L 2970,-116 L 2971,-116 L 2972,-116 L 2973,-116 L 2974,-116 L 2975,-116 L 2976,-116 L 2977,-116 L 2978,-116 L 2979,-116 L 2979,-115 L 2980,-115 L 2981,-115 L 2982,-115 L 2983,-115 L 2984,-115 L 2985,-115 L 2986,-115 L 2987,-115 L 2988,-115 L 2989,-115 L 2990,-115 L 2991,-115 L 2992,-115 L 2993,-115 L 2994,-115 L 2995,-115 L 2996,-115 L 2997,-115 L 2998,-115 L 2999,-115 L 3000,-115 L 3001,-115 L 3002,-115 L 3003,-115 L 3004,-115 L 3005,-115 L 3006,-115 L 3007,-115 L 3008,-115 L 3009,-115 L 3009,-114 L 3010,-114 L 3011,-114 L 3012,-114 L 3013,-114 L 3014,-114 L 3015,-114 L 3016,-114 L 3017,-114 L 3018,-114 L 3019,-114 L 3020,-114 L 3021,-114 L 3022,-114 L 3023,-114 L 3024,-114 L 3025,-114 L 3026,-114 L 3027,-114 L 3029,-114 L 3031,-114 L 3033,-114 L 3035,-113 L 3038,-113 L 3041,-113 L 3043,-113 L 3046,-113 L 3049,-113 L 3050,-113 L 3051,-114 L 3053,-114 L 3054,-115 L 3056,-116 L 3058,-117 L 3059,-118 L 3060,-119 L 3061,-119 L 3062,-121 L 3063,-121 L 3063,-122 L 3063,-124 L 3064,-125 L 3064,-127 L 3064,-128 L 3064,-129 L 3064,-130 L 3064,-131 L 3065,-133 L 3066,-132 L 3067,-131 L 3069,-130 L 3071,-130 L 3072,-129 L 3074,-130 L 3077,-130 L 3079,-129 L 3080,-129 L 3081,-129 L 3083,-130 L 3085,-130 L 3086,-131 L 3086,-132 L 3087,-132 L 3087,-130 L 3088,-129 L 3088,-127 L 3088,-125 L 3088,-124 L 3089,-123 L 3089,-122 L 3090,-121 L 3091,-120 L 3092,-118 L 3093,-117 L 3093,-115 L 3093,-113 L 3093,-112 L 3093,-110 L 3092,-108 L 3092,-107 L 3092,-106 L 3092,-105 L 3092,-104 L 3092,-103 L 3091,-102 L 3091,-101 L 3091,-100 L 3091,-99 L 3092,-97 L 3092,-96 L 3090,-96 L 3089,-96 L 3088,-94 L 3087,-94 L 3085,-93 L 3084,-91 L 3083,-91 L 3083,-90 L 3082,-90 L 3081,-91 L 3080,-91 L 3079,-91 L 3079,-90 L 3079,-89 L 3078,-88 L 3079,-88 L 3079,-87 L 3079,-86 L 3078,-85 L 3078,-84 L 3077,-84 L 3077,-83 L 3077,-82 L 3076,-81 L 3077,-81 L 3077,-80 L 3076,-80 L 3076,-79 L 3076,-78 L 3076,-77 L 3076,-76 L 3076,-75 L 3076,-74 L 3076,-73 L 3077,-72 L 3077,-70 L 3078,-69 L 3078,-68 L 3078,-67 L 3079,-66 L 3080,-66 L 3080,-65 L 3081,-64 L 3081,-63 L 3082,-62 L 3083,-61 L 3083,-59 L 3083,-58 L 3083,-57 L 3083,-56 L 3083,-54 L 3082,-52 L 3082,-48 L 3080,-46 L 3077,-44 L 3075,-42 L 3073,-41 L 3071,-39 L 3069,-37 L 3067,-35 L 3065,-34 L 3063,-32 L 3063,-31 L 3061,-30 L 3060,-30 L 3058,-30 L 3057,-29 L 3055,-29 L 3053,-28 L 3053,-26 L 3052,-25 L 3051,-24 L 3050,-23 L 3049,-22 L 3048,-20 L 3048,-19 L 3047,-17 L 3046,-16 L 3046,-14 L 3045,-13 L 3045,-12 L 3044,-10 L 3044,-9 L 3043,-8 L 3043,-6 L 3042,-5 L 3041,-3 L 3041,-2 L 3041,-1 L 3041,0 L 3040,1 L 3040,2 L 3040,3 L 3040,4 L 3040,5 L 3040,6 L 3039,7 L 3039,8 L 3039,9 L 3039,10 L 3038,11 L 3038,12 L 3038,13 L 3038,14 L 3038,15 L 3038,16 L 3038,17 L 3038,18 L 3038,19 L 3038,20 L 3038,21 L 3038,22 L 3037,22 L 3037,23 L 3037,24 L 3037,25 L 3037,26 L 3037,27 L 3037,28 L 3037,29 L 3037,30 L 3038,30 L 3038,31 L 3038,32 L 3039,32 L 3039,33 L 3039,34 L 3039,35 L 3039,36 L 3038,37 L 3038,38 L 3038,39 L 3039,39 L 3038,40 L 3039,40 L 3039,41 L 3040,41 L 3041,41 L 3041,42 L 3041,43 L 3040,43 L 3040,44 L 3041,44 L 3041,45 L 3040,45 L 3039,45 L 3038,45 L 3038,44 L 3037,44 L 3037,45 L 3036,45 L 3036,46 L 3036,47 L 3036,48 L 3036,49 L 3035,50 L 3035,51 L 3035,52 L 3035,53 L 3035,54 L 3034,54 L 3035,55 L 3035,56 L 3035,57 L 3036,57 L 3037,57 L 3037,58 L 3038,58 L 3038,59 L 3039,59 L 3039,60 L 3040,60 L 3040,61 L 3039,61 L 3039,62 L 3038,62 L 3038,63 L 3038,64 L 3039,64 L 3040,64 L 3040,65 L 3039,65 L 3039,66 L 3038,66 L 3038,67 L 3039,67 L 3040,67 L 3041,68 L 3040,68 L 3039,68 L 3038,69 L 3038,70 L 3038,71 L 3039,71 L 3039,72 L 3039,73 L 3039,74 L 3038,74 L 3038,75 L 3038,76 L 3039,76 L 3039,77 L 3039,78 L 3038,78 L 3038,79 L 3037,79 L 3037,80 L 3038,80 L 3039,80 L 3040,80 L 3041,80 L 3041,81 L 3040,81 L 3040,82 L 3039,83 L 3039,84 L 3038,84 L 3037,84 L 3037,85 L 3036,85 L 3036,84 L 3035,84 L 3035,85 L 3035,86 L 3036,86 L 3036,87 L 3037,87 L 3037,88 L 3037,89 L 3036,89 L 3036,90 L 3036,91 L 3035,92 L 3035,93 L 3036,93 L 3037,93 L 3037,94 L 3038,94 L 3039,94 L 3040,93 L 3041,93 L 3042,93 L 3042,94 L 3042,95 L 3041,95 L 3041,96 L 3040,96 L 3040,97 L 3040,98 L 3040,99 L 3040,100 L 3040,101 L 3040,102 L 3041,102 L 3041,103 L 3042,103 L 3043,103 L 3044,103 L 3045,103 L 3045,104 L 3045,105 L 3045,106 L 3045,107 L 3045,108 L 3046,109 L 3047,109 L 3048,109 L 3049,109 L 3049,110 L 3050,110 L 3050,111 L 3051,111 L 3051,110 L 3052,110 L 3053,110 L 3053,111 L 3053,112 L 3052,112 L 3052,113 L 3052,114 L 3052,115 L 3051,115 L 3050,115 L 3049,116 L 3049,117 L 3049,118 L 3049,119 L 3050,120 L 3050,121 L 3050,122 L 3049,122 L 3049,123 L 3050,123 L 3050,124 L 3051,124 L 3052,123 L 3053,123 L 3054,123 L 3054,124 L 3055,124 L 3055,125 L 3055,126 L 3054,126 L 3053,126 L 3052,126 L 3050,126 L 3049,126 L 3049,127 L 3050,128 L 3050,129 L 3051,130 L 3052,130 L 3053,130 L 3053,131 L 3052,132 L 3051,132 L 3051,133 L 3050,133 L 3050,134 L 3050,135 L 3050,136 L 3052,137 L 3055,138 L 3057,139 L 3059,141 L 3061,142 L 3061,143 L 3061,144 L 3061,145 L 3061,146 L 3061,147 L 3061,149 L 3061,150 L 3061,151 L 3061,153 L 3061,154 L 3061,155 L 3061,157 L 3061,158 L 3061,159 L 3061,160 L 3061,162 L 3061,163 L 3061,164 L 3061,165 L 3061,167 L 3061,168 L 3061,169 L 3061,170 L 3061,171 L 3061,172 L 3061,173 L 3061,174 L 3062,175 L 3062,176 L 3062,177 L 3063,177 L 3064,177 L 3065,178 L 3066,178 L 3067,179 L 3068,179 L 3069,179 L 3069,180 L 3070,180 L 3071,181 L 3072,181 L 3072,182 L 3073,182 L 3073,183 L 3074,183 L 3074,184 L 3075,184 L 3076,185 L 3076,186 L 3077,186 L 3077,187 L 3077,188 L 3078,188 L 3078,189 L 3078,190 L 3078,191 L 3079,191 L 3079,192 L 3080,192 L 3081,192 L 3081,193 L 3082,193 L 3082,194 L 3083,194 L 3084,195 L 3085,196 L 3086,197 L 3086,198 L 3087,198 L 3088,199 L 3088,200 L 3087,200 L 3087,201 L 3087,202 L 3088,203 L 3089,204 L 3090,204 L 3090,203 L 3091,204 L 3091,203 L 3092,203 L 3093,204 L 3093,205 L 3093,206 L 3093,207 L 3093,208 L 3094,208 L 3095,208 L 3095,209 L 3096,209 L 3096,210 L 3097,210 L 3097,211 L 3096,211 L 3095,211 L 3095,212 L 3095,213 L 3094,214 L 3095,214 L 3096,215 L 3097,215 L 3098,215 L 3099,215 L 3099,214 L 3100,214 L 3101,214 L 3102,214 L 3102,215 L 3102,216 L 3102,217 L 3101,218 L 3101,219 L 3101,220 L 3101,221 L 3102,221 L 3102,222 L 3102,223 L 3103,223 L 3104,223 L 3104,224 L 3105,224 L 3105,223 L 3105,224 L 3106,224 L 3106,225 L 3107,225 L 3107,226 L 3107,227 L 3106,227 L 3106,228 L 3106,229 L 3106,230 L 3107,230 L 3108,230 L 3109,230 L 3109,231 L 3109,232 L 3110,232 L 3110,233 L 3111,233 L 3111,232 L 3112,232 L 3112,233 L 3113,233 L 3113,232 L 3113,231 L 3114,231 L 3115,231 L 3116,231 L 3116,232 L 3117,232 L 3117,231 L 3118,231 L 3118,230 L 3119,231 L 3119,232 L 3118,232 L 3118,233 L 3118,234 L 3119,234 L 3120,234 L 3121,235 L 3122,235 L 3122,234 L 3123,234 L 3124,234 L 3124,233 L 3125,233 L 3126,232 L 3127,232 L 3127,233 L 3128,233 L 3128,234 L 3129,234 L 3129,235 L 3129,236 L 3129,237 L 3130,237 L 3130,238 L 3130,239 L 3130,240 L 3129,240 L 3129,241 L 3128,241 L 3128,242 L 3128,243 L 3128,244 L 3128,245 L 3129,245 L 3130,245 L 3131,245 L 3132,245 L 3133,245 L 3134,245 L 3135,245 L 3136,245 L 3137,245 L 3137,244 L 3138,244 L 3139,244 L 3140,243 L 3141,243 L 3142,243 L 3143,243 L 3144,244 L 3144,245 L 3144,246 L 3143,247 L 3143,248 L 3143,249 L 3143,250 L 3144,250 L 3144,251 L 3145,251 L 3145,252 L 3146,252 L 3146,253 L 3147,253 L 3148,253 L 3149,253 L 3150,253 L 3150,252 L 3151,252 L 3152,252 L 3153,252 L 3154,253 L 3154,254 L 3154,255 L 3155,255 L 3155,256 L 3155,257 L 3155,258 L 3155,259 L 3155,260 L 3155,261 L 3155,262 L 3154,262 L 3154,263 L 3154,264 L 3155,264 L 3155,265 L 3156,265 L 3157,266 L 3158,266 L 3159,266 L 3160,266 L 3161,267 L 3162,267 L 3162,268 L 3163,268 L 3164,269 L 3165,269 L 3165,268 L 3166,268 L 3167,268 L 3168,267 L 3169,267 L 3170,267 L 3170,266 L 3171,266 L 3171,265 L 3172,265 L 3172,266 L 3173,266 L 3174,266 L 3174,267 L 3175,267 L 3176,267 L 3177,268 L 3178,268 L 3178,269 L 3178,270 L 3179,271 L 3179,272 L 3179,273 L 3180,273 L 3180,274 L 3180,275 L 3180,276 L 3180,277 L 3180,278 L 3180,279 L 3181,279 L 3182,279 L 3183,279 L 3184,280 L 3185,280 L 3186,280 L 3187,280 L 3188,280 L 3188,281 L 3189,281 L 3190,281 L 3191,281 L 3192,282 L 3192,283 L 3193,283 L 3193,284 L 3193,283 L 3194,283 L 3195,283 L 3195,284 L 3195,285 L 3195,286 L 3196,286 L 3196,287 L 3197,287 L 3197,286 L 3198,286 L 3199,286 L 3199,285 L 3200,285 L 3201,285 L 3202,285 L 3202,284 L 3203,284 L 3204,284 L 3204,283 L 3205,283 L 3205,284 L 3205,286 L 3210,283 L 3211,282 L 3212,281 L 3214,280 L 3217,278 L 3220,275 L 3226,271 L 3227,270 L 3231,267 L 3232,266 L 3233,266 L 3234,266 L 3239,270 L 3247,276 L 3251,279 L 3256,283 L 3279,298 L 3279,299 L 3280,300 L 3281,301 L 3282,301 L 3282,302 L 3283,302 L 3283,303 L 3283,304 L 3282,305 L 3281,306 L 3281,307 L 3280,307 L 3279,308 L 3278,308 L 3278,309 L 3277,310 L 3276,310 L 3276,311 L 3276,312 L 3275,312 L 3275,313 L 3274,313 L 3272,315 L 3268,317 L 3268,318 L 3268,319 L 3268,320 L 3269,320 L 3270,320 L 3270,319 L 3271,319 L 3272,320 L 3271,321 L 3271,322 L 3271,323 L 3271,324 L 3270,325 L 3269,326 L 3268,327 L 3268,328 L 3268,329 L 3268,330 L 3269,330 L 3269,331 L 3270,331 L 3270,332 L 3270,333 L 3270,334 L 3271,334 L 3271,335 L 3272,335 L 3273,335 L 3274,335 L 3275,335 L 3275,336 L 3276,337 L 3276,338 L 3276,339 L 3277,340 L 3277,341 L 3277,342 L 3278,343 L 3278,344 L 3278,345 L 3279,346 L 3279,347 L 3280,347 L 3281,347 L 3282,347 L 3283,348 L 3283,349 L 3283,350 L 3283,351 L 3284,351 L 3284,352 L 3284,353 L 3285,354 L 3285,355 L 3286,356 L 3287,356 L 3288,356 L 3289,356 L 3290,356 L 3290,357 L 3291,358 L 3292,359 L 3292,360 L 3292,362 L 3292,363 L 3292,364 L 3292,365 L 3292,366 L 3292,367 L 3292,368 L 3292,369 L 3292,370 L 3291,371 L 3291,372 L 3291,373 L 3291,374 L 3294,377 L 3294,378 L 3295,379 L 3296,379 L 3297,381 L 3298,382 L 3299,384 L 3300,385 L 3301,386 L 3301,388 L 3301,389 L 3301,391 L 3301,392 L 3300,392 L 3299,392 L 3298,392 L 3296,392 L 3295,392 L 3294,392 L 3292,392 L 3290,392 L 3288,392 L 3289,394 L 3289,395 L 3290,395 L 3290,396 L 3291,397 L 3291,398 L 3292,399 L 3293,401 L 3293,402 L 3294,403 L 3295,404 L 3296,405 L 3296,407 L 3297,408 L 3298,409 L 3298,410 L 3299,412 L 3300,413 L 3300,414 L 3301,415 L 3302,416 L 3303,418 L 3303,419 L 3304,420 L 3305,421 L 3305,423 L 3306,424 L 3307,425 L 3308,427 L 3308,428 L 3309,429 L 3310,430 L 3311,432 L 3311,433 L 3312,434 L 3313,435 L 3313,437 L 3314,438 L 3315,439 L 3316,441 L 3317,443 L 3291,443 L 3188,442 L 3184,448 L 2925,439 L 2812,476 L 2775,488 L 2683,457 L 2683,456 L 2682,455 L 2682,454 L 2682,451 L 2682,450 L 2682,443 L 2682,440 L 2682,435 L 2682,431 L 2682,428 L 2683,421 L 2682,419 L 2683,412 L 2683,409 L 2683,404 L 2683,399 L 2683,393 L 2683,387 L 2683,382 L 2683,377 L 2683,371 L 2683,368 L 2683,363 L 2683,356 L 2683,349 L 2683,342 L 2683,334 L 2683,331 L 2683,325 L 2683,320 L 2683,313 L 2683,306 L 2683,297 L 2683,290 L 2683,284 L 2683,278 L 2683,273 L 2684,266 L 2684,259 L 2684,254 L 2684,249 L 2684,240 L 2684,236 L 2684,232 L 2684,229 L 2684,224 L 2684,215 L 2684,207 L 2684,203 L 2684,198 L 2684,188 L 2684,183 L 2684,178 L 2684,169 L 2684,157 L 2685,152 L 2685,146 L 2685,142 L 2685,133 L 2685,129 L 2685,119 L 2685,117 L 2685,111 L 2685,103 L 2685,96 L 2686,82 L 2686,74 L 2686,67 L 2687,53 L 2687,42 L 2688,33 L 2688,25 L 2688,19 L 2688,16 L 2688,12 L 2688,7 L 2689,4 L 2689,0 L 2689,-4 L 2689,-9 L 2689,-14 L 2689,-16 L 2689,-18 L 2689,-19 L 2689,-21 L 2690,-25 L 2690,-27 L 2690,-30 L 2690,-32 L 2690,-33 L 2690,-37 L 2690,-39 L 2690,-40 L 2690,-42 L 2690,-44 L 2691,-51 L 2691,-56 L 2691,-62 L 2691,-70 L 2691,-72 L 2691,-74 L 2692,-80 L 2692,-83 L 2692,-86 L 2692,-89 L 2692,-93 L 2692,-99 L 2692,-103 L 2692,-105 L 2693,-108 L 2693,-112 L 2693,-116 L 2693,-119 L 2693,-123 L 2693,-126 L 2693,-127 L 2694,-127 " /></g>
</svg>
