<?xml version="1.0" standalone="no"?><!DOCTYPE svg PUBLIC "-//W3C//DTD SVG 1.1//EN" "http://www.w3.org/Graphics/SVG/1.1/DTD/svg11.dtd"><svg xmlns="http://www.w3.org/2000/svg" viewBox="911 255 232 273" version = "1.1">
<g id="71301" ><path d="M 1073,255 L 1073,256 L 1074,256 L 1074,257 L 1075,257 L 1075,258 L 1076,258 L 1076,259 L 1077,259 L 1077,260 L 1078,260 L 1079,260 L 1080,260 L 1081,260 L 1082,260 L 1083,260 L 1083,259 L 1084,259 L 1085,258 L 1086,257 L 1087,256 L 1088,256 L 1089,256 L 1090,256 L 1091,256 L 1092,256 L 1093,256 L 1093,255 L 1093,256 L 1094,256 L 1095,256 L 1095,257 L 1096,257 L 1096,256 L 1097,257 L 1097,258 L 1097,260 L 1098,261 L 1097,261 L 1097,262 L 1097,263 L 1096,264 L 1095,264 L 1095,265 L 1095,266 L 1095,267 L 1096,267 L 1097,267 L 1098,267 L 1099,267 L 1099,268 L 1099,269 L 1098,269 L 1098,270 L 1099,270 L 1098,271 L 1098,272 L 1098,273 L 1098,274 L 1099,275 L 1099,276 L 1099,277 L 1100,277 L 1100,278 L 1100,279 L 1101,279 L 1102,279 L 1103,279 L 1103,280 L 1104,281 L 1105,281 L 1105,282 L 1106,283 L 1106,284 L 1107,284 L 1107,285 L 1108,285 L 1110,286 L 1111,286 L 1111,287 L 1111,288 L 1112,288 L 1112,289 L 1113,289 L 1113,288 L 1114,289 L 1115,289 L 1115,290 L 1116,290 L 1117,290 L 1118,290 L 1119,290 L 1119,291 L 1120,291 L 1120,292 L 1121,292 L 1121,291 L 1122,291 L 1123,291 L 1124,291 L 1124,292 L 1125,292 L 1126,293 L 1127,293 L 1128,293 L 1128,294 L 1129,294 L 1130,294 L 1130,295 L 1131,295 L 1132,295 L 1132,296 L 1133,296 L 1134,296 L 1135,296 L 1135,297 L 1136,297 L 1137,297 L 1138,297 L 1139,297 L 1140,298 L 1141,298 L 1141,299 L 1142,300 L 1142,301 L 1142,302 L 1141,302 L 1140,302 L 1140,303 L 1141,303 L 1142,304 L 1142,305 L 1142,306 L 1143,307 L 1142,307 L 1141,307 L 1141,308 L 1142,308 L 1141,308 L 1141,309 L 1141,310 L 1141,311 L 1140,311 L 1140,312 L 1140,313 L 1140,314 L 1140,315 L 1141,315 L 1140,316 L 1141,316 L 1141,317 L 1140,317 L 1139,318 L 1139,319 L 1139,320 L 1139,321 L 1138,321 L 1138,322 L 1139,323 L 1138,324 L 1137,324 L 1137,325 L 1136,325 L 1136,326 L 1135,326 L 1134,326 L 1134,327 L 1133,327 L 1133,328 L 1132,328 L 1131,328 L 1131,329 L 1131,330 L 1130,330 L 1130,331 L 1130,332 L 1129,332 L 1130,333 L 1130,334 L 1130,335 L 1130,336 L 1130,337 L 1130,338 L 1131,339 L 1131,340 L 1130,340 L 1129,340 L 1129,341 L 1128,341 L 1128,342 L 1129,342 L 1129,343 L 1128,342 L 1127,342 L 1127,343 L 1127,344 L 1127,345 L 1126,345 L 1126,346 L 1127,347 L 1128,347 L 1129,347 L 1129,348 L 1128,349 L 1129,349 L 1128,350 L 1128,349 L 1127,349 L 1127,350 L 1127,351 L 1126,351 L 1125,350 L 1125,351 L 1124,351 L 1124,352 L 1125,352 L 1126,353 L 1125,353 L 1124,353 L 1124,352 L 1123,352 L 1123,353 L 1122,353 L 1121,353 L 1121,354 L 1120,354 L 1119,354 L 1119,353 L 1118,353 L 1117,353 L 1116,353 L 1116,352 L 1115,352 L 1114,352 L 1114,353 L 1113,353 L 1113,354 L 1112,354 L 1112,353 L 1112,354 L 1111,353 L 1111,354 L 1111,355 L 1111,356 L 1110,356 L 1110,357 L 1111,357 L 1110,357 L 1110,358 L 1109,358 L 1109,359 L 1110,359 L 1109,359 L 1109,360 L 1109,361 L 1108,361 L 1108,362 L 1108,363 L 1108,364 L 1108,365 L 1108,366 L 1108,367 L 1107,367 L 1107,368 L 1106,368 L 1106,369 L 1105,370 L 1105,371 L 1104,371 L 1104,372 L 1104,373 L 1104,374 L 1104,375 L 1104,376 L 1103,376 L 1103,377 L 1103,378 L 1102,379 L 1101,380 L 1101,381 L 1100,382 L 1100,383 L 1100,384 L 1098,386 L 1098,387 L 1098,388 L 1097,389 L 1097,390 L 1097,391 L 1097,392 L 1096,392 L 1096,393 L 1096,394 L 1096,395 L 1097,395 L 1098,395 L 1098,396 L 1099,396 L 1100,396 L 1101,396 L 1101,397 L 1101,398 L 1100,398 L 1100,399 L 1099,399 L 1099,400 L 1098,401 L 1099,401 L 1099,402 L 1099,403 L 1098,404 L 1097,404 L 1097,405 L 1096,406 L 1096,407 L 1097,407 L 1097,408 L 1098,408 L 1098,409 L 1099,410 L 1099,411 L 1100,411 L 1100,412 L 1099,412 L 1099,413 L 1099,414 L 1098,414 L 1098,415 L 1097,415 L 1096,416 L 1096,417 L 1096,418 L 1096,419 L 1096,420 L 1095,420 L 1095,421 L 1095,422 L 1095,423 L 1095,424 L 1095,425 L 1096,426 L 1096,427 L 1097,427 L 1097,428 L 1097,429 L 1098,430 L 1098,431 L 1098,432 L 1099,432 L 1099,433 L 1099,434 L 1100,434 L 1100,435 L 1100,436 L 1100,437 L 1100,438 L 1100,439 L 1100,440 L 1100,441 L 1099,441 L 1099,442 L 1099,443 L 1099,444 L 1098,444 L 1098,445 L 1097,446 L 1096,446 L 1096,447 L 1095,447 L 1095,448 L 1094,448 L 1094,449 L 1094,450 L 1093,450 L 1093,451 L 1094,451 L 1094,452 L 1095,452 L 1095,453 L 1094,453 L 1095,453 L 1095,454 L 1096,454 L 1096,455 L 1095,455 L 1096,455 L 1096,456 L 1095,456 L 1095,457 L 1096,457 L 1096,456 L 1096,457 L 1096,458 L 1096,459 L 1096,458 L 1095,458 L 1094,458 L 1093,457 L 1092,457 L 1091,457 L 1091,456 L 1090,456 L 1089,456 L 1088,456 L 1088,457 L 1087,457 L 1086,457 L 1087,458 L 1088,461 L 1089,465 L 1089,466 L 1089,468 L 1089,473 L 1090,476 L 1091,478 L 1090,479 L 1089,480 L 1088,480 L 1088,481 L 1087,481 L 1087,482 L 1086,482 L 1086,483 L 1085,483 L 1084,483 L 1084,484 L 1083,484 L 1082,485 L 1081,485 L 1081,486 L 1080,486 L 1080,487 L 1079,487 L 1078,487 L 1079,487 L 1079,488 L 1078,488 L 1077,488 L 1076,488 L 1075,488 L 1075,487 L 1074,487 L 1073,487 L 1073,486 L 1073,487 L 1072,487 L 1072,488 L 1072,489 L 1072,490 L 1073,490 L 1073,491 L 1073,492 L 1073,493 L 1073,494 L 1072,494 L 1073,495 L 1073,496 L 1073,497 L 1074,497 L 1074,498 L 1073,498 L 1073,499 L 1073,500 L 1074,502 L 1075,502 L 1076,503 L 1075,504 L 1074,505 L 1073,505 L 1073,506 L 1072,506 L 1072,507 L 1071,507 L 1071,508 L 1070,508 L 1069,509 L 1069,510 L 1068,510 L 1067,511 L 1066,512 L 1065,513 L 1064,513 L 1063,514 L 1062,515 L 1061,515 L 1060,516 L 1059,517 L 1058,517 L 1057,517 L 1056,517 L 1054,516 L 1053,515 L 1051,514 L 1050,514 L 1049,514 L 1049,513 L 1048,513 L 1048,512 L 1047,512 L 1046,512 L 1045,512 L 1044,512 L 1043,512 L 1042,512 L 1042,513 L 1042,514 L 1041,514 L 1041,515 L 1040,515 L 1041,515 L 1042,515 L 1042,516 L 1042,517 L 1042,518 L 1042,517 L 1043,517 L 1043,518 L 1042,518 L 1042,519 L 1042,520 L 1043,520 L 1043,519 L 1043,520 L 1044,520 L 1044,521 L 1043,521 L 1042,521 L 1042,522 L 1042,523 L 1041,523 L 1041,522 L 1040,522 L 1040,523 L 1039,523 L 1039,524 L 1038,524 L 1037,524 L 1036,524 L 1035,524 L 1034,524 L 1033,524 L 1032,524 L 1031,524 L 1030,523 L 1029,523 L 1029,524 L 1028,524 L 1028,523 L 1029,523 L 1028,523 L 1027,523 L 1026,523 L 1026,524 L 1025,524 L 1025,525 L 1025,526 L 1025,525 L 1024,525 L 1024,526 L 1024,527 L 1023,527 L 1024,527 L 1024,528 L 1023,528 L 1023,527 L 1023,528 L 1022,528 L 1021,528 L 1020,528 L 1020,527 L 1020,528 L 1019,528 L 1018,528 L 1018,527 L 1018,528 L 1017,528 L 1016,528 L 1016,527 L 1015,527 L 1015,528 L 1014,528 L 1014,527 L 1014,526 L 1014,525 L 1013,525 L 1013,524 L 1013,523 L 1013,522 L 1014,522 L 1014,521 L 1015,521 L 1014,521 L 1014,520 L 1013,520 L 1013,519 L 1012,518 L 1011,518 L 1011,517 L 1010,517 L 1011,517 L 1011,516 L 1010,516 L 1009,516 L 1009,515 L 1010,515 L 1010,514 L 1011,514 L 1011,513 L 1010,512 L 1009,511 L 1009,512 L 1009,511 L 1008,511 L 1007,511 L 1006,510 L 1006,509 L 1006,508 L 1007,507 L 1006,507 L 1006,506 L 1011,504 L 1013,499 L 1015,496 L 1018,496 L 1016,491 L 1016,487 L 1010,483 L 1010,482 L 1010,479 L 1005,471 L 1004,469 L 1001,464 L 998,461 L 996,460 L 995,452 L 994,447 L 992,443 L 991,437 L 991,435 L 990,434 L 988,433 L 988,431 L 987,428 L 985,424 L 981,420 L 979,420 L 977,422 L 976,424 L 974,426 L 974,427 L 972,427 L 970,428 L 968,430 L 967,431 L 964,432 L 963,432 L 961,433 L 960,433 L 956,432 L 952,430 L 950,427 L 949,427 L 947,423 L 944,421 L 942,421 L 941,420 L 940,420 L 938,420 L 937,423 L 935,426 L 932,425 L 931,425 L 929,425 L 928,425 L 927,426 L 926,426 L 925,425 L 924,425 L 923,425 L 922,425 L 920,425 L 917,427 L 914,421 L 912,415 L 911,413 L 916,397 L 919,394 L 919,393 L 920,393 L 920,392 L 920,391 L 921,391 L 921,390 L 921,389 L 922,389 L 922,388 L 921,388 L 921,387 L 921,386 L 920,386 L 921,386 L 921,385 L 921,384 L 921,383 L 922,383 L 922,382 L 922,381 L 923,380 L 923,379 L 923,378 L 924,378 L 924,377 L 924,376 L 925,375 L 925,374 L 925,373 L 925,372 L 926,372 L 926,371 L 926,370 L 926,369 L 926,368 L 927,368 L 927,367 L 927,366 L 927,365 L 928,365 L 928,364 L 928,365 L 928,364 L 929,364 L 929,363 L 929,362 L 930,362 L 930,361 L 931,361 L 932,361 L 933,361 L 934,361 L 935,361 L 936,360 L 937,360 L 938,360 L 939,360 L 939,359 L 940,359 L 940,360 L 941,360 L 941,359 L 942,359 L 942,358 L 943,358 L 943,357 L 944,357 L 944,356 L 945,356 L 945,355 L 945,354 L 946,354 L 947,354 L 948,354 L 949,354 L 949,355 L 950,355 L 951,355 L 951,354 L 952,354 L 953,354 L 954,354 L 955,354 L 956,354 L 956,353 L 957,353 L 958,353 L 959,353 L 959,354 L 960,354 L 961,354 L 962,354 L 962,353 L 963,353 L 963,352 L 964,352 L 964,351 L 964,352 L 965,352 L 966,352 L 966,351 L 967,351 L 967,350 L 966,350 L 966,349 L 966,348 L 966,347 L 967,347 L 966,347 L 966,346 L 966,345 L 966,344 L 966,343 L 966,342 L 966,341 L 966,340 L 967,340 L 967,339 L 968,339 L 968,338 L 969,338 L 970,337 L 970,336 L 970,335 L 971,335 L 972,335 L 973,336 L 974,336 L 975,336 L 975,335 L 975,334 L 975,333 L 975,332 L 976,332 L 976,331 L 977,331 L 977,330 L 978,330 L 978,329 L 979,329 L 979,328 L 979,327 L 980,327 L 981,327 L 981,326 L 981,325 L 981,324 L 982,324 L 982,323 L 982,322 L 982,321 L 983,321 L 982,321 L 983,321 L 983,320 L 983,319 L 983,318 L 983,317 L 982,317 L 983,317 L 983,316 L 984,315 L 983,315 L 983,314 L 982,314 L 982,313 L 982,312 L 981,312 L 980,312 L 980,311 L 980,310 L 980,309 L 980,308 L 980,307 L 980,306 L 980,305 L 979,305 L 979,304 L 979,303 L 979,302 L 979,301 L 981,301 L 983,300 L 985,300 L 987,301 L 989,302 L 990,302 L 991,302 L 993,303 L 994,303 L 995,303 L 996,303 L 997,303 L 998,302 L 999,299 L 1000,299 L 1001,298 L 1002,298 L 1003,298 L 1003,297 L 1004,296 L 1005,295 L 1006,295 L 1006,294 L 1006,293 L 1007,293 L 1008,294 L 1008,295 L 1009,296 L 1010,297 L 1011,298 L 1012,298 L 1012,299 L 1013,299 L 1014,300 L 1014,299 L 1015,299 L 1015,300 L 1016,300 L 1016,301 L 1017,301 L 1017,302 L 1018,301 L 1019,301 L 1020,301 L 1021,301 L 1022,301 L 1023,302 L 1024,302 L 1024,303 L 1025,303 L 1025,302 L 1036,302 L 1037,298 L 1037,297 L 1037,296 L 1037,295 L 1037,294 L 1038,294 L 1039,294 L 1039,293 L 1039,292 L 1038,292 L 1038,291 L 1038,290 L 1038,289 L 1039,289 L 1040,289 L 1041,289 L 1041,288 L 1042,288 L 1043,288 L 1043,287 L 1044,287 L 1044,286 L 1044,285 L 1043,284 L 1044,284 L 1044,283 L 1043,283 L 1044,282 L 1044,281 L 1044,280 L 1045,281 L 1045,280 L 1046,280 L 1047,280 L 1047,279 L 1047,278 L 1047,277 L 1046,277 L 1046,276 L 1046,275 L 1045,274 L 1045,273 L 1045,272 L 1045,271 L 1045,270 L 1046,270 L 1047,270 L 1047,269 L 1046,268 L 1046,267 L 1045,267 L 1045,266 L 1046,266 L 1047,266 L 1047,265 L 1048,265 L 1049,265 L 1049,266 L 1050,266 L 1050,267 L 1051,267 L 1052,267 L 1053,267 L 1054,267 L 1054,266 L 1055,266 L 1056,266 L 1056,265 L 1057,264 L 1056,264 L 1057,263 L 1058,263 L 1058,262 L 1059,262 L 1059,263 L 1060,263 L 1061,263 L 1061,262 L 1060,262 L 1060,261 L 1061,261 L 1061,260 L 1061,259 L 1061,260 L 1062,261 L 1062,260 L 1063,260 L 1063,259 L 1063,258 L 1063,257 L 1064,257 L 1064,256 L 1065,256 L 1066,257 L 1067,257 L 1068,257 L 1069,257 L 1069,256 L 1069,255 L 1070,255 L 1070,256 L 1071,256 L 1071,255 L 1072,255 L 1073,255 " /></g>
</svg>
