<?xml version="1.0" standalone="no"?><!DOCTYPE svg PUBLIC "-//W3C//DTD SVG 1.1//EN" "http://www.w3.org/Graphics/SVG/1.1/DTD/svg11.dtd"><svg xmlns="http://www.w3.org/2000/svg" viewBox="909 420 109 86" version = "1.1">
<g id="71302" ><path d="M 917,427 L 920,425 L 922,425 L 923,425 L 924,425 L 925,425 L 926,426 L 927,426 L 928,425 L 929,425 L 931,425 L 932,425 L 935,426 L 937,423 L 938,420 L 940,420 L 941,420 L 942,421 L 944,421 L 947,423 L 949,427 L 950,427 L 952,430 L 956,432 L 960,433 L 961,433 L 963,432 L 964,432 L 967,431 L 968,430 L 970,428 L 972,427 L 974,427 L 974,426 L 976,424 L 977,422 L 979,420 L 981,420 L 985,424 L 987,428 L 988,431 L 988,433 L 990,434 L 991,435 L 991,437 L 992,443 L 994,447 L 995,452 L 996,460 L 998,461 L 1001,464 L 1004,469 L 1005,471 L 1010,479 L 1010,482 L 1010,483 L 1016,487 L 1016,491 L 1018,496 L 1015,496 L 1013,499 L 1011,504 L 1006,506 L 1005,506 L 1005,505 L 1005,504 L 1006,504 L 1006,503 L 1005,503 L 1004,503 L 1003,503 L 1003,502 L 1004,502 L 1003,501 L 1002,501 L 1001,501 L 1001,500 L 1000,500 L 1000,499 L 1001,499 L 1001,498 L 1000,498 L 1000,497 L 999,496 L 999,495 L 998,495 L 997,495 L 996,495 L 996,494 L 995,494 L 994,493 L 994,492 L 993,491 L 992,491 L 991,491 L 991,490 L 990,490 L 989,490 L 988,489 L 987,488 L 986,488 L 985,488 L 985,487 L 984,487 L 983,487 L 983,486 L 982,486 L 981,486 L 980,486 L 979,486 L 978,486 L 978,485 L 978,484 L 977,484 L 976,484 L 976,483 L 976,482 L 976,481 L 975,481 L 974,481 L 973,482 L 973,481 L 972,481 L 971,481 L 971,482 L 970,481 L 969,481 L 968,481 L 968,482 L 967,482 L 967,483 L 966,483 L 965,483 L 965,484 L 964,484 L 964,483 L 963,483 L 962,483 L 961,483 L 960,484 L 959,484 L 958,484 L 957,484 L 957,483 L 956,483 L 955,483 L 954,483 L 953,483 L 952,483 L 952,482 L 952,483 L 951,483 L 950,483 L 950,482 L 949,482 L 949,481 L 948,481 L 947,480 L 947,479 L 946,479 L 946,478 L 945,478 L 944,478 L 944,477 L 943,477 L 943,476 L 942,475 L 943,475 L 943,474 L 942,474 L 942,473 L 942,474 L 941,474 L 941,473 L 941,472 L 941,471 L 941,470 L 940,470 L 940,469 L 941,469 L 941,468 L 941,467 L 941,466 L 941,465 L 940,465 L 941,465 L 941,464 L 941,463 L 940,463 L 940,464 L 939,464 L 939,463 L 938,463 L 937,463 L 936,463 L 936,462 L 935,462 L 934,462 L 933,462 L 933,461 L 932,460 L 931,460 L 931,459 L 930,458 L 930,457 L 930,456 L 930,455 L 929,455 L 929,454 L 928,454 L 928,453 L 927,453 L 927,452 L 926,452 L 926,451 L 926,450 L 925,450 L 925,449 L 924,448 L 924,447 L 924,446 L 924,445 L 924,444 L 923,443 L 922,443 L 922,442 L 921,442 L 921,443 L 920,443 L 920,442 L 919,442 L 919,443 L 918,443 L 919,443 L 919,442 L 918,442 L 917,441 L 917,440 L 916,440 L 916,439 L 915,439 L 914,439 L 914,438 L 913,437 L 913,436 L 913,435 L 912,434 L 911,434 L 911,433 L 911,432 L 910,432 L 910,431 L 909,431 L 917,427 " /></g>
</svg>
