<?xml version="1.0" standalone="no"?><!DOCTYPE svg PUBLIC "-//W3C//DTD SVG 1.1//EN" "http://www.w3.org/Graphics/SVG/1.1/DTD/svg11.dtd"><svg xmlns="http://www.w3.org/2000/svg" viewBox="3242 443 136 384" version = "1.1">
<g id="71402" ><path d="M 3317,443 L 3323,453 L 3323,454 L 3324,454 L 3324,455 L 3324,456 L 3325,456 L 3325,457 L 3325,458 L 3326,458 L 3326,459 L 3327,460 L 3327,461 L 3328,462 L 3328,463 L 3329,463 L 3329,464 L 3329,465 L 3329,466 L 3330,466 L 3330,467 L 3330,468 L 3330,469 L 3331,469 L 3331,470 L 3331,471 L 3331,472 L 3331,473 L 3332,473 L 3332,474 L 3332,475 L 3332,476 L 3333,477 L 3333,478 L 3333,479 L 3333,480 L 3334,480 L 3334,481 L 3334,482 L 3334,483 L 3335,484 L 3335,485 L 3335,486 L 3335,487 L 3336,487 L 3336,488 L 3336,489 L 3336,490 L 3337,490 L 3337,491 L 3338,491 L 3338,492 L 3339,492 L 3339,493 L 3340,493 L 3340,494 L 3341,494 L 3341,495 L 3342,496 L 3343,497 L 3344,498 L 3344,499 L 3345,499 L 3345,500 L 3346,500 L 3346,501 L 3347,501 L 3347,502 L 3348,502 L 3348,503 L 3349,503 L 3349,504 L 3350,504 L 3350,505 L 3351,506 L 3352,506 L 3352,507 L 3354,509 L 3356,511 L 3356,512 L 3357,512 L 3357,513 L 3359,515 L 3360,516 L 3361,516 L 3362,516 L 3362,515 L 3363,515 L 3365,517 L 3367,517 L 3368,516 L 3369,516 L 3370,517 L 3370,519 L 3371,520 L 3372,521 L 3373,523 L 3375,525 L 3377,525 L 3378,527 L 3377,528 L 3362,529 L 3359,529 L 3357,529 L 3355,530 L 3353,530 L 3352,530 L 3351,530 L 3350,530 L 3347,530 L 3345,530 L 3344,530 L 3343,530 L 3343,531 L 3342,532 L 3342,533 L 3342,534 L 3342,535 L 3341,535 L 3341,536 L 3341,537 L 3341,538 L 3340,539 L 3340,540 L 3340,541 L 3339,542 L 3339,543 L 3339,544 L 3338,546 L 3338,547 L 3337,549 L 3337,550 L 3336,551 L 3336,553 L 3334,558 L 3334,560 L 3333,562 L 3313,625 L 3313,626 L 3312,629 L 3311,631 L 3311,632 L 3311,633 L 3310,635 L 3310,636 L 3309,637 L 3309,639 L 3308,640 L 3308,642 L 3308,643 L 3307,644 L 3306,646 L 3306,647 L 3306,649 L 3305,650 L 3305,652 L 3304,653 L 3303,656 L 3303,657 L 3303,658 L 3302,659 L 3302,660 L 3302,662 L 3301,664 L 3301,665 L 3300,666 L 3300,667 L 3299,668 L 3299,669 L 3299,671 L 3298,673 L 3298,674 L 3297,675 L 3297,676 L 3297,677 L 3296,678 L 3296,679 L 3296,680 L 3295,682 L 3295,684 L 3294,687 L 3293,688 L 3293,689 L 3293,690 L 3292,692 L 3292,693 L 3291,695 L 3291,696 L 3290,699 L 3289,701 L 3289,702 L 3288,705 L 3288,706 L 3287,707 L 3286,710 L 3286,711 L 3284,717 L 3284,718 L 3284,719 L 3283,720 L 3282,726 L 3281,727 L 3281,729 L 3280,730 L 3280,731 L 3280,732 L 3279,733 L 3279,734 L 3279,735 L 3279,736 L 3278,736 L 3278,737 L 3278,738 L 3278,739 L 3277,739 L 3277,740 L 3277,741 L 3277,742 L 3276,743 L 3276,744 L 3276,745 L 3275,745 L 3275,746 L 3275,747 L 3275,748 L 3274,748 L 3274,749 L 3274,750 L 3273,751 L 3274,751 L 3276,751 L 3277,751 L 3278,751 L 3279,751 L 3280,751 L 3281,751 L 3282,751 L 3283,751 L 3284,751 L 3285,751 L 3287,751 L 3288,751 L 3289,751 L 3289,752 L 3289,753 L 3289,754 L 3289,755 L 3289,756 L 3289,757 L 3289,758 L 3289,759 L 3289,760 L 3289,761 L 3289,762 L 3289,763 L 3289,764 L 3289,765 L 3289,766 L 3289,767 L 3289,768 L 3289,769 L 3289,770 L 3289,771 L 3289,772 L 3289,773 L 3289,774 L 3289,775 L 3289,776 L 3289,777 L 3289,778 L 3290,777 L 3291,777 L 3292,778 L 3293,778 L 3293,779 L 3293,780 L 3294,780 L 3294,781 L 3295,781 L 3295,782 L 3295,783 L 3296,783 L 3296,784 L 3297,784 L 3297,785 L 3297,786 L 3296,786 L 3296,787 L 3296,788 L 3297,788 L 3298,788 L 3299,788 L 3299,789 L 3298,789 L 3298,788 L 3297,788 L 3297,789 L 3296,789 L 3296,790 L 3295,790 L 3295,791 L 3294,792 L 3294,793 L 3293,794 L 3293,795 L 3292,795 L 3292,796 L 3292,797 L 3286,797 L 3283,797 L 3279,797 L 3278,797 L 3274,797 L 3271,797 L 3268,797 L 3267,799 L 3266,801 L 3265,803 L 3264,805 L 3263,807 L 3262,809 L 3261,811 L 3260,813 L 3259,815 L 3258,817 L 3257,819 L 3256,821 L 3255,823 L 3254,825 L 3253,827 L 3245,823 L 3242,821 L 3244,819 L 3246,818 L 3246,817 L 3249,813 L 3250,812 L 3250,811 L 3251,809 L 3253,807 L 3253,806 L 3254,805 L 3255,803 L 3256,801 L 3256,799 L 3256,798 L 3256,797 L 3256,796 L 3257,795 L 3257,794 L 3258,793 L 3259,791 L 3260,789 L 3261,788 L 3263,788 L 3264,787 L 3265,786 L 3266,786 L 3267,784 L 3267,783 L 3268,782 L 3268,780 L 3268,779 L 3269,777 L 3269,776 L 3268,774 L 3268,772 L 3267,771 L 3267,770 L 3266,768 L 3265,766 L 3264,764 L 3263,763 L 3291,443 L 3317,443 " /></g>
</svg>
