<?xml version="1.0" standalone="no"?><!DOCTYPE svg PUBLIC "-//W3C//DTD SVG 1.1//EN" "http://www.w3.org/Graphics/SVG/1.1/DTD/svg11.dtd"><svg xmlns="http://www.w3.org/2000/svg" viewBox="1302 -900 388 629" version = "1.1">
<g id="71502" ><path d="M 1616,-900 L 1616,-899 L 1617,-899 L 1617,-898 L 1617,-897 L 1617,-896 L 1617,-895 L 1618,-895 L 1618,-894 L 1619,-894 L 1619,-893 L 1619,-894 L 1620,-894 L 1620,-893 L 1620,-892 L 1620,-891 L 1620,-890 L 1621,-890 L 1622,-890 L 1622,-889 L 1621,-889 L 1622,-889 L 1622,-888 L 1622,-887 L 1623,-887 L 1623,-886 L 1623,-885 L 1624,-885 L 1624,-884 L 1624,-883 L 1625,-883 L 1625,-882 L 1625,-881 L 1625,-880 L 1626,-879 L 1626,-878 L 1626,-877 L 1626,-876 L 1625,-875 L 1625,-874 L 1625,-873 L 1625,-872 L 1626,-872 L 1626,-873 L 1626,-872 L 1626,-871 L 1626,-872 L 1625,-871 L 1625,-870 L 1624,-870 L 1623,-871 L 1623,-870 L 1622,-870 L 1622,-869 L 1621,-869 L 1620,-868 L 1620,-867 L 1620,-866 L 1621,-866 L 1621,-865 L 1620,-865 L 1620,-864 L 1620,-863 L 1621,-862 L 1621,-861 L 1620,-861 L 1619,-861 L 1619,-860 L 1620,-860 L 1620,-859 L 1619,-859 L 1618,-859 L 1618,-858 L 1617,-857 L 1617,-856 L 1617,-855 L 1616,-855 L 1616,-854 L 1615,-853 L 1614,-853 L 1614,-852 L 1613,-853 L 1612,-853 L 1611,-853 L 1611,-852 L 1610,-852 L 1610,-851 L 1610,-850 L 1609,-850 L 1608,-850 L 1607,-850 L 1606,-850 L 1606,-849 L 1606,-848 L 1606,-847 L 1605,-847 L 1605,-846 L 1605,-845 L 1606,-845 L 1606,-844 L 1607,-844 L 1607,-843 L 1608,-842 L 1607,-842 L 1606,-841 L 1605,-841 L 1604,-842 L 1603,-842 L 1602,-842 L 1602,-843 L 1601,-842 L 1601,-841 L 1601,-840 L 1601,-839 L 1601,-838 L 1601,-837 L 1600,-837 L 1599,-837 L 1599,-836 L 1599,-835 L 1599,-834 L 1598,-834 L 1597,-834 L 1596,-834 L 1596,-833 L 1597,-833 L 1597,-832 L 1598,-832 L 1598,-831 L 1599,-830 L 1599,-829 L 1598,-829 L 1599,-828 L 1599,-827 L 1599,-826 L 1598,-825 L 1599,-824 L 1598,-824 L 1597,-824 L 1596,-824 L 1596,-823 L 1595,-823 L 1596,-822 L 1596,-821 L 1597,-820 L 1596,-819 L 1596,-818 L 1596,-817 L 1597,-816 L 1596,-816 L 1596,-815 L 1596,-814 L 1596,-813 L 1595,-812 L 1596,-812 L 1596,-811 L 1597,-810 L 1596,-809 L 1595,-809 L 1594,-808 L 1594,-807 L 1594,-806 L 1593,-806 L 1592,-805 L 1591,-804 L 1590,-804 L 1590,-803 L 1590,-802 L 1589,-802 L 1589,-801 L 1588,-801 L 1588,-800 L 1587,-800 L 1588,-799 L 1587,-799 L 1587,-798 L 1586,-798 L 1585,-798 L 1585,-797 L 1586,-797 L 1586,-796 L 1587,-796 L 1588,-796 L 1587,-795 L 1587,-794 L 1586,-794 L 1585,-794 L 1585,-793 L 1585,-792 L 1585,-791 L 1585,-790 L 1586,-790 L 1586,-789 L 1587,-789 L 1587,-788 L 1586,-788 L 1587,-787 L 1588,-788 L 1589,-788 L 1589,-789 L 1590,-789 L 1590,-788 L 1590,-787 L 1589,-786 L 1589,-785 L 1589,-784 L 1589,-783 L 1590,-782 L 1590,-781 L 1591,-781 L 1592,-780 L 1593,-780 L 1593,-781 L 1593,-780 L 1593,-779 L 1592,-779 L 1592,-778 L 1592,-777 L 1592,-776 L 1591,-776 L 1591,-775 L 1592,-775 L 1593,-775 L 1593,-774 L 1594,-774 L 1594,-773 L 1595,-773 L 1595,-772 L 1596,-772 L 1597,-772 L 1598,-771 L 1598,-770 L 1598,-769 L 1597,-769 L 1597,-768 L 1598,-768 L 1599,-768 L 1599,-767 L 1599,-766 L 1598,-766 L 1599,-766 L 1599,-765 L 1600,-765 L 1601,-765 L 1601,-764 L 1601,-763 L 1601,-762 L 1601,-761 L 1602,-761 L 1602,-760 L 1601,-760 L 1602,-759 L 1603,-759 L 1602,-759 L 1602,-758 L 1601,-758 L 1601,-757 L 1601,-756 L 1602,-756 L 1601,-756 L 1601,-755 L 1601,-754 L 1601,-753 L 1601,-752 L 1601,-751 L 1602,-751 L 1603,-751 L 1603,-752 L 1604,-751 L 1604,-750 L 1603,-750 L 1602,-750 L 1602,-749 L 1602,-748 L 1603,-748 L 1603,-747 L 1603,-746 L 1604,-746 L 1604,-747 L 1604,-748 L 1605,-748 L 1606,-747 L 1607,-747 L 1607,-746 L 1608,-746 L 1608,-745 L 1607,-745 L 1607,-744 L 1606,-744 L 1606,-743 L 1606,-742 L 1605,-742 L 1605,-741 L 1605,-740 L 1605,-741 L 1604,-741 L 1604,-740 L 1604,-739 L 1605,-739 L 1605,-738 L 1605,-737 L 1606,-737 L 1606,-738 L 1607,-738 L 1607,-737 L 1608,-736 L 1608,-735 L 1607,-735 L 1607,-734 L 1607,-733 L 1608,-733 L 1608,-734 L 1609,-733 L 1608,-733 L 1608,-732 L 1607,-732 L 1607,-731 L 1608,-731 L 1608,-730 L 1609,-730 L 1609,-729 L 1608,-729 L 1608,-728 L 1609,-728 L 1610,-728 L 1609,-728 L 1609,-727 L 1609,-726 L 1609,-725 L 1609,-724 L 1610,-724 L 1610,-725 L 1611,-725 L 1611,-724 L 1611,-723 L 1610,-723 L 1610,-722 L 1610,-721 L 1611,-721 L 1612,-721 L 1613,-721 L 1614,-720 L 1615,-721 L 1616,-721 L 1616,-720 L 1616,-719 L 1615,-719 L 1616,-718 L 1616,-717 L 1617,-717 L 1616,-717 L 1616,-716 L 1617,-716 L 1617,-715 L 1616,-715 L 1616,-714 L 1617,-714 L 1617,-713 L 1616,-713 L 1617,-713 L 1617,-712 L 1617,-711 L 1618,-711 L 1618,-710 L 1619,-709 L 1620,-709 L 1620,-710 L 1621,-710 L 1621,-711 L 1622,-711 L 1622,-710 L 1623,-710 L 1623,-709 L 1622,-709 L 1622,-708 L 1623,-708 L 1624,-708 L 1624,-709 L 1623,-709 L 1623,-710 L 1624,-710 L 1625,-710 L 1625,-709 L 1626,-708 L 1626,-709 L 1627,-709 L 1627,-708 L 1628,-708 L 1628,-707 L 1627,-707 L 1627,-706 L 1628,-706 L 1628,-705 L 1627,-705 L 1628,-705 L 1628,-704 L 1628,-703 L 1627,-703 L 1627,-702 L 1627,-701 L 1627,-702 L 1626,-702 L 1626,-701 L 1627,-701 L 1628,-701 L 1628,-700 L 1627,-700 L 1627,-699 L 1628,-699 L 1628,-698 L 1629,-698 L 1630,-698 L 1630,-697 L 1629,-697 L 1629,-696 L 1630,-696 L 1631,-696 L 1631,-695 L 1632,-695 L 1632,-694 L 1632,-693 L 1632,-694 L 1632,-693 L 1631,-693 L 1631,-692 L 1631,-693 L 1630,-693 L 1629,-693 L 1630,-693 L 1630,-692 L 1630,-691 L 1629,-691 L 1628,-691 L 1627,-691 L 1627,-690 L 1626,-690 L 1626,-691 L 1626,-690 L 1626,-689 L 1626,-688 L 1626,-687 L 1627,-687 L 1627,-688 L 1627,-687 L 1628,-687 L 1628,-686 L 1628,-685 L 1627,-685 L 1628,-685 L 1629,-685 L 1629,-686 L 1630,-686 L 1631,-686 L 1631,-685 L 1631,-684 L 1630,-684 L 1631,-684 L 1632,-683 L 1632,-684 L 1633,-684 L 1633,-683 L 1632,-683 L 1632,-682 L 1633,-682 L 1633,-683 L 1634,-683 L 1635,-683 L 1635,-682 L 1635,-681 L 1635,-680 L 1634,-680 L 1633,-680 L 1633,-679 L 1632,-679 L 1631,-679 L 1631,-678 L 1631,-677 L 1631,-676 L 1632,-676 L 1632,-677 L 1633,-677 L 1633,-676 L 1634,-676 L 1635,-677 L 1635,-678 L 1636,-678 L 1636,-677 L 1637,-676 L 1638,-676 L 1638,-675 L 1639,-675 L 1639,-676 L 1640,-676 L 1641,-676 L 1641,-677 L 1642,-677 L 1643,-677 L 1643,-676 L 1643,-675 L 1644,-674 L 1644,-673 L 1644,-672 L 1644,-671 L 1643,-671 L 1643,-672 L 1643,-671 L 1643,-670 L 1642,-670 L 1642,-669 L 1641,-669 L 1641,-668 L 1642,-669 L 1642,-668 L 1642,-667 L 1643,-667 L 1643,-666 L 1644,-666 L 1643,-666 L 1643,-665 L 1643,-664 L 1643,-665 L 1642,-664 L 1642,-665 L 1641,-665 L 1641,-664 L 1641,-663 L 1642,-663 L 1642,-662 L 1641,-662 L 1642,-662 L 1642,-661 L 1642,-660 L 1642,-659 L 1643,-659 L 1644,-659 L 1644,-658 L 1644,-657 L 1645,-657 L 1646,-657 L 1646,-656 L 1646,-655 L 1645,-654 L 1645,-653 L 1645,-652 L 1646,-652 L 1646,-651 L 1645,-651 L 1645,-650 L 1645,-651 L 1645,-650 L 1644,-650 L 1644,-649 L 1645,-649 L 1645,-648 L 1644,-648 L 1644,-647 L 1643,-647 L 1642,-648 L 1642,-647 L 1642,-646 L 1642,-645 L 1641,-645 L 1641,-646 L 1641,-645 L 1640,-645 L 1639,-645 L 1639,-644 L 1640,-644 L 1640,-643 L 1639,-643 L 1639,-642 L 1639,-641 L 1638,-641 L 1638,-640 L 1638,-639 L 1638,-638 L 1638,-637 L 1637,-637 L 1637,-638 L 1637,-637 L 1637,-636 L 1636,-636 L 1636,-637 L 1635,-637 L 1635,-636 L 1634,-636 L 1634,-635 L 1634,-634 L 1635,-634 L 1635,-633 L 1635,-632 L 1634,-632 L 1634,-631 L 1634,-630 L 1634,-629 L 1635,-629 L 1636,-629 L 1636,-628 L 1635,-628 L 1636,-628 L 1636,-627 L 1637,-626 L 1636,-626 L 1636,-625 L 1637,-625 L 1636,-625 L 1635,-625 L 1635,-624 L 1636,-624 L 1637,-623 L 1638,-623 L 1639,-623 L 1639,-622 L 1639,-621 L 1639,-620 L 1639,-619 L 1638,-619 L 1637,-619 L 1637,-618 L 1637,-617 L 1636,-617 L 1636,-618 L 1635,-617 L 1636,-617 L 1636,-616 L 1637,-616 L 1637,-615 L 1636,-615 L 1636,-614 L 1636,-613 L 1636,-612 L 1635,-612 L 1636,-611 L 1637,-611 L 1637,-610 L 1636,-610 L 1636,-609 L 1637,-609 L 1638,-609 L 1638,-608 L 1639,-608 L 1640,-608 L 1640,-607 L 1641,-607 L 1641,-606 L 1640,-606 L 1640,-605 L 1640,-604 L 1640,-605 L 1639,-605 L 1639,-604 L 1640,-604 L 1640,-603 L 1639,-603 L 1638,-603 L 1638,-602 L 1638,-601 L 1639,-602 L 1639,-601 L 1639,-600 L 1640,-600 L 1641,-600 L 1642,-600 L 1642,-599 L 1643,-599 L 1643,-598 L 1642,-598 L 1642,-599 L 1642,-598 L 1642,-597 L 1643,-597 L 1643,-596 L 1642,-596 L 1642,-595 L 1641,-595 L 1641,-594 L 1640,-594 L 1640,-595 L 1639,-595 L 1638,-595 L 1638,-596 L 1638,-595 L 1638,-594 L 1637,-594 L 1637,-593 L 1636,-593 L 1636,-592 L 1637,-592 L 1637,-591 L 1636,-591 L 1636,-592 L 1635,-592 L 1635,-591 L 1635,-590 L 1636,-590 L 1635,-589 L 1636,-589 L 1636,-588 L 1637,-588 L 1636,-587 L 1635,-586 L 1635,-585 L 1634,-585 L 1635,-585 L 1636,-585 L 1636,-584 L 1636,-583 L 1636,-584 L 1635,-584 L 1635,-583 L 1635,-582 L 1636,-582 L 1636,-581 L 1636,-580 L 1636,-579 L 1636,-578 L 1637,-578 L 1637,-577 L 1636,-577 L 1636,-576 L 1637,-576 L 1637,-575 L 1637,-574 L 1638,-574 L 1638,-573 L 1638,-572 L 1639,-572 L 1639,-571 L 1640,-571 L 1639,-571 L 1639,-570 L 1640,-570 L 1640,-569 L 1640,-568 L 1639,-568 L 1639,-567 L 1640,-567 L 1640,-566 L 1640,-565 L 1639,-565 L 1638,-565 L 1638,-564 L 1637,-564 L 1636,-564 L 1636,-563 L 1637,-563 L 1637,-562 L 1638,-562 L 1638,-561 L 1637,-560 L 1636,-560 L 1637,-559 L 1637,-560 L 1638,-560 L 1638,-559 L 1639,-559 L 1638,-559 L 1638,-558 L 1639,-558 L 1639,-559 L 1640,-559 L 1640,-560 L 1641,-560 L 1642,-560 L 1642,-559 L 1642,-560 L 1643,-560 L 1644,-560 L 1645,-560 L 1645,-559 L 1646,-559 L 1647,-559 L 1648,-560 L 1649,-560 L 1649,-559 L 1650,-559 L 1651,-559 L 1651,-558 L 1651,-557 L 1651,-556 L 1652,-556 L 1653,-556 L 1654,-556 L 1655,-556 L 1655,-555 L 1656,-555 L 1656,-554 L 1657,-554 L 1657,-553 L 1657,-552 L 1656,-552 L 1656,-551 L 1656,-550 L 1657,-550 L 1657,-549 L 1658,-548 L 1657,-548 L 1658,-548 L 1658,-547 L 1657,-547 L 1656,-547 L 1656,-546 L 1657,-546 L 1657,-545 L 1658,-545 L 1658,-544 L 1659,-544 L 1659,-543 L 1660,-543 L 1661,-543 L 1661,-542 L 1662,-542 L 1663,-542 L 1664,-542 L 1664,-541 L 1665,-541 L 1665,-540 L 1666,-540 L 1666,-539 L 1666,-540 L 1667,-540 L 1667,-539 L 1667,-538 L 1668,-538 L 1668,-537 L 1668,-536 L 1668,-535 L 1668,-534 L 1667,-534 L 1666,-534 L 1666,-533 L 1667,-533 L 1667,-532 L 1668,-532 L 1669,-532 L 1670,-532 L 1670,-531 L 1670,-530 L 1670,-531 L 1671,-531 L 1671,-530 L 1671,-529 L 1671,-528 L 1672,-528 L 1672,-527 L 1673,-527 L 1672,-527 L 1672,-526 L 1671,-526 L 1671,-525 L 1672,-525 L 1673,-525 L 1674,-525 L 1674,-526 L 1675,-526 L 1675,-525 L 1676,-525 L 1676,-524 L 1677,-523 L 1678,-522 L 1678,-521 L 1679,-522 L 1679,-521 L 1680,-521 L 1681,-521 L 1681,-520 L 1682,-520 L 1683,-520 L 1683,-521 L 1684,-521 L 1684,-522 L 1685,-522 L 1685,-523 L 1685,-524 L 1685,-525 L 1686,-525 L 1687,-525 L 1687,-526 L 1688,-526 L 1689,-526 L 1689,-525 L 1690,-524 L 1689,-524 L 1688,-523 L 1688,-522 L 1687,-521 L 1688,-521 L 1688,-520 L 1688,-519 L 1687,-519 L 1687,-518 L 1687,-517 L 1687,-516 L 1687,-515 L 1688,-515 L 1687,-515 L 1687,-514 L 1687,-513 L 1687,-512 L 1688,-512 L 1689,-512 L 1689,-511 L 1689,-510 L 1689,-509 L 1689,-508 L 1689,-507 L 1688,-507 L 1687,-506 L 1687,-505 L 1687,-504 L 1687,-503 L 1687,-502 L 1687,-501 L 1686,-501 L 1686,-500 L 1685,-499 L 1685,-498 L 1685,-497 L 1684,-497 L 1683,-497 L 1682,-496 L 1681,-496 L 1680,-496 L 1680,-495 L 1678,-494 L 1678,-493 L 1677,-492 L 1677,-490 L 1676,-489 L 1676,-488 L 1677,-487 L 1676,-486 L 1676,-485 L 1676,-484 L 1677,-483 L 1677,-482 L 1677,-481 L 1677,-480 L 1677,-479 L 1676,-479 L 1675,-479 L 1674,-478 L 1675,-477 L 1675,-476 L 1675,-475 L 1676,-475 L 1676,-474 L 1675,-474 L 1676,-474 L 1676,-473 L 1677,-473 L 1677,-472 L 1677,-471 L 1677,-470 L 1676,-470 L 1676,-469 L 1676,-468 L 1676,-467 L 1676,-466 L 1675,-465 L 1676,-465 L 1676,-464 L 1676,-463 L 1676,-462 L 1676,-461 L 1676,-460 L 1676,-459 L 1676,-458 L 1676,-457 L 1676,-456 L 1676,-455 L 1675,-455 L 1675,-454 L 1674,-454 L 1673,-454 L 1673,-453 L 1673,-452 L 1672,-452 L 1672,-451 L 1673,-450 L 1674,-449 L 1674,-448 L 1674,-447 L 1675,-446 L 1675,-445 L 1675,-444 L 1676,-443 L 1677,-442 L 1678,-441 L 1678,-440 L 1679,-440 L 1679,-439 L 1680,-439 L 1680,-438 L 1680,-437 L 1680,-436 L 1679,-435 L 1679,-434 L 1679,-433 L 1678,-433 L 1678,-432 L 1677,-432 L 1677,-431 L 1676,-431 L 1675,-430 L 1674,-430 L 1673,-430 L 1672,-429 L 1673,-429 L 1673,-428 L 1673,-427 L 1672,-426 L 1671,-426 L 1671,-425 L 1671,-424 L 1671,-423 L 1671,-422 L 1670,-422 L 1669,-421 L 1668,-420 L 1667,-419 L 1668,-418 L 1668,-417 L 1668,-416 L 1667,-415 L 1666,-414 L 1666,-413 L 1665,-412 L 1665,-411 L 1667,-411 L 1668,-410 L 1668,-409 L 1669,-408 L 1670,-408 L 1671,-407 L 1672,-406 L 1673,-405 L 1674,-404 L 1675,-403 L 1676,-403 L 1677,-402 L 1678,-402 L 1679,-401 L 1680,-400 L 1681,-399 L 1682,-398 L 1682,-397 L 1681,-396 L 1682,-396 L 1682,-395 L 1682,-393 L 1681,-392 L 1681,-391 L 1680,-391 L 1680,-390 L 1680,-389 L 1680,-388 L 1680,-387 L 1681,-387 L 1680,-386 L 1680,-385 L 1681,-385 L 1681,-384 L 1681,-383 L 1680,-383 L 1679,-383 L 1679,-382 L 1678,-382 L 1676,-382 L 1674,-382 L 1673,-381 L 1673,-380 L 1674,-379 L 1674,-378 L 1673,-377 L 1672,-377 L 1671,-377 L 1670,-377 L 1671,-376 L 1671,-375 L 1672,-375 L 1673,-374 L 1673,-373 L 1673,-372 L 1672,-371 L 1672,-370 L 1672,-369 L 1672,-367 L 1671,-365 L 1671,-364 L 1671,-363 L 1671,-362 L 1670,-361 L 1670,-360 L 1670,-359 L 1655,-272 L 1654,-272 L 1653,-272 L 1652,-272 L 1651,-272 L 1650,-272 L 1649,-272 L 1649,-273 L 1648,-273 L 1648,-272 L 1647,-273 L 1647,-272 L 1646,-272 L 1646,-271 L 1645,-271 L 1645,-272 L 1644,-272 L 1644,-273 L 1643,-273 L 1643,-274 L 1642,-274 L 1642,-273 L 1641,-273 L 1640,-273 L 1640,-272 L 1639,-272 L 1638,-272 L 1638,-273 L 1637,-273 L 1637,-272 L 1636,-272 L 1635,-272 L 1634,-272 L 1634,-273 L 1634,-274 L 1633,-274 L 1632,-274 L 1632,-273 L 1631,-273 L 1630,-272 L 1629,-272 L 1628,-272 L 1627,-273 L 1626,-273 L 1625,-273 L 1624,-272 L 1623,-273 L 1622,-273 L 1621,-273 L 1620,-273 L 1619,-272 L 1618,-272 L 1618,-271 L 1617,-271 L 1617,-272 L 1616,-272 L 1616,-273 L 1615,-274 L 1614,-274 L 1613,-274 L 1612,-274 L 1612,-273 L 1611,-273 L 1610,-273 L 1610,-274 L 1609,-274 L 1608,-274 L 1608,-273 L 1607,-273 L 1607,-274 L 1606,-274 L 1605,-274 L 1604,-275 L 1603,-275 L 1603,-274 L 1603,-273 L 1602,-273 L 1602,-272 L 1601,-272 L 1601,-273 L 1600,-273 L 1599,-273 L 1598,-273 L 1597,-273 L 1597,-274 L 1596,-274 L 1595,-274 L 1595,-275 L 1594,-275 L 1593,-275 L 1592,-275 L 1592,-274 L 1592,-273 L 1591,-273 L 1590,-273 L 1589,-273 L 1588,-273 L 1587,-273 L 1587,-274 L 1586,-274 L 1585,-274 L 1585,-273 L 1584,-273 L 1584,-272 L 1584,-271 L 1583,-271 L 1583,-272 L 1582,-272 L 1581,-272 L 1581,-273 L 1580,-273 L 1579,-273 L 1578,-273 L 1578,-274 L 1577,-274 L 1576,-274 L 1576,-275 L 1575,-275 L 1575,-276 L 1575,-277 L 1574,-277 L 1574,-278 L 1573,-278 L 1573,-279 L 1573,-280 L 1572,-280 L 1571,-280 L 1571,-281 L 1570,-281 L 1569,-281 L 1569,-282 L 1568,-282 L 1567,-282 L 1567,-283 L 1567,-284 L 1567,-285 L 1566,-284 L 1566,-285 L 1565,-285 L 1564,-285 L 1564,-286 L 1563,-286 L 1562,-286 L 1561,-286 L 1560,-286 L 1560,-287 L 1559,-287 L 1559,-288 L 1558,-288 L 1557,-288 L 1556,-288 L 1555,-288 L 1554,-288 L 1553,-288 L 1552,-288 L 1551,-288 L 1551,-289 L 1550,-289 L 1549,-289 L 1548,-289 L 1547,-289 L 1546,-288 L 1545,-288 L 1544,-288 L 1543,-288 L 1543,-289 L 1544,-290 L 1544,-291 L 1543,-291 L 1543,-292 L 1542,-292 L 1542,-293 L 1543,-293 L 1543,-294 L 1543,-293 L 1543,-292 L 1544,-292 L 1544,-293 L 1544,-294 L 1544,-295 L 1544,-296 L 1543,-296 L 1543,-297 L 1542,-298 L 1541,-298 L 1540,-298 L 1539,-298 L 1539,-299 L 1539,-300 L 1539,-299 L 1538,-299 L 1538,-300 L 1537,-300 L 1537,-299 L 1537,-300 L 1536,-300 L 1536,-299 L 1536,-300 L 1535,-299 L 1534,-299 L 1533,-299 L 1532,-299 L 1532,-300 L 1531,-300 L 1530,-300 L 1530,-301 L 1530,-302 L 1530,-303 L 1531,-303 L 1530,-303 L 1529,-303 L 1529,-304 L 1528,-304 L 1527,-304 L 1527,-303 L 1527,-304 L 1526,-304 L 1525,-304 L 1525,-303 L 1524,-303 L 1525,-303 L 1524,-303 L 1523,-303 L 1523,-302 L 1522,-302 L 1521,-302 L 1520,-302 L 1520,-301 L 1519,-301 L 1519,-302 L 1520,-302 L 1520,-303 L 1519,-303 L 1519,-302 L 1518,-302 L 1518,-303 L 1518,-304 L 1517,-304 L 1516,-304 L 1515,-305 L 1514,-305 L 1513,-305 L 1513,-306 L 1513,-307 L 1512,-307 L 1512,-308 L 1511,-308 L 1459,-308 L 1437,-308 L 1422,-308 L 1422,-309 L 1423,-309 L 1423,-310 L 1423,-311 L 1423,-312 L 1422,-312 L 1421,-312 L 1421,-313 L 1422,-314 L 1423,-314 L 1424,-314 L 1424,-315 L 1423,-315 L 1422,-315 L 1422,-316 L 1421,-316 L 1420,-316 L 1420,-317 L 1420,-318 L 1421,-318 L 1421,-319 L 1420,-319 L 1420,-320 L 1419,-320 L 1419,-321 L 1419,-322 L 1419,-323 L 1418,-323 L 1417,-323 L 1417,-324 L 1417,-325 L 1418,-325 L 1418,-326 L 1417,-327 L 1416,-327 L 1416,-328 L 1417,-328 L 1416,-329 L 1415,-329 L 1414,-328 L 1414,-327 L 1415,-327 L 1415,-326 L 1414,-326 L 1413,-326 L 1412,-326 L 1412,-327 L 1413,-328 L 1414,-329 L 1414,-330 L 1413,-330 L 1412,-330 L 1412,-329 L 1411,-329 L 1410,-329 L 1410,-330 L 1409,-330 L 1409,-329 L 1408,-328 L 1407,-328 L 1407,-327 L 1406,-327 L 1406,-328 L 1406,-329 L 1407,-329 L 1407,-330 L 1406,-330 L 1405,-330 L 1405,-331 L 1404,-331 L 1405,-331 L 1406,-331 L 1406,-332 L 1405,-332 L 1404,-332 L 1404,-333 L 1404,-334 L 1404,-335 L 1405,-335 L 1405,-334 L 1406,-334 L 1406,-333 L 1406,-332 L 1407,-332 L 1407,-333 L 1407,-334 L 1406,-334 L 1406,-335 L 1405,-335 L 1405,-336 L 1406,-336 L 1407,-336 L 1407,-335 L 1408,-335 L 1408,-334 L 1409,-334 L 1409,-335 L 1410,-336 L 1409,-336 L 1409,-337 L 1410,-337 L 1410,-338 L 1409,-338 L 1408,-338 L 1408,-339 L 1408,-340 L 1407,-340 L 1407,-341 L 1406,-340 L 1406,-341 L 1407,-341 L 1407,-342 L 1406,-342 L 1405,-343 L 1405,-344 L 1405,-345 L 1406,-345 L 1406,-346 L 1405,-346 L 1404,-346 L 1403,-346 L 1403,-347 L 1402,-347 L 1402,-346 L 1403,-346 L 1403,-345 L 1403,-344 L 1403,-345 L 1402,-345 L 1402,-346 L 1401,-346 L 1401,-347 L 1401,-348 L 1400,-348 L 1400,-349 L 1399,-349 L 1398,-349 L 1398,-348 L 1398,-347 L 1398,-346 L 1398,-345 L 1399,-345 L 1399,-344 L 1399,-343 L 1398,-343 L 1398,-344 L 1398,-345 L 1397,-345 L 1397,-346 L 1396,-347 L 1395,-347 L 1394,-347 L 1393,-347 L 1392,-348 L 1391,-348 L 1391,-349 L 1392,-349 L 1393,-350 L 1392,-350 L 1392,-351 L 1391,-351 L 1390,-351 L 1390,-352 L 1390,-353 L 1391,-353 L 1391,-354 L 1392,-354 L 1393,-354 L 1394,-354 L 1394,-355 L 1395,-355 L 1396,-355 L 1397,-355 L 1397,-356 L 1398,-356 L 1398,-357 L 1399,-358 L 1399,-359 L 1400,-359 L 1400,-360 L 1401,-360 L 1401,-361 L 1400,-361 L 1401,-362 L 1401,-363 L 1401,-364 L 1402,-364 L 1403,-364 L 1403,-365 L 1404,-365 L 1405,-365 L 1406,-365 L 1407,-365 L 1407,-364 L 1408,-364 L 1409,-364 L 1409,-365 L 1410,-365 L 1410,-366 L 1410,-367 L 1411,-367 L 1412,-367 L 1412,-368 L 1412,-367 L 1413,-367 L 1414,-367 L 1415,-367 L 1415,-368 L 1416,-368 L 1416,-369 L 1416,-370 L 1416,-371 L 1416,-372 L 1415,-373 L 1414,-373 L 1414,-374 L 1413,-375 L 1412,-375 L 1411,-376 L 1410,-376 L 1410,-377 L 1409,-377 L 1409,-378 L 1408,-378 L 1408,-379 L 1408,-380 L 1408,-381 L 1408,-382 L 1408,-383 L 1407,-384 L 1407,-385 L 1407,-386 L 1408,-387 L 1409,-387 L 1410,-387 L 1411,-387 L 1410,-387 L 1410,-388 L 1411,-388 L 1412,-389 L 1412,-390 L 1413,-391 L 1414,-391 L 1414,-392 L 1415,-392 L 1415,-393 L 1415,-394 L 1415,-395 L 1414,-395 L 1413,-396 L 1412,-396 L 1413,-396 L 1413,-397 L 1412,-397 L 1412,-398 L 1412,-399 L 1412,-400 L 1411,-400 L 1410,-400 L 1410,-401 L 1411,-401 L 1410,-401 L 1411,-401 L 1410,-401 L 1410,-402 L 1409,-402 L 1409,-403 L 1409,-404 L 1408,-404 L 1408,-405 L 1408,-406 L 1408,-407 L 1409,-407 L 1410,-407 L 1411,-407 L 1411,-408 L 1412,-409 L 1412,-410 L 1412,-411 L 1412,-412 L 1412,-413 L 1412,-414 L 1412,-415 L 1413,-416 L 1413,-417 L 1413,-418 L 1414,-418 L 1415,-418 L 1415,-419 L 1416,-420 L 1416,-421 L 1417,-422 L 1417,-423 L 1418,-423 L 1419,-423 L 1420,-423 L 1420,-424 L 1421,-424 L 1421,-425 L 1422,-425 L 1422,-424 L 1423,-424 L 1423,-425 L 1423,-424 L 1422,-424 L 1422,-425 L 1422,-426 L 1423,-426 L 1423,-427 L 1422,-427 L 1421,-427 L 1421,-428 L 1421,-429 L 1420,-429 L 1420,-430 L 1420,-429 L 1420,-430 L 1420,-431 L 1419,-431 L 1419,-432 L 1419,-433 L 1419,-434 L 1419,-435 L 1419,-436 L 1418,-436 L 1417,-436 L 1417,-435 L 1417,-434 L 1416,-434 L 1416,-433 L 1415,-433 L 1415,-434 L 1414,-433 L 1413,-433 L 1413,-434 L 1412,-434 L 1412,-435 L 1413,-435 L 1413,-436 L 1414,-436 L 1415,-437 L 1415,-438 L 1414,-438 L 1414,-439 L 1414,-440 L 1414,-441 L 1414,-442 L 1413,-442 L 1412,-443 L 1411,-443 L 1411,-444 L 1411,-445 L 1412,-445 L 1412,-446 L 1413,-446 L 1413,-447 L 1412,-447 L 1412,-448 L 1411,-448 L 1412,-448 L 1412,-449 L 1413,-449 L 1413,-448 L 1413,-449 L 1414,-449 L 1414,-450 L 1414,-451 L 1415,-451 L 1414,-451 L 1414,-452 L 1415,-452 L 1415,-451 L 1415,-452 L 1415,-453 L 1414,-453 L 1413,-453 L 1413,-454 L 1413,-455 L 1413,-456 L 1414,-456 L 1415,-457 L 1414,-458 L 1414,-459 L 1413,-459 L 1413,-458 L 1413,-457 L 1412,-456 L 1412,-457 L 1411,-457 L 1411,-458 L 1411,-459 L 1412,-459 L 1411,-459 L 1411,-460 L 1410,-461 L 1409,-461 L 1408,-462 L 1408,-463 L 1409,-463 L 1409,-464 L 1409,-465 L 1408,-465 L 1408,-466 L 1408,-465 L 1409,-465 L 1410,-465 L 1411,-464 L 1411,-465 L 1411,-466 L 1411,-467 L 1411,-468 L 1411,-467 L 1410,-467 L 1409,-467 L 1409,-468 L 1408,-468 L 1408,-469 L 1407,-469 L 1408,-469 L 1408,-470 L 1409,-471 L 1408,-471 L 1407,-470 L 1406,-470 L 1406,-471 L 1407,-471 L 1407,-472 L 1408,-472 L 1408,-473 L 1408,-474 L 1408,-475 L 1408,-474 L 1409,-474 L 1410,-474 L 1410,-475 L 1410,-476 L 1410,-477 L 1409,-477 L 1409,-476 L 1409,-475 L 1408,-475 L 1408,-476 L 1407,-476 L 1408,-476 L 1408,-477 L 1408,-478 L 1408,-479 L 1407,-479 L 1408,-479 L 1408,-480 L 1409,-480 L 1410,-480 L 1410,-481 L 1410,-482 L 1409,-482 L 1409,-483 L 1408,-483 L 1407,-483 L 1407,-484 L 1406,-484 L 1405,-484 L 1405,-485 L 1404,-485 L 1404,-486 L 1403,-486 L 1402,-487 L 1402,-488 L 1402,-489 L 1402,-490 L 1403,-490 L 1403,-491 L 1404,-491 L 1404,-492 L 1405,-491 L 1405,-490 L 1406,-490 L 1406,-491 L 1406,-492 L 1406,-493 L 1405,-494 L 1404,-495 L 1405,-495 L 1405,-494 L 1406,-494 L 1406,-495 L 1405,-495 L 1405,-496 L 1405,-497 L 1404,-497 L 1404,-498 L 1404,-499 L 1405,-499 L 1406,-499 L 1406,-498 L 1406,-497 L 1407,-497 L 1407,-498 L 1407,-499 L 1406,-499 L 1405,-500 L 1405,-501 L 1406,-501 L 1406,-502 L 1405,-503 L 1406,-503 L 1407,-503 L 1408,-503 L 1408,-502 L 1407,-502 L 1408,-501 L 1408,-502 L 1409,-502 L 1410,-502 L 1410,-503 L 1409,-503 L 1409,-504 L 1408,-504 L 1408,-505 L 1409,-505 L 1409,-506 L 1410,-506 L 1411,-506 L 1411,-507 L 1411,-508 L 1412,-508 L 1412,-509 L 1411,-509 L 1410,-509 L 1410,-508 L 1409,-508 L 1409,-509 L 1408,-509 L 1408,-510 L 1408,-511 L 1409,-511 L 1409,-512 L 1408,-512 L 1407,-512 L 1407,-513 L 1406,-513 L 1406,-514 L 1405,-514 L 1405,-515 L 1404,-515 L 1404,-516 L 1405,-516 L 1405,-517 L 1404,-517 L 1404,-518 L 1405,-518 L 1405,-519 L 1404,-519 L 1403,-520 L 1404,-520 L 1404,-521 L 1403,-521 L 1402,-521 L 1402,-520 L 1401,-520 L 1400,-520 L 1399,-520 L 1399,-521 L 1398,-522 L 1398,-521 L 1397,-521 L 1397,-522 L 1396,-522 L 1396,-521 L 1395,-521 L 1395,-520 L 1396,-520 L 1397,-519 L 1396,-518 L 1396,-517 L 1395,-517 L 1395,-518 L 1394,-519 L 1394,-518 L 1393,-518 L 1392,-518 L 1393,-519 L 1393,-520 L 1392,-520 L 1392,-519 L 1392,-518 L 1391,-518 L 1391,-517 L 1390,-517 L 1390,-518 L 1389,-518 L 1389,-517 L 1388,-517 L 1387,-517 L 1387,-516 L 1388,-516 L 1388,-517 L 1389,-516 L 1389,-515 L 1388,-515 L 1387,-515 L 1386,-515 L 1386,-516 L 1385,-516 L 1385,-515 L 1384,-515 L 1383,-515 L 1384,-515 L 1384,-514 L 1385,-514 L 1385,-513 L 1386,-513 L 1385,-513 L 1384,-513 L 1383,-513 L 1383,-514 L 1382,-514 L 1382,-515 L 1382,-516 L 1381,-516 L 1381,-515 L 1380,-514 L 1380,-513 L 1379,-513 L 1379,-514 L 1380,-514 L 1380,-515 L 1379,-515 L 1379,-514 L 1379,-515 L 1378,-515 L 1378,-514 L 1378,-513 L 1377,-513 L 1376,-513 L 1376,-514 L 1376,-513 L 1375,-513 L 1375,-514 L 1375,-515 L 1376,-515 L 1377,-515 L 1376,-515 L 1376,-516 L 1375,-516 L 1374,-516 L 1374,-515 L 1374,-516 L 1373,-516 L 1373,-517 L 1372,-517 L 1371,-517 L 1371,-518 L 1372,-518 L 1371,-518 L 1371,-519 L 1371,-520 L 1372,-520 L 1372,-519 L 1372,-520 L 1371,-520 L 1370,-520 L 1370,-519 L 1369,-519 L 1369,-520 L 1369,-521 L 1368,-521 L 1368,-520 L 1368,-521 L 1367,-521 L 1366,-521 L 1366,-522 L 1365,-522 L 1365,-523 L 1364,-523 L 1363,-523 L 1363,-524 L 1362,-524 L 1362,-523 L 1361,-523 L 1360,-523 L 1359,-523 L 1359,-522 L 1358,-522 L 1357,-522 L 1357,-523 L 1357,-524 L 1358,-524 L 1359,-524 L 1358,-524 L 1358,-525 L 1357,-525 L 1357,-524 L 1357,-523 L 1357,-522 L 1356,-522 L 1356,-523 L 1355,-523 L 1354,-523 L 1354,-524 L 1355,-524 L 1354,-525 L 1353,-525 L 1353,-524 L 1352,-524 L 1352,-525 L 1352,-526 L 1352,-527 L 1351,-527 L 1351,-528 L 1351,-529 L 1350,-529 L 1350,-530 L 1350,-531 L 1350,-532 L 1350,-533 L 1350,-532 L 1349,-532 L 1348,-532 L 1347,-532 L 1347,-533 L 1346,-533 L 1346,-534 L 1347,-534 L 1348,-534 L 1348,-535 L 1348,-536 L 1348,-535 L 1348,-536 L 1347,-536 L 1347,-537 L 1346,-537 L 1345,-537 L 1344,-536 L 1344,-537 L 1343,-537 L 1343,-538 L 1342,-539 L 1342,-540 L 1342,-541 L 1343,-541 L 1342,-541 L 1342,-542 L 1341,-542 L 1341,-543 L 1340,-543 L 1340,-544 L 1339,-544 L 1338,-543 L 1338,-544 L 1338,-545 L 1337,-546 L 1337,-547 L 1337,-548 L 1338,-548 L 1339,-548 L 1340,-548 L 1340,-549 L 1341,-549 L 1341,-550 L 1340,-551 L 1339,-552 L 1339,-553 L 1339,-554 L 1339,-555 L 1339,-554 L 1339,-553 L 1338,-553 L 1338,-552 L 1337,-552 L 1337,-553 L 1337,-554 L 1336,-554 L 1335,-554 L 1335,-555 L 1335,-554 L 1334,-554 L 1334,-555 L 1335,-556 L 1336,-555 L 1336,-556 L 1335,-557 L 1335,-558 L 1335,-559 L 1335,-560 L 1334,-560 L 1333,-560 L 1332,-560 L 1331,-560 L 1331,-561 L 1331,-562 L 1332,-562 L 1332,-561 L 1333,-562 L 1333,-563 L 1334,-563 L 1333,-563 L 1332,-563 L 1332,-564 L 1331,-564 L 1331,-565 L 1330,-566 L 1330,-567 L 1329,-566 L 1328,-567 L 1327,-567 L 1327,-566 L 1328,-566 L 1327,-566 L 1327,-567 L 1326,-567 L 1326,-568 L 1326,-569 L 1325,-569 L 1325,-570 L 1324,-570 L 1324,-571 L 1325,-571 L 1326,-571 L 1326,-572 L 1325,-572 L 1325,-573 L 1326,-573 L 1326,-574 L 1326,-575 L 1325,-576 L 1325,-575 L 1325,-574 L 1325,-575 L 1324,-575 L 1324,-574 L 1323,-573 L 1323,-574 L 1322,-574 L 1322,-575 L 1321,-575 L 1322,-576 L 1322,-577 L 1321,-577 L 1320,-576 L 1319,-576 L 1318,-576 L 1318,-577 L 1317,-577 L 1317,-578 L 1317,-579 L 1318,-579 L 1318,-578 L 1319,-578 L 1320,-578 L 1319,-579 L 1319,-580 L 1318,-580 L 1318,-581 L 1317,-581 L 1317,-582 L 1318,-582 L 1319,-582 L 1318,-582 L 1319,-581 L 1320,-582 L 1320,-583 L 1320,-584 L 1320,-585 L 1319,-585 L 1319,-584 L 1318,-584 L 1317,-585 L 1318,-585 L 1318,-586 L 1318,-587 L 1319,-587 L 1319,-588 L 1318,-588 L 1318,-587 L 1317,-587 L 1317,-588 L 1316,-588 L 1317,-589 L 1318,-589 L 1318,-590 L 1317,-590 L 1316,-590 L 1316,-591 L 1316,-592 L 1315,-593 L 1315,-592 L 1314,-592 L 1314,-591 L 1313,-591 L 1313,-592 L 1313,-593 L 1311,-593 L 1310,-594 L 1310,-595 L 1310,-596 L 1310,-597 L 1311,-597 L 1311,-596 L 1312,-596 L 1312,-597 L 1311,-597 L 1310,-597 L 1310,-598 L 1311,-598 L 1311,-599 L 1311,-600 L 1311,-601 L 1311,-602 L 1312,-602 L 1313,-603 L 1313,-604 L 1313,-605 L 1314,-605 L 1314,-606 L 1313,-606 L 1312,-606 L 1311,-606 L 1311,-607 L 1311,-608 L 1311,-609 L 1310,-609 L 1310,-608 L 1309,-608 L 1308,-608 L 1308,-609 L 1307,-609 L 1307,-610 L 1308,-610 L 1308,-609 L 1309,-609 L 1309,-610 L 1308,-610 L 1307,-610 L 1306,-610 L 1305,-610 L 1305,-611 L 1305,-612 L 1305,-613 L 1306,-613 L 1305,-613 L 1305,-614 L 1304,-614 L 1304,-615 L 1304,-616 L 1303,-616 L 1303,-617 L 1303,-618 L 1304,-618 L 1304,-619 L 1304,-620 L 1304,-621 L 1304,-622 L 1304,-623 L 1303,-623 L 1302,-624 L 1302,-625 L 1302,-626 L 1303,-626 L 1303,-627 L 1304,-627 L 1304,-628 L 1304,-629 L 1304,-630 L 1304,-631 L 1305,-631 L 1306,-631 L 1306,-632 L 1307,-632 L 1307,-631 L 1306,-630 L 1307,-630 L 1308,-630 L 1308,-631 L 1309,-631 L 1310,-632 L 1310,-633 L 1311,-633 L 1311,-632 L 1312,-632 L 1313,-632 L 1313,-633 L 1314,-633 L 1315,-632 L 1316,-632 L 1316,-633 L 1317,-633 L 1317,-634 L 1318,-634 L 1318,-635 L 1317,-635 L 1317,-636 L 1316,-636 L 1316,-637 L 1317,-637 L 1318,-637 L 1318,-638 L 1318,-639 L 1318,-640 L 1317,-639 L 1316,-639 L 1317,-640 L 1318,-641 L 1318,-642 L 1319,-642 L 1320,-643 L 1321,-643 L 1321,-642 L 1322,-642 L 1322,-643 L 1322,-644 L 1322,-645 L 1323,-644 L 1324,-644 L 1325,-644 L 1325,-645 L 1325,-646 L 1326,-646 L 1326,-647 L 1325,-647 L 1326,-648 L 1326,-649 L 1327,-649 L 1328,-649 L 1329,-649 L 1329,-650 L 1329,-651 L 1328,-652 L 1329,-652 L 1329,-651 L 1330,-651 L 1330,-650 L 1331,-650 L 1332,-650 L 1333,-650 L 1334,-650 L 1334,-649 L 1335,-649 L 1335,-650 L 1336,-651 L 1336,-652 L 1336,-653 L 1337,-653 L 1337,-654 L 1337,-655 L 1337,-656 L 1338,-656 L 1338,-657 L 1337,-657 L 1337,-658 L 1337,-657 L 1336,-657 L 1336,-658 L 1335,-658 L 1335,-659 L 1335,-660 L 1336,-660 L 1336,-661 L 1335,-661 L 1334,-662 L 1334,-663 L 1335,-663 L 1334,-663 L 1334,-664 L 1334,-665 L 1334,-666 L 1333,-666 L 1333,-665 L 1333,-664 L 1332,-664 L 1333,-664 L 1333,-663 L 1333,-662 L 1332,-662 L 1331,-662 L 1331,-661 L 1330,-661 L 1329,-661 L 1328,-661 L 1328,-662 L 1327,-662 L 1327,-663 L 1327,-664 L 1327,-665 L 1328,-665 L 1328,-666 L 1328,-667 L 1327,-667 L 1327,-668 L 1326,-668 L 1326,-667 L 1325,-667 L 1325,-668 L 1326,-669 L 1327,-669 L 1327,-670 L 1326,-670 L 1325,-670 L 1324,-670 L 1324,-671 L 1324,-672 L 1323,-672 L 1323,-673 L 1323,-674 L 1324,-674 L 1324,-675 L 1324,-676 L 1325,-676 L 1325,-675 L 1326,-675 L 1326,-676 L 1327,-676 L 1327,-677 L 1326,-677 L 1326,-678 L 1325,-678 L 1325,-679 L 1326,-679 L 1326,-680 L 1326,-681 L 1326,-682 L 1327,-682 L 1327,-683 L 1327,-684 L 1327,-685 L 1328,-685 L 1329,-685 L 1329,-686 L 1329,-687 L 1330,-687 L 1331,-688 L 1332,-688 L 1333,-688 L 1333,-689 L 1333,-690 L 1334,-690 L 1334,-691 L 1335,-691 L 1335,-692 L 1336,-693 L 1336,-694 L 1336,-695 L 1337,-696 L 1338,-697 L 1339,-698 L 1339,-697 L 1339,-696 L 1340,-696 L 1340,-697 L 1341,-697 L 1341,-696 L 1342,-696 L 1342,-695 L 1342,-694 L 1342,-695 L 1343,-694 L 1343,-693 L 1344,-693 L 1344,-692 L 1345,-692 L 1345,-691 L 1344,-691 L 1343,-692 L 1342,-692 L 1342,-691 L 1343,-691 L 1344,-690 L 1345,-690 L 1346,-690 L 1346,-691 L 1346,-692 L 1347,-692 L 1347,-691 L 1348,-692 L 1349,-692 L 1349,-693 L 1348,-693 L 1348,-694 L 1348,-695 L 1348,-696 L 1349,-696 L 1349,-697 L 1350,-697 L 1351,-697 L 1352,-696 L 1353,-697 L 1354,-698 L 1355,-698 L 1356,-698 L 1356,-697 L 1357,-697 L 1357,-696 L 1358,-696 L 1358,-695 L 1359,-696 L 1360,-696 L 1360,-697 L 1361,-697 L 1361,-698 L 1361,-699 L 1362,-699 L 1362,-700 L 1361,-700 L 1361,-701 L 1360,-702 L 1359,-702 L 1359,-703 L 1360,-703 L 1361,-704 L 1362,-705 L 1363,-705 L 1363,-704 L 1363,-705 L 1363,-706 L 1363,-707 L 1363,-708 L 1363,-709 L 1363,-708 L 1364,-708 L 1365,-709 L 1365,-708 L 1366,-708 L 1367,-708 L 1367,-707 L 1368,-708 L 1368,-709 L 1368,-710 L 1369,-710 L 1369,-711 L 1369,-710 L 1370,-710 L 1371,-710 L 1372,-710 L 1372,-709 L 1373,-709 L 1374,-709 L 1375,-709 L 1375,-710 L 1375,-711 L 1375,-712 L 1374,-712 L 1373,-712 L 1374,-712 L 1374,-713 L 1373,-714 L 1373,-715 L 1374,-715 L 1374,-716 L 1374,-717 L 1374,-718 L 1375,-718 L 1375,-717 L 1376,-718 L 1375,-718 L 1375,-719 L 1374,-719 L 1374,-718 L 1373,-718 L 1372,-719 L 1371,-719 L 1370,-719 L 1370,-720 L 1370,-721 L 1369,-721 L 1369,-720 L 1369,-719 L 1368,-719 L 1367,-719 L 1367,-720 L 1367,-721 L 1367,-722 L 1368,-722 L 1368,-721 L 1369,-721 L 1369,-722 L 1369,-723 L 1370,-724 L 1371,-724 L 1371,-725 L 1372,-725 L 1372,-726 L 1372,-727 L 1371,-727 L 1370,-727 L 1370,-728 L 1369,-728 L 1368,-728 L 1368,-729 L 1368,-728 L 1367,-727 L 1366,-727 L 1366,-728 L 1366,-729 L 1365,-729 L 1365,-728 L 1364,-728 L 1364,-729 L 1363,-729 L 1363,-728 L 1362,-728 L 1362,-727 L 1362,-728 L 1361,-728 L 1360,-728 L 1359,-728 L 1359,-729 L 1359,-730 L 1360,-730 L 1360,-731 L 1359,-732 L 1358,-732 L 1358,-733 L 1357,-733 L 1357,-732 L 1356,-732 L 1355,-733 L 1356,-733 L 1357,-734 L 1357,-735 L 1358,-735 L 1358,-736 L 1357,-736 L 1357,-737 L 1357,-738 L 1356,-738 L 1355,-738 L 1354,-739 L 1354,-740 L 1355,-740 L 1355,-739 L 1355,-740 L 1356,-740 L 1356,-741 L 1355,-741 L 1354,-741 L 1354,-742 L 1353,-743 L 1353,-744 L 1352,-745 L 1353,-745 L 1354,-745 L 1354,-746 L 1353,-746 L 1353,-747 L 1353,-748 L 1352,-748 L 1351,-748 L 1350,-748 L 1349,-748 L 1348,-748 L 1348,-749 L 1349,-749 L 1350,-749 L 1351,-749 L 1350,-749 L 1350,-750 L 1349,-750 L 1349,-751 L 1348,-751 L 1348,-752 L 1349,-752 L 1349,-753 L 1348,-753 L 1348,-752 L 1347,-752 L 1347,-751 L 1346,-751 L 1346,-752 L 1345,-752 L 1345,-753 L 1344,-753 L 1345,-753 L 1345,-754 L 1346,-754 L 1346,-755 L 1346,-756 L 1346,-757 L 1347,-757 L 1347,-758 L 1348,-758 L 1348,-759 L 1348,-760 L 1347,-760 L 1347,-761 L 1346,-761 L 1346,-762 L 1347,-762 L 1348,-762 L 1349,-762 L 1349,-761 L 1350,-761 L 1351,-761 L 1351,-762 L 1352,-762 L 1352,-763 L 1353,-763 L 1353,-764 L 1354,-764 L 1354,-765 L 1353,-765 L 1352,-764 L 1351,-765 L 1351,-766 L 1350,-767 L 1349,-767 L 1349,-768 L 1350,-768 L 1350,-769 L 1350,-770 L 1349,-770 L 1350,-771 L 1350,-772 L 1350,-773 L 1349,-774 L 1350,-774 L 1350,-775 L 1350,-776 L 1349,-776 L 1348,-776 L 1347,-776 L 1347,-777 L 1348,-777 L 1348,-778 L 1349,-778 L 1348,-778 L 1348,-779 L 1348,-780 L 1347,-780 L 1347,-781 L 1346,-781 L 1345,-781 L 1344,-782 L 1343,-783 L 1343,-784 L 1342,-784 L 1343,-784 L 1343,-785 L 1344,-785 L 1345,-786 L 1345,-787 L 1344,-787 L 1344,-788 L 1343,-788 L 1342,-788 L 1342,-789 L 1342,-790 L 1341,-790 L 1341,-791 L 1341,-792 L 1341,-793 L 1340,-793 L 1340,-792 L 1339,-792 L 1339,-793 L 1339,-794 L 1340,-794 L 1339,-794 L 1338,-794 L 1337,-794 L 1336,-794 L 1336,-793 L 1335,-793 L 1335,-792 L 1334,-792 L 1334,-793 L 1333,-793 L 1332,-793 L 1331,-793 L 1330,-793 L 1329,-793 L 1332,-794 L 1486,-852 L 1487,-852 L 1488,-852 L 1616,-900 " /></g>
</svg>
