<?xml version="1.0" standalone="no"?><!DOCTYPE svg PUBLIC "-//W3C//DTD SVG 1.1//EN" "http://www.w3.org/Graphics/SVG/1.1/DTD/svg11.dtd"><svg xmlns="http://www.w3.org/2000/svg" viewBox="1188 -794 467 635" version = "1.1">
<g id="71501" ><path d="M 1340,-794 L 1339,-794 L 1339,-793 L 1339,-792 L 1340,-792 L 1340,-793 L 1341,-793 L 1341,-792 L 1341,-791 L 1341,-790 L 1342,-790 L 1342,-789 L 1342,-788 L 1343,-788 L 1344,-788 L 1344,-787 L 1345,-787 L 1345,-786 L 1344,-785 L 1343,-785 L 1343,-784 L 1342,-784 L 1343,-784 L 1343,-783 L 1344,-782 L 1345,-781 L 1346,-781 L 1347,-781 L 1347,-780 L 1348,-780 L 1348,-779 L 1348,-778 L 1349,-778 L 1348,-778 L 1348,-777 L 1347,-777 L 1347,-776 L 1348,-776 L 1349,-776 L 1350,-776 L 1350,-775 L 1350,-774 L 1349,-774 L 1350,-773 L 1350,-772 L 1350,-771 L 1349,-770 L 1350,-770 L 1350,-769 L 1350,-768 L 1349,-768 L 1349,-767 L 1350,-767 L 1351,-766 L 1351,-765 L 1352,-764 L 1353,-765 L 1354,-765 L 1354,-764 L 1353,-764 L 1353,-763 L 1352,-763 L 1352,-762 L 1351,-762 L 1351,-761 L 1350,-761 L 1349,-761 L 1349,-762 L 1348,-762 L 1347,-762 L 1346,-762 L 1346,-761 L 1347,-761 L 1347,-760 L 1348,-760 L 1348,-759 L 1348,-758 L 1347,-758 L 1347,-757 L 1346,-757 L 1346,-756 L 1346,-755 L 1346,-754 L 1345,-754 L 1345,-753 L 1344,-753 L 1345,-753 L 1345,-752 L 1346,-752 L 1346,-751 L 1347,-751 L 1347,-752 L 1348,-752 L 1348,-753 L 1349,-753 L 1349,-752 L 1348,-752 L 1348,-751 L 1349,-751 L 1349,-750 L 1350,-750 L 1350,-749 L 1351,-749 L 1350,-749 L 1349,-749 L 1348,-749 L 1348,-748 L 1349,-748 L 1350,-748 L 1351,-748 L 1352,-748 L 1353,-748 L 1353,-747 L 1353,-746 L 1354,-746 L 1354,-745 L 1353,-745 L 1352,-745 L 1353,-744 L 1353,-743 L 1354,-742 L 1354,-741 L 1355,-741 L 1356,-741 L 1356,-740 L 1355,-740 L 1355,-739 L 1355,-740 L 1354,-740 L 1354,-739 L 1355,-738 L 1356,-738 L 1357,-738 L 1357,-737 L 1357,-736 L 1358,-736 L 1358,-735 L 1357,-735 L 1357,-734 L 1356,-733 L 1355,-733 L 1356,-732 L 1357,-732 L 1357,-733 L 1358,-733 L 1358,-732 L 1359,-732 L 1360,-731 L 1360,-730 L 1359,-730 L 1359,-729 L 1359,-728 L 1360,-728 L 1361,-728 L 1362,-728 L 1362,-727 L 1362,-728 L 1363,-728 L 1363,-729 L 1364,-729 L 1364,-728 L 1365,-728 L 1365,-729 L 1366,-729 L 1366,-728 L 1366,-727 L 1367,-727 L 1368,-728 L 1368,-729 L 1368,-728 L 1369,-728 L 1370,-728 L 1370,-727 L 1371,-727 L 1372,-727 L 1372,-726 L 1372,-725 L 1371,-725 L 1371,-724 L 1370,-724 L 1369,-723 L 1369,-722 L 1369,-721 L 1368,-721 L 1368,-722 L 1367,-722 L 1367,-721 L 1367,-720 L 1367,-719 L 1368,-719 L 1369,-719 L 1369,-720 L 1369,-721 L 1370,-721 L 1370,-720 L 1370,-719 L 1371,-719 L 1372,-719 L 1373,-718 L 1374,-718 L 1374,-719 L 1375,-719 L 1375,-718 L 1376,-718 L 1375,-717 L 1375,-718 L 1374,-718 L 1374,-717 L 1374,-716 L 1374,-715 L 1373,-715 L 1373,-714 L 1374,-713 L 1374,-712 L 1373,-712 L 1374,-712 L 1375,-712 L 1375,-711 L 1375,-710 L 1375,-709 L 1374,-709 L 1373,-709 L 1372,-709 L 1372,-710 L 1371,-710 L 1370,-710 L 1369,-710 L 1369,-711 L 1369,-710 L 1368,-710 L 1368,-709 L 1368,-708 L 1367,-707 L 1367,-708 L 1366,-708 L 1365,-708 L 1365,-709 L 1364,-708 L 1363,-708 L 1363,-709 L 1363,-708 L 1363,-707 L 1363,-706 L 1363,-705 L 1363,-704 L 1363,-705 L 1362,-705 L 1361,-704 L 1360,-703 L 1359,-703 L 1359,-702 L 1360,-702 L 1361,-701 L 1361,-700 L 1362,-700 L 1362,-699 L 1361,-699 L 1361,-698 L 1361,-697 L 1360,-697 L 1360,-696 L 1359,-696 L 1358,-695 L 1358,-696 L 1357,-696 L 1357,-697 L 1356,-697 L 1356,-698 L 1355,-698 L 1354,-698 L 1353,-697 L 1352,-696 L 1351,-697 L 1350,-697 L 1349,-697 L 1349,-696 L 1348,-696 L 1348,-695 L 1348,-694 L 1348,-693 L 1349,-693 L 1349,-692 L 1348,-692 L 1347,-691 L 1347,-692 L 1346,-692 L 1346,-691 L 1346,-690 L 1345,-690 L 1344,-690 L 1343,-691 L 1342,-691 L 1342,-692 L 1343,-692 L 1344,-691 L 1345,-691 L 1345,-692 L 1344,-692 L 1344,-693 L 1343,-693 L 1343,-694 L 1342,-695 L 1342,-694 L 1342,-695 L 1342,-696 L 1341,-696 L 1341,-697 L 1340,-697 L 1340,-696 L 1339,-696 L 1339,-697 L 1339,-698 L 1338,-697 L 1337,-696 L 1336,-695 L 1336,-694 L 1336,-693 L 1335,-692 L 1335,-691 L 1334,-691 L 1334,-690 L 1333,-690 L 1333,-689 L 1333,-688 L 1332,-688 L 1331,-688 L 1330,-687 L 1329,-687 L 1329,-686 L 1329,-685 L 1328,-685 L 1327,-685 L 1327,-684 L 1327,-683 L 1327,-682 L 1326,-682 L 1326,-681 L 1326,-680 L 1326,-679 L 1325,-679 L 1325,-678 L 1326,-678 L 1326,-677 L 1327,-677 L 1327,-676 L 1326,-676 L 1326,-675 L 1325,-675 L 1325,-676 L 1324,-676 L 1324,-675 L 1324,-674 L 1323,-674 L 1323,-673 L 1323,-672 L 1324,-672 L 1324,-671 L 1324,-670 L 1325,-670 L 1326,-670 L 1327,-670 L 1327,-669 L 1326,-669 L 1325,-668 L 1325,-667 L 1326,-667 L 1326,-668 L 1327,-668 L 1327,-667 L 1328,-667 L 1328,-666 L 1328,-665 L 1327,-665 L 1327,-664 L 1327,-663 L 1327,-662 L 1328,-662 L 1328,-661 L 1329,-661 L 1330,-661 L 1331,-661 L 1331,-662 L 1332,-662 L 1333,-662 L 1333,-663 L 1333,-664 L 1332,-664 L 1333,-664 L 1333,-665 L 1333,-666 L 1334,-666 L 1334,-665 L 1334,-664 L 1334,-663 L 1335,-663 L 1334,-663 L 1334,-662 L 1335,-661 L 1336,-661 L 1336,-660 L 1335,-660 L 1335,-659 L 1335,-658 L 1336,-658 L 1336,-657 L 1337,-657 L 1337,-658 L 1337,-657 L 1338,-657 L 1338,-656 L 1337,-656 L 1337,-655 L 1337,-654 L 1337,-653 L 1336,-653 L 1336,-652 L 1336,-651 L 1335,-650 L 1335,-649 L 1334,-649 L 1334,-650 L 1333,-650 L 1332,-650 L 1331,-650 L 1330,-650 L 1330,-651 L 1329,-651 L 1329,-652 L 1328,-652 L 1329,-651 L 1329,-650 L 1329,-649 L 1328,-649 L 1327,-649 L 1326,-649 L 1326,-648 L 1325,-647 L 1326,-647 L 1326,-646 L 1325,-646 L 1325,-645 L 1325,-644 L 1324,-644 L 1323,-644 L 1322,-645 L 1322,-644 L 1322,-643 L 1322,-642 L 1321,-642 L 1321,-643 L 1320,-643 L 1319,-642 L 1318,-642 L 1318,-641 L 1317,-640 L 1316,-639 L 1317,-639 L 1318,-640 L 1318,-639 L 1318,-638 L 1318,-637 L 1317,-637 L 1316,-637 L 1316,-636 L 1317,-636 L 1317,-635 L 1318,-635 L 1318,-634 L 1317,-634 L 1317,-633 L 1316,-633 L 1316,-632 L 1315,-632 L 1314,-633 L 1313,-633 L 1313,-632 L 1312,-632 L 1311,-632 L 1311,-633 L 1310,-633 L 1310,-632 L 1309,-631 L 1308,-631 L 1308,-630 L 1307,-630 L 1306,-630 L 1307,-631 L 1307,-632 L 1306,-632 L 1306,-631 L 1305,-631 L 1304,-631 L 1304,-630 L 1304,-629 L 1304,-628 L 1304,-627 L 1303,-627 L 1303,-626 L 1302,-626 L 1302,-625 L 1302,-624 L 1303,-623 L 1304,-623 L 1304,-622 L 1304,-621 L 1304,-620 L 1304,-619 L 1304,-618 L 1303,-618 L 1303,-617 L 1303,-616 L 1304,-616 L 1304,-615 L 1304,-614 L 1305,-614 L 1305,-613 L 1306,-613 L 1305,-613 L 1305,-612 L 1305,-611 L 1305,-610 L 1306,-610 L 1307,-610 L 1308,-610 L 1309,-610 L 1309,-609 L 1308,-609 L 1308,-610 L 1307,-610 L 1307,-609 L 1308,-609 L 1308,-608 L 1309,-608 L 1310,-608 L 1310,-609 L 1311,-609 L 1311,-608 L 1311,-607 L 1311,-606 L 1312,-606 L 1313,-606 L 1314,-606 L 1314,-605 L 1313,-605 L 1313,-604 L 1313,-603 L 1312,-602 L 1311,-602 L 1311,-601 L 1311,-600 L 1311,-599 L 1311,-598 L 1310,-598 L 1310,-597 L 1311,-597 L 1312,-597 L 1312,-596 L 1311,-596 L 1311,-597 L 1310,-597 L 1310,-596 L 1310,-595 L 1310,-594 L 1311,-593 L 1313,-593 L 1313,-592 L 1313,-591 L 1314,-591 L 1314,-592 L 1315,-592 L 1315,-593 L 1316,-592 L 1316,-591 L 1316,-590 L 1317,-590 L 1318,-590 L 1318,-589 L 1317,-589 L 1316,-588 L 1317,-588 L 1317,-587 L 1318,-587 L 1318,-588 L 1319,-588 L 1319,-587 L 1318,-587 L 1318,-586 L 1318,-585 L 1317,-585 L 1318,-584 L 1319,-584 L 1319,-585 L 1320,-585 L 1320,-584 L 1320,-583 L 1320,-582 L 1319,-581 L 1318,-582 L 1319,-582 L 1318,-582 L 1317,-582 L 1317,-581 L 1318,-581 L 1318,-580 L 1319,-580 L 1319,-579 L 1320,-578 L 1319,-578 L 1318,-578 L 1318,-579 L 1317,-579 L 1317,-578 L 1317,-577 L 1318,-577 L 1318,-576 L 1319,-576 L 1320,-576 L 1321,-577 L 1322,-577 L 1322,-576 L 1321,-575 L 1322,-575 L 1322,-574 L 1323,-574 L 1323,-573 L 1324,-574 L 1324,-575 L 1325,-575 L 1325,-574 L 1325,-575 L 1325,-576 L 1326,-575 L 1326,-574 L 1326,-573 L 1325,-573 L 1325,-572 L 1326,-572 L 1326,-571 L 1325,-571 L 1324,-571 L 1324,-570 L 1325,-570 L 1325,-569 L 1326,-569 L 1326,-568 L 1326,-567 L 1327,-567 L 1327,-566 L 1328,-566 L 1327,-566 L 1327,-567 L 1328,-567 L 1329,-566 L 1330,-567 L 1330,-566 L 1331,-565 L 1331,-564 L 1332,-564 L 1332,-563 L 1333,-563 L 1334,-563 L 1333,-563 L 1333,-562 L 1332,-561 L 1332,-562 L 1331,-562 L 1331,-561 L 1331,-560 L 1332,-560 L 1333,-560 L 1334,-560 L 1335,-560 L 1335,-559 L 1335,-558 L 1335,-557 L 1336,-556 L 1336,-555 L 1335,-556 L 1334,-555 L 1334,-554 L 1335,-554 L 1335,-555 L 1335,-554 L 1336,-554 L 1337,-554 L 1337,-553 L 1337,-552 L 1338,-552 L 1338,-553 L 1339,-553 L 1339,-554 L 1339,-555 L 1339,-554 L 1339,-553 L 1339,-552 L 1340,-551 L 1341,-550 L 1341,-549 L 1340,-549 L 1340,-548 L 1339,-548 L 1338,-548 L 1337,-548 L 1337,-547 L 1337,-546 L 1338,-545 L 1338,-544 L 1338,-543 L 1339,-544 L 1340,-544 L 1340,-543 L 1341,-543 L 1341,-542 L 1342,-542 L 1342,-541 L 1343,-541 L 1342,-541 L 1342,-540 L 1342,-539 L 1343,-538 L 1343,-537 L 1344,-537 L 1344,-536 L 1345,-537 L 1346,-537 L 1347,-537 L 1347,-536 L 1348,-536 L 1348,-535 L 1348,-536 L 1348,-535 L 1348,-534 L 1347,-534 L 1346,-534 L 1346,-533 L 1347,-533 L 1347,-532 L 1348,-532 L 1349,-532 L 1350,-532 L 1350,-533 L 1350,-532 L 1350,-531 L 1350,-530 L 1350,-529 L 1351,-529 L 1351,-528 L 1351,-527 L 1352,-527 L 1352,-526 L 1352,-525 L 1352,-524 L 1353,-524 L 1353,-525 L 1354,-525 L 1355,-524 L 1354,-524 L 1354,-523 L 1355,-523 L 1356,-523 L 1356,-522 L 1357,-522 L 1357,-523 L 1357,-524 L 1357,-525 L 1358,-525 L 1358,-524 L 1359,-524 L 1358,-524 L 1357,-524 L 1357,-523 L 1357,-522 L 1358,-522 L 1359,-522 L 1359,-523 L 1360,-523 L 1361,-523 L 1362,-523 L 1362,-524 L 1363,-524 L 1363,-523 L 1364,-523 L 1365,-523 L 1365,-522 L 1366,-522 L 1366,-521 L 1367,-521 L 1368,-521 L 1368,-520 L 1368,-521 L 1369,-521 L 1369,-520 L 1369,-519 L 1370,-519 L 1370,-520 L 1371,-520 L 1372,-520 L 1372,-519 L 1372,-520 L 1371,-520 L 1371,-519 L 1371,-518 L 1372,-518 L 1371,-518 L 1371,-517 L 1372,-517 L 1373,-517 L 1373,-516 L 1374,-516 L 1374,-515 L 1374,-516 L 1375,-516 L 1376,-516 L 1376,-515 L 1377,-515 L 1376,-515 L 1375,-515 L 1375,-514 L 1375,-513 L 1376,-513 L 1376,-514 L 1376,-513 L 1377,-513 L 1378,-513 L 1378,-514 L 1378,-515 L 1379,-515 L 1379,-514 L 1379,-515 L 1380,-515 L 1380,-514 L 1379,-514 L 1379,-513 L 1380,-513 L 1380,-514 L 1381,-515 L 1381,-516 L 1382,-516 L 1382,-515 L 1382,-514 L 1383,-514 L 1383,-513 L 1384,-513 L 1385,-513 L 1386,-513 L 1385,-513 L 1385,-514 L 1384,-514 L 1384,-515 L 1383,-515 L 1384,-515 L 1385,-515 L 1385,-516 L 1386,-516 L 1386,-515 L 1387,-515 L 1388,-515 L 1389,-515 L 1389,-516 L 1388,-517 L 1388,-516 L 1387,-516 L 1387,-517 L 1388,-517 L 1389,-517 L 1389,-518 L 1390,-518 L 1390,-517 L 1391,-517 L 1391,-518 L 1392,-518 L 1392,-519 L 1392,-520 L 1393,-520 L 1393,-519 L 1392,-518 L 1393,-518 L 1394,-518 L 1394,-519 L 1395,-518 L 1395,-517 L 1396,-517 L 1396,-518 L 1397,-519 L 1396,-520 L 1395,-520 L 1395,-521 L 1396,-521 L 1396,-522 L 1397,-522 L 1397,-521 L 1398,-521 L 1398,-522 L 1399,-521 L 1399,-520 L 1400,-520 L 1401,-520 L 1402,-520 L 1402,-521 L 1403,-521 L 1404,-521 L 1404,-520 L 1403,-520 L 1404,-519 L 1405,-519 L 1405,-518 L 1404,-518 L 1404,-517 L 1405,-517 L 1405,-516 L 1404,-516 L 1404,-515 L 1405,-515 L 1405,-514 L 1406,-514 L 1406,-513 L 1407,-513 L 1407,-512 L 1408,-512 L 1409,-512 L 1409,-511 L 1408,-511 L 1408,-510 L 1408,-509 L 1409,-509 L 1409,-508 L 1410,-508 L 1410,-509 L 1411,-509 L 1412,-509 L 1412,-508 L 1411,-508 L 1411,-507 L 1411,-506 L 1410,-506 L 1409,-506 L 1409,-505 L 1408,-505 L 1408,-504 L 1409,-504 L 1409,-503 L 1410,-503 L 1410,-502 L 1409,-502 L 1408,-502 L 1408,-501 L 1407,-502 L 1408,-502 L 1408,-503 L 1407,-503 L 1406,-503 L 1405,-503 L 1406,-502 L 1406,-501 L 1405,-501 L 1405,-500 L 1406,-499 L 1407,-499 L 1407,-498 L 1407,-497 L 1406,-497 L 1406,-498 L 1406,-499 L 1405,-499 L 1404,-499 L 1404,-498 L 1404,-497 L 1405,-497 L 1405,-496 L 1405,-495 L 1406,-495 L 1406,-494 L 1405,-494 L 1405,-495 L 1404,-495 L 1405,-494 L 1406,-493 L 1406,-492 L 1406,-491 L 1406,-490 L 1405,-490 L 1405,-491 L 1404,-492 L 1404,-491 L 1403,-491 L 1403,-490 L 1402,-490 L 1402,-489 L 1402,-488 L 1402,-487 L 1403,-486 L 1404,-486 L 1404,-485 L 1405,-485 L 1405,-484 L 1406,-484 L 1407,-484 L 1407,-483 L 1408,-483 L 1409,-483 L 1409,-482 L 1410,-482 L 1410,-481 L 1410,-480 L 1409,-480 L 1408,-480 L 1408,-479 L 1407,-479 L 1408,-479 L 1408,-478 L 1408,-477 L 1408,-476 L 1407,-476 L 1408,-476 L 1408,-475 L 1409,-475 L 1409,-476 L 1409,-477 L 1410,-477 L 1410,-476 L 1410,-475 L 1410,-474 L 1409,-474 L 1408,-474 L 1408,-475 L 1408,-474 L 1408,-473 L 1408,-472 L 1407,-472 L 1407,-471 L 1406,-471 L 1406,-470 L 1407,-470 L 1408,-471 L 1409,-471 L 1408,-470 L 1408,-469 L 1407,-469 L 1408,-469 L 1408,-468 L 1409,-468 L 1409,-467 L 1410,-467 L 1411,-467 L 1411,-468 L 1411,-467 L 1411,-466 L 1411,-465 L 1411,-464 L 1410,-465 L 1409,-465 L 1408,-465 L 1408,-466 L 1408,-465 L 1409,-465 L 1409,-464 L 1409,-463 L 1408,-463 L 1408,-462 L 1409,-461 L 1410,-461 L 1411,-460 L 1411,-459 L 1412,-459 L 1411,-459 L 1411,-458 L 1411,-457 L 1412,-457 L 1412,-456 L 1413,-457 L 1413,-458 L 1413,-459 L 1414,-459 L 1414,-458 L 1415,-457 L 1414,-456 L 1413,-456 L 1413,-455 L 1413,-454 L 1413,-453 L 1414,-453 L 1415,-453 L 1415,-452 L 1415,-451 L 1415,-452 L 1414,-452 L 1414,-451 L 1415,-451 L 1414,-451 L 1414,-450 L 1414,-449 L 1413,-449 L 1413,-448 L 1413,-449 L 1412,-449 L 1412,-448 L 1411,-448 L 1412,-448 L 1412,-447 L 1413,-447 L 1413,-446 L 1412,-446 L 1412,-445 L 1411,-445 L 1411,-444 L 1411,-443 L 1412,-443 L 1413,-442 L 1414,-442 L 1414,-441 L 1414,-440 L 1414,-439 L 1414,-438 L 1415,-438 L 1415,-437 L 1414,-436 L 1413,-436 L 1413,-435 L 1412,-435 L 1412,-434 L 1413,-434 L 1413,-433 L 1414,-433 L 1415,-434 L 1415,-433 L 1416,-433 L 1416,-434 L 1417,-434 L 1417,-435 L 1417,-436 L 1418,-436 L 1419,-436 L 1419,-435 L 1419,-434 L 1419,-433 L 1419,-432 L 1419,-431 L 1420,-431 L 1420,-430 L 1420,-429 L 1420,-430 L 1420,-429 L 1421,-429 L 1421,-428 L 1421,-427 L 1422,-427 L 1423,-427 L 1423,-426 L 1422,-426 L 1422,-425 L 1422,-424 L 1423,-424 L 1423,-425 L 1423,-424 L 1422,-424 L 1422,-425 L 1421,-425 L 1421,-424 L 1420,-424 L 1420,-423 L 1419,-423 L 1418,-423 L 1417,-423 L 1417,-422 L 1416,-421 L 1416,-420 L 1415,-419 L 1415,-418 L 1414,-418 L 1413,-418 L 1413,-417 L 1413,-416 L 1412,-415 L 1412,-414 L 1412,-413 L 1412,-412 L 1412,-411 L 1412,-410 L 1412,-409 L 1411,-408 L 1411,-407 L 1410,-407 L 1409,-407 L 1408,-407 L 1408,-406 L 1408,-405 L 1408,-404 L 1409,-404 L 1409,-403 L 1409,-402 L 1410,-402 L 1410,-401 L 1411,-401 L 1410,-401 L 1411,-401 L 1410,-401 L 1410,-400 L 1411,-400 L 1412,-400 L 1412,-399 L 1412,-398 L 1412,-397 L 1413,-397 L 1413,-396 L 1412,-396 L 1413,-396 L 1414,-395 L 1415,-395 L 1415,-394 L 1415,-393 L 1415,-392 L 1414,-392 L 1414,-391 L 1413,-391 L 1412,-390 L 1412,-389 L 1411,-388 L 1410,-388 L 1410,-387 L 1411,-387 L 1410,-387 L 1409,-387 L 1408,-387 L 1407,-386 L 1407,-385 L 1407,-384 L 1408,-383 L 1408,-382 L 1408,-381 L 1408,-380 L 1408,-379 L 1408,-378 L 1409,-378 L 1409,-377 L 1410,-377 L 1410,-376 L 1411,-376 L 1412,-375 L 1413,-375 L 1414,-374 L 1414,-373 L 1415,-373 L 1416,-372 L 1416,-371 L 1416,-370 L 1416,-369 L 1416,-368 L 1415,-368 L 1415,-367 L 1414,-367 L 1413,-367 L 1412,-367 L 1412,-368 L 1412,-367 L 1411,-367 L 1410,-367 L 1410,-366 L 1410,-365 L 1409,-365 L 1409,-364 L 1408,-364 L 1407,-364 L 1407,-365 L 1406,-365 L 1405,-365 L 1404,-365 L 1403,-365 L 1403,-364 L 1402,-364 L 1401,-364 L 1401,-363 L 1401,-362 L 1400,-361 L 1401,-361 L 1401,-360 L 1400,-360 L 1400,-359 L 1399,-359 L 1399,-358 L 1398,-357 L 1398,-356 L 1397,-356 L 1397,-355 L 1396,-355 L 1395,-355 L 1394,-355 L 1394,-354 L 1393,-354 L 1392,-354 L 1391,-354 L 1391,-353 L 1390,-353 L 1390,-352 L 1390,-351 L 1391,-351 L 1392,-351 L 1392,-350 L 1393,-350 L 1392,-349 L 1391,-349 L 1391,-348 L 1392,-348 L 1393,-347 L 1394,-347 L 1395,-347 L 1396,-347 L 1397,-346 L 1397,-345 L 1398,-345 L 1398,-344 L 1398,-343 L 1399,-343 L 1399,-344 L 1399,-345 L 1398,-345 L 1398,-346 L 1398,-347 L 1398,-348 L 1398,-349 L 1399,-349 L 1400,-349 L 1400,-348 L 1401,-348 L 1401,-347 L 1401,-346 L 1402,-346 L 1402,-345 L 1403,-345 L 1403,-344 L 1403,-345 L 1403,-346 L 1402,-346 L 1402,-347 L 1403,-347 L 1403,-346 L 1404,-346 L 1405,-346 L 1406,-346 L 1406,-345 L 1405,-345 L 1405,-344 L 1405,-343 L 1406,-342 L 1407,-342 L 1407,-341 L 1406,-341 L 1406,-340 L 1407,-341 L 1407,-340 L 1408,-340 L 1408,-339 L 1408,-338 L 1409,-338 L 1410,-338 L 1410,-337 L 1409,-337 L 1409,-336 L 1410,-336 L 1409,-335 L 1409,-334 L 1408,-334 L 1408,-335 L 1407,-335 L 1407,-336 L 1406,-336 L 1405,-336 L 1405,-335 L 1406,-335 L 1406,-334 L 1407,-334 L 1407,-333 L 1407,-332 L 1406,-332 L 1406,-333 L 1406,-334 L 1405,-334 L 1405,-335 L 1404,-335 L 1404,-334 L 1404,-333 L 1404,-332 L 1405,-332 L 1406,-332 L 1406,-331 L 1405,-331 L 1404,-331 L 1405,-331 L 1405,-330 L 1406,-330 L 1407,-330 L 1407,-329 L 1406,-329 L 1406,-328 L 1406,-327 L 1407,-327 L 1407,-328 L 1408,-328 L 1409,-329 L 1409,-330 L 1410,-330 L 1410,-329 L 1411,-329 L 1412,-329 L 1412,-330 L 1413,-330 L 1414,-330 L 1414,-329 L 1413,-328 L 1412,-327 L 1412,-326 L 1413,-326 L 1414,-326 L 1415,-326 L 1415,-327 L 1414,-327 L 1414,-328 L 1415,-329 L 1416,-329 L 1417,-328 L 1416,-328 L 1416,-327 L 1417,-327 L 1418,-326 L 1418,-325 L 1417,-325 L 1417,-324 L 1417,-323 L 1418,-323 L 1419,-323 L 1419,-322 L 1419,-321 L 1419,-320 L 1420,-320 L 1420,-319 L 1421,-319 L 1421,-318 L 1420,-318 L 1420,-317 L 1420,-316 L 1421,-316 L 1422,-316 L 1422,-315 L 1423,-315 L 1424,-315 L 1424,-314 L 1423,-314 L 1422,-314 L 1421,-313 L 1421,-312 L 1422,-312 L 1423,-312 L 1423,-311 L 1423,-310 L 1423,-309 L 1422,-309 L 1422,-308 L 1437,-308 L 1459,-308 L 1511,-308 L 1512,-308 L 1512,-307 L 1513,-307 L 1513,-306 L 1513,-305 L 1514,-305 L 1515,-305 L 1516,-304 L 1517,-304 L 1518,-304 L 1518,-303 L 1518,-302 L 1519,-302 L 1519,-303 L 1520,-303 L 1520,-302 L 1519,-302 L 1519,-301 L 1520,-301 L 1520,-302 L 1521,-302 L 1522,-302 L 1523,-302 L 1523,-303 L 1524,-303 L 1525,-303 L 1524,-303 L 1525,-303 L 1525,-304 L 1526,-304 L 1527,-304 L 1527,-303 L 1527,-304 L 1528,-304 L 1529,-304 L 1529,-303 L 1530,-303 L 1531,-303 L 1530,-303 L 1530,-302 L 1530,-301 L 1530,-300 L 1531,-300 L 1532,-300 L 1532,-299 L 1533,-299 L 1534,-299 L 1535,-299 L 1536,-300 L 1536,-299 L 1536,-300 L 1537,-300 L 1537,-299 L 1537,-300 L 1538,-300 L 1538,-299 L 1539,-299 L 1539,-300 L 1539,-299 L 1539,-298 L 1540,-298 L 1541,-298 L 1542,-298 L 1543,-297 L 1543,-296 L 1544,-296 L 1544,-295 L 1544,-294 L 1544,-293 L 1544,-292 L 1543,-292 L 1543,-293 L 1543,-294 L 1543,-293 L 1542,-293 L 1542,-292 L 1543,-292 L 1543,-291 L 1544,-291 L 1544,-290 L 1543,-289 L 1543,-288 L 1544,-288 L 1545,-288 L 1546,-288 L 1547,-289 L 1548,-289 L 1549,-289 L 1550,-289 L 1551,-289 L 1551,-288 L 1552,-288 L 1553,-288 L 1554,-288 L 1555,-288 L 1556,-288 L 1557,-288 L 1558,-288 L 1559,-288 L 1559,-287 L 1560,-287 L 1560,-286 L 1561,-286 L 1562,-286 L 1563,-286 L 1564,-286 L 1564,-285 L 1565,-285 L 1566,-285 L 1566,-284 L 1567,-285 L 1567,-284 L 1567,-283 L 1567,-282 L 1568,-282 L 1569,-282 L 1569,-281 L 1570,-281 L 1571,-281 L 1571,-280 L 1572,-280 L 1573,-280 L 1573,-279 L 1573,-278 L 1574,-278 L 1574,-277 L 1575,-277 L 1575,-276 L 1575,-275 L 1576,-275 L 1576,-274 L 1577,-274 L 1578,-274 L 1578,-273 L 1579,-273 L 1580,-273 L 1581,-273 L 1581,-272 L 1582,-272 L 1583,-272 L 1583,-271 L 1584,-271 L 1584,-272 L 1584,-273 L 1585,-273 L 1585,-274 L 1586,-274 L 1587,-274 L 1587,-273 L 1588,-273 L 1589,-273 L 1590,-273 L 1591,-273 L 1592,-273 L 1592,-274 L 1592,-275 L 1593,-275 L 1594,-275 L 1595,-275 L 1595,-274 L 1596,-274 L 1597,-274 L 1597,-273 L 1598,-273 L 1599,-273 L 1600,-273 L 1601,-273 L 1601,-272 L 1602,-272 L 1602,-273 L 1603,-273 L 1603,-274 L 1603,-275 L 1604,-275 L 1605,-274 L 1606,-274 L 1607,-274 L 1607,-273 L 1608,-273 L 1608,-274 L 1609,-274 L 1610,-274 L 1610,-273 L 1611,-273 L 1612,-273 L 1612,-274 L 1613,-274 L 1614,-274 L 1615,-274 L 1616,-273 L 1616,-272 L 1617,-272 L 1617,-271 L 1618,-271 L 1618,-272 L 1619,-272 L 1620,-273 L 1621,-273 L 1622,-273 L 1623,-273 L 1624,-272 L 1625,-273 L 1626,-273 L 1627,-273 L 1628,-272 L 1629,-272 L 1630,-272 L 1631,-273 L 1632,-273 L 1632,-274 L 1633,-274 L 1634,-274 L 1634,-273 L 1634,-272 L 1635,-272 L 1636,-272 L 1637,-272 L 1637,-273 L 1638,-273 L 1638,-272 L 1639,-272 L 1640,-272 L 1640,-273 L 1641,-273 L 1642,-273 L 1642,-274 L 1643,-274 L 1643,-273 L 1644,-273 L 1644,-272 L 1645,-272 L 1645,-271 L 1646,-271 L 1646,-272 L 1647,-272 L 1647,-273 L 1648,-272 L 1648,-273 L 1649,-273 L 1649,-272 L 1650,-272 L 1651,-272 L 1652,-272 L 1653,-272 L 1654,-272 L 1655,-272 L 1638,-159 L 1636,-162 L 1625,-169 L 1620,-172 L 1611,-175 L 1609,-177 L 1609,-178 L 1608,-178 L 1607,-179 L 1607,-180 L 1606,-180 L 1605,-180 L 1604,-179 L 1603,-180 L 1603,-181 L 1602,-181 L 1602,-180 L 1601,-180 L 1601,-181 L 1600,-181 L 1599,-181 L 1599,-182 L 1598,-182 L 1598,-183 L 1597,-183 L 1596,-184 L 1595,-184 L 1594,-184 L 1594,-185 L 1593,-185 L 1592,-185 L 1591,-185 L 1590,-184 L 1589,-184 L 1588,-184 L 1587,-184 L 1586,-183 L 1585,-183 L 1584,-182 L 1584,-181 L 1584,-180 L 1583,-180 L 1582,-179 L 1581,-179 L 1581,-178 L 1581,-177 L 1580,-177 L 1579,-177 L 1578,-177 L 1578,-178 L 1577,-178 L 1577,-179 L 1576,-179 L 1576,-180 L 1575,-180 L 1574,-180 L 1573,-180 L 1573,-181 L 1572,-182 L 1573,-182 L 1572,-183 L 1571,-183 L 1570,-183 L 1570,-182 L 1569,-182 L 1568,-182 L 1567,-182 L 1566,-182 L 1565,-182 L 1565,-181 L 1564,-181 L 1563,-181 L 1563,-182 L 1563,-181 L 1562,-181 L 1561,-181 L 1561,-182 L 1560,-182 L 1559,-182 L 1558,-182 L 1557,-182 L 1556,-182 L 1555,-182 L 1555,-183 L 1554,-183 L 1554,-184 L 1553,-184 L 1552,-184 L 1552,-185 L 1551,-185 L 1550,-185 L 1549,-185 L 1549,-184 L 1548,-184 L 1547,-184 L 1546,-184 L 1545,-183 L 1544,-183 L 1543,-183 L 1542,-183 L 1541,-182 L 1540,-182 L 1539,-182 L 1538,-182 L 1537,-182 L 1536,-182 L 1535,-182 L 1534,-182 L 1532,-183 L 1531,-183 L 1530,-183 L 1529,-183 L 1528,-183 L 1527,-183 L 1526,-183 L 1524,-182 L 1523,-183 L 1522,-183 L 1521,-183 L 1520,-183 L 1519,-183 L 1518,-183 L 1517,-183 L 1516,-183 L 1516,-182 L 1515,-182 L 1514,-182 L 1513,-183 L 1513,-184 L 1512,-185 L 1511,-185 L 1510,-186 L 1510,-187 L 1509,-187 L 1508,-187 L 1508,-188 L 1507,-188 L 1507,-187 L 1507,-186 L 1507,-185 L 1506,-184 L 1505,-184 L 1505,-183 L 1504,-183 L 1503,-183 L 1501,-185 L 1496,-187 L 1495,-188 L 1494,-187 L 1493,-187 L 1492,-187 L 1491,-187 L 1491,-186 L 1491,-185 L 1491,-184 L 1490,-184 L 1489,-184 L 1489,-185 L 1488,-185 L 1487,-186 L 1486,-186 L 1486,-187 L 1485,-187 L 1484,-187 L 1484,-188 L 1483,-188 L 1482,-189 L 1482,-188 L 1481,-188 L 1480,-187 L 1479,-187 L 1479,-186 L 1479,-187 L 1478,-187 L 1478,-188 L 1477,-188 L 1477,-189 L 1476,-189 L 1476,-190 L 1475,-190 L 1476,-190 L 1476,-191 L 1475,-191 L 1474,-191 L 1473,-191 L 1473,-192 L 1473,-193 L 1473,-194 L 1472,-194 L 1472,-195 L 1471,-196 L 1470,-196 L 1468,-197 L 1465,-198 L 1464,-199 L 1463,-200 L 1462,-200 L 1462,-201 L 1442,-204 L 1441,-204 L 1441,-205 L 1440,-205 L 1439,-205 L 1438,-205 L 1438,-206 L 1437,-206 L 1436,-206 L 1436,-207 L 1435,-207 L 1434,-207 L 1433,-207 L 1433,-208 L 1432,-208 L 1432,-209 L 1433,-209 L 1434,-209 L 1435,-210 L 1434,-210 L 1433,-210 L 1432,-210 L 1432,-211 L 1432,-212 L 1433,-211 L 1433,-212 L 1432,-212 L 1432,-213 L 1431,-213 L 1430,-213 L 1429,-213 L 1428,-213 L 1427,-212 L 1426,-212 L 1426,-211 L 1425,-211 L 1424,-211 L 1424,-212 L 1424,-213 L 1425,-213 L 1425,-214 L 1424,-214 L 1423,-214 L 1423,-215 L 1424,-216 L 1423,-216 L 1423,-217 L 1422,-217 L 1422,-218 L 1421,-218 L 1421,-217 L 1420,-217 L 1419,-217 L 1419,-218 L 1420,-218 L 1420,-219 L 1421,-219 L 1421,-220 L 1422,-220 L 1422,-221 L 1421,-221 L 1421,-222 L 1420,-222 L 1419,-222 L 1419,-221 L 1418,-221 L 1418,-222 L 1418,-223 L 1417,-223 L 1416,-223 L 1416,-224 L 1417,-224 L 1417,-225 L 1417,-226 L 1416,-226 L 1415,-226 L 1414,-226 L 1413,-226 L 1413,-227 L 1413,-228 L 1414,-228 L 1414,-227 L 1415,-227 L 1415,-228 L 1416,-228 L 1416,-229 L 1416,-230 L 1417,-230 L 1417,-231 L 1417,-232 L 1416,-233 L 1416,-234 L 1415,-234 L 1415,-235 L 1416,-235 L 1417,-235 L 1417,-234 L 1418,-234 L 1419,-234 L 1420,-234 L 1420,-235 L 1420,-236 L 1419,-236 L 1419,-237 L 1420,-238 L 1420,-239 L 1419,-239 L 1418,-239 L 1418,-240 L 1417,-240 L 1417,-239 L 1417,-240 L 1416,-240 L 1415,-240 L 1415,-241 L 1415,-242 L 1416,-242 L 1417,-242 L 1417,-243 L 1418,-243 L 1419,-243 L 1418,-243 L 1418,-244 L 1417,-244 L 1416,-244 L 1416,-245 L 1415,-245 L 1415,-244 L 1415,-243 L 1414,-243 L 1413,-243 L 1413,-242 L 1413,-243 L 1412,-244 L 1412,-245 L 1412,-246 L 1411,-246 L 1411,-247 L 1412,-247 L 1413,-247 L 1414,-247 L 1414,-246 L 1415,-246 L 1415,-247 L 1415,-248 L 1414,-248 L 1413,-248 L 1412,-248 L 1411,-248 L 1411,-249 L 1411,-250 L 1412,-250 L 1412,-251 L 1412,-252 L 1413,-252 L 1413,-251 L 1414,-251 L 1415,-251 L 1415,-252 L 1416,-252 L 1416,-253 L 1415,-253 L 1415,-254 L 1414,-255 L 1413,-256 L 1412,-256 L 1412,-257 L 1411,-257 L 1410,-257 L 1409,-256 L 1409,-255 L 1410,-255 L 1409,-255 L 1409,-254 L 1409,-255 L 1408,-255 L 1407,-255 L 1406,-255 L 1406,-256 L 1405,-256 L 1406,-255 L 1405,-255 L 1404,-255 L 1405,-255 L 1405,-256 L 1404,-256 L 1403,-256 L 1404,-256 L 1403,-256 L 1403,-257 L 1403,-258 L 1402,-258 L 1402,-257 L 1402,-256 L 1401,-256 L 1401,-255 L 1402,-255 L 1402,-254 L 1403,-254 L 1403,-253 L 1402,-253 L 1401,-253 L 1400,-254 L 1399,-255 L 1399,-256 L 1399,-257 L 1399,-258 L 1398,-258 L 1398,-259 L 1397,-259 L 1396,-258 L 1396,-257 L 1396,-256 L 1396,-255 L 1395,-255 L 1395,-256 L 1395,-257 L 1396,-257 L 1396,-258 L 1396,-259 L 1397,-260 L 1396,-260 L 1396,-261 L 1396,-260 L 1395,-260 L 1394,-260 L 1393,-260 L 1393,-259 L 1392,-259 L 1392,-258 L 1392,-257 L 1391,-257 L 1391,-258 L 1390,-258 L 1390,-259 L 1389,-260 L 1389,-261 L 1388,-261 L 1388,-262 L 1387,-262 L 1387,-263 L 1386,-263 L 1386,-264 L 1387,-264 L 1387,-265 L 1387,-266 L 1388,-266 L 1387,-266 L 1387,-267 L 1386,-267 L 1387,-267 L 1387,-268 L 1388,-268 L 1387,-269 L 1387,-268 L 1386,-269 L 1385,-270 L 1384,-270 L 1383,-270 L 1383,-269 L 1382,-269 L 1381,-269 L 1380,-269 L 1379,-269 L 1379,-270 L 1380,-270 L 1380,-271 L 1380,-272 L 1381,-272 L 1382,-272 L 1382,-271 L 1383,-271 L 1383,-272 L 1382,-272 L 1382,-273 L 1381,-274 L 1380,-274 L 1379,-274 L 1378,-273 L 1378,-272 L 1378,-271 L 1378,-270 L 1377,-270 L 1377,-271 L 1376,-271 L 1375,-272 L 1374,-272 L 1373,-273 L 1373,-274 L 1373,-275 L 1374,-275 L 1375,-275 L 1375,-276 L 1374,-276 L 1374,-277 L 1373,-277 L 1373,-278 L 1373,-279 L 1373,-280 L 1372,-280 L 1372,-279 L 1371,-279 L 1370,-279 L 1369,-279 L 1368,-279 L 1368,-280 L 1368,-281 L 1368,-282 L 1369,-282 L 1370,-281 L 1371,-281 L 1371,-282 L 1371,-283 L 1370,-283 L 1369,-283 L 1369,-284 L 1369,-285 L 1370,-285 L 1371,-285 L 1372,-285 L 1372,-286 L 1371,-286 L 1371,-287 L 1370,-287 L 1370,-288 L 1369,-288 L 1370,-288 L 1370,-289 L 1369,-290 L 1369,-291 L 1369,-292 L 1370,-292 L 1371,-292 L 1371,-291 L 1372,-290 L 1373,-291 L 1373,-292 L 1372,-292 L 1372,-293 L 1371,-293 L 1370,-293 L 1370,-294 L 1370,-295 L 1369,-295 L 1369,-294 L 1369,-295 L 1368,-295 L 1367,-296 L 1368,-296 L 1369,-296 L 1370,-296 L 1370,-295 L 1371,-295 L 1371,-296 L 1371,-297 L 1370,-297 L 1370,-298 L 1369,-298 L 1369,-299 L 1370,-300 L 1371,-300 L 1372,-300 L 1373,-300 L 1373,-301 L 1372,-301 L 1372,-302 L 1372,-301 L 1371,-302 L 1370,-302 L 1370,-301 L 1369,-301 L 1369,-300 L 1368,-300 L 1368,-301 L 1369,-302 L 1370,-303 L 1371,-303 L 1372,-303 L 1372,-304 L 1373,-304 L 1373,-305 L 1372,-305 L 1371,-306 L 1370,-306 L 1369,-305 L 1369,-306 L 1370,-306 L 1371,-307 L 1371,-308 L 1370,-308 L 1369,-309 L 1368,-309 L 1368,-310 L 1368,-309 L 1368,-308 L 1367,-308 L 1366,-308 L 1365,-308 L 1364,-308 L 1363,-308 L 1363,-309 L 1364,-309 L 1364,-310 L 1364,-311 L 1363,-311 L 1362,-311 L 1362,-312 L 1361,-312 L 1361,-311 L 1360,-311 L 1360,-310 L 1359,-310 L 1359,-311 L 1359,-312 L 1359,-313 L 1358,-313 L 1359,-313 L 1359,-314 L 1358,-314 L 1358,-315 L 1358,-316 L 1357,-316 L 1356,-315 L 1355,-315 L 1355,-316 L 1356,-317 L 1357,-317 L 1357,-318 L 1358,-318 L 1358,-319 L 1357,-319 L 1357,-320 L 1356,-320 L 1356,-321 L 1355,-322 L 1355,-321 L 1354,-321 L 1354,-320 L 1353,-320 L 1353,-319 L 1352,-319 L 1352,-320 L 1352,-321 L 1352,-322 L 1353,-322 L 1352,-323 L 1351,-323 L 1350,-323 L 1350,-324 L 1351,-324 L 1351,-325 L 1352,-326 L 1351,-326 L 1350,-326 L 1349,-326 L 1349,-327 L 1348,-328 L 1347,-328 L 1347,-327 L 1346,-328 L 1346,-329 L 1345,-329 L 1345,-330 L 1345,-331 L 1345,-332 L 1345,-333 L 1345,-334 L 1344,-334 L 1343,-334 L 1342,-334 L 1341,-334 L 1341,-335 L 1341,-336 L 1341,-337 L 1340,-337 L 1340,-336 L 1339,-336 L 1339,-335 L 1338,-335 L 1338,-334 L 1337,-334 L 1337,-333 L 1336,-333 L 1336,-334 L 1336,-335 L 1336,-336 L 1336,-337 L 1335,-337 L 1335,-338 L 1334,-338 L 1333,-338 L 1332,-338 L 1332,-337 L 1331,-337 L 1331,-336 L 1332,-336 L 1332,-335 L 1331,-335 L 1330,-335 L 1329,-335 L 1328,-335 L 1328,-336 L 1327,-336 L 1327,-335 L 1326,-334 L 1327,-333 L 1326,-333 L 1325,-333 L 1324,-333 L 1324,-334 L 1323,-334 L 1322,-335 L 1323,-335 L 1323,-336 L 1324,-337 L 1325,-337 L 1325,-338 L 1324,-338 L 1323,-338 L 1323,-339 L 1322,-339 L 1321,-339 L 1321,-340 L 1321,-341 L 1320,-341 L 1320,-342 L 1320,-343 L 1321,-343 L 1322,-343 L 1321,-344 L 1320,-344 L 1319,-344 L 1318,-345 L 1317,-345 L 1316,-346 L 1316,-345 L 1316,-344 L 1316,-343 L 1315,-343 L 1314,-343 L 1314,-344 L 1313,-343 L 1313,-344 L 1312,-344 L 1311,-344 L 1310,-345 L 1309,-345 L 1309,-344 L 1308,-344 L 1308,-343 L 1307,-343 L 1306,-343 L 1306,-344 L 1305,-344 L 1305,-345 L 1305,-346 L 1305,-347 L 1304,-347 L 1303,-347 L 1303,-346 L 1302,-346 L 1302,-347 L 1301,-347 L 1301,-348 L 1302,-348 L 1302,-349 L 1303,-349 L 1304,-349 L 1305,-349 L 1304,-349 L 1304,-350 L 1304,-351 L 1304,-352 L 1303,-352 L 1302,-352 L 1301,-352 L 1300,-352 L 1300,-353 L 1300,-354 L 1301,-354 L 1301,-355 L 1300,-355 L 1300,-356 L 1299,-356 L 1299,-357 L 1300,-357 L 1301,-357 L 1301,-358 L 1300,-358 L 1299,-358 L 1299,-359 L 1298,-359 L 1297,-359 L 1297,-360 L 1296,-360 L 1296,-361 L 1297,-361 L 1297,-360 L 1298,-360 L 1298,-361 L 1298,-362 L 1297,-362 L 1296,-362 L 1296,-363 L 1295,-363 L 1295,-362 L 1294,-362 L 1294,-361 L 1293,-361 L 1292,-362 L 1292,-363 L 1292,-364 L 1292,-365 L 1291,-365 L 1291,-364 L 1290,-364 L 1290,-363 L 1290,-362 L 1289,-361 L 1289,-362 L 1289,-363 L 1288,-363 L 1288,-364 L 1287,-364 L 1286,-364 L 1285,-363 L 1285,-362 L 1285,-361 L 1284,-362 L 1284,-363 L 1284,-364 L 1285,-365 L 1285,-366 L 1286,-366 L 1286,-367 L 1287,-367 L 1287,-368 L 1286,-368 L 1286,-369 L 1285,-369 L 1285,-370 L 1284,-371 L 1285,-371 L 1285,-372 L 1285,-373 L 1285,-374 L 1285,-375 L 1286,-375 L 1286,-376 L 1286,-377 L 1285,-377 L 1285,-378 L 1286,-378 L 1287,-378 L 1287,-377 L 1288,-377 L 1288,-376 L 1288,-377 L 1288,-378 L 1288,-379 L 1287,-379 L 1287,-380 L 1286,-380 L 1286,-381 L 1285,-381 L 1285,-382 L 1286,-382 L 1287,-382 L 1288,-383 L 1289,-383 L 1289,-384 L 1288,-384 L 1288,-385 L 1287,-385 L 1286,-385 L 1285,-385 L 1285,-386 L 1286,-386 L 1286,-387 L 1287,-387 L 1287,-388 L 1288,-388 L 1289,-389 L 1289,-390 L 1288,-390 L 1287,-390 L 1287,-391 L 1286,-391 L 1285,-392 L 1284,-392 L 1283,-392 L 1284,-392 L 1284,-391 L 1283,-390 L 1283,-391 L 1283,-392 L 1283,-393 L 1283,-394 L 1282,-394 L 1282,-395 L 1281,-394 L 1280,-393 L 1279,-393 L 1279,-392 L 1278,-392 L 1278,-393 L 1278,-394 L 1277,-394 L 1278,-394 L 1278,-395 L 1277,-396 L 1277,-397 L 1276,-397 L 1276,-398 L 1276,-399 L 1275,-399 L 1275,-400 L 1274,-400 L 1273,-400 L 1273,-401 L 1274,-401 L 1274,-402 L 1273,-402 L 1273,-403 L 1272,-403 L 1272,-404 L 1272,-405 L 1271,-405 L 1271,-404 L 1270,-404 L 1270,-403 L 1270,-402 L 1270,-401 L 1271,-400 L 1271,-399 L 1270,-399 L 1270,-400 L 1269,-400 L 1268,-400 L 1267,-401 L 1267,-402 L 1268,-403 L 1268,-404 L 1267,-404 L 1267,-403 L 1266,-403 L 1266,-402 L 1266,-401 L 1265,-400 L 1266,-400 L 1266,-399 L 1265,-399 L 1265,-398 L 1264,-398 L 1264,-399 L 1264,-400 L 1264,-401 L 1264,-402 L 1264,-403 L 1263,-404 L 1262,-404 L 1262,-405 L 1261,-405 L 1260,-405 L 1260,-404 L 1260,-405 L 1260,-406 L 1260,-407 L 1260,-408 L 1261,-408 L 1261,-409 L 1260,-409 L 1260,-410 L 1259,-410 L 1259,-409 L 1258,-409 L 1258,-410 L 1257,-410 L 1256,-410 L 1255,-410 L 1254,-410 L 1254,-409 L 1253,-409 L 1253,-410 L 1252,-410 L 1252,-411 L 1252,-412 L 1251,-412 L 1251,-413 L 1250,-413 L 1250,-414 L 1250,-415 L 1249,-415 L 1249,-416 L 1250,-416 L 1251,-417 L 1251,-418 L 1252,-418 L 1253,-418 L 1253,-419 L 1254,-420 L 1255,-420 L 1255,-421 L 1254,-421 L 1253,-421 L 1253,-420 L 1252,-420 L 1252,-421 L 1252,-422 L 1253,-422 L 1253,-423 L 1254,-423 L 1254,-422 L 1255,-422 L 1256,-422 L 1256,-421 L 1257,-421 L 1257,-422 L 1257,-423 L 1257,-424 L 1256,-424 L 1256,-425 L 1256,-426 L 1255,-426 L 1255,-425 L 1254,-426 L 1253,-427 L 1252,-427 L 1251,-427 L 1251,-428 L 1252,-428 L 1252,-429 L 1251,-429 L 1250,-429 L 1250,-430 L 1249,-430 L 1248,-431 L 1249,-432 L 1249,-433 L 1248,-433 L 1247,-433 L 1246,-433 L 1246,-434 L 1245,-434 L 1244,-434 L 1243,-434 L 1242,-435 L 1241,-435 L 1241,-436 L 1240,-436 L 1240,-437 L 1241,-437 L 1242,-437 L 1243,-437 L 1243,-438 L 1242,-438 L 1241,-438 L 1240,-438 L 1240,-439 L 1239,-439 L 1239,-438 L 1238,-438 L 1237,-438 L 1237,-439 L 1237,-440 L 1237,-441 L 1236,-441 L 1236,-442 L 1236,-443 L 1237,-443 L 1238,-443 L 1237,-443 L 1237,-444 L 1236,-444 L 1236,-445 L 1236,-446 L 1237,-446 L 1238,-446 L 1238,-447 L 1237,-447 L 1237,-448 L 1236,-448 L 1235,-447 L 1234,-447 L 1234,-448 L 1234,-449 L 1234,-450 L 1233,-450 L 1233,-451 L 1232,-451 L 1232,-452 L 1232,-453 L 1231,-453 L 1230,-454 L 1230,-455 L 1229,-455 L 1229,-456 L 1230,-456 L 1230,-457 L 1231,-457 L 1231,-458 L 1231,-459 L 1230,-459 L 1230,-460 L 1230,-461 L 1230,-462 L 1231,-462 L 1231,-463 L 1230,-463 L 1230,-464 L 1230,-465 L 1230,-466 L 1231,-466 L 1230,-466 L 1230,-467 L 1229,-467 L 1229,-466 L 1228,-466 L 1228,-465 L 1227,-465 L 1227,-466 L 1228,-467 L 1228,-468 L 1228,-469 L 1227,-469 L 1226,-469 L 1226,-468 L 1225,-468 L 1224,-468 L 1225,-468 L 1225,-469 L 1225,-470 L 1225,-471 L 1226,-471 L 1227,-471 L 1227,-470 L 1227,-471 L 1227,-472 L 1226,-472 L 1226,-473 L 1226,-474 L 1227,-474 L 1228,-475 L 1228,-476 L 1227,-476 L 1227,-477 L 1226,-477 L 1226,-478 L 1227,-479 L 1228,-479 L 1228,-480 L 1229,-480 L 1229,-481 L 1228,-481 L 1227,-481 L 1227,-482 L 1226,-482 L 1225,-482 L 1224,-482 L 1224,-483 L 1223,-483 L 1222,-483 L 1221,-483 L 1220,-483 L 1220,-484 L 1220,-485 L 1220,-486 L 1219,-486 L 1219,-487 L 1219,-488 L 1218,-488 L 1218,-487 L 1218,-486 L 1217,-486 L 1216,-486 L 1216,-487 L 1216,-488 L 1217,-488 L 1217,-489 L 1218,-489 L 1218,-490 L 1217,-490 L 1217,-491 L 1218,-491 L 1219,-491 L 1219,-490 L 1220,-490 L 1220,-491 L 1220,-492 L 1220,-493 L 1219,-492 L 1218,-493 L 1219,-493 L 1219,-494 L 1219,-495 L 1218,-496 L 1218,-497 L 1217,-498 L 1216,-498 L 1215,-498 L 1215,-499 L 1214,-499 L 1214,-500 L 1215,-500 L 1214,-501 L 1213,-500 L 1212,-501 L 1212,-502 L 1211,-502 L 1211,-501 L 1210,-501 L 1209,-501 L 1209,-502 L 1209,-503 L 1208,-503 L 1207,-503 L 1207,-502 L 1206,-502 L 1206,-501 L 1205,-501 L 1204,-501 L 1204,-500 L 1203,-500 L 1203,-501 L 1203,-502 L 1202,-502 L 1202,-503 L 1201,-503 L 1200,-503 L 1200,-504 L 1201,-504 L 1201,-505 L 1202,-505 L 1202,-506 L 1202,-507 L 1201,-507 L 1201,-508 L 1202,-508 L 1202,-509 L 1201,-509 L 1200,-509 L 1200,-510 L 1201,-510 L 1201,-511 L 1201,-512 L 1200,-512 L 1200,-513 L 1201,-513 L 1201,-514 L 1201,-515 L 1201,-516 L 1201,-517 L 1200,-517 L 1200,-518 L 1200,-519 L 1201,-519 L 1201,-520 L 1200,-521 L 1200,-522 L 1199,-522 L 1198,-522 L 1197,-523 L 1198,-523 L 1198,-524 L 1198,-525 L 1199,-525 L 1199,-526 L 1198,-526 L 1198,-527 L 1197,-527 L 1197,-528 L 1196,-528 L 1195,-529 L 1195,-530 L 1196,-530 L 1197,-530 L 1197,-531 L 1197,-532 L 1196,-532 L 1196,-533 L 1196,-534 L 1195,-534 L 1194,-533 L 1193,-534 L 1194,-534 L 1194,-535 L 1194,-536 L 1195,-536 L 1196,-536 L 1196,-537 L 1197,-537 L 1198,-538 L 1199,-538 L 1201,-539 L 1202,-540 L 1202,-541 L 1203,-541 L 1203,-542 L 1204,-542 L 1204,-543 L 1205,-543 L 1205,-544 L 1206,-544 L 1207,-545 L 1208,-545 L 1209,-546 L 1208,-546 L 1208,-547 L 1207,-547 L 1207,-548 L 1206,-548 L 1205,-548 L 1204,-548 L 1204,-549 L 1203,-549 L 1203,-550 L 1202,-550 L 1201,-551 L 1201,-552 L 1202,-552 L 1202,-553 L 1203,-553 L 1204,-553 L 1204,-554 L 1204,-555 L 1204,-556 L 1205,-556 L 1206,-556 L 1207,-556 L 1207,-557 L 1208,-557 L 1207,-557 L 1207,-558 L 1207,-559 L 1207,-560 L 1208,-560 L 1208,-561 L 1207,-561 L 1207,-562 L 1206,-563 L 1207,-563 L 1207,-564 L 1206,-564 L 1207,-564 L 1207,-565 L 1207,-566 L 1207,-567 L 1207,-568 L 1206,-568 L 1206,-569 L 1205,-570 L 1205,-571 L 1204,-571 L 1204,-572 L 1203,-572 L 1204,-572 L 1204,-573 L 1205,-573 L 1205,-574 L 1204,-574 L 1204,-575 L 1204,-576 L 1204,-577 L 1203,-577 L 1203,-578 L 1204,-578 L 1203,-578 L 1203,-579 L 1202,-579 L 1201,-579 L 1201,-580 L 1200,-580 L 1200,-581 L 1201,-581 L 1201,-582 L 1201,-583 L 1202,-583 L 1202,-584 L 1202,-585 L 1202,-586 L 1201,-586 L 1201,-585 L 1201,-586 L 1201,-587 L 1201,-588 L 1200,-588 L 1199,-588 L 1199,-589 L 1200,-589 L 1200,-590 L 1201,-591 L 1202,-591 L 1202,-592 L 1201,-592 L 1201,-593 L 1201,-594 L 1201,-595 L 1200,-595 L 1200,-596 L 1199,-597 L 1199,-598 L 1200,-598 L 1200,-599 L 1200,-600 L 1200,-601 L 1200,-602 L 1200,-603 L 1201,-604 L 1200,-605 L 1200,-606 L 1201,-606 L 1202,-606 L 1202,-607 L 1202,-608 L 1202,-609 L 1202,-610 L 1201,-610 L 1201,-611 L 1202,-612 L 1202,-613 L 1203,-613 L 1202,-613 L 1202,-614 L 1202,-615 L 1203,-615 L 1203,-616 L 1204,-616 L 1204,-617 L 1204,-618 L 1204,-619 L 1204,-620 L 1204,-621 L 1204,-622 L 1205,-622 L 1205,-623 L 1206,-623 L 1205,-623 L 1205,-624 L 1204,-624 L 1204,-625 L 1204,-626 L 1205,-626 L 1205,-627 L 1205,-628 L 1205,-629 L 1205,-630 L 1206,-630 L 1206,-631 L 1206,-632 L 1206,-633 L 1206,-634 L 1205,-634 L 1205,-635 L 1204,-635 L 1203,-635 L 1202,-636 L 1201,-636 L 1200,-636 L 1200,-637 L 1200,-638 L 1199,-638 L 1198,-638 L 1197,-638 L 1196,-638 L 1195,-638 L 1194,-639 L 1194,-640 L 1193,-640 L 1193,-641 L 1192,-641 L 1192,-642 L 1192,-643 L 1192,-644 L 1191,-644 L 1190,-644 L 1189,-645 L 1188,-645 L 1189,-645 L 1189,-646 L 1190,-646 L 1190,-647 L 1190,-648 L 1244,-704 L 1328,-793 L 1329,-793 L 1330,-793 L 1331,-793 L 1332,-793 L 1333,-793 L 1334,-793 L 1334,-792 L 1335,-792 L 1335,-793 L 1336,-793 L 1336,-794 L 1337,-794 L 1338,-794 L 1339,-794 L 1340,-794 " /></g>
</svg>
