<?xml version="1.0" standalone="no"?><!DOCTYPE svg PUBLIC "-//W3C//DTD SVG 1.1//EN" "http://www.w3.org/Graphics/SVG/1.1/DTD/svg11.dtd"><svg xmlns="http://www.w3.org/2000/svg" viewBox="936 -288 702 239" version = "1.1">
<g id="71503" ><path d="M 937,-288 L 1018,-280 L 1389,-260 L 1390,-259 L 1390,-258 L 1391,-258 L 1391,-257 L 1392,-257 L 1392,-258 L 1392,-259 L 1393,-259 L 1393,-260 L 1394,-260 L 1395,-260 L 1396,-260 L 1396,-261 L 1396,-260 L 1397,-260 L 1396,-259 L 1396,-258 L 1396,-257 L 1395,-257 L 1395,-256 L 1395,-255 L 1396,-255 L 1396,-256 L 1396,-257 L 1396,-258 L 1397,-259 L 1398,-259 L 1398,-258 L 1399,-258 L 1399,-257 L 1399,-256 L 1399,-255 L 1400,-254 L 1401,-253 L 1402,-253 L 1403,-253 L 1403,-254 L 1402,-254 L 1402,-255 L 1401,-255 L 1401,-256 L 1402,-256 L 1402,-257 L 1402,-258 L 1403,-258 L 1403,-257 L 1403,-256 L 1404,-256 L 1403,-256 L 1404,-256 L 1405,-256 L 1405,-255 L 1404,-255 L 1405,-255 L 1406,-255 L 1405,-256 L 1406,-256 L 1406,-255 L 1407,-255 L 1408,-255 L 1409,-255 L 1409,-254 L 1409,-255 L 1410,-255 L 1409,-255 L 1409,-256 L 1410,-257 L 1411,-257 L 1412,-257 L 1412,-256 L 1413,-256 L 1414,-255 L 1415,-254 L 1415,-253 L 1416,-253 L 1416,-252 L 1415,-252 L 1415,-251 L 1414,-251 L 1413,-251 L 1413,-252 L 1412,-252 L 1412,-251 L 1412,-250 L 1411,-250 L 1411,-249 L 1411,-248 L 1412,-248 L 1413,-248 L 1414,-248 L 1415,-248 L 1415,-247 L 1415,-246 L 1414,-246 L 1414,-247 L 1413,-247 L 1412,-247 L 1411,-247 L 1411,-246 L 1412,-246 L 1412,-245 L 1412,-244 L 1413,-243 L 1413,-242 L 1413,-243 L 1414,-243 L 1415,-243 L 1415,-244 L 1415,-245 L 1416,-245 L 1416,-244 L 1417,-244 L 1418,-244 L 1418,-243 L 1419,-243 L 1418,-243 L 1417,-243 L 1417,-242 L 1416,-242 L 1415,-242 L 1415,-241 L 1415,-240 L 1416,-240 L 1417,-240 L 1417,-239 L 1417,-240 L 1418,-240 L 1418,-239 L 1419,-239 L 1420,-239 L 1420,-238 L 1419,-237 L 1419,-236 L 1420,-236 L 1420,-235 L 1420,-234 L 1419,-234 L 1418,-234 L 1417,-234 L 1417,-235 L 1416,-235 L 1415,-235 L 1415,-234 L 1416,-234 L 1416,-233 L 1417,-232 L 1417,-231 L 1417,-230 L 1416,-230 L 1416,-229 L 1416,-228 L 1415,-228 L 1415,-227 L 1414,-227 L 1414,-228 L 1413,-228 L 1413,-227 L 1413,-226 L 1414,-226 L 1415,-226 L 1416,-226 L 1417,-226 L 1417,-225 L 1417,-224 L 1416,-224 L 1416,-223 L 1417,-223 L 1418,-223 L 1418,-222 L 1418,-221 L 1419,-221 L 1419,-222 L 1420,-222 L 1421,-222 L 1421,-221 L 1422,-221 L 1422,-220 L 1421,-220 L 1421,-219 L 1420,-219 L 1420,-218 L 1419,-218 L 1419,-217 L 1420,-217 L 1421,-217 L 1421,-218 L 1422,-218 L 1422,-217 L 1423,-217 L 1423,-216 L 1424,-216 L 1423,-215 L 1423,-214 L 1424,-214 L 1425,-214 L 1425,-213 L 1424,-213 L 1424,-212 L 1424,-211 L 1425,-211 L 1426,-211 L 1426,-212 L 1427,-212 L 1428,-213 L 1429,-213 L 1430,-213 L 1431,-213 L 1432,-213 L 1432,-212 L 1433,-212 L 1433,-211 L 1432,-212 L 1432,-211 L 1432,-210 L 1433,-210 L 1434,-210 L 1435,-210 L 1434,-209 L 1433,-209 L 1432,-209 L 1432,-208 L 1433,-208 L 1433,-207 L 1434,-207 L 1435,-207 L 1436,-207 L 1436,-206 L 1437,-206 L 1438,-206 L 1438,-205 L 1439,-205 L 1440,-205 L 1441,-205 L 1441,-204 L 1442,-204 L 1462,-201 L 1462,-200 L 1463,-200 L 1464,-199 L 1465,-198 L 1468,-197 L 1470,-196 L 1471,-196 L 1472,-195 L 1472,-194 L 1473,-194 L 1473,-193 L 1473,-192 L 1473,-191 L 1474,-191 L 1475,-191 L 1476,-191 L 1476,-190 L 1475,-190 L 1476,-190 L 1476,-189 L 1477,-189 L 1477,-188 L 1478,-188 L 1478,-187 L 1479,-187 L 1479,-186 L 1479,-187 L 1480,-187 L 1481,-188 L 1482,-188 L 1482,-189 L 1483,-188 L 1484,-188 L 1484,-187 L 1485,-187 L 1486,-187 L 1486,-186 L 1487,-186 L 1488,-185 L 1489,-185 L 1489,-184 L 1490,-184 L 1491,-184 L 1491,-185 L 1491,-186 L 1491,-187 L 1492,-187 L 1493,-187 L 1494,-187 L 1495,-188 L 1496,-187 L 1501,-185 L 1503,-183 L 1504,-183 L 1505,-183 L 1505,-184 L 1506,-184 L 1507,-185 L 1507,-186 L 1507,-187 L 1507,-188 L 1508,-188 L 1508,-187 L 1509,-187 L 1510,-187 L 1510,-186 L 1511,-185 L 1512,-185 L 1513,-184 L 1513,-183 L 1514,-182 L 1515,-182 L 1516,-182 L 1516,-183 L 1517,-183 L 1518,-183 L 1519,-183 L 1520,-183 L 1521,-183 L 1522,-183 L 1523,-183 L 1524,-182 L 1526,-183 L 1527,-183 L 1528,-183 L 1529,-183 L 1530,-183 L 1531,-183 L 1532,-183 L 1534,-182 L 1535,-182 L 1536,-182 L 1537,-182 L 1538,-182 L 1539,-182 L 1540,-182 L 1541,-182 L 1542,-183 L 1543,-183 L 1544,-183 L 1545,-183 L 1546,-184 L 1547,-184 L 1548,-184 L 1549,-184 L 1549,-185 L 1550,-185 L 1551,-185 L 1552,-185 L 1552,-184 L 1553,-184 L 1554,-184 L 1554,-183 L 1555,-183 L 1555,-182 L 1556,-182 L 1557,-182 L 1558,-182 L 1559,-182 L 1560,-182 L 1561,-182 L 1561,-181 L 1562,-181 L 1563,-181 L 1563,-182 L 1563,-181 L 1564,-181 L 1565,-181 L 1565,-182 L 1566,-182 L 1567,-182 L 1568,-182 L 1569,-182 L 1570,-182 L 1570,-183 L 1571,-183 L 1572,-183 L 1573,-182 L 1572,-182 L 1573,-181 L 1573,-180 L 1574,-180 L 1575,-180 L 1576,-180 L 1576,-179 L 1577,-179 L 1577,-178 L 1578,-178 L 1578,-177 L 1579,-177 L 1580,-177 L 1581,-177 L 1581,-178 L 1581,-179 L 1582,-179 L 1583,-180 L 1584,-180 L 1584,-181 L 1584,-182 L 1585,-183 L 1586,-183 L 1587,-184 L 1588,-184 L 1589,-184 L 1590,-184 L 1591,-185 L 1592,-185 L 1593,-185 L 1594,-185 L 1594,-184 L 1595,-184 L 1596,-184 L 1597,-183 L 1598,-183 L 1598,-182 L 1599,-182 L 1599,-181 L 1600,-181 L 1601,-181 L 1601,-180 L 1602,-180 L 1602,-181 L 1603,-181 L 1603,-180 L 1604,-179 L 1605,-180 L 1606,-180 L 1607,-180 L 1607,-179 L 1608,-178 L 1609,-178 L 1609,-177 L 1611,-175 L 1620,-172 L 1625,-169 L 1636,-162 L 1638,-159 L 1627,-88 L 1627,-87 L 1627,-86 L 1626,-86 L 1626,-87 L 1626,-86 L 1625,-85 L 1624,-84 L 1625,-84 L 1625,-83 L 1626,-83 L 1627,-83 L 1627,-82 L 1628,-81 L 1629,-81 L 1629,-80 L 1628,-80 L 1628,-79 L 1628,-78 L 1627,-78 L 1627,-79 L 1626,-79 L 1626,-78 L 1627,-77 L 1627,-76 L 1627,-75 L 1627,-74 L 1628,-73 L 1628,-72 L 1628,-71 L 1629,-71 L 1629,-70 L 1628,-70 L 1628,-69 L 1628,-68 L 1627,-67 L 1627,-66 L 1627,-65 L 1626,-65 L 1627,-65 L 1627,-64 L 1626,-64 L 1626,-63 L 1626,-62 L 1625,-61 L 1625,-60 L 1625,-59 L 1624,-59 L 1624,-58 L 1623,-58 L 1622,-58 L 1621,-58 L 1621,-57 L 1620,-57 L 1620,-56 L 1619,-56 L 1619,-55 L 1619,-54 L 1618,-54 L 1617,-54 L 1617,-53 L 1617,-52 L 1618,-52 L 1617,-52 L 1617,-51 L 1617,-50 L 1616,-51 L 1615,-51 L 1614,-51 L 1615,-51 L 1615,-52 L 1614,-52 L 1613,-52 L 1613,-51 L 1614,-51 L 1613,-50 L 1613,-51 L 1612,-51 L 1612,-50 L 1613,-50 L 1613,-49 L 1612,-49 L 1612,-50 L 1612,-51 L 1611,-51 L 1611,-52 L 1611,-53 L 1610,-53 L 1610,-54 L 1609,-54 L 1609,-53 L 1609,-52 L 1610,-52 L 1609,-52 L 1608,-52 L 1608,-51 L 1608,-52 L 1607,-52 L 1607,-51 L 1606,-51 L 1607,-51 L 1607,-52 L 1606,-52 L 1605,-52 L 1605,-51 L 1604,-52 L 1603,-52 L 1602,-51 L 1601,-52 L 1601,-53 L 1600,-53 L 1599,-52 L 1598,-52 L 1598,-51 L 1597,-51 L 1596,-51 L 1595,-51 L 1594,-51 L 1593,-52 L 1592,-52 L 1366,-52 L 1365,-52 L 1365,-53 L 1364,-53 L 1364,-54 L 1365,-54 L 1365,-55 L 1366,-56 L 1366,-57 L 1366,-58 L 1365,-58 L 1365,-59 L 1365,-60 L 1365,-61 L 1364,-61 L 1364,-62 L 1364,-63 L 1365,-63 L 1365,-64 L 1365,-65 L 1365,-66 L 1366,-66 L 1366,-67 L 1365,-67 L 1365,-68 L 1364,-70 L 1364,-71 L 1364,-72 L 1365,-72 L 1366,-72 L 1367,-72 L 1366,-73 L 1366,-74 L 1366,-75 L 1365,-75 L 1365,-76 L 1364,-77 L 1364,-78 L 1364,-79 L 1364,-80 L 1365,-80 L 1365,-81 L 1366,-82 L 1366,-83 L 1366,-84 L 1365,-84 L 1365,-83 L 1364,-83 L 1364,-82 L 1363,-82 L 1363,-81 L 1363,-80 L 1362,-81 L 1362,-82 L 1362,-83 L 1362,-84 L 1363,-84 L 1363,-85 L 1363,-84 L 1364,-84 L 1364,-85 L 1363,-85 L 1362,-85 L 1362,-86 L 1361,-87 L 1361,-88 L 1361,-89 L 1360,-89 L 1359,-88 L 1358,-88 L 1358,-89 L 1358,-90 L 1357,-90 L 1356,-90 L 1356,-89 L 1355,-89 L 1355,-90 L 1355,-91 L 1354,-92 L 1353,-91 L 1352,-91 L 1351,-91 L 1351,-92 L 1350,-92 L 1350,-91 L 1350,-90 L 1349,-90 L 1348,-90 L 1347,-90 L 1347,-91 L 1348,-92 L 1349,-92 L 1349,-93 L 1348,-93 L 1348,-92 L 1347,-92 L 1346,-92 L 1345,-92 L 1345,-93 L 1345,-94 L 1344,-95 L 1343,-95 L 1343,-96 L 1344,-97 L 1343,-97 L 1343,-98 L 1342,-98 L 1342,-97 L 1342,-96 L 1341,-96 L 1341,-97 L 1340,-97 L 1340,-98 L 1340,-99 L 1340,-100 L 1339,-100 L 1338,-100 L 1338,-101 L 1339,-101 L 1339,-102 L 1340,-102 L 1339,-103 L 1338,-103 L 1337,-103 L 1337,-104 L 1337,-105 L 1337,-106 L 1336,-107 L 1336,-108 L 1336,-109 L 1336,-110 L 1336,-111 L 1335,-111 L 1334,-111 L 1334,-112 L 1334,-113 L 1334,-114 L 1333,-114 L 1333,-115 L 1332,-115 L 1331,-115 L 1330,-116 L 1329,-116 L 1329,-117 L 1328,-117 L 1327,-117 L 1327,-116 L 1326,-116 L 1325,-115 L 1324,-115 L 1324,-116 L 1323,-116 L 1322,-116 L 1322,-115 L 1321,-115 L 1320,-115 L 1320,-116 L 1319,-116 L 1318,-116 L 1317,-116 L 1317,-115 L 1316,-115 L 1315,-116 L 1314,-116 L 1313,-116 L 1313,-117 L 1312,-117 L 1312,-118 L 1311,-118 L 1310,-118 L 1310,-119 L 1310,-120 L 1309,-120 L 1309,-121 L 1308,-122 L 1308,-123 L 1307,-124 L 1307,-125 L 1306,-126 L 1305,-127 L 1304,-128 L 1304,-129 L 1304,-130 L 1304,-131 L 1303,-131 L 1303,-132 L 1302,-132 L 1302,-133 L 1301,-133 L 1301,-132 L 1301,-131 L 1301,-130 L 1301,-129 L 1300,-129 L 1299,-129 L 1299,-130 L 1299,-131 L 1299,-132 L 1300,-132 L 1299,-133 L 1298,-133 L 1298,-132 L 1297,-132 L 1296,-132 L 1295,-132 L 1295,-133 L 1294,-134 L 1294,-135 L 1293,-136 L 1293,-137 L 1292,-137 L 1292,-138 L 1291,-138 L 1290,-138 L 1289,-138 L 1288,-138 L 1288,-139 L 1288,-140 L 1287,-141 L 1286,-142 L 1285,-142 L 1284,-142 L 1283,-142 L 1283,-141 L 1282,-141 L 1281,-141 L 1281,-142 L 1280,-142 L 1280,-143 L 1279,-143 L 1279,-144 L 1278,-144 L 1278,-145 L 1277,-145 L 1277,-146 L 1277,-147 L 1276,-147 L 1276,-148 L 1275,-148 L 1275,-149 L 1274,-149 L 1273,-149 L 1273,-150 L 1272,-150 L 1272,-151 L 1272,-152 L 1271,-153 L 1270,-154 L 1270,-155 L 1269,-156 L 1268,-157 L 1268,-158 L 1267,-158 L 1267,-157 L 1266,-157 L 1265,-157 L 1264,-158 L 1263,-158 L 1262,-159 L 1261,-159 L 1260,-159 L 1259,-159 L 1258,-159 L 1257,-159 L 1257,-158 L 1256,-158 L 1256,-157 L 1255,-157 L 1254,-158 L 1254,-159 L 1253,-159 L 1252,-159 L 1251,-159 L 1251,-160 L 1250,-160 L 1250,-159 L 1249,-159 L 1248,-159 L 1247,-159 L 1247,-158 L 1247,-157 L 1246,-157 L 1246,-158 L 1245,-158 L 1245,-159 L 1245,-160 L 1244,-160 L 1243,-161 L 1242,-161 L 1242,-160 L 1241,-160 L 1241,-159 L 1240,-159 L 1241,-159 L 1241,-158 L 1240,-158 L 1240,-159 L 1239,-159 L 1240,-159 L 1240,-160 L 1239,-160 L 1239,-159 L 1238,-159 L 1238,-158 L 1237,-159 L 1238,-159 L 1238,-160 L 1237,-160 L 1237,-161 L 1238,-161 L 1238,-162 L 1237,-162 L 1237,-163 L 1237,-164 L 1236,-164 L 1235,-164 L 1234,-164 L 1233,-164 L 1232,-164 L 1232,-165 L 1231,-165 L 1231,-166 L 1230,-166 L 1229,-167 L 1228,-167 L 1228,-168 L 1227,-169 L 1226,-169 L 1226,-170 L 1225,-170 L 1224,-170 L 1224,-171 L 1223,-171 L 1223,-172 L 1222,-172 L 1221,-172 L 1220,-172 L 1219,-172 L 1219,-173 L 1218,-173 L 1217,-173 L 1217,-174 L 1217,-175 L 1217,-176 L 1216,-176 L 1216,-177 L 1215,-177 L 1214,-177 L 1213,-177 L 1213,-176 L 1212,-176 L 1212,-177 L 1211,-177 L 1210,-177 L 1210,-176 L 1209,-176 L 1209,-177 L 1208,-177 L 1207,-177 L 1207,-178 L 1208,-178 L 1208,-179 L 1208,-180 L 1207,-181 L 1206,-182 L 1206,-183 L 1205,-183 L 1205,-184 L 1205,-185 L 1204,-185 L 1204,-186 L 1203,-186 L 1203,-187 L 1203,-186 L 1202,-186 L 1201,-186 L 1200,-186 L 1200,-185 L 1199,-185 L 1198,-185 L 1198,-186 L 1197,-186 L 1196,-186 L 1195,-186 L 1195,-187 L 1195,-186 L 1194,-186 L 1194,-187 L 1193,-187 L 1193,-188 L 1193,-189 L 1192,-189 L 1192,-190 L 1191,-190 L 1191,-191 L 1190,-192 L 1190,-191 L 1189,-191 L 1188,-191 L 1188,-192 L 1187,-192 L 1186,-192 L 1185,-192 L 1185,-193 L 1185,-194 L 1184,-194 L 1184,-195 L 1183,-195 L 1183,-196 L 1183,-197 L 1184,-197 L 1184,-198 L 1184,-199 L 1183,-199 L 1183,-200 L 1182,-200 L 1182,-201 L 1182,-202 L 1181,-202 L 1181,-203 L 1180,-203 L 1180,-204 L 1179,-204 L 1179,-205 L 1179,-206 L 1178,-206 L 1178,-207 L 1177,-207 L 1176,-207 L 1175,-207 L 1175,-206 L 1174,-206 L 1173,-206 L 1173,-205 L 1173,-204 L 1172,-204 L 1172,-203 L 1172,-202 L 1171,-202 L 1171,-201 L 1170,-201 L 1170,-202 L 1169,-202 L 1169,-201 L 1168,-201 L 1168,-200 L 1168,-199 L 1168,-200 L 1167,-200 L 1167,-201 L 1166,-201 L 1165,-200 L 1164,-200 L 1163,-200 L 1162,-200 L 1162,-201 L 1161,-201 L 1161,-202 L 1160,-202 L 1160,-203 L 1159,-203 L 1158,-203 L 1158,-204 L 1157,-203 L 1158,-203 L 1158,-202 L 1158,-201 L 1159,-201 L 1159,-200 L 1159,-199 L 1158,-199 L 1157,-199 L 1158,-198 L 1157,-197 L 1156,-197 L 1156,-196 L 1155,-196 L 1154,-196 L 1154,-195 L 1155,-195 L 1154,-194 L 1154,-195 L 1153,-195 L 1153,-196 L 1152,-196 L 1151,-196 L 1151,-195 L 1150,-195 L 1150,-196 L 1150,-197 L 1149,-197 L 1149,-196 L 1149,-195 L 1148,-195 L 1148,-194 L 1147,-194 L 1146,-194 L 1146,-195 L 1145,-195 L 1145,-196 L 1146,-197 L 1145,-197 L 1144,-197 L 1144,-196 L 1143,-197 L 1143,-198 L 1144,-198 L 1144,-199 L 1143,-199 L 1142,-198 L 1141,-197 L 1141,-198 L 1141,-199 L 1140,-200 L 1140,-199 L 1140,-198 L 1139,-198 L 1138,-197 L 1139,-197 L 1139,-196 L 1140,-196 L 1140,-197 L 1141,-197 L 1141,-196 L 1141,-195 L 1140,-195 L 1139,-195 L 1138,-195 L 1138,-196 L 1137,-195 L 1137,-194 L 1136,-193 L 1135,-193 L 1135,-194 L 1134,-194 L 1133,-194 L 1133,-195 L 1132,-195 L 1131,-194 L 1131,-193 L 1130,-193 L 1130,-194 L 1130,-195 L 1129,-195 L 1129,-196 L 1129,-195 L 1128,-194 L 1128,-193 L 1127,-193 L 1127,-192 L 1128,-192 L 1129,-192 L 1129,-191 L 1128,-191 L 1127,-191 L 1126,-191 L 1125,-191 L 1124,-191 L 1124,-190 L 1125,-190 L 1126,-190 L 1126,-189 L 1125,-188 L 1125,-189 L 1124,-189 L 1123,-189 L 1123,-188 L 1122,-188 L 1122,-189 L 1122,-190 L 1121,-190 L 1120,-190 L 1120,-189 L 1119,-189 L 1118,-189 L 1118,-190 L 1119,-190 L 1119,-191 L 1118,-191 L 1118,-190 L 1117,-190 L 1117,-189 L 1116,-189 L 1115,-189 L 1114,-190 L 1113,-190 L 1112,-190 L 1112,-189 L 1111,-189 L 1111,-188 L 1111,-187 L 1110,-187 L 1110,-188 L 1109,-188 L 1109,-187 L 1109,-186 L 1108,-186 L 1107,-186 L 1106,-186 L 1106,-187 L 1105,-187 L 1104,-187 L 1103,-187 L 1102,-187 L 1102,-188 L 1103,-188 L 1104,-188 L 1104,-189 L 1104,-190 L 1103,-190 L 1102,-190 L 1102,-191 L 1102,-192 L 1102,-193 L 1101,-193 L 1101,-194 L 1101,-195 L 1102,-195 L 1102,-196 L 1103,-197 L 1104,-197 L 1104,-196 L 1104,-197 L 1103,-198 L 1102,-198 L 1101,-198 L 1102,-199 L 1102,-200 L 1103,-200 L 1103,-201 L 1102,-201 L 1102,-202 L 1101,-202 L 1101,-203 L 1100,-204 L 1100,-205 L 1100,-206 L 1101,-207 L 1101,-208 L 1101,-209 L 1100,-209 L 1099,-209 L 1099,-210 L 1098,-211 L 1098,-212 L 1098,-213 L 1097,-213 L 1097,-214 L 1096,-214 L 1096,-215 L 1097,-215 L 1096,-215 L 1095,-215 L 1094,-215 L 1094,-216 L 1095,-216 L 1095,-217 L 1094,-217 L 1093,-217 L 1093,-218 L 1093,-219 L 1093,-220 L 1092,-220 L 1091,-219 L 1090,-219 L 1090,-220 L 1089,-220 L 1089,-221 L 1088,-220 L 1088,-219 L 1088,-218 L 1088,-217 L 1087,-218 L 1086,-218 L 1086,-217 L 1086,-216 L 1087,-216 L 1087,-215 L 1086,-215 L 1085,-215 L 1085,-216 L 1084,-216 L 1084,-215 L 1083,-215 L 1082,-216 L 1082,-217 L 1081,-217 L 1081,-216 L 1082,-215 L 1082,-214 L 1081,-214 L 1080,-214 L 1079,-214 L 1078,-215 L 1077,-215 L 1077,-216 L 1076,-216 L 1076,-215 L 1075,-214 L 1074,-215 L 1074,-216 L 1073,-217 L 1072,-217 L 1071,-216 L 1070,-216 L 1070,-215 L 1069,-215 L 1068,-216 L 1067,-215 L 1066,-215 L 1065,-215 L 1064,-215 L 1064,-216 L 1063,-217 L 1063,-218 L 1064,-219 L 1063,-219 L 1062,-220 L 1061,-220 L 1060,-220 L 1060,-219 L 1059,-219 L 1059,-218 L 1059,-217 L 1058,-217 L 1057,-217 L 1056,-217 L 1056,-216 L 1055,-216 L 1055,-217 L 1055,-218 L 1054,-219 L 1054,-220 L 1054,-221 L 1054,-222 L 1054,-223 L 1053,-223 L 1052,-222 L 1052,-221 L 1051,-220 L 1050,-220 L 1050,-221 L 1050,-222 L 1049,-223 L 1049,-224 L 1048,-224 L 1048,-223 L 1047,-223 L 1046,-223 L 1046,-224 L 1046,-225 L 1046,-226 L 1046,-227 L 1045,-226 L 1045,-225 L 1045,-224 L 1045,-223 L 1044,-223 L 1044,-224 L 1043,-224 L 1042,-224 L 1041,-225 L 1041,-226 L 1040,-226 L 1040,-227 L 1039,-227 L 1039,-228 L 1039,-229 L 1038,-229 L 1037,-228 L 1037,-227 L 1036,-227 L 1035,-226 L 1034,-226 L 1034,-227 L 1034,-228 L 1034,-229 L 1034,-230 L 1034,-231 L 1033,-231 L 1032,-231 L 1031,-231 L 1030,-231 L 1029,-231 L 1028,-232 L 1027,-231 L 1027,-230 L 1026,-230 L 1026,-231 L 1025,-232 L 1025,-233 L 1026,-233 L 1026,-234 L 1027,-234 L 1027,-235 L 1027,-236 L 1026,-236 L 1025,-236 L 1025,-237 L 1025,-238 L 1024,-238 L 1023,-237 L 1023,-236 L 1022,-235 L 1021,-234 L 1020,-233 L 1020,-232 L 1020,-231 L 1019,-231 L 1020,-230 L 1020,-229 L 1021,-229 L 1020,-228 L 1019,-229 L 1018,-229 L 1017,-229 L 1017,-230 L 1016,-230 L 1016,-229 L 1016,-228 L 1015,-228 L 1014,-228 L 1014,-229 L 1013,-229 L 1013,-228 L 1014,-227 L 1015,-226 L 1014,-226 L 1014,-225 L 1013,-225 L 1012,-226 L 1011,-226 L 1011,-227 L 1012,-227 L 1012,-228 L 1012,-229 L 1011,-229 L 1011,-230 L 1010,-230 L 1009,-230 L 1008,-230 L 1007,-230 L 1007,-231 L 1007,-232 L 1006,-233 L 1005,-233 L 1004,-234 L 1003,-234 L 1002,-234 L 1001,-234 L 1000,-234 L 999,-234 L 998,-233 L 997,-232 L 996,-232 L 996,-233 L 996,-234 L 996,-235 L 996,-236 L 997,-236 L 997,-237 L 998,-237 L 998,-238 L 999,-238 L 999,-239 L 999,-240 L 1000,-240 L 1000,-239 L 1001,-239 L 1002,-238 L 1002,-239 L 1003,-239 L 1003,-241 L 1004,-241 L 1004,-242 L 1004,-243 L 1003,-244 L 1003,-245 L 1002,-245 L 1001,-245 L 1000,-245 L 999,-245 L 999,-244 L 1000,-244 L 1000,-243 L 1000,-242 L 999,-242 L 998,-242 L 997,-242 L 997,-243 L 997,-244 L 997,-245 L 996,-246 L 996,-247 L 995,-249 L 995,-250 L 994,-250 L 994,-249 L 993,-249 L 993,-248 L 992,-247 L 992,-246 L 993,-246 L 994,-246 L 995,-246 L 996,-246 L 996,-245 L 995,-245 L 995,-244 L 994,-243 L 993,-243 L 993,-244 L 993,-245 L 992,-245 L 991,-246 L 990,-246 L 990,-247 L 990,-248 L 989,-248 L 989,-249 L 988,-249 L 987,-249 L 987,-248 L 987,-247 L 987,-246 L 988,-246 L 988,-245 L 989,-245 L 989,-244 L 990,-244 L 990,-243 L 989,-243 L 988,-243 L 987,-244 L 986,-244 L 985,-245 L 984,-246 L 983,-246 L 983,-245 L 982,-245 L 982,-244 L 983,-244 L 984,-243 L 984,-242 L 984,-241 L 983,-241 L 983,-242 L 982,-242 L 982,-243 L 981,-243 L 981,-244 L 980,-244 L 980,-245 L 979,-246 L 979,-247 L 980,-247 L 981,-247 L 982,-247 L 982,-248 L 982,-249 L 983,-250 L 982,-250 L 981,-250 L 980,-250 L 979,-250 L 978,-250 L 977,-250 L 976,-250 L 975,-250 L 974,-250 L 974,-251 L 974,-253 L 973,-254 L 972,-254 L 971,-255 L 970,-255 L 969,-255 L 969,-256 L 970,-256 L 970,-257 L 971,-259 L 972,-260 L 972,-261 L 972,-262 L 971,-262 L 970,-262 L 969,-262 L 968,-262 L 967,-262 L 967,-261 L 967,-260 L 966,-259 L 964,-259 L 963,-259 L 963,-260 L 962,-261 L 962,-260 L 961,-260 L 961,-259 L 960,-258 L 959,-258 L 958,-258 L 957,-259 L 956,-261 L 956,-262 L 955,-263 L 954,-263 L 954,-264 L 953,-264 L 951,-265 L 950,-266 L 949,-267 L 950,-268 L 950,-269 L 949,-269 L 948,-270 L 949,-271 L 949,-272 L 949,-273 L 950,-273 L 951,-274 L 952,-274 L 952,-275 L 951,-276 L 950,-276 L 949,-276 L 948,-276 L 948,-277 L 947,-278 L 947,-279 L 948,-279 L 949,-279 L 948,-280 L 947,-280 L 946,-280 L 945,-280 L 944,-280 L 943,-279 L 942,-279 L 942,-280 L 942,-281 L 943,-281 L 944,-282 L 943,-282 L 943,-283 L 942,-283 L 941,-282 L 940,-282 L 940,-281 L 940,-280 L 939,-280 L 939,-281 L 938,-281 L 938,-282 L 939,-283 L 939,-284 L 939,-285 L 940,-286 L 940,-287 L 939,-287 L 938,-287 L 936,-288 L 937,-288 " /></g>
</svg>
