<?xml version="1.0" standalone="no"?><!DOCTYPE svg PUBLIC "-//W3C//DTD SVG 1.1//EN" "http://www.w3.org/Graphics/SVG/1.1/DTD/svg11.dtd"><svg xmlns="http://www.w3.org/2000/svg" viewBox="825 -648 365 105" version = "1.1">
<g id="80101" ><path d="M 1190,-648 L 1044,-597 L 1031,-594 L 1009,-593 L 986,-590 L 966,-585 L 923,-568 L 907,-563 L 891,-557 L 842,-543 L 841,-546 L 840,-547 L 839,-549 L 838,-550 L 837,-551 L 837,-553 L 837,-554 L 837,-555 L 838,-555 L 839,-555 L 841,-555 L 842,-554 L 843,-553 L 845,-552 L 846,-550 L 848,-549 L 849,-548 L 851,-547 L 853,-549 L 853,-550 L 853,-551 L 852,-552 L 852,-553 L 851,-554 L 850,-555 L 850,-556 L 849,-557 L 849,-559 L 849,-560 L 849,-561 L 850,-562 L 850,-564 L 851,-565 L 850,-566 L 850,-567 L 849,-568 L 848,-568 L 847,-568 L 846,-567 L 845,-566 L 844,-565 L 843,-564 L 841,-563 L 840,-564 L 839,-564 L 839,-565 L 838,-566 L 838,-567 L 838,-568 L 838,-570 L 837,-571 L 836,-572 L 835,-574 L 834,-575 L 834,-576 L 834,-578 L 835,-578 L 836,-578 L 837,-578 L 839,-577 L 840,-576 L 842,-575 L 844,-574 L 846,-574 L 848,-573 L 849,-573 L 851,-574 L 851,-575 L 851,-576 L 851,-577 L 850,-578 L 850,-579 L 850,-580 L 850,-581 L 850,-582 L 850,-583 L 848,-583 L 847,-584 L 846,-584 L 844,-584 L 843,-584 L 842,-585 L 840,-585 L 838,-586 L 836,-586 L 835,-587 L 836,-588 L 836,-589 L 837,-589 L 838,-590 L 839,-591 L 841,-591 L 842,-592 L 843,-592 L 844,-592 L 845,-592 L 846,-592 L 847,-592 L 848,-592 L 849,-593 L 850,-593 L 851,-593 L 851,-594 L 851,-595 L 850,-596 L 850,-597 L 849,-597 L 848,-597 L 846,-597 L 843,-597 L 842,-597 L 840,-598 L 839,-598 L 839,-599 L 838,-600 L 838,-601 L 838,-603 L 837,-604 L 837,-605 L 836,-606 L 835,-607 L 835,-608 L 836,-608 L 837,-608 L 838,-607 L 839,-606 L 840,-606 L 841,-606 L 842,-606 L 843,-607 L 844,-608 L 844,-609 L 845,-611 L 845,-613 L 845,-614 L 844,-614 L 843,-614 L 842,-614 L 841,-613 L 838,-613 L 836,-613 L 834,-613 L 832,-612 L 831,-611 L 829,-609 L 828,-609 L 827,-608 L 826,-608 L 825,-609 L 825,-611 L 826,-613 L 827,-614 L 828,-614 L 829,-615 L 831,-615 L 832,-616 L 834,-616 L 835,-617 L 836,-618 L 837,-619 L 839,-620 L 840,-621 L 840,-623 L 841,-624 L 841,-626 L 841,-628 L 842,-630 L 841,-632 L 841,-633 L 840,-634 L 839,-634 L 837,-634 L 837,-633 L 836,-631 L 835,-629 L 835,-628 L 834,-626 L 834,-624 L 833,-623 L 833,-622 L 832,-622 L 831,-622 L 830,-623 L 829,-624 L 828,-624 L 826,-625 L 826,-626 L 825,-626 L 825,-627 L 825,-628 L 825,-629 L 826,-629 L 827,-631 L 829,-632 L 829,-634 L 830,-637 L 831,-640 L 831,-643 L 832,-643 L 1190,-648 " /></g>
</svg>
