<?xml version="1.0" standalone="no"?><!DOCTYPE svg PUBLIC "-//W3C//DTD SVG 1.1//EN" "http://www.w3.org/Graphics/SVG/1.1/DTD/svg11.dtd"><svg xmlns="http://www.w3.org/2000/svg" viewBox="810 -887 518 244" version = "1.1">
<g id="80102" ><path d="M 832,-644 L 832,-645 L 833,-648 L 833,-649 L 833,-650 L 832,-651 L 831,-651 L 830,-651 L 829,-650 L 828,-650 L 827,-650 L 827,-651 L 828,-652 L 829,-653 L 830,-654 L 832,-655 L 834,-655 L 836,-656 L 838,-657 L 839,-659 L 839,-660 L 839,-661 L 839,-663 L 838,-664 L 837,-666 L 835,-667 L 833,-669 L 832,-670 L 832,-671 L 833,-672 L 834,-672 L 836,-673 L 837,-673 L 838,-674 L 840,-676 L 841,-678 L 842,-680 L 843,-681 L 844,-684 L 844,-686 L 844,-688 L 844,-689 L 843,-690 L 842,-691 L 843,-693 L 844,-693 L 845,-694 L 846,-695 L 847,-697 L 848,-699 L 850,-701 L 852,-703 L 853,-704 L 856,-705 L 858,-706 L 860,-706 L 862,-707 L 863,-708 L 863,-709 L 863,-710 L 863,-711 L 862,-712 L 861,-713 L 859,-713 L 857,-715 L 855,-717 L 853,-718 L 852,-719 L 852,-720 L 852,-721 L 854,-722 L 855,-722 L 856,-721 L 857,-721 L 859,-721 L 861,-721 L 862,-721 L 863,-722 L 864,-723 L 865,-724 L 866,-725 L 867,-727 L 869,-728 L 870,-729 L 870,-731 L 870,-733 L 870,-734 L 869,-736 L 869,-737 L 868,-739 L 866,-740 L 865,-740 L 864,-741 L 863,-741 L 861,-740 L 859,-740 L 858,-739 L 855,-739 L 854,-739 L 853,-739 L 852,-740 L 850,-741 L 848,-741 L 846,-742 L 844,-742 L 842,-742 L 842,-743 L 841,-743 L 841,-744 L 842,-745 L 842,-746 L 844,-747 L 846,-748 L 847,-747 L 848,-746 L 850,-744 L 851,-743 L 853,-743 L 855,-743 L 857,-744 L 859,-744 L 861,-745 L 863,-746 L 864,-748 L 865,-749 L 866,-751 L 865,-752 L 865,-753 L 864,-753 L 862,-754 L 860,-754 L 859,-755 L 858,-756 L 858,-757 L 858,-759 L 858,-761 L 860,-762 L 861,-764 L 861,-765 L 860,-766 L 859,-766 L 858,-766 L 857,-766 L 856,-765 L 854,-764 L 852,-764 L 850,-765 L 850,-766 L 848,-768 L 848,-769 L 847,-770 L 845,-770 L 843,-771 L 842,-771 L 841,-771 L 840,-773 L 840,-774 L 840,-775 L 841,-776 L 843,-776 L 844,-776 L 847,-774 L 850,-773 L 853,-771 L 856,-771 L 857,-771 L 857,-772 L 857,-773 L 857,-775 L 856,-776 L 854,-777 L 852,-780 L 851,-782 L 850,-783 L 850,-784 L 850,-785 L 851,-786 L 851,-787 L 852,-788 L 854,-789 L 855,-790 L 856,-791 L 856,-792 L 856,-793 L 855,-793 L 854,-794 L 852,-794 L 850,-795 L 847,-795 L 845,-794 L 843,-794 L 842,-794 L 842,-795 L 842,-796 L 841,-798 L 841,-801 L 841,-803 L 841,-805 L 842,-806 L 843,-808 L 844,-808 L 845,-809 L 846,-810 L 846,-811 L 846,-812 L 845,-812 L 845,-813 L 844,-813 L 842,-813 L 841,-812 L 840,-812 L 840,-811 L 839,-809 L 839,-807 L 838,-805 L 837,-803 L 836,-803 L 835,-803 L 834,-803 L 833,-804 L 833,-805 L 833,-806 L 833,-807 L 834,-808 L 836,-810 L 837,-813 L 837,-814 L 837,-816 L 837,-817 L 837,-818 L 836,-820 L 835,-821 L 834,-824 L 832,-828 L 831,-829 L 831,-830 L 830,-831 L 830,-832 L 831,-833 L 831,-834 L 831,-835 L 831,-836 L 831,-838 L 831,-839 L 830,-839 L 829,-840 L 828,-841 L 827,-841 L 826,-842 L 826,-843 L 827,-844 L 828,-844 L 830,-845 L 832,-846 L 833,-847 L 835,-848 L 836,-849 L 837,-851 L 838,-853 L 837,-854 L 837,-855 L 836,-856 L 835,-856 L 833,-856 L 831,-856 L 829,-855 L 827,-856 L 826,-856 L 824,-857 L 823,-856 L 821,-856 L 821,-855 L 820,-854 L 819,-853 L 818,-853 L 817,-853 L 817,-854 L 817,-855 L 817,-856 L 818,-857 L 820,-859 L 821,-861 L 823,-864 L 824,-867 L 825,-869 L 825,-871 L 824,-873 L 823,-876 L 822,-879 L 822,-880 L 820,-881 L 819,-881 L 818,-880 L 816,-879 L 815,-878 L 814,-877 L 813,-877 L 812,-878 L 811,-879 L 810,-880 L 810,-882 L 810,-883 L 810,-885 L 810,-887 L 818,-887 L 1053,-844 L 1263,-807 L 1264,-807 L 1265,-806 L 1266,-806 L 1266,-805 L 1267,-805 L 1268,-805 L 1268,-804 L 1268,-803 L 1269,-803 L 1270,-802 L 1270,-801 L 1270,-800 L 1269,-800 L 1270,-799 L 1270,-798 L 1271,-798 L 1272,-798 L 1272,-797 L 1273,-797 L 1273,-796 L 1274,-796 L 1275,-796 L 1275,-797 L 1275,-798 L 1276,-798 L 1277,-797 L 1278,-796 L 1279,-796 L 1280,-796 L 1280,-797 L 1281,-797 L 1282,-797 L 1283,-796 L 1284,-796 L 1285,-796 L 1285,-797 L 1286,-797 L 1287,-797 L 1287,-796 L 1288,-796 L 1289,-796 L 1288,-797 L 1288,-798 L 1289,-798 L 1290,-798 L 1291,-798 L 1292,-798 L 1293,-798 L 1293,-797 L 1293,-796 L 1293,-795 L 1294,-795 L 1295,-795 L 1295,-794 L 1296,-794 L 1297,-795 L 1298,-794 L 1299,-794 L 1298,-795 L 1298,-796 L 1298,-797 L 1299,-797 L 1300,-796 L 1301,-796 L 1301,-795 L 1300,-795 L 1299,-794 L 1300,-794 L 1300,-793 L 1301,-793 L 1302,-794 L 1302,-793 L 1303,-793 L 1302,-792 L 1302,-791 L 1301,-791 L 1301,-790 L 1301,-789 L 1300,-789 L 1300,-788 L 1300,-787 L 1301,-787 L 1302,-787 L 1303,-787 L 1304,-787 L 1305,-787 L 1306,-787 L 1307,-787 L 1308,-787 L 1309,-788 L 1309,-789 L 1310,-789 L 1310,-790 L 1309,-790 L 1309,-791 L 1309,-792 L 1310,-792 L 1310,-793 L 1311,-793 L 1311,-792 L 1311,-791 L 1312,-790 L 1312,-789 L 1313,-789 L 1314,-789 L 1314,-790 L 1313,-790 L 1313,-791 L 1314,-791 L 1314,-792 L 1315,-793 L 1316,-793 L 1316,-794 L 1317,-794 L 1317,-793 L 1318,-793 L 1318,-794 L 1319,-794 L 1319,-793 L 1320,-793 L 1321,-793 L 1321,-792 L 1321,-791 L 1320,-791 L 1321,-791 L 1322,-790 L 1323,-790 L 1324,-790 L 1324,-791 L 1324,-792 L 1324,-793 L 1325,-793 L 1326,-792 L 1327,-792 L 1328,-793 L 1244,-704 L 1190,-648 L 832,-643 L 831,-643 L 832,-644 " /></g>
</svg>
