<?xml version="1.0" standalone="no"?><!DOCTYPE svg PUBLIC "-//W3C//DTD SVG 1.1//EN" "http://www.w3.org/Graphics/SVG/1.1/DTD/svg11.dtd"><svg xmlns="http://www.w3.org/2000/svg" viewBox="599 -2107 241 543" version = "1.1">
<g id="80202" ><path d="M 719,-2096 L 718,-2095 L 718,-2093 L 718,-2091 L 717,-2090 L 717,-2089 L 716,-2088 L 715,-2086 L 714,-2085 L 713,-2084 L 713,-2083 L 712,-2081 L 710,-2079 L 709,-2079 L 707,-2079 L 706,-2080 L 704,-2080 L 703,-2079 L 703,-2078 L 703,-2077 L 702,-2075 L 701,-2074 L 701,-2073 L 701,-2072 L 703,-2070 L 705,-2068 L 706,-2067 L 707,-2065 L 708,-2064 L 708,-2062 L 707,-2061 L 706,-2060 L 705,-2058 L 704,-2057 L 704,-2055 L 706,-2053 L 707,-2052 L 709,-2051 L 710,-2049 L 710,-2047 L 711,-2044 L 712,-2043 L 712,-2041 L 713,-2040 L 713,-2038 L 712,-2037 L 711,-2036 L 709,-2035 L 708,-2034 L 708,-2033 L 708,-2031 L 708,-2029 L 708,-2028 L 710,-2027 L 710,-2026 L 710,-2025 L 710,-2023 L 709,-2022 L 709,-2021 L 710,-2020 L 710,-2019 L 712,-2019 L 714,-2018 L 716,-2018 L 719,-2018 L 720,-2018 L 722,-2017 L 725,-2015 L 727,-2013 L 728,-2010 L 729,-2006 L 730,-2002 L 730,-1999 L 730,-1993 L 728,-1988 L 728,-1986 L 729,-1982 L 730,-1980 L 730,-1978 L 730,-1976 L 730,-1975 L 729,-1974 L 728,-1973 L 725,-1972 L 724,-1971 L 724,-1969 L 725,-1968 L 727,-1967 L 729,-1965 L 735,-1961 L 739,-1958 L 742,-1954 L 745,-1950 L 749,-1947 L 752,-1944 L 754,-1941 L 755,-1936 L 756,-1932 L 756,-1928 L 756,-1924 L 754,-1920 L 754,-1918 L 754,-1915 L 756,-1911 L 759,-1908 L 761,-1906 L 761,-1905 L 761,-1903 L 761,-1902 L 759,-1901 L 755,-1899 L 753,-1897 L 749,-1894 L 746,-1891 L 745,-1889 L 744,-1888 L 744,-1887 L 745,-1886 L 748,-1883 L 750,-1880 L 752,-1877 L 752,-1875 L 751,-1871 L 751,-1869 L 749,-1868 L 746,-1867 L 743,-1866 L 739,-1865 L 735,-1864 L 732,-1861 L 728,-1858 L 726,-1856 L 725,-1854 L 724,-1851 L 724,-1850 L 724,-1847 L 725,-1845 L 726,-1843 L 726,-1841 L 726,-1839 L 727,-1838 L 728,-1836 L 729,-1836 L 732,-1837 L 734,-1838 L 736,-1838 L 738,-1837 L 739,-1836 L 740,-1834 L 740,-1832 L 739,-1831 L 738,-1830 L 736,-1829 L 731,-1829 L 728,-1828 L 726,-1827 L 725,-1826 L 724,-1824 L 724,-1821 L 724,-1816 L 725,-1812 L 726,-1807 L 727,-1802 L 729,-1798 L 731,-1795 L 732,-1794 L 736,-1794 L 740,-1793 L 743,-1793 L 745,-1793 L 747,-1793 L 748,-1792 L 748,-1789 L 747,-1788 L 745,-1787 L 743,-1786 L 741,-1787 L 738,-1787 L 736,-1787 L 735,-1787 L 734,-1785 L 733,-1782 L 734,-1778 L 735,-1773 L 736,-1765 L 737,-1756 L 739,-1749 L 741,-1741 L 741,-1738 L 742,-1734 L 742,-1733 L 743,-1731 L 746,-1730 L 749,-1730 L 754,-1728 L 758,-1727 L 762,-1727 L 767,-1727 L 770,-1726 L 773,-1725 L 774,-1722 L 775,-1720 L 775,-1718 L 774,-1717 L 773,-1716 L 771,-1715 L 769,-1713 L 768,-1711 L 768,-1709 L 768,-1706 L 769,-1704 L 768,-1701 L 768,-1699 L 768,-1696 L 767,-1694 L 768,-1692 L 769,-1690 L 770,-1689 L 771,-1685 L 771,-1681 L 770,-1676 L 767,-1672 L 764,-1669 L 762,-1667 L 760,-1666 L 758,-1665 L 758,-1663 L 758,-1662 L 759,-1660 L 763,-1656 L 768,-1652 L 772,-1650 L 777,-1648 L 781,-1646 L 783,-1645 L 785,-1646 L 787,-1646 L 787,-1648 L 787,-1649 L 786,-1650 L 783,-1651 L 781,-1652 L 781,-1654 L 781,-1655 L 782,-1656 L 784,-1657 L 786,-1657 L 791,-1657 L 794,-1657 L 796,-1657 L 799,-1657 L 801,-1657 L 803,-1657 L 806,-1659 L 808,-1662 L 811,-1663 L 813,-1663 L 815,-1662 L 817,-1661 L 818,-1660 L 818,-1657 L 818,-1654 L 819,-1650 L 820,-1647 L 823,-1643 L 824,-1639 L 825,-1635 L 825,-1631 L 825,-1626 L 825,-1621 L 823,-1617 L 822,-1614 L 821,-1611 L 821,-1609 L 822,-1605 L 824,-1603 L 826,-1602 L 829,-1602 L 832,-1602 L 834,-1601 L 837,-1601 L 839,-1600 L 840,-1598 L 840,-1597 L 840,-1594 L 839,-1592 L 839,-1590 L 838,-1588 L 837,-1587 L 836,-1585 L 835,-1584 L 833,-1583 L 831,-1584 L 828,-1585 L 826,-1586 L 824,-1587 L 822,-1587 L 821,-1586 L 821,-1585 L 821,-1583 L 822,-1580 L 823,-1577 L 824,-1575 L 824,-1573 L 824,-1570 L 822,-1567 L 821,-1566 L 820,-1565 L 818,-1564 L 816,-1565 L 814,-1566 L 813,-1568 L 813,-1570 L 813,-1572 L 813,-1574 L 813,-1575 L 812,-1576 L 812,-1577 L 810,-1577 L 809,-1576 L 808,-1574 L 807,-1571 L 805,-1566 L 805,-1564 L 691,-1564 L 690,-1564 L 690,-1565 L 689,-1565 L 688,-1565 L 688,-1566 L 689,-1566 L 689,-1567 L 689,-1568 L 689,-1569 L 689,-1570 L 689,-1571 L 690,-1571 L 689,-1571 L 689,-1572 L 688,-1572 L 687,-1573 L 686,-1574 L 685,-1573 L 684,-1573 L 683,-1573 L 682,-1574 L 682,-1575 L 683,-1575 L 683,-1576 L 682,-1576 L 681,-1576 L 680,-1576 L 679,-1575 L 678,-1575 L 678,-1574 L 677,-1575 L 678,-1575 L 678,-1576 L 677,-1576 L 676,-1576 L 676,-1577 L 677,-1578 L 677,-1579 L 678,-1579 L 678,-1580 L 677,-1581 L 676,-1581 L 676,-1580 L 674,-1580 L 673,-1580 L 672,-1580 L 673,-1580 L 673,-1581 L 674,-1581 L 674,-1582 L 675,-1582 L 675,-1583 L 675,-1584 L 675,-1585 L 675,-1584 L 676,-1584 L 677,-1584 L 677,-1585 L 676,-1585 L 675,-1585 L 675,-1586 L 674,-1586 L 674,-1587 L 674,-1588 L 673,-1588 L 672,-1589 L 672,-1590 L 673,-1590 L 673,-1591 L 673,-1592 L 673,-1593 L 672,-1593 L 671,-1593 L 671,-1594 L 672,-1594 L 673,-1595 L 674,-1595 L 674,-1596 L 675,-1596 L 675,-1597 L 675,-1598 L 676,-1598 L 676,-1597 L 677,-1598 L 678,-1598 L 678,-1599 L 677,-1600 L 677,-1601 L 677,-1602 L 678,-1602 L 679,-1602 L 679,-1603 L 680,-1603 L 680,-1604 L 679,-1605 L 679,-1606 L 678,-1606 L 678,-1607 L 678,-1608 L 678,-1609 L 678,-1610 L 678,-1611 L 679,-1612 L 679,-1613 L 679,-1614 L 678,-1614 L 678,-1615 L 677,-1615 L 677,-1616 L 676,-1616 L 675,-1616 L 675,-1617 L 675,-1618 L 676,-1618 L 675,-1618 L 674,-1618 L 674,-1619 L 673,-1619 L 673,-1620 L 673,-1621 L 672,-1621 L 671,-1621 L 670,-1621 L 669,-1621 L 669,-1622 L 668,-1622 L 669,-1622 L 669,-1623 L 669,-1624 L 669,-1625 L 670,-1625 L 669,-1625 L 668,-1625 L 667,-1626 L 666,-1626 L 666,-1627 L 666,-1628 L 667,-1628 L 667,-1629 L 667,-1630 L 666,-1631 L 666,-1632 L 665,-1632 L 664,-1632 L 664,-1633 L 663,-1633 L 662,-1633 L 662,-1632 L 662,-1633 L 662,-1634 L 663,-1634 L 664,-1634 L 665,-1634 L 665,-1635 L 664,-1635 L 664,-1636 L 663,-1636 L 663,-1637 L 663,-1638 L 664,-1639 L 663,-1640 L 663,-1641 L 662,-1641 L 661,-1641 L 661,-1642 L 660,-1642 L 659,-1643 L 659,-1644 L 660,-1645 L 659,-1646 L 658,-1647 L 658,-1648 L 657,-1649 L 657,-1650 L 656,-1650 L 656,-1651 L 656,-1652 L 657,-1652 L 657,-1653 L 656,-1653 L 655,-1653 L 655,-1654 L 654,-1654 L 654,-1653 L 654,-1654 L 653,-1655 L 653,-1656 L 653,-1657 L 653,-1658 L 652,-1658 L 652,-1659 L 652,-1660 L 651,-1660 L 651,-1661 L 650,-1662 L 649,-1662 L 649,-1663 L 648,-1663 L 648,-1664 L 649,-1664 L 649,-1665 L 649,-1666 L 648,-1666 L 648,-1667 L 647,-1667 L 648,-1667 L 648,-1668 L 649,-1668 L 650,-1668 L 650,-1669 L 651,-1669 L 651,-1670 L 650,-1670 L 649,-1671 L 648,-1672 L 648,-1673 L 648,-1674 L 647,-1674 L 647,-1675 L 646,-1675 L 645,-1675 L 644,-1676 L 643,-1677 L 643,-1678 L 642,-1679 L 642,-1681 L 642,-1682 L 643,-1682 L 644,-1682 L 644,-1683 L 643,-1683 L 643,-1684 L 642,-1684 L 641,-1684 L 641,-1685 L 640,-1685 L 639,-1685 L 639,-1686 L 639,-1687 L 638,-1687 L 638,-1688 L 638,-1689 L 638,-1690 L 638,-1691 L 638,-1692 L 637,-1692 L 637,-1693 L 636,-1693 L 635,-1693 L 635,-1694 L 634,-1694 L 635,-1694 L 635,-1695 L 635,-1696 L 634,-1696 L 633,-1696 L 632,-1696 L 631,-1696 L 630,-1696 L 629,-1696 L 628,-1696 L 627,-1696 L 627,-1695 L 626,-1696 L 625,-1697 L 625,-1698 L 626,-1699 L 626,-1700 L 626,-1701 L 625,-1701 L 626,-1701 L 627,-1702 L 628,-1702 L 628,-1703 L 627,-1703 L 627,-1704 L 626,-1704 L 626,-1705 L 625,-1705 L 625,-1704 L 624,-1704 L 624,-1705 L 624,-1706 L 623,-1706 L 622,-1706 L 622,-1707 L 623,-1707 L 624,-1707 L 624,-1708 L 624,-1707 L 625,-1707 L 626,-1708 L 626,-1709 L 626,-1710 L 625,-1711 L 625,-1712 L 625,-1713 L 625,-1714 L 625,-1715 L 625,-1716 L 625,-1717 L 624,-1717 L 623,-1716 L 622,-1716 L 622,-1717 L 622,-1718 L 623,-1718 L 623,-1719 L 622,-1720 L 621,-1720 L 621,-1721 L 620,-1721 L 620,-1722 L 620,-1723 L 619,-1723 L 618,-1723 L 617,-1723 L 616,-1723 L 615,-1723 L 614,-1723 L 613,-1724 L 613,-1725 L 613,-1726 L 614,-1726 L 614,-1727 L 615,-1728 L 614,-1728 L 613,-1728 L 612,-1728 L 611,-1728 L 610,-1728 L 609,-1728 L 609,-1729 L 610,-1729 L 611,-1729 L 612,-1729 L 612,-1730 L 611,-1730 L 611,-1731 L 611,-1732 L 611,-1733 L 611,-1734 L 611,-1735 L 612,-1735 L 612,-1736 L 613,-1736 L 613,-1737 L 614,-1738 L 613,-1738 L 613,-1740 L 613,-1741 L 613,-1742 L 613,-1743 L 612,-1743 L 612,-1744 L 613,-1745 L 613,-1746 L 613,-1747 L 613,-1748 L 614,-1748 L 614,-1749 L 614,-1750 L 615,-1750 L 616,-1750 L 617,-1750 L 617,-1751 L 616,-1751 L 616,-1752 L 615,-1753 L 615,-1754 L 614,-1755 L 614,-1756 L 615,-1756 L 615,-1757 L 616,-1758 L 617,-1758 L 618,-1757 L 619,-1757 L 620,-1757 L 621,-1758 L 621,-1759 L 621,-1760 L 621,-1761 L 621,-1762 L 621,-1763 L 621,-1764 L 622,-1764 L 622,-1765 L 623,-1765 L 623,-1766 L 624,-1766 L 625,-1765 L 625,-1764 L 625,-1765 L 625,-1766 L 626,-1767 L 627,-1767 L 628,-1768 L 627,-1768 L 626,-1769 L 625,-1769 L 624,-1769 L 624,-1770 L 623,-1770 L 623,-1771 L 622,-1771 L 622,-1772 L 621,-1772 L 621,-1773 L 620,-1773 L 619,-1774 L 620,-1775 L 621,-1775 L 621,-1774 L 622,-1774 L 622,-1773 L 623,-1773 L 624,-1774 L 624,-1775 L 623,-1776 L 622,-1777 L 621,-1777 L 620,-1778 L 621,-1779 L 622,-1779 L 623,-1779 L 624,-1779 L 624,-1780 L 623,-1780 L 623,-1781 L 622,-1781 L 621,-1782 L 621,-1783 L 620,-1783 L 620,-1784 L 620,-1785 L 622,-1785 L 623,-1785 L 623,-1786 L 622,-1787 L 621,-1787 L 620,-1787 L 620,-1788 L 619,-1788 L 618,-1789 L 618,-1790 L 618,-1791 L 619,-1791 L 619,-1792 L 618,-1792 L 618,-1793 L 618,-1794 L 617,-1795 L 617,-1796 L 618,-1796 L 619,-1796 L 620,-1796 L 620,-1795 L 621,-1795 L 621,-1794 L 622,-1794 L 623,-1794 L 623,-1795 L 623,-1796 L 622,-1796 L 622,-1797 L 621,-1797 L 621,-1798 L 621,-1799 L 622,-1799 L 623,-1799 L 623,-1800 L 622,-1801 L 621,-1801 L 619,-1801 L 618,-1801 L 618,-1802 L 617,-1803 L 618,-1803 L 618,-1804 L 617,-1805 L 618,-1805 L 618,-1806 L 619,-1806 L 618,-1806 L 617,-1807 L 617,-1808 L 616,-1809 L 616,-1810 L 616,-1811 L 616,-1812 L 617,-1812 L 617,-1811 L 618,-1811 L 618,-1812 L 618,-1813 L 618,-1814 L 617,-1814 L 617,-1815 L 616,-1816 L 616,-1817 L 615,-1818 L 616,-1819 L 616,-1820 L 617,-1820 L 617,-1821 L 617,-1822 L 616,-1822 L 616,-1823 L 616,-1824 L 616,-1825 L 617,-1825 L 618,-1825 L 618,-1826 L 617,-1826 L 617,-1827 L 617,-1828 L 618,-1828 L 617,-1829 L 616,-1829 L 615,-1830 L 615,-1831 L 616,-1832 L 617,-1832 L 617,-1833 L 618,-1834 L 617,-1835 L 617,-1836 L 616,-1837 L 616,-1838 L 616,-1839 L 616,-1840 L 615,-1841 L 616,-1841 L 617,-1840 L 618,-1840 L 619,-1840 L 619,-1841 L 620,-1841 L 621,-1841 L 621,-1840 L 622,-1840 L 623,-1839 L 623,-1838 L 624,-1838 L 624,-1839 L 625,-1840 L 625,-1841 L 624,-1842 L 624,-1843 L 624,-1844 L 624,-1845 L 623,-1845 L 623,-1846 L 622,-1846 L 621,-1846 L 620,-1845 L 619,-1845 L 619,-1846 L 618,-1846 L 617,-1846 L 617,-1847 L 617,-1848 L 618,-1848 L 619,-1848 L 619,-1849 L 620,-1849 L 621,-1849 L 621,-1850 L 622,-1850 L 623,-1850 L 623,-1848 L 624,-1848 L 625,-1849 L 625,-1850 L 625,-1851 L 624,-1852 L 623,-1851 L 622,-1852 L 621,-1852 L 620,-1852 L 619,-1852 L 619,-1853 L 620,-1853 L 620,-1854 L 619,-1854 L 618,-1855 L 618,-1856 L 619,-1856 L 619,-1855 L 620,-1854 L 621,-1854 L 622,-1854 L 622,-1855 L 623,-1856 L 623,-1857 L 622,-1857 L 622,-1858 L 621,-1858 L 621,-1859 L 620,-1859 L 620,-1860 L 621,-1860 L 622,-1859 L 623,-1859 L 623,-1858 L 623,-1859 L 624,-1859 L 624,-1860 L 623,-1860 L 623,-1861 L 622,-1861 L 621,-1862 L 620,-1862 L 620,-1861 L 619,-1861 L 618,-1861 L 619,-1862 L 620,-1862 L 621,-1862 L 622,-1862 L 623,-1863 L 624,-1863 L 623,-1864 L 623,-1865 L 622,-1865 L 622,-1866 L 621,-1866 L 621,-1867 L 621,-1868 L 620,-1868 L 619,-1868 L 619,-1869 L 620,-1869 L 620,-1870 L 620,-1871 L 619,-1871 L 618,-1871 L 618,-1872 L 618,-1873 L 619,-1874 L 619,-1875 L 620,-1875 L 621,-1875 L 621,-1874 L 622,-1874 L 623,-1874 L 623,-1875 L 622,-1876 L 622,-1877 L 621,-1877 L 621,-1878 L 622,-1878 L 623,-1878 L 623,-1879 L 624,-1879 L 625,-1879 L 625,-1878 L 626,-1878 L 626,-1879 L 625,-1880 L 625,-1881 L 626,-1882 L 626,-1883 L 627,-1883 L 627,-1884 L 627,-1885 L 627,-1886 L 625,-1885 L 624,-1885 L 624,-1886 L 624,-1887 L 624,-1888 L 625,-1889 L 625,-1890 L 625,-1891 L 626,-1892 L 627,-1894 L 627,-1895 L 628,-1895 L 629,-1896 L 630,-1896 L 630,-1897 L 631,-1897 L 631,-1896 L 631,-1895 L 632,-1895 L 632,-1894 L 633,-1895 L 634,-1895 L 634,-1896 L 635,-1896 L 636,-1896 L 635,-1895 L 635,-1894 L 635,-1893 L 636,-1893 L 636,-1892 L 637,-1892 L 638,-1893 L 638,-1894 L 639,-1894 L 639,-1895 L 640,-1895 L 640,-1896 L 639,-1896 L 639,-1897 L 640,-1898 L 641,-1898 L 642,-1898 L 642,-1897 L 642,-1896 L 642,-1895 L 643,-1895 L 644,-1896 L 645,-1896 L 645,-1897 L 645,-1898 L 646,-1898 L 647,-1898 L 648,-1898 L 649,-1898 L 649,-1899 L 650,-1899 L 651,-1899 L 651,-1900 L 650,-1901 L 649,-1902 L 649,-1903 L 650,-1904 L 650,-1905 L 651,-1905 L 652,-1905 L 652,-1904 L 652,-1905 L 653,-1905 L 654,-1906 L 654,-1907 L 654,-1908 L 655,-1909 L 655,-1910 L 655,-1911 L 655,-1912 L 655,-1913 L 655,-1914 L 655,-1915 L 655,-1916 L 656,-1916 L 656,-1917 L 655,-1917 L 654,-1917 L 654,-1918 L 654,-1919 L 654,-1920 L 654,-1921 L 654,-1922 L 655,-1922 L 655,-1923 L 654,-1923 L 652,-1923 L 651,-1923 L 651,-1924 L 651,-1923 L 650,-1923 L 649,-1923 L 649,-1924 L 649,-1925 L 650,-1925 L 651,-1926 L 652,-1926 L 653,-1927 L 654,-1927 L 654,-1928 L 653,-1928 L 652,-1927 L 651,-1927 L 650,-1927 L 650,-1928 L 650,-1929 L 649,-1929 L 648,-1929 L 648,-1930 L 649,-1930 L 650,-1931 L 650,-1932 L 649,-1932 L 648,-1931 L 647,-1931 L 646,-1931 L 646,-1932 L 647,-1933 L 647,-1934 L 647,-1935 L 647,-1936 L 646,-1937 L 647,-1938 L 648,-1938 L 648,-1939 L 647,-1939 L 647,-1940 L 648,-1941 L 649,-1942 L 649,-1943 L 650,-1945 L 651,-1946 L 652,-1947 L 652,-1948 L 653,-1949 L 652,-1949 L 651,-1950 L 650,-1949 L 649,-1949 L 648,-1949 L 648,-1950 L 647,-1950 L 647,-1951 L 646,-1951 L 646,-1952 L 645,-1953 L 645,-1954 L 645,-1955 L 644,-1955 L 644,-1956 L 645,-1957 L 645,-1958 L 646,-1960 L 646,-1961 L 647,-1961 L 648,-1962 L 649,-1962 L 649,-1963 L 649,-1964 L 649,-1965 L 650,-1965 L 650,-1964 L 650,-1963 L 651,-1963 L 652,-1963 L 652,-1964 L 652,-1965 L 652,-1966 L 653,-1966 L 654,-1965 L 655,-1964 L 656,-1964 L 656,-1965 L 657,-1965 L 657,-1966 L 656,-1966 L 656,-1967 L 655,-1968 L 656,-1969 L 656,-1970 L 657,-1970 L 657,-1971 L 658,-1971 L 658,-1970 L 659,-1969 L 660,-1969 L 660,-1968 L 661,-1968 L 660,-1968 L 660,-1967 L 660,-1966 L 660,-1965 L 661,-1965 L 661,-1966 L 662,-1966 L 662,-1967 L 662,-1968 L 662,-1969 L 662,-1970 L 661,-1971 L 660,-1972 L 660,-1973 L 661,-1973 L 662,-1972 L 663,-1973 L 664,-1974 L 664,-1975 L 664,-1976 L 664,-1977 L 663,-1977 L 663,-1978 L 662,-1979 L 661,-1979 L 660,-1979 L 660,-1978 L 660,-1977 L 660,-1976 L 659,-1976 L 659,-1977 L 659,-1978 L 659,-1979 L 659,-1980 L 660,-1981 L 660,-1982 L 659,-1982 L 659,-1983 L 658,-1983 L 657,-1983 L 656,-1983 L 655,-1984 L 654,-1984 L 654,-1983 L 654,-1982 L 655,-1982 L 655,-1981 L 654,-1981 L 653,-1981 L 653,-1982 L 653,-1983 L 653,-1984 L 654,-1984 L 654,-1985 L 654,-1986 L 653,-1987 L 652,-1987 L 651,-1987 L 650,-1987 L 649,-1987 L 649,-1988 L 649,-1989 L 639,-1989 L 623,-1988 L 611,-1990 L 599,-1998 L 604,-2002 L 607,-2005 L 610,-2016 L 609,-2019 L 608,-2021 L 606,-2024 L 602,-2030 L 600,-2035 L 599,-2036 L 599,-2038 L 599,-2040 L 599,-2041 L 600,-2043 L 601,-2045 L 603,-2045 L 604,-2045 L 607,-2045 L 615,-2045 L 616,-2046 L 621,-2045 L 628,-2045 L 633,-2046 L 634,-2046 L 635,-2047 L 636,-2047 L 636,-2048 L 636,-2049 L 636,-2051 L 636,-2052 L 637,-2052 L 637,-2053 L 638,-2054 L 640,-2054 L 644,-2055 L 646,-2055 L 648,-2055 L 649,-2055 L 650,-2056 L 651,-2057 L 652,-2060 L 653,-2060 L 653,-2061 L 655,-2062 L 658,-2064 L 659,-2064 L 660,-2065 L 662,-2065 L 663,-2066 L 664,-2066 L 665,-2066 L 666,-2066 L 667,-2066 L 668,-2067 L 671,-2068 L 674,-2068 L 677,-2070 L 679,-2073 L 680,-2074 L 681,-2076 L 682,-2080 L 682,-2085 L 682,-2086 L 683,-2087 L 683,-2088 L 684,-2088 L 686,-2090 L 687,-2091 L 688,-2092 L 690,-2093 L 694,-2095 L 695,-2096 L 697,-2096 L 699,-2096 L 700,-2096 L 702,-2095 L 703,-2095 L 705,-2095 L 707,-2095 L 709,-2096 L 710,-2097 L 711,-2098 L 711,-2100 L 712,-2101 L 712,-2102 L 712,-2103 L 712,-2104 L 713,-2105 L 714,-2106 L 714,-2107 L 716,-2104 L 718,-2101 L 718,-2100 L 719,-2098 L 719,-2096 " /></g>
</svg>
