<?xml version="1.0" standalone="no"?><!DOCTYPE svg PUBLIC "-//W3C//DTD SVG 1.1//EN" "http://www.w3.org/Graphics/SVG/1.1/DTD/svg11.dtd"><svg xmlns="http://www.w3.org/2000/svg" viewBox="181 -2004 510 442" version = "1.1">
<g id="80201" ><path d="M 568,-1986 L 570,-1985 L 573,-1985 L 577,-1987 L 581,-1990 L 587,-1992 L 593,-1994 L 599,-1998 L 611,-1990 L 623,-1988 L 639,-1989 L 649,-1989 L 649,-1988 L 649,-1987 L 650,-1987 L 651,-1987 L 652,-1987 L 653,-1987 L 654,-1986 L 654,-1985 L 654,-1984 L 653,-1984 L 653,-1983 L 653,-1982 L 653,-1981 L 654,-1981 L 655,-1981 L 655,-1982 L 654,-1982 L 654,-1983 L 654,-1984 L 655,-1984 L 656,-1983 L 657,-1983 L 658,-1983 L 659,-1983 L 659,-1982 L 660,-1982 L 660,-1981 L 659,-1980 L 659,-1979 L 659,-1978 L 659,-1977 L 659,-1976 L 660,-1976 L 660,-1977 L 660,-1978 L 660,-1979 L 661,-1979 L 662,-1979 L 663,-1978 L 663,-1977 L 664,-1977 L 664,-1976 L 664,-1975 L 664,-1974 L 663,-1973 L 662,-1972 L 661,-1973 L 660,-1973 L 660,-1972 L 661,-1971 L 662,-1970 L 662,-1969 L 662,-1968 L 662,-1967 L 662,-1966 L 661,-1966 L 661,-1965 L 660,-1965 L 660,-1966 L 660,-1967 L 660,-1968 L 661,-1968 L 660,-1968 L 660,-1969 L 659,-1969 L 658,-1970 L 658,-1971 L 657,-1971 L 657,-1970 L 656,-1970 L 656,-1969 L 655,-1968 L 656,-1967 L 656,-1966 L 657,-1966 L 657,-1965 L 656,-1965 L 656,-1964 L 655,-1964 L 654,-1965 L 653,-1966 L 652,-1966 L 652,-1965 L 652,-1964 L 652,-1963 L 651,-1963 L 650,-1963 L 650,-1964 L 650,-1965 L 649,-1965 L 649,-1964 L 649,-1963 L 649,-1962 L 648,-1962 L 647,-1961 L 646,-1961 L 646,-1960 L 645,-1958 L 645,-1957 L 644,-1956 L 644,-1955 L 645,-1955 L 645,-1954 L 645,-1953 L 646,-1952 L 646,-1951 L 647,-1951 L 647,-1950 L 648,-1950 L 648,-1949 L 649,-1949 L 650,-1949 L 651,-1950 L 652,-1949 L 653,-1949 L 652,-1948 L 652,-1947 L 651,-1946 L 650,-1945 L 649,-1943 L 649,-1942 L 648,-1941 L 647,-1940 L 647,-1939 L 648,-1939 L 648,-1938 L 647,-1938 L 646,-1937 L 647,-1936 L 647,-1935 L 647,-1934 L 647,-1933 L 646,-1932 L 646,-1931 L 647,-1931 L 648,-1931 L 649,-1932 L 650,-1932 L 650,-1931 L 649,-1930 L 648,-1930 L 648,-1929 L 649,-1929 L 650,-1929 L 650,-1928 L 650,-1927 L 651,-1927 L 652,-1927 L 653,-1928 L 654,-1928 L 654,-1927 L 653,-1927 L 652,-1926 L 651,-1926 L 650,-1925 L 649,-1925 L 649,-1924 L 649,-1923 L 650,-1923 L 651,-1923 L 651,-1924 L 651,-1923 L 652,-1923 L 654,-1923 L 655,-1923 L 655,-1922 L 654,-1922 L 654,-1921 L 654,-1920 L 654,-1919 L 654,-1918 L 654,-1917 L 655,-1917 L 656,-1917 L 656,-1916 L 655,-1916 L 655,-1915 L 655,-1914 L 655,-1913 L 655,-1912 L 655,-1911 L 655,-1910 L 655,-1909 L 654,-1908 L 654,-1907 L 654,-1906 L 653,-1905 L 652,-1905 L 652,-1904 L 652,-1905 L 651,-1905 L 650,-1905 L 650,-1904 L 649,-1903 L 649,-1902 L 650,-1901 L 651,-1900 L 651,-1899 L 650,-1899 L 649,-1899 L 649,-1898 L 648,-1898 L 647,-1898 L 646,-1898 L 645,-1898 L 645,-1897 L 645,-1896 L 644,-1896 L 643,-1895 L 642,-1895 L 642,-1896 L 642,-1897 L 642,-1898 L 641,-1898 L 640,-1898 L 639,-1897 L 639,-1896 L 640,-1896 L 640,-1895 L 639,-1895 L 639,-1894 L 638,-1894 L 638,-1893 L 637,-1892 L 636,-1892 L 636,-1893 L 635,-1893 L 635,-1894 L 635,-1895 L 636,-1896 L 635,-1896 L 634,-1896 L 634,-1895 L 633,-1895 L 632,-1894 L 632,-1895 L 631,-1895 L 631,-1896 L 631,-1897 L 630,-1897 L 630,-1896 L 629,-1896 L 628,-1895 L 627,-1895 L 627,-1894 L 626,-1892 L 625,-1891 L 625,-1890 L 625,-1889 L 624,-1888 L 624,-1887 L 624,-1886 L 624,-1885 L 625,-1885 L 627,-1886 L 627,-1885 L 627,-1884 L 627,-1883 L 626,-1883 L 626,-1882 L 625,-1881 L 625,-1880 L 626,-1879 L 626,-1878 L 625,-1878 L 625,-1879 L 624,-1879 L 623,-1879 L 623,-1878 L 622,-1878 L 621,-1878 L 621,-1877 L 622,-1877 L 622,-1876 L 623,-1875 L 623,-1874 L 622,-1874 L 621,-1874 L 621,-1875 L 620,-1875 L 619,-1875 L 619,-1874 L 618,-1873 L 618,-1872 L 618,-1871 L 619,-1871 L 620,-1871 L 620,-1870 L 620,-1869 L 619,-1869 L 619,-1868 L 620,-1868 L 621,-1868 L 621,-1867 L 621,-1866 L 622,-1866 L 622,-1865 L 623,-1865 L 623,-1864 L 624,-1863 L 623,-1863 L 622,-1862 L 621,-1862 L 620,-1862 L 619,-1862 L 618,-1861 L 619,-1861 L 620,-1861 L 620,-1862 L 621,-1862 L 622,-1861 L 623,-1861 L 623,-1860 L 624,-1860 L 624,-1859 L 623,-1859 L 623,-1858 L 623,-1859 L 622,-1859 L 621,-1860 L 620,-1860 L 620,-1859 L 621,-1859 L 621,-1858 L 622,-1858 L 622,-1857 L 623,-1857 L 623,-1856 L 622,-1855 L 622,-1854 L 621,-1854 L 620,-1854 L 619,-1855 L 619,-1856 L 618,-1856 L 618,-1855 L 619,-1854 L 620,-1854 L 620,-1853 L 619,-1853 L 619,-1852 L 620,-1852 L 621,-1852 L 622,-1852 L 623,-1851 L 624,-1852 L 625,-1851 L 625,-1850 L 625,-1849 L 624,-1848 L 623,-1848 L 623,-1850 L 622,-1850 L 621,-1850 L 621,-1849 L 620,-1849 L 619,-1849 L 619,-1848 L 618,-1848 L 617,-1848 L 617,-1847 L 617,-1846 L 618,-1846 L 619,-1846 L 619,-1845 L 620,-1845 L 621,-1846 L 622,-1846 L 623,-1846 L 623,-1845 L 624,-1845 L 624,-1844 L 624,-1843 L 624,-1842 L 625,-1841 L 625,-1840 L 624,-1839 L 624,-1838 L 623,-1838 L 623,-1839 L 622,-1840 L 621,-1840 L 621,-1841 L 620,-1841 L 619,-1841 L 619,-1840 L 618,-1840 L 617,-1840 L 616,-1841 L 615,-1841 L 616,-1840 L 616,-1839 L 616,-1838 L 616,-1837 L 617,-1836 L 617,-1835 L 618,-1834 L 617,-1833 L 617,-1832 L 616,-1832 L 615,-1831 L 615,-1830 L 616,-1829 L 617,-1829 L 618,-1828 L 617,-1828 L 617,-1827 L 617,-1826 L 618,-1826 L 618,-1825 L 617,-1825 L 616,-1825 L 616,-1824 L 616,-1823 L 616,-1822 L 617,-1822 L 617,-1821 L 617,-1820 L 616,-1820 L 616,-1819 L 615,-1818 L 616,-1817 L 616,-1816 L 617,-1815 L 617,-1814 L 618,-1814 L 618,-1813 L 618,-1812 L 618,-1811 L 617,-1811 L 617,-1812 L 616,-1812 L 616,-1811 L 616,-1810 L 616,-1809 L 617,-1808 L 617,-1807 L 618,-1806 L 619,-1806 L 618,-1806 L 618,-1805 L 617,-1805 L 618,-1804 L 618,-1803 L 617,-1803 L 618,-1802 L 618,-1801 L 619,-1801 L 621,-1801 L 622,-1801 L 623,-1800 L 623,-1799 L 622,-1799 L 621,-1799 L 621,-1798 L 621,-1797 L 622,-1797 L 622,-1796 L 623,-1796 L 623,-1795 L 623,-1794 L 622,-1794 L 621,-1794 L 621,-1795 L 620,-1795 L 620,-1796 L 619,-1796 L 618,-1796 L 617,-1796 L 617,-1795 L 618,-1794 L 618,-1793 L 618,-1792 L 619,-1792 L 619,-1791 L 618,-1791 L 618,-1790 L 618,-1789 L 619,-1788 L 620,-1788 L 620,-1787 L 621,-1787 L 622,-1787 L 623,-1786 L 623,-1785 L 622,-1785 L 620,-1785 L 620,-1784 L 620,-1783 L 621,-1783 L 621,-1782 L 622,-1781 L 623,-1781 L 623,-1780 L 624,-1780 L 624,-1779 L 623,-1779 L 622,-1779 L 621,-1779 L 620,-1778 L 621,-1777 L 622,-1777 L 623,-1776 L 624,-1775 L 624,-1774 L 623,-1773 L 622,-1773 L 622,-1774 L 621,-1774 L 621,-1775 L 620,-1775 L 619,-1774 L 620,-1773 L 621,-1773 L 621,-1772 L 622,-1772 L 622,-1771 L 623,-1771 L 623,-1770 L 624,-1770 L 624,-1769 L 625,-1769 L 626,-1769 L 627,-1768 L 628,-1768 L 627,-1767 L 626,-1767 L 625,-1766 L 625,-1765 L 625,-1764 L 625,-1765 L 624,-1766 L 623,-1766 L 623,-1765 L 622,-1765 L 622,-1764 L 621,-1764 L 621,-1763 L 621,-1762 L 621,-1761 L 621,-1760 L 621,-1759 L 621,-1758 L 620,-1757 L 619,-1757 L 618,-1757 L 617,-1758 L 616,-1758 L 615,-1757 L 615,-1756 L 614,-1756 L 614,-1755 L 615,-1754 L 615,-1753 L 616,-1752 L 616,-1751 L 617,-1751 L 617,-1750 L 616,-1750 L 615,-1750 L 614,-1750 L 614,-1749 L 614,-1748 L 613,-1748 L 613,-1747 L 613,-1746 L 613,-1745 L 612,-1744 L 612,-1743 L 613,-1743 L 613,-1742 L 613,-1741 L 613,-1740 L 613,-1738 L 614,-1738 L 613,-1737 L 613,-1736 L 612,-1736 L 612,-1735 L 611,-1735 L 611,-1734 L 611,-1733 L 611,-1732 L 611,-1731 L 611,-1730 L 612,-1730 L 612,-1729 L 611,-1729 L 610,-1729 L 609,-1729 L 609,-1728 L 610,-1728 L 611,-1728 L 612,-1728 L 613,-1728 L 614,-1728 L 615,-1728 L 614,-1727 L 614,-1726 L 613,-1726 L 613,-1725 L 613,-1724 L 614,-1723 L 615,-1723 L 616,-1723 L 617,-1723 L 618,-1723 L 619,-1723 L 620,-1723 L 620,-1722 L 620,-1721 L 621,-1721 L 621,-1720 L 622,-1720 L 623,-1719 L 623,-1718 L 622,-1718 L 622,-1717 L 622,-1716 L 623,-1716 L 624,-1717 L 625,-1717 L 625,-1716 L 625,-1715 L 625,-1714 L 625,-1713 L 625,-1712 L 625,-1711 L 626,-1710 L 626,-1709 L 626,-1708 L 625,-1707 L 624,-1707 L 624,-1708 L 624,-1707 L 623,-1707 L 622,-1707 L 622,-1706 L 623,-1706 L 624,-1706 L 624,-1705 L 624,-1704 L 625,-1704 L 625,-1705 L 626,-1705 L 626,-1704 L 627,-1704 L 627,-1703 L 628,-1703 L 628,-1702 L 627,-1702 L 626,-1701 L 625,-1701 L 626,-1701 L 626,-1700 L 626,-1699 L 625,-1698 L 625,-1697 L 626,-1696 L 627,-1695 L 627,-1696 L 628,-1696 L 629,-1696 L 630,-1696 L 631,-1696 L 632,-1696 L 633,-1696 L 634,-1696 L 635,-1696 L 635,-1695 L 635,-1694 L 634,-1694 L 635,-1694 L 635,-1693 L 636,-1693 L 637,-1693 L 637,-1692 L 638,-1692 L 638,-1691 L 638,-1690 L 638,-1689 L 638,-1688 L 638,-1687 L 639,-1687 L 639,-1686 L 639,-1685 L 640,-1685 L 641,-1685 L 641,-1684 L 642,-1684 L 643,-1684 L 643,-1683 L 644,-1683 L 644,-1682 L 643,-1682 L 642,-1682 L 642,-1681 L 642,-1679 L 643,-1678 L 643,-1677 L 644,-1676 L 645,-1675 L 646,-1675 L 647,-1675 L 647,-1674 L 648,-1674 L 648,-1673 L 648,-1672 L 649,-1671 L 650,-1670 L 651,-1670 L 651,-1669 L 650,-1669 L 650,-1668 L 649,-1668 L 648,-1668 L 648,-1667 L 647,-1667 L 648,-1667 L 648,-1666 L 649,-1666 L 649,-1665 L 649,-1664 L 648,-1664 L 648,-1663 L 649,-1663 L 649,-1662 L 650,-1662 L 651,-1661 L 651,-1660 L 652,-1660 L 652,-1659 L 652,-1658 L 653,-1658 L 653,-1657 L 653,-1656 L 653,-1655 L 654,-1654 L 654,-1653 L 654,-1654 L 655,-1654 L 655,-1653 L 656,-1653 L 657,-1653 L 657,-1652 L 656,-1652 L 656,-1651 L 656,-1650 L 657,-1650 L 657,-1649 L 658,-1648 L 658,-1647 L 659,-1646 L 660,-1645 L 659,-1644 L 659,-1643 L 660,-1642 L 661,-1642 L 661,-1641 L 662,-1641 L 663,-1641 L 663,-1640 L 664,-1639 L 663,-1638 L 663,-1637 L 663,-1636 L 664,-1636 L 664,-1635 L 665,-1635 L 665,-1634 L 664,-1634 L 663,-1634 L 662,-1634 L 662,-1633 L 662,-1632 L 662,-1633 L 663,-1633 L 664,-1633 L 664,-1632 L 665,-1632 L 666,-1632 L 666,-1631 L 667,-1630 L 667,-1629 L 667,-1628 L 666,-1628 L 666,-1627 L 666,-1626 L 667,-1626 L 668,-1625 L 669,-1625 L 670,-1625 L 669,-1625 L 669,-1624 L 669,-1623 L 669,-1622 L 668,-1622 L 669,-1622 L 669,-1621 L 670,-1621 L 671,-1621 L 672,-1621 L 673,-1621 L 673,-1620 L 673,-1619 L 674,-1619 L 674,-1618 L 675,-1618 L 676,-1618 L 675,-1618 L 675,-1617 L 675,-1616 L 676,-1616 L 677,-1616 L 677,-1615 L 678,-1615 L 678,-1614 L 679,-1614 L 679,-1613 L 679,-1612 L 678,-1611 L 678,-1610 L 678,-1609 L 678,-1608 L 678,-1607 L 678,-1606 L 679,-1606 L 679,-1605 L 680,-1604 L 680,-1603 L 679,-1603 L 679,-1602 L 678,-1602 L 677,-1602 L 677,-1601 L 677,-1600 L 678,-1599 L 678,-1598 L 677,-1598 L 676,-1597 L 676,-1598 L 675,-1598 L 675,-1597 L 675,-1596 L 674,-1596 L 674,-1595 L 673,-1595 L 672,-1594 L 671,-1594 L 671,-1593 L 672,-1593 L 673,-1593 L 673,-1592 L 673,-1591 L 673,-1590 L 672,-1590 L 672,-1589 L 673,-1588 L 674,-1588 L 674,-1587 L 674,-1586 L 675,-1586 L 675,-1585 L 676,-1585 L 677,-1585 L 677,-1584 L 676,-1584 L 675,-1584 L 675,-1585 L 675,-1584 L 675,-1583 L 675,-1582 L 674,-1582 L 674,-1581 L 673,-1581 L 673,-1580 L 672,-1580 L 673,-1580 L 674,-1580 L 676,-1580 L 676,-1581 L 677,-1581 L 678,-1580 L 678,-1579 L 677,-1579 L 677,-1578 L 676,-1577 L 676,-1576 L 677,-1576 L 678,-1576 L 678,-1575 L 677,-1575 L 678,-1574 L 678,-1575 L 679,-1575 L 680,-1576 L 681,-1576 L 682,-1576 L 683,-1576 L 683,-1575 L 682,-1575 L 682,-1574 L 683,-1573 L 684,-1573 L 685,-1573 L 686,-1574 L 687,-1573 L 688,-1572 L 689,-1572 L 689,-1571 L 690,-1571 L 689,-1571 L 689,-1570 L 689,-1569 L 689,-1568 L 689,-1567 L 689,-1566 L 688,-1566 L 688,-1565 L 689,-1565 L 690,-1565 L 690,-1564 L 691,-1564 L 420,-1564 L 301,-1562 L 210,-1562 L 210,-1563 L 209,-1566 L 208,-1568 L 207,-1571 L 207,-1573 L 207,-1575 L 207,-1577 L 206,-1578 L 206,-1579 L 205,-1580 L 204,-1581 L 203,-1581 L 203,-1580 L 202,-1580 L 201,-1579 L 200,-1579 L 199,-1579 L 199,-1580 L 198,-1580 L 198,-1581 L 198,-1582 L 198,-1583 L 199,-1585 L 199,-1586 L 199,-1587 L 199,-1588 L 199,-1589 L 198,-1590 L 196,-1592 L 194,-1593 L 192,-1594 L 191,-1594 L 190,-1593 L 189,-1593 L 189,-1592 L 189,-1590 L 190,-1588 L 191,-1586 L 191,-1585 L 190,-1584 L 189,-1584 L 187,-1586 L 185,-1588 L 183,-1590 L 182,-1593 L 181,-1595 L 181,-1597 L 182,-1599 L 184,-1599 L 185,-1599 L 186,-1598 L 187,-1598 L 188,-1599 L 189,-1600 L 189,-1601 L 189,-1603 L 189,-1604 L 190,-1605 L 191,-1605 L 192,-1605 L 193,-1604 L 194,-1605 L 196,-1605 L 197,-1606 L 199,-1608 L 202,-1609 L 203,-1609 L 205,-1610 L 207,-1610 L 208,-1610 L 210,-1611 L 212,-1613 L 215,-1617 L 218,-1620 L 221,-1622 L 222,-1623 L 223,-1624 L 223,-1625 L 222,-1626 L 220,-1626 L 219,-1627 L 218,-1628 L 217,-1629 L 217,-1630 L 217,-1632 L 218,-1633 L 217,-1635 L 217,-1637 L 216,-1638 L 214,-1640 L 213,-1640 L 212,-1640 L 209,-1639 L 206,-1638 L 205,-1637 L 203,-1637 L 202,-1637 L 202,-1639 L 202,-1643 L 203,-1646 L 204,-1649 L 205,-1649 L 206,-1650 L 209,-1650 L 212,-1650 L 215,-1650 L 216,-1650 L 218,-1650 L 219,-1649 L 220,-1648 L 221,-1646 L 223,-1644 L 224,-1643 L 226,-1642 L 227,-1642 L 228,-1642 L 229,-1643 L 229,-1644 L 229,-1648 L 230,-1651 L 231,-1655 L 231,-1658 L 232,-1660 L 233,-1662 L 234,-1664 L 236,-1665 L 238,-1666 L 240,-1666 L 243,-1666 L 246,-1667 L 248,-1667 L 250,-1666 L 251,-1665 L 251,-1664 L 251,-1662 L 250,-1660 L 249,-1659 L 247,-1657 L 245,-1656 L 244,-1655 L 243,-1654 L 243,-1653 L 243,-1651 L 245,-1650 L 246,-1649 L 248,-1649 L 249,-1649 L 251,-1650 L 252,-1651 L 253,-1652 L 254,-1654 L 254,-1656 L 254,-1659 L 254,-1660 L 254,-1661 L 256,-1662 L 258,-1663 L 260,-1664 L 262,-1666 L 267,-1668 L 269,-1669 L 271,-1670 L 272,-1672 L 273,-1674 L 273,-1676 L 273,-1678 L 272,-1678 L 271,-1679 L 269,-1679 L 268,-1679 L 266,-1679 L 265,-1678 L 264,-1679 L 263,-1680 L 264,-1681 L 265,-1682 L 266,-1683 L 266,-1684 L 267,-1686 L 268,-1688 L 269,-1690 L 271,-1691 L 271,-1692 L 271,-1693 L 271,-1694 L 269,-1695 L 268,-1696 L 267,-1696 L 265,-1695 L 264,-1695 L 262,-1696 L 260,-1697 L 258,-1698 L 256,-1699 L 255,-1700 L 254,-1701 L 254,-1702 L 255,-1703 L 257,-1704 L 259,-1706 L 261,-1707 L 264,-1708 L 268,-1709 L 271,-1710 L 274,-1711 L 276,-1711 L 278,-1711 L 279,-1710 L 281,-1710 L 282,-1709 L 283,-1711 L 283,-1713 L 283,-1716 L 283,-1718 L 282,-1721 L 281,-1725 L 280,-1727 L 278,-1730 L 276,-1732 L 275,-1734 L 272,-1735 L 270,-1736 L 268,-1736 L 267,-1736 L 265,-1736 L 264,-1736 L 264,-1737 L 264,-1738 L 266,-1741 L 269,-1746 L 271,-1748 L 273,-1749 L 275,-1750 L 277,-1751 L 279,-1750 L 281,-1750 L 284,-1749 L 286,-1747 L 288,-1745 L 290,-1744 L 292,-1743 L 293,-1741 L 294,-1741 L 295,-1740 L 296,-1741 L 297,-1742 L 297,-1744 L 297,-1747 L 296,-1753 L 295,-1755 L 295,-1756 L 296,-1756 L 297,-1757 L 298,-1757 L 300,-1756 L 303,-1756 L 308,-1755 L 312,-1755 L 315,-1756 L 317,-1757 L 320,-1759 L 322,-1760 L 324,-1760 L 326,-1760 L 329,-1759 L 331,-1759 L 333,-1759 L 334,-1759 L 336,-1758 L 337,-1758 L 338,-1756 L 338,-1755 L 338,-1754 L 339,-1753 L 339,-1752 L 340,-1751 L 341,-1751 L 343,-1751 L 344,-1751 L 345,-1753 L 347,-1754 L 348,-1755 L 349,-1755 L 351,-1756 L 352,-1756 L 353,-1756 L 354,-1757 L 355,-1758 L 355,-1759 L 354,-1761 L 353,-1762 L 353,-1763 L 353,-1765 L 354,-1766 L 355,-1768 L 357,-1769 L 358,-1770 L 359,-1771 L 361,-1772 L 362,-1773 L 364,-1774 L 366,-1774 L 368,-1774 L 371,-1773 L 374,-1773 L 377,-1772 L 379,-1772 L 382,-1773 L 385,-1774 L 388,-1775 L 390,-1776 L 391,-1776 L 395,-1777 L 398,-1777 L 400,-1777 L 402,-1778 L 403,-1779 L 403,-1780 L 403,-1781 L 402,-1782 L 401,-1782 L 399,-1782 L 398,-1783 L 397,-1783 L 397,-1785 L 397,-1786 L 396,-1787 L 396,-1788 L 397,-1790 L 399,-1791 L 401,-1792 L 403,-1793 L 406,-1793 L 408,-1794 L 410,-1794 L 413,-1793 L 415,-1792 L 419,-1791 L 422,-1789 L 424,-1788 L 426,-1786 L 428,-1785 L 430,-1784 L 432,-1784 L 433,-1785 L 434,-1786 L 434,-1788 L 434,-1789 L 433,-1790 L 432,-1792 L 431,-1794 L 430,-1796 L 428,-1797 L 427,-1798 L 424,-1800 L 421,-1801 L 419,-1802 L 418,-1804 L 417,-1805 L 417,-1806 L 417,-1807 L 418,-1808 L 419,-1808 L 421,-1807 L 422,-1807 L 424,-1808 L 425,-1809 L 426,-1810 L 425,-1811 L 424,-1813 L 423,-1814 L 422,-1815 L 421,-1816 L 420,-1818 L 419,-1820 L 420,-1824 L 420,-1826 L 421,-1828 L 422,-1829 L 423,-1830 L 425,-1830 L 426,-1829 L 427,-1828 L 427,-1827 L 428,-1826 L 429,-1825 L 430,-1826 L 434,-1827 L 437,-1828 L 440,-1830 L 442,-1831 L 444,-1834 L 447,-1836 L 448,-1838 L 448,-1839 L 447,-1841 L 447,-1847 L 446,-1850 L 445,-1853 L 444,-1855 L 443,-1856 L 441,-1857 L 439,-1858 L 438,-1858 L 438,-1859 L 439,-1861 L 441,-1867 L 443,-1870 L 444,-1872 L 444,-1874 L 445,-1874 L 446,-1874 L 447,-1874 L 448,-1873 L 450,-1871 L 453,-1867 L 455,-1862 L 455,-1859 L 456,-1857 L 456,-1855 L 457,-1854 L 459,-1854 L 461,-1854 L 464,-1855 L 466,-1857 L 468,-1860 L 468,-1863 L 469,-1866 L 469,-1868 L 469,-1871 L 467,-1874 L 466,-1876 L 464,-1878 L 463,-1881 L 462,-1882 L 462,-1884 L 462,-1885 L 464,-1885 L 466,-1885 L 470,-1884 L 472,-1883 L 474,-1882 L 475,-1882 L 477,-1882 L 479,-1882 L 479,-1883 L 478,-1884 L 477,-1885 L 475,-1885 L 474,-1886 L 474,-1888 L 474,-1892 L 476,-1895 L 477,-1898 L 479,-1903 L 480,-1902 L 483,-1902 L 484,-1902 L 486,-1902 L 488,-1902 L 490,-1903 L 491,-1904 L 491,-1905 L 492,-1907 L 493,-1914 L 494,-1919 L 494,-1924 L 493,-1928 L 494,-1932 L 495,-1934 L 497,-1937 L 500,-1938 L 503,-1940 L 505,-1942 L 506,-1945 L 505,-1947 L 503,-1948 L 500,-1948 L 498,-1947 L 496,-1946 L 494,-1944 L 491,-1944 L 489,-1944 L 486,-1945 L 484,-1947 L 484,-1949 L 486,-1950 L 488,-1952 L 492,-1954 L 495,-1956 L 499,-1958 L 506,-1962 L 510,-1963 L 513,-1966 L 516,-1967 L 518,-1967 L 520,-1967 L 523,-1966 L 527,-1964 L 532,-1962 L 536,-1959 L 539,-1957 L 542,-1956 L 545,-1956 L 550,-1956 L 554,-1955 L 557,-1955 L 559,-1955 L 560,-1956 L 560,-1959 L 561,-1965 L 561,-1969 L 560,-1972 L 554,-1977 L 550,-1981 L 546,-1983 L 543,-1985 L 542,-1986 L 542,-1988 L 542,-1990 L 545,-1995 L 548,-1999 L 550,-2002 L 552,-2003 L 554,-2004 L 556,-2003 L 557,-2002 L 559,-2000 L 561,-1997 L 564,-1994 L 565,-1991 L 566,-1988 L 568,-1986 " /></g>
</svg>
