<?xml version="1.0" standalone="no"?><!DOCTYPE svg PUBLIC "-//W3C//DTD SVG 1.1//EN" "http://www.w3.org/Graphics/SVG/1.1/DTD/svg11.dtd"><svg xmlns="http://www.w3.org/2000/svg" viewBox="-13 -1562 323 883" version = "1.1">
<g id="80301" ><path d="M 301,-1556 L 301,-1555 L 302,-1555 L 301,-1555 L 300,-1555 L 301,-1555 L 300,-1556 L 300,-1555 L 300,-1556 L 299,-1556 L 299,-1555 L 298,-1554 L 297,-1554 L 297,-1553 L 296,-1553 L 296,-1552 L 296,-1551 L 295,-1551 L 295,-1550 L 296,-1550 L 296,-1549 L 297,-1548 L 297,-1549 L 298,-1549 L 298,-1548 L 298,-1549 L 299,-1549 L 299,-1548 L 299,-1549 L 300,-1549 L 300,-1548 L 301,-1548 L 301,-1547 L 302,-1547 L 303,-1547 L 303,-1546 L 303,-1545 L 304,-1545 L 304,-1546 L 305,-1546 L 305,-1545 L 306,-1545 L 307,-1545 L 307,-1544 L 308,-1544 L 308,-1543 L 309,-1543 L 309,-1542 L 309,-1541 L 309,-1540 L 309,-1539 L 309,-1540 L 308,-1540 L 308,-1539 L 308,-1538 L 307,-1538 L 306,-1538 L 305,-1538 L 305,-1537 L 306,-1537 L 305,-1537 L 305,-1536 L 305,-1535 L 304,-1535 L 304,-1536 L 303,-1536 L 303,-1535 L 302,-1535 L 302,-1534 L 301,-1535 L 301,-1534 L 300,-1534 L 300,-1533 L 300,-1532 L 299,-1531 L 299,-1530 L 298,-1529 L 298,-1528 L 298,-1527 L 298,-1528 L 299,-1528 L 299,-1527 L 300,-1527 L 300,-1528 L 301,-1528 L 302,-1528 L 302,-1529 L 302,-1528 L 303,-1528 L 303,-1529 L 304,-1529 L 304,-1530 L 305,-1530 L 306,-1530 L 307,-1530 L 307,-1531 L 308,-1531 L 309,-1531 L 309,-1530 L 310,-1530 L 310,-1529 L 310,-1528 L 309,-1528 L 309,-1527 L 310,-1527 L 309,-1527 L 308,-1527 L 308,-1528 L 308,-1527 L 307,-1527 L 307,-1526 L 306,-1526 L 305,-1526 L 306,-1526 L 306,-1525 L 305,-1525 L 304,-1525 L 304,-1524 L 305,-1524 L 304,-1524 L 304,-1523 L 303,-1524 L 303,-1523 L 302,-1523 L 302,-1524 L 301,-1524 L 301,-1523 L 300,-1523 L 300,-1522 L 300,-1523 L 299,-1523 L 299,-1522 L 298,-1522 L 299,-1522 L 299,-1521 L 298,-1521 L 298,-1522 L 297,-1522 L 297,-1521 L 296,-1521 L 295,-1521 L 294,-1521 L 295,-1520 L 294,-1520 L 294,-1519 L 295,-1518 L 296,-1518 L 297,-1518 L 296,-1517 L 297,-1517 L 298,-1517 L 298,-1516 L 298,-1515 L 299,-1515 L 298,-1515 L 299,-1514 L 300,-1514 L 299,-1514 L 299,-1513 L 300,-1513 L 300,-1512 L 300,-1511 L 300,-1510 L 301,-1510 L 301,-1509 L 301,-1510 L 300,-1510 L 300,-1509 L 299,-1509 L 299,-1508 L 299,-1507 L 298,-1507 L 298,-1508 L 298,-1507 L 297,-1507 L 297,-1506 L 298,-1506 L 298,-1507 L 298,-1506 L 299,-1506 L 299,-1505 L 300,-1505 L 301,-1505 L 302,-1505 L 301,-1505 L 301,-1504 L 301,-1503 L 302,-1504 L 302,-1503 L 302,-1502 L 301,-1502 L 301,-1501 L 300,-1501 L 300,-1500 L 299,-1500 L 299,-1499 L 300,-1499 L 300,-1500 L 301,-1500 L 301,-1499 L 300,-1499 L 300,-1498 L 301,-1498 L 302,-1498 L 302,-1497 L 303,-1497 L 303,-1498 L 303,-1497 L 304,-1497 L 305,-1497 L 305,-1496 L 304,-1496 L 305,-1496 L 305,-1495 L 304,-1495 L 303,-1495 L 303,-1494 L 302,-1494 L 302,-1495 L 301,-1495 L 301,-1494 L 301,-1493 L 301,-1494 L 300,-1494 L 300,-1493 L 299,-1493 L 300,-1493 L 300,-1494 L 299,-1494 L 299,-1493 L 298,-1493 L 298,-1494 L 297,-1494 L 297,-1493 L 296,-1493 L 295,-1493 L 295,-1494 L 294,-1494 L 294,-1493 L 295,-1493 L 295,-1492 L 295,-1493 L 294,-1493 L 294,-1492 L 294,-1491 L 293,-1491 L 293,-1490 L 292,-1490 L 292,-1489 L 293,-1489 L 293,-1488 L 293,-1487 L 294,-1487 L 294,-1486 L 293,-1486 L 292,-1486 L 291,-1485 L 291,-1484 L 292,-1484 L 291,-1484 L 292,-1483 L 293,-1483 L 294,-1483 L 295,-1483 L 295,-1482 L 295,-1481 L 295,-1480 L 295,-1479 L 294,-1479 L 293,-1479 L 293,-1478 L 294,-1478 L 293,-1477 L 292,-1477 L 291,-1477 L 292,-1477 L 292,-1476 L 291,-1476 L 291,-1475 L 292,-1475 L 291,-1475 L 292,-1475 L 292,-1474 L 291,-1474 L 292,-1474 L 293,-1474 L 293,-1473 L 293,-1472 L 292,-1473 L 292,-1472 L 292,-1471 L 291,-1471 L 290,-1471 L 290,-1472 L 289,-1472 L 289,-1471 L 290,-1471 L 289,-1471 L 289,-1470 L 289,-1471 L 288,-1471 L 288,-1472 L 288,-1471 L 287,-1471 L 288,-1471 L 287,-1470 L 287,-1469 L 286,-1469 L 287,-1469 L 287,-1468 L 287,-1467 L 287,-1466 L 288,-1466 L 287,-1466 L 286,-1466 L 286,-1465 L 286,-1464 L 287,-1464 L 287,-1465 L 288,-1464 L 287,-1464 L 287,-1463 L 286,-1463 L 287,-1462 L 287,-1463 L 287,-1462 L 288,-1462 L 287,-1463 L 288,-1463 L 289,-1463 L 289,-1462 L 290,-1462 L 290,-1461 L 291,-1461 L 292,-1461 L 292,-1460 L 291,-1460 L 290,-1460 L 290,-1459 L 290,-1458 L 289,-1458 L 289,-1457 L 288,-1457 L 288,-1456 L 287,-1457 L 287,-1456 L 286,-1456 L 286,-1455 L 286,-1456 L 285,-1456 L 284,-1456 L 284,-1455 L 285,-1454 L 285,-1455 L 286,-1455 L 286,-1454 L 285,-1454 L 286,-1454 L 287,-1454 L 287,-1453 L 287,-1452 L 287,-1451 L 287,-1452 L 288,-1452 L 288,-1451 L 289,-1451 L 289,-1450 L 289,-1449 L 290,-1449 L 290,-1448 L 290,-1447 L 289,-1447 L 289,-1448 L 289,-1449 L 289,-1448 L 288,-1448 L 287,-1448 L 287,-1449 L 286,-1449 L 286,-1448 L 285,-1448 L 284,-1448 L 284,-1449 L 284,-1448 L 283,-1448 L 283,-1447 L 282,-1447 L 281,-1447 L 280,-1447 L 280,-1446 L 281,-1446 L 280,-1445 L 279,-1445 L 278,-1445 L 278,-1444 L 278,-1443 L 277,-1443 L 277,-1442 L 276,-1442 L 276,-1441 L 275,-1441 L 275,-1440 L 276,-1440 L 276,-1439 L 276,-1438 L 277,-1438 L 277,-1437 L 276,-1437 L 277,-1436 L 276,-1436 L 276,-1435 L 277,-1435 L 277,-1434 L 278,-1434 L 278,-1433 L 278,-1432 L 279,-1432 L 278,-1432 L 278,-1431 L 278,-1430 L 278,-1429 L 278,-1428 L 278,-1427 L 277,-1427 L 277,-1426 L 277,-1425 L 276,-1425 L 276,-1424 L 276,-1423 L 276,-1422 L 277,-1422 L 278,-1422 L 278,-1423 L 279,-1423 L 279,-1422 L 280,-1422 L 281,-1422 L 282,-1422 L 282,-1421 L 282,-1422 L 283,-1422 L 283,-1421 L 284,-1421 L 283,-1421 L 283,-1420 L 284,-1420 L 285,-1420 L 285,-1419 L 285,-1418 L 286,-1418 L 286,-1417 L 287,-1417 L 287,-1416 L 288,-1416 L 288,-1415 L 288,-1414 L 289,-1414 L 290,-1413 L 290,-1412 L 290,-1413 L 289,-1413 L 288,-1413 L 287,-1413 L 287,-1412 L 286,-1412 L 286,-1411 L 285,-1411 L 286,-1411 L 286,-1410 L 285,-1410 L 285,-1409 L 286,-1409 L 285,-1409 L 285,-1408 L 285,-1407 L 285,-1408 L 284,-1408 L 284,-1407 L 284,-1406 L 283,-1406 L 282,-1406 L 282,-1405 L 282,-1406 L 282,-1405 L 281,-1405 L 281,-1404 L 281,-1403 L 280,-1403 L 280,-1402 L 281,-1402 L 280,-1402 L 280,-1401 L 281,-1401 L 280,-1401 L 280,-1400 L 281,-1400 L 281,-1399 L 281,-1398 L 281,-1399 L 281,-1398 L 282,-1398 L 282,-1399 L 283,-1399 L 284,-1399 L 284,-1400 L 285,-1400 L 286,-1401 L 285,-1401 L 286,-1401 L 286,-1402 L 287,-1402 L 288,-1402 L 288,-1403 L 288,-1402 L 288,-1403 L 289,-1403 L 289,-1404 L 290,-1404 L 291,-1404 L 290,-1404 L 290,-1405 L 291,-1404 L 291,-1405 L 292,-1405 L 292,-1404 L 292,-1405 L 293,-1405 L 294,-1405 L 294,-1406 L 295,-1405 L 296,-1405 L 296,-1406 L 297,-1405 L 298,-1405 L 299,-1405 L 299,-1404 L 300,-1404 L 300,-1403 L 301,-1403 L 301,-1402 L 301,-1401 L 301,-1400 L 301,-1399 L 300,-1399 L 299,-1399 L 299,-1398 L 299,-1399 L 298,-1399 L 298,-1398 L 298,-1399 L 297,-1399 L 296,-1399 L 295,-1399 L 295,-1400 L 295,-1399 L 295,-1400 L 294,-1400 L 293,-1400 L 292,-1400 L 292,-1399 L 291,-1399 L 292,-1399 L 292,-1398 L 291,-1398 L 291,-1399 L 291,-1398 L 290,-1398 L 290,-1397 L 291,-1397 L 290,-1397 L 289,-1397 L 288,-1397 L 289,-1397 L 289,-1396 L 288,-1396 L 289,-1396 L 289,-1395 L 288,-1395 L 289,-1395 L 288,-1395 L 289,-1394 L 288,-1394 L 289,-1394 L 289,-1393 L 290,-1393 L 290,-1392 L 290,-1393 L 291,-1393 L 291,-1394 L 292,-1394 L 293,-1394 L 294,-1394 L 294,-1393 L 295,-1393 L 296,-1393 L 295,-1393 L 296,-1393 L 296,-1392 L 296,-1391 L 297,-1391 L 297,-1390 L 297,-1389 L 296,-1390 L 296,-1389 L 297,-1389 L 297,-1388 L 298,-1388 L 298,-1387 L 298,-1388 L 297,-1388 L 297,-1387 L 296,-1387 L 295,-1387 L 294,-1387 L 294,-1388 L 293,-1388 L 292,-1389 L 291,-1389 L 290,-1389 L 290,-1388 L 291,-1388 L 291,-1387 L 292,-1387 L 292,-1386 L 292,-1387 L 293,-1387 L 293,-1386 L 293,-1385 L 293,-1384 L 293,-1383 L 292,-1383 L 292,-1384 L 291,-1383 L 291,-1382 L 291,-1381 L 290,-1381 L 289,-1380 L 289,-1379 L 289,-1378 L 289,-1377 L 290,-1377 L 290,-1376 L 291,-1376 L 291,-1375 L 290,-1375 L 291,-1375 L 291,-1374 L 292,-1374 L 293,-1374 L 292,-1374 L 293,-1374 L 293,-1373 L 294,-1373 L 293,-1373 L 293,-1372 L 293,-1373 L 293,-1372 L 293,-1371 L 293,-1370 L 294,-1370 L 294,-1369 L 294,-1368 L 294,-1369 L 295,-1369 L 295,-1368 L 296,-1368 L 296,-1367 L 297,-1367 L 298,-1367 L 297,-1366 L 298,-1366 L 298,-1365 L 299,-1365 L 299,-1364 L 300,-1364 L 300,-1363 L 300,-1364 L 299,-1363 L 300,-1363 L 300,-1362 L 299,-1362 L 300,-1361 L 300,-1362 L 300,-1361 L 300,-1360 L 300,-1359 L 301,-1359 L 301,-1358 L 300,-1358 L 301,-1358 L 301,-1357 L 301,-1358 L 301,-1357 L 302,-1357 L 301,-1357 L 301,-1356 L 302,-1356 L 302,-1355 L 301,-1355 L 302,-1355 L 302,-1354 L 303,-1355 L 303,-1354 L 302,-1354 L 302,-1353 L 302,-1354 L 303,-1354 L 303,-1353 L 303,-1352 L 302,-1352 L 302,-1351 L 303,-1352 L 303,-1351 L 302,-1351 L 302,-1350 L 303,-1350 L 302,-1350 L 302,-1349 L 302,-1348 L 303,-1348 L 304,-1348 L 304,-1349 L 305,-1349 L 305,-1350 L 306,-1350 L 307,-1350 L 307,-1349 L 308,-1349 L 309,-1349 L 309,-1348 L 310,-1348 L 310,-1347 L 310,-1346 L 310,-1345 L 310,-1344 L 309,-1344 L 310,-1344 L 310,-1343 L 309,-1343 L 308,-1343 L 308,-1342 L 308,-1341 L 308,-1340 L 307,-1340 L 308,-1340 L 308,-1339 L 307,-1339 L 308,-1338 L 307,-1338 L 307,-1337 L 307,-1338 L 308,-1337 L 307,-1337 L 308,-1337 L 308,-1336 L 309,-1336 L 309,-1335 L 310,-1335 L 310,-1334 L 309,-1334 L 310,-1334 L 310,-1333 L 310,-1332 L 310,-1331 L 310,-1330 L 309,-1330 L 310,-1331 L 309,-1331 L 309,-1330 L 309,-1331 L 309,-1330 L 309,-1331 L 308,-1331 L 307,-1331 L 307,-1332 L 307,-1333 L 307,-1332 L 306,-1332 L 306,-1333 L 306,-1332 L 305,-1333 L 304,-1333 L 304,-1332 L 303,-1331 L 302,-1331 L 302,-1330 L 301,-1330 L 301,-1329 L 301,-1328 L 302,-1328 L 302,-1327 L 302,-1326 L 303,-1326 L 303,-1325 L 303,-1324 L 302,-1323 L 302,-1322 L 302,-1321 L 302,-1320 L 302,-1319 L 302,-1318 L 302,-1317 L 302,-1316 L 302,-1315 L 302,-1314 L 301,-1314 L 301,-1313 L 300,-1313 L 299,-1313 L 299,-1314 L 298,-1314 L 298,-1315 L 297,-1315 L 298,-1315 L 298,-1316 L 298,-1317 L 299,-1317 L 299,-1318 L 298,-1318 L 298,-1319 L 297,-1319 L 297,-1320 L 296,-1320 L 296,-1321 L 295,-1321 L 294,-1321 L 294,-1320 L 293,-1320 L 293,-1319 L 294,-1318 L 293,-1318 L 293,-1317 L 293,-1316 L 293,-1317 L 294,-1317 L 294,-1316 L 294,-1315 L 295,-1315 L 294,-1315 L 294,-1314 L 295,-1313 L 294,-1313 L 294,-1312 L 295,-1312 L 294,-1312 L 294,-1311 L 294,-1310 L 294,-1309 L 295,-1309 L 295,-1308 L 294,-1308 L 294,-1307 L 295,-1307 L 295,-1306 L 296,-1306 L 295,-1306 L 295,-1305 L 295,-1304 L 296,-1304 L 296,-1303 L 296,-1302 L 295,-1301 L 296,-1301 L 297,-1301 L 296,-1301 L 296,-1300 L 297,-1300 L 297,-1299 L 296,-1299 L 297,-1299 L 297,-1298 L 296,-1298 L 297,-1298 L 297,-1297 L 297,-1296 L 297,-1295 L 298,-1295 L 298,-1294 L 297,-1293 L 296,-1293 L 296,-1292 L 296,-1293 L 295,-1293 L 294,-1293 L 294,-1294 L 293,-1294 L 293,-1293 L 293,-1294 L 292,-1294 L 292,-1295 L 291,-1295 L 290,-1295 L 289,-1295 L 290,-1295 L 290,-1296 L 289,-1296 L 289,-1295 L 288,-1295 L 287,-1295 L 286,-1295 L 285,-1294 L 284,-1293 L 284,-1294 L 283,-1294 L 283,-1293 L 282,-1293 L 282,-1292 L 281,-1292 L 281,-1291 L 280,-1291 L 280,-1290 L 279,-1290 L 279,-1289 L 279,-1288 L 278,-1288 L 278,-1287 L 277,-1287 L 277,-1286 L 276,-1286 L 276,-1285 L 277,-1285 L 277,-1284 L 277,-1285 L 278,-1285 L 278,-1284 L 279,-1284 L 279,-1283 L 279,-1282 L 280,-1282 L 280,-1281 L 280,-1280 L 280,-1279 L 281,-1279 L 281,-1278 L 280,-1278 L 280,-1277 L 280,-1276 L 279,-1276 L 278,-1276 L 278,-1275 L 278,-1274 L 278,-1273 L 277,-1273 L 276,-1273 L 276,-1272 L 275,-1272 L 275,-1271 L 275,-1270 L 274,-1270 L 275,-1270 L 275,-1269 L 274,-1269 L 275,-1269 L 275,-1268 L 276,-1268 L 276,-1267 L 276,-1268 L 277,-1268 L 277,-1267 L 276,-1267 L 276,-1266 L 277,-1266 L 276,-1266 L 276,-1265 L 277,-1265 L 277,-1264 L 276,-1264 L 276,-1263 L 276,-1262 L 276,-1261 L 275,-1261 L 276,-1261 L 275,-1261 L 275,-1260 L 275,-1261 L 274,-1261 L 273,-1261 L 273,-1260 L 274,-1260 L 274,-1259 L 274,-1258 L 274,-1257 L 275,-1257 L 275,-1256 L 276,-1256 L 276,-1255 L 277,-1255 L 276,-1254 L 276,-1253 L 276,-1252 L 277,-1252 L 277,-1253 L 278,-1253 L 278,-1254 L 279,-1254 L 279,-1255 L 280,-1255 L 281,-1255 L 281,-1256 L 282,-1256 L 282,-1255 L 283,-1255 L 284,-1255 L 285,-1255 L 285,-1254 L 284,-1254 L 284,-1253 L 284,-1252 L 285,-1252 L 285,-1251 L 284,-1251 L 284,-1252 L 284,-1251 L 283,-1251 L 284,-1252 L 283,-1252 L 283,-1253 L 282,-1253 L 282,-1252 L 281,-1252 L 280,-1252 L 280,-1251 L 280,-1250 L 280,-1249 L 280,-1248 L 279,-1248 L 279,-1247 L 278,-1247 L 278,-1246 L 277,-1246 L 277,-1247 L 277,-1246 L 276,-1246 L 276,-1247 L 276,-1246 L 275,-1246 L 274,-1246 L 273,-1246 L 273,-1247 L 273,-1246 L 272,-1247 L 272,-1246 L 271,-1246 L 271,-1245 L 272,-1245 L 271,-1245 L 271,-1244 L 271,-1243 L 270,-1243 L 271,-1243 L 271,-1242 L 270,-1242 L 270,-1241 L 271,-1241 L 271,-1240 L 271,-1241 L 271,-1240 L 272,-1240 L 272,-1239 L 273,-1239 L 273,-1240 L 274,-1240 L 275,-1240 L 275,-1239 L 276,-1239 L 276,-1238 L 277,-1238 L 276,-1238 L 275,-1238 L 274,-1238 L 274,-1237 L 274,-1236 L 274,-1235 L 273,-1235 L 273,-1234 L 272,-1233 L 273,-1233 L 272,-1233 L 272,-1232 L 273,-1232 L 273,-1231 L 272,-1231 L 272,-1230 L 272,-1229 L 271,-1229 L 271,-1228 L 270,-1228 L 270,-1229 L 270,-1228 L 269,-1228 L 269,-1227 L 268,-1227 L 268,-1226 L 267,-1226 L 266,-1226 L 266,-1227 L 266,-1226 L 265,-1226 L 265,-1227 L 266,-1227 L 266,-1228 L 266,-1229 L 265,-1229 L 266,-1230 L 265,-1230 L 264,-1231 L 264,-1230 L 263,-1230 L 262,-1230 L 262,-1229 L 261,-1228 L 261,-1229 L 261,-1228 L 261,-1227 L 262,-1227 L 262,-1226 L 262,-1225 L 261,-1225 L 261,-1224 L 260,-1224 L 260,-1225 L 259,-1226 L 258,-1226 L 257,-1226 L 256,-1226 L 256,-1225 L 255,-1225 L 256,-1225 L 256,-1224 L 255,-1224 L 255,-1223 L 256,-1223 L 255,-1222 L 255,-1223 L 255,-1222 L 254,-1222 L 254,-1221 L 255,-1221 L 255,-1220 L 254,-1220 L 255,-1220 L 255,-1219 L 254,-1219 L 254,-1218 L 255,-1218 L 255,-1217 L 255,-1216 L 255,-1215 L 256,-1215 L 257,-1215 L 257,-1216 L 257,-1217 L 257,-1218 L 258,-1218 L 258,-1219 L 259,-1219 L 260,-1219 L 260,-1220 L 259,-1220 L 260,-1220 L 260,-1219 L 260,-1220 L 261,-1220 L 262,-1220 L 263,-1220 L 263,-1219 L 264,-1219 L 264,-1218 L 264,-1217 L 264,-1218 L 263,-1218 L 264,-1218 L 264,-1217 L 263,-1217 L 263,-1216 L 264,-1216 L 264,-1215 L 264,-1214 L 265,-1213 L 264,-1212 L 265,-1212 L 265,-1211 L 265,-1210 L 265,-1211 L 266,-1211 L 266,-1210 L 266,-1209 L 266,-1208 L 266,-1207 L 266,-1206 L 266,-1205 L 266,-1204 L 266,-1203 L 265,-1203 L 265,-1202 L 266,-1202 L 266,-1201 L 265,-1201 L 265,-1200 L 265,-1199 L 264,-1199 L 264,-1198 L 264,-1197 L 265,-1197 L 265,-1198 L 265,-1197 L 265,-1196 L 266,-1196 L 266,-1195 L 265,-1195 L 265,-1194 L 266,-1194 L 266,-1193 L 265,-1193 L 265,-1192 L 264,-1193 L 263,-1193 L 263,-1194 L 262,-1193 L 262,-1194 L 261,-1194 L 260,-1195 L 259,-1195 L 259,-1196 L 259,-1197 L 258,-1197 L 258,-1198 L 257,-1198 L 256,-1198 L 256,-1197 L 255,-1197 L 254,-1197 L 254,-1196 L 254,-1195 L 253,-1195 L 253,-1194 L 253,-1193 L 253,-1192 L 254,-1192 L 255,-1192 L 255,-1191 L 256,-1192 L 256,-1193 L 257,-1193 L 258,-1193 L 259,-1193 L 259,-1192 L 260,-1192 L 261,-1192 L 261,-1191 L 262,-1191 L 261,-1191 L 261,-1190 L 261,-1189 L 260,-1189 L 260,-1188 L 261,-1188 L 261,-1187 L 262,-1187 L 263,-1187 L 263,-1186 L 263,-1187 L 264,-1187 L 264,-1186 L 264,-1187 L 265,-1187 L 266,-1187 L 266,-1186 L 267,-1186 L 266,-1186 L 266,-1185 L 266,-1184 L 265,-1184 L 264,-1184 L 265,-1183 L 264,-1183 L 264,-1182 L 264,-1183 L 264,-1182 L 263,-1182 L 262,-1182 L 261,-1182 L 261,-1181 L 261,-1182 L 260,-1182 L 260,-1183 L 259,-1182 L 259,-1181 L 258,-1181 L 258,-1180 L 259,-1180 L 259,-1181 L 259,-1180 L 259,-1181 L 260,-1181 L 260,-1180 L 259,-1180 L 260,-1180 L 260,-1179 L 261,-1179 L 262,-1179 L 262,-1178 L 261,-1178 L 262,-1178 L 261,-1178 L 262,-1178 L 262,-1177 L 262,-1178 L 263,-1178 L 263,-1177 L 264,-1177 L 264,-1176 L 264,-1175 L 263,-1175 L 264,-1175 L 264,-1174 L 263,-1174 L 263,-1173 L 262,-1173 L 263,-1173 L 263,-1172 L 263,-1171 L 263,-1170 L 264,-1170 L 264,-1169 L 263,-1169 L 263,-1168 L 263,-1169 L 263,-1168 L 262,-1168 L 262,-1167 L 261,-1166 L 260,-1166 L 260,-1167 L 260,-1166 L 259,-1166 L 258,-1166 L 257,-1166 L 257,-1167 L 256,-1167 L 256,-1168 L 256,-1167 L 255,-1167 L 255,-1168 L 254,-1168 L 254,-1167 L 254,-1166 L 253,-1165 L 253,-1166 L 253,-1165 L 253,-1166 L 252,-1166 L 252,-1165 L 252,-1166 L 251,-1166 L 251,-1167 L 251,-1168 L 251,-1169 L 250,-1169 L 250,-1170 L 249,-1170 L 249,-1169 L 248,-1169 L 248,-1168 L 248,-1167 L 248,-1166 L 249,-1166 L 249,-1165 L 249,-1164 L 250,-1164 L 249,-1163 L 249,-1162 L 249,-1161 L 248,-1161 L 247,-1160 L 246,-1159 L 246,-1158 L 245,-1158 L 245,-1157 L 246,-1156 L 246,-1155 L 246,-1154 L 246,-1153 L 247,-1153 L 247,-1152 L 247,-1151 L 247,-1150 L 247,-1149 L 247,-1148 L 246,-1148 L 246,-1149 L 245,-1149 L 244,-1149 L 244,-1150 L 243,-1150 L 242,-1150 L 241,-1150 L 241,-1149 L 240,-1149 L 239,-1149 L 239,-1148 L 238,-1148 L 237,-1148 L 236,-1148 L 237,-1147 L 238,-1147 L 239,-1147 L 239,-1146 L 238,-1146 L 238,-1145 L 237,-1145 L 238,-1145 L 237,-1145 L 237,-1144 L 237,-1145 L 237,-1144 L 236,-1144 L 236,-1143 L 236,-1144 L 237,-1144 L 237,-1143 L 236,-1143 L 236,-1142 L 235,-1142 L 235,-1141 L 235,-1140 L 234,-1140 L 235,-1140 L 235,-1139 L 235,-1138 L 236,-1138 L 237,-1137 L 237,-1138 L 237,-1137 L 238,-1138 L 238,-1137 L 239,-1137 L 239,-1136 L 240,-1136 L 240,-1135 L 240,-1134 L 239,-1134 L 238,-1134 L 238,-1135 L 237,-1135 L 236,-1135 L 236,-1134 L 236,-1135 L 236,-1134 L 236,-1133 L 237,-1133 L 238,-1132 L 239,-1132 L 240,-1132 L 240,-1131 L 240,-1130 L 239,-1130 L 238,-1130 L 237,-1130 L 237,-1129 L 236,-1129 L 236,-1128 L 235,-1128 L 235,-1127 L 235,-1126 L 235,-1125 L 235,-1124 L 235,-1123 L 235,-1122 L 236,-1123 L 236,-1122 L 237,-1123 L 237,-1122 L 237,-1121 L 238,-1121 L 237,-1121 L 237,-1120 L 237,-1119 L 236,-1119 L 235,-1119 L 235,-1118 L 234,-1118 L 234,-1117 L 234,-1116 L 234,-1115 L 235,-1115 L 235,-1114 L 235,-1113 L 234,-1113 L 233,-1113 L 232,-1114 L 231,-1114 L 230,-1114 L 229,-1113 L 229,-1112 L 229,-1111 L 230,-1110 L 230,-1109 L 230,-1108 L 230,-1107 L 230,-1106 L 229,-1106 L 227,-1105 L 226,-1106 L 224,-1106 L 223,-1107 L 222,-1108 L 221,-1108 L 220,-1107 L 221,-1106 L 221,-1105 L 221,-1104 L 221,-1103 L 221,-1102 L 221,-1100 L 220,-1099 L 220,-1097 L 220,-1096 L 220,-1095 L 220,-1094 L 220,-1093 L 219,-1093 L 219,-1092 L 218,-1092 L 218,-1091 L 218,-1090 L 217,-1090 L 217,-1089 L 216,-1089 L 215,-1089 L 214,-1089 L 214,-1090 L 213,-1090 L 213,-1091 L 213,-1092 L 213,-1093 L 214,-1093 L 214,-1094 L 213,-1095 L 213,-1096 L 212,-1096 L 211,-1096 L 210,-1096 L 210,-1095 L 209,-1094 L 209,-1093 L 209,-1092 L 210,-1092 L 210,-1091 L 210,-1090 L 210,-1089 L 210,-1088 L 210,-1087 L 210,-1086 L 210,-1085 L 210,-1084 L 210,-1083 L 211,-1083 L 211,-1082 L 212,-1082 L 213,-1082 L 213,-1081 L 214,-1081 L 215,-1081 L 216,-1082 L 217,-1082 L 217,-1081 L 218,-1080 L 218,-1079 L 218,-1078 L 218,-1077 L 218,-1076 L 218,-1075 L 217,-1075 L 216,-1075 L 215,-1075 L 214,-1075 L 213,-1075 L 212,-1075 L 212,-1074 L 211,-1074 L 211,-1075 L 211,-1076 L 210,-1076 L 210,-1077 L 209,-1077 L 208,-1076 L 208,-1075 L 209,-1074 L 208,-1074 L 209,-1074 L 209,-1073 L 209,-1072 L 210,-1072 L 210,-1071 L 210,-1070 L 209,-1070 L 208,-1070 L 207,-1070 L 207,-1071 L 206,-1071 L 205,-1071 L 205,-1072 L 205,-1073 L 206,-1073 L 207,-1074 L 207,-1075 L 207,-1076 L 208,-1076 L 208,-1077 L 208,-1078 L 208,-1079 L 207,-1079 L 206,-1079 L 205,-1078 L 205,-1077 L 204,-1077 L 204,-1076 L 204,-1075 L 204,-1074 L 203,-1074 L 203,-1073 L 202,-1073 L 202,-1072 L 202,-1071 L 201,-1070 L 201,-1069 L 200,-1069 L 200,-1068 L 199,-1068 L 198,-1067 L 197,-1067 L 197,-1066 L 197,-1065 L 197,-1064 L 196,-1064 L 195,-1064 L 194,-1064 L 193,-1064 L 192,-1064 L 191,-1062 L 191,-1061 L 190,-1060 L 190,-1059 L 190,-1058 L 190,-1056 L 190,-1054 L 190,-1052 L 189,-1052 L 188,-1051 L 186,-1051 L 185,-1051 L 184,-1052 L 182,-1052 L 181,-1053 L 179,-1053 L 178,-1053 L 177,-1052 L 176,-1052 L 176,-1051 L 176,-1050 L 177,-1050 L 178,-1050 L 179,-1049 L 180,-1049 L 181,-1049 L 182,-1048 L 183,-1048 L 183,-1047 L 184,-1046 L 184,-1045 L 185,-1044 L 185,-1043 L 184,-1041 L 184,-1040 L 183,-1040 L 182,-1040 L 181,-1041 L 180,-1042 L 180,-1043 L 179,-1044 L 178,-1045 L 177,-1045 L 176,-1046 L 176,-1043 L 176,-991 L 176,-949 L 177,-908 L 178,-815 L 179,-792 L 179,-769 L 179,-726 L 150,-679 L 149,-680 L 145,-686 L 143,-689 L 141,-691 L 125,-708 L 98,-739 L 85,-754 L 85,-755 L 84,-755 L 84,-756 L 83,-756 L 83,-757 L 82,-757 L 81,-757 L 81,-758 L 80,-758 L 80,-759 L 80,-760 L 80,-761 L 80,-762 L 80,-761 L 79,-762 L 78,-762 L 77,-762 L 76,-762 L 75,-762 L 74,-762 L 73,-762 L 73,-763 L 72,-763 L 72,-764 L 71,-764 L 70,-763 L 69,-763 L 69,-762 L 68,-762 L 67,-762 L 66,-761 L 66,-760 L 65,-760 L 64,-760 L 63,-759 L 62,-759 L 61,-759 L 60,-759 L 60,-760 L 60,-761 L 59,-761 L 59,-762 L 58,-762 L 58,-763 L 57,-763 L 56,-763 L 56,-764 L 55,-765 L 31,-765 L 10,-772 L 9,-772 L 9,-773 L 8,-773 L 8,-774 L 7,-774 L 6,-775 L 5,-775 L 4,-775 L 3,-775 L 3,-776 L 2,-776 L -6,-777 L -7,-778 L -8,-778 L -9,-778 L -10,-776 L -12,-776 L -13,-776 L -13,-777 L -13,-778 L -13,-779 L -12,-780 L -10,-781 L -9,-782 L -6,-783 L -5,-785 L -3,-788 L -1,-791 L 0,-792 L 1,-794 L 3,-795 L 5,-795 L 6,-794 L 8,-793 L 10,-793 L 11,-792 L 12,-792 L 14,-793 L 15,-793 L 16,-794 L 16,-796 L 16,-797 L 15,-798 L 14,-799 L 12,-801 L 10,-802 L 9,-802 L 7,-803 L 6,-803 L 3,-804 L 2,-804 L 1,-805 L 0,-806 L 0,-807 L 0,-808 L 0,-810 L 1,-811 L 2,-812 L 3,-813 L 4,-815 L 3,-816 L 3,-817 L 2,-819 L 1,-820 L 0,-822 L -2,-824 L -2,-825 L -3,-825 L -4,-827 L -4,-828 L -4,-830 L -4,-832 L -5,-833 L -4,-835 L -4,-837 L -3,-838 L -2,-840 L -1,-843 L 0,-845 L 0,-846 L 1,-847 L 3,-849 L 4,-851 L 5,-853 L 5,-854 L 5,-855 L 4,-856 L 3,-857 L 1,-858 L 0,-858 L 0,-857 L -3,-856 L -5,-855 L -6,-855 L -6,-856 L -7,-856 L -8,-858 L -9,-859 L -9,-860 L -9,-861 L -9,-862 L -9,-863 L -8,-863 L -7,-863 L -5,-863 L -4,-863 L -3,-863 L -2,-862 L -1,-862 L 0,-862 L 1,-863 L 2,-864 L 2,-865 L 4,-866 L 5,-867 L 7,-868 L 8,-869 L 8,-870 L 9,-871 L 8,-871 L 7,-872 L 5,-873 L 4,-873 L 2,-874 L 1,-875 L 0,-876 L -1,-877 L -3,-878 L -5,-879 L -6,-879 L -8,-880 L -9,-882 L -8,-883 L -8,-884 L -6,-885 L -5,-885 L -3,-885 L -2,-885 L -2,-887 L -1,-888 L -2,-890 L -2,-891 L -3,-892 L -5,-895 L -6,-898 L -6,-900 L -5,-902 L -3,-904 L -3,-906 L -3,-907 L -2,-908 L 0,-910 L 2,-911 L 6,-915 L 8,-916 L 10,-918 L 11,-919 L 12,-921 L 11,-922 L 10,-923 L 8,-923 L 7,-923 L 5,-922 L 3,-921 L 2,-922 L 3,-924 L 4,-926 L 5,-927 L 7,-929 L 10,-930 L 13,-931 L 14,-932 L 14,-935 L 15,-936 L 15,-938 L 17,-940 L 18,-941 L 20,-943 L 20,-944 L 19,-946 L 18,-946 L 16,-945 L 15,-944 L 13,-942 L 11,-942 L 10,-943 L 9,-945 L 8,-947 L 6,-948 L 4,-948 L 3,-948 L 1,-949 L 1,-950 L 2,-952 L 3,-953 L 4,-954 L 6,-955 L 9,-957 L 10,-958 L 12,-959 L 13,-961 L 12,-963 L 10,-963 L 8,-962 L 7,-962 L 5,-962 L 3,-961 L 1,-961 L 0,-962 L -1,-963 L -1,-965 L 0,-966 L 2,-968 L 3,-968 L 3,-969 L 5,-969 L 7,-969 L 10,-970 L 12,-971 L 14,-972 L 14,-975 L 15,-976 L 19,-978 L 21,-978 L 23,-980 L 23,-981 L 21,-983 L 20,-984 L 19,-986 L 19,-987 L 20,-988 L 20,-989 L 21,-989 L 23,-988 L 23,-986 L 23,-984 L 24,-983 L 25,-983 L 26,-982 L 28,-981 L 30,-981 L 31,-981 L 31,-982 L 31,-983 L 30,-985 L 30,-986 L 29,-988 L 29,-990 L 30,-991 L 31,-991 L 33,-991 L 34,-991 L 34,-992 L 34,-993 L 32,-994 L 31,-996 L 30,-997 L 28,-999 L 27,-1000 L 27,-1003 L 27,-1004 L 27,-1005 L 28,-1006 L 28,-1007 L 29,-1008 L 32,-1008 L 34,-1009 L 36,-1011 L 40,-1012 L 42,-1013 L 45,-1013 L 49,-1013 L 50,-1013 L 51,-1013 L 52,-1013 L 52,-1014 L 52,-1015 L 51,-1015 L 50,-1016 L 48,-1019 L 47,-1021 L 45,-1022 L 44,-1023 L 44,-1024 L 44,-1025 L 44,-1026 L 45,-1026 L 46,-1026 L 48,-1025 L 48,-1024 L 49,-1023 L 50,-1023 L 51,-1023 L 52,-1024 L 53,-1025 L 53,-1026 L 53,-1027 L 52,-1028 L 52,-1030 L 52,-1031 L 53,-1032 L 53,-1033 L 55,-1034 L 56,-1035 L 56,-1036 L 56,-1037 L 55,-1037 L 55,-1038 L 54,-1038 L 53,-1038 L 52,-1038 L 51,-1037 L 50,-1037 L 49,-1037 L 48,-1037 L 47,-1038 L 47,-1039 L 47,-1040 L 48,-1042 L 47,-1044 L 47,-1046 L 46,-1047 L 45,-1049 L 44,-1049 L 43,-1049 L 41,-1048 L 40,-1048 L 39,-1049 L 39,-1050 L 39,-1051 L 40,-1053 L 41,-1054 L 42,-1054 L 43,-1055 L 44,-1054 L 46,-1054 L 47,-1054 L 48,-1055 L 49,-1056 L 49,-1057 L 49,-1058 L 48,-1059 L 48,-1060 L 49,-1062 L 50,-1062 L 52,-1063 L 54,-1063 L 55,-1065 L 56,-1066 L 57,-1068 L 58,-1069 L 58,-1070 L 57,-1071 L 56,-1071 L 55,-1071 L 53,-1071 L 51,-1068 L 50,-1066 L 49,-1065 L 48,-1065 L 47,-1065 L 46,-1065 L 45,-1066 L 44,-1068 L 44,-1069 L 43,-1072 L 43,-1073 L 44,-1075 L 46,-1075 L 48,-1075 L 52,-1075 L 53,-1075 L 54,-1075 L 55,-1076 L 55,-1077 L 55,-1078 L 55,-1079 L 54,-1079 L 53,-1079 L 50,-1079 L 48,-1079 L 45,-1080 L 43,-1080 L 41,-1081 L 41,-1082 L 41,-1084 L 41,-1085 L 43,-1085 L 45,-1086 L 47,-1086 L 48,-1087 L 48,-1088 L 47,-1089 L 46,-1090 L 45,-1090 L 44,-1091 L 43,-1093 L 43,-1095 L 45,-1097 L 47,-1098 L 50,-1099 L 53,-1101 L 60,-1103 L 62,-1104 L 64,-1105 L 65,-1106 L 65,-1108 L 63,-1109 L 60,-1109 L 57,-1109 L 56,-1109 L 55,-1109 L 54,-1110 L 54,-1111 L 56,-1112 L 57,-1114 L 61,-1116 L 65,-1118 L 68,-1123 L 71,-1124 L 74,-1126 L 74,-1127 L 75,-1128 L 75,-1129 L 74,-1130 L 73,-1131 L 73,-1132 L 73,-1135 L 76,-1137 L 77,-1137 L 78,-1136 L 78,-1135 L 78,-1131 L 78,-1129 L 78,-1127 L 78,-1126 L 79,-1126 L 81,-1126 L 83,-1128 L 85,-1130 L 86,-1132 L 86,-1137 L 86,-1139 L 85,-1140 L 83,-1140 L 81,-1140 L 78,-1141 L 77,-1141 L 76,-1142 L 75,-1143 L 75,-1144 L 76,-1145 L 77,-1146 L 79,-1147 L 81,-1147 L 82,-1147 L 83,-1146 L 83,-1144 L 84,-1143 L 85,-1142 L 86,-1141 L 88,-1141 L 89,-1141 L 90,-1141 L 91,-1142 L 91,-1143 L 89,-1147 L 88,-1149 L 85,-1151 L 84,-1154 L 84,-1155 L 85,-1158 L 87,-1158 L 89,-1159 L 91,-1160 L 92,-1162 L 94,-1163 L 97,-1162 L 101,-1162 L 103,-1161 L 106,-1161 L 108,-1162 L 108,-1164 L 108,-1165 L 107,-1165 L 104,-1166 L 101,-1167 L 100,-1168 L 99,-1168 L 98,-1169 L 98,-1171 L 99,-1171 L 100,-1172 L 105,-1173 L 109,-1174 L 112,-1173 L 115,-1172 L 119,-1172 L 121,-1172 L 121,-1173 L 120,-1176 L 118,-1182 L 117,-1183 L 115,-1184 L 112,-1185 L 111,-1186 L 112,-1187 L 113,-1187 L 114,-1187 L 115,-1187 L 117,-1186 L 118,-1186 L 119,-1186 L 119,-1187 L 119,-1189 L 120,-1191 L 120,-1192 L 121,-1193 L 123,-1194 L 125,-1194 L 128,-1195 L 129,-1196 L 129,-1197 L 129,-1198 L 127,-1199 L 126,-1200 L 125,-1203 L 125,-1206 L 125,-1210 L 127,-1212 L 129,-1212 L 132,-1212 L 134,-1212 L 136,-1212 L 137,-1211 L 136,-1210 L 135,-1208 L 135,-1206 L 137,-1205 L 139,-1205 L 140,-1206 L 141,-1209 L 140,-1210 L 139,-1213 L 137,-1214 L 137,-1216 L 137,-1218 L 139,-1219 L 142,-1219 L 143,-1219 L 143,-1218 L 142,-1216 L 141,-1215 L 141,-1214 L 142,-1213 L 143,-1213 L 144,-1213 L 145,-1213 L 147,-1215 L 150,-1217 L 152,-1218 L 154,-1218 L 155,-1217 L 155,-1215 L 154,-1213 L 154,-1212 L 155,-1211 L 157,-1210 L 158,-1210 L 159,-1211 L 160,-1213 L 160,-1214 L 160,-1217 L 160,-1220 L 160,-1222 L 160,-1224 L 159,-1224 L 157,-1225 L 155,-1226 L 152,-1227 L 151,-1228 L 151,-1229 L 151,-1230 L 151,-1231 L 152,-1232 L 153,-1233 L 154,-1234 L 155,-1234 L 157,-1235 L 158,-1235 L 160,-1235 L 161,-1236 L 161,-1237 L 162,-1238 L 161,-1238 L 161,-1239 L 160,-1240 L 159,-1241 L 159,-1242 L 159,-1243 L 159,-1244 L 159,-1245 L 160,-1246 L 160,-1247 L 161,-1249 L 162,-1251 L 163,-1251 L 164,-1252 L 165,-1252 L 166,-1251 L 167,-1251 L 169,-1251 L 170,-1252 L 171,-1252 L 172,-1253 L 173,-1254 L 174,-1255 L 175,-1255 L 175,-1256 L 175,-1257 L 174,-1257 L 173,-1258 L 172,-1258 L 171,-1258 L 169,-1258 L 166,-1258 L 164,-1258 L 163,-1259 L 162,-1260 L 162,-1261 L 162,-1263 L 163,-1264 L 164,-1265 L 165,-1266 L 166,-1267 L 168,-1267 L 169,-1267 L 170,-1267 L 172,-1266 L 173,-1265 L 174,-1265 L 175,-1265 L 176,-1265 L 176,-1266 L 176,-1267 L 177,-1268 L 177,-1269 L 176,-1271 L 176,-1273 L 176,-1274 L 176,-1275 L 177,-1276 L 177,-1277 L 178,-1278 L 179,-1279 L 180,-1278 L 181,-1278 L 182,-1278 L 183,-1278 L 183,-1279 L 183,-1281 L 183,-1282 L 184,-1282 L 185,-1283 L 186,-1283 L 187,-1283 L 188,-1283 L 189,-1282 L 189,-1281 L 190,-1281 L 191,-1280 L 191,-1281 L 192,-1281 L 192,-1282 L 193,-1284 L 193,-1285 L 193,-1286 L 193,-1287 L 192,-1288 L 191,-1288 L 189,-1288 L 187,-1289 L 185,-1289 L 183,-1289 L 182,-1290 L 181,-1291 L 180,-1292 L 180,-1294 L 179,-1296 L 179,-1298 L 179,-1299 L 179,-1300 L 180,-1301 L 181,-1301 L 182,-1300 L 183,-1299 L 184,-1298 L 187,-1296 L 190,-1294 L 191,-1295 L 192,-1296 L 192,-1297 L 192,-1298 L 191,-1300 L 190,-1301 L 189,-1302 L 187,-1303 L 186,-1304 L 185,-1305 L 185,-1306 L 185,-1307 L 185,-1308 L 185,-1309 L 185,-1311 L 184,-1312 L 182,-1314 L 181,-1315 L 180,-1317 L 180,-1318 L 181,-1319 L 182,-1319 L 183,-1319 L 184,-1319 L 186,-1318 L 186,-1317 L 187,-1317 L 188,-1317 L 189,-1318 L 190,-1319 L 190,-1320 L 190,-1322 L 189,-1324 L 187,-1326 L 185,-1328 L 184,-1330 L 184,-1331 L 184,-1332 L 185,-1332 L 185,-1333 L 187,-1333 L 188,-1333 L 190,-1333 L 191,-1332 L 193,-1332 L 194,-1332 L 195,-1333 L 195,-1334 L 194,-1335 L 193,-1337 L 192,-1338 L 191,-1339 L 189,-1340 L 186,-1340 L 185,-1340 L 183,-1341 L 183,-1342 L 183,-1343 L 183,-1344 L 184,-1345 L 185,-1345 L 187,-1345 L 188,-1346 L 189,-1347 L 189,-1349 L 190,-1350 L 190,-1352 L 190,-1354 L 191,-1354 L 192,-1354 L 193,-1354 L 194,-1352 L 194,-1351 L 196,-1351 L 197,-1351 L 198,-1351 L 199,-1352 L 199,-1354 L 199,-1355 L 198,-1356 L 196,-1357 L 195,-1359 L 193,-1362 L 192,-1362 L 191,-1363 L 189,-1363 L 186,-1364 L 183,-1364 L 182,-1364 L 182,-1365 L 182,-1366 L 183,-1368 L 183,-1370 L 183,-1372 L 185,-1373 L 186,-1374 L 189,-1375 L 191,-1375 L 192,-1376 L 193,-1377 L 194,-1379 L 195,-1380 L 196,-1381 L 197,-1382 L 199,-1383 L 200,-1383 L 201,-1383 L 202,-1383 L 202,-1384 L 202,-1385 L 201,-1386 L 200,-1387 L 197,-1388 L 195,-1390 L 192,-1392 L 189,-1393 L 188,-1395 L 186,-1397 L 186,-1398 L 185,-1399 L 185,-1400 L 185,-1401 L 186,-1402 L 187,-1403 L 188,-1403 L 189,-1403 L 189,-1404 L 190,-1404 L 191,-1404 L 192,-1404 L 193,-1404 L 194,-1404 L 195,-1404 L 196,-1404 L 197,-1405 L 197,-1406 L 197,-1407 L 196,-1407 L 195,-1408 L 195,-1409 L 194,-1409 L 194,-1410 L 193,-1411 L 192,-1412 L 191,-1413 L 190,-1414 L 189,-1415 L 189,-1416 L 188,-1417 L 187,-1418 L 187,-1419 L 186,-1419 L 185,-1421 L 185,-1422 L 184,-1422 L 184,-1423 L 185,-1423 L 185,-1424 L 186,-1424 L 187,-1425 L 188,-1425 L 188,-1426 L 189,-1426 L 190,-1427 L 191,-1427 L 192,-1428 L 193,-1428 L 193,-1429 L 195,-1430 L 196,-1431 L 197,-1431 L 197,-1432 L 198,-1433 L 199,-1434 L 199,-1435 L 200,-1435 L 201,-1436 L 201,-1437 L 202,-1437 L 203,-1437 L 204,-1438 L 205,-1438 L 206,-1438 L 207,-1438 L 208,-1438 L 208,-1439 L 209,-1439 L 209,-1440 L 209,-1441 L 209,-1442 L 209,-1443 L 208,-1444 L 208,-1445 L 208,-1446 L 207,-1447 L 206,-1448 L 206,-1449 L 205,-1450 L 204,-1450 L 203,-1451 L 202,-1451 L 201,-1452 L 200,-1452 L 199,-1452 L 198,-1452 L 197,-1452 L 196,-1452 L 195,-1452 L 194,-1453 L 193,-1453 L 192,-1454 L 192,-1455 L 192,-1456 L 192,-1457 L 192,-1458 L 192,-1459 L 191,-1460 L 192,-1461 L 192,-1462 L 192,-1463 L 193,-1464 L 194,-1464 L 196,-1465 L 197,-1465 L 198,-1466 L 200,-1466 L 201,-1466 L 201,-1467 L 202,-1467 L 203,-1467 L 204,-1468 L 205,-1468 L 205,-1469 L 205,-1470 L 206,-1470 L 206,-1471 L 207,-1472 L 208,-1474 L 209,-1475 L 209,-1476 L 210,-1477 L 211,-1477 L 211,-1478 L 212,-1478 L 212,-1479 L 212,-1480 L 213,-1481 L 213,-1482 L 213,-1484 L 213,-1485 L 213,-1486 L 213,-1487 L 213,-1488 L 213,-1489 L 213,-1490 L 213,-1492 L 212,-1493 L 212,-1494 L 212,-1495 L 212,-1496 L 212,-1497 L 211,-1497 L 211,-1498 L 210,-1499 L 209,-1500 L 208,-1500 L 207,-1500 L 206,-1500 L 205,-1500 L 205,-1501 L 204,-1501 L 203,-1501 L 202,-1501 L 201,-1502 L 201,-1503 L 200,-1504 L 200,-1505 L 200,-1506 L 200,-1507 L 199,-1507 L 199,-1508 L 199,-1509 L 200,-1510 L 200,-1511 L 201,-1512 L 202,-1513 L 203,-1514 L 204,-1515 L 205,-1516 L 206,-1517 L 207,-1517 L 208,-1518 L 208,-1519 L 209,-1519 L 209,-1520 L 210,-1521 L 211,-1521 L 212,-1522 L 213,-1523 L 215,-1524 L 215,-1525 L 216,-1526 L 217,-1527 L 217,-1528 L 217,-1529 L 216,-1530 L 216,-1531 L 216,-1532 L 215,-1532 L 215,-1533 L 215,-1534 L 214,-1535 L 214,-1536 L 214,-1537 L 213,-1538 L 213,-1539 L 213,-1540 L 213,-1541 L 212,-1543 L 212,-1544 L 211,-1545 L 210,-1545 L 209,-1545 L 208,-1545 L 207,-1545 L 206,-1545 L 205,-1544 L 205,-1545 L 204,-1545 L 204,-1546 L 204,-1547 L 205,-1548 L 205,-1549 L 206,-1550 L 206,-1551 L 206,-1552 L 207,-1552 L 207,-1553 L 207,-1554 L 208,-1554 L 208,-1555 L 208,-1556 L 209,-1557 L 209,-1558 L 209,-1559 L 210,-1559 L 210,-1560 L 210,-1561 L 210,-1562 L 301,-1562 L 301,-1561 L 301,-1560 L 301,-1559 L 302,-1559 L 303,-1558 L 303,-1557 L 302,-1557 L 303,-1557 L 303,-1556 L 302,-1556 L 301,-1556 " /></g>
</svg>
