<?xml version="1.0" standalone="no"?><!DOCTYPE svg PUBLIC "-//W3C//DTD SVG 1.1//EN" "http://www.w3.org/Graphics/SVG/1.1/DTD/svg11.dtd"><svg xmlns="http://www.w3.org/2000/svg" viewBox="-13 -777 163 236" version = "1.1">
<g id="80304" ><path d="M 57,-763 L 58,-763 L 58,-762 L 59,-762 L 59,-761 L 60,-761 L 60,-760 L 60,-759 L 61,-759 L 62,-759 L 63,-759 L 64,-760 L 65,-760 L 66,-760 L 66,-761 L 67,-762 L 68,-762 L 69,-762 L 69,-763 L 70,-763 L 71,-764 L 72,-764 L 72,-763 L 73,-763 L 73,-762 L 74,-762 L 75,-762 L 76,-762 L 77,-762 L 78,-762 L 79,-762 L 80,-761 L 80,-762 L 80,-761 L 80,-760 L 80,-759 L 80,-758 L 81,-758 L 81,-757 L 82,-757 L 83,-757 L 83,-756 L 84,-756 L 84,-755 L 85,-755 L 85,-754 L 98,-739 L 125,-708 L 141,-691 L 143,-689 L 145,-686 L 149,-680 L 150,-679 L 149,-678 L 149,-677 L 149,-676 L 149,-675 L 149,-674 L 149,-673 L 149,-672 L 149,-670 L 148,-670 L 148,-669 L 148,-668 L 148,-667 L 148,-666 L 147,-666 L 146,-665 L 146,-664 L 145,-664 L 145,-663 L 145,-662 L 145,-661 L 145,-660 L 145,-659 L 145,-658 L 145,-657 L 145,-656 L 146,-656 L 146,-655 L 146,-654 L 145,-653 L 146,-652 L 145,-652 L 145,-651 L 145,-650 L 145,-649 L 145,-648 L 145,-647 L 144,-647 L 144,-646 L 143,-646 L 143,-645 L 143,-646 L 142,-646 L 142,-645 L 142,-644 L 141,-644 L 141,-643 L 141,-642 L 142,-642 L 141,-642 L 141,-641 L 142,-641 L 143,-641 L 142,-640 L 142,-639 L 142,-638 L 141,-638 L 141,-637 L 141,-636 L 141,-635 L 141,-634 L 141,-633 L 140,-633 L 140,-632 L 139,-632 L 139,-631 L 138,-631 L 137,-631 L 137,-630 L 136,-630 L 135,-630 L 135,-629 L 134,-629 L 133,-629 L 132,-629 L 131,-630 L 130,-630 L 129,-630 L 128,-630 L 127,-630 L 126,-630 L 126,-629 L 127,-629 L 126,-629 L 125,-629 L 124,-629 L 123,-628 L 125,-625 L 126,-624 L 130,-620 L 131,-620 L 132,-619 L 133,-618 L 134,-617 L 135,-615 L 135,-614 L 135,-612 L 135,-608 L 135,-606 L 135,-604 L 135,-603 L 135,-602 L 135,-601 L 135,-600 L 135,-599 L 136,-598 L 136,-596 L 136,-593 L 136,-592 L 136,-591 L 136,-590 L 137,-589 L 137,-588 L 137,-587 L 138,-584 L 139,-580 L 141,-576 L 141,-575 L 142,-573 L 142,-572 L 141,-572 L 140,-572 L 139,-572 L 139,-573 L 138,-573 L 138,-574 L 137,-574 L 136,-574 L 136,-573 L 135,-573 L 135,-572 L 134,-573 L 134,-572 L 134,-573 L 133,-572 L 134,-572 L 133,-572 L 133,-571 L 133,-572 L 132,-572 L 131,-572 L 131,-571 L 130,-571 L 130,-570 L 131,-570 L 130,-570 L 130,-569 L 130,-568 L 129,-568 L 130,-567 L 130,-566 L 129,-566 L 128,-566 L 128,-565 L 128,-564 L 128,-563 L 127,-563 L 127,-562 L 126,-562 L 126,-561 L 125,-561 L 126,-561 L 126,-560 L 126,-559 L 126,-558 L 126,-557 L 125,-557 L 126,-557 L 126,-556 L 125,-556 L 124,-556 L 123,-556 L 123,-555 L 123,-554 L 122,-554 L 122,-553 L 122,-554 L 121,-554 L 121,-553 L 120,-552 L 118,-552 L 114,-552 L 110,-551 L 106,-551 L 105,-553 L 103,-556 L 102,-556 L 100,-556 L 99,-557 L 98,-558 L 97,-557 L 96,-557 L 95,-558 L 94,-557 L 93,-557 L 92,-557 L 92,-556 L 91,-556 L 90,-556 L 89,-556 L 89,-555 L 88,-555 L 87,-555 L 86,-555 L 86,-554 L 86,-553 L 85,-553 L 84,-553 L 83,-552 L 83,-551 L 82,-551 L 82,-552 L 82,-551 L 81,-551 L 80,-551 L 80,-550 L 79,-550 L 79,-549 L 79,-548 L 79,-547 L 78,-547 L 77,-547 L 77,-548 L 76,-548 L 75,-547 L 74,-547 L 73,-546 L 73,-545 L 73,-544 L 73,-543 L 74,-543 L 74,-542 L 73,-542 L 72,-542 L 72,-543 L 71,-543 L 70,-544 L 69,-544 L 68,-544 L 68,-543 L 67,-543 L 68,-542 L 67,-541 L 66,-541 L 66,-542 L 65,-543 L 64,-544 L 63,-544 L 63,-543 L 62,-543 L 62,-542 L 62,-543 L 61,-543 L 61,-544 L 60,-544 L 59,-544 L 59,-545 L 59,-546 L 60,-546 L 60,-547 L 59,-547 L 58,-546 L 58,-545 L 57,-545 L 57,-544 L 56,-544 L 56,-545 L 56,-546 L 55,-547 L 55,-548 L 55,-549 L 55,-550 L 54,-550 L 54,-549 L 54,-548 L 53,-547 L 53,-546 L 52,-546 L 52,-547 L 51,-547 L 50,-547 L 49,-547 L 49,-548 L 49,-549 L 48,-549 L 48,-550 L 48,-551 L 47,-552 L 46,-551 L 46,-550 L 45,-550 L 44,-551 L 45,-551 L 45,-552 L 44,-553 L 43,-553 L 42,-553 L 41,-554 L 41,-555 L 40,-556 L 40,-557 L 40,-558 L 40,-559 L 41,-559 L 42,-559 L 42,-560 L 42,-561 L 41,-561 L 40,-561 L 40,-560 L 39,-560 L 39,-559 L 38,-558 L 38,-559 L 37,-559 L 36,-559 L 35,-559 L 35,-560 L 35,-561 L 34,-561 L 35,-561 L 35,-562 L 36,-562 L 36,-563 L 37,-564 L 36,-564 L 37,-565 L 37,-566 L 38,-566 L 38,-567 L 37,-567 L 36,-567 L 35,-567 L 35,-566 L 34,-566 L 34,-567 L 33,-567 L 33,-568 L 33,-569 L 34,-569 L 34,-570 L 34,-571 L 34,-572 L 35,-572 L 36,-573 L 36,-574 L 35,-574 L 34,-574 L 33,-575 L 32,-575 L 32,-576 L 33,-576 L 33,-577 L 33,-578 L 32,-579 L 33,-579 L 33,-580 L 34,-580 L 34,-581 L 33,-581 L 33,-582 L 33,-583 L 32,-583 L 32,-582 L 32,-581 L 31,-581 L 31,-582 L 30,-582 L 30,-583 L 31,-583 L 31,-584 L 32,-584 L 32,-585 L 32,-586 L 32,-587 L 33,-587 L 34,-587 L 35,-587 L 35,-588 L 34,-589 L 33,-589 L 33,-588 L 33,-589 L 32,-589 L 32,-590 L 32,-591 L 31,-591 L 30,-591 L 30,-592 L 29,-592 L 30,-593 L 30,-594 L 30,-595 L 30,-596 L 31,-596 L 32,-596 L 32,-597 L 33,-597 L 33,-598 L 34,-598 L 34,-599 L 35,-599 L 35,-600 L 35,-601 L 36,-601 L 36,-602 L 37,-602 L 38,-602 L 39,-601 L 40,-601 L 40,-602 L 40,-603 L 39,-603 L 38,-603 L 37,-603 L 37,-604 L 38,-604 L 38,-605 L 39,-606 L 39,-607 L 39,-608 L 38,-608 L 37,-609 L 36,-609 L 36,-610 L 37,-610 L 38,-610 L 38,-609 L 39,-609 L 39,-610 L 39,-611 L 38,-611 L 37,-611 L 37,-612 L 38,-612 L 39,-612 L 40,-612 L 41,-612 L 41,-613 L 40,-613 L 40,-614 L 39,-614 L 38,-614 L 37,-614 L 37,-615 L 38,-615 L 39,-615 L 40,-615 L 41,-615 L 42,-615 L 42,-616 L 42,-617 L 43,-617 L 44,-617 L 45,-617 L 45,-618 L 44,-618 L 43,-618 L 42,-618 L 41,-618 L 40,-618 L 40,-619 L 40,-620 L 41,-621 L 41,-622 L 41,-623 L 42,-623 L 42,-624 L 42,-625 L 43,-625 L 43,-626 L 42,-626 L 41,-626 L 40,-626 L 40,-625 L 39,-625 L 39,-626 L 38,-626 L 38,-627 L 38,-628 L 38,-629 L 38,-630 L 38,-631 L 37,-631 L 36,-630 L 35,-630 L 35,-631 L 35,-632 L 35,-633 L 36,-633 L 36,-634 L 36,-635 L 35,-636 L 35,-637 L 34,-637 L 34,-636 L 34,-635 L 33,-635 L 33,-636 L 32,-636 L 32,-637 L 32,-638 L 33,-639 L 33,-640 L 34,-640 L 34,-641 L 35,-641 L 35,-642 L 34,-643 L 33,-643 L 33,-642 L 33,-641 L 32,-641 L 31,-641 L 31,-642 L 30,-642 L 31,-642 L 31,-643 L 32,-644 L 31,-645 L 31,-646 L 30,-646 L 30,-645 L 29,-645 L 28,-645 L 27,-646 L 27,-647 L 26,-647 L 26,-648 L 26,-649 L 25,-649 L 25,-650 L 24,-650 L 23,-650 L 22,-651 L 21,-651 L 21,-652 L 20,-653 L 19,-653 L 19,-654 L 18,-655 L 18,-656 L 17,-656 L 17,-657 L 16,-657 L 16,-658 L 16,-657 L 15,-658 L 14,-658 L 13,-658 L 13,-659 L 14,-661 L 15,-661 L 15,-662 L 14,-662 L 13,-662 L 12,-662 L 12,-661 L 11,-661 L 10,-662 L 9,-662 L 8,-662 L 7,-662 L 7,-663 L 8,-663 L 9,-664 L 10,-664 L 10,-665 L 9,-665 L 9,-666 L 8,-666 L 7,-667 L 6,-667 L 5,-667 L 5,-668 L 4,-669 L 3,-669 L 3,-670 L 2,-671 L 2,-672 L 2,-673 L 3,-674 L 3,-675 L 3,-676 L 2,-676 L 1,-676 L 0,-676 L 0,-675 L 0,-674 L 0,-673 L -1,-673 L -2,-673 L -2,-674 L -2,-675 L -2,-676 L -1,-676 L 0,-676 L 0,-677 L 0,-678 L -1,-678 L -2,-678 L -2,-679 L -2,-680 L -2,-681 L -1,-681 L -1,-682 L -1,-683 L -1,-684 L -1,-685 L -1,-686 L -2,-687 L -2,-688 L -3,-688 L -4,-689 L -4,-690 L -5,-690 L -5,-691 L -5,-692 L -5,-693 L -4,-694 L -2,-694 L 0,-696 L 0,-697 L 0,-698 L 0,-700 L 0,-701 L 2,-701 L 3,-702 L 5,-703 L 6,-703 L 7,-704 L 7,-705 L 6,-706 L 6,-707 L 7,-708 L 7,-710 L 7,-711 L 7,-712 L 7,-714 L 8,-715 L 8,-717 L 8,-719 L 9,-720 L 10,-720 L 11,-721 L 12,-722 L 13,-723 L 12,-725 L 12,-726 L 11,-726 L 11,-727 L 9,-727 L 8,-727 L 7,-726 L 6,-726 L 5,-726 L 4,-726 L 3,-727 L 3,-728 L 2,-729 L 2,-732 L 1,-734 L 0,-735 L -2,-736 L -2,-737 L -3,-738 L -3,-740 L -4,-741 L -4,-742 L -4,-743 L -4,-744 L -3,-746 L -3,-748 L -3,-749 L -3,-751 L -4,-752 L -5,-753 L -6,-753 L -7,-753 L -9,-753 L -10,-754 L -12,-755 L -13,-756 L -13,-757 L -12,-758 L -10,-760 L -8,-761 L -7,-761 L -6,-763 L -7,-764 L -8,-765 L -11,-766 L -12,-767 L -12,-768 L -11,-769 L -7,-770 L -5,-771 L -5,-774 L -5,-775 L -5,-776 L -6,-777 L 2,-776 L 3,-776 L 3,-775 L 4,-775 L 5,-775 L 6,-775 L 7,-774 L 8,-774 L 8,-773 L 9,-773 L 9,-772 L 10,-772 L 31,-765 L 55,-765 L 56,-764 L 56,-763 L 57,-763 " /></g>
</svg>
