<?xml version="1.0" standalone="no"?><!DOCTYPE svg PUBLIC "-//W3C//DTD SVG 1.1//EN" "http://www.w3.org/Graphics/SVG/1.1/DTD/svg11.dtd"><svg xmlns="http://www.w3.org/2000/svg" viewBox="176 -1564 246 795" version = "1.1">
<g id="80303" ><path d="M 422,-1562 L 422,-1561 L 422,-1562 L 421,-1562 L 420,-1561 L 419,-1561 L 420,-1561 L 419,-1560 L 419,-1561 L 418,-1561 L 417,-1561 L 416,-1561 L 416,-1560 L 417,-1560 L 417,-1559 L 416,-1559 L 416,-1558 L 415,-1558 L 415,-1557 L 414,-1557 L 415,-1557 L 415,-1556 L 414,-1556 L 415,-1555 L 415,-1556 L 416,-1556 L 416,-1555 L 417,-1555 L 416,-1555 L 415,-1555 L 414,-1554 L 414,-1553 L 415,-1553 L 415,-1552 L 415,-1553 L 414,-1553 L 414,-1552 L 413,-1552 L 413,-1551 L 412,-1551 L 413,-1551 L 414,-1551 L 415,-1551 L 414,-1550 L 413,-1550 L 413,-1549 L 414,-1549 L 414,-1548 L 415,-1548 L 415,-1547 L 414,-1547 L 413,-1546 L 413,-1545 L 413,-1544 L 414,-1544 L 414,-1545 L 415,-1545 L 415,-1544 L 415,-1543 L 415,-1542 L 414,-1542 L 415,-1542 L 415,-1541 L 414,-1541 L 414,-1540 L 414,-1539 L 414,-1538 L 413,-1538 L 412,-1537 L 413,-1537 L 414,-1537 L 414,-1536 L 413,-1536 L 412,-1535 L 413,-1535 L 414,-1535 L 414,-1534 L 413,-1534 L 413,-1533 L 412,-1533 L 411,-1532 L 410,-1532 L 410,-1533 L 411,-1533 L 411,-1534 L 410,-1534 L 410,-1533 L 409,-1533 L 410,-1532 L 409,-1531 L 409,-1530 L 408,-1530 L 408,-1529 L 409,-1529 L 410,-1529 L 410,-1528 L 409,-1528 L 409,-1527 L 408,-1527 L 408,-1526 L 409,-1526 L 410,-1526 L 410,-1525 L 409,-1525 L 409,-1524 L 408,-1525 L 408,-1524 L 408,-1523 L 408,-1522 L 409,-1522 L 409,-1521 L 408,-1521 L 409,-1521 L 409,-1520 L 410,-1520 L 409,-1519 L 410,-1519 L 410,-1518 L 409,-1518 L 408,-1517 L 409,-1517 L 410,-1516 L 409,-1516 L 408,-1515 L 408,-1514 L 408,-1515 L 409,-1515 L 409,-1514 L 410,-1514 L 409,-1514 L 409,-1513 L 410,-1513 L 410,-1512 L 409,-1512 L 408,-1512 L 409,-1512 L 409,-1511 L 409,-1510 L 410,-1510 L 410,-1511 L 410,-1510 L 410,-1509 L 409,-1509 L 410,-1509 L 410,-1508 L 411,-1508 L 410,-1508 L 410,-1507 L 411,-1507 L 411,-1506 L 410,-1506 L 411,-1505 L 411,-1506 L 412,-1506 L 411,-1505 L 410,-1505 L 410,-1504 L 409,-1504 L 409,-1503 L 409,-1502 L 409,-1501 L 408,-1501 L 409,-1501 L 408,-1501 L 408,-1500 L 409,-1500 L 409,-1499 L 409,-1498 L 410,-1498 L 409,-1498 L 409,-1497 L 409,-1496 L 409,-1495 L 408,-1495 L 407,-1495 L 408,-1495 L 408,-1494 L 407,-1494 L 408,-1494 L 407,-1494 L 407,-1493 L 408,-1493 L 407,-1493 L 407,-1492 L 406,-1492 L 406,-1491 L 407,-1491 L 407,-1492 L 407,-1491 L 408,-1491 L 407,-1491 L 408,-1491 L 408,-1490 L 407,-1490 L 406,-1490 L 406,-1489 L 407,-1489 L 407,-1490 L 407,-1489 L 406,-1489 L 407,-1489 L 407,-1488 L 408,-1488 L 407,-1488 L 407,-1487 L 407,-1488 L 408,-1488 L 408,-1487 L 407,-1487 L 407,-1486 L 408,-1487 L 409,-1487 L 409,-1486 L 409,-1487 L 409,-1486 L 410,-1486 L 410,-1487 L 410,-1486 L 410,-1485 L 410,-1484 L 410,-1483 L 411,-1483 L 411,-1482 L 412,-1482 L 413,-1482 L 413,-1481 L 413,-1480 L 414,-1480 L 414,-1481 L 414,-1480 L 415,-1480 L 416,-1480 L 416,-1479 L 417,-1479 L 417,-1480 L 418,-1480 L 418,-1479 L 419,-1479 L 419,-1480 L 419,-1479 L 419,-1478 L 419,-1479 L 419,-1478 L 419,-1477 L 418,-1477 L 418,-1476 L 419,-1476 L 419,-1475 L 419,-1476 L 420,-1476 L 420,-1475 L 420,-1474 L 420,-1475 L 421,-1475 L 421,-1474 L 421,-1475 L 421,-1474 L 420,-1474 L 420,-1473 L 421,-1473 L 421,-1472 L 421,-1471 L 420,-1471 L 420,-1470 L 420,-1469 L 419,-1469 L 420,-1469 L 419,-1469 L 420,-1469 L 420,-1468 L 419,-1468 L 420,-1468 L 419,-1468 L 419,-1467 L 420,-1467 L 419,-1466 L 419,-1465 L 418,-1464 L 419,-1464 L 419,-1463 L 420,-1463 L 420,-1462 L 419,-1461 L 420,-1461 L 420,-1460 L 419,-1460 L 419,-1459 L 419,-1458 L 419,-1457 L 418,-1457 L 417,-1457 L 417,-1456 L 418,-1456 L 417,-1456 L 417,-1455 L 416,-1455 L 416,-1454 L 415,-1454 L 415,-1453 L 416,-1453 L 415,-1453 L 415,-1452 L 415,-1451 L 414,-1451 L 414,-1450 L 415,-1450 L 414,-1450 L 415,-1450 L 415,-1449 L 414,-1449 L 415,-1449 L 414,-1449 L 414,-1448 L 413,-1448 L 413,-1447 L 412,-1447 L 411,-1447 L 411,-1446 L 410,-1446 L 410,-1447 L 410,-1446 L 409,-1446 L 409,-1445 L 408,-1445 L 408,-1446 L 408,-1445 L 408,-1444 L 408,-1445 L 407,-1445 L 407,-1444 L 408,-1444 L 408,-1443 L 407,-1443 L 407,-1442 L 406,-1441 L 407,-1441 L 407,-1440 L 407,-1439 L 406,-1439 L 407,-1439 L 407,-1438 L 407,-1437 L 406,-1436 L 407,-1436 L 406,-1436 L 405,-1436 L 405,-1437 L 405,-1436 L 405,-1435 L 405,-1434 L 404,-1434 L 403,-1434 L 403,-1433 L 402,-1433 L 402,-1432 L 401,-1432 L 400,-1432 L 399,-1432 L 399,-1431 L 398,-1431 L 398,-1430 L 398,-1429 L 397,-1429 L 397,-1430 L 396,-1430 L 396,-1429 L 396,-1428 L 395,-1428 L 395,-1427 L 395,-1426 L 394,-1427 L 394,-1426 L 394,-1425 L 394,-1424 L 394,-1423 L 394,-1422 L 393,-1422 L 393,-1421 L 392,-1421 L 391,-1421 L 391,-1420 L 391,-1419 L 390,-1418 L 390,-1417 L 389,-1417 L 388,-1417 L 388,-1416 L 388,-1415 L 387,-1414 L 386,-1414 L 386,-1413 L 385,-1413 L 384,-1412 L 383,-1411 L 382,-1411 L 381,-1410 L 380,-1410 L 379,-1410 L 379,-1409 L 379,-1408 L 380,-1407 L 380,-1406 L 379,-1406 L 379,-1405 L 378,-1405 L 378,-1404 L 378,-1403 L 377,-1403 L 377,-1402 L 376,-1402 L 376,-1401 L 376,-1400 L 376,-1399 L 375,-1398 L 375,-1397 L 374,-1397 L 374,-1396 L 373,-1395 L 373,-1394 L 374,-1394 L 374,-1393 L 373,-1393 L 372,-1393 L 371,-1392 L 371,-1391 L 371,-1390 L 370,-1390 L 370,-1389 L 369,-1389 L 369,-1388 L 369,-1387 L 368,-1387 L 368,-1388 L 367,-1388 L 367,-1387 L 366,-1387 L 366,-1386 L 365,-1386 L 365,-1385 L 365,-1384 L 364,-1384 L 364,-1383 L 364,-1382 L 363,-1382 L 363,-1381 L 363,-1380 L 364,-1380 L 364,-1379 L 364,-1378 L 365,-1378 L 365,-1377 L 364,-1377 L 364,-1376 L 363,-1376 L 363,-1375 L 363,-1374 L 362,-1374 L 362,-1373 L 362,-1372 L 362,-1371 L 362,-1370 L 362,-1369 L 362,-1368 L 362,-1367 L 362,-1366 L 362,-1365 L 361,-1365 L 361,-1364 L 361,-1363 L 361,-1362 L 360,-1361 L 360,-1360 L 360,-1359 L 359,-1359 L 359,-1358 L 359,-1357 L 358,-1356 L 358,-1355 L 358,-1354 L 357,-1354 L 357,-1353 L 356,-1353 L 356,-1352 L 356,-1351 L 355,-1350 L 355,-1349 L 355,-1348 L 355,-1347 L 354,-1347 L 354,-1346 L 353,-1345 L 353,-1344 L 352,-1344 L 352,-1343 L 351,-1343 L 351,-1342 L 351,-1341 L 350,-1340 L 350,-1339 L 350,-1338 L 350,-1337 L 349,-1337 L 349,-1336 L 348,-1335 L 348,-1334 L 348,-1333 L 348,-1332 L 347,-1332 L 347,-1331 L 347,-1330 L 347,-1329 L 346,-1328 L 346,-1327 L 346,-1326 L 345,-1325 L 345,-1324 L 344,-1323 L 343,-1322 L 341,-1321 L 340,-1320 L 338,-1320 L 337,-1036 L 335,-825 L 335,-788 L 234,-785 L 234,-772 L 179,-770 L 179,-769 L 179,-792 L 178,-815 L 177,-908 L 176,-949 L 176,-991 L 176,-1043 L 176,-1046 L 177,-1045 L 178,-1045 L 179,-1044 L 180,-1043 L 180,-1042 L 181,-1041 L 182,-1040 L 183,-1040 L 184,-1040 L 184,-1041 L 185,-1043 L 185,-1044 L 184,-1045 L 184,-1046 L 183,-1047 L 183,-1048 L 182,-1048 L 181,-1049 L 180,-1049 L 179,-1049 L 178,-1050 L 177,-1050 L 176,-1050 L 176,-1051 L 176,-1052 L 177,-1052 L 178,-1053 L 179,-1053 L 181,-1053 L 182,-1052 L 184,-1052 L 185,-1051 L 186,-1051 L 188,-1051 L 189,-1052 L 190,-1052 L 190,-1054 L 190,-1056 L 190,-1058 L 190,-1059 L 190,-1060 L 191,-1061 L 191,-1062 L 192,-1064 L 193,-1064 L 194,-1064 L 195,-1064 L 196,-1064 L 197,-1064 L 197,-1065 L 197,-1066 L 197,-1067 L 198,-1067 L 199,-1068 L 200,-1068 L 200,-1069 L 201,-1069 L 201,-1070 L 202,-1071 L 202,-1072 L 202,-1073 L 203,-1073 L 203,-1074 L 204,-1074 L 204,-1075 L 204,-1076 L 204,-1077 L 205,-1077 L 205,-1078 L 206,-1079 L 207,-1079 L 208,-1079 L 208,-1078 L 208,-1077 L 208,-1076 L 207,-1076 L 207,-1075 L 207,-1074 L 206,-1073 L 205,-1073 L 205,-1072 L 205,-1071 L 206,-1071 L 207,-1071 L 207,-1070 L 208,-1070 L 209,-1070 L 210,-1070 L 210,-1071 L 210,-1072 L 209,-1072 L 209,-1073 L 209,-1074 L 208,-1074 L 209,-1074 L 208,-1075 L 208,-1076 L 209,-1077 L 210,-1077 L 210,-1076 L 211,-1076 L 211,-1075 L 211,-1074 L 212,-1074 L 212,-1075 L 213,-1075 L 214,-1075 L 215,-1075 L 216,-1075 L 217,-1075 L 218,-1075 L 218,-1076 L 218,-1077 L 218,-1078 L 218,-1079 L 218,-1080 L 217,-1081 L 217,-1082 L 216,-1082 L 215,-1081 L 214,-1081 L 213,-1081 L 213,-1082 L 212,-1082 L 211,-1082 L 211,-1083 L 210,-1083 L 210,-1084 L 210,-1085 L 210,-1086 L 210,-1087 L 210,-1088 L 210,-1089 L 210,-1090 L 210,-1091 L 210,-1092 L 209,-1092 L 209,-1093 L 209,-1094 L 210,-1095 L 210,-1096 L 211,-1096 L 212,-1096 L 213,-1096 L 213,-1095 L 214,-1094 L 214,-1093 L 213,-1093 L 213,-1092 L 213,-1091 L 213,-1090 L 214,-1090 L 214,-1089 L 215,-1089 L 216,-1089 L 217,-1089 L 217,-1090 L 218,-1090 L 218,-1091 L 218,-1092 L 219,-1092 L 219,-1093 L 220,-1093 L 220,-1094 L 220,-1095 L 220,-1096 L 220,-1097 L 220,-1099 L 221,-1100 L 221,-1102 L 221,-1103 L 221,-1104 L 221,-1105 L 221,-1106 L 220,-1107 L 221,-1108 L 222,-1108 L 223,-1107 L 224,-1106 L 226,-1106 L 227,-1105 L 229,-1106 L 230,-1106 L 230,-1107 L 230,-1108 L 230,-1109 L 230,-1110 L 229,-1111 L 229,-1112 L 229,-1113 L 230,-1114 L 231,-1114 L 232,-1114 L 233,-1113 L 234,-1113 L 235,-1113 L 235,-1114 L 235,-1115 L 234,-1115 L 234,-1116 L 234,-1117 L 234,-1118 L 235,-1118 L 235,-1119 L 236,-1119 L 237,-1119 L 237,-1120 L 237,-1121 L 238,-1121 L 237,-1121 L 237,-1122 L 237,-1123 L 236,-1122 L 236,-1123 L 235,-1122 L 235,-1123 L 235,-1124 L 235,-1125 L 235,-1126 L 235,-1127 L 235,-1128 L 236,-1128 L 236,-1129 L 237,-1129 L 237,-1130 L 238,-1130 L 239,-1130 L 240,-1130 L 240,-1131 L 240,-1132 L 239,-1132 L 238,-1132 L 237,-1133 L 236,-1133 L 236,-1134 L 236,-1135 L 236,-1134 L 236,-1135 L 237,-1135 L 238,-1135 L 238,-1134 L 239,-1134 L 240,-1134 L 240,-1135 L 240,-1136 L 239,-1136 L 239,-1137 L 238,-1137 L 238,-1138 L 237,-1137 L 237,-1138 L 237,-1137 L 236,-1138 L 235,-1138 L 235,-1139 L 235,-1140 L 234,-1140 L 235,-1140 L 235,-1141 L 235,-1142 L 236,-1142 L 236,-1143 L 237,-1143 L 237,-1144 L 236,-1144 L 236,-1143 L 236,-1144 L 237,-1144 L 237,-1145 L 237,-1144 L 237,-1145 L 238,-1145 L 237,-1145 L 238,-1145 L 238,-1146 L 239,-1146 L 239,-1147 L 238,-1147 L 237,-1147 L 236,-1148 L 237,-1148 L 238,-1148 L 239,-1148 L 239,-1149 L 240,-1149 L 241,-1149 L 241,-1150 L 242,-1150 L 243,-1150 L 244,-1150 L 244,-1149 L 245,-1149 L 246,-1149 L 246,-1148 L 247,-1148 L 247,-1149 L 247,-1150 L 247,-1151 L 247,-1152 L 247,-1153 L 246,-1153 L 246,-1154 L 246,-1155 L 246,-1156 L 245,-1157 L 245,-1158 L 246,-1158 L 246,-1159 L 247,-1160 L 248,-1161 L 249,-1161 L 249,-1162 L 249,-1163 L 250,-1164 L 249,-1164 L 249,-1165 L 249,-1166 L 248,-1166 L 248,-1167 L 248,-1168 L 248,-1169 L 249,-1169 L 249,-1170 L 250,-1170 L 250,-1169 L 251,-1169 L 251,-1168 L 251,-1167 L 251,-1166 L 252,-1166 L 252,-1165 L 252,-1166 L 253,-1166 L 253,-1165 L 253,-1166 L 253,-1165 L 254,-1166 L 254,-1167 L 254,-1168 L 255,-1168 L 255,-1167 L 256,-1167 L 256,-1168 L 256,-1167 L 257,-1167 L 257,-1166 L 258,-1166 L 259,-1166 L 260,-1166 L 260,-1167 L 260,-1166 L 261,-1166 L 262,-1167 L 262,-1168 L 263,-1168 L 263,-1169 L 263,-1168 L 263,-1169 L 264,-1169 L 264,-1170 L 263,-1170 L 263,-1171 L 263,-1172 L 263,-1173 L 262,-1173 L 263,-1173 L 263,-1174 L 264,-1174 L 264,-1175 L 263,-1175 L 264,-1175 L 264,-1176 L 264,-1177 L 263,-1177 L 263,-1178 L 262,-1178 L 262,-1177 L 262,-1178 L 261,-1178 L 262,-1178 L 261,-1178 L 262,-1178 L 262,-1179 L 261,-1179 L 260,-1179 L 260,-1180 L 259,-1180 L 260,-1180 L 260,-1181 L 259,-1181 L 259,-1180 L 259,-1181 L 259,-1180 L 258,-1180 L 258,-1181 L 259,-1181 L 259,-1182 L 260,-1183 L 260,-1182 L 261,-1182 L 261,-1181 L 261,-1182 L 262,-1182 L 263,-1182 L 264,-1182 L 264,-1183 L 264,-1182 L 264,-1183 L 265,-1183 L 264,-1184 L 265,-1184 L 266,-1184 L 266,-1185 L 266,-1186 L 267,-1186 L 266,-1186 L 266,-1187 L 265,-1187 L 264,-1187 L 264,-1186 L 264,-1187 L 263,-1187 L 263,-1186 L 263,-1187 L 262,-1187 L 261,-1187 L 261,-1188 L 260,-1188 L 260,-1189 L 261,-1189 L 261,-1190 L 261,-1191 L 262,-1191 L 261,-1191 L 261,-1192 L 260,-1192 L 259,-1192 L 259,-1193 L 258,-1193 L 257,-1193 L 256,-1193 L 256,-1192 L 255,-1191 L 255,-1192 L 254,-1192 L 253,-1192 L 253,-1193 L 253,-1194 L 253,-1195 L 254,-1195 L 254,-1196 L 254,-1197 L 255,-1197 L 256,-1197 L 256,-1198 L 257,-1198 L 258,-1198 L 258,-1197 L 259,-1197 L 259,-1196 L 259,-1195 L 260,-1195 L 261,-1194 L 262,-1194 L 262,-1193 L 263,-1194 L 263,-1193 L 264,-1193 L 265,-1192 L 265,-1193 L 266,-1193 L 266,-1194 L 265,-1194 L 265,-1195 L 266,-1195 L 266,-1196 L 265,-1196 L 265,-1197 L 265,-1198 L 265,-1197 L 264,-1197 L 264,-1198 L 264,-1199 L 265,-1199 L 265,-1200 L 265,-1201 L 266,-1201 L 266,-1202 L 265,-1202 L 265,-1203 L 266,-1203 L 266,-1204 L 266,-1205 L 266,-1206 L 266,-1207 L 266,-1208 L 266,-1209 L 266,-1210 L 266,-1211 L 265,-1211 L 265,-1210 L 265,-1211 L 265,-1212 L 264,-1212 L 265,-1213 L 264,-1214 L 264,-1215 L 264,-1216 L 263,-1216 L 263,-1217 L 264,-1217 L 264,-1218 L 263,-1218 L 264,-1218 L 264,-1217 L 264,-1218 L 264,-1219 L 263,-1219 L 263,-1220 L 262,-1220 L 261,-1220 L 260,-1220 L 260,-1219 L 260,-1220 L 259,-1220 L 260,-1220 L 260,-1219 L 259,-1219 L 258,-1219 L 258,-1218 L 257,-1218 L 257,-1217 L 257,-1216 L 257,-1215 L 256,-1215 L 255,-1215 L 255,-1216 L 255,-1217 L 255,-1218 L 254,-1218 L 254,-1219 L 255,-1219 L 255,-1220 L 254,-1220 L 255,-1220 L 255,-1221 L 254,-1221 L 254,-1222 L 255,-1222 L 255,-1223 L 255,-1222 L 256,-1223 L 255,-1223 L 255,-1224 L 256,-1224 L 256,-1225 L 255,-1225 L 256,-1225 L 256,-1226 L 257,-1226 L 258,-1226 L 259,-1226 L 260,-1225 L 260,-1224 L 261,-1224 L 261,-1225 L 262,-1225 L 262,-1226 L 262,-1227 L 261,-1227 L 261,-1228 L 261,-1229 L 261,-1228 L 262,-1229 L 262,-1230 L 263,-1230 L 264,-1230 L 264,-1231 L 265,-1230 L 266,-1230 L 265,-1229 L 266,-1229 L 266,-1228 L 266,-1227 L 265,-1227 L 265,-1226 L 266,-1226 L 266,-1227 L 266,-1226 L 267,-1226 L 268,-1226 L 268,-1227 L 269,-1227 L 269,-1228 L 270,-1228 L 270,-1229 L 270,-1228 L 271,-1228 L 271,-1229 L 272,-1229 L 272,-1230 L 272,-1231 L 273,-1231 L 273,-1232 L 272,-1232 L 272,-1233 L 273,-1233 L 272,-1233 L 273,-1234 L 273,-1235 L 274,-1235 L 274,-1236 L 274,-1237 L 274,-1238 L 275,-1238 L 276,-1238 L 277,-1238 L 276,-1238 L 276,-1239 L 275,-1239 L 275,-1240 L 274,-1240 L 273,-1240 L 273,-1239 L 272,-1239 L 272,-1240 L 271,-1240 L 271,-1241 L 271,-1240 L 271,-1241 L 270,-1241 L 270,-1242 L 271,-1242 L 271,-1243 L 270,-1243 L 271,-1243 L 271,-1244 L 271,-1245 L 272,-1245 L 271,-1245 L 271,-1246 L 272,-1246 L 272,-1247 L 273,-1246 L 273,-1247 L 273,-1246 L 274,-1246 L 275,-1246 L 276,-1246 L 276,-1247 L 276,-1246 L 277,-1246 L 277,-1247 L 277,-1246 L 278,-1246 L 278,-1247 L 279,-1247 L 279,-1248 L 280,-1248 L 280,-1249 L 280,-1250 L 280,-1251 L 280,-1252 L 281,-1252 L 282,-1252 L 282,-1253 L 283,-1253 L 283,-1252 L 284,-1252 L 283,-1251 L 284,-1251 L 284,-1252 L 284,-1251 L 285,-1251 L 285,-1252 L 284,-1252 L 284,-1253 L 284,-1254 L 285,-1254 L 285,-1255 L 284,-1255 L 283,-1255 L 282,-1255 L 282,-1256 L 281,-1256 L 281,-1255 L 280,-1255 L 279,-1255 L 279,-1254 L 278,-1254 L 278,-1253 L 277,-1253 L 277,-1252 L 276,-1252 L 276,-1253 L 276,-1254 L 277,-1255 L 276,-1255 L 276,-1256 L 275,-1256 L 275,-1257 L 274,-1257 L 274,-1258 L 274,-1259 L 274,-1260 L 273,-1260 L 273,-1261 L 274,-1261 L 275,-1261 L 275,-1260 L 275,-1261 L 276,-1261 L 275,-1261 L 276,-1261 L 276,-1262 L 276,-1263 L 276,-1264 L 277,-1264 L 277,-1265 L 276,-1265 L 276,-1266 L 277,-1266 L 276,-1266 L 276,-1267 L 277,-1267 L 277,-1268 L 276,-1268 L 276,-1267 L 276,-1268 L 275,-1268 L 275,-1269 L 274,-1269 L 275,-1269 L 275,-1270 L 274,-1270 L 275,-1270 L 275,-1271 L 275,-1272 L 276,-1272 L 276,-1273 L 277,-1273 L 278,-1273 L 278,-1274 L 278,-1275 L 278,-1276 L 279,-1276 L 280,-1276 L 280,-1277 L 280,-1278 L 281,-1278 L 281,-1279 L 280,-1279 L 280,-1280 L 280,-1281 L 280,-1282 L 279,-1282 L 279,-1283 L 279,-1284 L 278,-1284 L 278,-1285 L 277,-1285 L 277,-1284 L 277,-1285 L 276,-1285 L 276,-1286 L 277,-1286 L 277,-1287 L 278,-1287 L 278,-1288 L 279,-1288 L 279,-1289 L 279,-1290 L 280,-1290 L 280,-1291 L 281,-1291 L 281,-1292 L 282,-1292 L 282,-1293 L 283,-1293 L 283,-1294 L 284,-1294 L 284,-1293 L 285,-1294 L 286,-1295 L 287,-1295 L 288,-1295 L 289,-1295 L 289,-1296 L 290,-1296 L 290,-1295 L 289,-1295 L 290,-1295 L 291,-1295 L 292,-1295 L 292,-1294 L 293,-1294 L 293,-1293 L 293,-1294 L 294,-1294 L 294,-1293 L 295,-1293 L 296,-1293 L 296,-1292 L 296,-1293 L 297,-1293 L 298,-1294 L 298,-1295 L 297,-1295 L 297,-1296 L 297,-1297 L 297,-1298 L 296,-1298 L 297,-1298 L 297,-1299 L 296,-1299 L 297,-1299 L 297,-1300 L 296,-1300 L 296,-1301 L 297,-1301 L 296,-1301 L 295,-1301 L 296,-1302 L 296,-1303 L 296,-1304 L 295,-1304 L 295,-1305 L 295,-1306 L 296,-1306 L 295,-1306 L 295,-1307 L 294,-1307 L 294,-1308 L 295,-1308 L 295,-1309 L 294,-1309 L 294,-1310 L 294,-1311 L 294,-1312 L 295,-1312 L 294,-1312 L 294,-1313 L 295,-1313 L 294,-1314 L 294,-1315 L 295,-1315 L 294,-1315 L 294,-1316 L 294,-1317 L 293,-1317 L 293,-1316 L 293,-1317 L 293,-1318 L 294,-1318 L 293,-1319 L 293,-1320 L 294,-1320 L 294,-1321 L 295,-1321 L 296,-1321 L 296,-1320 L 297,-1320 L 297,-1319 L 298,-1319 L 298,-1318 L 299,-1318 L 299,-1317 L 298,-1317 L 298,-1316 L 298,-1315 L 297,-1315 L 298,-1315 L 298,-1314 L 299,-1314 L 299,-1313 L 300,-1313 L 301,-1313 L 301,-1314 L 302,-1314 L 302,-1315 L 302,-1316 L 302,-1317 L 302,-1318 L 302,-1319 L 302,-1320 L 302,-1321 L 302,-1322 L 302,-1323 L 303,-1324 L 303,-1325 L 303,-1326 L 302,-1326 L 302,-1327 L 302,-1328 L 301,-1328 L 301,-1329 L 301,-1330 L 302,-1330 L 302,-1331 L 303,-1331 L 304,-1332 L 304,-1333 L 305,-1333 L 306,-1332 L 306,-1333 L 306,-1332 L 307,-1332 L 307,-1333 L 307,-1332 L 307,-1331 L 308,-1331 L 309,-1331 L 309,-1330 L 309,-1331 L 309,-1330 L 309,-1331 L 310,-1331 L 309,-1330 L 310,-1330 L 310,-1331 L 310,-1332 L 310,-1333 L 310,-1334 L 309,-1334 L 310,-1334 L 310,-1335 L 309,-1335 L 309,-1336 L 308,-1336 L 308,-1337 L 307,-1337 L 308,-1337 L 307,-1338 L 307,-1337 L 307,-1338 L 308,-1338 L 307,-1339 L 308,-1339 L 308,-1340 L 307,-1340 L 308,-1340 L 308,-1341 L 308,-1342 L 308,-1343 L 309,-1343 L 310,-1343 L 310,-1344 L 309,-1344 L 310,-1344 L 310,-1345 L 310,-1346 L 310,-1347 L 310,-1348 L 309,-1348 L 309,-1349 L 308,-1349 L 307,-1349 L 307,-1350 L 306,-1350 L 305,-1350 L 305,-1349 L 304,-1349 L 304,-1348 L 303,-1348 L 302,-1348 L 302,-1349 L 302,-1350 L 303,-1350 L 302,-1350 L 302,-1351 L 303,-1351 L 303,-1352 L 302,-1351 L 302,-1352 L 303,-1352 L 303,-1353 L 303,-1354 L 302,-1354 L 302,-1353 L 302,-1354 L 303,-1354 L 303,-1355 L 302,-1354 L 302,-1355 L 301,-1355 L 302,-1355 L 302,-1356 L 301,-1356 L 301,-1357 L 302,-1357 L 301,-1357 L 301,-1358 L 301,-1357 L 301,-1358 L 300,-1358 L 301,-1358 L 301,-1359 L 300,-1359 L 300,-1360 L 300,-1361 L 300,-1362 L 300,-1361 L 299,-1362 L 300,-1362 L 300,-1363 L 299,-1363 L 300,-1364 L 300,-1363 L 300,-1364 L 299,-1364 L 299,-1365 L 298,-1365 L 298,-1366 L 297,-1366 L 298,-1367 L 297,-1367 L 296,-1367 L 296,-1368 L 295,-1368 L 295,-1369 L 294,-1369 L 294,-1368 L 294,-1369 L 294,-1370 L 293,-1370 L 293,-1371 L 293,-1372 L 293,-1373 L 293,-1372 L 293,-1373 L 294,-1373 L 293,-1373 L 293,-1374 L 292,-1374 L 293,-1374 L 292,-1374 L 291,-1374 L 291,-1375 L 290,-1375 L 291,-1375 L 291,-1376 L 290,-1376 L 290,-1377 L 289,-1377 L 289,-1378 L 289,-1379 L 289,-1380 L 290,-1381 L 291,-1381 L 291,-1382 L 291,-1383 L 292,-1384 L 292,-1383 L 293,-1383 L 293,-1384 L 293,-1385 L 293,-1386 L 293,-1387 L 292,-1387 L 292,-1386 L 292,-1387 L 291,-1387 L 291,-1388 L 290,-1388 L 290,-1389 L 291,-1389 L 292,-1389 L 293,-1388 L 294,-1388 L 294,-1387 L 295,-1387 L 296,-1387 L 297,-1387 L 297,-1388 L 298,-1388 L 298,-1387 L 298,-1388 L 297,-1388 L 297,-1389 L 296,-1389 L 296,-1390 L 297,-1389 L 297,-1390 L 297,-1391 L 296,-1391 L 296,-1392 L 296,-1393 L 295,-1393 L 296,-1393 L 295,-1393 L 294,-1393 L 294,-1394 L 293,-1394 L 292,-1394 L 291,-1394 L 291,-1393 L 290,-1393 L 290,-1392 L 290,-1393 L 289,-1393 L 289,-1394 L 288,-1394 L 289,-1394 L 288,-1395 L 289,-1395 L 288,-1395 L 289,-1395 L 289,-1396 L 288,-1396 L 289,-1396 L 289,-1397 L 288,-1397 L 289,-1397 L 290,-1397 L 291,-1397 L 290,-1397 L 290,-1398 L 291,-1398 L 291,-1399 L 291,-1398 L 292,-1398 L 292,-1399 L 291,-1399 L 292,-1399 L 292,-1400 L 293,-1400 L 294,-1400 L 295,-1400 L 295,-1399 L 295,-1400 L 295,-1399 L 296,-1399 L 297,-1399 L 298,-1399 L 298,-1398 L 298,-1399 L 299,-1399 L 299,-1398 L 299,-1399 L 300,-1399 L 301,-1399 L 301,-1400 L 301,-1401 L 301,-1402 L 301,-1403 L 300,-1403 L 300,-1404 L 299,-1404 L 299,-1405 L 298,-1405 L 297,-1405 L 296,-1406 L 296,-1405 L 295,-1405 L 294,-1406 L 294,-1405 L 293,-1405 L 292,-1405 L 292,-1404 L 292,-1405 L 291,-1405 L 291,-1404 L 290,-1405 L 290,-1404 L 291,-1404 L 290,-1404 L 289,-1404 L 289,-1403 L 288,-1403 L 288,-1402 L 288,-1403 L 288,-1402 L 287,-1402 L 286,-1402 L 286,-1401 L 285,-1401 L 286,-1401 L 285,-1400 L 284,-1400 L 284,-1399 L 283,-1399 L 282,-1399 L 282,-1398 L 281,-1398 L 281,-1399 L 281,-1398 L 281,-1399 L 281,-1400 L 280,-1400 L 280,-1401 L 281,-1401 L 280,-1401 L 280,-1402 L 281,-1402 L 280,-1402 L 280,-1403 L 281,-1403 L 281,-1404 L 281,-1405 L 282,-1405 L 282,-1406 L 282,-1405 L 282,-1406 L 283,-1406 L 284,-1406 L 284,-1407 L 284,-1408 L 285,-1408 L 285,-1407 L 285,-1408 L 285,-1409 L 286,-1409 L 285,-1409 L 285,-1410 L 286,-1410 L 286,-1411 L 285,-1411 L 286,-1411 L 286,-1412 L 287,-1412 L 287,-1413 L 288,-1413 L 289,-1413 L 290,-1413 L 290,-1412 L 290,-1413 L 289,-1414 L 288,-1414 L 288,-1415 L 288,-1416 L 287,-1416 L 287,-1417 L 286,-1417 L 286,-1418 L 285,-1418 L 285,-1419 L 285,-1420 L 284,-1420 L 283,-1420 L 283,-1421 L 284,-1421 L 283,-1421 L 283,-1422 L 282,-1422 L 282,-1421 L 282,-1422 L 281,-1422 L 280,-1422 L 279,-1422 L 279,-1423 L 278,-1423 L 278,-1422 L 277,-1422 L 276,-1422 L 276,-1423 L 276,-1424 L 276,-1425 L 277,-1425 L 277,-1426 L 277,-1427 L 278,-1427 L 278,-1428 L 278,-1429 L 278,-1430 L 278,-1431 L 278,-1432 L 279,-1432 L 278,-1432 L 278,-1433 L 278,-1434 L 277,-1434 L 277,-1435 L 276,-1435 L 276,-1436 L 277,-1436 L 276,-1437 L 277,-1437 L 277,-1438 L 276,-1438 L 276,-1439 L 276,-1440 L 275,-1440 L 275,-1441 L 276,-1441 L 276,-1442 L 277,-1442 L 277,-1443 L 278,-1443 L 278,-1444 L 278,-1445 L 279,-1445 L 280,-1445 L 281,-1446 L 280,-1446 L 280,-1447 L 281,-1447 L 282,-1447 L 283,-1447 L 283,-1448 L 284,-1448 L 284,-1449 L 284,-1448 L 285,-1448 L 286,-1448 L 286,-1449 L 287,-1449 L 287,-1448 L 288,-1448 L 289,-1448 L 289,-1449 L 289,-1448 L 289,-1447 L 290,-1447 L 290,-1448 L 290,-1449 L 289,-1449 L 289,-1450 L 289,-1451 L 288,-1451 L 288,-1452 L 287,-1452 L 287,-1451 L 287,-1452 L 287,-1453 L 287,-1454 L 286,-1454 L 285,-1454 L 286,-1454 L 286,-1455 L 285,-1455 L 285,-1454 L 284,-1455 L 284,-1456 L 285,-1456 L 286,-1456 L 286,-1455 L 286,-1456 L 287,-1456 L 287,-1457 L 288,-1456 L 288,-1457 L 289,-1457 L 289,-1458 L 290,-1458 L 290,-1459 L 290,-1460 L 291,-1460 L 292,-1460 L 292,-1461 L 291,-1461 L 290,-1461 L 290,-1462 L 289,-1462 L 289,-1463 L 288,-1463 L 287,-1463 L 288,-1462 L 287,-1462 L 287,-1463 L 287,-1462 L 286,-1463 L 287,-1463 L 287,-1464 L 288,-1464 L 287,-1465 L 287,-1464 L 286,-1464 L 286,-1465 L 286,-1466 L 287,-1466 L 288,-1466 L 287,-1466 L 287,-1467 L 287,-1468 L 287,-1469 L 286,-1469 L 287,-1469 L 287,-1470 L 288,-1471 L 287,-1471 L 288,-1471 L 288,-1472 L 288,-1471 L 289,-1471 L 289,-1470 L 289,-1471 L 290,-1471 L 289,-1471 L 289,-1472 L 290,-1472 L 290,-1471 L 291,-1471 L 292,-1471 L 292,-1472 L 292,-1473 L 293,-1472 L 293,-1473 L 293,-1474 L 292,-1474 L 291,-1474 L 292,-1474 L 292,-1475 L 291,-1475 L 292,-1475 L 291,-1475 L 291,-1476 L 292,-1476 L 292,-1477 L 291,-1477 L 292,-1477 L 293,-1477 L 294,-1478 L 293,-1478 L 293,-1479 L 294,-1479 L 295,-1479 L 295,-1480 L 295,-1481 L 295,-1482 L 295,-1483 L 294,-1483 L 293,-1483 L 292,-1483 L 291,-1484 L 292,-1484 L 291,-1484 L 291,-1485 L 292,-1486 L 293,-1486 L 294,-1486 L 294,-1487 L 293,-1487 L 293,-1488 L 293,-1489 L 292,-1489 L 292,-1490 L 293,-1490 L 293,-1491 L 294,-1491 L 294,-1492 L 294,-1493 L 295,-1493 L 295,-1492 L 295,-1493 L 294,-1493 L 294,-1494 L 295,-1494 L 295,-1493 L 296,-1493 L 297,-1493 L 297,-1494 L 298,-1494 L 298,-1493 L 299,-1493 L 299,-1494 L 300,-1494 L 300,-1493 L 299,-1493 L 300,-1493 L 300,-1494 L 301,-1494 L 301,-1493 L 301,-1494 L 301,-1495 L 302,-1495 L 302,-1494 L 303,-1494 L 303,-1495 L 304,-1495 L 305,-1495 L 305,-1496 L 304,-1496 L 305,-1496 L 305,-1497 L 304,-1497 L 303,-1497 L 303,-1498 L 303,-1497 L 302,-1497 L 302,-1498 L 301,-1498 L 300,-1498 L 300,-1499 L 301,-1499 L 301,-1500 L 300,-1500 L 300,-1499 L 299,-1499 L 299,-1500 L 300,-1500 L 300,-1501 L 301,-1501 L 301,-1502 L 302,-1502 L 302,-1503 L 302,-1504 L 301,-1503 L 301,-1504 L 301,-1505 L 302,-1505 L 301,-1505 L 300,-1505 L 299,-1505 L 299,-1506 L 298,-1506 L 298,-1507 L 298,-1506 L 297,-1506 L 297,-1507 L 298,-1507 L 298,-1508 L 298,-1507 L 299,-1507 L 299,-1508 L 299,-1509 L 300,-1509 L 300,-1510 L 301,-1510 L 301,-1509 L 301,-1510 L 300,-1510 L 300,-1511 L 300,-1512 L 300,-1513 L 299,-1513 L 299,-1514 L 300,-1514 L 299,-1514 L 298,-1515 L 299,-1515 L 298,-1515 L 298,-1516 L 298,-1517 L 297,-1517 L 296,-1517 L 297,-1518 L 296,-1518 L 295,-1518 L 294,-1519 L 294,-1520 L 295,-1520 L 294,-1521 L 295,-1521 L 296,-1521 L 297,-1521 L 297,-1522 L 298,-1522 L 298,-1521 L 299,-1521 L 299,-1522 L 298,-1522 L 299,-1522 L 299,-1523 L 300,-1523 L 300,-1522 L 300,-1523 L 301,-1523 L 301,-1524 L 302,-1524 L 302,-1523 L 303,-1523 L 303,-1524 L 304,-1523 L 304,-1524 L 305,-1524 L 304,-1524 L 304,-1525 L 305,-1525 L 306,-1525 L 306,-1526 L 305,-1526 L 306,-1526 L 307,-1526 L 307,-1527 L 308,-1527 L 308,-1528 L 308,-1527 L 309,-1527 L 310,-1527 L 309,-1527 L 309,-1528 L 310,-1528 L 310,-1529 L 310,-1530 L 309,-1530 L 309,-1531 L 308,-1531 L 307,-1531 L 307,-1530 L 306,-1530 L 305,-1530 L 304,-1530 L 304,-1529 L 303,-1529 L 303,-1528 L 302,-1528 L 302,-1529 L 302,-1528 L 301,-1528 L 300,-1528 L 300,-1527 L 299,-1527 L 299,-1528 L 298,-1528 L 298,-1527 L 298,-1528 L 298,-1529 L 299,-1530 L 299,-1531 L 300,-1532 L 300,-1533 L 300,-1534 L 301,-1534 L 301,-1535 L 302,-1534 L 302,-1535 L 303,-1535 L 303,-1536 L 304,-1536 L 304,-1535 L 305,-1535 L 305,-1536 L 305,-1537 L 306,-1537 L 305,-1537 L 305,-1538 L 306,-1538 L 307,-1538 L 308,-1538 L 308,-1539 L 308,-1540 L 309,-1540 L 309,-1539 L 309,-1540 L 309,-1541 L 309,-1542 L 309,-1543 L 308,-1543 L 308,-1544 L 307,-1544 L 307,-1545 L 306,-1545 L 305,-1545 L 305,-1546 L 304,-1546 L 304,-1545 L 303,-1545 L 303,-1546 L 303,-1547 L 302,-1547 L 301,-1547 L 301,-1548 L 300,-1548 L 300,-1549 L 299,-1549 L 299,-1548 L 299,-1549 L 298,-1549 L 298,-1548 L 298,-1549 L 297,-1549 L 297,-1548 L 296,-1549 L 296,-1550 L 295,-1550 L 295,-1551 L 296,-1551 L 296,-1552 L 296,-1553 L 297,-1553 L 297,-1554 L 298,-1554 L 299,-1555 L 299,-1556 L 300,-1556 L 300,-1555 L 300,-1556 L 301,-1555 L 300,-1555 L 301,-1555 L 302,-1555 L 301,-1555 L 301,-1556 L 302,-1556 L 303,-1556 L 303,-1557 L 302,-1557 L 303,-1557 L 303,-1558 L 302,-1559 L 301,-1559 L 301,-1560 L 301,-1561 L 301,-1562 L 420,-1564 L 420,-1563 L 421,-1563 L 421,-1562 L 422,-1562 " /></g>
</svg>
