<?xml version="1.0" standalone="no"?><!DOCTYPE svg PUBLIC "-//W3C//DTD SVG 1.1//EN" "http://www.w3.org/Graphics/SVG/1.1/DTD/svg11.dtd"><svg xmlns="http://www.w3.org/2000/svg" viewBox="76 -788 259 502" version = "1.1">
<g id="80302" ><path d="M 335,-788 L 332,-367 L 292,-344 L 291,-344 L 290,-344 L 289,-343 L 288,-343 L 288,-342 L 289,-342 L 289,-341 L 289,-340 L 288,-340 L 287,-341 L 286,-341 L 286,-340 L 287,-339 L 288,-339 L 288,-338 L 287,-337 L 287,-336 L 286,-335 L 286,-334 L 285,-335 L 285,-334 L 284,-334 L 283,-334 L 283,-335 L 282,-335 L 282,-334 L 282,-333 L 281,-333 L 281,-332 L 280,-332 L 280,-331 L 279,-330 L 278,-329 L 277,-329 L 277,-328 L 278,-328 L 278,-327 L 277,-327 L 277,-328 L 276,-328 L 276,-327 L 275,-327 L 275,-326 L 276,-326 L 276,-325 L 277,-324 L 277,-323 L 276,-323 L 275,-323 L 274,-323 L 273,-323 L 272,-323 L 272,-322 L 272,-321 L 271,-321 L 271,-322 L 270,-322 L 269,-321 L 269,-320 L 268,-320 L 268,-319 L 269,-318 L 268,-318 L 268,-317 L 269,-317 L 270,-316 L 270,-315 L 271,-315 L 272,-315 L 272,-314 L 273,-314 L 273,-313 L 274,-313 L 275,-313 L 275,-312 L 274,-312 L 274,-311 L 275,-311 L 275,-310 L 274,-310 L 274,-309 L 275,-309 L 276,-309 L 277,-309 L 277,-308 L 276,-308 L 275,-308 L 275,-307 L 276,-307 L 276,-306 L 276,-305 L 275,-305 L 274,-305 L 273,-305 L 273,-304 L 273,-303 L 272,-304 L 272,-303 L 271,-303 L 271,-302 L 270,-301 L 270,-300 L 271,-300 L 270,-300 L 270,-299 L 269,-299 L 268,-300 L 267,-300 L 267,-299 L 268,-299 L 268,-298 L 269,-298 L 269,-297 L 270,-297 L 269,-296 L 268,-296 L 268,-297 L 267,-296 L 267,-297 L 266,-297 L 266,-296 L 266,-295 L 266,-294 L 265,-294 L 265,-293 L 266,-293 L 266,-292 L 266,-291 L 266,-290 L 267,-290 L 268,-290 L 268,-289 L 268,-288 L 269,-289 L 270,-289 L 270,-288 L 270,-287 L 269,-286 L 268,-286 L 268,-287 L 268,-288 L 267,-288 L 267,-287 L 266,-287 L 266,-286 L 265,-286 L 264,-286 L 263,-287 L 262,-287 L 262,-288 L 261,-288 L 261,-289 L 260,-289 L 259,-288 L 259,-289 L 259,-288 L 258,-288 L 257,-288 L 257,-289 L 256,-289 L 256,-290 L 255,-290 L 254,-290 L 254,-291 L 253,-290 L 253,-291 L 252,-291 L 252,-292 L 251,-292 L 251,-293 L 250,-293 L 250,-294 L 249,-294 L 249,-295 L 248,-295 L 247,-295 L 247,-294 L 246,-294 L 246,-295 L 245,-295 L 244,-294 L 243,-294 L 244,-294 L 244,-295 L 243,-295 L 243,-294 L 243,-293 L 230,-308 L 228,-310 L 223,-316 L 217,-324 L 211,-334 L 206,-342 L 206,-343 L 206,-344 L 206,-345 L 206,-346 L 206,-347 L 206,-348 L 206,-349 L 207,-349 L 207,-350 L 208,-350 L 208,-351 L 208,-352 L 208,-353 L 208,-354 L 207,-354 L 207,-355 L 206,-355 L 206,-356 L 206,-357 L 205,-357 L 205,-358 L 204,-358 L 204,-359 L 204,-360 L 203,-360 L 203,-361 L 202,-361 L 202,-362 L 201,-362 L 201,-363 L 202,-363 L 201,-363 L 200,-363 L 200,-364 L 201,-365 L 200,-365 L 200,-366 L 199,-366 L 198,-366 L 197,-366 L 197,-367 L 196,-367 L 196,-368 L 196,-369 L 196,-370 L 197,-371 L 197,-372 L 196,-372 L 196,-373 L 195,-373 L 196,-373 L 195,-374 L 195,-375 L 194,-375 L 194,-376 L 194,-377 L 193,-377 L 192,-377 L 192,-378 L 191,-378 L 191,-379 L 191,-380 L 191,-381 L 191,-380 L 190,-380 L 190,-381 L 189,-381 L 189,-380 L 189,-381 L 189,-382 L 188,-382 L 188,-383 L 188,-384 L 187,-384 L 187,-385 L 187,-386 L 187,-387 L 187,-386 L 186,-386 L 186,-387 L 185,-387 L 184,-388 L 183,-388 L 183,-389 L 182,-389 L 182,-388 L 182,-389 L 182,-390 L 181,-390 L 180,-390 L 179,-390 L 179,-391 L 180,-391 L 179,-391 L 179,-392 L 178,-392 L 177,-392 L 177,-393 L 176,-393 L 177,-393 L 177,-394 L 176,-394 L 175,-393 L 174,-393 L 174,-394 L 173,-394 L 173,-395 L 174,-396 L 174,-397 L 173,-397 L 172,-397 L 171,-397 L 170,-398 L 169,-398 L 168,-398 L 168,-399 L 167,-399 L 167,-400 L 166,-400 L 166,-401 L 165,-401 L 165,-402 L 164,-401 L 164,-402 L 163,-403 L 162,-403 L 162,-404 L 161,-404 L 160,-404 L 160,-405 L 161,-405 L 161,-406 L 160,-406 L 159,-406 L 159,-407 L 158,-407 L 159,-407 L 159,-406 L 158,-406 L 157,-405 L 157,-406 L 157,-407 L 156,-407 L 155,-407 L 154,-407 L 154,-408 L 153,-408 L 154,-408 L 155,-408 L 155,-409 L 154,-409 L 153,-409 L 152,-409 L 152,-410 L 151,-411 L 151,-412 L 152,-412 L 151,-412 L 151,-413 L 150,-413 L 149,-413 L 148,-413 L 147,-413 L 147,-414 L 147,-415 L 146,-415 L 146,-416 L 145,-416 L 145,-417 L 145,-418 L 146,-418 L 145,-418 L 145,-419 L 145,-418 L 144,-418 L 144,-419 L 143,-419 L 144,-420 L 143,-420 L 142,-420 L 142,-419 L 141,-419 L 140,-419 L 141,-419 L 141,-420 L 141,-421 L 140,-421 L 139,-421 L 139,-422 L 139,-423 L 138,-423 L 138,-422 L 137,-422 L 137,-423 L 136,-423 L 136,-424 L 137,-424 L 137,-425 L 136,-425 L 135,-425 L 135,-426 L 136,-426 L 135,-426 L 135,-427 L 136,-428 L 137,-429 L 137,-430 L 138,-430 L 138,-431 L 139,-432 L 139,-433 L 139,-434 L 139,-435 L 140,-435 L 140,-436 L 141,-436 L 142,-436 L 142,-435 L 142,-436 L 143,-436 L 143,-437 L 144,-438 L 145,-438 L 145,-439 L 145,-440 L 145,-441 L 145,-442 L 146,-442 L 146,-443 L 146,-444 L 146,-445 L 146,-446 L 146,-447 L 146,-448 L 145,-448 L 145,-449 L 146,-449 L 147,-449 L 147,-450 L 147,-451 L 147,-452 L 146,-452 L 146,-453 L 146,-454 L 145,-454 L 145,-455 L 144,-455 L 144,-456 L 143,-456 L 142,-456 L 141,-456 L 140,-456 L 140,-457 L 139,-457 L 139,-458 L 139,-459 L 139,-460 L 139,-459 L 138,-459 L 138,-460 L 137,-461 L 137,-462 L 136,-462 L 136,-463 L 135,-463 L 135,-464 L 134,-464 L 134,-463 L 133,-463 L 133,-464 L 132,-464 L 132,-465 L 131,-465 L 130,-465 L 129,-464 L 129,-465 L 129,-466 L 130,-466 L 130,-465 L 131,-465 L 131,-466 L 131,-467 L 130,-467 L 130,-468 L 130,-469 L 130,-468 L 129,-468 L 128,-468 L 128,-469 L 128,-470 L 128,-469 L 129,-469 L 129,-470 L 130,-470 L 130,-469 L 130,-470 L 131,-470 L 130,-470 L 130,-471 L 129,-471 L 129,-472 L 128,-473 L 129,-473 L 130,-473 L 131,-473 L 131,-472 L 132,-472 L 132,-473 L 131,-474 L 131,-475 L 130,-475 L 130,-476 L 131,-476 L 130,-476 L 130,-477 L 130,-478 L 129,-478 L 129,-479 L 129,-478 L 128,-478 L 128,-479 L 129,-479 L 129,-480 L 128,-480 L 129,-481 L 129,-482 L 128,-482 L 128,-483 L 127,-483 L 126,-483 L 126,-484 L 127,-484 L 127,-485 L 126,-485 L 126,-486 L 126,-487 L 125,-487 L 125,-488 L 125,-489 L 124,-489 L 124,-490 L 124,-491 L 123,-491 L 123,-490 L 123,-489 L 122,-489 L 122,-490 L 122,-491 L 122,-492 L 122,-493 L 121,-493 L 121,-492 L 120,-492 L 120,-493 L 121,-493 L 121,-494 L 122,-495 L 121,-495 L 120,-495 L 120,-494 L 119,-495 L 118,-495 L 118,-496 L 118,-497 L 118,-498 L 118,-499 L 118,-500 L 117,-499 L 116,-499 L 116,-500 L 117,-500 L 117,-501 L 117,-502 L 116,-502 L 115,-502 L 114,-503 L 114,-504 L 113,-504 L 112,-504 L 112,-505 L 112,-506 L 111,-506 L 111,-507 L 110,-507 L 110,-506 L 109,-505 L 108,-505 L 108,-506 L 109,-506 L 109,-507 L 109,-508 L 109,-509 L 109,-510 L 110,-510 L 110,-509 L 110,-510 L 110,-511 L 109,-511 L 108,-512 L 108,-513 L 107,-513 L 106,-513 L 105,-513 L 106,-513 L 106,-514 L 106,-515 L 105,-515 L 105,-516 L 105,-517 L 104,-517 L 104,-518 L 103,-518 L 103,-519 L 102,-519 L 102,-518 L 101,-517 L 101,-518 L 101,-519 L 100,-519 L 100,-520 L 99,-520 L 99,-519 L 99,-518 L 99,-517 L 98,-517 L 97,-517 L 97,-518 L 97,-519 L 96,-519 L 95,-519 L 95,-518 L 94,-518 L 94,-519 L 95,-519 L 95,-520 L 96,-520 L 96,-521 L 95,-521 L 94,-522 L 94,-523 L 93,-523 L 93,-524 L 92,-525 L 92,-526 L 93,-526 L 93,-527 L 94,-527 L 94,-526 L 95,-526 L 94,-526 L 94,-527 L 95,-527 L 95,-528 L 96,-528 L 95,-528 L 95,-529 L 95,-530 L 94,-530 L 95,-530 L 95,-531 L 94,-532 L 93,-531 L 92,-531 L 92,-532 L 92,-533 L 93,-533 L 94,-533 L 94,-534 L 94,-535 L 94,-536 L 93,-536 L 93,-537 L 94,-537 L 93,-537 L 93,-538 L 93,-539 L 92,-539 L 92,-538 L 92,-539 L 91,-539 L 91,-540 L 91,-541 L 90,-541 L 90,-540 L 90,-539 L 90,-538 L 90,-537 L 89,-537 L 89,-538 L 88,-538 L 89,-538 L 89,-539 L 88,-539 L 87,-539 L 86,-539 L 87,-539 L 87,-540 L 86,-540 L 86,-541 L 85,-541 L 84,-541 L 84,-542 L 83,-542 L 82,-543 L 81,-543 L 81,-542 L 80,-542 L 80,-543 L 80,-544 L 80,-545 L 81,-545 L 81,-546 L 81,-547 L 80,-547 L 79,-547 L 78,-546 L 78,-545 L 79,-545 L 78,-544 L 77,-544 L 76,-545 L 77,-545 L 77,-546 L 78,-547 L 79,-547 L 79,-548 L 79,-549 L 79,-550 L 80,-550 L 80,-551 L 81,-551 L 82,-551 L 82,-552 L 82,-551 L 83,-551 L 83,-552 L 84,-553 L 85,-553 L 86,-553 L 86,-554 L 86,-555 L 87,-555 L 88,-555 L 89,-555 L 89,-556 L 90,-556 L 91,-556 L 92,-556 L 92,-557 L 93,-557 L 94,-557 L 95,-558 L 96,-557 L 97,-557 L 98,-558 L 99,-557 L 100,-556 L 102,-556 L 103,-556 L 105,-553 L 106,-551 L 110,-551 L 114,-552 L 118,-552 L 120,-552 L 121,-553 L 121,-554 L 122,-554 L 122,-553 L 122,-554 L 123,-554 L 123,-555 L 123,-556 L 124,-556 L 125,-556 L 126,-556 L 126,-557 L 125,-557 L 126,-557 L 126,-558 L 126,-559 L 126,-560 L 126,-561 L 125,-561 L 126,-561 L 126,-562 L 127,-562 L 127,-563 L 128,-563 L 128,-564 L 128,-565 L 128,-566 L 129,-566 L 130,-566 L 130,-567 L 129,-568 L 130,-568 L 130,-569 L 130,-570 L 131,-570 L 130,-570 L 130,-571 L 131,-571 L 131,-572 L 132,-572 L 133,-572 L 133,-571 L 133,-572 L 134,-572 L 133,-572 L 134,-573 L 134,-572 L 134,-573 L 135,-572 L 135,-573 L 136,-573 L 136,-574 L 137,-574 L 138,-574 L 138,-573 L 139,-573 L 139,-572 L 140,-572 L 141,-572 L 142,-572 L 142,-573 L 141,-575 L 141,-576 L 139,-580 L 138,-584 L 137,-587 L 137,-588 L 137,-589 L 136,-590 L 136,-591 L 136,-592 L 136,-593 L 136,-596 L 136,-598 L 135,-599 L 135,-600 L 135,-601 L 135,-602 L 135,-603 L 135,-604 L 135,-606 L 135,-608 L 135,-612 L 135,-614 L 135,-615 L 134,-617 L 133,-618 L 132,-619 L 131,-620 L 130,-620 L 126,-624 L 125,-625 L 123,-628 L 124,-629 L 125,-629 L 126,-629 L 127,-629 L 126,-629 L 126,-630 L 127,-630 L 128,-630 L 129,-630 L 130,-630 L 131,-630 L 132,-629 L 133,-629 L 134,-629 L 135,-629 L 135,-630 L 136,-630 L 137,-630 L 137,-631 L 138,-631 L 139,-631 L 139,-632 L 140,-632 L 140,-633 L 141,-633 L 141,-634 L 141,-635 L 141,-636 L 141,-637 L 141,-638 L 142,-638 L 142,-639 L 142,-640 L 143,-641 L 142,-641 L 141,-641 L 141,-642 L 142,-642 L 141,-642 L 141,-643 L 141,-644 L 142,-644 L 142,-645 L 142,-646 L 143,-646 L 143,-645 L 143,-646 L 144,-646 L 144,-647 L 145,-647 L 145,-648 L 145,-649 L 145,-650 L 145,-651 L 145,-652 L 146,-652 L 145,-653 L 146,-654 L 146,-655 L 146,-656 L 145,-656 L 145,-657 L 145,-658 L 145,-659 L 145,-660 L 145,-661 L 145,-662 L 145,-663 L 145,-664 L 146,-664 L 146,-665 L 147,-666 L 148,-666 L 148,-667 L 148,-668 L 148,-669 L 148,-670 L 149,-670 L 149,-672 L 149,-673 L 149,-674 L 149,-675 L 149,-676 L 149,-677 L 149,-678 L 150,-679 L 179,-726 L 179,-769 L 179,-770 L 234,-772 L 234,-785 L 335,-788 " /></g>
</svg>
