<?xml version="1.0" standalone="no"?><!DOCTYPE svg PUBLIC "-//W3C//DTD SVG 1.1//EN" "http://www.w3.org/Graphics/SVG/1.1/DTD/svg11.dtd"><svg xmlns="http://www.w3.org/2000/svg" viewBox="332 -1036 506 669" version = "1.1">
<g id="80401" ><path d="M 358,-1036 L 443,-1035 L 444,-1035 L 449,-1035 L 456,-1035 L 472,-1035 L 546,-1034 L 620,-1033 L 695,-1032 L 707,-1032 L 724,-1032 L 736,-1032 L 734,-1030 L 732,-1029 L 732,-1027 L 732,-1026 L 731,-1024 L 731,-1023 L 732,-1022 L 734,-1022 L 736,-1023 L 737,-1024 L 739,-1024 L 741,-1025 L 743,-1025 L 747,-1024 L 748,-1023 L 750,-1022 L 751,-1021 L 751,-1020 L 750,-1019 L 748,-1017 L 745,-1016 L 743,-1016 L 741,-1015 L 738,-1016 L 736,-1016 L 734,-1014 L 733,-1013 L 732,-1012 L 731,-1010 L 731,-1009 L 732,-1007 L 734,-1007 L 737,-1008 L 742,-1009 L 745,-1010 L 748,-1010 L 751,-1010 L 752,-1010 L 754,-1008 L 754,-1007 L 753,-1005 L 751,-1004 L 748,-1002 L 744,-1001 L 740,-999 L 737,-998 L 735,-997 L 734,-996 L 733,-995 L 733,-993 L 733,-989 L 734,-986 L 736,-983 L 736,-982 L 738,-981 L 739,-982 L 739,-984 L 740,-985 L 740,-986 L 741,-986 L 742,-986 L 743,-987 L 745,-988 L 746,-990 L 747,-992 L 747,-994 L 747,-996 L 748,-998 L 749,-999 L 750,-999 L 751,-998 L 752,-996 L 751,-993 L 751,-991 L 752,-989 L 752,-987 L 752,-986 L 750,-985 L 748,-985 L 747,-986 L 745,-986 L 743,-985 L 743,-983 L 744,-980 L 744,-977 L 745,-974 L 746,-970 L 748,-968 L 751,-966 L 754,-965 L 756,-965 L 759,-965 L 764,-965 L 767,-966 L 770,-966 L 771,-967 L 773,-966 L 774,-966 L 774,-964 L 774,-963 L 773,-962 L 771,-961 L 769,-961 L 767,-961 L 765,-961 L 764,-961 L 762,-960 L 762,-959 L 762,-958 L 763,-956 L 764,-955 L 765,-955 L 766,-954 L 767,-952 L 768,-950 L 769,-949 L 770,-949 L 771,-949 L 773,-950 L 781,-956 L 785,-958 L 786,-959 L 788,-959 L 788,-957 L 788,-956 L 787,-955 L 785,-952 L 784,-949 L 783,-946 L 783,-941 L 782,-938 L 781,-936 L 780,-934 L 779,-933 L 779,-932 L 778,-930 L 779,-929 L 779,-927 L 780,-926 L 781,-926 L 782,-926 L 783,-928 L 784,-932 L 785,-934 L 786,-935 L 787,-936 L 788,-936 L 789,-935 L 790,-933 L 791,-930 L 793,-926 L 797,-920 L 798,-918 L 799,-917 L 799,-916 L 799,-914 L 798,-912 L 798,-909 L 798,-907 L 799,-905 L 799,-903 L 801,-902 L 803,-901 L 805,-900 L 807,-900 L 807,-899 L 808,-898 L 808,-897 L 807,-895 L 807,-894 L 808,-892 L 809,-891 L 809,-889 L 810,-888 L 810,-887 L 810,-885 L 810,-883 L 810,-882 L 810,-880 L 811,-879 L 812,-878 L 813,-877 L 814,-877 L 815,-878 L 816,-879 L 818,-880 L 819,-881 L 820,-881 L 822,-880 L 822,-879 L 823,-876 L 824,-873 L 825,-871 L 825,-869 L 824,-867 L 823,-864 L 821,-861 L 820,-859 L 818,-857 L 817,-856 L 817,-855 L 817,-854 L 817,-853 L 818,-853 L 819,-853 L 820,-854 L 821,-855 L 821,-856 L 823,-856 L 824,-857 L 826,-856 L 827,-856 L 829,-855 L 831,-856 L 833,-856 L 835,-856 L 836,-856 L 837,-855 L 837,-854 L 838,-853 L 837,-851 L 836,-849 L 835,-848 L 833,-847 L 832,-846 L 830,-845 L 828,-844 L 827,-844 L 826,-843 L 826,-842 L 827,-841 L 828,-841 L 829,-840 L 830,-839 L 801,-840 L 776,-840 L 752,-840 L 733,-841 L 717,-841 L 718,-838 L 719,-838 L 719,-837 L 720,-837 L 719,-836 L 719,-835 L 718,-835 L 716,-836 L 715,-836 L 715,-837 L 714,-836 L 715,-836 L 715,-835 L 715,-834 L 715,-833 L 715,-832 L 714,-832 L 713,-832 L 711,-832 L 709,-833 L 707,-833 L 707,-834 L 706,-834 L 705,-833 L 706,-833 L 707,-833 L 708,-832 L 708,-831 L 707,-830 L 705,-828 L 704,-827 L 703,-826 L 702,-826 L 700,-825 L 700,-824 L 701,-824 L 701,-822 L 701,-821 L 700,-821 L 701,-821 L 701,-820 L 702,-820 L 702,-819 L 701,-819 L 701,-818 L 701,-817 L 700,-817 L 700,-816 L 701,-816 L 701,-815 L 701,-814 L 702,-814 L 701,-813 L 701,-812 L 701,-813 L 700,-813 L 700,-814 L 699,-814 L 699,-815 L 698,-815 L 697,-814 L 697,-813 L 696,-813 L 695,-812 L 694,-812 L 694,-811 L 695,-811 L 696,-811 L 696,-810 L 697,-810 L 698,-809 L 699,-808 L 699,-807 L 699,-806 L 700,-805 L 700,-804 L 699,-804 L 698,-804 L 697,-804 L 697,-803 L 696,-803 L 696,-802 L 695,-802 L 694,-802 L 694,-801 L 693,-801 L 693,-800 L 692,-800 L 692,-799 L 692,-798 L 692,-797 L 692,-796 L 693,-796 L 693,-797 L 693,-798 L 694,-798 L 694,-799 L 693,-799 L 693,-800 L 694,-800 L 695,-800 L 696,-800 L 696,-799 L 696,-798 L 695,-797 L 695,-796 L 694,-796 L 695,-795 L 696,-795 L 697,-795 L 697,-796 L 698,-796 L 699,-796 L 699,-795 L 700,-795 L 700,-794 L 699,-794 L 698,-794 L 697,-794 L 696,-794 L 695,-794 L 694,-793 L 695,-793 L 695,-792 L 695,-791 L 696,-791 L 696,-790 L 697,-790 L 698,-790 L 698,-789 L 699,-789 L 699,-788 L 698,-788 L 697,-789 L 696,-789 L 695,-789 L 694,-789 L 693,-789 L 693,-788 L 692,-788 L 692,-787 L 693,-787 L 694,-787 L 695,-787 L 695,-788 L 696,-787 L 697,-787 L 697,-786 L 697,-785 L 696,-785 L 695,-785 L 694,-785 L 693,-785 L 692,-785 L 691,-785 L 690,-785 L 690,-784 L 690,-783 L 691,-783 L 692,-783 L 693,-783 L 694,-784 L 694,-783 L 694,-782 L 694,-781 L 694,-780 L 693,-780 L 692,-780 L 691,-780 L 690,-780 L 689,-780 L 688,-780 L 687,-781 L 686,-781 L 686,-780 L 686,-779 L 686,-778 L 687,-778 L 688,-778 L 689,-778 L 689,-777 L 688,-777 L 688,-776 L 687,-776 L 686,-776 L 685,-775 L 684,-775 L 684,-774 L 685,-774 L 686,-774 L 686,-773 L 687,-773 L 687,-772 L 686,-772 L 685,-772 L 684,-772 L 683,-772 L 683,-771 L 683,-770 L 684,-770 L 684,-769 L 683,-769 L 682,-769 L 681,-769 L 681,-768 L 680,-768 L 679,-768 L 679,-767 L 679,-766 L 680,-765 L 681,-765 L 681,-764 L 680,-764 L 679,-763 L 679,-761 L 678,-761 L 678,-760 L 678,-759 L 678,-758 L 679,-757 L 680,-757 L 680,-756 L 679,-756 L 678,-756 L 677,-756 L 676,-756 L 675,-756 L 675,-755 L 674,-755 L 675,-755 L 676,-754 L 677,-754 L 677,-753 L 676,-753 L 675,-752 L 674,-752 L 673,-752 L 673,-751 L 673,-750 L 674,-750 L 674,-749 L 675,-748 L 675,-747 L 675,-746 L 674,-746 L 674,-745 L 673,-745 L 673,-744 L 674,-744 L 674,-743 L 675,-743 L 675,-742 L 675,-741 L 674,-741 L 673,-741 L 672,-740 L 671,-740 L 670,-740 L 669,-740 L 668,-740 L 667,-740 L 667,-739 L 668,-739 L 668,-738 L 668,-737 L 668,-736 L 669,-736 L 669,-735 L 670,-734 L 670,-735 L 671,-735 L 671,-734 L 671,-733 L 670,-733 L 669,-733 L 670,-733 L 670,-732 L 671,-732 L 672,-732 L 672,-731 L 673,-730 L 673,-729 L 672,-728 L 671,-728 L 671,-729 L 670,-730 L 669,-730 L 668,-730 L 668,-729 L 667,-729 L 668,-729 L 668,-728 L 669,-728 L 670,-728 L 670,-727 L 669,-727 L 668,-727 L 667,-727 L 666,-727 L 666,-726 L 667,-726 L 668,-726 L 668,-725 L 669,-725 L 670,-724 L 671,-724 L 671,-723 L 671,-722 L 670,-722 L 669,-723 L 669,-724 L 668,-724 L 667,-724 L 666,-724 L 665,-724 L 665,-723 L 665,-722 L 666,-722 L 666,-721 L 667,-720 L 667,-719 L 668,-719 L 668,-718 L 668,-717 L 667,-717 L 666,-717 L 666,-718 L 665,-718 L 665,-719 L 664,-719 L 663,-719 L 662,-719 L 663,-719 L 663,-718 L 664,-718 L 664,-717 L 663,-716 L 662,-715 L 661,-714 L 661,-715 L 660,-714 L 660,-713 L 660,-712 L 659,-712 L 659,-713 L 659,-714 L 658,-714 L 657,-714 L 656,-714 L 655,-714 L 655,-713 L 655,-712 L 656,-712 L 657,-712 L 657,-711 L 657,-710 L 657,-709 L 657,-708 L 657,-707 L 656,-707 L 655,-707 L 655,-708 L 656,-708 L 656,-709 L 655,-709 L 654,-710 L 654,-709 L 653,-709 L 653,-708 L 652,-707 L 652,-706 L 652,-705 L 652,-704 L 652,-703 L 653,-703 L 653,-702 L 652,-702 L 651,-702 L 651,-703 L 651,-704 L 650,-704 L 650,-705 L 649,-705 L 648,-705 L 648,-704 L 649,-704 L 649,-703 L 648,-702 L 647,-702 L 646,-702 L 645,-702 L 644,-702 L 643,-702 L 643,-701 L 644,-701 L 645,-701 L 645,-700 L 646,-700 L 646,-699 L 645,-699 L 645,-698 L 644,-698 L 644,-697 L 643,-697 L 643,-696 L 642,-696 L 642,-695 L 641,-695 L 640,-695 L 640,-694 L 640,-693 L 640,-692 L 640,-691 L 640,-690 L 639,-689 L 639,-690 L 638,-690 L 637,-690 L 636,-690 L 635,-689 L 635,-688 L 636,-688 L 636,-687 L 636,-686 L 636,-685 L 635,-685 L 634,-685 L 633,-685 L 632,-686 L 632,-685 L 631,-685 L 631,-684 L 632,-684 L 632,-683 L 633,-683 L 633,-682 L 632,-682 L 632,-681 L 631,-680 L 631,-679 L 631,-678 L 631,-677 L 630,-677 L 629,-677 L 628,-677 L 628,-676 L 627,-676 L 626,-676 L 625,-676 L 624,-676 L 623,-676 L 622,-676 L 622,-677 L 621,-677 L 621,-676 L 621,-675 L 622,-675 L 622,-674 L 622,-673 L 622,-672 L 623,-672 L 623,-671 L 624,-671 L 624,-670 L 625,-670 L 625,-669 L 624,-669 L 623,-669 L 623,-668 L 623,-667 L 622,-666 L 622,-667 L 621,-667 L 621,-668 L 621,-669 L 620,-669 L 620,-670 L 619,-670 L 619,-671 L 618,-671 L 618,-670 L 618,-669 L 619,-669 L 619,-668 L 620,-667 L 620,-666 L 619,-666 L 619,-665 L 619,-666 L 619,-667 L 618,-668 L 617,-668 L 616,-668 L 615,-668 L 614,-668 L 614,-669 L 613,-669 L 613,-668 L 613,-667 L 613,-666 L 613,-665 L 612,-665 L 612,-666 L 611,-667 L 610,-668 L 609,-668 L 609,-667 L 609,-666 L 609,-665 L 609,-664 L 608,-664 L 607,-664 L 607,-665 L 607,-666 L 608,-666 L 608,-667 L 608,-668 L 607,-668 L 606,-668 L 606,-667 L 605,-667 L 605,-666 L 604,-666 L 604,-665 L 603,-665 L 603,-664 L 602,-664 L 601,-664 L 600,-665 L 600,-666 L 599,-666 L 599,-665 L 598,-665 L 598,-664 L 599,-663 L 600,-663 L 601,-662 L 601,-661 L 600,-661 L 599,-661 L 598,-661 L 598,-662 L 597,-662 L 597,-663 L 596,-663 L 596,-664 L 595,-664 L 595,-663 L 594,-662 L 594,-661 L 593,-661 L 594,-660 L 595,-659 L 596,-658 L 596,-657 L 596,-656 L 595,-657 L 594,-657 L 593,-657 L 592,-657 L 591,-657 L 591,-656 L 592,-655 L 592,-654 L 591,-654 L 590,-654 L 589,-654 L 588,-653 L 588,-652 L 589,-652 L 590,-651 L 591,-651 L 591,-650 L 590,-650 L 589,-650 L 589,-651 L 588,-651 L 588,-650 L 588,-649 L 588,-648 L 588,-647 L 588,-646 L 589,-646 L 590,-646 L 591,-646 L 592,-646 L 593,-646 L 594,-646 L 594,-645 L 594,-644 L 594,-643 L 594,-642 L 593,-642 L 593,-641 L 592,-641 L 592,-640 L 591,-640 L 592,-639 L 593,-639 L 593,-638 L 593,-637 L 592,-637 L 592,-636 L 592,-635 L 592,-634 L 591,-634 L 591,-633 L 591,-632 L 590,-632 L 590,-631 L 590,-630 L 591,-630 L 592,-630 L 592,-631 L 593,-631 L 594,-631 L 594,-630 L 594,-629 L 593,-628 L 591,-627 L 591,-626 L 592,-625 L 593,-625 L 593,-624 L 594,-624 L 594,-623 L 594,-621 L 593,-620 L 592,-620 L 591,-620 L 590,-620 L 590,-621 L 589,-621 L 588,-621 L 588,-620 L 589,-620 L 589,-619 L 589,-618 L 590,-617 L 589,-617 L 589,-616 L 588,-615 L 587,-615 L 586,-616 L 585,-616 L 584,-616 L 584,-615 L 584,-614 L 585,-613 L 586,-613 L 586,-612 L 586,-611 L 585,-612 L 584,-612 L 583,-612 L 583,-611 L 583,-610 L 584,-610 L 584,-609 L 585,-609 L 586,-609 L 587,-608 L 586,-608 L 585,-608 L 584,-608 L 583,-608 L 583,-607 L 582,-607 L 582,-606 L 583,-606 L 584,-606 L 585,-606 L 585,-607 L 586,-607 L 587,-607 L 587,-606 L 586,-606 L 586,-605 L 586,-604 L 586,-603 L 585,-603 L 584,-603 L 584,-602 L 583,-602 L 583,-601 L 584,-601 L 584,-602 L 585,-602 L 585,-601 L 586,-602 L 587,-602 L 588,-601 L 588,-600 L 589,-600 L 589,-599 L 590,-599 L 590,-598 L 589,-598 L 589,-597 L 589,-596 L 590,-596 L 590,-597 L 591,-598 L 591,-597 L 592,-597 L 591,-596 L 591,-595 L 592,-595 L 592,-594 L 593,-594 L 593,-593 L 592,-593 L 591,-593 L 591,-592 L 592,-592 L 592,-591 L 592,-590 L 591,-590 L 590,-590 L 589,-590 L 589,-589 L 590,-589 L 591,-589 L 591,-588 L 592,-587 L 592,-586 L 591,-586 L 591,-585 L 590,-585 L 590,-584 L 591,-584 L 592,-584 L 592,-583 L 592,-582 L 591,-582 L 590,-582 L 589,-582 L 589,-581 L 589,-580 L 589,-579 L 588,-579 L 587,-579 L 586,-579 L 585,-579 L 585,-578 L 584,-578 L 585,-577 L 586,-577 L 587,-577 L 586,-577 L 585,-576 L 584,-576 L 583,-576 L 582,-576 L 582,-575 L 583,-575 L 583,-574 L 582,-574 L 581,-574 L 581,-575 L 580,-575 L 579,-575 L 579,-574 L 578,-573 L 577,-573 L 577,-572 L 578,-572 L 579,-572 L 580,-572 L 580,-573 L 580,-572 L 581,-572 L 580,-571 L 579,-571 L 580,-571 L 580,-570 L 579,-570 L 579,-569 L 579,-568 L 579,-567 L 579,-566 L 579,-565 L 580,-565 L 581,-565 L 582,-565 L 582,-564 L 582,-563 L 581,-563 L 580,-563 L 581,-564 L 580,-564 L 579,-564 L 578,-564 L 578,-563 L 578,-562 L 579,-562 L 579,-561 L 578,-561 L 577,-562 L 576,-562 L 575,-562 L 575,-561 L 574,-561 L 574,-560 L 573,-560 L 572,-560 L 571,-560 L 571,-561 L 572,-562 L 571,-562 L 571,-563 L 571,-562 L 570,-562 L 570,-561 L 569,-561 L 569,-560 L 569,-559 L 570,-559 L 570,-558 L 571,-558 L 572,-558 L 572,-557 L 571,-557 L 571,-556 L 572,-556 L 572,-555 L 571,-555 L 570,-555 L 570,-556 L 570,-557 L 570,-558 L 569,-558 L 568,-558 L 568,-557 L 568,-556 L 569,-556 L 569,-555 L 569,-554 L 569,-553 L 569,-552 L 569,-551 L 568,-551 L 568,-552 L 567,-552 L 567,-553 L 568,-554 L 567,-554 L 566,-554 L 565,-553 L 566,-553 L 565,-553 L 564,-553 L 564,-552 L 563,-552 L 563,-551 L 562,-551 L 563,-551 L 564,-551 L 565,-551 L 566,-551 L 567,-551 L 567,-550 L 566,-549 L 566,-548 L 566,-547 L 566,-546 L 565,-546 L 566,-546 L 567,-546 L 568,-546 L 568,-545 L 568,-544 L 568,-543 L 569,-543 L 570,-543 L 570,-542 L 569,-542 L 569,-541 L 568,-541 L 567,-541 L 567,-540 L 566,-540 L 566,-539 L 567,-539 L 567,-538 L 567,-537 L 567,-536 L 568,-536 L 568,-535 L 569,-534 L 569,-533 L 568,-533 L 568,-534 L 567,-534 L 566,-534 L 565,-534 L 564,-533 L 564,-532 L 565,-532 L 565,-531 L 565,-530 L 565,-531 L 566,-531 L 567,-530 L 568,-530 L 568,-529 L 569,-529 L 569,-528 L 568,-528 L 567,-528 L 567,-529 L 566,-528 L 566,-527 L 566,-526 L 565,-526 L 565,-525 L 565,-524 L 566,-525 L 566,-526 L 567,-526 L 568,-526 L 569,-526 L 569,-525 L 570,-524 L 570,-523 L 571,-522 L 572,-522 L 572,-521 L 573,-521 L 573,-520 L 572,-520 L 572,-521 L 571,-521 L 571,-520 L 570,-520 L 569,-519 L 569,-518 L 568,-518 L 568,-517 L 567,-517 L 567,-516 L 566,-516 L 566,-515 L 566,-514 L 567,-514 L 566,-513 L 565,-514 L 565,-515 L 564,-515 L 564,-514 L 564,-513 L 563,-513 L 563,-514 L 562,-514 L 562,-515 L 562,-516 L 562,-517 L 562,-516 L 561,-516 L 561,-515 L 560,-515 L 560,-514 L 559,-514 L 558,-514 L 557,-514 L 557,-513 L 556,-513 L 557,-513 L 558,-513 L 558,-512 L 557,-512 L 556,-511 L 555,-511 L 554,-511 L 554,-512 L 553,-512 L 552,-512 L 552,-511 L 552,-510 L 552,-509 L 552,-508 L 551,-508 L 550,-508 L 549,-507 L 549,-506 L 549,-505 L 549,-504 L 549,-503 L 550,-502 L 550,-503 L 550,-502 L 551,-502 L 550,-502 L 550,-501 L 550,-502 L 550,-501 L 549,-501 L 549,-500 L 549,-499 L 549,-498 L 549,-499 L 548,-499 L 548,-498 L 547,-498 L 547,-499 L 547,-500 L 546,-500 L 546,-499 L 546,-500 L 545,-500 L 545,-499 L 544,-499 L 544,-500 L 545,-500 L 545,-501 L 544,-501 L 543,-501 L 543,-500 L 542,-500 L 541,-500 L 542,-500 L 542,-499 L 542,-498 L 541,-498 L 540,-498 L 540,-499 L 540,-498 L 539,-498 L 539,-499 L 539,-498 L 538,-497 L 538,-498 L 537,-498 L 536,-498 L 537,-498 L 537,-499 L 537,-500 L 536,-500 L 536,-499 L 535,-499 L 534,-499 L 535,-499 L 535,-498 L 534,-498 L 534,-497 L 533,-497 L 533,-498 L 532,-498 L 531,-497 L 532,-497 L 532,-496 L 532,-495 L 532,-496 L 531,-496 L 530,-496 L 530,-495 L 531,-495 L 532,-495 L 531,-495 L 531,-494 L 531,-493 L 530,-493 L 531,-493 L 531,-492 L 531,-491 L 531,-490 L 531,-491 L 530,-491 L 530,-490 L 531,-490 L 531,-489 L 530,-489 L 530,-490 L 529,-490 L 529,-489 L 529,-488 L 529,-489 L 528,-489 L 527,-489 L 528,-489 L 528,-488 L 528,-487 L 527,-487 L 527,-486 L 527,-487 L 526,-487 L 526,-486 L 527,-486 L 527,-485 L 526,-485 L 527,-485 L 526,-484 L 527,-484 L 528,-484 L 528,-483 L 528,-482 L 529,-482 L 528,-482 L 528,-481 L 529,-481 L 528,-481 L 528,-480 L 528,-479 L 528,-480 L 528,-479 L 527,-479 L 526,-479 L 526,-478 L 525,-478 L 526,-478 L 525,-478 L 525,-477 L 524,-477 L 524,-476 L 523,-476 L 523,-475 L 523,-476 L 523,-475 L 524,-475 L 524,-476 L 524,-475 L 524,-474 L 523,-474 L 523,-473 L 523,-472 L 524,-472 L 523,-472 L 524,-471 L 523,-471 L 523,-470 L 523,-471 L 522,-471 L 521,-471 L 521,-470 L 520,-470 L 521,-470 L 520,-470 L 520,-471 L 520,-470 L 519,-470 L 518,-470 L 519,-470 L 519,-469 L 518,-469 L 518,-468 L 517,-468 L 518,-468 L 517,-468 L 516,-468 L 517,-468 L 516,-468 L 515,-468 L 515,-469 L 514,-469 L 514,-468 L 513,-469 L 512,-469 L 511,-469 L 511,-468 L 510,-468 L 510,-467 L 509,-467 L 509,-466 L 508,-467 L 507,-467 L 507,-468 L 506,-468 L 506,-467 L 505,-467 L 505,-466 L 504,-466 L 504,-465 L 503,-465 L 503,-464 L 502,-464 L 502,-463 L 501,-463 L 501,-462 L 500,-462 L 499,-462 L 498,-462 L 498,-463 L 498,-462 L 497,-462 L 496,-462 L 495,-462 L 494,-462 L 493,-462 L 492,-462 L 491,-462 L 491,-461 L 490,-461 L 489,-461 L 488,-461 L 487,-461 L 487,-460 L 486,-460 L 485,-459 L 484,-459 L 484,-458 L 483,-457 L 482,-457 L 482,-456 L 481,-456 L 481,-455 L 480,-455 L 480,-454 L 479,-454 L 478,-454 L 477,-454 L 477,-453 L 476,-453 L 476,-452 L 475,-452 L 474,-452 L 473,-452 L 473,-451 L 473,-450 L 472,-449 L 471,-449 L 471,-448 L 471,-447 L 470,-447 L 470,-446 L 469,-446 L 469,-445 L 469,-444 L 468,-444 L 468,-443 L 467,-443 L 467,-442 L 467,-441 L 466,-441 L 465,-441 L 465,-442 L 464,-442 L 463,-442 L 462,-442 L 462,-441 L 461,-441 L 460,-442 L 459,-442 L 459,-441 L 459,-440 L 458,-440 L 457,-439 L 456,-438 L 455,-437 L 454,-436 L 453,-436 L 452,-436 L 452,-435 L 451,-435 L 450,-434 L 449,-434 L 448,-433 L 447,-432 L 446,-432 L 445,-432 L 445,-431 L 444,-431 L 444,-432 L 443,-432 L 442,-432 L 441,-432 L 441,-431 L 441,-430 L 440,-430 L 439,-430 L 439,-429 L 438,-429 L 438,-428 L 437,-428 L 437,-427 L 436,-427 L 436,-426 L 435,-426 L 434,-425 L 434,-424 L 434,-423 L 434,-422 L 434,-421 L 433,-421 L 433,-420 L 432,-420 L 431,-420 L 431,-419 L 430,-419 L 430,-420 L 429,-420 L 429,-419 L 428,-419 L 427,-419 L 426,-419 L 425,-419 L 424,-419 L 423,-419 L 423,-420 L 422,-420 L 422,-419 L 421,-419 L 420,-419 L 421,-419 L 421,-418 L 420,-418 L 419,-418 L 419,-417 L 418,-417 L 417,-417 L 417,-416 L 332,-367 L 335,-788 L 335,-825 L 337,-1036 L 358,-1036 " /></g>
</svg>
