<?xml version="1.0" standalone="no"?><!DOCTYPE svg PUBLIC "-//W3C//DTD SVG 1.1//EN" "http://www.w3.org/Graphics/SVG/1.1/DTD/svg11.dtd"><svg xmlns="http://www.w3.org/2000/svg" viewBox="337 -1564 510 532" version = "1.1">
<g id="80402" ><path d="M 804,-1560 L 804,-1558 L 803,-1557 L 803,-1555 L 803,-1554 L 804,-1553 L 806,-1554 L 808,-1554 L 810,-1555 L 813,-1555 L 815,-1554 L 817,-1553 L 819,-1550 L 820,-1548 L 821,-1544 L 820,-1543 L 817,-1541 L 815,-1540 L 814,-1538 L 814,-1536 L 813,-1534 L 814,-1533 L 816,-1533 L 817,-1533 L 818,-1534 L 819,-1535 L 821,-1534 L 822,-1532 L 823,-1529 L 822,-1527 L 821,-1526 L 820,-1526 L 818,-1527 L 815,-1528 L 812,-1528 L 809,-1528 L 808,-1527 L 807,-1525 L 806,-1523 L 805,-1520 L 806,-1519 L 808,-1518 L 810,-1517 L 811,-1515 L 812,-1512 L 811,-1509 L 809,-1506 L 807,-1503 L 804,-1500 L 802,-1500 L 801,-1500 L 799,-1501 L 798,-1502 L 796,-1506 L 794,-1510 L 794,-1513 L 793,-1516 L 792,-1518 L 791,-1519 L 790,-1520 L 788,-1519 L 787,-1519 L 785,-1517 L 783,-1515 L 783,-1514 L 783,-1513 L 783,-1511 L 784,-1508 L 786,-1507 L 789,-1504 L 792,-1502 L 796,-1498 L 798,-1494 L 800,-1491 L 802,-1489 L 805,-1481 L 806,-1477 L 807,-1472 L 807,-1470 L 808,-1467 L 808,-1466 L 808,-1465 L 808,-1464 L 807,-1463 L 806,-1463 L 802,-1464 L 797,-1466 L 794,-1467 L 793,-1466 L 792,-1465 L 792,-1463 L 791,-1461 L 792,-1459 L 793,-1458 L 795,-1457 L 797,-1457 L 800,-1456 L 802,-1456 L 804,-1455 L 807,-1454 L 807,-1452 L 808,-1451 L 809,-1449 L 809,-1448 L 809,-1446 L 808,-1445 L 805,-1445 L 802,-1445 L 796,-1445 L 793,-1444 L 790,-1443 L 788,-1441 L 786,-1438 L 786,-1434 L 791,-1431 L 792,-1429 L 792,-1427 L 791,-1424 L 791,-1421 L 796,-1417 L 801,-1412 L 805,-1406 L 807,-1403 L 809,-1401 L 810,-1399 L 811,-1397 L 813,-1395 L 814,-1392 L 816,-1389 L 817,-1387 L 819,-1384 L 820,-1382 L 822,-1380 L 824,-1377 L 826,-1375 L 830,-1373 L 833,-1370 L 835,-1369 L 836,-1368 L 837,-1366 L 837,-1364 L 837,-1362 L 837,-1361 L 837,-1359 L 837,-1358 L 836,-1356 L 834,-1354 L 833,-1352 L 831,-1351 L 830,-1349 L 829,-1348 L 828,-1347 L 828,-1346 L 828,-1345 L 828,-1344 L 828,-1343 L 828,-1341 L 828,-1340 L 828,-1338 L 829,-1337 L 828,-1333 L 827,-1331 L 829,-1328 L 830,-1325 L 831,-1323 L 832,-1322 L 835,-1321 L 837,-1321 L 839,-1320 L 838,-1317 L 837,-1316 L 838,-1314 L 838,-1313 L 840,-1312 L 840,-1311 L 840,-1310 L 840,-1309 L 839,-1308 L 839,-1307 L 840,-1306 L 840,-1305 L 838,-1301 L 839,-1299 L 840,-1298 L 842,-1297 L 843,-1295 L 844,-1295 L 844,-1294 L 844,-1293 L 844,-1290 L 845,-1287 L 847,-1284 L 846,-1282 L 844,-1282 L 842,-1282 L 838,-1282 L 835,-1283 L 832,-1282 L 830,-1281 L 828,-1280 L 827,-1279 L 827,-1276 L 828,-1273 L 828,-1270 L 829,-1267 L 830,-1266 L 832,-1265 L 834,-1264 L 834,-1263 L 834,-1260 L 833,-1257 L 833,-1255 L 835,-1253 L 837,-1250 L 838,-1248 L 839,-1246 L 839,-1243 L 839,-1241 L 838,-1239 L 838,-1236 L 836,-1233 L 835,-1231 L 834,-1229 L 834,-1227 L 837,-1224 L 838,-1222 L 837,-1219 L 836,-1218 L 832,-1216 L 827,-1214 L 824,-1212 L 822,-1210 L 820,-1207 L 814,-1197 L 811,-1193 L 807,-1189 L 802,-1185 L 801,-1184 L 799,-1185 L 795,-1188 L 793,-1189 L 790,-1191 L 786,-1192 L 783,-1192 L 778,-1191 L 775,-1190 L 774,-1188 L 773,-1187 L 771,-1186 L 771,-1183 L 770,-1181 L 772,-1179 L 774,-1179 L 777,-1180 L 780,-1181 L 783,-1182 L 784,-1182 L 786,-1181 L 786,-1179 L 785,-1178 L 782,-1175 L 782,-1173 L 783,-1171 L 786,-1167 L 787,-1165 L 786,-1163 L 785,-1161 L 779,-1156 L 776,-1153 L 772,-1148 L 770,-1143 L 768,-1139 L 767,-1136 L 766,-1135 L 766,-1134 L 765,-1132 L 765,-1130 L 764,-1129 L 764,-1127 L 765,-1126 L 767,-1126 L 777,-1127 L 780,-1127 L 782,-1127 L 782,-1126 L 782,-1125 L 781,-1123 L 778,-1119 L 773,-1115 L 769,-1114 L 764,-1111 L 761,-1109 L 758,-1108 L 756,-1107 L 755,-1105 L 755,-1101 L 754,-1099 L 753,-1098 L 753,-1097 L 753,-1095 L 753,-1094 L 754,-1093 L 757,-1093 L 758,-1094 L 760,-1095 L 763,-1096 L 766,-1096 L 769,-1095 L 772,-1092 L 773,-1090 L 772,-1088 L 770,-1085 L 769,-1084 L 764,-1079 L 756,-1073 L 755,-1072 L 753,-1070 L 751,-1068 L 749,-1067 L 747,-1066 L 744,-1064 L 743,-1061 L 743,-1059 L 743,-1056 L 743,-1055 L 743,-1053 L 744,-1053 L 745,-1052 L 746,-1052 L 747,-1054 L 747,-1055 L 747,-1056 L 747,-1059 L 747,-1061 L 748,-1062 L 750,-1062 L 751,-1061 L 753,-1060 L 754,-1058 L 755,-1056 L 756,-1053 L 757,-1051 L 758,-1049 L 759,-1046 L 758,-1045 L 758,-1043 L 757,-1041 L 755,-1038 L 751,-1035 L 745,-1034 L 740,-1033 L 737,-1032 L 736,-1032 L 724,-1032 L 707,-1032 L 695,-1032 L 620,-1033 L 546,-1034 L 472,-1035 L 456,-1035 L 449,-1035 L 444,-1035 L 443,-1035 L 358,-1036 L 337,-1036 L 338,-1320 L 340,-1320 L 341,-1321 L 343,-1322 L 344,-1323 L 345,-1324 L 345,-1325 L 346,-1326 L 346,-1327 L 346,-1328 L 347,-1329 L 347,-1330 L 347,-1331 L 347,-1332 L 348,-1332 L 348,-1333 L 348,-1334 L 348,-1335 L 349,-1336 L 349,-1337 L 350,-1337 L 350,-1338 L 350,-1339 L 350,-1340 L 351,-1341 L 351,-1342 L 351,-1343 L 352,-1343 L 352,-1344 L 353,-1344 L 353,-1345 L 354,-1346 L 354,-1347 L 355,-1347 L 355,-1348 L 355,-1349 L 355,-1350 L 356,-1351 L 356,-1352 L 356,-1353 L 357,-1353 L 357,-1354 L 358,-1354 L 358,-1355 L 358,-1356 L 359,-1357 L 359,-1358 L 359,-1359 L 360,-1359 L 360,-1360 L 360,-1361 L 361,-1362 L 361,-1363 L 361,-1364 L 361,-1365 L 362,-1365 L 362,-1366 L 362,-1367 L 362,-1368 L 362,-1369 L 362,-1370 L 362,-1371 L 362,-1372 L 362,-1373 L 362,-1374 L 363,-1374 L 363,-1375 L 363,-1376 L 364,-1376 L 364,-1377 L 365,-1377 L 365,-1378 L 364,-1378 L 364,-1379 L 364,-1380 L 363,-1380 L 363,-1381 L 363,-1382 L 364,-1382 L 364,-1383 L 364,-1384 L 365,-1384 L 365,-1385 L 365,-1386 L 366,-1386 L 366,-1387 L 367,-1387 L 367,-1388 L 368,-1388 L 368,-1387 L 369,-1387 L 369,-1388 L 369,-1389 L 370,-1389 L 370,-1390 L 371,-1390 L 371,-1391 L 371,-1392 L 372,-1393 L 373,-1393 L 374,-1393 L 374,-1394 L 373,-1394 L 373,-1395 L 374,-1396 L 374,-1397 L 375,-1397 L 375,-1398 L 376,-1399 L 376,-1400 L 376,-1401 L 376,-1402 L 377,-1402 L 377,-1403 L 378,-1403 L 378,-1404 L 378,-1405 L 379,-1405 L 379,-1406 L 380,-1406 L 380,-1407 L 379,-1408 L 379,-1409 L 379,-1410 L 380,-1410 L 381,-1410 L 382,-1411 L 383,-1411 L 384,-1412 L 385,-1413 L 386,-1413 L 386,-1414 L 387,-1414 L 388,-1415 L 388,-1416 L 388,-1417 L 389,-1417 L 390,-1417 L 390,-1418 L 391,-1419 L 391,-1420 L 391,-1421 L 392,-1421 L 393,-1421 L 393,-1422 L 394,-1422 L 394,-1423 L 394,-1424 L 394,-1425 L 394,-1426 L 394,-1427 L 395,-1426 L 395,-1427 L 395,-1428 L 396,-1428 L 396,-1429 L 396,-1430 L 397,-1430 L 397,-1429 L 398,-1429 L 398,-1430 L 398,-1431 L 399,-1431 L 399,-1432 L 400,-1432 L 401,-1432 L 402,-1432 L 402,-1433 L 403,-1433 L 403,-1434 L 404,-1434 L 405,-1434 L 405,-1435 L 405,-1436 L 405,-1437 L 405,-1436 L 406,-1436 L 407,-1436 L 406,-1436 L 407,-1437 L 407,-1438 L 407,-1439 L 406,-1439 L 407,-1439 L 407,-1440 L 407,-1441 L 406,-1441 L 407,-1442 L 407,-1443 L 408,-1443 L 408,-1444 L 407,-1444 L 407,-1445 L 408,-1445 L 408,-1444 L 408,-1445 L 408,-1446 L 408,-1445 L 409,-1445 L 409,-1446 L 410,-1446 L 410,-1447 L 410,-1446 L 411,-1446 L 411,-1447 L 412,-1447 L 413,-1447 L 413,-1448 L 414,-1448 L 414,-1449 L 415,-1449 L 414,-1449 L 415,-1449 L 415,-1450 L 414,-1450 L 415,-1450 L 414,-1450 L 414,-1451 L 415,-1451 L 415,-1452 L 415,-1453 L 416,-1453 L 415,-1453 L 415,-1454 L 416,-1454 L 416,-1455 L 417,-1455 L 417,-1456 L 418,-1456 L 417,-1456 L 417,-1457 L 418,-1457 L 419,-1457 L 419,-1458 L 419,-1459 L 419,-1460 L 420,-1460 L 420,-1461 L 419,-1461 L 420,-1462 L 420,-1463 L 419,-1463 L 419,-1464 L 418,-1464 L 419,-1465 L 419,-1466 L 420,-1467 L 419,-1467 L 419,-1468 L 420,-1468 L 419,-1468 L 420,-1468 L 420,-1469 L 419,-1469 L 420,-1469 L 419,-1469 L 420,-1469 L 420,-1470 L 420,-1471 L 421,-1471 L 421,-1472 L 421,-1473 L 420,-1473 L 420,-1474 L 421,-1474 L 421,-1475 L 421,-1474 L 421,-1475 L 420,-1475 L 420,-1474 L 420,-1475 L 420,-1476 L 419,-1476 L 419,-1475 L 419,-1476 L 418,-1476 L 418,-1477 L 419,-1477 L 419,-1478 L 419,-1479 L 419,-1478 L 419,-1479 L 419,-1480 L 419,-1479 L 418,-1479 L 418,-1480 L 417,-1480 L 417,-1479 L 416,-1479 L 416,-1480 L 415,-1480 L 414,-1480 L 414,-1481 L 414,-1480 L 413,-1480 L 413,-1481 L 413,-1482 L 412,-1482 L 411,-1482 L 411,-1483 L 410,-1483 L 410,-1484 L 410,-1485 L 410,-1486 L 410,-1487 L 410,-1486 L 409,-1486 L 409,-1487 L 409,-1486 L 409,-1487 L 408,-1487 L 407,-1486 L 407,-1487 L 408,-1487 L 408,-1488 L 407,-1488 L 407,-1487 L 407,-1488 L 408,-1488 L 407,-1488 L 407,-1489 L 406,-1489 L 407,-1489 L 407,-1490 L 407,-1489 L 406,-1489 L 406,-1490 L 407,-1490 L 408,-1490 L 408,-1491 L 407,-1491 L 408,-1491 L 407,-1491 L 407,-1492 L 407,-1491 L 406,-1491 L 406,-1492 L 407,-1492 L 407,-1493 L 408,-1493 L 407,-1493 L 407,-1494 L 408,-1494 L 407,-1494 L 408,-1494 L 408,-1495 L 407,-1495 L 408,-1495 L 409,-1495 L 409,-1496 L 409,-1497 L 409,-1498 L 410,-1498 L 409,-1498 L 409,-1499 L 409,-1500 L 408,-1500 L 408,-1501 L 409,-1501 L 408,-1501 L 409,-1501 L 409,-1502 L 409,-1503 L 409,-1504 L 410,-1504 L 410,-1505 L 411,-1505 L 412,-1506 L 411,-1506 L 411,-1505 L 410,-1506 L 411,-1506 L 411,-1507 L 410,-1507 L 410,-1508 L 411,-1508 L 410,-1508 L 410,-1509 L 409,-1509 L 410,-1509 L 410,-1510 L 410,-1511 L 410,-1510 L 409,-1510 L 409,-1511 L 409,-1512 L 408,-1512 L 409,-1512 L 410,-1512 L 410,-1513 L 409,-1513 L 409,-1514 L 410,-1514 L 409,-1514 L 409,-1515 L 408,-1515 L 408,-1514 L 408,-1515 L 409,-1516 L 410,-1516 L 409,-1517 L 408,-1517 L 409,-1518 L 410,-1518 L 410,-1519 L 409,-1519 L 410,-1520 L 409,-1520 L 409,-1521 L 408,-1521 L 409,-1521 L 409,-1522 L 408,-1522 L 408,-1523 L 408,-1524 L 408,-1525 L 409,-1524 L 409,-1525 L 410,-1525 L 410,-1526 L 409,-1526 L 408,-1526 L 408,-1527 L 409,-1527 L 409,-1528 L 410,-1528 L 410,-1529 L 409,-1529 L 408,-1529 L 408,-1530 L 409,-1530 L 409,-1531 L 410,-1532 L 409,-1533 L 410,-1533 L 410,-1534 L 411,-1534 L 411,-1533 L 410,-1533 L 410,-1532 L 411,-1532 L 412,-1533 L 413,-1533 L 413,-1534 L 414,-1534 L 414,-1535 L 413,-1535 L 412,-1535 L 413,-1536 L 414,-1536 L 414,-1537 L 413,-1537 L 412,-1537 L 413,-1538 L 414,-1538 L 414,-1539 L 414,-1540 L 414,-1541 L 415,-1541 L 415,-1542 L 414,-1542 L 415,-1542 L 415,-1543 L 415,-1544 L 415,-1545 L 414,-1545 L 414,-1544 L 413,-1544 L 413,-1545 L 413,-1546 L 414,-1547 L 415,-1547 L 415,-1548 L 414,-1548 L 414,-1549 L 413,-1549 L 413,-1550 L 414,-1550 L 415,-1551 L 414,-1551 L 413,-1551 L 412,-1551 L 413,-1551 L 413,-1552 L 414,-1552 L 414,-1553 L 415,-1553 L 415,-1552 L 415,-1553 L 414,-1553 L 414,-1554 L 415,-1555 L 416,-1555 L 417,-1555 L 416,-1555 L 416,-1556 L 415,-1556 L 415,-1555 L 414,-1556 L 415,-1556 L 415,-1557 L 414,-1557 L 415,-1557 L 415,-1558 L 416,-1558 L 416,-1559 L 417,-1559 L 417,-1560 L 416,-1560 L 416,-1561 L 417,-1561 L 418,-1561 L 419,-1561 L 419,-1560 L 420,-1561 L 419,-1561 L 420,-1561 L 421,-1562 L 422,-1562 L 422,-1561 L 422,-1562 L 421,-1562 L 421,-1563 L 420,-1563 L 420,-1564 L 691,-1564 L 805,-1564 L 805,-1563 L 804,-1561 L 804,-1560 " /></g>
</svg>
