<?xml version="1.0" standalone="no"?><!DOCTYPE svg PUBLIC "-//W3C//DTD SVG 1.1//EN" "http://www.w3.org/Graphics/SVG/1.1/DTD/svg11.dtd"><svg xmlns="http://www.w3.org/2000/svg" viewBox="238 -841 632 785" version = "1.1">
<g id="80501" ><path d="M 679,-768 L 680,-768 L 681,-768 L 681,-769 L 682,-769 L 683,-769 L 684,-769 L 684,-770 L 683,-770 L 683,-771 L 683,-772 L 684,-772 L 685,-772 L 686,-772 L 687,-772 L 687,-773 L 686,-773 L 686,-774 L 685,-774 L 684,-774 L 684,-775 L 685,-775 L 686,-776 L 687,-776 L 688,-776 L 688,-777 L 689,-777 L 689,-778 L 688,-778 L 687,-778 L 686,-778 L 686,-779 L 686,-780 L 686,-781 L 687,-781 L 688,-780 L 689,-780 L 690,-780 L 691,-780 L 692,-780 L 693,-780 L 694,-780 L 694,-781 L 694,-782 L 694,-783 L 694,-784 L 693,-783 L 692,-783 L 691,-783 L 690,-783 L 690,-784 L 690,-785 L 691,-785 L 692,-785 L 693,-785 L 694,-785 L 695,-785 L 696,-785 L 697,-785 L 697,-786 L 697,-787 L 696,-787 L 695,-788 L 695,-787 L 694,-787 L 693,-787 L 692,-787 L 692,-788 L 693,-788 L 693,-789 L 694,-789 L 695,-789 L 696,-789 L 697,-789 L 698,-788 L 699,-788 L 699,-789 L 698,-789 L 698,-790 L 697,-790 L 696,-790 L 696,-791 L 695,-791 L 695,-792 L 695,-793 L 694,-793 L 695,-794 L 696,-794 L 697,-794 L 698,-794 L 699,-794 L 700,-794 L 700,-795 L 699,-795 L 699,-796 L 698,-796 L 697,-796 L 697,-795 L 696,-795 L 695,-795 L 694,-796 L 695,-796 L 695,-797 L 696,-798 L 696,-799 L 696,-800 L 695,-800 L 694,-800 L 693,-800 L 693,-799 L 694,-799 L 694,-798 L 693,-798 L 693,-797 L 693,-796 L 692,-796 L 692,-797 L 692,-798 L 692,-799 L 692,-800 L 693,-800 L 693,-801 L 694,-801 L 694,-802 L 695,-802 L 696,-802 L 696,-803 L 697,-803 L 697,-804 L 698,-804 L 699,-804 L 700,-804 L 700,-805 L 699,-806 L 699,-807 L 699,-808 L 698,-809 L 697,-810 L 696,-810 L 696,-811 L 695,-811 L 694,-811 L 694,-812 L 695,-812 L 696,-813 L 697,-813 L 697,-814 L 698,-815 L 699,-815 L 699,-814 L 700,-814 L 700,-813 L 701,-813 L 701,-812 L 701,-813 L 702,-814 L 701,-814 L 701,-815 L 701,-816 L 700,-816 L 700,-817 L 701,-817 L 701,-818 L 701,-819 L 702,-819 L 702,-820 L 701,-820 L 701,-821 L 700,-821 L 701,-821 L 701,-822 L 701,-824 L 700,-824 L 700,-825 L 702,-826 L 703,-826 L 704,-827 L 705,-828 L 707,-830 L 708,-831 L 708,-832 L 707,-833 L 706,-833 L 705,-833 L 706,-834 L 707,-834 L 707,-833 L 709,-833 L 711,-832 L 713,-832 L 714,-832 L 715,-832 L 715,-833 L 715,-834 L 715,-835 L 715,-836 L 714,-836 L 715,-837 L 715,-836 L 716,-836 L 718,-835 L 719,-835 L 719,-836 L 720,-837 L 719,-837 L 719,-838 L 718,-838 L 717,-841 L 733,-841 L 752,-840 L 776,-840 L 801,-840 L 830,-839 L 831,-839 L 831,-838 L 831,-836 L 831,-835 L 831,-834 L 831,-833 L 830,-832 L 830,-831 L 831,-830 L 831,-829 L 832,-828 L 834,-824 L 835,-821 L 836,-820 L 837,-818 L 837,-817 L 837,-816 L 837,-814 L 837,-813 L 836,-810 L 834,-808 L 833,-807 L 833,-806 L 833,-805 L 833,-804 L 834,-803 L 835,-803 L 836,-803 L 837,-803 L 838,-805 L 839,-807 L 839,-809 L 840,-811 L 840,-812 L 841,-812 L 842,-813 L 844,-813 L 845,-813 L 845,-812 L 846,-812 L 846,-811 L 846,-810 L 845,-809 L 844,-808 L 843,-808 L 842,-806 L 841,-805 L 841,-803 L 841,-801 L 841,-798 L 842,-796 L 842,-795 L 842,-794 L 843,-794 L 845,-794 L 847,-795 L 850,-795 L 852,-794 L 854,-794 L 855,-793 L 856,-793 L 856,-792 L 856,-791 L 855,-790 L 854,-789 L 852,-788 L 851,-787 L 851,-786 L 850,-785 L 850,-784 L 850,-783 L 851,-782 L 852,-780 L 854,-777 L 856,-776 L 857,-775 L 857,-773 L 857,-772 L 857,-771 L 856,-771 L 853,-771 L 850,-773 L 847,-774 L 844,-776 L 843,-776 L 841,-776 L 840,-775 L 840,-774 L 840,-773 L 841,-771 L 842,-771 L 843,-771 L 845,-770 L 847,-770 L 848,-769 L 848,-768 L 850,-766 L 850,-765 L 852,-764 L 854,-764 L 856,-765 L 857,-766 L 858,-766 L 859,-766 L 860,-766 L 861,-765 L 861,-764 L 860,-762 L 858,-761 L 858,-759 L 858,-757 L 858,-756 L 859,-755 L 860,-754 L 862,-754 L 864,-753 L 865,-753 L 865,-752 L 866,-751 L 865,-749 L 864,-748 L 863,-746 L 861,-745 L 859,-744 L 857,-744 L 855,-743 L 853,-743 L 851,-743 L 850,-744 L 848,-746 L 847,-747 L 846,-748 L 844,-747 L 842,-746 L 842,-745 L 841,-744 L 841,-743 L 842,-743 L 842,-742 L 844,-742 L 846,-742 L 848,-741 L 850,-741 L 852,-740 L 853,-739 L 854,-739 L 855,-739 L 858,-739 L 859,-740 L 861,-740 L 863,-741 L 864,-741 L 865,-740 L 866,-740 L 868,-739 L 869,-737 L 869,-736 L 870,-734 L 870,-733 L 870,-731 L 870,-729 L 869,-728 L 867,-727 L 866,-725 L 865,-724 L 864,-723 L 863,-722 L 862,-721 L 861,-721 L 859,-721 L 857,-721 L 856,-721 L 855,-722 L 854,-722 L 852,-721 L 852,-720 L 852,-719 L 853,-718 L 855,-717 L 857,-715 L 859,-713 L 861,-713 L 862,-712 L 863,-711 L 863,-710 L 863,-709 L 863,-708 L 862,-707 L 860,-706 L 858,-706 L 856,-705 L 853,-704 L 852,-703 L 850,-701 L 848,-699 L 847,-697 L 846,-695 L 845,-694 L 844,-693 L 843,-693 L 842,-691 L 843,-690 L 844,-689 L 844,-688 L 844,-686 L 844,-684 L 843,-681 L 842,-680 L 841,-678 L 840,-676 L 838,-674 L 837,-673 L 836,-673 L 834,-672 L 833,-672 L 832,-671 L 832,-670 L 833,-669 L 835,-667 L 837,-666 L 838,-664 L 839,-663 L 839,-661 L 839,-660 L 839,-659 L 838,-657 L 836,-656 L 834,-655 L 832,-655 L 830,-654 L 829,-653 L 828,-652 L 827,-651 L 827,-650 L 828,-650 L 829,-650 L 830,-651 L 831,-651 L 832,-651 L 833,-650 L 833,-649 L 833,-648 L 832,-645 L 832,-644 L 831,-643 L 831,-640 L 830,-637 L 829,-634 L 829,-632 L 827,-631 L 826,-629 L 825,-629 L 825,-628 L 825,-627 L 825,-626 L 826,-626 L 826,-625 L 828,-624 L 829,-624 L 830,-623 L 831,-622 L 832,-622 L 833,-622 L 833,-623 L 834,-624 L 834,-626 L 835,-628 L 835,-629 L 836,-631 L 837,-633 L 837,-634 L 839,-634 L 840,-634 L 841,-633 L 841,-632 L 842,-630 L 841,-628 L 841,-626 L 841,-624 L 840,-623 L 840,-621 L 839,-620 L 837,-619 L 836,-618 L 835,-617 L 834,-616 L 832,-616 L 831,-615 L 829,-615 L 828,-614 L 827,-614 L 826,-613 L 825,-611 L 825,-609 L 826,-608 L 827,-608 L 828,-609 L 829,-609 L 831,-611 L 832,-612 L 834,-613 L 836,-613 L 838,-613 L 841,-613 L 842,-614 L 843,-614 L 844,-614 L 845,-614 L 845,-613 L 845,-611 L 844,-609 L 844,-608 L 843,-607 L 842,-606 L 841,-606 L 840,-606 L 839,-606 L 838,-607 L 837,-608 L 836,-608 L 835,-608 L 835,-607 L 836,-606 L 837,-605 L 837,-604 L 838,-603 L 838,-601 L 838,-600 L 839,-599 L 839,-598 L 840,-598 L 842,-597 L 843,-597 L 846,-597 L 848,-597 L 849,-597 L 850,-597 L 850,-596 L 851,-595 L 851,-594 L 851,-593 L 850,-593 L 849,-593 L 848,-592 L 847,-592 L 846,-592 L 845,-592 L 844,-592 L 843,-592 L 842,-592 L 841,-591 L 839,-591 L 838,-590 L 837,-589 L 836,-589 L 836,-588 L 835,-587 L 836,-586 L 838,-586 L 840,-585 L 842,-585 L 843,-584 L 844,-584 L 846,-584 L 847,-584 L 848,-583 L 850,-583 L 850,-582 L 850,-581 L 850,-580 L 850,-579 L 850,-578 L 851,-577 L 851,-576 L 851,-575 L 851,-574 L 849,-573 L 848,-573 L 846,-574 L 844,-574 L 842,-575 L 840,-576 L 839,-577 L 837,-578 L 836,-578 L 835,-578 L 834,-578 L 834,-576 L 834,-575 L 835,-574 L 836,-572 L 837,-571 L 838,-570 L 838,-568 L 838,-567 L 838,-566 L 839,-565 L 839,-564 L 840,-564 L 841,-563 L 843,-564 L 844,-565 L 845,-566 L 846,-567 L 847,-568 L 848,-568 L 849,-568 L 850,-567 L 850,-566 L 851,-565 L 850,-564 L 850,-562 L 849,-561 L 849,-560 L 849,-559 L 849,-557 L 850,-556 L 850,-555 L 851,-554 L 852,-553 L 852,-552 L 853,-551 L 853,-550 L 853,-549 L 851,-547 L 849,-548 L 848,-549 L 846,-550 L 845,-552 L 843,-553 L 842,-554 L 841,-555 L 839,-555 L 838,-555 L 837,-555 L 837,-554 L 837,-553 L 837,-551 L 838,-550 L 839,-549 L 840,-547 L 841,-546 L 842,-543 L 842,-541 L 843,-540 L 844,-538 L 845,-537 L 847,-537 L 848,-536 L 849,-536 L 850,-535 L 851,-535 L 851,-534 L 851,-532 L 850,-531 L 849,-530 L 846,-529 L 844,-529 L 842,-527 L 841,-527 L 839,-526 L 838,-525 L 836,-525 L 835,-525 L 833,-525 L 832,-526 L 831,-526 L 830,-526 L 829,-526 L 829,-525 L 829,-524 L 829,-523 L 829,-522 L 828,-522 L 828,-521 L 829,-521 L 829,-520 L 828,-520 L 828,-519 L 827,-519 L 827,-518 L 827,-517 L 826,-517 L 825,-516 L 824,-517 L 824,-516 L 824,-517 L 823,-516 L 823,-517 L 823,-516 L 822,-516 L 821,-515 L 821,-514 L 820,-514 L 820,-515 L 820,-514 L 819,-514 L 819,-513 L 820,-513 L 820,-512 L 819,-512 L 820,-512 L 820,-511 L 820,-510 L 819,-510 L 819,-509 L 818,-509 L 818,-508 L 817,-508 L 816,-508 L 815,-508 L 814,-508 L 815,-507 L 814,-506 L 813,-506 L 813,-505 L 812,-505 L 812,-504 L 811,-504 L 811,-503 L 811,-502 L 810,-502 L 810,-501 L 809,-501 L 808,-502 L 808,-501 L 807,-501 L 806,-501 L 806,-500 L 806,-499 L 805,-499 L 805,-498 L 806,-498 L 806,-497 L 805,-497 L 806,-497 L 806,-496 L 806,-495 L 805,-495 L 804,-495 L 804,-494 L 805,-494 L 804,-494 L 804,-493 L 804,-492 L 805,-492 L 805,-491 L 804,-491 L 804,-490 L 804,-491 L 803,-491 L 803,-490 L 802,-490 L 802,-489 L 802,-488 L 801,-488 L 800,-488 L 800,-487 L 799,-487 L 798,-487 L 797,-487 L 797,-486 L 796,-487 L 795,-487 L 794,-487 L 794,-486 L 793,-485 L 793,-484 L 793,-483 L 792,-483 L 791,-483 L 791,-482 L 790,-482 L 790,-481 L 789,-481 L 788,-481 L 787,-481 L 787,-480 L 786,-480 L 786,-479 L 786,-478 L 787,-478 L 787,-477 L 787,-476 L 787,-475 L 787,-474 L 786,-474 L 786,-473 L 785,-473 L 785,-472 L 784,-472 L 784,-471 L 783,-471 L 782,-471 L 782,-470 L 781,-470 L 781,-469 L 781,-468 L 781,-467 L 780,-467 L 780,-466 L 780,-465 L 780,-464 L 779,-464 L 779,-463 L 778,-462 L 777,-461 L 777,-459 L 777,-458 L 777,-457 L 777,-456 L 777,-455 L 777,-454 L 777,-453 L 778,-452 L 777,-452 L 777,-451 L 777,-450 L 776,-450 L 775,-449 L 774,-448 L 774,-447 L 775,-447 L 775,-446 L 774,-446 L 774,-445 L 773,-445 L 772,-445 L 771,-445 L 770,-445 L 769,-445 L 769,-444 L 768,-444 L 767,-444 L 766,-444 L 766,-443 L 765,-443 L 764,-443 L 763,-443 L 763,-442 L 762,-442 L 762,-441 L 778,-418 L 805,-380 L 804,-379 L 803,-379 L 802,-379 L 803,-378 L 804,-378 L 804,-377 L 805,-377 L 806,-376 L 806,-375 L 806,-374 L 805,-374 L 804,-374 L 803,-374 L 802,-374 L 801,-374 L 800,-374 L 800,-373 L 800,-372 L 800,-371 L 799,-370 L 799,-369 L 799,-368 L 800,-368 L 801,-368 L 802,-368 L 803,-368 L 803,-369 L 804,-369 L 805,-370 L 806,-371 L 807,-371 L 807,-370 L 807,-369 L 807,-368 L 806,-368 L 805,-367 L 804,-366 L 803,-366 L 803,-365 L 802,-365 L 801,-365 L 800,-365 L 799,-365 L 799,-364 L 798,-364 L 798,-363 L 798,-362 L 797,-362 L 798,-361 L 799,-361 L 800,-360 L 801,-360 L 802,-360 L 803,-360 L 804,-360 L 804,-359 L 803,-359 L 802,-359 L 801,-359 L 800,-358 L 799,-357 L 799,-356 L 799,-354 L 799,-353 L 801,-352 L 802,-352 L 803,-352 L 804,-352 L 804,-351 L 804,-350 L 802,-350 L 801,-350 L 801,-349 L 800,-349 L 800,-348 L 800,-347 L 801,-347 L 801,-348 L 802,-349 L 803,-349 L 804,-348 L 804,-347 L 804,-346 L 804,-345 L 803,-344 L 804,-343 L 803,-342 L 803,-341 L 803,-340 L 803,-339 L 802,-338 L 801,-338 L 800,-338 L 800,-339 L 801,-339 L 802,-340 L 801,-341 L 800,-342 L 799,-342 L 798,-342 L 798,-341 L 799,-340 L 799,-339 L 798,-339 L 797,-339 L 796,-339 L 796,-338 L 795,-337 L 796,-337 L 797,-337 L 798,-337 L 798,-336 L 797,-335 L 796,-334 L 794,-333 L 792,-333 L 792,-332 L 793,-332 L 794,-332 L 795,-332 L 796,-332 L 796,-331 L 796,-330 L 797,-329 L 797,-330 L 798,-330 L 799,-329 L 799,-328 L 797,-328 L 796,-328 L 795,-328 L 794,-327 L 793,-326 L 792,-325 L 792,-324 L 793,-323 L 794,-322 L 794,-321 L 795,-320 L 796,-320 L 797,-320 L 796,-319 L 796,-317 L 795,-317 L 794,-316 L 793,-316 L 792,-316 L 791,-315 L 790,-315 L 789,-315 L 788,-315 L 787,-314 L 787,-313 L 787,-312 L 788,-313 L 789,-313 L 790,-313 L 790,-312 L 789,-312 L 788,-311 L 788,-310 L 790,-310 L 791,-309 L 791,-308 L 791,-307 L 791,-306 L 790,-306 L 789,-306 L 789,-307 L 788,-307 L 787,-308 L 786,-308 L 786,-307 L 786,-306 L 786,-305 L 786,-304 L 786,-303 L 787,-303 L 788,-303 L 789,-303 L 789,-302 L 788,-302 L 788,-301 L 788,-300 L 788,-299 L 789,-298 L 790,-298 L 791,-298 L 790,-297 L 789,-297 L 788,-298 L 788,-299 L 787,-299 L 786,-299 L 785,-299 L 784,-299 L 784,-300 L 783,-301 L 782,-300 L 781,-299 L 781,-298 L 782,-298 L 783,-298 L 784,-297 L 784,-296 L 785,-295 L 784,-293 L 784,-291 L 783,-291 L 783,-292 L 782,-292 L 782,-293 L 781,-293 L 781,-294 L 782,-294 L 782,-295 L 782,-296 L 781,-297 L 780,-297 L 779,-297 L 778,-297 L 777,-297 L 776,-296 L 776,-295 L 775,-295 L 774,-295 L 773,-295 L 773,-294 L 772,-294 L 772,-293 L 771,-293 L 771,-292 L 770,-293 L 770,-292 L 769,-292 L 769,-291 L 768,-292 L 768,-291 L 768,-292 L 767,-292 L 767,-291 L 768,-291 L 767,-291 L 767,-290 L 766,-290 L 765,-290 L 765,-289 L 764,-289 L 765,-289 L 764,-289 L 764,-288 L 764,-287 L 764,-286 L 763,-286 L 763,-287 L 762,-286 L 761,-286 L 760,-286 L 759,-286 L 759,-285 L 758,-285 L 759,-285 L 759,-284 L 758,-284 L 759,-284 L 759,-283 L 758,-283 L 759,-282 L 758,-282 L 758,-281 L 757,-281 L 756,-281 L 756,-280 L 755,-281 L 754,-280 L 755,-280 L 755,-279 L 756,-279 L 755,-279 L 755,-278 L 754,-278 L 755,-278 L 755,-277 L 755,-276 L 755,-275 L 754,-275 L 754,-276 L 753,-275 L 753,-276 L 752,-275 L 751,-275 L 751,-276 L 750,-276 L 750,-275 L 750,-276 L 750,-275 L 749,-275 L 748,-275 L 748,-274 L 747,-274 L 746,-274 L 747,-274 L 747,-273 L 746,-273 L 747,-273 L 746,-273 L 746,-272 L 746,-273 L 745,-273 L 745,-272 L 744,-272 L 743,-272 L 742,-272 L 741,-272 L 741,-271 L 742,-271 L 743,-270 L 742,-269 L 743,-269 L 743,-268 L 742,-268 L 742,-267 L 741,-267 L 740,-267 L 740,-268 L 739,-268 L 739,-267 L 739,-266 L 738,-265 L 738,-264 L 739,-264 L 739,-263 L 738,-263 L 738,-262 L 737,-263 L 737,-262 L 736,-262 L 737,-262 L 737,-261 L 737,-260 L 736,-259 L 737,-258 L 737,-257 L 737,-256 L 737,-255 L 737,-254 L 737,-253 L 737,-252 L 737,-251 L 738,-251 L 738,-250 L 739,-250 L 739,-249 L 740,-249 L 741,-248 L 740,-248 L 739,-248 L 738,-248 L 738,-247 L 738,-246 L 739,-246 L 739,-245 L 740,-245 L 741,-244 L 742,-244 L 743,-244 L 744,-244 L 744,-243 L 744,-242 L 744,-241 L 744,-240 L 743,-241 L 743,-240 L 743,-239 L 742,-239 L 742,-238 L 741,-238 L 740,-238 L 740,-239 L 739,-238 L 739,-237 L 739,-238 L 740,-238 L 741,-238 L 741,-237 L 742,-236 L 742,-235 L 742,-234 L 742,-235 L 741,-235 L 741,-234 L 740,-234 L 739,-234 L 738,-234 L 737,-234 L 737,-233 L 738,-233 L 738,-232 L 739,-232 L 739,-231 L 738,-231 L 737,-231 L 737,-230 L 738,-230 L 738,-229 L 737,-229 L 737,-228 L 738,-228 L 739,-228 L 740,-228 L 739,-227 L 738,-227 L 737,-227 L 736,-227 L 737,-227 L 738,-227 L 738,-226 L 737,-226 L 737,-225 L 736,-225 L 736,-226 L 735,-226 L 735,-225 L 735,-224 L 736,-224 L 736,-225 L 737,-225 L 737,-224 L 736,-224 L 736,-223 L 735,-223 L 735,-222 L 736,-222 L 737,-222 L 737,-221 L 737,-220 L 736,-220 L 736,-219 L 735,-219 L 734,-219 L 733,-219 L 733,-218 L 734,-218 L 734,-217 L 735,-217 L 735,-218 L 736,-217 L 735,-217 L 734,-217 L 734,-216 L 735,-216 L 735,-215 L 735,-214 L 748,-155 L 745,-121 L 727,-87 L 646,-67 L 565,-56 L 556,-56 L 539,-59 L 520,-64 L 507,-70 L 491,-81 L 473,-88 L 453,-99 L 432,-125 L 406,-168 L 396,-182 L 395,-182 L 394,-182 L 393,-182 L 393,-183 L 392,-183 L 391,-183 L 391,-184 L 391,-185 L 390,-185 L 389,-185 L 388,-185 L 388,-186 L 387,-186 L 386,-186 L 386,-187 L 386,-188 L 385,-188 L 385,-189 L 384,-189 L 384,-190 L 383,-190 L 382,-191 L 381,-192 L 375,-196 L 365,-206 L 350,-220 L 340,-226 L 319,-234 L 307,-237 L 303,-237 L 299,-241 L 297,-242 L 297,-243 L 297,-246 L 297,-247 L 296,-249 L 293,-249 L 291,-250 L 289,-253 L 285,-253 L 283,-251 L 281,-254 L 273,-257 L 265,-262 L 259,-268 L 253,-273 L 245,-277 L 239,-279 L 239,-280 L 238,-280 L 239,-281 L 239,-282 L 239,-283 L 239,-284 L 239,-285 L 240,-285 L 240,-286 L 241,-287 L 241,-288 L 241,-289 L 242,-289 L 242,-290 L 242,-291 L 243,-291 L 243,-292 L 243,-293 L 243,-294 L 243,-295 L 244,-295 L 244,-294 L 243,-294 L 244,-294 L 245,-295 L 246,-295 L 246,-294 L 247,-294 L 247,-295 L 248,-295 L 249,-295 L 249,-294 L 250,-294 L 250,-293 L 251,-293 L 251,-292 L 252,-292 L 252,-291 L 253,-291 L 253,-290 L 254,-291 L 254,-290 L 255,-290 L 256,-290 L 256,-289 L 257,-289 L 257,-288 L 258,-288 L 259,-288 L 259,-289 L 259,-288 L 260,-289 L 261,-289 L 261,-288 L 262,-288 L 262,-287 L 263,-287 L 264,-286 L 265,-286 L 266,-286 L 266,-287 L 267,-287 L 267,-288 L 268,-288 L 268,-287 L 268,-286 L 269,-286 L 270,-287 L 270,-288 L 270,-289 L 269,-289 L 268,-288 L 268,-289 L 268,-290 L 267,-290 L 266,-290 L 266,-291 L 266,-292 L 266,-293 L 265,-293 L 265,-294 L 266,-294 L 266,-295 L 266,-296 L 266,-297 L 267,-297 L 267,-296 L 268,-297 L 268,-296 L 269,-296 L 270,-297 L 269,-297 L 269,-298 L 268,-298 L 268,-299 L 267,-299 L 267,-300 L 268,-300 L 269,-299 L 270,-299 L 270,-300 L 271,-300 L 270,-300 L 270,-301 L 271,-302 L 271,-303 L 272,-303 L 272,-304 L 273,-303 L 273,-304 L 273,-305 L 274,-305 L 275,-305 L 276,-305 L 276,-306 L 276,-307 L 275,-307 L 275,-308 L 276,-308 L 277,-308 L 277,-309 L 276,-309 L 275,-309 L 274,-309 L 274,-310 L 275,-310 L 275,-311 L 274,-311 L 274,-312 L 275,-312 L 275,-313 L 274,-313 L 273,-313 L 273,-314 L 272,-314 L 272,-315 L 271,-315 L 270,-315 L 270,-316 L 269,-317 L 268,-317 L 268,-318 L 269,-318 L 268,-319 L 268,-320 L 269,-320 L 269,-321 L 270,-322 L 271,-322 L 271,-321 L 272,-321 L 272,-322 L 272,-323 L 273,-323 L 274,-323 L 275,-323 L 276,-323 L 277,-323 L 277,-324 L 276,-325 L 276,-326 L 275,-326 L 275,-327 L 276,-327 L 276,-328 L 277,-328 L 277,-327 L 278,-327 L 278,-328 L 277,-328 L 277,-329 L 278,-329 L 279,-330 L 280,-331 L 280,-332 L 281,-332 L 281,-333 L 282,-333 L 282,-334 L 282,-335 L 283,-335 L 283,-334 L 284,-334 L 285,-334 L 285,-335 L 286,-334 L 286,-335 L 287,-336 L 287,-337 L 288,-338 L 288,-339 L 287,-339 L 286,-340 L 286,-341 L 287,-341 L 288,-340 L 289,-340 L 289,-341 L 289,-342 L 288,-342 L 288,-343 L 289,-343 L 290,-344 L 291,-344 L 292,-344 L 332,-367 L 417,-416 L 417,-417 L 418,-417 L 419,-417 L 419,-418 L 420,-418 L 421,-418 L 421,-419 L 420,-419 L 421,-419 L 422,-419 L 422,-420 L 423,-420 L 423,-419 L 424,-419 L 425,-419 L 426,-419 L 427,-419 L 428,-419 L 429,-419 L 429,-420 L 430,-420 L 430,-419 L 431,-419 L 431,-420 L 432,-420 L 433,-420 L 433,-421 L 434,-421 L 434,-422 L 434,-423 L 434,-424 L 434,-425 L 435,-426 L 436,-426 L 436,-427 L 437,-427 L 437,-428 L 438,-428 L 438,-429 L 439,-429 L 439,-430 L 440,-430 L 441,-430 L 441,-431 L 441,-432 L 442,-432 L 443,-432 L 444,-432 L 444,-431 L 445,-431 L 445,-432 L 446,-432 L 447,-432 L 448,-433 L 449,-434 L 450,-434 L 451,-435 L 452,-435 L 452,-436 L 453,-436 L 454,-436 L 455,-437 L 456,-438 L 457,-439 L 458,-440 L 459,-440 L 459,-441 L 459,-442 L 460,-442 L 461,-441 L 462,-441 L 462,-442 L 463,-442 L 464,-442 L 465,-442 L 465,-441 L 466,-441 L 467,-441 L 467,-442 L 467,-443 L 468,-443 L 468,-444 L 469,-444 L 469,-445 L 469,-446 L 470,-446 L 470,-447 L 471,-447 L 471,-448 L 471,-449 L 472,-449 L 473,-450 L 473,-451 L 473,-452 L 474,-452 L 475,-452 L 476,-452 L 476,-453 L 477,-453 L 477,-454 L 478,-454 L 479,-454 L 480,-454 L 480,-455 L 481,-455 L 481,-456 L 482,-456 L 482,-457 L 483,-457 L 484,-458 L 484,-459 L 485,-459 L 486,-460 L 487,-460 L 487,-461 L 488,-461 L 489,-461 L 490,-461 L 491,-461 L 491,-462 L 492,-462 L 493,-462 L 494,-462 L 495,-462 L 496,-462 L 497,-462 L 498,-462 L 498,-463 L 498,-462 L 499,-462 L 500,-462 L 501,-462 L 501,-463 L 502,-463 L 502,-464 L 503,-464 L 503,-465 L 504,-465 L 504,-466 L 505,-466 L 505,-467 L 506,-467 L 506,-468 L 507,-468 L 507,-467 L 508,-467 L 509,-466 L 509,-467 L 510,-467 L 510,-468 L 511,-468 L 511,-469 L 512,-469 L 513,-469 L 514,-468 L 514,-469 L 515,-469 L 515,-468 L 516,-468 L 517,-468 L 516,-468 L 517,-468 L 518,-468 L 517,-468 L 518,-468 L 518,-469 L 519,-469 L 519,-470 L 518,-470 L 519,-470 L 520,-470 L 520,-471 L 520,-470 L 521,-470 L 520,-470 L 521,-470 L 521,-471 L 522,-471 L 523,-471 L 523,-470 L 523,-471 L 524,-471 L 523,-472 L 524,-472 L 523,-472 L 523,-473 L 523,-474 L 524,-474 L 524,-475 L 524,-476 L 524,-475 L 523,-475 L 523,-476 L 523,-475 L 523,-476 L 524,-476 L 524,-477 L 525,-477 L 525,-478 L 526,-478 L 525,-478 L 526,-478 L 526,-479 L 527,-479 L 528,-479 L 528,-480 L 528,-479 L 528,-480 L 528,-481 L 529,-481 L 528,-481 L 528,-482 L 529,-482 L 528,-482 L 528,-483 L 528,-484 L 527,-484 L 526,-484 L 527,-485 L 526,-485 L 527,-485 L 527,-486 L 526,-486 L 526,-487 L 527,-487 L 527,-486 L 527,-487 L 528,-487 L 528,-488 L 528,-489 L 527,-489 L 528,-489 L 529,-489 L 529,-488 L 529,-489 L 529,-490 L 530,-490 L 530,-489 L 531,-489 L 531,-490 L 530,-490 L 530,-491 L 531,-491 L 531,-490 L 531,-491 L 531,-492 L 531,-493 L 530,-493 L 531,-493 L 531,-494 L 531,-495 L 532,-495 L 531,-495 L 530,-495 L 530,-496 L 531,-496 L 532,-496 L 532,-495 L 532,-496 L 532,-497 L 531,-497 L 532,-498 L 533,-498 L 533,-497 L 534,-497 L 534,-498 L 535,-498 L 535,-499 L 534,-499 L 535,-499 L 536,-499 L 536,-500 L 537,-500 L 537,-499 L 537,-498 L 536,-498 L 537,-498 L 538,-498 L 538,-497 L 539,-498 L 539,-499 L 539,-498 L 540,-498 L 540,-499 L 540,-498 L 541,-498 L 542,-498 L 542,-499 L 542,-500 L 541,-500 L 542,-500 L 543,-500 L 543,-501 L 544,-501 L 545,-501 L 545,-500 L 544,-500 L 544,-499 L 545,-499 L 545,-500 L 546,-500 L 546,-499 L 546,-500 L 547,-500 L 547,-499 L 547,-498 L 548,-498 L 548,-499 L 549,-499 L 549,-498 L 549,-499 L 549,-500 L 549,-501 L 550,-501 L 550,-502 L 550,-501 L 550,-502 L 551,-502 L 550,-502 L 550,-503 L 550,-502 L 549,-503 L 549,-504 L 549,-505 L 549,-506 L 549,-507 L 550,-508 L 551,-508 L 552,-508 L 552,-509 L 552,-510 L 552,-511 L 552,-512 L 553,-512 L 554,-512 L 554,-511 L 555,-511 L 556,-511 L 557,-512 L 558,-512 L 558,-513 L 557,-513 L 556,-513 L 557,-513 L 557,-514 L 558,-514 L 559,-514 L 560,-514 L 560,-515 L 561,-515 L 561,-516 L 562,-516 L 562,-517 L 562,-516 L 562,-515 L 562,-514 L 563,-514 L 563,-513 L 564,-513 L 564,-514 L 564,-515 L 565,-515 L 565,-514 L 566,-513 L 567,-514 L 566,-514 L 566,-515 L 566,-516 L 567,-516 L 567,-517 L 568,-517 L 568,-518 L 569,-518 L 569,-519 L 570,-520 L 571,-520 L 571,-521 L 572,-521 L 572,-520 L 573,-520 L 573,-521 L 572,-521 L 572,-522 L 571,-522 L 570,-523 L 570,-524 L 569,-525 L 569,-526 L 568,-526 L 567,-526 L 566,-526 L 566,-525 L 565,-524 L 565,-525 L 565,-526 L 566,-526 L 566,-527 L 566,-528 L 567,-529 L 567,-528 L 568,-528 L 569,-528 L 569,-529 L 568,-529 L 568,-530 L 567,-530 L 566,-531 L 565,-531 L 565,-530 L 565,-531 L 565,-532 L 564,-532 L 564,-533 L 565,-534 L 566,-534 L 567,-534 L 568,-534 L 568,-533 L 569,-533 L 569,-534 L 568,-535 L 568,-536 L 567,-536 L 567,-537 L 567,-538 L 567,-539 L 566,-539 L 566,-540 L 567,-540 L 567,-541 L 568,-541 L 569,-541 L 569,-542 L 570,-542 L 570,-543 L 569,-543 L 568,-543 L 568,-544 L 568,-545 L 568,-546 L 567,-546 L 566,-546 L 565,-546 L 566,-546 L 566,-547 L 566,-548 L 566,-549 L 567,-550 L 567,-551 L 566,-551 L 565,-551 L 564,-551 L 563,-551 L 562,-551 L 563,-551 L 563,-552 L 564,-552 L 564,-553 L 565,-553 L 566,-553 L 565,-553 L 566,-554 L 567,-554 L 568,-554 L 567,-553 L 567,-552 L 568,-552 L 568,-551 L 569,-551 L 569,-552 L 569,-553 L 569,-554 L 569,-555 L 569,-556 L 568,-556 L 568,-557 L 568,-558 L 569,-558 L 570,-558 L 570,-557 L 570,-556 L 570,-555 L 571,-555 L 572,-555 L 572,-556 L 571,-556 L 571,-557 L 572,-557 L 572,-558 L 571,-558 L 570,-558 L 570,-559 L 569,-559 L 569,-560 L 569,-561 L 570,-561 L 570,-562 L 571,-562 L 571,-563 L 571,-562 L 572,-562 L 571,-561 L 571,-560 L 572,-560 L 573,-560 L 574,-560 L 574,-561 L 575,-561 L 575,-562 L 576,-562 L 577,-562 L 578,-561 L 579,-561 L 579,-562 L 578,-562 L 578,-563 L 578,-564 L 579,-564 L 580,-564 L 581,-564 L 580,-563 L 581,-563 L 582,-563 L 582,-564 L 582,-565 L 581,-565 L 580,-565 L 579,-565 L 579,-566 L 579,-567 L 579,-568 L 579,-569 L 579,-570 L 580,-570 L 580,-571 L 579,-571 L 580,-571 L 581,-572 L 580,-572 L 580,-573 L 580,-572 L 579,-572 L 578,-572 L 577,-572 L 577,-573 L 578,-573 L 579,-574 L 579,-575 L 580,-575 L 581,-575 L 581,-574 L 582,-574 L 583,-574 L 583,-575 L 582,-575 L 582,-576 L 583,-576 L 584,-576 L 585,-576 L 586,-577 L 587,-577 L 586,-577 L 585,-577 L 584,-578 L 585,-578 L 585,-579 L 586,-579 L 587,-579 L 588,-579 L 589,-579 L 589,-580 L 589,-581 L 589,-582 L 590,-582 L 591,-582 L 592,-582 L 592,-583 L 592,-584 L 591,-584 L 590,-584 L 590,-585 L 591,-585 L 591,-586 L 592,-586 L 592,-587 L 591,-588 L 591,-589 L 590,-589 L 589,-589 L 589,-590 L 590,-590 L 591,-590 L 592,-590 L 592,-591 L 592,-592 L 591,-592 L 591,-593 L 592,-593 L 593,-593 L 593,-594 L 592,-594 L 592,-595 L 591,-595 L 591,-596 L 592,-597 L 591,-597 L 591,-598 L 590,-597 L 590,-596 L 589,-596 L 589,-597 L 589,-598 L 590,-598 L 590,-599 L 589,-599 L 589,-600 L 588,-600 L 588,-601 L 587,-602 L 586,-602 L 585,-601 L 585,-602 L 584,-602 L 584,-601 L 583,-601 L 583,-602 L 584,-602 L 584,-603 L 585,-603 L 586,-603 L 586,-604 L 586,-605 L 586,-606 L 587,-606 L 587,-607 L 586,-607 L 585,-607 L 585,-606 L 584,-606 L 583,-606 L 582,-606 L 582,-607 L 583,-607 L 583,-608 L 584,-608 L 585,-608 L 586,-608 L 587,-608 L 586,-609 L 585,-609 L 584,-609 L 584,-610 L 583,-610 L 583,-611 L 583,-612 L 584,-612 L 585,-612 L 586,-611 L 586,-612 L 586,-613 L 585,-613 L 584,-614 L 584,-615 L 584,-616 L 585,-616 L 586,-616 L 587,-615 L 588,-615 L 589,-616 L 589,-617 L 590,-617 L 589,-618 L 589,-619 L 589,-620 L 588,-620 L 588,-621 L 589,-621 L 590,-621 L 590,-620 L 591,-620 L 592,-620 L 593,-620 L 594,-621 L 594,-623 L 594,-624 L 593,-624 L 593,-625 L 592,-625 L 591,-626 L 591,-627 L 593,-628 L 594,-629 L 594,-630 L 594,-631 L 593,-631 L 592,-631 L 592,-630 L 591,-630 L 590,-630 L 590,-631 L 590,-632 L 591,-632 L 591,-633 L 591,-634 L 592,-634 L 592,-635 L 592,-636 L 592,-637 L 593,-637 L 593,-638 L 593,-639 L 592,-639 L 591,-640 L 592,-640 L 592,-641 L 593,-641 L 593,-642 L 594,-642 L 594,-643 L 594,-644 L 594,-645 L 594,-646 L 593,-646 L 592,-646 L 591,-646 L 590,-646 L 589,-646 L 588,-646 L 588,-647 L 588,-648 L 588,-649 L 588,-650 L 588,-651 L 589,-651 L 589,-650 L 590,-650 L 591,-650 L 591,-651 L 590,-651 L 589,-652 L 588,-652 L 588,-653 L 589,-654 L 590,-654 L 591,-654 L 592,-654 L 592,-655 L 591,-656 L 591,-657 L 592,-657 L 593,-657 L 594,-657 L 595,-657 L 596,-656 L 596,-657 L 596,-658 L 595,-659 L 594,-660 L 593,-661 L 594,-661 L 594,-662 L 595,-663 L 595,-664 L 596,-664 L 596,-663 L 597,-663 L 597,-662 L 598,-662 L 598,-661 L 599,-661 L 600,-661 L 601,-661 L 601,-662 L 600,-663 L 599,-663 L 598,-664 L 598,-665 L 599,-665 L 599,-666 L 600,-666 L 600,-665 L 601,-664 L 602,-664 L 603,-664 L 603,-665 L 604,-665 L 604,-666 L 605,-666 L 605,-667 L 606,-667 L 606,-668 L 607,-668 L 608,-668 L 608,-667 L 608,-666 L 607,-666 L 607,-665 L 607,-664 L 608,-664 L 609,-664 L 609,-665 L 609,-666 L 609,-667 L 609,-668 L 610,-668 L 611,-667 L 612,-666 L 612,-665 L 613,-665 L 613,-666 L 613,-667 L 613,-668 L 613,-669 L 614,-669 L 614,-668 L 615,-668 L 616,-668 L 617,-668 L 618,-668 L 619,-667 L 619,-666 L 619,-665 L 619,-666 L 620,-666 L 620,-667 L 619,-668 L 619,-669 L 618,-669 L 618,-670 L 618,-671 L 619,-671 L 619,-670 L 620,-670 L 620,-669 L 621,-669 L 621,-668 L 621,-667 L 622,-667 L 622,-666 L 623,-667 L 623,-668 L 623,-669 L 624,-669 L 625,-669 L 625,-670 L 624,-670 L 624,-671 L 623,-671 L 623,-672 L 622,-672 L 622,-673 L 622,-674 L 622,-675 L 621,-675 L 621,-676 L 621,-677 L 622,-677 L 622,-676 L 623,-676 L 624,-676 L 625,-676 L 626,-676 L 627,-676 L 628,-676 L 628,-677 L 629,-677 L 630,-677 L 631,-677 L 631,-678 L 631,-679 L 631,-680 L 632,-681 L 632,-682 L 633,-682 L 633,-683 L 632,-683 L 632,-684 L 631,-684 L 631,-685 L 632,-685 L 632,-686 L 633,-685 L 634,-685 L 635,-685 L 636,-685 L 636,-686 L 636,-687 L 636,-688 L 635,-688 L 635,-689 L 636,-690 L 637,-690 L 638,-690 L 639,-690 L 639,-689 L 640,-690 L 640,-691 L 640,-692 L 640,-693 L 640,-694 L 640,-695 L 641,-695 L 642,-695 L 642,-696 L 643,-696 L 643,-697 L 644,-697 L 644,-698 L 645,-698 L 645,-699 L 646,-699 L 646,-700 L 645,-700 L 645,-701 L 644,-701 L 643,-701 L 643,-702 L 644,-702 L 645,-702 L 646,-702 L 647,-702 L 648,-702 L 649,-703 L 649,-704 L 648,-704 L 648,-705 L 649,-705 L 650,-705 L 650,-704 L 651,-704 L 651,-703 L 651,-702 L 652,-702 L 653,-702 L 653,-703 L 652,-703 L 652,-704 L 652,-705 L 652,-706 L 652,-707 L 653,-708 L 653,-709 L 654,-709 L 654,-710 L 655,-709 L 656,-709 L 656,-708 L 655,-708 L 655,-707 L 656,-707 L 657,-707 L 657,-708 L 657,-709 L 657,-710 L 657,-711 L 657,-712 L 656,-712 L 655,-712 L 655,-713 L 655,-714 L 656,-714 L 657,-714 L 658,-714 L 659,-714 L 659,-713 L 659,-712 L 660,-712 L 660,-713 L 660,-714 L 661,-715 L 661,-714 L 662,-715 L 663,-716 L 664,-717 L 664,-718 L 663,-718 L 663,-719 L 662,-719 L 663,-719 L 664,-719 L 665,-719 L 665,-718 L 666,-718 L 666,-717 L 667,-717 L 668,-717 L 668,-718 L 668,-719 L 667,-719 L 667,-720 L 666,-721 L 666,-722 L 665,-722 L 665,-723 L 665,-724 L 666,-724 L 667,-724 L 668,-724 L 669,-724 L 669,-723 L 670,-722 L 671,-722 L 671,-723 L 671,-724 L 670,-724 L 669,-725 L 668,-725 L 668,-726 L 667,-726 L 666,-726 L 666,-727 L 667,-727 L 668,-727 L 669,-727 L 670,-727 L 670,-728 L 669,-728 L 668,-728 L 668,-729 L 667,-729 L 668,-729 L 668,-730 L 669,-730 L 670,-730 L 671,-729 L 671,-728 L 672,-728 L 673,-729 L 673,-730 L 672,-731 L 672,-732 L 671,-732 L 670,-732 L 670,-733 L 669,-733 L 670,-733 L 671,-733 L 671,-734 L 671,-735 L 670,-735 L 670,-734 L 669,-735 L 669,-736 L 668,-736 L 668,-737 L 668,-738 L 668,-739 L 667,-739 L 667,-740 L 668,-740 L 669,-740 L 670,-740 L 671,-740 L 672,-740 L 673,-741 L 674,-741 L 675,-741 L 675,-742 L 675,-743 L 674,-743 L 674,-744 L 673,-744 L 673,-745 L 674,-745 L 674,-746 L 675,-746 L 675,-747 L 675,-748 L 674,-749 L 674,-750 L 673,-750 L 673,-751 L 673,-752 L 674,-752 L 675,-752 L 676,-753 L 677,-753 L 677,-754 L 676,-754 L 675,-755 L 674,-755 L 675,-755 L 675,-756 L 676,-756 L 677,-756 L 678,-756 L 679,-756 L 680,-756 L 680,-757 L 679,-757 L 678,-758 L 678,-759 L 678,-760 L 678,-761 L 679,-761 L 679,-763 L 680,-764 L 681,-764 L 681,-765 L 680,-765 L 679,-766 L 679,-767 L 679,-768 " /></g>
</svg>
