<?xml version="1.0" standalone="no"?><!DOCTYPE svg PUBLIC "-//W3C//DTD SVG 1.1//EN" "http://www.w3.org/Graphics/SVG/1.1/DTD/svg11.dtd"><svg xmlns="http://www.w3.org/2000/svg" viewBox="923 -648 466 388" version = "1.1">
<g id="80602" ><path d="M 1189,-645 L 1188,-645 L 1189,-645 L 1190,-644 L 1191,-644 L 1192,-644 L 1192,-643 L 1192,-642 L 1192,-641 L 1193,-641 L 1193,-640 L 1194,-640 L 1194,-639 L 1195,-638 L 1196,-638 L 1197,-638 L 1198,-638 L 1199,-638 L 1200,-638 L 1200,-637 L 1200,-636 L 1201,-636 L 1202,-636 L 1203,-635 L 1204,-635 L 1205,-635 L 1205,-634 L 1206,-634 L 1206,-633 L 1206,-632 L 1206,-631 L 1206,-630 L 1205,-630 L 1205,-629 L 1205,-628 L 1205,-627 L 1205,-626 L 1204,-626 L 1204,-625 L 1204,-624 L 1205,-624 L 1205,-623 L 1206,-623 L 1205,-623 L 1205,-622 L 1204,-622 L 1204,-621 L 1204,-620 L 1204,-619 L 1204,-618 L 1204,-617 L 1204,-616 L 1203,-616 L 1203,-615 L 1202,-615 L 1202,-614 L 1202,-613 L 1203,-613 L 1202,-613 L 1202,-612 L 1201,-611 L 1201,-610 L 1202,-610 L 1202,-609 L 1202,-608 L 1202,-607 L 1202,-606 L 1201,-606 L 1200,-606 L 1200,-605 L 1201,-604 L 1200,-603 L 1200,-602 L 1200,-601 L 1200,-600 L 1200,-599 L 1200,-598 L 1199,-598 L 1199,-597 L 1200,-596 L 1200,-595 L 1201,-595 L 1201,-594 L 1201,-593 L 1201,-592 L 1202,-592 L 1202,-591 L 1201,-591 L 1200,-590 L 1200,-589 L 1199,-589 L 1199,-588 L 1200,-588 L 1201,-588 L 1201,-587 L 1201,-586 L 1201,-585 L 1201,-586 L 1202,-586 L 1202,-585 L 1202,-584 L 1202,-583 L 1201,-583 L 1201,-582 L 1201,-581 L 1200,-581 L 1200,-580 L 1201,-580 L 1201,-579 L 1202,-579 L 1203,-579 L 1203,-578 L 1204,-578 L 1203,-578 L 1203,-577 L 1204,-577 L 1204,-576 L 1204,-575 L 1204,-574 L 1205,-574 L 1205,-573 L 1204,-573 L 1204,-572 L 1203,-572 L 1204,-572 L 1204,-571 L 1205,-571 L 1205,-570 L 1206,-569 L 1206,-568 L 1207,-568 L 1207,-567 L 1207,-566 L 1207,-565 L 1207,-564 L 1206,-564 L 1207,-564 L 1207,-563 L 1206,-563 L 1207,-562 L 1207,-561 L 1208,-561 L 1208,-560 L 1207,-560 L 1207,-559 L 1207,-558 L 1207,-557 L 1208,-557 L 1207,-557 L 1207,-556 L 1206,-556 L 1205,-556 L 1204,-556 L 1204,-555 L 1204,-554 L 1204,-553 L 1203,-553 L 1202,-553 L 1202,-552 L 1201,-552 L 1201,-551 L 1202,-550 L 1203,-550 L 1203,-549 L 1204,-549 L 1204,-548 L 1205,-548 L 1206,-548 L 1207,-548 L 1207,-547 L 1208,-547 L 1208,-546 L 1209,-546 L 1208,-545 L 1207,-545 L 1206,-544 L 1205,-544 L 1205,-543 L 1204,-543 L 1204,-542 L 1203,-542 L 1203,-541 L 1202,-541 L 1202,-540 L 1201,-539 L 1199,-538 L 1198,-538 L 1197,-537 L 1196,-537 L 1196,-536 L 1195,-536 L 1194,-536 L 1194,-535 L 1194,-534 L 1193,-534 L 1194,-533 L 1195,-534 L 1196,-534 L 1196,-533 L 1196,-532 L 1197,-532 L 1197,-531 L 1197,-530 L 1196,-530 L 1195,-530 L 1195,-529 L 1196,-528 L 1197,-528 L 1197,-527 L 1198,-527 L 1198,-526 L 1199,-526 L 1199,-525 L 1198,-525 L 1198,-524 L 1198,-523 L 1197,-523 L 1198,-522 L 1199,-522 L 1200,-522 L 1200,-521 L 1201,-520 L 1201,-519 L 1200,-519 L 1200,-518 L 1200,-517 L 1201,-517 L 1201,-516 L 1201,-515 L 1201,-514 L 1201,-513 L 1200,-513 L 1200,-512 L 1201,-512 L 1201,-511 L 1201,-510 L 1200,-510 L 1200,-509 L 1201,-509 L 1202,-509 L 1202,-508 L 1201,-508 L 1201,-507 L 1202,-507 L 1202,-506 L 1202,-505 L 1201,-505 L 1201,-504 L 1200,-504 L 1200,-503 L 1201,-503 L 1202,-503 L 1202,-502 L 1203,-502 L 1203,-501 L 1203,-500 L 1204,-500 L 1204,-501 L 1205,-501 L 1206,-501 L 1206,-502 L 1207,-502 L 1207,-503 L 1208,-503 L 1209,-503 L 1209,-502 L 1209,-501 L 1210,-501 L 1211,-501 L 1211,-502 L 1212,-502 L 1212,-501 L 1213,-500 L 1214,-501 L 1215,-500 L 1214,-500 L 1214,-499 L 1215,-499 L 1215,-498 L 1216,-498 L 1217,-498 L 1218,-497 L 1218,-496 L 1219,-495 L 1219,-494 L 1219,-493 L 1218,-493 L 1219,-492 L 1220,-493 L 1220,-492 L 1220,-491 L 1220,-490 L 1219,-490 L 1219,-491 L 1218,-491 L 1217,-491 L 1217,-490 L 1218,-490 L 1218,-489 L 1217,-489 L 1217,-488 L 1216,-488 L 1216,-487 L 1216,-486 L 1217,-486 L 1218,-486 L 1218,-487 L 1218,-488 L 1219,-488 L 1219,-487 L 1219,-486 L 1220,-486 L 1220,-485 L 1220,-484 L 1220,-483 L 1221,-483 L 1222,-483 L 1223,-483 L 1224,-483 L 1224,-482 L 1225,-482 L 1226,-482 L 1227,-482 L 1227,-481 L 1228,-481 L 1229,-481 L 1229,-480 L 1228,-480 L 1228,-479 L 1227,-479 L 1226,-478 L 1226,-477 L 1227,-477 L 1227,-476 L 1228,-476 L 1228,-475 L 1227,-474 L 1226,-474 L 1226,-473 L 1226,-472 L 1227,-472 L 1227,-471 L 1227,-470 L 1227,-471 L 1226,-471 L 1225,-471 L 1225,-470 L 1225,-469 L 1225,-468 L 1224,-468 L 1225,-468 L 1226,-468 L 1226,-469 L 1227,-469 L 1228,-469 L 1228,-468 L 1228,-467 L 1227,-466 L 1227,-465 L 1228,-465 L 1228,-466 L 1229,-466 L 1229,-467 L 1230,-467 L 1230,-466 L 1231,-466 L 1230,-466 L 1230,-465 L 1230,-464 L 1230,-463 L 1231,-463 L 1231,-462 L 1230,-462 L 1230,-461 L 1230,-460 L 1230,-459 L 1231,-459 L 1231,-458 L 1231,-457 L 1230,-457 L 1230,-456 L 1229,-456 L 1229,-455 L 1230,-455 L 1230,-454 L 1231,-453 L 1232,-453 L 1232,-452 L 1232,-451 L 1233,-451 L 1233,-450 L 1234,-450 L 1234,-449 L 1234,-448 L 1234,-447 L 1235,-447 L 1236,-448 L 1237,-448 L 1237,-447 L 1238,-447 L 1238,-446 L 1237,-446 L 1236,-446 L 1236,-445 L 1236,-444 L 1237,-444 L 1237,-443 L 1238,-443 L 1237,-443 L 1236,-443 L 1236,-442 L 1236,-441 L 1237,-441 L 1237,-440 L 1237,-439 L 1237,-438 L 1238,-438 L 1239,-438 L 1239,-439 L 1240,-439 L 1240,-438 L 1241,-438 L 1242,-438 L 1243,-438 L 1243,-437 L 1242,-437 L 1241,-437 L 1240,-437 L 1240,-436 L 1241,-436 L 1241,-435 L 1242,-435 L 1243,-434 L 1244,-434 L 1245,-434 L 1246,-434 L 1246,-433 L 1247,-433 L 1248,-433 L 1249,-433 L 1249,-432 L 1248,-431 L 1249,-430 L 1250,-430 L 1250,-429 L 1251,-429 L 1252,-429 L 1252,-428 L 1251,-428 L 1251,-427 L 1252,-427 L 1253,-427 L 1254,-426 L 1255,-425 L 1255,-426 L 1256,-426 L 1256,-425 L 1256,-424 L 1257,-424 L 1257,-423 L 1257,-422 L 1257,-421 L 1256,-421 L 1256,-422 L 1255,-422 L 1254,-422 L 1254,-423 L 1253,-423 L 1253,-422 L 1252,-422 L 1252,-421 L 1252,-420 L 1253,-420 L 1253,-421 L 1254,-421 L 1255,-421 L 1255,-420 L 1254,-420 L 1253,-419 L 1253,-418 L 1252,-418 L 1251,-418 L 1251,-417 L 1250,-416 L 1249,-416 L 1249,-415 L 1250,-415 L 1250,-414 L 1250,-413 L 1251,-413 L 1251,-412 L 1252,-412 L 1252,-411 L 1252,-410 L 1253,-410 L 1253,-409 L 1254,-409 L 1254,-410 L 1255,-410 L 1256,-410 L 1257,-410 L 1258,-410 L 1258,-409 L 1259,-409 L 1259,-410 L 1260,-410 L 1260,-409 L 1261,-409 L 1261,-408 L 1260,-408 L 1260,-407 L 1260,-406 L 1260,-405 L 1260,-404 L 1260,-405 L 1261,-405 L 1262,-405 L 1262,-404 L 1263,-404 L 1264,-403 L 1264,-402 L 1264,-401 L 1264,-400 L 1264,-399 L 1264,-398 L 1265,-398 L 1265,-399 L 1266,-399 L 1266,-400 L 1265,-400 L 1266,-401 L 1266,-402 L 1266,-403 L 1267,-403 L 1267,-404 L 1268,-404 L 1268,-403 L 1267,-402 L 1267,-401 L 1268,-400 L 1269,-400 L 1270,-400 L 1270,-399 L 1271,-399 L 1271,-400 L 1270,-401 L 1270,-402 L 1270,-403 L 1270,-404 L 1271,-404 L 1271,-405 L 1272,-405 L 1272,-404 L 1272,-403 L 1273,-403 L 1273,-402 L 1274,-402 L 1274,-401 L 1273,-401 L 1273,-400 L 1274,-400 L 1275,-400 L 1275,-399 L 1276,-399 L 1276,-398 L 1276,-397 L 1277,-397 L 1277,-396 L 1278,-395 L 1278,-394 L 1277,-394 L 1278,-394 L 1278,-393 L 1278,-392 L 1279,-392 L 1279,-393 L 1280,-393 L 1281,-394 L 1282,-395 L 1282,-394 L 1283,-394 L 1283,-393 L 1283,-392 L 1283,-391 L 1283,-390 L 1284,-391 L 1284,-392 L 1283,-392 L 1284,-392 L 1285,-392 L 1286,-391 L 1287,-391 L 1287,-390 L 1288,-390 L 1289,-390 L 1289,-389 L 1288,-388 L 1287,-388 L 1287,-387 L 1286,-387 L 1286,-386 L 1285,-386 L 1285,-385 L 1286,-385 L 1287,-385 L 1288,-385 L 1288,-384 L 1289,-384 L 1289,-383 L 1288,-383 L 1287,-382 L 1286,-382 L 1285,-382 L 1285,-381 L 1286,-381 L 1286,-380 L 1287,-380 L 1287,-379 L 1288,-379 L 1288,-378 L 1288,-377 L 1288,-376 L 1288,-377 L 1287,-377 L 1287,-378 L 1286,-378 L 1285,-378 L 1285,-377 L 1286,-377 L 1286,-376 L 1286,-375 L 1285,-375 L 1285,-374 L 1285,-373 L 1285,-372 L 1285,-371 L 1284,-371 L 1285,-370 L 1285,-369 L 1286,-369 L 1286,-368 L 1287,-368 L 1287,-367 L 1286,-367 L 1286,-366 L 1285,-366 L 1285,-365 L 1284,-364 L 1284,-363 L 1284,-362 L 1285,-361 L 1285,-362 L 1285,-363 L 1286,-364 L 1287,-364 L 1288,-364 L 1288,-363 L 1289,-363 L 1289,-362 L 1289,-361 L 1290,-362 L 1290,-363 L 1290,-364 L 1291,-364 L 1291,-365 L 1292,-365 L 1292,-364 L 1292,-363 L 1292,-362 L 1293,-361 L 1294,-361 L 1294,-362 L 1295,-362 L 1295,-363 L 1296,-363 L 1296,-362 L 1297,-362 L 1298,-362 L 1298,-361 L 1298,-360 L 1297,-360 L 1297,-361 L 1296,-361 L 1296,-360 L 1297,-360 L 1297,-359 L 1298,-359 L 1299,-359 L 1299,-358 L 1300,-358 L 1301,-358 L 1301,-357 L 1300,-357 L 1299,-357 L 1299,-356 L 1300,-356 L 1300,-355 L 1301,-355 L 1301,-354 L 1300,-354 L 1300,-353 L 1300,-352 L 1301,-352 L 1302,-352 L 1303,-352 L 1304,-352 L 1304,-351 L 1304,-350 L 1304,-349 L 1305,-349 L 1304,-349 L 1303,-349 L 1302,-349 L 1302,-348 L 1301,-348 L 1301,-347 L 1302,-347 L 1302,-346 L 1303,-346 L 1303,-347 L 1304,-347 L 1305,-347 L 1305,-346 L 1305,-345 L 1305,-344 L 1306,-344 L 1306,-343 L 1307,-343 L 1308,-343 L 1308,-344 L 1309,-344 L 1309,-345 L 1310,-345 L 1311,-344 L 1312,-344 L 1313,-344 L 1313,-343 L 1314,-344 L 1314,-343 L 1315,-343 L 1316,-343 L 1316,-344 L 1316,-345 L 1316,-346 L 1317,-345 L 1318,-345 L 1319,-344 L 1320,-344 L 1321,-344 L 1322,-343 L 1321,-343 L 1320,-343 L 1320,-342 L 1320,-341 L 1321,-341 L 1321,-340 L 1321,-339 L 1322,-339 L 1323,-339 L 1323,-338 L 1324,-338 L 1325,-338 L 1325,-337 L 1324,-337 L 1323,-336 L 1323,-335 L 1322,-335 L 1323,-334 L 1324,-334 L 1324,-333 L 1325,-333 L 1326,-333 L 1327,-333 L 1326,-334 L 1327,-335 L 1327,-336 L 1328,-336 L 1328,-335 L 1329,-335 L 1330,-335 L 1331,-335 L 1332,-335 L 1332,-336 L 1331,-336 L 1331,-337 L 1332,-337 L 1332,-338 L 1333,-338 L 1334,-338 L 1335,-338 L 1335,-337 L 1336,-337 L 1336,-336 L 1336,-335 L 1336,-334 L 1336,-333 L 1337,-333 L 1337,-334 L 1338,-334 L 1338,-335 L 1339,-335 L 1339,-336 L 1340,-336 L 1340,-337 L 1341,-337 L 1341,-336 L 1341,-335 L 1341,-334 L 1342,-334 L 1343,-334 L 1344,-334 L 1345,-334 L 1345,-333 L 1345,-332 L 1345,-331 L 1345,-330 L 1345,-329 L 1346,-329 L 1346,-328 L 1347,-327 L 1347,-328 L 1348,-328 L 1349,-327 L 1349,-326 L 1350,-326 L 1351,-326 L 1352,-326 L 1351,-325 L 1351,-324 L 1350,-324 L 1350,-323 L 1351,-323 L 1352,-323 L 1353,-322 L 1352,-322 L 1352,-321 L 1352,-320 L 1352,-319 L 1353,-319 L 1353,-320 L 1354,-320 L 1354,-321 L 1355,-321 L 1355,-322 L 1356,-321 L 1356,-320 L 1357,-320 L 1357,-319 L 1358,-319 L 1358,-318 L 1357,-318 L 1357,-317 L 1356,-317 L 1355,-316 L 1355,-315 L 1356,-315 L 1357,-316 L 1358,-316 L 1358,-315 L 1358,-314 L 1359,-314 L 1359,-313 L 1358,-313 L 1359,-313 L 1359,-312 L 1359,-311 L 1359,-310 L 1360,-310 L 1360,-311 L 1361,-311 L 1361,-312 L 1362,-312 L 1362,-311 L 1363,-311 L 1364,-311 L 1364,-310 L 1364,-309 L 1363,-309 L 1363,-308 L 1364,-308 L 1365,-308 L 1366,-308 L 1367,-308 L 1368,-308 L 1368,-309 L 1368,-310 L 1368,-309 L 1369,-309 L 1370,-308 L 1371,-308 L 1371,-307 L 1370,-306 L 1369,-306 L 1369,-305 L 1370,-306 L 1371,-306 L 1372,-305 L 1373,-305 L 1373,-304 L 1372,-304 L 1372,-303 L 1371,-303 L 1370,-303 L 1369,-302 L 1368,-301 L 1368,-300 L 1369,-300 L 1369,-301 L 1370,-301 L 1370,-302 L 1371,-302 L 1372,-301 L 1372,-302 L 1372,-301 L 1373,-301 L 1373,-300 L 1372,-300 L 1371,-300 L 1370,-300 L 1369,-299 L 1369,-298 L 1370,-298 L 1370,-297 L 1371,-297 L 1371,-296 L 1371,-295 L 1370,-295 L 1370,-296 L 1369,-296 L 1368,-296 L 1367,-296 L 1368,-295 L 1369,-295 L 1369,-294 L 1369,-295 L 1370,-295 L 1370,-294 L 1370,-293 L 1371,-293 L 1372,-293 L 1372,-292 L 1373,-292 L 1373,-291 L 1372,-290 L 1371,-291 L 1371,-292 L 1370,-292 L 1369,-292 L 1369,-291 L 1369,-290 L 1370,-289 L 1370,-288 L 1369,-288 L 1370,-288 L 1370,-287 L 1371,-287 L 1371,-286 L 1372,-286 L 1372,-285 L 1371,-285 L 1370,-285 L 1369,-285 L 1369,-284 L 1369,-283 L 1370,-283 L 1371,-283 L 1371,-282 L 1371,-281 L 1370,-281 L 1369,-282 L 1368,-282 L 1368,-281 L 1368,-280 L 1368,-279 L 1369,-279 L 1370,-279 L 1371,-279 L 1372,-279 L 1372,-280 L 1373,-280 L 1373,-279 L 1373,-278 L 1373,-277 L 1374,-277 L 1374,-276 L 1375,-276 L 1375,-275 L 1374,-275 L 1373,-275 L 1373,-274 L 1373,-273 L 1374,-272 L 1375,-272 L 1376,-271 L 1377,-271 L 1377,-270 L 1378,-270 L 1378,-271 L 1378,-272 L 1378,-273 L 1379,-274 L 1380,-274 L 1381,-274 L 1382,-273 L 1382,-272 L 1383,-272 L 1383,-271 L 1382,-271 L 1382,-272 L 1381,-272 L 1380,-272 L 1380,-271 L 1380,-270 L 1379,-270 L 1379,-269 L 1380,-269 L 1381,-269 L 1382,-269 L 1383,-269 L 1383,-270 L 1384,-270 L 1385,-270 L 1386,-269 L 1387,-268 L 1387,-269 L 1388,-268 L 1387,-268 L 1387,-267 L 1386,-267 L 1387,-267 L 1387,-266 L 1388,-266 L 1387,-266 L 1387,-265 L 1387,-264 L 1386,-264 L 1386,-263 L 1387,-263 L 1387,-262 L 1388,-262 L 1388,-261 L 1389,-261 L 1389,-260 L 1018,-280 L 1018,-281 L 1018,-282 L 1018,-283 L 1018,-284 L 1018,-285 L 1018,-287 L 1018,-288 L 1018,-289 L 1018,-290 L 1018,-291 L 1018,-295 L 1018,-299 L 1018,-300 L 1018,-301 L 1018,-303 L 1018,-305 L 1018,-306 L 1017,-307 L 1017,-310 L 1017,-311 L 1017,-313 L 1018,-314 L 1018,-315 L 1018,-316 L 1018,-318 L 1018,-319 L 1018,-321 L 1018,-322 L 1018,-324 L 1018,-325 L 1018,-326 L 1018,-327 L 1018,-328 L 1018,-333 L 1018,-334 L 1018,-335 L 1018,-336 L 1018,-338 L 1018,-339 L 1018,-340 L 1018,-341 L 1018,-342 L 1018,-345 L 1018,-346 L 1018,-347 L 1018,-349 L 1018,-350 L 1018,-352 L 1018,-353 L 1018,-354 L 1018,-355 L 1019,-355 L 1020,-355 L 1021,-355 L 1021,-356 L 1021,-358 L 1020,-360 L 1020,-361 L 1020,-362 L 1019,-363 L 1019,-364 L 1018,-365 L 1018,-366 L 1018,-367 L 1018,-368 L 1018,-369 L 1018,-371 L 1018,-372 L 1018,-373 L 1018,-374 L 1017,-375 L 1017,-376 L 1015,-378 L 1013,-378 L 1012,-379 L 1011,-379 L 1010,-379 L 1007,-381 L 1006,-382 L 1005,-383 L 1005,-384 L 1004,-384 L 1004,-385 L 1003,-386 L 1003,-387 L 1002,-388 L 1002,-389 L 1002,-390 L 1001,-390 L 1001,-391 L 1000,-392 L 1000,-393 L 999,-394 L 999,-395 L 998,-396 L 998,-397 L 997,-398 L 996,-399 L 996,-400 L 995,-401 L 995,-402 L 995,-404 L 995,-405 L 994,-406 L 994,-407 L 993,-408 L 993,-409 L 993,-410 L 992,-410 L 992,-411 L 992,-412 L 989,-424 L 988,-424 L 985,-435 L 988,-435 L 993,-437 L 994,-438 L 994,-439 L 994,-440 L 994,-441 L 994,-440 L 995,-441 L 994,-441 L 994,-442 L 994,-441 L 995,-441 L 995,-442 L 996,-442 L 997,-442 L 998,-442 L 999,-442 L 999,-443 L 998,-443 L 998,-444 L 999,-444 L 1000,-444 L 1000,-445 L 1001,-445 L 1001,-446 L 1000,-446 L 999,-446 L 1000,-446 L 999,-447 L 999,-446 L 999,-447 L 1000,-447 L 999,-447 L 999,-448 L 999,-447 L 998,-447 L 997,-447 L 998,-447 L 997,-447 L 996,-447 L 996,-446 L 996,-447 L 997,-447 L 997,-446 L 996,-446 L 996,-445 L 995,-445 L 995,-446 L 996,-446 L 995,-446 L 995,-447 L 995,-446 L 994,-446 L 994,-447 L 993,-447 L 993,-448 L 992,-448 L 992,-449 L 991,-448 L 991,-449 L 992,-449 L 992,-450 L 991,-450 L 991,-451 L 992,-451 L 992,-450 L 993,-450 L 992,-450 L 992,-451 L 991,-451 L 991,-452 L 992,-452 L 992,-453 L 991,-453 L 991,-454 L 990,-454 L 990,-453 L 990,-452 L 990,-453 L 990,-454 L 989,-454 L 989,-453 L 989,-454 L 988,-454 L 989,-454 L 990,-454 L 990,-455 L 989,-455 L 989,-454 L 988,-455 L 988,-454 L 988,-455 L 989,-455 L 989,-456 L 988,-456 L 987,-456 L 987,-457 L 988,-457 L 987,-457 L 986,-457 L 986,-456 L 986,-457 L 987,-457 L 988,-457 L 988,-458 L 987,-458 L 988,-458 L 988,-459 L 987,-459 L 988,-459 L 988,-460 L 988,-459 L 989,-459 L 988,-460 L 988,-461 L 989,-461 L 989,-460 L 989,-461 L 989,-462 L 990,-462 L 990,-463 L 990,-464 L 991,-464 L 990,-464 L 990,-465 L 989,-465 L 989,-466 L 990,-466 L 991,-466 L 990,-466 L 989,-466 L 988,-466 L 989,-466 L 989,-467 L 989,-468 L 990,-468 L 991,-468 L 991,-469 L 992,-469 L 991,-469 L 991,-470 L 990,-470 L 990,-469 L 990,-470 L 991,-470 L 991,-471 L 991,-472 L 990,-472 L 991,-472 L 991,-471 L 990,-471 L 989,-471 L 989,-472 L 988,-472 L 988,-473 L 987,-473 L 987,-474 L 988,-474 L 987,-474 L 987,-473 L 986,-473 L 986,-472 L 985,-472 L 985,-473 L 986,-473 L 986,-474 L 985,-474 L 985,-475 L 985,-474 L 984,-474 L 984,-473 L 983,-473 L 983,-474 L 983,-475 L 983,-476 L 983,-477 L 984,-477 L 984,-478 L 984,-479 L 985,-479 L 986,-479 L 986,-480 L 985,-480 L 985,-479 L 984,-479 L 983,-479 L 983,-480 L 984,-480 L 985,-481 L 984,-481 L 983,-481 L 983,-482 L 983,-483 L 982,-483 L 982,-484 L 982,-485 L 981,-485 L 981,-486 L 982,-486 L 981,-486 L 981,-487 L 982,-487 L 982,-488 L 983,-488 L 983,-487 L 984,-487 L 985,-487 L 985,-488 L 984,-488 L 983,-488 L 983,-489 L 983,-490 L 982,-490 L 982,-489 L 981,-489 L 980,-489 L 979,-489 L 978,-489 L 978,-490 L 979,-490 L 980,-490 L 981,-490 L 981,-491 L 980,-491 L 979,-491 L 978,-491 L 978,-490 L 978,-491 L 978,-492 L 979,-492 L 979,-493 L 978,-493 L 978,-494 L 977,-494 L 977,-493 L 976,-493 L 976,-494 L 976,-495 L 975,-495 L 974,-495 L 974,-496 L 973,-496 L 973,-497 L 972,-497 L 972,-496 L 971,-496 L 971,-497 L 972,-497 L 972,-498 L 972,-499 L 973,-499 L 973,-500 L 972,-500 L 971,-500 L 971,-501 L 972,-501 L 972,-502 L 971,-502 L 970,-502 L 969,-502 L 969,-501 L 969,-502 L 968,-502 L 968,-503 L 968,-504 L 969,-504 L 969,-503 L 969,-504 L 968,-504 L 967,-504 L 966,-504 L 966,-503 L 967,-503 L 966,-503 L 966,-504 L 965,-504 L 965,-505 L 966,-505 L 967,-506 L 966,-506 L 966,-507 L 965,-507 L 965,-508 L 966,-508 L 966,-509 L 965,-509 L 965,-508 L 964,-508 L 963,-508 L 963,-509 L 962,-509 L 961,-509 L 961,-510 L 962,-510 L 962,-511 L 963,-511 L 963,-510 L 963,-511 L 963,-512 L 963,-511 L 963,-512 L 962,-512 L 961,-512 L 961,-513 L 962,-513 L 961,-513 L 961,-514 L 961,-515 L 960,-515 L 960,-514 L 959,-514 L 959,-515 L 959,-516 L 958,-516 L 958,-515 L 959,-515 L 959,-514 L 958,-514 L 958,-515 L 957,-515 L 957,-516 L 956,-516 L 955,-516 L 956,-516 L 956,-517 L 956,-518 L 955,-518 L 955,-517 L 955,-516 L 954,-516 L 954,-517 L 954,-518 L 955,-518 L 955,-519 L 954,-520 L 955,-520 L 956,-521 L 956,-520 L 956,-519 L 956,-520 L 957,-520 L 957,-521 L 958,-521 L 958,-520 L 959,-520 L 959,-521 L 959,-522 L 959,-523 L 959,-524 L 960,-524 L 960,-523 L 960,-524 L 960,-525 L 960,-524 L 959,-524 L 959,-525 L 958,-525 L 957,-525 L 957,-526 L 958,-526 L 957,-526 L 956,-526 L 955,-526 L 955,-525 L 954,-525 L 954,-526 L 954,-527 L 954,-526 L 954,-525 L 954,-524 L 955,-524 L 955,-523 L 954,-523 L 954,-524 L 953,-524 L 952,-524 L 952,-523 L 952,-522 L 951,-522 L 950,-522 L 950,-523 L 950,-524 L 949,-524 L 949,-523 L 948,-523 L 948,-522 L 947,-522 L 947,-521 L 946,-521 L 946,-522 L 945,-522 L 944,-522 L 944,-523 L 943,-523 L 943,-524 L 944,-524 L 944,-525 L 944,-526 L 945,-526 L 945,-527 L 944,-527 L 943,-527 L 943,-526 L 942,-526 L 942,-527 L 941,-527 L 940,-527 L 939,-527 L 939,-528 L 938,-528 L 937,-527 L 937,-528 L 937,-529 L 938,-529 L 938,-530 L 937,-530 L 936,-530 L 936,-529 L 935,-529 L 935,-530 L 936,-530 L 936,-531 L 937,-531 L 938,-531 L 938,-532 L 937,-532 L 936,-532 L 935,-532 L 935,-533 L 935,-534 L 935,-535 L 936,-535 L 937,-535 L 937,-536 L 936,-536 L 935,-536 L 935,-535 L 934,-535 L 934,-536 L 933,-536 L 933,-535 L 932,-535 L 932,-534 L 931,-534 L 931,-535 L 930,-535 L 929,-535 L 929,-536 L 929,-537 L 928,-537 L 928,-536 L 928,-535 L 927,-535 L 927,-536 L 927,-537 L 928,-537 L 928,-538 L 928,-539 L 928,-540 L 927,-540 L 927,-539 L 926,-539 L 925,-539 L 924,-539 L 924,-540 L 925,-540 L 925,-541 L 926,-541 L 926,-542 L 926,-543 L 927,-543 L 928,-543 L 927,-544 L 928,-544 L 928,-545 L 929,-546 L 929,-547 L 930,-547 L 931,-547 L 931,-548 L 931,-549 L 931,-558 L 930,-559 L 929,-560 L 928,-562 L 926,-563 L 923,-568 L 966,-585 L 986,-590 L 1009,-593 L 1031,-594 L 1044,-597 L 1190,-648 L 1190,-647 L 1190,-646 L 1189,-646 L 1189,-645 " /></g>
</svg>
