<?xml version="1.0" standalone="no"?><!DOCTYPE svg PUBLIC "-//W3C//DTD SVG 1.1//EN" "http://www.w3.org/Graphics/SVG/1.1/DTD/svg11.dtd"><svg xmlns="http://www.w3.org/2000/svg" viewBox="727 -568 294 481" version = "1.1">
<g id="80601" ><path d="M 928,-543 L 927,-543 L 926,-543 L 926,-542 L 926,-541 L 925,-541 L 925,-540 L 924,-540 L 924,-539 L 925,-539 L 926,-539 L 927,-539 L 927,-540 L 928,-540 L 928,-539 L 928,-538 L 928,-537 L 927,-537 L 927,-536 L 927,-535 L 928,-535 L 928,-536 L 928,-537 L 929,-537 L 929,-536 L 929,-535 L 930,-535 L 931,-535 L 931,-534 L 932,-534 L 932,-535 L 933,-535 L 933,-536 L 934,-536 L 934,-535 L 935,-535 L 935,-536 L 936,-536 L 937,-536 L 937,-535 L 936,-535 L 935,-535 L 935,-534 L 935,-533 L 935,-532 L 936,-532 L 937,-532 L 938,-532 L 938,-531 L 937,-531 L 936,-531 L 936,-530 L 935,-530 L 935,-529 L 936,-529 L 936,-530 L 937,-530 L 938,-530 L 938,-529 L 937,-529 L 937,-528 L 937,-527 L 938,-528 L 939,-528 L 939,-527 L 940,-527 L 941,-527 L 942,-527 L 942,-526 L 943,-526 L 943,-527 L 944,-527 L 945,-527 L 945,-526 L 944,-526 L 944,-525 L 944,-524 L 943,-524 L 943,-523 L 944,-523 L 944,-522 L 945,-522 L 946,-522 L 946,-521 L 947,-521 L 947,-522 L 948,-522 L 948,-523 L 949,-523 L 949,-524 L 950,-524 L 950,-523 L 950,-522 L 951,-522 L 952,-522 L 952,-523 L 952,-524 L 953,-524 L 954,-524 L 954,-523 L 955,-523 L 955,-524 L 954,-524 L 954,-525 L 954,-526 L 954,-527 L 954,-526 L 954,-525 L 955,-525 L 955,-526 L 956,-526 L 957,-526 L 958,-526 L 957,-526 L 957,-525 L 958,-525 L 959,-525 L 959,-524 L 960,-524 L 960,-525 L 960,-524 L 960,-523 L 960,-524 L 959,-524 L 959,-523 L 959,-522 L 959,-521 L 959,-520 L 958,-520 L 958,-521 L 957,-521 L 957,-520 L 956,-520 L 956,-519 L 956,-520 L 956,-521 L 955,-520 L 954,-520 L 955,-519 L 955,-518 L 954,-518 L 954,-517 L 954,-516 L 955,-516 L 955,-517 L 955,-518 L 956,-518 L 956,-517 L 956,-516 L 955,-516 L 956,-516 L 957,-516 L 957,-515 L 958,-515 L 958,-514 L 959,-514 L 959,-515 L 958,-515 L 958,-516 L 959,-516 L 959,-515 L 959,-514 L 960,-514 L 960,-515 L 961,-515 L 961,-514 L 961,-513 L 962,-513 L 961,-513 L 961,-512 L 962,-512 L 963,-512 L 963,-511 L 963,-512 L 963,-511 L 963,-510 L 963,-511 L 962,-511 L 962,-510 L 961,-510 L 961,-509 L 962,-509 L 963,-509 L 963,-508 L 964,-508 L 965,-508 L 965,-509 L 966,-509 L 966,-508 L 965,-508 L 965,-507 L 966,-507 L 966,-506 L 967,-506 L 966,-505 L 965,-505 L 965,-504 L 966,-504 L 966,-503 L 967,-503 L 966,-503 L 966,-504 L 967,-504 L 968,-504 L 969,-504 L 969,-503 L 969,-504 L 968,-504 L 968,-503 L 968,-502 L 969,-502 L 969,-501 L 969,-502 L 970,-502 L 971,-502 L 972,-502 L 972,-501 L 971,-501 L 971,-500 L 972,-500 L 973,-500 L 973,-499 L 972,-499 L 972,-498 L 972,-497 L 971,-497 L 971,-496 L 972,-496 L 972,-497 L 973,-497 L 973,-496 L 974,-496 L 974,-495 L 975,-495 L 976,-495 L 976,-494 L 976,-493 L 977,-493 L 977,-494 L 978,-494 L 978,-493 L 979,-493 L 979,-492 L 978,-492 L 978,-491 L 978,-490 L 978,-491 L 979,-491 L 980,-491 L 981,-491 L 981,-490 L 980,-490 L 979,-490 L 978,-490 L 978,-489 L 979,-489 L 980,-489 L 981,-489 L 982,-489 L 982,-490 L 983,-490 L 983,-489 L 983,-488 L 984,-488 L 985,-488 L 985,-487 L 984,-487 L 983,-487 L 983,-488 L 982,-488 L 982,-487 L 981,-487 L 981,-486 L 982,-486 L 981,-486 L 981,-485 L 982,-485 L 982,-484 L 982,-483 L 983,-483 L 983,-482 L 983,-481 L 984,-481 L 985,-481 L 984,-480 L 983,-480 L 983,-479 L 984,-479 L 985,-479 L 985,-480 L 986,-480 L 986,-479 L 985,-479 L 984,-479 L 984,-478 L 984,-477 L 983,-477 L 983,-476 L 983,-475 L 983,-474 L 983,-473 L 984,-473 L 984,-474 L 985,-474 L 985,-475 L 985,-474 L 986,-474 L 986,-473 L 985,-473 L 985,-472 L 986,-472 L 986,-473 L 987,-473 L 987,-474 L 988,-474 L 987,-474 L 987,-473 L 988,-473 L 988,-472 L 989,-472 L 989,-471 L 990,-471 L 991,-471 L 991,-472 L 990,-472 L 991,-472 L 991,-471 L 991,-470 L 990,-470 L 990,-469 L 990,-470 L 991,-470 L 991,-469 L 992,-469 L 991,-469 L 991,-468 L 990,-468 L 989,-468 L 989,-467 L 989,-466 L 988,-466 L 989,-466 L 990,-466 L 991,-466 L 990,-466 L 989,-466 L 989,-465 L 990,-465 L 990,-464 L 991,-464 L 990,-464 L 990,-463 L 990,-462 L 989,-462 L 989,-461 L 989,-460 L 989,-461 L 988,-461 L 988,-460 L 989,-459 L 988,-459 L 988,-460 L 988,-459 L 987,-459 L 988,-459 L 988,-458 L 987,-458 L 988,-458 L 988,-457 L 987,-457 L 986,-457 L 986,-456 L 986,-457 L 987,-457 L 988,-457 L 987,-457 L 987,-456 L 988,-456 L 989,-456 L 989,-455 L 988,-455 L 988,-454 L 988,-455 L 989,-454 L 989,-455 L 990,-455 L 990,-454 L 989,-454 L 988,-454 L 989,-454 L 989,-453 L 989,-454 L 990,-454 L 990,-453 L 990,-452 L 990,-453 L 990,-454 L 991,-454 L 991,-453 L 992,-453 L 992,-452 L 991,-452 L 991,-451 L 992,-451 L 992,-450 L 993,-450 L 992,-450 L 992,-451 L 991,-451 L 991,-450 L 992,-450 L 992,-449 L 991,-449 L 991,-448 L 992,-449 L 992,-448 L 993,-448 L 993,-447 L 994,-447 L 994,-446 L 995,-446 L 995,-447 L 995,-446 L 996,-446 L 995,-446 L 995,-445 L 996,-445 L 996,-446 L 997,-446 L 997,-447 L 996,-447 L 996,-446 L 996,-447 L 997,-447 L 998,-447 L 997,-447 L 998,-447 L 999,-447 L 999,-448 L 999,-447 L 1000,-447 L 999,-447 L 999,-446 L 999,-447 L 1000,-446 L 999,-446 L 1000,-446 L 1001,-446 L 1001,-445 L 1000,-445 L 1000,-444 L 999,-444 L 998,-444 L 998,-443 L 999,-443 L 999,-442 L 998,-442 L 997,-442 L 996,-442 L 995,-442 L 995,-441 L 994,-441 L 994,-442 L 994,-441 L 995,-441 L 994,-440 L 994,-441 L 994,-440 L 994,-439 L 994,-438 L 993,-437 L 988,-435 L 985,-435 L 988,-424 L 989,-424 L 992,-412 L 992,-411 L 992,-410 L 993,-410 L 993,-409 L 993,-408 L 994,-407 L 994,-406 L 995,-405 L 995,-404 L 995,-402 L 995,-401 L 996,-400 L 996,-399 L 997,-398 L 998,-397 L 998,-396 L 999,-395 L 999,-394 L 1000,-393 L 1000,-392 L 1001,-391 L 1001,-390 L 1002,-390 L 1002,-389 L 1002,-388 L 1003,-387 L 1003,-386 L 1004,-385 L 1004,-384 L 1005,-384 L 1005,-383 L 1006,-382 L 1007,-381 L 1010,-379 L 1011,-379 L 1012,-379 L 1013,-378 L 1015,-378 L 1017,-376 L 1017,-375 L 1018,-374 L 1018,-373 L 1018,-372 L 1018,-371 L 1018,-369 L 1018,-368 L 1018,-367 L 1018,-366 L 1018,-365 L 1019,-364 L 1019,-363 L 1020,-362 L 1020,-361 L 1020,-360 L 1021,-358 L 1021,-356 L 1021,-355 L 1020,-355 L 1019,-355 L 1018,-355 L 1018,-354 L 1018,-353 L 1018,-352 L 1018,-350 L 1018,-349 L 1018,-347 L 1018,-346 L 1018,-345 L 1018,-342 L 1018,-341 L 1018,-340 L 1018,-339 L 1018,-338 L 1018,-336 L 1018,-335 L 1018,-334 L 1018,-333 L 1018,-328 L 1018,-327 L 1018,-326 L 1018,-325 L 1018,-324 L 1018,-322 L 1018,-321 L 1018,-319 L 1018,-318 L 1018,-316 L 1018,-315 L 1018,-314 L 1017,-313 L 1017,-311 L 1017,-310 L 1017,-307 L 1018,-306 L 1018,-305 L 1018,-303 L 1018,-301 L 1018,-300 L 1018,-299 L 1018,-295 L 1018,-291 L 1018,-290 L 1018,-289 L 1018,-288 L 1018,-287 L 1018,-285 L 1018,-284 L 1018,-283 L 1018,-282 L 1018,-281 L 1018,-280 L 937,-288 L 936,-288 L 910,-288 L 900,-288 L 860,-288 L 845,-281 L 838,-276 L 832,-269 L 822,-253 L 819,-244 L 816,-219 L 807,-158 L 799,-142 L 765,-97 L 727,-87 L 745,-121 L 748,-155 L 735,-214 L 735,-215 L 735,-216 L 734,-216 L 734,-217 L 735,-217 L 736,-217 L 735,-218 L 735,-217 L 734,-217 L 734,-218 L 733,-218 L 733,-219 L 734,-219 L 735,-219 L 736,-219 L 736,-220 L 737,-220 L 737,-221 L 737,-222 L 736,-222 L 735,-222 L 735,-223 L 736,-223 L 736,-224 L 737,-224 L 737,-225 L 736,-225 L 736,-224 L 735,-224 L 735,-225 L 735,-226 L 736,-226 L 736,-225 L 737,-225 L 737,-226 L 738,-226 L 738,-227 L 737,-227 L 736,-227 L 737,-227 L 738,-227 L 739,-227 L 740,-228 L 739,-228 L 738,-228 L 737,-228 L 737,-229 L 738,-229 L 738,-230 L 737,-230 L 737,-231 L 738,-231 L 739,-231 L 739,-232 L 738,-232 L 738,-233 L 737,-233 L 737,-234 L 738,-234 L 739,-234 L 740,-234 L 741,-234 L 741,-235 L 742,-235 L 742,-234 L 742,-235 L 742,-236 L 741,-237 L 741,-238 L 740,-238 L 739,-238 L 739,-237 L 739,-238 L 740,-239 L 740,-238 L 741,-238 L 742,-238 L 742,-239 L 743,-239 L 743,-240 L 743,-241 L 744,-240 L 744,-241 L 744,-242 L 744,-243 L 744,-244 L 743,-244 L 742,-244 L 741,-244 L 740,-245 L 739,-245 L 739,-246 L 738,-246 L 738,-247 L 738,-248 L 739,-248 L 740,-248 L 741,-248 L 740,-249 L 739,-249 L 739,-250 L 738,-250 L 738,-251 L 737,-251 L 737,-252 L 737,-253 L 737,-254 L 737,-255 L 737,-256 L 737,-257 L 737,-258 L 736,-259 L 737,-260 L 737,-261 L 737,-262 L 736,-262 L 737,-262 L 737,-263 L 738,-262 L 738,-263 L 739,-263 L 739,-264 L 738,-264 L 738,-265 L 739,-266 L 739,-267 L 739,-268 L 740,-268 L 740,-267 L 741,-267 L 742,-267 L 742,-268 L 743,-268 L 743,-269 L 742,-269 L 743,-270 L 742,-271 L 741,-271 L 741,-272 L 742,-272 L 743,-272 L 744,-272 L 745,-272 L 745,-273 L 746,-273 L 746,-272 L 746,-273 L 747,-273 L 746,-273 L 747,-273 L 747,-274 L 746,-274 L 747,-274 L 748,-274 L 748,-275 L 749,-275 L 750,-275 L 750,-276 L 750,-275 L 750,-276 L 751,-276 L 751,-275 L 752,-275 L 753,-276 L 753,-275 L 754,-276 L 754,-275 L 755,-275 L 755,-276 L 755,-277 L 755,-278 L 754,-278 L 755,-278 L 755,-279 L 756,-279 L 755,-279 L 755,-280 L 754,-280 L 755,-281 L 756,-280 L 756,-281 L 757,-281 L 758,-281 L 758,-282 L 759,-282 L 758,-283 L 759,-283 L 759,-284 L 758,-284 L 759,-284 L 759,-285 L 758,-285 L 759,-285 L 759,-286 L 760,-286 L 761,-286 L 762,-286 L 763,-287 L 763,-286 L 764,-286 L 764,-287 L 764,-288 L 764,-289 L 765,-289 L 764,-289 L 765,-289 L 765,-290 L 766,-290 L 767,-290 L 767,-291 L 768,-291 L 767,-291 L 767,-292 L 768,-292 L 768,-291 L 768,-292 L 769,-291 L 769,-292 L 770,-292 L 770,-293 L 771,-292 L 771,-293 L 772,-293 L 772,-294 L 773,-294 L 773,-295 L 774,-295 L 775,-295 L 776,-295 L 776,-296 L 777,-297 L 778,-297 L 779,-297 L 780,-297 L 781,-297 L 782,-296 L 782,-295 L 782,-294 L 781,-294 L 781,-293 L 782,-293 L 782,-292 L 783,-292 L 783,-291 L 784,-291 L 784,-293 L 785,-295 L 784,-296 L 784,-297 L 783,-298 L 782,-298 L 781,-298 L 781,-299 L 782,-300 L 783,-301 L 784,-300 L 784,-299 L 785,-299 L 786,-299 L 787,-299 L 788,-299 L 788,-298 L 789,-297 L 790,-297 L 791,-298 L 790,-298 L 789,-298 L 788,-299 L 788,-300 L 788,-301 L 788,-302 L 789,-302 L 789,-303 L 788,-303 L 787,-303 L 786,-303 L 786,-304 L 786,-305 L 786,-306 L 786,-307 L 786,-308 L 787,-308 L 788,-307 L 789,-307 L 789,-306 L 790,-306 L 791,-306 L 791,-307 L 791,-308 L 791,-309 L 790,-310 L 788,-310 L 788,-311 L 789,-312 L 790,-312 L 790,-313 L 789,-313 L 788,-313 L 787,-312 L 787,-313 L 787,-314 L 788,-315 L 789,-315 L 790,-315 L 791,-315 L 792,-316 L 793,-316 L 794,-316 L 795,-317 L 796,-317 L 796,-319 L 797,-320 L 796,-320 L 795,-320 L 794,-321 L 794,-322 L 793,-323 L 792,-324 L 792,-325 L 793,-326 L 794,-327 L 795,-328 L 796,-328 L 797,-328 L 799,-328 L 799,-329 L 798,-330 L 797,-330 L 797,-329 L 796,-330 L 796,-331 L 796,-332 L 795,-332 L 794,-332 L 793,-332 L 792,-332 L 792,-333 L 794,-333 L 796,-334 L 797,-335 L 798,-336 L 798,-337 L 797,-337 L 796,-337 L 795,-337 L 796,-338 L 796,-339 L 797,-339 L 798,-339 L 799,-339 L 799,-340 L 798,-341 L 798,-342 L 799,-342 L 800,-342 L 801,-341 L 802,-340 L 801,-339 L 800,-339 L 800,-338 L 801,-338 L 802,-338 L 803,-339 L 803,-340 L 803,-341 L 803,-342 L 804,-343 L 803,-344 L 804,-345 L 804,-346 L 804,-347 L 804,-348 L 803,-349 L 802,-349 L 801,-348 L 801,-347 L 800,-347 L 800,-348 L 800,-349 L 801,-349 L 801,-350 L 802,-350 L 804,-350 L 804,-351 L 804,-352 L 803,-352 L 802,-352 L 801,-352 L 799,-353 L 799,-354 L 799,-356 L 799,-357 L 800,-358 L 801,-359 L 802,-359 L 803,-359 L 804,-359 L 804,-360 L 803,-360 L 802,-360 L 801,-360 L 800,-360 L 799,-361 L 798,-361 L 797,-362 L 798,-362 L 798,-363 L 798,-364 L 799,-364 L 799,-365 L 800,-365 L 801,-365 L 802,-365 L 803,-365 L 803,-366 L 804,-366 L 805,-367 L 806,-368 L 807,-368 L 807,-369 L 807,-370 L 807,-371 L 806,-371 L 805,-370 L 804,-369 L 803,-369 L 803,-368 L 802,-368 L 801,-368 L 800,-368 L 799,-368 L 799,-369 L 799,-370 L 800,-371 L 800,-372 L 800,-373 L 800,-374 L 801,-374 L 802,-374 L 803,-374 L 804,-374 L 805,-374 L 806,-374 L 806,-375 L 806,-376 L 805,-377 L 804,-377 L 804,-378 L 803,-378 L 802,-379 L 803,-379 L 804,-379 L 805,-380 L 778,-418 L 762,-441 L 762,-442 L 763,-442 L 763,-443 L 764,-443 L 765,-443 L 766,-443 L 766,-444 L 767,-444 L 768,-444 L 769,-444 L 769,-445 L 770,-445 L 771,-445 L 772,-445 L 773,-445 L 774,-445 L 774,-446 L 775,-446 L 775,-447 L 774,-447 L 774,-448 L 775,-449 L 776,-450 L 777,-450 L 777,-451 L 777,-452 L 778,-452 L 777,-453 L 777,-454 L 777,-455 L 777,-456 L 777,-457 L 777,-458 L 777,-459 L 777,-461 L 778,-462 L 779,-463 L 779,-464 L 780,-464 L 780,-465 L 780,-466 L 780,-467 L 781,-467 L 781,-468 L 781,-469 L 781,-470 L 782,-470 L 782,-471 L 783,-471 L 784,-471 L 784,-472 L 785,-472 L 785,-473 L 786,-473 L 786,-474 L 787,-474 L 787,-475 L 787,-476 L 787,-477 L 787,-478 L 786,-478 L 786,-479 L 786,-480 L 787,-480 L 787,-481 L 788,-481 L 789,-481 L 790,-481 L 790,-482 L 791,-482 L 791,-483 L 792,-483 L 793,-483 L 793,-484 L 793,-485 L 794,-486 L 794,-487 L 795,-487 L 796,-487 L 797,-486 L 797,-487 L 798,-487 L 799,-487 L 800,-487 L 800,-488 L 801,-488 L 802,-488 L 802,-489 L 802,-490 L 803,-490 L 803,-491 L 804,-491 L 804,-490 L 804,-491 L 805,-491 L 805,-492 L 804,-492 L 804,-493 L 804,-494 L 805,-494 L 804,-494 L 804,-495 L 805,-495 L 806,-495 L 806,-496 L 806,-497 L 805,-497 L 806,-497 L 806,-498 L 805,-498 L 805,-499 L 806,-499 L 806,-500 L 806,-501 L 807,-501 L 808,-501 L 808,-502 L 809,-501 L 810,-501 L 810,-502 L 811,-502 L 811,-503 L 811,-504 L 812,-504 L 812,-505 L 813,-505 L 813,-506 L 814,-506 L 815,-507 L 814,-508 L 815,-508 L 816,-508 L 817,-508 L 818,-508 L 818,-509 L 819,-509 L 819,-510 L 820,-510 L 820,-511 L 820,-512 L 819,-512 L 820,-512 L 820,-513 L 819,-513 L 819,-514 L 820,-514 L 820,-515 L 820,-514 L 821,-514 L 821,-515 L 822,-516 L 823,-516 L 823,-517 L 823,-516 L 824,-517 L 824,-516 L 824,-517 L 825,-516 L 826,-517 L 827,-517 L 827,-518 L 827,-519 L 828,-519 L 828,-520 L 829,-520 L 829,-521 L 828,-521 L 828,-522 L 829,-522 L 829,-523 L 829,-524 L 829,-525 L 829,-526 L 830,-526 L 831,-526 L 832,-526 L 833,-525 L 835,-525 L 836,-525 L 838,-525 L 839,-526 L 841,-527 L 842,-527 L 844,-529 L 846,-529 L 849,-530 L 850,-531 L 851,-532 L 851,-534 L 851,-535 L 850,-535 L 849,-536 L 848,-536 L 847,-537 L 845,-537 L 844,-538 L 843,-540 L 842,-541 L 842,-543 L 891,-557 L 907,-563 L 923,-568 L 926,-563 L 928,-562 L 929,-560 L 930,-559 L 931,-558 L 931,-549 L 931,-548 L 931,-547 L 930,-547 L 929,-547 L 929,-546 L 928,-545 L 928,-544 L 927,-544 L 928,-543 " /></g>
</svg>
