<?xml version="1.0" standalone="no"?><!DOCTYPE svg PUBLIC "-//W3C//DTD SVG 1.1//EN" "http://www.w3.org/Graphics/SVG/1.1/DTD/svg11.dtd"><svg xmlns="http://www.w3.org/2000/svg" viewBox="783 -1588 125 303" version = "1.1">
<g id="80703" ><path d="M 784,-1508 L 783,-1511 L 783,-1513 L 783,-1514 L 783,-1515 L 785,-1517 L 787,-1519 L 788,-1519 L 790,-1520 L 791,-1519 L 792,-1518 L 793,-1516 L 794,-1513 L 794,-1510 L 796,-1506 L 798,-1502 L 799,-1501 L 801,-1500 L 802,-1500 L 804,-1500 L 807,-1503 L 809,-1506 L 811,-1509 L 812,-1512 L 811,-1515 L 810,-1517 L 808,-1518 L 806,-1519 L 805,-1520 L 806,-1523 L 807,-1525 L 808,-1527 L 809,-1528 L 812,-1528 L 815,-1528 L 818,-1527 L 820,-1526 L 821,-1526 L 822,-1527 L 823,-1529 L 822,-1532 L 821,-1534 L 819,-1535 L 818,-1534 L 817,-1533 L 816,-1533 L 814,-1533 L 813,-1534 L 814,-1536 L 814,-1538 L 815,-1540 L 817,-1541 L 820,-1543 L 821,-1544 L 820,-1548 L 819,-1550 L 817,-1553 L 815,-1554 L 813,-1555 L 810,-1555 L 808,-1554 L 806,-1554 L 804,-1553 L 803,-1554 L 803,-1555 L 803,-1557 L 804,-1558 L 804,-1560 L 804,-1561 L 805,-1563 L 805,-1564 L 805,-1566 L 807,-1571 L 808,-1574 L 809,-1576 L 810,-1577 L 812,-1577 L 812,-1576 L 813,-1575 L 813,-1574 L 813,-1572 L 813,-1570 L 813,-1568 L 814,-1566 L 816,-1565 L 818,-1564 L 820,-1565 L 821,-1566 L 822,-1567 L 824,-1570 L 824,-1573 L 824,-1575 L 823,-1577 L 822,-1580 L 821,-1583 L 821,-1585 L 821,-1586 L 822,-1587 L 824,-1587 L 826,-1586 L 828,-1585 L 831,-1584 L 833,-1583 L 835,-1584 L 836,-1585 L 837,-1587 L 838,-1588 L 838,-1587 L 837,-1585 L 837,-1583 L 836,-1582 L 834,-1579 L 832,-1577 L 831,-1576 L 832,-1574 L 833,-1575 L 832,-1573 L 831,-1571 L 830,-1570 L 829,-1568 L 829,-1566 L 829,-1564 L 831,-1560 L 832,-1558 L 833,-1556 L 834,-1556 L 835,-1555 L 837,-1554 L 838,-1554 L 839,-1553 L 841,-1553 L 842,-1552 L 843,-1552 L 844,-1552 L 845,-1553 L 845,-1552 L 845,-1551 L 845,-1550 L 845,-1549 L 846,-1549 L 846,-1550 L 847,-1550 L 848,-1549 L 847,-1549 L 848,-1549 L 848,-1548 L 849,-1548 L 849,-1547 L 850,-1547 L 850,-1546 L 851,-1546 L 852,-1546 L 852,-1545 L 851,-1545 L 852,-1545 L 853,-1545 L 854,-1545 L 855,-1545 L 856,-1545 L 856,-1544 L 856,-1543 L 856,-1544 L 856,-1543 L 857,-1543 L 857,-1544 L 858,-1544 L 858,-1543 L 859,-1543 L 858,-1543 L 858,-1542 L 858,-1541 L 859,-1541 L 859,-1540 L 858,-1540 L 858,-1539 L 859,-1539 L 859,-1538 L 859,-1537 L 859,-1536 L 860,-1536 L 861,-1536 L 862,-1536 L 863,-1536 L 863,-1535 L 863,-1534 L 863,-1533 L 862,-1533 L 862,-1532 L 863,-1532 L 863,-1531 L 863,-1530 L 863,-1529 L 863,-1528 L 862,-1528 L 862,-1527 L 862,-1526 L 863,-1526 L 863,-1525 L 862,-1525 L 863,-1525 L 863,-1524 L 864,-1524 L 865,-1523 L 865,-1522 L 865,-1521 L 864,-1521 L 864,-1520 L 864,-1519 L 864,-1518 L 864,-1517 L 864,-1516 L 864,-1515 L 864,-1514 L 864,-1513 L 865,-1513 L 864,-1513 L 864,-1512 L 863,-1512 L 863,-1511 L 864,-1511 L 864,-1510 L 865,-1510 L 865,-1509 L 864,-1509 L 864,-1508 L 865,-1508 L 865,-1507 L 864,-1507 L 864,-1506 L 864,-1507 L 863,-1507 L 862,-1507 L 862,-1506 L 862,-1505 L 863,-1505 L 864,-1505 L 865,-1505 L 864,-1504 L 863,-1504 L 863,-1503 L 862,-1503 L 862,-1502 L 862,-1501 L 863,-1501 L 863,-1500 L 862,-1500 L 862,-1499 L 862,-1498 L 863,-1497 L 863,-1496 L 862,-1496 L 862,-1495 L 861,-1495 L 862,-1495 L 862,-1494 L 862,-1493 L 861,-1492 L 862,-1492 L 862,-1491 L 863,-1491 L 864,-1491 L 864,-1490 L 864,-1489 L 863,-1489 L 863,-1488 L 862,-1488 L 861,-1488 L 861,-1487 L 861,-1486 L 862,-1486 L 863,-1486 L 864,-1486 L 864,-1485 L 863,-1485 L 863,-1484 L 863,-1483 L 864,-1483 L 864,-1482 L 864,-1481 L 863,-1481 L 863,-1480 L 863,-1479 L 864,-1479 L 864,-1478 L 864,-1477 L 864,-1476 L 865,-1476 L 866,-1476 L 866,-1475 L 867,-1475 L 866,-1474 L 866,-1473 L 866,-1472 L 866,-1471 L 867,-1471 L 867,-1470 L 867,-1469 L 868,-1469 L 869,-1469 L 870,-1469 L 870,-1468 L 870,-1467 L 870,-1466 L 871,-1466 L 872,-1466 L 872,-1465 L 873,-1465 L 873,-1464 L 872,-1464 L 872,-1463 L 873,-1463 L 873,-1462 L 873,-1461 L 872,-1461 L 873,-1461 L 874,-1461 L 874,-1460 L 875,-1460 L 875,-1459 L 876,-1459 L 876,-1458 L 877,-1458 L 878,-1458 L 878,-1457 L 879,-1457 L 880,-1457 L 881,-1457 L 881,-1456 L 882,-1456 L 882,-1455 L 883,-1455 L 883,-1454 L 883,-1453 L 883,-1452 L 884,-1452 L 884,-1451 L 885,-1451 L 885,-1450 L 886,-1450 L 886,-1449 L 887,-1449 L 887,-1448 L 887,-1447 L 888,-1447 L 888,-1446 L 889,-1446 L 890,-1445 L 890,-1444 L 890,-1443 L 891,-1443 L 891,-1442 L 891,-1441 L 892,-1441 L 892,-1440 L 892,-1439 L 893,-1439 L 893,-1438 L 893,-1437 L 894,-1436 L 895,-1436 L 895,-1435 L 895,-1434 L 895,-1433 L 896,-1433 L 896,-1432 L 896,-1431 L 896,-1430 L 897,-1430 L 897,-1429 L 897,-1428 L 898,-1428 L 898,-1427 L 898,-1426 L 898,-1425 L 899,-1425 L 899,-1424 L 900,-1424 L 900,-1423 L 901,-1423 L 902,-1422 L 903,-1422 L 903,-1421 L 904,-1421 L 905,-1421 L 905,-1420 L 905,-1419 L 905,-1418 L 905,-1417 L 905,-1416 L 906,-1416 L 906,-1415 L 906,-1414 L 907,-1414 L 907,-1413 L 907,-1412 L 907,-1411 L 908,-1411 L 908,-1410 L 908,-1409 L 908,-1408 L 908,-1407 L 908,-1406 L 907,-1406 L 907,-1405 L 907,-1404 L 907,-1403 L 907,-1402 L 908,-1402 L 908,-1401 L 908,-1400 L 908,-1399 L 908,-1398 L 908,-1397 L 908,-1396 L 907,-1394 L 906,-1391 L 906,-1389 L 905,-1387 L 904,-1385 L 904,-1384 L 908,-1379 L 907,-1377 L 908,-1374 L 908,-1371 L 908,-1368 L 908,-1367 L 907,-1363 L 906,-1358 L 907,-1357 L 906,-1356 L 906,-1354 L 907,-1353 L 907,-1352 L 907,-1351 L 906,-1348 L 906,-1346 L 906,-1345 L 906,-1343 L 906,-1341 L 905,-1340 L 903,-1339 L 902,-1337 L 902,-1335 L 902,-1334 L 903,-1332 L 905,-1331 L 906,-1330 L 906,-1328 L 906,-1327 L 905,-1325 L 903,-1324 L 902,-1323 L 901,-1320 L 901,-1317 L 899,-1315 L 897,-1312 L 895,-1311 L 892,-1309 L 890,-1307 L 889,-1304 L 888,-1302 L 887,-1300 L 885,-1297 L 879,-1295 L 875,-1295 L 875,-1294 L 873,-1294 L 872,-1293 L 871,-1292 L 870,-1291 L 869,-1289 L 868,-1286 L 865,-1285 L 863,-1286 L 863,-1287 L 862,-1288 L 860,-1288 L 859,-1288 L 858,-1288 L 857,-1288 L 856,-1289 L 855,-1289 L 854,-1290 L 852,-1290 L 850,-1292 L 849,-1292 L 846,-1293 L 845,-1293 L 845,-1294 L 844,-1294 L 844,-1295 L 843,-1295 L 842,-1297 L 840,-1298 L 839,-1299 L 838,-1301 L 840,-1305 L 840,-1306 L 839,-1307 L 839,-1308 L 840,-1309 L 840,-1310 L 840,-1311 L 840,-1312 L 838,-1313 L 838,-1314 L 837,-1316 L 838,-1317 L 839,-1320 L 837,-1321 L 835,-1321 L 832,-1322 L 831,-1323 L 830,-1325 L 829,-1328 L 827,-1331 L 828,-1333 L 829,-1337 L 828,-1338 L 828,-1340 L 828,-1341 L 828,-1343 L 828,-1344 L 828,-1345 L 828,-1346 L 828,-1347 L 829,-1348 L 830,-1349 L 831,-1351 L 833,-1352 L 834,-1354 L 836,-1356 L 837,-1358 L 837,-1359 L 837,-1361 L 837,-1362 L 837,-1364 L 837,-1366 L 836,-1368 L 835,-1369 L 833,-1370 L 830,-1373 L 826,-1375 L 824,-1377 L 822,-1380 L 820,-1382 L 819,-1384 L 817,-1387 L 816,-1389 L 814,-1392 L 813,-1395 L 811,-1397 L 810,-1399 L 809,-1401 L 807,-1403 L 805,-1406 L 801,-1412 L 796,-1417 L 791,-1421 L 791,-1424 L 792,-1427 L 792,-1429 L 791,-1431 L 786,-1434 L 786,-1438 L 788,-1441 L 790,-1443 L 793,-1444 L 796,-1445 L 802,-1445 L 805,-1445 L 808,-1445 L 809,-1446 L 809,-1448 L 809,-1449 L 808,-1451 L 807,-1452 L 807,-1454 L 804,-1455 L 802,-1456 L 800,-1456 L 797,-1457 L 795,-1457 L 793,-1458 L 792,-1459 L 791,-1461 L 792,-1463 L 792,-1465 L 793,-1466 L 794,-1467 L 797,-1466 L 802,-1464 L 806,-1463 L 807,-1463 L 808,-1464 L 808,-1465 L 808,-1466 L 808,-1467 L 807,-1470 L 807,-1472 L 806,-1477 L 805,-1481 L 802,-1489 L 800,-1491 L 798,-1494 L 796,-1498 L 792,-1502 L 789,-1504 L 786,-1507 L 784,-1508 " /></g>
</svg>
