<?xml version="1.0" standalone="no"?><!DOCTYPE svg PUBLIC "-//W3C//DTD SVG 1.1//EN" "http://www.w3.org/Graphics/SVG/1.1/DTD/svg11.dtd"><svg xmlns="http://www.w3.org/2000/svg" viewBox="731 -1575 335 676" version = "1.1">
<g id="80701" ><path d="M 835,-1564 L 837,-1564 L 838,-1564 L 840,-1565 L 841,-1566 L 843,-1566 L 845,-1565 L 846,-1565 L 847,-1564 L 847,-1563 L 848,-1561 L 849,-1560 L 850,-1559 L 852,-1558 L 853,-1557 L 854,-1557 L 855,-1558 L 856,-1560 L 856,-1562 L 857,-1563 L 858,-1565 L 860,-1565 L 861,-1566 L 862,-1566 L 863,-1566 L 864,-1565 L 865,-1562 L 866,-1560 L 867,-1559 L 868,-1558 L 869,-1556 L 871,-1555 L 872,-1554 L 874,-1554 L 876,-1555 L 879,-1557 L 882,-1558 L 884,-1559 L 886,-1559 L 888,-1559 L 890,-1559 L 892,-1560 L 894,-1560 L 896,-1561 L 897,-1561 L 899,-1560 L 901,-1559 L 902,-1558 L 903,-1557 L 904,-1555 L 905,-1553 L 906,-1552 L 908,-1550 L 909,-1548 L 909,-1546 L 909,-1544 L 909,-1542 L 908,-1540 L 907,-1539 L 906,-1539 L 904,-1538 L 903,-1538 L 902,-1537 L 901,-1537 L 900,-1535 L 899,-1534 L 898,-1533 L 898,-1531 L 898,-1530 L 898,-1528 L 899,-1527 L 899,-1526 L 900,-1524 L 901,-1523 L 903,-1523 L 904,-1523 L 905,-1524 L 906,-1526 L 907,-1529 L 908,-1531 L 910,-1533 L 911,-1535 L 914,-1535 L 916,-1535 L 919,-1534 L 921,-1533 L 923,-1532 L 924,-1531 L 926,-1529 L 926,-1527 L 926,-1526 L 925,-1523 L 924,-1521 L 923,-1519 L 923,-1517 L 923,-1516 L 923,-1514 L 925,-1512 L 926,-1511 L 928,-1511 L 930,-1511 L 932,-1514 L 933,-1516 L 934,-1520 L 934,-1522 L 934,-1524 L 934,-1526 L 934,-1528 L 933,-1530 L 934,-1531 L 935,-1532 L 937,-1533 L 938,-1534 L 939,-1534 L 941,-1535 L 942,-1535 L 943,-1535 L 945,-1534 L 946,-1532 L 947,-1531 L 947,-1530 L 946,-1528 L 944,-1527 L 943,-1526 L 942,-1523 L 941,-1521 L 941,-1519 L 940,-1517 L 940,-1514 L 941,-1510 L 941,-1508 L 943,-1505 L 945,-1502 L 948,-1501 L 951,-1500 L 954,-1500 L 958,-1499 L 961,-1498 L 964,-1497 L 966,-1495 L 970,-1493 L 972,-1492 L 975,-1491 L 977,-1490 L 981,-1491 L 984,-1493 L 986,-1493 L 987,-1493 L 989,-1492 L 990,-1490 L 991,-1488 L 992,-1487 L 993,-1485 L 994,-1484 L 995,-1484 L 996,-1483 L 998,-1483 L 1000,-1484 L 1002,-1486 L 1004,-1488 L 1005,-1489 L 1007,-1489 L 1009,-1489 L 1010,-1487 L 1011,-1485 L 1012,-1482 L 1013,-1479 L 1014,-1476 L 1015,-1474 L 1015,-1470 L 1016,-1467 L 1015,-1464 L 1015,-1462 L 1014,-1460 L 1014,-1457 L 1014,-1455 L 1013,-1454 L 1011,-1452 L 1009,-1450 L 1009,-1449 L 1008,-1446 L 1009,-1445 L 1011,-1443 L 1012,-1442 L 1014,-1441 L 1016,-1440 L 1018,-1439 L 1020,-1437 L 1021,-1436 L 1024,-1436 L 1026,-1435 L 1027,-1433 L 1029,-1431 L 1030,-1429 L 1031,-1427 L 1032,-1425 L 1034,-1425 L 1035,-1423 L 1037,-1422 L 1038,-1420 L 1039,-1418 L 1041,-1417 L 1043,-1415 L 1045,-1414 L 1047,-1413 L 1050,-1413 L 1052,-1412 L 1054,-1412 L 1055,-1411 L 1055,-1410 L 1055,-1409 L 1054,-1408 L 1053,-1407 L 1052,-1407 L 1051,-1407 L 1051,-1406 L 1050,-1406 L 1050,-1405 L 1049,-1405 L 1049,-1404 L 1049,-1403 L 1050,-1403 L 1050,-1404 L 1051,-1405 L 1052,-1405 L 1052,-1404 L 1053,-1404 L 1053,-1403 L 1054,-1403 L 1054,-1402 L 1054,-1401 L 1055,-1401 L 1055,-1402 L 1055,-1403 L 1056,-1403 L 1056,-1402 L 1057,-1402 L 1058,-1402 L 1059,-1402 L 1060,-1402 L 1060,-1401 L 1060,-1400 L 1061,-1399 L 1061,-1398 L 1062,-1397 L 1062,-1396 L 1063,-1396 L 1064,-1396 L 1064,-1395 L 1065,-1395 L 1066,-1394 L 1066,-1393 L 1065,-1393 L 1064,-1393 L 1063,-1392 L 1062,-1393 L 1061,-1393 L 1060,-1393 L 1059,-1393 L 1059,-1394 L 1058,-1394 L 1057,-1394 L 1056,-1393 L 1056,-1392 L 1056,-1391 L 1056,-1390 L 1055,-1389 L 1055,-1388 L 1055,-1387 L 1054,-1386 L 1054,-1385 L 1055,-1385 L 1055,-1384 L 1056,-1384 L 1057,-1383 L 1057,-1382 L 1058,-1382 L 1058,-1381 L 1057,-1381 L 1056,-1381 L 1055,-1381 L 1054,-1381 L 1053,-1381 L 1052,-1380 L 1051,-1380 L 1050,-1381 L 1050,-1382 L 1049,-1381 L 1048,-1381 L 1047,-1381 L 1046,-1381 L 1045,-1381 L 1045,-1379 L 1044,-1379 L 1044,-1378 L 1045,-1377 L 1046,-1377 L 1047,-1377 L 1047,-1378 L 1048,-1379 L 1048,-1380 L 1049,-1380 L 1049,-1379 L 1050,-1379 L 1050,-1378 L 1051,-1377 L 1052,-1377 L 1053,-1377 L 1053,-1376 L 1054,-1376 L 1054,-1375 L 1054,-1374 L 1054,-1373 L 1054,-1372 L 1053,-1371 L 1053,-1370 L 1053,-1369 L 1053,-1368 L 1053,-1367 L 1054,-1366 L 1054,-1365 L 1055,-1365 L 1054,-1364 L 1053,-1364 L 1052,-1363 L 1051,-1362 L 1050,-1361 L 1049,-1360 L 1048,-1360 L 1047,-1360 L 1046,-1360 L 1045,-1360 L 1044,-1360 L 1043,-1360 L 1042,-1360 L 1041,-1360 L 1041,-1359 L 1040,-1359 L 1040,-1358 L 1040,-1357 L 1041,-1356 L 1041,-1355 L 1042,-1355 L 1043,-1355 L 1044,-1355 L 1044,-1354 L 1045,-1354 L 1046,-1353 L 1047,-1353 L 1048,-1353 L 1049,-1353 L 1049,-1352 L 1049,-1351 L 1049,-1350 L 1048,-1349 L 1048,-1348 L 1048,-1347 L 1047,-1346 L 1047,-1345 L 1046,-1344 L 1045,-1344 L 1044,-1343 L 1043,-1343 L 1041,-1343 L 1040,-1343 L 1039,-1343 L 1038,-1343 L 1037,-1343 L 1036,-1342 L 1035,-1341 L 1035,-1340 L 1035,-1339 L 1035,-1338 L 1035,-1336 L 1036,-1336 L 1036,-1335 L 1036,-1334 L 1036,-1333 L 1037,-1333 L 1039,-1332 L 1041,-1332 L 1043,-1332 L 1046,-1331 L 1047,-1331 L 1048,-1330 L 1048,-1329 L 1047,-1329 L 1046,-1329 L 1045,-1329 L 1045,-1328 L 1045,-1326 L 1046,-1325 L 1045,-1324 L 1043,-1321 L 1042,-1320 L 1041,-1320 L 1039,-1320 L 1037,-1322 L 1035,-1322 L 1033,-1322 L 1032,-1321 L 1032,-1318 L 1031,-1317 L 1032,-1316 L 1032,-1315 L 1032,-1314 L 1031,-1313 L 1030,-1313 L 1028,-1313 L 1026,-1312 L 1026,-1311 L 1026,-1310 L 1025,-1308 L 1025,-1307 L 1024,-1307 L 1023,-1309 L 1022,-1309 L 1022,-1308 L 1023,-1307 L 1022,-1307 L 1022,-1306 L 1020,-1306 L 1018,-1306 L 1017,-1307 L 1016,-1307 L 1015,-1306 L 1014,-1305 L 1014,-1304 L 1013,-1304 L 1012,-1303 L 1010,-1302 L 1009,-1301 L 1008,-1300 L 1007,-1300 L 1007,-1298 L 1007,-1297 L 1007,-1296 L 1008,-1294 L 1008,-1293 L 1007,-1292 L 1006,-1291 L 1006,-1290 L 1006,-1289 L 1006,-1288 L 1005,-1286 L 1004,-1286 L 1004,-1284 L 1004,-1283 L 1005,-1282 L 1006,-1280 L 1007,-1279 L 1007,-1278 L 1007,-1277 L 1007,-1275 L 1008,-1273 L 1008,-1272 L 1007,-1271 L 1006,-1271 L 1005,-1270 L 1005,-1269 L 1004,-1269 L 1003,-1268 L 1002,-1268 L 1001,-1268 L 998,-1268 L 996,-1269 L 995,-1270 L 993,-1270 L 993,-1269 L 992,-1269 L 991,-1269 L 991,-1268 L 990,-1267 L 990,-1266 L 991,-1266 L 992,-1266 L 993,-1267 L 994,-1267 L 994,-1266 L 994,-1265 L 994,-1264 L 992,-1264 L 989,-1264 L 987,-1263 L 985,-1262 L 984,-1262 L 983,-1261 L 982,-1260 L 982,-1258 L 982,-1257 L 984,-1256 L 984,-1255 L 983,-1254 L 981,-1253 L 980,-1252 L 978,-1252 L 976,-1252 L 976,-1253 L 975,-1253 L 975,-1252 L 976,-1252 L 976,-1251 L 975,-1250 L 974,-1250 L 973,-1249 L 973,-1247 L 972,-1245 L 971,-1243 L 971,-1242 L 971,-1240 L 972,-1238 L 973,-1236 L 972,-1235 L 971,-1235 L 969,-1234 L 968,-1234 L 968,-1233 L 967,-1232 L 966,-1232 L 965,-1232 L 964,-1232 L 964,-1231 L 965,-1230 L 965,-1229 L 966,-1229 L 966,-1228 L 965,-1227 L 964,-1226 L 963,-1226 L 963,-1225 L 962,-1225 L 963,-1224 L 963,-1223 L 963,-1222 L 963,-1221 L 964,-1221 L 964,-1220 L 965,-1220 L 965,-1219 L 966,-1219 L 966,-1218 L 965,-1218 L 964,-1217 L 964,-1216 L 963,-1216 L 963,-1215 L 964,-1215 L 965,-1215 L 965,-1214 L 966,-1214 L 966,-1213 L 965,-1213 L 965,-1212 L 965,-1211 L 965,-1210 L 966,-1210 L 967,-1209 L 968,-1209 L 968,-1208 L 969,-1208 L 969,-1207 L 968,-1207 L 967,-1207 L 966,-1208 L 965,-1208 L 965,-1207 L 965,-1206 L 965,-1205 L 966,-1205 L 967,-1205 L 967,-1204 L 968,-1204 L 967,-1203 L 967,-1202 L 967,-1201 L 967,-1200 L 967,-1199 L 967,-1198 L 967,-1197 L 967,-1196 L 966,-1196 L 965,-1196 L 965,-1197 L 964,-1196 L 964,-1195 L 963,-1195 L 962,-1194 L 961,-1194 L 960,-1194 L 959,-1193 L 960,-1192 L 960,-1191 L 960,-1190 L 960,-1189 L 960,-1188 L 960,-1187 L 961,-1186 L 960,-1186 L 960,-1185 L 959,-1185 L 958,-1185 L 958,-1186 L 957,-1186 L 956,-1186 L 956,-1185 L 956,-1184 L 956,-1183 L 957,-1183 L 957,-1184 L 958,-1184 L 959,-1184 L 959,-1183 L 959,-1182 L 959,-1181 L 958,-1181 L 958,-1182 L 957,-1182 L 956,-1181 L 957,-1180 L 957,-1179 L 956,-1178 L 955,-1178 L 955,-1177 L 955,-1176 L 955,-1175 L 955,-1174 L 955,-1173 L 955,-1172 L 955,-1171 L 956,-1171 L 956,-1170 L 957,-1170 L 957,-1171 L 957,-1172 L 958,-1172 L 958,-1173 L 959,-1173 L 960,-1173 L 961,-1173 L 960,-1173 L 959,-1173 L 959,-1172 L 959,-1171 L 960,-1171 L 960,-1170 L 960,-1169 L 961,-1169 L 961,-1168 L 962,-1168 L 962,-1167 L 963,-1166 L 963,-1165 L 963,-1164 L 964,-1164 L 964,-1163 L 963,-1163 L 962,-1163 L 961,-1164 L 960,-1164 L 960,-1165 L 959,-1165 L 959,-1164 L 958,-1164 L 958,-1163 L 958,-1162 L 958,-1161 L 959,-1161 L 959,-1160 L 959,-1159 L 960,-1159 L 961,-1159 L 962,-1159 L 963,-1159 L 964,-1159 L 965,-1159 L 965,-1158 L 964,-1158 L 964,-1157 L 963,-1157 L 963,-1156 L 963,-1155 L 964,-1155 L 964,-1154 L 964,-1153 L 963,-1153 L 962,-1153 L 961,-1153 L 962,-1153 L 961,-1152 L 961,-1153 L 961,-1152 L 960,-1152 L 961,-1152 L 960,-1152 L 960,-1151 L 959,-1152 L 959,-1151 L 958,-1151 L 958,-1150 L 959,-1150 L 960,-1150 L 960,-1149 L 960,-1148 L 960,-1149 L 961,-1148 L 961,-1147 L 962,-1147 L 961,-1147 L 961,-1146 L 961,-1147 L 960,-1147 L 960,-1146 L 959,-1146 L 959,-1145 L 958,-1146 L 959,-1146 L 958,-1146 L 957,-1146 L 958,-1146 L 958,-1147 L 957,-1147 L 956,-1147 L 956,-1146 L 955,-1146 L 956,-1146 L 956,-1145 L 956,-1144 L 955,-1144 L 955,-1143 L 955,-1142 L 956,-1142 L 956,-1141 L 956,-1142 L 957,-1142 L 957,-1143 L 957,-1142 L 958,-1142 L 958,-1143 L 958,-1144 L 958,-1143 L 958,-1144 L 959,-1144 L 959,-1143 L 960,-1143 L 960,-1142 L 960,-1141 L 960,-1140 L 959,-1140 L 959,-1139 L 959,-1138 L 958,-1138 L 958,-1137 L 957,-1136 L 957,-1135 L 957,-1134 L 956,-1134 L 956,-1133 L 955,-1133 L 954,-1133 L 953,-1133 L 953,-1134 L 953,-1133 L 952,-1133 L 952,-1134 L 952,-1133 L 951,-1133 L 951,-1134 L 952,-1134 L 951,-1134 L 951,-1135 L 952,-1135 L 952,-1136 L 951,-1136 L 950,-1136 L 949,-1136 L 948,-1136 L 948,-1135 L 947,-1136 L 948,-1136 L 947,-1136 L 946,-1136 L 946,-1135 L 947,-1135 L 947,-1134 L 947,-1133 L 948,-1133 L 948,-1132 L 949,-1132 L 950,-1132 L 949,-1132 L 949,-1131 L 949,-1130 L 948,-1130 L 948,-1131 L 948,-1130 L 947,-1130 L 947,-1129 L 947,-1130 L 946,-1130 L 946,-1129 L 946,-1128 L 946,-1127 L 946,-1126 L 946,-1127 L 945,-1127 L 945,-1126 L 944,-1126 L 944,-1127 L 943,-1127 L 942,-1127 L 941,-1127 L 942,-1127 L 942,-1126 L 943,-1126 L 943,-1125 L 943,-1124 L 942,-1124 L 941,-1124 L 940,-1124 L 939,-1124 L 938,-1124 L 938,-1123 L 938,-1122 L 939,-1122 L 938,-1122 L 938,-1121 L 938,-1122 L 937,-1122 L 936,-1122 L 935,-1122 L 934,-1122 L 934,-1123 L 933,-1123 L 933,-1124 L 932,-1124 L 931,-1124 L 931,-1123 L 931,-1122 L 930,-1122 L 930,-1121 L 930,-1120 L 929,-1120 L 929,-1121 L 929,-1122 L 929,-1123 L 928,-1123 L 928,-1122 L 927,-1121 L 927,-1120 L 926,-1120 L 926,-1119 L 925,-1119 L 925,-1118 L 924,-1118 L 924,-1119 L 923,-1119 L 923,-1120 L 924,-1120 L 923,-1120 L 923,-1121 L 922,-1121 L 922,-1120 L 921,-1119 L 920,-1119 L 920,-1118 L 919,-1118 L 920,-1118 L 920,-1117 L 920,-1116 L 921,-1116 L 922,-1116 L 923,-1116 L 924,-1116 L 925,-1116 L 925,-1115 L 924,-1115 L 924,-1114 L 924,-1113 L 923,-1113 L 923,-1112 L 922,-1112 L 922,-1113 L 921,-1113 L 920,-1113 L 921,-1113 L 921,-1112 L 922,-1112 L 921,-1112 L 921,-1111 L 920,-1111 L 919,-1111 L 919,-1110 L 918,-1110 L 917,-1110 L 916,-1110 L 915,-1110 L 914,-1110 L 913,-1110 L 913,-1109 L 912,-1109 L 912,-1110 L 911,-1110 L 911,-1111 L 912,-1111 L 912,-1112 L 913,-1112 L 913,-1113 L 914,-1113 L 915,-1113 L 915,-1114 L 916,-1115 L 915,-1115 L 915,-1116 L 916,-1115 L 916,-1116 L 915,-1116 L 914,-1116 L 913,-1116 L 912,-1115 L 912,-1114 L 911,-1114 L 911,-1113 L 910,-1113 L 910,-1112 L 910,-1111 L 910,-1110 L 909,-1110 L 909,-1109 L 908,-1109 L 907,-1109 L 906,-1109 L 906,-1108 L 905,-1108 L 904,-1108 L 903,-1108 L 902,-1108 L 901,-1107 L 900,-1107 L 900,-1108 L 899,-1108 L 898,-1108 L 898,-1107 L 898,-1106 L 897,-1106 L 897,-1105 L 897,-1104 L 898,-1104 L 898,-1103 L 899,-1103 L 900,-1103 L 900,-1102 L 901,-1102 L 901,-1101 L 902,-1101 L 902,-1100 L 901,-1100 L 901,-1099 L 900,-1099 L 900,-1100 L 899,-1100 L 899,-1101 L 900,-1101 L 899,-1101 L 899,-1102 L 898,-1102 L 898,-1101 L 897,-1101 L 897,-1100 L 897,-1099 L 897,-1098 L 896,-1098 L 896,-1097 L 895,-1097 L 895,-1096 L 894,-1096 L 894,-1095 L 893,-1095 L 892,-1095 L 892,-1094 L 891,-1094 L 890,-1094 L 890,-1093 L 889,-1093 L 888,-1093 L 888,-1092 L 887,-1092 L 887,-1091 L 887,-1090 L 888,-1090 L 888,-1089 L 889,-1089 L 890,-1089 L 891,-1089 L 891,-1088 L 890,-1087 L 889,-1086 L 890,-1085 L 891,-1085 L 891,-1084 L 891,-1083 L 891,-1082 L 891,-1081 L 890,-1081 L 890,-1080 L 891,-1080 L 891,-1079 L 890,-1079 L 890,-1078 L 890,-1077 L 890,-1076 L 890,-1075 L 890,-1074 L 889,-1074 L 889,-1073 L 889,-1072 L 888,-1072 L 887,-1072 L 887,-1071 L 887,-1072 L 887,-1073 L 887,-1074 L 886,-1074 L 886,-1075 L 887,-1075 L 887,-1076 L 886,-1076 L 885,-1076 L 885,-1075 L 884,-1075 L 883,-1075 L 883,-1074 L 882,-1074 L 882,-1073 L 881,-1073 L 880,-1072 L 879,-1072 L 878,-1072 L 878,-1071 L 877,-1071 L 877,-1070 L 878,-1070 L 878,-1069 L 879,-1069 L 880,-1069 L 881,-1069 L 881,-1068 L 882,-1068 L 883,-1068 L 883,-1067 L 884,-1067 L 885,-1067 L 885,-1066 L 884,-1066 L 883,-1066 L 883,-1065 L 882,-1065 L 882,-1064 L 881,-1064 L 881,-1063 L 881,-1062 L 881,-1061 L 881,-1060 L 880,-1060 L 880,-1059 L 879,-1059 L 878,-1059 L 877,-1059 L 876,-1059 L 876,-1060 L 875,-1060 L 874,-1060 L 873,-1060 L 873,-1059 L 872,-1059 L 871,-1059 L 871,-1058 L 870,-1058 L 870,-1057 L 870,-1056 L 871,-1056 L 872,-1056 L 873,-1056 L 874,-1056 L 874,-1055 L 874,-1054 L 873,-1054 L 872,-1054 L 872,-1053 L 871,-1053 L 870,-1053 L 869,-1053 L 869,-1052 L 869,-1051 L 869,-1050 L 870,-1050 L 870,-1049 L 871,-1049 L 871,-1048 L 871,-1047 L 872,-1047 L 872,-1048 L 873,-1048 L 874,-1048 L 874,-1047 L 873,-1047 L 873,-1046 L 873,-1045 L 872,-1045 L 872,-1044 L 872,-1043 L 872,-1042 L 872,-1041 L 872,-1040 L 872,-1039 L 873,-1039 L 873,-1038 L 873,-1037 L 874,-1037 L 874,-1036 L 875,-1036 L 875,-1035 L 874,-1035 L 873,-1035 L 872,-1035 L 871,-1035 L 870,-1035 L 870,-1034 L 870,-1033 L 871,-1033 L 872,-1033 L 873,-1033 L 873,-1032 L 874,-1032 L 874,-1031 L 873,-1031 L 873,-1030 L 872,-1030 L 871,-1030 L 870,-1030 L 869,-1030 L 869,-1029 L 869,-1028 L 868,-1028 L 868,-1029 L 867,-1029 L 866,-1029 L 866,-1028 L 865,-1028 L 864,-1028 L 863,-1028 L 862,-1027 L 862,-1026 L 862,-1025 L 861,-1024 L 860,-1024 L 859,-1024 L 858,-1024 L 857,-1024 L 857,-1025 L 856,-1025 L 855,-1025 L 854,-1025 L 853,-1025 L 852,-1025 L 851,-1025 L 851,-1024 L 850,-1023 L 850,-1022 L 850,-1021 L 850,-1020 L 851,-1019 L 851,-1020 L 852,-1020 L 853,-1020 L 853,-1019 L 853,-1018 L 853,-1017 L 853,-1016 L 853,-1015 L 854,-1015 L 854,-1016 L 854,-1017 L 855,-1017 L 855,-1016 L 856,-1016 L 856,-1015 L 857,-1015 L 857,-1014 L 858,-1014 L 858,-1013 L 858,-1012 L 857,-1011 L 857,-1010 L 858,-1010 L 859,-1010 L 860,-1010 L 860,-1009 L 859,-1009 L 859,-1008 L 858,-1008 L 858,-1007 L 857,-1007 L 856,-1007 L 857,-1007 L 857,-1006 L 856,-1006 L 856,-1005 L 855,-1005 L 855,-1004 L 855,-1003 L 856,-1003 L 856,-1002 L 857,-1002 L 858,-1002 L 859,-1002 L 860,-1002 L 861,-1002 L 861,-1001 L 860,-1001 L 860,-1000 L 859,-1000 L 859,-999 L 858,-999 L 858,-998 L 858,-997 L 858,-998 L 859,-998 L 860,-998 L 861,-998 L 861,-997 L 861,-996 L 861,-995 L 860,-994 L 860,-993 L 859,-993 L 859,-992 L 859,-991 L 858,-991 L 858,-990 L 857,-990 L 857,-991 L 856,-991 L 855,-991 L 854,-991 L 853,-991 L 853,-990 L 852,-990 L 852,-989 L 851,-989 L 851,-988 L 850,-988 L 849,-988 L 849,-989 L 848,-989 L 847,-989 L 846,-989 L 845,-989 L 843,-989 L 842,-989 L 841,-989 L 840,-988 L 839,-988 L 838,-987 L 838,-986 L 838,-985 L 838,-984 L 838,-982 L 837,-981 L 836,-979 L 835,-978 L 835,-977 L 835,-976 L 836,-976 L 837,-977 L 838,-976 L 839,-976 L 840,-976 L 839,-975 L 839,-976 L 838,-975 L 837,-975 L 836,-975 L 836,-974 L 837,-972 L 837,-971 L 838,-970 L 838,-969 L 838,-968 L 838,-967 L 837,-966 L 836,-966 L 835,-965 L 836,-965 L 836,-964 L 838,-964 L 837,-963 L 836,-962 L 835,-962 L 834,-961 L 834,-960 L 835,-960 L 836,-960 L 837,-959 L 837,-958 L 837,-957 L 837,-956 L 836,-955 L 835,-954 L 835,-953 L 834,-952 L 834,-951 L 834,-950 L 833,-949 L 833,-948 L 832,-948 L 832,-947 L 833,-947 L 834,-947 L 835,-947 L 835,-946 L 835,-945 L 835,-944 L 834,-944 L 833,-945 L 832,-945 L 831,-945 L 830,-945 L 830,-944 L 831,-943 L 832,-943 L 832,-941 L 831,-940 L 830,-939 L 830,-938 L 830,-937 L 831,-936 L 832,-937 L 832,-936 L 832,-935 L 832,-934 L 832,-933 L 832,-932 L 832,-931 L 831,-930 L 831,-929 L 831,-928 L 831,-927 L 832,-927 L 832,-926 L 833,-926 L 834,-926 L 835,-926 L 835,-925 L 835,-924 L 836,-924 L 836,-923 L 836,-922 L 835,-922 L 835,-923 L 834,-923 L 834,-922 L 833,-922 L 832,-922 L 832,-921 L 832,-920 L 831,-920 L 831,-919 L 830,-919 L 829,-919 L 829,-918 L 828,-918 L 828,-917 L 827,-917 L 826,-917 L 825,-917 L 825,-916 L 825,-915 L 826,-915 L 826,-914 L 827,-914 L 828,-913 L 828,-912 L 828,-911 L 828,-910 L 827,-910 L 826,-909 L 826,-910 L 825,-909 L 825,-908 L 825,-907 L 824,-907 L 824,-906 L 823,-906 L 822,-906 L 822,-905 L 822,-904 L 823,-904 L 824,-904 L 824,-903 L 824,-902 L 823,-902 L 822,-902 L 821,-902 L 820,-901 L 811,-900 L 807,-899 L 807,-900 L 805,-900 L 803,-901 L 801,-902 L 799,-903 L 799,-905 L 798,-907 L 798,-909 L 798,-912 L 799,-914 L 799,-916 L 799,-917 L 798,-918 L 797,-920 L 793,-926 L 791,-930 L 790,-933 L 789,-935 L 788,-936 L 787,-936 L 786,-935 L 785,-934 L 784,-932 L 783,-928 L 782,-926 L 781,-926 L 780,-926 L 779,-927 L 779,-929 L 778,-930 L 779,-932 L 779,-933 L 780,-934 L 781,-936 L 782,-938 L 783,-941 L 783,-946 L 784,-949 L 785,-952 L 787,-955 L 788,-956 L 788,-957 L 788,-959 L 786,-959 L 785,-958 L 781,-956 L 773,-950 L 771,-949 L 770,-949 L 769,-949 L 768,-950 L 767,-952 L 766,-954 L 765,-955 L 764,-955 L 763,-956 L 762,-958 L 762,-959 L 762,-960 L 764,-961 L 765,-961 L 767,-961 L 769,-961 L 771,-961 L 773,-962 L 774,-963 L 774,-964 L 774,-966 L 773,-966 L 771,-967 L 770,-966 L 767,-966 L 764,-965 L 759,-965 L 756,-965 L 754,-965 L 751,-966 L 748,-968 L 746,-970 L 745,-974 L 744,-977 L 744,-980 L 743,-983 L 743,-985 L 745,-986 L 747,-986 L 748,-985 L 750,-985 L 752,-986 L 752,-987 L 752,-989 L 751,-991 L 751,-993 L 752,-996 L 751,-998 L 750,-999 L 749,-999 L 748,-998 L 747,-996 L 747,-994 L 747,-992 L 746,-990 L 745,-988 L 743,-987 L 742,-986 L 741,-986 L 740,-986 L 740,-985 L 739,-984 L 739,-982 L 738,-981 L 736,-982 L 736,-983 L 734,-986 L 733,-989 L 733,-993 L 733,-995 L 734,-996 L 735,-997 L 737,-998 L 740,-999 L 744,-1001 L 748,-1002 L 751,-1004 L 753,-1005 L 754,-1007 L 754,-1008 L 752,-1010 L 751,-1010 L 748,-1010 L 745,-1010 L 742,-1009 L 737,-1008 L 734,-1007 L 732,-1007 L 731,-1009 L 731,-1010 L 732,-1012 L 733,-1013 L 734,-1014 L 736,-1016 L 738,-1016 L 741,-1015 L 743,-1016 L 745,-1016 L 748,-1017 L 750,-1019 L 751,-1020 L 751,-1021 L 750,-1022 L 748,-1023 L 747,-1024 L 743,-1025 L 741,-1025 L 739,-1024 L 737,-1024 L 736,-1023 L 734,-1022 L 732,-1022 L 731,-1023 L 731,-1024 L 732,-1026 L 732,-1027 L 732,-1029 L 734,-1030 L 736,-1032 L 737,-1032 L 740,-1033 L 745,-1034 L 751,-1035 L 755,-1038 L 757,-1041 L 758,-1043 L 758,-1045 L 759,-1046 L 758,-1049 L 757,-1051 L 756,-1053 L 755,-1056 L 754,-1058 L 753,-1060 L 751,-1061 L 750,-1062 L 748,-1062 L 747,-1061 L 747,-1059 L 747,-1056 L 747,-1055 L 747,-1054 L 746,-1052 L 745,-1052 L 744,-1053 L 743,-1053 L 743,-1055 L 743,-1056 L 743,-1059 L 743,-1061 L 744,-1064 L 747,-1066 L 749,-1067 L 751,-1068 L 753,-1070 L 755,-1072 L 756,-1073 L 764,-1079 L 769,-1084 L 770,-1085 L 772,-1088 L 773,-1090 L 772,-1092 L 769,-1095 L 766,-1096 L 763,-1096 L 760,-1095 L 758,-1094 L 757,-1093 L 754,-1093 L 753,-1094 L 753,-1095 L 753,-1097 L 753,-1098 L 754,-1099 L 755,-1101 L 755,-1105 L 756,-1107 L 758,-1108 L 761,-1109 L 764,-1111 L 769,-1114 L 773,-1115 L 778,-1119 L 781,-1123 L 782,-1125 L 782,-1126 L 782,-1127 L 780,-1127 L 777,-1127 L 767,-1126 L 765,-1126 L 764,-1127 L 764,-1129 L 765,-1130 L 765,-1132 L 766,-1134 L 766,-1135 L 767,-1136 L 768,-1139 L 770,-1143 L 772,-1148 L 776,-1153 L 779,-1156 L 785,-1161 L 786,-1163 L 787,-1165 L 786,-1167 L 783,-1171 L 782,-1173 L 782,-1175 L 785,-1178 L 786,-1179 L 786,-1181 L 784,-1182 L 783,-1182 L 780,-1181 L 777,-1180 L 774,-1179 L 772,-1179 L 770,-1181 L 771,-1183 L 771,-1186 L 773,-1187 L 774,-1188 L 775,-1190 L 778,-1191 L 783,-1192 L 786,-1192 L 790,-1191 L 793,-1189 L 795,-1188 L 799,-1185 L 801,-1184 L 802,-1185 L 807,-1189 L 811,-1193 L 814,-1197 L 820,-1207 L 822,-1210 L 824,-1212 L 827,-1214 L 832,-1216 L 836,-1218 L 837,-1219 L 838,-1222 L 837,-1224 L 834,-1227 L 834,-1229 L 835,-1231 L 836,-1233 L 838,-1236 L 838,-1239 L 839,-1241 L 839,-1243 L 839,-1246 L 838,-1248 L 837,-1250 L 835,-1253 L 833,-1255 L 833,-1257 L 834,-1260 L 834,-1263 L 834,-1264 L 832,-1265 L 830,-1266 L 829,-1267 L 828,-1270 L 828,-1273 L 827,-1276 L 827,-1279 L 828,-1280 L 830,-1281 L 832,-1282 L 835,-1283 L 838,-1282 L 842,-1282 L 844,-1282 L 846,-1282 L 847,-1284 L 845,-1287 L 844,-1290 L 844,-1293 L 844,-1294 L 845,-1294 L 845,-1293 L 846,-1293 L 849,-1292 L 850,-1292 L 852,-1290 L 854,-1290 L 855,-1289 L 856,-1289 L 857,-1288 L 858,-1288 L 859,-1288 L 860,-1288 L 862,-1288 L 863,-1287 L 863,-1286 L 865,-1285 L 868,-1286 L 869,-1289 L 870,-1291 L 871,-1292 L 872,-1293 L 873,-1294 L 875,-1294 L 875,-1295 L 879,-1295 L 885,-1297 L 887,-1300 L 888,-1302 L 889,-1304 L 890,-1307 L 892,-1309 L 895,-1311 L 897,-1312 L 899,-1315 L 901,-1317 L 901,-1320 L 902,-1323 L 903,-1324 L 905,-1325 L 906,-1327 L 906,-1328 L 906,-1330 L 905,-1331 L 903,-1332 L 902,-1334 L 902,-1335 L 902,-1337 L 903,-1339 L 905,-1340 L 906,-1341 L 906,-1343 L 906,-1345 L 906,-1346 L 906,-1348 L 907,-1351 L 907,-1352 L 907,-1353 L 906,-1354 L 906,-1356 L 907,-1357 L 906,-1358 L 907,-1363 L 908,-1367 L 908,-1368 L 908,-1371 L 908,-1374 L 907,-1377 L 908,-1379 L 904,-1384 L 904,-1385 L 905,-1387 L 906,-1389 L 906,-1391 L 907,-1394 L 908,-1396 L 908,-1397 L 908,-1398 L 908,-1399 L 908,-1400 L 908,-1401 L 908,-1402 L 907,-1402 L 907,-1403 L 907,-1404 L 907,-1405 L 907,-1406 L 908,-1406 L 908,-1407 L 908,-1408 L 908,-1409 L 908,-1410 L 908,-1411 L 907,-1411 L 907,-1412 L 907,-1413 L 907,-1414 L 906,-1414 L 906,-1415 L 906,-1416 L 905,-1416 L 905,-1417 L 905,-1418 L 905,-1419 L 905,-1420 L 905,-1421 L 904,-1421 L 903,-1421 L 903,-1422 L 902,-1422 L 901,-1423 L 900,-1423 L 900,-1424 L 899,-1424 L 899,-1425 L 898,-1425 L 898,-1426 L 898,-1427 L 898,-1428 L 897,-1428 L 897,-1429 L 897,-1430 L 896,-1430 L 896,-1431 L 896,-1432 L 896,-1433 L 895,-1433 L 895,-1434 L 895,-1435 L 895,-1436 L 894,-1436 L 893,-1437 L 893,-1438 L 893,-1439 L 892,-1439 L 892,-1440 L 892,-1441 L 891,-1441 L 891,-1442 L 891,-1443 L 890,-1443 L 890,-1444 L 890,-1445 L 889,-1446 L 888,-1446 L 888,-1447 L 887,-1447 L 887,-1448 L 887,-1449 L 886,-1449 L 886,-1450 L 885,-1450 L 885,-1451 L 884,-1451 L 884,-1452 L 883,-1452 L 883,-1453 L 883,-1454 L 883,-1455 L 882,-1455 L 882,-1456 L 881,-1456 L 881,-1457 L 880,-1457 L 879,-1457 L 878,-1457 L 878,-1458 L 877,-1458 L 876,-1458 L 876,-1459 L 875,-1459 L 875,-1460 L 874,-1460 L 874,-1461 L 873,-1461 L 872,-1461 L 873,-1461 L 873,-1462 L 873,-1463 L 872,-1463 L 872,-1464 L 873,-1464 L 873,-1465 L 872,-1465 L 872,-1466 L 871,-1466 L 870,-1466 L 870,-1467 L 870,-1468 L 870,-1469 L 869,-1469 L 868,-1469 L 867,-1469 L 867,-1470 L 867,-1471 L 866,-1471 L 866,-1472 L 866,-1473 L 866,-1474 L 867,-1475 L 866,-1475 L 866,-1476 L 865,-1476 L 864,-1476 L 864,-1477 L 864,-1478 L 864,-1479 L 863,-1479 L 863,-1480 L 863,-1481 L 864,-1481 L 864,-1482 L 864,-1483 L 863,-1483 L 863,-1484 L 863,-1485 L 864,-1485 L 864,-1486 L 863,-1486 L 862,-1486 L 861,-1486 L 861,-1487 L 861,-1488 L 862,-1488 L 863,-1488 L 863,-1489 L 864,-1489 L 864,-1490 L 864,-1491 L 863,-1491 L 862,-1491 L 862,-1492 L 861,-1492 L 862,-1493 L 862,-1494 L 862,-1495 L 861,-1495 L 862,-1495 L 862,-1496 L 863,-1496 L 863,-1497 L 862,-1498 L 862,-1499 L 862,-1500 L 863,-1500 L 863,-1501 L 862,-1501 L 862,-1502 L 862,-1503 L 863,-1503 L 863,-1504 L 864,-1504 L 865,-1505 L 864,-1505 L 863,-1505 L 862,-1505 L 862,-1506 L 862,-1507 L 863,-1507 L 864,-1507 L 864,-1506 L 864,-1507 L 865,-1507 L 865,-1508 L 864,-1508 L 864,-1509 L 865,-1509 L 865,-1510 L 864,-1510 L 864,-1511 L 863,-1511 L 863,-1512 L 864,-1512 L 864,-1513 L 865,-1513 L 864,-1513 L 864,-1514 L 864,-1515 L 864,-1516 L 864,-1517 L 864,-1518 L 864,-1519 L 864,-1520 L 864,-1521 L 865,-1521 L 865,-1522 L 865,-1523 L 864,-1524 L 863,-1524 L 863,-1525 L 862,-1525 L 863,-1525 L 863,-1526 L 862,-1526 L 862,-1527 L 862,-1528 L 863,-1528 L 863,-1529 L 863,-1530 L 863,-1531 L 863,-1532 L 862,-1532 L 862,-1533 L 863,-1533 L 863,-1534 L 863,-1535 L 863,-1536 L 862,-1536 L 861,-1536 L 860,-1536 L 859,-1536 L 859,-1537 L 859,-1538 L 859,-1539 L 858,-1539 L 858,-1540 L 859,-1540 L 859,-1541 L 858,-1541 L 858,-1542 L 858,-1543 L 859,-1543 L 858,-1543 L 858,-1544 L 857,-1544 L 857,-1543 L 856,-1543 L 856,-1544 L 856,-1543 L 856,-1544 L 856,-1545 L 855,-1545 L 854,-1545 L 853,-1545 L 852,-1545 L 851,-1545 L 852,-1545 L 852,-1546 L 851,-1546 L 850,-1546 L 850,-1547 L 849,-1547 L 849,-1548 L 848,-1548 L 848,-1549 L 847,-1549 L 848,-1549 L 847,-1550 L 846,-1550 L 846,-1549 L 845,-1549 L 845,-1550 L 845,-1551 L 845,-1552 L 845,-1553 L 844,-1552 L 843,-1552 L 842,-1552 L 841,-1553 L 839,-1553 L 838,-1554 L 837,-1554 L 835,-1555 L 834,-1556 L 833,-1556 L 832,-1558 L 831,-1560 L 829,-1564 L 829,-1566 L 829,-1568 L 830,-1570 L 831,-1571 L 832,-1573 L 833,-1575 L 835,-1575 L 836,-1574 L 836,-1573 L 836,-1572 L 835,-1571 L 834,-1570 L 833,-1569 L 833,-1568 L 833,-1567 L 833,-1565 L 835,-1564 " /></g>
</svg>
