<?xml version="1.0" standalone="no"?><!DOCTYPE svg PUBLIC "-//W3C//DTD SVG 1.1//EN" "http://www.w3.org/Graphics/SVG/1.1/DTD/svg11.dtd"><svg xmlns="http://www.w3.org/2000/svg" viewBox="807 -1383 293 539" version = "1.1">
<g id="80702" ><path d="M 1059,-1381 L 1060,-1380 L 1060,-1379 L 1061,-1378 L 1062,-1378 L 1062,-1377 L 1063,-1376 L 1064,-1376 L 1064,-1375 L 1063,-1375 L 1063,-1374 L 1063,-1373 L 1062,-1373 L 1061,-1373 L 1061,-1372 L 1062,-1372 L 1063,-1372 L 1064,-1372 L 1064,-1371 L 1063,-1371 L 1063,-1370 L 1063,-1369 L 1062,-1369 L 1062,-1368 L 1062,-1367 L 1063,-1368 L 1064,-1368 L 1064,-1367 L 1064,-1366 L 1064,-1365 L 1065,-1365 L 1065,-1366 L 1065,-1367 L 1065,-1368 L 1066,-1368 L 1067,-1367 L 1067,-1366 L 1066,-1365 L 1066,-1364 L 1067,-1364 L 1068,-1365 L 1068,-1366 L 1069,-1366 L 1070,-1366 L 1070,-1365 L 1070,-1364 L 1070,-1363 L 1071,-1363 L 1071,-1362 L 1072,-1362 L 1073,-1361 L 1074,-1361 L 1074,-1360 L 1075,-1359 L 1075,-1358 L 1075,-1357 L 1074,-1356 L 1073,-1356 L 1073,-1357 L 1072,-1357 L 1071,-1356 L 1071,-1355 L 1071,-1354 L 1072,-1354 L 1073,-1354 L 1074,-1354 L 1073,-1354 L 1073,-1353 L 1072,-1353 L 1072,-1352 L 1072,-1351 L 1071,-1351 L 1071,-1350 L 1070,-1350 L 1070,-1349 L 1069,-1349 L 1069,-1348 L 1069,-1347 L 1069,-1346 L 1070,-1347 L 1071,-1347 L 1072,-1347 L 1072,-1348 L 1073,-1347 L 1073,-1346 L 1074,-1346 L 1075,-1346 L 1075,-1345 L 1074,-1345 L 1074,-1344 L 1073,-1344 L 1072,-1344 L 1072,-1345 L 1071,-1344 L 1070,-1344 L 1070,-1343 L 1071,-1343 L 1072,-1342 L 1072,-1341 L 1071,-1341 L 1071,-1340 L 1071,-1339 L 1071,-1340 L 1072,-1340 L 1073,-1340 L 1073,-1341 L 1074,-1341 L 1074,-1342 L 1075,-1342 L 1075,-1343 L 1076,-1344 L 1077,-1344 L 1077,-1345 L 1077,-1346 L 1078,-1347 L 1079,-1347 L 1079,-1346 L 1079,-1347 L 1080,-1347 L 1081,-1347 L 1082,-1346 L 1082,-1345 L 1081,-1345 L 1080,-1344 L 1079,-1345 L 1078,-1345 L 1078,-1344 L 1078,-1343 L 1079,-1343 L 1080,-1343 L 1081,-1343 L 1081,-1342 L 1081,-1341 L 1081,-1340 L 1082,-1340 L 1083,-1340 L 1084,-1340 L 1084,-1339 L 1085,-1339 L 1085,-1338 L 1086,-1338 L 1086,-1337 L 1085,-1337 L 1085,-1336 L 1084,-1335 L 1083,-1335 L 1083,-1336 L 1082,-1336 L 1081,-1336 L 1081,-1335 L 1082,-1335 L 1082,-1334 L 1083,-1334 L 1084,-1334 L 1084,-1333 L 1084,-1332 L 1085,-1332 L 1086,-1332 L 1086,-1331 L 1086,-1330 L 1087,-1330 L 1086,-1330 L 1086,-1329 L 1086,-1330 L 1085,-1330 L 1084,-1330 L 1084,-1331 L 1083,-1331 L 1083,-1332 L 1082,-1332 L 1082,-1331 L 1081,-1331 L 1082,-1331 L 1082,-1330 L 1082,-1329 L 1082,-1328 L 1081,-1328 L 1080,-1328 L 1079,-1328 L 1079,-1329 L 1079,-1330 L 1080,-1330 L 1080,-1331 L 1081,-1331 L 1080,-1332 L 1079,-1332 L 1079,-1333 L 1079,-1334 L 1078,-1334 L 1078,-1335 L 1078,-1336 L 1078,-1337 L 1078,-1338 L 1077,-1338 L 1077,-1337 L 1077,-1336 L 1076,-1336 L 1075,-1336 L 1074,-1335 L 1075,-1335 L 1075,-1334 L 1074,-1333 L 1075,-1333 L 1075,-1332 L 1074,-1332 L 1074,-1331 L 1074,-1330 L 1074,-1331 L 1075,-1331 L 1076,-1331 L 1076,-1330 L 1077,-1330 L 1076,-1330 L 1077,-1329 L 1078,-1329 L 1077,-1329 L 1077,-1328 L 1078,-1327 L 1078,-1326 L 1078,-1325 L 1078,-1324 L 1078,-1323 L 1078,-1322 L 1079,-1322 L 1079,-1323 L 1080,-1323 L 1081,-1323 L 1080,-1323 L 1080,-1322 L 1081,-1322 L 1081,-1321 L 1081,-1322 L 1082,-1322 L 1083,-1322 L 1084,-1322 L 1084,-1323 L 1084,-1324 L 1085,-1324 L 1086,-1324 L 1086,-1323 L 1085,-1322 L 1085,-1321 L 1085,-1320 L 1085,-1319 L 1085,-1318 L 1084,-1318 L 1084,-1317 L 1085,-1317 L 1086,-1316 L 1087,-1317 L 1087,-1318 L 1088,-1318 L 1089,-1319 L 1090,-1319 L 1090,-1318 L 1091,-1318 L 1091,-1317 L 1090,-1317 L 1090,-1316 L 1090,-1317 L 1089,-1317 L 1089,-1316 L 1088,-1316 L 1087,-1315 L 1086,-1315 L 1085,-1315 L 1084,-1315 L 1083,-1315 L 1082,-1314 L 1081,-1314 L 1080,-1314 L 1080,-1313 L 1081,-1313 L 1081,-1312 L 1081,-1311 L 1082,-1311 L 1083,-1311 L 1084,-1311 L 1085,-1311 L 1086,-1311 L 1086,-1310 L 1086,-1309 L 1085,-1309 L 1085,-1308 L 1086,-1307 L 1086,-1306 L 1086,-1305 L 1087,-1304 L 1087,-1303 L 1088,-1302 L 1088,-1301 L 1087,-1301 L 1086,-1301 L 1086,-1302 L 1085,-1303 L 1084,-1304 L 1084,-1303 L 1084,-1302 L 1084,-1301 L 1084,-1300 L 1085,-1300 L 1085,-1299 L 1085,-1298 L 1085,-1297 L 1085,-1296 L 1086,-1296 L 1087,-1296 L 1088,-1296 L 1089,-1296 L 1089,-1295 L 1089,-1294 L 1089,-1293 L 1089,-1292 L 1088,-1291 L 1088,-1290 L 1089,-1290 L 1090,-1291 L 1090,-1292 L 1091,-1292 L 1091,-1291 L 1092,-1291 L 1092,-1292 L 1093,-1292 L 1093,-1291 L 1093,-1290 L 1092,-1289 L 1091,-1289 L 1091,-1288 L 1090,-1288 L 1091,-1288 L 1091,-1287 L 1092,-1287 L 1093,-1287 L 1094,-1287 L 1095,-1287 L 1096,-1287 L 1096,-1286 L 1097,-1286 L 1098,-1286 L 1098,-1287 L 1098,-1286 L 1099,-1285 L 1100,-1285 L 1099,-1285 L 1099,-1284 L 1099,-1283 L 1098,-1283 L 1098,-1284 L 1097,-1284 L 1097,-1283 L 1096,-1283 L 1097,-1282 L 1096,-1282 L 1095,-1282 L 1094,-1282 L 1094,-1281 L 1094,-1280 L 1093,-1280 L 1092,-1280 L 1091,-1280 L 1091,-1279 L 1090,-1280 L 1090,-1279 L 1089,-1279 L 1088,-1279 L 1089,-1279 L 1089,-1278 L 1088,-1278 L 1088,-1277 L 1087,-1277 L 1087,-1278 L 1087,-1277 L 1086,-1277 L 1086,-1278 L 1085,-1278 L 1084,-1278 L 1084,-1277 L 1083,-1277 L 1084,-1277 L 1083,-1277 L 1083,-1276 L 1084,-1276 L 1084,-1275 L 1084,-1274 L 1083,-1274 L 1083,-1273 L 1082,-1273 L 1082,-1274 L 1081,-1274 L 1080,-1274 L 1079,-1274 L 1079,-1273 L 1080,-1273 L 1080,-1272 L 1081,-1272 L 1082,-1272 L 1083,-1272 L 1083,-1271 L 1083,-1270 L 1084,-1270 L 1084,-1269 L 1085,-1269 L 1085,-1268 L 1086,-1268 L 1085,-1268 L 1085,-1267 L 1086,-1267 L 1086,-1266 L 1085,-1266 L 1085,-1265 L 1085,-1266 L 1085,-1265 L 1084,-1265 L 1084,-1264 L 1084,-1265 L 1085,-1265 L 1085,-1264 L 1085,-1263 L 1086,-1263 L 1086,-1262 L 1086,-1261 L 1085,-1261 L 1085,-1262 L 1085,-1261 L 1086,-1261 L 1085,-1261 L 1085,-1260 L 1084,-1260 L 1084,-1259 L 1084,-1258 L 1084,-1257 L 1083,-1257 L 1083,-1256 L 1084,-1256 L 1083,-1256 L 1082,-1256 L 1082,-1255 L 1082,-1254 L 1081,-1253 L 1082,-1253 L 1083,-1253 L 1083,-1252 L 1084,-1252 L 1084,-1251 L 1085,-1251 L 1086,-1251 L 1087,-1251 L 1087,-1250 L 1088,-1250 L 1087,-1251 L 1088,-1251 L 1088,-1250 L 1088,-1249 L 1089,-1249 L 1088,-1249 L 1088,-1248 L 1089,-1248 L 1089,-1247 L 1088,-1247 L 1088,-1246 L 1088,-1245 L 1088,-1244 L 1088,-1243 L 1087,-1243 L 1088,-1243 L 1088,-1242 L 1087,-1242 L 1087,-1241 L 1088,-1241 L 1088,-1240 L 1087,-1240 L 1087,-1239 L 1087,-1238 L 1087,-1237 L 1088,-1237 L 1087,-1237 L 1088,-1237 L 1088,-1236 L 1088,-1235 L 1088,-1234 L 1089,-1234 L 1089,-1233 L 1090,-1233 L 1089,-1233 L 1089,-1232 L 1090,-1232 L 1090,-1231 L 1090,-1230 L 1091,-1230 L 1091,-1229 L 1091,-1228 L 1091,-1227 L 1091,-1226 L 1091,-1225 L 1092,-1224 L 1092,-1223 L 1093,-1223 L 1093,-1222 L 1093,-1221 L 1094,-1221 L 1094,-1220 L 1095,-1219 L 1096,-1219 L 1096,-1218 L 1097,-1218 L 1097,-1217 L 1098,-1217 L 1098,-1216 L 1098,-1215 L 1098,-1214 L 1097,-1214 L 1097,-1213 L 1096,-1213 L 1097,-1212 L 1097,-1211 L 1097,-1210 L 1098,-1209 L 1099,-1208 L 1098,-1208 L 1099,-1208 L 1099,-1207 L 1099,-1206 L 1099,-1205 L 1099,-1204 L 1099,-1203 L 1098,-1203 L 1097,-1203 L 1097,-1202 L 1097,-1201 L 1096,-1201 L 1096,-1200 L 1096,-1199 L 1097,-1199 L 1098,-1198 L 1098,-1197 L 1098,-1196 L 1098,-1195 L 1099,-1195 L 1098,-1194 L 1098,-1193 L 1098,-1192 L 1098,-1191 L 1098,-1190 L 1098,-1189 L 1097,-1189 L 1097,-1188 L 1097,-1187 L 1097,-1186 L 1098,-1185 L 1097,-1184 L 1097,-1183 L 1097,-1182 L 1097,-1181 L 1096,-1181 L 1096,-1180 L 1095,-1180 L 1095,-1179 L 1094,-1179 L 1093,-1178 L 1092,-1177 L 1091,-1177 L 1090,-1176 L 1089,-1176 L 1089,-1175 L 1088,-1175 L 1087,-1175 L 1087,-1174 L 1086,-1174 L 1086,-1173 L 1086,-1172 L 1087,-1172 L 1087,-1171 L 1088,-1171 L 1088,-1170 L 1088,-1169 L 1088,-1168 L 1087,-1167 L 1087,-1166 L 1086,-1166 L 1085,-1166 L 1084,-1166 L 1084,-1167 L 1083,-1167 L 1082,-1168 L 1081,-1168 L 1081,-1169 L 1081,-1168 L 1081,-1167 L 1081,-1166 L 1081,-1165 L 1081,-1164 L 1081,-1163 L 1082,-1163 L 1082,-1162 L 1082,-1161 L 1083,-1161 L 1083,-1160 L 1082,-1160 L 1082,-1161 L 1081,-1161 L 1082,-1161 L 1082,-1159 L 1082,-1158 L 1081,-1158 L 1080,-1157 L 1079,-1157 L 1078,-1157 L 1077,-1156 L 1078,-1156 L 1079,-1156 L 1080,-1156 L 1081,-1156 L 1082,-1156 L 1082,-1155 L 1083,-1154 L 1083,-1153 L 1083,-1152 L 1083,-1151 L 1083,-1150 L 1083,-1149 L 1082,-1149 L 1081,-1150 L 1080,-1151 L 1080,-1152 L 1080,-1153 L 1081,-1154 L 1080,-1155 L 1079,-1155 L 1079,-1154 L 1079,-1153 L 1078,-1152 L 1078,-1151 L 1077,-1150 L 1077,-1149 L 1077,-1148 L 1076,-1147 L 1076,-1146 L 1076,-1145 L 1076,-1144 L 1077,-1144 L 1078,-1145 L 1079,-1145 L 1080,-1145 L 1081,-1145 L 1082,-1145 L 1082,-1144 L 1081,-1142 L 1080,-1141 L 1079,-1140 L 1078,-1139 L 1077,-1139 L 1076,-1138 L 1075,-1138 L 1074,-1138 L 1073,-1138 L 1072,-1138 L 1072,-1137 L 1071,-1137 L 1071,-1136 L 1071,-1135 L 1070,-1134 L 1070,-1133 L 1070,-1132 L 1071,-1130 L 1071,-1129 L 1071,-1128 L 1071,-1127 L 1070,-1127 L 1069,-1126 L 1069,-1125 L 1068,-1124 L 1068,-1122 L 1068,-1121 L 1067,-1121 L 1066,-1121 L 1065,-1120 L 1064,-1119 L 1063,-1119 L 1063,-1118 L 1063,-1117 L 1064,-1116 L 1064,-1115 L 1064,-1114 L 1064,-1113 L 1064,-1112 L 1064,-1111 L 1063,-1111 L 1062,-1111 L 1061,-1111 L 1060,-1111 L 1059,-1111 L 1058,-1110 L 1058,-1109 L 1057,-1109 L 1056,-1108 L 1056,-1107 L 1056,-1106 L 1056,-1105 L 1057,-1104 L 1057,-1103 L 1056,-1099 L 1057,-1078 L 1053,-844 L 818,-887 L 810,-887 L 810,-888 L 809,-889 L 809,-891 L 808,-892 L 807,-894 L 807,-895 L 808,-897 L 808,-898 L 807,-899 L 811,-900 L 820,-901 L 821,-902 L 822,-902 L 823,-902 L 824,-902 L 824,-903 L 824,-904 L 823,-904 L 822,-904 L 822,-905 L 822,-906 L 823,-906 L 824,-906 L 824,-907 L 825,-907 L 825,-908 L 825,-909 L 826,-910 L 826,-909 L 827,-910 L 828,-910 L 828,-911 L 828,-912 L 828,-913 L 827,-914 L 826,-914 L 826,-915 L 825,-915 L 825,-916 L 825,-917 L 826,-917 L 827,-917 L 828,-917 L 828,-918 L 829,-918 L 829,-919 L 830,-919 L 831,-919 L 831,-920 L 832,-920 L 832,-921 L 832,-922 L 833,-922 L 834,-922 L 834,-923 L 835,-923 L 835,-922 L 836,-922 L 836,-923 L 836,-924 L 835,-924 L 835,-925 L 835,-926 L 834,-926 L 833,-926 L 832,-926 L 832,-927 L 831,-927 L 831,-928 L 831,-929 L 831,-930 L 832,-931 L 832,-932 L 832,-933 L 832,-934 L 832,-935 L 832,-936 L 832,-937 L 831,-936 L 830,-937 L 830,-938 L 830,-939 L 831,-940 L 832,-941 L 832,-943 L 831,-943 L 830,-944 L 830,-945 L 831,-945 L 832,-945 L 833,-945 L 834,-944 L 835,-944 L 835,-945 L 835,-946 L 835,-947 L 834,-947 L 833,-947 L 832,-947 L 832,-948 L 833,-948 L 833,-949 L 834,-950 L 834,-951 L 834,-952 L 835,-953 L 835,-954 L 836,-955 L 837,-956 L 837,-957 L 837,-958 L 837,-959 L 836,-960 L 835,-960 L 834,-960 L 834,-961 L 835,-962 L 836,-962 L 837,-963 L 838,-964 L 836,-964 L 836,-965 L 835,-965 L 836,-966 L 837,-966 L 838,-967 L 838,-968 L 838,-969 L 838,-970 L 837,-971 L 837,-972 L 836,-974 L 836,-975 L 837,-975 L 838,-975 L 839,-976 L 839,-975 L 840,-976 L 839,-976 L 838,-976 L 837,-977 L 836,-976 L 835,-976 L 835,-977 L 835,-978 L 836,-979 L 837,-981 L 838,-982 L 838,-984 L 838,-985 L 838,-986 L 838,-987 L 839,-988 L 840,-988 L 841,-989 L 842,-989 L 843,-989 L 845,-989 L 846,-989 L 847,-989 L 848,-989 L 849,-989 L 849,-988 L 850,-988 L 851,-988 L 851,-989 L 852,-989 L 852,-990 L 853,-990 L 853,-991 L 854,-991 L 855,-991 L 856,-991 L 857,-991 L 857,-990 L 858,-990 L 858,-991 L 859,-991 L 859,-992 L 859,-993 L 860,-993 L 860,-994 L 861,-995 L 861,-996 L 861,-997 L 861,-998 L 860,-998 L 859,-998 L 858,-998 L 858,-997 L 858,-998 L 858,-999 L 859,-999 L 859,-1000 L 860,-1000 L 860,-1001 L 861,-1001 L 861,-1002 L 860,-1002 L 859,-1002 L 858,-1002 L 857,-1002 L 856,-1002 L 856,-1003 L 855,-1003 L 855,-1004 L 855,-1005 L 856,-1005 L 856,-1006 L 857,-1006 L 857,-1007 L 856,-1007 L 857,-1007 L 858,-1007 L 858,-1008 L 859,-1008 L 859,-1009 L 860,-1009 L 860,-1010 L 859,-1010 L 858,-1010 L 857,-1010 L 857,-1011 L 858,-1012 L 858,-1013 L 858,-1014 L 857,-1014 L 857,-1015 L 856,-1015 L 856,-1016 L 855,-1016 L 855,-1017 L 854,-1017 L 854,-1016 L 854,-1015 L 853,-1015 L 853,-1016 L 853,-1017 L 853,-1018 L 853,-1019 L 853,-1020 L 852,-1020 L 851,-1020 L 851,-1019 L 850,-1020 L 850,-1021 L 850,-1022 L 850,-1023 L 851,-1024 L 851,-1025 L 852,-1025 L 853,-1025 L 854,-1025 L 855,-1025 L 856,-1025 L 857,-1025 L 857,-1024 L 858,-1024 L 859,-1024 L 860,-1024 L 861,-1024 L 862,-1025 L 862,-1026 L 862,-1027 L 863,-1028 L 864,-1028 L 865,-1028 L 866,-1028 L 866,-1029 L 867,-1029 L 868,-1029 L 868,-1028 L 869,-1028 L 869,-1029 L 869,-1030 L 870,-1030 L 871,-1030 L 872,-1030 L 873,-1030 L 873,-1031 L 874,-1031 L 874,-1032 L 873,-1032 L 873,-1033 L 872,-1033 L 871,-1033 L 870,-1033 L 870,-1034 L 870,-1035 L 871,-1035 L 872,-1035 L 873,-1035 L 874,-1035 L 875,-1035 L 875,-1036 L 874,-1036 L 874,-1037 L 873,-1037 L 873,-1038 L 873,-1039 L 872,-1039 L 872,-1040 L 872,-1041 L 872,-1042 L 872,-1043 L 872,-1044 L 872,-1045 L 873,-1045 L 873,-1046 L 873,-1047 L 874,-1047 L 874,-1048 L 873,-1048 L 872,-1048 L 872,-1047 L 871,-1047 L 871,-1048 L 871,-1049 L 870,-1049 L 870,-1050 L 869,-1050 L 869,-1051 L 869,-1052 L 869,-1053 L 870,-1053 L 871,-1053 L 872,-1053 L 872,-1054 L 873,-1054 L 874,-1054 L 874,-1055 L 874,-1056 L 873,-1056 L 872,-1056 L 871,-1056 L 870,-1056 L 870,-1057 L 870,-1058 L 871,-1058 L 871,-1059 L 872,-1059 L 873,-1059 L 873,-1060 L 874,-1060 L 875,-1060 L 876,-1060 L 876,-1059 L 877,-1059 L 878,-1059 L 879,-1059 L 880,-1059 L 880,-1060 L 881,-1060 L 881,-1061 L 881,-1062 L 881,-1063 L 881,-1064 L 882,-1064 L 882,-1065 L 883,-1065 L 883,-1066 L 884,-1066 L 885,-1066 L 885,-1067 L 884,-1067 L 883,-1067 L 883,-1068 L 882,-1068 L 881,-1068 L 881,-1069 L 880,-1069 L 879,-1069 L 878,-1069 L 878,-1070 L 877,-1070 L 877,-1071 L 878,-1071 L 878,-1072 L 879,-1072 L 880,-1072 L 881,-1073 L 882,-1073 L 882,-1074 L 883,-1074 L 883,-1075 L 884,-1075 L 885,-1075 L 885,-1076 L 886,-1076 L 887,-1076 L 887,-1075 L 886,-1075 L 886,-1074 L 887,-1074 L 887,-1073 L 887,-1072 L 887,-1071 L 887,-1072 L 888,-1072 L 889,-1072 L 889,-1073 L 889,-1074 L 890,-1074 L 890,-1075 L 890,-1076 L 890,-1077 L 890,-1078 L 890,-1079 L 891,-1079 L 891,-1080 L 890,-1080 L 890,-1081 L 891,-1081 L 891,-1082 L 891,-1083 L 891,-1084 L 891,-1085 L 890,-1085 L 889,-1086 L 890,-1087 L 891,-1088 L 891,-1089 L 890,-1089 L 889,-1089 L 888,-1089 L 888,-1090 L 887,-1090 L 887,-1091 L 887,-1092 L 888,-1092 L 888,-1093 L 889,-1093 L 890,-1093 L 890,-1094 L 891,-1094 L 892,-1094 L 892,-1095 L 893,-1095 L 894,-1095 L 894,-1096 L 895,-1096 L 895,-1097 L 896,-1097 L 896,-1098 L 897,-1098 L 897,-1099 L 897,-1100 L 897,-1101 L 898,-1101 L 898,-1102 L 899,-1102 L 899,-1101 L 900,-1101 L 899,-1101 L 899,-1100 L 900,-1100 L 900,-1099 L 901,-1099 L 901,-1100 L 902,-1100 L 902,-1101 L 901,-1101 L 901,-1102 L 900,-1102 L 900,-1103 L 899,-1103 L 898,-1103 L 898,-1104 L 897,-1104 L 897,-1105 L 897,-1106 L 898,-1106 L 898,-1107 L 898,-1108 L 899,-1108 L 900,-1108 L 900,-1107 L 901,-1107 L 902,-1108 L 903,-1108 L 904,-1108 L 905,-1108 L 906,-1108 L 906,-1109 L 907,-1109 L 908,-1109 L 909,-1109 L 909,-1110 L 910,-1110 L 910,-1111 L 910,-1112 L 910,-1113 L 911,-1113 L 911,-1114 L 912,-1114 L 912,-1115 L 913,-1116 L 914,-1116 L 915,-1116 L 916,-1116 L 916,-1115 L 915,-1116 L 915,-1115 L 916,-1115 L 915,-1114 L 915,-1113 L 914,-1113 L 913,-1113 L 913,-1112 L 912,-1112 L 912,-1111 L 911,-1111 L 911,-1110 L 912,-1110 L 912,-1109 L 913,-1109 L 913,-1110 L 914,-1110 L 915,-1110 L 916,-1110 L 917,-1110 L 918,-1110 L 919,-1110 L 919,-1111 L 920,-1111 L 921,-1111 L 921,-1112 L 922,-1112 L 921,-1112 L 921,-1113 L 920,-1113 L 921,-1113 L 922,-1113 L 922,-1112 L 923,-1112 L 923,-1113 L 924,-1113 L 924,-1114 L 924,-1115 L 925,-1115 L 925,-1116 L 924,-1116 L 923,-1116 L 922,-1116 L 921,-1116 L 920,-1116 L 920,-1117 L 920,-1118 L 919,-1118 L 920,-1118 L 920,-1119 L 921,-1119 L 922,-1120 L 922,-1121 L 923,-1121 L 923,-1120 L 924,-1120 L 923,-1120 L 923,-1119 L 924,-1119 L 924,-1118 L 925,-1118 L 925,-1119 L 926,-1119 L 926,-1120 L 927,-1120 L 927,-1121 L 928,-1122 L 928,-1123 L 929,-1123 L 929,-1122 L 929,-1121 L 929,-1120 L 930,-1120 L 930,-1121 L 930,-1122 L 931,-1122 L 931,-1123 L 931,-1124 L 932,-1124 L 933,-1124 L 933,-1123 L 934,-1123 L 934,-1122 L 935,-1122 L 936,-1122 L 937,-1122 L 938,-1122 L 938,-1121 L 938,-1122 L 939,-1122 L 938,-1122 L 938,-1123 L 938,-1124 L 939,-1124 L 940,-1124 L 941,-1124 L 942,-1124 L 943,-1124 L 943,-1125 L 943,-1126 L 942,-1126 L 942,-1127 L 941,-1127 L 942,-1127 L 943,-1127 L 944,-1127 L 944,-1126 L 945,-1126 L 945,-1127 L 946,-1127 L 946,-1126 L 946,-1127 L 946,-1128 L 946,-1129 L 946,-1130 L 947,-1130 L 947,-1129 L 947,-1130 L 948,-1130 L 948,-1131 L 948,-1130 L 949,-1130 L 949,-1131 L 949,-1132 L 950,-1132 L 949,-1132 L 948,-1132 L 948,-1133 L 947,-1133 L 947,-1134 L 947,-1135 L 946,-1135 L 946,-1136 L 947,-1136 L 948,-1136 L 947,-1136 L 948,-1135 L 948,-1136 L 949,-1136 L 950,-1136 L 951,-1136 L 952,-1136 L 952,-1135 L 951,-1135 L 951,-1134 L 952,-1134 L 951,-1134 L 951,-1133 L 952,-1133 L 952,-1134 L 952,-1133 L 953,-1133 L 953,-1134 L 953,-1133 L 954,-1133 L 955,-1133 L 956,-1133 L 956,-1134 L 957,-1134 L 957,-1135 L 957,-1136 L 958,-1137 L 958,-1138 L 959,-1138 L 959,-1139 L 959,-1140 L 960,-1140 L 960,-1141 L 960,-1142 L 960,-1143 L 959,-1143 L 959,-1144 L 958,-1144 L 958,-1143 L 958,-1144 L 958,-1143 L 958,-1142 L 957,-1142 L 957,-1143 L 957,-1142 L 956,-1142 L 956,-1141 L 956,-1142 L 955,-1142 L 955,-1143 L 955,-1144 L 956,-1144 L 956,-1145 L 956,-1146 L 955,-1146 L 956,-1146 L 956,-1147 L 957,-1147 L 958,-1147 L 958,-1146 L 957,-1146 L 958,-1146 L 959,-1146 L 958,-1146 L 959,-1145 L 959,-1146 L 960,-1146 L 960,-1147 L 961,-1147 L 961,-1146 L 961,-1147 L 962,-1147 L 961,-1147 L 961,-1148 L 960,-1149 L 960,-1148 L 960,-1149 L 960,-1150 L 959,-1150 L 958,-1150 L 958,-1151 L 959,-1151 L 959,-1152 L 960,-1151 L 960,-1152 L 961,-1152 L 960,-1152 L 961,-1152 L 961,-1153 L 961,-1152 L 962,-1153 L 961,-1153 L 962,-1153 L 963,-1153 L 964,-1153 L 964,-1154 L 964,-1155 L 963,-1155 L 963,-1156 L 963,-1157 L 964,-1157 L 964,-1158 L 965,-1158 L 965,-1159 L 964,-1159 L 963,-1159 L 962,-1159 L 961,-1159 L 960,-1159 L 959,-1159 L 959,-1160 L 959,-1161 L 958,-1161 L 958,-1162 L 958,-1163 L 958,-1164 L 959,-1164 L 959,-1165 L 960,-1165 L 960,-1164 L 961,-1164 L 962,-1163 L 963,-1163 L 964,-1163 L 964,-1164 L 963,-1164 L 963,-1165 L 963,-1166 L 962,-1167 L 962,-1168 L 961,-1168 L 961,-1169 L 960,-1169 L 960,-1170 L 960,-1171 L 959,-1171 L 959,-1172 L 959,-1173 L 960,-1173 L 961,-1173 L 960,-1173 L 959,-1173 L 958,-1173 L 958,-1172 L 957,-1172 L 957,-1171 L 957,-1170 L 956,-1170 L 956,-1171 L 955,-1171 L 955,-1172 L 955,-1173 L 955,-1174 L 955,-1175 L 955,-1176 L 955,-1177 L 955,-1178 L 956,-1178 L 957,-1179 L 957,-1180 L 956,-1181 L 957,-1182 L 958,-1182 L 958,-1181 L 959,-1181 L 959,-1182 L 959,-1183 L 959,-1184 L 958,-1184 L 957,-1184 L 957,-1183 L 956,-1183 L 956,-1184 L 956,-1185 L 956,-1186 L 957,-1186 L 958,-1186 L 958,-1185 L 959,-1185 L 960,-1185 L 960,-1186 L 961,-1186 L 960,-1187 L 960,-1188 L 960,-1189 L 960,-1190 L 960,-1191 L 960,-1192 L 959,-1193 L 960,-1194 L 961,-1194 L 962,-1194 L 963,-1195 L 964,-1195 L 964,-1196 L 965,-1197 L 965,-1196 L 966,-1196 L 967,-1196 L 967,-1197 L 967,-1198 L 967,-1199 L 967,-1200 L 967,-1201 L 967,-1202 L 967,-1203 L 968,-1204 L 967,-1204 L 967,-1205 L 966,-1205 L 965,-1205 L 965,-1206 L 965,-1207 L 965,-1208 L 966,-1208 L 967,-1207 L 968,-1207 L 969,-1207 L 969,-1208 L 968,-1208 L 968,-1209 L 967,-1209 L 966,-1210 L 965,-1210 L 965,-1211 L 965,-1212 L 965,-1213 L 966,-1213 L 966,-1214 L 965,-1214 L 965,-1215 L 964,-1215 L 963,-1215 L 963,-1216 L 964,-1216 L 964,-1217 L 965,-1218 L 966,-1218 L 966,-1219 L 965,-1219 L 965,-1220 L 964,-1220 L 964,-1221 L 963,-1221 L 963,-1222 L 963,-1223 L 963,-1224 L 962,-1225 L 963,-1225 L 963,-1226 L 964,-1226 L 965,-1227 L 966,-1228 L 966,-1229 L 965,-1229 L 965,-1230 L 964,-1231 L 964,-1232 L 965,-1232 L 966,-1232 L 967,-1232 L 968,-1233 L 968,-1234 L 969,-1234 L 971,-1235 L 972,-1235 L 973,-1236 L 972,-1238 L 971,-1240 L 971,-1242 L 971,-1243 L 972,-1245 L 973,-1247 L 973,-1249 L 974,-1250 L 975,-1250 L 976,-1251 L 976,-1252 L 975,-1252 L 975,-1253 L 976,-1253 L 976,-1252 L 978,-1252 L 980,-1252 L 981,-1253 L 983,-1254 L 984,-1255 L 984,-1256 L 982,-1257 L 982,-1258 L 982,-1260 L 983,-1261 L 984,-1262 L 985,-1262 L 987,-1263 L 989,-1264 L 992,-1264 L 994,-1264 L 994,-1265 L 994,-1266 L 994,-1267 L 993,-1267 L 992,-1266 L 991,-1266 L 990,-1266 L 990,-1267 L 991,-1268 L 991,-1269 L 992,-1269 L 993,-1269 L 993,-1270 L 995,-1270 L 996,-1269 L 998,-1268 L 1001,-1268 L 1002,-1268 L 1003,-1268 L 1004,-1269 L 1005,-1269 L 1005,-1270 L 1006,-1271 L 1007,-1271 L 1008,-1272 L 1008,-1273 L 1007,-1275 L 1007,-1277 L 1007,-1278 L 1007,-1279 L 1006,-1280 L 1005,-1282 L 1004,-1283 L 1004,-1284 L 1004,-1286 L 1005,-1286 L 1006,-1288 L 1006,-1289 L 1006,-1290 L 1006,-1291 L 1007,-1292 L 1008,-1293 L 1008,-1294 L 1007,-1296 L 1007,-1297 L 1007,-1298 L 1007,-1300 L 1008,-1300 L 1009,-1301 L 1010,-1302 L 1012,-1303 L 1013,-1304 L 1014,-1304 L 1014,-1305 L 1015,-1306 L 1016,-1307 L 1017,-1307 L 1018,-1306 L 1020,-1306 L 1022,-1306 L 1022,-1307 L 1023,-1307 L 1022,-1308 L 1022,-1309 L 1023,-1309 L 1024,-1307 L 1025,-1307 L 1025,-1308 L 1026,-1310 L 1026,-1311 L 1026,-1312 L 1028,-1313 L 1030,-1313 L 1031,-1313 L 1032,-1314 L 1032,-1315 L 1032,-1316 L 1031,-1317 L 1032,-1318 L 1032,-1321 L 1033,-1322 L 1035,-1322 L 1037,-1322 L 1039,-1320 L 1041,-1320 L 1042,-1320 L 1043,-1321 L 1045,-1324 L 1046,-1325 L 1045,-1326 L 1045,-1328 L 1045,-1329 L 1046,-1329 L 1047,-1329 L 1048,-1329 L 1048,-1330 L 1047,-1331 L 1046,-1331 L 1043,-1332 L 1041,-1332 L 1039,-1332 L 1037,-1333 L 1036,-1333 L 1036,-1334 L 1036,-1335 L 1036,-1336 L 1035,-1336 L 1035,-1338 L 1035,-1339 L 1035,-1340 L 1035,-1341 L 1036,-1342 L 1037,-1343 L 1038,-1343 L 1039,-1343 L 1040,-1343 L 1041,-1343 L 1043,-1343 L 1044,-1343 L 1045,-1344 L 1046,-1344 L 1047,-1345 L 1047,-1346 L 1048,-1347 L 1048,-1348 L 1048,-1349 L 1049,-1350 L 1049,-1351 L 1049,-1352 L 1049,-1353 L 1048,-1353 L 1047,-1353 L 1046,-1353 L 1045,-1354 L 1044,-1354 L 1044,-1355 L 1043,-1355 L 1042,-1355 L 1041,-1355 L 1041,-1356 L 1040,-1357 L 1040,-1358 L 1040,-1359 L 1041,-1359 L 1041,-1360 L 1042,-1360 L 1043,-1360 L 1044,-1360 L 1045,-1360 L 1046,-1360 L 1047,-1360 L 1048,-1360 L 1049,-1360 L 1050,-1361 L 1051,-1362 L 1052,-1363 L 1053,-1364 L 1054,-1364 L 1055,-1365 L 1054,-1365 L 1054,-1366 L 1053,-1367 L 1053,-1368 L 1053,-1369 L 1053,-1370 L 1053,-1371 L 1054,-1372 L 1054,-1373 L 1054,-1374 L 1054,-1375 L 1054,-1376 L 1053,-1376 L 1053,-1377 L 1052,-1377 L 1051,-1377 L 1050,-1378 L 1050,-1379 L 1049,-1379 L 1049,-1380 L 1048,-1380 L 1048,-1379 L 1047,-1378 L 1047,-1377 L 1046,-1377 L 1045,-1377 L 1044,-1378 L 1044,-1379 L 1045,-1379 L 1045,-1381 L 1046,-1381 L 1047,-1381 L 1048,-1381 L 1049,-1381 L 1050,-1382 L 1050,-1381 L 1051,-1380 L 1052,-1380 L 1053,-1381 L 1054,-1381 L 1055,-1381 L 1056,-1381 L 1057,-1381 L 1058,-1381 L 1058,-1382 L 1057,-1382 L 1057,-1383 L 1057,-1382 L 1058,-1382 L 1059,-1381 " /></g>
</svg>
