<?xml version="1.0" standalone="no"?><!DOCTYPE svg PUBLIC "-//W3C//DTD SVG 1.1//EN" "http://www.w3.org/Graphics/SVG/1.1/DTD/svg11.dtd"><svg xmlns="http://www.w3.org/2000/svg" viewBox="1245 -1283 766 496" version = "1.1">
<g id="80802" ><path d="M 1522,-1281 L 1522,-1280 L 1522,-1278 L 1522,-1277 L 1523,-1277 L 1523,-1276 L 1524,-1276 L 1524,-1275 L 1525,-1275 L 1526,-1275 L 1526,-1276 L 1528,-1277 L 1529,-1279 L 1530,-1279 L 1531,-1279 L 1532,-1279 L 1533,-1279 L 1533,-1278 L 1533,-1277 L 1534,-1276 L 1534,-1275 L 1535,-1275 L 1535,-1276 L 1536,-1276 L 1536,-1277 L 1536,-1279 L 1537,-1280 L 1538,-1281 L 1539,-1281 L 1540,-1282 L 1541,-1282 L 1542,-1282 L 1543,-1281 L 1544,-1281 L 1545,-1281 L 1545,-1280 L 1546,-1279 L 1546,-1278 L 1547,-1278 L 1548,-1277 L 1549,-1277 L 1550,-1277 L 1551,-1277 L 1552,-1276 L 1553,-1276 L 1553,-1275 L 1553,-1274 L 1553,-1273 L 1553,-1272 L 1553,-1271 L 1553,-1270 L 1553,-1269 L 1553,-1268 L 1554,-1268 L 1555,-1267 L 1556,-1267 L 1556,-1266 L 1557,-1265 L 1557,-1264 L 1558,-1263 L 1559,-1261 L 1559,-1260 L 1559,-1259 L 1560,-1258 L 1561,-1258 L 1562,-1258 L 1563,-1258 L 1563,-1257 L 1564,-1257 L 1564,-1256 L 1565,-1256 L 1566,-1255 L 1567,-1255 L 1568,-1255 L 1569,-1254 L 1569,-1253 L 1569,-1252 L 1570,-1252 L 1569,-1251 L 1568,-1249 L 1567,-1249 L 1567,-1248 L 1567,-1247 L 1568,-1246 L 1568,-1245 L 1569,-1245 L 1570,-1245 L 1571,-1246 L 1572,-1247 L 1572,-1248 L 1573,-1249 L 1573,-1250 L 1574,-1250 L 1575,-1250 L 1576,-1250 L 1577,-1250 L 1578,-1250 L 1579,-1249 L 1580,-1249 L 1581,-1249 L 1581,-1248 L 1582,-1248 L 1582,-1247 L 1582,-1246 L 1582,-1245 L 1582,-1244 L 1581,-1243 L 1581,-1242 L 1581,-1241 L 1581,-1240 L 1581,-1239 L 1581,-1238 L 1582,-1237 L 1582,-1236 L 1582,-1235 L 1583,-1235 L 1584,-1234 L 1584,-1233 L 1585,-1232 L 1585,-1231 L 1585,-1230 L 1586,-1229 L 1587,-1229 L 1587,-1228 L 1588,-1228 L 1588,-1227 L 1589,-1227 L 1590,-1226 L 1590,-1225 L 1591,-1225 L 1592,-1225 L 1593,-1225 L 1594,-1224 L 1595,-1224 L 1596,-1223 L 1597,-1222 L 1598,-1222 L 1599,-1223 L 1599,-1224 L 1599,-1226 L 1600,-1227 L 1600,-1228 L 1601,-1229 L 1601,-1228 L 1602,-1228 L 1603,-1228 L 1603,-1227 L 1603,-1226 L 1603,-1225 L 1604,-1224 L 1605,-1223 L 1605,-1222 L 1605,-1221 L 1606,-1221 L 1607,-1221 L 1608,-1222 L 1609,-1223 L 1608,-1224 L 1608,-1226 L 1608,-1227 L 1609,-1228 L 1610,-1228 L 1611,-1228 L 1611,-1227 L 1612,-1227 L 1613,-1227 L 1614,-1227 L 1615,-1228 L 1616,-1228 L 1617,-1227 L 1618,-1227 L 1618,-1228 L 1618,-1229 L 1618,-1230 L 1619,-1231 L 1620,-1231 L 1621,-1231 L 1622,-1231 L 1623,-1231 L 1624,-1231 L 1625,-1231 L 1626,-1231 L 1626,-1232 L 1627,-1233 L 1628,-1234 L 1629,-1235 L 1629,-1236 L 1630,-1237 L 1631,-1238 L 1631,-1239 L 1632,-1239 L 1633,-1240 L 1634,-1240 L 1635,-1240 L 1635,-1239 L 1636,-1239 L 1636,-1238 L 1636,-1237 L 1635,-1236 L 1634,-1234 L 1633,-1234 L 1633,-1233 L 1633,-1231 L 1634,-1231 L 1635,-1231 L 1636,-1231 L 1637,-1232 L 1638,-1232 L 1639,-1232 L 1640,-1232 L 1640,-1231 L 1641,-1231 L 1641,-1230 L 1641,-1228 L 1641,-1227 L 1640,-1226 L 1640,-1225 L 1640,-1224 L 1641,-1224 L 1641,-1223 L 1642,-1223 L 1642,-1222 L 1643,-1222 L 1644,-1223 L 1645,-1223 L 1646,-1223 L 1646,-1224 L 1647,-1224 L 1648,-1225 L 1649,-1225 L 1649,-1224 L 1650,-1224 L 1651,-1224 L 1651,-1223 L 1651,-1222 L 1650,-1222 L 1649,-1222 L 1649,-1221 L 1648,-1221 L 1647,-1221 L 1647,-1220 L 1647,-1219 L 1646,-1219 L 1646,-1218 L 1646,-1217 L 1646,-1216 L 1646,-1215 L 1647,-1215 L 1647,-1214 L 1648,-1214 L 1649,-1213 L 1650,-1213 L 1650,-1212 L 1652,-1212 L 1653,-1212 L 1654,-1211 L 1655,-1211 L 1656,-1211 L 1657,-1210 L 1658,-1210 L 1658,-1209 L 1660,-1209 L 1661,-1208 L 1662,-1208 L 1663,-1207 L 1664,-1207 L 1665,-1207 L 1665,-1206 L 1666,-1206 L 1667,-1205 L 1668,-1204 L 1669,-1204 L 1670,-1203 L 1671,-1203 L 1672,-1203 L 1672,-1204 L 1673,-1204 L 1674,-1204 L 1675,-1205 L 1676,-1205 L 1676,-1206 L 1677,-1206 L 1678,-1205 L 1678,-1204 L 1679,-1204 L 1679,-1203 L 1680,-1203 L 1681,-1202 L 1682,-1201 L 1683,-1201 L 1684,-1201 L 1685,-1200 L 1685,-1201 L 1687,-1201 L 1689,-1202 L 1690,-1202 L 1690,-1203 L 1691,-1204 L 1690,-1206 L 1690,-1207 L 1690,-1208 L 1691,-1209 L 1692,-1209 L 1693,-1208 L 1694,-1207 L 1694,-1206 L 1694,-1204 L 1694,-1203 L 1694,-1202 L 1695,-1201 L 1696,-1202 L 1697,-1202 L 1698,-1202 L 1698,-1200 L 1699,-1199 L 1701,-1198 L 1701,-1199 L 1702,-1200 L 1703,-1201 L 1704,-1201 L 1705,-1201 L 1706,-1201 L 1707,-1200 L 1707,-1198 L 1706,-1197 L 1706,-1196 L 1707,-1194 L 1708,-1193 L 1710,-1191 L 1712,-1189 L 1712,-1188 L 1713,-1186 L 1713,-1185 L 1714,-1185 L 1715,-1185 L 1716,-1186 L 1716,-1188 L 1717,-1189 L 1718,-1190 L 1719,-1190 L 1720,-1189 L 1720,-1187 L 1719,-1186 L 1719,-1184 L 1720,-1183 L 1721,-1183 L 1722,-1183 L 1723,-1184 L 1724,-1184 L 1725,-1184 L 1725,-1183 L 1726,-1182 L 1727,-1181 L 1728,-1181 L 1729,-1181 L 1730,-1181 L 1731,-1181 L 1732,-1181 L 1733,-1180 L 1734,-1180 L 1735,-1180 L 1735,-1181 L 1736,-1182 L 1737,-1182 L 1738,-1182 L 1739,-1182 L 1739,-1181 L 1739,-1180 L 1738,-1180 L 1738,-1179 L 1738,-1178 L 1739,-1178 L 1740,-1178 L 1740,-1180 L 1741,-1181 L 1742,-1181 L 1743,-1181 L 1743,-1180 L 1743,-1179 L 1743,-1178 L 1744,-1178 L 1744,-1177 L 1745,-1177 L 1745,-1178 L 1745,-1179 L 1745,-1180 L 1745,-1182 L 1746,-1182 L 1746,-1183 L 1747,-1183 L 1748,-1183 L 1748,-1182 L 1749,-1182 L 1749,-1181 L 1750,-1181 L 1751,-1181 L 1751,-1180 L 1751,-1179 L 1752,-1178 L 1753,-1178 L 1754,-1178 L 1754,-1179 L 1754,-1180 L 1754,-1181 L 1755,-1181 L 1756,-1181 L 1757,-1180 L 1758,-1179 L 1758,-1178 L 1758,-1177 L 1759,-1176 L 1760,-1176 L 1760,-1175 L 1761,-1176 L 1761,-1177 L 1760,-1177 L 1760,-1178 L 1760,-1179 L 1761,-1179 L 1762,-1179 L 1763,-1178 L 1763,-1177 L 1764,-1177 L 1765,-1177 L 1765,-1178 L 1764,-1178 L 1763,-1178 L 1763,-1179 L 1764,-1179 L 1765,-1179 L 1766,-1179 L 1767,-1180 L 1769,-1180 L 1770,-1180 L 1771,-1180 L 1771,-1181 L 1771,-1182 L 1771,-1183 L 1771,-1184 L 1771,-1185 L 1771,-1186 L 1770,-1187 L 1770,-1188 L 1771,-1188 L 1771,-1189 L 1772,-1189 L 1773,-1189 L 1774,-1188 L 1775,-1188 L 1776,-1188 L 1777,-1188 L 1777,-1190 L 1778,-1190 L 1778,-1191 L 1780,-1191 L 1781,-1190 L 1782,-1190 L 1784,-1189 L 1784,-1187 L 1786,-1186 L 1786,-1183 L 1785,-1182 L 1785,-1181 L 1785,-1179 L 1786,-1177 L 1787,-1177 L 1788,-1177 L 1789,-1177 L 1790,-1178 L 1791,-1178 L 1792,-1179 L 1793,-1180 L 1793,-1181 L 1793,-1182 L 1792,-1183 L 1792,-1185 L 1791,-1186 L 1791,-1187 L 1791,-1188 L 1792,-1189 L 1793,-1190 L 1794,-1190 L 1795,-1190 L 1796,-1190 L 1797,-1190 L 1797,-1188 L 1797,-1187 L 1796,-1185 L 1796,-1184 L 1796,-1183 L 1797,-1182 L 1798,-1182 L 1798,-1181 L 1799,-1180 L 1800,-1179 L 1801,-1179 L 1802,-1178 L 1802,-1177 L 1802,-1176 L 1802,-1174 L 1803,-1174 L 1804,-1174 L 1805,-1175 L 1806,-1176 L 1806,-1177 L 1807,-1178 L 1808,-1178 L 1810,-1178 L 1811,-1178 L 1812,-1177 L 1813,-1176 L 1813,-1175 L 1814,-1173 L 1814,-1172 L 1813,-1170 L 1813,-1169 L 1813,-1168 L 1814,-1166 L 1814,-1165 L 1814,-1162 L 1814,-1159 L 1815,-1158 L 1816,-1155 L 1816,-1154 L 1816,-1153 L 1816,-1152 L 1816,-1151 L 1816,-1149 L 1816,-1148 L 1815,-1147 L 1816,-1146 L 1816,-1145 L 1816,-1144 L 1815,-1143 L 1814,-1142 L 1814,-1141 L 1815,-1141 L 1816,-1140 L 1816,-1139 L 1817,-1139 L 1817,-1138 L 1818,-1138 L 1819,-1138 L 1820,-1137 L 1820,-1136 L 1821,-1135 L 1821,-1134 L 1822,-1133 L 1823,-1134 L 1824,-1133 L 1825,-1134 L 1826,-1134 L 1827,-1133 L 1828,-1133 L 1829,-1133 L 1829,-1132 L 1829,-1131 L 1828,-1131 L 1828,-1130 L 1828,-1129 L 1829,-1129 L 1830,-1129 L 1830,-1130 L 1831,-1131 L 1832,-1132 L 1833,-1132 L 1833,-1131 L 1833,-1130 L 1833,-1129 L 1833,-1127 L 1833,-1126 L 1833,-1125 L 1833,-1124 L 1834,-1123 L 1835,-1123 L 1835,-1122 L 1836,-1122 L 1837,-1122 L 1838,-1121 L 1838,-1120 L 1839,-1119 L 1840,-1118 L 1841,-1117 L 1842,-1117 L 1843,-1117 L 1844,-1118 L 1845,-1118 L 1846,-1119 L 1846,-1118 L 1847,-1118 L 1847,-1117 L 1848,-1117 L 1848,-1116 L 1848,-1115 L 1848,-1114 L 1847,-1112 L 1847,-1111 L 1847,-1110 L 1848,-1109 L 1848,-1108 L 1849,-1107 L 1849,-1106 L 1850,-1106 L 1851,-1106 L 1851,-1105 L 1852,-1105 L 1852,-1104 L 1852,-1103 L 1853,-1103 L 1854,-1103 L 1855,-1103 L 1855,-1104 L 1854,-1105 L 1853,-1105 L 1852,-1106 L 1853,-1106 L 1854,-1106 L 1855,-1105 L 1856,-1105 L 1857,-1106 L 1858,-1106 L 1859,-1105 L 1860,-1105 L 1861,-1104 L 1862,-1103 L 1862,-1102 L 1862,-1101 L 1862,-1100 L 1862,-1099 L 1863,-1099 L 1864,-1099 L 1865,-1098 L 1865,-1097 L 1865,-1095 L 1863,-1094 L 1863,-1093 L 1863,-1092 L 1863,-1091 L 1864,-1091 L 1865,-1091 L 1866,-1091 L 1867,-1091 L 1868,-1091 L 1869,-1090 L 1869,-1089 L 1870,-1089 L 1871,-1089 L 1871,-1090 L 1872,-1091 L 1873,-1091 L 1874,-1091 L 1875,-1090 L 1875,-1088 L 1876,-1086 L 1876,-1085 L 1877,-1084 L 1879,-1084 L 1880,-1083 L 1881,-1083 L 1882,-1083 L 1882,-1082 L 1883,-1083 L 1884,-1083 L 1884,-1084 L 1885,-1084 L 1885,-1085 L 1886,-1085 L 1887,-1085 L 1888,-1083 L 1889,-1082 L 1890,-1081 L 1890,-1079 L 1891,-1077 L 1891,-1076 L 1891,-1073 L 1892,-1072 L 1893,-1070 L 1892,-1067 L 1892,-1065 L 1892,-1063 L 1892,-1062 L 1893,-1061 L 1893,-1060 L 1894,-1058 L 1895,-1057 L 1896,-1055 L 1896,-1053 L 1896,-1052 L 1898,-1050 L 1900,-1048 L 1901,-1048 L 1902,-1048 L 1903,-1048 L 1903,-1050 L 1904,-1051 L 1905,-1051 L 1906,-1051 L 1907,-1050 L 1908,-1050 L 1909,-1050 L 1910,-1051 L 1911,-1052 L 1911,-1053 L 1912,-1053 L 1913,-1052 L 1913,-1051 L 1915,-1051 L 1917,-1051 L 1919,-1050 L 1921,-1049 L 1923,-1048 L 1924,-1047 L 1926,-1048 L 1927,-1049 L 1927,-1051 L 1928,-1052 L 1927,-1053 L 1927,-1054 L 1928,-1054 L 1929,-1055 L 1930,-1054 L 1930,-1053 L 1931,-1052 L 1931,-1051 L 1931,-1049 L 1931,-1048 L 1932,-1047 L 1933,-1047 L 1934,-1047 L 1935,-1047 L 1936,-1049 L 1935,-1050 L 1935,-1051 L 1934,-1052 L 1935,-1053 L 1935,-1054 L 1936,-1054 L 1937,-1054 L 1938,-1053 L 1939,-1052 L 1939,-1051 L 1941,-1051 L 1942,-1051 L 1943,-1052 L 1942,-1053 L 1942,-1054 L 1942,-1055 L 1943,-1055 L 1944,-1054 L 1944,-1053 L 1945,-1053 L 1946,-1053 L 1948,-1054 L 1949,-1054 L 1951,-1055 L 1952,-1055 L 1952,-1056 L 1952,-1057 L 1953,-1057 L 1954,-1057 L 1955,-1057 L 1955,-1058 L 1955,-1059 L 1955,-1060 L 1955,-1061 L 1956,-1061 L 1956,-1060 L 1957,-1059 L 1957,-1058 L 1958,-1058 L 1959,-1058 L 1960,-1058 L 1961,-1059 L 1962,-1059 L 1964,-1058 L 1965,-1057 L 1966,-1056 L 1967,-1056 L 1968,-1055 L 1969,-1055 L 1970,-1054 L 1971,-1054 L 1972,-1055 L 1971,-1056 L 1971,-1057 L 1971,-1058 L 1972,-1058 L 1973,-1058 L 1975,-1058 L 1976,-1057 L 1977,-1055 L 1978,-1055 L 1979,-1055 L 1980,-1056 L 1980,-1057 L 1981,-1058 L 1981,-1057 L 1982,-1057 L 1983,-1056 L 1984,-1057 L 1985,-1058 L 1985,-1059 L 1986,-1060 L 1988,-1060 L 1989,-1060 L 1990,-1059 L 1991,-1059 L 1992,-1060 L 1992,-1061 L 1992,-1062 L 1992,-1063 L 1992,-1064 L 1993,-1064 L 1994,-1064 L 1995,-1064 L 1996,-1063 L 1996,-1062 L 1995,-1061 L 1995,-1060 L 1994,-1059 L 1994,-1057 L 1995,-1056 L 1996,-1054 L 1998,-1053 L 1999,-1053 L 2001,-1054 L 2002,-1054 L 2003,-1054 L 2004,-1053 L 2005,-1052 L 2006,-1052 L 2007,-1052 L 2008,-1053 L 2009,-1053 L 2010,-1052 L 2010,-1051 L 2011,-1050 L 1806,-972 L 1616,-900 L 1488,-852 L 1487,-852 L 1486,-852 L 1332,-794 L 1329,-793 L 1328,-793 L 1327,-792 L 1326,-792 L 1325,-793 L 1324,-793 L 1324,-792 L 1324,-791 L 1324,-790 L 1323,-790 L 1322,-790 L 1321,-791 L 1320,-791 L 1321,-791 L 1321,-792 L 1321,-793 L 1320,-793 L 1319,-793 L 1319,-794 L 1318,-794 L 1318,-793 L 1317,-793 L 1317,-794 L 1316,-794 L 1316,-793 L 1315,-793 L 1314,-792 L 1314,-791 L 1313,-791 L 1313,-790 L 1314,-790 L 1314,-789 L 1313,-789 L 1312,-789 L 1312,-790 L 1311,-791 L 1311,-792 L 1311,-793 L 1310,-793 L 1310,-792 L 1309,-792 L 1309,-791 L 1309,-790 L 1310,-790 L 1310,-789 L 1309,-789 L 1309,-788 L 1308,-787 L 1307,-787 L 1306,-787 L 1305,-787 L 1304,-787 L 1303,-787 L 1302,-787 L 1301,-787 L 1300,-787 L 1300,-788 L 1300,-789 L 1301,-789 L 1301,-790 L 1301,-791 L 1302,-791 L 1302,-792 L 1303,-793 L 1302,-793 L 1302,-794 L 1301,-793 L 1300,-793 L 1300,-794 L 1299,-794 L 1300,-795 L 1301,-795 L 1301,-796 L 1300,-796 L 1299,-797 L 1298,-797 L 1298,-796 L 1298,-795 L 1299,-794 L 1298,-794 L 1297,-795 L 1296,-794 L 1295,-794 L 1295,-795 L 1294,-795 L 1293,-795 L 1293,-796 L 1293,-797 L 1293,-798 L 1292,-798 L 1291,-798 L 1290,-798 L 1289,-798 L 1288,-798 L 1288,-797 L 1289,-796 L 1288,-796 L 1287,-796 L 1287,-797 L 1286,-797 L 1285,-797 L 1285,-796 L 1284,-796 L 1283,-796 L 1282,-797 L 1281,-797 L 1280,-797 L 1280,-796 L 1279,-796 L 1278,-796 L 1277,-797 L 1276,-798 L 1275,-798 L 1275,-797 L 1275,-796 L 1274,-796 L 1273,-796 L 1273,-797 L 1272,-797 L 1272,-798 L 1271,-798 L 1270,-798 L 1270,-799 L 1269,-800 L 1270,-800 L 1270,-801 L 1270,-802 L 1269,-803 L 1268,-803 L 1268,-804 L 1268,-805 L 1267,-805 L 1266,-805 L 1266,-806 L 1265,-806 L 1264,-807 L 1263,-807 L 1263,-827 L 1263,-861 L 1263,-892 L 1257,-898 L 1253,-902 L 1252,-902 L 1251,-902 L 1251,-903 L 1250,-903 L 1251,-903 L 1251,-904 L 1250,-904 L 1250,-905 L 1249,-905 L 1249,-906 L 1250,-906 L 1250,-907 L 1249,-908 L 1248,-908 L 1248,-907 L 1247,-908 L 1246,-908 L 1246,-909 L 1245,-910 L 1245,-911 L 1246,-911 L 1246,-912 L 1246,-913 L 1246,-914 L 1247,-915 L 1247,-916 L 1248,-916 L 1249,-916 L 1249,-917 L 1249,-918 L 1250,-918 L 1251,-918 L 1251,-919 L 1251,-920 L 1251,-921 L 1251,-922 L 1252,-922 L 1253,-922 L 1254,-922 L 1255,-922 L 1256,-922 L 1256,-923 L 1255,-924 L 1255,-925 L 1254,-925 L 1254,-926 L 1255,-927 L 1255,-928 L 1256,-928 L 1256,-929 L 1256,-930 L 1257,-930 L 1258,-930 L 1259,-930 L 1260,-931 L 1259,-932 L 1258,-932 L 1259,-933 L 1259,-934 L 1258,-934 L 1257,-934 L 1257,-935 L 1258,-936 L 1258,-935 L 1259,-935 L 1260,-935 L 1260,-936 L 1260,-937 L 1259,-937 L 1259,-938 L 1258,-938 L 1257,-937 L 1256,-937 L 1256,-938 L 1257,-939 L 1258,-939 L 1258,-940 L 1257,-940 L 1256,-940 L 1255,-939 L 1254,-939 L 1253,-939 L 1252,-939 L 1253,-939 L 1253,-940 L 1254,-940 L 1254,-941 L 1255,-941 L 1256,-942 L 1256,-943 L 1255,-943 L 1254,-943 L 1253,-943 L 1252,-943 L 1252,-944 L 1253,-945 L 1254,-945 L 1254,-946 L 1253,-946 L 1252,-946 L 1251,-946 L 1251,-947 L 1251,-948 L 1252,-948 L 1253,-947 L 1254,-947 L 1254,-948 L 1255,-948 L 1255,-949 L 1255,-950 L 1254,-950 L 1255,-950 L 1255,-951 L 1256,-951 L 1257,-951 L 1256,-952 L 1255,-952 L 1255,-953 L 1256,-953 L 1256,-954 L 1255,-954 L 1255,-955 L 1254,-955 L 1254,-956 L 1253,-957 L 1253,-958 L 1252,-957 L 1251,-956 L 1251,-957 L 1250,-957 L 1250,-958 L 1251,-958 L 1251,-959 L 1250,-959 L 1249,-960 L 1249,-961 L 1250,-961 L 1251,-961 L 1251,-960 L 1252,-960 L 1252,-961 L 1251,-962 L 1251,-963 L 1250,-963 L 1250,-964 L 1250,-965 L 1251,-965 L 1251,-964 L 1252,-964 L 1253,-965 L 1253,-966 L 1254,-966 L 1254,-965 L 1255,-965 L 1256,-966 L 1255,-966 L 1255,-967 L 1254,-967 L 1253,-967 L 1252,-967 L 1252,-968 L 1252,-969 L 1252,-970 L 1252,-971 L 1253,-971 L 1253,-972 L 1254,-972 L 1254,-973 L 1254,-974 L 1253,-975 L 1253,-976 L 1254,-976 L 1254,-977 L 1255,-977 L 1256,-978 L 1257,-978 L 1257,-977 L 1257,-976 L 1257,-975 L 1257,-974 L 1258,-974 L 1258,-975 L 1258,-976 L 1259,-976 L 1259,-977 L 1259,-978 L 1259,-979 L 1260,-979 L 1259,-980 L 1259,-981 L 1258,-981 L 1257,-981 L 1257,-980 L 1256,-980 L 1256,-981 L 1256,-982 L 1257,-982 L 1258,-983 L 1259,-983 L 1259,-982 L 1260,-982 L 1260,-983 L 1261,-983 L 1261,-984 L 1260,-984 L 1261,-984 L 1262,-984 L 1262,-985 L 1261,-985 L 1260,-986 L 1261,-986 L 1262,-987 L 1263,-988 L 1263,-989 L 1263,-990 L 1262,-990 L 1261,-990 L 1261,-991 L 1262,-991 L 1263,-991 L 1263,-992 L 1264,-992 L 1264,-993 L 1264,-994 L 1263,-994 L 1263,-995 L 1263,-996 L 1262,-996 L 1261,-997 L 1261,-998 L 1260,-999 L 1259,-998 L 1258,-998 L 1257,-998 L 1258,-999 L 1259,-999 L 1260,-999 L 1260,-1000 L 1260,-1001 L 1260,-1002 L 1259,-1003 L 1259,-1004 L 1260,-1004 L 1260,-1005 L 1261,-1005 L 1262,-1005 L 1263,-1005 L 1264,-1005 L 1264,-1006 L 1265,-1007 L 1265,-1008 L 1264,-1008 L 1263,-1008 L 1262,-1008 L 1261,-1008 L 1261,-1009 L 1262,-1009 L 1261,-1010 L 1260,-1010 L 1259,-1010 L 1258,-1011 L 1258,-1012 L 1258,-1013 L 1259,-1013 L 1259,-1014 L 1258,-1014 L 1257,-1013 L 1257,-1014 L 1257,-1015 L 1258,-1015 L 1258,-1016 L 1257,-1016 L 1257,-1017 L 1256,-1017 L 1256,-1018 L 1255,-1018 L 1255,-1019 L 1256,-1020 L 1257,-1020 L 1258,-1019 L 1259,-1020 L 1259,-1021 L 1258,-1021 L 1258,-1022 L 1258,-1023 L 1257,-1023 L 1257,-1024 L 1258,-1024 L 1258,-1025 L 1259,-1025 L 1258,-1025 L 1258,-1026 L 1258,-1027 L 1259,-1027 L 1260,-1027 L 1261,-1027 L 1262,-1027 L 1263,-1027 L 1263,-1028 L 1262,-1029 L 1262,-1030 L 1261,-1030 L 1260,-1030 L 1260,-1031 L 1261,-1031 L 1262,-1031 L 1262,-1032 L 1263,-1032 L 1263,-1031 L 1264,-1031 L 1264,-1030 L 1265,-1030 L 1265,-1031 L 1264,-1031 L 1264,-1032 L 1265,-1032 L 1265,-1033 L 1266,-1033 L 1267,-1033 L 1267,-1032 L 1267,-1031 L 1268,-1031 L 1268,-1030 L 1269,-1029 L 1270,-1030 L 1270,-1031 L 1271,-1031 L 1271,-1032 L 1270,-1032 L 1269,-1032 L 1269,-1033 L 1269,-1034 L 1270,-1035 L 1271,-1035 L 1272,-1035 L 1272,-1036 L 1271,-1036 L 1270,-1036 L 1270,-1037 L 1270,-1038 L 1270,-1037 L 1269,-1037 L 1268,-1037 L 1268,-1038 L 1268,-1039 L 1268,-1040 L 1269,-1040 L 1270,-1040 L 1270,-1039 L 1271,-1039 L 1272,-1040 L 1273,-1040 L 1272,-1041 L 1271,-1041 L 1271,-1042 L 1270,-1041 L 1270,-1040 L 1269,-1040 L 1269,-1041 L 1270,-1042 L 1271,-1042 L 1272,-1043 L 1273,-1044 L 1274,-1045 L 1274,-1046 L 1275,-1046 L 1276,-1046 L 1277,-1046 L 1277,-1047 L 1276,-1047 L 1275,-1047 L 1274,-1047 L 1273,-1047 L 1272,-1047 L 1271,-1047 L 1270,-1047 L 1270,-1048 L 1271,-1048 L 1272,-1048 L 1273,-1048 L 1273,-1049 L 1272,-1049 L 1271,-1049 L 1271,-1050 L 1271,-1051 L 1272,-1051 L 1273,-1052 L 1274,-1052 L 1274,-1051 L 1274,-1050 L 1275,-1050 L 1275,-1049 L 1276,-1049 L 1277,-1049 L 1278,-1050 L 1278,-1051 L 1277,-1051 L 1276,-1051 L 1275,-1051 L 1275,-1052 L 1275,-1053 L 1274,-1053 L 1273,-1053 L 1272,-1053 L 1272,-1054 L 1273,-1054 L 1274,-1054 L 1275,-1055 L 1276,-1054 L 1276,-1053 L 1276,-1052 L 1277,-1052 L 1277,-1053 L 1277,-1054 L 1276,-1055 L 1275,-1055 L 1275,-1056 L 1274,-1057 L 1273,-1057 L 1274,-1057 L 1274,-1058 L 1275,-1058 L 1274,-1058 L 1273,-1059 L 1272,-1060 L 1271,-1060 L 1271,-1061 L 1270,-1061 L 1269,-1061 L 1268,-1061 L 1267,-1061 L 1267,-1060 L 1266,-1060 L 1266,-1061 L 1266,-1062 L 1265,-1062 L 1265,-1063 L 1266,-1064 L 1267,-1064 L 1267,-1065 L 1267,-1066 L 1266,-1066 L 1265,-1066 L 1264,-1066 L 1264,-1067 L 1265,-1067 L 1266,-1068 L 1267,-1068 L 1268,-1067 L 1268,-1066 L 1269,-1067 L 1269,-1068 L 1268,-1069 L 1267,-1069 L 1266,-1070 L 1265,-1070 L 1265,-1071 L 1266,-1072 L 1266,-1073 L 1267,-1074 L 1268,-1075 L 1269,-1075 L 1269,-1076 L 1268,-1076 L 1267,-1076 L 1266,-1076 L 1265,-1076 L 1265,-1077 L 1268,-1077 L 1517,-1077 L 1517,-1135 L 1517,-1179 L 1517,-1228 L 1517,-1264 L 1517,-1281 L 1518,-1281 L 1519,-1281 L 1520,-1282 L 1520,-1283 L 1521,-1283 L 1522,-1282 L 1522,-1281 " /></g>
</svg>
