<?xml version="1.0" standalone="no"?><!DOCTYPE svg PUBLIC "-//W3C//DTD SVG 1.1//EN" "http://www.w3.org/Graphics/SVG/1.1/DTD/svg11.dtd"><svg xmlns="http://www.w3.org/2000/svg" viewBox="1053 -1078 225 271" version = "1.1">
<g id="80803" ><path d="M 1170,-1077 L 1265,-1077 L 1265,-1076 L 1266,-1076 L 1267,-1076 L 1268,-1076 L 1269,-1076 L 1269,-1075 L 1268,-1075 L 1267,-1074 L 1266,-1073 L 1266,-1072 L 1265,-1071 L 1265,-1070 L 1266,-1070 L 1267,-1069 L 1268,-1069 L 1269,-1068 L 1269,-1067 L 1268,-1066 L 1268,-1067 L 1267,-1068 L 1266,-1068 L 1265,-1067 L 1264,-1067 L 1264,-1066 L 1265,-1066 L 1266,-1066 L 1267,-1066 L 1267,-1065 L 1267,-1064 L 1266,-1064 L 1265,-1063 L 1265,-1062 L 1266,-1062 L 1266,-1061 L 1266,-1060 L 1267,-1060 L 1267,-1061 L 1268,-1061 L 1269,-1061 L 1270,-1061 L 1271,-1061 L 1271,-1060 L 1272,-1060 L 1273,-1059 L 1274,-1058 L 1275,-1058 L 1274,-1058 L 1274,-1057 L 1273,-1057 L 1274,-1057 L 1275,-1056 L 1275,-1055 L 1276,-1055 L 1277,-1054 L 1277,-1053 L 1277,-1052 L 1276,-1052 L 1276,-1053 L 1276,-1054 L 1275,-1055 L 1274,-1054 L 1273,-1054 L 1272,-1054 L 1272,-1053 L 1273,-1053 L 1274,-1053 L 1275,-1053 L 1275,-1052 L 1275,-1051 L 1276,-1051 L 1277,-1051 L 1278,-1051 L 1278,-1050 L 1277,-1049 L 1276,-1049 L 1275,-1049 L 1275,-1050 L 1274,-1050 L 1274,-1051 L 1274,-1052 L 1273,-1052 L 1272,-1051 L 1271,-1051 L 1271,-1050 L 1271,-1049 L 1272,-1049 L 1273,-1049 L 1273,-1048 L 1272,-1048 L 1271,-1048 L 1270,-1048 L 1270,-1047 L 1271,-1047 L 1272,-1047 L 1273,-1047 L 1274,-1047 L 1275,-1047 L 1276,-1047 L 1277,-1047 L 1277,-1046 L 1276,-1046 L 1275,-1046 L 1274,-1046 L 1274,-1045 L 1273,-1044 L 1272,-1043 L 1271,-1042 L 1270,-1042 L 1269,-1041 L 1269,-1040 L 1270,-1040 L 1270,-1041 L 1271,-1042 L 1271,-1041 L 1272,-1041 L 1273,-1040 L 1272,-1040 L 1271,-1039 L 1270,-1039 L 1270,-1040 L 1269,-1040 L 1268,-1040 L 1268,-1039 L 1268,-1038 L 1268,-1037 L 1269,-1037 L 1270,-1037 L 1270,-1038 L 1270,-1037 L 1270,-1036 L 1271,-1036 L 1272,-1036 L 1272,-1035 L 1271,-1035 L 1270,-1035 L 1269,-1034 L 1269,-1033 L 1269,-1032 L 1270,-1032 L 1271,-1032 L 1271,-1031 L 1270,-1031 L 1270,-1030 L 1269,-1029 L 1268,-1030 L 1268,-1031 L 1267,-1031 L 1267,-1032 L 1267,-1033 L 1266,-1033 L 1265,-1033 L 1265,-1032 L 1264,-1032 L 1264,-1031 L 1265,-1031 L 1265,-1030 L 1264,-1030 L 1264,-1031 L 1263,-1031 L 1263,-1032 L 1262,-1032 L 1262,-1031 L 1261,-1031 L 1260,-1031 L 1260,-1030 L 1261,-1030 L 1262,-1030 L 1262,-1029 L 1263,-1028 L 1263,-1027 L 1262,-1027 L 1261,-1027 L 1260,-1027 L 1259,-1027 L 1258,-1027 L 1258,-1026 L 1258,-1025 L 1259,-1025 L 1258,-1025 L 1258,-1024 L 1257,-1024 L 1257,-1023 L 1258,-1023 L 1258,-1022 L 1258,-1021 L 1259,-1021 L 1259,-1020 L 1258,-1019 L 1257,-1020 L 1256,-1020 L 1255,-1019 L 1255,-1018 L 1256,-1018 L 1256,-1017 L 1257,-1017 L 1257,-1016 L 1258,-1016 L 1258,-1015 L 1257,-1015 L 1257,-1014 L 1257,-1013 L 1258,-1014 L 1259,-1014 L 1259,-1013 L 1258,-1013 L 1258,-1012 L 1258,-1011 L 1259,-1010 L 1260,-1010 L 1261,-1010 L 1262,-1009 L 1261,-1009 L 1261,-1008 L 1262,-1008 L 1263,-1008 L 1264,-1008 L 1265,-1008 L 1265,-1007 L 1264,-1006 L 1264,-1005 L 1263,-1005 L 1262,-1005 L 1261,-1005 L 1260,-1005 L 1260,-1004 L 1259,-1004 L 1259,-1003 L 1260,-1002 L 1260,-1001 L 1260,-1000 L 1260,-999 L 1259,-999 L 1258,-999 L 1257,-998 L 1258,-998 L 1259,-998 L 1260,-999 L 1261,-998 L 1261,-997 L 1262,-996 L 1263,-996 L 1263,-995 L 1263,-994 L 1264,-994 L 1264,-993 L 1264,-992 L 1263,-992 L 1263,-991 L 1262,-991 L 1261,-991 L 1261,-990 L 1262,-990 L 1263,-990 L 1263,-989 L 1263,-988 L 1262,-987 L 1261,-986 L 1260,-986 L 1261,-985 L 1262,-985 L 1262,-984 L 1261,-984 L 1260,-984 L 1261,-984 L 1261,-983 L 1260,-983 L 1260,-982 L 1259,-982 L 1259,-983 L 1258,-983 L 1257,-982 L 1256,-982 L 1256,-981 L 1256,-980 L 1257,-980 L 1257,-981 L 1258,-981 L 1259,-981 L 1259,-980 L 1260,-979 L 1259,-979 L 1259,-978 L 1259,-977 L 1259,-976 L 1258,-976 L 1258,-975 L 1258,-974 L 1257,-974 L 1257,-975 L 1257,-976 L 1257,-977 L 1257,-978 L 1256,-978 L 1255,-977 L 1254,-977 L 1254,-976 L 1253,-976 L 1253,-975 L 1254,-974 L 1254,-973 L 1254,-972 L 1253,-972 L 1253,-971 L 1252,-971 L 1252,-970 L 1252,-969 L 1252,-968 L 1252,-967 L 1253,-967 L 1254,-967 L 1255,-967 L 1255,-966 L 1256,-966 L 1255,-965 L 1254,-965 L 1254,-966 L 1253,-966 L 1253,-965 L 1252,-964 L 1251,-964 L 1251,-965 L 1250,-965 L 1250,-964 L 1250,-963 L 1251,-963 L 1251,-962 L 1252,-961 L 1252,-960 L 1251,-960 L 1251,-961 L 1250,-961 L 1249,-961 L 1249,-960 L 1250,-959 L 1251,-959 L 1251,-958 L 1250,-958 L 1250,-957 L 1251,-957 L 1251,-956 L 1252,-957 L 1253,-958 L 1253,-957 L 1254,-956 L 1254,-955 L 1255,-955 L 1255,-954 L 1256,-954 L 1256,-953 L 1255,-953 L 1255,-952 L 1256,-952 L 1257,-951 L 1256,-951 L 1255,-951 L 1255,-950 L 1254,-950 L 1255,-950 L 1255,-949 L 1255,-948 L 1254,-948 L 1254,-947 L 1253,-947 L 1252,-948 L 1251,-948 L 1251,-947 L 1251,-946 L 1252,-946 L 1253,-946 L 1254,-946 L 1254,-945 L 1253,-945 L 1252,-944 L 1252,-943 L 1253,-943 L 1254,-943 L 1255,-943 L 1256,-943 L 1256,-942 L 1255,-941 L 1254,-941 L 1254,-940 L 1253,-940 L 1253,-939 L 1252,-939 L 1253,-939 L 1254,-939 L 1255,-939 L 1256,-940 L 1257,-940 L 1258,-940 L 1258,-939 L 1257,-939 L 1256,-938 L 1256,-937 L 1257,-937 L 1258,-938 L 1259,-938 L 1259,-937 L 1260,-937 L 1260,-936 L 1260,-935 L 1259,-935 L 1258,-935 L 1258,-936 L 1257,-935 L 1257,-934 L 1258,-934 L 1259,-934 L 1259,-933 L 1258,-932 L 1259,-932 L 1260,-931 L 1259,-930 L 1258,-930 L 1257,-930 L 1256,-930 L 1256,-929 L 1256,-928 L 1255,-928 L 1255,-927 L 1254,-926 L 1254,-925 L 1255,-925 L 1255,-924 L 1256,-923 L 1256,-922 L 1255,-922 L 1254,-922 L 1253,-922 L 1252,-922 L 1251,-922 L 1251,-921 L 1251,-920 L 1251,-919 L 1251,-918 L 1250,-918 L 1249,-918 L 1249,-917 L 1249,-916 L 1248,-916 L 1247,-916 L 1247,-915 L 1246,-914 L 1246,-913 L 1246,-912 L 1246,-911 L 1245,-911 L 1245,-910 L 1246,-909 L 1246,-908 L 1247,-908 L 1248,-907 L 1248,-908 L 1249,-908 L 1250,-907 L 1250,-906 L 1249,-906 L 1249,-905 L 1250,-905 L 1250,-904 L 1251,-904 L 1251,-903 L 1250,-903 L 1251,-903 L 1251,-902 L 1252,-902 L 1253,-902 L 1257,-898 L 1263,-892 L 1263,-861 L 1263,-827 L 1263,-807 L 1053,-844 L 1057,-1078 L 1113,-1078 L 1143,-1077 L 1170,-1077 " /></g>
</svg>
