<?xml version="1.0" standalone="no"?><!DOCTYPE svg PUBLIC "-//W3C//DTD SVG 1.1//EN" "http://www.w3.org/Graphics/SVG/1.1/DTD/svg11.dtd"><svg xmlns="http://www.w3.org/2000/svg" viewBox="1049 -1420 468 343" version = "1.1">
<g id="80801" ><path d="M 1259,-1416 L 1260,-1415 L 1261,-1415 L 1264,-1416 L 1268,-1416 L 1271,-1416 L 1273,-1416 L 1276,-1415 L 1278,-1414 L 1281,-1414 L 1283,-1413 L 1286,-1413 L 1287,-1412 L 1289,-1411 L 1289,-1409 L 1291,-1408 L 1293,-1408 L 1295,-1408 L 1298,-1408 L 1300,-1407 L 1301,-1407 L 1303,-1406 L 1304,-1405 L 1305,-1405 L 1307,-1405 L 1308,-1405 L 1308,-1404 L 1309,-1403 L 1310,-1402 L 1311,-1401 L 1312,-1401 L 1313,-1400 L 1315,-1400 L 1316,-1399 L 1318,-1399 L 1319,-1398 L 1321,-1397 L 1322,-1396 L 1324,-1396 L 1325,-1396 L 1326,-1395 L 1327,-1395 L 1328,-1395 L 1329,-1395 L 1329,-1394 L 1330,-1394 L 1331,-1393 L 1332,-1393 L 1332,-1392 L 1333,-1392 L 1334,-1391 L 1334,-1390 L 1335,-1390 L 1335,-1389 L 1336,-1388 L 1336,-1387 L 1337,-1386 L 1337,-1385 L 1338,-1384 L 1338,-1383 L 1338,-1382 L 1339,-1382 L 1340,-1381 L 1340,-1380 L 1341,-1380 L 1342,-1379 L 1343,-1379 L 1343,-1378 L 1344,-1377 L 1345,-1377 L 1345,-1376 L 1346,-1375 L 1347,-1375 L 1348,-1374 L 1349,-1373 L 1350,-1373 L 1351,-1374 L 1352,-1374 L 1353,-1374 L 1354,-1374 L 1355,-1375 L 1356,-1375 L 1357,-1375 L 1358,-1375 L 1360,-1375 L 1365,-1375 L 1367,-1375 L 1368,-1374 L 1369,-1374 L 1370,-1374 L 1371,-1374 L 1370,-1373 L 1370,-1372 L 1370,-1370 L 1370,-1369 L 1370,-1368 L 1370,-1367 L 1371,-1367 L 1371,-1366 L 1372,-1366 L 1372,-1365 L 1373,-1365 L 1374,-1364 L 1373,-1363 L 1372,-1363 L 1371,-1363 L 1370,-1363 L 1369,-1363 L 1369,-1362 L 1368,-1362 L 1368,-1361 L 1369,-1361 L 1369,-1360 L 1370,-1360 L 1370,-1359 L 1371,-1360 L 1372,-1360 L 1373,-1360 L 1375,-1360 L 1376,-1360 L 1377,-1360 L 1378,-1360 L 1379,-1358 L 1380,-1357 L 1380,-1356 L 1381,-1354 L 1381,-1353 L 1381,-1352 L 1382,-1350 L 1383,-1350 L 1384,-1349 L 1386,-1347 L 1386,-1346 L 1387,-1345 L 1388,-1345 L 1389,-1344 L 1390,-1344 L 1391,-1343 L 1392,-1342 L 1393,-1342 L 1394,-1342 L 1395,-1342 L 1396,-1343 L 1397,-1343 L 1399,-1343 L 1400,-1343 L 1401,-1342 L 1402,-1342 L 1404,-1340 L 1406,-1338 L 1407,-1338 L 1409,-1338 L 1409,-1337 L 1410,-1337 L 1413,-1336 L 1414,-1336 L 1416,-1336 L 1417,-1335 L 1418,-1335 L 1420,-1334 L 1421,-1334 L 1422,-1334 L 1423,-1334 L 1424,-1334 L 1425,-1334 L 1426,-1334 L 1427,-1334 L 1428,-1334 L 1429,-1334 L 1430,-1334 L 1431,-1333 L 1432,-1333 L 1435,-1332 L 1436,-1332 L 1437,-1332 L 1438,-1333 L 1439,-1334 L 1439,-1335 L 1438,-1335 L 1438,-1336 L 1437,-1336 L 1436,-1337 L 1436,-1338 L 1436,-1339 L 1435,-1339 L 1435,-1340 L 1434,-1340 L 1434,-1341 L 1435,-1341 L 1435,-1342 L 1436,-1342 L 1437,-1342 L 1438,-1341 L 1439,-1341 L 1440,-1341 L 1441,-1342 L 1442,-1342 L 1443,-1343 L 1444,-1344 L 1445,-1344 L 1446,-1344 L 1450,-1344 L 1452,-1344 L 1452,-1345 L 1453,-1346 L 1453,-1347 L 1453,-1348 L 1452,-1349 L 1452,-1350 L 1451,-1351 L 1451,-1352 L 1451,-1353 L 1452,-1354 L 1453,-1355 L 1453,-1354 L 1454,-1354 L 1455,-1354 L 1455,-1353 L 1456,-1353 L 1456,-1352 L 1457,-1352 L 1457,-1351 L 1458,-1350 L 1458,-1349 L 1459,-1349 L 1459,-1348 L 1460,-1348 L 1461,-1348 L 1462,-1348 L 1462,-1349 L 1462,-1350 L 1462,-1351 L 1462,-1352 L 1461,-1352 L 1461,-1353 L 1461,-1354 L 1460,-1354 L 1461,-1355 L 1461,-1356 L 1462,-1357 L 1463,-1357 L 1463,-1358 L 1464,-1358 L 1464,-1357 L 1465,-1357 L 1465,-1356 L 1465,-1355 L 1465,-1354 L 1465,-1353 L 1465,-1352 L 1466,-1351 L 1466,-1350 L 1467,-1350 L 1468,-1350 L 1468,-1349 L 1469,-1349 L 1470,-1349 L 1471,-1349 L 1471,-1348 L 1470,-1347 L 1471,-1347 L 1471,-1346 L 1472,-1346 L 1473,-1346 L 1473,-1347 L 1474,-1347 L 1475,-1347 L 1475,-1346 L 1475,-1345 L 1476,-1345 L 1476,-1344 L 1477,-1343 L 1478,-1343 L 1479,-1343 L 1480,-1343 L 1481,-1343 L 1482,-1344 L 1483,-1344 L 1484,-1344 L 1484,-1343 L 1485,-1343 L 1486,-1342 L 1486,-1341 L 1486,-1340 L 1486,-1339 L 1486,-1338 L 1485,-1338 L 1485,-1337 L 1484,-1337 L 1484,-1336 L 1484,-1335 L 1485,-1334 L 1486,-1334 L 1487,-1334 L 1488,-1334 L 1489,-1334 L 1490,-1334 L 1490,-1333 L 1491,-1333 L 1492,-1334 L 1493,-1334 L 1494,-1334 L 1495,-1334 L 1496,-1334 L 1496,-1333 L 1496,-1332 L 1496,-1331 L 1495,-1330 L 1494,-1330 L 1492,-1328 L 1490,-1327 L 1490,-1326 L 1489,-1326 L 1489,-1325 L 1489,-1324 L 1489,-1323 L 1489,-1322 L 1490,-1321 L 1490,-1320 L 1491,-1319 L 1492,-1319 L 1493,-1318 L 1494,-1318 L 1495,-1318 L 1496,-1319 L 1497,-1319 L 1498,-1319 L 1499,-1318 L 1500,-1317 L 1501,-1316 L 1501,-1315 L 1502,-1314 L 1502,-1313 L 1503,-1313 L 1503,-1312 L 1503,-1311 L 1504,-1310 L 1504,-1309 L 1504,-1308 L 1504,-1307 L 1504,-1306 L 1505,-1306 L 1505,-1305 L 1505,-1304 L 1505,-1303 L 1505,-1302 L 1506,-1301 L 1507,-1301 L 1508,-1301 L 1509,-1300 L 1510,-1299 L 1510,-1298 L 1510,-1297 L 1510,-1296 L 1509,-1295 L 1509,-1294 L 1510,-1293 L 1511,-1293 L 1512,-1293 L 1513,-1293 L 1513,-1292 L 1514,-1291 L 1514,-1290 L 1513,-1290 L 1513,-1289 L 1513,-1288 L 1512,-1287 L 1512,-1286 L 1512,-1285 L 1513,-1284 L 1513,-1283 L 1514,-1282 L 1515,-1282 L 1516,-1281 L 1517,-1281 L 1517,-1264 L 1517,-1228 L 1517,-1179 L 1517,-1135 L 1517,-1077 L 1268,-1077 L 1265,-1077 L 1170,-1077 L 1143,-1077 L 1113,-1078 L 1057,-1078 L 1056,-1099 L 1057,-1103 L 1057,-1104 L 1056,-1105 L 1056,-1106 L 1056,-1107 L 1056,-1108 L 1057,-1109 L 1058,-1109 L 1058,-1110 L 1059,-1111 L 1060,-1111 L 1061,-1111 L 1062,-1111 L 1063,-1111 L 1064,-1111 L 1064,-1112 L 1064,-1113 L 1064,-1114 L 1064,-1115 L 1064,-1116 L 1063,-1117 L 1063,-1118 L 1063,-1119 L 1064,-1119 L 1065,-1120 L 1066,-1121 L 1067,-1121 L 1068,-1121 L 1068,-1122 L 1068,-1124 L 1069,-1125 L 1069,-1126 L 1070,-1127 L 1071,-1127 L 1071,-1128 L 1071,-1129 L 1071,-1130 L 1070,-1132 L 1070,-1133 L 1070,-1134 L 1071,-1135 L 1071,-1136 L 1071,-1137 L 1072,-1137 L 1072,-1138 L 1073,-1138 L 1074,-1138 L 1075,-1138 L 1076,-1138 L 1077,-1139 L 1078,-1139 L 1079,-1140 L 1080,-1141 L 1081,-1142 L 1082,-1144 L 1082,-1145 L 1081,-1145 L 1080,-1145 L 1079,-1145 L 1078,-1145 L 1077,-1144 L 1076,-1144 L 1076,-1145 L 1076,-1146 L 1076,-1147 L 1077,-1148 L 1077,-1149 L 1077,-1150 L 1078,-1151 L 1078,-1152 L 1079,-1153 L 1079,-1154 L 1079,-1155 L 1080,-1155 L 1081,-1154 L 1080,-1153 L 1080,-1152 L 1080,-1151 L 1081,-1150 L 1082,-1149 L 1083,-1149 L 1083,-1150 L 1083,-1151 L 1083,-1152 L 1083,-1153 L 1083,-1154 L 1082,-1155 L 1082,-1156 L 1081,-1156 L 1080,-1156 L 1079,-1156 L 1078,-1156 L 1077,-1156 L 1078,-1157 L 1079,-1157 L 1080,-1157 L 1081,-1158 L 1082,-1158 L 1082,-1159 L 1082,-1161 L 1081,-1161 L 1082,-1161 L 1082,-1160 L 1083,-1160 L 1083,-1161 L 1082,-1161 L 1082,-1162 L 1082,-1163 L 1081,-1163 L 1081,-1164 L 1081,-1165 L 1081,-1166 L 1081,-1167 L 1081,-1168 L 1081,-1169 L 1081,-1168 L 1082,-1168 L 1083,-1167 L 1084,-1167 L 1084,-1166 L 1085,-1166 L 1086,-1166 L 1087,-1166 L 1087,-1167 L 1088,-1168 L 1088,-1169 L 1088,-1170 L 1088,-1171 L 1087,-1171 L 1087,-1172 L 1086,-1172 L 1086,-1173 L 1086,-1174 L 1087,-1174 L 1087,-1175 L 1088,-1175 L 1089,-1175 L 1089,-1176 L 1090,-1176 L 1091,-1177 L 1092,-1177 L 1093,-1178 L 1094,-1179 L 1095,-1179 L 1095,-1180 L 1096,-1180 L 1096,-1181 L 1097,-1181 L 1097,-1182 L 1097,-1183 L 1097,-1184 L 1098,-1185 L 1097,-1186 L 1097,-1187 L 1097,-1188 L 1097,-1189 L 1098,-1189 L 1098,-1190 L 1098,-1191 L 1098,-1192 L 1098,-1193 L 1098,-1194 L 1099,-1195 L 1098,-1195 L 1098,-1196 L 1098,-1197 L 1098,-1198 L 1097,-1199 L 1096,-1199 L 1096,-1200 L 1096,-1201 L 1097,-1201 L 1097,-1202 L 1097,-1203 L 1098,-1203 L 1099,-1203 L 1099,-1204 L 1099,-1205 L 1099,-1206 L 1099,-1207 L 1099,-1208 L 1098,-1208 L 1099,-1208 L 1098,-1209 L 1097,-1210 L 1097,-1211 L 1097,-1212 L 1096,-1213 L 1097,-1213 L 1097,-1214 L 1098,-1214 L 1098,-1215 L 1098,-1216 L 1098,-1217 L 1097,-1217 L 1097,-1218 L 1096,-1218 L 1096,-1219 L 1095,-1219 L 1094,-1220 L 1094,-1221 L 1093,-1221 L 1093,-1222 L 1093,-1223 L 1092,-1223 L 1092,-1224 L 1091,-1225 L 1091,-1226 L 1091,-1227 L 1091,-1228 L 1091,-1229 L 1091,-1230 L 1090,-1230 L 1090,-1231 L 1090,-1232 L 1089,-1232 L 1089,-1233 L 1090,-1233 L 1089,-1233 L 1089,-1234 L 1088,-1234 L 1088,-1235 L 1088,-1236 L 1088,-1237 L 1087,-1237 L 1088,-1237 L 1087,-1237 L 1087,-1238 L 1087,-1239 L 1087,-1240 L 1088,-1240 L 1088,-1241 L 1087,-1241 L 1087,-1242 L 1088,-1242 L 1088,-1243 L 1087,-1243 L 1088,-1243 L 1088,-1244 L 1088,-1245 L 1088,-1246 L 1088,-1247 L 1089,-1247 L 1089,-1248 L 1088,-1248 L 1088,-1249 L 1089,-1249 L 1088,-1249 L 1088,-1250 L 1088,-1251 L 1087,-1251 L 1088,-1250 L 1087,-1250 L 1087,-1251 L 1086,-1251 L 1085,-1251 L 1084,-1251 L 1084,-1252 L 1083,-1252 L 1083,-1253 L 1082,-1253 L 1081,-1253 L 1082,-1254 L 1082,-1255 L 1082,-1256 L 1083,-1256 L 1084,-1256 L 1083,-1256 L 1083,-1257 L 1084,-1257 L 1084,-1258 L 1084,-1259 L 1084,-1260 L 1085,-1260 L 1085,-1261 L 1086,-1261 L 1085,-1261 L 1085,-1262 L 1085,-1261 L 1086,-1261 L 1086,-1262 L 1086,-1263 L 1085,-1263 L 1085,-1264 L 1085,-1265 L 1084,-1265 L 1084,-1264 L 1084,-1265 L 1085,-1265 L 1085,-1266 L 1085,-1265 L 1085,-1266 L 1086,-1266 L 1086,-1267 L 1085,-1267 L 1085,-1268 L 1086,-1268 L 1085,-1268 L 1085,-1269 L 1084,-1269 L 1084,-1270 L 1083,-1270 L 1083,-1271 L 1083,-1272 L 1082,-1272 L 1081,-1272 L 1080,-1272 L 1080,-1273 L 1079,-1273 L 1079,-1274 L 1080,-1274 L 1081,-1274 L 1082,-1274 L 1082,-1273 L 1083,-1273 L 1083,-1274 L 1084,-1274 L 1084,-1275 L 1084,-1276 L 1083,-1276 L 1083,-1277 L 1084,-1277 L 1083,-1277 L 1084,-1277 L 1084,-1278 L 1085,-1278 L 1086,-1278 L 1086,-1277 L 1087,-1277 L 1087,-1278 L 1087,-1277 L 1088,-1277 L 1088,-1278 L 1089,-1278 L 1089,-1279 L 1088,-1279 L 1089,-1279 L 1090,-1279 L 1090,-1280 L 1091,-1279 L 1091,-1280 L 1092,-1280 L 1093,-1280 L 1094,-1280 L 1094,-1281 L 1094,-1282 L 1095,-1282 L 1096,-1282 L 1097,-1282 L 1096,-1283 L 1097,-1283 L 1097,-1284 L 1098,-1284 L 1098,-1283 L 1099,-1283 L 1099,-1284 L 1099,-1285 L 1100,-1285 L 1099,-1285 L 1098,-1286 L 1098,-1287 L 1098,-1286 L 1097,-1286 L 1096,-1286 L 1096,-1287 L 1095,-1287 L 1094,-1287 L 1093,-1287 L 1092,-1287 L 1091,-1287 L 1091,-1288 L 1090,-1288 L 1091,-1288 L 1091,-1289 L 1092,-1289 L 1093,-1290 L 1093,-1291 L 1093,-1292 L 1092,-1292 L 1092,-1291 L 1091,-1291 L 1091,-1292 L 1090,-1292 L 1090,-1291 L 1089,-1290 L 1088,-1290 L 1088,-1291 L 1089,-1292 L 1089,-1293 L 1089,-1294 L 1089,-1295 L 1089,-1296 L 1088,-1296 L 1087,-1296 L 1086,-1296 L 1085,-1296 L 1085,-1297 L 1085,-1298 L 1085,-1299 L 1085,-1300 L 1084,-1300 L 1084,-1301 L 1084,-1302 L 1084,-1303 L 1084,-1304 L 1085,-1303 L 1086,-1302 L 1086,-1301 L 1087,-1301 L 1088,-1301 L 1088,-1302 L 1087,-1303 L 1087,-1304 L 1086,-1305 L 1086,-1306 L 1086,-1307 L 1085,-1308 L 1085,-1309 L 1086,-1309 L 1086,-1310 L 1086,-1311 L 1085,-1311 L 1084,-1311 L 1083,-1311 L 1082,-1311 L 1081,-1311 L 1081,-1312 L 1081,-1313 L 1080,-1313 L 1080,-1314 L 1081,-1314 L 1082,-1314 L 1083,-1315 L 1084,-1315 L 1085,-1315 L 1086,-1315 L 1087,-1315 L 1088,-1316 L 1089,-1316 L 1089,-1317 L 1090,-1317 L 1090,-1316 L 1090,-1317 L 1091,-1317 L 1091,-1318 L 1090,-1318 L 1090,-1319 L 1089,-1319 L 1088,-1318 L 1087,-1318 L 1087,-1317 L 1086,-1316 L 1085,-1317 L 1084,-1317 L 1084,-1318 L 1085,-1318 L 1085,-1319 L 1085,-1320 L 1085,-1321 L 1085,-1322 L 1086,-1323 L 1086,-1324 L 1085,-1324 L 1084,-1324 L 1084,-1323 L 1084,-1322 L 1083,-1322 L 1082,-1322 L 1081,-1322 L 1081,-1321 L 1081,-1322 L 1080,-1322 L 1080,-1323 L 1081,-1323 L 1080,-1323 L 1079,-1323 L 1079,-1322 L 1078,-1322 L 1078,-1323 L 1078,-1324 L 1078,-1325 L 1078,-1326 L 1078,-1327 L 1077,-1328 L 1077,-1329 L 1078,-1329 L 1077,-1329 L 1076,-1330 L 1077,-1330 L 1076,-1330 L 1076,-1331 L 1075,-1331 L 1074,-1331 L 1074,-1330 L 1074,-1331 L 1074,-1332 L 1075,-1332 L 1075,-1333 L 1074,-1333 L 1075,-1334 L 1075,-1335 L 1074,-1335 L 1075,-1336 L 1076,-1336 L 1077,-1336 L 1077,-1337 L 1077,-1338 L 1078,-1338 L 1078,-1337 L 1078,-1336 L 1078,-1335 L 1078,-1334 L 1079,-1334 L 1079,-1333 L 1079,-1332 L 1080,-1332 L 1081,-1331 L 1080,-1331 L 1080,-1330 L 1079,-1330 L 1079,-1329 L 1079,-1328 L 1080,-1328 L 1081,-1328 L 1082,-1328 L 1082,-1329 L 1082,-1330 L 1082,-1331 L 1081,-1331 L 1082,-1331 L 1082,-1332 L 1083,-1332 L 1083,-1331 L 1084,-1331 L 1084,-1330 L 1085,-1330 L 1086,-1330 L 1086,-1329 L 1086,-1330 L 1087,-1330 L 1086,-1330 L 1086,-1331 L 1086,-1332 L 1085,-1332 L 1084,-1332 L 1084,-1333 L 1084,-1334 L 1083,-1334 L 1082,-1334 L 1082,-1335 L 1081,-1335 L 1081,-1336 L 1082,-1336 L 1083,-1336 L 1083,-1335 L 1084,-1335 L 1085,-1336 L 1085,-1337 L 1086,-1337 L 1086,-1338 L 1085,-1338 L 1085,-1339 L 1084,-1339 L 1084,-1340 L 1083,-1340 L 1082,-1340 L 1081,-1340 L 1081,-1341 L 1081,-1342 L 1081,-1343 L 1080,-1343 L 1079,-1343 L 1078,-1343 L 1078,-1344 L 1078,-1345 L 1079,-1345 L 1080,-1344 L 1081,-1345 L 1082,-1345 L 1082,-1346 L 1081,-1347 L 1080,-1347 L 1079,-1347 L 1079,-1346 L 1079,-1347 L 1078,-1347 L 1077,-1346 L 1077,-1345 L 1077,-1344 L 1076,-1344 L 1075,-1343 L 1075,-1342 L 1074,-1342 L 1074,-1341 L 1073,-1341 L 1073,-1340 L 1072,-1340 L 1071,-1340 L 1071,-1339 L 1071,-1340 L 1071,-1341 L 1072,-1341 L 1072,-1342 L 1071,-1343 L 1070,-1343 L 1070,-1344 L 1071,-1344 L 1072,-1345 L 1072,-1344 L 1073,-1344 L 1074,-1344 L 1074,-1345 L 1075,-1345 L 1075,-1346 L 1074,-1346 L 1073,-1346 L 1073,-1347 L 1072,-1348 L 1072,-1347 L 1071,-1347 L 1070,-1347 L 1069,-1346 L 1069,-1347 L 1069,-1348 L 1069,-1349 L 1070,-1349 L 1070,-1350 L 1071,-1350 L 1071,-1351 L 1072,-1351 L 1072,-1352 L 1072,-1353 L 1073,-1353 L 1073,-1354 L 1074,-1354 L 1073,-1354 L 1072,-1354 L 1071,-1354 L 1071,-1355 L 1071,-1356 L 1072,-1357 L 1073,-1357 L 1073,-1356 L 1074,-1356 L 1075,-1357 L 1075,-1358 L 1075,-1359 L 1074,-1360 L 1074,-1361 L 1073,-1361 L 1072,-1362 L 1071,-1362 L 1071,-1363 L 1070,-1363 L 1070,-1364 L 1070,-1365 L 1070,-1366 L 1069,-1366 L 1068,-1366 L 1068,-1365 L 1067,-1364 L 1066,-1364 L 1066,-1365 L 1067,-1366 L 1067,-1367 L 1066,-1368 L 1065,-1368 L 1065,-1367 L 1065,-1366 L 1065,-1365 L 1064,-1365 L 1064,-1366 L 1064,-1367 L 1064,-1368 L 1063,-1368 L 1062,-1367 L 1062,-1368 L 1062,-1369 L 1063,-1369 L 1063,-1370 L 1063,-1371 L 1064,-1371 L 1064,-1372 L 1063,-1372 L 1062,-1372 L 1061,-1372 L 1061,-1373 L 1062,-1373 L 1063,-1373 L 1063,-1374 L 1063,-1375 L 1064,-1375 L 1064,-1376 L 1063,-1376 L 1062,-1377 L 1062,-1378 L 1061,-1378 L 1060,-1379 L 1060,-1380 L 1059,-1381 L 1058,-1382 L 1057,-1382 L 1057,-1383 L 1056,-1384 L 1055,-1384 L 1055,-1385 L 1054,-1385 L 1054,-1386 L 1055,-1387 L 1055,-1388 L 1055,-1389 L 1056,-1390 L 1056,-1391 L 1056,-1392 L 1056,-1393 L 1057,-1394 L 1058,-1394 L 1059,-1394 L 1059,-1393 L 1060,-1393 L 1061,-1393 L 1062,-1393 L 1063,-1392 L 1064,-1393 L 1065,-1393 L 1066,-1393 L 1066,-1394 L 1065,-1395 L 1064,-1395 L 1064,-1396 L 1063,-1396 L 1062,-1396 L 1062,-1397 L 1061,-1398 L 1061,-1399 L 1060,-1400 L 1060,-1401 L 1060,-1402 L 1059,-1402 L 1058,-1402 L 1057,-1402 L 1056,-1402 L 1056,-1403 L 1055,-1403 L 1055,-1402 L 1055,-1401 L 1054,-1401 L 1054,-1402 L 1054,-1403 L 1053,-1403 L 1053,-1404 L 1052,-1404 L 1052,-1405 L 1051,-1405 L 1050,-1404 L 1050,-1403 L 1049,-1403 L 1049,-1404 L 1049,-1405 L 1050,-1405 L 1050,-1406 L 1051,-1406 L 1051,-1407 L 1052,-1407 L 1053,-1407 L 1054,-1408 L 1055,-1409 L 1055,-1410 L 1055,-1411 L 1054,-1412 L 1055,-1412 L 1056,-1411 L 1058,-1410 L 1058,-1409 L 1059,-1409 L 1066,-1410 L 1069,-1410 L 1071,-1411 L 1075,-1411 L 1077,-1410 L 1080,-1410 L 1082,-1410 L 1083,-1409 L 1083,-1408 L 1083,-1405 L 1082,-1403 L 1081,-1401 L 1081,-1400 L 1081,-1399 L 1081,-1397 L 1082,-1396 L 1083,-1395 L 1084,-1395 L 1085,-1395 L 1086,-1395 L 1088,-1396 L 1088,-1397 L 1089,-1397 L 1089,-1398 L 1090,-1398 L 1090,-1399 L 1091,-1399 L 1091,-1400 L 1092,-1401 L 1094,-1402 L 1094,-1403 L 1095,-1403 L 1096,-1403 L 1097,-1404 L 1098,-1404 L 1098,-1405 L 1099,-1405 L 1099,-1406 L 1099,-1407 L 1099,-1408 L 1100,-1408 L 1101,-1410 L 1102,-1410 L 1102,-1411 L 1103,-1411 L 1104,-1411 L 1105,-1411 L 1105,-1410 L 1106,-1410 L 1106,-1409 L 1107,-1409 L 1108,-1409 L 1109,-1409 L 1110,-1409 L 1111,-1408 L 1112,-1408 L 1112,-1407 L 1113,-1407 L 1113,-1406 L 1114,-1406 L 1114,-1405 L 1115,-1405 L 1116,-1405 L 1117,-1405 L 1118,-1405 L 1118,-1406 L 1119,-1407 L 1120,-1407 L 1121,-1407 L 1122,-1407 L 1123,-1407 L 1123,-1406 L 1123,-1404 L 1123,-1403 L 1123,-1402 L 1123,-1401 L 1123,-1400 L 1123,-1399 L 1123,-1398 L 1123,-1397 L 1123,-1396 L 1123,-1395 L 1123,-1394 L 1124,-1392 L 1125,-1392 L 1126,-1391 L 1128,-1391 L 1130,-1392 L 1132,-1394 L 1133,-1395 L 1133,-1396 L 1133,-1397 L 1133,-1398 L 1132,-1399 L 1132,-1400 L 1133,-1401 L 1133,-1402 L 1134,-1403 L 1135,-1403 L 1137,-1403 L 1138,-1403 L 1139,-1401 L 1140,-1400 L 1140,-1398 L 1140,-1397 L 1140,-1396 L 1139,-1396 L 1139,-1395 L 1139,-1394 L 1140,-1394 L 1141,-1394 L 1142,-1395 L 1143,-1395 L 1143,-1396 L 1144,-1397 L 1145,-1397 L 1146,-1398 L 1147,-1398 L 1147,-1399 L 1147,-1400 L 1148,-1400 L 1149,-1401 L 1150,-1401 L 1151,-1400 L 1151,-1399 L 1151,-1398 L 1152,-1398 L 1152,-1397 L 1152,-1396 L 1154,-1396 L 1155,-1396 L 1156,-1396 L 1157,-1396 L 1157,-1397 L 1157,-1398 L 1158,-1398 L 1159,-1399 L 1160,-1399 L 1161,-1399 L 1162,-1399 L 1163,-1398 L 1163,-1397 L 1164,-1396 L 1165,-1394 L 1166,-1393 L 1166,-1392 L 1167,-1391 L 1168,-1390 L 1169,-1390 L 1171,-1391 L 1172,-1391 L 1173,-1392 L 1174,-1392 L 1175,-1392 L 1176,-1392 L 1176,-1391 L 1177,-1390 L 1178,-1390 L 1179,-1390 L 1180,-1391 L 1180,-1392 L 1180,-1393 L 1180,-1394 L 1180,-1395 L 1181,-1395 L 1182,-1395 L 1183,-1395 L 1184,-1394 L 1185,-1393 L 1187,-1392 L 1188,-1391 L 1189,-1390 L 1191,-1388 L 1194,-1386 L 1196,-1385 L 1198,-1386 L 1200,-1386 L 1201,-1387 L 1203,-1389 L 1203,-1390 L 1204,-1390 L 1205,-1391 L 1206,-1392 L 1207,-1392 L 1209,-1393 L 1210,-1393 L 1211,-1393 L 1212,-1393 L 1213,-1393 L 1214,-1394 L 1215,-1395 L 1216,-1395 L 1216,-1396 L 1216,-1397 L 1215,-1398 L 1215,-1399 L 1215,-1400 L 1215,-1401 L 1215,-1402 L 1215,-1403 L 1215,-1404 L 1216,-1404 L 1216,-1405 L 1217,-1406 L 1217,-1407 L 1218,-1407 L 1218,-1408 L 1218,-1409 L 1218,-1410 L 1218,-1411 L 1218,-1412 L 1218,-1413 L 1219,-1414 L 1220,-1414 L 1221,-1414 L 1222,-1414 L 1223,-1414 L 1224,-1413 L 1225,-1412 L 1226,-1411 L 1229,-1410 L 1237,-1408 L 1239,-1409 L 1240,-1409 L 1240,-1410 L 1240,-1411 L 1241,-1411 L 1241,-1412 L 1241,-1413 L 1242,-1413 L 1243,-1414 L 1244,-1414 L 1244,-1413 L 1245,-1413 L 1246,-1413 L 1247,-1413 L 1247,-1414 L 1248,-1414 L 1249,-1414 L 1249,-1415 L 1250,-1415 L 1250,-1416 L 1250,-1417 L 1251,-1418 L 1251,-1419 L 1252,-1419 L 1252,-1420 L 1253,-1420 L 1254,-1420 L 1254,-1419 L 1255,-1419 L 1255,-1418 L 1256,-1418 L 1257,-1417 L 1258,-1417 L 1258,-1416 L 1259,-1416 " /></g>
</svg>
