<?xml version="1.0" standalone="no"?><!DOCTYPE svg PUBLIC "-//W3C//DTD SVG 1.1//EN" "http://www.w3.org/Graphics/SVG/1.1/DTD/svg11.dtd"><svg xmlns="http://www.w3.org/2000/svg" viewBox="-497 -1903 98 54" version = "1.1">
<g id="90101" ><path d="M -497,-1896 L -496,-1896 L -496,-1897 L -496,-1898 L -495,-1898 L -494,-1898 L -494,-1897 L -494,-1896 L -494,-1895 L -493,-1895 L -492,-1896 L -491,-1896 L -490,-1896 L -490,-1897 L -491,-1897 L -491,-1898 L -492,-1898 L -492,-1899 L -492,-1900 L -491,-1900 L -490,-1900 L -489,-1900 L -489,-1901 L -488,-1901 L -488,-1902 L -487,-1903 L -486,-1903 L -485,-1903 L -484,-1903 L -484,-1902 L -483,-1902 L -482,-1902 L -481,-1902 L -481,-1903 L -480,-1903 L -480,-1902 L -480,-1901 L -481,-1901 L -481,-1900 L -481,-1899 L -482,-1899 L -481,-1898 L -480,-1898 L -479,-1898 L -478,-1898 L -478,-1897 L -478,-1896 L -479,-1896 L -479,-1895 L -478,-1895 L -477,-1895 L -477,-1896 L -476,-1896 L -475,-1897 L -475,-1898 L -474,-1898 L -473,-1897 L -473,-1896 L -473,-1895 L -472,-1895 L -471,-1895 L -471,-1894 L -471,-1893 L -470,-1893 L -470,-1894 L -470,-1895 L -469,-1895 L -469,-1894 L -468,-1893 L -467,-1892 L -466,-1892 L -465,-1892 L -465,-1893 L -464,-1893 L -464,-1894 L -464,-1895 L -463,-1895 L -463,-1896 L -462,-1896 L -461,-1896 L -461,-1897 L -460,-1897 L -460,-1896 L -459,-1896 L -459,-1895 L -458,-1895 L -458,-1894 L -459,-1894 L -458,-1894 L -458,-1893 L -457,-1893 L -457,-1892 L -456,-1892 L -455,-1892 L -455,-1893 L -454,-1893 L -454,-1894 L -455,-1895 L -456,-1895 L -456,-1894 L -456,-1893 L -457,-1893 L -457,-1894 L -457,-1895 L -458,-1895 L -457,-1896 L -456,-1896 L -455,-1896 L -454,-1896 L -453,-1896 L -453,-1895 L -453,-1894 L -452,-1894 L -451,-1894 L -450,-1894 L -449,-1894 L -449,-1895 L -449,-1896 L -449,-1897 L -449,-1898 L -448,-1898 L -447,-1899 L -446,-1900 L -446,-1901 L -445,-1902 L -444,-1902 L -443,-1902 L -443,-1901 L -442,-1900 L -443,-1900 L -444,-1900 L -444,-1899 L -443,-1899 L -442,-1898 L -442,-1899 L -441,-1899 L -441,-1900 L -441,-1901 L -440,-1901 L -440,-1902 L -440,-1901 L -439,-1901 L -438,-1901 L -438,-1900 L -438,-1899 L -439,-1899 L -439,-1898 L -439,-1897 L -438,-1897 L -437,-1897 L -437,-1898 L -436,-1898 L -435,-1898 L -435,-1897 L -434,-1897 L -434,-1898 L -433,-1898 L -433,-1899 L -432,-1899 L -431,-1899 L -430,-1899 L -431,-1899 L -431,-1900 L -432,-1900 L -433,-1900 L -433,-1901 L -432,-1901 L -431,-1901 L -430,-1901 L -429,-1901 L -429,-1902 L -428,-1902 L -428,-1903 L -428,-1902 L -427,-1902 L -427,-1903 L -426,-1903 L -426,-1902 L -427,-1901 L -428,-1901 L -428,-1900 L -428,-1899 L -427,-1899 L -426,-1899 L -425,-1899 L -425,-1898 L -426,-1897 L -426,-1896 L -426,-1895 L -425,-1895 L -425,-1894 L -424,-1894 L -424,-1895 L -424,-1896 L -425,-1896 L -425,-1897 L -425,-1898 L -424,-1898 L -423,-1898 L -423,-1899 L -423,-1900 L -422,-1900 L -422,-1899 L -422,-1898 L -422,-1897 L -421,-1897 L -420,-1897 L -419,-1897 L -418,-1897 L -417,-1898 L -416,-1898 L -416,-1899 L -415,-1899 L -414,-1899 L -415,-1899 L -415,-1898 L -415,-1897 L -414,-1897 L -414,-1896 L -415,-1896 L -416,-1896 L -416,-1895 L -417,-1895 L -417,-1894 L -417,-1893 L -416,-1893 L -415,-1893 L -415,-1894 L -415,-1895 L -414,-1895 L -414,-1896 L -413,-1896 L -412,-1896 L -411,-1896 L -411,-1895 L -412,-1895 L -412,-1894 L -413,-1894 L -412,-1893 L -412,-1892 L -413,-1892 L -414,-1892 L -414,-1891 L -413,-1891 L -413,-1892 L -413,-1891 L -413,-1890 L -413,-1891 L -412,-1891 L -413,-1891 L -413,-1890 L -412,-1890 L -413,-1890 L -412,-1890 L -413,-1890 L -412,-1890 L -413,-1890 L -413,-1889 L -413,-1890 L -413,-1889 L -413,-1890 L -413,-1889 L -413,-1888 L -412,-1888 L -413,-1888 L -413,-1887 L -412,-1887 L -412,-1888 L -412,-1887 L -412,-1886 L -413,-1886 L -414,-1886 L -414,-1885 L -415,-1885 L -416,-1885 L -416,-1884 L -416,-1883 L -417,-1883 L -417,-1882 L -417,-1881 L -417,-1880 L -417,-1879 L -416,-1879 L -416,-1878 L -417,-1878 L -417,-1877 L -417,-1876 L -417,-1875 L -417,-1874 L -416,-1874 L -416,-1873 L -415,-1873 L -415,-1872 L -415,-1871 L -415,-1870 L -414,-1870 L -414,-1869 L -413,-1869 L -412,-1869 L -412,-1867 L -411,-1867 L -410,-1867 L -409,-1867 L -408,-1867 L -407,-1867 L -406,-1867 L -406,-1866 L -405,-1866 L -405,-1865 L -404,-1865 L -404,-1864 L -403,-1864 L -403,-1863 L -402,-1863 L -402,-1862 L -402,-1861 L -402,-1860 L -402,-1859 L -401,-1859 L -401,-1858 L -401,-1857 L -400,-1857 L -400,-1856 L -400,-1855 L -399,-1854 L -399,-1853 L -399,-1852 L -400,-1852 L -400,-1851 L -400,-1850 L -401,-1850 L -496,-1849 L -497,-1849 L -497,-1896 " /></g>
</svg>
