<?xml version="1.0" standalone="no"?><!DOCTYPE svg PUBLIC "-//W3C//DTD SVG 1.1//EN" "http://www.w3.org/Graphics/SVG/1.1/DTD/svg11.dtd"><svg xmlns="http://www.w3.org/2000/svg" viewBox="-497 -1878 168 128" version = "1.1">
<g id="90102" ><path d="M -329,-1814 L -329,-1815 L -330,-1815 L -331,-1816 L -332,-1817 L -333,-1818 L -334,-1819 L -334,-1820 L -335,-1820 L -335,-1821 L -336,-1821 L -336,-1822 L -337,-1822 L -338,-1822 L -338,-1821 L -337,-1821 L -337,-1820 L -338,-1820 L -338,-1819 L -338,-1818 L -339,-1818 L -340,-1818 L -340,-1819 L -340,-1820 L -340,-1821 L -341,-1821 L -341,-1822 L -342,-1822 L -343,-1822 L -344,-1822 L -345,-1822 L -346,-1822 L -346,-1821 L -347,-1821 L -347,-1820 L -348,-1820 L -349,-1820 L -349,-1819 L -349,-1818 L -349,-1817 L -350,-1816 L -350,-1815 L -351,-1815 L -351,-1816 L -351,-1817 L -352,-1817 L -353,-1817 L -353,-1818 L -354,-1818 L -355,-1818 L -355,-1819 L -356,-1819 L -357,-1819 L -358,-1819 L -358,-1820 L -359,-1819 L -360,-1819 L -361,-1819 L -361,-1820 L -362,-1820 L -363,-1820 L -364,-1819 L -363,-1819 L -363,-1818 L -364,-1817 L -365,-1817 L -366,-1818 L -367,-1819 L -367,-1820 L -368,-1820 L -368,-1819 L -369,-1819 L -370,-1819 L -371,-1819 L -372,-1819 L -373,-1819 L -373,-1818 L -373,-1817 L -374,-1817 L -375,-1817 L -375,-1818 L -376,-1818 L -377,-1817 L -378,-1817 L -379,-1817 L -380,-1817 L -380,-1818 L -381,-1818 L -382,-1818 L -382,-1817 L -381,-1816 L -382,-1815 L -383,-1815 L -384,-1815 L -384,-1816 L -383,-1816 L -383,-1817 L -384,-1817 L -384,-1818 L -385,-1818 L -385,-1817 L -386,-1817 L -387,-1816 L -387,-1817 L -388,-1817 L -388,-1818 L -388,-1819 L -389,-1819 L -390,-1819 L -391,-1819 L -391,-1818 L -392,-1817 L -393,-1817 L -393,-1816 L -394,-1816 L -395,-1815 L -396,-1814 L -397,-1813 L -398,-1813 L -398,-1812 L -398,-1813 L -399,-1813 L -399,-1814 L -398,-1814 L -398,-1815 L -399,-1815 L -399,-1814 L -400,-1814 L -400,-1813 L -400,-1812 L -401,-1812 L -401,-1811 L -402,-1811 L -403,-1811 L -403,-1810 L -404,-1809 L -404,-1808 L -404,-1807 L -405,-1807 L -406,-1807 L -406,-1808 L -407,-1808 L -408,-1808 L -408,-1807 L -408,-1806 L -408,-1805 L -408,-1804 L -408,-1803 L -408,-1802 L -408,-1801 L -409,-1801 L -410,-1801 L -410,-1800 L -410,-1799 L -409,-1799 L -409,-1798 L -410,-1798 L -409,-1797 L -409,-1796 L -410,-1796 L -410,-1795 L -411,-1795 L -411,-1794 L -410,-1794 L -409,-1793 L -409,-1792 L -410,-1793 L -411,-1793 L -412,-1793 L -412,-1792 L -411,-1791 L -411,-1790 L -411,-1789 L -412,-1788 L -413,-1788 L -413,-1789 L -412,-1790 L -412,-1791 L -413,-1791 L -414,-1791 L -414,-1790 L -415,-1790 L -416,-1790 L -416,-1789 L -417,-1789 L -416,-1789 L -416,-1788 L -416,-1787 L -416,-1786 L -416,-1785 L -417,-1785 L -417,-1784 L -418,-1784 L -418,-1785 L -418,-1786 L -418,-1787 L -417,-1788 L -418,-1788 L -418,-1789 L -418,-1788 L -419,-1788 L -419,-1787 L -420,-1787 L -421,-1787 L -421,-1788 L -421,-1789 L -422,-1790 L -422,-1789 L -423,-1789 L -424,-1789 L -425,-1789 L -425,-1788 L -425,-1787 L -424,-1787 L -423,-1787 L -423,-1786 L -424,-1786 L -425,-1786 L -425,-1785 L -425,-1786 L -426,-1786 L -427,-1786 L -428,-1786 L -428,-1785 L -429,-1785 L -430,-1785 L -430,-1784 L -429,-1784 L -429,-1785 L -428,-1785 L -427,-1784 L -427,-1783 L -427,-1782 L -426,-1782 L -426,-1781 L -427,-1781 L -427,-1780 L -427,-1781 L -427,-1782 L -428,-1782 L -429,-1783 L -430,-1783 L -430,-1782 L -430,-1781 L -429,-1780 L -429,-1779 L -429,-1778 L -428,-1778 L -428,-1777 L -429,-1777 L -429,-1778 L -429,-1779 L -430,-1779 L -431,-1779 L -431,-1778 L -431,-1777 L -431,-1776 L -432,-1776 L -433,-1776 L -433,-1777 L -434,-1778 L -435,-1778 L -435,-1777 L -434,-1777 L -433,-1776 L -434,-1775 L -435,-1775 L -435,-1776 L -436,-1777 L -436,-1778 L -437,-1778 L -437,-1777 L -436,-1776 L -437,-1776 L -438,-1776 L -439,-1776 L -439,-1777 L -440,-1777 L -440,-1778 L -441,-1778 L -442,-1778 L -442,-1777 L -442,-1776 L -442,-1775 L -442,-1774 L -443,-1774 L -443,-1775 L -443,-1776 L -444,-1776 L -444,-1777 L -445,-1777 L -445,-1778 L -445,-1779 L -446,-1779 L -446,-1778 L -447,-1778 L -447,-1777 L -446,-1777 L -445,-1777 L -445,-1776 L -446,-1776 L -446,-1775 L -447,-1775 L -448,-1776 L -448,-1777 L -449,-1777 L -450,-1777 L -450,-1776 L -450,-1775 L -450,-1774 L -450,-1773 L -451,-1773 L -451,-1772 L -452,-1772 L -452,-1771 L -452,-1770 L -452,-1769 L -452,-1770 L -453,-1770 L -453,-1771 L -453,-1772 L -454,-1773 L -455,-1773 L -456,-1773 L -456,-1772 L -456,-1771 L -455,-1771 L -454,-1771 L -454,-1770 L -454,-1769 L -455,-1769 L -456,-1769 L -457,-1769 L -457,-1770 L -457,-1771 L -458,-1771 L -458,-1772 L -457,-1772 L -457,-1773 L -458,-1774 L -459,-1774 L -459,-1773 L -459,-1772 L -459,-1771 L -460,-1771 L -461,-1771 L -462,-1771 L -463,-1771 L -463,-1772 L -463,-1773 L -464,-1774 L -464,-1775 L -465,-1775 L -465,-1774 L -466,-1773 L -467,-1773 L -468,-1773 L -469,-1773 L -470,-1773 L -471,-1773 L -471,-1772 L -472,-1772 L -472,-1771 L -471,-1771 L -470,-1771 L -470,-1772 L -469,-1772 L -468,-1772 L -468,-1771 L -469,-1771 L -469,-1770 L -470,-1770 L -471,-1770 L -472,-1770 L -472,-1769 L -472,-1768 L -473,-1768 L -473,-1767 L -474,-1767 L -473,-1766 L -474,-1765 L -474,-1764 L -475,-1764 L -475,-1765 L -476,-1765 L -476,-1764 L -476,-1763 L -475,-1763 L -474,-1763 L -473,-1763 L -473,-1764 L -473,-1763 L -472,-1763 L -472,-1762 L -473,-1762 L -474,-1762 L -475,-1762 L -476,-1762 L -477,-1762 L -477,-1761 L -477,-1760 L -478,-1760 L -478,-1761 L -479,-1762 L -479,-1763 L -480,-1763 L -480,-1762 L -480,-1761 L -480,-1760 L -479,-1760 L -479,-1759 L -478,-1759 L -479,-1759 L -479,-1758 L -480,-1758 L -480,-1757 L -481,-1756 L -482,-1756 L -482,-1757 L -482,-1758 L -483,-1758 L -483,-1757 L -484,-1757 L -485,-1757 L -485,-1756 L -486,-1756 L -486,-1755 L -486,-1754 L -487,-1754 L -488,-1754 L -488,-1755 L -489,-1755 L -490,-1755 L -490,-1754 L -489,-1754 L -488,-1754 L -488,-1753 L -489,-1753 L -490,-1752 L -490,-1751 L -490,-1750 L -491,-1750 L -492,-1750 L -492,-1751 L -491,-1752 L -491,-1753 L -491,-1754 L -491,-1753 L -492,-1753 L -492,-1752 L -493,-1752 L -494,-1752 L -495,-1751 L -495,-1752 L -496,-1752 L -495,-1753 L -494,-1753 L -494,-1754 L -493,-1753 L -493,-1754 L -494,-1754 L -495,-1754 L -495,-1755 L -496,-1755 L -497,-1754 L -497,-1787 L -497,-1843 L -497,-1849 L -496,-1849 L -401,-1850 L -400,-1850 L -396,-1851 L -392,-1852 L -388,-1852 L -385,-1853 L -378,-1854 L -375,-1855 L -372,-1856 L -365,-1858 L -358,-1861 L -355,-1861 L -351,-1862 L -345,-1863 L -344,-1863 L -343,-1863 L -343,-1864 L -343,-1865 L -343,-1866 L -342,-1867 L -341,-1868 L -340,-1868 L -339,-1868 L -337,-1869 L -336,-1869 L -335,-1869 L -335,-1870 L -334,-1871 L -334,-1872 L -333,-1872 L -333,-1873 L -332,-1874 L -331,-1875 L -331,-1876 L -330,-1876 L -330,-1877 L -329,-1878 L -329,-1843 L -329,-1814 " /></g>
</svg>
