<?xml version="1.0" standalone="no"?><!DOCTYPE svg PUBLIC "-//W3C//DTD SVG 1.1//EN" "http://www.w3.org/Graphics/SVG/1.1/DTD/svg11.dtd"><svg xmlns="http://www.w3.org/2000/svg" viewBox="-689 -1924 192 182" version = "1.1">
<g id="90103" ><path d="M -599,-1918 L -599,-1917 L -598,-1917 L -597,-1917 L -596,-1917 L -595,-1917 L -595,-1916 L -594,-1916 L -593,-1916 L -592,-1916 L -592,-1917 L -592,-1918 L -591,-1918 L -590,-1918 L -590,-1917 L -589,-1917 L -589,-1916 L -589,-1915 L -588,-1915 L -588,-1914 L -587,-1915 L -587,-1916 L -588,-1916 L -588,-1917 L -588,-1918 L -587,-1918 L -587,-1919 L -586,-1919 L -585,-1919 L -584,-1919 L -583,-1919 L -582,-1919 L -581,-1919 L -581,-1920 L -580,-1920 L -580,-1919 L -580,-1918 L -581,-1918 L -582,-1918 L -583,-1918 L -583,-1917 L -582,-1917 L -581,-1916 L -580,-1916 L -579,-1916 L -578,-1916 L -577,-1916 L -577,-1915 L -576,-1916 L -575,-1916 L -575,-1917 L -575,-1918 L -574,-1918 L -574,-1919 L -573,-1918 L -572,-1918 L -572,-1917 L -571,-1916 L -570,-1916 L -569,-1915 L -569,-1914 L -569,-1913 L -568,-1913 L -567,-1914 L -566,-1915 L -565,-1915 L -565,-1916 L -564,-1916 L -563,-1917 L -562,-1917 L -562,-1916 L -561,-1916 L -560,-1916 L -559,-1916 L -559,-1917 L -558,-1917 L -558,-1916 L -558,-1915 L -557,-1914 L -556,-1914 L -556,-1913 L -555,-1913 L -554,-1913 L -553,-1913 L -553,-1912 L -553,-1911 L -552,-1911 L -551,-1911 L -550,-1910 L -550,-1911 L -549,-1912 L -549,-1913 L -548,-1914 L -547,-1914 L -547,-1913 L -548,-1913 L -548,-1912 L -548,-1911 L -547,-1911 L -546,-1911 L -545,-1912 L -544,-1912 L -544,-1911 L -545,-1911 L -546,-1910 L -547,-1909 L -546,-1909 L -546,-1908 L -545,-1909 L -544,-1909 L -543,-1909 L -543,-1910 L -542,-1910 L -542,-1909 L -542,-1908 L -541,-1908 L -541,-1909 L -540,-1909 L -540,-1910 L -539,-1910 L -538,-1910 L -537,-1910 L -536,-1910 L -536,-1909 L -536,-1908 L -537,-1907 L -537,-1906 L -537,-1905 L -536,-1905 L -536,-1906 L -535,-1906 L -535,-1907 L -535,-1908 L -534,-1908 L -534,-1909 L -533,-1909 L -532,-1908 L -531,-1907 L -531,-1906 L -531,-1905 L -530,-1905 L -529,-1906 L -528,-1906 L -528,-1907 L -527,-1907 L -527,-1908 L -526,-1908 L -526,-1909 L -525,-1909 L -524,-1909 L -524,-1908 L -523,-1908 L -523,-1907 L -522,-1907 L -522,-1908 L -521,-1908 L -521,-1909 L -521,-1910 L -520,-1910 L -519,-1910 L -519,-1909 L -519,-1908 L -519,-1907 L -518,-1906 L -517,-1906 L -517,-1905 L -517,-1904 L -516,-1904 L -515,-1904 L -515,-1905 L -514,-1906 L -514,-1907 L -513,-1907 L -513,-1908 L -512,-1908 L -512,-1907 L -513,-1907 L -513,-1906 L -512,-1905 L -511,-1905 L -510,-1905 L -510,-1906 L -509,-1907 L -509,-1906 L -508,-1905 L -508,-1904 L -507,-1904 L -506,-1904 L -506,-1905 L -505,-1905 L -505,-1904 L -505,-1903 L -505,-1902 L -504,-1902 L -504,-1901 L -503,-1901 L -503,-1902 L -502,-1902 L -501,-1902 L -500,-1902 L -500,-1901 L -499,-1901 L -499,-1900 L -500,-1900 L -501,-1900 L -501,-1899 L -501,-1898 L -500,-1898 L -499,-1898 L -498,-1898 L -498,-1897 L -497,-1897 L -497,-1896 L -497,-1849 L -497,-1843 L -497,-1787 L -497,-1754 L -497,-1753 L -497,-1752 L -498,-1752 L -499,-1751 L -498,-1751 L -498,-1750 L -499,-1749 L -499,-1750 L -500,-1750 L -500,-1751 L -500,-1752 L -501,-1752 L -501,-1751 L -501,-1750 L -501,-1749 L -502,-1749 L -503,-1749 L -504,-1749 L -505,-1750 L -504,-1750 L -505,-1751 L -505,-1752 L -506,-1752 L -506,-1751 L -506,-1750 L -507,-1750 L -508,-1749 L -508,-1750 L -509,-1750 L -509,-1751 L -508,-1751 L -508,-1752 L -508,-1753 L -509,-1753 L -510,-1753 L -511,-1753 L -511,-1752 L -511,-1751 L -511,-1750 L -512,-1750 L -513,-1750 L -513,-1749 L -513,-1748 L -514,-1748 L -514,-1749 L -515,-1750 L -515,-1751 L -515,-1752 L -516,-1752 L -517,-1752 L -517,-1751 L -518,-1751 L -519,-1752 L -520,-1752 L -520,-1753 L -520,-1754 L -519,-1754 L -519,-1753 L -518,-1753 L -517,-1754 L -518,-1755 L -517,-1755 L -518,-1756 L -519,-1756 L -520,-1756 L -521,-1756 L -521,-1757 L -522,-1757 L -523,-1757 L -523,-1756 L -524,-1756 L -525,-1756 L -525,-1755 L -524,-1755 L -523,-1755 L -522,-1755 L -521,-1755 L -521,-1754 L -521,-1753 L -522,-1753 L -522,-1754 L -523,-1754 L -524,-1754 L -525,-1754 L -525,-1753 L -526,-1753 L -527,-1753 L -527,-1754 L -526,-1754 L -527,-1755 L -528,-1755 L -529,-1755 L -529,-1754 L -530,-1754 L -531,-1754 L -531,-1755 L -532,-1755 L -533,-1754 L -533,-1753 L -532,-1753 L -531,-1752 L -531,-1751 L -532,-1751 L -532,-1752 L -533,-1752 L -534,-1752 L -534,-1751 L -535,-1751 L -535,-1750 L -535,-1749 L -534,-1749 L -533,-1749 L -533,-1748 L -533,-1747 L -534,-1747 L -535,-1748 L -536,-1748 L -536,-1747 L -537,-1747 L -538,-1747 L -538,-1748 L -538,-1749 L -537,-1750 L -538,-1750 L -538,-1751 L -538,-1750 L -539,-1750 L -540,-1749 L -541,-1749 L -541,-1750 L -542,-1750 L -542,-1749 L -543,-1748 L -544,-1748 L -544,-1747 L -544,-1746 L -544,-1745 L -545,-1744 L -546,-1745 L -546,-1746 L -546,-1747 L -547,-1747 L -548,-1747 L -548,-1748 L -549,-1749 L -550,-1749 L -551,-1749 L -552,-1749 L -552,-1748 L -553,-1748 L -554,-1747 L -554,-1748 L -555,-1748 L -555,-1749 L -556,-1749 L -556,-1750 L -557,-1750 L -557,-1749 L -557,-1748 L -558,-1748 L -558,-1747 L -558,-1746 L -559,-1746 L -560,-1746 L -560,-1747 L -559,-1747 L -559,-1748 L -559,-1749 L -560,-1749 L -561,-1749 L -561,-1748 L -562,-1748 L -563,-1748 L -564,-1749 L -565,-1748 L -565,-1747 L -566,-1747 L -567,-1747 L -567,-1748 L -568,-1748 L -569,-1748 L -569,-1747 L -568,-1746 L -569,-1745 L -570,-1745 L -571,-1745 L -572,-1745 L -573,-1745 L -574,-1745 L -574,-1744 L -573,-1744 L -572,-1743 L -573,-1743 L -574,-1743 L -575,-1742 L -576,-1742 L -577,-1742 L -577,-1743 L -576,-1743 L -576,-1744 L -576,-1745 L -577,-1745 L -577,-1744 L -577,-1743 L -578,-1743 L -578,-1744 L -578,-1745 L -579,-1745 L -580,-1745 L -582,-1746 L -604,-1780 L -608,-1786 L -612,-1793 L -617,-1800 L -625,-1813 L -629,-1820 L -633,-1827 L -638,-1835 L -643,-1843 L -648,-1851 L -653,-1860 L -656,-1864 L -685,-1911 L -689,-1918 L -688,-1918 L -688,-1917 L -687,-1918 L -686,-1918 L -685,-1918 L -685,-1917 L -684,-1917 L -683,-1917 L -682,-1917 L -681,-1917 L -681,-1916 L -681,-1915 L -680,-1915 L -679,-1915 L -678,-1915 L -678,-1916 L -677,-1916 L -678,-1916 L -678,-1917 L -678,-1918 L -678,-1919 L -678,-1920 L -677,-1920 L -676,-1920 L -676,-1921 L -675,-1921 L -674,-1921 L -674,-1920 L -673,-1920 L -672,-1920 L -672,-1921 L -671,-1921 L -670,-1920 L -669,-1920 L -669,-1919 L -668,-1919 L -667,-1919 L -667,-1918 L -666,-1918 L -665,-1919 L -665,-1920 L -664,-1921 L -664,-1920 L -663,-1920 L -664,-1919 L -664,-1918 L -663,-1918 L -663,-1917 L -662,-1916 L -661,-1916 L -660,-1916 L -659,-1916 L -658,-1916 L -658,-1915 L -657,-1915 L -657,-1914 L -656,-1914 L -656,-1915 L -656,-1916 L -656,-1917 L -657,-1917 L -657,-1918 L -656,-1918 L -655,-1918 L -654,-1917 L -653,-1917 L -653,-1916 L -652,-1916 L -651,-1916 L -650,-1916 L -650,-1917 L -649,-1917 L -649,-1916 L -648,-1916 L -648,-1917 L -648,-1918 L -648,-1919 L -648,-1920 L -648,-1921 L -647,-1921 L -646,-1921 L -645,-1921 L -644,-1921 L -643,-1921 L -642,-1921 L -641,-1921 L -641,-1920 L -640,-1920 L -639,-1920 L -639,-1921 L -639,-1922 L -639,-1923 L -639,-1924 L -638,-1924 L -637,-1924 L -636,-1924 L -635,-1924 L -635,-1923 L -635,-1922 L -635,-1921 L -635,-1920 L -634,-1920 L -633,-1921 L -633,-1922 L -632,-1922 L -632,-1923 L -631,-1923 L -630,-1923 L -630,-1922 L -630,-1921 L -630,-1920 L -630,-1919 L -629,-1919 L -629,-1918 L -628,-1918 L -628,-1917 L -627,-1918 L -627,-1919 L -628,-1919 L -629,-1920 L -629,-1921 L -628,-1921 L -627,-1921 L -627,-1922 L -626,-1922 L -626,-1921 L -626,-1920 L -626,-1919 L -625,-1919 L -625,-1918 L -625,-1919 L -624,-1919 L -623,-1919 L -623,-1918 L -623,-1917 L -623,-1916 L -623,-1915 L -622,-1914 L -621,-1914 L -621,-1915 L -621,-1916 L -621,-1917 L -621,-1918 L -621,-1919 L -621,-1920 L -620,-1920 L -619,-1920 L -619,-1919 L -618,-1919 L -617,-1919 L -617,-1918 L -616,-1918 L -615,-1918 L -615,-1919 L -616,-1919 L -616,-1920 L -616,-1921 L -615,-1921 L -614,-1921 L -614,-1920 L -613,-1920 L -612,-1920 L -612,-1919 L -612,-1918 L -612,-1917 L -612,-1916 L -611,-1916 L -611,-1915 L -611,-1916 L -611,-1917 L -610,-1917 L -610,-1918 L -610,-1919 L -609,-1919 L -608,-1919 L -608,-1918 L -608,-1917 L -608,-1916 L -607,-1916 L -606,-1916 L -606,-1917 L -606,-1918 L -606,-1919 L -606,-1920 L -606,-1921 L -605,-1921 L -604,-1921 L -604,-1920 L -604,-1919 L -604,-1918 L -603,-1918 L -602,-1918 L -601,-1918 L -600,-1918 L -599,-1918 " /></g>
</svg>
