<?xml version="1.0" standalone="no"?><!DOCTYPE svg PUBLIC "-//W3C//DTD SVG 1.1//EN" "http://www.w3.org/Graphics/SVG/1.1/DTD/svg11.dtd"><svg xmlns="http://www.w3.org/2000/svg" viewBox="-329 -2130 441 331" version = "1.1">
<g id="90104" ><path d="M 98,-2129 L 99,-2129 L 99,-2130 L 100,-2130 L 100,-2129 L 101,-2129 L 101,-2128 L 101,-2127 L 102,-2127 L 102,-2128 L 103,-2128 L 103,-2127 L 103,-2126 L 104,-2126 L 104,-2127 L 105,-2127 L 106,-2127 L 107,-2127 L 108,-2127 L 109,-2127 L 109,-2126 L 110,-2126 L 110,-2127 L 110,-2126 L 110,-2125 L 111,-2125 L 111,-2124 L 111,-2123 L 112,-2123 L 112,-2122 L 111,-2122 L 112,-2122 L 112,-2121 L 111,-2121 L 110,-2121 L 110,-2120 L 110,-2119 L 109,-2119 L 109,-2118 L 108,-2118 L 107,-2118 L 107,-2117 L 107,-2116 L 106,-2116 L 106,-2117 L 106,-2118 L 105,-2117 L 104,-2117 L 105,-2116 L 105,-2115 L 106,-2115 L 105,-2115 L 105,-2114 L 104,-2114 L 104,-2113 L 104,-2112 L 103,-2112 L 103,-2113 L 103,-2114 L 102,-2114 L 102,-2113 L 101,-2113 L 102,-2114 L 101,-2114 L 100,-2114 L 99,-2114 L 99,-2113 L 98,-2113 L 98,-2112 L 97,-2112 L 96,-2111 L 95,-2111 L 95,-2110 L 95,-2109 L 94,-2109 L 93,-2109 L 93,-2110 L 94,-2110 L 93,-2110 L 92,-2111 L 92,-2110 L 92,-2109 L 91,-2109 L 91,-2108 L 91,-2107 L 90,-2107 L 90,-2106 L 89,-2105 L 89,-2104 L 89,-2103 L 88,-2103 L 87,-2103 L 87,-2104 L 86,-2104 L 85,-2104 L 85,-2103 L 84,-2103 L 84,-2102 L 83,-2102 L 82,-2102 L 81,-2101 L 80,-2101 L 80,-2100 L 80,-2099 L 81,-2099 L 80,-2098 L 79,-2098 L 79,-2097 L 78,-2097 L 78,-2096 L 77,-2096 L 77,-2095 L 76,-2095 L 76,-2094 L 77,-2094 L 78,-2094 L 77,-2093 L 77,-2092 L 78,-2092 L 79,-2092 L 79,-2091 L 79,-2090 L 80,-2090 L 79,-2089 L 79,-2090 L 78,-2090 L 78,-2089 L 79,-2089 L 79,-2088 L 78,-2088 L 78,-2087 L 77,-2087 L 77,-2088 L 76,-2088 L 76,-2087 L 75,-2087 L 76,-2087 L 75,-2086 L 76,-2086 L 76,-2085 L 76,-2084 L 75,-2084 L 75,-2085 L 76,-2085 L 76,-2086 L 75,-2086 L 74,-2086 L 74,-2085 L 74,-2084 L 73,-2084 L 72,-2084 L 72,-2083 L 72,-2082 L 72,-2081 L 72,-2080 L 73,-2080 L 73,-2081 L 73,-2080 L 74,-2080 L 74,-2081 L 74,-2080 L 74,-2079 L 73,-2079 L 73,-2078 L 73,-2077 L 73,-2078 L 72,-2078 L 71,-2078 L 70,-2078 L 70,-2077 L 70,-2076 L 69,-2076 L 68,-2076 L 68,-2077 L 67,-2077 L 66,-2077 L 66,-2076 L 66,-2075 L 65,-2075 L 65,-2074 L 66,-2074 L 67,-2073 L 66,-2073 L 65,-2073 L 64,-2073 L 63,-2073 L 63,-2072 L 63,-2071 L 62,-2070 L 61,-2070 L 60,-2070 L 59,-2070 L 58,-2070 L 57,-2070 L 58,-2069 L 57,-2069 L 57,-2068 L 57,-2067 L 57,-2066 L 57,-2065 L 57,-2064 L 56,-2064 L 56,-2063 L 57,-2062 L 58,-2062 L 57,-2062 L 57,-2061 L 56,-2061 L 55,-2061 L 55,-2060 L 54,-2059 L 53,-2059 L 52,-2059 L 51,-2059 L 50,-2059 L 50,-2058 L 51,-2058 L 50,-2057 L 49,-2056 L 48,-2055 L 48,-2054 L 47,-2054 L 46,-2054 L 46,-2055 L 45,-2055 L 45,-2054 L 46,-2054 L 45,-2054 L 45,-2053 L 44,-2053 L 43,-2053 L 43,-2052 L 42,-2052 L 42,-2053 L 42,-2054 L 41,-2054 L 41,-2055 L 40,-2055 L 39,-2054 L 38,-2055 L 37,-2055 L 37,-2054 L 37,-2053 L 38,-2053 L 38,-2052 L 37,-2051 L 36,-2051 L 36,-2050 L 37,-2051 L 37,-2050 L 37,-2049 L 36,-2049 L 35,-2049 L 35,-2050 L 34,-2050 L 34,-2051 L 33,-2050 L 33,-2049 L 32,-2049 L 32,-2050 L 31,-2050 L 31,-2049 L 31,-2048 L 31,-2047 L 32,-2047 L 32,-2046 L 31,-2046 L 30,-2046 L 30,-2045 L 31,-2045 L 30,-2044 L 29,-2044 L 30,-2044 L 30,-2043 L 30,-2042 L 29,-2042 L 28,-2042 L 26,-2042 L 26,-2041 L 25,-2041 L 25,-2040 L 24,-2040 L 23,-2040 L 23,-2039 L 22,-2039 L 22,-2038 L 23,-2038 L 23,-2037 L 23,-2036 L 23,-2035 L 24,-2035 L 23,-2034 L 23,-2033 L 22,-2032 L 21,-2032 L 21,-2033 L 20,-2033 L 20,-2032 L 20,-2031 L 19,-2031 L 19,-2030 L 19,-2031 L 18,-2031 L 18,-2032 L 17,-2032 L 17,-2031 L 16,-2031 L 16,-2030 L 15,-2030 L 15,-2029 L 15,-2028 L 16,-2028 L 15,-2028 L 14,-2028 L 13,-2028 L 13,-2027 L 12,-2027 L 11,-2027 L 10,-2027 L 9,-2027 L 9,-2026 L 9,-2025 L 9,-2024 L 8,-2025 L 8,-2024 L 7,-2024 L 6,-2024 L 5,-2024 L 4,-2023 L 5,-2023 L 5,-2022 L 5,-2021 L 5,-2022 L 5,-2021 L 5,-2022 L 4,-2022 L 4,-2021 L 3,-2021 L 2,-2021 L 1,-2021 L 0,-2021 L 0,-2020 L 1,-2020 L 0,-2020 L 0,-2019 L 0,-2020 L 0,-2021 L -1,-2021 L -1,-2020 L -2,-2020 L -2,-2021 L -3,-2020 L -4,-2020 L -4,-2019 L -4,-2018 L -4,-2017 L -5,-2017 L -6,-2017 L -5,-2017 L -5,-2016 L -6,-2016 L -6,-2015 L -7,-2015 L -7,-2014 L -7,-2013 L -6,-2013 L -7,-2013 L -7,-2012 L -8,-2012 L -9,-2012 L -9,-2013 L -9,-2012 L -10,-2012 L -11,-2012 L -12,-2012 L -13,-2012 L -14,-2012 L -14,-2011 L -15,-2011 L -15,-2010 L -16,-2010 L -16,-2009 L -16,-2008 L -17,-2008 L -17,-2009 L -18,-2009 L -19,-2009 L -18,-2009 L -18,-2008 L -17,-2008 L -17,-2007 L -17,-2008 L -18,-2008 L -18,-2007 L -19,-2007 L -19,-2006 L -20,-2006 L -21,-2006 L -22,-2006 L -22,-2005 L -22,-2004 L -23,-2004 L -23,-2005 L -24,-2005 L -23,-2005 L -24,-2005 L -25,-2005 L -25,-2006 L -26,-2006 L -26,-2005 L -27,-2005 L -28,-2005 L -28,-2004 L -27,-2004 L -28,-2004 L -28,-2003 L -29,-2003 L -30,-2003 L -29,-2002 L -30,-2002 L -30,-2003 L -31,-2003 L -31,-2002 L -30,-2002 L -31,-2002 L -32,-2002 L -32,-2003 L -33,-2002 L -34,-2003 L -35,-2002 L -36,-2002 L -36,-2001 L -36,-2000 L -37,-2000 L -38,-2000 L -38,-1999 L -38,-2000 L -39,-2000 L -39,-1999 L -40,-1999 L -41,-1999 L -40,-1999 L -40,-1998 L -41,-1998 L -42,-1998 L -43,-1998 L -43,-1999 L -44,-1999 L -44,-1998 L -45,-1998 L -45,-1999 L -46,-1999 L -46,-1998 L -47,-1998 L -47,-1999 L -48,-1999 L -49,-1999 L -49,-1998 L -50,-1998 L -50,-1999 L -50,-1998 L -50,-1997 L -51,-1998 L -52,-1998 L -52,-1997 L -53,-1997 L -54,-1997 L -54,-1998 L -54,-1999 L -55,-1999 L -56,-1999 L -56,-2000 L -57,-2000 L -57,-1999 L -58,-1999 L -59,-1998 L -60,-1998 L -61,-1998 L -60,-1998 L -61,-1998 L -61,-1997 L -61,-1998 L -61,-1997 L -61,-1996 L -61,-1995 L -62,-1995 L -61,-1995 L -62,-1995 L -62,-1994 L -13,-1864 L -13,-1863 L -14,-1863 L -14,-1862 L -14,-1861 L -13,-1861 L -14,-1860 L -14,-1861 L -15,-1861 L -15,-1862 L -16,-1862 L -17,-1862 L -16,-1861 L -16,-1860 L -16,-1859 L -17,-1859 L -17,-1858 L -18,-1858 L -18,-1859 L -19,-1859 L -20,-1859 L -20,-1860 L -21,-1860 L -22,-1860 L -22,-1859 L -23,-1859 L -24,-1859 L -24,-1860 L -24,-1861 L -25,-1861 L -26,-1860 L -27,-1860 L -28,-1860 L -28,-1859 L -28,-1858 L -29,-1858 L -29,-1857 L -28,-1856 L -27,-1856 L -27,-1855 L -27,-1854 L -28,-1854 L -29,-1854 L -30,-1853 L -29,-1853 L -29,-1852 L -30,-1852 L -31,-1852 L -31,-1853 L -32,-1853 L -32,-1854 L -33,-1854 L -33,-1853 L -32,-1853 L -32,-1852 L -32,-1851 L -32,-1850 L -33,-1850 L -33,-1851 L -34,-1851 L -34,-1852 L -35,-1851 L -36,-1851 L -37,-1851 L -37,-1850 L -37,-1849 L -38,-1849 L -39,-1849 L -39,-1850 L -40,-1851 L -41,-1851 L -41,-1850 L -41,-1849 L -40,-1849 L -40,-1848 L -40,-1847 L -41,-1847 L -41,-1846 L -42,-1846 L -42,-1847 L -43,-1847 L -44,-1847 L -45,-1847 L -45,-1846 L -46,-1846 L -46,-1847 L -46,-1848 L -47,-1848 L -48,-1847 L -48,-1848 L -48,-1849 L -48,-1850 L -49,-1850 L -49,-1851 L -50,-1851 L -51,-1850 L -51,-1849 L -52,-1849 L -52,-1850 L -52,-1851 L -52,-1852 L -53,-1852 L -53,-1851 L -53,-1850 L -53,-1849 L -54,-1849 L -54,-1850 L -55,-1850 L -56,-1850 L -56,-1851 L -56,-1852 L -57,-1853 L -57,-1854 L -58,-1854 L -58,-1853 L -57,-1853 L -57,-1852 L -57,-1851 L -58,-1851 L -59,-1851 L -60,-1852 L -61,-1852 L -61,-1851 L -61,-1850 L -61,-1851 L -61,-1852 L -61,-1853 L -60,-1853 L -60,-1854 L -61,-1854 L -62,-1854 L -63,-1854 L -63,-1853 L -62,-1853 L -61,-1853 L -62,-1853 L -62,-1852 L -63,-1852 L -63,-1851 L -64,-1851 L -63,-1851 L -64,-1850 L -65,-1850 L -65,-1851 L -64,-1851 L -64,-1852 L -65,-1853 L -65,-1852 L -66,-1852 L -65,-1852 L -65,-1851 L -66,-1851 L -67,-1851 L -67,-1852 L -68,-1852 L -68,-1853 L -68,-1852 L -68,-1851 L -69,-1851 L -69,-1850 L -69,-1851 L -70,-1851 L -71,-1851 L -72,-1850 L -73,-1850 L -74,-1850 L -73,-1849 L -73,-1848 L -73,-1847 L -74,-1847 L -74,-1848 L -74,-1849 L -74,-1850 L -74,-1851 L -75,-1851 L -76,-1851 L -76,-1850 L -77,-1850 L -78,-1849 L -79,-1850 L -79,-1851 L -79,-1852 L -78,-1852 L -77,-1852 L -78,-1853 L -78,-1854 L -79,-1855 L -79,-1854 L -80,-1854 L -79,-1853 L -79,-1852 L -80,-1852 L -80,-1851 L -81,-1851 L -81,-1852 L -80,-1853 L -80,-1854 L -81,-1854 L -81,-1853 L -82,-1853 L -83,-1852 L -84,-1852 L -84,-1853 L -85,-1853 L -86,-1853 L -87,-1853 L -87,-1854 L -88,-1854 L -89,-1855 L -90,-1856 L -91,-1856 L -91,-1855 L -90,-1855 L -90,-1854 L -89,-1854 L -89,-1853 L -90,-1853 L -90,-1852 L -90,-1851 L -91,-1851 L -91,-1852 L -92,-1852 L -93,-1852 L -94,-1852 L -95,-1852 L -95,-1851 L -94,-1851 L -94,-1850 L -95,-1850 L -96,-1850 L -97,-1850 L -98,-1850 L -99,-1850 L -99,-1851 L -100,-1851 L -100,-1850 L -100,-1849 L -100,-1848 L -100,-1847 L -100,-1846 L -100,-1845 L -100,-1846 L -101,-1847 L -101,-1848 L -101,-1849 L -102,-1849 L -103,-1849 L -103,-1848 L -104,-1848 L -104,-1847 L -103,-1847 L -102,-1847 L -102,-1846 L -103,-1846 L -104,-1845 L -105,-1845 L -105,-1846 L -106,-1846 L -106,-1845 L -107,-1845 L -107,-1844 L -107,-1843 L -106,-1843 L -106,-1842 L -107,-1842 L -107,-1843 L -108,-1843 L -108,-1842 L -109,-1842 L -109,-1841 L -110,-1840 L -110,-1839 L -110,-1838 L -111,-1838 L -111,-1839 L -112,-1839 L -112,-1840 L -112,-1839 L -113,-1838 L -112,-1838 L -112,-1837 L -112,-1836 L -113,-1836 L -113,-1837 L -114,-1837 L -115,-1837 L -115,-1836 L -116,-1836 L -116,-1835 L -116,-1834 L -115,-1834 L -114,-1834 L -114,-1833 L -115,-1832 L -116,-1832 L -117,-1832 L -117,-1833 L -118,-1833 L -118,-1832 L -119,-1832 L -119,-1831 L -118,-1831 L -117,-1831 L -117,-1832 L -117,-1831 L -116,-1831 L -115,-1830 L -115,-1829 L -116,-1829 L -116,-1830 L -117,-1831 L -117,-1830 L -117,-1829 L -116,-1829 L -116,-1828 L -117,-1828 L -118,-1829 L -118,-1828 L -118,-1827 L -117,-1827 L -118,-1827 L -118,-1826 L -119,-1826 L -120,-1826 L -120,-1827 L -121,-1827 L -121,-1826 L -120,-1826 L -120,-1825 L -120,-1824 L -121,-1824 L -122,-1824 L -123,-1824 L -124,-1824 L -124,-1823 L -123,-1823 L -122,-1823 L -122,-1822 L -122,-1821 L -123,-1821 L -124,-1822 L -125,-1822 L -125,-1821 L -124,-1821 L -124,-1820 L -125,-1819 L -126,-1819 L -126,-1820 L -125,-1820 L -126,-1821 L -126,-1820 L -127,-1820 L -128,-1821 L -129,-1821 L -129,-1820 L -130,-1820 L -130,-1819 L -131,-1819 L -131,-1818 L -130,-1818 L -130,-1817 L -131,-1817 L -131,-1816 L -132,-1816 L -132,-1815 L -132,-1816 L -132,-1817 L -133,-1818 L -134,-1818 L -134,-1817 L -134,-1816 L -135,-1816 L -135,-1817 L -136,-1817 L -137,-1817 L -137,-1818 L -138,-1818 L -139,-1818 L -139,-1817 L -139,-1816 L -140,-1816 L -141,-1817 L -142,-1817 L -142,-1816 L -143,-1816 L -143,-1815 L -143,-1816 L -144,-1816 L -144,-1817 L -145,-1817 L -145,-1816 L -145,-1815 L -146,-1815 L -146,-1814 L -146,-1813 L -147,-1813 L -147,-1812 L -147,-1813 L -148,-1813 L -148,-1814 L -149,-1814 L -149,-1813 L -149,-1812 L -150,-1812 L -150,-1811 L -151,-1811 L -151,-1812 L -151,-1813 L -152,-1813 L -153,-1813 L -154,-1813 L -155,-1813 L -155,-1812 L -155,-1811 L -154,-1811 L -153,-1811 L -153,-1810 L -153,-1809 L -154,-1810 L -155,-1810 L -156,-1810 L -156,-1811 L -155,-1811 L -155,-1812 L -156,-1812 L -157,-1812 L -158,-1812 L -159,-1812 L -158,-1812 L -158,-1811 L -157,-1811 L -157,-1810 L -158,-1810 L -158,-1809 L -159,-1809 L -160,-1809 L -160,-1810 L -159,-1810 L -159,-1811 L -160,-1810 L -161,-1810 L -162,-1810 L -162,-1809 L -162,-1808 L -161,-1808 L -161,-1807 L -162,-1807 L -162,-1808 L -163,-1808 L -163,-1807 L -164,-1807 L -165,-1807 L -165,-1808 L -165,-1809 L -166,-1808 L -165,-1808 L -165,-1807 L -166,-1807 L -167,-1807 L -168,-1807 L -169,-1807 L -169,-1806 L -168,-1806 L -167,-1806 L -167,-1805 L -168,-1805 L -168,-1804 L -169,-1804 L -170,-1804 L -170,-1805 L -171,-1805 L -171,-1806 L -172,-1806 L -173,-1806 L -172,-1805 L -172,-1804 L -171,-1804 L -171,-1803 L -172,-1803 L -172,-1804 L -173,-1804 L -174,-1803 L -175,-1803 L -175,-1802 L -175,-1801 L -174,-1801 L -174,-1800 L -175,-1800 L -175,-1799 L -175,-1800 L -176,-1801 L -177,-1801 L -177,-1800 L -178,-1800 L -178,-1801 L -179,-1801 L -179,-1802 L -179,-1803 L -180,-1803 L -180,-1802 L -181,-1802 L -181,-1801 L -181,-1800 L -182,-1800 L -182,-1799 L -183,-1799 L -183,-1800 L -182,-1800 L -183,-1801 L -184,-1801 L -185,-1800 L -186,-1800 L -187,-1800 L -187,-1801 L -188,-1802 L -188,-1801 L -189,-1801 L -189,-1802 L -190,-1802 L -190,-1801 L -190,-1800 L -190,-1801 L -191,-1801 L -192,-1801 L -193,-1801 L -194,-1801 L -194,-1802 L -195,-1803 L -196,-1803 L -196,-1804 L -197,-1804 L -197,-1803 L -196,-1802 L -196,-1801 L -197,-1801 L -198,-1801 L -198,-1802 L -198,-1803 L -198,-1804 L -198,-1805 L -197,-1805 L -197,-1806 L -198,-1806 L -199,-1805 L -199,-1804 L -199,-1803 L -198,-1803 L -199,-1803 L -199,-1802 L -200,-1802 L -201,-1802 L -201,-1803 L -200,-1803 L -200,-1804 L -200,-1805 L -201,-1805 L -201,-1804 L -202,-1804 L -202,-1803 L -203,-1803 L -204,-1803 L -205,-1803 L -205,-1804 L -204,-1804 L -204,-1805 L -205,-1805 L -206,-1805 L -207,-1805 L -207,-1804 L -206,-1804 L -206,-1803 L -206,-1802 L -207,-1802 L -208,-1802 L -208,-1803 L -209,-1803 L -210,-1803 L -211,-1803 L -212,-1803 L -213,-1804 L -213,-1805 L -213,-1806 L -214,-1806 L -214,-1805 L -214,-1804 L -215,-1804 L -216,-1804 L -216,-1805 L -217,-1805 L -218,-1805 L -218,-1804 L -217,-1804 L -217,-1803 L -217,-1802 L -217,-1801 L -218,-1801 L -218,-1802 L -219,-1802 L -219,-1803 L -220,-1803 L -221,-1803 L -221,-1802 L -220,-1802 L -221,-1801 L -222,-1801 L -223,-1801 L -223,-1802 L -224,-1802 L -225,-1801 L -226,-1801 L -226,-1802 L -226,-1803 L -227,-1803 L -228,-1804 L -228,-1803 L -227,-1802 L -227,-1801 L -228,-1801 L -229,-1801 L -230,-1801 L -230,-1800 L -231,-1800 L -231,-1801 L -231,-1802 L -232,-1802 L -233,-1802 L -234,-1802 L -234,-1803 L -234,-1804 L -233,-1804 L -233,-1805 L -234,-1805 L -234,-1806 L -234,-1807 L -235,-1807 L -236,-1807 L -237,-1807 L -237,-1806 L -238,-1806 L -239,-1806 L -240,-1807 L -240,-1806 L -241,-1807 L -241,-1808 L -240,-1809 L -240,-1810 L -241,-1810 L -241,-1811 L -242,-1811 L -242,-1810 L -242,-1809 L -243,-1809 L -244,-1808 L -244,-1809 L -244,-1810 L -244,-1811 L -244,-1812 L -244,-1813 L -245,-1813 L -245,-1812 L -246,-1812 L -246,-1813 L -246,-1814 L -246,-1815 L -246,-1814 L -247,-1814 L -248,-1814 L -248,-1815 L -249,-1816 L -250,-1815 L -251,-1815 L -252,-1815 L -252,-1816 L -253,-1816 L -254,-1815 L -255,-1814 L -256,-1814 L -257,-1814 L -257,-1815 L -257,-1816 L -256,-1816 L -255,-1816 L -255,-1815 L -254,-1816 L -254,-1817 L -255,-1817 L -256,-1817 L -257,-1817 L -257,-1818 L -258,-1818 L -259,-1818 L -260,-1819 L -261,-1820 L -262,-1820 L -263,-1820 L -263,-1819 L -263,-1818 L -264,-1818 L -264,-1819 L -264,-1818 L -265,-1818 L -265,-1817 L -266,-1817 L -266,-1816 L -267,-1816 L -267,-1817 L -266,-1817 L -266,-1818 L -267,-1818 L -268,-1818 L -269,-1818 L -270,-1818 L -271,-1819 L -270,-1819 L -270,-1820 L -270,-1821 L -271,-1821 L -272,-1821 L -273,-1821 L -274,-1821 L -275,-1821 L -276,-1821 L -276,-1820 L -276,-1819 L -276,-1818 L -277,-1818 L -277,-1819 L -278,-1820 L -278,-1821 L -278,-1820 L -279,-1820 L -279,-1819 L -280,-1819 L -281,-1819 L -281,-1820 L -280,-1820 L -280,-1821 L -281,-1821 L -282,-1821 L -282,-1822 L -283,-1822 L -284,-1822 L -285,-1822 L -285,-1821 L -284,-1821 L -283,-1820 L -283,-1819 L -283,-1818 L -284,-1818 L -285,-1818 L -285,-1819 L -286,-1819 L -287,-1820 L -287,-1821 L -288,-1821 L -289,-1821 L -289,-1820 L -288,-1820 L -288,-1819 L -287,-1819 L -287,-1818 L -288,-1818 L -288,-1817 L -288,-1818 L -289,-1818 L -290,-1818 L -290,-1817 L -290,-1816 L -289,-1816 L -289,-1815 L -289,-1814 L -289,-1813 L -290,-1813 L -290,-1814 L -291,-1814 L -291,-1813 L -291,-1814 L -292,-1814 L -292,-1813 L -293,-1813 L -294,-1813 L -294,-1812 L -293,-1812 L -293,-1811 L -294,-1811 L -294,-1810 L -295,-1810 L -295,-1811 L -295,-1812 L -296,-1812 L -296,-1813 L -297,-1813 L -298,-1812 L -297,-1812 L -297,-1811 L -297,-1810 L -297,-1809 L -298,-1809 L -298,-1808 L -299,-1808 L -299,-1809 L -300,-1809 L -300,-1808 L -301,-1808 L -301,-1807 L -302,-1807 L -302,-1808 L -302,-1809 L -303,-1809 L -304,-1809 L -305,-1809 L -306,-1808 L -306,-1809 L -306,-1810 L -307,-1811 L -308,-1810 L -309,-1810 L -309,-1811 L -309,-1812 L -309,-1813 L -310,-1813 L -310,-1812 L -311,-1811 L -312,-1810 L -312,-1811 L -313,-1811 L -312,-1812 L -312,-1813 L -312,-1814 L -313,-1814 L -313,-1813 L -313,-1812 L -314,-1812 L -315,-1811 L -316,-1811 L -316,-1812 L -316,-1813 L -315,-1813 L -314,-1813 L -314,-1814 L -314,-1815 L -315,-1815 L -315,-1814 L -316,-1813 L -317,-1814 L -318,-1814 L -318,-1813 L -319,-1813 L -319,-1812 L -319,-1811 L -320,-1811 L -320,-1812 L -321,-1812 L -322,-1812 L -322,-1811 L -323,-1812 L -322,-1812 L -321,-1812 L -321,-1813 L -321,-1814 L -322,-1814 L -322,-1815 L -323,-1816 L -324,-1816 L -324,-1815 L -323,-1815 L -323,-1814 L -323,-1813 L -324,-1813 L -324,-1812 L -325,-1812 L -325,-1813 L -325,-1814 L -326,-1814 L -326,-1815 L -327,-1815 L -327,-1814 L -327,-1813 L -327,-1812 L -328,-1812 L -328,-1813 L -328,-1814 L -329,-1814 L -329,-1843 L -329,-1878 L -328,-1878 L -327,-1878 L -327,-1879 L -326,-1879 L -326,-1880 L -325,-1880 L -324,-1880 L -324,-1881 L -323,-1881 L -322,-1881 L -322,-1882 L -321,-1882 L -320,-1882 L -320,-1881 L -319,-1881 L -318,-1881 L -317,-1882 L -317,-1881 L -316,-1882 L -315,-1882 L -314,-1882 L -313,-1882 L -313,-1883 L -312,-1883 L -311,-1883 L -310,-1883 L -309,-1883 L -309,-1884 L -308,-1884 L -307,-1885 L -307,-1886 L -307,-1887 L -306,-1887 L -305,-1887 L -304,-1887 L -304,-1886 L -304,-1885 L -303,-1885 L -303,-1884 L -302,-1884 L -301,-1884 L -300,-1884 L -300,-1885 L -299,-1885 L -299,-1884 L -298,-1884 L -298,-1883 L -298,-1882 L -297,-1882 L -297,-1881 L -296,-1881 L -296,-1880 L -295,-1880 L -295,-1881 L -294,-1881 L -294,-1882 L -293,-1882 L -292,-1882 L -292,-1883 L -291,-1883 L -290,-1883 L -290,-1884 L -290,-1885 L -291,-1885 L -291,-1886 L -291,-1887 L -291,-1888 L -290,-1888 L -290,-1889 L -290,-1890 L -291,-1890 L -291,-1891 L -290,-1891 L -290,-1892 L -289,-1893 L -288,-1893 L -287,-1893 L -287,-1894 L -286,-1894 L -285,-1894 L -285,-1895 L -284,-1895 L -283,-1895 L -283,-1896 L -282,-1896 L -281,-1896 L -280,-1896 L -280,-1897 L -279,-1897 L -278,-1897 L -277,-1897 L -277,-1896 L -276,-1896 L -275,-1896 L -275,-1897 L -274,-1897 L -274,-1896 L -273,-1896 L -273,-1895 L -273,-1894 L -272,-1894 L -271,-1894 L -271,-1895 L -270,-1895 L -270,-1896 L -269,-1896 L -269,-1897 L -269,-1898 L -268,-1898 L -266,-1899 L -265,-1900 L -264,-1901 L -263,-1901 L -262,-1901 L -261,-1901 L -261,-1902 L -261,-1901 L -260,-1901 L -260,-1902 L -259,-1902 L -258,-1902 L -257,-1902 L -257,-1901 L -256,-1901 L -256,-1902 L -255,-1902 L -254,-1902 L -253,-1902 L -253,-1903 L -252,-1903 L -252,-1904 L -252,-1905 L -252,-1906 L -251,-1906 L -251,-1907 L -250,-1907 L -249,-1907 L -248,-1907 L -248,-1908 L -247,-1908 L -247,-1909 L -246,-1909 L -246,-1910 L -245,-1910 L -245,-1911 L -244,-1911 L -243,-1911 L -243,-1912 L -242,-1912 L -241,-1912 L -241,-1913 L -241,-1912 L -240,-1912 L -240,-1913 L -239,-1913 L -239,-1914 L -239,-1915 L -239,-1916 L -239,-1917 L -238,-1917 L -237,-1917 L -237,-1918 L -238,-1918 L -238,-1919 L -238,-1920 L -237,-1920 L -237,-1921 L -237,-1922 L -237,-1923 L -237,-1924 L -237,-1925 L -236,-1925 L -236,-1926 L -236,-1927 L -236,-1928 L -235,-1928 L -234,-1928 L -234,-1929 L -234,-1930 L -233,-1930 L -233,-1931 L -232,-1931 L -232,-1930 L -231,-1931 L -230,-1931 L -230,-1932 L -230,-1933 L -229,-1933 L -229,-1934 L -229,-1935 L -229,-1936 L -229,-1937 L -229,-1938 L -229,-1939 L -228,-1939 L -228,-1940 L -228,-1941 L -228,-1942 L -227,-1942 L -227,-1943 L -226,-1943 L -226,-1944 L -226,-1945 L -226,-1946 L -226,-1947 L -225,-1947 L -225,-1946 L -225,-1947 L -224,-1947 L -223,-1947 L -222,-1947 L -221,-1947 L -221,-1948 L -220,-1949 L -220,-1950 L -219,-1950 L -219,-1951 L -219,-1952 L -218,-1952 L -218,-1953 L -218,-1954 L -217,-1954 L -216,-1954 L -216,-1955 L -215,-1955 L -215,-1956 L -214,-1956 L -214,-1955 L -214,-1956 L -214,-1957 L -213,-1957 L -213,-1958 L -212,-1958 L -212,-1959 L -211,-1959 L -211,-1960 L -210,-1960 L -209,-1960 L -209,-1961 L -208,-1961 L -208,-1962 L -208,-1963 L -207,-1963 L -207,-1964 L -206,-1964 L -205,-1964 L -205,-1965 L -205,-1966 L -204,-1966 L -204,-1967 L -203,-1967 L -203,-1968 L -202,-1968 L -202,-1969 L -202,-1970 L -201,-1970 L -201,-1969 L -201,-1970 L -200,-1970 L -200,-1971 L -199,-1971 L -199,-1972 L -199,-1971 L -199,-1972 L -198,-1972 L -197,-1972 L -196,-1972 L -196,-1973 L -196,-1974 L -196,-1975 L -196,-1976 L -196,-1977 L -196,-1978 L -196,-1979 L -195,-1979 L -195,-1980 L -195,-1981 L -195,-1982 L -194,-1982 L -194,-1983 L -194,-1984 L -195,-1984 L -195,-1985 L -195,-1986 L -196,-1986 L -196,-1987 L -196,-1988 L -197,-1988 L -197,-1989 L -197,-1990 L -196,-1990 L -196,-1991 L -196,-1990 L -196,-1991 L -196,-1990 L -197,-1990 L -197,-1991 L -196,-1991 L -196,-1992 L -196,-1993 L -196,-1994 L -195,-1994 L -195,-1995 L -195,-1996 L -194,-1996 L -193,-1996 L -193,-1997 L -192,-1997 L -193,-1997 L -193,-1998 L -192,-1998 L -191,-1998 L -191,-1999 L -190,-1999 L -190,-2000 L -190,-2001 L -189,-2001 L -189,-2002 L -188,-2002 L -188,-2001 L -188,-2002 L -187,-2002 L -187,-2003 L -187,-2004 L -186,-2004 L -187,-2004 L -187,-2005 L -186,-2005 L -185,-2005 L -185,-2004 L -184,-2005 L -183,-2005 L -182,-2005 L -182,-2006 L -183,-2006 L -183,-2007 L -182,-2007 L -182,-2008 L -181,-2008 L -180,-2008 L -180,-2009 L -179,-2009 L -179,-2010 L -178,-2010 L -178,-2009 L -177,-2009 L -176,-2009 L -176,-2010 L -175,-2010 L -174,-2010 L -174,-2011 L -173,-2011 L -172,-2011 L -171,-2011 L -171,-2012 L -171,-2013 L -172,-2013 L -171,-2013 L -171,-2014 L -172,-2014 L -171,-2014 L -171,-2015 L -170,-2015 L -170,-2014 L -169,-2014 L -169,-2015 L -170,-2015 L -169,-2015 L -168,-2015 L -168,-2016 L -167,-2016 L -166,-2016 L -166,-2017 L -166,-2016 L -165,-2016 L -165,-2017 L -164,-2017 L -164,-2016 L -164,-2017 L -163,-2017 L -163,-2016 L -163,-2017 L -163,-2016 L -162,-2016 L -161,-2016 L -161,-2017 L -160,-2017 L -159,-2017 L -159,-2016 L -158,-2016 L -158,-2017 L -158,-2016 L -157,-2016 L -158,-2016 L -158,-2015 L -157,-2015 L -157,-2016 L -157,-2015 L -156,-2015 L -155,-2015 L -156,-2015 L -155,-2015 L -155,-2014 L -154,-2014 L -154,-2015 L -154,-2014 L -154,-2013 L -153,-2013 L -153,-2014 L -153,-2013 L -152,-2013 L -152,-2014 L -151,-2014 L -151,-2015 L -150,-2015 L -150,-2016 L -150,-2015 L -149,-2015 L -149,-2016 L -150,-2016 L -149,-2016 L -148,-2016 L -148,-2017 L -147,-2017 L -146,-2017 L -145,-2017 L -145,-2016 L -144,-2016 L -144,-2017 L -143,-2017 L -144,-2016 L -143,-2016 L -143,-2017 L -142,-2016 L -141,-2016 L -141,-2015 L -140,-2015 L -140,-2016 L -139,-2016 L -139,-2015 L -139,-2016 L -139,-2015 L -138,-2015 L -138,-2016 L -138,-2015 L -137,-2015 L -137,-2016 L -137,-2015 L -136,-2015 L -137,-2016 L -136,-2016 L -135,-2016 L -135,-2017 L -134,-2017 L -133,-2017 L -133,-2016 L -133,-2017 L -132,-2017 L -132,-2018 L -132,-2017 L -131,-2017 L -131,-2018 L -131,-2019 L -130,-2019 L -130,-2020 L -129,-2020 L -128,-2020 L -127,-2020 L -127,-2019 L -127,-2020 L -126,-2020 L -126,-2019 L -126,-2018 L -125,-2018 L -124,-2018 L -124,-2019 L -123,-2019 L -124,-2019 L -124,-2020 L -123,-2020 L -123,-2021 L -122,-2021 L -122,-2020 L -122,-2021 L -121,-2021 L -121,-2020 L -120,-2020 L -120,-2021 L -120,-2020 L -119,-2020 L -119,-2021 L -119,-2020 L -119,-2019 L -118,-2019 L -118,-2020 L -117,-2020 L -116,-2020 L -115,-2020 L -114,-2020 L -114,-2019 L -113,-2019 L -113,-2018 L -113,-2019 L -113,-2018 L -112,-2018 L -112,-2017 L -111,-2017 L -111,-2018 L -110,-2018 L -109,-2018 L -108,-2018 L -108,-2017 L -108,-2016 L -107,-2016 L -107,-2017 L -106,-2017 L -105,-2017 L -106,-2017 L -105,-2017 L -104,-2016 L -103,-2016 L -103,-2017 L -102,-2017 L -102,-2016 L -101,-2016 L -102,-2016 L -101,-2016 L -101,-2015 L -100,-2015 L -100,-2014 L -99,-2014 L -100,-2014 L -100,-2013 L -99,-2013 L -100,-2013 L -99,-2013 L -99,-2012 L -98,-2012 L -98,-2013 L -97,-2013 L -97,-2014 L -96,-2013 L -96,-2012 L -95,-2012 L -96,-2012 L -96,-2011 L -95,-2011 L -94,-2011 L -94,-2010 L -93,-2010 L -93,-2011 L -93,-2010 L -92,-2010 L -92,-2009 L -91,-2009 L -91,-2008 L -90,-2008 L -89,-2009 L -90,-2009 L -89,-2009 L -89,-2008 L -89,-2007 L -89,-2008 L -88,-2008 L -87,-2008 L -87,-2007 L -86,-2007 L -86,-2006 L -86,-2007 L -85,-2007 L -86,-2006 L -85,-2006 L -85,-2005 L -84,-2005 L -83,-2005 L -83,-2004 L -83,-2005 L -82,-2005 L -82,-2004 L -82,-2005 L -81,-2005 L -80,-2005 L -79,-2005 L -79,-2004 L -79,-2003 L -78,-2003 L -78,-2002 L -79,-2002 L -78,-2002 L -77,-2001 L -76,-2001 L -75,-2001 L -75,-2002 L -75,-2001 L -75,-2000 L -75,-1999 L -74,-1999 L -72,-1996 L -71,-1996 L -70,-1996 L -70,-1997 L -70,-1996 L -69,-1996 L -69,-1997 L -69,-1998 L -68,-1998 L -68,-1997 L -67,-1997 L -67,-1996 L -67,-1997 L -66,-1997 L -65,-1997 L -65,-1998 L -64,-1998 L -64,-1997 L -64,-1998 L -63,-1998 L -63,-1997 L -62,-1997 L -62,-1998 L -60,-2004 L -60,-2005 L -60,-2006 L -60,-2007 L -59,-2008 L -59,-2010 L -58,-2011 L -58,-2012 L -58,-2013 L -57,-2013 L -57,-2014 L -57,-2015 L -57,-2016 L -57,-2017 L -56,-2017 L -56,-2018 L -56,-2019 L -56,-2020 L -55,-2020 L -55,-2021 L -55,-2022 L -55,-2023 L -54,-2023 L -54,-2024 L -54,-2025 L -54,-2026 L -53,-2026 L -53,-2027 L -53,-2028 L -53,-2029 L -53,-2030 L -52,-2030 L -52,-2031 L -52,-2032 L -51,-2032 L -50,-2032 L -50,-2031 L -49,-2031 L -49,-2030 L -48,-2030 L -48,-2029 L -47,-2028 L -46,-2028 L -43,-2030 L -43,-2031 L -42,-2032 L -41,-2032 L -41,-2033 L -40,-2033 L -40,-2034 L -39,-2034 L -39,-2035 L -40,-2035 L -41,-2035 L -40,-2035 L -39,-2035 L -39,-2036 L -38,-2036 L -38,-2037 L -38,-2038 L -38,-2039 L -37,-2040 L -37,-2041 L -36,-2042 L -36,-2041 L -35,-2041 L -35,-2042 L -35,-2043 L -34,-2043 L -33,-2043 L -32,-2043 L -32,-2044 L -31,-2044 L -30,-2044 L -30,-2045 L -29,-2045 L -29,-2046 L -29,-2047 L -28,-2048 L -29,-2048 L -28,-2049 L -29,-2049 L -29,-2050 L -28,-2050 L -28,-2051 L -28,-2052 L -28,-2053 L -28,-2054 L -27,-2054 L -27,-2055 L -27,-2056 L -26,-2056 L -26,-2057 L -26,-2058 L -25,-2058 L -24,-2058 L -24,-2059 L -24,-2060 L -23,-2060 L -22,-2060 L -21,-2060 L -20,-2060 L -19,-2060 L -19,-2061 L -18,-2061 L -18,-2062 L -17,-2062 L -16,-2062 L -16,-2063 L -16,-2064 L -15,-2064 L -16,-2064 L -16,-2065 L -16,-2066 L -16,-2067 L -15,-2067 L -15,-2068 L -14,-2068 L -13,-2068 L -12,-2068 L -12,-2069 L -11,-2069 L -10,-2069 L -10,-2070 L -9,-2070 L -8,-2070 L -7,-2070 L -7,-2071 L -6,-2071 L -5,-2071 L -4,-2070 L -3,-2070 L -2,-2070 L -1,-2070 L -1,-2069 L 0,-2069 L 0,-2070 L 0,-2071 L 1,-2072 L 1,-2073 L 2,-2073 L 1,-2073 L 1,-2074 L 1,-2075 L 2,-2075 L 3,-2075 L 4,-2075 L 5,-2075 L 5,-2076 L 6,-2076 L 8,-2076 L 9,-2076 L 10,-2076 L 10,-2077 L 11,-2077 L 12,-2077 L 12,-2078 L 13,-2078 L 14,-2078 L 14,-2079 L 15,-2079 L 16,-2080 L 16,-2081 L 17,-2081 L 17,-2082 L 18,-2082 L 18,-2081 L 19,-2081 L 19,-2080 L 20,-2080 L 21,-2080 L 21,-2079 L 22,-2079 L 23,-2079 L 23,-2080 L 22,-2080 L 22,-2081 L 23,-2081 L 24,-2081 L 24,-2082 L 25,-2082 L 25,-2083 L 26,-2083 L 26,-2084 L 27,-2084 L 27,-2085 L 28,-2085 L 28,-2086 L 29,-2086 L 29,-2087 L 29,-2088 L 29,-2089 L 29,-2090 L 30,-2090 L 30,-2091 L 31,-2091 L 32,-2091 L 32,-2090 L 33,-2090 L 34,-2090 L 34,-2091 L 35,-2091 L 35,-2092 L 36,-2092 L 36,-2093 L 36,-2094 L 36,-2095 L 35,-2095 L 35,-2096 L 35,-2097 L 35,-2098 L 35,-2097 L 35,-2098 L 35,-2099 L 35,-2100 L 34,-2100 L 33,-2100 L 33,-2101 L 32,-2101 L 32,-2102 L 32,-2103 L 33,-2103 L 33,-2104 L 34,-2104 L 34,-2105 L 34,-2104 L 34,-2105 L 35,-2105 L 36,-2105 L 36,-2106 L 37,-2108 L 38,-2108 L 38,-2109 L 38,-2108 L 39,-2108 L 39,-2109 L 40,-2109 L 41,-2109 L 41,-2108 L 41,-2107 L 41,-2106 L 42,-2106 L 42,-2105 L 42,-2106 L 42,-2107 L 43,-2107 L 44,-2107 L 45,-2106 L 46,-2106 L 47,-2106 L 47,-2105 L 47,-2106 L 48,-2106 L 49,-2106 L 49,-2107 L 50,-2107 L 50,-2108 L 51,-2108 L 51,-2107 L 52,-2107 L 52,-2106 L 52,-2105 L 53,-2105 L 53,-2104 L 54,-2104 L 54,-2103 L 55,-2103 L 55,-2102 L 55,-2103 L 56,-2103 L 56,-2102 L 56,-2103 L 56,-2104 L 57,-2104 L 57,-2105 L 56,-2105 L 55,-2105 L 55,-2104 L 55,-2105 L 55,-2106 L 56,-2106 L 56,-2107 L 57,-2107 L 58,-2107 L 58,-2108 L 59,-2108 L 59,-2107 L 59,-2108 L 60,-2108 L 60,-2107 L 61,-2107 L 62,-2107 L 63,-2107 L 63,-2106 L 64,-2106 L 64,-2107 L 65,-2107 L 65,-2106 L 66,-2107 L 66,-2106 L 67,-2106 L 67,-2107 L 67,-2108 L 68,-2108 L 69,-2108 L 70,-2108 L 70,-2109 L 69,-2109 L 70,-2109 L 69,-2110 L 68,-2110 L 67,-2111 L 68,-2111 L 67,-2112 L 68,-2112 L 68,-2113 L 67,-2114 L 68,-2114 L 68,-2115 L 68,-2116 L 68,-2117 L 68,-2118 L 67,-2119 L 67,-2120 L 66,-2120 L 66,-2121 L 65,-2121 L 64,-2121 L 64,-2122 L 64,-2123 L 65,-2124 L 65,-2125 L 66,-2125 L 66,-2126 L 66,-2127 L 67,-2127 L 68,-2127 L 68,-2128 L 69,-2128 L 70,-2128 L 70,-2127 L 69,-2127 L 70,-2127 L 71,-2127 L 71,-2126 L 72,-2126 L 73,-2126 L 73,-2127 L 74,-2127 L 75,-2127 L 75,-2126 L 76,-2126 L 77,-2126 L 77,-2127 L 76,-2127 L 77,-2127 L 77,-2128 L 78,-2128 L 79,-2128 L 80,-2128 L 80,-2127 L 81,-2127 L 81,-2126 L 82,-2126 L 83,-2126 L 83,-2125 L 84,-2125 L 84,-2124 L 85,-2124 L 85,-2123 L 86,-2123 L 86,-2124 L 87,-2124 L 88,-2124 L 88,-2125 L 89,-2125 L 89,-2124 L 90,-2125 L 90,-2126 L 91,-2126 L 92,-2126 L 92,-2127 L 93,-2127 L 93,-2128 L 94,-2128 L 94,-2129 L 94,-2128 L 95,-2128 L 95,-2129 L 96,-2129 L 95,-2129 L 96,-2129 L 97,-2130 L 98,-2130 L 98,-2129 " /></g>
</svg>
