<?xml version="1.0" standalone="no"?><!DOCTYPE svg PUBLIC "-//W3C//DTD SVG 1.1//EN" "http://www.w3.org/Graphics/SVG/1.1/DTD/svg11.dtd"><svg xmlns="http://www.w3.org/2000/svg" viewBox="-161 -1909 335 295" version = "1.1">
<g id="90201" ><path d="M 173,-1787 L 170,-1787 L 164,-1787 L 161,-1786 L 157,-1785 L 153,-1784 L 150,-1784 L 146,-1784 L 143,-1783 L 140,-1784 L 136,-1784 L 132,-1784 L 127,-1783 L 125,-1783 L 122,-1783 L 120,-1782 L 118,-1780 L 116,-1778 L 113,-1777 L 111,-1776 L 109,-1772 L 107,-1769 L 104,-1765 L 101,-1760 L 101,-1757 L 101,-1753 L 100,-1751 L 99,-1748 L 98,-1745 L 96,-1743 L 94,-1742 L 93,-1741 L 91,-1740 L 87,-1740 L 84,-1739 L 80,-1738 L 77,-1737 L 74,-1736 L 71,-1735 L 69,-1733 L 68,-1731 L 67,-1728 L 66,-1726 L 64,-1723 L 62,-1721 L 60,-1719 L 58,-1718 L 56,-1718 L 53,-1718 L 51,-1718 L 49,-1718 L 47,-1719 L 44,-1719 L 41,-1719 L 39,-1720 L 38,-1721 L 38,-1722 L 38,-1724 L 38,-1726 L 36,-1726 L 34,-1726 L 32,-1726 L 30,-1727 L 26,-1728 L 23,-1730 L 21,-1731 L 19,-1732 L 17,-1733 L 13,-1733 L 9,-1732 L 7,-1733 L 6,-1734 L 4,-1736 L 3,-1739 L 1,-1740 L -1,-1741 L -4,-1742 L -6,-1743 L -10,-1743 L -15,-1741 L -19,-1741 L -21,-1741 L -26,-1741 L -29,-1741 L -32,-1740 L -35,-1738 L -39,-1736 L -43,-1733 L -46,-1731 L -49,-1727 L -50,-1723 L -50,-1721 L -50,-1718 L -51,-1716 L -52,-1713 L -53,-1711 L -54,-1709 L -54,-1708 L -53,-1707 L -52,-1705 L -51,-1705 L -50,-1704 L -50,-1702 L -50,-1701 L -51,-1699 L -53,-1698 L -55,-1697 L -57,-1697 L -60,-1696 L -62,-1694 L -64,-1691 L -65,-1688 L -67,-1683 L -69,-1678 L -70,-1676 L -72,-1673 L -73,-1672 L -75,-1671 L -78,-1669 L -81,-1668 L -86,-1666 L -89,-1665 L -92,-1665 L -94,-1666 L -96,-1668 L -99,-1669 L -101,-1670 L -106,-1669 L -110,-1669 L -113,-1669 L -116,-1669 L -119,-1668 L -121,-1668 L -123,-1667 L -125,-1666 L -127,-1664 L -130,-1661 L -132,-1660 L -133,-1659 L -133,-1657 L -132,-1655 L -132,-1654 L -132,-1651 L -132,-1650 L -132,-1648 L -133,-1647 L -136,-1646 L -138,-1645 L -141,-1644 L -143,-1643 L -145,-1641 L -146,-1638 L -148,-1635 L -150,-1633 L -151,-1630 L -152,-1627 L -152,-1625 L -151,-1623 L -150,-1621 L -148,-1620 L -147,-1618 L -147,-1617 L -148,-1615 L -150,-1615 L -152,-1614 L -155,-1614 L -157,-1615 L -159,-1615 L -159,-1614 L -161,-1810 L -160,-1810 L -159,-1811 L -159,-1810 L -160,-1810 L -160,-1809 L -159,-1809 L -158,-1809 L -158,-1810 L -157,-1810 L -157,-1811 L -158,-1811 L -158,-1812 L -159,-1812 L -158,-1812 L -157,-1812 L -156,-1812 L -155,-1812 L -155,-1811 L -156,-1811 L -156,-1810 L -155,-1810 L -154,-1810 L -153,-1809 L -153,-1810 L -153,-1811 L -154,-1811 L -155,-1811 L -155,-1812 L -155,-1813 L -154,-1813 L -153,-1813 L -152,-1813 L -151,-1813 L -151,-1812 L -151,-1811 L -150,-1811 L -150,-1812 L -149,-1812 L -149,-1813 L -149,-1814 L -148,-1814 L -148,-1813 L -147,-1813 L -147,-1812 L -147,-1813 L -146,-1813 L -146,-1814 L -146,-1815 L -145,-1815 L -145,-1816 L -145,-1817 L -144,-1817 L -144,-1816 L -143,-1816 L -143,-1815 L -143,-1816 L -142,-1816 L -142,-1817 L -141,-1817 L -140,-1816 L -139,-1816 L -139,-1817 L -139,-1818 L -138,-1818 L -137,-1818 L -137,-1817 L -136,-1817 L -135,-1817 L -135,-1816 L -134,-1816 L -134,-1817 L -134,-1818 L -133,-1818 L -132,-1817 L -132,-1816 L -132,-1815 L -132,-1816 L -131,-1816 L -131,-1817 L -130,-1817 L -130,-1818 L -131,-1818 L -131,-1819 L -130,-1819 L -130,-1820 L -129,-1820 L -129,-1821 L -128,-1821 L -127,-1820 L -126,-1820 L -126,-1821 L -125,-1820 L -126,-1820 L -126,-1819 L -125,-1819 L -124,-1820 L -124,-1821 L -125,-1821 L -125,-1822 L -124,-1822 L -123,-1821 L -122,-1821 L -122,-1822 L -122,-1823 L -123,-1823 L -124,-1823 L -124,-1824 L -123,-1824 L -122,-1824 L -121,-1824 L -120,-1824 L -120,-1825 L -120,-1826 L -121,-1826 L -121,-1827 L -120,-1827 L -120,-1826 L -119,-1826 L -118,-1826 L -118,-1827 L -117,-1827 L -118,-1827 L -118,-1828 L -118,-1829 L -117,-1828 L -116,-1828 L -116,-1829 L -117,-1829 L -117,-1830 L -117,-1831 L -116,-1830 L -116,-1829 L -115,-1829 L -115,-1830 L -116,-1831 L -117,-1831 L -117,-1832 L -117,-1831 L -118,-1831 L -119,-1831 L -119,-1832 L -118,-1832 L -118,-1833 L -117,-1833 L -117,-1832 L -116,-1832 L -115,-1832 L -114,-1833 L -114,-1834 L -115,-1834 L -116,-1834 L -116,-1835 L -116,-1836 L -115,-1836 L -115,-1837 L -114,-1837 L -113,-1837 L -113,-1836 L -112,-1836 L -112,-1837 L -112,-1838 L -113,-1838 L -112,-1839 L -112,-1840 L -112,-1839 L -111,-1839 L -111,-1838 L -110,-1838 L -110,-1839 L -110,-1840 L -109,-1841 L -109,-1842 L -108,-1842 L -108,-1843 L -107,-1843 L -107,-1842 L -106,-1842 L -106,-1843 L -107,-1843 L -107,-1844 L -107,-1845 L -106,-1845 L -106,-1846 L -105,-1846 L -105,-1845 L -104,-1845 L -103,-1846 L -102,-1846 L -102,-1847 L -103,-1847 L -104,-1847 L -104,-1848 L -103,-1848 L -103,-1849 L -102,-1849 L -101,-1849 L -101,-1848 L -101,-1847 L -100,-1846 L -100,-1845 L -100,-1846 L -100,-1847 L -100,-1848 L -100,-1849 L -100,-1850 L -100,-1851 L -99,-1851 L -99,-1850 L -98,-1850 L -97,-1850 L -96,-1850 L -95,-1850 L -94,-1850 L -94,-1851 L -95,-1851 L -95,-1852 L -94,-1852 L -93,-1852 L -92,-1852 L -91,-1852 L -91,-1851 L -90,-1851 L -90,-1852 L -90,-1853 L -89,-1853 L -89,-1854 L -90,-1854 L -90,-1855 L -91,-1855 L -91,-1856 L -90,-1856 L -89,-1855 L -88,-1854 L -87,-1854 L -87,-1853 L -86,-1853 L -85,-1853 L -84,-1853 L -84,-1852 L -83,-1852 L -82,-1853 L -81,-1853 L -81,-1854 L -80,-1854 L -80,-1853 L -81,-1852 L -81,-1851 L -80,-1851 L -80,-1852 L -79,-1852 L -79,-1853 L -80,-1854 L -79,-1854 L -79,-1855 L -78,-1854 L -78,-1853 L -77,-1852 L -78,-1852 L -79,-1852 L -79,-1851 L -79,-1850 L -78,-1849 L -77,-1850 L -76,-1850 L -76,-1851 L -75,-1851 L -74,-1851 L -74,-1850 L -74,-1849 L -74,-1848 L -74,-1847 L -73,-1847 L -73,-1848 L -73,-1849 L -74,-1850 L -73,-1850 L -72,-1850 L -71,-1851 L -70,-1851 L -69,-1851 L -69,-1850 L -69,-1851 L -68,-1851 L -68,-1852 L -68,-1853 L -68,-1852 L -67,-1852 L -67,-1851 L -66,-1851 L -65,-1851 L -65,-1852 L -66,-1852 L -65,-1852 L -65,-1853 L -64,-1852 L -64,-1851 L -65,-1851 L -65,-1850 L -64,-1850 L -63,-1851 L -64,-1851 L -63,-1851 L -63,-1852 L -62,-1852 L -62,-1853 L -61,-1853 L -62,-1853 L -63,-1853 L -63,-1854 L -62,-1854 L -61,-1854 L -60,-1854 L -60,-1853 L -61,-1853 L -61,-1852 L -61,-1851 L -61,-1850 L -61,-1851 L -61,-1852 L -60,-1852 L -59,-1851 L -58,-1851 L -57,-1851 L -57,-1852 L -57,-1853 L -58,-1853 L -58,-1854 L -57,-1854 L -57,-1853 L -56,-1852 L -56,-1851 L -56,-1850 L -55,-1850 L -54,-1850 L -54,-1849 L -53,-1849 L -53,-1850 L -53,-1851 L -53,-1852 L -52,-1852 L -52,-1851 L -52,-1850 L -52,-1849 L -51,-1849 L -51,-1850 L -50,-1851 L -49,-1851 L -49,-1850 L -48,-1850 L -48,-1849 L -48,-1848 L -48,-1847 L -47,-1848 L -46,-1848 L -46,-1847 L -46,-1846 L -45,-1846 L -45,-1847 L -44,-1847 L -43,-1847 L -42,-1847 L -42,-1846 L -41,-1846 L -41,-1847 L -40,-1847 L -40,-1848 L -40,-1849 L -41,-1849 L -41,-1850 L -41,-1851 L -40,-1851 L -39,-1850 L -39,-1849 L -38,-1849 L -37,-1849 L -37,-1850 L -37,-1851 L -36,-1851 L -35,-1851 L -34,-1852 L -34,-1851 L -33,-1851 L -33,-1850 L -32,-1850 L -32,-1851 L -32,-1852 L -32,-1853 L -33,-1853 L -33,-1854 L -32,-1854 L -32,-1853 L -31,-1853 L -31,-1852 L -30,-1852 L -29,-1852 L -29,-1853 L -30,-1853 L -29,-1854 L -28,-1854 L -27,-1854 L -27,-1855 L -27,-1856 L -28,-1856 L -29,-1857 L -29,-1858 L -28,-1858 L -28,-1859 L -28,-1860 L -27,-1860 L -26,-1860 L -25,-1861 L -24,-1861 L -24,-1860 L -24,-1859 L -23,-1859 L -22,-1859 L -22,-1860 L -21,-1860 L -20,-1860 L -20,-1859 L -19,-1859 L -18,-1859 L -18,-1858 L -17,-1858 L -17,-1859 L -16,-1859 L -16,-1860 L -16,-1861 L -17,-1862 L -16,-1862 L -15,-1862 L -15,-1861 L -14,-1861 L -14,-1860 L -13,-1861 L -14,-1861 L -14,-1862 L -14,-1863 L -13,-1863 L -13,-1864 L -12,-1864 L -12,-1865 L -12,-1866 L -11,-1866 L -10,-1866 L -10,-1867 L -10,-1868 L -11,-1868 L -12,-1869 L -12,-1870 L -11,-1871 L -11,-1872 L -10,-1872 L -9,-1872 L -8,-1872 L -8,-1873 L -9,-1873 L -10,-1873 L -10,-1874 L -11,-1874 L -10,-1874 L -10,-1875 L -9,-1875 L -8,-1875 L -8,-1874 L -7,-1874 L -7,-1875 L -7,-1876 L -8,-1876 L -8,-1877 L -7,-1878 L -7,-1879 L -7,-1880 L -8,-1880 L -8,-1881 L -9,-1881 L -8,-1881 L -8,-1882 L -7,-1882 L -6,-1883 L -5,-1883 L -5,-1884 L -5,-1885 L -5,-1886 L -4,-1886 L -3,-1886 L -3,-1885 L -4,-1884 L -4,-1883 L -3,-1883 L -2,-1884 L -2,-1885 L -2,-1886 L -1,-1886 L -1,-1887 L 0,-1887 L 0,-1886 L 1,-1886 L 2,-1886 L 2,-1885 L 3,-1885 L 3,-1886 L 3,-1887 L 2,-1887 L 2,-1888 L 2,-1889 L 3,-1889 L 3,-1890 L 4,-1890 L 5,-1890 L 6,-1890 L 7,-1890 L 8,-1890 L 9,-1890 L 10,-1890 L 10,-1889 L 10,-1888 L 11,-1888 L 11,-1889 L 12,-1889 L 12,-1888 L 11,-1888 L 11,-1887 L 10,-1887 L 10,-1886 L 11,-1886 L 12,-1886 L 13,-1886 L 13,-1887 L 14,-1887 L 14,-1888 L 15,-1888 L 16,-1888 L 16,-1889 L 17,-1889 L 18,-1888 L 19,-1888 L 19,-1889 L 18,-1889 L 18,-1890 L 18,-1891 L 18,-1892 L 17,-1892 L 16,-1892 L 17,-1892 L 18,-1892 L 19,-1892 L 20,-1892 L 20,-1891 L 20,-1890 L 21,-1890 L 22,-1890 L 22,-1891 L 22,-1892 L 22,-1893 L 21,-1893 L 21,-1894 L 21,-1895 L 22,-1895 L 22,-1894 L 23,-1894 L 23,-1893 L 23,-1894 L 24,-1894 L 24,-1895 L 24,-1896 L 24,-1897 L 25,-1897 L 26,-1897 L 26,-1896 L 27,-1897 L 27,-1898 L 27,-1899 L 28,-1899 L 28,-1898 L 28,-1897 L 29,-1896 L 30,-1896 L 30,-1897 L 29,-1897 L 29,-1898 L 29,-1899 L 28,-1899 L 28,-1900 L 28,-1901 L 29,-1901 L 30,-1900 L 30,-1899 L 30,-1898 L 30,-1897 L 31,-1897 L 32,-1897 L 32,-1896 L 33,-1896 L 34,-1896 L 34,-1897 L 33,-1897 L 33,-1898 L 34,-1898 L 34,-1899 L 35,-1899 L 35,-1898 L 36,-1898 L 37,-1899 L 38,-1898 L 39,-1898 L 39,-1897 L 40,-1896 L 40,-1895 L 40,-1894 L 41,-1894 L 42,-1894 L 42,-1895 L 42,-1896 L 42,-1897 L 43,-1897 L 44,-1896 L 45,-1896 L 46,-1896 L 46,-1895 L 47,-1895 L 48,-1895 L 48,-1894 L 49,-1893 L 49,-1892 L 50,-1892 L 50,-1893 L 50,-1894 L 49,-1894 L 50,-1894 L 50,-1895 L 51,-1894 L 52,-1894 L 52,-1893 L 53,-1892 L 54,-1892 L 55,-1891 L 56,-1891 L 57,-1891 L 57,-1890 L 57,-1889 L 58,-1888 L 59,-1887 L 60,-1887 L 61,-1887 L 62,-1887 L 62,-1886 L 61,-1886 L 61,-1885 L 60,-1885 L 59,-1885 L 60,-1884 L 61,-1884 L 62,-1884 L 62,-1883 L 63,-1883 L 63,-1882 L 64,-1882 L 64,-1883 L 65,-1883 L 65,-1882 L 65,-1881 L 65,-1880 L 65,-1879 L 64,-1879 L 64,-1878 L 64,-1877 L 65,-1877 L 65,-1876 L 64,-1876 L 63,-1876 L 62,-1876 L 62,-1875 L 63,-1875 L 64,-1875 L 64,-1874 L 65,-1874 L 65,-1873 L 64,-1873 L 63,-1873 L 63,-1872 L 64,-1872 L 65,-1873 L 66,-1873 L 67,-1873 L 68,-1872 L 68,-1871 L 69,-1871 L 70,-1872 L 71,-1872 L 71,-1873 L 72,-1873 L 72,-1874 L 73,-1874 L 74,-1874 L 75,-1874 L 75,-1875 L 74,-1875 L 75,-1875 L 75,-1876 L 75,-1875 L 76,-1875 L 76,-1874 L 77,-1873 L 77,-1872 L 78,-1872 L 78,-1871 L 77,-1870 L 78,-1870 L 79,-1870 L 80,-1869 L 81,-1869 L 82,-1869 L 82,-1870 L 83,-1870 L 83,-1871 L 83,-1872 L 83,-1873 L 83,-1874 L 84,-1874 L 84,-1873 L 85,-1873 L 85,-1872 L 86,-1871 L 86,-1872 L 86,-1873 L 85,-1874 L 85,-1875 L 85,-1876 L 84,-1876 L 84,-1877 L 84,-1878 L 85,-1878 L 86,-1878 L 86,-1879 L 87,-1880 L 87,-1879 L 88,-1878 L 89,-1878 L 89,-1879 L 90,-1880 L 91,-1880 L 92,-1881 L 92,-1882 L 92,-1883 L 92,-1884 L 93,-1884 L 93,-1883 L 93,-1882 L 94,-1882 L 95,-1882 L 96,-1882 L 97,-1883 L 98,-1883 L 98,-1884 L 99,-1884 L 99,-1883 L 98,-1883 L 98,-1882 L 99,-1881 L 100,-1882 L 101,-1883 L 102,-1883 L 102,-1882 L 102,-1881 L 102,-1880 L 102,-1879 L 103,-1879 L 104,-1880 L 105,-1880 L 106,-1879 L 107,-1879 L 108,-1879 L 108,-1880 L 108,-1881 L 107,-1881 L 107,-1882 L 108,-1882 L 109,-1882 L 109,-1883 L 110,-1883 L 111,-1883 L 111,-1882 L 112,-1883 L 113,-1883 L 113,-1884 L 114,-1884 L 114,-1885 L 113,-1885 L 113,-1886 L 114,-1887 L 115,-1887 L 116,-1886 L 117,-1886 L 118,-1885 L 119,-1885 L 120,-1885 L 121,-1885 L 121,-1886 L 120,-1886 L 120,-1887 L 119,-1887 L 118,-1887 L 118,-1888 L 118,-1889 L 119,-1889 L 120,-1889 L 121,-1889 L 122,-1889 L 123,-1889 L 124,-1890 L 125,-1890 L 126,-1890 L 127,-1890 L 127,-1891 L 127,-1892 L 127,-1893 L 126,-1893 L 126,-1894 L 127,-1894 L 127,-1893 L 128,-1893 L 128,-1892 L 129,-1891 L 129,-1892 L 129,-1893 L 129,-1894 L 130,-1894 L 130,-1893 L 130,-1892 L 131,-1892 L 131,-1891 L 132,-1891 L 132,-1892 L 132,-1893 L 133,-1893 L 134,-1892 L 134,-1891 L 135,-1891 L 135,-1892 L 136,-1893 L 136,-1892 L 136,-1891 L 135,-1891 L 135,-1890 L 135,-1889 L 136,-1889 L 137,-1889 L 138,-1889 L 139,-1889 L 139,-1890 L 138,-1890 L 138,-1891 L 139,-1891 L 139,-1892 L 140,-1892 L 140,-1891 L 141,-1891 L 141,-1890 L 141,-1889 L 140,-1889 L 140,-1888 L 140,-1887 L 141,-1887 L 142,-1888 L 142,-1889 L 143,-1890 L 144,-1891 L 145,-1892 L 146,-1894 L 147,-1895 L 148,-1896 L 148,-1897 L 149,-1898 L 149,-1899 L 150,-1899 L 150,-1900 L 150,-1901 L 150,-1902 L 151,-1902 L 151,-1903 L 152,-1903 L 153,-1902 L 153,-1901 L 152,-1901 L 152,-1900 L 151,-1899 L 151,-1898 L 150,-1898 L 150,-1897 L 151,-1897 L 152,-1897 L 152,-1898 L 153,-1899 L 153,-1900 L 154,-1900 L 154,-1901 L 155,-1901 L 156,-1900 L 157,-1900 L 158,-1900 L 158,-1899 L 157,-1898 L 157,-1897 L 158,-1897 L 159,-1898 L 160,-1898 L 161,-1899 L 162,-1900 L 162,-1899 L 162,-1898 L 161,-1897 L 162,-1897 L 163,-1897 L 164,-1898 L 165,-1898 L 166,-1899 L 167,-1900 L 167,-1901 L 168,-1901 L 168,-1902 L 169,-1901 L 169,-1900 L 170,-1900 L 171,-1900 L 170,-1901 L 171,-1902 L 171,-1903 L 172,-1903 L 173,-1903 L 174,-1903 L 174,-1904 L 173,-1904 L 172,-1904 L 171,-1904 L 171,-1905 L 171,-1906 L 172,-1906 L 173,-1906 L 173,-1907 L 173,-1908 L 172,-1909 L 173,-1909 L 174,-1909 L 174,-1898 L 174,-1814 L 174,-1787 L 173,-1787 " /></g>
</svg>
