<?xml version="1.0" standalone="no"?><!DOCTYPE svg PUBLIC "-//W3C//DTD SVG 1.1//EN" "http://www.w3.org/Graphics/SVG/1.1/DTD/svg11.dtd"><svg xmlns="http://www.w3.org/2000/svg" viewBox="-582 -1822 430 426" version = "1.1">
<g id="90203" ><path d="M -345,-1822 L -344,-1822 L -343,-1822 L -342,-1822 L -341,-1822 L -341,-1821 L -340,-1821 L -340,-1820 L -340,-1819 L -340,-1818 L -339,-1818 L -338,-1818 L -338,-1819 L -338,-1820 L -337,-1820 L -337,-1821 L -338,-1821 L -338,-1822 L -337,-1822 L -336,-1822 L -336,-1821 L -335,-1821 L -335,-1820 L -334,-1820 L -334,-1819 L -333,-1818 L -332,-1817 L -331,-1816 L -330,-1815 L -329,-1815 L -329,-1814 L -328,-1814 L -328,-1813 L -328,-1812 L -327,-1812 L -327,-1813 L -327,-1814 L -327,-1815 L -326,-1815 L -326,-1814 L -325,-1814 L -325,-1813 L -325,-1812 L -324,-1812 L -324,-1813 L -323,-1813 L -323,-1814 L -323,-1815 L -324,-1815 L -324,-1816 L -323,-1816 L -322,-1815 L -322,-1814 L -321,-1814 L -321,-1813 L -321,-1812 L -322,-1812 L -323,-1812 L -322,-1811 L -322,-1812 L -321,-1812 L -320,-1812 L -320,-1811 L -319,-1811 L -319,-1812 L -319,-1813 L -318,-1813 L -318,-1814 L -317,-1814 L -316,-1813 L -315,-1814 L -315,-1815 L -314,-1815 L -314,-1814 L -314,-1813 L -315,-1813 L -316,-1813 L -316,-1812 L -316,-1811 L -315,-1811 L -314,-1812 L -313,-1812 L -313,-1813 L -313,-1814 L -312,-1814 L -312,-1813 L -312,-1812 L -313,-1811 L -312,-1811 L -312,-1810 L -311,-1811 L -310,-1812 L -310,-1813 L -309,-1813 L -309,-1812 L -309,-1811 L -309,-1810 L -308,-1810 L -307,-1811 L -306,-1810 L -306,-1809 L -306,-1808 L -305,-1809 L -304,-1809 L -303,-1809 L -302,-1809 L -302,-1808 L -302,-1807 L -301,-1807 L -301,-1808 L -300,-1808 L -300,-1809 L -299,-1809 L -299,-1808 L -298,-1808 L -298,-1809 L -297,-1809 L -297,-1810 L -297,-1811 L -297,-1812 L -298,-1812 L -297,-1813 L -296,-1813 L -296,-1812 L -295,-1812 L -295,-1811 L -295,-1810 L -294,-1810 L -294,-1811 L -293,-1811 L -293,-1812 L -294,-1812 L -294,-1813 L -293,-1813 L -292,-1813 L -292,-1814 L -291,-1814 L -291,-1813 L -291,-1814 L -290,-1814 L -290,-1813 L -289,-1813 L -289,-1814 L -289,-1815 L -289,-1816 L -290,-1816 L -290,-1817 L -290,-1818 L -289,-1818 L -288,-1818 L -288,-1817 L -288,-1818 L -287,-1818 L -287,-1819 L -288,-1819 L -288,-1820 L -289,-1820 L -289,-1821 L -288,-1821 L -287,-1821 L -287,-1820 L -286,-1819 L -285,-1819 L -285,-1818 L -284,-1818 L -283,-1818 L -283,-1819 L -283,-1820 L -284,-1821 L -285,-1821 L -285,-1822 L -284,-1822 L -283,-1822 L -282,-1822 L -282,-1821 L -281,-1821 L -280,-1821 L -280,-1820 L -281,-1820 L -281,-1819 L -280,-1819 L -279,-1819 L -279,-1820 L -278,-1820 L -278,-1821 L -278,-1820 L -277,-1819 L -277,-1818 L -276,-1818 L -276,-1819 L -276,-1820 L -276,-1821 L -275,-1821 L -274,-1821 L -273,-1821 L -272,-1821 L -271,-1821 L -270,-1821 L -270,-1820 L -270,-1819 L -271,-1819 L -270,-1818 L -269,-1818 L -268,-1818 L -267,-1818 L -266,-1818 L -266,-1817 L -267,-1817 L -267,-1816 L -266,-1816 L -266,-1817 L -265,-1817 L -265,-1818 L -264,-1818 L -264,-1819 L -264,-1818 L -263,-1818 L -263,-1819 L -263,-1820 L -262,-1820 L -261,-1820 L -260,-1819 L -259,-1818 L -258,-1818 L -257,-1818 L -257,-1817 L -256,-1817 L -255,-1817 L -254,-1817 L -254,-1816 L -255,-1815 L -255,-1816 L -256,-1816 L -257,-1816 L -257,-1815 L -257,-1814 L -256,-1814 L -255,-1814 L -254,-1815 L -253,-1816 L -252,-1816 L -252,-1815 L -251,-1815 L -250,-1815 L -249,-1816 L -248,-1815 L -248,-1814 L -247,-1814 L -246,-1814 L -246,-1815 L -246,-1814 L -246,-1813 L -246,-1812 L -245,-1812 L -245,-1813 L -244,-1813 L -244,-1812 L -244,-1811 L -244,-1810 L -244,-1809 L -244,-1808 L -243,-1809 L -242,-1809 L -242,-1810 L -242,-1811 L -241,-1811 L -241,-1810 L -240,-1810 L -240,-1809 L -241,-1808 L -241,-1807 L -240,-1806 L -240,-1807 L -239,-1806 L -238,-1806 L -237,-1806 L -237,-1807 L -236,-1807 L -235,-1807 L -234,-1807 L -234,-1806 L -234,-1805 L -233,-1805 L -233,-1804 L -234,-1804 L -234,-1803 L -234,-1802 L -233,-1802 L -232,-1802 L -231,-1802 L -231,-1801 L -231,-1800 L -230,-1800 L -230,-1801 L -229,-1801 L -228,-1801 L -227,-1801 L -227,-1802 L -228,-1803 L -228,-1804 L -227,-1803 L -226,-1803 L -226,-1802 L -226,-1801 L -225,-1801 L -224,-1802 L -223,-1802 L -223,-1801 L -222,-1801 L -221,-1801 L -220,-1802 L -221,-1802 L -221,-1803 L -220,-1803 L -219,-1803 L -219,-1802 L -218,-1802 L -218,-1801 L -217,-1801 L -217,-1802 L -217,-1803 L -217,-1804 L -218,-1804 L -218,-1805 L -217,-1805 L -216,-1805 L -216,-1804 L -215,-1804 L -214,-1804 L -214,-1805 L -214,-1806 L -213,-1806 L -213,-1805 L -213,-1804 L -212,-1803 L -211,-1803 L -210,-1803 L -209,-1803 L -208,-1803 L -208,-1802 L -207,-1802 L -206,-1802 L -206,-1803 L -206,-1804 L -207,-1804 L -207,-1805 L -206,-1805 L -205,-1805 L -204,-1805 L -204,-1804 L -205,-1804 L -205,-1803 L -204,-1803 L -203,-1803 L -202,-1803 L -202,-1804 L -201,-1804 L -201,-1805 L -200,-1805 L -200,-1804 L -200,-1803 L -201,-1803 L -201,-1802 L -200,-1802 L -199,-1802 L -199,-1803 L -198,-1803 L -199,-1803 L -199,-1804 L -199,-1805 L -198,-1806 L -197,-1806 L -197,-1805 L -198,-1805 L -198,-1804 L -198,-1803 L -198,-1802 L -198,-1801 L -197,-1801 L -196,-1801 L -196,-1802 L -197,-1803 L -197,-1804 L -196,-1804 L -196,-1803 L -195,-1803 L -194,-1802 L -194,-1801 L -193,-1801 L -192,-1801 L -191,-1801 L -190,-1801 L -190,-1800 L -190,-1801 L -190,-1802 L -189,-1802 L -189,-1801 L -188,-1801 L -188,-1802 L -187,-1801 L -187,-1800 L -186,-1800 L -185,-1800 L -184,-1801 L -183,-1801 L -182,-1800 L -183,-1800 L -183,-1799 L -182,-1799 L -182,-1800 L -181,-1800 L -181,-1801 L -181,-1802 L -180,-1802 L -180,-1803 L -179,-1803 L -179,-1802 L -179,-1801 L -178,-1801 L -178,-1800 L -177,-1800 L -177,-1801 L -176,-1801 L -175,-1800 L -175,-1799 L -175,-1800 L -174,-1800 L -174,-1801 L -175,-1801 L -175,-1802 L -175,-1803 L -174,-1803 L -173,-1804 L -172,-1804 L -172,-1803 L -171,-1803 L -171,-1804 L -172,-1804 L -172,-1805 L -173,-1806 L -172,-1806 L -171,-1806 L -171,-1805 L -170,-1805 L -170,-1804 L -169,-1804 L -168,-1804 L -168,-1805 L -167,-1805 L -167,-1806 L -168,-1806 L -169,-1806 L -169,-1807 L -168,-1807 L -167,-1807 L -166,-1807 L -165,-1807 L -165,-1808 L -166,-1808 L -165,-1809 L -165,-1808 L -165,-1807 L -164,-1807 L -163,-1807 L -163,-1808 L -162,-1808 L -162,-1807 L -161,-1807 L -161,-1808 L -162,-1808 L -162,-1809 L -162,-1810 L -161,-1810 L -159,-1614 L -159,-1613 L -159,-1611 L -158,-1609 L -156,-1606 L -155,-1604 L -154,-1600 L -153,-1597 L -152,-1594 L -152,-1591 L -152,-1588 L -153,-1585 L -154,-1583 L -156,-1581 L -159,-1579 L -161,-1577 L -162,-1575 L -165,-1573 L -166,-1571 L -169,-1570 L -171,-1570 L -174,-1569 L -176,-1568 L -179,-1566 L -181,-1564 L -183,-1562 L -186,-1560 L -189,-1556 L -191,-1554 L -193,-1552 L -195,-1551 L -197,-1551 L -200,-1552 L -201,-1553 L -203,-1555 L -205,-1556 L -207,-1556 L -209,-1556 L -211,-1556 L -213,-1556 L -215,-1557 L -218,-1558 L -220,-1559 L -222,-1560 L -225,-1560 L -228,-1560 L -230,-1560 L -233,-1560 L -235,-1560 L -237,-1560 L -239,-1560 L -240,-1559 L -240,-1558 L -240,-1557 L -240,-1555 L -239,-1552 L -238,-1550 L -238,-1547 L -238,-1545 L -237,-1541 L -237,-1538 L -236,-1535 L -237,-1533 L -238,-1531 L -238,-1528 L -237,-1527 L -236,-1521 L -236,-1517 L -237,-1514 L -238,-1510 L -239,-1507 L -241,-1503 L -242,-1501 L -244,-1499 L -247,-1497 L -250,-1496 L -251,-1495 L -253,-1493 L -255,-1491 L -259,-1488 L -262,-1487 L -265,-1487 L -267,-1487 L -270,-1488 L -271,-1489 L -272,-1489 L -274,-1490 L -277,-1489 L -281,-1489 L -284,-1488 L -287,-1486 L -290,-1484 L -294,-1481 L -296,-1478 L -298,-1475 L -300,-1471 L -299,-1469 L -298,-1466 L -296,-1462 L -295,-1452 L -295,-1446 L -296,-1442 L -298,-1439 L -301,-1435 L -304,-1433 L -307,-1430 L -310,-1428 L -311,-1426 L -314,-1424 L -315,-1423 L -317,-1422 L -319,-1422 L -321,-1422 L -323,-1423 L -326,-1424 L -327,-1426 L -329,-1428 L -331,-1430 L -333,-1430 L -335,-1431 L -336,-1431 L -338,-1431 L -339,-1431 L -342,-1432 L -343,-1432 L -344,-1432 L -345,-1432 L -346,-1432 L -347,-1433 L -348,-1433 L -350,-1433 L -351,-1433 L -352,-1433 L -353,-1433 L -354,-1432 L -355,-1432 L -356,-1432 L -357,-1431 L -358,-1430 L -358,-1429 L -359,-1429 L -359,-1428 L -358,-1427 L -358,-1426 L -357,-1426 L -357,-1425 L -357,-1424 L -356,-1424 L -356,-1423 L -355,-1423 L -355,-1422 L -354,-1422 L -354,-1421 L -353,-1421 L -353,-1420 L -351,-1418 L -350,-1417 L -349,-1416 L -348,-1415 L -348,-1413 L -348,-1412 L -348,-1411 L -349,-1410 L -351,-1409 L -354,-1407 L -355,-1406 L -357,-1405 L -358,-1403 L -360,-1402 L -363,-1401 L -365,-1399 L -368,-1397 L -371,-1397 L -374,-1396 L -379,-1397 L -381,-1399 L -449,-1524 L -486,-1593 L -493,-1604 L -495,-1608 L -546,-1686 L -564,-1716 L -582,-1746 L -580,-1745 L -579,-1745 L -578,-1745 L -578,-1744 L -578,-1743 L -577,-1743 L -577,-1744 L -577,-1745 L -576,-1745 L -576,-1744 L -576,-1743 L -577,-1743 L -577,-1742 L -576,-1742 L -575,-1742 L -574,-1743 L -573,-1743 L -572,-1743 L -573,-1744 L -574,-1744 L -574,-1745 L -573,-1745 L -572,-1745 L -571,-1745 L -570,-1745 L -569,-1745 L -568,-1746 L -569,-1747 L -569,-1748 L -568,-1748 L -567,-1748 L -567,-1747 L -566,-1747 L -565,-1747 L -565,-1748 L -564,-1749 L -563,-1748 L -562,-1748 L -561,-1748 L -561,-1749 L -560,-1749 L -559,-1749 L -559,-1748 L -559,-1747 L -560,-1747 L -560,-1746 L -559,-1746 L -558,-1746 L -558,-1747 L -558,-1748 L -557,-1748 L -557,-1749 L -557,-1750 L -556,-1750 L -556,-1749 L -555,-1749 L -555,-1748 L -554,-1748 L -554,-1747 L -553,-1748 L -552,-1748 L -552,-1749 L -551,-1749 L -550,-1749 L -549,-1749 L -548,-1748 L -548,-1747 L -547,-1747 L -546,-1747 L -546,-1746 L -546,-1745 L -545,-1744 L -544,-1745 L -544,-1746 L -544,-1747 L -544,-1748 L -543,-1748 L -542,-1749 L -542,-1750 L -541,-1750 L -541,-1749 L -540,-1749 L -539,-1750 L -538,-1750 L -538,-1751 L -538,-1750 L -537,-1750 L -538,-1749 L -538,-1748 L -538,-1747 L -537,-1747 L -536,-1747 L -536,-1748 L -535,-1748 L -534,-1747 L -533,-1747 L -533,-1748 L -533,-1749 L -534,-1749 L -535,-1749 L -535,-1750 L -535,-1751 L -534,-1751 L -534,-1752 L -533,-1752 L -532,-1752 L -532,-1751 L -531,-1751 L -531,-1752 L -532,-1753 L -533,-1753 L -533,-1754 L -532,-1755 L -531,-1755 L -531,-1754 L -530,-1754 L -529,-1754 L -529,-1755 L -528,-1755 L -527,-1755 L -526,-1754 L -527,-1754 L -527,-1753 L -526,-1753 L -525,-1753 L -525,-1754 L -524,-1754 L -523,-1754 L -522,-1754 L -522,-1753 L -521,-1753 L -521,-1754 L -521,-1755 L -522,-1755 L -523,-1755 L -524,-1755 L -525,-1755 L -525,-1756 L -524,-1756 L -523,-1756 L -523,-1757 L -522,-1757 L -521,-1757 L -521,-1756 L -520,-1756 L -519,-1756 L -518,-1756 L -517,-1755 L -518,-1755 L -517,-1754 L -518,-1753 L -519,-1753 L -519,-1754 L -520,-1754 L -520,-1753 L -520,-1752 L -519,-1752 L -518,-1751 L -517,-1751 L -517,-1752 L -516,-1752 L -515,-1752 L -515,-1751 L -515,-1750 L -514,-1749 L -514,-1748 L -513,-1748 L -513,-1749 L -513,-1750 L -512,-1750 L -511,-1750 L -511,-1751 L -511,-1752 L -511,-1753 L -510,-1753 L -509,-1753 L -508,-1753 L -508,-1752 L -508,-1751 L -509,-1751 L -509,-1750 L -508,-1750 L -508,-1749 L -507,-1750 L -506,-1750 L -506,-1751 L -506,-1752 L -505,-1752 L -505,-1751 L -504,-1750 L -505,-1750 L -504,-1749 L -503,-1749 L -502,-1749 L -501,-1749 L -501,-1750 L -501,-1751 L -501,-1752 L -500,-1752 L -500,-1751 L -500,-1750 L -499,-1750 L -499,-1749 L -498,-1750 L -498,-1751 L -499,-1751 L -498,-1752 L -497,-1752 L -497,-1753 L -497,-1754 L -496,-1755 L -495,-1755 L -495,-1754 L -494,-1754 L -493,-1754 L -493,-1753 L -494,-1754 L -494,-1753 L -495,-1753 L -496,-1752 L -495,-1752 L -495,-1751 L -494,-1752 L -493,-1752 L -492,-1752 L -492,-1753 L -491,-1753 L -491,-1754 L -491,-1753 L -491,-1752 L -492,-1751 L -492,-1750 L -491,-1750 L -490,-1750 L -490,-1751 L -490,-1752 L -489,-1753 L -488,-1753 L -488,-1754 L -489,-1754 L -490,-1754 L -490,-1755 L -489,-1755 L -488,-1755 L -488,-1754 L -487,-1754 L -486,-1754 L -486,-1755 L -486,-1756 L -485,-1756 L -485,-1757 L -484,-1757 L -483,-1757 L -483,-1758 L -482,-1758 L -482,-1757 L -482,-1756 L -481,-1756 L -480,-1757 L -480,-1758 L -479,-1758 L -479,-1759 L -478,-1759 L -479,-1759 L -479,-1760 L -480,-1760 L -480,-1761 L -480,-1762 L -480,-1763 L -479,-1763 L -479,-1762 L -478,-1761 L -478,-1760 L -477,-1760 L -477,-1761 L -477,-1762 L -476,-1762 L -475,-1762 L -474,-1762 L -473,-1762 L -472,-1762 L -472,-1763 L -473,-1763 L -473,-1764 L -473,-1763 L -474,-1763 L -475,-1763 L -476,-1763 L -476,-1764 L -476,-1765 L -475,-1765 L -475,-1764 L -474,-1764 L -474,-1765 L -473,-1766 L -474,-1767 L -473,-1767 L -473,-1768 L -472,-1768 L -472,-1769 L -472,-1770 L -471,-1770 L -470,-1770 L -469,-1770 L -469,-1771 L -468,-1771 L -468,-1772 L -469,-1772 L -470,-1772 L -470,-1771 L -471,-1771 L -472,-1771 L -472,-1772 L -471,-1772 L -471,-1773 L -470,-1773 L -469,-1773 L -468,-1773 L -467,-1773 L -466,-1773 L -465,-1774 L -465,-1775 L -464,-1775 L -464,-1774 L -463,-1773 L -463,-1772 L -463,-1771 L -462,-1771 L -461,-1771 L -460,-1771 L -459,-1771 L -459,-1772 L -459,-1773 L -459,-1774 L -458,-1774 L -457,-1773 L -457,-1772 L -458,-1772 L -458,-1771 L -457,-1771 L -457,-1770 L -457,-1769 L -456,-1769 L -455,-1769 L -454,-1769 L -454,-1770 L -454,-1771 L -455,-1771 L -456,-1771 L -456,-1772 L -456,-1773 L -455,-1773 L -454,-1773 L -453,-1772 L -453,-1771 L -453,-1770 L -452,-1770 L -452,-1769 L -452,-1770 L -452,-1771 L -452,-1772 L -451,-1772 L -451,-1773 L -450,-1773 L -450,-1774 L -450,-1775 L -450,-1776 L -450,-1777 L -449,-1777 L -448,-1777 L -448,-1776 L -447,-1775 L -446,-1775 L -446,-1776 L -445,-1776 L -445,-1777 L -446,-1777 L -447,-1777 L -447,-1778 L -446,-1778 L -446,-1779 L -445,-1779 L -445,-1778 L -445,-1777 L -444,-1777 L -444,-1776 L -443,-1776 L -443,-1775 L -443,-1774 L -442,-1774 L -442,-1775 L -442,-1776 L -442,-1777 L -442,-1778 L -441,-1778 L -440,-1778 L -440,-1777 L -439,-1777 L -439,-1776 L -438,-1776 L -437,-1776 L -436,-1776 L -437,-1777 L -437,-1778 L -436,-1778 L -436,-1777 L -435,-1776 L -435,-1775 L -434,-1775 L -433,-1776 L -434,-1777 L -435,-1777 L -435,-1778 L -434,-1778 L -433,-1777 L -433,-1776 L -432,-1776 L -431,-1776 L -431,-1777 L -431,-1778 L -431,-1779 L -430,-1779 L -429,-1779 L -429,-1778 L -429,-1777 L -428,-1777 L -428,-1778 L -429,-1778 L -429,-1779 L -429,-1780 L -430,-1781 L -430,-1782 L -430,-1783 L -429,-1783 L -428,-1782 L -427,-1782 L -427,-1781 L -427,-1780 L -427,-1781 L -426,-1781 L -426,-1782 L -427,-1782 L -427,-1783 L -427,-1784 L -428,-1785 L -429,-1785 L -429,-1784 L -430,-1784 L -430,-1785 L -429,-1785 L -428,-1785 L -428,-1786 L -427,-1786 L -426,-1786 L -425,-1786 L -425,-1785 L -425,-1786 L -424,-1786 L -423,-1786 L -423,-1787 L -424,-1787 L -425,-1787 L -425,-1788 L -425,-1789 L -424,-1789 L -423,-1789 L -422,-1789 L -422,-1790 L -421,-1789 L -421,-1788 L -421,-1787 L -420,-1787 L -419,-1787 L -419,-1788 L -418,-1788 L -418,-1789 L -418,-1788 L -417,-1788 L -418,-1787 L -418,-1786 L -418,-1785 L -418,-1784 L -417,-1784 L -417,-1785 L -416,-1785 L -416,-1786 L -416,-1787 L -416,-1788 L -416,-1789 L -417,-1789 L -416,-1789 L -416,-1790 L -415,-1790 L -414,-1790 L -414,-1791 L -413,-1791 L -412,-1791 L -412,-1790 L -413,-1789 L -413,-1788 L -412,-1788 L -411,-1789 L -411,-1790 L -411,-1791 L -412,-1792 L -412,-1793 L -411,-1793 L -410,-1793 L -409,-1792 L -409,-1793 L -410,-1794 L -411,-1794 L -411,-1795 L -410,-1795 L -410,-1796 L -409,-1796 L -409,-1797 L -410,-1798 L -409,-1798 L -409,-1799 L -410,-1799 L -410,-1800 L -410,-1801 L -409,-1801 L -408,-1801 L -408,-1802 L -408,-1803 L -408,-1804 L -408,-1805 L -408,-1806 L -408,-1807 L -408,-1808 L -407,-1808 L -406,-1808 L -406,-1807 L -405,-1807 L -404,-1807 L -404,-1808 L -404,-1809 L -403,-1810 L -403,-1811 L -402,-1811 L -401,-1811 L -401,-1812 L -400,-1812 L -400,-1813 L -400,-1814 L -399,-1814 L -399,-1815 L -398,-1815 L -398,-1814 L -399,-1814 L -399,-1813 L -398,-1813 L -398,-1812 L -398,-1813 L -397,-1813 L -396,-1814 L -395,-1815 L -394,-1816 L -393,-1816 L -393,-1817 L -392,-1817 L -391,-1818 L -391,-1819 L -390,-1819 L -389,-1819 L -388,-1819 L -388,-1818 L -388,-1817 L -387,-1817 L -387,-1816 L -386,-1817 L -385,-1817 L -385,-1818 L -384,-1818 L -384,-1817 L -383,-1817 L -383,-1816 L -384,-1816 L -384,-1815 L -383,-1815 L -382,-1815 L -381,-1816 L -382,-1817 L -382,-1818 L -381,-1818 L -380,-1818 L -380,-1817 L -379,-1817 L -378,-1817 L -377,-1817 L -376,-1818 L -375,-1818 L -375,-1817 L -374,-1817 L -373,-1817 L -373,-1818 L -373,-1819 L -372,-1819 L -371,-1819 L -370,-1819 L -369,-1819 L -368,-1819 L -368,-1820 L -367,-1820 L -367,-1819 L -366,-1818 L -365,-1817 L -364,-1817 L -363,-1818 L -363,-1819 L -364,-1819 L -363,-1820 L -362,-1820 L -361,-1820 L -361,-1819 L -360,-1819 L -359,-1819 L -358,-1820 L -358,-1819 L -357,-1819 L -356,-1819 L -355,-1819 L -355,-1818 L -354,-1818 L -353,-1818 L -353,-1817 L -352,-1817 L -351,-1817 L -351,-1816 L -351,-1815 L -350,-1815 L -350,-1816 L -349,-1817 L -349,-1818 L -349,-1819 L -349,-1820 L -348,-1820 L -347,-1820 L -347,-1821 L -346,-1821 L -346,-1822 L -345,-1822 " /></g>
</svg>
