<?xml version="1.0" standalone="no"?><!DOCTYPE svg PUBLIC "-//W3C//DTD SVG 1.1//EN" "http://www.w3.org/Graphics/SVG/1.1/DTD/svg11.dtd"><svg xmlns="http://www.w3.org/2000/svg" viewBox="174 -1966 332 180" version = "1.1">
<g id="90202" ><path d="M 479,-1962 L 479,-1961 L 480,-1961 L 480,-1962 L 481,-1962 L 481,-1963 L 481,-1964 L 481,-1965 L 481,-1966 L 482,-1966 L 482,-1965 L 483,-1964 L 482,-1964 L 482,-1963 L 481,-1962 L 481,-1961 L 480,-1961 L 480,-1960 L 480,-1959 L 480,-1958 L 481,-1958 L 482,-1958 L 483,-1958 L 484,-1958 L 485,-1958 L 485,-1957 L 486,-1958 L 487,-1959 L 486,-1959 L 486,-1960 L 485,-1960 L 485,-1961 L 484,-1961 L 484,-1962 L 484,-1963 L 485,-1963 L 486,-1963 L 486,-1964 L 487,-1963 L 488,-1963 L 488,-1962 L 488,-1961 L 487,-1961 L 487,-1960 L 487,-1959 L 488,-1959 L 489,-1959 L 490,-1959 L 490,-1960 L 490,-1961 L 491,-1961 L 492,-1961 L 493,-1961 L 494,-1961 L 494,-1960 L 494,-1959 L 495,-1959 L 496,-1959 L 496,-1960 L 497,-1960 L 497,-1961 L 497,-1962 L 497,-1963 L 498,-1963 L 499,-1963 L 499,-1962 L 500,-1962 L 500,-1961 L 501,-1961 L 502,-1961 L 503,-1962 L 504,-1962 L 505,-1962 L 506,-1962 L 499,-1958 L 495,-1956 L 492,-1954 L 488,-1952 L 486,-1950 L 484,-1949 L 484,-1947 L 486,-1945 L 489,-1944 L 491,-1944 L 494,-1944 L 496,-1946 L 498,-1947 L 500,-1948 L 503,-1948 L 505,-1947 L 506,-1945 L 505,-1942 L 503,-1940 L 500,-1938 L 497,-1937 L 495,-1934 L 494,-1932 L 493,-1928 L 494,-1924 L 494,-1919 L 493,-1914 L 492,-1907 L 491,-1905 L 491,-1904 L 490,-1903 L 488,-1902 L 486,-1902 L 484,-1902 L 483,-1902 L 480,-1902 L 479,-1903 L 478,-1904 L 478,-1907 L 478,-1910 L 478,-1912 L 477,-1916 L 477,-1918 L 476,-1921 L 475,-1924 L 474,-1926 L 472,-1927 L 469,-1929 L 466,-1929 L 460,-1929 L 458,-1928 L 456,-1927 L 454,-1924 L 452,-1922 L 451,-1919 L 450,-1916 L 449,-1914 L 449,-1912 L 449,-1909 L 447,-1907 L 445,-1904 L 442,-1901 L 440,-1898 L 437,-1897 L 435,-1896 L 432,-1894 L 429,-1893 L 425,-1891 L 421,-1890 L 419,-1890 L 417,-1891 L 417,-1893 L 417,-1895 L 417,-1897 L 418,-1900 L 418,-1904 L 418,-1907 L 417,-1910 L 415,-1912 L 413,-1914 L 411,-1915 L 408,-1916 L 405,-1918 L 403,-1919 L 400,-1919 L 398,-1918 L 397,-1917 L 398,-1915 L 400,-1915 L 403,-1914 L 405,-1914 L 406,-1913 L 408,-1911 L 409,-1908 L 409,-1905 L 408,-1903 L 406,-1901 L 404,-1899 L 400,-1898 L 397,-1897 L 396,-1894 L 395,-1890 L 394,-1885 L 395,-1879 L 394,-1877 L 392,-1875 L 389,-1874 L 387,-1873 L 383,-1872 L 381,-1871 L 378,-1869 L 376,-1867 L 374,-1866 L 372,-1864 L 371,-1862 L 369,-1862 L 368,-1863 L 369,-1865 L 371,-1868 L 372,-1870 L 373,-1873 L 373,-1876 L 372,-1878 L 371,-1880 L 368,-1882 L 366,-1883 L 364,-1883 L 362,-1882 L 360,-1881 L 359,-1880 L 359,-1878 L 360,-1876 L 361,-1874 L 362,-1872 L 365,-1869 L 365,-1867 L 365,-1864 L 364,-1861 L 363,-1859 L 361,-1858 L 359,-1858 L 357,-1858 L 356,-1859 L 356,-1862 L 355,-1864 L 354,-1866 L 352,-1868 L 350,-1869 L 347,-1870 L 344,-1871 L 343,-1870 L 342,-1870 L 341,-1870 L 339,-1868 L 339,-1867 L 337,-1866 L 336,-1863 L 335,-1861 L 334,-1860 L 331,-1857 L 328,-1853 L 326,-1851 L 322,-1849 L 320,-1847 L 317,-1845 L 315,-1844 L 313,-1845 L 312,-1845 L 310,-1846 L 308,-1848 L 307,-1850 L 305,-1852 L 302,-1854 L 298,-1856 L 296,-1856 L 294,-1856 L 292,-1854 L 291,-1851 L 291,-1849 L 292,-1847 L 293,-1845 L 295,-1843 L 296,-1841 L 296,-1840 L 296,-1838 L 295,-1836 L 293,-1835 L 291,-1835 L 289,-1836 L 287,-1837 L 285,-1837 L 283,-1837 L 280,-1837 L 278,-1835 L 276,-1834 L 274,-1832 L 272,-1829 L 270,-1827 L 268,-1824 L 267,-1823 L 265,-1824 L 264,-1825 L 263,-1827 L 263,-1830 L 261,-1833 L 258,-1835 L 255,-1837 L 251,-1839 L 249,-1840 L 247,-1842 L 244,-1843 L 242,-1844 L 240,-1844 L 239,-1843 L 237,-1842 L 237,-1840 L 238,-1838 L 239,-1836 L 240,-1834 L 242,-1833 L 243,-1831 L 243,-1829 L 243,-1826 L 243,-1824 L 243,-1821 L 243,-1817 L 242,-1814 L 239,-1810 L 237,-1808 L 235,-1806 L 232,-1805 L 230,-1804 L 229,-1802 L 227,-1800 L 226,-1799 L 224,-1798 L 222,-1798 L 220,-1798 L 218,-1799 L 217,-1800 L 215,-1804 L 212,-1809 L 210,-1813 L 207,-1816 L 205,-1818 L 203,-1819 L 200,-1819 L 198,-1819 L 195,-1819 L 193,-1818 L 192,-1816 L 191,-1813 L 191,-1811 L 193,-1808 L 193,-1805 L 193,-1802 L 192,-1798 L 191,-1796 L 188,-1792 L 184,-1789 L 182,-1787 L 181,-1786 L 180,-1786 L 178,-1786 L 176,-1786 L 174,-1787 L 174,-1814 L 174,-1898 L 174,-1909 L 174,-1910 L 175,-1910 L 175,-1909 L 175,-1908 L 175,-1909 L 176,-1909 L 177,-1910 L 178,-1910 L 178,-1911 L 178,-1912 L 177,-1912 L 176,-1913 L 177,-1913 L 178,-1913 L 179,-1913 L 180,-1912 L 179,-1911 L 180,-1911 L 181,-1911 L 181,-1912 L 181,-1913 L 182,-1914 L 183,-1913 L 183,-1912 L 183,-1911 L 184,-1911 L 184,-1912 L 184,-1913 L 184,-1914 L 184,-1915 L 185,-1915 L 185,-1914 L 186,-1914 L 186,-1913 L 187,-1912 L 188,-1913 L 188,-1914 L 189,-1914 L 190,-1914 L 190,-1913 L 190,-1912 L 190,-1911 L 191,-1911 L 191,-1912 L 191,-1913 L 191,-1914 L 192,-1915 L 193,-1915 L 193,-1914 L 193,-1913 L 194,-1912 L 195,-1912 L 195,-1913 L 195,-1914 L 195,-1915 L 195,-1916 L 195,-1917 L 196,-1916 L 197,-1916 L 197,-1917 L 197,-1918 L 198,-1918 L 198,-1917 L 198,-1916 L 198,-1915 L 198,-1914 L 199,-1914 L 199,-1913 L 200,-1913 L 200,-1914 L 201,-1914 L 202,-1914 L 202,-1915 L 201,-1915 L 200,-1915 L 199,-1915 L 199,-1916 L 200,-1916 L 201,-1916 L 202,-1916 L 202,-1915 L 203,-1915 L 204,-1915 L 204,-1914 L 204,-1913 L 204,-1912 L 204,-1911 L 205,-1911 L 206,-1911 L 207,-1911 L 208,-1912 L 208,-1913 L 209,-1913 L 209,-1912 L 210,-1912 L 210,-1913 L 211,-1913 L 212,-1913 L 212,-1912 L 211,-1911 L 210,-1911 L 209,-1910 L 209,-1909 L 210,-1909 L 211,-1910 L 212,-1910 L 213,-1910 L 214,-1910 L 215,-1910 L 216,-1910 L 217,-1910 L 217,-1911 L 217,-1912 L 218,-1912 L 218,-1913 L 219,-1913 L 219,-1914 L 220,-1914 L 220,-1913 L 220,-1912 L 220,-1911 L 219,-1911 L 218,-1911 L 217,-1911 L 218,-1910 L 219,-1910 L 220,-1910 L 221,-1910 L 221,-1911 L 222,-1911 L 223,-1912 L 224,-1912 L 224,-1911 L 225,-1911 L 225,-1910 L 226,-1910 L 227,-1909 L 228,-1910 L 229,-1910 L 229,-1911 L 228,-1911 L 227,-1912 L 228,-1912 L 229,-1912 L 229,-1911 L 230,-1911 L 231,-1912 L 231,-1913 L 230,-1913 L 230,-1914 L 231,-1914 L 231,-1915 L 231,-1914 L 232,-1914 L 233,-1913 L 234,-1912 L 235,-1911 L 236,-1911 L 236,-1910 L 237,-1910 L 237,-1911 L 238,-1911 L 239,-1911 L 239,-1910 L 240,-1909 L 240,-1908 L 240,-1907 L 240,-1906 L 241,-1905 L 242,-1906 L 243,-1906 L 243,-1907 L 244,-1906 L 243,-1905 L 243,-1904 L 244,-1904 L 245,-1904 L 245,-1903 L 245,-1902 L 246,-1902 L 247,-1903 L 246,-1903 L 246,-1904 L 246,-1905 L 247,-1906 L 247,-1905 L 248,-1905 L 248,-1904 L 249,-1903 L 249,-1902 L 249,-1901 L 250,-1901 L 251,-1902 L 251,-1903 L 251,-1904 L 251,-1905 L 252,-1905 L 253,-1905 L 253,-1904 L 253,-1903 L 253,-1902 L 254,-1902 L 255,-1903 L 254,-1903 L 254,-1904 L 254,-1905 L 255,-1906 L 256,-1905 L 256,-1904 L 255,-1904 L 255,-1903 L 255,-1902 L 256,-1902 L 257,-1902 L 257,-1901 L 258,-1901 L 258,-1902 L 258,-1903 L 259,-1904 L 259,-1903 L 259,-1902 L 259,-1901 L 258,-1901 L 258,-1900 L 257,-1900 L 257,-1899 L 258,-1899 L 259,-1899 L 259,-1898 L 260,-1898 L 260,-1899 L 260,-1900 L 260,-1901 L 260,-1902 L 261,-1902 L 262,-1902 L 262,-1901 L 263,-1901 L 264,-1901 L 265,-1901 L 265,-1902 L 266,-1903 L 267,-1904 L 267,-1905 L 267,-1906 L 268,-1906 L 268,-1907 L 269,-1907 L 269,-1906 L 270,-1906 L 271,-1906 L 271,-1907 L 271,-1908 L 270,-1908 L 270,-1909 L 271,-1909 L 271,-1910 L 272,-1910 L 272,-1911 L 273,-1911 L 274,-1911 L 274,-1910 L 274,-1909 L 274,-1908 L 274,-1907 L 275,-1907 L 276,-1907 L 276,-1908 L 277,-1908 L 278,-1908 L 278,-1907 L 278,-1906 L 279,-1906 L 279,-1907 L 280,-1908 L 281,-1907 L 282,-1907 L 282,-1908 L 283,-1908 L 284,-1908 L 284,-1909 L 284,-1910 L 284,-1911 L 283,-1911 L 283,-1912 L 284,-1912 L 285,-1912 L 285,-1911 L 286,-1911 L 287,-1911 L 288,-1911 L 289,-1911 L 289,-1912 L 289,-1913 L 288,-1913 L 288,-1914 L 287,-1914 L 287,-1915 L 288,-1915 L 288,-1914 L 289,-1914 L 290,-1914 L 290,-1915 L 290,-1916 L 289,-1916 L 290,-1916 L 291,-1916 L 292,-1916 L 293,-1916 L 293,-1917 L 293,-1918 L 293,-1919 L 293,-1920 L 293,-1921 L 294,-1921 L 295,-1921 L 295,-1922 L 294,-1922 L 294,-1923 L 293,-1923 L 293,-1924 L 294,-1924 L 295,-1925 L 296,-1926 L 297,-1926 L 297,-1927 L 298,-1927 L 298,-1928 L 297,-1928 L 296,-1928 L 296,-1929 L 297,-1929 L 297,-1930 L 298,-1930 L 299,-1931 L 300,-1931 L 300,-1930 L 301,-1929 L 302,-1929 L 303,-1929 L 303,-1930 L 303,-1931 L 302,-1932 L 303,-1932 L 304,-1932 L 304,-1931 L 304,-1930 L 304,-1929 L 305,-1929 L 305,-1928 L 305,-1929 L 306,-1929 L 306,-1930 L 307,-1930 L 306,-1931 L 305,-1932 L 305,-1933 L 306,-1933 L 307,-1933 L 307,-1934 L 308,-1934 L 309,-1934 L 309,-1933 L 310,-1933 L 310,-1934 L 310,-1935 L 310,-1936 L 309,-1936 L 309,-1937 L 309,-1938 L 310,-1938 L 310,-1939 L 311,-1939 L 311,-1938 L 311,-1937 L 311,-1936 L 312,-1936 L 312,-1935 L 312,-1934 L 313,-1934 L 314,-1934 L 314,-1933 L 315,-1933 L 316,-1933 L 316,-1934 L 315,-1934 L 314,-1934 L 314,-1935 L 314,-1936 L 315,-1936 L 316,-1935 L 317,-1935 L 318,-1935 L 318,-1934 L 319,-1934 L 319,-1935 L 320,-1935 L 321,-1935 L 322,-1935 L 323,-1935 L 323,-1934 L 324,-1934 L 323,-1934 L 323,-1935 L 323,-1936 L 323,-1937 L 322,-1937 L 321,-1937 L 321,-1938 L 321,-1939 L 322,-1939 L 323,-1939 L 323,-1940 L 324,-1940 L 324,-1941 L 323,-1941 L 323,-1942 L 324,-1942 L 324,-1941 L 325,-1941 L 325,-1940 L 325,-1939 L 325,-1938 L 326,-1938 L 327,-1938 L 328,-1938 L 329,-1938 L 329,-1939 L 329,-1940 L 328,-1940 L 328,-1941 L 327,-1942 L 327,-1943 L 328,-1943 L 328,-1944 L 328,-1945 L 328,-1946 L 329,-1946 L 330,-1946 L 330,-1945 L 331,-1945 L 331,-1946 L 330,-1947 L 330,-1948 L 330,-1949 L 331,-1949 L 331,-1948 L 332,-1948 L 332,-1947 L 332,-1946 L 333,-1946 L 333,-1947 L 333,-1948 L 333,-1949 L 334,-1950 L 334,-1949 L 335,-1949 L 335,-1950 L 336,-1951 L 337,-1951 L 337,-1950 L 338,-1950 L 338,-1949 L 337,-1948 L 337,-1947 L 338,-1947 L 339,-1947 L 339,-1948 L 339,-1949 L 339,-1950 L 339,-1951 L 339,-1952 L 340,-1952 L 341,-1952 L 341,-1951 L 342,-1951 L 343,-1951 L 343,-1952 L 343,-1953 L 342,-1953 L 343,-1954 L 344,-1955 L 345,-1955 L 345,-1956 L 346,-1956 L 346,-1955 L 347,-1955 L 348,-1955 L 348,-1954 L 347,-1954 L 347,-1953 L 348,-1953 L 348,-1954 L 349,-1954 L 349,-1955 L 349,-1956 L 350,-1956 L 351,-1956 L 352,-1957 L 352,-1958 L 352,-1957 L 352,-1956 L 353,-1956 L 354,-1956 L 354,-1957 L 355,-1957 L 356,-1957 L 356,-1956 L 355,-1956 L 355,-1955 L 354,-1955 L 354,-1954 L 355,-1954 L 356,-1954 L 356,-1955 L 356,-1956 L 357,-1956 L 358,-1956 L 358,-1957 L 357,-1957 L 356,-1957 L 356,-1958 L 357,-1958 L 358,-1958 L 359,-1958 L 360,-1958 L 361,-1957 L 361,-1956 L 361,-1955 L 362,-1955 L 363,-1955 L 363,-1956 L 363,-1957 L 364,-1957 L 364,-1956 L 364,-1955 L 365,-1955 L 366,-1955 L 367,-1955 L 368,-1956 L 367,-1957 L 366,-1957 L 366,-1958 L 366,-1959 L 367,-1959 L 368,-1959 L 369,-1959 L 369,-1960 L 370,-1960 L 370,-1961 L 371,-1961 L 372,-1961 L 373,-1961 L 373,-1960 L 373,-1959 L 374,-1959 L 375,-1959 L 376,-1959 L 377,-1959 L 377,-1958 L 378,-1957 L 378,-1956 L 378,-1955 L 379,-1956 L 380,-1956 L 380,-1955 L 379,-1955 L 378,-1954 L 378,-1953 L 379,-1953 L 380,-1953 L 381,-1953 L 382,-1953 L 383,-1953 L 383,-1952 L 384,-1952 L 384,-1951 L 385,-1952 L 386,-1953 L 386,-1954 L 387,-1954 L 388,-1955 L 388,-1956 L 388,-1957 L 389,-1957 L 389,-1956 L 390,-1956 L 390,-1957 L 391,-1957 L 391,-1956 L 390,-1956 L 389,-1955 L 389,-1954 L 389,-1953 L 388,-1953 L 389,-1953 L 389,-1952 L 390,-1952 L 391,-1953 L 391,-1954 L 391,-1955 L 391,-1956 L 392,-1956 L 393,-1956 L 393,-1955 L 393,-1954 L 394,-1954 L 394,-1953 L 395,-1952 L 396,-1952 L 397,-1953 L 398,-1953 L 399,-1953 L 399,-1952 L 398,-1952 L 398,-1951 L 399,-1951 L 400,-1951 L 400,-1952 L 400,-1953 L 400,-1954 L 401,-1954 L 402,-1953 L 402,-1952 L 402,-1951 L 402,-1950 L 403,-1949 L 404,-1949 L 405,-1950 L 406,-1949 L 405,-1949 L 405,-1948 L 406,-1948 L 406,-1949 L 407,-1949 L 408,-1950 L 407,-1951 L 407,-1952 L 408,-1952 L 408,-1953 L 409,-1953 L 409,-1952 L 409,-1951 L 410,-1950 L 411,-1951 L 412,-1951 L 412,-1952 L 412,-1953 L 411,-1953 L 411,-1954 L 412,-1954 L 413,-1954 L 413,-1953 L 413,-1952 L 414,-1952 L 414,-1951 L 413,-1951 L 412,-1950 L 411,-1950 L 411,-1949 L 412,-1948 L 413,-1949 L 413,-1950 L 414,-1950 L 414,-1951 L 415,-1951 L 416,-1951 L 416,-1952 L 417,-1952 L 418,-1953 L 418,-1952 L 418,-1951 L 417,-1950 L 417,-1949 L 418,-1949 L 419,-1950 L 419,-1951 L 420,-1952 L 420,-1953 L 421,-1953 L 421,-1954 L 422,-1954 L 422,-1953 L 423,-1953 L 423,-1954 L 423,-1955 L 422,-1955 L 422,-1956 L 422,-1957 L 423,-1957 L 424,-1957 L 425,-1957 L 425,-1956 L 426,-1956 L 426,-1955 L 425,-1955 L 424,-1955 L 423,-1954 L 424,-1953 L 425,-1953 L 426,-1953 L 426,-1952 L 427,-1952 L 428,-1952 L 428,-1953 L 429,-1953 L 428,-1954 L 427,-1954 L 426,-1955 L 427,-1955 L 428,-1955 L 429,-1955 L 429,-1954 L 430,-1954 L 431,-1954 L 431,-1955 L 431,-1956 L 432,-1956 L 432,-1957 L 433,-1957 L 434,-1957 L 434,-1956 L 434,-1955 L 434,-1954 L 435,-1954 L 436,-1954 L 437,-1954 L 437,-1955 L 437,-1956 L 436,-1956 L 435,-1956 L 435,-1957 L 436,-1958 L 437,-1957 L 438,-1956 L 439,-1956 L 440,-1956 L 441,-1956 L 441,-1957 L 440,-1957 L 440,-1958 L 440,-1959 L 441,-1959 L 441,-1958 L 442,-1957 L 443,-1957 L 444,-1957 L 444,-1958 L 445,-1958 L 445,-1959 L 445,-1960 L 445,-1961 L 446,-1961 L 446,-1960 L 447,-1960 L 448,-1960 L 448,-1959 L 449,-1958 L 450,-1959 L 451,-1959 L 452,-1960 L 452,-1961 L 453,-1961 L 454,-1961 L 455,-1961 L 455,-1960 L 456,-1960 L 456,-1961 L 457,-1962 L 457,-1963 L 457,-1964 L 457,-1965 L 458,-1966 L 459,-1966 L 459,-1965 L 460,-1965 L 461,-1965 L 461,-1964 L 461,-1963 L 460,-1963 L 459,-1963 L 459,-1962 L 460,-1962 L 461,-1961 L 461,-1962 L 462,-1962 L 462,-1963 L 463,-1963 L 463,-1964 L 464,-1963 L 465,-1963 L 466,-1963 L 466,-1964 L 467,-1964 L 468,-1964 L 468,-1963 L 468,-1962 L 469,-1962 L 470,-1961 L 471,-1962 L 470,-1962 L 470,-1963 L 470,-1964 L 469,-1964 L 468,-1965 L 469,-1965 L 470,-1966 L 471,-1966 L 471,-1965 L 472,-1965 L 473,-1965 L 474,-1965 L 474,-1964 L 475,-1964 L 476,-1963 L 476,-1962 L 476,-1961 L 477,-1961 L 477,-1962 L 477,-1963 L 477,-1964 L 477,-1965 L 478,-1966 L 479,-1965 L 479,-1964 L 478,-1964 L 478,-1963 L 478,-1962 L 479,-1962 " /></g>
</svg>
