<?xml version="1.0" standalone="no"?><!DOCTYPE svg PUBLIC "-//W3C//DTD SVG 1.1//EN" "http://www.w3.org/Graphics/SVG/1.1/DTD/svg11.dtd"><svg xmlns="http://www.w3.org/2000/svg" viewBox="342 -1929 137 178" version = "1.1">
<g id="90301" ><path d="M 474,-1892 L 474,-1888 L 474,-1886 L 475,-1885 L 477,-1885 L 478,-1884 L 479,-1883 L 479,-1882 L 477,-1882 L 475,-1882 L 474,-1882 L 472,-1883 L 470,-1884 L 466,-1885 L 464,-1885 L 462,-1885 L 462,-1884 L 462,-1882 L 463,-1881 L 464,-1878 L 466,-1876 L 467,-1874 L 469,-1871 L 469,-1868 L 469,-1866 L 468,-1863 L 468,-1860 L 466,-1857 L 464,-1855 L 461,-1854 L 459,-1854 L 457,-1854 L 456,-1855 L 456,-1857 L 455,-1859 L 455,-1862 L 453,-1867 L 450,-1871 L 448,-1873 L 447,-1874 L 446,-1874 L 445,-1874 L 444,-1874 L 444,-1872 L 443,-1870 L 441,-1867 L 439,-1861 L 438,-1859 L 438,-1858 L 439,-1858 L 441,-1857 L 443,-1856 L 444,-1855 L 445,-1853 L 446,-1850 L 447,-1847 L 447,-1841 L 448,-1839 L 448,-1838 L 447,-1836 L 444,-1834 L 442,-1831 L 440,-1830 L 437,-1828 L 434,-1827 L 430,-1826 L 429,-1825 L 428,-1826 L 427,-1827 L 427,-1828 L 426,-1829 L 425,-1830 L 423,-1830 L 422,-1829 L 421,-1828 L 420,-1826 L 420,-1824 L 419,-1820 L 420,-1818 L 421,-1816 L 422,-1815 L 423,-1814 L 424,-1813 L 425,-1811 L 426,-1810 L 425,-1809 L 424,-1808 L 422,-1807 L 421,-1807 L 419,-1808 L 418,-1808 L 417,-1807 L 417,-1806 L 417,-1805 L 418,-1804 L 419,-1802 L 421,-1801 L 424,-1800 L 427,-1798 L 428,-1797 L 430,-1796 L 431,-1794 L 432,-1792 L 433,-1790 L 434,-1789 L 434,-1788 L 434,-1786 L 433,-1785 L 432,-1784 L 430,-1784 L 428,-1785 L 426,-1786 L 424,-1788 L 422,-1789 L 419,-1791 L 415,-1792 L 413,-1793 L 410,-1794 L 408,-1794 L 406,-1793 L 403,-1793 L 401,-1792 L 399,-1791 L 397,-1790 L 396,-1788 L 396,-1787 L 397,-1786 L 397,-1785 L 397,-1783 L 398,-1783 L 399,-1782 L 401,-1782 L 402,-1782 L 403,-1781 L 403,-1780 L 403,-1779 L 402,-1778 L 400,-1777 L 398,-1777 L 395,-1777 L 391,-1776 L 390,-1776 L 388,-1775 L 385,-1774 L 382,-1773 L 379,-1772 L 377,-1772 L 374,-1773 L 371,-1773 L 368,-1774 L 366,-1774 L 364,-1774 L 362,-1773 L 361,-1772 L 359,-1771 L 358,-1770 L 357,-1769 L 355,-1768 L 354,-1766 L 353,-1765 L 353,-1763 L 353,-1762 L 354,-1761 L 355,-1759 L 355,-1758 L 354,-1757 L 353,-1756 L 352,-1756 L 351,-1756 L 349,-1755 L 348,-1755 L 347,-1754 L 345,-1753 L 344,-1751 L 343,-1751 L 342,-1814 L 342,-1870 L 343,-1870 L 344,-1871 L 347,-1870 L 350,-1869 L 352,-1868 L 354,-1866 L 355,-1864 L 356,-1862 L 356,-1859 L 357,-1858 L 359,-1858 L 361,-1858 L 363,-1859 L 364,-1861 L 365,-1864 L 365,-1867 L 365,-1869 L 362,-1872 L 361,-1874 L 360,-1876 L 359,-1878 L 359,-1880 L 360,-1881 L 362,-1882 L 364,-1883 L 366,-1883 L 368,-1882 L 371,-1880 L 372,-1878 L 373,-1876 L 373,-1873 L 372,-1870 L 371,-1868 L 369,-1865 L 368,-1863 L 369,-1862 L 371,-1862 L 372,-1864 L 374,-1866 L 376,-1867 L 378,-1869 L 381,-1871 L 383,-1872 L 387,-1873 L 389,-1874 L 392,-1875 L 394,-1877 L 395,-1879 L 394,-1885 L 395,-1890 L 396,-1894 L 397,-1897 L 400,-1898 L 404,-1899 L 406,-1901 L 408,-1903 L 409,-1905 L 409,-1908 L 408,-1911 L 406,-1913 L 405,-1914 L 403,-1914 L 400,-1915 L 398,-1915 L 397,-1917 L 398,-1918 L 400,-1919 L 403,-1919 L 405,-1918 L 408,-1916 L 411,-1915 L 413,-1914 L 415,-1912 L 417,-1910 L 418,-1907 L 418,-1904 L 418,-1900 L 417,-1897 L 417,-1895 L 417,-1893 L 417,-1891 L 419,-1890 L 421,-1890 L 425,-1891 L 429,-1893 L 432,-1894 L 435,-1896 L 437,-1897 L 440,-1898 L 442,-1901 L 445,-1904 L 447,-1907 L 449,-1909 L 449,-1912 L 449,-1914 L 450,-1916 L 451,-1919 L 452,-1922 L 454,-1924 L 456,-1927 L 458,-1928 L 460,-1929 L 466,-1929 L 469,-1929 L 472,-1927 L 474,-1926 L 475,-1924 L 476,-1921 L 477,-1918 L 477,-1916 L 478,-1912 L 478,-1910 L 478,-1907 L 478,-1904 L 479,-1903 L 477,-1898 L 476,-1895 L 474,-1892 " /></g>
</svg>
