<?xml version="1.0" standalone="no"?><!DOCTYPE svg PUBLIC "-//W3C//DTD SVG 1.1//EN" "http://www.w3.org/Graphics/SVG/1.1/DTD/svg11.dtd"><svg xmlns="http://www.w3.org/2000/svg" viewBox="-159 -1787 333 381" version = "1.1">
<g id="90303" ><path d="M 174,-1787 L 174,-1730 L 174,-1646 L 174,-1562 L 174,-1480 L 174,-1429 L 174,-1406 L -159,-1614 L -159,-1615 L -157,-1615 L -155,-1614 L -152,-1614 L -150,-1615 L -148,-1615 L -147,-1617 L -147,-1618 L -148,-1620 L -150,-1621 L -151,-1623 L -152,-1625 L -152,-1627 L -151,-1630 L -150,-1633 L -148,-1635 L -146,-1638 L -145,-1641 L -143,-1643 L -141,-1644 L -138,-1645 L -136,-1646 L -133,-1647 L -132,-1648 L -132,-1650 L -132,-1651 L -132,-1654 L -132,-1655 L -133,-1657 L -133,-1659 L -132,-1660 L -130,-1661 L -127,-1664 L -125,-1666 L -123,-1667 L -121,-1668 L -119,-1668 L -116,-1669 L -113,-1669 L -110,-1669 L -106,-1669 L -101,-1670 L -99,-1669 L -96,-1668 L -94,-1666 L -92,-1665 L -89,-1665 L -86,-1666 L -81,-1668 L -78,-1669 L -75,-1671 L -73,-1672 L -72,-1673 L -70,-1676 L -69,-1678 L -67,-1683 L -65,-1688 L -64,-1691 L -62,-1694 L -60,-1696 L -57,-1697 L -55,-1697 L -53,-1698 L -51,-1699 L -50,-1701 L -50,-1702 L -50,-1704 L -51,-1705 L -52,-1705 L -53,-1707 L -54,-1708 L -54,-1709 L -53,-1711 L -52,-1713 L -51,-1716 L -50,-1718 L -50,-1721 L -50,-1723 L -49,-1727 L -46,-1731 L -43,-1733 L -39,-1736 L -35,-1738 L -32,-1740 L -29,-1741 L -26,-1741 L -21,-1741 L -19,-1741 L -15,-1741 L -10,-1743 L -6,-1743 L -4,-1742 L -1,-1741 L 1,-1740 L 3,-1739 L 4,-1736 L 6,-1734 L 7,-1733 L 9,-1732 L 13,-1733 L 17,-1733 L 19,-1732 L 21,-1731 L 23,-1730 L 26,-1728 L 30,-1727 L 32,-1726 L 34,-1726 L 36,-1726 L 38,-1726 L 38,-1724 L 38,-1722 L 38,-1721 L 39,-1720 L 41,-1719 L 44,-1719 L 47,-1719 L 49,-1718 L 51,-1718 L 53,-1718 L 56,-1718 L 58,-1718 L 60,-1719 L 62,-1721 L 64,-1723 L 66,-1726 L 67,-1728 L 68,-1731 L 69,-1733 L 71,-1735 L 74,-1736 L 77,-1737 L 80,-1738 L 84,-1739 L 87,-1740 L 91,-1740 L 93,-1741 L 94,-1742 L 96,-1743 L 98,-1745 L 99,-1748 L 100,-1751 L 101,-1753 L 101,-1757 L 101,-1760 L 104,-1765 L 107,-1769 L 109,-1772 L 111,-1776 L 113,-1777 L 116,-1778 L 118,-1780 L 120,-1782 L 122,-1783 L 125,-1783 L 127,-1783 L 132,-1784 L 136,-1784 L 140,-1784 L 143,-1783 L 146,-1784 L 150,-1784 L 153,-1784 L 157,-1785 L 161,-1786 L 164,-1787 L 170,-1787 L 173,-1787 L 174,-1787 " /></g>
</svg>
