<?xml version="1.0" standalone="no"?><!DOCTYPE svg PUBLIC "-//W3C//DTD SVG 1.1//EN" "http://www.w3.org/Graphics/SVG/1.1/DTD/svg11.dtd"><svg xmlns="http://www.w3.org/2000/svg" viewBox="174 -1870 169 471" version = "1.1">
<g id="90302" ><path d="M 341,-1751 L 340,-1751 L 339,-1752 L 339,-1753 L 338,-1754 L 338,-1755 L 338,-1756 L 337,-1758 L 336,-1758 L 334,-1759 L 333,-1759 L 331,-1759 L 329,-1759 L 326,-1760 L 324,-1760 L 322,-1760 L 320,-1759 L 317,-1757 L 315,-1756 L 312,-1755 L 308,-1755 L 303,-1756 L 300,-1756 L 298,-1757 L 297,-1757 L 296,-1756 L 295,-1756 L 295,-1755 L 296,-1753 L 297,-1747 L 297,-1744 L 297,-1742 L 296,-1741 L 295,-1740 L 294,-1741 L 293,-1741 L 292,-1743 L 290,-1744 L 288,-1745 L 286,-1747 L 284,-1749 L 281,-1750 L 279,-1750 L 277,-1751 L 275,-1750 L 273,-1749 L 271,-1748 L 269,-1746 L 266,-1741 L 264,-1738 L 264,-1737 L 264,-1736 L 265,-1736 L 267,-1736 L 268,-1736 L 270,-1736 L 272,-1735 L 275,-1734 L 276,-1732 L 278,-1730 L 280,-1727 L 281,-1725 L 282,-1721 L 283,-1718 L 283,-1716 L 283,-1713 L 283,-1711 L 282,-1709 L 281,-1710 L 279,-1710 L 278,-1711 L 276,-1711 L 274,-1711 L 271,-1710 L 268,-1709 L 264,-1708 L 261,-1707 L 259,-1706 L 257,-1704 L 255,-1703 L 254,-1702 L 254,-1701 L 255,-1700 L 256,-1699 L 258,-1698 L 260,-1697 L 262,-1696 L 264,-1695 L 265,-1695 L 267,-1696 L 268,-1696 L 269,-1695 L 271,-1694 L 271,-1693 L 271,-1692 L 271,-1691 L 269,-1690 L 268,-1688 L 267,-1686 L 266,-1684 L 266,-1683 L 265,-1682 L 264,-1681 L 263,-1680 L 264,-1679 L 265,-1678 L 266,-1679 L 268,-1679 L 269,-1679 L 271,-1679 L 272,-1678 L 273,-1678 L 273,-1676 L 273,-1674 L 272,-1672 L 271,-1670 L 269,-1669 L 267,-1668 L 262,-1666 L 260,-1664 L 258,-1663 L 256,-1662 L 254,-1661 L 254,-1660 L 254,-1659 L 254,-1656 L 254,-1654 L 253,-1652 L 252,-1651 L 251,-1650 L 249,-1649 L 248,-1649 L 246,-1649 L 245,-1650 L 243,-1651 L 243,-1653 L 243,-1654 L 244,-1655 L 245,-1656 L 247,-1657 L 249,-1659 L 250,-1660 L 251,-1662 L 251,-1664 L 251,-1665 L 250,-1666 L 248,-1667 L 246,-1667 L 243,-1666 L 240,-1666 L 238,-1666 L 236,-1665 L 234,-1664 L 233,-1662 L 232,-1660 L 231,-1658 L 231,-1655 L 230,-1651 L 229,-1648 L 229,-1644 L 229,-1643 L 228,-1642 L 227,-1642 L 226,-1642 L 224,-1643 L 223,-1644 L 221,-1646 L 220,-1648 L 219,-1649 L 218,-1650 L 216,-1650 L 215,-1650 L 212,-1650 L 209,-1650 L 206,-1650 L 205,-1649 L 204,-1649 L 203,-1646 L 202,-1643 L 202,-1639 L 202,-1637 L 203,-1637 L 205,-1637 L 206,-1638 L 209,-1639 L 212,-1640 L 213,-1640 L 214,-1640 L 216,-1638 L 217,-1637 L 217,-1635 L 218,-1633 L 217,-1632 L 217,-1630 L 217,-1629 L 218,-1628 L 219,-1627 L 220,-1626 L 222,-1626 L 223,-1625 L 223,-1624 L 222,-1623 L 221,-1622 L 218,-1620 L 215,-1617 L 212,-1613 L 210,-1611 L 208,-1610 L 207,-1610 L 205,-1610 L 203,-1609 L 202,-1609 L 199,-1608 L 197,-1606 L 196,-1605 L 194,-1605 L 193,-1604 L 192,-1605 L 191,-1605 L 190,-1605 L 189,-1604 L 189,-1603 L 189,-1601 L 189,-1600 L 188,-1599 L 187,-1598 L 186,-1598 L 185,-1599 L 184,-1599 L 182,-1599 L 181,-1597 L 181,-1595 L 182,-1593 L 183,-1590 L 185,-1588 L 187,-1586 L 189,-1584 L 190,-1584 L 191,-1585 L 191,-1586 L 190,-1588 L 189,-1590 L 189,-1592 L 189,-1593 L 190,-1593 L 191,-1594 L 192,-1594 L 194,-1593 L 196,-1592 L 198,-1590 L 199,-1589 L 199,-1588 L 199,-1587 L 199,-1586 L 199,-1585 L 198,-1583 L 198,-1582 L 198,-1581 L 198,-1580 L 199,-1580 L 199,-1579 L 200,-1579 L 201,-1579 L 202,-1580 L 203,-1580 L 203,-1581 L 204,-1581 L 205,-1580 L 206,-1579 L 206,-1578 L 207,-1577 L 207,-1575 L 207,-1573 L 207,-1571 L 208,-1568 L 209,-1566 L 210,-1563 L 210,-1562 L 210,-1561 L 210,-1560 L 210,-1559 L 209,-1559 L 209,-1558 L 209,-1557 L 208,-1556 L 208,-1555 L 208,-1554 L 207,-1554 L 207,-1553 L 207,-1552 L 206,-1552 L 206,-1551 L 206,-1550 L 205,-1549 L 205,-1548 L 204,-1547 L 204,-1546 L 204,-1545 L 205,-1545 L 205,-1544 L 206,-1545 L 207,-1545 L 208,-1545 L 209,-1545 L 210,-1545 L 211,-1545 L 212,-1544 L 212,-1543 L 213,-1541 L 213,-1540 L 213,-1539 L 213,-1538 L 214,-1537 L 214,-1536 L 214,-1535 L 215,-1534 L 215,-1533 L 215,-1532 L 216,-1532 L 216,-1531 L 216,-1530 L 217,-1529 L 217,-1528 L 217,-1527 L 216,-1526 L 215,-1525 L 215,-1524 L 213,-1523 L 212,-1522 L 211,-1521 L 210,-1521 L 209,-1520 L 209,-1519 L 208,-1519 L 208,-1518 L 207,-1517 L 206,-1517 L 205,-1516 L 204,-1515 L 203,-1514 L 202,-1513 L 201,-1512 L 200,-1511 L 200,-1510 L 199,-1509 L 199,-1508 L 199,-1507 L 200,-1507 L 200,-1506 L 200,-1505 L 200,-1504 L 201,-1503 L 201,-1502 L 202,-1501 L 203,-1501 L 204,-1501 L 205,-1501 L 205,-1500 L 206,-1500 L 207,-1500 L 208,-1500 L 209,-1500 L 210,-1499 L 211,-1498 L 211,-1497 L 212,-1497 L 212,-1496 L 212,-1495 L 212,-1494 L 212,-1493 L 213,-1492 L 213,-1490 L 213,-1489 L 213,-1488 L 213,-1487 L 213,-1486 L 213,-1485 L 213,-1484 L 213,-1482 L 213,-1481 L 212,-1480 L 212,-1479 L 212,-1478 L 211,-1478 L 211,-1477 L 210,-1477 L 209,-1476 L 209,-1475 L 208,-1474 L 207,-1472 L 206,-1471 L 206,-1470 L 205,-1470 L 205,-1469 L 205,-1468 L 204,-1468 L 203,-1467 L 202,-1467 L 201,-1467 L 201,-1466 L 200,-1466 L 198,-1466 L 197,-1465 L 196,-1465 L 194,-1464 L 193,-1464 L 192,-1463 L 192,-1462 L 192,-1461 L 191,-1460 L 192,-1459 L 192,-1458 L 192,-1457 L 192,-1456 L 192,-1455 L 192,-1454 L 193,-1453 L 194,-1453 L 195,-1452 L 196,-1452 L 197,-1452 L 198,-1452 L 199,-1452 L 200,-1452 L 201,-1452 L 202,-1451 L 203,-1451 L 204,-1450 L 205,-1450 L 206,-1449 L 206,-1448 L 207,-1447 L 208,-1446 L 208,-1445 L 208,-1444 L 209,-1443 L 209,-1442 L 209,-1441 L 209,-1440 L 209,-1439 L 208,-1439 L 208,-1438 L 207,-1438 L 206,-1438 L 205,-1438 L 204,-1438 L 203,-1437 L 202,-1437 L 201,-1437 L 201,-1436 L 200,-1435 L 199,-1435 L 199,-1434 L 198,-1433 L 197,-1432 L 197,-1431 L 196,-1431 L 195,-1430 L 193,-1429 L 193,-1428 L 192,-1428 L 191,-1427 L 190,-1427 L 189,-1426 L 188,-1426 L 188,-1425 L 187,-1425 L 186,-1424 L 185,-1424 L 185,-1423 L 184,-1423 L 184,-1422 L 185,-1422 L 185,-1421 L 186,-1419 L 187,-1419 L 187,-1418 L 188,-1417 L 189,-1416 L 189,-1415 L 190,-1414 L 191,-1413 L 192,-1412 L 193,-1411 L 194,-1410 L 194,-1409 L 195,-1409 L 195,-1408 L 196,-1407 L 197,-1407 L 197,-1406 L 197,-1405 L 196,-1404 L 195,-1404 L 194,-1404 L 193,-1404 L 192,-1404 L 191,-1404 L 190,-1404 L 189,-1404 L 189,-1403 L 188,-1403 L 187,-1403 L 186,-1402 L 185,-1401 L 185,-1400 L 185,-1399 L 174,-1406 L 174,-1429 L 174,-1480 L 174,-1562 L 174,-1646 L 174,-1730 L 174,-1787 L 176,-1786 L 178,-1786 L 180,-1786 L 181,-1786 L 182,-1787 L 184,-1789 L 188,-1792 L 191,-1796 L 192,-1798 L 193,-1802 L 193,-1805 L 193,-1808 L 191,-1811 L 191,-1813 L 192,-1816 L 193,-1818 L 195,-1819 L 198,-1819 L 200,-1819 L 203,-1819 L 205,-1818 L 207,-1816 L 210,-1813 L 212,-1809 L 215,-1804 L 217,-1800 L 218,-1799 L 220,-1798 L 222,-1798 L 224,-1798 L 226,-1799 L 227,-1800 L 229,-1802 L 230,-1804 L 232,-1805 L 235,-1806 L 237,-1808 L 239,-1810 L 242,-1814 L 243,-1817 L 243,-1821 L 243,-1824 L 243,-1826 L 243,-1829 L 243,-1831 L 242,-1833 L 240,-1834 L 239,-1836 L 238,-1838 L 237,-1840 L 237,-1842 L 239,-1843 L 240,-1844 L 242,-1844 L 244,-1843 L 247,-1842 L 249,-1840 L 251,-1839 L 255,-1837 L 258,-1835 L 261,-1833 L 263,-1830 L 263,-1827 L 264,-1825 L 265,-1824 L 267,-1823 L 268,-1824 L 270,-1827 L 272,-1829 L 274,-1832 L 276,-1834 L 278,-1835 L 280,-1837 L 283,-1837 L 285,-1837 L 287,-1837 L 289,-1836 L 291,-1835 L 293,-1835 L 295,-1836 L 296,-1838 L 296,-1840 L 296,-1841 L 295,-1843 L 293,-1845 L 292,-1847 L 291,-1849 L 291,-1851 L 292,-1854 L 294,-1856 L 296,-1856 L 298,-1856 L 302,-1854 L 305,-1852 L 307,-1850 L 308,-1848 L 310,-1846 L 312,-1845 L 313,-1845 L 315,-1844 L 317,-1845 L 320,-1847 L 322,-1849 L 326,-1851 L 328,-1853 L 331,-1857 L 334,-1860 L 335,-1861 L 336,-1863 L 337,-1866 L 339,-1867 L 339,-1868 L 341,-1870 L 342,-1870 L 342,-1814 L 343,-1751 L 341,-1751 " /></g>
</svg>
