<?xml version="1.0" standalone="no"?><!DOCTYPE svg PUBLIC "-//W3C//DTD SVG 1.1//EN" "http://www.w3.org/Graphics/SVG/1.1/DTD/svg11.dtd"><svg xmlns="http://www.w3.org/2000/svg" viewBox="-62 -2158 236 295" version = "1.1">
<g id="90401" ><path d="M 174,-2158 L 174,-2123 L 174,-2067 L 174,-2066 L 174,-2011 L 174,-1955 L 174,-1909 L 173,-1909 L 172,-1909 L 173,-1908 L 173,-1907 L 173,-1906 L 172,-1906 L 171,-1906 L 171,-1905 L 171,-1904 L 172,-1904 L 173,-1904 L 174,-1904 L 174,-1903 L 173,-1903 L 172,-1903 L 171,-1903 L 171,-1902 L 170,-1901 L 171,-1900 L 170,-1900 L 169,-1900 L 169,-1901 L 168,-1902 L 168,-1901 L 167,-1901 L 167,-1900 L 166,-1899 L 165,-1898 L 164,-1898 L 163,-1897 L 162,-1897 L 161,-1897 L 162,-1898 L 162,-1899 L 162,-1900 L 161,-1899 L 160,-1898 L 159,-1898 L 158,-1897 L 157,-1897 L 157,-1898 L 158,-1899 L 158,-1900 L 157,-1900 L 156,-1900 L 155,-1901 L 154,-1901 L 154,-1900 L 153,-1900 L 153,-1899 L 152,-1898 L 152,-1897 L 151,-1897 L 150,-1897 L 150,-1898 L 151,-1898 L 151,-1899 L 152,-1900 L 152,-1901 L 153,-1901 L 153,-1902 L 152,-1903 L 151,-1903 L 151,-1902 L 150,-1902 L 150,-1901 L 150,-1900 L 150,-1899 L 149,-1899 L 149,-1898 L 148,-1897 L 148,-1896 L 147,-1895 L 146,-1894 L 145,-1892 L 144,-1891 L 143,-1890 L 142,-1889 L 142,-1888 L 141,-1887 L 140,-1887 L 140,-1888 L 140,-1889 L 141,-1889 L 141,-1890 L 141,-1891 L 140,-1891 L 140,-1892 L 139,-1892 L 139,-1891 L 138,-1891 L 138,-1890 L 139,-1890 L 139,-1889 L 138,-1889 L 137,-1889 L 136,-1889 L 135,-1889 L 135,-1890 L 135,-1891 L 136,-1891 L 136,-1892 L 136,-1893 L 135,-1892 L 135,-1891 L 134,-1891 L 134,-1892 L 133,-1893 L 132,-1893 L 132,-1892 L 132,-1891 L 131,-1891 L 131,-1892 L 130,-1892 L 130,-1893 L 130,-1894 L 129,-1894 L 129,-1893 L 129,-1892 L 129,-1891 L 128,-1892 L 128,-1893 L 127,-1893 L 127,-1894 L 126,-1894 L 126,-1893 L 127,-1893 L 127,-1892 L 127,-1891 L 127,-1890 L 126,-1890 L 125,-1890 L 124,-1890 L 123,-1889 L 122,-1889 L 121,-1889 L 120,-1889 L 119,-1889 L 118,-1889 L 118,-1888 L 118,-1887 L 119,-1887 L 120,-1887 L 120,-1886 L 121,-1886 L 121,-1885 L 120,-1885 L 119,-1885 L 118,-1885 L 117,-1886 L 116,-1886 L 115,-1887 L 114,-1887 L 113,-1886 L 113,-1885 L 114,-1885 L 114,-1884 L 113,-1884 L 113,-1883 L 112,-1883 L 111,-1882 L 111,-1883 L 110,-1883 L 109,-1883 L 109,-1882 L 108,-1882 L 107,-1882 L 107,-1881 L 108,-1881 L 108,-1880 L 108,-1879 L 107,-1879 L 106,-1879 L 105,-1880 L 104,-1880 L 103,-1879 L 102,-1879 L 102,-1880 L 102,-1881 L 102,-1882 L 102,-1883 L 101,-1883 L 100,-1882 L 99,-1881 L 98,-1882 L 98,-1883 L 99,-1883 L 99,-1884 L 98,-1884 L 98,-1883 L 97,-1883 L 96,-1882 L 95,-1882 L 94,-1882 L 93,-1882 L 93,-1883 L 93,-1884 L 92,-1884 L 92,-1883 L 92,-1882 L 92,-1881 L 91,-1880 L 90,-1880 L 89,-1879 L 89,-1878 L 88,-1878 L 87,-1879 L 87,-1880 L 86,-1879 L 86,-1878 L 85,-1878 L 84,-1878 L 84,-1877 L 84,-1876 L 85,-1876 L 85,-1875 L 85,-1874 L 86,-1873 L 86,-1872 L 86,-1871 L 85,-1872 L 85,-1873 L 84,-1873 L 84,-1874 L 83,-1874 L 83,-1873 L 83,-1872 L 83,-1871 L 83,-1870 L 82,-1870 L 82,-1869 L 81,-1869 L 80,-1869 L 79,-1870 L 78,-1870 L 77,-1870 L 78,-1871 L 78,-1872 L 77,-1872 L 77,-1873 L 76,-1874 L 76,-1875 L 75,-1875 L 75,-1876 L 75,-1875 L 74,-1875 L 75,-1875 L 75,-1874 L 74,-1874 L 73,-1874 L 72,-1874 L 72,-1873 L 71,-1873 L 71,-1872 L 70,-1872 L 69,-1871 L 68,-1871 L 68,-1872 L 67,-1873 L 66,-1873 L 65,-1873 L 64,-1872 L 63,-1872 L 63,-1873 L 64,-1873 L 65,-1873 L 65,-1874 L 64,-1874 L 64,-1875 L 63,-1875 L 62,-1875 L 62,-1876 L 63,-1876 L 64,-1876 L 65,-1876 L 65,-1877 L 64,-1877 L 64,-1878 L 64,-1879 L 65,-1879 L 65,-1880 L 65,-1881 L 65,-1882 L 65,-1883 L 64,-1883 L 64,-1882 L 63,-1882 L 63,-1883 L 62,-1883 L 62,-1884 L 61,-1884 L 60,-1884 L 59,-1885 L 60,-1885 L 61,-1885 L 61,-1886 L 62,-1886 L 62,-1887 L 61,-1887 L 60,-1887 L 59,-1887 L 58,-1888 L 57,-1889 L 57,-1890 L 57,-1891 L 56,-1891 L 55,-1891 L 54,-1892 L 53,-1892 L 52,-1893 L 52,-1894 L 51,-1894 L 50,-1895 L 50,-1894 L 49,-1894 L 50,-1894 L 50,-1893 L 50,-1892 L 49,-1892 L 49,-1893 L 48,-1894 L 48,-1895 L 47,-1895 L 46,-1895 L 46,-1896 L 45,-1896 L 44,-1896 L 43,-1897 L 42,-1897 L 42,-1896 L 42,-1895 L 42,-1894 L 41,-1894 L 40,-1894 L 40,-1895 L 40,-1896 L 39,-1897 L 39,-1898 L 38,-1898 L 37,-1899 L 36,-1898 L 35,-1898 L 35,-1899 L 34,-1899 L 34,-1898 L 33,-1898 L 33,-1897 L 34,-1897 L 34,-1896 L 33,-1896 L 32,-1896 L 32,-1897 L 31,-1897 L 30,-1897 L 30,-1898 L 30,-1899 L 30,-1900 L 29,-1901 L 28,-1901 L 28,-1900 L 28,-1899 L 29,-1899 L 29,-1898 L 29,-1897 L 30,-1897 L 30,-1896 L 29,-1896 L 28,-1897 L 28,-1898 L 28,-1899 L 27,-1899 L 27,-1898 L 27,-1897 L 26,-1896 L 26,-1897 L 25,-1897 L 24,-1897 L 24,-1896 L 24,-1895 L 24,-1894 L 23,-1894 L 23,-1893 L 23,-1894 L 22,-1894 L 22,-1895 L 21,-1895 L 21,-1894 L 21,-1893 L 22,-1893 L 22,-1892 L 22,-1891 L 22,-1890 L 21,-1890 L 20,-1890 L 20,-1891 L 20,-1892 L 19,-1892 L 18,-1892 L 17,-1892 L 16,-1892 L 17,-1892 L 18,-1892 L 18,-1891 L 18,-1890 L 18,-1889 L 19,-1889 L 19,-1888 L 18,-1888 L 17,-1889 L 16,-1889 L 16,-1888 L 15,-1888 L 14,-1888 L 14,-1887 L 13,-1887 L 13,-1886 L 12,-1886 L 11,-1886 L 10,-1886 L 10,-1887 L 11,-1887 L 11,-1888 L 12,-1888 L 12,-1889 L 11,-1889 L 11,-1888 L 10,-1888 L 10,-1889 L 10,-1890 L 9,-1890 L 8,-1890 L 7,-1890 L 6,-1890 L 5,-1890 L 4,-1890 L 3,-1890 L 3,-1889 L 2,-1889 L 2,-1888 L 2,-1887 L 3,-1887 L 3,-1886 L 3,-1885 L 2,-1885 L 2,-1886 L 1,-1886 L 0,-1886 L 0,-1887 L -1,-1887 L -1,-1886 L -2,-1886 L -2,-1885 L -2,-1884 L -3,-1883 L -4,-1883 L -4,-1884 L -3,-1885 L -3,-1886 L -4,-1886 L -5,-1886 L -5,-1885 L -5,-1884 L -5,-1883 L -6,-1883 L -7,-1882 L -8,-1882 L -8,-1881 L -9,-1881 L -8,-1881 L -8,-1880 L -7,-1880 L -7,-1879 L -7,-1878 L -8,-1877 L -8,-1876 L -7,-1876 L -7,-1875 L -7,-1874 L -8,-1874 L -8,-1875 L -9,-1875 L -10,-1875 L -10,-1874 L -11,-1874 L -10,-1874 L -10,-1873 L -9,-1873 L -8,-1873 L -8,-1872 L -9,-1872 L -10,-1872 L -11,-1872 L -11,-1871 L -12,-1870 L -12,-1869 L -11,-1868 L -10,-1868 L -10,-1867 L -10,-1866 L -11,-1866 L -12,-1866 L -12,-1865 L -12,-1864 L -13,-1864 L -13,-1863 L -13,-1864 L -62,-1994 L -62,-1995 L -61,-1995 L -62,-1995 L -61,-1995 L -61,-1996 L -61,-1997 L -61,-1998 L -61,-1997 L -61,-1998 L -60,-1998 L -61,-1998 L -60,-1998 L -59,-1998 L -58,-1999 L -57,-1999 L -57,-2000 L -56,-2000 L -56,-1999 L -55,-1999 L -54,-1999 L -54,-1998 L -54,-1997 L -53,-1997 L -52,-1997 L -52,-1998 L -51,-1998 L -50,-1997 L -50,-1998 L -50,-1999 L -50,-1998 L -49,-1998 L -49,-1999 L -48,-1999 L -47,-1999 L -47,-1998 L -46,-1998 L -46,-1999 L -45,-1999 L -45,-1998 L -44,-1998 L -44,-1999 L -43,-1999 L -43,-1998 L -42,-1998 L -41,-1998 L -40,-1998 L -40,-1999 L -41,-1999 L -40,-1999 L -39,-1999 L -39,-2000 L -38,-2000 L -38,-1999 L -38,-2000 L -37,-2000 L -36,-2000 L -36,-2001 L -36,-2002 L -35,-2002 L -34,-2003 L -33,-2002 L -32,-2003 L -32,-2002 L -31,-2002 L -30,-2002 L -31,-2002 L -31,-2003 L -30,-2003 L -30,-2002 L -29,-2002 L -30,-2003 L -29,-2003 L -28,-2003 L -28,-2004 L -27,-2004 L -28,-2004 L -28,-2005 L -27,-2005 L -26,-2005 L -26,-2006 L -25,-2006 L -25,-2005 L -24,-2005 L -23,-2005 L -24,-2005 L -23,-2005 L -23,-2004 L -22,-2004 L -22,-2005 L -22,-2006 L -21,-2006 L -20,-2006 L -19,-2006 L -19,-2007 L -18,-2007 L -18,-2008 L -17,-2008 L -17,-2007 L -17,-2008 L -18,-2008 L -18,-2009 L -19,-2009 L -18,-2009 L -17,-2009 L -17,-2008 L -16,-2008 L -16,-2009 L -16,-2010 L -15,-2010 L -15,-2011 L -14,-2011 L -14,-2012 L -13,-2012 L -12,-2012 L -11,-2012 L -10,-2012 L -9,-2012 L -9,-2013 L -9,-2012 L -8,-2012 L -7,-2012 L -7,-2013 L -6,-2013 L -7,-2013 L -7,-2014 L -7,-2015 L -6,-2015 L -6,-2016 L -5,-2016 L -5,-2017 L -6,-2017 L -5,-2017 L -4,-2017 L -4,-2018 L -4,-2019 L -4,-2020 L -3,-2020 L -2,-2021 L -2,-2020 L -1,-2020 L -1,-2021 L 0,-2021 L 0,-2020 L 0,-2019 L 0,-2020 L 1,-2020 L 0,-2020 L 0,-2021 L 1,-2021 L 2,-2021 L 3,-2021 L 4,-2021 L 4,-2022 L 5,-2022 L 5,-2021 L 5,-2022 L 5,-2021 L 5,-2022 L 5,-2023 L 4,-2023 L 5,-2024 L 6,-2024 L 7,-2024 L 8,-2024 L 8,-2025 L 9,-2024 L 9,-2025 L 9,-2026 L 9,-2027 L 10,-2027 L 11,-2027 L 12,-2027 L 13,-2027 L 13,-2028 L 14,-2028 L 15,-2028 L 16,-2028 L 15,-2028 L 15,-2029 L 15,-2030 L 16,-2030 L 16,-2031 L 17,-2031 L 17,-2032 L 18,-2032 L 18,-2031 L 19,-2031 L 19,-2030 L 19,-2031 L 20,-2031 L 20,-2032 L 20,-2033 L 21,-2033 L 21,-2032 L 22,-2032 L 23,-2033 L 23,-2034 L 24,-2035 L 23,-2035 L 23,-2036 L 23,-2037 L 23,-2038 L 22,-2038 L 22,-2039 L 23,-2039 L 23,-2040 L 24,-2040 L 25,-2040 L 25,-2041 L 26,-2041 L 26,-2042 L 28,-2042 L 29,-2042 L 30,-2042 L 30,-2043 L 30,-2044 L 29,-2044 L 30,-2044 L 31,-2045 L 30,-2045 L 30,-2046 L 31,-2046 L 32,-2046 L 32,-2047 L 31,-2047 L 31,-2048 L 31,-2049 L 31,-2050 L 32,-2050 L 32,-2049 L 33,-2049 L 33,-2050 L 34,-2051 L 34,-2050 L 35,-2050 L 35,-2049 L 36,-2049 L 37,-2049 L 37,-2050 L 37,-2051 L 36,-2050 L 36,-2051 L 37,-2051 L 38,-2052 L 38,-2053 L 37,-2053 L 37,-2054 L 37,-2055 L 38,-2055 L 39,-2054 L 40,-2055 L 41,-2055 L 41,-2054 L 42,-2054 L 42,-2053 L 42,-2052 L 43,-2052 L 43,-2053 L 44,-2053 L 45,-2053 L 45,-2054 L 46,-2054 L 45,-2054 L 45,-2055 L 46,-2055 L 46,-2054 L 47,-2054 L 48,-2054 L 48,-2055 L 49,-2056 L 50,-2057 L 51,-2058 L 50,-2058 L 50,-2059 L 51,-2059 L 52,-2059 L 53,-2059 L 54,-2059 L 55,-2060 L 55,-2061 L 56,-2061 L 57,-2061 L 57,-2062 L 58,-2062 L 57,-2062 L 56,-2063 L 56,-2064 L 57,-2064 L 57,-2065 L 57,-2066 L 57,-2067 L 57,-2068 L 57,-2069 L 58,-2069 L 57,-2070 L 58,-2070 L 59,-2070 L 60,-2070 L 61,-2070 L 62,-2070 L 63,-2071 L 63,-2072 L 63,-2073 L 64,-2073 L 65,-2073 L 66,-2073 L 67,-2073 L 66,-2074 L 65,-2074 L 65,-2075 L 66,-2075 L 66,-2076 L 66,-2077 L 67,-2077 L 68,-2077 L 68,-2076 L 69,-2076 L 70,-2076 L 70,-2077 L 70,-2078 L 71,-2078 L 72,-2078 L 73,-2078 L 73,-2077 L 73,-2078 L 73,-2079 L 74,-2079 L 74,-2080 L 74,-2081 L 74,-2080 L 73,-2080 L 73,-2081 L 73,-2080 L 72,-2080 L 72,-2081 L 72,-2082 L 72,-2083 L 72,-2084 L 73,-2084 L 74,-2084 L 74,-2085 L 74,-2086 L 75,-2086 L 76,-2086 L 76,-2085 L 75,-2085 L 75,-2084 L 76,-2084 L 76,-2085 L 76,-2086 L 75,-2086 L 76,-2087 L 75,-2087 L 76,-2087 L 76,-2088 L 77,-2088 L 77,-2087 L 78,-2087 L 78,-2088 L 79,-2088 L 79,-2089 L 78,-2089 L 78,-2090 L 79,-2090 L 79,-2089 L 80,-2090 L 79,-2090 L 79,-2091 L 79,-2092 L 78,-2092 L 77,-2092 L 77,-2093 L 78,-2094 L 77,-2094 L 76,-2094 L 76,-2095 L 77,-2095 L 77,-2096 L 78,-2096 L 78,-2097 L 79,-2097 L 79,-2098 L 80,-2098 L 81,-2099 L 80,-2099 L 80,-2100 L 80,-2101 L 81,-2101 L 82,-2102 L 83,-2102 L 84,-2102 L 84,-2103 L 85,-2103 L 85,-2104 L 86,-2104 L 87,-2104 L 87,-2103 L 88,-2103 L 89,-2103 L 89,-2104 L 89,-2105 L 90,-2106 L 90,-2107 L 91,-2107 L 91,-2108 L 91,-2109 L 92,-2109 L 92,-2110 L 92,-2111 L 93,-2110 L 94,-2110 L 93,-2110 L 93,-2109 L 94,-2109 L 95,-2109 L 95,-2110 L 95,-2111 L 96,-2111 L 97,-2112 L 98,-2112 L 98,-2113 L 99,-2113 L 99,-2114 L 100,-2114 L 101,-2114 L 102,-2114 L 101,-2113 L 102,-2113 L 102,-2114 L 103,-2114 L 103,-2113 L 103,-2112 L 104,-2112 L 104,-2113 L 104,-2114 L 105,-2114 L 105,-2115 L 106,-2115 L 105,-2115 L 105,-2116 L 104,-2117 L 105,-2117 L 106,-2118 L 106,-2117 L 106,-2116 L 107,-2116 L 107,-2117 L 107,-2118 L 108,-2118 L 109,-2118 L 109,-2119 L 110,-2119 L 110,-2120 L 110,-2121 L 111,-2121 L 112,-2121 L 112,-2122 L 113,-2122 L 114,-2121 L 115,-2121 L 116,-2121 L 116,-2122 L 117,-2122 L 118,-2122 L 119,-2123 L 120,-2123 L 120,-2124 L 120,-2125 L 121,-2125 L 122,-2125 L 123,-2125 L 124,-2125 L 125,-2126 L 126,-2126 L 126,-2125 L 127,-2126 L 127,-2127 L 128,-2128 L 128,-2129 L 129,-2128 L 129,-2129 L 130,-2129 L 131,-2128 L 132,-2129 L 131,-2129 L 131,-2130 L 130,-2130 L 130,-2131 L 129,-2131 L 128,-2131 L 127,-2131 L 127,-2132 L 128,-2132 L 128,-2133 L 128,-2134 L 128,-2135 L 129,-2135 L 129,-2136 L 130,-2136 L 131,-2136 L 132,-2137 L 133,-2137 L 134,-2136 L 135,-2136 L 136,-2137 L 137,-2137 L 138,-2138 L 139,-2138 L 139,-2139 L 140,-2139 L 141,-2138 L 141,-2139 L 141,-2140 L 142,-2140 L 143,-2139 L 144,-2139 L 145,-2139 L 145,-2138 L 144,-2138 L 144,-2137 L 145,-2137 L 146,-2137 L 146,-2138 L 147,-2138 L 148,-2137 L 148,-2138 L 149,-2139 L 150,-2139 L 151,-2139 L 153,-2140 L 155,-2141 L 156,-2141 L 156,-2142 L 157,-2142 L 158,-2142 L 158,-2143 L 157,-2143 L 157,-2144 L 157,-2145 L 158,-2145 L 158,-2146 L 159,-2146 L 159,-2145 L 160,-2145 L 160,-2146 L 160,-2147 L 161,-2147 L 162,-2147 L 162,-2146 L 163,-2146 L 163,-2148 L 164,-2148 L 164,-2149 L 165,-2149 L 165,-2148 L 166,-2148 L 166,-2149 L 166,-2150 L 167,-2150 L 167,-2149 L 168,-2149 L 169,-2148 L 169,-2149 L 170,-2149 L 171,-2150 L 171,-2151 L 171,-2152 L 172,-2153 L 173,-2153 L 173,-2154 L 172,-2154 L 172,-2155 L 172,-2156 L 172,-2157 L 172,-2158 L 173,-2158 L 174,-2158 " /></g>
</svg>
