<?xml version="1.0" standalone="no"?><!DOCTYPE svg PUBLIC "-//W3C//DTD SVG 1.1//EN" "http://www.w3.org/Graphics/SVG/1.1/DTD/svg11.dtd"><svg xmlns="http://www.w3.org/2000/svg" viewBox="174 -2270 186 372" version = "1.1">
<g id="90402" ><path d="M 303,-2270 L 304,-2270 L 305,-2270 L 305,-2269 L 306,-2269 L 307,-2269 L 308,-2269 L 309,-2269 L 310,-2269 L 310,-2268 L 311,-2268 L 317,-2235 L 325,-2184 L 326,-2179 L 327,-2170 L 334,-2123 L 341,-2077 L 342,-2070 L 343,-2066 L 351,-2011 L 354,-1989 L 360,-1958 L 359,-1958 L 358,-1958 L 357,-1958 L 356,-1958 L 356,-1957 L 357,-1957 L 358,-1957 L 358,-1956 L 357,-1956 L 356,-1956 L 356,-1955 L 356,-1954 L 355,-1954 L 354,-1954 L 354,-1955 L 355,-1955 L 355,-1956 L 356,-1956 L 356,-1957 L 355,-1957 L 354,-1957 L 354,-1956 L 353,-1956 L 352,-1956 L 352,-1957 L 352,-1958 L 352,-1957 L 351,-1956 L 350,-1956 L 349,-1956 L 349,-1955 L 349,-1954 L 348,-1954 L 348,-1953 L 347,-1953 L 347,-1954 L 348,-1954 L 348,-1955 L 347,-1955 L 346,-1955 L 346,-1956 L 345,-1956 L 345,-1955 L 344,-1955 L 343,-1954 L 342,-1953 L 343,-1953 L 343,-1952 L 343,-1951 L 342,-1951 L 341,-1951 L 341,-1952 L 340,-1952 L 339,-1952 L 339,-1951 L 339,-1950 L 339,-1949 L 339,-1948 L 339,-1947 L 338,-1947 L 337,-1947 L 337,-1948 L 338,-1949 L 338,-1950 L 337,-1950 L 337,-1951 L 336,-1951 L 335,-1950 L 335,-1949 L 334,-1949 L 334,-1950 L 333,-1949 L 333,-1948 L 333,-1947 L 333,-1946 L 332,-1946 L 332,-1947 L 332,-1948 L 331,-1948 L 331,-1949 L 330,-1949 L 330,-1948 L 330,-1947 L 331,-1946 L 331,-1945 L 330,-1945 L 330,-1946 L 329,-1946 L 328,-1946 L 328,-1945 L 328,-1944 L 328,-1943 L 327,-1943 L 327,-1942 L 328,-1941 L 328,-1940 L 329,-1940 L 329,-1939 L 329,-1938 L 328,-1938 L 327,-1938 L 326,-1938 L 325,-1938 L 325,-1939 L 325,-1940 L 325,-1941 L 324,-1941 L 324,-1942 L 323,-1942 L 323,-1941 L 324,-1941 L 324,-1940 L 323,-1940 L 323,-1939 L 322,-1939 L 321,-1939 L 321,-1938 L 321,-1937 L 322,-1937 L 323,-1937 L 323,-1936 L 323,-1935 L 323,-1934 L 324,-1934 L 323,-1934 L 323,-1935 L 322,-1935 L 321,-1935 L 320,-1935 L 319,-1935 L 319,-1934 L 318,-1934 L 318,-1935 L 317,-1935 L 316,-1935 L 315,-1936 L 314,-1936 L 314,-1935 L 314,-1934 L 315,-1934 L 316,-1934 L 316,-1933 L 315,-1933 L 314,-1933 L 314,-1934 L 313,-1934 L 312,-1934 L 312,-1935 L 312,-1936 L 311,-1936 L 311,-1937 L 311,-1938 L 311,-1939 L 310,-1939 L 310,-1938 L 309,-1938 L 309,-1937 L 309,-1936 L 310,-1936 L 310,-1935 L 310,-1934 L 310,-1933 L 309,-1933 L 309,-1934 L 308,-1934 L 307,-1934 L 307,-1933 L 306,-1933 L 305,-1933 L 305,-1932 L 306,-1931 L 307,-1930 L 306,-1930 L 306,-1929 L 305,-1929 L 305,-1928 L 305,-1929 L 304,-1929 L 304,-1930 L 304,-1931 L 304,-1932 L 303,-1932 L 302,-1932 L 303,-1931 L 303,-1930 L 303,-1929 L 302,-1929 L 301,-1929 L 300,-1930 L 300,-1931 L 299,-1931 L 298,-1930 L 297,-1930 L 297,-1929 L 296,-1929 L 296,-1928 L 297,-1928 L 298,-1928 L 298,-1927 L 297,-1927 L 297,-1926 L 296,-1926 L 295,-1925 L 294,-1924 L 293,-1924 L 293,-1923 L 294,-1923 L 294,-1922 L 295,-1922 L 295,-1921 L 294,-1921 L 293,-1921 L 293,-1920 L 293,-1919 L 293,-1918 L 293,-1917 L 293,-1916 L 292,-1916 L 291,-1916 L 290,-1916 L 289,-1916 L 290,-1916 L 290,-1915 L 290,-1914 L 289,-1914 L 288,-1914 L 288,-1915 L 287,-1915 L 287,-1914 L 288,-1914 L 288,-1913 L 289,-1913 L 289,-1912 L 289,-1911 L 288,-1911 L 287,-1911 L 286,-1911 L 285,-1911 L 285,-1912 L 284,-1912 L 283,-1912 L 283,-1911 L 284,-1911 L 284,-1910 L 284,-1909 L 284,-1908 L 283,-1908 L 282,-1908 L 282,-1907 L 281,-1907 L 280,-1908 L 279,-1907 L 279,-1906 L 278,-1906 L 278,-1907 L 278,-1908 L 277,-1908 L 276,-1908 L 276,-1907 L 275,-1907 L 274,-1907 L 274,-1908 L 274,-1909 L 274,-1910 L 274,-1911 L 273,-1911 L 272,-1911 L 272,-1910 L 271,-1910 L 271,-1909 L 270,-1909 L 270,-1908 L 271,-1908 L 271,-1907 L 271,-1906 L 270,-1906 L 269,-1906 L 269,-1907 L 268,-1907 L 268,-1906 L 267,-1906 L 267,-1905 L 267,-1904 L 266,-1903 L 265,-1902 L 265,-1901 L 264,-1901 L 263,-1901 L 262,-1901 L 262,-1902 L 261,-1902 L 260,-1902 L 260,-1901 L 260,-1900 L 260,-1899 L 260,-1898 L 259,-1898 L 259,-1899 L 258,-1899 L 257,-1899 L 257,-1900 L 258,-1900 L 258,-1901 L 259,-1901 L 259,-1902 L 259,-1903 L 259,-1904 L 258,-1903 L 258,-1902 L 258,-1901 L 257,-1901 L 257,-1902 L 256,-1902 L 255,-1902 L 255,-1903 L 255,-1904 L 256,-1904 L 256,-1905 L 255,-1906 L 254,-1905 L 254,-1904 L 254,-1903 L 255,-1903 L 254,-1902 L 253,-1902 L 253,-1903 L 253,-1904 L 253,-1905 L 252,-1905 L 251,-1905 L 251,-1904 L 251,-1903 L 251,-1902 L 250,-1901 L 249,-1901 L 249,-1902 L 249,-1903 L 248,-1904 L 248,-1905 L 247,-1905 L 247,-1906 L 246,-1905 L 246,-1904 L 246,-1903 L 247,-1903 L 246,-1902 L 245,-1902 L 245,-1903 L 245,-1904 L 244,-1904 L 243,-1904 L 243,-1905 L 244,-1906 L 243,-1907 L 243,-1906 L 242,-1906 L 241,-1905 L 240,-1906 L 240,-1907 L 240,-1908 L 240,-1909 L 239,-1910 L 239,-1911 L 238,-1911 L 237,-1911 L 237,-1910 L 236,-1910 L 236,-1911 L 235,-1911 L 234,-1912 L 233,-1913 L 232,-1914 L 231,-1914 L 231,-1915 L 231,-1914 L 230,-1914 L 230,-1913 L 231,-1913 L 231,-1912 L 230,-1911 L 229,-1911 L 229,-1912 L 228,-1912 L 227,-1912 L 228,-1911 L 229,-1911 L 229,-1910 L 228,-1910 L 227,-1909 L 226,-1910 L 225,-1910 L 225,-1911 L 224,-1911 L 224,-1912 L 223,-1912 L 222,-1911 L 221,-1911 L 221,-1910 L 220,-1910 L 219,-1910 L 218,-1910 L 217,-1911 L 218,-1911 L 219,-1911 L 220,-1911 L 220,-1912 L 220,-1913 L 220,-1914 L 219,-1914 L 219,-1913 L 218,-1913 L 218,-1912 L 217,-1912 L 217,-1911 L 217,-1910 L 216,-1910 L 215,-1910 L 214,-1910 L 213,-1910 L 212,-1910 L 211,-1910 L 210,-1909 L 209,-1909 L 209,-1910 L 210,-1911 L 211,-1911 L 212,-1912 L 212,-1913 L 211,-1913 L 210,-1913 L 210,-1912 L 209,-1912 L 209,-1913 L 208,-1913 L 208,-1912 L 207,-1911 L 206,-1911 L 205,-1911 L 204,-1911 L 204,-1912 L 204,-1913 L 204,-1914 L 204,-1915 L 203,-1915 L 202,-1915 L 202,-1916 L 201,-1916 L 200,-1916 L 199,-1916 L 199,-1915 L 200,-1915 L 201,-1915 L 202,-1915 L 202,-1914 L 201,-1914 L 200,-1914 L 200,-1913 L 199,-1913 L 199,-1914 L 198,-1914 L 198,-1915 L 198,-1916 L 198,-1917 L 198,-1918 L 197,-1918 L 197,-1917 L 197,-1916 L 196,-1916 L 195,-1917 L 195,-1916 L 195,-1915 L 195,-1914 L 195,-1913 L 195,-1912 L 194,-1912 L 193,-1913 L 193,-1914 L 193,-1915 L 192,-1915 L 191,-1914 L 191,-1913 L 191,-1912 L 191,-1911 L 190,-1911 L 190,-1912 L 190,-1913 L 190,-1914 L 189,-1914 L 188,-1914 L 188,-1913 L 187,-1912 L 186,-1913 L 186,-1914 L 185,-1914 L 185,-1915 L 184,-1915 L 184,-1914 L 184,-1913 L 184,-1912 L 184,-1911 L 183,-1911 L 183,-1912 L 183,-1913 L 182,-1914 L 181,-1913 L 181,-1912 L 181,-1911 L 180,-1911 L 179,-1911 L 180,-1912 L 179,-1913 L 178,-1913 L 177,-1913 L 176,-1913 L 177,-1912 L 178,-1912 L 178,-1911 L 178,-1910 L 177,-1910 L 176,-1909 L 175,-1909 L 175,-1908 L 175,-1909 L 175,-1910 L 174,-1910 L 174,-1909 L 174,-1955 L 174,-2011 L 174,-2066 L 174,-2067 L 174,-2123 L 174,-2158 L 174,-2157 L 175,-2157 L 176,-2158 L 176,-2159 L 176,-2160 L 177,-2160 L 178,-2160 L 178,-2161 L 177,-2162 L 176,-2162 L 175,-2161 L 174,-2161 L 174,-2162 L 174,-2163 L 175,-2164 L 176,-2164 L 176,-2165 L 176,-2166 L 177,-2166 L 176,-2166 L 175,-2167 L 175,-2168 L 176,-2168 L 177,-2168 L 176,-2168 L 176,-2167 L 177,-2167 L 178,-2168 L 179,-2168 L 180,-2169 L 180,-2170 L 181,-2170 L 181,-2169 L 182,-2169 L 183,-2169 L 183,-2170 L 182,-2170 L 182,-2171 L 181,-2171 L 180,-2171 L 181,-2172 L 182,-2172 L 182,-2173 L 183,-2173 L 183,-2172 L 182,-2172 L 182,-2171 L 183,-2171 L 184,-2171 L 185,-2171 L 186,-2172 L 186,-2173 L 187,-2174 L 188,-2174 L 188,-2173 L 189,-2172 L 188,-2172 L 188,-2171 L 189,-2171 L 190,-2172 L 191,-2173 L 191,-2174 L 191,-2175 L 191,-2176 L 192,-2177 L 192,-2178 L 192,-2179 L 192,-2180 L 192,-2181 L 192,-2182 L 193,-2182 L 194,-2183 L 195,-2183 L 196,-2183 L 197,-2183 L 196,-2184 L 196,-2185 L 197,-2185 L 198,-2185 L 199,-2186 L 200,-2187 L 201,-2186 L 202,-2186 L 203,-2186 L 203,-2185 L 204,-2185 L 204,-2186 L 204,-2187 L 204,-2188 L 204,-2189 L 203,-2189 L 202,-2189 L 201,-2190 L 201,-2191 L 202,-2191 L 203,-2192 L 203,-2191 L 204,-2190 L 205,-2190 L 205,-2191 L 204,-2192 L 204,-2193 L 205,-2193 L 206,-2192 L 207,-2192 L 207,-2193 L 207,-2194 L 208,-2194 L 209,-2194 L 208,-2194 L 208,-2195 L 209,-2195 L 208,-2195 L 208,-2196 L 209,-2196 L 209,-2197 L 208,-2197 L 208,-2198 L 209,-2198 L 210,-2198 L 210,-2197 L 211,-2196 L 211,-2197 L 211,-2198 L 211,-2199 L 211,-2200 L 212,-2201 L 212,-2202 L 212,-2201 L 213,-2201 L 212,-2200 L 212,-2199 L 213,-2198 L 214,-2199 L 214,-2200 L 214,-2201 L 214,-2202 L 215,-2203 L 215,-2202 L 215,-2201 L 216,-2201 L 216,-2200 L 217,-2201 L 217,-2202 L 217,-2203 L 217,-2204 L 216,-2204 L 216,-2205 L 217,-2205 L 217,-2206 L 216,-2206 L 216,-2207 L 216,-2208 L 217,-2208 L 218,-2207 L 219,-2206 L 219,-2207 L 220,-2207 L 221,-2207 L 222,-2207 L 222,-2206 L 223,-2207 L 224,-2207 L 223,-2206 L 224,-2205 L 224,-2206 L 225,-2206 L 226,-2206 L 227,-2206 L 228,-2207 L 229,-2207 L 229,-2208 L 228,-2208 L 228,-2209 L 228,-2210 L 228,-2211 L 227,-2211 L 228,-2211 L 229,-2211 L 229,-2212 L 230,-2212 L 230,-2213 L 229,-2213 L 229,-2214 L 230,-2215 L 231,-2215 L 232,-2214 L 233,-2214 L 233,-2215 L 234,-2215 L 234,-2216 L 235,-2216 L 235,-2217 L 236,-2218 L 237,-2218 L 238,-2218 L 238,-2219 L 239,-2220 L 240,-2220 L 239,-2221 L 238,-2222 L 239,-2222 L 240,-2223 L 241,-2223 L 241,-2224 L 241,-2225 L 242,-2225 L 243,-2225 L 244,-2225 L 244,-2226 L 243,-2226 L 244,-2227 L 245,-2227 L 246,-2228 L 247,-2228 L 248,-2229 L 249,-2228 L 250,-2228 L 251,-2227 L 251,-2228 L 251,-2229 L 250,-2230 L 250,-2231 L 251,-2231 L 252,-2232 L 253,-2232 L 253,-2233 L 254,-2233 L 253,-2234 L 254,-2234 L 254,-2235 L 255,-2235 L 256,-2235 L 256,-2234 L 257,-2234 L 257,-2235 L 258,-2235 L 258,-2236 L 259,-2236 L 260,-2236 L 260,-2235 L 261,-2235 L 262,-2236 L 263,-2237 L 263,-2238 L 263,-2239 L 264,-2239 L 264,-2240 L 265,-2240 L 265,-2241 L 266,-2241 L 266,-2240 L 267,-2240 L 268,-2240 L 269,-2240 L 269,-2241 L 268,-2241 L 267,-2241 L 268,-2242 L 268,-2243 L 269,-2243 L 270,-2243 L 270,-2242 L 270,-2241 L 271,-2242 L 272,-2242 L 273,-2242 L 274,-2243 L 275,-2244 L 276,-2244 L 277,-2244 L 277,-2245 L 276,-2245 L 277,-2245 L 278,-2246 L 279,-2246 L 280,-2246 L 281,-2246 L 282,-2246 L 282,-2245 L 283,-2245 L 283,-2246 L 283,-2247 L 282,-2247 L 282,-2248 L 283,-2248 L 283,-2249 L 284,-2248 L 284,-2249 L 285,-2248 L 285,-2247 L 285,-2248 L 285,-2249 L 285,-2250 L 286,-2250 L 286,-2251 L 287,-2251 L 287,-2252 L 286,-2252 L 286,-2253 L 286,-2254 L 287,-2254 L 287,-2255 L 288,-2255 L 289,-2256 L 290,-2255 L 290,-2254 L 291,-2255 L 291,-2256 L 292,-2256 L 292,-2255 L 291,-2255 L 291,-2254 L 292,-2253 L 293,-2252 L 294,-2252 L 293,-2252 L 293,-2251 L 294,-2251 L 295,-2251 L 296,-2251 L 296,-2252 L 296,-2253 L 296,-2254 L 297,-2255 L 297,-2256 L 297,-2255 L 298,-2255 L 298,-2256 L 299,-2256 L 299,-2257 L 299,-2258 L 298,-2258 L 297,-2258 L 297,-2259 L 297,-2258 L 296,-2258 L 296,-2259 L 296,-2260 L 297,-2261 L 298,-2261 L 299,-2261 L 298,-2262 L 298,-2263 L 297,-2263 L 296,-2263 L 296,-2264 L 297,-2264 L 297,-2265 L 298,-2265 L 299,-2266 L 298,-2267 L 298,-2268 L 299,-2268 L 300,-2268 L 300,-2269 L 301,-2269 L 301,-2270 L 302,-2270 L 303,-2270 " /></g>
</svg>
