<?xml version="1.0" standalone="no"?><!DOCTYPE svg PUBLIC "-//W3C//DTD SVG 1.1//EN" "http://www.w3.org/Graphics/SVG/1.1/DTD/svg11.dtd"><svg xmlns="http://www.w3.org/2000/svg" viewBox="343 -2066 323 118" version = "1.1">
<g id="90502" ><path d="M 666,-2066 L 665,-2066 L 664,-2066 L 663,-2066 L 662,-2065 L 660,-2065 L 659,-2064 L 658,-2064 L 655,-2062 L 653,-2061 L 653,-2060 L 652,-2060 L 651,-2057 L 650,-2056 L 649,-2055 L 648,-2055 L 646,-2055 L 644,-2055 L 640,-2054 L 638,-2054 L 637,-2053 L 637,-2052 L 636,-2052 L 636,-2051 L 636,-2049 L 636,-2048 L 636,-2047 L 635,-2047 L 634,-2046 L 633,-2046 L 628,-2045 L 621,-2045 L 616,-2046 L 615,-2045 L 607,-2045 L 604,-2045 L 603,-2045 L 601,-2045 L 600,-2043 L 599,-2041 L 599,-2040 L 599,-2038 L 599,-2036 L 600,-2035 L 602,-2030 L 606,-2024 L 608,-2021 L 609,-2019 L 610,-2016 L 607,-2005 L 604,-2002 L 599,-1998 L 593,-1994 L 587,-1992 L 581,-1990 L 577,-1987 L 573,-1985 L 570,-1985 L 568,-1986 L 566,-1988 L 565,-1991 L 564,-1994 L 561,-1997 L 559,-2000 L 557,-2002 L 556,-2003 L 554,-2004 L 552,-2003 L 550,-2002 L 548,-1999 L 545,-1995 L 542,-1990 L 542,-1988 L 542,-1986 L 543,-1985 L 546,-1983 L 550,-1981 L 554,-1977 L 560,-1972 L 561,-1969 L 561,-1965 L 560,-1959 L 560,-1956 L 559,-1955 L 557,-1955 L 554,-1955 L 550,-1956 L 545,-1956 L 542,-1956 L 539,-1957 L 536,-1959 L 532,-1962 L 527,-1964 L 523,-1966 L 520,-1967 L 518,-1967 L 516,-1967 L 513,-1966 L 510,-1963 L 506,-1962 L 505,-1962 L 504,-1962 L 503,-1962 L 502,-1961 L 501,-1961 L 500,-1961 L 500,-1962 L 499,-1962 L 499,-1963 L 498,-1963 L 497,-1963 L 497,-1962 L 497,-1961 L 497,-1960 L 496,-1960 L 496,-1959 L 495,-1959 L 494,-1959 L 494,-1960 L 494,-1961 L 493,-1961 L 492,-1961 L 491,-1961 L 490,-1961 L 490,-1960 L 490,-1959 L 489,-1959 L 488,-1959 L 487,-1959 L 487,-1960 L 487,-1961 L 488,-1961 L 488,-1962 L 488,-1963 L 487,-1963 L 486,-1964 L 486,-1963 L 485,-1963 L 484,-1963 L 484,-1962 L 484,-1961 L 485,-1961 L 485,-1960 L 486,-1960 L 486,-1959 L 487,-1959 L 486,-1958 L 485,-1957 L 485,-1958 L 484,-1958 L 483,-1958 L 482,-1958 L 481,-1958 L 480,-1958 L 480,-1959 L 480,-1960 L 480,-1961 L 481,-1961 L 481,-1962 L 482,-1963 L 482,-1964 L 483,-1964 L 482,-1965 L 482,-1966 L 481,-1966 L 481,-1965 L 481,-1964 L 481,-1963 L 481,-1962 L 480,-1962 L 480,-1961 L 479,-1961 L 479,-1962 L 478,-1962 L 478,-1963 L 478,-1964 L 479,-1964 L 479,-1965 L 478,-1966 L 477,-1965 L 477,-1964 L 477,-1963 L 477,-1962 L 477,-1961 L 476,-1961 L 476,-1962 L 476,-1963 L 475,-1964 L 474,-1964 L 474,-1965 L 473,-1965 L 472,-1965 L 471,-1965 L 471,-1966 L 470,-1966 L 469,-1965 L 468,-1965 L 469,-1964 L 470,-1964 L 470,-1963 L 470,-1962 L 471,-1962 L 470,-1961 L 469,-1962 L 468,-1962 L 468,-1963 L 468,-1964 L 467,-1964 L 466,-1964 L 466,-1963 L 465,-1963 L 464,-1963 L 463,-1964 L 463,-1963 L 462,-1963 L 462,-1962 L 461,-1962 L 461,-1961 L 460,-1962 L 459,-1962 L 459,-1963 L 460,-1963 L 461,-1963 L 461,-1964 L 461,-1965 L 460,-1965 L 459,-1965 L 459,-1966 L 458,-1966 L 457,-1965 L 457,-1964 L 457,-1963 L 457,-1962 L 456,-1961 L 456,-1960 L 455,-1960 L 455,-1961 L 454,-1961 L 453,-1961 L 452,-1961 L 452,-1960 L 451,-1959 L 450,-1959 L 449,-1958 L 448,-1959 L 448,-1960 L 447,-1960 L 446,-1960 L 446,-1961 L 445,-1961 L 445,-1960 L 445,-1959 L 445,-1958 L 444,-1958 L 444,-1957 L 443,-1957 L 442,-1957 L 441,-1958 L 441,-1959 L 440,-1959 L 440,-1958 L 440,-1957 L 441,-1957 L 441,-1956 L 440,-1956 L 439,-1956 L 438,-1956 L 437,-1957 L 436,-1958 L 435,-1957 L 435,-1956 L 436,-1956 L 437,-1956 L 437,-1955 L 437,-1954 L 436,-1954 L 435,-1954 L 434,-1954 L 434,-1955 L 434,-1956 L 434,-1957 L 433,-1957 L 432,-1957 L 432,-1956 L 431,-1956 L 431,-1955 L 431,-1954 L 430,-1954 L 429,-1954 L 429,-1955 L 428,-1955 L 427,-1955 L 426,-1955 L 427,-1954 L 428,-1954 L 429,-1953 L 428,-1953 L 428,-1952 L 427,-1952 L 426,-1952 L 426,-1953 L 425,-1953 L 424,-1953 L 423,-1954 L 424,-1955 L 425,-1955 L 426,-1955 L 426,-1956 L 425,-1956 L 425,-1957 L 424,-1957 L 423,-1957 L 422,-1957 L 422,-1956 L 422,-1955 L 423,-1955 L 423,-1954 L 423,-1953 L 422,-1953 L 422,-1954 L 421,-1954 L 421,-1953 L 420,-1953 L 420,-1952 L 419,-1951 L 419,-1950 L 418,-1949 L 417,-1949 L 417,-1950 L 418,-1951 L 418,-1952 L 418,-1953 L 417,-1952 L 416,-1952 L 416,-1951 L 415,-1951 L 414,-1951 L 414,-1950 L 413,-1950 L 413,-1949 L 412,-1948 L 411,-1949 L 411,-1950 L 412,-1950 L 413,-1951 L 414,-1951 L 414,-1952 L 413,-1952 L 413,-1953 L 413,-1954 L 412,-1954 L 411,-1954 L 411,-1953 L 412,-1953 L 412,-1952 L 412,-1951 L 411,-1951 L 410,-1950 L 409,-1951 L 409,-1952 L 409,-1953 L 408,-1953 L 408,-1952 L 407,-1952 L 407,-1951 L 408,-1950 L 407,-1949 L 406,-1949 L 406,-1948 L 405,-1948 L 405,-1949 L 406,-1949 L 405,-1950 L 404,-1949 L 403,-1949 L 402,-1950 L 402,-1951 L 402,-1952 L 402,-1953 L 401,-1954 L 400,-1954 L 400,-1953 L 400,-1952 L 400,-1951 L 399,-1951 L 398,-1951 L 398,-1952 L 399,-1952 L 399,-1953 L 398,-1953 L 397,-1953 L 396,-1952 L 395,-1952 L 394,-1953 L 394,-1954 L 393,-1954 L 393,-1955 L 393,-1956 L 392,-1956 L 391,-1956 L 391,-1955 L 391,-1954 L 391,-1953 L 390,-1952 L 389,-1952 L 389,-1953 L 388,-1953 L 389,-1953 L 389,-1954 L 389,-1955 L 390,-1956 L 391,-1956 L 391,-1957 L 390,-1957 L 390,-1956 L 389,-1956 L 389,-1957 L 388,-1957 L 388,-1956 L 388,-1955 L 387,-1954 L 386,-1954 L 386,-1953 L 385,-1952 L 384,-1951 L 384,-1952 L 383,-1952 L 383,-1953 L 382,-1953 L 381,-1953 L 380,-1953 L 379,-1953 L 378,-1953 L 378,-1954 L 379,-1955 L 380,-1955 L 380,-1956 L 379,-1956 L 378,-1955 L 378,-1956 L 378,-1957 L 377,-1958 L 377,-1959 L 376,-1959 L 375,-1959 L 374,-1959 L 373,-1959 L 373,-1960 L 373,-1961 L 372,-1961 L 371,-1961 L 370,-1961 L 370,-1960 L 369,-1960 L 369,-1959 L 368,-1959 L 367,-1959 L 366,-1959 L 366,-1958 L 366,-1957 L 367,-1957 L 368,-1956 L 367,-1955 L 366,-1955 L 365,-1955 L 364,-1955 L 364,-1956 L 364,-1957 L 363,-1957 L 363,-1956 L 363,-1955 L 362,-1955 L 361,-1955 L 361,-1956 L 361,-1957 L 360,-1958 L 354,-1989 L 351,-2011 L 343,-2066 L 426,-2066 L 509,-2066 L 593,-2066 L 666,-2066 " /></g>
</svg>
