<?xml version="1.0" standalone="no"?><!DOCTYPE svg PUBLIC "-//W3C//DTD SVG 1.1//EN" "http://www.w3.org/Graphics/SVG/1.1/DTD/svg11.dtd"><svg xmlns="http://www.w3.org/2000/svg" viewBox="593 -2346 156 280" version = "1.1">
<g id="90501" ><path d="M 714,-2107 L 714,-2106 L 713,-2105 L 712,-2104 L 712,-2103 L 712,-2102 L 712,-2101 L 711,-2100 L 711,-2098 L 710,-2097 L 709,-2096 L 707,-2095 L 705,-2095 L 703,-2095 L 702,-2095 L 700,-2096 L 699,-2096 L 697,-2096 L 695,-2096 L 694,-2095 L 690,-2093 L 688,-2092 L 687,-2091 L 686,-2090 L 684,-2088 L 683,-2088 L 683,-2087 L 682,-2086 L 682,-2085 L 682,-2080 L 681,-2076 L 680,-2074 L 679,-2073 L 677,-2070 L 674,-2068 L 671,-2068 L 668,-2067 L 667,-2066 L 666,-2066 L 593,-2066 L 593,-2150 L 593,-2234 L 593,-2308 L 594,-2308 L 595,-2307 L 596,-2307 L 597,-2308 L 598,-2308 L 598,-2309 L 598,-2310 L 598,-2311 L 598,-2312 L 598,-2313 L 599,-2314 L 600,-2315 L 601,-2315 L 602,-2316 L 603,-2316 L 604,-2316 L 605,-2316 L 606,-2316 L 607,-2316 L 608,-2316 L 609,-2316 L 610,-2317 L 610,-2318 L 611,-2318 L 612,-2319 L 613,-2318 L 614,-2318 L 614,-2319 L 615,-2319 L 615,-2318 L 615,-2317 L 615,-2316 L 615,-2315 L 614,-2315 L 614,-2314 L 615,-2314 L 616,-2314 L 616,-2315 L 617,-2315 L 617,-2314 L 617,-2313 L 616,-2313 L 616,-2312 L 615,-2312 L 614,-2312 L 613,-2312 L 612,-2312 L 611,-2313 L 610,-2313 L 609,-2314 L 608,-2314 L 608,-2313 L 607,-2313 L 607,-2312 L 607,-2311 L 606,-2311 L 607,-2310 L 608,-2309 L 609,-2308 L 610,-2307 L 610,-2305 L 610,-2304 L 609,-2304 L 609,-2303 L 608,-2302 L 607,-2301 L 607,-2300 L 606,-2300 L 606,-2299 L 607,-2299 L 608,-2299 L 609,-2299 L 609,-2298 L 610,-2298 L 611,-2298 L 612,-2297 L 613,-2297 L 614,-2297 L 614,-2298 L 613,-2299 L 613,-2300 L 613,-2301 L 614,-2301 L 615,-2302 L 616,-2303 L 616,-2304 L 617,-2305 L 618,-2305 L 618,-2306 L 619,-2307 L 620,-2308 L 621,-2308 L 622,-2307 L 622,-2306 L 622,-2305 L 623,-2304 L 624,-2304 L 625,-2304 L 626,-2304 L 627,-2304 L 628,-2304 L 629,-2304 L 629,-2303 L 629,-2302 L 628,-2302 L 628,-2301 L 627,-2300 L 626,-2299 L 626,-2298 L 626,-2297 L 627,-2296 L 628,-2296 L 628,-2297 L 629,-2298 L 630,-2299 L 631,-2300 L 632,-2300 L 632,-2299 L 632,-2298 L 632,-2297 L 632,-2296 L 633,-2294 L 633,-2293 L 633,-2291 L 634,-2290 L 635,-2289 L 636,-2289 L 636,-2290 L 637,-2290 L 638,-2291 L 639,-2292 L 641,-2292 L 642,-2293 L 643,-2293 L 644,-2293 L 645,-2293 L 645,-2292 L 645,-2291 L 644,-2290 L 644,-2289 L 644,-2288 L 645,-2287 L 646,-2287 L 648,-2288 L 649,-2288 L 651,-2288 L 652,-2289 L 653,-2289 L 654,-2289 L 655,-2289 L 655,-2288 L 656,-2287 L 657,-2287 L 658,-2287 L 659,-2287 L 659,-2288 L 660,-2289 L 660,-2290 L 660,-2291 L 659,-2292 L 658,-2293 L 657,-2293 L 657,-2294 L 656,-2295 L 656,-2296 L 655,-2297 L 655,-2298 L 656,-2298 L 657,-2298 L 658,-2298 L 659,-2298 L 659,-2299 L 659,-2300 L 660,-2300 L 660,-2301 L 660,-2300 L 661,-2300 L 662,-2300 L 663,-2300 L 664,-2301 L 665,-2301 L 665,-2302 L 665,-2303 L 665,-2304 L 666,-2305 L 666,-2306 L 667,-2308 L 668,-2308 L 668,-2307 L 668,-2306 L 669,-2306 L 670,-2306 L 671,-2305 L 673,-2304 L 674,-2304 L 674,-2305 L 675,-2305 L 675,-2306 L 676,-2306 L 677,-2306 L 678,-2307 L 678,-2308 L 678,-2309 L 678,-2310 L 678,-2311 L 677,-2312 L 676,-2312 L 676,-2313 L 677,-2315 L 676,-2315 L 676,-2316 L 676,-2317 L 676,-2318 L 676,-2319 L 677,-2319 L 677,-2320 L 678,-2321 L 677,-2322 L 677,-2324 L 677,-2325 L 678,-2325 L 680,-2325 L 681,-2325 L 683,-2325 L 684,-2325 L 685,-2326 L 685,-2327 L 684,-2327 L 683,-2328 L 683,-2329 L 682,-2329 L 682,-2331 L 682,-2332 L 683,-2332 L 683,-2333 L 684,-2333 L 684,-2332 L 684,-2331 L 685,-2330 L 686,-2330 L 687,-2330 L 688,-2330 L 689,-2331 L 690,-2331 L 691,-2332 L 692,-2333 L 694,-2334 L 695,-2335 L 696,-2335 L 697,-2336 L 698,-2336 L 698,-2337 L 699,-2337 L 699,-2338 L 699,-2339 L 699,-2340 L 699,-2341 L 699,-2342 L 699,-2343 L 698,-2343 L 698,-2344 L 699,-2346 L 699,-2345 L 700,-2344 L 703,-2343 L 706,-2342 L 709,-2341 L 713,-2340 L 716,-2338 L 720,-2335 L 724,-2331 L 726,-2328 L 728,-2324 L 729,-2321 L 731,-2317 L 732,-2314 L 733,-2312 L 735,-2309 L 736,-2307 L 736,-2306 L 736,-2302 L 737,-2298 L 737,-2297 L 739,-2295 L 741,-2293 L 746,-2290 L 748,-2288 L 749,-2286 L 749,-2283 L 749,-2281 L 748,-2279 L 747,-2276 L 745,-2274 L 742,-2271 L 738,-2267 L 735,-2262 L 734,-2259 L 733,-2256 L 733,-2252 L 733,-2246 L 734,-2244 L 734,-2243 L 737,-2239 L 737,-2237 L 738,-2234 L 737,-2230 L 734,-2218 L 735,-2214 L 735,-2212 L 737,-2209 L 739,-2206 L 741,-2204 L 742,-2203 L 743,-2202 L 744,-2199 L 744,-2195 L 743,-2193 L 743,-2190 L 744,-2188 L 744,-2186 L 744,-2183 L 742,-2180 L 742,-2177 L 743,-2174 L 744,-2172 L 745,-2171 L 745,-2169 L 746,-2168 L 747,-2166 L 747,-2164 L 747,-2163 L 747,-2162 L 748,-2160 L 747,-2159 L 747,-2158 L 746,-2157 L 745,-2154 L 743,-2152 L 743,-2151 L 741,-2150 L 741,-2149 L 741,-2148 L 741,-2147 L 740,-2145 L 739,-2141 L 738,-2136 L 737,-2134 L 736,-2133 L 734,-2131 L 731,-2129 L 728,-2127 L 725,-2122 L 724,-2120 L 723,-2119 L 722,-2118 L 721,-2116 L 720,-2115 L 718,-2114 L 717,-2114 L 716,-2113 L 715,-2112 L 714,-2110 L 714,-2109 L 714,-2108 L 714,-2107 " /></g>
</svg>
