<?xml version="1.0" encoding="UTF-8" standalone="no"?>
<!-- Created with Inkscape (http://www.inkscape.org/) -->

<svg
   xmlns:dc="http://purl.org/dc/elements/1.1/"
   xmlns:cc="http://creativecommons.org/ns#"
   xmlns:rdf="http://www.w3.org/1999/02/22-rdf-syntax-ns#"
   xmlns:svg="http://www.w3.org/2000/svg"
   xmlns="http://www.w3.org/2000/svg"
   xmlns:sodipodi="http://sodipodi.sourceforge.net/DTD/sodipodi-0.dtd"
   xmlns:inkscape="http://www.inkscape.org/namespaces/inkscape"
   width="50.000008mm"
   height="50.063091mm"
   viewBox="0 0 50.000008 50.063091"
   version="1.1"
   id="svg10993"
   inkscape:version="0.92.4 (5da689c313, 2019-01-14)"
   sodipodi:docname="acobol.svg">
  <defs
     id="defs10987" />
  <sodipodi:namedview
     id="base"
     pagecolor="#ffffff"
     bordercolor="#666666"
     borderopacity="1.0"
     inkscape:pageopacity="0.0"
     inkscape:pageshadow="2"
     inkscape:zoom="4.1910035"
     inkscape:cx="94.4882"
     inkscape:cy="94.607419"
     inkscape:document-units="mm"
     inkscape:current-layer="layer1"
     showgrid="false"
     fit-margin-top="0"
     fit-margin-left="0"
     fit-margin-right="0"
     fit-margin-bottom="0"
     inkscape:window-width="1920"
     inkscape:window-height="971"
     inkscape:window-x="0"
     inkscape:window-y="31"
     inkscape:window-maximized="1" />
  <metadata
     id="metadata10990">
    <rdf:RDF>
      <cc:Work
         rdf:about="">
        <dc:format>image/svg+xml</dc:format>
        <dc:type
           rdf:resource="http://purl.org/dc/dcmitype/StillImage" />
        <dc:title></dc:title>
      </cc:Work>
    </rdf:RDF>
  </metadata>
  <g
     inkscape:label="Layer 1"
     inkscape:groupmode="layer"
     id="layer1"
     transform="translate(-68.738094,-100.36726)">
    <path
       style="fill:#ede9e6;fill-opacity:1;stroke:none;stroke-width:0.8656733;stroke-miterlimit:4;stroke-dasharray:none;stroke-opacity:1"
       d="M 68.738094,100.36726 H 118.7381 v 50.06309 H 68.738094 Z"
       id="rect6330"
       inkscape:connector-curvature="0" />
    <path
       inkscape:connector-curvature="0"
       id="path6148"
       style="fill:#863f5f;fill-opacity:1;stroke:none;stroke-width:0.08367227px;stroke-linecap:butt;stroke-linejoin:miter;stroke-opacity:1"
       d="m 68.836642,137.84895 c 14.214335,0 40.018518,-0.39354 42.741538,-0.24621 2.72303,0.1474 4.81263,0.46359 5.14574,1.64757 0.0704,0.25045 0.0509,0.63032 -0.20512,0.72571 -0.63834,0.53931 -2.52234,-0.26382 -4.74642,-0.59882 -2.22412,-0.33508 -28.954723,-0.77584 -42.953478,-1.03352 z M 104.8287,108.97572 c -0.8118,1.59995 -1.31191,6.98162 -1.67229,9.84435 -0.013,1.06783 0.47203,1.21182 1.04121,1.19899 0.65521,0.0261 1.28531,0.0104 1.19902,-1.19899 -0.0607,-2.02186 -0.14283,-3.51718 0.28404,-6.53134 0.0949,-1.13167 0.66935,-2.89092 1.86159,-2.99748 1.12812,-0.2706 3.29341,-0.31645 5.26927,2.24022 0.93839,1.22965 0.95456,2.60921 0.1262,3.75473 -0.96005,1.20193 -2.25073,2.10347 -2.5242,2.90282 -0.39749,1.10281 0.27099,2.32173 1.26208,3.18679 1.735,1.87618 2.95847,3.76931 2.7766,5.39546 -0.46172,1.65265 -1.87369,2.69445 -3.50231,3.59697 -1.60615,0.91273 -4.37927,1.00743 -5.14303,1.48296 -0.98294,0.60358 -0.81624,2.29811 -0.0946,2.68196 0.7216,0.38383 2.63351,0.0665 3.62851,-0.0326 0.99504,-0.0982 4.2154,-0.50914 6.81532,-2.68196 0.3477,-0.28958 2.0386,-1.65103 1.8616,-3.69163 -0.01,-0.93221 -1.26721,-2.89053 -2.55574,-4.54354 -1.28853,-1.65301 -2.31494,-2.28663 -2.01936,-3.84939 0.27686,-0.84944 0.52362,-1.08544 1.89316,-2.42953 0.88348,-0.91909 2.94487,-2.73014 2.55573,-4.29112 -0.22175,-1.33485 -1.73059,-2.75579 -4.85906,-4.16492 -2.89198,-1.09853 -4.85026,-1.00825 -6.15271,-0.85192 -0.70556,0.12881 -1.59817,0.0859 -2.05093,0.97813 z m -8.014322,20.57216 c -2.805301,-0.008 -5.727541,-1.50374 -7.107411,-3.49655 -1.3799,-1.99281 -1.40165,-3.72869 -0.93846,-5.5397 0.66705,-2.60819 2.09648,-4.6653 4.33104,-6.07777 2.59712,-1.82248 5.335761,-2.46848 8.809873,-2.65384 1.27223,-0.0679 2.06189,-1.76318 1.18549,-2.68327 -0.90231,-0.88872 -2.27481,-0.61095 -3.384863,-0.46541 -2.822329,0.57174 -5.77362,1.36537 -8.03864,3.23248 -1.94386,1.53521 -3.47495,3.64316 -4.44504,5.91065 -0.8237,2.10915 -1.10236,4.62757 -0.53354,6.83157 0.71541,2.30121 2.41339,4.35039 4.59466,5.42932 1.54113,0.86146 2.96102,1.00156 5.168251,0.98711 1.31703,-0.105 1.62337,-1.41923 0.35864,-1.47459 z m -22.745675,0.56277 c 1.336728,-2.57597 2.991863,-5.69305 5.307454,-9.49955 2.23423,-3.67275 4.86885,-8.27886 6.29982,-8.60575 1.25471,-0.0452 2.10349,2.05778 2.67075,3.00815 0.37052,-0.53237 0.67291,-0.93727 0.89897,-1.20097 -0.88514,-2.20774 -3.26462,-5.89386 -4.17213,-5.86776 -0.67474,0.0196 -3.01459,3.85832 -2.93388,3.75938 -4.212926,6.63748 -7.497532,11.76848 -11.434345,18.35074 z" />
    <path
       inkscape:connector-curvature="0"
       id="path6320"
       style="font-style:normal;font-variant:normal;font-weight:normal;font-stretch:normal;font-size:96px;line-height:119.99269867px;font-family:'Microsoft Sans Serif';-inkscape-font-specification:'Microsoft Sans Serif';text-align:center;letter-spacing:-0.41289228px;word-spacing:-0.32919788px;text-anchor:middle;fill:#03695c;fill-opacity:1;stroke:#03695c;stroke-width:0.21422879;stroke-miterlimit:4;stroke-dasharray:none;stroke-opacity:1"
       d="m 98.203578,135.95145 -0.29936,-0.73862 -0.28567,0.73862 z m 0.517848,0.65175 h -0.25436 l -0.197289,-0.48446 h -0.712859 l -0.188161,0.48446 h -0.238059 l 0.65368,-1.59239 h 0.24262 z m -1.792877,0 h -0.226312 v -1.59239 h 0.226312 z m -0.453052,-1.59239 -0.661799,1.59239 h -0.23218 l -0.661831,-1.59239 h 0.24034 l 0.537579,1.36536 0.537552,-1.36536 z m -1.7743,1.59239 h -0.22631 v -1.59239 h 0.22631 z m -0.51455,0 h -1.05309 v -1.59239 h 0.22534 v 1.40338 h 0.82781 z m -2.15398,-1.61956 q 0.35757,0 0.58516,0.22599 0.22762,0.22599 0.22762,0.59742 0,0.3715 -0.22762,0.59742 -0.22762,0.22599 -0.58516,0.22599 -0.35878,0 -0.58747,-0.22599 -0.2286,-0.22697 -0.2286,-0.59742 0,-0.37149 0.2286,-0.59742 0.2286,-0.22599 0.58747,-0.22599 z m -0.002,1.46639 q 0.255329,0 0.417959,-0.16957 0.16371,-0.16958 0.16371,-0.47357 0,-0.30426 -0.1624,-0.4736 -0.1624,-0.16957 -0.41451,-0.16957 -0.25665,0 -0.42146,0.16957 -0.1637,0.16957 -0.1637,0.4736 0,0.30295 0.1637,0.47357 0.16371,0.16957 0.41683,0.16957 z m -1.040531,-0.30947 q 0,0.22371 -0.1624,0.34326 -0.1624,0.11935 -0.47256,0.11935 h -0.63743 v -1.59236 h 0.60609 q 0.27165,0 0.42726,0.10859 0.15555,0.10859 0.15555,0.29773 0,0.23023 -0.2449,0.34104 0.16501,0.0391 0.24621,0.14446 0.0825,0.10436 0.0825,0.23806 z m -1.04756,-0.46271 h 0.37848 q 0.18685,0 0.27523,-0.0554 0.0884,-0.0564 0.0884,-0.18686 0,-0.1174 -0.0858,-0.17609 -0.0861,-0.0597 -0.298391,-0.0597 h -0.35757 z m 0,0.73644 h 0.40985 q 0.40404,0 0.40404,-0.2736 0,-0.14218 -0.0939,-0.2074 -0.0929,-0.0662 -0.33905,-0.0662 h -0.38082 z m -1.02889,0.18881 z m -0.1187,0 h -1.26903 v -1.59239 h 1.22957 v 0.18914 h -1.0043 v 0.48661 h 0.93928 v 0.18914 h -0.93928 v 0.53875 h 1.04376 z m -2.97712,-1.59239 h 0.53986 q 0.8673,0 0.8673,0.78751 0,0.80488 -0.8673,0.80488 h -0.53986 z m 0.22533,1.40339 h 0.31013 q 0.37035,0 0.50503,-0.16078 0.13468,-0.16174 0.13468,-0.4551 0,-0.28567 -0.13468,-0.4421 -0.13337,-0.15653 -0.50503,-0.15653 h -0.31013 z m -1.02888,0.18881 z m -0.7456,0.0261 q -0.35996,0 -0.53873,-0.15099 -0.17772,-0.15098 -0.18685,-0.38777 h 0.21718 q 0.0163,0.17805 0.15784,0.26382 0.14152,0.0848 0.34136,0.0848 0.18914,0 0.30425,-0.0727 0.1161,-0.0727 0.1161,-0.19762 0,-0.13142 -0.11968,-0.1911 -0.11968,-0.0597 -0.41217,-0.11739 -0.29153,-0.0587 -0.41914,-0.16175 -0.12652,-0.10305 -0.12652,-0.2749 0,-0.19338 0.16468,-0.3173 0.16599,-0.12392 0.44004,-0.12392 0.28795,0 0.46444,0.12489 0.17642,0.1249 0.18685,0.35305 h -0.21946 q -0.0336,-0.28893 -0.42263,-0.28893 -0.18816,0 -0.29154,0.0662 -0.10337,0.0662 -0.10337,0.17609 0,0.0998 0.0825,0.15001 0.0835,0.0499 0.31013,0.0965 0.22762,0.0466 0.36109,0.0923 0.1337,0.0456 0.2286,0.14218 0.0952,0.0956 0.0952,0.25762 0,0.20545 -0.17544,0.34107 -0.17414,0.13566 -0.45515,0.13566 z m -1.34009,-0.67888 -0.29969,-0.73863 -0.28567,0.73863 z m 0.51782,0.65174 h -0.25436 l -0.1973,-0.48445 h -0.71289 l -0.18816,0.48445 h -0.23806 l 0.65368,-1.59239 h 0.24262 z m -1.6582,0 h -1.05306 v -1.59249 h 0.22534 v 1.40339 h 0.82785 z m -1.75108,-0.65174 -0.29969,-0.73863 -0.28566,0.73863 z m 0.51782,0.65174 h -0.25436 l -0.19729,-0.48445 h -0.7129 l -0.18816,0.48445 h -0.238062 l 0.653672,-1.59239 h 0.24262 z m -1.768488,-0.50944 q 0,0.29219 -0.120658,0.41494 -0.120658,0.12163 -0.356431,0.12163 -0.211314,0 -0.334386,-0.12065 -0.122941,-0.12066 -0.122941,-0.31828 v -0.0424 h 0.226316 q 0,0.29121 0.231207,0.29121 0.121962,0 0.186857,-0.0642 0.06489,-0.0639 0.06489,-0.27164 v -1.09382 h 0.225337 z m -1.117164,0.50944 h -1.269006 v -1.59249 h 1.229538 v 0.18914 h -1.004299 v 0.48664 h 0.939274 v 0.18882 h -0.939274 v 0.53879 h 1.043757 z m -2.264263,0.0261 q -0.361093,0 -0.577039,-0.22142 -0.214902,-0.22273 -0.214902,-0.60179 0,-0.37906 0.214902,-0.60065 0.21588,-0.22272 0.577039,-0.22272 0.277514,0 0.472556,0.14022 0.19501,0.14022 0.219467,0.36931 h -0.232195 q -0.01304,-0.15099 -0.14055,-0.24002 -0.125224,-0.089 -0.316972,-0.089 -0.258926,0 -0.409846,0.16729 -0.150986,0.16632 -0.150986,0.47576 0,0.30849 0.149681,0.47578 0.149681,0.16729 0.406357,0.16729 0.199901,0 0.322842,-0.0913 0.122941,-0.0913 0.139246,-0.26055 h 0.232185 q -0.02283,0.25403 -0.213597,0.39318 -0.18914,0.13892 -0.478361,0.13892 z m -1.084628,-0.0261 H 74.089247 L 73.197551,135.345 v 1.25673 h -0.213597 v -1.59236 h 0.229902 l 0.891696,1.25674 v -1.25674 h 0.214902 z m -2.437293,-1.61955 q 0.357604,0 0.585192,0.22598 0.227619,0.22599 0.227619,0.59742 0,0.3715 -0.227619,0.59742 -0.22762,0.22599 -0.585192,0.22599 -0.358778,0 -0.587474,-0.22599 -0.228599,-0.22696 -0.228599,-0.59742 0,-0.37149 0.228599,-0.59742 0.228598,-0.22598 0.587474,-0.22598 z m -0.0023,1.46638 q 0.255338,0 0.417998,-0.16957 0.163704,-0.16958 0.163704,-0.4736 0,-0.30426 -0.162399,-0.47357 -0.1624,-0.16957 -0.414477,-0.16957 -0.256643,0 -0.421455,0.16957 -0.163704,0.16958 -0.163704,0.47357 0,0.30295 0.163704,0.4736 0.163703,0.16957 0.416792,0.16957 z m -1.730174,0.18033 q -0.361094,0 -0.577039,-0.22142 -0.214902,-0.22273 -0.214902,-0.60176 0,-0.37909 0.214902,-0.60068 0.21588,-0.22273 0.577039,-0.22273 0.277514,0 0.472556,0.14023 0.195009,0.14022 0.219467,0.36934 h -0.232172 q -0.01304,-0.15098 -0.140551,-0.24001 -0.125223,-0.089 -0.316972,-0.089 -0.258925,0 -0.409846,0.16729 -0.150985,0.16632 -0.150985,0.47576 0,0.30849 0.149681,0.47575 0.149681,0.16729 0.406357,0.16729 0.199575,0 0.322841,-0.0913 0.122941,-0.0913 0.139246,-0.26056 h 0.232186 q -0.02283,0.25403 -0.213598,0.39321 -0.189139,0.13893 -0.47836,0.13893 z m 23.076451,-2.83353 h -1.26903 v -1.5925 h 1.22957 v 0.18913 h -1.0043 v 0.48665 h 0.93928 v 0.18881 h -0.93928 v 0.53876 h 1.04376 z m -2.97716,-1.59236 h 0.5399 q 0.8673,0 0.8673,0.7875 0,0.80486 -0.8673,0.80486 h -0.5399 z m 0.22534,1.40338 h 0.31013 q 0.37035,0 0.50504,-0.16077 0.13468,-0.16175 0.13468,-0.45514 0,-0.28567 -0.13468,-0.44206 -0.13337,-0.15653 -0.50504,-0.15653 h -0.31013 z m -1.02889,0.18914 z m -0.18131,0 h -0.23121 l -0.89169,-1.25677 v 1.25677 h -0.2136 v -1.59249 h 0.2299 l 0.89167,1.25677 v -1.25677 h 0.2149 z m -2.43725,-1.61956 q 0.3576,0 0.58516,0.22599 0.22762,0.22599 0.22762,0.59742 0,0.3715 -0.22762,0.59742 -0.22762,0.22599 -0.58516,0.22599 -0.35878,0 -0.58751,-0.22599 -0.22859,-0.22696 -0.22859,-0.59742 0,-0.37149 0.22859,-0.59742 0.2286,-0.22599 0.58751,-0.22599 z m -0.002,1.46639 q 0.255331,0 0.417951,-0.16957 0.16371,-0.16958 0.16371,-0.4736 0,-0.30426 -0.16273,-0.47357 -0.1624,-0.16957 -0.41448,-0.16957 -0.25664,0 -0.42144,0.16957 -0.16371,0.16957 -0.16371,0.47357 0,0.30295 0.16371,0.4736 0.1637,0.16957 0.41682,0.16957 z m 0.297071,-1.84548 -0.25664,0.30523 h -0.17186 l 0.15458,-0.30523 z m -1.42716,1.99865 h -0.22631 v -1.59249 h 0.22632 z m -1.24949,0.0261 q -0.3611,0 -0.57704,-0.22142 -0.2149,-0.22273 -0.2149,-0.60176 0,-0.3791 0.2149,-0.60068 0.21588,-0.22273 0.57704,-0.22273 0.27751,0 0.47256,0.14022 0.195,0.14023 0.21947,0.36931 h -0.23219 q -0.013,-0.15098 -0.14056,-0.24001 -0.12555,-0.089 -0.31697,-0.089 -0.25893,0 -0.40985,0.16729 -0.150981,0.16632 -0.150981,0.47576 0,0.30849 0.149681,0.47578 0.14968,0.16729 0.40635,0.16729 0.19958,0 0.32285,-0.0913 0.12294,-0.0913 0.13924,-0.26055 h 0.232199 q -0.0228,0.25403 -0.213599,0.39321 -0.189141,0.13892 -0.478361,0.13892 z m -1.41092,-0.67888 -0.299681,-0.73862 -0.285669,0.73862 z m 0.517849,0.65172 h -0.254359 l -0.1973,-0.48469 h -0.71288 l -0.18816,0.48446 h -0.23806 l 0.65368,-1.5924 h 0.24262 z m -1.792879,0 h -0.226321 v -1.59263 h 0.226321 z m -1.24953,0.0261 q -0.361101,0 -0.577041,-0.22175 -0.214899,-0.22273 -0.214899,-0.60176 0,-0.3791 0.214899,-0.60068 0.215881,-0.22273 0.577041,-0.22273 0.27751,0 0.47255,0.14022 0.195009,0.14023 0.21947,0.36931 h -0.23218 q -0.0131,-0.15098 -0.140561,-0.24001 -0.125539,-0.089 -0.316969,-0.089 -0.258921,0 -0.40984,0.16729 -0.15098,0.16632 -0.15098,0.47579 0,0.30849 0.14968,0.47575 0.149679,0.16729 0.406359,0.16729 0.199901,0 0.322841,-0.0913 0.122939,-0.0913 0.139249,-0.26056 h 0.232181 q -0.0228,0.25436 -0.2136,0.39322 -0.18913,0.13892 -0.478361,0.13892 z m -1.813783,-1.64669 q 0.357633,0 0.585182,0.22599 0.22762,0.22598 0.22762,0.59742 0,0.37146 -0.22762,0.59742 -0.22762,0.22599 -0.585182,0.22599 -0.358778,0 -0.587474,-0.22599 -0.228599,-0.22697 -0.228599,-0.59742 0,-0.3715 0.228599,-0.59742 0.228598,-0.22599 0.587474,-0.22599 z m -0.0023,1.46638 q 0.255339,0 0.418003,-0.16957 0.1637,-0.16957 0.1637,-0.4736 0,-0.30425 -0.1624,-0.4736 -0.162398,-0.16957 -0.414477,-0.16957 -0.256643,0 -0.421488,0.16957 -0.163704,0.16958 -0.163704,0.4736 0,0.30295 0.163704,0.4736 0.163704,0.16957 0.416825,0.16957 z m -1.670952,0.18034 q -0.359952,0 -0.538754,-0.15099 -0.177726,-0.15098 -0.186857,-0.3878 h 0.217184 q 0.01631,0.17805 0.157834,0.26382 0.141529,0.0848 0.341365,0.0848 0.189139,0 0.304254,-0.0727 0.116092,-0.0727 0.116092,-0.19762 0,-0.13142 -0.119679,-0.1911 -0.11968,-0.0597 -0.412162,-0.11739 -0.291536,-0.0587 -0.41914,-0.16175 -0.126528,-0.10305 -0.126528,-0.27491 0,-0.19337 0.164682,-0.31729 0.165986,-0.12392 0.440043,-0.12392 0.287949,0 0.464436,0.12489 0.176422,0.1249 0.186857,0.35304 h -0.219479 q -0.03359,-0.28892 -0.422631,-0.28892 -0.188161,0 -0.291536,0.0662 -0.103373,0.0662 -0.103373,0.17609 0,0.0998 0.0825,0.15001 0.08348,0.0499 0.309798,0.0965 0.227619,0.0466 0.361093,0.0923 0.133376,0.0456 0.228597,0.14218 0.09522,0.0956 0.09522,0.25729 0,0.20545 -0.175444,0.34104 -0.174139,0.13566 -0.455109,0.13566 z m -1.3401,-0.67889 -0.299689,-0.73865 -0.285666,0.73865 z m 0.517819,0.65172 h -0.25436 l -0.197293,-0.48446 h -0.712893 l -0.188162,0.48446 h -0.238055 l 0.653674,-1.59239 h 0.24262 z m 34.069038,13.45918 h -4.29849 v -6.66483 h 0.91941 v 5.87376 h 3.37908 z m -8.79223,-6.77887 q 1.45968,0 2.38858,0.94563 0.92887,0.94564 0.92887,2.50047 0,1.55482 -0.92887,2.50042 -0.9289,0.94563 -2.38858,0.94563 -1.46443,0 -2.398065,-0.94563 -0.93363,-0.95017 -0.93363,-2.50042 0,-1.55483 0.93363,-2.50047 0.933635,-0.94563 2.398065,-0.94563 z m -0.01,6.13749 q 1.04263,0 1.70615,-0.70921 0.66822,-0.70924 0.66822,-1.98218 0,-1.27295 -0.66349,-1.98219 -0.66349,-0.70921 -1.69192,-0.70921 -1.04739,0 -1.720354,0.70921 -0.668221,0.70924 -0.668221,1.98219 0,1.2684 0.668221,1.98218 0.668244,0.70921 1.701394,0.70921 z m -4.247286,-1.29571 q 0,0.93654 -0.66349,1.43665 -0.663488,0.50008 -1.928868,0.50008 h -2.601958 v -6.66483 h 2.47388 q 1.108981,0 1.744031,0.45462 0.63509,0.45462 0.63509,1.24568 0,0.9638 -1.000001,1.42752 0.672981,0.1637 1.004729,0.60466 0.336502,0.43645 0.336502,0.99562 z m -4.274388,-1.93695 h 1.54497 q 0.763019,0 1.123199,-0.23186 0.36018,-0.23642 0.36018,-0.78196 0,-0.49102 -0.350719,-0.73651 -0.350692,-0.25012 -1.21796,-0.25012 h -1.45971 z m 0,3.08236 h 1.67294 q 1.64926,0 1.64926,-1.14567 0,-0.59556 -0.383892,-0.86831 -0.379118,-0.27752 -1.383848,-0.27752 h -1.554578 z m -5.413268,-5.98744 q 1.4597,0 2.38857,0.94563 0.92891,0.94563 0.92891,2.50046 0,1.55483 -0.92891,2.50043 -0.92887,0.94563 -2.38857,0.94563 -1.46443,0 -2.39806,-0.94563 -0.93364,-0.95017 -0.93364,-2.50043 0,-1.55483 0.93364,-2.50046 0.93363,-0.94563 2.39806,-0.94563 z m -0.01,6.13749 q 1.04265,0 1.70613,-0.70921 0.66826,-0.70924 0.66826,-1.98219 0,-1.27298 -0.66349,-1.98219 -0.66353,-0.7092 -1.69192,-0.7092 -1.04738,0 -1.72036,0.7092 -0.66825,0.70921 -0.66825,1.98219 0,1.26841 0.66825,1.98219 0.66822,0.70921 1.70138,0.70921 z m -7.06238,0.75466 q -1.473921,0 -2.35541,-0.92743 -0.876761,-0.93198 -0.876761,-2.51863 0,-1.58665 0.876761,-2.51409 0.881489,-0.932 2.35541,-0.932 1.13268,0 1.92887,0.58649 0.79618,0.58647 0.8957,1.54573 h -0.94785 q -0.0567,-0.63195 -0.57342,-1.00472 -0.51185,-0.3728 -1.29384,-0.3728 -1.05684,0 -1.672945,0.70011 -0.616106,0.69557 -0.616106,1.99128 0,1.29114 0.611378,1.99125 0.611343,0.70015 1.658723,0.70015 0.81516,0 1.31752,-0.3819 0.50236,-0.3819 0.56869,-1.09111 h 0.94785 q -0.0995,1.06381 -0.872,1.64574 -0.7725,0.58193 -1.95257,0.58193 z m -5.75924,-2.8414 -1.222723,-3.09149 -1.165851,3.09149 z m 2.113702,2.72776 h -1.037891 l -0.80567,-2.02765 h -2.909482 l -0.767744,2.02765 h -0.971558 l 2.668206,-6.66484 h 0.990505 z m 25.34612,-17.52031 -0.45658,2.34028 c 0.90452,-0.10501 2.46163,-0.28274 2.71909,-0.26545 0.67869,0.0163 0.81732,1.27731 -0.16044,1.58678 -0.23284,0.0763 -0.59912,0.0832 -1.14097,0.0515 -0.44409,-0.0326 -1.45368,-0.006 -1.73703,0.0196 -0.0845,0.61852 -0.12619,2.07362 -0.10109,2.95436 -0.28078,0.15849 -0.96422,0.16632 -1.394214,-0.01 0,0 0.338684,-2.20501 0.457804,-2.91986 -0.794836,0.0408 -1.826166,0.20284 -2.365776,0.3295 0.0568,-0.54078 0.137621,-0.79775 0.297741,-0.97094 0.150659,-0.16305 1.631821,-0.52509 2.289005,-0.68185 0.15001,-0.83606 0.2361,-1.27836 0.46424,-2.47268 -0.42765,-0.11524 -2.015245,-0.40917 -2.919366,-1.95238 -0.29056,-0.3909 -0.8421,-1.59771 -0.50187,-3.15597 0.11837,-0.54172 0.640199,-2.59723 2.870216,-3.47808 0.27524,-0.10879 0.83422,-0.24494 1.03822,-0.27859 0.72691,-0.11981 1.75271,-0.16306 2.70866,0.4442 0.37628,0.27165 0.9782,0.9287 0.4538,0.90971 -0.55284,-0.14329 -1.02233,-0.5439 -1.61313,-0.60435 -0.98092,-0.1714 -1.99572,0.10751 -2.83202,0.6134 -0.975373,0.59006 -1.691653,1.93498 -1.555313,3.10848 0.167939,1.12331 0.634921,1.99603 1.601263,2.4955 1.3004,0.62305 3.67958,0.002 4.82639,-0.93894 0.94404,-0.77451 1.17707,-1.56314 1.21871,-2.68577 0.0417,-1.12629 -0.36574,-2.35103 -1.12159,-3.22932 0.55744,-0.4023 1.11485,-0.8046 1.67229,-1.20689 0.93054,1.68909 1.48713,3.76958 1.06832,5.6349 -0.286,1.27382 -0.89033,2.28551 -2.03684,3.05526 -1.02925,0.69102 -2.53053,1.06396 -3.74954,1.30654 z" />
  </g>
</svg>
