<?xml version="1.0" encoding="UTF-8" standalone="no"?>
<!-- Created with Inkscape (http://www.inkscape.org/) -->

<svg
   xmlns:dc="http://purl.org/dc/elements/1.1/"
   xmlns:cc="http://creativecommons.org/ns#"
   xmlns:rdf="http://www.w3.org/1999/02/22-rdf-syntax-ns#"
   xmlns:svg="http://www.w3.org/2000/svg"
   xmlns="http://www.w3.org/2000/svg"
   xmlns:sodipodi="http://sodipodi.sourceforge.net/DTD/sodipodi-0.dtd"
   xmlns:inkscape="http://www.inkscape.org/namespaces/inkscape"
   width="50.093296mm"
   height="50mm"
   viewBox="0 0 50.093296 50"
   version="1.1"
   id="svg2009"
   inkscape:version="0.92.4 (5da689c313, 2019-01-14)"
   sodipodi:docname="agamdech.svg">
  <defs
     id="defs2003" />
  <sodipodi:namedview
     id="base"
     pagecolor="#ffffff"
     bordercolor="#666666"
     borderopacity="1.0"
     inkscape:pageopacity="0.0"
     inkscape:pageshadow="2"
     inkscape:zoom="2.1053581"
     inkscape:cx="-101.84816"
     inkscape:cy="113.21227"
     inkscape:document-units="mm"
     inkscape:current-layer="layer1"
     showgrid="false"
     fit-margin-top="0"
     fit-margin-left="0"
     fit-margin-right="0"
     fit-margin-bottom="0"
     inkscape:window-width="1920"
     inkscape:window-height="971"
     inkscape:window-x="0"
     inkscape:window-y="31"
     inkscape:window-maximized="1" />
  <metadata
     id="metadata2006">
    <rdf:RDF>
      <cc:Work
         rdf:about="">
        <dc:format>image/svg+xml</dc:format>
        <dc:type
           rdf:resource="http://purl.org/dc/dcmitype/StillImage" />
        <dc:title></dc:title>
      </cc:Work>
    </rdf:RDF>
  </metadata>
  <g
     inkscape:label="Layer 1"
     inkscape:groupmode="layer"
     id="layer1"
     transform="translate(-250.12002,-33.789358)">
    <path
       inkscape:connector-curvature="0"
       id="path1911"
       d="m 254.1946,33.962048 h 16.8275 c 2.27542,0 3.99521,1.669786 3.99521,4.013994 v 16.430626 c 0,1.984375 -1.71979,3.995208 -3.99521,3.995208 h -16.8275 c -1.98702,0 -3.98753,-2.010833 -3.98753,-3.995208 V 37.976042 c 0,-2.344208 2.00051,-4.013994 3.98753,-4.013994 z"
       style="opacity:1;fill:none;fill-opacity:1;stroke:#000000;stroke-width:0.17409582;stroke-linecap:round;stroke-linejoin:round;stroke-miterlimit:4;stroke-dasharray:none;stroke-dashoffset:0;stroke-opacity:1" />
    <path
       inkscape:connector-curvature="0"
       id="path1913"
       d="m 254.90898,34.293042 h 15.68979 c 2.40771,0 4.02166,1.680104 4.02166,3.683 v 16.430626 c 0,1.984375 -1.61395,3.677708 -4.02166,3.677708 h -15.68979 c -2.40242,0 -4.40267,-1.693333 -4.40267,-3.677708 V 37.976042 c 0,-2.002896 2.00025,-3.683 4.40267,-3.683 z"
       style="opacity:1;fill:#df0126;fill-opacity:1;stroke:none;stroke-width:0.17806458;stroke-linecap:round;stroke-linejoin:round;stroke-miterlimit:4;stroke-dasharray:none;stroke-dashoffset:0;stroke-opacity:1" />
    <path
       inkscape:connector-curvature="0"
       id="path1915"
       d="m 254.1946,58.692918 h 16.8275 c 2.27542,0 3.99521,2.169583 3.99521,4.28625 v 16.139583 c 0,2.910417 -1.71979,4.497917 -3.99521,4.497917 h -16.8275 c -1.98702,0 -3.98753,-1.5875 -3.98753,-4.497917 V 62.979168 c 0,-2.116667 2.00051,-4.28625 3.98753,-4.28625 z"
       style="opacity:1;fill:none;fill-opacity:1;stroke:#000000;stroke-width:0.17409582;stroke-linecap:round;stroke-linejoin:round;stroke-miterlimit:4;stroke-dasharray:none;stroke-dashoffset:0;stroke-opacity:1" />
    <path
       inkscape:connector-curvature="0"
       id="path1917"
       d="m 254.90898,59.089793 h 15.68979 c 2.40771,0 4.02166,2.037291 4.02166,4.418541 v 15.610417 c 0,2.38125 -1.61395,4.497917 -4.02166,4.497917 h -15.68979 c -2.40242,0 -4.40267,-2.116667 -4.40267,-4.497917 V 63.508334 c 0,-2.38125 2.00025,-4.418541 4.40267,-4.418541 z"
       style="opacity:1;fill:#f8f300;fill-opacity:1;stroke:none;stroke-width:0.17806458;stroke-linecap:round;stroke-linejoin:round;stroke-miterlimit:4;stroke-dasharray:none;stroke-dashoffset:0;stroke-opacity:1" />
    <path
       inkscape:connector-curvature="0"
       id="path1919"
       d="m 279.22418,33.962048 h 16.66875 c 2.11667,0 4.23334,1.669786 4.23334,4.013994 v 16.430626 c 0,1.984375 -2.11667,3.995208 -4.23334,3.995208 h -16.66875 c -2.11666,0 -4.20687,-2.010833 -4.20687,-3.995208 V 37.976042 c 0,-2.344208 2.09021,-4.013994 4.20687,-4.013994 z"
       style="opacity:1;fill:none;fill-opacity:1;stroke:#000000;stroke-width:0.17409582;stroke-linecap:round;stroke-linejoin:round;stroke-miterlimit:4;stroke-dasharray:none;stroke-dashoffset:0;stroke-opacity:1" />
    <path
       inkscape:connector-curvature="0"
       id="path1921"
       d="m 279.75335,34.293042 h 15.61042 c 2.38125,0 4.23333,1.680104 4.23333,3.683 v 16.430626 c 0,1.984375 -1.85208,3.677708 -4.23333,3.677708 h -15.61042 c -2.38125,0 -4.15396,-1.693333 -4.15396,-3.677708 V 37.976042 c 0,-2.002896 1.77271,-3.683 4.15396,-3.683 z"
       style="opacity:1;fill:#0000fd;fill-opacity:1;stroke:none;stroke-width:0.17806458;stroke-linecap:round;stroke-linejoin:round;stroke-miterlimit:4;stroke-dasharray:none;stroke-dashoffset:0;stroke-opacity:1" />
    <path
       inkscape:connector-curvature="0"
       id="path1923"
       d="m 279.22418,58.692918 h 16.66875 c 2.11667,0 4.23334,2.169583 4.23334,4.28625 v 16.139583 c 0,2.910417 -2.11667,4.497917 -4.23334,4.497917 h -16.66875 c -2.11666,0 -4.20687,-1.5875 -4.20687,-4.497917 V 62.979168 c 0,-2.116667 2.09021,-4.28625 4.20687,-4.28625 z"
       style="opacity:1;fill:none;fill-opacity:1;stroke:#000000;stroke-width:0.17409582;stroke-linecap:round;stroke-linejoin:round;stroke-miterlimit:4;stroke-dasharray:none;stroke-dashoffset:0;stroke-opacity:1" />
    <path
       inkscape:connector-curvature="0"
       id="path1925"
       d="m 279.75335,59.089793 h 15.61042 c 2.38125,0 4.23333,2.037291 4.23333,4.418541 v 15.610417 c 0,2.38125 -1.85208,4.497917 -4.23333,4.497917 h -15.61042 c -2.38125,0 -4.15396,-2.116667 -4.15396,-4.497917 V 63.508334 c 0,-2.38125 1.77271,-4.418541 4.15396,-4.418541 z"
       style="opacity:1;fill:#01a03c;fill-opacity:1;stroke:none;stroke-width:0.17806458;stroke-linecap:round;stroke-linejoin:round;stroke-miterlimit:4;stroke-dasharray:none;stroke-dashoffset:0;stroke-opacity:1" />
    <path
       id="path1927"
       d="m 252.50656,35.631834 a 0.30427083,0.30427083 0 0 0 -0.29898,0 c -0.70115,0.341312 0,1.021292 0,1.338792 0,0.343958 0.29898,0.661458 0.61119,0.661458 0,0.687917 0,1.666875 0,2.354792 0.39687,0.3175 0.39687,0.3175 0,0.714375 0,0 0,0.291041 -0.31221,0.978958 a 0.30427083,0.30427083 0 0 0 0,0.3175 c 0.31221,0 0.31221,0 0.70908,0 0.29104,0 0.29104,0 0.58209,0 0,-0.3175 0.39687,-1.005417 1.11125,-1.005417 0,0 0.29104,0 0.60854,0 0,0 0,0 0,0 0,0 0,0 0,0.687917 0,0 0,0 0,0 -0.3175,0.3175 -0.3175,0.3175 -0.60854,0.3175 0,0.291042 -0.71438,0.291042 -0.71438,0.687917 0,0 0,0.3175 0.71438,0.714375 v 0 c 0.29104,0 0.29104,0.291041 0,0.291041 0,0.714376 0,0.714376 -0.71438,1.005417 v 0 c -0.39687,0.291042 -0.39687,0.687917 -0.39687,1.005417 0,0.291042 0.39687,0.978958 1.11125,1.296458 0,0 0.29104,0 0.29104,0.396875 0,0 0,0 0,0.291042 0,0 0,0 0.3175,0.3175 0,0 0,0.396875 0.39687,0.396875 v 0 c 0.29104,1.005417 1.00542,1.296458 1.5875,1.693333 a 0.30427083,0.30427083 0 0 0 0.39688,0 c 0,0 0.3175,0.291042 0.60854,0.291042 0.39687,0.3175 0.68792,0.3175 0.68792,0.3175 0.3175,0.396875 0.3175,0 1.00541,0 0.3175,0 0.3175,0.396875 0.71438,0 0,0 0.29104,0 0.29104,0 0.39687,0 0.71437,-0.3175 0.71437,0 0.97896,0 0.97896,0.687917 1.29646,1.693333 -0.3175,0 -0.3175,0.291042 0,0.608542 0,0.396875 0,0.687917 0.39688,1.402292 0.29104,0.291041 0.58208,0.978958 1.00541,1.296458 -0.71437,1.402292 -1.71979,1.984375 -3.01625,2.69875 -0.68791,0.291042 -1.40229,0.291042 -2.69875,0.291042 -0.68791,0.396875 -1.00541,1.005416 -1.40229,1.402291 a 0.33602083,0.33602083 0 0 0 -0.58208,0 c 0,0.767292 0,1.296459 -0.42333,2.090209 a 0.30427083,0.30427083 0 0 0 -0.29105,0 c 0,0.529166 0,1.322916 0.29105,1.852083 0,1.058333 0.42333,1.852083 0.42333,2.38125 0.58208,0.264583 0.58208,1.058333 0,1.058333 0,0.264584 0,0.529167 -0.42333,1.058334 v 0 c -0.29105,1.322916 -0.29105,2.38125 -0.97896,2.910416 a 0.30427083,0.30427083 0 0 0 0,0.264584 c 0,1.5875 -0.3175,2.38125 -0.60854,3.704166 a 0.30427083,0.30427083 0 0 0 0,0.264584 c 0.29104,0.529166 0.29104,0.79375 0,1.852083 0,0.264583 0,1.058333 0.29104,1.322917 0.71437,1.322916 1.71979,2.38125 3.01625,3.175 a 0.30427083,0.30427083 0 0 0 0.29104,0 c 0,-1.5875 0.68792,-3.439584 0.39687,-5.291667 v 0 c 0.29105,-0.264583 0.29105,-1.058333 0.29105,-1.5875 0,-0.529167 0,-1.058333 0.3175,-1.5875 0,0 0.68791,0.264583 0.68791,0.264583 0,0 0.3175,0 0.3175,0 0,0 0,0 0,0 0.39688,0.264584 0.68792,0.264584 1.08479,0.264584 0.3175,0.529166 0.3175,0.529166 1.00542,0.529166 0.29104,0.529167 0.60854,0.79375 1.00542,1.058334 0.58208,0 1.00541,-0.264584 1.00541,-0.529167 0.68792,-0.529167 0.68792,-1.058333 0.68792,-1.322917 v 0.264584 c 0,-0.264584 0.29104,-0.529167 0.29104,-0.529167 0.3175,0 0.3175,-0.264583 0.71438,0 0,0.264583 0.29104,0.264583 0.29104,0.529167 0.3175,0 0.3175,0.529166 0.71437,1.058333 0,0.264583 0,0.264583 0.58209,0.264583 0,0.264584 0.39687,0.264584 0.39687,0 0.3175,0 0.3175,0 0.60854,0 0,0 0,0 0,0 v 0 c 0.39688,0.264584 0.71438,0.79375 1.4023,0.79375 0.29104,0 0.71437,0 1.29645,0 h -0.29104 c 0.29104,0 0.29104,0.264584 0.68792,0 0.3175,0 0.3175,0 0.3175,-0.529166 0.68792,0 0.68792,-0.264584 0,-0.529167 0.68792,-0.529167 0.68792,-1.322917 0.68792,-1.5875 0,0 0,-0.264583 0,-0.264583 0,0 0,0 0,0 0.29104,0 0.29104,0 0.60854,0 0,0 0,0 0.39687,0 0,0 0,0 0,0 0.29104,0.264583 0.60854,0.264583 0.60854,0.264583 0,0 0,0.264583 0.39688,0.529167 7.91104,0 15.31937,0 22.99229,0 a 0.37570833,0.37570833 0 0 0 0.52917,-0.264584 c 0,-1.322916 0,-3.439583 0,-5.027083 -0.52917,-0.79375 0.52916,-1.322917 0.79375,-2.38125 a 0.30427083,0.30427083 0 0 0 0,-0.264583 c -5.02709,0 -9.78959,0 -14.2875,0 a 0.30427083,0.30427083 0 0 0 -0.26459,0 c 0,0 0,0 0,0 0,-0.264584 -0.52916,-0.264584 -0.52916,-0.264584 0,-0.529166 0,-0.79375 -0.26459,-0.79375 0,-0.264583 -0.26458,-0.264583 -0.26458,-0.264583 a 0.30427083,0.30427083 0 0 0 -0.52917,0 c 0,0.264583 -0.26458,0.264583 -0.26458,0.264583 -0.52917,0.264584 -0.79375,0.264584 -0.79375,0.264584 a 0.37417828,0.37417828 0 0 0 -0.52917,0.529166 c 0,0 0,0 0,0 0,0 0,0 -0.26458,0 -0.26458,0 -0.52917,0 -1.32292,0 v 0 c 0,0 0,0 0,0 -0.26458,0 -0.26458,-0.529166 -0.26458,-0.529166 0,-0.264584 0,-0.529167 0,-1.322917 v 0 c -0.52917,-1.322917 0,-3.175 -0.52917,-4.947708 -0.26458,-1.005417 -0.26458,-2.69875 -0.26458,-3.995209 0,-2.69875 -0.52917,-5.3975 -0.26458,-7.699375 v 0 c 0.26458,-0.396875 0.26458,-1.402291 0,-1.693333 0,0 0,-0.3175 -0.26459,-0.3175 0,0 -0.52916,0 -1.05833,0 -0.26458,0 -0.79375,0 -1.05833,0.3175 0,0.291042 -0.29104,0.978958 -0.29104,1.296458 0,0 0,0.396875 0,0.396875 0,0 -0.42334,0 -0.42334,0 0,0 -0.58208,0 -0.58208,0 0,0 0,0 0,-0.396875 -0.39688,-0.3175 -0.39688,-1.005416 -0.39688,-1.296458 0,0 0,-0.3175 -0.3175,-0.3175 0,-0.396875 -0.29104,-0.396875 -0.29104,-0.396875 0,-0.291042 -0.39687,-0.291042 -0.39687,-0.582083 -0.3175,0 -0.3175,0 -0.3175,0 -0.29104,0 -0.29104,0 -0.29104,0 0,0 0,0 0,0 v 0 c 0,-0.714376 -0.68792,-1.005417 -0.68792,-1.005417 0,-0.396875 -0.3175,-0.396875 -0.3175,-0.396875 -0.39688,-0.3175 -0.39688,-0.3175 -0.39688,-0.3175 -0.29104,-0.396875 -0.29104,-0.396875 -0.29104,-0.396875 a 0.30427083,0.30427083 0 0 0 0,-0.291042 c 0,0 0,-0.3175 0,-0.3175 0,-0.687917 0,-0.978958 -0.29104,-1.375833 -0.42333,-0.3175 -0.42333,-0.608542 -0.71437,-0.608542 -0.68792,-0.396875 -0.68792,-0.396875 -1.00542,-0.396875 0,0.396875 -0.39688,0.396875 -0.39688,0.687917 v 0 c -0.29104,0 -0.60854,0.3175 -0.60854,0.3175 -0.39687,0 -0.97896,0 -0.97896,-0.3175 -0.71437,-0.291042 -0.71437,-0.687917 -1.00541,-1.005417 v 0 c -0.39688,-0.661458 -0.39688,-0.661458 -0.71438,-0.661458 0,0 -0.29104,-0.343959 -0.29104,-0.343959 0,0 -0.68792,0 -0.68792,0 0,0 0,0 0,0 a 0.30427083,0.30427083 0 0 0 -0.42333,-0.343958 c -0.58208,0 -1.5875,0.343958 -2.59292,0.687917 0,0 0,0 0,0 -0.39687,0 -0.68791,0.661458 -0.68791,0.978958 0,0.396875 -0.39688,0.396875 -0.39688,0.687917 0,0 -0.3175,0 -0.3175,-0.291042 -0.68791,0 -0.68791,0 -1.00541,0 0,-0.396875 -0.29105,0 -0.68792,0 v 0 c 0,0 0,0 0,0 0,0 0,0 0,0 0,0 0,-0.396875 0,-0.396875 0,0 0,-0.3175 0,-0.978958 0,0 -0.29104,-0.343959 -0.60854,-0.343959 h 0.3175 c -0.3175,-0.343958 -0.3175,-0.343958 -0.71438,-0.661458 0,0 0,0 -0.58208,-0.343958 a 0.30427083,0.30427083 0 0 0 -0.42333,0 c 0,0 0,0 -0.29105,0 0,0 -0.29104,-0.3175 -0.68791,-0.3175 h 0.39687 c -0.39687,0 -0.39687,0 -0.71437,-0.67998 0,0 -0.29104,0.67998 -0.29104,0.67998 -0.71438,0 -0.71438,0 -0.71438,0 0,0 0,0 -0.39687,0 a 0.3413125,0.3413125 0 0 0 0,-0.67998 c -0.29105,0 -0.97896,-0.341312 -1.29117,-0.341312 z"
       style="color:#000000;font-style:normal;font-variant:normal;font-weight:normal;font-stretch:normal;font-size:medium;line-height:normal;font-family:sans-serif;font-variant-ligatures:normal;font-variant-position:normal;font-variant-caps:normal;font-variant-numeric:normal;font-variant-alternates:normal;font-feature-settings:normal;text-indent:0;text-align:start;text-decoration:none;text-decoration-line:none;text-decoration-style:solid;text-decoration-color:#000000;letter-spacing:normal;word-spacing:normal;text-transform:none;writing-mode:lr-tb;direction:ltr;text-orientation:mixed;dominant-baseline:auto;baseline-shift:baseline;text-anchor:start;white-space:normal;shape-padding:0;clip-rule:nonzero;display:inline;overflow:visible;visibility:visible;opacity:1;isolation:auto;mix-blend-mode:normal;color-interpolation:sRGB;color-interpolation-filters:linearRGB;solid-color:#000000;solid-opacity:1;vector-effect:none;fill:#ffffff;fill-opacity:0.78399999;fill-rule:nonzero;stroke:none;stroke-width:0.61303955;stroke-linecap:round;stroke-linejoin:round;stroke-miterlimit:4;stroke-dasharray:none;stroke-dashoffset:0;stroke-opacity:1;color-rendering:auto;image-rendering:auto;shape-rendering:auto;text-rendering:auto;enable-background:accumulate"
       inkscape:connector-curvature="0" />
    <path
       id="path1929"
       d="m 252.50656,35.973146 c 0.31221,0.67998 0.70908,0.67998 1.29117,0.67998 h -0.29105 c 0.29105,0.3175 0.29105,0.3175 0.68792,0.3175 0,0 0,0 0.71438,0 0,0 0.29104,0 0.29104,0 0,0 0.3175,0 0.3175,0 0.39687,0 0.39687,0.343958 0.68791,0.343958 0,0 0.29105,0 0.71438,0 0,0 0,0.3175 0.58208,0.3175 0,0.343958 0,0.343958 0.39688,0.687917 0,0 0.3175,0 0.3175,0.661458 0,0 0,0.3175 0,0.3175 0,0.396875 0,0.396875 0,0.396875 0,0.291042 0,0.291042 0.29104,0.291042 0,0 0,0 0.39687,0 0,0 0,0 0.29105,0 0,0 0.3175,0 0.3175,0 0.68791,0.3175 0.68791,0.3175 1.00541,0.3175 a 0.200025,0.200025 0 0 0 0.39688,0 c 0,-0.3175 0,-0.3175 0.29104,-0.608542 0,-0.396875 0.39687,-0.714375 0.71437,-0.714375 0.68792,-0.661458 1.69334,-1.005417 2.27542,-1.005417 0,0.343959 0,0.343959 0,0.343959 0.42333,0 0.42333,0.661458 1.11125,0.661458 0,0 0.29104,0 0.29104,0 0,0 0.3175,0 0.3175,0 0.39688,0.3175 0.39688,1.005417 1.00542,1.322917 0.39687,0.396875 0.97896,0.396875 1.37583,0.396875 0.3175,0 0.60854,-0.396875 0.60854,-0.714375 0.39688,0 0.39688,0 0.39688,0 0.3175,-0.291042 0.3175,-0.291042 0.3175,0 0.68792,0 0.68792,0.3175 0.97896,0.714375 0,0 0,0.291041 0,0.978958 0,0 0.42333,0.3175 0.42333,0.608542 0,0 0,0 0,0 0,0.396875 0,0.396875 0.29104,0.714375 0,0 0.29104,0 0.29104,0.396875 0,0 0.39688,0 0.39688,0 0,0.291041 0.3175,0.291041 0,1.005417 0,0 0.3175,0.291041 0.3175,0.291041 0.68792,0 0.68792,0 0.68792,0 0.29104,0 0.29104,0 0.60854,0.291042 0,0 0,0 0,0 0.39687,0.396875 0.39687,0.396875 0.39687,0.396875 0.29104,0.3175 0.29104,0.3175 0.29104,0.608542 0,0 0,1.005416 0.3175,1.402291 v -0.396875 c 0,0.396875 0,0.687917 0,0.687917 0.39688,0.3175 0.39688,0.3175 0.97896,0.3175 0.42334,-0.3175 0.42334,-0.3175 0.71438,-0.3175 0,-0.291042 0.26458,-0.291042 0,-0.687917 v 0 c 0,-0.3175 0.26458,-1.005416 0.26458,-1.005416 0.52917,-0.291042 0.52917,-0.291042 0.79375,-0.291042 0.52917,0 1.05833,0 1.05833,0 0,0 0,0 0,0.291042 0.26459,0 0,0.687916 0,1.005416 -0.52916,2.69875 0,5.3975 0.26459,8.09625 0,1.296459 0,2.989792 0,3.995209 0.26458,1.772708 0.26458,3.624791 0.52916,4.947708 0,0.79375 0,1.058333 0,1.322917 0,0.529166 0,0.529166 0.52917,0.79375 0,0 0,0 0.26458,0 0.79375,0 1.05834,0 1.32292,0 0,0.264583 0.26458,0.264583 0.26458,0 0.52917,0 0.52917,0 0.52917,-0.264584 v 0 c 0.26458,0 0.79375,0 0.79375,-0.529166 0.26458,0 0.26458,0 0.79375,-0.264584 0,0 0,0 0.26458,0 0,0.264584 0,0.264584 0,0.79375 0,0 0,0.264584 0.26459,0.264584 0,0.264583 0.52916,0.264583 0.79375,0.264583 h -0.26459 c 4.7625,0 9.525,0 14.2875,0 -0.52916,1.058333 -1.32291,1.5875 -1.05833,2.38125 v 0 c 0,1.5875 0,3.704167 0,5.027083 -7.67292,0 -15.08125,0 -22.41021,0 -0.58208,-0.264583 -0.58208,-0.264583 -0.97896,-0.529166 0,0 -0.3175,0 -0.3175,0 v 0 c 0,-0.529167 -0.29104,-0.529167 -0.29104,-0.529167 -0.39687,0 -0.39687,0 -0.39687,0 -0.3175,0 -0.3175,0 -0.3175,0 -0.29104,0 -0.29104,0 -0.29104,-0.264583 a 0.34925,0.34925 0 0 0 -0.68792,0 c 0,0.264583 0,1.058333 0,1.322916 0,0.264584 0,0.79375 0,0.79375 a 0.3889375,0.3889375 0 0 0 -0.3175,0.529167 c 0.3175,0 0.3175,0.264583 0,0.529167 0,0 0,0 0,0 -0.39688,0.529166 -0.39688,0.529166 -0.39688,0 a 0.19102917,0.19102917 0 0 0 -0.29104,0 c -0.29104,0 -0.71437,0 -1.00541,0 -0.68792,0 -0.68792,0 -1.00542,-0.264584 -0.39688,-0.264583 -0.39688,-0.264583 -0.39688,-0.264583 -0.29104,0 -0.29104,0 -0.60854,0 0,0.264583 -0.39687,0.264583 -0.39687,0 0,0 0,0 0,0 -0.58209,-0.529167 -0.58209,-1.058333 -0.97896,-1.322917 -0.3175,-0.264583 -0.3175,-0.264583 -0.60854,-0.529166 -0.39688,-0.529167 -0.71438,0 -1.00542,0 0,0.264583 -0.68792,0.264583 -0.68792,0.529166 0,0.264584 0,0.79375 -0.42333,1.322917 0,0 -0.29104,0.264583 -0.58208,0.264583 -0.39688,-0.264583 -0.71438,-0.79375 -0.71438,-1.322916 a 0.19393958,0.19393958 0 0 0 -0.29104,0 c 0,0 -0.68792,0 -1.00542,-0.264584 -0.39687,0 -0.39687,0 -0.68791,-0.264583 v 0 c 0,0 0,0 -0.39688,0 0,0 -0.3175,0 -0.3175,0 -0.68791,0 -0.68791,0 -1.00541,-0.264583 -0.29105,0.529166 -0.29105,1.322916 -0.29105,1.852083 0,0.529167 0,1.322917 -0.39687,1.5875 0.39687,1.852083 0,3.439583 -0.29104,4.7625 -1.29646,-0.529167 -2.01084,-2.116667 -2.69875,-2.645833 -0.3175,-0.529167 -0.3175,-1.058334 -0.3175,-1.322917 0.3175,-1.058333 0.3175,-1.322917 0,-1.852083 0.3175,-1.5875 0.71437,-2.38125 0.71437,-3.96875 0.58209,-0.79375 0.58209,-1.852084 1.00542,-2.910417 0,-0.264583 0.58208,-0.79375 0.58208,-1.058333 0.39688,-0.264584 0.39688,-1.058334 0,-1.322917 v 0 c 0,-0.529167 -0.58208,-1.322917 -0.58208,-2.38125 -0.42333,-0.529167 -0.42333,-1.322917 -0.42333,-1.852083 v 0.264583 c 1.00541,-1.058333 1.00541,-1.5875 1.00541,-2.116667 0.71438,-0.238125 1.00542,-0.635 1.40229,-0.635 1.29646,-0.608541 2.30188,-0.608541 3.01625,-1.005416 1.29646,-0.608542 2.27542,-1.5875 3.38667,-2.989792 -0.68792,-0.608542 -1.11125,-1.005417 -1.40229,-2.010833 -0.29104,-0.291042 -0.29104,-0.291042 -0.29104,-0.687917 -0.39688,-0.3175 -0.39688,-0.608542 0,-0.899583 -0.39688,-0.714375 -0.39688,-1.402292 -1.00542,-1.719792 -0.68792,-0.291042 -1.00542,0 -1.40229,0 -0.29104,0 -0.29104,0 -0.68792,0 0,0.3175 0,0.3175 -0.3175,0 -0.68791,0.3175 -0.68791,0.3175 -1.00541,0 0,0 0,0 -0.29105,0 -0.39687,-0.291042 -0.68791,-0.687917 -1.00541,-0.687917 -0.97896,-0.291041 -1.69334,-1.005416 -1.98438,-1.693333 0,0 0,0 -0.39687,-0.3175 0,0 0,0 0,-0.291042 0,0 0,0 0,-0.396875 -0.3175,0 -0.3175,-0.3175 -0.60854,-0.3175 v 0 c 0,0 -0.71438,-0.687916 -0.71438,-0.978958 0,-0.3175 0,-0.714375 0.71438,-0.714375 0,-0.291042 0.29104,-0.582083 0.29104,-0.582083 0.3175,-0.714376 0.3175,-1.005417 0,-1.402292 -0.29104,0 -0.29104,-0.3175 -0.29104,-0.3175 0,0 0.29104,0 0.29104,-0.396875 0,0 0.3175,0 0.3175,-0.291042 0.39687,0 0.39687,0 0.39687,-0.3175 0,-0.687917 0,-0.687917 0,-0.687917 0,-0.291041 -0.39687,-0.291041 -0.39687,-0.291041 -0.3175,0 -0.60854,0 -1.32292,0 0,0.291041 -0.39687,0.291041 -0.68792,0.978958 0,0 -0.29104,0 -0.29104,0 0,0 -0.39687,0 -0.39687,0 0.39687,0 0.39687,-0.687917 0.39687,-0.978958 0.29104,0 0.29104,-0.396875 0,-0.714375 v 0 c 0,-0.687917 0,-1.666875 0,-2.354792 -0.39687,-0.3175 -0.70908,-0.3175 -0.70908,-0.661458 0,-0.3175 0,-0.3175 0,-0.99748 z"
       style="color:#000000;font-style:normal;font-variant:normal;font-weight:normal;font-stretch:normal;font-size:medium;line-height:normal;font-family:sans-serif;font-variant-ligatures:normal;font-variant-position:normal;font-variant-caps:normal;font-variant-numeric:normal;font-variant-alternates:normal;font-feature-settings:normal;text-indent:0;text-align:start;text-decoration:none;text-decoration-line:none;text-decoration-style:solid;text-decoration-color:#000000;letter-spacing:normal;word-spacing:normal;text-transform:none;writing-mode:lr-tb;direction:ltr;text-orientation:mixed;dominant-baseline:auto;baseline-shift:baseline;text-anchor:start;white-space:normal;shape-padding:0;clip-rule:nonzero;display:inline;overflow:visible;visibility:visible;opacity:1;isolation:auto;mix-blend-mode:normal;color-interpolation:sRGB;color-interpolation-filters:linearRGB;solid-color:#000000;solid-opacity:1;vector-effect:none;fill:none;fill-opacity:1;fill-rule:nonzero;stroke:#d40000;stroke-width:0.2079625;stroke-linecap:round;stroke-linejoin:round;stroke-miterlimit:4;stroke-dasharray:none;stroke-dashoffset:0;stroke-opacity:1;color-rendering:auto;image-rendering:auto;shape-rendering:auto;text-rendering:auto;enable-background:accumulate"
       inkscape:connector-curvature="0" />
    <path
       d="m 259.19523,68.800001 h -2.69875 l -0.29105,1.058333 h -1.69333 l 2.40771,-7.14375 h 1.98437 l 2.69875,7.14375 h -2.0902 z m -0.29105,-1.5875 -0.68791,-2.116667 v 0 l -0.71438,2.116667 z"
       style="font-style:normal;font-variant:normal;font-weight:bold;font-stretch:normal;font-size:2.47099996px;line-height:1.25;font-family:'Futura LT';-inkscape-font-specification:'Futura LT, Bold';font-variant-ligatures:normal;font-variant-caps:normal;font-variant-numeric:normal;font-feature-settings:normal;text-align:start;letter-spacing:0px;word-spacing:0px;writing-mode:lr-tb;text-anchor:start;fill:#f32e36;fill-opacity:1;stroke:none;stroke-width:0.71014166"
       id="path1931"
       inkscape:connector-curvature="0" />
    <path
       d="m 261.92043,69.858334 0.97896,-7.14375 h 1.71979 l 1.69334,3.96875 1.29646,-3.96875 h 1.29645 l 1.4023,7.14375 h -2.01084 l -0.39687,-3.96875 v 0 l -1.5875,3.96875 h -0.39688 l -2.01083,-3.96875 v 0 l -0.29104,3.96875 z"
       style="font-style:normal;font-variant:normal;font-weight:bold;font-stretch:normal;font-size:2.47099996px;line-height:1.25;font-family:'Futura LT';-inkscape-font-specification:'Futura LT, Bold';font-variant-ligatures:normal;font-variant-caps:normal;font-variant-numeric:normal;font-feature-settings:normal;text-align:start;letter-spacing:0px;word-spacing:0px;writing-mode:lr-tb;text-anchor:start;fill:#f32e36;fill-opacity:1;stroke:none;stroke-width:0.71014166"
       id="path1933"
       inkscape:connector-curvature="0" />
    <path
       d="m 271.0221,69.858334 v -7.14375 h 2.59292 q 1.40229,0 2.40771,0.79375 1.08479,1.322917 1.08479,2.645834 0,1.5875 -1.08479,2.910416 -1.00542,0.79375 -2.40771,0.79375 z m 1.5875,-5.820833 v 3.96875 h 0.39688 q 1.00541,0 1.61395,-0.264583 0.68792,-0.264584 0.68792,-1.5875 0,-0.79375 -0.68792,-1.322917 -0.3175,-0.79375 -1.61395,-0.79375 z"
       style="font-style:normal;font-variant:normal;font-weight:bold;font-stretch:normal;font-size:2.47099996px;line-height:1.25;font-family:'Futura LT';-inkscape-font-specification:'Futura LT, Bold';font-variant-ligatures:normal;font-variant-caps:normal;font-variant-numeric:normal;font-feature-settings:normal;text-align:start;letter-spacing:0px;word-spacing:0px;writing-mode:lr-tb;text-anchor:start;fill:#f32e36;fill-opacity:1;stroke:none;stroke-width:0.71014166"
       id="path1935"
       inkscape:connector-curvature="0" />
    <path
       d="m 281.60543,64.037501 h -1.85208 v 1.322917 h 1.85208 v 1.852083 h -1.85208 v 0.79375 h 1.85208 v 1.852083 h -3.70416 v -7.14375 h 3.70416 z"
       style="font-style:normal;font-variant:normal;font-weight:bold;font-stretch:normal;font-size:2.47099996px;line-height:1.25;font-family:'Futura LT';-inkscape-font-specification:'Futura LT, Bold';font-variant-ligatures:normal;font-variant-caps:normal;font-variant-numeric:normal;font-feature-settings:normal;text-align:start;letter-spacing:0px;word-spacing:0px;writing-mode:lr-tb;text-anchor:start;fill:#f32e36;fill-opacity:1;stroke:none;stroke-width:0.71014166"
       id="path1937"
       inkscape:connector-curvature="0" />
    <path
       d="m 287.69085,62.714584 v 2.38125 q -0.26458,-0.264583 -0.79375,-0.264583 -0.26458,-0.79375 -0.79375,-0.79375 -1.05833,0 -1.32292,0.79375 -0.52916,0.529167 -0.52916,1.322917 0,1.058333 0.52916,1.5875 0.26459,0.264583 1.5875,0.264583 0.26459,0 0.52917,0 0.52917,-0.264583 0.79375,-0.529167 v 2.38125 q -1.05833,0.529167 -1.5875,0.529167 -1.85208,0 -2.91042,-1.322917 -0.79375,-1.322916 -0.79375,-2.910416 0,-1.322917 0.79375,-2.645834 0.79375,-0.529166 1.05834,-0.79375 0.79375,-0.529166 1.85208,-0.529166 0.52917,0 1.5875,0.529166 z"
       style="font-style:normal;font-variant:normal;font-weight:bold;font-stretch:normal;font-size:2.47099996px;line-height:1.25;font-family:'Futura LT';-inkscape-font-specification:'Futura LT, Bold';font-variant-ligatures:normal;font-variant-caps:normal;font-variant-numeric:normal;font-feature-settings:normal;text-align:start;letter-spacing:0px;word-spacing:0px;writing-mode:lr-tb;text-anchor:start;fill:#f32e36;fill-opacity:1;stroke:none;stroke-width:0.71014166"
       id="path1939"
       inkscape:connector-curvature="0" />
    <path
       d="m 290.60127,65.360418 h 2.38125 v -2.645834 h 1.5875 v 7.14375 h -1.5875 v -2.645833 h -2.38125 v 2.645833 h -2.11667 v -7.14375 h 2.11667 z"
       style="font-style:normal;font-variant:normal;font-weight:bold;font-stretch:normal;font-size:2.47099996px;line-height:1.25;font-family:'Futura LT';-inkscape-font-specification:'Futura LT, Bold';font-variant-ligatures:normal;font-variant-caps:normal;font-variant-numeric:normal;font-feature-settings:normal;text-align:start;letter-spacing:0px;word-spacing:0px;writing-mode:lr-tb;text-anchor:start;fill:#f32e36;fill-opacity:1;stroke:none;stroke-width:0.71014166"
       id="path1941"
       inkscape:connector-curvature="0" />
  </g>
</svg>
