<?xml version="1.0" encoding="UTF-8" standalone="no"?>
<!-- Created with Inkscape (http://www.inkscape.org/) -->

<svg
   xmlns:dc="http://purl.org/dc/elements/1.1/"
   xmlns:cc="http://creativecommons.org/ns#"
   xmlns:rdf="http://www.w3.org/1999/02/22-rdf-syntax-ns#"
   xmlns:svg="http://www.w3.org/2000/svg"
   xmlns="http://www.w3.org/2000/svg"
   xmlns:sodipodi="http://sodipodi.sourceforge.net/DTD/sodipodi-0.dtd"
   xmlns:inkscape="http://www.inkscape.org/namespaces/inkscape"
   width="50.000023mm"
   height="50mm"
   viewBox="0 0 50.000023 50"
   version="1.1"
   id="svg11235"
   inkscape:version="0.92.4 (5da689c313, 2019-01-14)"
   sodipodi:docname="amb.svg">
  <defs
     id="defs11229" />
  <sodipodi:namedview
     id="base"
     pagecolor="#ffffff"
     bordercolor="#666666"
     borderopacity="1.0"
     inkscape:pageopacity="0.0"
     inkscape:pageshadow="2"
     inkscape:zoom="1.8423059"
     inkscape:cx="-110.19279"
     inkscape:cy="49.083415"
     inkscape:document-units="mm"
     inkscape:current-layer="layer1"
     showgrid="false"
     fit-margin-top="0"
     fit-margin-left="0"
     fit-margin-right="0"
     fit-margin-bottom="0"
     inkscape:window-width="1920"
     inkscape:window-height="971"
     inkscape:window-x="0"
     inkscape:window-y="31"
     inkscape:window-maximized="1" />
  <metadata
     id="metadata11232">
    <rdf:RDF>
      <cc:Work
         rdf:about="">
        <dc:format>image/svg+xml</dc:format>
        <dc:type
           rdf:resource="http://purl.org/dc/dcmitype/StillImage" />
        <dc:title></dc:title>
      </cc:Work>
    </rdf:RDF>
  </metadata>
  <g
     inkscape:label="Layer 1"
     inkscape:groupmode="layer"
     id="layer1"
     transform="translate(-72.517853,-128.03731)">
    <g
       id="g348"
       transform="translate(-5.2045536e-8,-4.8674429)">
      <path
         style="fill:#f0c744;stroke-width:0.08319096"
         d="m 78.211567,173.511 c -2.951636,-0.47891 -4.644056,-2.62964 -5.320385,-6.76105 -0.151483,-0.92549 -0.37723,-3.63395 -0.317738,-3.81243 0.02149,-0.0634 0.280539,0.51093 0.576522,1.27638 0.883248,2.28449 1.574805,3.32938 2.749524,4.15435 0.898343,0.63089 1.854163,0.92818 3.001432,0.93356 1.02627,0.005 1.778663,-0.16658 3.033179,-0.69099 2.032451,-0.84957 2.673621,-1.08156 3.27351,-1.18443 0.563066,-0.0966 0.673455,-0.0902 0.983431,0.0569 0.551221,0.26155 0.830417,0.70133 0.873364,1.37565 0.03008,0.47428 -0.0027,0.64661 -0.1958,1.02301 -0.25274,0.49309 -1.062637,1.32315 -1.717452,1.76048 -1.940379,1.29594 -5.147092,2.15938 -6.93956,1.86855 z m 1.240844,-6.41093 c -0.906078,-0.15167 -2.278879,-0.82587 -3.157722,-1.55077 -0.870356,-0.71791 -1.640099,-1.73212 -2.219146,-2.92391 -1.091322,-2.24611 -1.340222,-4.82981 -0.669695,-6.95118 0.11979,-0.37915 0.257575,-0.67966 0.30584,-0.66779 0.04835,0.0121 0.112807,0.46684 0.143426,1.01106 0.105554,1.88677 0.711433,3.35957 1.905543,4.63283 0.822816,0.87736 1.729512,1.49432 2.770904,1.88549 1.152238,0.43279 2.123797,0.53715 3.738623,0.4016 1.494068,-0.12543 2.102579,-0.0737 2.535326,0.21522 0.980718,0.65492 0.739178,2.1657 -0.48155,3.01218 -0.538678,0.37353 -1.536478,0.74403 -2.429664,0.90219 -0.525356,0.093 -1.967023,0.11257 -2.441831,0.0331 z m 2.698977,-5.22101 c -1.779416,-0.38698 -3.725999,-1.65052 -5.015888,-3.25588 -1.895472,-2.35901 -2.468394,-5.36654 -1.508948,-7.92093 0.378734,-1.00828 1.595567,-2.9854 1.745895,-2.83677 0.02766,0.0274 -0.07118,0.42852 -0.219972,0.89117 -0.535509,1.66522 -0.57201,2.82359 -0.130534,4.13905 0.599486,1.78586 1.996031,3.35898 3.65109,4.11277 0.263753,0.12014 1.058716,0.36947 1.76647,0.55404 1.826525,0.47635 2.379868,0.77105 2.727822,1.45282 0.553531,1.08455 -0.108509,2.49755 -1.342827,2.86578 -0.542787,0.16193 -0.921387,0.16147 -1.673243,-0.002 z m 38.948542,-2.83773 c -0.66951,-1.15858 -1.81178,-1.95411 -3.37155,-2.34805 -1.33495,-0.33716 -2.36649,-0.40032 -5.42408,-0.33214 -2.08451,0.0465 -2.96593,0.0344 -3.25965,-0.0447 -1.15874,-0.31202 -1.65383,-1.90532 -0.91078,-2.93107 1.04792,-1.44661 4.60546,-1.98841 7.52304,-1.14572 2.95384,0.85316 4.78963,2.844 5.61473,6.0889 0.1077,0.42355 0.18317,0.87853 0.16786,1.01106 -0.0242,0.21686 -0.0591,0.18697 -0.33957,-0.2983 z m -37.435001,-1.74177 c -0.715811,-0.30231 -1.336355,-0.77736 -2.102499,-1.60954 -1.842237,-2.00103 -2.604944,-3.8818 -2.596913,-6.4039 0.0027,-0.92249 0.04861,-1.36252 0.200903,-1.93021 0.244146,-0.91098 0.716697,-1.92139 1.244874,-2.66157 0.731147,-1.02458 2.868911,-2.89485 3.187508,-2.78865 0.0752,0.025 -0.01611,0.18442 -0.253008,0.44675 -1.475429,1.62557 -1.963102,2.7704 -1.963102,4.60843 0,1.62139 0.425334,3.04173 1.3045,4.35619 0.565294,0.84518 1.015607,1.23974 2.140476,1.87545 1.542495,0.87173 1.886796,1.28556 1.885239,2.2658 -0.0011,0.67418 -0.375619,1.38428 -0.920179,1.74466 -0.537389,0.35561 -1.419563,0.39566 -2.127692,0.0966 z m 2.997806,-4.18663 c -1.356445,-0.64171 -2.541988,-2.90473 -2.809366,-5.3627 -0.176999,-1.62589 0.17861,-3.24866 1.002232,-4.57645 0.836407,-1.34823 2.546446,-2.86859 4.109998,-3.65413 1.15624,-0.58091 2.619582,-1.10841 2.619582,-0.94431 0,0.0436 -0.320559,0.30419 -0.712346,0.57903 -1.464175,1.02712 -2.667847,2.33246 -3.289948,3.56775 -0.437072,0.86792 -0.612594,1.6347 -0.60835,2.65762 0.0081,1.6146 0.477494,2.76109 1.712698,4.17118 0.939168,1.0721 1.059629,1.28637 1.059629,1.88465 0,0.57475 -0.09266,0.81954 -0.475586,1.25562 -0.640365,0.72934 -1.622668,0.88815 -2.608543,0.42174 z m 18.686505,-0.78232 c -1.311,-0.48521 -1.71818,-1.72708 -0.9732,-2.96819 1.22586,-2.04222 4.74408,-3.28968 7.36457,-2.61128 1.54473,0.39991 3.35304,1.46633 5.02556,2.96375 0.94878,0.84945 2.25565,2.26735 2.16935,2.35366 -0.0242,0.0244 -0.30452,-0.14971 -0.62248,-0.38693 -0.77417,-0.57763 -2.06734,-1.20524 -2.96788,-1.44038 -0.53336,-0.13927 -1.03825,-0.19435 -1.83829,-0.20056 -1.75038,-0.0134 -3.01481,0.33211 -4.82554,1.31921 -1.8431,1.00477 -2.62479,1.23249 -3.33209,0.97072 z m -14.269594,-1.63879 c -0.755642,-0.26416 -1.2962,-1.07813 -1.574402,-2.3708 -0.204932,-0.95225 -0.201172,-2.93972 0.0081,-3.90639 0.84296,-3.90757 4.011722,-6.44548 8.276882,-6.62907 0.606631,-0.026 1.413172,-0.0129 1.792333,0.0292 l 0.689351,0.0767 -0.735303,0.17238 c -2.597209,0.60882 -4.457738,1.6252 -5.48425,2.99595 -0.778097,1.03908 -1.113911,2.16407 -1.111171,3.72255 0.0016,0.90599 0.03653,1.12093 0.336969,2.06809 0.581786,1.83456 0.543566,2.64104 -0.158466,3.34193 -0.553988,0.55316 -1.337133,0.74498 -2.039354,0.49951 z m 9.467234,-0.73532 c -1.114314,-0.38951 -1.594656,-1.6595 -1.16395,-3.0775 0.581867,-1.91561 2.58698,-3.68542 4.95218,-4.37099 1.00642,-0.29171 3.29048,-0.28444 4.71389,0.015 1.69134,0.35585 3.05144,0.9019 4.29449,1.72413 0.64044,0.42364 1.84363,1.55001 1.75309,1.64115 -0.0357,0.0359 -0.44924,-0.12146 -0.91916,-0.34961 -2.56017,-1.24298 -4.66887,-1.55836 -6.38976,-0.95564 -1.9223,0.67327 -3.02526,1.61781 -3.93485,3.36967 -0.6268,1.20722 -1.17185,1.82941 -1.75404,2.0023 -0.45187,0.13419 -1.17023,0.13486 -1.55189,0.001 z m -5.179485,-0.49961 c -1.13298,-0.57663 -1.425015,-3.07273 -0.612137,-5.23237 0.533307,-1.41685 1.415346,-2.36048 3.189497,-3.41218 1.655811,-0.98155 3.007715,-1.27894 5.436355,-1.19585 1.61907,0.0554 2.35605,0.18404 3.79941,0.66332 0.97204,0.32277 2.10752,0.84729 2.02114,0.93366 -0.0274,0.0274 -0.51757,-0.0476 -1.08931,-0.16666 -0.86444,-0.17998 -1.3104,-0.21616 -2.64802,-0.21492 -1.88548,0.002 -2.42016,0.10872 -3.76852,0.754 -0.72717,0.34798 -0.99761,0.54261 -1.61711,1.16373 -1.096153,1.099 -1.351229,1.67076 -1.645063,3.68714 -0.266976,1.83291 -0.489473,2.39152 -1.131879,2.84302 -0.32542,0.2287 -0.500028,0.28148 -1.009914,0.3052 -0.444941,0.0207 -0.70214,-0.015 -0.924449,-0.12809 z"
         id="path903"
         inkscape:connector-curvature="0"
         clip-path="url(#clipPath907)" />
      <path
         style="fill:#4f884a;stroke-width:0.08274956"
         d="m 78.331491,173.47934 c -0.771973,-0.15422 -1.759083,-0.63683 -2.337459,-1.14276 -0.892782,-0.78096 -1.685758,-2.28648 -2.112248,-4.01028 -0.249517,-1.00892 -0.506635,-2.65511 -0.506635,-3.24482 0,-0.23275 -0.03599,-0.36187 -0.09105,-0.32745 -0.05802,0.0363 -0.08595,-0.2026 -0.07735,-0.66096 0.0081,-0.39477 0.02928,-0.59368 0.04861,-0.44202 0.0188,0.15164 0.07332,0.35846 0.120058,0.45957 0.04673,0.1011 0.209498,0.50684 0.36176,0.90163 0.583962,1.51448 1.143509,2.41234 2.017545,3.23741 1.033253,0.97536 2.202063,1.42181 3.722292,1.42181 1.082647,0 1.925714,-0.22908 3.73685,-1.01531 1.333373,-0.57884 2.382043,-0.9149 2.854971,-0.9149 0.324883,0 0.798751,0.29562 1.072521,0.66911 0.281184,0.3836 0.24522,1.10128 -0.08622,1.71655 -0.758973,1.40939 -3.462354,2.88719 -6.125339,3.34842 -1.016387,0.17603 -1.732037,0.17713 -2.598552,0.004 z m 1.227711,-6.4366 c -1.178291,-0.31786 -2.347558,-1.04 -3.2795,-2.02542 -0.753655,-0.79693 -1.093848,-1.30238 -1.588961,-2.36095 -0.625968,-1.33836 -0.948031,-2.84202 -0.948461,-4.4283 -1.61e-4,-0.81547 0.191771,-2.02644 0.346182,-2.18241 0.04485,-0.0454 0.105555,0.21605 0.140471,0.60378 0.276322,3.08196 2.472907,5.69379 5.472002,6.50645 0.611545,0.16572 0.924395,0.1915 2.040911,0.16819 2.756803,-0.0575 3.027405,-0.0472 3.349306,0.12825 0.792707,0.43201 0.726501,1.77827 -0.124624,2.53354 -0.484585,0.43003 -1.498366,0.8909 -2.334182,1.06114 -0.870033,0.17721 -2.408338,0.17509 -3.073118,-0.004 z m 2.858006,-5.18082 c -2.307162,-0.6115 -4.585907,-2.50536 -5.699495,-4.73683 -0.596612,-1.19554 -0.950717,-2.96345 -0.852441,-4.25577 0.09186,-1.20681 0.761954,-3.00045 1.422947,-3.80842 0.167866,-0.2052 0.168404,-0.20104 0.03975,0.29738 -0.07171,0.27804 -0.175387,0.84306 -0.230179,1.2556 -0.331624,2.4955 1.179419,5.22619 3.647384,6.59141 0.381984,0.2113 1.087508,0.45971 1.97269,0.69456 1.526568,0.40504 2.156699,0.68335 2.51118,1.10915 0.556593,0.66853 0.504192,1.60314 -0.130801,2.33216 -0.604563,0.69416 -1.42523,0.85357 -2.680954,0.52075 z M 121.1183,159.1702 c -0.53156,-0.95767 -1.49968,-1.70818 -2.75119,-2.13279 -1.24246,-0.42154 -2.33115,-0.5422 -4.61368,-0.51135 -4.62316,0.0625 -4.36171,0.0723 -4.8654,-0.18226 -0.58667,-0.29649 -0.86393,-0.80514 -0.86393,-1.58499 0,-0.68704 0.15175,-1.04135 0.63405,-1.48132 0.82636,-0.75368 2.29352,-1.15857 4.20537,-1.16057 2.65654,-0.003 4.8239,0.82156 6.31201,2.4007 1.14859,1.21884 1.76491,2.99532 2.25656,5.25852 0.0808,0.37239 -0.0666,-0.16046 -0.31379,-0.60596 z m -36.848702,-1.76113 c -0.605583,-0.21855 -1.231927,-0.69636 -2.059256,-1.57102 -1.858943,-1.96531 -2.588103,-3.73373 -2.595892,-6.29594 -0.0054,-2.03892 0.511577,-3.4849 1.826471,-5.10061 0.452784,-0.55638 1.707998,-1.70109 1.86531,-1.70109 0.04163,0 -0.129459,0.26381 -0.380212,0.58625 -1.590921,2.04605 -1.716055,4.92217 -0.33243,7.64013 0.556593,1.09338 1.353436,1.89521 2.560761,2.57685 1.736173,0.98018 2.178402,1.81195 1.586517,2.984 -0.200635,0.39753 -0.596425,0.78389 -0.935301,0.9133 -0.347175,0.13258 -1.124976,0.11644 -1.535968,-0.0319 z m 20.919532,-5.09985 c -0.90049,-0.57717 -1.15411,-1.29673 -0.79719,-2.26157 0.16115,-0.43537 0.34951,-0.6975 0.89499,-1.2449 1.66639,-1.67227 4.37541,-2.39533 6.69313,-1.78647 0.82311,0.21624 2.62568,1.15642 3.54674,1.84992 0.85408,0.64305 3.70309,3.4669 3.60769,3.56332 -0.0301,0.0305 -0.62546,-0.48095 -0.94145,-0.70748 -2.22079,-1.59197 -4.9145,-1.94958 -7.62258,-1.01195 -0.37513,0.12986 -1.19422,0.51969 -1.82021,0.86622 -1.945,1.07674 -2.76226,1.24494 -3.56112,0.73291 z m -4.33792,-2.16945 c -0.977946,-0.30828 -1.511925,-1.3953 -1.286903,-2.61978 0.377526,-2.05458 2.767223,-4.26538 5.209433,-4.81946 0.95375,-0.21638 1.61069,-0.25223 2.76341,-0.15076 2.3713,0.20874 4.19197,0.80231 5.82087,1.89773 0.83659,0.56259 1.86058,1.50957 1.69919,1.57137 -0.0583,0.0223 -0.42652,-0.1224 -0.81847,-0.32154 -1.53981,-0.78228 -3.1158,-1.21894 -4.44127,-1.23055 -1.0512,-0.009 -1.75052,0.17445 -2.95564,0.77614 -1.3508,0.67445 -2.01827,1.36313 -2.81895,2.90851 -0.68769,1.32732 -1.09613,1.78993 -1.75487,1.98764 -0.55546,0.16671 -0.88964,0.1669 -1.4168,7.4e-4 z"
         id="path899-1"
         inkscape:connector-curvature="0"
         clip-path="url(#clipPath967)"
         sodipodi:nodetypes="csssccccssssscsscccssccssssssccssssccscsssccssssscccsscsssssccssssscccssscssscccsssccc" />
      <path
         style="fill:#cb232e;stroke-width:0.08319096"
         d="m 77.698834,173.33883 c -0.780218,-0.15423 -1.777911,-0.63684 -2.362463,-1.14276 -0.902345,-0.78097 -1.703782,-2.28649 -2.134837,-4.01028 -0.252203,-1.00893 -0.512061,-2.65511 -0.512061,-3.24482 0,-0.23276 -0.03626,-0.36187 -0.09186,-0.32746 -0.05882,0.0363 -0.08702,-0.20259 -0.07816,-0.66096 0.0081,-0.39477 0.02954,-0.59368 0.04915,-0.44202 0.0188,0.15164 0.07413,0.35847 0.121401,0.45957 0.04727,0.10113 0.211916,0.50685 0.365655,0.90164 0.590193,1.51447 1.155729,2.41234 2.039112,3.23741 1.044292,0.97536 2.225618,1.42181 3.762097,1.42181 1.09425,0 1.946315,-0.22908 3.776842,-1.01531 1.347635,-0.57885 2.407506,-0.9149 2.88551,-0.9149 0.328347,0 0.807291,0.29565 1.08399,0.6691 0.284192,0.3836 0.247905,1.10129 -0.08702,1.71655 -0.767085,1.40939 -3.499393,2.8872 -6.190848,3.34842 -1.027265,0.17603 -1.750569,0.17716 -2.626351,0.004 z m 1.240845,-6.43661 c -1.190888,-0.31786 -2.37267,-1.04 -3.314578,-2.02542 -0.761739,-0.79693 -1.105557,-1.30238 -1.605961,-2.36095 -0.632657,-1.33836 -0.958157,-2.84201 -0.958587,-4.4283 -1.88e-4,-0.81547 0.19392,-2.02644 0.349888,-2.1824 0.04539,-0.0454 0.106898,0.21605 0.141814,0.60377 0.279277,3.08197 2.499363,5.69379 5.530527,6.50645 0.618099,0.16572 0.93428,0.1915 2.062774,0.16819 2.786294,-0.0575 3.059769,-0.0472 3.385109,0.12825 0.801195,0.43201 0.73429,1.77828 -0.125967,2.53354 -0.489769,0.43004 -1.514374,0.8909 -2.359161,1.06114 -0.879353,0.17721 -2.434095,0.17509 -3.105992,-0.004 z m 2.888572,-5.18082 c -2.331845,-0.6115 -4.634951,-2.50536 -5.760438,-4.73683 -0.603004,-1.19554 -0.960923,-2.96345 -0.861573,-4.25577 0.09266,-1.20681 0.770093,-3.00045 1.438176,-3.80842 0.169747,-0.2052 0.170284,-0.20104 0.04002,0.29738 -0.07252,0.27804 -0.177267,0.84307 -0.232865,1.25561 -0.335142,2.4955 1.192069,5.22619 3.686436,6.5914 0.38604,0.2113 1.099139,0.45972 1.993748,0.69457 1.542924,0.40504 2.179771,0.68334 2.538066,1.10914 0.562528,0.66854 0.50959,1.60315 -0.132145,2.33216 -0.611035,0.69416 -1.440485,0.85357 -2.709612,0.52076 z m 1.872212,-4.45284 c -0.612056,-0.21855 -1.245089,-0.69637 -2.08128,-1.57103 -1.878846,-1.9653 -2.615795,-3.73372 -2.623665,-6.29593 -0.0054,-2.03892 0.51703,-3.48491 1.845998,-5.10062 0.457618,-0.55638 1.726289,-1.70109 1.885292,-1.70109 0.0419,0 -0.130802,0.26381 -0.384321,0.58625 -1.607922,2.04605 -1.7344,4.92217 -0.335975,7.64014 0.562555,1.09337 1.367913,1.8952 2.588184,2.57684 1.754705,0.98018 2.201661,1.81196 1.603464,2.98401 -0.202783,0.39753 -0.60279,0.78389 -0.945319,0.9133 -0.350882,0.13257 -1.136982,0.11643 -1.552378,-0.0319 z"
         id="path897"
         inkscape:connector-curvature="0" />
      <path
         sodipodi:nodetypes="ccccccc"
         inkscape:connector-curvature="0"
         id="path989-0"
         d="m 82.995046,173.54825 c 4.081796,-1.05186 5.660818,-2.08075 14.618595,-15.22539 v 15.25297 h -3.282293 v -5.7371 c -1.531375,2.20033 -3.130784,4.19649 -4.882051,5.7371 z"
         style="fill:#cc242f;fill-opacity:1;stroke:none;stroke-width:0.08319096px;stroke-linecap:butt;stroke-linejoin:miter;stroke-opacity:1" />
      <path
         inkscape:connector-curvature="0"
         id="path995-8"
         d="m 98.565218,158.22632 5.612982,6.01293 5.97155,-5.94397 0.0134,15.29435 -3.35124,0.014 0.0277,-7.22655 -2.6617,2.99267 -2.27552,-2.92371 -0.0134,7.13 h -3.309878 z"
         style="fill:#f1c742;fill-opacity:1;stroke:none;stroke-width:0.08319096px;stroke-linecap:butt;stroke-linejoin:miter;stroke-opacity:1" />
      <path
         inkscape:connector-curvature="0"
         d="m 115.09384,167.50154 v 3.04783 l 1.83732,-0.0309 c 0.7554,-0.0822 1.34906,-0.70638 1.33859,-1.4723 -0.002,-0.80774 -0.50556,-1.52204 -1.43861,-1.53082 z m 0.0215,-6.10326 -0.0414,3.02026 1.57217,-0.0483 c 0.80429,-0.13092 1.22283,-0.68904 1.21361,-1.45497 -0.002,-0.80774 -0.58466,-1.27221 -1.31062,-1.4069 -0.49796,-0.0924 -0.95875,-0.0906 -1.4338,-0.11012 z m -3.98031,12.19061 v -15.25181 c 0,0 5.93883,-0.19504 7.53813,0.42908 1.59927,0.62412 2.17464,0.94592 2.58421,1.64805 0.4096,0.70213 0.47809,1.2671 0.48759,1.93086 0.008,0.56935 -0.076,1.12421 -0.40908,1.83501 -0.18264,0.38947 -0.52778,0.72665 -0.87815,0.99788 -0.24199,0.18731 -0.81913,0.41446 -0.81913,0.41446 0,0 1.12368,0.22657 1.8967,0.9703 0.64362,0.61924 0.8728,1.6188 0.8728,1.6188 0,0 0.23394,0.62899 0.0188,1.87722 -0.2146,1.24823 -1.07271,2.06738 -1.07271,2.06738 0,0 -0.83863,0.85815 -1.54077,1.0922 -0.70214,0.23401 -2.15563,0.37036 -2.78901,0.39006 -0.5929,0.0185 -5.89008,-0.0193 -5.89008,-0.0193 z"
         style="fill:#4e8849;fill-opacity:1;stroke:none;stroke-width:0.08319096px;stroke-linecap:butt;stroke-linejoin:miter;stroke-opacity:1"
         id="path1001-5" />
      <path
         d="m 121.49131,177.28568 q -0.0957,0 -0.17181,-0.039 -0.0749,-0.0408 -0.12774,-0.11694 -0.0529,-0.0779 -0.0809,-0.19115 -0.0283,-0.11319 -0.0283,-0.25795 0,-0.17818 0.0406,-0.29879 0.0418,-0.12247 0.11296,-0.19674 0.0711,-0.0761 0.16682,-0.10947 0.0957,-0.0352 0.20389,-0.0371 l 0.28601,-0.007 v -0.10208 q 0,-0.10947 -0.0126,-0.18189 -0.0126,-0.0742 -0.0368,-0.12064 -0.025,-0.0464 -0.0614,-0.0649 -0.0356,-0.0204 -0.0822,-0.0204 -0.0431,0 -0.0774,0.0129 -0.0331,0.0129 -0.0576,0.0464 -0.025,0.0314 -0.0406,0.0872 -0.015,0.0538 -0.0201,0.13735 l -0.35965,-0.0261 q 0.015,-0.13174 0.0541,-0.23939 0.0393,-0.10948 0.10795,-0.1893 0.0699,-0.0798 0.17058,-0.12247 0.10192,-0.0445 0.23818,-0.0445 0.12398,0 0.22091,0.0464 0.0969,0.0464 0.16456,0.1392 0.0676,0.0909 0.1032,0.22457 0.0356,0.13365 0.0356,0.30992 v 0.73121 q 0,0.0705 0.002,0.12618 0.005,0.0557 0.015,0.0946 0.0126,0.0371 0.0331,0.0575 0.0226,0.0185 0.0566,0.0185 0.0393,0 0.0761,-0.011 v 0.28208 q -0.0306,0.011 -0.0551,0.0204 -0.025,0.009 -0.0491,0.0148 -0.025,0.006 -0.0529,0.009 -0.0271,0.004 -0.0639,0.004 -0.13,0 -0.19261,-0.0965 -0.0614,-0.0965 -0.0737,-0.28394 h -0.008 q -0.0686,0.18745 -0.17683,0.29137 -0.10671,0.10391 -0.26024,0.10391 z m 0.4014,-0.9669 -0.17684,0.004 q -0.0554,0.004 -0.10569,0.0148 -0.0491,0.009 -0.0872,0.0427 -0.0368,0.0314 -0.0589,0.0928 -0.0226,0.0612 -0.0226,0.16704 0,0.14291 0.0431,0.21342 0.0443,0.0686 0.1167,0.0686 0.0664,0 0.12022,-0.0427 0.0541,-0.0427 0.0909,-0.11133 0.0381,-0.0705 0.0588,-0.16148 0.0201,-0.0909 0.0201,-0.18559 z m -1.40546,-1.44014 v -0.38416 h 0.34491 v 0.38416 z m 0,2.36993 v -2.00803 h 0.34491 v 2.00803 z m -0.88132,-0.42128 0.33265,-1.58675 h 0.36087 l -0.48976,2.00803 h -0.41242 l -0.47503,-2.00803 h 0.36455 z m -1.21518,-1.94865 v -0.38416 h 0.34492 v 0.38416 z m 0,2.36993 v -2.00803 h 0.34492 v 2.00803 z m -0.69721,0 v -2.75409 h 0.34491 v 2.75409 z m -0.27494,-1.00587 q 0,0.23012 -0.0431,0.42128 -0.0418,0.19115 -0.12648,0.33033 -0.0847,0.13735 -0.21114,0.21527 -0.12647,0.0761 -0.29457,0.0761 -0.16204,0 -0.28601,-0.0761 -0.12397,-0.0761 -0.20863,-0.21342 -0.0834,-0.13736 -0.12648,-0.32847 -0.0431,-0.19301 -0.0431,-0.42499 0,-0.22457 0.0406,-0.41386 0.0418,-0.19115 0.12524,-0.33033 0.0834,-0.13918 0.2099,-0.21715 0.12648,-0.0779 0.29583,-0.0779 0.17933,0 0.30564,0.0779 0.12648,0.0779 0.20614,0.21715 0.0809,0.13736 0.11772,0.32848 0.0381,0.1893 0.0381,0.41571 z m -0.36087,0 q 0,-0.35817 -0.0774,-0.51964 -0.0774,-0.16148 -0.22467,-0.16148 -0.15229,0 -0.23319,0.16333 -0.0809,0.16333 -0.0809,0.51778 0,0.18004 0.0201,0.30992 0.0226,0.12992 0.0614,0.21342 0.0393,0.0835 0.0944,0.12433 0.0554,0.039 0.12148,0.039 0.0761,0 0.13499,-0.039 0.0601,-0.0408 0.1007,-0.12433 0.0406,-0.0835 0.0614,-0.21342 0.0201,-0.12991 0.0201,-0.30992 z m -1.19189,0.25982 q 0,0.19859 -0.0529,0.34146 -0.0529,0.14106 -0.14477,0.23198 -0.0909,0.0891 -0.21239,0.1318 -0.12149,0.0408 -0.25779,0.0408 h -0.86534 v -2.61491 h 0.79173 q 0.15352,0 0.27248,0.0408 0.12022,0.039 0.20262,0.12065 0.0822,0.0816 0.12398,0.20601 0.0431,0.12248 0.0431,0.28951 0,0.22271 -0.0822,0.37676 -0.0809,0.15218 -0.24796,0.206 0.2099,0.0371 0.31914,0.20045 0.11044,0.16147 0.11044,0.4287 z m -0.46399,-1.13764 q 0,-0.17633 -0.0749,-0.25054 -0.0737,-0.0742 -0.21965,-0.0742 h -0.41244 v 0.64769 h 0.4149 q 0.15352,0 0.22217,-0.0798 0.0699,-0.0817 0.0699,-0.24312 z m 0.1007,1.09495 q 0,-0.10392 -0.0271,-0.17447 -0.0271,-0.0705 -0.0749,-0.11319 -0.0466,-0.0427 -0.11047,-0.0612 -0.0626,-0.0185 -0.13626,-0.0185 h -0.45907 v 0.74977 h 0.47257 q 0.0711,0 0.1325,-0.0166 0.0614,-0.0185 0.10545,-0.0612 0.0453,-0.0445 0.0711,-0.11879 0.0258,-0.0742 0.0258,-0.1856 z m -2.7152,0.82585 q -0.14351,0 -0.25897,-0.0631 -0.11421,-0.0649 -0.1951,-0.19488 -0.0811,-0.13174 -0.12399,-0.32848 -0.0431,-0.19859 -0.0431,-0.46396 0,-0.28765 0.0503,-0.48438 0.0516,-0.19674 0.13752,-0.31734 0.0872,-0.1225 0.20012,-0.17633 0.11297,-0.0538 0.23818,-0.0538 0.15705,0 0.2676,0.0835 0.11171,0.0816 0.18283,0.23013 0.0711,0.14847 0.10445,0.3563 0.0331,0.20601 0.0331,0.45655 v 0.0148 h -0.85185 q 0,0.12618 0.015,0.23568 0.015,0.10763 0.0478,0.18745 0.0331,0.0779 0.0859,0.12433 0.0529,0.0445 0.12774,0.0445 0.0909,0 0.14853,-0.0575 0.0576,-0.0594 0.0822,-0.18189 l 0.32527,0.0427 q -0.0226,0.0854 -0.0626,0.18189 -0.0393,0.0965 -0.10569,0.17818 -0.0664,0.0798 -0.1658,0.13365 -0.0982,0.052 -0.23944,0.052 z m 0,-1.75377 q -0.0529,0 -0.0994,0.028 -0.0453,0.026 -0.0799,0.0854 -0.0331,0.0575 -0.0541,0.15032 -0.0201,0.0928 -0.0226,0.22272 h 0.51553 q -0.01,-0.24313 -0.0774,-0.36373 -0.0676,-0.12248 -0.18159,-0.12248 z m -1.22009,1.71666 q -0.002,-0.0148 -0.005,-0.052 -0.002,-0.039 -0.005,-0.0872 -0.002,-0.0482 -0.005,-0.0984 -0.001,-0.0501 -0.001,-0.0891 h -0.005 q -0.0601,0.19486 -0.16806,0.28023 -0.1067,0.0835 -0.25655,0.0835 -0.12524,0 -0.21715,-0.0779 -0.0909,-0.0779 -0.15103,-0.21712 -0.0588,-0.13919 -0.0884,-0.32848 -0.0283,-0.19115 -0.0283,-0.41571 0,-0.22827 0.0295,-0.41942 0.0308,-0.19116 0.0934,-0.32848 0.0626,-0.13915 0.15831,-0.21713 0.0969,-0.0779 0.22942,-0.0779 0.0651,0 0.12524,0.0204 0.0601,0.0204 0.11171,0.0631 0.0516,0.0427 0.0932,0.10948 0.0418,0.0668 0.0711,0.16147 h 0.002 q 0,-0.0185 -0.001,-0.0538 0,-0.0371 0,-0.0835 0,-0.0464 -0.001,-0.0965 0,-0.0501 0,-0.0965 v -0.73306 h 0.34491 v 2.31611 q 0,0.14662 0.002,0.26168 0.002,0.11318 0.005,0.17633 z m -0.015,-1.01515 q 0,-0.1986 -0.025,-0.32848 -0.025,-0.13176 -0.0651,-0.20785 -0.0393,-0.0779 -0.0909,-0.10763 -0.0503,-0.0314 -0.10319,-0.0314 -0.0664,0 -0.11772,0.039 -0.0503,0.039 -0.0859,0.12248 -0.0343,0.0835 -0.0529,0.21341 -0.0175,0.12992 -0.0175,0.31363 0,0.68296 0.27128,0.68296 0.0516,0 0.10319,-0.0333 0.0516,-0.0333 0.0922,-0.11323 0.0406,-0.0798 0.0651,-0.21343 0.0258,-0.1355 0.0258,-0.33589 z m -1.82247,0.4287 q 0,0.14477 -0.0406,0.2598 -0.0393,0.11504 -0.11547,0.19675 -0.0761,0.0798 -0.18659,0.12432 -0.11047,0.0427 -0.25164,0.0427 -0.12647,0 -0.22816,-0.028 -0.10193,-0.028 -0.17934,-0.0909 -0.0761,-0.0649 -0.12774,-0.16703 -0.0516,-0.10206 -0.0774,-0.25239 l 0.30319,-0.0686 q 0.015,0.0835 0.0406,0.13545 0.0258,0.0519 0.0639,0.0798 0.0381,0.028 0.0884,0.0371 0.0516,0.009 0.11673,0.009 0.0588,0 0.10921,-0.009 0.0516,-0.011 0.0884,-0.0352 0.0381,-0.026 0.0588,-0.0705 0.0201,-0.0464 0.0201,-0.11504 0,-0.0779 -0.0306,-0.12248 -0.0295,-0.0464 -0.0822,-0.0742 -0.0516,-0.0295 -0.12272,-0.0501 -0.0699,-0.0223 -0.14976,-0.0501 -0.0834,-0.028 -0.16456,-0.0668 -0.0811,-0.039 -0.14477,-0.10577 -0.0639,-0.0668 -0.10319,-0.16888 -0.0393,-0.10392 -0.0393,-0.26169 0,-0.14291 0.0368,-0.25424 0.0368,-0.11324 0.10794,-0.19115 0.0711,-0.0798 0.17557,-0.12065 0.10545,-0.0427 0.24171,-0.0427 0.10794,0 0.20138,0.0314 0.0934,0.0295 0.16682,0.0965 0.0737,0.0649 0.12272,0.16703 0.0503,0.10206 0.0699,0.24683 l -0.30564,0.0482 q -0.007,-0.0724 -0.0306,-0.11879 -0.0226,-0.0482 -0.0554,-0.0761 -0.0318,-0.028 -0.0749,-0.0371 -0.0431,-0.011 -0.0944,-0.011 -0.12272,0 -0.18409,0.0482 -0.0614,0.0464 -0.0614,0.15776 0,0.0687 0.025,0.10948 0.0258,0.0408 0.0711,0.0686 0.0466,0.0261 0.10921,0.0464 0.0639,0.0185 0.13875,0.0464 0.0919,0.0295 0.18033,0.0705 0.0897,0.039 0.1583,0.10953 0.0699,0.0687 0.11171,0.17818 0.0431,0.10948 0.0431,0.27837 z m -1.975,0.62356 q -0.1435,0 -0.259,-0.0631 -0.1142,-0.0649 -0.1951,-0.19488 -0.0811,-0.13174 -0.12398,-0.32848 -0.0431,-0.19859 -0.0431,-0.46396 0,-0.28765 0.0503,-0.48438 0.0516,-0.19674 0.13752,-0.31734 0.0872,-0.1225 0.20012,-0.17633 0.11297,-0.0538 0.23819,-0.0538 0.15704,0 0.26756,0.0835 0.11171,0.0816 0.18283,0.23013 0.0711,0.14847 0.10445,0.3563 0.0331,0.20601 0.0331,0.45655 v 0.0148 h -0.85185 q 0,0.12618 0.015,0.23568 0.015,0.10763 0.0478,0.18745 0.0331,0.0779 0.0859,0.12433 0.0529,0.0445 0.12774,0.0445 0.0909,0 0.14853,-0.0575 0.0576,-0.0594 0.0822,-0.18189 l 0.32527,0.0427 q -0.0226,0.0854 -0.0626,0.18189 -0.0393,0.0965 -0.10568,0.17818 -0.0664,0.0798 -0.1658,0.13365 -0.0982,0.052 -0.23945,0.052 z m 0,-1.75377 q -0.0529,0 -0.0994,0.028 -0.0453,0.026 -0.0799,0.0854 -0.0331,0.0575 -0.0541,0.15032 -0.0201,0.0928 -0.0226,0.22272 h 0.51554 q -0.01,-0.24313 -0.0774,-0.36373 -0.0676,-0.12248 -0.1816,-0.12248 z m -1.22011,1.71666 q -0.002,-0.0148 -0.005,-0.052 -0.002,-0.039 -0.005,-0.0872 -0.002,-0.0482 -0.005,-0.0984 -10e-4,-0.0501 -10e-4,-0.0891 h -0.005 q -0.0601,0.19486 -0.16806,0.28023 -0.10671,0.0835 -0.25652,0.0835 -0.12525,0 -0.21716,-0.0779 -0.0909,-0.0779 -0.15103,-0.21712 -0.0588,-0.13919 -0.0884,-0.32848 -0.0283,-0.19115 -0.0283,-0.41571 0,-0.22827 0.0295,-0.41942 0.0308,-0.19116 0.0932,-0.32848 0.0626,-0.13915 0.15828,-0.21713 0.0969,-0.0779 0.22967,-0.0779 0.0651,0 0.12524,0.0204 0.0601,0.0204 0.11171,0.0631 0.0516,0.0427 0.0934,0.10948 0.0418,0.0668 0.0711,0.16147 h 0.002 q 0,-0.0185 -0.001,-0.0538 0,-0.0371 0,-0.0835 0,-0.0464 -10e-4,-0.0965 0,-0.0501 0,-0.0965 v -0.73306 h 0.34491 v 2.31611 q 0,0.14662 0.002,0.26168 0.002,0.11318 0.005,0.17633 z m -0.015,-1.01515 q 0,-0.1986 -0.025,-0.32848 -0.025,-0.13176 -0.0651,-0.20785 -0.0393,-0.0779 -0.0909,-0.10763 -0.0503,-0.0314 -0.10319,-0.0314 -0.0664,0 -0.11772,0.039 -0.0503,0.039 -0.0859,0.12248 -0.0343,0.0835 -0.0529,0.21341 -0.0175,0.12992 -0.0175,0.31363 0,0.68296 0.27125,0.68296 0.0516,0 0.10319,-0.0333 0.0516,-0.0333 0.0922,-0.11323 0.0406,-0.0798 0.0651,-0.21343 0.0258,-0.1355 0.0258,-0.33589 z m -1.93786,1.05226 q -0.0957,0 -0.17182,-0.039 -0.0749,-0.0408 -0.12774,-0.11694 -0.0529,-0.0779 -0.0809,-0.19115 -0.0283,-0.11319 -0.0283,-0.25795 0,-0.17818 0.0406,-0.29879 0.0418,-0.12247 0.11297,-0.19674 0.0711,-0.0761 0.16706,-0.10947 0.0957,-0.0352 0.20388,-0.0371 l 0.28601,-0.007 v -0.10208 q 0,-0.10947 -0.0126,-0.18189 -0.0126,-0.0742 -0.0368,-0.12064 -0.025,-0.0464 -0.0614,-0.0649 -0.0356,-0.0204 -0.0822,-0.0204 -0.0431,0 -0.0774,0.0129 -0.0331,0.0129 -0.0576,0.0464 -0.025,0.0314 -0.0406,0.0872 -0.015,0.0538 -0.0201,0.13735 l -0.35964,-0.0261 q 0.015,-0.13174 0.0541,-0.23939 0.0393,-0.10948 0.10794,-0.1893 0.0699,-0.0798 0.17058,-0.12247 0.10193,-0.0445 0.23818,-0.0445 0.12398,0 0.22091,0.0464 0.0969,0.0464 0.16457,0.1392 0.0676,0.0909 0.10319,0.22457 0.0356,0.13365 0.0356,0.30992 v 0.73121 q 0,0.0705 0.002,0.12618 0.005,0.0557 0.015,0.0946 0.0126,0.0371 0.0331,0.0575 0.0226,0.0185 0.0563,0.0185 0.0393,0 0.0761,-0.011 v 0.28208 q -0.0306,0.011 -0.0551,0.0204 -0.025,0.009 -0.0491,0.0148 -0.025,0.006 -0.0529,0.009 -0.0271,0.004 -0.0639,0.004 -0.13024,0 -0.1926,-0.0965 -0.0614,-0.0965 -0.0737,-0.28394 h -0.007 q -0.0686,0.18745 -0.17684,0.29137 -0.10671,0.10391 -0.26023,0.10391 z m 0.40139,-0.9669 -0.17684,0.004 q -0.0554,0.004 -0.10544,0.0148 -0.0491,0.009 -0.0872,0.0427 -0.0368,0.0314 -0.0588,0.0928 -0.0226,0.0612 -0.0226,0.16704 0,0.14291 0.0431,0.21342 0.0443,0.0686 0.11672,0.0686 0.0664,0 0.12022,-0.0427 0.0541,-0.0427 0.0909,-0.11133 0.0381,-0.0705 0.0589,-0.16148 0.0201,-0.0909 0.0201,-0.18559 z m -1.3846,0.92979 q -0.002,-0.0148 -0.005,-0.052 -0.002,-0.039 -0.005,-0.0872 -0.002,-0.0482 -0.005,-0.0984 -10e-4,-0.0501 -10e-4,-0.0891 h -0.005 q -0.0601,0.19486 -0.16805,0.28023 -0.10668,0.0835 -0.25653,0.0835 -0.12524,0 -0.21715,-0.0779 -0.0909,-0.0779 -0.15103,-0.21712 -0.0589,-0.13919 -0.0884,-0.32848 -0.0283,-0.19115 -0.0283,-0.41571 0,-0.22827 0.0295,-0.41942 0.0306,-0.19116 0.0932,-0.32848 0.0626,-0.13915 0.15831,-0.21713 0.0969,-0.0779 0.22967,-0.0779 0.0651,0 0.12524,0.0204 0.0601,0.0204 0.11171,0.0631 0.0516,0.0427 0.0934,0.10948 0.0418,0.0668 0.0711,0.16147 h 0.002 q 0,-0.0185 -10e-4,-0.0538 0,-0.0371 0,-0.0835 0,-0.0464 -0.001,-0.0965 0,-0.0501 0,-0.0965 v -0.73306 h 0.34491 v 2.31611 q 0,0.14662 0.002,0.26168 0.002,0.11318 0.005,0.17633 z m -0.015,-1.01515 q 0,-0.1986 -0.025,-0.32848 -0.025,-0.13176 -0.0651,-0.20785 -0.0393,-0.0779 -0.0909,-0.10763 -0.0503,-0.0314 -0.10319,-0.0314 -0.0664,0 -0.11772,0.039 -0.0503,0.039 -0.0859,0.12248 -0.0343,0.0835 -0.0529,0.21341 -0.0175,0.12992 -0.0175,0.31363 0,0.68296 0.27128,0.68296 0.0516,0 0.10319,-0.0333 0.0516,-0.0333 0.0922,-0.11323 0.0406,-0.0798 0.0651,-0.21343 0.0258,-0.1355 0.0258,-0.33589 z m -1.54259,-1.35478 v -0.38416 h 0.34491 v 0.38416 z m 0,2.36993 v -2.00803 h 0.34491 v 2.00803 z m -0.6972,0 v -2.75409 h 0.34492 v 2.75409 z m -1.09245,0.0371 q -0.0957,0 -0.17182,-0.039 -0.0749,-0.0408 -0.127738,-0.11694 -0.05286,-0.0779 -0.0809,-0.19115 -0.02831,-0.11319 -0.02831,-0.25795 0,-0.17818 0.04058,-0.29879 0.04182,-0.12248 0.112966,-0.19674 0.07112,-0.0761 0.166822,-0.10948 0.0957,-0.0352 0.20388,-0.0371 l 0.28598,-0.008 v -0.10206 q 0,-0.10947 -0.0126,-0.18189 -0.0126,-0.0742 -0.0368,-0.12064 -0.025,-0.0464 -0.0614,-0.0649 -0.0356,-0.0204 -0.0822,-0.0204 -0.0431,0 -0.0774,0.0129 -0.0331,0.0129 -0.0576,0.0464 -0.025,0.0314 -0.0406,0.0872 -0.0151,0.0538 -0.0201,0.13735 l -0.35964,-0.0261 q 0.01503,-0.13174 0.05409,-0.23939 0.03932,-0.10948 0.10794,-0.1893 0.0699,-0.0798 0.17056,-0.12247 0.10192,-0.0445 0.23818,-0.0445 0.12398,0 0.22091,0.0464 0.0969,0.0464 0.16457,0.1392 0.0674,0.0909 0.10319,0.22457 0.0356,0.13365 0.0356,0.30992 v 0.73121 q 0,0.0705 0.002,0.12618 0.005,0.0557 0.015,0.0946 0.0126,0.0371 0.0331,0.0575 0.0226,0.0185 0.0563,0.0185 0.0393,0 0.0761,-0.011 v 0.28208 q -0.0308,0.011 -0.0554,0.0204 -0.025,0.009 -0.0491,0.0148 -0.025,0.006 -0.0529,0.009 -0.0271,0.004 -0.0639,0.004 -0.13,0 -0.19261,-0.0965 -0.0614,-0.0965 -0.0737,-0.28394 h -0.008 q -0.0689,0.18745 -0.17683,0.29137 -0.10671,0.10391 -0.26021,0.10391 z m 0.40137,-0.96689 -0.17684,0.004 q -0.0551,0.004 -0.10545,0.0148 -0.0491,0.009 -0.0872,0.0427 -0.0368,0.0314 -0.0588,0.0928 -0.0226,0.0612 -0.0226,0.16703 0,0.14292 0.0431,0.21342 0.0441,0.0686 0.1167,0.0686 0.0664,0 0.12022,-0.0427 0.0541,-0.0427 0.0909,-0.11133 0.0381,-0.0705 0.0589,-0.16147 0.0201,-0.0909 0.0201,-0.1856 z m -0.988114,-0.0835 q 0,0.22827 -0.03081,0.42128 -0.02954,0.193 -0.09191,0.33218 -0.06261,0.13921 -0.159542,0.21901 -0.09567,0.0779 -0.227171,0.0779 -0.05885,0 -0.117721,-0.0185 -0.05761,-0.0185 -0.110443,-0.0594 -0.05286,-0.0427 -0.0982,-0.10948 -0.04407,-0.0686 -0.07614,-0.16889 h -0.0075 q 0.0012,0.009 0.0025,0.0464 0.0012,0.0371 0.0025,0.0872 0.0012,0.0482 0.0012,0.10395 0.0012,0.0538 0.0012,0.10021 v 0.77017 h -0.344956 v -2.33467 q 0,-0.15406 -0.0025,-0.27466 -0.0025,-0.12065 -0.0051,-0.18744 h 0.335097 q 0.0025,0.0129 0.0051,0.0501 0.0025,0.0371 0.0051,0.0854 0.0025,0.0482 0.0025,0.10021 0.0012,0.052 0.0012,0.0909 h 0.0051 q 0.06261,-0.1986 0.171815,-0.28395 0.109205,-0.0854 0.252848,-0.0854 0.126476,0 0.218413,0.0779 0.09191,0.0779 0.151027,0.21528 0.06011,0.13735 0.08842,0.32847 0.02954,0.1893 0.02954,0.41571 z m -0.359643,0 q 0,-0.34332 -0.06862,-0.50851 -0.06887,-0.16703 -0.204877,-0.16703 -0.0516,0 -0.103192,0.0333 -0.05033,0.0314 -0.09092,0.11138 -0.03932,0.0779 -0.06513,0.21157 -0.02498,0.13179 -0.02498,0.33404 0,0.19674 0.02498,0.32847 0.02498,0.12994 0.06387,0.20786 0.04058,0.0779 0.09092,0.11138 0.05033,0.0314 0.10193,0.0314 0.06637,0 0.117721,-0.039 0.0516,-0.0408 0.08589,-0.12432 0.03556,-0.0854 0.05409,-0.21716 0.01746,-0.13177 0.01746,-0.31363 z m -1.594457,-1.35663 v -0.38417 h 0.344914 v 0.38417 z m 0,2.36992 v -2.00803 h 0.344914 v 2.00803 z m -0.845749,0.0371 q -0.158278,0 -0.277388,-0.0742 -0.117721,-0.0742 -0.196365,-0.20971 -0.07864,-0.1355 -0.11772,-0.32476 -0.03932,-0.19115 -0.03932,-0.42127 0,-0.25054 0.04308,-0.44541 0.04308,-0.19674 0.12398,-0.33033 0.0809,-0.1355 0.19886,-0.20601 0.118958,-0.0705 0.270024,-0.0705 0.129004,0 0.228434,0.0519 0.100693,0.052 0.173077,0.14292 0.07238,0.0891 0.116728,0.21156 0.04534,0.12248 0.06261,0.26354 l -0.347368,0.026 q -0.01504,-0.15406 -0.07365,-0.24497 -0.05885,-0.0928 -0.166819,-0.0928 -0.138752,0 -0.202621,0.17262 -0.06387,0.17259 -0.06387,0.50108 0,0.69409 0.271254,0.69409 0.09817,0 0.164563,-0.0928 0.06637,-0.0946 0.08216,-0.28024 l 0.346141,0.0242 q -0.01262,0.13919 -0.05635,0.26725 -0.04308,0.12618 -0.117965,0.22456 -0.07365,0.0965 -0.179093,0.15592 -0.10569,0.0575 -0.241944,0.0575 z m -1.250771,-2.40704 v -0.38416 h 0.344916 v 0.38416 z m 0,2.36993 v -2.00804 h 0.344916 v 2.00804 z m -0.676332,0 v -1.12651 q 0,-0.11689 -0.01262,-0.21342 -0.01262,-0.0984 -0.04058,-0.16703 -0.02831,-0.0705 -0.07365,-0.10948 -0.04534,-0.039 -0.110443,-0.039 -0.06261,0 -0.114203,0.0427 -0.05033,0.0408 -0.08716,0.1188 -0.03682,0.0761 -0.05761,0.18374 -0.02014,0.10577 -0.02014,0.23383 v 1.0764 h -0.34471 v -1.55892 q 0,-0.0649 -0.0012,-0.1336 0,-0.0687 -0.0025,-0.12994 -0.0012,-0.0631 -0.0025,-0.11133 -0.0012,-0.0501 -0.0025,-0.0742 h 0.328962 q 0.0025,0.0223 0.0051,0.0724 0.0025,0.0482 0.0051,0.10762 0.0025,0.0594 0.0025,0.1188 0.0025,0.0594 0.0025,0.10021 h 0.0051 q 0.06989,-0.23012 0.175574,-0.33404 0.105448,-0.10392 0.25164,-0.10392 0.12022,0 0.202621,0.0594 0.0834,0.0594 0.134993,0.16333 0.05286,0.10392 0.07614,0.24498 0.02256,0.14106 0.02256,0.30435 v 1.27497 z m -2.071971,-2.00803 v 1.1265 q 0,0.11694 0.01262,0.21527 0.01262,0.0965 0.04058,0.16704 0.02831,0.0687 0.07238,0.10762 0.04534,0.039 0.11047,0.039 0.06261,0 0.112968,-0.0408 0.0516,-0.0427 0.08842,-0.1188 0.03682,-0.0779 0.05635,-0.18374 0.02014,-0.10762 0.02014,-0.23568 v -1.07639 h 0.344917 v 1.55891 q 0,0.0631 0,0.1336 0.0012,0.0686 0.0025,0.1318 0.0025,0.0612 0.0025,0.11132 0.0025,0.0482 0.0025,0.0724 h -0.32896 q -0.0012,-0.0223 -0.0051,-0.0705 -0.0025,-0.0501 -0.0051,-0.10947 -0.0012,-0.0594 -0.0025,-0.1188 -0.0012,-0.0594 -0.0012,-0.10021 h -0.0051 q -0.06862,0.22827 -0.175576,0.33219 -0.105447,0.10391 -0.251639,0.10391 -0.118957,0 -0.202622,-0.0594 -0.0834,-0.0594 -0.136254,-0.16147 -0.05159,-0.10392 -0.07488,-0.24498 -0.02256,-0.14106 -0.02256,-0.30435 v -1.27497 z m -0.99302,2.00804 v -1.58491 q 0,-0.0946 0.0012,-0.19486 0.0025,-0.10021 0.0051,-0.18373 0.0025,-0.0984 0.0051,-0.19116 -0.02578,0.14662 -0.0491,0.27837 -0.0099,0.0557 -0.02014,0.11504 -0.0099,0.0594 -0.02256,0.11503 -0.0099,0.0557 -0.02014,0.10395 -0.0099,0.0482 -0.01746,0.0835 l -0.311781,1.4587 h -0.257763 l -0.311778,-1.4587 q -0.0075,-0.0352 -0.01746,-0.0835 -0.0075,-0.0482 -0.02014,-0.10395 -0.0099,-0.0557 -0.02014,-0.11503 -0.0099,-0.0594 -0.02256,-0.11504 -0.02498,-0.13177 -0.05159,-0.27837 0.0025,0.10762 0.0075,0.21157 0.0025,0.0891 0.0051,0.18744 0.0025,0.0983 0.0025,0.17074 v 1.58491 h -0.321598 v -2.61491 h 0.484851 l 0.309326,1.46242 q 0.01262,0.0575 0.02578,0.14106 0.01504,0.0835 0.02831,0.16147 0.01504,0.0909 0.0318,0.18931 0.01746,-0.0965 0.03306,-0.1856 0.0075,-0.039 0.01504,-0.0798 0.0075,-0.0408 0.01504,-0.0798 0.0075,-0.039 0.01504,-0.0742 0.0075,-0.0352 0.01262,-0.0631 l 0.304417,-1.47169 h 0.482395 v 2.6149 z m -2.98151,0.0371 q -0.143506,0 -0.258999,-0.0631 -0.114203,-0.0649 -0.195101,-0.19489 -0.0809,-0.13174 -0.12398,-0.32847 -0.04308,-0.1986 -0.04308,-0.46397 0,-0.28765 0.05033,-0.48438 0.05159,-0.19674 0.137516,-0.31734 0.08716,-0.1225 0.200125,-0.17633 0.112967,-0.0538 0.238182,-0.0538 0.157043,0 0.267567,0.0835 0.111705,0.0816 0.182827,0.23013 0.07112,0.14848 0.104453,0.35631 0.03306,0.206 0.03306,0.45654 v 0.0148 h -0.85185 q 0,0.12618 0.01504,0.23569 0.01504,0.10762 0.04784,0.18744 0.03306,0.0779 0.08592,0.12433 0.05286,0.0445 0.12774,0.0445 0.09092,0 0.148528,-0.0575 0.05761,-0.0594 0.08216,-0.18188 l 0.325277,0.0427 q -0.02256,0.0854 -0.06261,0.18188 -0.03932,0.0965 -0.105689,0.17819 -0.06637,0.0798 -0.165799,0.13364 -0.09817,0.052 -0.239445,0.052 z m 0,-1.75378 q -0.05286,0 -0.09943,0.028 -0.04534,0.026 -0.0799,0.0854 -0.03306,0.0575 -0.05409,0.15033 -0.02014,0.0928 -0.02256,0.22271 h 0.515534 q -0.0099,-0.24312 -0.07741,-0.36373 -0.06763,-0.12247 -0.181591,-0.12247 z m -1.220116,1.71666 q -0.0025,-0.0148 -0.0051,-0.052 -0.0025,-0.039 -0.0051,-0.0872 -0.0025,-0.0482 -0.0051,-0.0984 -0.0012,-0.0501 -0.0012,-0.0891 h -0.0051 q -0.06011,0.19486 -0.168055,0.28023 -0.106709,0.0835 -0.256554,0.0835 -0.125242,0 -0.217153,-0.0779 -0.09092,-0.0779 -0.151026,-0.21712 -0.05885,-0.13919 -0.08842,-0.32848 -0.02831,-0.19115 -0.02831,-0.41571 0,-0.22827 0.02954,-0.41942 0.03081,-0.19116 0.09317,-0.32848 0.06261,-0.13915 0.158306,-0.21713 0.09693,-0.0779 0.229427,-0.0779 0.06513,0 0.125242,0.0204 0.06011,0.0204 0.111705,0.0631 0.05159,0.0427 0.09341,0.10948 0.04182,0.0668 0.07112,0.16147 h 0.0025 q 0,-0.0185 -0.0012,-0.0538 0,-0.0371 0,-0.0835 0,-0.0464 -0.0012,-0.0965 0,-0.0501 0,-0.0965 v -0.73306 h 0.344917 v 2.31611 q 0,0.14662 0.0025,0.26168 0.0025,0.11318 0.0051,0.17633 z m -0.01504,-1.01515 q 0,-0.19859 -0.02498,-0.32847 -0.02498,-0.13177 -0.06513,-0.20786 -0.03932,-0.0779 -0.09092,-0.10762 -0.05033,-0.0314 -0.103191,-0.0314 -0.06637,0 -0.117722,0.039 -0.05033,0.039 -0.08592,0.12247 -0.03432,0.0835 -0.05286,0.21342 -0.01746,0.12992 -0.01746,0.31363 0,0.68296 0.271254,0.68296 0.0516,0 0.103191,-0.0333 0.0516,-0.0333 0.09218,-0.11324 0.04058,-0.0798 0.06513,-0.21342 0.02578,-0.1355 0.02578,-0.33589 z m -2.218934,1.01515 v -1.12651 q 0,-0.11689 -0.01262,-0.21342 -0.01262,-0.0984 -0.04058,-0.16703 -0.02831,-0.0705 -0.07365,-0.10948 -0.04534,-0.039 -0.110443,-0.039 -0.06261,0 -0.114203,0.0427 -0.05033,0.0408 -0.08716,0.1188 -0.03682,0.0761 -0.05761,0.18374 -0.02014,0.10577 -0.02014,0.23383 v 1.0764 H 84.57567 v -1.55892 q 0,-0.0649 -0.0012,-0.1336 0,-0.0687 -0.0025,-0.12994 -0.0012,-0.0631 -0.0025,-0.11133 -0.0012,-0.0501 -0.0025,-0.0742 h 0.32896 q 0.0025,0.0223 0.0051,0.0724 0.0025,0.0482 0.0051,0.10762 0.0025,0.0594 0.0025,0.1188 0.0025,0.0594 0.0025,0.10021 h 0.0051 q 0.06989,-0.23013 0.175576,-0.33404 0.105689,-0.10392 0.251639,-0.10392 0.120219,0 0.202622,0.0594 0.0834,0.0594 0.134991,0.16333 0.05286,0.10391 0.07614,0.24498 0.02256,0.14106 0.02256,0.30435 v 1.27497 z m -1.135408,-1.00587 q 0,0.23012 -0.04308,0.42128 -0.04182,0.19115 -0.126477,0.33033 -0.08466,0.13736 -0.211135,0.21527 -0.126479,0.0761 -0.294574,0.0761 -0.162065,0 -0.286007,-0.0761 -0.12398,-0.0761 -0.208638,-0.21342 -0.0834,-0.13735 -0.126478,-0.32847 -0.04308,-0.19301 -0.04308,-0.42499 0,-0.22457 0.04058,-0.41385 0.04182,-0.19116 0.125242,-0.33033 0.0834,-0.13918 0.209901,-0.21715 0.126477,-0.0779 0.295824,-0.0779 0.179335,0 0.305617,0.0779 0.126477,0.0779 0.20614,0.21715 0.0809,0.13735 0.117722,0.32847 0.03809,0.1893 0.03809,0.41572 z m -0.360895,0 q 0,-0.35816 -0.07741,-0.51964 -0.07741,-0.16147 -0.224673,-0.16147 -0.152289,0 -0.233187,0.16332 -0.0809,0.16333 -0.0809,0.51779 0,0.18003 0.02014,0.30991 0.02256,0.12992 0.06137,0.21343 0.03932,0.0835 0.09443,0.12432 0.05511,0.039 0.121482,0.039 0.07614,0 0.134992,-0.039 0.06011,-0.0408 0.100693,-0.12432 0.04058,-0.0835 0.06137,-0.21343 0.02014,-0.12991 0.02014,-0.30991 z m -0.505714,-1.1896 v -0.0575 l 0.309323,-0.53449 h 0.316688 v 0.0798 l -0.417325,0.51221 z m -1.092424,-0.17446 v -0.38416 h 0.344916 v 0.38416 z m 0,2.36993 v -2.00804 h 0.344916 v 2.00804 z m -0.845721,0.0371 q -0.158306,0 -0.277413,-0.0742 -0.117722,-0.0742 -0.196364,-0.20971 -0.07864,-0.13551 -0.117722,-0.32477 -0.03932,-0.19115 -0.03932,-0.42127 0,-0.25054 0.04308,-0.44541 0.04308,-0.19674 0.123979,-0.33033 0.0809,-0.1355 0.198862,-0.20601 0.118957,-0.0705 0.270051,-0.0705 0.129002,0 0.228164,0.0519 0.100694,0.052 0.173078,0.14292 0.07238,0.0891 0.116728,0.21157 0.04534,0.12247 0.06261,0.26353 l -0.347371,0.0261 q -0.01504,-0.15406 -0.07365,-0.24498 -0.05885,-0.0928 -0.166819,-0.0928 -0.138752,0 -0.202622,0.17262 -0.06387,0.1726 -0.06387,0.50108 0,0.69409 0.271281,0.69409 0.09817,0 0.164563,-0.0928 0.06637,-0.0946 0.08216,-0.28023 l 0.346141,0.0242 q -0.01262,0.13918 -0.05635,0.26725 -0.04284,0.12618 -0.117722,0.22456 -0.07365,0.0965 -0.179336,0.15592 -0.105446,0.0575 -0.241701,0.0575 z m -1.64603,0 q -0.09567,0 -0.171815,-0.039 -0.07488,-0.0408 -0.12774,-0.11694 -0.05286,-0.0779 -0.08114,-0.19116 -0.02831,-0.11318 -0.02831,-0.25795 0,-0.17818 0.04058,-0.29878 0.04182,-0.12248 0.112968,-0.19674 0.07112,-0.0761 0.166819,-0.10948 0.09567,-0.0352 0.203885,-0.0371 l 0.286007,-0.008 v -0.10206 q 0,-0.10948 -0.01262,-0.18189 -0.01262,-0.0742 -0.03682,-0.12065 -0.02498,-0.0464 -0.06137,-0.0649 -0.03556,-0.0204 -0.08216,-0.0204 -0.04308,0 -0.07741,0.0129 -0.03306,0.0129 -0.05761,0.0464 -0.02498,0.0314 -0.04058,0.0872 -0.01504,0.0538 -0.02014,0.13736 l -0.359667,-0.026 q 0.01504,-0.13174 0.05409,-0.2394 0.03932,-0.10947 0.107945,-0.1893 0.06989,-0.0798 0.17058,-0.12247 0.101929,-0.0445 0.238183,-0.0445 0.12398,0 0.220913,0.0464 0.09693,0.0464 0.164563,0.13921 0.06763,0.0909 0.103191,0.22456 0.03556,0.13365 0.03556,0.30992 v 0.73121 q 0,0.0705 0.0025,0.12618 0.0051,0.0557 0.01504,0.0946 0.01262,0.0371 0.03306,0.0575 0.02256,0.0185 0.05635,0.0185 0.03932,0 0.07614,-0.011 v 0.28208 q -0.03081,0.011 -0.05536,0.0204 -0.02498,0.009 -0.0491,0.0148 -0.02498,0.006 -0.05286,0.009 -0.02705,0.004 -0.06387,0.004 -0.130237,0 -0.192603,-0.0965 -0.06137,-0.0965 -0.07365,-0.28393 h -0.0075 q -0.06862,0.18748 -0.176842,0.29139 -0.106683,0.10392 -0.260207,0.10392 z m 0.401368,-0.9669 -0.176837,0.004 q -0.05536,0.004 -0.105689,0.0148 -0.0491,0.009 -0.08716,0.0427 -0.03682,0.0314 -0.05885,0.0928 -0.02256,0.0612 -0.02256,0.16703 0,0.14292 0.04308,0.21342 0.04432,0.0686 0.116701,0.0686 0.06637,0 0.120219,-0.0427 0.05409,-0.0427 0.09092,-0.11133 0.03806,-0.0705 0.05885,-0.16147 0.02014,-0.0909 0.02014,-0.1856 z M 78.8468,174.87861 v -0.38417 h 0.344941 v 0.38417 z m 0,2.36992 v -2.00803 h 0.344941 v 2.00803 z m -0.845721,0.0371 q -0.158278,0 -0.277388,-0.0742 -0.117722,-0.0742 -0.196364,-0.20971 -0.07864,-0.1355 -0.117722,-0.32476 -0.03932,-0.19115 -0.03932,-0.42128 0,-0.25054 0.04308,-0.4454 0.04308,-0.19674 0.12398,-0.33033 0.0809,-0.13551 0.198862,-0.20601 0.118957,-0.0705 0.270024,-0.0705 0.129002,0 0.228433,0.0519 0.100693,0.052 0.173077,0.14292 0.07238,0.0891 0.11646,0.21156 0.04534,0.12247 0.06261,0.26354 l -0.347371,0.0261 q -0.01504,-0.15406 -0.07365,-0.24498 -0.05885,-0.0928 -0.166819,-0.0928 -0.138752,0 -0.202622,0.17262 -0.06387,0.1726 -0.06387,0.50108 0,0.69409 0.271254,0.69409 0.09817,0 0.164563,-0.0928 0.06637,-0.0946 0.08216,-0.28023 l 0.346144,0.0242 q -0.01262,0.13918 -0.05635,0.26724 -0.04308,0.12619 -0.117721,0.22457 -0.07365,0.0965 -0.179094,0.15592 -0.105689,0.0575 -0.241943,0.0575 z m -0.828537,-1.04299 q 0,0.23013 -0.04308,0.42129 -0.04182,0.19115 -0.126478,0.33033 -0.08466,0.13735 -0.211136,0.21527 -0.126477,0.0761 -0.294597,0.0761 -0.162038,0 -0.286004,-0.0761 -0.12398,-0.0761 -0.208639,-0.21342 -0.0834,-0.13736 -0.126477,-0.32847 -0.04308,-0.19301 -0.04308,-0.425 0,-0.22456 0.04058,-0.41385 0.04182,-0.19115 0.125242,-0.33033 0.0834,-0.13918 0.209901,-0.21715 0.126477,-0.0779 0.295824,-0.0779 0.179094,0 0.305644,0.0779 0.126477,0.0779 0.20614,0.21715 0.0809,0.13736 0.117722,0.32848 0.03806,0.1893 0.03806,0.41571 z m -0.36087,0 q 0,-0.35816 -0.07741,-0.51963 -0.07741,-0.16148 -0.224673,-0.16148 -0.152289,0 -0.233187,0.16333 -0.08114,0.16333 -0.08114,0.51778 0,0.18003 0.02014,0.30992 0.02256,0.12992 0.06137,0.21342 0.03932,0.0835 0.09444,0.12433 0.05536,0.039 0.121482,0.039 0.07614,0 0.134992,-0.039 0.06011,-0.0408 0.100693,-0.12433 0.04058,-0.0835 0.06137,-0.21342 0.02014,-0.12991 0.02014,-0.30992 z m -1.180819,0.41943 q 0,0.14477 -0.04058,0.2598 -0.03932,0.11504 -0.115466,0.19674 -0.07614,0.0798 -0.186587,0.12433 -0.110443,0.0427 -0.251639,0.0427 -0.126478,0 -0.228165,-0.028 -0.101928,-0.028 -0.179335,-0.0909 -0.07614,-0.0649 -0.12774,-0.16703 -0.0516,-0.10206 -0.07741,-0.25239 l 0.303186,-0.0686 q 0.01504,0.0835 0.04058,0.13545 0.02578,0.0519 0.06387,0.0798 0.03806,0.028 0.08842,0.0371 0.05159,0.009 0.116728,0.009 0.05885,0 0.109207,-0.009 0.0516,-0.011 0.08842,-0.0352 0.03809,-0.0261 0.05885,-0.0705 0.02014,-0.0464 0.02014,-0.11504 0,-0.0779 -0.03057,-0.12247 -0.02954,-0.0464 -0.08216,-0.0742 -0.05159,-0.0295 -0.122717,-0.0501 -0.06989,-0.0223 -0.149791,-0.0501 -0.0834,-0.028 -0.164563,-0.0668 -0.0809,-0.039 -0.144768,-0.10577 -0.06387,-0.0668 -0.103192,-0.16889 -0.03932,-0.10392 -0.03932,-0.26168 0,-0.14292 0.03682,-0.25425 0.03682,-0.11323 0.107945,-0.19115 0.07112,-0.0798 0.175575,-0.12065 0.105447,-0.0427 0.241701,-0.0427 0.107945,0 0.201387,0.0314 0.09341,0.0295 0.167061,0.0965 0.07365,0.0649 0.122717,0.16703 0.05033,0.10207 0.06989,0.24683 l -0.305644,0.0482 q -0.0075,-0.0724 -0.03081,-0.11879 -0.02256,-0.0482 -0.05536,-0.0761 -0.0318,-0.028 -0.07488,-0.0371 -0.04308,-0.011 -0.09443,-0.011 -0.122718,0 -0.18409,0.0482 -0.06137,0.0464 -0.06137,0.15776 0,0.0687 0.02498,0.10948 0.02578,0.0408 0.07112,0.0686 0.04657,0.0261 0.109207,0.0464 0.06387,0.0185 0.138752,0.0464 0.09191,0.0295 0.180329,0.0705 0.08968,0.039 0.158305,0.10953 0.06989,0.0687 0.111706,0.17818 0.04308,0.10948 0.04308,0.27837 z m -1.720919,0.58645 -0.153525,-0.66811 h -0.659184 l -0.153525,0.66811 h -0.362095 l 0.630921,-2.6149 h 0.427166 l 0.628443,2.6149 z m -0.405089,-1.83173 q -0.01504,-0.065 -0.02954,-0.12989 -0.01262,-0.0668 -0.02498,-0.12065 -0.0099,-0.0557 -0.01746,-0.0909 -0.0051,-0.0352 -0.0075,-0.039 -0.0012,0.006 -0.0075,0.0408 -0.0051,0.0352 -0.01746,0.0891 -0.0099,0.0538 -0.02498,0.12065 -0.01262,0.0649 -0.02831,0.12989 l -0.170553,0.75162 h 0.497122 z"
         style="font-style:normal;font-variant:normal;font-weight:bold;font-stretch:normal;font-size:1.00367332px;line-height:1.25;font-family:Arial;-inkscape-font-specification:'Arial Bold';text-align:center;letter-spacing:0px;word-spacing:0px;text-anchor:middle;fill:#000061;fill-opacity:1;stroke:none;stroke-width:0.08319096"
         id="path12028"
         inkscape:connector-curvature="0" />
    </g>
  </g>
</svg>
