<?xml version="1.0" encoding="UTF-8" standalone="no"?>
<!-- Created with Inkscape (http://www.inkscape.org/) -->

<svg
   xmlns:dc="http://purl.org/dc/elements/1.1/"
   xmlns:cc="http://creativecommons.org/ns#"
   xmlns:rdf="http://www.w3.org/1999/02/22-rdf-syntax-ns#"
   xmlns:svg="http://www.w3.org/2000/svg"
   xmlns="http://www.w3.org/2000/svg"
   xmlns:xlink="http://www.w3.org/1999/xlink"
   xmlns:sodipodi="http://sodipodi.sourceforge.net/DTD/sodipodi-0.dtd"
   xmlns:inkscape="http://www.inkscape.org/namespaces/inkscape"
   width="50.000019mm"
   height="50mm"
   viewBox="0 0 50.000019 50"
   version="1.1"
   id="svg7924"
   inkscape:version="0.92.4 (5da689c313, 2019-01-14)"
   sodipodi:docname="amdepando.svg">
  <defs
     id="defs7918">
    <linearGradient
       inkscape:collect="always"
       xlink:href="#linearGradient7878"
       id="linearGradient7825"
       gradientUnits="userSpaceOnUse"
       x1="-34.026089"
       y1="25.76549"
       x2="-34.026089"
       y2="24.276157" />
    <linearGradient
       id="linearGradient7878"
       inkscape:collect="always">
      <stop
         style="stop-color:#002b00;stop-opacity:1"
         id="stop7874"
         offset="0" />
      <stop
         style="stop-color:#00ff00;stop-opacity:1"
         id="stop7876"
         offset="1" />
    </linearGradient>
    <filter
       inkscape:collect="always"
       style="color-interpolation-filters:sRGB"
       id="filter7888"
       x="-0.014516431"
       width="1.0290329"
       y="-0.1455579"
       height="1.2911158">
      <feGaussianBlur
         inkscape:collect="always"
         stdDeviation="0.10118996"
         id="feGaussianBlur7890" />
    </filter>
    <linearGradient
       inkscape:collect="always"
       xlink:href="#linearGradient3293"
       id="linearGradient3295"
       x1="-34.026089"
       y1="25.76549"
       x2="-34.026089"
       y2="24.276157"
       gradientUnits="userSpaceOnUse" />
    <linearGradient
       inkscape:collect="always"
       id="linearGradient3293">
      <stop
         offset="0"
         id="stop3289"
         style="stop-color:#006000;stop-opacity:1" />
      <stop
         offset="1"
         id="stop3291"
         style="stop-color:#00ff00;stop-opacity:1" />
    </linearGradient>
  </defs>
  <sodipodi:namedview
     id="base"
     pagecolor="#ffffff"
     bordercolor="#666666"
     borderopacity="1.0"
     inkscape:pageopacity="0.0"
     inkscape:pageshadow="2"
     inkscape:zoom="2.2455567"
     inkscape:cx="-6.1389387"
     inkscape:cy="91.613385"
     inkscape:document-units="mm"
     inkscape:current-layer="layer1"
     showgrid="false"
     fit-margin-top="0"
     fit-margin-left="0"
     fit-margin-right="0"
     fit-margin-bottom="0"
     inkscape:window-width="1920"
     inkscape:window-height="971"
     inkscape:window-x="0"
     inkscape:window-y="31"
     inkscape:window-maximized="1" />
  <metadata
     id="metadata7921">
    <rdf:RDF>
      <cc:Work
         rdf:about="">
        <dc:format>image/svg+xml</dc:format>
        <dc:type
           rdf:resource="http://purl.org/dc/dcmitype/StillImage" />
        <dc:title></dc:title>
      </cc:Work>
    </rdf:RDF>
  </metadata>
  <g
     inkscape:label="Layer 1"
     inkscape:groupmode="layer"
     id="layer1"
     transform="translate(285.05989,-98.96432)">
    <path
       id="path656"
       style="fill:none;fill-opacity:1;stroke:#000000;stroke-width:0.13608915;stroke-opacity:1"
       d="m -235.23223,121.31757 -23.46522,20.70988 -0.0561,-41.27195 z m -48.52316,0.15467 23.45738,-20.70299 0.0561,41.2582 z"
       inkscape:connector-curvature="0" />
    <path
       inkscape:connector-curvature="0"
       d="m -240.26717,144.59877 0.12121,-0.0501 0.25062,-0.72703 h -0.17128 z m 0.30923,0 0.12121,-0.0501 0.25062,-0.72703 h -0.17128 z m -1.90022,1.73401 0.32171,-0.12115 0.31341,-1.19082 c 0.142,-0.10446 0.23804,-0.14624 0.35095,-0.14624 0.0919,0 0.14611,0.0334 0.22136,0.12952 l 0.1253,-0.39695 c -0.0793,-0.0252 -0.11272,-0.0334 -0.15458,-0.0334 -0.0752,0 -0.16307,0.0376 -0.27575,0.11699 l -0.24651,0.17968 c 0.003,-0.0334 0.0137,-0.0543 0.0137,-0.0669 0.0334,-0.13787 0.0375,-0.16296 0.0375,-0.18384 0,-0.0252 -0.0246,-0.046 -0.0542,-0.046 -0.0542,0 -0.42201,0.17968 -0.6769,0.33426 l -0.0137,0.11281 c 0.22572,-0.117 0.25062,-0.12534 0.30082,-0.12534 0.0544,0 0.0793,0.0292 0.0793,0.0877 0,0.0585 -0.0419,0.25485 -0.0919,0.43454 z m -0.54898,-1.75907 c -0.16718,0 -0.43457,0.12115 -0.68107,0.305 -0.2673,0.20058 -0.45547,0.63511 -0.45547,1.04877 0,0.25486 0.142,0.41783 0.36352,0.41783 0.1171,0 0.23393,-0.0417 0.42619,-0.14206 0.20903,-0.11699 0.34683,-0.22146 0.42203,-0.32173 0.16718,-0.22564 0.30084,-0.6351 0.30084,-0.92341 0,-0.22564 -0.15459,-0.3844 -0.37604,-0.3844 z m -0.21725,0.19639 c 0.16717,0 0.27169,0.16296 0.27169,0.41366 0,0.17548 -0.0585,0.39276 -0.16307,0.59749 -0.1171,0.23818 -0.26731,0.3677 -0.4262,0.3677 -0.17127,0 -0.27992,-0.15462 -0.27992,-0.39277 0,-0.48468 0.30501,-0.98608 0.5975,-0.98608 z m -0.93888,-0.76883 c -0.0164,-0.0252 -0.0293,-0.0501 -0.0334,-0.0627 -0.0246,-0.0417 -0.0419,-0.071 -0.05,-0.0836 l -0.0377,-0.0836 -0.0219,-0.0543 -0.0246,0.0167 -0.0334,0.0291 c -0.0164,0.0126 -0.0375,0.0292 -0.0542,0.046 -0.0377,0.0292 -0.046,0.0334 -0.0752,0.0543 -0.0293,0.0252 -0.0419,0.0334 -0.10042,0.071 0.0293,0.0919 0.0752,0.17549 0.15869,0.29249 0.10042,-0.0919 0.12942,-0.11699 0.18797,-0.16296 z m -1.82174,3.29671 c 0.0878,0.021 0.12941,0.0252 0.20465,0.0252 0.20466,0 0.30921,-0.0543 0.52229,-0.25905 0.38023,-0.37187 0.39276,-0.40112 0.62259,-1.30364 0.22983,-0.92341 0.27169,-1.09054 0.27169,-1.1365 0,-0.0292 -0.0293,-0.0501 -0.0627,-0.0501 -0.0668,0 -0.0711,0 -0.66018,0.36769 l -0.008,0.12116 c 0.0627,-0.0334 0.0834,-0.0417 0.14611,-0.0794 0.096,-0.0543 0.12121,-0.0668 0.15048,-0.0668 0.0246,0 0.0501,0.0252 0.0501,0.0501 0,0.0543 -0.10041,0.50558 -0.19645,0.8858 -0.27995,1.11145 -0.3301,1.21173 -0.6184,1.21173 -0.0542,0 -0.0627,0 -0.22572,-0.0167 z m 0.72349,-1.57941 c -0.31339,0.27161 -0.51394,0.38858 -0.67271,0.38858 -0.10452,0 -0.19207,-0.071 -0.22135,-0.17967 -0.0164,-0.0668 -0.0219,-0.11281 -0.0219,-0.23399 0.18797,-0.11699 0.31339,-0.20474 0.55991,-0.38859 0.22572,-0.17133 0.31335,-0.30918 0.31335,-0.49722 0,-0.14624 -0.0919,-0.23399 -0.23803,-0.23399 -0.0919,0 -0.15869,0.021 -0.255,0.0752 -0.15869,0.0919 -0.30083,0.20474 -0.3886,0.30501 -0.15869,0.19218 -0.30083,0.65182 -0.30083,0.99027 0,0.24652 0.12969,0.40112 0.34263,0.40112 0.24653,0 0.55154,-0.17549 0.88161,-0.50558 z m -0.90252,-0.17549 c 0.0712,-0.44708 0.26321,-0.79389 0.44292,-0.79389 0.0711,0 0.1171,0.071 0.1171,0.17131 0,0.2089 -0.11272,0.33426 -0.55991,0.62257 z m -2.59115,0.67688 0.26732,-1.01533 c 0.27989,-0.18802 0.45123,-0.28832 0.50554,-0.28832 0.0334,0 0.0542,0.0376 0.0542,0.0919 0,0.12534 -0.15869,0.76046 -0.33427,1.32453 l 0.31755,-0.11281 0.25911,-1.04458 c 0.24241,-0.15462 0.46797,-0.27993 0.51812,-0.27993 0.0334,0 0.0544,0.0291 0.0544,0.0794 0,0.0919 -0.0377,0.26326 -0.15048,0.71031 -0.0668,0.25905 -0.0878,0.36352 -0.0878,0.45962 0,0.0877 0.0246,0.1337 0.10042,0.18802 0.24651,-0.12115 0.45544,-0.25487 0.7103,-0.45544 v -0.0961 c -0.0419,0.021 -0.0878,0.0501 -0.142,0.0877 -0.15048,0.0961 -0.22135,0.12953 -0.27169,0.12953 -0.046,0 -0.0752,-0.0417 -0.0752,-0.1128 0,-0.0919 0.0542,-0.3301 0.1379,-0.62258 0.12531,-0.43037 0.15869,-0.56408 0.15869,-0.62675 0,-0.0418 -0.0246,-0.0627 -0.0668,-0.0627 -0.0752,0 -0.33427,0.1337 -0.84402,0.43454 0.0137,-0.046 0.0165,-0.0794 0.0219,-0.0961 0.05,-0.20889 0.0627,-0.26742 0.0627,-0.29249 0,-0.0291 -0.0219,-0.046 -0.0542,-0.046 -0.0627,0 -0.27995,0.117 -0.6978,0.38441 l -0.13379,0.0836 c 0.0752,-0.30501 0.0919,-0.38023 0.0919,-0.40948 0,-0.0334 -0.0246,-0.0585 -0.0627,-0.0585 -0.0501,0 -0.38023,0.17968 -0.65181,0.35098 l -0.0293,0.117 c 0.22983,-0.11281 0.26321,-0.12534 0.30923,-0.12534 0.0375,0 0.0627,0.0334 0.0627,0.0794 0,0.0669 -0.15048,0.68524 -0.32591,1.33706 z m -2.76196,-0.27576 c -0.003,0.0376 -0.008,0.071 -0.008,0.0961 0,0.17967 0.12531,0.30501 0.3092,0.30501 0.12969,0 0.30923,-0.0543 0.44292,-0.12953 0.24651,-0.14205 0.39694,-0.35516 0.39694,-0.56408 0,-0.15461 -0.0293,-0.18802 -0.26321,-0.33426 -0.142,-0.0919 -0.20055,-0.17133 -0.20055,-0.27994 0,-0.14206 0.12121,-0.26742 0.26321,-0.26742 0.096,0 0.16717,0.046 0.2591,0.16296 0.142,-0.1379 0.142,-0.1379 0.19645,-0.21728 -0.0837,-0.10027 -0.16307,-0.14205 -0.27992,-0.14205 -0.30502,0 -0.6978,0.36351 -0.6978,0.63928 0,0.12953 0.0668,0.2298 0.22572,0.34262 0.20876,0.14624 0.23803,0.18384 0.23803,0.28832 0,0.15043 -0.19207,0.32591 -0.35514,0.32591 -0.0919,0 -0.16306,-0.0501 -0.20465,-0.14206 -0.0293,-0.0627 -0.0375,-0.12533 -0.0419,-0.26742 -0.046,0.0334 -0.0793,0.0543 -0.096,0.0669 -0.0334,0.021 -0.0711,0.0418 -0.10862,0.0669 z m -0.35259,-1.37049 c -0.16718,0 -0.43454,0.12115 -0.68109,0.305 -0.26731,0.20058 -0.45541,0.63511 -0.45541,1.04877 0,0.25485 0.142,0.41783 0.36351,0.41783 0.1171,0 0.23393,-0.0417 0.42619,-0.14206 0.20877,-0.11699 0.3468,-0.22146 0.42201,-0.32173 0.16717,-0.22564 0.30083,-0.63511 0.30083,-0.92341 0,-0.22565 -0.15459,-0.38441 -0.37604,-0.3844 z m -0.21724,0.19639 c 0.16717,0 0.27169,0.16296 0.27169,0.41366 0,0.17548 -0.0586,0.39276 -0.16308,0.59749 -0.1171,0.23818 -0.2673,0.3677 -0.42619,0.3677 -0.17128,0 -0.27993,-0.15462 -0.27993,-0.39277 0,-0.48468 0.30502,-0.98608 0.59751,-0.98608 z m -3.18865,1.44988 0.2673,-1.01533 c 0.27996,-0.18803 0.45126,-0.28832 0.50557,-0.28832 0.0334,0 0.0544,0.0376 0.0544,0.0919 0,0.12533 -0.15869,0.76045 -0.33426,1.32453 l 0.31755,-0.11281 0.2591,-1.04457 c 0.24242,-0.15462 0.46798,-0.27995 0.51813,-0.27995 0.0334,0 0.0542,0.0292 0.0542,0.0794 0,0.0919 -0.0377,0.26323 -0.15048,0.71032 -0.0668,0.25904 -0.0878,0.3635 -0.0878,0.45961 0,0.0877 0.0246,0.13371 0.10041,0.18802 0.24652,-0.12115 0.45545,-0.25486 0.71031,-0.45544 v -0.0961 c -0.0419,0.021 -0.0878,0.0501 -0.142,0.0877 -0.15049,0.0961 -0.22135,0.12952 -0.27169,0.12952 -0.046,0 -0.0753,-0.0418 -0.0753,-0.11281 0,-0.0919 0.0542,-0.33008 0.1379,-0.62257 0.12531,-0.43037 0.1587,-0.56407 0.1587,-0.62675 0,-0.0417 -0.0246,-0.0627 -0.0668,-0.0627 -0.0752,0 -0.33427,0.13371 -0.84402,0.43454 0.0137,-0.046 0.0164,-0.0794 0.0219,-0.0961 0.05,-0.2089 0.0627,-0.26742 0.0627,-0.29249 0,-0.0292 -0.0219,-0.046 -0.0542,-0.046 -0.0627,0 -0.27993,0.11699 -0.69777,0.3844 l -0.1338,0.0836 c 0.0752,-0.30501 0.0919,-0.38023 0.0919,-0.40947 0,-0.0334 -0.0246,-0.0585 -0.0627,-0.0585 -0.05,0 -0.38023,0.17968 -0.65181,0.35098 l -0.0293,0.11699 c 0.22983,-0.1128 0.2632,-0.12534 0.30923,-0.12534 0.0375,0 0.0627,0.0334 0.0627,0.0794 0,0.0668 -0.15048,0.68524 -0.32592,1.33706 z m -0.67371,-1.99307 c 0.12121,-0.10864 0.12969,-0.11699 0.27169,-0.22564 -0.0246,-0.0501 -0.046,-0.0836 -0.0544,-0.0961 -0.0246,-0.0501 -0.0293,-0.0543 -0.0627,-0.13371 -0.008,-0.0167 -0.0164,-0.0334 -0.0246,-0.0543 -0.0219,0.0167 -0.046,0.0334 -0.0585,0.046 -0.0164,0.0167 -0.0501,0.0418 -0.0919,0.0752 -0.0219,0.0167 -0.05,0.0376 -0.0878,0.0627 -0.0164,0.0126 -0.0334,0.0252 -0.05,0.0334 0.0293,0.0919 0.0668,0.15877 0.15869,0.29249 z m 0.28833,1.57942 c -0.39694,0.21307 -0.40529,0.21729 -0.45963,0.21729 -0.046,0 -0.0752,-0.046 -0.0752,-0.117 0,-0.0418 0.0137,-0.12115 0.0377,-0.21307 0.21313,-0.87746 0.255,-1.0446 0.255,-1.07802 0,-0.0252 -0.0219,-0.0418 -0.05,-0.0418 -0.0711,0 -0.31755,0.13789 -0.66018,0.36769 l -0.008,0.11699 c 0.24651,-0.13371 0.26731,-0.14205 0.30501,-0.14205 0.0334,0 0.05,0.0252 0.05,0.0752 0,0.0543 -0.0137,0.11281 -0.0752,0.35098 -0.19645,0.73121 -0.19645,0.73121 -0.19645,0.83567 0,0.10027 0.0419,0.16712 0.10041,0.16712 0.0711,0 0.18387,-0.0543 0.4053,-0.19639 0.0793,-0.0501 0.15869,-0.10028 0.23803,-0.15462 0.0375,-0.021 0.0752,-0.046 0.11711,-0.071 z m -2.88281,-0.76882 c 0.17538,-0.0877 0.25499,-0.12115 0.30504,-0.12115 0.0334,0 0.0586,0.0334 0.0586,0.0794 0,0.0543 -0.0419,0.23398 -0.1171,0.51811 -0.10452,0.38859 -0.12942,0.50558 -0.12942,0.62675 0,0.11699 0.05,0.20474 0.11711,0.20474 0.0627,0 0.13789,-0.0376 0.34679,-0.17549 l 0.43035,-0.27994 c -0.0334,0.13371 -0.0585,0.28411 -0.0585,0.35933 0,0.0543 0.0334,0.0961 0.0752,0.0961 0.0837,0 0.48053,-0.23398 0.76464,-0.44708 l 0.0293,-0.12533 c -0.32589,0.19218 -0.43453,0.2507 -0.4805,0.2507 -0.0293,0 -0.046,-0.0334 -0.046,-0.10028 0,-0.21308 0.15458,-0.83566 0.33426,-1.36631 -0.0542,0.0292 -0.0919,0.0501 -0.10862,0.0585 -0.0501,0.0252 -0.10041,0.0501 -0.15458,0.0752 -0.0137,0.004 -0.0377,0.0167 -0.0834,0.0418 -0.0246,0.0961 -0.10863,0.43038 -0.24652,1.00699 -0.32174,0.22146 -0.46798,0.305 -0.5181,0.305 -0.046,0 -0.0793,-0.0585 -0.0793,-0.13789 0,-0.0961 0.0334,-0.26326 0.10452,-0.53065 0.046,-0.16712 0.0752,-0.28411 0.0878,-0.34263 0.0377,-0.15461 0.0668,-0.26326 0.0752,-0.29248 0.0137,-0.046 0.0219,-0.0836 0.0219,-0.11281 0,-0.0334 -0.0219,-0.0543 -0.05,-0.0543 -0.0419,0 -0.34682,0.16296 -0.64766,0.35098 z m -1.22335,1.29529 0.32174,-0.12116 0.31338,-1.19083 c 0.142,-0.10446 0.23803,-0.14621 0.35098,-0.14621 0.0919,0 0.14611,0.0334 0.22135,0.12953 l 0.12531,-0.39694 c -0.0793,-0.0252 -0.11273,-0.0334 -0.15458,-0.0334 -0.0752,0 -0.16308,0.0376 -0.27577,0.117 l -0.24652,0.17968 c 0.003,-0.0334 0.0137,-0.0543 0.0137,-0.0668 0.0334,-0.1379 0.0375,-0.16296 0.0375,-0.18383 0,-0.0252 -0.0246,-0.046 -0.0542,-0.046 -0.0542,0 -0.422,0.17967 -0.67686,0.33426 l -0.0137,0.11281 c 0.22573,-0.11699 0.25062,-0.12534 0.30083,-0.12534 0.0544,0 0.0793,0.0292 0.0793,0.0877 0,0.0585 -0.0419,0.25487 -0.0919,0.43455 z m -0.19754,-0.56826 c -0.31755,0.18802 -0.45126,0.25905 -0.50975,0.25905 -0.0542,0 -0.12121,-0.10865 -0.12121,-0.19639 0,-0.0585 0.0711,-0.38023 0.17976,-0.81896 0.0586,-0.004 0.10014,-0.004 0.1212,-0.004 l 0.16718,-0.004 c 0.0164,0 0.0586,-0.004 0.12531,-0.0125 l 0.15869,-0.12115 h -0.53482 l 0.16717,-0.6769 c -0.0793,0.0418 -0.11272,0.0543 -0.17538,0.0836 -0.0292,0.0167 -0.0627,0.0292 -0.096,0.046 -0.0165,0.008 -0.0375,0.0167 -0.0585,0.0252 l -0.11711,0.52229 c -0.0377,0.004 -0.0627,0.004 -0.0752,0.004 h -0.10042 c -0.008,0 -0.0293,0 -0.0627,0.004 -0.046,0.0292 -0.05,0.0292 -0.12121,0.0877 -0.0137,0.008 -0.0334,0.0252 -0.0627,0.046 h 0.10014 0.19235 0.0919 c -0.22135,0.92759 -0.22135,0.92759 -0.22135,1.05712 0,0.13371 0.0878,0.27994 0.16717,0.27994 0.0919,0 0.37608,-0.17549 0.77718,-0.47633 z m -2.67545,0.17968 c -0.003,0.0376 -0.008,0.071 -0.008,0.0961 0,0.17967 0.12531,0.30501 0.3092,0.30501 0.12942,0 0.3092,-0.0543 0.44291,-0.12953 0.24652,-0.14205 0.39695,-0.35516 0.39695,-0.56408 0,-0.15461 -0.0293,-0.18802 -0.26321,-0.33426 -0.142,-0.0919 -0.20055,-0.17134 -0.20055,-0.27994 0,-0.14206 0.1212,-0.26743 0.2632,-0.26743 0.096,0 0.16718,0.046 0.25911,0.16296 0.142,-0.1379 0.142,-0.1379 0.19645,-0.21727 -0.0835,-0.10027 -0.16307,-0.14205 -0.27995,-0.14205 -0.30499,0 -0.69778,0.36352 -0.69778,0.63928 0,0.12952 0.0668,0.2298 0.22572,0.34263 0.20904,0.14621 0.23831,0.18383 0.23831,0.28831 0,0.15043 -0.19207,0.32591 -0.35516,0.32591 -0.0919,0 -0.16307,-0.0501 -0.20466,-0.14206 -0.0293,-0.0627 -0.0375,-0.12533 -0.0419,-0.26742 -0.046,0.0334 -0.0793,0.0543 -0.096,0.0669 -0.0334,0.021 -0.0711,0.0418 -0.10863,0.0668 z m -1.42037,0.26742 0.24652,-0.98191 c 0.52231,-0.33009 0.53484,-0.33427 0.59334,-0.33427 0.0293,0 0.046,0.0211 0.046,0.0543 0,0.0627 -0.0334,0.22146 -0.15458,0.69779 -0.0919,0.37187 -0.10862,0.4429 -0.10862,0.52229 0,0.0585 0.0164,0.1128 0.0627,0.18802 0.19208,-0.0877 0.48051,-0.26743 0.773,-0.48469 l 0.0293,-0.117 c -0.41786,0.23815 -0.43457,0.24652 -0.47635,0.24652 -0.0419,0 -0.0668,-0.046 -0.0668,-0.1128 0,-0.0877 0.0293,-0.22565 0.10862,-0.51394 0.19644,-0.70196 0.19644,-0.70196 0.19644,-0.73121 0,-0.046 -0.0293,-0.071 -0.0834,-0.071 -0.0627,0 -0.15459,0.0376 -0.30502,0.1337 l -0.57244,0.35516 c 0.0377,-0.13789 0.10015,-0.40112 0.10015,-0.43455 0,-0.0292 -0.0246,-0.0543 -0.0542,-0.0543 -0.046,0 -0.34679,0.15461 -0.656,0.33845 l -0.0246,0.10865 c 0.26731,-0.12116 0.28411,-0.12534 0.32173,-0.12534 0.0293,0 0.05,0.0252 0.05,0.0584 0,0.0877 -0.0793,0.43455 -0.18386,0.81478 l -0.096,0.33845 c -0.008,0.0292 -0.0293,0.10864 -0.0586,0.22563 z m -0.85819,-1.63791 c -0.16717,0 -0.43454,0.12115 -0.68106,0.30501 -0.26731,0.20055 -0.45544,0.63511 -0.45544,1.04876 0,0.25487 0.142,0.41784 0.36351,0.41784 0.1171,0 0.23393,-0.0418 0.4262,-0.14206 0.20903,-0.117 0.34679,-0.22146 0.42201,-0.32173 0.16716,-0.22565 0.30082,-0.63511 0.30082,-0.92342 0,-0.22564 -0.15458,-0.3844 -0.37604,-0.3844 z m -0.21724,0.19639 c 0.16717,0 0.27169,0.16297 0.27169,0.41366 0,0.17549 -0.0586,0.39276 -0.16307,0.5975 -0.1171,0.23818 -0.26731,0.3677 -0.4262,0.3677 -0.17127,0 -0.27992,-0.15462 -0.27992,-0.39277 0,-0.48469 0.30502,-0.98609 0.5975,-0.98609 z m -1.10241,0.99027 c -0.32173,0.2298 -0.54319,0.3468 -0.6769,0.3468 -0.15049,0 -0.23804,-0.11699 -0.23804,-0.31755 0,-0.20056 0.05,-0.46797 0.12942,-0.66436 0.0837,-0.22145 0.19234,-0.33426 0.31338,-0.33426 0.10015,0 0.15459,0.0794 0.17539,0.26326 l 0.24241,-0.14206 c 0.003,-0.021 0.003,-0.0418 0.003,-0.046 0,-0.17968 -0.0919,-0.29249 -0.23832,-0.29249 -0.0752,0 -0.1212,0.0167 -0.27168,0.117 -0.31339,0.19639 -0.38023,0.25904 -0.47216,0.43036 -0.11711,0.22565 -0.20466,0.58079 -0.20466,0.83985 0,0.24236 0.11273,0.3844 0.30504,0.3844 0.20055,0 0.54319,-0.16712 0.92342,-0.45126 z m -3.6812,0.18384 c -0.003,0.0376 -0.008,0.071 -0.008,0.0961 0,0.17968 0.12531,0.30501 0.30921,0.30501 0.12941,0 0.30919,-0.0543 0.44291,-0.12955 0.24651,-0.14205 0.39694,-0.35516 0.39694,-0.56407 0,-0.15462 -0.0293,-0.18803 -0.26321,-0.33427 -0.142,-0.0919 -0.20055,-0.17133 -0.20055,-0.27994 0,-0.14205 0.12121,-0.26742 0.26321,-0.26742 0.096,0 0.16717,0.046 0.2591,0.16296 0.142,-0.1379 0.142,-0.1379 0.19645,-0.21727 -0.0837,-0.10028 -0.16307,-0.14206 -0.27995,-0.14206 -0.30499,0 -0.69777,0.36352 -0.69777,0.63928 0,0.12953 0.0668,0.2298 0.22572,0.34263 0.20876,0.14624 0.23803,0.18384 0.23803,0.28831 0,0.15043 -0.19206,0.32591 -0.35516,0.32591 -0.0919,0 -0.16307,-0.0501 -0.20466,-0.14206 -0.0293,-0.0627 -0.0375,-0.12533 -0.0419,-0.26741 -0.046,0.0334 -0.0793,0.0543 -0.096,0.0668 -0.0334,0.0211 -0.0711,0.0417 -0.10861,0.0669 z m -0.35259,-1.3705 c -0.16718,0 -0.43454,0.12115 -0.68109,0.30501 -0.26731,0.20055 -0.45541,0.63511 -0.45541,1.04876 0,0.25486 0.142,0.41784 0.36351,0.41784 0.1171,0 0.23393,-0.0418 0.42619,-0.14206 0.20877,-0.117 0.3468,-0.22146 0.42201,-0.32173 0.16717,-0.22565 0.30083,-0.63511 0.30083,-0.92342 0,-0.22564 -0.15459,-0.3844 -0.37604,-0.3844 z m -0.21724,0.19639 c 0.16717,0 0.27169,0.16297 0.27169,0.41366 0,0.17549 -0.0585,0.39276 -0.16308,0.5975 -0.11709,0.23818 -0.2673,0.36769 -0.42619,0.36769 -0.17128,0 -0.27993,-0.15461 -0.27993,-0.39276 0,-0.48469 0.30499,-0.98609 0.59751,-0.98609 z m -1.0423,0.97356 c -0.0542,0.0334 -0.096,0.0627 -0.11711,0.0752 -0.22982,0.15878 -0.34679,0.22565 -0.38436,0.22565 -0.0334,0 -0.0585,-0.046 -0.0585,-0.10865 0,-0.1379 0.35095,-1.65044 0.4387,-1.9095 0.0919,-0.2507 0.18387,-0.3468 0.33429,-0.3468 0.0542,0 0.096,0.008 0.19235,0.0334 l 0.1461,-0.23399 c -0.0627,-0.0126 -0.096,-0.0167 -0.13379,-0.0167 -0.10014,0 -0.15459,0.0167 -0.25062,0.071 -0.10452,0.0584 -0.24652,0.16712 -0.36352,0.27577 -0.20465,0.19639 -0.21724,0.22564 -0.32592,0.65599 -0.003,0.0167 -0.0164,0.071 -0.0334,0.13371 -0.0752,-0.0167 -0.1379,-0.0252 -0.17128,-0.0252 -0.12969,0 -0.48887,0.22564 -0.65602,0.40948 -0.142,0.16296 -0.33008,0.7521 -0.33008,1.04041 0,0.15877 0.0835,0.32173 0.15869,0.32173 0.0794,0 0.26321,-0.11282 0.70197,-0.43037 -0.0219,0.10446 -0.0334,0.22564 -0.0334,0.30083 0,0.0836 0.0334,0.12953 0.0919,0.12953 0.0668,0 0.43036,-0.22146 0.77715,-0.47215 z m -0.81896,0.0167 c -0.35514,0.2507 -0.44707,0.305 -0.50557,0.305 -0.0586,0 -0.0878,-0.0627 -0.0878,-0.18383 0,-0.1379 0.0246,-0.29667 0.0752,-0.48051 0.12121,-0.42202 0.28412,-0.63094 0.49725,-0.63094 0.0752,0 0.12969,0.0292 0.21725,0.11282 z m -1.25029,-1.53345 c 0.1212,-0.10865 0.12941,-0.117 0.27169,-0.22564 -0.0246,-0.0501 -0.046,-0.0836 -0.0542,-0.0961 -0.0246,-0.0501 -0.0293,-0.0543 -0.0627,-0.13372 -0.008,-0.0167 -0.0164,-0.0334 -0.0246,-0.0543 -0.0219,0.0167 -0.046,0.0334 -0.0586,0.046 -0.0165,0.0167 -0.05,0.0418 -0.0919,0.0752 -0.0219,0.0167 -0.05,0.0376 -0.0878,0.0627 -0.0164,0.0126 -0.0334,0.0252 -0.05,0.0334 0.0293,0.0919 0.0668,0.15878 0.15869,0.29249 z m 0.28832,1.5794 c -0.39694,0.21309 -0.40529,0.2173 -0.45963,0.2173 -0.046,0 -0.0752,-0.046 -0.0752,-0.11699 0,-0.0418 0.0137,-0.12116 0.0375,-0.21309 0.21314,-0.87745 0.255,-1.04458 0.255,-1.07801 0,-0.0252 -0.0219,-0.0417 -0.0501,-0.0417 -0.0711,0 -0.31755,0.1379 -0.66016,0.36769 l -0.008,0.117 c 0.24652,-0.13371 0.26732,-0.14206 0.30502,-0.14206 0.0334,0 0.05,0.0252 0.05,0.0752 0,0.0543 -0.0137,0.11281 -0.0752,0.35098 -0.19645,0.7312 -0.19645,0.7312 -0.19645,0.83567 0,0.10027 0.0419,0.16711 0.10014,0.16711 0.0711,0 0.18386,-0.0543 0.40531,-0.19639 0.0793,-0.0501 0.1587,-0.10028 0.23805,-0.15461 0.0375,-0.021 0.0752,-0.046 0.1171,-0.071 z m -2.54015,0.4053 0.24652,-0.98191 c 0.52226,-0.33008 0.53479,-0.33426 0.59331,-0.33426 0.0293,0 0.046,0.021 0.046,0.0543 0,0.0627 -0.0334,0.22145 -0.15459,0.69778 -0.0919,0.37187 -0.10862,0.44291 -0.10862,0.52228 0,0.0585 0.0164,0.11282 0.0627,0.18803 0.19235,-0.0877 0.48051,-0.26742 0.77299,-0.48469 l 0.0293,-0.11699 c -0.41784,0.23814 -0.43456,0.24651 -0.47634,0.24651 -0.0419,0 -0.0668,-0.046 -0.0668,-0.11281 0,-0.0877 0.0293,-0.22563 0.10862,-0.51393 0.19645,-0.70196 0.19645,-0.70196 0.19645,-0.7312 0,-0.046 -0.0293,-0.071 -0.0835,-0.071 -0.0627,0 -0.15458,0.0376 -0.30501,0.13372 l -0.57242,0.35516 c 0.0375,-0.1379 0.10015,-0.40112 0.10015,-0.43455 0,-0.0292 -0.0246,-0.0543 -0.0542,-0.0543 -0.046,0 -0.34679,0.15461 -0.65599,0.33844 l -0.0246,0.10864 c 0.26731,-0.12115 0.28411,-0.12534 0.32173,-0.12534 0.0293,0 0.05,0.0252 0.05,0.0585 0,0.0877 -0.0794,0.43455 -0.18386,0.81477 l -0.096,0.33845 c -0.008,0.0292 -0.0293,0.10865 -0.0585,0.22564 z m -1.17929,-2.14766 c 0.0334,-0.004 0.0627,-0.004 0.0752,-0.004 0.0542,0 0.0542,0 0.19207,0.008 -0.0137,0.046 -0.0246,0.0961 -0.0334,0.14205 -0.0137,0.0543 -0.046,0.1964 -0.10452,0.42201 l -0.25062,1.01116 c -0.008,0.0292 -0.0334,0.12953 -0.0711,0.26742 -0.34682,0.18384 -0.52231,0.24236 -0.73958,0.24236 -0.23393,0 -0.38857,-0.18802 -0.38857,-0.48051 0,-0.46797 0.29667,-1.19082 0.72283,-1.76325 l -0.0246,-0.0334 c -0.0542,0.0167 -0.0585,0.021 -0.12941,0.0543 l -0.0419,0.0167 c -0.26731,-0.0418 -0.2883,-0.046 -0.38439,-0.046 -0.20055,0 -0.36353,0.0501 -0.50141,0.15877 -0.26731,0.2089 -0.43454,0.48469 -0.43454,0.7145 0,0.11281 0.0334,0.22146 0.12121,0.4053 l 0.27993,-0.22564 c -0.10452,-0.20055 -0.14201,-0.30501 -0.14201,-0.41366 0,-0.2298 0.20904,-0.40112 0.48051,-0.40112 0.12531,0 0.21314,0.0167 0.39279,0.0794 -0.48051,0.75628 -0.68109,1.23679 -0.68109,1.61701 0,0.30501 0.18387,0.50976 0.45964,0.50976 0.22982,0 0.49721,-0.0794 1.00278,-0.29666 -0.0246,0.12116 -0.0334,0.17549 -0.0334,0.2089 0,0.0585 0.0419,0.0919 0.1171,0.0919 0.1171,0 0.3468,-0.0334 0.63509,-0.10028 l 0.0878,-0.10446 c -0.12941,0.0126 -0.20876,0.0167 -0.30083,0.0167 -0.11272,0 -0.15459,-0.0418 -0.15459,-0.14205 0,-0.18802 0.21314,-1.08637 0.50138,-2.12678 -0.21724,0.0334 -0.24651,0.0376 -0.539,0.0668 z m -2.81078,0.53483 0.12121,-0.0501 0.25062,-0.72703 h -0.17128 z m 0.3092,0 0.12121,-0.0501 0.25062,-0.72703 h -0.17127 z"
       style="font-style:italic;font-variant:normal;font-weight:500;font-stretch:normal;font-size:49.74666595px;line-height:1.25;font-family:'URW Chancery L';-inkscape-font-specification:'URW Chancery L Medium Italic';letter-spacing:0px;word-spacing:0px;fill:#106717;fill-opacity:1;stroke:none;stroke-width:0.08953578"
       id="path5412" />
    <path
       style="fill:#1fd234;fill-opacity:1;stroke:#1fd234;stroke-width:0.13608915;stroke-opacity:1"
       d="m -242.05551,115.35975 c -0.27968,0.1124 -0.55465,0.20715 -0.77625,0.24037 l -0.4906,0.0735 0.0638,0.5401 c 0.0588,0.50104 0.0435,0.55592 -0.20658,0.75219 -0.42909,0.33752 -0.71635,0.36492 -1.07031,0.1032 l -0.31248,-0.23046 -0.23202,0.27005 c -0.27366,0.31817 -0.23832,0.46693 0.16827,0.70695 0.58545,0.34584 0.32252,0.45687 -0.60798,0.25732 -0.46305,-0.0993 -0.55986,-0.0859 -0.98548,0.12726 -0.53306,0.26701 -0.65807,0.47545 -0.33508,0.5599 0.15295,0.04 0.19836,0.106 0.1513,0.22059 -0.037,0.09 -0.1078,0.30697 -0.15842,0.48213 -0.0722,0.24999 -0.13543,0.30694 -0.29267,0.26581 -0.16061,-0.042 -0.21314,0.0104 -0.2643,0.2658 -0.035,0.17525 -0.14994,0.36473 -0.25582,0.42135 -0.15651,0.0838 -0.17949,0.17231 -0.12723,0.47647 0.0632,0.36721 0.0616,0.37061 -0.10315,0.14704 -0.19426,-0.26357 -0.51202,-0.29955 -0.60092,-0.0678 -0.0337,0.0879 -0.0607,0.35758 -0.0607,0.59949 0,0.40434 -0.0219,0.44284 -0.2771,0.47225 -0.18387,0.0214 -0.28948,0.0992 -0.31249,0.23327 -0.0192,0.1112 -0.10561,0.25941 -0.19372,0.32803 -0.14528,0.11303 -0.14336,0.14337 0.0246,0.32802 0.18113,0.20009 0.17867,0.20359 -0.12722,0.20359 -0.3946,0 -0.68725,0.26234 -0.5189,0.46518 0.098,0.11786 0.0164,0.14139 -0.50192,0.14139 -0.49687,0 -0.66111,0.0418 -0.8342,0.21492 -0.17346,0.17346 -0.34724,0.21839 -0.89075,0.22903 -0.45881,0.009 -0.76385,0.0716 -0.95015,0.19372 -0.15075,0.0988 -0.31771,0.15278 -0.37043,0.12019 -0.0528,-0.0326 -0.28516,-0.008 -0.51608,0.0537 l -0.41993,0.11311 0.38601,0.39447 c 0.21204,0.21722 0.36635,0.41186 0.34217,0.43124 -0.0246,0.0194 -0.20275,0.0785 -0.39731,0.13149 -0.25062,0.0682 -0.36312,0.16089 -0.386,0.31955 -0.0219,0.15291 0.0192,0.22479 0.1316,0.22479 0.1286,0 0.15761,0.0832 0.13298,0.37893 -0.0276,0.335 -0.0594,0.37687 -0.2828,0.35913 -0.4448,-0.0353 -0.71167,0.0687 -0.82853,0.32519 -0.0908,0.19918 -0.18906,0.25027 -0.48215,0.25027 -0.43536,0 -0.66204,0.1704 -0.49487,0.37186 0.061,0.0736 0.19153,0.13288 0.28986,0.13288 0.0985,0 0.20466,0.0671 0.23612,0.14846 0.0638,0.16641 -0.26978,0.46471 -0.73523,0.65746 -0.46385,0.19212 -0.54735,0.7112 -0.11464,0.7112 0.26102,0 0.37467,0.18246 0.45385,0.72956 0.0381,0.26275 0.11492,0.50493 0.16964,0.5387 0.13434,0.0831 0.0137,0.44889 -0.24187,0.72674 l -0.20794,0.22764 0.21916,0.2347 c 0.30187,0.32132 0.27549,0.55639 -0.10452,0.94872 l -0.32378,0.33509 0.22353,0.15552 c 0.29708,0.20802 0.28193,0.29762 -0.10615,0.64615 -0.26349,0.2367 -0.30349,0.32002 -0.2022,0.42275 0.16964,0.17186 0.16006,0.28985 -0.0246,0.28985 -0.10917,0 -0.73372,-0.33181 -1.85077,-0.95862 l 0.0109,8.29532 23.46499,-20.71073 z m -25.82054,13.34151 c -0.0982,-0.006 -0.0936,0.06 -0.0482,0.28844 0.0533,0.26726 0.0192,0.36785 -0.20083,0.57122 -0.14638,0.13565 -0.30173,0.24602 -0.34499,0.24602 -0.0432,0 -0.21505,0.11415 -0.38173,0.25451 l -0.30259,0.2559 -0.61503,-0.17109 c -0.33785,-0.0939 -0.64103,-0.14369 -0.67444,-0.11028 -0.0334,0.0334 -0.10068,0.41119 -0.14857,0.83843 -0.11272,1.00585 -0.25007,1.21192 -0.87096,1.30503 -0.0165,0.002 -0.0274,0.006 -0.0424,0.008 l 11.33377,9.90857 -0.0137,-9.17618 c -0.64902,-0.37115 -0.94813,-0.5352 -1.91018,-1.09011 -3.79354,-2.18814 -5.29949,-3.01626 -5.6471,-3.1035 -0.058,-0.0145 -0.10151,-0.0235 -0.13435,-0.0254 z"
       id="path7843"
       inkscape:connector-curvature="0"
       sodipodi:nodetypes="ccccccccccccccccccccsccccscsccccccccccscccscsccsccccccccccscccccccccccccccccccc" />
    <path
       sodipodi:nodetypes="cssccccccsccccccscccccsccscccccccccccccccccsccccccccccsccsscscccccsccccccccccccsccccscscccsccccccscccscsccsccccccccccsscccscccsccccccscccc"
       inkscape:connector-curvature="0"
       id="path5202"
       d="m -275.28564,134.51352 c -0.10808,-0.1529 -0.99354,-1.59933 -1.96752,-3.21436 -2.05013,-3.39936 -2.87705,-4.68872 -5.39085,-8.40547 -1.0069,-1.48877 -1.91001,-2.86176 -2.00687,-3.05109 l -0.1762,-0.34425 1.70369,0.0614 c 1.58302,0.057 3.66935,0.29685 3.9177,0.45034 0.17729,0.10958 0.86412,0.16083 1.85403,0.13833 l 0.86037,0.0214 0.0744,0.2989 c 0.0583,0.23357 0.20328,0.4312 0.43495,0.69638 l 0.5095,0.0674 0.41315,-0.0172 c 0.71709,-0.1525 1.06124,-0.18714 1.77556,-0.4776 0.19454,-0.10811 0.48303,-0.19664 0.64103,-0.1967 0.15787,0 0.40291,-0.0911 0.54423,-0.2023 0.14146,-0.1112 0.34365,-0.20214 0.44953,-0.20214 0.35413,0 0.95393,-0.38574 1.21631,-0.78225 0.14283,-0.21584 0.45222,-0.61487 0.68752,-0.88673 0.2353,-0.27185 0.50732,-0.6784 0.6045,-0.90343 0.2416,-0.55927 0.47829,-0.74368 1.10808,-0.86313 0.96117,-0.18227 1.57624,-0.12913 2.32906,0.2013 0.37996,0.16676 0.71641,0.30321 0.74766,0.30321 0.0315,0 0.15185,-0.18654 0.2684,-0.41457 0.31131,-0.61019 1.42262,-1.60021 2.25752,-2.01111 0.42442,-0.20884 0.75917,-0.44574 0.81737,-0.57837 0.0717,-0.16359 0.21806,-0.24258 0.53856,-0.29061 0.33621,-0.0504 0.46705,-0.12542 0.55485,-0.31808 0.10944,-0.24009 0.1461,-0.24958 0.77288,-0.19927 0.61156,0.0491 0.71887,0.0241 1.51961,-0.35258 0.60619,-0.28525 1.05625,-0.59089 1.51853,-1.03121 0.99086,-0.9439 1.99171,-1.71352 2.77942,-2.13727 0.38909,-0.20936 0.80035,-0.46334 0.91387,-0.56446 0.2765,-0.24624 1.72516,-0.54862 1.9067,-0.39798 0.0979,0.0813 0.25856,0.0543 0.61454,-0.10312 0.26513,-0.11724 0.84003,-0.27571 1.27772,-0.3521 0.43765,-0.0764 0.89805,-0.20592 1.02303,-0.28776 0.17511,-0.11461 0.4451,-0.13735 1.17459,-0.0989 0.74319,0.0392 0.98273,0.0178 1.11177,-0.0982 0.28592,-0.25757 0.7062,-0.30908 0.92276,-0.11308 0.12093,0.10956 0.26239,0.14915 0.37497,0.10504 0.0993,-0.039 0.45909,-0.0923 0.79948,-0.11853 0.49624,-0.0382 0.63082,-0.0167 0.67906,0.10909 0.0331,0.0862 0.15404,0.1568 0.26895,0.1568 0.11492,0 0.30965,0.0659 0.43274,0.14649 0.12312,0.0806 0.4106,0.17631 0.63884,0.21273 0.36554,0.0584 0.4216,0.0409 0.47055,-0.14621 0.0304,-0.11686 0.15157,-0.248 0.26895,-0.29143 0.11738,-0.0434 0.29224,-0.2336 0.38852,-0.42263 0.0963,-0.18903 0.29963,-0.43496 0.4518,-0.54653 l 0.27667,-0.20285 0.2457,0.23076 c 0.25719,0.24149 0.97141,1.34141 0.96753,1.48974 -0.001,0.0472 -0.0911,0.19954 -0.20001,0.33851 -0.22299,0.28508 -0.26048,0.91701 -0.093,1.56658 0.0572,0.22234 0.14118,0.69991 0.18606,1.06124 0.0985,0.79049 0.005,1.07175 -0.58344,1.75147 -0.23065,0.26638 -0.41922,0.52355 -0.41922,0.57145 0,0.0479 -0.1576,0.13913 -0.35043,0.20274 -0.19262,0.0636 -0.46751,0.25481 -0.61064,0.42488 -0.32099,0.38147 -1.45267,0.93614 -2.11165,1.03496 l -0.49063,0.0736 0.0635,0.5404 c 0.0588,0.50104 0.044,0.55581 -0.20575,0.75208 -0.4291,0.33752 -0.71605,0.36529 -1.07002,0.10359 l -0.31213,-0.23076 -0.23201,0.26963 c -0.27367,0.31817 -0.23831,0.46755 0.16826,0.70757 0.58547,0.34584 0.3225,0.45733 -0.608,0.25779 -0.46305,-0.0993 -0.56024,-0.0868 -0.98585,0.12632 -0.53307,0.26701 -0.65756,0.47522 -0.3346,0.55968 0.15295,0.04 0.19836,0.10619 0.15131,0.22075 -0.037,0.09 -0.10863,0.30692 -0.15924,0.48208 -0.0722,0.24999 -0.13516,0.30724 -0.29241,0.26611 -0.1606,-0.0419 -0.21286,0.0109 -0.26402,0.26627 -0.035,0.17524 -0.15021,0.36496 -0.2561,0.42157 -0.1565,0.0838 -0.1803,0.17235 -0.12805,0.4765 0.0632,0.36721 0.0616,0.36969 -0.10315,0.14613 -0.19426,-0.26356 -0.5112,-0.29924 -0.6001,-0.0675 -0.0337,0.0879 -0.0613,0.35779 -0.0613,0.5997 0,0.40433 -0.0219,0.44242 -0.27708,0.47182 -0.18386,0.0214 -0.28876,0.1 -0.31177,0.23412 -0.0192,0.1112 -0.10671,0.25826 -0.19481,0.32687 -0.14528,0.11303 -0.14282,0.14384 0.0246,0.32848 0.18113,0.20008 0.17866,0.20373 -0.12723,0.20373 -0.39462,0 -0.6877,0.26268 -0.51936,0.46552 0.0979,0.11787 0.0164,0.14091 -0.50187,0.14091 -0.49687,0 -0.66125,0.0425 -0.83431,0.21558 -0.17346,0.17346 -0.34747,0.21814 -0.89099,0.22878 -0.45881,0.009 -0.7633,0.0709 -0.94958,0.19295 -0.15075,0.0988 -0.31738,0.153 -0.3701,0.12041 -0.0528,-0.0326 -0.2848,-0.008 -0.51572,0.0538 l -0.41985,0.11307 0.38567,0.39497 c 0.21205,0.21722 0.3659,0.41083 0.34171,0.43021 -0.0246,0.0194 -0.20328,0.0786 -0.39771,0.13158 -0.25062,0.0682 -0.36318,0.1617 -0.38606,0.32035 -0.0219,0.15293 0.0192,0.22404 0.13243,0.22404 0.12859,0 0.15787,0.0832 0.13324,0.379 -0.0276,0.33502 -0.0607,0.37669 -0.28405,0.35895 -0.44481,-0.0354 -0.71138,0.0696 -0.82823,0.32606 -0.0908,0.19919 -0.18852,0.24989 -0.48169,0.24989 -0.43536,0 -0.66177,0.1701 -0.49457,0.37156 0.061,0.0736 0.19153,0.13379 0.29,0.13379 0.0985,0 0.20438,0.0665 0.23585,0.14789 0.0638,0.1664 -0.26978,0.46481 -0.73512,0.65756 -0.46385,0.19213 -0.54773,0.7106 -0.11492,0.7106 0.26102,0 0.37514,0.18328 0.45432,0.7304 0.0381,0.26274 0.11382,0.50535 0.16854,0.53913 0.13434,0.0831 0.0137,0.44875 -0.24132,0.7266 l -0.20821,0.22742 0.2197,0.23391 c 0.30187,0.32131 0.27588,0.55762 -0.10424,0.94995 l -0.32411,0.3344 0.22298,0.1562 c 0.29706,0.20802 0.28261,0.29626 -0.10533,0.64479 -0.26348,0.23669 -0.30352,0.32033 -0.2022,0.42306 0.16964,0.17186 0.15951,0.28976 -0.0246,0.28976 -0.18715,0 -1.12531,-0.51788 -5.30641,-2.92955 -3.79354,-2.18814 -5.29872,-3.01518 -5.64634,-3.10242 -0.23202,-0.0582 -0.24296,-0.0424 -0.18222,0.26214 0.0533,0.26726 0.0192,0.36739 -0.20138,0.57076 -0.14637,0.13565 -0.30145,0.24662 -0.34468,0.24662 -0.0432,0 -0.21505,0.11487 -0.38187,0.25522 l -0.30332,0.25522 -0.61427,-0.17078 c -0.33785,-0.0939 -0.64164,-0.14343 -0.67505,-0.11002 -0.0334,0.0334 -0.0999,0.41032 -0.14774,0.83756 -0.11273,1.00584 -0.2509,1.21248 -0.87171,1.30559 -0.51252,0.0768 -0.84114,0.21196 -0.96437,0.3965 -0.0408,0.0612 -0.075,0.34689 -0.0758,0.63495 -0.001,0.46828 -0.0344,0.5471 -0.31152,0.74446 -0.30271,0.21557 -0.32242,0.21681 -0.84109,0.0537 -0.48551,-0.15272 -0.87034,-0.13904 -0.87034,0.0307 0,0.0373 0.0687,0.16589 0.15268,0.28587 0.14063,0.20086 0.13488,0.2306 -0.0731,0.37624 -0.32737,0.2293 -0.54499,0.19535 -0.76793,-0.11981 z"
       style="fill:#19a420;fill-opacity:1;stroke:#169212;stroke-width:0.27943084;stroke-miterlimit:4;stroke-dasharray:none;stroke-opacity:1" />
    <g
       aria-label="AMDEPANDO"
       style="font-style:normal;font-variant:normal;font-weight:bold;font-stretch:normal;font-size:2.20592833px;line-height:1.25;font-family:'DejaVu Serif';-inkscape-font-specification:'DejaVu Serif, Bold';font-variant-ligatures:normal;font-variant-caps:normal;font-variant-numeric:normal;font-feature-settings:normal;text-align:start;letter-spacing:0px;word-spacing:0px;writing-mode:lr-tb;text-anchor:start;opacity:1;fill:#000000;fill-opacity:1;stroke:#ffffff;stroke-width:0.42033276;stroke-miterlimit:4;stroke-dasharray:none;stroke-opacity:1;filter:url(#filter7888)"
       id="text3267"
       transform="matrix(2.1218001,0,0,2.1218001,-187.9166,70.809806)">
      <path
         id="path3285"
         style="font-style:normal;font-variant:normal;font-weight:bold;font-stretch:normal;font-size:2.20592833px;font-family:'DejaVu Serif';-inkscape-font-specification:'DejaVu Serif, Bold';font-variant-ligatures:normal;font-variant-caps:normal;font-variant-numeric:normal;font-feature-settings:normal;text-align:start;writing-mode:lr-tb;text-anchor:start;fill:url(#linearGradient3295);fill-opacity:1;stroke:#ffffff;stroke-width:0.42033276;stroke-miterlimit:4;stroke-dasharray:none;stroke-opacity:1"
         d="m -26.236406,25.796726 q 0.205729,0 0.305901,-0.173415 0.100171,-0.173415 0.100171,-0.52994 0,-0.357602 -0.100171,-0.531017 -0.100172,-0.173415 -0.305901,-0.173415 -0.204651,0 -0.3059,0.175569 -0.100171,0.174493 -0.100171,0.528863 0,0.353293 0.100171,0.528863 0.101249,0.174492 0.3059,0.174492 z m 0,0.130331 q -0.406071,0 -0.636574,-0.221885 -0.230502,-0.221886 -0.230502,-0.611801 0,-0.389915 0.230502,-0.6118 0.23158,-0.222963 0.636574,-0.222963 0.406072,0 0.636575,0.221886 0.230502,0.221885 0.230502,0.612877 0,0.389915 -0.23158,0.611801 -0.230502,0.221885 -0.635497,0.221885 z m -2.148841,-0.161567 h 0.149719 q 0.252045,0 0.368373,-0.161567 0.117405,-0.161567 0.117405,-0.513783 0,-0.350062 -0.116328,-0.510552 -0.116328,-0.161567 -0.36945,-0.161567 h -0.149719 z m -0.620417,0.130331 V 25.76549 h 0.205729 v -1.347469 h -0.205729 V 24.28769 h 0.825069 q 0.432999,0 0.662425,0.206806 0.229425,0.206806 0.229425,0.595644 0,0.390992 -0.230503,0.598875 -0.229425,0.206806 -0.661347,0.206806 z m -2.022819,0 V 25.76549 h 0.205728 v -1.347469 h -0.205728 V 24.28769 h 0.503012 l 0.970479,1.138509 v -1.008178 h -0.204652 V 24.28769 h 0.562254 v 0.130331 h -0.205729 v 1.4778 h -0.282204 l -0.985559,-1.162206 v 1.031875 h 0.204652 v 0.130331 z m -1.82463,0 V 25.76549 h 0.131408 l 0.605337,-1.4778 h 0.257431 l 0.606414,1.4778 h 0.152951 v 0.130331 h -0.752903 V 25.76549 h 0.157259 l -0.132485,-0.32852 h -0.604261 l -0.134639,0.32852 h 0.191726 v 0.130331 z m 0.47393,-0.589181 h 0.498703 l -0.247736,-0.615032 z m -1.852635,0.589181 V 25.76549 h 0.205728 v -1.347469 h -0.205728 V 24.28769 h 0.915546 q 0.268201,0 0.426537,0.128177 0.158336,0.127099 0.158336,0.341445 0,0.215422 -0.159413,0.344676 -0.158336,0.128177 -0.42546,0.128177 h -0.295129 v 0.535325 h 0.259584 v 0.130331 z m 0.620417,-0.795987 h 0.120637 q 0.140024,0 0.222962,-0.09263 0.08402,-0.09371 0.08402,-0.24989 0,-0.155105 -0.08294,-0.246659 -0.08294,-0.09263 -0.224039,-0.09263 h -0.120637 z m -2.300715,0.795987 V 25.76549 h 0.205729 v -1.347469 h -0.205729 V 24.28769 h 1.445486 v 0.379144 h -0.148641 v -0.231579 h -0.676427 v 0.515937 h 0.421151 v -0.204651 h 0.147564 v 0.55579 h -0.147564 V 25.09768 h -0.421151 v 0.650576 h 0.696892 v -0.231579 h 0.147565 v 0.379144 z m -1.292536,-0.130331 h 0.149719 q 0.252045,0 0.368373,-0.161567 0.117405,-0.161567 0.117405,-0.513783 0,-0.350062 -0.116328,-0.510552 -0.116328,-0.161567 -0.36945,-0.161567 h -0.149719 z m -0.620417,0.130331 V 25.76549 h 0.205729 v -1.347469 h -0.205729 V 24.28769 H -37 q 0.432999,0 0.662425,0.206806 0.229425,0.206806 0.229425,0.595644 0,0.390992 -0.230503,0.598875 Q -36.568078,25.895821 -37,25.895821 Z m -2.453665,0 V 25.76549 h 0.204652 v -1.347469 h -0.204652 V 24.28769 h 0.663502 l 0.458851,1.031875 0.461004,-1.031875 h 0.662425 v 0.130331 h -0.205729 v 1.347469 h 0.205729 v 0.130331 h -0.827223 V 25.76549 h 0.204651 v -1.226832 l -0.498703,1.121275 h -0.27251 l -0.496549,-1.121275 v 1.226832 h 0.204651 v 0.130331 z m -1.820321,0 V 25.76549 h 0.131408 l 0.605337,-1.4778 h 0.25743 l 0.606415,1.4778 h 0.15295 v 0.130331 h -0.752902 V 25.76549 h 0.157259 l -0.132485,-0.32852 h -0.604261 l -0.134639,0.32852 h 0.191726 v 0.130331 z m 0.47393,-0.589181 h 0.498703 l -0.247736,-0.615032 z"
         inkscape:connector-curvature="0" />
    </g>
    <g
       id="g7823"
       style="font-style:normal;font-variant:normal;font-weight:bold;font-stretch:normal;font-size:2.20592833px;line-height:1.25;font-family:'DejaVu Serif';-inkscape-font-specification:'DejaVu Serif, Bold';font-variant-ligatures:normal;font-variant-caps:normal;font-variant-numeric:normal;font-feature-settings:normal;text-align:start;letter-spacing:0px;word-spacing:0px;writing-mode:lr-tb;text-anchor:start;opacity:1;fill:#000000;fill-opacity:1;stroke:none;stroke-width:0.11817472"
       aria-label="AMDEPANDO"
       transform="matrix(2.1218001,0,0,2.1218001,-187.9166,70.809806)">
      <path
         d="m -26.236406,25.796726 q 0.205729,0 0.305901,-0.173415 0.100171,-0.173415 0.100171,-0.52994 0,-0.357602 -0.100171,-0.531017 -0.100172,-0.173415 -0.305901,-0.173415 -0.204651,0 -0.3059,0.175569 -0.100171,0.174493 -0.100171,0.528863 0,0.353293 0.100171,0.528863 0.101249,0.174492 0.3059,0.174492 z m 0,0.130331 q -0.406071,0 -0.636574,-0.221885 -0.230502,-0.221886 -0.230502,-0.611801 0,-0.389915 0.230502,-0.6118 0.23158,-0.222963 0.636574,-0.222963 0.406072,0 0.636575,0.221886 0.230502,0.221885 0.230502,0.612877 0,0.389915 -0.23158,0.611801 -0.230502,0.221885 -0.635497,0.221885 z m -2.148841,-0.161567 h 0.149719 q 0.252045,0 0.368373,-0.161567 0.117405,-0.161567 0.117405,-0.513783 0,-0.350062 -0.116328,-0.510552 -0.116328,-0.161567 -0.36945,-0.161567 h -0.149719 z m -0.620417,0.130331 V 25.76549 h 0.205729 v -1.347469 h -0.205729 V 24.28769 h 0.825069 q 0.432999,0 0.662425,0.206806 0.229425,0.206806 0.229425,0.595644 0,0.390992 -0.230503,0.598875 -0.229425,0.206806 -0.661347,0.206806 z m -2.022819,0 V 25.76549 h 0.205728 v -1.347469 h -0.205728 V 24.28769 h 0.503012 l 0.970479,1.138509 v -1.008178 h -0.204652 V 24.28769 h 0.562254 v 0.130331 h -0.205729 v 1.4778 h -0.282204 l -0.985559,-1.162206 v 1.031875 h 0.204652 v 0.130331 z m -1.82463,0 V 25.76549 h 0.131408 l 0.605337,-1.4778 h 0.257431 l 0.606414,1.4778 h 0.152951 v 0.130331 h -0.752903 V 25.76549 h 0.157259 l -0.132485,-0.32852 h -0.604261 l -0.134639,0.32852 h 0.191726 v 0.130331 z m 0.47393,-0.589181 h 0.498703 l -0.247736,-0.615032 z m -1.852635,0.589181 V 25.76549 h 0.205728 v -1.347469 h -0.205728 V 24.28769 h 0.915546 q 0.268201,0 0.426537,0.128177 0.158336,0.127099 0.158336,0.341445 0,0.215422 -0.159413,0.344676 -0.158336,0.128177 -0.42546,0.128177 h -0.295129 v 0.535325 h 0.259584 v 0.130331 z m 0.620417,-0.795987 h 0.120637 q 0.140024,0 0.222962,-0.09263 0.08402,-0.09371 0.08402,-0.24989 0,-0.155105 -0.08294,-0.246659 -0.08294,-0.09263 -0.224039,-0.09263 h -0.120637 z m -2.300715,0.795987 V 25.76549 h 0.205729 v -1.347469 h -0.205729 V 24.28769 h 1.445486 v 0.379144 h -0.148641 v -0.231579 h -0.676427 v 0.515937 h 0.421151 v -0.204651 h 0.147564 v 0.55579 h -0.147564 V 25.09768 h -0.421151 v 0.650576 h 0.696892 v -0.231579 h 0.147565 v 0.379144 z m -1.292536,-0.130331 h 0.149719 q 0.252045,0 0.368373,-0.161567 0.117405,-0.161567 0.117405,-0.513783 0,-0.350062 -0.116328,-0.510552 -0.116328,-0.161567 -0.36945,-0.161567 h -0.149719 z m -0.620417,0.130331 V 25.76549 h 0.205729 v -1.347469 h -0.205729 V 24.28769 H -37 q 0.432999,0 0.662425,0.206806 0.229425,0.206806 0.229425,0.595644 0,0.390992 -0.230503,0.598875 Q -36.568078,25.895821 -37,25.895821 Z m -2.453665,0 V 25.76549 h 0.204652 v -1.347469 h -0.204652 V 24.28769 h 0.663502 l 0.458851,1.031875 0.461004,-1.031875 h 0.662425 v 0.130331 h -0.205729 v 1.347469 h 0.205729 v 0.130331 h -0.827223 V 25.76549 h 0.204651 v -1.226832 l -0.498703,1.121275 h -0.27251 l -0.496549,-1.121275 v 1.226832 h 0.204651 v 0.130331 z m -1.820321,0 V 25.76549 h 0.131408 l 0.605337,-1.4778 h 0.25743 l 0.606415,1.4778 h 0.15295 v 0.130331 h -0.752902 V 25.76549 h 0.157259 l -0.132485,-0.32852 h -0.604261 l -0.134639,0.32852 h 0.191726 v 0.130331 z m 0.47393,-0.589181 h 0.498703 l -0.247736,-0.615032 z"
         style="font-style:normal;font-variant:normal;font-weight:bold;font-stretch:normal;font-size:2.20592833px;font-family:'DejaVu Serif';-inkscape-font-specification:'DejaVu Serif, Bold';font-variant-ligatures:normal;font-variant-caps:normal;font-variant-numeric:normal;font-feature-settings:normal;text-align:start;writing-mode:lr-tb;text-anchor:start;fill:url(#linearGradient7825);fill-opacity:1;stroke-width:0.11817472"
         id="path7821"
         inkscape:connector-curvature="0" />
    </g>
  </g>
</svg>
