<?xml version="1.0" encoding="UTF-8" standalone="no"?>
<!-- Created with Inkscape (http://www.inkscape.org/) -->

<svg
   xmlns:dc="http://purl.org/dc/elements/1.1/"
   xmlns:cc="http://creativecommons.org/ns#"
   xmlns:rdf="http://www.w3.org/1999/02/22-rdf-syntax-ns#"
   xmlns:svg="http://www.w3.org/2000/svg"
   xmlns="http://www.w3.org/2000/svg"
   xmlns:xlink="http://www.w3.org/1999/xlink"
   xmlns:sodipodi="http://sodipodi.sourceforge.net/DTD/sodipodi-0.dtd"
   xmlns:inkscape="http://www.inkscape.org/namespaces/inkscape"
   width="50mm"
   height="50mm"
   viewBox="0 0 50 50"
   version="1.1"
   id="svg10246"
   inkscape:version="0.92.4 (5da689c313, 2019-01-14)"
   sodipodi:docname="amdepo.svg">
  <defs
     id="defs10240">
    <radialGradient
       inkscape:collect="always"
       xlink:href="#linearGradient10178"
       id="radialGradient10180"
       cx="120.58129"
       cy="78.158546"
       fx="120.58129"
       fy="78.158546"
       r="3.636775"
       gradientTransform="matrix(1.2708428,0,0,1.2091901,-224.80256,113.94401)"
       gradientUnits="userSpaceOnUse" />
    <linearGradient
       inkscape:collect="always"
       id="linearGradient10178">
      <stop
         style="stop-color:#830973;stop-opacity:1"
         offset="0"
         id="stop10174" />
      <stop
         style="stop-color:#b90010;stop-opacity:1"
         offset="1"
         id="stop10176" />
    </linearGradient>
  </defs>
  <sodipodi:namedview
     id="base"
     pagecolor="#ffffff"
     bordercolor="#666666"
     borderopacity="1.0"
     inkscape:pageopacity="0.0"
     inkscape:pageshadow="2"
     inkscape:zoom="3.5623923"
     inkscape:cx="1.0376449"
     inkscape:cy="66.474487"
     inkscape:document-units="mm"
     inkscape:current-layer="layer1"
     showgrid="false"
     fit-margin-top="0"
     fit-margin-left="0"
     fit-margin-right="0"
     fit-margin-bottom="0"
     inkscape:window-width="1920"
     inkscape:window-height="971"
     inkscape:window-x="0"
     inkscape:window-y="31"
     inkscape:window-maximized="1" />
  <metadata
     id="metadata10243">
    <rdf:RDF>
      <cc:Work
         rdf:about="">
        <dc:format>image/svg+xml</dc:format>
        <dc:type
           rdf:resource="http://purl.org/dc/dcmitype/StillImage" />
        <dc:title></dc:title>
      </cc:Work>
    </rdf:RDF>
  </metadata>
  <g
     inkscape:label="Layer 1"
     inkscape:groupmode="layer"
     id="layer1"
     transform="translate(77.3892,-202.87763)">
    <path
       inkscape:connector-curvature="0"
       style="fill:#781d00;fill-opacity:1;fill-rule:nonzero;stroke:none;stroke-width:0.0704423;stroke-miterlimit:4;stroke-dasharray:none;stroke-dashoffset:0;stroke-opacity:1"
       d="m -57.671649,240.20147 c -0.539091,-0.0754 -0.730314,-0.12887 -0.730314,-0.20476 0,-0.0367 -0.06278,-0.0668 -0.139184,-0.0668 -0.102426,0 -0.151421,-0.0622 -0.185454,-0.23585 -0.04385,-0.22444 -0.0352,-0.3535 0.07892,-1.1734 0.04156,-0.29745 0.02389,-0.38469 -0.101924,-0.55574 -0.08312,-0.11158 -0.151117,-0.27015 -0.151117,-0.35229 0,-0.0822 -0.06354,-0.2349 -0.141559,-0.33943 -0.115265,-0.15514 -0.13828,-0.28366 -0.124796,-0.6989 0.01143,-0.34124 -0.01499,-0.54436 -0.07701,-0.61687 -0.07256,-0.0838 -0.07536,-0.14116 -0.01143,-0.25445 0.06545,-0.11705 0.05922,-0.17022 -0.03075,-0.26529 -0.06177,-0.0655 -0.112597,-0.15411 -0.112597,-0.19707 0,-0.0429 -0.08807,-0.12187 -0.195913,-0.17556 -0.447108,-0.22255 -0.516241,-0.33165 -0.516241,-0.81437 0,-0.60594 -0.188161,-1.1574 -0.516255,-1.51432 l -0.266992,-0.29035 v -0.64475 c 0,-1.00013 -0.07472,-1.24872 -0.61186,-2.04125 -0.260434,-0.38413 -0.617705,-0.85999 -0.793971,-1.05744 -0.295662,-0.33131 -0.344386,-0.359 -0.630516,-0.359 -0.324001,0 -0.815233,-0.22051 -0.675441,-0.30322 0.04245,-0.0251 0.07701,-0.22889 0.07701,-0.45291 0,-0.41175 0.140659,-0.74329 0.315194,-0.74329 0.04677,0 0.156797,-0.064 0.2446,-0.1422 0.120094,-0.10713 0.140364,-0.16435 0.08158,-0.23193 -0.100139,-0.11539 -0.734229,-0.40845 -1.112762,-0.51425 -0.344272,-0.0962 -0.95284,-0.56928 -0.95284,-0.74065 0,-0.0681 0.113996,-0.17647 0.266686,-0.25341 0.332643,-0.16766 0.359712,-0.28816 0.120348,-0.5355 -0.14903,-0.15388 -0.180395,-0.24054 -0.15053,-0.41669 0.06088,-0.35903 -0.0089,-0.50492 -0.244891,-0.50492 -0.207275,0 -0.246684,-0.0447 -0.150823,-0.17155 0.06862,-0.0907 0.666404,-0.23743 0.967962,-0.23743 0.266711,0 0.472856,-0.17146 0.472856,-0.39322 0,-0.0791 0.03228,-0.16293 0.07104,-0.18609 0.08718,-0.0516 0.09468,-0.42104 0.0089,-0.47145 -0.0338,-0.0204 -0.04664,-0.11247 -0.02694,-0.20532 0.02694,-0.14073 -1.77e-4,-0.17679 -0.169632,-0.21632 -0.111961,-0.0259 -0.308738,-0.13486 -0.437385,-0.24171 -0.128724,-0.10675 -0.280729,-0.19421 -0.338248,-0.19421 -0.182784,0 -0.113485,-0.10699 0.216222,-0.33344 0.176203,-0.12111 0.320418,-0.25882 0.320418,-0.30598 0,-0.0472 0.111961,-0.21114 0.249085,-0.36441 0.137086,-0.15327 0.249085,-0.29674 0.249085,-0.31882 0,-0.0218 0.124924,-0.16713 0.277743,-0.32231 l 0.27773,-0.28213 0.345402,0.14845 c 0.189953,0.0815 0.834588,0.38105 1.432495,0.66532 0.803426,0.382 1.118328,0.5675 1.206855,0.71093 0.06609,0.10675 0.214734,0.22573 0.330495,0.26437 0.115774,0.0386 0.252657,0.12771 0.304074,0.19786 0.08782,0.11984 0.679863,0.3491 0.901651,0.3491 0.05553,0 0.201289,0.092 0.324218,0.2045 0.179188,0.16385 0.2858,0.20447 0.537197,0.20447 0.271185,0 0.344335,-0.0332 0.539346,-0.24597 0.128483,-0.14006 0.208456,-0.28918 0.185467,-0.34634 -0.02097,-0.0551 -0.04041,-0.12851 -0.04041,-0.16298 0,-0.0345 -0.05604,-0.0631 -0.124542,-0.0635 -0.06837,-6.1e-4 -0.236822,-0.0393 -0.373819,-0.086 -0.217416,-0.0742 -0.251156,-0.11641 -0.264004,-0.33163 -0.01499,-0.23263 0.0039,-0.25308 0.296271,-0.36026 0.573226,-0.20953 0.792307,-0.21225 1.105658,-0.0137 0.286423,0.18142 0.49981,0.23127 0.49981,0.11679 0,-0.0683 0.412287,-0.0511 0.739694,0.0307 0.169034,0.0422 0.22907,0.0224 0.336646,-0.1117 0.167243,-0.20823 0.166036,-0.39209 -0.0039,-0.60391 -0.101538,-0.12657 -0.117426,-0.19964 -0.06393,-0.29545 0.113995,-0.20425 0.363283,-0.45643 0.450833,-0.45643 0.04422,0 0.172604,-0.092 0.285201,-0.20447 0.291189,-0.29101 0.345696,-0.28205 1.488489,0.24537 0.281922,0.13014 1.24296,0.12404 1.426813,-0.009 0.194426,-0.14078 0.723567,-0.12479 1.466743,0.0443 0.666239,0.15155 0.829085,0.14107 0.894928,-0.0575 0.127567,-0.38482 0.303922,-0.68333 0.525074,-0.88825 0.137694,-0.12772 0.298659,-0.32687 0.357348,-0.44263 0.07765,-0.15304 0.18427,-0.23104 0.390518,-0.28588 0.18009,-0.0479 0.31687,-0.1369 0.37458,-0.24388 0.11895,-0.22025 0.08578,-0.68595 -0.05312,-0.74643 -0.05884,-0.0257 -0.21354,-0.0977 -0.344017,-0.16031 -0.130514,-0.0626 -0.300262,-0.11374 -0.377376,-0.11374 -0.114121,0 -0.520041,-0.1585 -0.620272,-0.24212 -0.01143,-0.0115 0.01792,-0.12937 0.06723,-0.26272 0.08222,-0.21776 0.07549,-0.26949 -0.06494,-0.50853 -0.08591,-0.14635 -0.1562,-0.3271 -0.1562,-0.40163 0,-0.17626 -0.30349,-0.23669 -0.89658,-0.17851 -0.374173,0.0368 -0.49639,0.0194 -0.772798,-0.10853 -0.31442,-0.14569 -0.538037,-0.41328 -0.538037,-0.64386 0,-0.11208 -0.2416,-0.55574 -0.392705,-0.72107 -0.05134,-0.0563 -0.103324,-0.23743 -0.115519,-0.40265 -0.02389,-0.32443 -0.02084,-0.3271 0.472652,-0.51989 0.439026,-0.17134 0.496658,-0.20792 0.52214,-0.33187 0.0568,-0.2764 -0.310442,-0.39108 -0.811713,-0.25347 -0.22668,0.0621 -0.458101,-0.0319 -0.458101,-0.18648 0,-0.0427 -0.03228,-0.0777 -0.07104,-0.0777 -0.03915,0 -0.07104,-0.0309 -0.07104,-0.0681 0,-0.0375 0.07828,-0.0681 0.173814,-0.0681 0.09557,0 0.193537,-0.0308 0.21772,-0.0681 0.02389,-0.0375 0.09824,-0.0682 0.164549,-0.0684 0.06634,-1e-4 0.278047,-0.0769 0.470708,-0.17042 0.192647,-0.0936 0.38861,-0.17007 0.435442,-0.17007 0.142157,0 0.460375,-0.27491 0.460375,-0.39774 0,-0.13327 0.515201,-0.28613 1.129081,-0.33503 0.237127,-0.0188 0.546982,-0.11171 0.818879,-0.24517 0.385689,-0.18937 0.440094,-0.24098 0.459779,-0.43626 0.01143,-0.12188 0.03952,-0.22149 0.06037,-0.22149 0.172033,0 0.527552,0.25774 0.655106,0.47497 0.08578,0.14604 0.284008,0.35564 0.440308,0.46573 0.230252,0.16199 0.328031,0.19158 0.513321,0.15533 0.19023,-0.0373 0.288202,-0.004 0.578995,0.1963 0.192634,0.13263 0.469272,0.34081 0.614959,0.46263 0.145742,0.12187 0.296261,0.22151 0.334641,0.22151 0.03825,0 0.146643,0.0968 0.24071,0.21526 0.245794,0.30948 0.335248,0.38787 0.583571,0.51081 0.261627,0.12952 0.33038,0.19564 0.492362,0.47383 l 0.121873,0.20914 -0.442203,-0.0104 c -0.243112,-0.006 -0.582466,-0.0491 -0.75389,-0.0961 -0.368786,-0.10129 -0.454733,-0.0461 -0.392372,0.25243 0.0352,0.16925 0.149934,0.2876 0.517155,0.53465 0.25952,0.17452 0.54555,0.40376 0.635741,0.50942 0.09023,0.10561 0.290592,0.22834 0.445048,0.2727 0.297757,0.0854 0.328578,0.12251 0.202482,0.24329 -0.05198,0.0496 -0.05553,0.11463 -0.01143,0.19105 0.04537,0.0775 0.03533,0.20595 -0.03026,0.38785 -0.05553,0.15447 -0.07892,0.36921 -0.05376,0.49695 0.06037,0.30832 -0.0582,0.48717 -0.358644,0.54114 -0.138267,0.0247 -0.251157,0.0719 -0.251157,0.10485 0,0.0329 -0.112341,0.0951 -0.249388,0.1385 -0.288507,0.0912 -0.309261,0.19762 -0.100902,0.52016 0.100777,0.15578 0.202192,0.22955 0.316387,0.22955 0.09264,0 0.209972,0.0558 0.26134,0.12391 0.05108,0.0681 0.221301,0.18313 0.37787,0.25556 0.169036,0.0781 0.293577,0.18714 0.306311,0.268 0.01143,0.075 0.05922,0.20861 0.1051,0.29703 0.0962,0.18493 0.627325,0.55491 0.79645,0.55491 0.06265,0 0.272363,0.0766 0.465445,0.1704 0.258044,0.12518 0.46411,0.17038 0.776714,0.17038 0.233834,0 0.445213,-0.0307 0.469422,-0.0681 0.0239,-0.0375 0.157699,-0.0681 0.29655,-0.0681 0.298928,0 0.807128,0.34691 0.807128,0.55097 0,0.0719 0.03546,0.13056 0.07942,0.13056 0.05376,0 0.06354,0.10014 0.03063,0.31187 -0.04626,0.29477 -0.02985,0.33863 0.302115,0.80083 0.438228,0.6105 0.455573,0.66067 0.289106,0.83612 -0.07435,0.0785 -0.206665,0.27783 -0.293577,0.44301 -0.199804,0.37899 -0.394179,0.40232 -0.515086,0.0617 -0.07498,-0.21141 -0.112851,-0.23856 -0.332706,-0.23856 -0.136487,0 -0.300528,-0.0415 -0.364707,-0.092 -0.06418,-0.0505 -0.219514,-0.0966 -0.344946,-0.10233 -0.227288,-0.0104 -0.22907,-0.007 -0.37702,0.53428 -0.09721,0.35583 -0.186954,0.55153 -0.258335,0.56475 -0.06037,0.0115 -0.231462,-0.0589 -0.380377,-0.1556 -0.253547,-0.16481 -0.281328,-0.16913 -0.440983,-0.069 -0.09379,0.0587 -0.170231,0.1347 -0.170231,0.16877 0,0.0344 -0.06418,0.0815 -0.142446,0.10523 -0.1798,0.0546 -0.180092,0.17618 -1.65e-4,0.45839 0.184272,0.28916 0.179797,0.35191 -0.04041,0.56242 -0.210846,0.20195 -0.203984,0.38208 0.01792,0.47581 0.08541,0.0359 0.189343,0.13708 0.231165,0.22471 0.08629,0.18127 0.101539,0.58284 0.0239,0.65627 -0.02693,0.0272 -0.101288,0.20841 -0.162468,0.40325 -0.08006,0.25449 -0.150808,0.35986 -0.251473,0.37409 -0.204859,0.0289 -0.493368,0.47367 -0.386868,0.59647 0.05236,0.0602 0.06811,0.23827 0.04308,0.48893 -0.05351,0.53926 -0.05312,0.50393 -0.0027,0.75704 0.03825,0.19004 0.01143,0.26147 -0.165452,0.44302 -0.356208,0.36496 -0.512393,0.99181 -0.343574,1.3786 0.14634,0.33542 0.06329,0.76934 -0.186065,0.97018 -0.240403,0.19359 -0.247572,0.24639 -0.05998,0.43918 0.07828,0.0804 0.142474,0.19951 0.142474,0.26455 0,0.0651 0.08006,0.20932 0.177994,0.32074 0.09785,0.11132 0.177994,0.27112 0.177994,0.35496 0,0.14723 0.01792,0.15132 0.534058,0.1197 l 0.53406,-0.0329 v 0.19519 c 0,0.10738 -0.02973,0.24841 -0.06354,0.31351 -0.03495,0.0651 -0.09874,0.19501 -0.14186,0.28871 -0.04308,0.0937 -0.108021,0.2164 -0.144855,0.27261 -0.03635,0.0563 -0.105606,0.25048 -0.153794,0.43161 -0.06354,0.23989 -0.132916,0.34593 -0.254463,0.39021 -0.09938,0.0361 -0.167239,0.11667 -0.167239,0.19879 0,0.0759 -0.03228,0.13802 -0.07104,0.13802 -0.03915,0 -0.07104,0.0774 -0.07104,0.17186 0,0.22367 0.558091,0.57782 0.9106,0.57782 0.285202,0 0.563695,0.18875 0.528161,0.35781 -0.02388,0.10803 -0.140671,0.11933 -1.254092,0.11933 -0.675988,0 -1.251312,0.0213 -1.278571,0.0474 -0.08121,0.0777 -0.267588,0.10024 -0.784477,0.0947 -0.416774,-0.004 -0.510128,-0.0281 -0.625583,-0.15885 -0.07472,-0.0845 -0.300483,-0.31465 -0.501822,-0.51143 -0.350877,-0.34294 -0.381836,-0.35782 -0.74512,-0.35782 -0.372089,0 -0.379041,-0.004 -0.379041,-0.2006 0,-0.25321 -0.162769,-0.36532 -0.808765,-0.55666 -0.619662,-0.18355 -0.707236,-0.14263 -0.764513,0.3572 -0.02389,0.20314 -0.07942,0.43559 -0.12467,0.51652 -0.04512,0.0809 -0.08222,0.29906 -0.08222,0.48461 0,0.29191 -0.02694,0.35453 -0.195913,0.46429 -0.312157,0.20223 -0.508985,0.26643 -1.22832,0.40054 -0.372065,0.0694 -0.724546,0.16339 -0.783284,0.20894 -0.05884,0.0455 -0.194413,0.0823 -0.301521,0.0814 -0.311254,-0.002 -0.50798,0.16923 -0.613918,0.53459 -0.267576,0.92269 -0.25713,0.90785 -0.755847,1.08328 -0.194731,0.0685 -0.415311,0.17919 -0.490278,0.24606 -0.07498,0.0668 -0.228167,0.14082 -0.340256,0.1644 -0.194121,0.0408 -0.20397,0.061 -0.20397,0.41379 0,0.32947 -0.02084,0.37956 -0.178006,0.44853 -0.09785,0.0427 -0.177994,0.0986 -0.177994,0.1239 0,0.0255 -0.07828,0.0803 -0.173814,0.12213 -0.09557,0.0418 -0.247878,0.19976 -0.338235,0.35119 -0.09048,0.15146 -0.207859,0.27559 -0.261005,0.27585 -0.110818,6.1e-4 -0.815093,0.15303 -1.78035,0.38536 -0.689737,0.16603 -0.924589,0.17976 -1.558294,0.0913 z"
       id="path825" />
    <path
       id="path1154"
       style="font-style:normal;font-variant:normal;font-weight:normal;font-stretch:normal;font-size:medium;line-height:1.25;font-family:'Franklin Gothic Demi Cond';-inkscape-font-specification:'Franklin Gothic Demi Cond';letter-spacing:0px;word-spacing:0px;fill:#000000;fill-opacity:1;stroke:none;stroke-width:0.08348426"
       d="m -28.048317,247.58442 h 0.471903 v 2.00594 h -0.471903 z m -0.05338,-0.24982 0.536409,-0.46144 0.176088,0.24544 -0.580459,0.33945 z m -0.281532,0.6863 -0.390122,0.13962 q -0.08324,-0.24836 -0.305155,-0.24836 -0.103825,0 -0.165056,0.056 -0.0596,0.0544 -0.0596,0.12783 0,0.0851 0.07066,0.13667 0.07244,0.0499 0.300477,0.13226 0.207758,0.0721 0.325629,0.14255 0.119586,0.0706 0.191907,0.19251 0.07396,0.12061 0.07396,0.28071 0,0.2807 -0.207756,0.46144 -0.206043,0.17928 -0.553719,0.17928 -0.583622,0 -0.745631,-0.55109 l 0.412124,-0.11018 q 0.07549,0.30273 0.344525,0.30273 0.122636,0 0.198123,-0.0589 0.07713,-0.0602 0.07713,-0.15725 0,-0.0734 -0.05338,-0.1308 -0.05338,-0.0589 -0.245337,-0.12351 -0.247025,-0.0822 -0.368085,-0.14842 -0.121239,-0.0677 -0.199841,-0.19103 -0.07853,-0.12492 -0.07853,-0.28363 0,-0.2704 0.185694,-0.44234 0.18712,-0.17341 0.493926,-0.17341 0.559996,0 0.698454,0.4673 z m -1.646999,0.56576 q 0,1.03455 -0.778657,1.03455 -0.386984,0 -0.583621,-0.26303 -0.196727,-0.26454 -0.196727,-0.77149 0,-1.0331 0.778694,-1.0331 0.380682,0 0.580435,0.2586 0.19984,0.25865 0.19984,0.77446 z m -0.497103,0 q 0,-0.40559 -0.06748,-0.53933 -0.06748,-0.13521 -0.215665,-0.13521 -0.146428,0 -0.213958,0.13521 -0.06748,0.13522 -0.06748,0.53933 0,0.39678 0.06609,0.53638 0.06748,0.13964 0.215652,0.13964 0.146414,0 0.213971,-0.13373 0.06914,-0.13372 0.06914,-0.54225 z m -2.52318,-1.00224 h 1.338655 v 0.37622 h -0.438886 v 1.62971 h -0.471916 v -1.62971 h -0.427854 z m -0.116409,1.00224 q 0,1.03455 -0.77867,1.03455 -0.386973,0 -0.583609,-0.26303 -0.196726,-0.26454 -0.196726,-0.77149 0,-1.0331 0.778656,-1.0331 0.380707,0 0.580482,0.2586 0.199844,0.25865 0.199844,0.77446 z m -0.497088,0 q 0,-0.40559 -0.06748,-0.53933 -0.06748,-0.13521 -0.215664,-0.13521 -0.146414,0 -0.213957,0.13521 -0.06748,0.13522 -0.06748,0.53933 0,0.39678 0.06609,0.53638 0.06748,0.13964 0.215673,0.13964 0.146414,0 0.213962,-0.13373 0.06914,-0.13372 0.06914,-0.54225 z m -2.633316,-1.00224 h 0.618202 q 0.281518,0 0.435746,0.0441 0.155754,0.044 0.261173,0.19987 0.10548,0.15433 0.10548,0.38356 0,0.2204 -0.08502,0.36444 -0.08502,0.14401 -0.236009,0.20865 -0.149527,0.0632 -0.460909,0.0632 h -0.166774 v 0.74212 h -0.471901 z m 0.471889,0.32477 v 0.59371 h 0.146428 q 0.193612,0 0.248437,-0.0837 0.05655,-0.0837 0.05655,-0.21748 0,-0.1131 -0.0441,-0.18219 -0.04245,-0.0706 -0.100651,-0.0896 -0.05655,-0.0205 -0.160547,-0.0205 z m -2.611275,-0.32477 h 1.30565 v 0.34389 h -0.833723 v 0.46586 h 0.648079 v 0.34531 h -0.648079 v 0.4923 h 0.833723 v 0.35857 h -1.30565 z m -1.812171,0 h 0.508082 q 0.330356,0 0.536437,0.0837 0.20773,0.0822 0.331916,0.30566 0.124415,0.22339 0.124415,0.60398 0,0.27039 -0.07549,0.48055 -0.07549,0.20866 -0.198139,0.32917 -0.122636,0.12048 -0.276994,0.16167 -0.154051,0.041 -0.385419,0.041 h -0.564739 z m 0.471902,0.34389 v 1.31671 h 0.08032 q 0.163646,0 0.253242,-0.0588 0.08972,-0.0589 0.143327,-0.20426 0.05338,-0.14696 0.05338,-0.42324 0,-0.25568 -0.05985,-0.39383 -0.05833,-0.13814 -0.147836,-0.18662 -0.08819,-0.0499 -0.242224,-0.0499 z m -1.411044,0.0925 -0.390134,0.13963 q -0.08324,-0.24835 -0.30513,-0.24835 -0.103825,0 -0.165082,0.056 -0.0596,0.0544 -0.0596,0.12782 0,0.0851 0.07066,0.13666 0.07244,0.0499 0.300503,0.13223 0.207719,0.072 0.325589,0.14257 0.119588,0.0706 0.191924,0.19252 0.07396,0.12048 0.07396,0.2807 0,0.28071 -0.207743,0.46145 -0.206046,0.17928 -0.553722,0.17928 -0.583622,0 -0.745627,-0.55109 l 0.412121,-0.11019 q 0.07549,0.30272 0.344526,0.30272 0.122637,0 0.198135,-0.0589 0.07713,-0.0602 0.07713,-0.15723 0,-0.0734 -0.05338,-0.1308 -0.05338,-0.0589 -0.245337,-0.1234 -0.247038,-0.0824 -0.368087,-0.14841 -0.121238,-0.0677 -0.199841,-0.19105 -0.07853,-0.12493 -0.07853,-0.28365 0,-0.27038 0.185694,-0.44232 0.18712,-0.17343 0.493938,-0.17343 0.559999,0 0.698457,0.46731 z m -1.643872,0.56576 q 0,1.03456 -0.778657,1.03456 -0.386986,0 -0.583622,-0.26302 -0.196715,-0.26454 -0.196715,-0.77152 0,-1.03309 0.77866,-1.03309 0.380668,0 0.580443,0.25865 0.19984,0.25863 0.19984,0.77445 z m -0.497089,0 q 0,-0.40558 -0.06748,-0.53932 -0.06748,-0.13521 -0.215663,-0.13521 -0.1464,0 -0.213957,0.13521 -0.06748,0.13522 -0.06748,0.53932 0,0.3968 0.06621,0.5364 0.06748,0.13963 0.215661,0.13963 0.146413,0 0.213962,-0.13371 0.06914,-0.13372 0.06914,-0.54225 z m -1.865649,-1.0022 h 0.471901 v 2.00591 h -0.471926 z m -1.648588,0 h 0.618227 q 0.281506,0 0.435734,0.044 0.155742,0.0441 0.26117,0.19987 0.10548,0.15431 0.10548,0.38356 0,0.2204 -0.08502,0.36443 -0.08502,0.144 -0.236019,0.20867 -0.149515,0.0632 -0.460911,0.0632 h -0.16676 v 0.74213 h -0.471915 z m 0.471927,0.32475 v 0.5937 h 0.146415 q 0.193319,0 0.248449,-0.0838 0.05655,-0.0837 0.05655,-0.21748 0,-0.11311 -0.04397,-0.18221 -0.04245,-0.0705 -0.100651,-0.0896 -0.05655,-0.0205 -0.160546,-0.0205 z m -1.35285,-0.32475 h 0.471928 v 2.00591 h -0.471928 z m -0.711011,1.27554 0.435722,0.025 q -0.02262,0.32625 -0.221865,0.53197 -0.198137,0.20428 -0.523841,0.20428 -0.396413,0 -0.604044,-0.27479 -0.207757,-0.27479 -0.207757,-0.75681 0,-0.48642 0.206054,-0.76123 0.206055,-0.27478 0.611911,-0.27478 0.671704,0 0.731497,0.77592 l -0.43102,0.0293 q -0.0169,-0.44674 -0.298889,-0.44674 -0.147837,0 -0.23602,0.14398 -0.08654,0.14402 -0.08654,0.55844 0,0.37032 0.08032,0.50993 0.08032,0.13815 0.240533,0.13815 0.258069,0 0.303617,-0.40266 z m -1.925453,-1.27554 h 0.47194 v 2.00591 h -0.47194 z m -1.829493,0 h 0.523854 l 0.55213,1.24617 v -1.24617 h 0.364948 v 2.00591 h -0.421576 l -0.654408,-1.45189 v 1.45189 h -0.364948 z m -1.851491,0 h 0.471902 v 1.14623 q 0,0.2425 0.02262,0.33799 0.02262,0.0954 0.0976,0.14549 0.07549,0.0486 0.183993,0.0486 0.117933,0 0.187118,-0.0544 0.06914,-0.0544 0.08502,-0.14401 0.01691,-0.0896 0.01691,-0.33358 v -1.14624 h 0.394838 v 1.12862 q 0,0.33798 -0.04232,0.50404 -0.04092,0.16606 -0.212269,0.28507 -0.169873,0.11907 -0.468776,0.11907 -0.280106,0 -0.440474,-0.0867 -0.160533,-0.0882 -0.228103,-0.24541 -0.06748,-0.15874 -0.06748,-0.55842 z m -2.416241,0 h 0.692152 l 0.303618,1.23882 0.341361,-1.23882 h 0.671678 v 2.00591 h -0.442051 v -1.67968 l -0.438859,1.67968 h -0.342924 l -0.401141,-1.67968 v 1.67968 h -0.383834 z m -2.139387,0 h 1.305664 v 0.34387 h -0.833724 v 0.46584 h 0.648079 v 0.34532 h -0.648079 v 0.4923 h 0.833724 v 0.35857 h -1.305664 z m -1.812158,0 h 0.50807 q 0.330369,0 0.536423,0.0837 0.207744,0.0822 0.331944,0.30565 0.124415,0.22337 0.124415,0.60398 0,0.27039 -0.07549,0.48055 -0.07549,0.20866 -0.198137,0.32917 -0.122636,0.1206 -0.276993,0.16167 -0.154039,0.041 -0.385382,0.041 h -0.564725 z m 0.471902,0.34387 v 1.3167 h 0.08032 q 0.163659,0 0.253254,-0.0589 0.08959,-0.0589 0.143021,-0.20426 0.05338,-0.14696 0.05338,-0.42322 0,-0.2557 -0.05985,-0.39384 -0.05833,-0.13815 -0.147825,-0.18664 -0.08819,-0.0499 -0.242235,-0.0499 z m -2.905477,-0.34387 h 0.523816 l 0.552156,1.24617 v -1.24617 h 0.364961 v 2.00591 h -0.421565 l -0.654421,-1.45189 v 1.45189 h -0.364947 z m -0.313046,1.0022 q 0,1.03456 -0.778647,1.03456 -0.386984,0 -0.583622,-0.26302 -0.196726,-0.26454 -0.196726,-0.77152 0,-1.03309 0.778671,-1.03309 0.380705,0 0.580469,0.25865 0.199828,0.25863 0.199828,0.77445 z m -0.497079,0 q 0,-0.40558 -0.06748,-0.53932 -0.06749,-0.13521 -0.215382,-0.13521 -0.1464,0 -0.213947,0.13521 -0.06749,0.13522 -0.06749,0.53932 0,0.3968 0.06621,0.5364 0.06749,0.13963 0.215663,0.13963 0.146401,0 0.213971,-0.13371 0.06914,-0.13372 0.06914,-0.54225 z m -0.552156,-1.27995 0.536435,-0.46145 0.176089,0.24543 -0.580483,0.33949 z m -1.313518,0.27775 h 0.471941 v 2.00591 h -0.471941 z m -0.714175,1.27554 0.435746,0.025 q -0.02262,0.32625 -0.221889,0.53197 -0.198137,0.20427 -0.523828,0.20427 -0.396414,0 -0.604082,-0.2748 -0.207732,-0.27479 -0.207732,-0.75682 0,-0.48641 0.206029,-0.76123 0.206054,-0.27479 0.611948,-0.27479 0.671679,0 0.73146,0.77592 l -0.431007,0.0293 q -0.01691,-0.44673 -0.298863,-0.44673 -0.147837,0 -0.236021,0.14399 -0.08654,0.144 -0.08654,0.55843 0,0.37033 0.08032,0.50993 0.08032,0.13814 0.240545,0.13814 0.258057,0 0.303629,-0.40265 z m -2.285687,-1.27554 h 0.475092 l 0.613499,2.00591 h -0.482933 l -0.106751,-0.4144 h -0.604069 l -0.105353,0.4144 h -0.434184 z m 0.40902,1.24762 -0.215663,-0.81853 -0.209155,0.81853 z m -1.669036,-1.24762 h 0.471915 v 2.00591 h -0.471915 z m -0.711024,1.27554 0.435721,0.025 q -0.02262,0.32625 -0.221863,0.53197 -0.198137,0.20427 -0.523842,0.20427 -0.396413,0 -0.604068,-0.2748 -0.207758,-0.27479 -0.207758,-0.75682 0,-0.48641 0.206055,-0.76123 0.206054,-0.27479 0.611948,-0.27479 0.671666,0 0.731446,0.77592 l -0.431006,0.0293 q -0.01691,-0.44673 -0.298889,-0.44673 -0.147837,0 -0.236021,0.14399 -0.08654,0.144 -0.08654,0.55843 0,0.37033 0.08032,0.50993 0.08032,0.13814 0.240545,0.13814 0.258044,0 0.303617,-0.40265 z m -1.374887,-0.27334 q 0,1.03456 -0.778671,1.03456 -0.386971,0 -0.583609,-0.26304 -0.196714,-0.26452 -0.196714,-0.77151 0,-1.03309 0.77866,-1.03309 0.380668,0 0.580483,0.25862 0.199827,0.25865 0.199827,0.77446 z m -0.497063,0 q 0,-0.4056 -0.06749,-0.53932 -0.06748,-0.1352 -0.215661,-0.1352 -0.146414,0 -0.21396,0.1352 -0.06749,0.13523 -0.06749,0.53932 0,0.39677 0.06609,0.53639 0.06749,0.13964 0.215675,0.13964 0.146401,0 0.213959,-0.13372 0.06914,-0.13372 0.06914,-0.54225 z m -1.319835,-0.56578 -0.390084,0.13964 q -0.08337,-0.24835 -0.305193,-0.24835 -0.103701,0 -0.16507,0.056 -0.0596,0.0544 -0.0596,0.12783 0,0.0851 0.07066,0.13667 0.07244,0.0499 0.300504,0.13226 0.207731,0.0721 0.325602,0.14254 0.119587,0.0706 0.191923,0.19252 0.07409,0.12061 0.07409,0.2807 0,0.28071 -0.207757,0.46144 -0.206042,0.17929 -0.55372,0.17929 -0.583621,0 -0.745628,-0.55109 l 0.412159,-0.11019 q 0.07549,0.30275 0.344488,0.30275 0.122636,0 0.198138,-0.0589 0.07713,-0.0602 0.07713,-0.15725 0,-0.0734 -0.05338,-0.13078 -0.05338,-0.0589 -0.245323,-0.1234 -0.247039,-0.0822 -0.3681,-0.14842 -0.121237,-0.0676 -0.199826,-0.19103 -0.07853,-0.12493 -0.07853,-0.28363 0,-0.27038 0.185709,-0.44233 0.187106,-0.17341 0.493938,-0.17341 0.56001,0 0.69843,0.46731 z m -2.582961,-0.43644 h 0.475053 l 0.6135,2.00592 h -0.482921 l -0.106751,-0.41442 h -0.604083 l -0.10548,0.41442 h -0.434309 z m 0.408995,1.24763 -0.215675,-0.81853 -0.209156,0.81853 z"
       inkscape:connector-curvature="0" />
    <path
       inkscape:connector-curvature="0"
       style="fill:url(#radialGradient10180);fill-opacity:1;fill-rule:nonzero;stroke:none;stroke-width:0.06954101;stroke-miterlimit:4;stroke-dasharray:none;stroke-dashoffset:0;stroke-opacity:1"
       clip-path="url(#clipPath997)"
       d="m -77.3892,206.13385 v 6.22314 a 4.625519,4.393607 7.3987092 0 0 3.245541,1.31216 4.625519,4.393607 7.3987092 0 0 4.621381,-4.33965 4.625519,4.393607 7.3987092 0 0 -1.435603,-3.19565 z"
       id="path973" />
    <path
       inkscape:connector-curvature="0"
       style="fill:#711d00;fill-opacity:1;fill-rule:nonzero;stroke:none;stroke-width:0.06954101;stroke-miterlimit:4;stroke-dasharray:none;stroke-dashoffset:0;stroke-opacity:1"
       id="path1063"
       d="m -72.853264,217.04357 -2.395131,-0.0104 1.228522,-1.9274 z" />
    <path
       inkscape:connector-curvature="0"
       d="m -67.003004,214.06328 -1.904002,1.47516 -0.184641,-2.28803 z"
       id="path1065"
       style="fill:#711d00;fill-opacity:1;fill-rule:nonzero;stroke:none;stroke-width:0.06954101;stroke-miterlimit:4;stroke-dasharray:none;stroke-dashoffset:0;stroke-opacity:1" />
    <path
       inkscape:connector-curvature="0"
       style="fill:#711d00;fill-opacity:1;fill-rule:nonzero;stroke:none;stroke-width:0.06954101;stroke-miterlimit:4;stroke-dasharray:none;stroke-dashoffset:0;stroke-opacity:1"
       id="path1067"
       d="m -64.987104,211.20548 -2.029866,-1.29066 2.045015,-0.98004 z" />
    <path
       id="path1092"
       style="font-style:normal;font-variant:normal;font-weight:normal;font-stretch:normal;font-size:medium;line-height:1.25;font-family:'Franklin Gothic Demi Cond';-inkscape-font-specification:'Franklin Gothic Demi Cond';letter-spacing:0px;word-spacing:0px;fill:#000000;fill-opacity:1;stroke:none;stroke-width:0.07111401"
       d="m -67.488426,244.66528 -0.60595,-1.78714 -0.588286,1.78714 z m -1.150011,-2.72406 h 1.335808 l 1.725055,4.37971 h -1.357959 l -0.300757,-0.90483 h -1.698507 l -0.296322,0.90483 h -1.220823 z m 4.812186,0 h 1.946257 l 0.853651,2.70483 0.959829,-2.70483 h 1.888727 v 4.37971 h -1.242923 v -3.6674 l -1.234089,3.6674 h -0.964239 l -1.127924,-3.6674 v 3.6674 h -1.079289 z m 9.363735,0.75081 v 2.87487 h 0.225675 q 0.460033,0 0.71213,-0.12827 0.252186,-0.12825 0.402514,-0.44599 0.150277,-0.32086 0.150277,-0.92407 0,-0.55829 -0.168043,-0.85989 -0.163634,-0.30162 -0.415769,-0.40749 -0.247547,-0.10903 -0.681172,-0.10903 z m -1.326964,-0.75081 h 1.428682 q 0.928884,0 1.508337,0.18289 0.583864,0.17968 0.933295,0.66738 0.34943,0.48768 0.34943,1.31872 0,0.59039 -0.212306,1.04921 -0.212295,0.45563 -0.557328,0.71872 -0.344996,0.2631 -0.778493,0.35294 -0.433472,0.0899 -1.083673,0.0899 h -1.587944 z m 6.338214,0 h 3.671273 v 0.75081 h -2.34431 v 1.01712 h 1.822376 v 0.754 h -1.822376 v 1.07489 h 2.34431 v 0.7829 h -3.671273 z m 6.88671,0.70909 v 1.29627 h 0.411372 q 0.544074,0 0.69886,-0.1829 0.159302,-0.18288 0.159302,-0.47486 0,-0.24706 -0.12378,-0.39786 -0.119459,-0.15401 -0.283079,-0.19573 -0.1593,-0.045 -0.451163,-0.045 z m -1.326963,-0.70909 h 1.738335 q 0.791747,0 1.225206,0.0961 0.437921,0.0964 0.734256,0.43639 0.296358,0.3369 0.296358,0.83743 0,0.4813 -0.238804,0.79572 -0.23879,0.31445 -0.663493,0.45562 -0.420203,0.13801 -1.295967,0.13801 h -0.468865 v 1.62032 h -1.326949 z m 8.647158,2.18823 q 0,-0.88555 -0.19017,-1.17752 -0.190156,-0.29519 -0.605951,-0.29519 -0.411358,0 -0.601578,0.29519 -0.190156,0.29519 -0.190156,1.17752 0,0.86632 0.185772,1.17116 0.190179,0.3048 0.605975,0.3048 0.411371,0 0.601553,-0.29197 0.194555,-0.29198 0.194555,-1.18399 z m 1.397722,0 q 0,2.25883 -2.189483,2.25883 -1.088109,0 -1.641014,-0.57433 -0.552905,-0.57752 -0.552905,-1.6845 0,-2.25562 2.189484,-2.25562 1.070429,0 1.632155,0.56471 0.561763,0.56471 0.561763,1.69091 z"
       inkscape:connector-curvature="0" />
  </g>
</svg>
