<?xml version="1.0" encoding="UTF-8" standalone="no"?>
<!-- Created with Inkscape (http://www.inkscape.org/) -->

<svg
   xmlns:dc="http://purl.org/dc/elements/1.1/"
   xmlns:cc="http://creativecommons.org/ns#"
   xmlns:rdf="http://www.w3.org/1999/02/22-rdf-syntax-ns#"
   xmlns:svg="http://www.w3.org/2000/svg"
   xmlns="http://www.w3.org/2000/svg"
   xmlns:sodipodi="http://sodipodi.sourceforge.net/DTD/sodipodi-0.dtd"
   xmlns:inkscape="http://www.inkscape.org/namespaces/inkscape"
   width="49.999996mm"
   height="50mm"
   viewBox="0 0 49.999996 49.999999"
   version="1.1"
   id="svg10094"
   inkscape:version="0.92.4 (5da689c313, 2019-01-14)"
   sodipodi:docname="amdeco.svg">
  <defs
     id="defs10088" />
  <sodipodi:namedview
     id="base"
     pagecolor="#ffffff"
     bordercolor="#666666"
     borderopacity="1.0"
     inkscape:pageopacity="0.0"
     inkscape:pageshadow="2"
     inkscape:zoom="1.4"
     inkscape:cx="94.581487"
     inkscape:cy="-38.900787"
     inkscape:document-units="mm"
     inkscape:current-layer="layer1"
     showgrid="false"
     fit-margin-top="0"
     fit-margin-left="0"
     fit-margin-right="0"
     fit-margin-bottom="0"
     inkscape:window-width="1920"
     inkscape:window-height="971"
     inkscape:window-x="0"
     inkscape:window-y="31"
     inkscape:window-maximized="1" />
  <metadata
     id="metadata10091">
    <rdf:RDF>
      <cc:Work
         rdf:about="">
        <dc:format>image/svg+xml</dc:format>
        <dc:type
           rdf:resource="http://purl.org/dc/dcmitype/StillImage" />
        <dc:title></dc:title>
      </cc:Work>
    </rdf:RDF>
  </metadata>
  <g
     inkscape:label="Layer 1"
     inkscape:groupmode="layer"
     id="layer1"
     transform="translate(-67.982164,-113.11964)">
    <path
       id="path2027"
       d="m 84.275254,134.64607 c 1.74274,-2.69919 3.77,-4.56582 6.65632,-4.33157 2.94721,0.23921 4.74781,4.54019 5.58407,8.25506 l 1.48925,-4.65574 c -0.32468,-0.87772 -2.99143,-4.80478 -5.59266,-5.27505 -2.99978,-0.54233 -5.1624,0.98593 -6.11087,2.26445 -0.94848,1.27853 -1.67129,2.68876 -2.02611,3.74285 z"
       style="fill:#006300;fill-opacity:1;stroke:none;stroke-width:0.01398254;stroke-linecap:butt;stroke-linejoin:miter;stroke-miterlimit:4;stroke-dasharray:none;stroke-opacity:1"
       inkscape:connector-curvature="0" />
    <path
       id="path2029"
       d="m 83.350404,131.80279 c 4.39215,-8.03411 14.02947,-3.45403 16.841496,2.78906 -1.168536,-4.58992 -3.725966,-7.83154 -6.060566,-9.33682 -2.25776,-1.45573 -4.30087,-1.25169 -5.0389,-1.14503 -4.81719,0.69617 -5.80613,6.7891 -5.74203,7.69279 z"
       style="fill:#f1d521;fill-opacity:1;stroke:#ff0000;stroke-width:0.01398254;stroke-linecap:butt;stroke-linejoin:miter;stroke-miterlimit:4;stroke-dasharray:none;stroke-opacity:1"
       inkscape:connector-curvature="0" />
    <path
       inkscape:connector-curvature="0"
       d="m 90.343424,121.91235 a 1.6533207,2.1470454 70.245293 0 1 -1.61708,1.82171 1.6533207,2.1470454 70.245293 0 1 -2.33043,-0.53806 1.6533207,2.1470454 70.245293 0 1 0.42922,-2.09596"
       id="path2033"
       style="fill:#f1d521;fill-opacity:1;fill-rule:nonzero;stroke:none;stroke-width:0.01398254;stroke-miterlimit:4;stroke-dasharray:none;stroke-dashoffset:0;stroke-opacity:1;paint-order:stroke fill markers" />
    <path
       inkscape:connector-curvature="0"
       id="path2037"
       d="m 86.825134,121.10006 c 1.98135,0.45858 3.97952,0.85562 5.91597,1.4785 -1.30721,-0.69684 -4.03037,-1.63726 -8.08164,-1.80369 l 2.16567,0.32519"
       style="fill:#ffffff;fill-opacity:1;stroke:none;stroke-width:0.01398254;stroke-linecap:butt;stroke-linejoin:miter;stroke-miterlimit:4;stroke-dasharray:none;stroke-opacity:1" />
    <path
       inkscape:connector-curvature="0"
       id="path2039"
       d="m 90.388224,121.67878 0.18754,-2.36729 c -1.89246,-1.02836 -2.75816,-0.78134 -3.3162,-0.62959 -0.38179,1.19241 -0.46208,1.57094 -0.56265,2.2376"
       style="fill:#ffffff;fill-opacity:1;stroke:none;stroke-width:0.01398254;stroke-linecap:butt;stroke-linejoin:miter;stroke-miterlimit:4;stroke-dasharray:none;stroke-opacity:1" />
    <path
       inkscape:connector-curvature="0"
       id="path2041"
       d="m 86.810824,120.94921 c 0.43022,-0.0391 2.20879,-0.0984 3.45879,0.68973"
       style="fill:#000000;fill-opacity:1;stroke:none;stroke-width:0.01398254;stroke-linecap:butt;stroke-linejoin:miter;stroke-miterlimit:4;stroke-dasharray:none;stroke-opacity:1" />
    <path
       inkscape:connector-curvature="0"
       id="path2043"
       d="m 88.493844,121.15917 c 0.23582,-0.4121 0.22443,-1.34537 -0.15192,-1.80421 0.12274,0.63934 0.14281,1.27829 0.15192,1.80421 z"
       style="fill:#000000;fill-opacity:1;stroke:none;stroke-width:0.01398254;stroke-linecap:butt;stroke-linejoin:miter;stroke-miterlimit:4;stroke-dasharray:none;stroke-opacity:1" />
    <path
       inkscape:connector-curvature="0"
       style="fill:#000000;fill-opacity:1;stroke:none;stroke-width:0.01398254;stroke-linecap:butt;stroke-linejoin:miter;stroke-miterlimit:4;stroke-dasharray:none;stroke-opacity:1"
       d="m 88.593314,121.12673 c 0.28182,-0.30991 0.82426,-1.03687 1.10647,-1.49817 -0.0212,0.93105 -0.88188,1.43229 -1.10647,1.49817 z"
       id="path2045" />
    <path
       inkscape:connector-curvature="0"
       d="m 88.637314,124.18555 c 5.07791,-1.55335 8.87259,-1.77822 8.53304,3.98336 -2.70337,-3.61102 -5.73409,-4.54637 -8.53304,-3.98336 z m -2.90551,1.7991 c 3.50015,1.49351 5.10143,-0.088 6.96841,-1.23931 -0.87527,1.11125 -1.71363,2.41893 -2.7729,2.55081 l 0.30141,0.6738 c -0.64089,-0.27663 -1.83883,0.15767 -2.13393,0.34893 l 0.0723,-0.78209 c -0.4728,-0.11758 -1.40926,-0.782 -2.43533,-1.55214 z"
       style="fill:#aa0000;fill-opacity:1;stroke:none;stroke-width:0.01398254;stroke-linecap:butt;stroke-linejoin:miter;stroke-miterlimit:4;stroke-dasharray:none;stroke-opacity:1"
       id="path2053" />
    <path
       id="path2416"
       style="font-style:normal;font-variant:normal;font-weight:bold;font-stretch:normal;font-size:medium;line-height:1.25;font-family:'Nirmala UI';-inkscape-font-specification:'Nirmala UI Bold';text-align:center;letter-spacing:1.71507263px;word-spacing:0px;text-anchor:middle;fill:#215286;fill-opacity:1;stroke:none;stroke-width:0.27965114"
       d="m 117.95307,157.6686 h -0.41808 l -0.12115,-0.36968 h -0.60573 l -0.11996,0.36968 h -0.4157 l 0.61999,-1.66182 h 0.45489 z m -0.62711,-0.65708 -0.18291,-0.55858 q -0.0204,-0.0626 -0.0285,-0.14949 h -0.01 q -0.006,0.073 -0.0298,0.14488 l -0.18529,0.56321 z m -2.94676,0.65708 v -1.66182 h 0.61999 q 0.28507,0 0.43827,0.102 0.15322,0.10201 0.15322,0.28741 0,0.13442 -0.0938,0.23524 -0.0926,0.10081 -0.23754,0.14022 v 0.004 q 0.18174,0.022 0.2898,0.13095 0.10926,0.10892 0.10926,0.26539 0,0.22827 -0.16747,0.36273 -0.16747,0.13328 -0.45726,0.13328 z m 0.38364,-1.38601 v 0.39402 h 0.16866 q 0.11874,0 0.18648,-0.0556 0.0689,-0.0568 0.0689,-0.15529 0,-0.18309 -0.2803,-0.18309 z m 0,0.67215 v 0.43805 h 0.20785 q 0.13304,0 0.20785,-0.0603 0.076,-0.0602 0.076,-0.16456 0,-0.0996 -0.0748,-0.15642 -0.0737,-0.0568 -0.20667,-0.0568 z m -1.2887,0.71386 h -0.37889 v -0.99431 q 0,-0.16109 0.0143,-0.35578 h -0.01 q -0.0298,0.15299 -0.0534,0.22017 l -0.39907,1.1299 h -0.31356 l -0.4062,-1.11831 q -0.0167,-0.0452 -0.0534,-0.23177 h -0.0106 q 0.0154,0.24567 0.0154,0.43111 v 0.91898 h -0.34562 v -1.66182 h 0.56178 l 0.348,0.98504 q 0.0416,0.11822 0.0606,0.23757 h 0.007 q 0.0321,-0.13792 0.0677,-0.2399 l 0.348,-0.98272 h 0.54754 z m -2.67121,0 h -0.41808 l -0.12115,-0.36968 h -0.60574 l -0.11996,0.36968 h -0.4157 l 0.61999,-1.66182 h 0.4549 z m -0.62711,-0.65708 -0.18291,-0.55858 q -0.0204,-0.0626 -0.0285,-0.14949 h -0.01 q -0.006,0.073 -0.0298,0.14488 l -0.18529,0.56321 z m -2.94676,0.65708 v -1.66182 h 0.61999 q 0.28507,0 0.43827,0.102 0.15322,0.10201 0.15322,0.28741 0,0.13442 -0.0938,0.23524 -0.0926,0.10081 -0.23754,0.14022 v 0.004 q 0.18174,0.022 0.2898,0.13095 0.10927,0.10892 0.10927,0.26539 0,0.22827 -0.16747,0.36273 -0.16747,0.13328 -0.45728,0.13328 z m 0.38364,-1.38601 v 0.39402 h 0.16866 q 0.1188,0 0.18648,-0.0556 0.0689,-0.0568 0.0689,-0.15529 0,-0.18309 -0.2803,-0.18309 z m 0,0.67215 v 0.43805 h 0.20785 q 0.13305,0 0.20786,-0.0603 0.076,-0.0602 0.076,-0.16456 0,-0.0996 -0.0748,-0.15642 -0.0736,-0.0568 -0.20666,-0.0568 z m -1.11411,0.71386 h -0.41807 l -0.12116,-0.36968 h -0.60573 l -0.11997,0.36968 h -0.41568 l 0.61999,-1.66182 h 0.4549 z m -0.62711,-0.65708 -0.18292,-0.55858 q -0.0204,-0.0626 -0.0285,-0.14949 h -0.01 q -0.006,0.073 -0.0298,0.14488 l -0.18529,0.56321 z m -1.77685,0.65708 h -0.38483 v -0.67678 h -0.7055 v 0.67678 h -0.38363 v -1.66182 h 0.38363 v 0.66287 h 0.7055 v -0.66287 h 0.38483 z m -2.29114,-0.0591 q -0.18648,0.0881 -0.48696,0.0881 -0.39195,0 -0.61643,-0.22483 -0.22448,-0.22483 -0.22448,-0.59914 0,-0.39865 0.25179,-0.64665 0.25297,-0.248 0.65561,-0.248 0.24943,0 0.42046,0.0614 v 0.36042 q -0.17102,-0.0996 -0.38957,-0.0996 -0.23993,0 -0.3872,0.14718 -0.14726,0.14719 -0.14726,0.39865 0,0.24104 0.13895,0.38475 0.13895,0.14253 0.37413,0.14253 0.22446,0 0.41095,-0.10662 z m -2.862416,0.0881 q -0.36582,0 -0.59623,-0.23177 -0.23042,-0.23293 -0.23042,-0.60609 0,-0.39402 0.23399,-0.63738 0.23397,-0.24337 0.61999,-0.24337 0.36463,0 0.5891,0.23293 0.22568,0.23294 0.22568,0.61421 0,0.39169 -0.23397,0.63159 -0.2328,0.23987 -0.60811,0.23987 z m 0.0167,-1.39645 q -0.20189,0 -0.32068,0.14832 -0.11877,0.14719 -0.11877,0.39055 0,0.24683 0.11877,0.39053 0.11875,0.14372 0.31118,0.14372 0.19835,0 0.31475,-0.13908 0.11638,-0.14023 0.11638,-0.38823 0,-0.25843 -0.11283,-0.40213 -0.11284,-0.14369 -0.30881,-0.14369 z m -1.52031,1.30837 q -0.18646,0.0881 -0.48697,0.0881 -0.39194,0 -0.61642,-0.22483 -0.22448,-0.22483 -0.22448,-0.59914 0,-0.39865 0.25178,-0.64665 0.25298,-0.248 0.65562,-0.248 0.24941,0 0.42045,0.0614 v 0.36041 q -0.17104,-0.0996 -0.38957,-0.0996 -0.23992,0 -0.38719,0.14718 -0.14726,0.14719 -0.14726,0.39865 0,0.24104 0.13894,0.38475 0.13895,0.14253 0.37414,0.14253 0.22448,0 0.41094,-0.10662 z m -3.20214,0.0591 h -1.02142 v -1.66183 h 0.98224 v 0.30479 h -0.59861 v 0.36968 h 0.55704 v 0.30362 h -0.55704 v 0.38011 h 0.6378 z m -3.33514,0 v -1.66183 h 0.60336 q 0.90742,0 0.90742,0.81006 0,0.38822 -0.24824,0.61999 -0.24705,0.23177 -0.65918,0.23177 z m 0.38364,-1.35704 v 1.05341 h 0.19003 q 0.24943,0 0.39076,-0.14602 0.14252,-0.14602 0.14252,-0.39749 0,-0.23757 -0.14136,-0.37316 -0.14016,-0.13672 -0.39432,-0.13672 z m -3.53114,1.2933 v -0.37084 q 0.10333,0.0846 0.22448,0.12748 0.12116,0.0417 0.24469,0.0417 0.0725,0 0.1259,-0.0127 0.0546,-0.0127 0.0903,-0.0348 0.0368,-0.023 0.0546,-0.0533 0.018,-0.0313 0.018,-0.0672 0,-0.0487 -0.0285,-0.0869 -0.0285,-0.0382 -0.0784,-0.0707 -0.0487,-0.0325 -0.11639,-0.0626 -0.0677,-0.03 -0.14609,-0.0614 -0.19954,-0.0811 -0.29813,-0.19817 -0.0974,-0.11705 -0.0974,-0.28275 0,-0.12979 0.0534,-0.22253 0.0534,-0.0938 0.1449,-0.15412 0.0926,-0.0603 0.21382,-0.0881 0.12115,-0.0288 0.25655,-0.0288 0.13305,0 0.23519,0.0162 0.10333,0.0151 0.19003,0.0475 v 0.3465 q -0.0428,-0.0288 -0.0938,-0.051 -0.0499,-0.022 -0.10333,-0.0359 -0.0534,-0.0151 -0.10688,-0.022 -0.0523,-0.007 -0.0998,-0.007 -0.0653,0 -0.11877,0.0127 -0.0534,0.0117 -0.0903,0.0336 -0.0368,0.022 -0.057,0.0533 -0.0204,0.0301 -0.0204,0.0684 0,0.0417 0.0225,0.0753 0.0225,0.0325 0.0641,0.0626 0.0416,0.0288 0.10098,0.0579 0.0594,0.0279 0.1342,0.058 0.10214,0.0417 0.18291,0.0892 0.082,0.0464 0.14017,0.10545 0.0582,0.0591 0.0891,0.13559 0.0309,0.0753 0.0309,0.17615 0,0.13908 -0.0546,0.23407 -0.0534,0.0939 -0.14609,0.15299 -0.0926,0.0579 -0.21617,0.0834 -0.12235,0.0254 -0.25892,0.0254 -0.14016,0 -0.26724,-0.023 -0.12589,-0.023 -0.21853,-0.0695 z m -0.71504,0.0637 h -1.0215 v -1.66182 h 0.98224 v 0.30478 h -0.59861 v 0.36968 h 0.55704 v 0.30362 h -0.55704 v 0.38011 h 0.63781 z m -1.76972,0 h -1.01438 v -1.66182 h 0.38364 v 1.3582 h 0.63067 z m -1.74479,0 h -0.41813 l -0.12116,-0.36969 h -0.60573 l -0.11997,0.36968 h -0.4157 l 0.61999,-1.66182 h 0.4549 z m -0.62717,-0.65709 -0.18291,-0.55858 q -0.0201,-0.0626 -0.0285,-0.14949 h -0.01 q -0.006,0.073 -0.0297,0.14488 l -0.18529,0.56321 z m -2.31608,0.0846 v 0.57248 h -0.38363 v -1.66182 h 0.60098 q 0.64374,0 0.64374,0.52961 0,0.25033 -0.18529,0.4056 -0.1841,0.15413 -0.4929,0.15413 z m 0,-0.80194 v 0.51802 h 0.15084 q 0.30643,0 0.30643,-0.26191 0,-0.2561 -0.30643,-0.2561 z m -1.28751,1.37442 h -0.38363 v -1.66182 h 0.38363 z m -1.20081,-0.0591 q -0.18646,0.0881 -0.48697,0.0881 -0.39194,0 -0.61642,-0.22483 -0.22449,-0.22483 -0.22449,-0.59914 0,-0.39865 0.25179,-0.64665 0.25298,-0.248 0.65562,-0.248 0.24943,0 0.42045,0.0614 v 0.36042 q -0.17104,-0.0996 -0.38957,-0.0996 -0.23992,0 -0.3872,0.14718 -0.14726,0.14719 -0.14726,0.39866 0,0.24103 0.13895,0.38474 0.13897,0.14253 0.37413,0.14253 0.22448,0 0.41095,-0.10662 z m -2.12485,0.0591 h -0.38364 v -1.66182 h 0.38364 z m -1.29346,0 h -0.38719 l -0.70194,-1.04414 q -0.0618,-0.0915 -0.0855,-0.13792 h -0.005 q 0.01,0.0881 0.01,0.26886 v 0.91319 h -0.36227 v -1.66186 h 0.41332 l 0.67581,1.01169 q 0.0463,0.0684 0.0855,0.13559 h 0.005 q -0.01,-0.0579 -0.01,-0.22827 v -0.91897 h 0.36226 z m -2.41939,-0.71968 q 0,0.74863 -0.715,0.74863 -0.69363,0 -0.69363,-0.73125 v -0.95955 h 0.38482 v 0.96418 q 0,0.40329 0.32306,0.40329 0.31712,0 0.31712,-0.38938 v -0.97809 h 0.38362 z m -2.29352,0.71965 h -0.37887 v -0.99431 q 0,-0.16109 0.0143,-0.35578 h -0.01 q -0.0297,0.15299 -0.0534,0.22017 l -0.39906,1.12991 h -0.31359 l -0.4062,-1.1183 q -0.0167,-0.0452 -0.0534,-0.23177 h -0.0106 q 0.0154,0.24567 0.0154,0.43111 v 0.91898 h -0.34561 v -1.66182 h 0.56179 l 0.348,0.98504 q 0.0416,0.11822 0.0606,0.23757 h 0.007 q 0.0321,-0.13792 0.0677,-0.2399 l 0.34799,-0.98274 h 0.54754 z m 46.618206,-3.05792 v -0.37084 q 0.10334,0.0846 0.22449,0.12748 0.12115,0.0417 0.24469,0.0417 0.0725,0 0.12589,-0.0127 0.0546,-0.0127 0.0903,-0.0348 0.0368,-0.023 0.0546,-0.0533 0.018,-0.0313 0.018,-0.0672 0,-0.0487 -0.0286,-0.0869 -0.0285,-0.0382 -0.0784,-0.0707 -0.0487,-0.0325 -0.11638,-0.0626 -0.0677,-0.03 -0.1461,-0.0614 -0.19954,-0.0811 -0.29812,-0.19817 -0.0974,-0.11704 -0.0974,-0.28276 0,-0.12978 0.0534,-0.22252 0.0534,-0.0939 0.14491,-0.15412 0.0926,-0.0603 0.21381,-0.0881 0.12116,-0.0288 0.25656,-0.0288 0.13304,0 0.23518,0.0161 0.10333,0.0151 0.19003,0.0475 v 0.34651 q -0.0427,-0.0288 -0.0938,-0.051 -0.0499,-0.022 -0.10333,-0.0359 -0.0534,-0.0151 -0.10688,-0.022 -0.0523,-0.007 -0.0998,-0.007 -0.0653,0 -0.11877,0.0127 -0.0534,0.0117 -0.0903,0.0336 -0.0368,0.022 -0.057,0.0533 -0.0204,0.0301 -0.0204,0.0684 0,0.0417 0.0225,0.0753 0.0225,0.0325 0.0641,0.0626 0.0416,0.0288 0.10098,0.0579 0.0594,0.0279 0.1342,0.0579 0.10214,0.0417 0.18291,0.0892 0.082,0.0463 0.14014,0.10545 0.0582,0.0591 0.0891,0.13559 0.0309,0.0753 0.0309,0.17615 0,0.13909 -0.0546,0.23408 -0.0534,0.0939 -0.1461,0.15298 -0.0926,0.0579 -0.21617,0.0834 -0.12235,0.0254 -0.25891,0.0254 -0.14014,0 -0.26725,-0.023 -0.12589,-0.023 -0.21852,-0.0695 z m -1.04519,0.0927 q -0.36581,0 -0.59623,-0.23177 -0.23042,-0.23293 -0.23042,-0.60609 0,-0.39402 0.23399,-0.63738 0.234,-0.24337 0.61999,-0.24337 0.36463,0 0.5891,0.23293 0.22568,0.23294 0.22568,0.61421 0,0.3917 -0.23399,0.63159 -0.23277,0.23987 -0.60811,0.23987 z m 0.0167,-1.39644 q -0.20189,0 -0.32068,0.14832 -0.11877,0.14719 -0.11877,0.39054 0,0.24683 0.11877,0.39054 0.1188,0.14369 0.31118,0.14369 0.19835,0 0.31474,-0.13908 0.11639,-0.14022 0.11639,-0.38822 0,-0.25844 -0.11284,-0.40213 -0.11284,-0.14369 -0.3088,-0.14369 z m -1.12358,1.36747 h -0.37888 v -0.99432 q 0,-0.16109 0.0143,-0.35577 h -0.01 q -0.0298,0.15298 -0.0534,0.22017 l -0.39907,1.1299 h -0.31356 l -0.4062,-1.11832 q -0.0167,-0.0452 -0.0534,-0.23177 h -0.0106 q 0.0154,0.2457 0.0154,0.4311 v 0.91899 h -0.34563 v -1.66183 h 0.5618 l 0.34799,0.98505 q 0.0416,0.11821 0.0606,0.23757 h 0.007 q 0.0321,-0.13789 0.0677,-0.2399 l 0.348,-0.98272 h 0.54753 z m -3.06431,0.0288 q -0.36582,0 -0.59623,-0.23177 -0.23042,-0.23293 -0.23042,-0.60609 0,-0.39402 0.23399,-0.63738 0.23399,-0.24337 0.61999,-0.24337 0.36463,0 0.58911,0.23293 0.22567,0.23293 0.22567,0.61421 0,0.39169 -0.23399,0.63158 -0.23277,0.23987 -0.60811,0.23987 z m 0.0167,-1.39645 q -0.20189,0 -0.32068,0.14833 -0.11877,0.14718 -0.11877,0.39054 0,0.24683 0.11877,0.39054 0.1188,0.14369 0.31118,0.14369 0.19835,0 0.31475,-0.13908 0.11638,-0.14022 0.11638,-0.38822 0,-0.25844 -0.11283,-0.40213 -0.11284,-0.14369 -0.30881,-0.14369 z m -1.12832,1.36747 h -0.3872 l -0.70194,-1.04414 q -0.0618,-0.0915 -0.0855,-0.13792 h -0.005 q 0.01,0.0881 0.01,0.26886 v 0.91319 h -0.3622 v -1.66183 h 0.41333 l 0.67581,1.0117 q 0.0463,0.0684 0.0855,0.13559 h 0.005 q -0.01,-0.0579 -0.01,-0.22827 v -0.91899 h 0.36226 z m -2.65574,0.0288 q -0.36582,0 -0.59623,-0.23176 -0.23042,-0.23294 -0.23042,-0.6061 0,-0.39402 0.23399,-0.63738 0.23397,-0.24337 0.61999,-0.24337 0.36463,0 0.5891,0.23294 0.22568,0.23293 0.22568,0.6142 0,0.3917 -0.23399,0.63159 -0.23278,0.23987 -0.60811,0.23987 z m 0.0167,-1.39644 q -0.20189,0 -0.32068,0.14833 -0.11877,0.14718 -0.11877,0.39054 0,0.24683 0.11877,0.39054 0.11875,0.14369 0.31118,0.14369 0.19835,0 0.31475,-0.13908 0.11638,-0.14022 0.11638,-0.38822 0,-0.25844 -0.11283,-0.40213 -0.11284,-0.14369 -0.30881,-0.14369 z m 0.3872,-0.8228 -0.37175,0.37431 h -0.2708 l 0.30861,-0.37408 z m -1.24354,0.83323 h -0.48578 v 1.35704 h -0.38477 v -1.35703 h -0.4834 v -0.30479 h 1.354 z m -1.56541,0.63738 q 0,0.74863 -0.71501,0.74863 -0.69363,0 -0.69363,-0.73124 v -0.95955 h 0.38482 v 0.96418 q 0,0.40329 0.32306,0.40329 0.31712,0 0.31712,-0.38939 v -0.97808 h 0.38364 z m -1.56774,0.71967 h -0.41808 l -0.12115,-0.36968 h -0.60573 l -0.11997,0.36968 h -0.4157 l 0.61999,-1.66183 h 0.45489 z m -0.62711,-0.65708 -0.18291,-0.55858 q -0.0204,-0.0626 -0.0285,-0.14948 h -0.01 q -0.006,0.073 -0.0298,0.14488 l -0.18529,0.56321 z m -2.98236,0.59334 v -0.37084 q 0.10333,0.0846 0.22449,0.12749 0.12115,0.0417 0.24469,0.0417 0.0725,0 0.12589,-0.0127 0.0546,-0.0127 0.0903,-0.0348 0.0368,-0.023 0.0546,-0.0533 0.018,-0.0313 0.018,-0.0672 0,-0.0487 -0.0285,-0.0869 -0.0285,-0.0382 -0.0784,-0.0707 -0.0487,-0.0325 -0.11639,-0.0626 -0.0677,-0.0301 -0.1461,-0.0614 -0.19955,-0.0811 -0.29812,-0.19816 -0.0974,-0.11705 -0.0974,-0.28276 0,-0.12979 0.0534,-0.22253 0.0534,-0.0939 0.14491,-0.15412 0.0926,-0.0602 0.21381,-0.088 0.12116,-0.0288 0.25656,-0.0288 0.133,0 0.23517,0.0162 0.10333,0.0151 0.19004,0.0475 v 0.34651 q -0.0428,-0.0288 -0.0938,-0.051 -0.0499,-0.022 -0.10333,-0.0359 -0.0534,-0.0151 -0.10689,-0.022 -0.0522,-0.007 -0.0998,-0.007 -0.0653,0 -0.11879,0.0127 -0.0534,0.0116 -0.0903,0.0336 -0.0368,0.022 -0.057,0.0533 -0.0204,0.0301 -0.0204,0.0684 0,0.0417 0.0225,0.0753 0.0225,0.0325 0.0641,0.0626 0.0416,0.0288 0.10097,0.0579 0.0594,0.0279 0.13421,0.058 0.10214,0.0417 0.18291,0.0892 0.082,0.0464 0.14014,0.10545 0.0582,0.0591 0.0891,0.13559 0.0309,0.0753 0.0309,0.17615 0,0.13908 -0.0546,0.2341 -0.0534,0.0939 -0.1461,0.15298 -0.0926,0.0579 -0.21617,0.0834 -0.12234,0.0254 -0.25891,0.0254 -0.14016,0 -0.26724,-0.023 -0.1259,-0.023 -0.21853,-0.0695 z m -1.045186,0.0927 q -0.36581,0 -0.59623,-0.23178 -0.23042,-0.23292 -0.23042,-0.60608 0,-0.39402 0.23399,-0.63739 0.23397,-0.24336 0.61999,-0.24336 0.36463,0 0.58911,0.23293 0.22567,0.23293 0.22567,0.61421 0,0.39168 -0.23399,0.63157 -0.2328,0.23988 -0.60811,0.23988 z m 0.0167,-1.39644 q -0.2019,0 -0.32069,0.14832 -0.11877,0.14718 -0.11877,0.39054 0,0.24684 0.11877,0.39053 0.1188,0.1437 0.31119,0.1437 0.19834,0 0.31474,-0.13908 0.11638,-0.14022 0.11638,-0.38822 0,-0.25844 -0.11283,-0.40213 -0.11284,-0.14369 -0.30881,-0.14369 z m -1.12835,1.36747 h -0.38719 l -0.70194,-1.04415 q -0.0618,-0.0915 -0.0855,-0.13792 h -0.005 q 0.01,0.0881 0.01,0.26885 v 0.9132 h -0.36227 v -1.66183 h 0.41333 l 0.67581,1.0117 q 0.0463,0.0684 0.0855,0.13558 h 0.005 q -0.01,-0.0579 -0.01,-0.22827 v -0.91899 h 0.36226 z m -1.69011,0 h -0.44066 l -0.26487,-0.42761 q -0.0298,-0.0487 -0.057,-0.0869 -0.0273,-0.0382 -0.0558,-0.0649 -0.0273,-0.0279 -0.0582,-0.0417 -0.0298,-0.0151 -0.0653,-0.0151 h -0.10342 v 0.63622 h -0.38363 v -1.66183 h 0.60811 q 0.61999,0 0.61999,0.45196 0,0.0869 -0.0273,0.16109 -0.0273,0.073 -0.0772,0.13212 -0.0499,0.0591 -0.12115,0.10198 -0.0701,0.0429 -0.15677,0.0672 v 0.005 q 0.038,0.0117 0.0736,0.0382 0.0356,0.0254 0.0689,0.0603 0.0333,0.0348 0.063,0.0753 0.0309,0.0394 0.0558,0.0776 z m -1.0452,-1.38139 v 0.46239 h 0.16628 q 0.12354,0 0.19835,-0.0695 0.076,-0.0707 0.076,-0.17499 0,-0.21787 -0.26724,-0.21787 z m -0.65918,1.38139 h -1.02143 v -1.66183 h 0.98224 v 0.30477 h -0.59861 v 0.3697 h 0.55704 v 0.30361 h -0.55704 v 0.38011 h 0.6378 z m -1.40744,0 h -0.38363 v -1.66183 h 0.38363 z m -1.94192,0 v -1.66183 h 0.61999 q 0.28507,0 0.43827,0.10201 0.15322,0.10195 0.15322,0.2874 0,0.13442 -0.0938,0.23524 -0.0926,0.10081 -0.23754,0.14022 v 0.004 q 0.18171,0.022 0.2898,0.13098 0.10929,0.10894 0.10929,0.26539 0,0.22827 -0.16747,0.36272 -0.16747,0.13329 -0.45727,0.13329 z m 0.38364,-1.38602 v 0.39402 h 0.16863 q 0.11877,0 0.18649,-0.0556 0.0689,-0.0568 0.0689,-0.15529 0,-0.1831 -0.2803,-0.1831 z m 0,0.67215 v 0.43805 h 0.20785 q 0.13302,0 0.20786,-0.0603 0.076,-0.0603 0.076,-0.16456 0,-0.0996 -0.0748,-0.15643 -0.0737,-0.0568 -0.20667,-0.0568 z m -1.50721,0.74284 q -0.36582,0 -0.59624,-0.23178 -0.23041,-0.23292 -0.23041,-0.60608 0,-0.39402 0.23396,-0.63739 0.23399,-0.24336 0.61999,-0.24336 0.36463,0 0.5891,0.23293 0.22568,0.23293 0.22568,0.61421 0,0.39168 -0.23399,0.63157 -0.23277,0.23988 -0.60811,0.23988 z m 0.0167,-1.39644 q -0.2019,0 -0.32068,0.14832 -0.1188,0.14718 -0.1188,0.39054 0,0.24684 0.1188,0.39053 0.11877,0.1437 0.31118,0.1437 0.19835,0 0.31475,-0.13908 0.11638,-0.14022 0.11638,-0.38822 0,-0.25844 -0.11284,-0.40213 -0.11283,-0.14369 -0.3088,-0.14369 z m -1.06776,1.25622 q -0.24943,0.14022 -0.61998,0.14022 -0.41095,0 -0.6485,-0.22135 -0.23637,-0.22252 -0.23637,-0.61187 0,-0.3917 0.25891,-0.63854 0.25891,-0.24684 0.68888,-0.24684 0.27079,0 0.47746,0.073 v 0.35114 q -0.19716,-0.11125 -0.48222,-0.11125 -0.23873,0 -0.38957,0.15179 -0.14965,0.15065 -0.14965,0.40329 0,0.2561 0.13421,0.39633 0.1354,0.14022 0.36463,0.14022 0.13776,0 0.21853,-0.0382 v -0.32425 h -0.34121 v -0.29901 h 0.72451 z m -2.34336,0.11125 h -1.02176 v -1.66183 h 0.98224 v 0.30479 h -0.59861 v 0.36968 h 0.55704 v 0.30362 h -0.55704 v 0.38011 h 0.6378 z m -2.81726,0 v -1.66183 h 0.60336 q 0.90741,0 0.90741,0.81005 0,0.38821 -0.24824,0.61999 -0.24704,0.23177 -0.65918,0.23177 z m 0.38363,-1.35704 v 1.05341 h 0.19003 q 0.24943,0 0.39076,-0.14602 0.14252,-0.14602 0.14252,-0.39749 0,-0.23757 -0.14133,-0.37316 -0.14014,-0.13672 -0.39432,-0.13672 z m -1.44578,1.35725 h -0.38719 l -0.70194,-1.04414 q -0.0618,-0.0915 -0.0855,-0.13791 h -0.005 q 0.01,0.0881 0.01,0.26885 v 0.91319 h -0.36227 v -1.66182 h 0.41332 l 0.67581,1.01169 q 0.0463,0.0684 0.0855,0.13559 h 0.005 q -0.01,-0.0579 -0.01,-0.22827 v -0.91899 h 0.36226 z m -2.65573,0.0288 q -0.36582,0 -0.59623,-0.23176 -0.23042,-0.23293 -0.23042,-0.60609 0,-0.39402 0.23399,-0.63739 0.23399,-0.24336 0.61999,-0.24336 0.36463,0 0.58911,0.23293 0.22567,0.23294 0.22567,0.61421 0,0.3917 -0.23399,0.63158 -0.2328,0.2399 -0.60811,0.2399 z m 0.0167,-1.39643 q -0.20192,0 -0.32068,0.14832 -0.11877,0.14718 -0.11877,0.39054 0,0.24684 0.11877,0.39055 0.11877,0.14369 0.31118,0.14369 0.19835,0 0.31475,-0.13909 0.11638,-0.14022 0.11638,-0.38822 0,-0.25843 -0.11284,-0.40213 -0.11283,-0.14369 -0.3088,-0.14369 z m 0.3872,-0.82281 -0.37176,0.37432 h -0.27081 l 0.30881,-0.37422 z m -1.5096,2.19039 h -0.38363 v -1.66183 h 0.38363 z m -0.68294,-0.0591 q -0.18648,0.0881 -0.48696,0.0881 -0.39195,0 -0.61642,-0.22483 -0.22449,-0.22482 -0.22449,-0.59913 0,-0.39865 0.25179,-0.64665 0.25298,-0.248 0.65562,-0.248 0.24943,0 0.42045,0.0614 v 0.36041 q -0.17105,-0.0996 -0.38957,-0.0996 -0.23993,0 -0.3872,0.14718 -0.14726,0.14719 -0.14726,0.39865 0,0.24104 0.13897,0.38475 0.13898,0.14252 0.37413,0.14252 0.22449,0 0.41095,-0.10661 z m -1.40032,0.0591 h -0.41807 l -0.12116,-0.36968 h -0.60574 l -0.11996,0.36968 h -0.4157 l 0.61998,-1.66183 h 0.4549 z m -0.62712,-0.65708 -0.18291,-0.55858 q -0.0201,-0.0626 -0.0285,-0.14949 h -0.01 q -0.006,0.073 -0.0297,0.14488 l -0.18529,0.56322 z m -1.2566,0.65708 h -0.38364 v -1.66183 h 0.38364 z m -0.68294,-0.0591 q -0.18648,0.0881 -0.48696,0.0881 -0.39195,0 -0.61643,-0.22483 -0.22448,-0.22482 -0.22448,-0.59913 0,-0.39865 0.25179,-0.64665 0.25298,-0.248 0.65562,-0.248 0.24943,0 0.42045,0.0614 v 0.36041 q -0.17105,-0.0996 -0.38957,-0.0996 -0.23993,0 -0.3872,0.14718 -0.14726,0.14719 -0.14726,0.39865 0,0.24104 0.13897,0.38475 0.13895,0.14252 0.37413,0.14252 0.22449,0 0.41095,-0.10661 z m -2.34455,0.0881 q -0.36582,0 -0.59623,-0.23177 -0.23042,-0.23293 -0.23042,-0.60609 0,-0.39402 0.23399,-0.63738 0.23399,-0.24337 0.61999,-0.24337 0.36463,0 0.58911,0.23293 0.22567,0.23294 0.22567,0.61421 0,0.3917 -0.23399,0.63159 -0.2328,0.23989 -0.60811,0.23989 z m 0.0167,-1.39644 q -0.20192,0 -0.32068,0.14832 -0.11877,0.14719 -0.11877,0.39054 0,0.24684 0.11877,0.39054 0.11877,0.14369 0.31118,0.14369 0.19835,0 0.31475,-0.13908 0.11638,-0.14022 0.11638,-0.38822 0,-0.25844 -0.11284,-0.40213 -0.11283,-0.14369 -0.3088,-0.14369 z m -2.17827,1.30377 v -0.37084 q 0.10333,0.0846 0.22449,0.12748 0.12115,0.0417 0.24466,0.0417 0.0724,0 0.12589,-0.0127 0.0546,-0.0127 0.0903,-0.0348 0.0368,-0.023 0.0546,-0.0533 0.0177,-0.0313 0.0177,-0.0672 0,-0.0487 -0.0285,-0.0869 -0.0285,-0.0382 -0.0784,-0.0707 -0.0487,-0.0325 -0.11639,-0.0626 -0.0677,-0.0301 -0.1461,-0.0614 -0.19954,-0.0811 -0.29812,-0.19816 -0.0974,-0.11705 -0.0974,-0.28276 0,-0.12979 0.0534,-0.22253 0.0534,-0.0939 0.1449,-0.15412 0.0926,-0.0603 0.21379,-0.0881 0.12115,-0.0288 0.25655,-0.0288 0.13302,0 0.23519,0.0162 0.10333,0.0151 0.19003,0.0475 v 0.3465 q -0.0428,-0.0288 -0.0938,-0.051 -0.0499,-0.022 -0.10333,-0.0359 -0.0534,-0.0151 -0.1069,-0.022 -0.0523,-0.007 -0.0998,-0.007 -0.0653,0 -0.11877,0.0127 -0.0534,0.0117 -0.0903,0.0336 -0.0368,0.022 -0.057,0.0533 -0.0201,0.0301 -0.0201,0.0684 0,0.0417 0.0225,0.0753 0.0225,0.0325 0.0641,0.0626 0.0416,0.0288 0.10095,0.0579 0.0594,0.0279 0.13421,0.0579 0.10214,0.0417 0.18291,0.0892 0.082,0.0463 0.14014,0.10545 0.0582,0.0591 0.0891,0.13559 0.0309,0.0753 0.0309,0.17615 0,0.13909 -0.0546,0.23408 -0.0534,0.0939 -0.1461,0.15298 -0.0926,0.0579 -0.21617,0.0834 -0.12235,0.0254 -0.25891,0.0254 -0.14014,0 -0.26724,-0.023 -0.12589,-0.023 -0.21855,-0.0695 z m -0.13421,0.0637 h -0.41806 l -0.12116,-0.36968 h -0.60573 l -0.11997,0.36968 h -0.4157 l 0.61999,-1.66182 h 0.4549 z m -0.62712,-0.65708 -0.18291,-0.55857 q -0.0201,-0.0626 -0.0285,-0.14949 h -0.01 q -0.006,0.073 -0.0297,0.14488 l -0.18529,0.56321 z m 48.946496,-5.57969 q 0,1.05888 -0.31178,1.82626 -0.30436,0.7674 -0.84628,1.26114 -0.53449,0.49374 -1.26199,0.7317 -0.72007,0.23793 -1.54407,0.23793 -1.91526,0 -2.88031,-1.01724 -0.96505,-1.02318 -0.96505,-2.96842 0,-1.05888 0.30436,-1.82627 0.31179,-0.76739 0.84628,-1.26114 0.54191,-0.49374 1.26198,-0.73169 0.72751,-0.23794 1.55151,-0.23794 1.91525,0 2.88031,1.01724 0.96504,1.01724 0.96504,2.96843 z m -1.9301,0.0714 q 0,-1.38011 -0.46025,-2.05826 -0.46026,-0.67816 -1.51439,-0.67816 -0.52707,0 -0.89824,0.17846 -0.37117,0.1725 -0.61614,0.51159 -0.23754,0.33908 -0.34891,0.83878 -0.11136,0.49374 -0.11136,1.13621 0,1.38011 0.46026,2.05826 0.46768,0.67817 1.51438,0.67817 0.52707,0 0.89825,-0.17251 0.37859,-0.17845 0.61614,-0.51754 0.23754,-0.33908 0.3489,-0.83282 0.11136,-0.4997 0.11136,-1.14216 z m -7.07456,3.54546 q -0.64584,0.20822 -1.25456,0.30933 -0.6013,0.10111 -1.25457,0.10111 -1.04671,0 -1.85586,-0.24389 -0.80174,-0.24986 -1.3585,-0.73765 -0.54933,-0.4878 -0.83885,-1.20759 -0.28209,-0.72575 -0.28209,-1.6835 0,-0.98155 0.31178,-1.74299 0.31179,-0.76739 0.89082,-1.29088 0.57903,-0.52943 1.40303,-0.80308 0.83143,-0.2796 1.86329,-0.2796 0.33406,0 0.62357,0.0119 0.29694,0.0119 0.57903,0.0476 0.2821,0.0298 0.57161,0.0833 0.28953,0.0536 0.6013,0.13683 v 1.4515 q -0.631,-0.23794 -1.2026,-0.33908 -0.5716,-0.10111 -1.03928,-0.10111 -0.69039,0 -1.18033,0.20227 -0.48995,0.1963 -0.80916,0.55918 -0.31179,0.35692 -0.46026,0.85662 -0.14845,0.49374 -0.14845,1.08862 0,0.63057 0.14845,1.13026 0.1559,0.49375 0.47511,0.83878 0.3192,0.34503 0.81658,0.52944 0.49737,0.17846 1.18033,0.17846 0.24495,0 0.52706,-0.0357 0.2895,-0.0416 0.57903,-0.1011 0.29694,-0.0654 0.57903,-0.14873 0.2895,-0.0892 0.53449,-0.17845 z m -14.460896,0.30337 v -7.775 h 5.842256 v 1.23734 h -3.986446 v 1.93334 h 3.800806 v 1.20759 h -3.800806 v 2.1594 h 3.986396 v 1.23734 z m -1.77421,-3.98566 q 0,0.90421 -0.2821,1.64186 -0.27468,0.73764 -0.86854,1.26113 -0.58645,0.51755 -1.50697,0.80309 -0.9205,0.2796 -2.20476,0.2796 h -2.46459 v -7.77502 h 2.87288 q 1.11352,0 1.94495,0.22604 0.83885,0.22012 1.39561,0.68412 0.55676,0.46399 0.83142,1.17784 0.2821,0.71386 0.2821,1.70135 z m -1.9598,0.0952 q 0,-0.63056 -0.12621,-1.12431 -0.12618,-0.49375 -0.43056,-0.83283 -0.29694,-0.34502 -0.80173,-0.52348 -0.5048,-0.17846 -1.25457,-0.17846 h -0.92793 v 5.32413 h 0.80174 q 1.34364,0 2.04145,-0.64246 0.6978,-0.64247 0.6978,-2.02258 z m -7.96537,3.89048 -0.17817,-4.39613 -0.0668,-1.75488 -0.46767,1.18975 -1.07641,2.6472 h -1.14321 l -0.97247,-2.6472 -0.4083,-1.18975 -0.0519,1.71919 -0.16331,4.43182 h -1.55151 l 0.4751,-7.77502 h 2.06373 l 0.8537,2.20699 0.40828,1.24329 0.4083,-1.17191 0.89823,-2.27837 h 2.10085 l 0.48252,7.77502 z m -8.4776,0 -0.53449,-1.53478 h -3.3851 l -0.54934,1.53478 h -1.81132 l 2.87288,-7.77502 h 2.55367 l 2.87288,7.77502 z m -2.20477,-6.34732 -1.27684,3.61684 h 2.53883 z"
       inkscape:connector-curvature="0" />
  </g>
</svg>
