<?xml version="1.0" encoding="UTF-8" standalone="no"?>
<!-- Created with Inkscape (http://www.inkscape.org/) -->

<svg
   xmlns:dc="http://purl.org/dc/elements/1.1/"
   xmlns:cc="http://creativecommons.org/ns#"
   xmlns:rdf="http://www.w3.org/1999/02/22-rdf-syntax-ns#"
   xmlns:svg="http://www.w3.org/2000/svg"
   xmlns="http://www.w3.org/2000/svg"
   xmlns:sodipodi="http://sodipodi.sourceforge.net/DTD/sodipodi-0.dtd"
   xmlns:inkscape="http://www.inkscape.org/namespaces/inkscape"
   width="50.008724mm"
   height="50mm"
   viewBox="0 0 50.008724 50"
   version="1.1"
   id="svg11383"
   inkscape:version="0.92.4 (5da689c313, 2019-01-14)"
   sodipodi:docname="amdecruz.svg">
  <defs
     id="defs11377" />
  <sodipodi:namedview
     id="base"
     pagecolor="#ffffff"
     bordercolor="#666666"
     borderopacity="1.0"
     inkscape:pageopacity="0.0"
     inkscape:pageshadow="2"
     inkscape:zoom="2.3655919"
     inkscape:cx="-86.959734"
     inkscape:cy="95.303996"
     inkscape:document-units="mm"
     inkscape:current-layer="layer1"
     showgrid="false"
     fit-margin-top="0"
     fit-margin-left="0"
     fit-margin-right="0"
     fit-margin-bottom="0"
     inkscape:window-width="1920"
     inkscape:window-height="971"
     inkscape:window-x="0"
     inkscape:window-y="31"
     inkscape:window-maximized="1" />
  <metadata
     id="metadata11380">
    <rdf:RDF>
      <cc:Work
         rdf:about="">
        <dc:format>image/svg+xml</dc:format>
        <dc:type
           rdf:resource="http://purl.org/dc/dcmitype/StillImage" />
        <dc:title></dc:title>
      </cc:Work>
    </rdf:RDF>
  </metadata>
  <g
     inkscape:label="Layer 1"
     inkscape:groupmode="layer"
     id="layer1"
     transform="translate(-101.99564,-336.45334)">
    <path
       inkscape:connector-curvature="0"
       id="path906"
       style="fill:#004f22;fill-opacity:1;fill-rule:nonzero;stroke:none;stroke-width:0.04337275;stroke-miterlimit:4;stroke-dasharray:none;stroke-dashoffset:0;stroke-opacity:1"
       d="m 125.8432,370.66892 v -14.70585 h -15.06313 v 5.43488 h 3.21629 v -2.75779 h 9.03746 v 8.87151 h -2.89055 v 3.15725 z m 1.84993,-31.27053 v 14.70658 h 14.88005 v -5.43515 h -3.17721 v 2.75794 h -8.92761 v -8.87198 h 2.85542 v -3.15739 z" />
    <path
       inkscape:connector-curvature="0"
       id="path918"
       style="fill:#004f22;fill-opacity:0.46733668;fill-rule:nonzero;stroke:none;stroke-width:0.04337275;stroke-miterlimit:4;stroke-dasharray:none;stroke-dashoffset:0;stroke-opacity:1"
       d="m 125.8432,339.27976 v 14.82521 h -15.00061 v -5.47898 h 3.20294 v 2.78017 h 8.99995 v -8.94352 h -2.87855 v -3.18288 z m 1.84993,31.39238 v -14.70907 h 14.88005 v 5.43607 h -3.17721 v -2.75841 h -8.92761 v 8.87346 h 2.85542 v 3.15795 z" />
    <path
       inkscape:connector-curvature="0"
       id="path11933"
       style="font-style:normal;font-variant:normal;font-weight:bold;font-stretch:normal;font-size:0.73903191px;line-height:1.25;font-family:sans-serif;-inkscape-font-specification:'sans-serif Bold';letter-spacing:0px;word-spacing:0px;fill:#00214c;fill-opacity:1;stroke:none;stroke-width:0.09240445"
       d="m 150.99205,381.30609 h 0.92325 v 0.32966 l -0.55754,0.8097 h 0.55754 v 0.33759 h -0.94688 v -0.32966 l 0.55754,-0.8097 h -0.53391 z m -1.33905,0.902 v -0.902 h 0.3402 v 0.14771 q 0,0.12 -0.001,0.302 -0.001,0.18068 -0.001,0.24133 0,0.178 0.006,0.25716 0.006,0.0778 0.0226,0.11339 0.0208,0.0462 0.0539,0.0712 0.034,0.0251 0.0775,0.0251 0.10583,0 0.16632,-0.11339 0.0605,-0.11339 0.0605,-0.31515 v -0.72926 h 0.3383 v 1.47697 h -0.33811 v -0.21365 q -0.0765,0.12923 -0.16255,0.1912 -0.0851,0.0606 -0.18805,0.0606 -0.18335,0 -0.27971,-0.15691 -0.0954,-0.15691 -0.0954,-0.45628 z m -0.15876,-0.4998 q -0.0444,-0.0289 -0.0888,-0.0422 -0.0435,-0.0146 -0.0879,-0.0146 -0.13042,0 -0.20126,0.11739 -0.0699,0.11606 -0.0699,0.33365 v 0.68046 h -0.33832 v -1.47701 h 0.3383 v 0.24265 q 0.0652,-0.14504 0.1493,-0.211 0.0851,-0.0672 0.20316,-0.0672 0.017,0 0.0369,0.003 0.0199,10e-4 0.0576,0.008 z m -1.0735,0.96663 q -0.10017,0.0725 -0.20885,0.10945 -0.10867,0.0369 -0.22681,0.0369 -0.35248,0 -0.55848,-0.2743 -0.20601,-0.27562 -0.20601,-0.74639 0,-0.47211 0.20601,-0.7464 0.20601,-0.27562 0.55848,-0.27562 0.11814,0 0.22681,0.0369 0.10868,0.0369 0.20885,0.10946 v 0.40748 q -0.10112,-0.0963 -0.1994,-0.1411 -0.0983,-0.0448 -0.20696,-0.0448 -0.19468,0 -0.30617,0.17407 -0.11151,0.17407 -0.11151,0.48001 0,0.30463 0.11151,0.4787 0.1115,0.17407 0.30617,0.17407 0.10867,0 0.20696,-0.0448 0.0983,-0.0448 0.1994,-0.14111 z m -2.64029,-0.55651 q -0.10584,0 -0.15969,0.0501 -0.0529,0.0501 -0.0529,0.14771 0,0.0897 0.0425,0.1411 0.0435,0.0501 0.12003,0.0501 0.0954,0 0.16066,-0.0949 0.0652,-0.0963 0.0652,-0.24003 v -0.054 z m 0.5169,-0.17803 v 0.84266 h -0.34113 v -0.2189 q -0.068,0.13451 -0.15308,0.19648 -0.0851,0.0607 -0.20696,0.0607 -0.16444,0 -0.26744,-0.13319 -0.10207,-0.13452 -0.10207,-0.34816 0,-0.25978 0.12756,-0.38111 0.12853,-0.12132 0.40257,-0.12132 h 0.1994 v -0.0369 q 0,-0.11207 -0.0633,-0.16355 -0.0633,-0.0527 -0.19751,-0.0527 -0.10867,0 -0.20221,0.0303 -0.0935,0.0303 -0.17388,0.091 v -0.35999 q 0.10867,-0.0369 0.21829,-0.0554 0.10961,-0.0197 0.21923,-0.0197 0.28633,0 0.41296,0.15823 0.12758,0.15691 0.12758,0.51166 z m -1.54788,-1.05365 v 0.41936 h 0.3487 v 0.33759 h -0.3487 v 0.62639 q 0,0.10287 0.0293,0.13978 0.0293,0.0355 0.11625,0.0355 h 0.17388 v 0.3376 h -0.29011 q -0.20034,0 -0.28444,-0.11607 -0.0832,-0.11738 -0.0832,-0.39693 v -0.62639 h -0.16821 v -0.3376 h 0.16821 v -0.41935 z m -0.68512,0.99696 v 0.89936 h -0.34019 v -0.14639 -0.54199 q 0,-0.1912 -0.007,-0.26375 -0.006,-0.0725 -0.0208,-0.10681 -0.0199,-0.0462 -0.0539,-0.0712 -0.034,-0.0264 -0.0775,-0.0264 -0.10584,0 -0.16633,0.11471 -0.0605,0.1134 -0.0605,0.31516 v 0.72662 h -0.33831 v -1.47697 h 0.3383 v 0.21627 q 0.0765,-0.12923 0.16255,-0.18988 0.086,-0.062 0.18994,-0.062 0.18335,0 0.27782,0.15691 0.0954,0.1569 0.0954,0.45627 z m -1.89753,0.23472 q -0.10584,0 -0.15971,0.0501 -0.0529,0.0501 -0.0529,0.14771 0,0.0897 0.0425,0.1411 0.0435,0.0501 0.12003,0.0501 0.0954,0 0.16066,-0.0949 0.0652,-0.0963 0.0652,-0.24003 v -0.054 z m 0.51691,-0.17803 v 0.84266 h -0.34114 v -0.2189 q -0.068,0.13451 -0.15311,0.19648 -0.0851,0.0607 -0.20695,0.0607 -0.16444,0 -0.26742,-0.13319 -0.10206,-0.13452 -0.10206,-0.34816 0,-0.25978 0.12758,-0.38111 0.12853,-0.12132 0.40257,-0.12132 h 0.1994 v -0.0369 q 0,-0.11207 -0.0633,-0.16355 -0.0633,-0.0527 -0.19751,-0.0527 -0.10867,0 -0.20221,0.0303 -0.0935,0.0303 -0.17388,0.091 v -0.35999 q 0.10867,-0.0369 0.21829,-0.0554 0.10961,-0.0197 0.21923,-0.0197 0.28633,0 0.41296,0.15823 0.12758,0.15691 0.12758,0.51166 z m -1.38913,-1.06419 v 0.41671 q -0.11623,-0.0726 -0.22679,-0.10945 -0.11056,-0.0369 -0.20885,-0.0369 -0.13041,0 -0.19276,0.0501 -0.0624,0.0501 -0.0624,0.15561 0,0.0791 0.0416,0.12397 0.0425,0.0435 0.15311,0.0752 l 0.15496,0.0435 q 0.23529,0.0659 0.33453,0.20045 0.0992,0.13452 0.0992,0.38243 0,0.32572 -0.13889,0.48529 -0.13797,0.15823 -0.42241,0.15823 -0.13419,0 -0.26933,-0.0354 -0.13514,-0.0355 -0.27027,-0.10551 v -0.42858 q 0.13514,0.10023 0.26084,0.15165 0.12661,0.0501 0.2438,0.0501 0.11909,0 0.18241,-0.0554 0.0633,-0.0554 0.0633,-0.15823 0,-0.0923 -0.0435,-0.14242 -0.0425,-0.0501 -0.17102,-0.0897 l -0.14081,-0.0435 q -0.21167,-0.0633 -0.30995,-0.20175 -0.0973,-0.13846 -0.0973,-0.3732 0,-0.29407 0.13608,-0.45232 0.13608,-0.15823 0.39122,-0.15823 0.11623,0 0.23909,0.0251 0.12283,0.0237 0.2542,0.0725 z m -1.92494,1.16442 v 0.13452 h -0.79095 q 0.0124,0.16616 0.086,0.24923 0.0737,0.0831 0.20601,0.0831 0.10678,0 0.21828,-0.0435 0.11245,-0.0448 0.23059,-0.13452 v 0.36399 q -0.12003,0.0633 -0.24003,0.0949 -0.12003,0.0329 -0.24003,0.0329 -0.28728,0 -0.44697,-0.20307 -0.15875,-0.2044 -0.15875,-0.57233 0,-0.36131 0.15591,-0.56836 0.15686,-0.20701 0.43092,-0.20701 0.2495,0 0.39878,0.20968 0.15027,0.20968 0.15027,0.56045 z m -0.34776,-0.15691 q 0,-0.13451 -0.0567,-0.21626 -0.0558,-0.0831 -0.14647,-0.0831 -0.0983,0 -0.15969,0.0778 -0.0614,0.0765 -0.0765,0.22153 z m -1.3759,-0.36134 v -0.79123 h 0.3402 v 2.05192 h -0.3402 v -0.21364 q -0.0699,0.13052 -0.15402,0.1912 -0.0841,0.0607 -0.19468,0.0607 -0.19562,0 -0.32129,-0.21627 -0.12567,-0.21758 -0.12567,-0.55913 0,-0.34155 0.12567,-0.55782 0.12566,-0.21759 0.32129,-0.21759 0.10962,0 0.19374,0.062 0.0851,0.0607 0.15496,0.18988 z m -0.223,0.95607 q 0.10867,0 0.16538,-0.11078 0.0576,-0.11078 0.0576,-0.32177 0,-0.211 -0.0576,-0.32177 -0.0567,-0.11078 -0.16538,-0.11078 -0.10773,0 -0.16539,0.11078 -0.0567,0.11077 -0.0567,0.32177 0,0.211 0.0567,0.32177 0.0576,0.11078 0.16539,0.11078 z m -1.49593,-1.12619 v 0.35868 q -0.10867,-0.0633 -0.20979,-0.0949 -0.10111,-0.0318 -0.19087,-0.0318 -0.0964,0 -0.14364,0.0343 -0.0463,0.0329 -0.0463,0.10287 0,0.0567 0.035,0.0871 0.0359,0.0303 0.12759,0.0448 l 0.0595,0.0116 q 0.25989,0.0462 0.34964,0.15165 0.0898,0.10549 0.0898,0.33098 0,0.23604 -0.12472,0.35474 -0.12473,0.1187 -0.37233,0.1187 -0.10489,0 -0.21737,-0.0237 -0.1115,-0.0224 -0.22964,-0.0686 v -0.35868 q 0.10112,0.0686 0.20695,0.10287 0.10679,0.0343 0.2164,0.0343 0.0992,0 0.1493,-0.0382 0.0501,-0.0383 0.0501,-0.11339 0,-0.0633 -0.035,-0.0936 -0.034,-0.0318 -0.13699,-0.0488 l -0.0595,-0.0105 q -0.22584,-0.0396 -0.31657,-0.14639 -0.0907,-0.10681 -0.0907,-0.3244 0,-0.23472 0.11528,-0.34816 0.11528,-0.11339 0.35342,-0.11339 0.0935,0 0.19657,0.0197 0.10301,0.0197 0.22395,0.062 z m -1.65372,0.25583 q -0.11245,0 -0.17199,0.1134 -0.0586,0.11207 -0.0586,0.3244 0,0.21232 0.0586,0.32572 0.0595,0.11207 0.17199,0.11207 0.11056,0 0.16916,-0.11207 0.0586,-0.1134 0.0586,-0.32572 0,-0.21232 -0.0586,-0.3244 -0.0586,-0.1134 -0.16916,-0.1134 z m 0,-0.33759 q 0.2731,0 0.42619,0.20571 0.15402,0.20572 0.15402,0.56968 0,0.36399 -0.15402,0.56969 -0.15308,0.20572 -0.42619,0.20572 -0.27405,0 -0.42902,-0.20572 -0.15406,-0.20571 -0.15406,-0.56969 0,-0.36398 0.15406,-0.56968 0.15496,-0.20571 0.42902,-0.20571 z m -1.16895,0.0356 h 0.3383 v 1.47696 h -0.3383 z m 0,-0.57496 h 0.3383 v 0.38506 h -0.3383 z m -1.04893,1.83829 v 0.77541 h -0.33831 v -2.03874 h 0.33831 v 0.21626 q 0.0699,-0.12923 0.15497,-0.18987 0.0851,-0.062 0.19562,-0.062 0.19563,0 0.3213,0.21758 0.12566,0.21626 0.12566,0.55782 0,0.34154 -0.12566,0.55913 -0.12567,0.21626 -0.3213,0.21626 -0.11056,0 -0.19562,-0.0607 -0.0851,-0.062 -0.15497,-0.19119 z m 0.2249,-0.95607 q -0.10867,0 -0.16727,0.11207 -0.0576,0.11078 -0.0576,0.32046 0,0.20968 0.0576,0.32177 0.0586,0.11078 0.16727,0.11078 0.10867,0 0.16538,-0.11078 0.0576,-0.11077 0.0576,-0.32177 0,-0.211 -0.0576,-0.32177 -0.0567,-0.11077 -0.16538,-0.11077 z m -1.22848,-0.30726 h 0.33831 v 1.47696 h -0.33831 z m 0,-0.57496 h 0.33831 v 0.38506 h -0.33831 z m -0.29389,0.62111 v 0.38507 q -0.069,-0.0659 -0.13891,-0.0976 -0.069,-0.0318 -0.14364,-0.0318 -0.14175,0 -0.22112,0.11607 -0.0784,0.11471 -0.0784,0.32177 0,0.20701 0.0784,0.32309 0.0794,0.11471 0.22112,0.11471 0.0794,0 0.15027,-0.0329 0.0718,-0.0329 0.13231,-0.0976 v 0.38638 q -0.0794,0.0409 -0.16161,0.0607 -0.0813,0.0213 -0.16349,0.0213 -0.28633,0 -0.44792,-0.2044 -0.16161,-0.20571 -0.16161,-0.571 0,-0.3653 0.16161,-0.56968 0.1616,-0.20572 0.44792,-0.20572 0.0831,0 0.16349,0.0213 0.0813,0.0197 0.16161,0.0607 z m -1.52048,-0.0461 h 0.3383 v 1.47697 h -0.3383 z m 0,-0.57496 h 0.3383 v 0.38507 h -0.3383 z m -0.31563,1.15256 v 0.89937 h -0.34019 v -0.14639 -0.542 q 0,-0.1912 -0.007,-0.26374 -0.006,-0.0726 -0.0208,-0.10681 -0.0199,-0.0462 -0.0539,-0.0712 -0.034,-0.0264 -0.0775,-0.0264 -0.10584,0 -0.16633,0.11471 -0.0605,0.11339 -0.0605,0.31516 v 0.72661 h -0.3383 v -1.47696 h 0.3383 v 0.21626 q 0.0765,-0.12923 0.16255,-0.18988 0.086,-0.062 0.18993,-0.062 0.18333,0 0.27783,0.15691 0.0954,0.15691 0.0954,0.45628 z m -2.45507,0.3244 v -0.902 h 0.34019 v 0.14771 q 0,0.12 -9.5e-4,0.302 -9.5e-4,0.18068 -9.5e-4,0.24133 0,0.178 0.007,0.25716 0.007,0.0778 0.0227,0.1134 0.0208,0.0462 0.0539,0.0712 0.034,0.0251 0.0775,0.0251 0.10584,0 0.16632,-0.1134 0.0605,-0.11339 0.0605,-0.31515 v -0.7295 h 0.33828 v 1.47697 h -0.33833 v -0.21365 q -0.0765,0.12923 -0.16255,0.1912 -0.0851,0.0607 -0.18804,0.0607 -0.18335,0 -0.27971,-0.15691 -0.0954,-0.15693 -0.0954,-0.45628 z m -1.90132,-1.39388 h 0.46305 l 0.32129,1.05365 0.32319,-1.05365 h 0.4621 v 1.96884 h -0.34398 v -1.44004 l -0.32507,1.06157 h -0.23059 l -0.32508,-1.06157 v 1.44004 h -0.34492 z m -0.94309,1.2264 v 0.13452 h -0.79096 q 0.0124,0.16616 0.086,0.24923 0.0737,0.0831 0.20602,0.0831 0.10678,0 0.21828,-0.0435 0.11245,-0.0448 0.23059,-0.13452 v 0.36399 q -0.12003,0.0633 -0.24003,0.0949 -0.12003,0.0329 -0.24003,0.0329 -0.28728,0 -0.44698,-0.20307 -0.15874,-0.2044 -0.15874,-0.57233 0,-0.36131 0.15591,-0.56836 0.15685,-0.20701 0.43091,-0.20701 0.2495,0 0.39879,0.20968 0.15027,0.20968 0.15027,0.56045 z m -0.34776,-0.15691 q 0,-0.13451 -0.0567,-0.21626 -0.0558,-0.0831 -0.14646,-0.0831 -0.0983,0 -0.15972,0.0778 -0.0614,0.0765 -0.0765,0.22153 z m -1.3759,-0.36134 v -0.79123 h 0.3402 v 2.05192 h -0.3402 v -0.21364 q -0.0699,0.13052 -0.15402,0.1912 -0.0841,0.0607 -0.19468,0.0607 -0.19563,0 -0.3213,-0.21627 -0.12566,-0.21758 -0.12566,-0.55913 0,-0.34155 0.12566,-0.55782 0.12567,-0.21759 0.3213,-0.21759 0.10962,0 0.19371,0.062 0.0851,0.0607 0.15497,0.18988 z m -0.22301,0.95607 q 0.10868,0 0.16539,-0.11078 0.0576,-0.11078 0.0576,-0.32177 0,-0.211 -0.0576,-0.32177 -0.0567,-0.11078 -0.16539,-0.11078 -0.10772,0 -0.16538,0.11078 -0.0567,0.11077 -0.0567,0.32177 0,0.211 0.0567,0.32177 0.0576,0.11078 0.16538,0.11078 z m -1.48552,-0.59474 v 0.89936 h -0.3402 v -0.14639 -0.54199 q 0,-0.1912 -0.007,-0.26375 -0.006,-0.0725 -0.0208,-0.10681 -0.02,-0.0462 -0.0539,-0.0712 -0.034,-0.0264 -0.0775,-0.0264 -0.10583,0 -0.16632,0.11471 -0.0605,0.1134 -0.0605,0.31516 v 0.72662 h -0.33831 v -1.47697 h 0.33831 v 0.21627 q 0.0765,-0.12923 0.16255,-0.18988 0.086,-0.062 0.18993,-0.062 0.18335,0 0.27782,0.15691 0.0954,0.1569 0.0954,0.45627 z m -1.89092,-0.27562 q -0.11245,0 -0.17199,0.1134 -0.0586,0.11207 -0.0586,0.3244 0,0.21232 0.0586,0.32572 0.0595,0.11207 0.17199,0.11207 0.11056,0 0.16916,-0.11207 0.0586,-0.1134 0.0586,-0.32572 0,-0.21232 -0.0586,-0.3244 -0.0586,-0.1134 -0.16916,-0.1134 z m 0,-0.33759 q 0.2731,0 0.42619,0.20571 0.15405,0.20572 0.15405,0.56968 0,0.36399 -0.15405,0.56969 -0.15308,0.20572 -0.42619,0.20572 -0.27405,0 -0.42902,-0.20572 -0.15405,-0.20571 -0.15405,-0.56969 0,-0.36398 0.15405,-0.56968 0.15497,-0.20571 0.42902,-0.20571 z m 0.14836,-0.64749 h 0.26744 l -0.3487,0.49584 h -0.18521 z m -1.31731,0.6831 h 0.33831 v 1.47696 h -0.33831 z m 0,-0.57496 h 0.33831 v 0.38506 h -0.33831 z m -0.29389,0.62111 v 0.38507 q -0.069,-0.0659 -0.13891,-0.0976 -0.069,-0.0318 -0.14364,-0.0318 -0.14175,0 -0.22112,0.11606 -0.0784,0.11472 -0.0784,0.32178 0,0.20701 0.0784,0.32308 0.0794,0.11472 0.22112,0.11472 0.0794,0 0.15028,-0.0329 0.0718,-0.0329 0.1323,-0.0976 v 0.38637 q -0.0794,0.0409 -0.1616,0.0607 -0.0813,0.0213 -0.1635,0.0213 -0.28633,0 -0.44792,-0.20439 -0.1616,-0.20572 -0.1616,-0.571 0,-0.3653 0.1616,-0.56969 0.1616,-0.20571 0.44792,-0.20571 0.0831,0 0.1635,0.0213 0.0813,0.0197 0.1616,0.0607 z m -1.68869,0.76617 q -0.10584,0 -0.15969,0.0501 -0.0529,0.0501 -0.0529,0.14771 0,0.0897 0.0425,0.1411 0.0435,0.0501 0.12003,0.0501 0.0954,0 0.16064,-0.0949 0.0652,-0.0963 0.0652,-0.24003 v -0.054 z m 0.51691,-0.17803 v 0.84266 h -0.34114 v -0.2189 q -0.068,0.13451 -0.15308,0.19648 -0.0851,0.0607 -0.20696,0.0607 -0.16443,0 -0.26744,-0.13319 -0.10206,-0.13452 -0.10206,-0.34816 0,-0.25978 0.12758,-0.38111 0.12853,-0.12132 0.40257,-0.12132 h 0.1994 v -0.0369 q 0,-0.11207 -0.0633,-0.16355 -0.0633,-0.0527 -0.19751,-0.0527 -0.10868,0 -0.20221,0.0303 -0.0935,0.0303 -0.17388,0.091 v -0.35999 q 0.10867,-0.0369 0.21831,-0.0554 0.10962,-0.0197 0.21923,-0.0197 0.28634,0 0.41296,0.15823 0.12759,0.15691 0.12759,0.51166 z m -1.65656,-0.63429 h 0.3383 v 1.47696 h -0.3383 z m 0,-0.57496 h 0.3383 v 0.38506 h -0.3383 z m -0.29389,0.62111 v 0.38507 q -0.069,-0.0659 -0.13892,-0.0976 -0.069,-0.0318 -0.14363,-0.0318 -0.14175,0 -0.22112,0.11606 -0.0784,0.11472 -0.0784,0.32178 0,0.20701 0.0784,0.32308 0.0794,0.11472 0.22112,0.11472 0.0794,0 0.15027,-0.0329 0.0718,-0.0329 0.1323,-0.0976 v 0.38637 q -0.0794,0.0409 -0.1616,0.0607 -0.0813,0.0213 -0.16349,0.0213 -0.28633,0 -0.44792,-0.20439 -0.16161,-0.20572 -0.16161,-0.571 0,-0.3653 0.16161,-0.56969 0.1616,-0.20571 0.44792,-0.20571 0.0832,0 0.16349,0.0213 0.0813,0.0197 0.1616,0.0607 z m -1.68208,0.25583 q -0.11245,0 -0.17199,0.1134 -0.0586,0.11207 -0.0586,0.3244 0,0.21232 0.0586,0.32572 0.0595,0.11207 0.17199,0.11207 0.11056,0 0.16916,-0.11207 0.0586,-0.1134 0.0586,-0.32572 0,-0.21232 -0.0586,-0.3244 -0.0586,-0.1134 -0.16916,-0.1134 z m 0,-0.33759 q 0.2731,0 0.42619,0.20571 0.15403,0.20572 0.15403,0.56968 0,0.36399 -0.15403,0.56969 -0.15308,0.20572 -0.42619,0.20572 -0.27404,0 -0.42902,-0.20572 -0.15402,-0.20571 -0.15402,-0.56969 0,-0.36398 0.15402,-0.56968 0.15497,-0.20571 0.42902,-0.20571 z m -0.82969,0.0818 v 0.35868 q -0.10868,-0.0633 -0.20979,-0.0949 -0.10112,-0.0318 -0.19088,-0.0318 -0.0964,0 -0.14364,0.0343 -0.0463,0.0329 -0.0463,0.10287 0,0.0567 0.035,0.0871 0.0359,0.0303 0.12759,0.0448 l 0.0595,0.0116 q 0.25989,0.0462 0.34964,0.15165 0.0898,0.10549 0.0898,0.33098 0,0.23604 -0.12472,0.35473 -0.12472,0.11871 -0.37233,0.11871 -0.10489,0 -0.21734,-0.0237 -0.1115,-0.0224 -0.22964,-0.0686 v -0.35868 q 0.10111,0.0686 0.20695,0.10287 0.10679,0.0343 0.2164,0.0343 0.0992,0 0.1493,-0.0382 0.0501,-0.0383 0.0501,-0.11339 0,-0.0633 -0.035,-0.0936 -0.034,-0.0318 -0.13702,-0.0488 l -0.0595,-0.0105 q -0.22585,-0.0396 -0.31657,-0.14639 -0.0907,-0.10681 -0.0907,-0.32441 0,-0.23471 0.11528,-0.34815 0.1153,-0.11339 0.35342,-0.11339 0.0936,0 0.19657,0.0197 0.10301,0.0197 0.22395,0.062 z m -1.45245,1.07212 h -0.56888 l -0.0898,0.35868 h -0.36571 l 0.52258,-1.96885 h 0.43374 l 0.52258,1.96885 h -0.36571 z m -0.47816,-0.3653 h 0.3865 l -0.19277,-0.78332 z" />
    <path
       inkscape:connector-curvature="0"
       id="path853"
       style="fill:#004f22;fill-opacity:1;stroke:#0f6138;stroke-width:0.01746226;stroke-linecap:butt;stroke-linejoin:miter;stroke-miterlimit:4;stroke-dasharray:none;stroke-opacity:1"
       d="m 107.04036,372.25803 -0.58288,3.29476 h 1.31149 z m -5.03739,11.3623 c 1.01183,-1.56702 2.96821,-7.92653 4.05293,-13.92222 0.75197,0.008 1.40106,-0.0858 1.80893,-0.41643 l 2.59892,11.22107 c -0.47393,-0.38383 -0.97663,-0.68753 -1.70589,-0.36016 l -0.67746,-3.14138 h -1.78604 l -0.95974,4.88587 c -0.81367,-0.64945 -2.07437,0.64211 -3.33165,1.73325 z m 45.26561,-10.2945 h 4.64199 v 1.0824 l -2.96274,4.50146 h 3.0478 v 1.35182 h -4.81212 v -1.08239 l 2.96273,-4.50146 h -2.87766 z m -5.88477,0 h 1.42403 v 4.1577 q 0,0.85941 0.22193,1.23105 0.22563,0.36699 0.73236,0.36699 0.51043,0 0.73236,-0.36699 0.22563,-0.37164 0.22563,-1.23105 v -4.1577 h 1.42403 v 4.1577 q 0,1.47261 -0.58811,2.19266 -0.5881,0.72004 -1.79391,0.72004 -1.20211,0 -1.79022,-0.72004 -0.5881,-0.72005 -0.5881,-2.19266 z m -3.80606,3.0753 q 0.44755,0 0.63989,-0.20906 0.19603,-0.20906 0.19603,-0.68753 0,-0.47383 -0.19603,-0.67823 -0.19233,-0.20442 -0.63989,-0.20442 h -0.5992 v 1.77921 z m -0.5992,1.2357 v 2.62468 h -1.42404 v -6.93568 h 2.17489 q 1.09114,0 1.59788,0.4599 0.51043,0.4599 0.51043,1.45403 0,0.68753 -0.26634,1.12885 -0.26261,0.44132 -0.79524,0.65037 0.29221,0.0836 0.52153,0.38093 0.23305,0.29267 0.46975,0.89193 l 0.77305,1.96967 h -1.51651 l -0.67318,-1.72347 q -0.20342,-0.52029 -0.41425,-0.71075 -0.20714,-0.19047 -0.55482,-0.19047 z m -2.60765,2.24376 q -0.39207,0.25551 -0.81743,0.38557 -0.42536,0.13007 -0.88771,0.13007 -1.37965,0 -2.18599,-0.96626 -0.80634,-0.9709 -0.80634,-2.62934 0,-1.66307 0.80634,-2.62933 0.80634,-0.9709 2.18599,-0.9709 0.46235,0 0.88771,0.13006 0.42536,0.13007 0.81743,0.38558 v 1.43545 q -0.39577,-0.33914 -0.78045,-0.49707 -0.38467,-0.15796 -0.81003,-0.15796 -0.76195,0 -1.19841,0.6132 -0.43646,0.6132 -0.43646,1.69095 0,1.07311 0.43646,1.68631 0.43646,0.6132 1.19841,0.6132 0.42536,0 0.81003,-0.15796 0.38468,-0.15796 0.78045,-0.49707 z m -9.55768,-6.55476 h 3.84305 v 1.35183 h -2.41901 v 1.29144 h 2.27475 v 1.35183 h -2.27475 v 1.58876 h 2.50038 v 1.35182 h -3.92442 z m -4.8639,1.35183 v 4.23203 h 0.51043 q 0.87291,0 1.33156,-0.54352 0.46235,-0.54352 0.46235,-1.57946 0,-1.0313 -0.45865,-1.57017 -0.45865,-0.53888 -1.33526,-0.53888 z m -1.42404,-1.35183 h 1.50171 q 1.25759,0 1.87159,0.22763 0.6177,0.22298 1.05785,0.76185 0.38838,0.46919 0.57701,1.08239 0.18864,0.61321 0.18864,1.389 0,0.78508 -0.18864,1.40293 -0.18863,0.6132 -0.57701,1.08239 -0.44385,0.53888 -1.06525,0.76651 -0.6214,0.22298 -1.86419,0.22298 h -1.50171 z m -7.54553,0 h 1.8124 l 1.25759,3.71173 1.26499,-3.71173 h 1.80871 v 6.93568 h -1.34636 v -5.07284 l -1.27239,3.73959 h -0.9025 l -1.27239,-3.73959 v 5.07284 h -1.35005 z" />
  </g>
</svg>
