<?xml version="1.0" encoding="UTF-8" standalone="no"?>
<!-- Created with Inkscape (http://www.inkscape.org/) -->

<svg
   xmlns:dc="http://purl.org/dc/elements/1.1/"
   xmlns:cc="http://creativecommons.org/ns#"
   xmlns:rdf="http://www.w3.org/1999/02/22-rdf-syntax-ns#"
   xmlns:svg="http://www.w3.org/2000/svg"
   xmlns="http://www.w3.org/2000/svg"
   xmlns:xlink="http://www.w3.org/1999/xlink"
   xmlns:sodipodi="http://sodipodi.sourceforge.net/DTD/sodipodi-0.dtd"
   xmlns:inkscape="http://www.inkscape.org/namespaces/inkscape"
   width="50mm"
   height="50mm"
   viewBox="0 0 50 50"
   version="1.1"
   id="svg8610"
   inkscape:version="0.92.4 (5da689c313, 2019-01-14)"
   sodipodi:docname="amdepaz.svg">
  <defs
     id="defs8604">
    <linearGradient
       gradientTransform="matrix(1.0460633,0,0,1.0460633,-161.13756,-55.29463)"
       inkscape:collect="always"
       xlink:href="#linearGradient8491"
       id="linearGradient8493"
       x1="-89.039703"
       y1="-4.6502943"
       x2="-96.622505"
       y2="-13.535011"
       gradientUnits="userSpaceOnUse" />
    <linearGradient
       inkscape:collect="always"
       id="linearGradient8491">
      <stop
         style="stop-color:#00601b;stop-opacity:1"
         offset="0"
         id="stop8487" />
      <stop
         style="stop-color:#c60a19;stop-opacity:1"
         offset="1"
         id="stop8489" />
    </linearGradient>
  </defs>
  <sodipodi:namedview
     id="base"
     pagecolor="#ffffff"
     bordercolor="#666666"
     borderopacity="1.0"
     inkscape:pageopacity="0.0"
     inkscape:pageshadow="2"
     inkscape:zoom="2.8284271"
     inkscape:cx="-79.218952"
     inkscape:cy="67.866964"
     inkscape:document-units="mm"
     inkscape:current-layer="layer1"
     showgrid="false"
     fit-margin-top="0"
     fit-margin-left="0"
     fit-margin-right="0"
     fit-margin-bottom="0"
     inkscape:window-width="1920"
     inkscape:window-height="971"
     inkscape:window-x="0"
     inkscape:window-y="31"
     inkscape:window-maximized="1" />
  <metadata
     id="metadata8607">
    <rdf:RDF>
      <cc:Work
         rdf:about="">
        <dc:format>image/svg+xml</dc:format>
        <dc:type
           rdf:resource="http://purl.org/dc/dcmitype/StillImage" />
        <dc:title></dc:title>
      </cc:Work>
    </rdf:RDF>
  </metadata>
  <g
     inkscape:label="Layer 1"
     inkscape:groupmode="layer"
     id="layer1"
     transform="translate(266.14881,89.310736)">
    <path
       style="fill:#018901;fill-opacity:1;stroke:none;stroke-width:0.01135411;stroke-linecap:butt;stroke-linejoin:miter;stroke-miterlimit:4;stroke-dasharray:none;stroke-opacity:1"
       d="m -252.53814,-69.220177 c 0.46755,-0.741385 1.51818,-1.388189 2.82888,-1.604826 -2.88465,-2.068246 -7.67718,-2.927692 -10.51111,-1.889216 2.35571,-0.641607 7.33909,1.472018 7.68223,3.494042 z"
       id="path1011"
       inkscape:connector-curvature="0" />
    <path
       style="fill:#023c0c;fill-opacity:1;stroke:none;stroke-width:0.01135411;stroke-linecap:butt;stroke-linejoin:miter;stroke-miterlimit:4;stroke-dasharray:none;stroke-opacity:1"
       d="m -256.47875,-72.318968 c -1.59979,0.282929 -3.25874,0.376951 -5.43277,2.998395 -0.12356,-0.739305 -1.95036,-1.045285 -2.40755,-0.954951 0.44003,-0.550094 1.7044,-1.836656 4.0987,-2.438695 0.82807,-0.263817 1.97107,-0.178857 3.74162,0.395251 z"
       id="path1013"
       inkscape:connector-curvature="0" />
    <path
       id="path899"
       d="m -261.34025,-50.356575 c -0.0509,-0.06677 -0.39117,-0.178016 -0.64114,-0.209646 -0.12715,-0.01624 -0.23502,-0.05156 -0.24951,-0.0821 -0.0141,-0.02977 -0.0643,-0.0543 -0.11164,-0.05487 -0.0926,-0.0014 -0.10949,-0.05177 -0.16015,-0.478191 -0.0406,-0.341433 -0.19813,-0.590169 -0.55485,-0.875984 l -0.30688,-0.245878 v -0.529792 c 0,-0.450994 -0.012,-0.541123 -0.0815,-0.605995 -0.11254,-0.105228 -0.55926,-0.347851 -0.69325,-0.376546 -0.0607,-0.01323 -0.11025,-0.0359 -0.11025,-0.0509 0,-0.01473 0.082,-0.118127 0.1822,-0.229188 0.18941,-0.209915 0.63269,-0.472945 0.79363,-0.470899 0.0507,7.46e-4 0.16626,-0.05006 0.25669,-0.112655 0.14555,-0.100715 0.16166,-0.129551 0.14008,-0.250623 -0.022,-0.122967 -0.009,-0.144164 0.1257,-0.209675 0.094,-0.04567 0.16452,-0.117856 0.18874,-0.193291 0.0228,-0.07116 0.18115,-0.240912 0.38689,-0.414915 0.20318,-0.171823 0.3482,-0.326986 0.3482,-0.372562 0,-0.143501 0.0868,-0.209796 0.35887,-0.273894 0.30682,-0.0723 0.59897,-0.179129 0.64231,-0.23487 0.0162,-0.02074 -0.0168,-0.104292 -0.0733,-0.185683 -0.1251,-0.180301 -0.10466,-0.335264 0.0838,-0.634632 0.11819,-0.187728 0.16636,-0.222212 0.54715,-0.392246 0.22968,-0.102524 0.43762,-0.21163 0.46209,-0.242506 0.0562,-0.07078 -0.11743,-0.247648 -0.55332,-0.563865 -0.22177,-0.160848 -0.33633,-0.220286 -0.39004,-0.202398 -0.0912,0.03034 -0.50169,0.08695 -0.64197,0.08839 -0.14308,0.0016 -0.7127,-0.238899 -0.78556,-0.331506 -0.0338,-0.04288 -0.22997,-0.564228 -0.43604,-1.158549 l -0.37469,-1.080583 0.25433,-0.296594 c 0.13986,-0.163134 0.25432,-0.337019 0.25432,-0.386434 0,-0.110641 0.0748,-0.152071 0.16448,-0.09119 0.0369,0.02525 0.0982,0.0365 0.13614,0.02525 0.0551,-0.01623 0.0633,-0.06842 0.0409,-0.261627 -0.0279,-0.23932 -0.0265,-0.242326 0.14131,-0.375034 0.0931,-0.07357 0.16933,-0.150176 0.16933,-0.17023 0,-0.02015 0.0839,-0.06229 0.18634,-0.09396 0.10241,-0.03172 0.18635,-0.06975 0.18635,-0.08475 0,-0.07805 -0.39743,-0.460395 -0.64244,-0.618045 -0.18789,-0.120862 -0.31561,-0.23974 -0.38668,-0.359722 -0.0584,-0.09855 -0.14825,-0.226151 -0.19969,-0.283575 -0.0831,-0.09263 -0.0881,-0.126003 -0.0446,-0.295902 0.0345,-0.134962 0.0345,-0.222934 -7.2e-4,-0.298007 -0.0731,-0.156519 0.0737,-0.298337 0.36628,-0.353775 0.30017,-0.05685 0.33681,-0.09074 0.26141,-0.241664 -0.0755,-0.151078 -0.0751,-0.157842 0.0186,-0.36912 0.0637,-0.143471 0.10064,-0.176152 0.21973,-0.193741 0.18766,-0.02766 0.26842,-0.08397 0.26842,-0.186916 0,-0.108865 0.3123,-0.411586 0.60672,-0.58809 0.24476,-0.146718 0.28045,-0.227834 0.17922,-0.407467 -0.0435,-0.07721 -0.0356,-0.114969 0.0466,-0.220588 0.0545,-0.07009 0.0991,-0.152793 0.0991,-0.183789 0,-0.06648 0.18954,-0.100663 0.53372,-0.0963 0.13344,0.0017 0.2555,-0.0072 0.27126,-0.01954 0.0159,-0.01232 -0.005,-0.06404 -0.0457,-0.114699 -0.056,-0.06933 -0.0612,-0.102494 -0.0207,-0.134332 0.0741,-0.05848 0.0689,-0.07585 -0.0571,-0.195182 -0.0608,-0.05758 -0.13497,-0.17044 -0.16482,-0.250774 -0.0351,-0.09458 -0.0987,-0.165088 -0.1807,-0.200114 -0.20595,-0.08812 -0.27883,-0.182376 -0.31275,-0.404609 -0.0262,-0.171462 -0.0189,-0.213944 0.0402,-0.231382 0.0398,-0.01173 0.11491,-0.08788 0.16698,-0.169147 l 0.0947,-0.147831 -0.12218,-0.07872 c -0.0672,-0.0433 -0.14032,-0.07895 -0.16247,-0.07922 -0.022,-2.77e-4 -0.0403,-0.03343 -0.0403,-0.07399 0,-0.04041 -0.0472,-0.09356 -0.1048,-0.118066 -0.15067,-0.06412 -0.361,-0.231562 -0.361,-0.287332 0,-0.02616 0.0839,-0.0647 0.18635,-0.08557 0.10241,-0.02074 0.18634,-0.05695 0.18634,-0.08024 0,-0.02345 0.0292,-0.06855 0.0652,-0.100568 0.17113,-0.152822 0.41402,-0.595268 0.53826,-0.980535 0.12351,-0.383026 0.13662,-0.481685 0.13761,-1.036665 7.3e-4,-0.337332 -0.0111,-0.775947 -0.0258,-0.97467 -0.0252,-0.334918 -0.0204,-0.364144 0.066,-0.400124 0.0525,-0.02195 0.10628,-0.09503 0.12337,-0.167914 0.0202,-0.08496 0.12692,-0.213493 0.31312,-0.376077 0.2698,-0.235561 0.28153,-0.253841 0.25339,-0.395372 -0.0244,-0.123989 -0.006,-0.178378 0.11151,-0.330571 0.0775,-0.100181 0.14101,-0.200535 0.14101,-0.223024 0,-0.02255 0.0314,-0.03067 0.0699,-0.01834 0.0423,0.01353 0.0699,9.96e-4 0.0699,-0.03172 0,-0.02976 0.0786,-0.08536 0.17468,-0.123478 0.26908,-0.106822 0.34999,-0.193831 0.29295,-0.314957 -0.0669,-0.142209 0.036,-0.161752 0.29259,-0.05562 0.25379,0.104989 0.34806,0.0754 0.52497,-0.164697 0.10546,-0.14314 0.11921,-0.194552 0.0935,-0.34998 -0.0274,-0.164878 -0.0189,-0.18917 0.088,-0.255254 0.0888,-0.05496 0.16277,-0.06768 0.29858,-0.05129 0.15799,0.01894 0.20264,0.0058 0.35791,-0.106522 0.17507,-0.126544 0.17772,-0.132677 0.20324,-0.466116 0.0141,-0.185803 0.0389,-0.348164 0.0548,-0.360753 0.0159,-0.01263 0.15475,0.0069 0.30845,0.04303 l 0.27942,0.0659 0.22151,-0.123508 c 0.34718,-0.19353 0.4879,-0.311578 0.51878,-0.435143 0.0159,-0.06284 0.0509,-0.113977 0.0782,-0.113617 0.0799,0.001 0.61142,0.271009 2.18446,1.109828 0.81246,0.43325 1.91815,1.02021 2.45707,1.304359 0.53892,0.284177 0.97986,0.526383 0.97986,0.538289 0,0.01203 -0.0629,0.05815 -0.13977,0.102796 -0.16381,0.09516 -0.17793,0.171582 -0.0427,0.231382 0.091,0.04023 0.0922,0.04717 0.0196,0.11064 -0.0586,0.05126 -0.0658,0.0853 -0.0297,0.140164 0.0503,0.07618 0.0317,0.196777 -0.0514,0.334401 -0.0374,0.06166 -0.0341,0.0975 0.0123,0.143231 0.0377,0.03692 0.0447,0.07074 0.0175,0.08562 -0.069,0.03815 -0.17601,0.240072 -0.16452,0.310544 0.005,0.03476 -0.0347,0.08199 -0.0898,0.104898 -0.0695,0.02886 -0.0924,0.06524 -0.075,0.118727 0.0151,0.04684 -0.0196,0.129161 -0.0888,0.210006 -0.12711,0.148552 -0.14164,0.226843 -0.0555,0.299059 0.047,0.03935 0.0402,0.04717 -0.0349,0.04014 -0.29551,-0.02766 -0.48908,0.06563 -0.48908,0.235771 0,0.05123 -0.0441,0.115661 -0.10053,0.146658 -0.0788,0.04327 -0.0889,0.06669 -0.047,0.107815 0.0675,0.06611 0.025,0.101353 -0.12077,0.09949 -0.0732,-9.13e-4 -0.12149,0.02435 -0.13701,0.07179 -0.0133,0.04026 -0.0636,0.08283 -0.11208,0.09455 -0.0484,0.01173 -0.0881,0.03929 -0.0881,0.06127 0,0.02195 -0.0524,0.07826 -0.11644,0.125102 -0.064,0.04684 -0.11645,0.119028 -0.11645,0.160398 0,0.0414 -0.0651,0.13397 -0.14467,0.205706 -0.0796,0.07174 -0.13337,0.154235 -0.11957,0.183308 0.0159,0.03379 -0.0159,0.06061 -0.0876,0.07415 -0.13261,0.02525 -0.20032,0.183789 -0.12182,0.28565 0.03,0.03879 0.0345,0.07681 0.0105,0.08839 -0.0641,0.03103 -0.022,0.510526 0.048,0.546146 0.0468,0.02376 0.0476,0.04203 0.004,0.08392 -0.0307,0.02916 -0.0455,0.07679 -0.0327,0.105259 0.0144,0.03172 -0.0346,0.07264 -0.12726,0.105949 -0.12757,0.04585 -0.1496,0.07285 -0.14383,0.175792 0.005,0.09353 -0.012,0.121373 -0.0757,0.120562 -0.0538,-6.64e-4 -0.0919,0.0365 -0.10941,0.10649 -0.0192,0.07705 -0.0671,0.118307 -0.16884,0.145486 -0.15658,0.04182 -0.18309,0.09542 -0.0658,0.133039 0.0699,0.02255 0.0695,0.03034 -0.004,0.09507 -0.10105,0.08833 -0.0681,0.134001 0.11996,0.166622 l 0.14696,0.02555 -0.12272,0.09693 c -0.0675,0.05334 -0.12274,0.125102 -0.12274,0.159466 0,0.03449 -0.0307,0.09479 -0.0684,0.134241 -0.0377,0.03945 -0.069,0.12411 -0.0699,0.188209 -9.6e-4,0.06404 -0.0434,0.158714 -0.0947,0.210368 -0.14202,0.143169 -0.12107,0.188628 0.0762,0.165447 l 0.16936,-0.02015 -0.0996,0.08388 c -0.0906,0.07622 -0.0969,0.110309 -0.069,0.374802 0.0226,0.213403 0.0593,0.325231 0.13825,0.419641 l 0.10763,0.128679 -0.13673,0.05502 c -0.29372,0.118217 -0.31496,0.38268 -0.062,0.772334 l 0.17062,0.262831 -0.10074,0.165208 c -0.0554,0.09088 -0.10073,0.204474 -0.10073,0.252458 0,0.101353 0.16154,0.305095 0.44738,0.564182 0.2367,0.214576 0.29289,0.379541 0.18556,0.544789 -0.0927,0.142689 -0.0935,0.275578 -0.003,0.521154 0.0836,0.227023 0.25769,0.348528 0.50379,0.351658 0.25625,0.0033 0.38633,0.06133 0.44576,0.198942 0.0297,0.06849 0.12441,0.18448 0.2108,0.257748 0.22392,0.190013 0.39897,0.413644 0.39897,0.509667 0,0.04537 0.0401,0.112083 0.089,0.148252 0.12839,0.09491 0.15719,0.231292 0.0753,0.35719 -0.0388,0.05971 -0.0584,0.134211 -0.0435,0.165478 0.0147,0.03136 0.21558,0.180151 0.446,0.330814 0.23042,0.150657 0.43016,0.301272 0.44384,0.334747 0.0138,0.03343 0.1944,0.190613 0.40157,0.349198 l 0.37671,0.288326 -0.24573,0.304407 c -0.24716,0.306167 -0.34115,0.528676 -0.24413,0.578038 0.0846,0.04309 0.059,0.232224 -0.0519,0.381672 -0.13074,0.176243 -0.12617,0.546598 0.008,0.667331 0.13638,0.122486 0.2346,0.306822 0.26548,0.498199 0.0204,0.125734 0.0627,0.201527 0.1432,0.255945 0.11795,0.0797 0.15087,0.206008 0.2297,0.880588 0.0186,0.158563 0.069,0.300231 0.14491,0.406388 0.1044,0.146057 0.11286,0.186886 0.0816,0.393672 -0.0425,0.280929 -0.0425,0.319782 1.3e-4,0.428231 0.0274,0.06981 -0.008,0.118697 -0.19842,0.268603 -0.21861,0.172694 -0.24585,0.183067 -0.47361,0.18015 -0.28292,-0.0033 -0.40469,0.0705 -0.56657,0.344936 -0.0555,0.09407 -0.11942,0.180001 -0.14206,0.190944 -0.14326,0.06927 0.0447,0.4614 0.37481,0.782063 0.17201,0.167073 0.18965,0.203632 0.19068,0.395054 0.001,0.263913 0.0665,0.496961 0.15349,0.549109 0.0538,0.03205 0.0583,0.08395 0.0234,0.267942 -0.0402,0.21235 -0.0349,0.237755 0.0757,0.370084 0.13869,0.16581 0.15465,0.311961 0.0374,0.341469 -0.26798,0.06735 -0.39583,0.136076 -0.43959,0.236283 -0.0846,0.193951 -0.30355,0.232495 -0.51889,0.0914 l -0.13168,-0.08626 0.0968,-0.0975 c 0.13368,-0.134722 0.12228,-0.193259 -0.0679,-0.348311 -0.13592,-0.110851 -0.19876,-0.134753 -0.36098,-0.137278 -0.108,-0.002 -0.21952,-0.01593 -0.24774,-0.03103 -0.0282,-0.01564 -0.0966,-0.138661 -0.15184,-0.273745 -0.0853,-0.208412 -0.12257,-0.252608 -0.24605,-0.291572 -0.098,-0.03103 -0.17326,-0.03449 -0.23057,-0.01083 -0.0995,0.04146 -0.32171,0.263521 -0.32171,0.321439 0,0.02195 -0.0629,0.08156 -0.13978,0.132528 -0.1609,0.106671 -0.23288,0.234659 -0.23288,0.41432 0,0.179279 -0.0869,0.201407 -0.23292,0.0592 -0.149,-0.145156 -0.20189,-0.148914 -0.40253,-0.02856 -0.24879,0.149184 -0.27308,0.215598 -0.15796,0.431878 0.11211,0.210607 0.096,0.298578 -0.0701,0.383868 -0.0631,0.03241 -0.11463,0.09245 -0.11463,0.133548 0,0.04362 -0.049,0.092 -0.11753,0.116203 -0.0994,0.03505 -0.1387,0.02856 -0.25433,-0.04143 -0.15345,-0.09305 -0.29244,-0.107995 -0.362,-0.03905 -0.0255,0.02556 -0.0613,0.144162 -0.0794,0.263943 -0.0306,0.20261 -0.0439,0.221371 -0.19058,0.268693 -0.0867,0.02796 -0.17443,0.05069 -0.19491,0.05039 -0.0204,-2.46e-4 -0.13707,-0.07853 -0.25907,-0.173958 -0.122,-0.09543 -0.29458,-0.198791 -0.38346,-0.229729 -0.11148,-0.03882 -0.16166,-0.08058 -0.16166,-0.134541 0,-0.05219 -0.022,-0.07177 -0.066,-0.05878 -0.0363,0.01083 -0.0776,-0.0048 -0.0917,-0.03457 -0.0141,-0.02976 -0.063,-0.05459 -0.10865,-0.0553 -0.0456,-7.48e-4 -0.29261,-0.081 -0.54878,-0.178437 -0.25619,-0.09747 -0.527,-0.177628 -0.6018,-0.178049 -0.1619,-7.46e-4 -0.37669,-0.0853 -0.54528,-0.213913 -0.20024,-0.152762 -0.41025,-0.100119 -0.949,0.237905 -0.12811,0.08037 -0.2654,0.145787 -0.30511,0.145426 -0.12582,-10e-4 -0.184,0.0822 -0.184,0.264003 0,0.21205 -0.0341,0.294279 -0.12215,0.293167 -0.0361,-4.99e-4 -0.17726,0.05727 -0.31374,0.128288 -0.1365,0.07102 -0.33007,0.13803 -0.43015,0.148974 -0.10011,0.01113 -0.23728,0.06037 -0.30489,0.109889 -0.0778,0.05698 -0.19748,0.09555 -0.32606,0.105076 -0.45828,0.0338 -0.49931,0.04429 -0.51459,0.130002 -0.0117,0.06576 -0.0423,0.08079 -0.1487,0.07333 -0.12756,-0.009 -0.29156,0.04633 -0.6189,0.208503 -0.10525,0.05217 -0.15691,0.06058 -0.18069,0.02916 z"
       style="fill:url(#linearGradient8493);fill-opacity:1;fill-rule:nonzero;stroke:#000000;stroke-width:0.05;stroke-linejoin:round;stroke-miterlimit:1.5;stroke-dasharray:none;stroke-dashoffset:0;stroke-opacity:1"
       inkscape:connector-curvature="0" />
    <path
       inkscape:connector-curvature="0"
       id="path923"
       d="m -251.15412,-58.319454 c 0.20099,-0.174489 0.57922,-0.563477 0.73128,-0.752066 0.56979,-0.706631 0.9316,-1.490682 1.08803,-2.357797 0.0622,-0.344746 0.078,-0.517372 0.0865,-0.947423 0.0115,-0.582595 -0.0253,-1.001485 -0.1402,-1.584693 -0.0775,-0.394276 -0.22792,-0.962604 -0.33851,-1.279075 -0.0326,-0.09341 -0.057,-0.169774 -0.0542,-0.169774 0.003,0 0.0813,0.03409 0.1744,0.0757 0.36752,0.1644 0.59148,0.221883 0.91911,0.236052 0.1873,0.0083 0.54159,-0.01121 0.61856,-0.03371 0.0216,-0.0063 0.0264,0.01523 0.0361,0.155433 0.0167,0.240996 0.0129,0.945805 -0.007,1.196501 -0.12442,1.594985 -0.65153,2.926858 -1.62742,4.11213 -0.20522,0.249273 -0.75657,0.798097 -1.01503,1.010421 -0.23283,0.191274 -0.54831,0.431554 -0.56608,0.431146 -0.007,-1.61e-4 0.0355,-0.0419 0.0941,-0.09283 z"
       style="fill:#023c0c;fill-opacity:1;fill-rule:nonzero;stroke:none;stroke-width:0.01135411;stroke-miterlimit:4;stroke-dasharray:none;stroke-dashoffset:0;stroke-opacity:1" />
    <path
       inkscape:connector-curvature="0"
       id="path927"
       d="m -252.50659,-57.580334 c -0.074,-0.08872 -0.27776,-0.305733 -0.45268,-0.482187 -0.42131,-0.425021 -0.77008,-0.663005 -1.19742,-0.94212 -0.17596,-0.114908 -0.1832,-0.121634 -0.14138,-0.131032 0.48674,-0.109447 1.20667,-0.396803 1.81062,-0.722723 1.34615,-0.726446 2.28178,-1.62915 2.73295,-2.63679 0.22511,-0.502731 0.32169,-1.005187 0.30531,-1.588147 -0.009,-0.317893 -0.005,-0.316445 0.064,0.02673 0.10861,0.536917 0.15695,1.012755 0.15586,1.533924 -0.003,1.470021 -0.46623,2.687377 -1.41894,3.730149 -0.39348,0.430669 -0.81529,0.80505 -1.45347,1.204488 l -0.2702,0.169143 z"
       style="fill:#c66d4a;fill-opacity:1;fill-rule:nonzero;stroke:none;stroke-width:0.01135411;stroke-miterlimit:4;stroke-dasharray:none;stroke-dashoffset:0;stroke-opacity:1" />
    <path
       inkscape:connector-curvature="0"
       style="fill:#018901;fill-opacity:1;fill-rule:nonzero;stroke:none;stroke-width:0.01135411;stroke-miterlimit:4;stroke-dasharray:none;stroke-dashoffset:0;stroke-opacity:1"
       d="m -251.15412,-58.319454 c 0.20099,-0.174489 0.57922,-0.563477 0.73128,-0.752066 0.56979,-0.706631 0.9316,-1.490682 1.08803,-2.357797 0.0622,-0.344746 0.078,-0.517372 0.0865,-0.947423 0.0115,-0.582595 -0.0253,-1.001485 -0.1402,-1.584693 -0.0775,-0.394276 -0.22792,-0.962604 -0.33851,-1.279075 -0.0326,-0.09341 -0.057,-0.169774 -0.0542,-0.169774 0.003,0 0.0813,0.03409 0.1744,0.0757 0.36752,0.1644 0.59148,0.221883 0.91911,0.236052 0.1873,0.0083 0.54159,-0.01121 0.61856,-0.03371 0.0216,-0.0063 0.0264,0.01523 0.0361,0.155433 0.0167,0.240996 0.0129,0.945805 -0.007,1.196501 -0.12442,1.594985 -0.65153,2.926858 -1.62742,4.11213 -0.20522,0.249273 -0.75657,0.798097 -1.01503,1.010421 -0.23283,0.191274 -0.54831,0.431554 -0.56608,0.431146 -0.007,-1.61e-4 0.0355,-0.0419 0.0941,-0.09283 z"
       id="path937" />
    <path
       inkscape:connector-curvature="0"
       style="fill:url(#linearGradient963);fill-opacity:1;fill-rule:nonzero;stroke:none;stroke-width:0.01135411;stroke-miterlimit:4;stroke-dasharray:none;stroke-dashoffset:0;stroke-opacity:1"
       d="m -252.50659,-57.580334 c -0.074,-0.08872 -0.27776,-0.305733 -0.45268,-0.482187 -0.42131,-0.425021 -0.77008,-0.663005 -1.19742,-0.94212 -0.17596,-0.114908 -0.1832,-0.121634 -0.14138,-0.131032 0.48674,-0.109447 1.20667,-0.396803 1.81062,-0.722723 1.34615,-0.726446 2.28178,-1.62915 2.73295,-2.63679 0.22511,-0.502731 0.32169,-1.005187 0.30531,-1.588147 -0.009,-0.317893 -0.005,-0.316445 0.064,0.02673 0.10861,0.536917 0.15695,1.012755 0.15586,1.533924 -0.003,1.470021 -0.46623,2.687377 -1.41894,3.730149 -0.39348,0.430669 -0.81529,0.80505 -1.45347,1.204488 l -0.2702,0.169143 z"
       id="path939" />
    <path
       id="path981"
       d="m -260.0181,-58.298088 -1.31372,1.917736 c -3.12683,-0.853209 -4.26179,-2.745589 -4.66598,-5.103892 0.52854,1.850619 4.06469,3.963939 5.9797,3.186156 z"
       style="fill:#c66d4a;fill-opacity:1;stroke:none;stroke-width:0.01135411;stroke-linecap:butt;stroke-linejoin:miter;stroke-miterlimit:4;stroke-dasharray:none;stroke-opacity:1"
       inkscape:connector-curvature="0" />
    <path
       id="path983"
       d="m -264.04194,-59.220017 c -0.49169,-1.181128 -1.17006,-2.465988 0.10534,-5.178577 -0.39694,0.142586 -1.65643,0.362 -2.06874,0.1208 -0.0957,0.95199 -0.23108,1.687368 0.007,2.79355 0.15253,0.669471 0.64083,1.396273 1.95587,2.264224 z"
       style="fill:#023c0c;fill-opacity:1;stroke:none;stroke-width:0.01135411;stroke-linecap:butt;stroke-linejoin:miter;stroke-miterlimit:4;stroke-dasharray:none;stroke-opacity:1"
       inkscape:connector-curvature="0" />
    <path
       style="fill:#c66d4a;fill-opacity:1;fill-rule:nonzero;stroke:none;stroke-width:0.01135411;stroke-miterlimit:4;stroke-dasharray:none;stroke-dashoffset:0;stroke-opacity:1"
       d="m -255.04347,-57.065755 a 2.00737,1.780866 0 0 1 -2.00737,1.780867 2.00737,1.780866 0 0 1 -2.00737,-1.780867 2.00737,1.780866 0 0 1 2.00737,-1.780864 2.00737,1.780866 0 0 1 2.00737,1.780864 z"
       id="path997"
       inkscape:connector-curvature="0" />
    <path
       style="fill:#023c0c;fill-opacity:1;fill-rule:nonzero;stroke:none;stroke-width:0.01135411;stroke-miterlimit:4;stroke-dasharray:none;stroke-dashoffset:0;stroke-opacity:1"
       d="m -262.04154,-67.252538 a 2.053636,1.8120318 0 0 1 -2.05364,1.812034 2.053636,1.8120318 0 0 1 -2.05363,-1.812034 2.053636,1.8120318 0 0 1 2.05363,-1.812031 2.053636,1.8120318 0 0 1 2.05364,1.812031 z"
       id="path1001-1"
       inkscape:connector-curvature="0" />
    <path
       style="fill:#018901;fill-opacity:1;fill-rule:nonzero;stroke:none;stroke-width:0.01135411;stroke-miterlimit:4;stroke-dasharray:none;stroke-dashoffset:0;stroke-opacity:1"
       d="m -248.1493,-67.660245 a 2.1140371,1.9177339 0 0 1 -2.11404,1.917733 2.1140371,1.9177339 0 0 1 -2.11403,-1.917733 2.1140371,1.9177339 0 0 1 2.11403,-1.917736 2.1140371,1.9177339 0 0 1 2.11404,1.917736 z"
       id="circle1003"
       inkscape:connector-curvature="0" />
    <path
       inkscape:connector-curvature="0"
       id="path12170"
       style="font-style:normal;font-variant:normal;font-weight:bold;font-stretch:normal;font-size:1.87363076px;line-height:1.25;font-family:sans-serif;-inkscape-font-specification:'sans-serif Bold';letter-spacing:0px;word-spacing:0px;fill:#000000;fill-opacity:1;stroke:none;stroke-width:0.22708218"
       d="m -245.59673,-67.41263 h -1.30463 l -0.20587,1.140929 h -0.83869 l 1.19843,-6.262542 h 0.99473 l 1.19843,6.262542 h -0.83869 z m -1.09658,-1.161906 h 0.88636 l -0.44209,-2.491594 z" />
    <path
       inkscape:connector-curvature="0"
       id="path12172"
       style="font-style:normal;font-variant:normal;font-weight:bold;font-stretch:normal;font-size:1.87363076px;line-height:1.25;font-family:sans-serif;-inkscape-font-specification:'sans-serif Bold';letter-spacing:0px;word-spacing:0px;fill:#000000;fill-opacity:1;stroke:none;stroke-width:0.22708218"
       d="m -241.21908,-66.737301 q -0.31207,0.293622 -0.64798,0.440433 -0.33591,0.146811 -0.69349,0.146811 -0.80835,0 -1.28079,-0.872479 -0.47244,-0.87667 -0.47244,-2.374145 0,-1.514252 0.48111,-2.382531 0.48111,-0.868284 1.31763,-0.868284 0.32291,0 0.61764,0.117467 0.2969,0.117467 0.55913,0.348137 v 1.296135 q -0.2709,-0.29784 -0.53963,-0.444651 -0.26656,-0.14681 -0.53528,-0.14681 -0.49845,0 -0.76934,0.541104 -0.26873,0.53691 -0.26873,1.539419 0,0.994123 0.26006,1.535228 0.26006,0.541105 0.739,0.541105 0.13002,0 0.24055,-0.02934 0.11269,-0.03347 0.20154,-0.100686 v -1.216435 h -0.50928 v -1.08221 h 1.30029 z" />
    <path
       inkscape:connector-curvature="0"
       id="path12174"
       style="font-style:normal;font-variant:normal;font-weight:bold;font-stretch:normal;font-size:1.87363076px;line-height:1.25;font-family:sans-serif;-inkscape-font-specification:'sans-serif Bold';letter-spacing:0px;word-spacing:0px;fill:#000000;fill-opacity:1;stroke:none;stroke-width:0.22708218"
       d="m -238.52314,-67.41263 h -1.30463 l -0.20587,1.140929 h -0.83869 l 1.19843,-6.262542 h 0.99473 l 1.19843,6.262542 h -0.83869 z m -1.09658,-1.161906 h 0.88637 l -0.44211,-2.491594 z" />
    <path
       inkscape:connector-curvature="0"
       id="path12176"
       style="font-style:normal;font-variant:normal;font-weight:bold;font-stretch:normal;font-size:1.87363076px;line-height:1.25;font-family:sans-serif;-inkscape-font-specification:'sans-serif Bold';letter-spacing:0px;word-spacing:0px;fill:#000000;fill-opacity:1;stroke:none;stroke-width:0.22708218"
       d="m -237.05381,-72.534243 h 1.0619 l 0.73684,3.351487 0.74116,-3.351487 h 1.05974 v 6.262542 h -0.78884 v -4.580508 l -0.7455,3.376659 h -0.52879 l -0.7455,-3.376659 v 4.580508 h -0.79101 z" />
    <path
       inkscape:connector-curvature="0"
       id="path12178"
       style="font-style:normal;font-variant:normal;font-weight:bold;font-stretch:normal;font-size:1.87363076px;line-height:1.25;font-family:sans-serif;-inkscape-font-specification:'sans-serif Bold';letter-spacing:0px;word-spacing:0px;fill:#000000;fill-opacity:1;stroke:none;stroke-width:0.22708218"
       d="m -231.79846,-71.313613 v 3.821282 h 0.29906 q 0.51145,0 0.78018,-0.490766 0.27089,-0.490771 0.27089,-1.426166 0,-0.931203 -0.26872,-1.417774 -0.26873,-0.486576 -0.78235,-0.486576 z m -0.83436,-1.22063 h 0.87987 q 0.73683,0 1.09658,0.205545 0.36191,0.201326 0.6198,0.687915 0.22755,0.423652 0.33808,0.977342 0.11053,0.553686 0.11053,1.254188 0,0.708887 -0.11053,1.266768 -0.11053,0.553691 -0.33808,0.977342 -0.26006,0.486576 -0.62414,0.692111 -0.36408,0.201326 -1.09224,0.201326 h -0.87987 z" />
    <path
       inkscape:connector-curvature="0"
       id="path12180"
       style="font-style:normal;font-variant:normal;font-weight:bold;font-stretch:normal;font-size:1.87363076px;line-height:1.25;font-family:sans-serif;-inkscape-font-specification:'sans-serif Bold';letter-spacing:0px;word-spacing:0px;fill:#000000;fill-opacity:1;stroke:none;stroke-width:0.22708218"
       d="m -228.94865,-72.534243 h 2.25167 v 1.22063 h -1.41732 v 1.166101 h 1.3328 v 1.22063 h -1.3328 v 1.434551 h 1.465 v 1.22063 h -2.29935 z" />
    <path
       inkscape:connector-curvature="0"
       id="path12182"
       style="font-style:normal;font-variant:normal;font-weight:bold;font-stretch:normal;font-size:1.87363076px;line-height:1.25;font-family:sans-serif;-inkscape-font-specification:'sans-serif Bold';letter-spacing:0px;word-spacing:0px;fill:#000000;fill-opacity:1;stroke:none;stroke-width:0.22708218"
       d="m -225.91464,-72.534243 h 1.38481 q 0.61764,0 0.94705,0.532714 0.33157,0.52852 0.33157,1.510057 0,0.985732 -0.33157,1.518447 -0.32941,0.528519 -0.94705,0.528519 h -0.55046 v 2.172805 h -0.83435 z m 0.83435,1.170296 v 1.749149 h 0.46161 q 0.24272,0 0.37492,-0.226497 0.1322,-0.230716 0.1322,-0.650163 0,-0.41948 -0.1322,-0.645968 -0.13221,-0.226498 -0.37492,-0.226498 z" />
    <path
       inkscape:connector-curvature="0"
       id="path12184"
       style="font-style:normal;font-variant:normal;font-weight:bold;font-stretch:normal;font-size:1.87363076px;line-height:1.25;font-family:sans-serif;-inkscape-font-specification:'sans-serif Bold';letter-spacing:0px;word-spacing:0px;fill:#000000;fill-opacity:1;stroke:none;stroke-width:0.22708218"
       d="m -221.10789,-67.41263 h -1.30463 l -0.20588,1.140929 h -0.83869 l 1.19844,-6.262542 h 0.99473 l 1.19843,6.262542 h -0.83869 z m -1.09658,-1.161906 h 0.88636 l -0.44209,-2.491594 z" />
    <path
       inkscape:connector-curvature="0"
       id="path12186"
       style="font-style:normal;font-variant:normal;font-weight:bold;font-stretch:normal;font-size:1.87363076px;line-height:1.25;font-family:sans-serif;-inkscape-font-specification:'sans-serif Bold';letter-spacing:0px;word-spacing:0px;fill:#000000;fill-opacity:1;stroke:none;stroke-width:0.22708218"
       d="m -219.79676,-72.534243 h 2.71978 v 0.977342 l -1.7359,4.06457 h 1.78574 v 1.22063 h -2.81947 v -0.977342 l 1.73589,-4.06457 h -1.68604 z" />
    <path
       style="fill:#006a00;fill-opacity:1;fill-rule:nonzero;stroke:none;stroke-width:0.01135411;stroke-miterlimit:4;stroke-dasharray:none;stroke-dashoffset:0;stroke-opacity:1"
       d="m -247.31576,-64.745892 h 31.16695 v 1.232183 h -31.16695 z"
       id="rect1048"
       inkscape:connector-curvature="0" />
    <path
       inkscape:connector-curvature="0"
       id="path8696"
       style="font-style:normal;font-variant:normal;font-weight:bold;font-stretch:normal;font-size:0.53870916px;line-height:1;font-family:sans-serif;-inkscape-font-specification:'sans-serif Bold';text-align:center;letter-spacing:0px;word-spacing:0px;text-anchor:middle;fill:#000000;fill-opacity:1;stroke:none;stroke-width:0.22708218"
       d="m -223.18165,-62.724808 h 0.1669 l -0.16809,0.336387 h -0.1156 z m 6.02658,3.193991 h 0.74013 v 0.296907 l -0.47238,1.234752 h 0.48595 v 0.370783 h -0.76726 v -0.296907 l 0.47238,-1.234748 h -0.45882 z m -0.3568,1.555856 h -0.35503 l -0.056,0.34661 h -0.22823 l 0.32613,-1.902457 h 0.2707 l 0.32613,1.902457 h -0.22824 z m -0.29841,-0.352955 h 0.24121 l -0.12031,-0.756907 z m -1.00965,-1.202901 h 0.37685 q 0.16809,0 0.25772,0.161848 0.0902,0.160539 0.0902,0.458754 0,0.299426 -0.0902,0.461274 -0.0896,0.16054 -0.25772,0.16054 h -0.14979 v 0.660064 h -0.22705 z m 0.22706,0.355523 v 0.531356 h 0.12562 q 0.0661,0 0.10203,-0.06884 0.036,-0.0701 0.036,-0.197502 0,-0.127405 -0.036,-0.196243 -0.036,-0.06884 -0.10203,-0.06884 z m -1.0468,1.200333 h -0.35503 l -0.056,0.34661 h -0.22824 l 0.32614,-1.902457 h 0.27069 l 0.32613,1.902457 h -0.22823 z m -0.29842,-0.352955 h 0.24121 l -0.12031,-0.756907 z m -1.00493,-1.202901 h 0.22705 v 1.531649 h 0.39867 v 0.370783 h -0.62572 z m -1.24555,0 h 0.61275 v 0.370782 h -0.3857 v 0.354263 h 0.3627 v 0.370783 h -0.3627 v 0.435792 h 0.39868 v 0.370783 h -0.62573 z m -0.77552,0.370806 v 1.160843 h 0.0814 q 0.13919,0 0.21233,-0.149107 0.0737,-0.149107 0.0737,-0.433225 0,-0.282907 -0.0731,-0.430706 -0.0731,-0.1478 -0.21291,-0.1478 z m -0.22705,-0.370782 h 0.23944 q 0.2005,0 0.29841,0.06244 0.0985,0.06118 0.16867,0.208983 0.0619,0.128713 0.092,0.296907 0.0301,0.168194 0.0301,0.381004 0,0.215328 -0.0301,0.38483 -0.0301,0.168194 -0.092,0.296907 -0.0708,0.1478 -0.16986,0.210242 -0.0991,0.06118 -0.29723,0.06118 h -0.23944 z m -1.04385,0.321085 q -0.10381,0 -0.161,0.165675 -0.0572,0.165674 -0.0572,0.46636 0,0.299426 0.0572,0.465101 0.0572,0.165674 0.161,0.165674 0.10439,0 0.16158,-0.165674 0.0572,-0.165675 0.0572,-0.465101 0,-0.300734 -0.0572,-0.46636 -0.0572,-0.165675 -0.16158,-0.165675 z m 0,-0.355523 q 0.2123,0 0.33262,0.262512 0.1203,0.262513 0.1203,0.725051 0,0.461273 -0.1203,0.723771 -0.12031,0.262513 -0.33262,0.262513 -0.21172,0 -0.33262,-0.262513 -0.1203,-0.262512 -0.1203,-0.723771 0,-0.462534 0.1203,-0.725051 0.12089,-0.262512 0.33262,-0.262512 z m -1.33047,0.03441 h 0.81149 v 0.370782 h -0.29193 v 1.53165 h -0.22705 v -1.53165 h -0.29251 z m -0.90703,0 h 0.25359 l 0.32023,1.30483 v -1.30483 h 0.21526 v 1.902456 h -0.25359 l -0.32024,-1.304835 v 1.304835 h -0.21525 z m -0.82565,0 h 0.61275 v 0.370782 h -0.3857 v 0.354263 h 0.3627 v 0.370783 h -0.3627 v 0.435793 h 0.39867 v 0.370782 h -0.62572 z m -1.20309,0 h 0.28898 l 0.2005,1.018125 0.2017,-1.018125 h 0.28838 v 1.902456 h -0.21467 v -1.391485 l -0.20288,1.025775 h -0.1439 l -0.20288,-1.025775 v 1.391485 h -0.21526 z m -0.39985,1.555857 h -0.35502 l -0.056,0.346609 h -0.22824 l 0.32613,-1.902456 h 0.2707 l 0.32613,1.902456 h -0.22823 z m -0.29841,-0.352956 h 0.24121 l -0.12031,-0.756906 z m -1.0698,-1.202901 h 0.81149 v 0.370782 h -0.29192 v 1.53165 h -0.22706 v -1.53165 h -0.29251 z m -0.44762,0.843552 q 0.0714,0 0.10204,-0.05736 0.0312,-0.05736 0.0312,-0.188588 0,-0.129972 -0.0312,-0.186021 -0.0307,-0.05605 -0.10204,-0.05605 h -0.0955 v 0.488039 z m -0.0955,0.338955 v 0.719954 h -0.22705 v -1.902456 h 0.34677 q 0.17398,0 0.25477,0.126145 0.0814,0.126146 0.0814,0.398831 0,0.188588 -0.0425,0.309647 -0.0419,0.121059 -0.12679,0.178416 0.0466,0.02277 0.0832,0.104491 0.0371,0.08027 0.0749,0.244637 l 0.12327,0.540284 h -0.24179 l -0.10733,-0.472755 q -0.0324,-0.142713 -0.066,-0.194934 -0.033,-0.05227 -0.0885,-0.05227 z m -0.62691,0.37335 h -0.35503 l -0.056,0.346609 h -0.22823 l 0.32613,-1.902456 h 0.27069 l 0.32613,1.902456 h -0.22823 z m -0.29841,-0.352956 h 0.2412 l -0.1203,-0.756902 z m -1.00965,-1.202897 h 0.37685 q 0.16808,0 0.25772,0.161848 0.0902,0.16054 0.0902,0.458755 0,0.299425 -0.0902,0.461273 -0.0896,0.16054 -0.25772,0.16054 h -0.14979 v 0.660064 h -0.22706 z m 0.22705,0.355523 v 0.531356 h 0.12562 q 0.0661,0 0.10204,-0.06884 0.036,-0.0701 0.036,-0.197502 0,-0.127405 -0.036,-0.196242 -0.036,-0.06884 -0.10204,-0.06884 z m -1.0527,-0.355523 h 0.61275 v 0.370782 h -0.3857 v 0.354263 h 0.3627 v 0.370783 h -0.3627 v 0.435793 h 0.39867 v 0.370782 h -0.62572 z m -0.77552,0.370806 v 1.160843 h 0.0814 q 0.13919,0 0.2123,-0.149107 0.0737,-0.149107 0.0737,-0.433225 0,-0.282907 -0.0731,-0.430706 -0.0731,-0.1478 -0.2129,-0.1478 z m -0.22705,-0.370782 h 0.23944 q 0.2005,0 0.29841,0.06244 0.0985,0.06118 0.16867,0.208983 0.0619,0.128713 0.092,0.296907 0.0301,0.168194 0.0301,0.381004 0,0.215329 -0.0301,0.38483 -0.0301,0.168194 -0.092,0.296907 -0.0708,0.1478 -0.16986,0.210243 -0.0991,0.06118 -0.29723,0.06118 h -0.23944 z m -1.18893,-2.4e-5 h 0.22705 v 1.531649 h 0.39867 v 0.370783 h -0.62572 z m -0.82565,0 h 0.61275 v 0.370782 h -0.38569 v 0.354263 h 0.36269 v 0.370783 h -0.36269 v 0.435793 h 0.39866 v 0.370782 h -0.62572 z m -0.77552,0.370806 v 1.160843 h 0.0814 q 0.13919,0 0.2123,-0.149107 0.0737,-0.149107 0.0737,-0.433225 0,-0.282907 -0.0731,-0.430706 -0.0731,-0.1478 -0.2129,-0.1478 z m -0.22705,-0.370782 h 0.23944 q 0.2005,0 0.29841,0.06244 0.0985,0.06118 0.16867,0.208983 0.0619,0.128713 0.092,0.296907 0.0301,0.168194 0.0301,0.381004 0,0.215329 -0.0301,0.38483 -0.0301,0.168194 -0.092,0.296907 -0.0708,0.1478 -0.16986,0.210243 -0.0991,0.06118 -0.29723,0.06118 h -0.23944 z m -0.67762,0.05987 v 0.402658 q -0.0725,-0.0701 -0.14154,-0.105751 -0.069,-0.03585 -0.13033,-0.03585 -0.0814,0 -0.12031,0.04844 -0.0389,0.04844 -0.0389,0.150367 0,0.07644 0.0259,0.119799 0.0265,0.04215 0.0955,0.07262 l 0.0967,0.04215 q 0.14685,0.0637 0.20878,0.193675 0.0619,0.129973 0.0619,0.369523 0,0.314734 -0.0867,0.468928 -0.0861,0.152934 -0.26362,0.152934 -0.0837,0 -0.16808,-0.03439 -0.0843,-0.03439 -0.16867,-0.101924 v -0.414139 q 0.0843,0.09684 0.16277,0.14654 0.079,0.04844 0.15214,0.04844 0.0743,0 0.11383,-0.05353 0.0395,-0.05353 0.0395,-0.152934 0,-0.08918 -0.0271,-0.137627 -0.0265,-0.04844 -0.10674,-0.08666 l -0.0879,-0.04214 q -0.1321,-0.06118 -0.19344,-0.194934 -0.0607,-0.1338 -0.0607,-0.360609 0,-0.284167 0.0849,-0.437053 0.0849,-0.152934 0.24415,-0.152934 0.0726,0 0.14921,0.02422 0.0767,0.02277 0.15864,0.0701 z m -1.43839,-0.05989 h 0.61274 v 0.370782 h -0.38569 v 0.354264 h 0.36269 v 0.370782 h -0.36269 v 0.435793 h 0.39867 v 0.370782 h -0.62572 z m -0.76903,0 h 0.22705 v 1.53165 h 0.39867 v 0.370782 h -0.62572 z m -0.39986,1.555857 h -0.35502 l -0.056,0.346609 h -0.22824 l 0.32614,-1.902456 h 0.27069 l 0.32613,1.902456 h -0.22823 z m -0.29841,-0.352956 h 0.24121 l -0.12031,-0.756906 z m -1.00965,-1.202901 h 0.37685 q 0.16809,0 0.25772,0.161848 0.0902,0.16054 0.0902,0.458755 0,0.299426 -0.0902,0.461273 -0.0896,0.16054 -0.25772,0.16054 h -0.14979 v 0.660064 h -0.22705 z m 0.22706,0.355523 v 0.531356 h 0.12562 q 0.066,0 0.10203,-0.06884 0.036,-0.0701 0.036,-0.197502 0,-0.127405 -0.036,-0.196242 -0.036,-0.06884 -0.10203,-0.06884 z m -0.67762,-0.355523 h 0.22705 v 1.902456 h -0.22705 z m -0.18872,1.797965 q -0.0625,0.0701 -0.13033,0.105751 -0.0678,0.03585 -0.14154,0.03585 -0.21997,0 -0.34854,-0.265032 -0.12856,-0.26629 -0.12856,-0.721223 0,-0.456187 0.12856,-0.721228 0.12856,-0.266291 0.34854,-0.266291 0.0737,0 0.14154,0.03585 0.0678,0.03585 0.13033,0.105751 v 0.393744 q -0.0631,-0.09301 -0.12443,-0.136367 -0.0613,-0.04311 -0.12917,-0.04311 -0.12149,0 -0.19109,0.168194 -0.0696,0.168194 -0.0696,0.463841 0,0.29434 0.0696,0.462533 0.0696,0.168195 0.19109,0.168195 0.0678,0 0.12917,-0.04312 0.0613,-0.04311 0.12443,-0.136318 z m -1.14883,-1.797969 h 0.22705 v 1.902456 h -0.22705 z m -1.01201,0 h 0.25359 l 0.32024,1.30483 v -1.30483 h 0.21525 v 1.902456 h -0.25359 l -0.32023,-1.304835 v 1.304835 h -0.21526 z m -0.98134,0 h 0.22706 v 1.140453 q 0,0.235724 0.0354,0.337696 0.036,0.100665 0.11676,0.100665 0.0814,0 0.11677,-0.100665 0.036,-0.101923 0.036,-0.337696 v -1.140453 h 0.22705 v 1.140453 q 0,0.403918 -0.0938,0.601449 -0.0938,0.197502 -0.28603,0.197502 -0.19167,0 -0.28544,-0.197502 -0.0938,-0.197502 -0.0938,-0.601449 z m -1.20308,0 h 0.28897 l 0.20051,1.018125 0.20169,-1.018125 h 0.28839 v 1.902456 h -0.21468 v -1.391485 l -0.20288,1.025775 h -0.14389 l -0.20288,-1.025775 v 1.391485 h -0.21526 z m 29.45023,-2.616137 v 0.402658 q -0.0725,-0.0701 -0.14154,-0.105751 -0.069,-0.03585 -0.13033,-0.03585 -0.0814,0 -0.1203,0.04844 -0.0389,0.04844 -0.0389,0.150367 0,0.07644 0.0259,0.119799 0.0265,0.04214 0.0955,0.07262 l 0.0967,0.04214 q 0.14685,0.0637 0.20877,0.193675 0.0619,0.129972 0.0619,0.369523 0,0.314734 -0.0867,0.468927 -0.0861,0.152935 -0.26361,0.152935 -0.0837,0 -0.16809,-0.03439 -0.0843,-0.03439 -0.16866,-0.101924 v -0.414139 q 0.0843,0.09684 0.16277,0.14654 0.079,0.04844 0.15214,0.04844 0.0743,0 0.11383,-0.05353 0.0395,-0.05353 0.0395,-0.152934 0,-0.08918 -0.0271,-0.137627 -0.0266,-0.04844 -0.10674,-0.08666 l -0.0879,-0.04215 q -0.1321,-0.06118 -0.19345,-0.194982 -0.0607,-0.1338 -0.0607,-0.36061 0,-0.284166 0.0849,-0.437052 0.0849,-0.152935 0.24416,-0.152935 0.0725,0 0.14921,0.02422 0.0767,0.02277 0.15864,0.0701 z m -1.2367,0.261224 q -0.1038,0 -0.161,0.165675 -0.0572,0.165674 -0.0572,0.46636 0,0.299426 0.0572,0.465101 0.0572,0.165674 0.161,0.165674 0.10439,0 0.16159,-0.165674 0.0572,-0.165675 0.0572,-0.465101 0,-0.300734 -0.0572,-0.46636 -0.0572,-0.165675 -0.16159,-0.165675 z m 0,-0.355523 q 0.2123,0 0.33262,0.262512 0.12031,0.262513 0.12031,0.725046 0,0.461274 -0.12031,0.723776 -0.12031,0.262513 -0.33262,0.262513 -0.21172,0 -0.33261,-0.262513 -0.12031,-0.262512 -0.12031,-0.723776 0,-0.462533 0.12031,-0.725046 0.12088,-0.262512 0.33261,-0.262512 z m -1.60529,0.03441 h 0.28898 l 0.2005,1.01813 0.20169,-1.01813 h 0.28839 v 1.902456 h -0.21467 v -1.39148 L -220,-60.670092 h -0.1439 l -0.20288,-1.025776 v 1.39148 h -0.21526 z m -0.62396,0.321113 q -0.1038,0 -0.161,0.165675 -0.0572,0.165675 -0.0572,0.466361 0,0.299426 0.0572,0.465101 0.0572,0.165674 0.161,0.165674 0.10439,0 0.16159,-0.165674 0.0572,-0.165675 0.0572,-0.465101 0,-0.300734 -0.0572,-0.466361 -0.0572,-0.165675 -0.16159,-0.165675 z m 0,-0.355522 q 0.21233,0 0.33262,0.262512 0.12031,0.262512 0.12031,0.725046 0,0.461274 -0.12031,0.723776 -0.12031,0.262512 -0.33262,0.262512 -0.21171,0 -0.33261,-0.262512 -0.12031,-0.262512 -0.12031,-0.723776 0,-0.462534 0.12031,-0.725046 0.12089,-0.262512 0.33261,-0.262512 z m -1.41421,0.03441 h 0.25359 l 0.32023,1.304835 v -1.304835 h 0.21526 v 1.902456 h -0.25359 l -0.32023,-1.30483 v 1.30483 h -0.21526 z m -0.62396,0.321113 q -0.1038,0 -0.16099,0.165675 -0.0572,0.165675 -0.0572,0.466361 0,0.299426 0.0572,0.4651 0.0572,0.165675 0.16099,0.165675 0.1044,0 0.16159,-0.165675 0.0572,-0.165674 0.0572,-0.4651 0,-0.300734 -0.0572,-0.466361 -0.0572,-0.165675 -0.16159,-0.165675 z m 0,-0.355522 q 0.21233,0 0.33263,0.262512 0.1203,0.262512 0.1203,0.725046 0,0.461273 -0.1203,0.723776 -0.12031,0.262512 -0.33263,0.262512 -0.21171,0 -0.33261,-0.262512 -0.12031,-0.262512 -0.12031,-0.723776 0,-0.462534 0.12031,-0.725046 0.12089,-0.262512 0.33261,-0.262512 z m -1.33047,0.03441 h 0.8115 v 0.370782 h -0.29193 v 1.53165 h -0.22705 v -1.531626 h -0.29252 z m -0.87636,0 h 0.22705 v 1.140458 q 0,0.235723 0.0354,0.337696 0.036,0.100664 0.11677,0.100664 0.0814,0 0.11676,-0.100664 0.036,-0.101924 0.036,-0.337696 v -1.140458 h 0.22706 v 1.140458 q 0,0.403917 -0.0938,0.601443 -0.0938,0.197502 -0.28603,0.197502 -0.19167,0 -0.28544,-0.197502 -0.0938,-0.197501 -0.0938,-0.601443 z m -0.36211,1.555861 h -0.35502 l -0.056,0.346609 h -0.22824 l 0.32613,-1.902456 h 0.2707 l 0.32613,1.902456 h -0.22823 z m -0.29841,-0.352958 h 0.24121 l -0.12031,-0.756907 z m -0.91352,-1.143016 v 0.402657 q -0.0725,-0.0701 -0.14154,-0.105751 -0.069,-0.03585 -0.13033,-0.03585 -0.0814,0 -0.1203,0.04844 -0.0389,0.04844 -0.0389,0.150367 0,0.07644 0.0259,0.1198 0.0266,0.04214 0.0955,0.07262 l 0.0967,0.04214 q 0.14685,0.0637 0.20877,0.193675 0.0619,0.129972 0.0619,0.369523 0,0.314733 -0.0867,0.468927 -0.0861,0.152935 -0.26361,0.152935 -0.0837,0 -0.16809,-0.03439 -0.0843,-0.03439 -0.16867,-0.101924 v -0.414139 q 0.0843,0.09684 0.16278,0.14654 0.079,0.04844 0.15214,0.04844 0.0743,0 0.11383,-0.05353 0.0395,-0.05353 0.0395,-0.152935 0,-0.08918 -0.0271,-0.137626 -0.0266,-0.04844 -0.10675,-0.08666 l -0.0879,-0.04215 q -0.1321,-0.06118 -0.19344,-0.194983 -0.0607,-0.133799 -0.0607,-0.360609 0,-0.284167 0.0849,-0.437052 0.0849,-0.152935 0.24416,-0.152935 0.0725,0 0.1492,0.02422 0.0767,0.02277 0.15865,0.0701 z m -1.2367,0.261223 q -0.10381,0 -0.161,0.165675 -0.0572,0.165675 -0.0572,0.466361 0,0.299425 0.0572,0.4651 0.0572,0.165675 0.161,0.165675 0.10439,0 0.16158,-0.165675 0.0572,-0.165675 0.0572,-0.4651 0,-0.300734 -0.0572,-0.466361 -0.0572,-0.165675 -0.16158,-0.165675 z m 0,-0.355523 q 0.21232,0 0.33262,0.262513 0.12031,0.262512 0.12031,0.725046 0,0.461273 -0.12031,0.723776 -0.12031,0.262512 -0.33262,0.262512 -0.21171,0 -0.33262,-0.262512 -0.1203,-0.262512 -0.1203,-0.723776 0,-0.462534 0.1203,-0.725046 0.1209,-0.262513 0.33262,-0.262513 z m -1.41421,0.03441 h 0.25359 l 0.32023,1.304835 v -1.304835 h 0.21526 v 1.902456 h -0.25359 l -0.32024,-1.30483 v 1.30483 h -0.21525 z m -0.60685,0.843556 q 0.0714,0 0.10203,-0.05736 0.0312,-0.05736 0.0312,-0.188589 0,-0.129972 -0.0312,-0.18602 -0.0307,-0.05605 -0.10203,-0.05605 h -0.0955 v 0.488038 z m -0.0955,0.338955 v 0.71995 h -0.22706 v -1.902457 h 0.34677 q 0.17399,0 0.25477,0.126146 0.0814,0.126145 0.0814,0.39883 0,0.188589 -0.0425,0.309648 -0.0419,0.121059 -0.12678,0.178415 0.0466,0.02277 0.0832,0.104492 0.0371,0.08027 0.0749,0.244637 l 0.12324,0.540279 h -0.24181 l -0.10732,-0.472755 q -0.0324,-0.142713 -0.066,-0.194983 -0.033,-0.05222 -0.0885,-0.05222 z m -1.05272,-1.182511 h 0.61275 v 0.370782 h -0.38569 v 0.354263 h 0.36269 v 0.370831 h -0.36269 v 0.435792 h 0.39867 v 0.370783 h -0.62573 z m -0.45056,0 h 0.22705 v 1.902456 h -0.22705 z m -0.56734,0.736516 q 0.0537,0 0.0814,-0.05096 0.0277,-0.05096 0.0277,-0.150366 0,-0.0981 -0.0277,-0.149108 -0.0277,-0.05222 -0.0814,-0.05222 h -0.12562 v 0.402658 z m 0.008,0.83209 q 0.0684,0 0.10262,-0.06244 0.0348,-0.06244 0.0348,-0.188588 0,-0.123627 -0.0342,-0.184761 -0.0342,-0.06244 -0.10321,-0.06244 h -0.13328 v 0.498235 z m 0.21113,-0.684276 q 0.0731,0.04602 0.11322,0.169454 0.0401,0.123578 0.0401,0.303253 0,0.275252 -0.0861,0.410311 -0.0861,0.135059 -0.26184,0.135059 h -0.37682 v -1.902456 h 0.34087 q 0.18342,0 0.26539,0.119799 0.0826,0.1198 0.0826,0.383572 0,0.138886 -0.0301,0.237031 -0.0301,0.09684 -0.0873,0.143973 z m -1.19535,-0.563217 q -0.10381,0 -0.161,0.165675 -0.0572,0.165675 -0.0572,0.46636 0,0.299426 0.0572,0.465101 0.0572,0.165675 0.161,0.165675 0.10438,0 0.16158,-0.165675 0.0572,-0.165675 0.0572,-0.465101 0,-0.300733 -0.0572,-0.46636 -0.0572,-0.165675 -0.16158,-0.165675 z m 0,-0.355523 q 0.2123,0 0.33261,0.262513 0.12031,0.262512 0.12031,0.725045 0,0.461274 -0.12031,0.723777 -0.1203,0.262512 -0.33261,0.262512 -0.21172,0 -0.33262,-0.262512 -0.12031,-0.262512 -0.12031,-0.723777 0,-0.462533 0.12031,-0.725045 0.12089,-0.262513 0.33262,-0.262513 z m -0.60155,1.795427 q -0.0849,0.08918 -0.17633,0.133799 -0.0914,0.04457 -0.18871,0.04457 -0.21997,0 -0.34854,-0.265031 -0.12856,-0.266339 -0.12856,-0.721228 0,-0.460015 0.13091,-0.723772 0.13094,-0.263772 0.35857,-0.263772 0.0879,0 0.16808,0.03585 0.0808,0.03585 0.15214,0.105751 v 0.393745 q -0.0737,-0.09049 -0.14685,-0.135059 -0.0725,-0.04457 -0.14566,-0.04457 -0.13564,0 -0.20936,0.164366 -0.0731,0.163108 -0.0731,0.467669 0,0.301993 0.0708,0.46636 0.0708,0.164367 0.20111,0.164367 0.0354,0 0.0655,-0.0087 0.0307,-0.01017 0.0548,-0.03052 v -0.369522 h -0.13858 v -0.328783 h 0.35385 z m -2.03699,-1.761017 h 0.61275 v 0.370782 h -0.38569 v 0.354263 h 0.36269 v 0.370831 h -0.36269 v 0.435792 h 0.39867 v 0.370783 h -0.62573 z m -0.77551,0.370806 v 1.160843 h 0.0814 q 0.13918,0 0.21232,-0.149107 0.0737,-0.149059 0.0737,-0.433225 0,-0.282907 -0.0731,-0.430707 -0.0731,-0.147799 -0.2129,-0.147799 z m -0.22705,-0.370782 h 0.23943 q 0.20053,0 0.29841,0.06244 0.0985,0.06118 0.16867,0.208983 0.0619,0.128712 0.092,0.296907 0.0301,0.168193 0.0301,0.381003 0,0.215329 -0.0301,0.384831 -0.0301,0.168194 -0.092,0.296907 -0.0708,0.147799 -0.16985,0.210242 -0.0991,0.06118 -0.29724,0.06118 h -0.23944 z m -1.43191,-2.4e-5 h 0.25359 l 0.32023,1.304835 v -1.304835 h 0.21526 v 1.902456 h -0.25359 l -0.32024,-1.30483 v 1.30483 h -0.21525 z m -0.62396,0.321113 q -0.1038,0 -0.161,0.165675 -0.0572,0.165675 -0.0572,0.46636 0,0.299426 0.0572,0.465101 0.0572,0.165675 0.161,0.165675 0.10439,0 0.16159,-0.165675 0.0572,-0.165675 0.0572,-0.465101 0,-0.300733 -0.0572,-0.46636 -0.0572,-0.165675 -0.16159,-0.165675 z m 0,-0.355523 q 0.21232,0 0.33262,0.262513 0.12031,0.262512 0.12031,0.725045 0,0.461274 -0.12031,0.723777 -0.12031,0.262512 -0.33262,0.262512 -0.21171,0 -0.33262,-0.262512 -0.1203,-0.262512 -0.1203,-0.723777 0,-0.462533 0.1203,-0.725045 0.1209,-0.262513 0.33262,-0.262513 z m 0.0159,-0.482927 h 0.1669 l -0.16809,0.336387 h -0.1156 z m -0.8687,0.517337 h 0.22706 v 1.902456 h -0.22706 z m -0.18872,1.797969 q -0.0625,0.0701 -0.13033,0.105751 -0.0678,0.03585 -0.14154,0.03585 -0.21996,0 -0.34854,-0.265031 -0.12856,-0.26634 -0.12856,-0.721229 0,-0.456187 0.12856,-0.721223 0.12856,-0.266339 0.34854,-0.266339 0.0737,0 0.14154,0.03585 0.0678,0.03585 0.13033,0.105751 v 0.393744 q -0.0631,-0.09301 -0.12443,-0.136367 -0.0613,-0.04311 -0.12917,-0.04311 -0.12149,0 -0.19108,0.168194 -0.0696,0.168194 -0.0696,0.463841 0,0.294339 0.0696,0.462582 0.0696,0.168194 0.19108,0.168194 0.0678,0 0.12917,-0.04311 0.0613,-0.04311 0.12443,-0.136367 z m -1.09811,-0.242108 h -0.35503 l -0.056,0.346609 h -0.22823 l 0.32613,-1.902456 h 0.2707 l 0.32613,1.902456 h -0.22824 z m -0.29841,-0.352955 h 0.24121 l -0.12031,-0.756917 z m -0.68647,-1.202906 h 0.22705 v 1.902456 h -0.22705 z m -0.18872,1.797969 q -0.0625,0.0701 -0.13033,0.105751 -0.0678,0.03585 -0.14154,0.03585 -0.21996,0 -0.34854,-0.265031 -0.12856,-0.26634 -0.12856,-0.721229 0,-0.456187 0.12856,-0.721223 0.12856,-0.266339 0.34854,-0.266339 0.0737,0 0.14154,0.03585 0.0678,0.03585 0.13033,0.105751 v 0.393744 q -0.0631,-0.09301 -0.12443,-0.136367 -0.0613,-0.04311 -0.12916,-0.04311 -0.1215,0 -0.19109,0.168194 -0.0696,0.168194 -0.0696,0.463841 0,0.294339 0.0696,0.462582 0.0696,0.168194 0.19109,0.168194 0.0678,0 0.12916,-0.04311 0.0613,-0.04311 0.12443,-0.136367 z m -1.32221,-1.476856 q -0.10381,0 -0.161,0.165675 -0.0572,0.165675 -0.0572,0.46636 0,0.299426 0.0572,0.465101 0.0572,0.165675 0.161,0.165675 0.10439,0 0.16158,-0.165675 0.0572,-0.165675 0.0572,-0.465101 0,-0.300733 -0.0572,-0.46636 -0.0572,-0.165675 -0.16158,-0.165675 z m 0,-0.355523 q 0.21232,0 0.33262,0.262513 0.1203,0.262512 0.1203,0.725045 0,0.461274 -0.1203,0.723777 -0.12031,0.262512 -0.33262,0.262512 -0.21172,0 -0.33262,-0.262512 -0.12031,-0.262512 -0.12031,-0.723777 0,-0.462533 0.12031,-0.725045 0.12089,-0.262513 0.33262,-0.262513 z m -0.65993,0.0943 v 0.402657 q -0.0725,-0.0701 -0.14154,-0.105751 -0.069,-0.03585 -0.13033,-0.03585 -0.0814,0 -0.12031,0.04844 -0.0389,0.04844 -0.0389,0.150367 0,0.07644 0.0259,0.119799 0.0266,0.04214 0.0955,0.07262 l 0.0967,0.04215 q 0.14686,0.0637 0.20878,0.193674 0.0619,0.129973 0.0619,0.369523 0,0.314734 -0.0867,0.468928 -0.0861,0.152934 -0.26361,0.152934 -0.0837,0 -0.16809,-0.03439 -0.0843,-0.03439 -0.16867,-0.101923 v -0.414139 q 0.0843,0.09684 0.16277,0.14654 0.079,0.04844 0.15217,0.04844 0.0743,0 0.11383,-0.05353 0.0395,-0.05353 0.0395,-0.152934 0,-0.08918 -0.0271,-0.137626 -0.0266,-0.04844 -0.10674,-0.08666 l -0.0879,-0.04215 q -0.13211,-0.06118 -0.19345,-0.194983 -0.0607,-0.1338 -0.0607,-0.360609 0,-0.284167 0.0849,-0.437053 0.0849,-0.152934 0.24416,-0.152934 0.0725,0 0.1492,0.02422 0.0767,0.02277 0.15865,0.0701 z m -1.0126,1.495971 h -0.35502 l -0.056,0.346609 h -0.22824 l 0.32613,-1.902456 h 0.2707 l 0.32613,1.902456 h -0.22823 z m -0.29841,-0.352955 h 0.24121 l -0.12031,-0.756907 z" />
  </g>
</svg>
