<?xml version="1.0" encoding="UTF-8" standalone="no"?>
<!-- Created with Inkscape (http://www.inkscape.org/) -->

<svg
   xmlns:dc="http://purl.org/dc/elements/1.1/"
   xmlns:cc="http://creativecommons.org/ns#"
   xmlns:rdf="http://www.w3.org/1999/02/22-rdf-syntax-ns#"
   xmlns:svg="http://www.w3.org/2000/svg"
   xmlns="http://www.w3.org/2000/svg"
   xmlns:sodipodi="http://sodipodi.sourceforge.net/DTD/sodipodi-0.dtd"
   xmlns:inkscape="http://www.inkscape.org/namespaces/inkscape"
   width="50mm"
   height="50mm"
   viewBox="0 0 50 50.000001"
   version="1.1"
   id="svg8250"
   inkscape:version="0.92.4 (5da689c313, 2019-01-14)"
   sodipodi:docname="amdebeni.svg">
  <defs
     id="defs8244" />
  <sodipodi:namedview
     id="base"
     pagecolor="#ffffff"
     bordercolor="#666666"
     borderopacity="1.0"
     inkscape:pageopacity="0.0"
     inkscape:pageshadow="2"
     inkscape:zoom="2.7595579"
     inkscape:cx="-114.75205"
     inkscape:cy="71.231702"
     inkscape:document-units="mm"
     inkscape:current-layer="layer1"
     showgrid="false"
     fit-margin-top="0"
     fit-margin-left="0"
     fit-margin-right="0"
     fit-margin-bottom="0"
     inkscape:window-width="1920"
     inkscape:window-height="971"
     inkscape:window-x="0"
     inkscape:window-y="31"
     inkscape:window-maximized="1" />
  <metadata
     id="metadata8247">
    <rdf:RDF>
      <cc:Work
         rdf:about="">
        <dc:format>image/svg+xml</dc:format>
        <dc:type
           rdf:resource="http://purl.org/dc/dcmitype/StillImage" />
        <dc:title></dc:title>
      </cc:Work>
    </rdf:RDF>
  </metadata>
  <g
     inkscape:label="Layer 1"
     inkscape:groupmode="layer"
     id="layer1"
     transform="translate(6.857143,-316.24602)">
    <g
       id="g366"
       transform="translate(-1.5e-7,-11.694455)">
      <path
         inkscape:connector-curvature="0"
         id="rect6166"
         d="M -6.7284627,339.76361 H 43.014177 v 26.35373 H -6.7284627 Z"
         clip-path="url(#clipPath6181)"
         style="fill:#000cae;fill-opacity:1;stroke:none;stroke-width:0.15441634;stroke-miterlimit:4;stroke-dasharray:none;stroke-opacity:1" />
      <path
         inkscape:connector-curvature="0"
         id="rect5619"
         d="M -6.7284627,339.76361 H 43.014177 v 26.35373 H -6.7284627 Z"
         clip-path="url(#clipPath6175)"
         style="fill:#106717;fill-opacity:1;stroke:#246c00;stroke-width:0.25736055;stroke-miterlimit:4;stroke-dasharray:none;stroke-opacity:0.3298429" />
      <path
         id="path6172"
         d="m -6.6922047,359.77261 c 12.9306197,4.52612 32.1592157,6.57701 49.6701317,-0.0363 l -0.03626,0.50758 c -17.471012,6.70442 -36.707667,4.67621 -49.6338817,0 z"
         style="fill:#ffca00;fill-opacity:1;stroke:none;stroke-width:0.15441634;stroke-linecap:butt;stroke-linejoin:miter;stroke-miterlimit:4;stroke-dasharray:none;stroke-opacity:1"
         inkscape:connector-curvature="0" />
      <path
         id="path6170"
         d="m -6.6922047,359.77261 c 12.9306197,4.52612 32.1592157,6.57701 49.6701317,-0.0363 l -0.03626,0.50758 c -17.471012,6.70442 -36.707667,4.67621 -49.6338817,0 z"
         style="fill:#ffca00;fill-opacity:1;stroke:none;stroke-width:0.15441634;stroke-linecap:butt;stroke-linejoin:miter;stroke-miterlimit:4;stroke-dasharray:none;stroke-opacity:1"
         inkscape:connector-curvature="0" />
      <path
         style="fill:#6aa53d;fill-opacity:1;stroke:none;stroke-width:0.05462105;stroke-miterlimit:4;stroke-dasharray:none;stroke-opacity:1"
         d="m 12.569546,362.68797 c -0.133505,-0.0544 -0.256404,-0.11861 -0.273109,-0.14281 -0.03184,-0.0461 -0.06687,-0.0556 -0.205524,-0.0556 -0.0463,0 -0.217282,-0.0888 -0.380159,-0.19725 -0.162656,-0.10847 -0.327417,-0.20334 -0.365925,-0.21074 -0.03846,-0.007 -0.213119,-0.16476 -0.387925,-0.34966 -0.207972,-0.21983 -0.508935,-0.44041 -0.869863,-0.6374 -0.303558,-0.1657 -0.524612,-0.30235 -0.491224,-0.30369 0.03478,-10e-4 0.0316,-0.0216 -0.0073,-0.047 -0.03723,-0.0245 -0.12983,-0.16748 -0.205769,-0.31769 -0.07594,-0.15021 -0.22953,-0.41649 -0.341184,-0.59173 -0.111703,-0.17525 -0.177109,-0.31862 -0.145263,-0.31862 0.03185,0 0.04189,-0.0423 0.02205,-0.0941 -0.0196,-0.0541 0.02523,-0.163 0.108029,-0.25609 0.07937,-0.0891 0.09431,-0.12358 0.03332,-0.0767 -0.127381,0.0981 -0.104354,0.12234 -0.431208,-0.45446 -0.156532,-0.2764 -0.20185,-0.42065 -0.185927,-0.59173 0.01225,-0.12445 -0.0049,-0.22623 -0.03503,-0.22623 -0.03086,0 -0.05561,-0.0615 -0.05512,-0.13654 6.88e-4,-0.11183 0.01225,-0.12006 0.06247,-0.0455 0.04556,0.0674 0.05144,0.0471 0.02205,-0.0778 -0.02205,-0.0929 -0.04287,-0.21574 -0.04728,-0.27311 -0.0049,-0.0573 -0.03356,-0.12265 -0.06492,-0.14516 -0.03332,-0.0238 -0.0196,-0.0868 0.03038,-0.15173 0.07986,-0.10147 0.07814,-0.10379 -0.0196,-0.0275 -0.09799,0.0768 -0.133749,0.0534 -0.111947,-0.0726 0.0049,-0.0275 -0.0147,-0.0351 -0.04507,-0.0169 -0.09113,0.0563 -0.426555,-0.35729 -0.370703,-0.45709 0.02695,-0.0484 0.03307,-0.20893 0.01225,-0.35665 -0.02817,-0.20844 -0.04654,-0.24188 -0.0828,-0.14923 -0.0414,0.10568 -0.04703,0.10176 -0.05095,-0.034 -0.0023,-0.0844 0.03234,-0.20727 0.07692,-0.27311 0.05512,-0.0811 0.08304,-0.34142 0.08696,-0.80697 0.0049,-0.51405 0.02964,-0.72382 0.100925,-0.83235 0.111213,-0.16986 0.123707,-0.39989 0.02695,-0.49677 -0.05046,-0.0505 -0.05046,-0.11903 0,-0.26395 0.03748,-0.10764 0.06835,-0.3282 0.06835,-0.49012 0,-0.17806 0.02695,-0.29439 0.06835,-0.29439 0.04605,0 0.05536,-0.0812 0.02866,-0.24934 -0.03478,-0.21743 -0.0196,-0.26791 0.116848,-0.39449 0.08623,-0.0798 0.182497,-0.14516 0.214097,-0.14516 0.06932,0 0.06957,-0.0272 0.0025,-0.31393 -0.03405,-0.14598 -0.02915,-0.24556 0.0147,-0.28856 0.03601,-0.0361 0.08059,-0.19523 0.09872,-0.35365 0.03038,-0.2642 0.04654,-0.28784 0.19548,-0.28597 0.08917,0.001 0.148448,-0.0206 0.131301,-0.0482 -0.01715,-0.0275 0.01225,-0.11648 0.0654,-0.19746 0.06737,-0.10269 0.07275,-0.13814 0.01715,-0.11722 -0.108029,0.0415 -0.117827,-0.19587 -0.01715,-0.39163 0.04532,-0.0868 0.153102,-0.22411 0.239574,-0.30503 0.08672,-0.0809 0.157511,-0.20589 0.157511,-0.27771 0,-0.0718 0.06834,-0.1947 0.151632,-0.27311 0.08353,-0.0784 0.151877,-0.17542 0.151877,-0.21554 0,-0.0402 0.03895,-0.10536 0.08647,-0.1449 0.0583,-0.0483 0.07569,-0.1395 0.05316,-0.2781 -0.02891,-0.17738 -0.0073,-0.2288 0.158491,-0.36781 0.16535,-0.13909 0.190091,-0.19692 0.178823,-0.41568 -0.01225,-0.25369 0.04066,-0.42338 0.118807,-0.37508 0.06271,0.0387 0.04948,-0.30945 -0.0147,-0.36747 -0.0316,-0.029 -0.03797,-0.0206 -0.0147,0.0198 0.05267,0.0921 -0.01715,0.27263 -0.08892,0.22853 -0.03037,-0.0189 -0.0414,-0.0567 -0.0245,-0.0843 0.01715,-0.0275 -0.0098,-0.0661 -0.06124,-0.0855 -0.06638,-0.0256 -0.08108,-0.0824 -0.05267,-0.20362 0.02205,-0.0925 0.04287,-0.19459 0.04703,-0.22681 0.01225,-0.10097 0.242513,-0.26274 0.326952,-0.23029 0.171718,0.0659 0.351522,-0.40417 0.192296,-0.50254 -0.04213,-0.0261 -0.02817,-0.0804 0.04115,-0.15673 0.08108,-0.0895 0.08892,-0.13345 0.0343,-0.18818 -0.09896,-0.099 -0.08917,-0.16851 0.0245,-0.16851 0.05242,0 0.137914,-0.0425 0.189846,-0.0945 0.05193,-0.052 0.133505,-0.0796 0.180783,-0.0614 0.04752,0.0184 0.07202,0.01 0.05463,-0.0179 -0.01715,-0.0281 0.04262,-0.054 0.13326,-0.0575 0.30907,-0.0118 0.711103,-0.0843 0.768914,-0.13896 0.03601,-0.0339 0.03013,-0.0545 -0.0147,-0.0545 -0.04017,0 -0.07276,-0.0272 -0.07276,-0.0607 0,-0.0334 0.08206,-0.0607 0.182008,-0.0607 0.205279,0 0.212382,-0.0127 0.106069,-0.18659 -0.06467,-0.10597 -0.05806,-0.13738 0.04458,-0.21358 0.08525,-0.0632 0.114642,-0.14441 0.10068,-0.278 -0.0196,-0.19864 -0.0343,-0.19565 0.2894,-0.0643 0.05561,0.0225 0.07006,0.01 0.0414,-0.0372 -0.07251,-0.11721 -0.106314,-0.38654 -0.04385,-0.34788 0.03135,0.0194 0.04336,-0.0169 0.0267,-0.081 -0.0196,-0.0795 0.0196,-0.14965 0.130075,-0.22148 0.08819,-0.0578 0.146978,-0.14073 0.130321,-0.18413 -0.02205,-0.0574 0.0561,-0.084 0.285235,-0.0972 0.274431,-0.0157 0.31806,-0.036 0.334938,-0.15479 0.0098,-0.0751 -0.0098,-0.13657 -0.04556,-0.13657 -0.03576,0 -0.06491,-0.0264 -0.06491,-0.0588 0,-0.0323 0.03846,-0.044 0.08549,-0.0258 0.04703,0.0179 0.17025,-0.011 0.273526,-0.0644 0.172454,-0.0891 0.184947,-0.11609 0.151632,-0.32449 -0.03454,-0.21527 -0.02719,-0.22804 0.134975,-0.24146 0.09407,-0.008 0.23443,-0.0822 0.31147,-0.16542 0.07716,-0.0832 0.178333,-0.15127 0.224631,-0.15127 0.04654,0 0.101905,-0.0546 0.122972,-0.12138 0.04091,-0.12858 0.295891,-0.1711 0.364138,-0.0607 0.0196,0.0334 -0.0024,0.0607 -0.05144,0.0607 -0.141832,0 -0.162899,0.64722 -0.02523,0.7716 0.07153,0.0646 0.09309,0.14313 0.06761,0.24481 -0.02205,0.091 -0.0073,0.16805 0.03797,0.19639 0.04164,0.0256 0.0899,0.17358 0.107294,0.32868 0.01715,0.15511 0.05463,0.29606 0.08231,0.31325 0.04752,0.0294 -0.04189,0.28579 -0.222182,0.6363 -0.04997,0.0971 -0.05928,0.18708 -0.02523,0.24227 0.02989,0.0483 0.03993,0.14465 0.02205,0.21417 -0.0196,0.0738 0.0073,0.15915 0.0632,0.20518 0.05218,0.0433 0.09505,0.12128 0.09505,0.17327 0,0.052 0.03282,0.18516 0.073,0.29601 0.05389,0.14869 0.109498,0.20156 0.212382,0.20156 0.107539,0 0.13963,0.0341 0.13963,0.14813 0,0.0815 0.0289,0.16601 0.06418,0.18786 0.03723,0.023 0.04777,0.11528 0.02474,0.22007 -0.0512,0.23274 0.128115,0.47337 0.239329,0.32129 0.0561,-0.0766 0.08549,-0.0791 0.170494,-0.0147 0.10313,0.0782 0.157267,0.24822 0.212138,0.66736 0.02964,0.22525 0.02964,0.22527 0.385548,0.26555 0.36279,0.041 0.54203,0.17907 0.54203,0.4174 0,0.11168 0.0703,0.12008 0.170004,0.0203 0.05659,-0.0567 0.07275,-0.0443 0.07275,0.0556 0,0.10235 0.07079,0.15225 0.34895,0.24547 0.338024,0.11332 0.348974,0.12381 0.348974,0.33414 0,0.15401 0.0485,0.268 0.16682,0.39208 0.09186,0.0962 0.169025,0.21439 0.171719,0.26265 0.0024,0.0619 0.0147,0.0654 0.03527,0.0118 0.01715,-0.0417 0.07079,-0.0759 0.120032,-0.0759 0.05561,0 0.07226,0.0289 0.04409,0.0759 -0.03405,0.0569 -0.02205,0.0561 0.05169,-0.003 0.05806,-0.0471 0.111703,-0.0555 0.133015,-0.0208 0.0196,0.0319 0.09064,0.0436 0.157511,0.0261 0.06687,-0.0174 0.161186,9.5e-4 0.209444,0.0411 0.04997,0.0415 0.144528,0.0548 0.219732,0.031 0.0975,-0.0309 0.11954,-0.0218 0.08451,0.0347 -0.03037,0.0493 -0.02204,0.0614 0.02204,0.0341 0.03797,-0.0233 0.18225,-0.009 0.320778,0.0329 0.235164,0.0705 0.259318,0.0664 0.363477,-0.0623 0.181517,-0.22409 0.782926,-0.32151 0.782926,-0.12682 0,0.0301 0.03919,0.0396 0.08721,0.0211 0.04801,-0.0186 0.135954,0.0233 0.195479,0.0929 0.05953,0.0695 0.172945,0.12645 0.252191,0.12645 0.08574,0 0.155308,0.0429 0.172209,0.10619 0.06908,0.25915 0.730652,0.55678 0.84096,0.37833 0.02204,-0.0339 0.06761,-0.0434 0.104108,-0.0211 0.03772,0.0233 0.0485,0.0127 0.02524,-0.0253 -0.05732,-0.0925 0.06393,-0.15281 0.225856,-0.11219 0.08525,0.0213 0.169024,0.11836 0.22414,0.25911 0.161922,0.41401 0.20969,0.47646 0.379841,0.49616 0.111458,0.013 0.212873,0.0884 0.302037,0.22512 0.180539,0.27653 0.351989,0.36594 0.52459,0.27358 0.114398,-0.0612 0.148936,-0.0496 0.254762,0.0848 0.073,0.0927 0.183721,0.15568 0.273746,0.15568 0.229042,0 0.402328,0.1128 0.356862,0.23222 -0.02964,0.0782 -0.02204,0.0851 0.03331,0.0301 0.04238,-0.042 0.112683,-0.0516 0.170495,-0.0233 0.273523,0.13397 0.517752,0.18314 0.561136,0.11296 0.06492,-0.10485 0.329401,-0.12398 0.407839,-0.0295 0.03723,0.0449 0.07618,0.13637 0.08623,0.20334 0.0098,0.0669 0.200379,0.29178 0.42256,0.49963 0.234675,0.21948 0.431967,0.46272 0.470744,0.58025 0.09946,0.0256 0.117584,0.0382 0.151879,0.0878 0.07496,0.0208 0.117581,-0.0223 0.175639,0.0233 0.02964,0.009 0.03674,0.002 0.06883,0.001 0.107294,-0.0328 -0.0024,-0.0113 0.198665,-0.0627 0.13571,-0.0344 0.291015,-0.037 0.374034,-0.006 0.144039,0.0533 0.141345,0.10707 -0.0073,0.13522 -0.04483,0.008 -0.236632,0.0884 -0.426505,0.17752 -0.314066,0.10394 -0.363353,0.17185 -0.473073,0.17336 -0.08182,0.006 -0.07251,0.0247 -0.114152,0.0203 -0.06639,0.0581 -0.324085,0.10705 -0.588891,0.20384 -0.264781,0.0968 -0.818105,0.30221 -1.229592,0.45649 -0.411465,0.1543 -0.716246,0.24055 -0.758063,0.25768 -0.04385,0.0159 -0.02842,0.0115 -0.0681,0.0245 -0.0343,0.0159 -0.01471,0.006 -0.06663,0.0235 -0.139875,0.061 -0.169026,0.063 -0.331436,0.15288 -0.08353,0.0462 -0.151632,0.0768 -0.151632,0.0681 0,-0.009 -0.06835,0.0127 -0.15163,0.0472 -0.243986,0.10135 -1.586897,0.59411 -1.840482,0.67528 -0.127627,0.0409 -0.386529,0.16108 -0.575148,0.26715 l -0.342951,0.19283 -0.117337,0.6051 c -0.06467,0.3328 -0.136443,0.61287 -0.15947,0.62238 -0.02204,0.01 -0.02915,0.0846 -0.01225,0.1669 0.02915,0.15271 -0.07202,0.21125 -0.127381,0.0737 -0.0196,-0.0473 -0.03234,-0.0378 -0.03527,0.0253 -0.0024,0.0556 0.0294,0.11263 0.07104,0.12667 0.05561,0.0189 0.0583,0.0485 0.0098,0.11126 -0.03601,0.0472 -0.05512,0.18132 -0.04213,0.29815 0.01225,0.11682 0.02768,0.25819 0.03307,0.31416 0.0049,0.0559 0.03576,0.0856 0.06761,0.0659 0.03429,-0.0213 0.04017,0.0108 0.01471,0.0785 -0.0245,0.0629 -0.0245,0.0949 -7.94e-4,0.0712 0.05708,-0.0571 0.214099,0.0756 0.171474,0.14475 -0.01714,0.0296 0.04336,0.0542 0.137181,0.0548 0.232225,0.001 0.330282,0.0704 0.259218,0.18275 -0.08892,0.14056 -0.06786,0.21659 0.02474,0.0898 0.07569,-0.10345 0.09554,-0.0727 0.218752,0.33736 0.07447,0.24816 0.191561,0.5972 0.259929,0.77563 0.10509,0.27417 0.111215,0.33362 0.03919,0.38393 -0.06541,0.0457 -0.06761,0.0667 -0.0098,0.0903 0.04164,0.0169 0.07594,0.0822 0.07594,0.14497 0,0.0628 0.05904,0.14575 0.131056,0.18433 0.19303,0.10338 0.06002,0.15274 -0.616622,0.22855 -0.317105,0.0355 -0.931595,0.10664 -1.365522,0.158 -0.590386,0.0699 -1.289044,0.0896 -2.775921,0.0784 -1.530431,-0.0115 -1.993533,0.002 -2.015653,0.0598 -0.01715,0.0427 -0.073,0.0578 -0.132035,0.0352 -0.06981,-0.027 -0.08917,-0.0167 -0.05928,0.0314 0.0267,0.043 0.0049,0.071 -0.05438,0.071 -0.05389,0 -0.08353,0.0235 -0.06565,0.0526 0.01715,0.0289 -0.02205,0.10144 -0.08745,0.16114 -0.06589,0.0597 -0.120031,0.1469 -0.120031,0.19377 0,0.0469 -0.0245,0.0706 -0.05267,0.0527 -0.02891,-0.0179 0.19646,-0.28197 0.136689,-0.21601 -0.06198,0.0685 -0.133505,0.23754 -0.09358,0.23754 0.03846,0 -0.02205,0.0637 -0.02205,0.0303 0,-0.0334 -0.01715,-0.0569 0.01715,-0.0569 0.07349,0 -0.05928,0.34138 -0.231734,0.59501 -0.05855,0.1705 0.0147,0.0294 -0.04213,0.11203 -0.03723,0.10011 -0.181273,0.33533 -0.369109,0.46901 -0.135466,0.0965 -0.09284,0.0924 -0.202586,0.13953 -0.105334,0.11263 -0.238349,0.0261 -0.08108,0.0423 0.04262,-0.0147 9.8e-5,0.006 -0.05708,0.0283 -0.05193,0.0198 -0.146243,0.0336 -0.07226,0.0184 0.0316,-0.006 -0.02205,0.0198 -0.05438,0.0198 -0.03233,0 -0.03797,0.005 -0.05242,0.008 -0.0147,0.004 -1.005132,0.0869 -1.341687,-0.0501 z m 0,-0.13769 c -0.0196,-0.0334 0.315953,0.2428 0.01715,0.0462 -0.08843,8.4e-4 0.108518,0.15254 -0.116113,0.01 0.118807,0.0768 -0.117582,-0.0825 -0.165105,-0.15933 z m -1.100447,-0.5939 c 0.01715,-0.0261 -0.02205,-0.0477 -0.08304,-0.0477 -0.06173,0 -0.05634,-0.21726 -0.04017,-0.19102 0.01715,0.0261 0.169026,0.15229 0.19842,0.15229 0.0294,0 -0.09137,0.11263 -0.0752,0.0864 z m 3.244485,-0.2644 c -0.04066,-0.0653 0.170251,0.0316 0.155797,0.046 -0.02621,0.0261 -0.08353,0.0822 -0.0387,0.0822 0.01225,0 -0.07618,-0.0629 -0.117093,-0.12811 z m -3.752318,-0.17703 c 0,-0.0354 -0.02719,-0.0474 -0.06075,-0.0267 -0.03332,0.0206 0.07888,-0.20523 0.07888,-0.19053 0,0.0147 0.394782,0.13673 0.428145,0.13673 0.03332,0 -0.446224,0.11592 -0.446224,0.0806 z m 11.987904,-7.08544 c -0.01961,-0.0189 -0.06761,-4e-5 -0.108765,0.0414 -0.05953,0.0599 -0.153101,-0.39373 -0.06639,-0.42667 0.05977,-0.0228 0.194011,0.40392 0.175395,0.38523 z m 1.303006,-0.68025 c -0.0196,-0.0189 -0.03552,0.13402 -0.07667,0.17546 -0.05953,0.0599 -0.245552,-0.20116 -0.15898,-0.23411 0.05977,-0.0228 0.254418,0.0773 0.235654,0.0586 z m 1.942315,-2.49094 c 0,-0.0354 -0.02719,-0.0474 -0.06075,-0.0267 -0.03332,0.0206 -0.06075,0.0496 -0.06075,0.0642 0,0.0147 0.02719,0.0267 0.06075,0.0267 0.03331,0 0.06075,-0.0289 0.06075,-0.0642 z m -2.041523,-0.63366 c 0.01961,-0.05 0.0073,-0.091 -0.0245,-0.091 -0.03233,0 -0.05879,0.041 -0.05879,0.091 0,0.0501 0.0098,0.091 0.0245,0.091 0.01225,0 0.03944,-0.041 0.05879,-0.091 z m -9.404256,-8.74432 c -0.06002,-0.0595 0.06957,-0.10183 0.102395,-0.0154 0.02205,0.0599 -0.07986,0.42148 -0.34922,0.23977 -0.110232,2.7e-4 0.288176,-0.18328 0.246703,-0.22446 z"
         id="path6503-9"
         inkscape:connector-curvature="0" />
      <g
         transform="translate(49.381404,340.25984)"
         id="g8147">
        <path
           inkscape:connector-curvature="0"
           id="path12034"
           style="font-style:normal;font-variant:normal;font-weight:bold;font-stretch:normal;font-size:2.76812911px;line-height:1.25;font-family:STIXVariants;-inkscape-font-specification:'STIXVariants Bold';letter-spacing:0px;word-spacing:0px;fill:#f2c052;fill-opacity:1;stroke:none;stroke-width:0.19438221"
           d="m -45.640079,14.097894 -1.770233,-0.01221 -0.279357,1.331311 -1.138007,-0.0078 1.626145,-7.306889 1.34973,0.00931 1.626145,7.329322 -1.138007,-0.0078 z m -1.487936,-1.368008 1.2027,0.0083 -0.59988,-2.9156958 z" />
        <path
           inkscape:connector-curvature="0"
           id="path12036"
           style="font-style:normal;font-variant:normal;font-weight:bold;font-stretch:normal;font-size:2.76812911px;line-height:1.25;font-family:STIXVariants;-inkscape-font-specification:'STIXVariants Bold';letter-spacing:0px;word-spacing:0px;fill:#f2c052;fill-opacity:1;stroke:none;stroke-width:0.19438221"
           d="m -43.64636,8.1267778 1.440889,0.00994 0.999801,3.9232832 1.005679,-3.9094504 1.437948,0.00992 v 7.3181054 l -1.070373,-0.0074 v -5.352559 l -1.011564,3.938821 -0.717502,-0.0049 -1.011562,-3.952775 v 5.352559 l -1.073316,-0.0074 z" />
        <path
           inkscape:connector-curvature="0"
           id="path12038"
           style="font-style:normal;font-variant:normal;font-weight:bold;font-stretch:normal;font-size:2.76812911px;line-height:1.25;font-family:STIXVariants;-inkscape-font-specification:'STIXVariants Bold';letter-spacing:0px;word-spacing:0px;fill:#f2c052;fill-opacity:1;stroke:none;stroke-width:0.19438221"
           d="M -36.515434,9.6023321 V 14.0677 l 0.405801,0.0028 q 0.69398,0.0048 1.058613,-0.566186 0.367574,-0.570952 0.367574,-1.664013 0,-1.088155 -0.364634,-1.659258 -0.364632,-0.5711038 -1.061553,-0.5759108 z m -1.132126,-1.4341775 1.193878,0.00823 q 0.999801,0.0069 1.487939,0.2504432 0.491077,0.2386717 0.841009,0.8096666 0.30876,0.4971918 0.45873,1.1452366 0.149964,0.648049 0.149964,1.466616 0,0.828373 -0.149964,1.479252 -0.149964,0.64598 -0.45873,1.138913 -0.352871,0.566154 -0.846892,0.802923 -0.494018,0.231877 -1.482056,0.225062 l -1.193878,-0.0082 z" />
        <path
           inkscape:connector-curvature="0"
           id="path12040"
           style="font-style:normal;font-variant:normal;font-weight:bold;font-stretch:normal;font-size:2.76812911px;line-height:1.25;font-family:STIXVariants;-inkscape-font-specification:'STIXVariants Bold';letter-spacing:0px;word-spacing:0px;fill:#f2c052;fill-opacity:1;stroke:none;stroke-width:0.19438221"
           d="m -32.648559,8.2026352 3.055271,0.021074 v 1.4263687 l -1.923144,-0.013265 v 1.3626481 l 1.808462,0.01247 V 12.4383 l -1.808462,-0.01247 v 1.676351 l 1.987838,0.01371 v 1.426369 l -3.119965,-0.02152 z" />
        <path
           inkscape:connector-curvature="0"
           id="path12042"
           style="font-style:normal;font-variant:normal;font-weight:bold;font-stretch:normal;font-size:2.76812911px;line-height:1.25;font-family:STIXVariants;-inkscape-font-specification:'STIXVariants Bold';letter-spacing:0px;word-spacing:0px;fill:#f2c052;fill-opacity:1;stroke:none;stroke-width:0.19438221"
           d="m -26.773263,11.076293 q 0.267593,0.0018 0.4058,-0.193247 0.138216,-0.195129 0.138216,-0.577438 0,-0.3774232 -0.138216,-0.5744409 -0.138215,-0.2019316 -0.4058,-0.2037772 l -0.626345,-0.00432 V 11.07198 Z m 0.03823,3.201014 q 0.341109,0.0024 0.511663,-0.236651 0.173503,-0.238984 0.173503,-0.724243 0,-0.475454 -0.170545,-0.711908 -0.170566,-0.241356 -0.514604,-0.243729 l -0.664572,-0.0046 v 1.916527 z m 1.052731,-2.624901 q 0.364633,0.178979 0.564592,0.655808 0.199959,0.476833 0.199959,1.167963 0,1.058748 -0.429327,1.575356 -0.429325,0.516609 -1.30562,0.510564 l -1.879036,-0.01296 V 8.231031 l 1.699658,0.011723 q 0.914524,0.00631 1.323266,0.4698794 0.411681,0.4635917 0.411681,1.4782236 0,0.534279 -0.149963,0.910668 -0.149964,0.371486 -0.435208,0.550881 z" />
        <path
           inkscape:connector-curvature="0"
           id="path12044"
           style="font-style:normal;font-variant:normal;font-weight:bold;font-stretch:normal;font-size:2.76812911px;line-height:1.25;font-family:STIXVariants;-inkscape-font-specification:'STIXVariants Bold';letter-spacing:0px;word-spacing:0px;fill:#f2c052;fill-opacity:1;stroke:none;stroke-width:0.19438221"
           d="m -23.944417,8.2626721 3.055271,0.021074 v 1.4263687 l -1.923146,-0.013265 v 1.3626482 l 1.808462,0.01247 v 1.426368 l -1.808462,-0.01247 v 1.676351 l 1.987838,0.01371 v 1.426369 l -3.119963,-0.02152 z" />
        <path
           inkscape:connector-curvature="0"
           id="path12046"
           style="font-style:normal;font-variant:normal;font-weight:bold;font-stretch:normal;font-size:2.76812911px;line-height:1.25;font-family:STIXVariants;-inkscape-font-specification:'STIXVariants Bold';letter-spacing:0px;word-spacing:0px;fill:#f2c052;fill-opacity:1;stroke:none;stroke-width:0.19438221"
           d="m -19.827595,8.2910679 1.264453,0.00872 1.59674,5.0302641 V 8.310803 l 1.073314,0.0074 v 7.318106 l -1.264453,-0.0087 -1.596738,-5.030261 v 5.019248 l -1.073316,-0.0074 z" />
        <path
           inkscape:connector-curvature="0"
           id="path12048"
           style="font-style:normal;font-variant:normal;font-weight:bold;font-stretch:normal;font-size:2.76812911px;line-height:1.25;font-family:STIXVariants;-inkscape-font-specification:'STIXVariants Bold';letter-spacing:0px;word-spacing:0px;fill:#f2c052;fill-opacity:1;stroke:none;stroke-width:0.19438221"
           d="m -14.781544,8.325873 1.132127,0.00781 v 7.318106 l -1.132127,-0.0078 z" />
      </g>
      <path
         inkscape:connector-curvature="0"
         d="m 35.097183,356.91106 0.258463,9.5e-4 v 0.90214 l -0.258463,-9.5e-4 z m -1.151967,-0.004 0.288663,10e-4 0.364522,0.6201 v -0.61875 l 0.24502,9.3e-4 v 0.90214 l -0.288661,-10e-4 -0.364521,-0.62011 v 0.61875 l -0.245023,-9.2e-4 z m -0.939834,-0.004 0.697491,0.003 v 0.17582 l -0.439036,-0.002 v 0.168 l 0.412853,10e-4 v 0.17583 l -0.412853,-0.002 v 0.20666 l 0.453805,0.002 v 0.17582 l -0.71226,-0.003 z m -0.645798,0.34685 q 0.06108,2.2e-4 0.09264,-0.0239 0.03156,-0.0241 0.03156,-0.0712 0,-0.0465 -0.03156,-0.0708 -0.03156,-0.0249 -0.09264,-0.0251 l -0.142999,-5.3e-4 v 0.19094 z m 0.0086,0.3946 q 0.07786,2.9e-4 0.116797,-0.0292 0.03961,-0.0295 0.03961,-0.0893 0,-0.0586 -0.03893,-0.0878 -0.03893,-0.0298 -0.117477,-0.03 l -0.151702,-5.5e-4 v 0.23626 z m 0.240345,-0.32358 q 0.08325,0.0222 0.128876,0.0808 0.04565,0.0588 0.04565,0.14396 0,0.13053 -0.098,0.1942 -0.098,0.0637 -0.298064,0.063 l -0.428966,-0.002 v -0.90213 l 0.388016,0.001 q 0.208783,7.7e-4 0.302091,0.0579 0.09397,0.0572 0.09397,0.18223 0,0.0659 -0.03422,0.11228 -0.03422,0.0458 -0.09936,0.0679 z m -2.003748,-0.42681 0.258463,9.5e-4 v 0.7263 l 0.453806,0.002 v 0.17583 l -0.712261,-0.003 z m -0.939832,-0.003 0.697489,0.003 v 0.17582 l -0.439033,-0.002 v 0.168 l 0.412853,0.002 v 0.17583 l -0.412853,-10e-4 v 0.20666 l 0.453805,0.002 v 0.17582 l -0.712261,-0.003 z m -0.882774,0.17254 v 0.55047 l 0.09264,3.5e-4 q 0.158422,5.8e-4 0.241676,-0.0698 0.0839,-0.0704 0.0839,-0.20512 0,-0.13415 -0.08325,-0.20455 -0.08325,-0.0704 -0.24233,-0.071 z m -0.258461,-0.17679 0.272555,0.001 q 0.228235,8.5e-4 0.339683,0.0309 0.112117,0.0294 0.191995,0.0998 0.07049,0.0613 0.104716,0.14118 0.03422,0.0799 0.03422,0.1808 0,0.10212 -0.03422,0.18237 -0.03422,0.0796 -0.104716,0.14039 -0.08056,0.0698 -0.193329,0.099 -0.11277,0.0286 -0.338338,0.0277 l -0.272556,-10e-4 z m -0.771327,0.0255 v 0.19094 q -0.08257,-0.0335 -0.161118,-0.0507 -0.07855,-0.0171 -0.148357,-0.0173 -0.09264,-3.4e-4 -0.136959,0.0224 -0.04432,0.0228 -0.04432,0.0711 0,0.0362 0.02961,0.0569 0.0302,0.0201 0.108744,0.0348 l 0.110107,0.0204 q 0.167155,0.0308 0.237651,0.0927 0.07049,0.0619 0.07049,0.17551 0,0.14926 -0.09868,0.22199 -0.098,0.0722 -0.300078,0.0714 -0.09533,-3.5e-4 -0.191315,-0.017 -0.09598,-0.0166 -0.191997,-0.049 v -0.19638 q 0.09598,0.0463 0.185274,0.0702 0.08994,0.0233 0.173199,0.0236 0.08459,3.2e-4 0.129556,-0.0248 0.04497,-0.0251 0.04497,-0.0723 0,-0.0423 -0.03088,-0.0654 -0.0302,-0.023 -0.121505,-0.0415 l -0.100041,-0.0204 q -0.150368,-0.0295 -0.220181,-0.0933 -0.06916,-0.0637 -0.06916,-0.17126 0,-0.13473 0.09666,-0.20689 0.09666,-0.0722 0.277914,-0.0715 0.08257,3.2e-4 0.169851,0.0121 0.08728,0.0112 0.180571,0.0339 z m -1.637321,-0.0345 0.69749,0.003 v 0.17583 l -0.439034,-0.002 v 0.168 l 0.412853,0.002 v 0.17582 l -0.412853,-0.002 v 0.20667 l 0.453803,0.002 v 0.17582 l -0.712259,-0.003 z m -0.882774,0.17255 v 0.55047 l 0.09264,3.4e-4 q 0.158425,5.9e-4 0.241676,-0.0698 0.0839,-0.0704 0.0839,-0.20512 0,-0.13415 -0.08325,-0.20454 -0.08325,-0.0704 -0.242329,-0.071 z m -0.258464,-0.17679 0.272558,0.001 q 0.228235,8.5e-4 0.33968,0.0309 0.11212,0.0294 0.191998,0.0998 0.07049,0.0613 0.104717,0.14118 0.03422,0.0799 0.03422,0.1808 0,0.10212 -0.03422,0.18236 -0.03422,0.0796 -0.104717,0.1404 -0.08056,0.0698 -0.193329,0.099 -0.11277,0.0286 -0.338341,0.0277 l -0.272555,-10e-4 z m -0.455138,0.73609 -0.404128,-0.002 -0.06377,0.1641 -0.259794,-9.8e-4 0.371234,-0.90076 0.308131,0.001 0.371235,0.90353 -0.259795,-9.8e-4 z m -0.339683,-0.16865 0.274569,10e-4 -0.136949,-0.35943 z m -1.151297,-0.39886 v 0.55047 l 0.09264,3.4e-4 q 0.158422,5.9e-4 0.241675,-0.0698 0.0839,-0.0704 0.0839,-0.20512 0,-0.13415 -0.08325,-0.20455 -0.08325,-0.0704 -0.242329,-0.071 z m -0.258461,-0.17679 0.272555,0.001 q 0.228235,8.4e-4 0.33968,0.0309 0.11212,0.0294 0.191997,0.0998 0.07049,0.0613 0.10472,0.14117 0.03422,0.0799 0.03422,0.18081 0,0.10212 -0.03422,0.18236 -0.03422,0.0796 -0.10472,0.1404 -0.08056,0.0698 -0.193328,0.099 -0.112771,0.0286 -0.338341,0.0277 l -0.272555,-10e-4 z m -0.538536,-0.004 0.258464,9.5e-4 v 0.90214 l -0.258464,-9.5e-4 z m -0.875387,-0.003 0.258463,9.5e-4 v 0.72631 l 0.453806,0.002 v 0.17582 l -0.712261,-0.003 z m -0.45515,0.73609 -0.404127,-0.002 -0.06377,0.16411 -0.259794,-9.8e-4 0.371237,-0.90076 0.308128,0.001 0.371235,0.90352 -0.259795,-9.7e-4 z m -0.339682,-0.16864 0.274568,0.001 -0.136958,-0.35944 z m -1.14928,-0.57469 0.428965,0.002 q 0.191315,7.1e-4 0.29337,0.0778 0.102703,0.0765 0.102703,0.21791 0,0.14201 -0.102703,0.21835 -0.102023,0.0758 -0.29337,0.075 l -0.170503,-6.3e-4 v 0.313 l -0.258462,-9.5e-4 z m 0.258462,0.16954 v 0.25196 l 0.142999,5.3e-4 q 0.0752,2.9e-4 0.116145,-0.0322 0.04095,-0.0331 0.04095,-0.0935 0,-0.0604 -0.04095,-0.0932 -0.04094,-0.0328 -0.116145,-0.0331 z m -0.771344,-0.17145 0.258463,9.5e-4 v 0.90214 l -0.258463,-9.5e-4 z m -0.214818,0.85179 q -0.07114,0.033 -0.148356,0.0496 -0.07721,0.0165 -0.161118,0.0162 -0.250411,-9.3e-4 -0.396742,-0.12715 -0.146345,-0.12684 -0.146345,-0.34255 0,-0.21634 0.146345,-0.34146 0.146344,-0.12574 0.396742,-0.12481 0.0839,3.2e-4 0.161118,0.0174 0.07721,0.0171 0.148356,0.0507 v 0.1867 q -0.07183,-0.0444 -0.141637,-0.0652 -0.06981,-0.0208 -0.147025,-0.0211 -0.13829,-5e-4 -0.217516,0.0789 -0.07923,0.0795 -0.07923,0.21966 0,0.13959 0.07923,0.21964 0.07923,0.0801 0.217516,0.0806 0.07718,2.9e-4 0.147025,-0.02 0.06981,-0.0203 0.141637,-0.0641 z m -1.307712,-0.85746 0.258463,9.5e-4 v 0.90214 l -0.258463,-9.5e-4 z m -1.151966,-0.004 0.288661,10e-4 0.364522,0.62011 v -0.61876 l 0.24502,9.3e-4 v 0.90214 l -0.288661,-0.001 -0.364522,-0.62011 v 0.61875 l -0.24502,-9.2e-4 z m -1.117057,-0.004 0.258463,9.5e-4 v 0.5408 q 0,0.11179 0.04026,0.16029 0.04095,0.0479 0.132932,0.0482 0.09264,3.4e-4 0.132933,-0.0472 0.04095,-0.0482 0.04095,-0.15998 v -0.54081 l 0.258464,9.6e-4 v 0.5408 q 0,0.19155 -0.106731,0.2848 -0.10673,0.0933 -0.325587,0.0925 -0.218168,-8.2e-4 -0.324913,-0.0949 -0.106732,-0.094 -0.106732,-0.28558 z m -1.369472,-0.005 0.32894,10e-4 0.228236,0.48364 0.229595,-0.48194 0.32827,10e-4 v 0.90214 l -0.24437,-8.9e-4 v -0.65984 l -0.23093,0.48556 -0.163812,-6.1e-4 -0.230928,-0.48728 v 0.65984 l -0.245023,-9e-4 z m -1.417808,-0.005 0.697492,0.003 v 0.17583 l -0.439038,-0.002 v 0.16799 l 0.412857,0.001 v 0.17583 l -0.412857,-0.002 v 0.20666 l 0.453806,0.002 v 0.17583 l -0.71226,-0.003 z m -0.88277,0.17254 v 0.55047 l 0.09264,3.5e-4 q 0.158424,5.8e-4 0.241677,-0.0698 0.0839,-0.0704 0.0839,-0.20512 0,-0.13415 -0.08325,-0.20455 -0.08325,-0.0704 -0.242357,-0.071 z m -0.258463,-0.17679 0.272555,10e-4 q 0.228235,8.5e-4 0.339685,0.0309 0.112119,0.0294 0.191997,0.0998 0.07049,0.0613 0.104717,0.14118 0.03422,0.0799 0.03422,0.18081 0,0.10211 -0.03422,0.18236 -0.03422,0.0796 -0.104717,0.14039 -0.08056,0.0698 -0.19333,0.099 -0.112769,0.0286 -0.338339,0.0277 l -0.272557,-10e-4 z m -1.629931,-0.006 0.288662,10e-4 0.364521,0.62011 v -0.61875 l 0.245023,9.3e-4 v 0.90214 l -0.288661,-10e-4 -0.364517,-0.62011 v 0.61886 l -0.245022,-9e-4 z M 8.83809,356.9636 q -0.118159,-4.5e-4 -0.183264,0.0779 -0.0651,0.0783 -0.0651,0.22091 0,0.14199 0.0651,0.22079 0.06513,0.0788 0.183264,0.0792 0.118809,4.5e-4 0.183943,-0.0779 0.0651,-0.0783 0.0651,-0.2203 0,-0.1426 -0.0651,-0.2214 -0.0651,-0.0788 -0.183943,-0.0793 z m 0,-0.16858 q 0.241675,9e-4 0.378616,0.12589 0.13696,0.12498 0.13696,0.34432 0,0.21874 -0.13696,0.3427 -0.136957,0.12397 -0.378616,0.12307 -0.240995,-9e-4 -0.378618,-0.12589 -0.136958,-0.12498 -0.136958,-0.34372 0,-0.21934 0.136958,-0.3433 0.13761,-0.12397 0.378618,-0.12307 z m 0.01806,-0.22895 0.189984,7.1e-4 -0.191316,0.15881 -0.13157,-5e-4 z m -0.988773,0.24164 0.258463,9.6e-4 v 0.90214 l -0.258463,-9.6e-4 z m -0.21482,0.8518 q -0.07117,0.033 -0.148357,0.0496 -0.07721,0.0165 -0.161118,0.0162 -0.25041,-9.3e-4 -0.396745,-0.12716 -0.146344,-0.12683 -0.146344,-0.34255 0,-0.21633 0.146344,-0.34145 0.146344,-0.12575 0.396745,-0.12482 0.0839,3.2e-4 0.161118,0.0174 0.07718,0.0171 0.148357,0.0507 v 0.18671 q -0.07183,-0.0444 -0.141637,-0.0652 -0.06981,-0.0208 -0.147025,-0.0211 -0.138291,-5.1e-4 -0.217517,0.079 -0.07923,0.0795 -0.07923,0.21966 0,0.13958 0.07923,0.21964 0.07923,0.08 0.217517,0.0806 0.07721,2.9e-4 0.147025,-0.02 0.06981,-0.0203 0.141637,-0.0641 z m -1.249978,-0.11946 -0.404129,-0.002 -0.06377,0.1641 -0.259795,-9.8e-4 0.371233,-0.90076 0.308134,10e-4 0.371233,0.90353 -0.259795,-9.8e-4 z m -0.339682,-0.16865 0.274569,0.001 -0.136959,-0.35943 z m -0.781405,-0.57332 0.258463,9.5e-4 v 0.90215 l -0.258463,-9.6e-4 z m -0.214817,0.8518 q -0.07114,0.033 -0.148357,0.0496 -0.07721,0.0165 -0.161118,0.0162 -0.25041,-9.3e-4 -0.396745,-0.12716 -0.146343,-0.12683 -0.146343,-0.34255 0,-0.21633 0.146343,-0.34146 0.146344,-0.12574 0.396745,-0.12481 0.08391,3.2e-4 0.161118,0.0174 0.07721,0.0171 0.148357,0.0507 v 0.1867 q -0.07182,-0.0444 -0.141636,-0.0652 -0.06981,-0.0208 -0.147025,-0.0211 -0.138291,-5e-4 -0.217488,0.079 -0.07923,0.0795 -0.07923,0.21967 0,0.13958 0.07923,0.21964 0.07923,0.0801 0.217488,0.0806 0.07721,2.9e-4 0.147025,-0.02 0.06981,-0.0203 0.141636,-0.0641 z m -1.505078,-0.70593 q -0.118159,-4.5e-4 -0.183263,0.0779 -0.0651,0.0783 -0.0651,0.22092 0,0.14198 0.0651,0.22078 0.0651,0.0788 0.183263,0.0792 0.11881,4.5e-4 0.183944,-0.0779 0.0651,-0.0783 0.0651,-0.2203 0,-0.1426 -0.0651,-0.2214 -0.06511,-0.0788 -0.183944,-0.0793 z m 0,-0.16858 q 0.241676,9e-4 0.37862,0.12589 0.136959,0.12498 0.136959,0.34432 0,0.21873 -0.136959,0.3427 -0.136959,0.12397 -0.37862,0.12307 -0.240995,-9e-4 -0.378617,-0.12589 -0.1369591,-0.12498 -0.1369591,-0.34372 0,-0.21934 0.1369591,-0.3433 0.13761,-0.12397 0.378617,-0.12307 z m -0.7511952,0.0419 v 0.19094 q -0.08257,-0.0335 -0.161117,-0.0507 -0.07855,-0.0171 -0.1483569,-0.0173 -0.09264,-3.5e-4 -0.1369589,0.0224 -0.04429,0.0228 -0.04429,0.0711 0,0.0362 0.02961,0.0569 0.0302,0.0201 0.108744,0.0348 l 0.1101061,0.0204 q 0.1671569,0.0308 0.2376498,0.0927 0.07049,0.0619 0.07049,0.1755 0,0.14926 -0.09868,0.22199 -0.098,0.0722 -0.300074,0.0714 -0.09533,-3.4e-4 -0.1913162,-0.017 -0.09598,-0.0166 -0.1919968,-0.0491 v -0.19637 q 0.09601,0.0463 0.1852758,0.0702 0.08994,0.0233 0.1731971,0.0236 0.08458,3.2e-4 0.1295569,-0.0248 0.04497,-0.0251 0.04497,-0.0723 0,-0.0423 -0.03088,-0.0654 -0.0302,-0.023 -0.1215041,-0.0415 l -0.10004,-0.0204 q -0.1503698,-0.0295 -0.220182,-0.0933 -0.06916,-0.0637 -0.06916,-0.17126 0,-0.13474 0.09666,-0.20689 0.09667,-0.0722 0.2779152,-0.0715 0.08257,3.2e-4 0.1698508,0.0121 0.08728,0.0113 0.180598,0.0339 z m -1.152638,0.7051 -0.4041288,-0.002 -0.06377,0.1641 -0.2597949,-9.8e-4 0.3712329,-0.90076 0.3081311,10e-4 0.3712329,0.90353 -0.2597949,-9.8e-4 z m -0.3396818,-0.16865 0.2745689,10e-4 -0.1369531,-0.35943 z"
         style="font-style:normal;font-variant:normal;font-weight:bold;font-stretch:normal;font-size:0.46437484px;line-height:1.25;font-family:STIXVariants;-inkscape-font-specification:'STIXVariants Bold';letter-spacing:0px;word-spacing:0px;fill:#f2c052;fill-opacity:1;stroke:none;stroke-width:0.0326091"
         id="path12119" />
      <path
         id="path8008"
         style="fill:#104512;fill-opacity:1;stroke:#ffffd6;stroke-width:0.1147828;stroke-miterlimit:4;stroke-dasharray:none;stroke-opacity:0.29319374"
         d="m 7.400731,359.6217 -0.434369,-0.24921 -0.451515,0.21655 0.102639,-0.49011 -0.345472,-0.36252 0.497888,-0.0537 0.238104,-0.44058 0.205034,0.45692 0.492572,0.0902 -0.371242,0.33609 z m 27.998886,0 -0.434345,-0.24921 -0.451541,0.21655 0.102643,-0.4901 -0.345448,-0.36253 0.497864,-0.0537 0.238104,-0.44058 0.205033,0.45692 0.49257,0.0902 -0.37124,0.33609 z m -1.822966,0 -0.434369,-0.2492 -0.451517,0.21652 0.10264,-0.49011 -0.345445,-0.36252 0.497861,-0.0537 0.238107,-0.44058 0.205033,0.45692 0.49257,0.0902 -0.37124,0.33609 z m -1.801532,0 -0.434345,-0.24921 -0.451541,0.21655 0.102886,-0.49011 -0.345471,-0.36252 0.497887,-0.0537 0.238104,-0.44058 0.205034,0.45692 0.492572,0.0902 -0.371219,0.33609 z m -1.8444,0 -0.434369,-0.2492 -0.45154,0.21652 0.102886,-0.49011 -0.345472,-0.36252 0.497888,-0.0537 0.238103,-0.44058 0.205034,0.45692 0.492546,0.0902 -0.371216,0.33609 z m -1.822992,0 -0.434343,-0.24921 -0.45154,0.21655 0.102886,-0.49011 -0.345475,-0.36252 0.497891,-0.0537 0.238103,-0.44058 0.205034,0.45692 0.492569,0.0902 -0.371215,0.33608 z m -1.822966,0 -0.434343,-0.24921 -0.45154,0.21655 0.102883,-0.49011 -0.345472,-0.36252 0.497888,-0.0537 0.238106,-0.44058 0.205034,0.45692 0.49257,0.0902 -0.371216,0.33609 z m -1.887315,0 -0.434345,-0.24921 -0.451541,0.21655 0.102886,-0.49011 -0.345475,-0.36252 0.497891,-0.0537 0.238104,-0.44058 0.205033,0.45692 0.492596,0.0902 -0.371242,0.33609 z m -1.844403,0 -0.434369,-0.24921 -0.451514,0.21655 0.102637,-0.49011 -0.345469,-0.36252 0.497888,-0.0537 0.238104,-0.44058 0.205033,0.45692 0.492572,0.0902 -0.371242,0.33609 z m -1.715746,0 -0.434342,-0.24921 -0.451541,0.21655 0.10264,-0.49011 -0.345448,-0.36252 0.497864,-0.0537 0.238104,-0.44058 0.205033,0.45692 0.492572,0.0902 -0.371242,0.33609 z m -2.015996,0 -0.434344,-0.24921 -0.45154,0.21655 0.102884,-0.49011 -0.345471,-0.36252 0.497886,-0.0537 0.238106,-0.44058 0.205034,0.45692 0.49257,0.0902 -0.371217,0.33609 z m -1.930186,0 -0.43437,-0.24921 -0.45154,0.21655 0.102886,-0.49011 -0.345472,-0.36252 0.497887,-0.0537 0.238104,-0.44058 0.205035,0.45692 0.49257,0.0902 -0.37124,0.33609 z m -1.994563,0 -0.434344,-0.24921 -0.45154,0.21655 0.102884,-0.49011 -0.345471,-0.36252 0.497886,-0.0537 0.238105,-0.44058 0.205034,0.45692 0.492571,0.0902 -0.371217,0.33609 z m -1.780073,0 -0.434344,-0.24921 -0.45154,0.21655 0.102884,-0.49011 -0.345471,-0.36252 0.497863,-0.0537 0.238103,-0.44058 0.205035,0.45692 0.492571,0.0902 -0.371241,0.33608 z m -1.908753,0 -0.434369,-0.24921 -0.451515,0.21655 0.102639,-0.49011 -0.345447,-0.36252 0.497863,-0.0537 0.238104,-0.44058 0.205035,0.45692 0.492571,0.0902 -0.371241,0.33609 z m -9.5008918,0 -0.4343587,-0.24921 -0.4515332,0.21655 0.1027861,-0.49011 -0.3454691,-0.36252 0.4978832,-0.0537 0.2380308,-0.44058 0.2049362,0.45692 0.4925708,0.0902 -0.3712409,0.33609 z m 1.8015318,0 -0.4343686,-0.24921 -0.45154,0.21655 0.102884,-0.49011 -0.3454709,-0.36252 0.4978868,-0.0537 0.2381041,-0.44058 0.2050336,0.45692 0.492572,0.0902 -0.371241,0.33609 z m 1.930186,0 -0.434343,-0.24921 -0.451541,0.21655 0.102885,-0.49011 -0.345472,-0.36252 0.497887,-0.0537 0.238104,-0.44058 0.205034,0.45692 0.492572,0.0902 -0.371217,0.33609 z m 3.903315,0 -0.434369,-0.24921 -0.451515,0.21655 0.102639,-0.49011 -0.345471,-0.36252 0.497887,-0.0537 0.238104,-0.44058 0.205034,0.45692 0.492573,0.0902 -0.371243,0.33609 z"
         inkscape:connector-curvature="0" />
    </g>
  </g>
</svg>
