<?xml version="1.0" encoding="UTF-8" standalone="no"?>
<!-- Created with Inkscape (http://www.inkscape.org/) -->

<svg
   xmlns:dc="http://purl.org/dc/elements/1.1/"
   xmlns:cc="http://creativecommons.org/ns#"
   xmlns:rdf="http://www.w3.org/1999/02/22-rdf-syntax-ns#"
   xmlns:svg="http://www.w3.org/2000/svg"
   xmlns="http://www.w3.org/2000/svg"
   xmlns:sodipodi="http://sodipodi.sourceforge.net/DTD/sodipodi-0.dtd"
   xmlns:inkscape="http://www.inkscape.org/namespaces/inkscape"
   width="50mm"
   height="50mm"
   viewBox="0 0 50 50"
   version="1.1"
   id="svg10348"
   inkscape:version="0.92.4 (5da689c313, 2019-01-14)"
   sodipodi:docname="amt.svg">
  <defs
     id="defs10342" />
  <sodipodi:namedview
     id="base"
     pagecolor="#ffffff"
     bordercolor="#666666"
     borderopacity="1.0"
     inkscape:pageopacity="0.0"
     inkscape:pageshadow="2"
     inkscape:zoom="3.0898913"
     inkscape:cx="-21.822235"
     inkscape:cy="86.13977"
     inkscape:document-units="mm"
     inkscape:current-layer="layer1"
     showgrid="false"
     fit-margin-top="0"
     fit-margin-left="0"
     fit-margin-right="0"
     fit-margin-bottom="0"
     inkscape:window-width="1920"
     inkscape:window-height="971"
     inkscape:window-x="0"
     inkscape:window-y="31"
     inkscape:window-maximized="1" />
  <metadata
     id="metadata10345">
    <rdf:RDF>
      <cc:Work
         rdf:about="">
        <dc:format>image/svg+xml</dc:format>
        <dc:type
           rdf:resource="http://purl.org/dc/dcmitype/StillImage" />
        <dc:title></dc:title>
      </cc:Work>
    </rdf:RDF>
  </metadata>
  <g
     inkscape:label="Layer 1"
     inkscape:groupmode="layer"
     id="layer1"
     transform="translate(-73.27381,-113.01348)">
    <path
       style="fill:#df2003;fill-opacity:1;fill-rule:nonzero;stroke:none;stroke-width:0.00423512;stroke-miterlimit:4;stroke-dasharray:none;stroke-dashoffset:0;stroke-opacity:1"
       d="m 84.79274,123.33281 h 7.65407 v 7.6541 h -7.65407 z"
       id="rect853"
       inkscape:connector-curvature="0" />
    <path
       inkscape:connector-curvature="0"
       id="rect881"
       style="fill:#df2003;fill-opacity:1;fill-rule:nonzero;stroke:none;stroke-width:0.00423512;stroke-miterlimit:4;stroke-dasharray:none;stroke-dashoffset:0;stroke-opacity:1"
       d="m 94.85483,132.81718 h 7.93815 v 7.65409 h -7.93815 z m 20.48086,9.45517 h 7.93812 v 7.65409 h -7.93812 z m 0,-18.95101 h 7.93812 v 7.65409 h -7.93812 z m -20.45638,-9.31539 h 7.93812 v 7.65409 h -7.93812 z m -10.08657,9.32686 h 7.93809 v 7.6541 h -7.93809 z" />
    <path
       inkscape:connector-curvature="0"
       id="rect909"
       style="fill:none;fill-opacity:1;fill-rule:nonzero;stroke:#000000;stroke-width:0.06818882;stroke-miterlimit:4;stroke-dasharray:none;stroke-dashoffset:0;stroke-opacity:1"
       d="m 115.4504,151.85821 h 7.71886 v 7.43463 h -7.71886 z m 0,-18.92887 h 7.71886 v 7.43463 h -7.71886 z m -10.0899,-18.81849 h 7.71884 v 7.43463 h -7.71884 z m 0,9.33159 h 7.71884 v 7.43463 h -7.71884 z m -20.47452,9.5018 h 7.71884 v 7.43463 h -7.71884 z m 10.11213,-9.50179 h 7.71884 v 7.43462 h -7.71884 z" />
    <path
       inkscape:connector-curvature="0"
       id="path3699"
       style="font-style:normal;font-variant:normal;font-weight:bold;font-stretch:normal;font-size:269.64825439px;line-height:1.25;font-family:IPAexGothic;-inkscape-font-specification:'IPAexGothic Bold';letter-spacing:0px;word-spacing:0px;fill:#336601;fill-opacity:1;stroke:none;stroke-width:0.08146305"
       d="m 83.72162,140.43679 h -1.7718 q -0.41153,-0.83778 -0.51442,-1.71908 h -0.0801 q -1.326,2.02372 -3.95517,2.02372 -1.80611,0 -2.94922,-1.08802 -1.00593,-0.95746 -1.00593,-2.33926 0,-3.43816 6.22994,-3.61225 l 1.56607,-0.0435 v -0.57665 q 0,-1.16419 -0.6973,-1.82789 -0.73158,-0.69633 -1.87469,-0.69633 -1.96615,0 -2.94922,1.817 l -1.73753,-0.76162 q 1.62322,-2.54598 4.73248,-2.54598 2.14903,0 3.30357,1.14243 1.07453,1.02274 1.07453,2.89415 v 4.0801 q 0,2.07813 0.62869,3.2532 z m -2.4348,-5.44014 -1.2803,0.0219 q -4.52671,0.0979 -4.52671,2.3175 0,0.78338 0.53727,1.29475 0.66299,0.62018 1.73753,0.62018 1.49746,0 2.59487,-1.0445 0.93734,-0.92483 0.93734,-2.23046 z m 33.10238,23.21767 q -2.12394,1.24304 -4.32707,1.24304 -4.40631,0 -4.36092,-4.21689 l 0.10994,-10.21177 h -2.57344 l 0.0216,-1.96684 h 2.57341 l 0.0388,-3.60323 3.12453,-1.32171 -0.053,4.92494 h 5.23938 l -0.0216,1.96684 h -5.23938 l -0.10562,9.83414 q -0.0277,2.47034 1.95441,2.47034 1.33299,0 2.54566,-0.86541 z m -14.69602,0.89687 h -3.25843 l 0.10809,-10.05443 q 0.0437,-4.07527 -3.65894,-4.07527 -1.75877,0 -3.23628,1.38465 -1.04743,0.99128 -1.47063,2.47034 l -0.11056,10.27471 h -3.25842 l 0.1084,-10.0859 q 0.0434,-4.0438 -3.4556,-4.0438 -1.85141,0 -3.27333,1.38465 -1.5337,1.44759 -1.54808,2.78503 l -0.10717,9.96002 h -3.25842 l 0.17245,-16.04933 h 3.03627 l -0.0308,2.7693 q 1.90323,-3.09972 5.68005,-3.09972 4.12857,0 5.46239,3.36721 2.09126,-3.36721 5.94214,-3.36721 3.11033,0 4.83049,1.87242 1.46451,1.54199 1.43387,4.38996 z m -26.41669,1.04924 h 41.26289 v 1.86058 H 73.27649 Z" />
    <path
       inkscape:connector-curvature="0"
       id="path10362"
       d="m 84.79274,123.33281 h 7.65407 v 7.6541 h -7.65407 z"
       style="fill:#df2003;fill-opacity:1;fill-rule:nonzero;stroke:none;stroke-width:0.00423512;stroke-miterlimit:4;stroke-dasharray:none;stroke-dashoffset:0;stroke-opacity:1" />
    <path
       d="m 94.85483,132.81718 h 7.93815 v 7.65409 h -7.93815 z m 20.48086,9.45517 h 7.93812 v 7.65409 h -7.93812 z m 0,-18.95101 h 7.93812 v 7.65409 h -7.93812 z m -20.45638,-9.31539 h 7.93812 v 7.65409 h -7.93812 z m -10.08657,9.32686 h 7.93809 v 7.6541 h -7.93809 z"
       style="fill:#df2003;fill-opacity:1;fill-rule:nonzero;stroke:none;stroke-width:0.00423512;stroke-miterlimit:4;stroke-dasharray:none;stroke-dashoffset:0;stroke-opacity:1"
       id="path10364"
       inkscape:connector-curvature="0" />
    <path
       d="m 115.4504,151.85821 h 7.71886 v 7.43463 h -7.71886 z m 0,-18.92887 h 7.71886 v 7.43463 h -7.71886 z m -10.0899,-18.81849 h 7.71884 v 7.43463 h -7.71884 z m 0,9.33159 h 7.71884 v 7.43463 h -7.71884 z m -20.47452,9.5018 h 7.71884 v 7.43463 h -7.71884 z m 10.11213,-9.50179 h 7.71884 v 7.43462 h -7.71884 z"
       style="fill:none;fill-opacity:1;fill-rule:nonzero;stroke:#000000;stroke-width:0.2;stroke-miterlimit:4;stroke-dasharray:none;stroke-dashoffset:0;stroke-opacity:1"
       id="path10366"
       inkscape:connector-curvature="0" />
    <path
       d="m 83.72162,140.43679 h -1.7718 q -0.41153,-0.83778 -0.51442,-1.71908 h -0.0801 q -1.326,2.02372 -3.95517,2.02372 -1.80611,0 -2.94922,-1.08802 -1.00593,-0.95746 -1.00593,-2.33926 0,-3.43816 6.22994,-3.61225 l 1.56607,-0.0435 v -0.57665 q 0,-1.16419 -0.6973,-1.82789 -0.73158,-0.69633 -1.87469,-0.69633 -1.96615,0 -2.94922,1.817 l -1.73753,-0.76162 q 1.62322,-2.54598 4.73248,-2.54598 2.14903,0 3.30357,1.14243 1.07453,1.02274 1.07453,2.89415 v 4.0801 q 0,2.07813 0.62869,3.2532 z m -2.4348,-5.44014 -1.2803,0.0219 q -4.52671,0.0979 -4.52671,2.3175 0,0.78338 0.53727,1.29475 0.66299,0.62018 1.73753,0.62018 1.49746,0 2.59487,-1.0445 0.93734,-0.92483 0.93734,-2.23046 z m 33.10238,23.21767 q -2.12394,1.24304 -4.32707,1.24304 -4.40631,0 -4.36092,-4.21689 l 0.10994,-10.21177 h -2.57344 l 0.0216,-1.96684 h 2.57341 l 0.0388,-3.60323 3.12453,-1.32171 -0.053,4.92494 h 5.23938 l -0.0216,1.96684 h -5.23938 l -0.10562,9.83414 q -0.0277,2.47034 1.95441,2.47034 1.33299,0 2.54566,-0.86541 z m -14.69602,0.89687 h -3.25843 l 0.10809,-10.05443 q 0.0437,-4.07527 -3.65894,-4.07527 -1.75877,0 -3.23628,1.38465 -1.04743,0.99128 -1.47063,2.47034 l -0.11056,10.27471 h -3.25842 l 0.1084,-10.0859 q 0.0434,-4.0438 -3.4556,-4.0438 -1.85141,0 -3.27333,1.38465 -1.5337,1.44759 -1.54808,2.78503 l -0.10717,9.96002 h -3.25842 l 0.17245,-16.04933 h 3.03627 l -0.0308,2.7693 q 1.90323,-3.09972 5.68005,-3.09972 4.12857,0 5.46239,3.36721 2.09126,-3.36721 5.94214,-3.36721 3.11033,0 4.83049,1.87242 1.46451,1.54199 1.43387,4.38996 z m -26.41669,1.04924 h 41.26289 v 1.86058 H 73.27649 Z"
       style="font-style:normal;font-variant:normal;font-weight:bold;font-stretch:normal;font-size:269.64825439px;line-height:1.25;font-family:IPAexGothic;-inkscape-font-specification:'IPAexGothic Bold';letter-spacing:0px;word-spacing:0px;fill:#336601;fill-opacity:1;stroke:none;stroke-width:0.08146305"
       id="path10368"
       inkscape:connector-curvature="0" />
  </g>
</svg>
