<?xml version="1.0" encoding="UTF-8" standalone="no"?>
<svg
   xmlns:dc="http://purl.org/dc/elements/1.1/"
   xmlns:cc="http://creativecommons.org/ns#"
   xmlns:rdf="http://www.w3.org/1999/02/22-rdf-syntax-ns#"
   xmlns:svg="http://www.w3.org/2000/svg"
   xmlns="http://www.w3.org/2000/svg"
   xmlns:xlink="http://www.w3.org/1999/xlink"
   id="svg4745"
   version="1.1"
   viewBox="0 0 162.4151 181.36224"
   height="181.36224mm"
   width="162.4151mm">
  <defs
     id="defs4739">
    <linearGradient
       gradientTransform="matrix(0.00393599,0,0,-0.00393599,63.127497,88.053773)"
       y2="638.56366"
       x2="8381.0908"
       y1="12455.906"
       x1="3"
       gradientUnits="userSpaceOnUse"
       id="linearGradient6613"
       xlink:href="#linearGradient5277" />
    <linearGradient
       id="linearGradient5277">
      <stop
         id="stop5273"
         offset="0"
         style="stop-color:#d40000;stop-opacity:1" />
      <stop
         style="stop-color:#ffff00;stop-opacity:1"
         offset="0.5"
         id="stop5281" />
      <stop
         id="stop5275"
         offset="1"
         style="stop-color:#008000;stop-opacity:1" />
    </linearGradient>
  </defs>
  <metadata
     id="metadata4742">
    <rdf:RDF>
      <cc:Work
         rdf:about="">
        <dc:format>image/svg+xml</dc:format>
        <dc:type
           rdf:resource="http://purl.org/dc/dcmitype/StillImage" />
        <dc:title></dc:title>
      </cc:Work>
    </rdf:RDF>
  </metadata>
  <g
     id="layer1" />
  <path
     id="amdes"
     d="M 83.167368,-0.03316711 V 30.488441 a 32.673531,32.673531 0 0 1 15.24296,4.537734 L 115.51708,9.7892669 C 106.11646,3.813401 95.070398,0.2544799 83.167368,-0.03316711 Z m -3.366238,0.03471 C 68.004298,0.34584291 57.050805,3.873327 47.727012,9.8098959 L 64.804311,35.194434 A 32.673531,32.673531 0 0 1 79.80113,30.487801 Z M 118.30394,11.651764 101.20667,36.888678 a 32.673531,32.673531 0 0 1 9.99232,12.112741 L 139.43126,37.434987 C 134.80042,27.045305 127.46437,18.182637 118.30394,11.651764 Z m -73.370346,0.03439 c -8.958093,6.39912 -16.126161,15.052747 -20.76201,25.162619 l 28.22933,11.983443 a 32.673531,32.673531 0 0 1 9.621128,-11.747117 z m -22.107,28.246039 c -2.846643,7.206001 -4.524969,15.001809 -4.524969,23.22422 0,2.931909 0.477267,5.73428 0.862175,8.55994 l 30.152377,-5.04118 a 32.673531,32.673531 0 0 1 -0.235998,-3.53709 32.673531,32.673531 0 0 1 2.009785,-11.210989 z m 117.825596,0.63436 -28.16124,11.543186 a 32.673531,32.673531 0 0 1 1.93645,10.945855 32.673531,32.673531 0 0 1 -0.37249,4.68013 l 29.87383,5.912178 c 0.57387,-3.429469 1.0553,-6.898119 1.0553,-10.491489 0,-7.989321 -1.63677,-15.552626 -4.33185,-22.58986 z M 49.857919,69.993292 19.495064,75.068833 c 2.050547,10.77086 6.970609,20.40626 13.726458,28.494147 L 56.079419,83.285723 a 32.673531,32.673531 0 0 1 -6.2215,-13.292431 z m 63.548231,1.037632 a 32.673531,32.673531 0 0 1 -6.79137,13.245618 l 22.18031,20.817668 c 7.02534,-7.896037 12.2018,-17.439968 14.58178,-28.128518 z M 58.289528,85.822503 35.359617,106.16326 c 7.273066,7.82536 16.496192,13.64177 26.907594,17.00268 L 70.78295,93.824992 A 32.673531,32.673531 0 0 1 58.289528,85.822503 Z m 46.009402,0.897861 a 32.673531,32.673531 0 0 1 -12.582782,7.447989 l 8.005446,29.397907 c 10.286626,-3.07747 19.572706,-8.4314 26.928536,-15.86456 z m -30.294432,8.071228 -8.529823,29.367788 c 5.19017,1.3734 10.544143,2.3381 16.168333,2.3381 5.14613,0 10.075042,-0.77498 14.864241,-1.93123 L 88.466128,95.029553 a 32.673531,32.673531 0 0 1 -6.670918,0.735179 32.673531,32.673531 0 0 1 -7.790712,-0.97314 z"
     style="fill:#0d47a1;"
     />
  <path
     id="orbe"
     d="m 81.364108,34.319862 a 29.047522,29.047522 0 0 0 -5.672249,0.640906 c -0.330091,0.978251 -0.57886,1.937144 -0.867079,2.906008 2.17977,-0.323485 4.36,-0.534209 6.54063,-0.544343 z m 0.504082,0.0039 0.0011,2.987514 c 2.19815,0.01389 4.396938,0.238323 6.595319,0.565293 C 88.17443,36.90068 87.92311,35.935141 87.589989,34.94961 l 0.0222,-0.0075 a 29.047522,29.047522 0 0 0 -5.744261,-0.618321 z m 6.292868,0.757762 c 0.314942,0.96829 0.571561,1.923341 0.854321,2.884405 2.049391,0.328967 4.098139,0.776608 6.1472,1.373137 -0.321591,-0.674248 -0.58464,-1.360662 -0.948921,-2.025173 l 0.0985,-0.05401 a 29.047522,29.047522 0 0 0 -6.151129,-2.17837 z m -13.039079,0.0082 a 29.047522,29.047522 0 0 0 -6.162588,2.162648 l 0.112607,0.06154 c -0.365401,0.666572 -0.630058,1.355021 -0.952524,2.031388 2.051066,-0.611976 4.10237,-1.060841 6.154724,-1.390483 0.28104,-0.954675 0.535411,-1.903362 0.847781,-2.865093 z m -6.716411,2.414693 a 29.047522,29.047522 0 0 0 -5.419556,3.626782 c 1.499005,-0.617252 2.998999,-1.14735 4.498777,-1.616343 0.310729,-0.669628 0.588293,-1.345903 0.920779,-2.010439 z m 26.4922,0.03797 c 0.322731,0.649919 0.594381,1.31055 0.898191,1.964941 1.472859,0.44845 2.946271,0.94847 4.418901,1.526 a 29.047522,29.047522 0 0 0 -5.317092,-3.490949 z m -13.02893,0.26644 0.003,5.013997 c 2.71228,0.01331 5.398931,0.269354 8.051249,0.648436 -0.371789,-1.670534 -0.804899,-3.356787 -1.300148,-5.063757 -2.25179,-0.34689 -4.503151,-0.584317 -6.753752,-0.598684 z m -0.503428,0.01114 c -2.233121,0.01056 -4.466421,0.234106 -6.699062,0.577731 -0.496859,1.711693 -0.93268,3.402118 -1.305386,5.077172 2.647747,-0.375899 5.319877,-0.61535 8.007078,-0.624869 z m -7.249631,0.664147 c -2.09151,0.347768 -4.183216,0.808762 -6.274859,1.45366 -0.778073,1.703025 -1.438772,3.424833 -1.96461,5.168818 2.26473,-0.66131 4.577075,-1.178946 6.949149,-1.539089 0.3688,-1.677027 0.798039,-3.369538 1.29032,-5.083389 z m 15.057051,0.01244 c 0.490889,1.710058 0.91875,3.398875 1.286719,5.072258 2.38134,0.363612 4.69338,0.882296 6.947829,1.536473 -0.526569,-1.746163 -1.18876,-3.469635 -1.968209,-5.174713 -2.089489,-0.627549 -4.178451,-1.087493 -6.266339,-1.434018 z m 6.899389,1.603245 c 0.76183,1.71223 1.412639,3.440846 1.925021,5.191081 1.775494,0.53871 3.49357,1.147754 5.14655,1.865762 -0.63771,-1.776952 -1.38767,-3.5565 -2.35544,-5.332156 l 0.005,-0.0026 c -1.574492,-0.650629 -3.147691,-1.228368 -4.72102,-1.72207 z m -28.865986,0.0088 c -1.582243,0.510746 -3.164277,1.110565 -4.746893,1.793751 -0.952936,1.757738 -1.69582,3.519 -2.325663,5.277821 1.664636,-0.730488 3.382277,-1.349568 5.153771,-1.890639 0.511389,-1.746649 1.158975,-3.472113 1.918785,-5.180933 z m -5.513822,2.162323 A 29.047522,29.047522 0 0 0 56.491849,48.879 c 0.97672,-0.513168 2.013775,-0.942364 3.026785,-1.405869 0.594493,-1.733825 1.284417,-3.469275 2.173777,-5.202209 z m 39.921779,0.04353 c 0.87521,1.710671 1.55716,3.423597 2.1453,5.135104 1.00678,0.456089 2.03454,0.888384 3.00028,1.390486 a 29.047522,29.047522 0 0 0 -5.14558,-6.52559 z m -19.742712,1.025517 0.004,7.897746 c 3.236859,0.02297 6.428991,0.274241 9.51376,0.681821 -0.29265,-2.565713 -0.765659,-5.215258 -1.344991,-7.904295 -2.690849,-0.392578 -5.416939,-0.661638 -8.17236,-0.675272 z m -0.503769,0.02717 c -2.729029,0.0097 -5.44072,0.260183 -8.126539,0.649414 -0.573514,2.662216 -1.046126,5.287187 -1.338453,7.82868 3.077651,-0.381903 6.252831,-0.600202 9.468921,-0.597371 z m -8.662384,0.742376 c -2.400591,0.371776 -4.737251,0.90593 -7.021806,1.588518 -0.715198,2.50576 -1.169641,5.02816 -1.426504,7.548817 2.216981,-0.590185 4.652568,-0.983367 7.133439,-1.311275 0.287602,-2.541913 0.748078,-5.163593 1.314871,-7.82606 z m 17.875655,0.0024 c 0.572608,2.690124 1.031038,5.337416 1.318818,7.904289 2.397842,0.335852 4.76445,0.723059 6.9079,1.290328 0.081,0.02141 0.150911,0.04991 0.231421,0.07168 -0.253781,-2.56358 -0.7102,-5.130247 -1.43763,-7.679092 -2.274231,-0.675119 -4.60969,-1.211747 -7.020509,-1.587209 z m -25.486667,1.767893 c -1.780323,0.55631 -3.496427,1.202946 -5.162267,1.953485 -0.859071,2.551533 -1.457442,5.093702 -1.718466,7.592359 1.657646,-0.788276 3.516172,-1.458101 5.522658,-2.018959 0.244263,-2.510494 0.665472,-5.026835 1.358075,-7.526885 z m 33.096036,0.0039 c 0.704331,2.543188 1.128599,5.103191 1.369549,7.656502 2.020672,0.571873 3.883652,1.245523 5.535082,2.030092 -0.256,-2.552533 -0.86906,-5.152318 -1.74924,-7.760602 -1.65372,-0.737494 -3.370626,-1.372137 -5.155391,-1.925992 z m 5.768811,2.219277 c 0.83412,2.584789 1.4156,5.15842 1.64907,7.687607 1.16909,0.58566 2.18186,1.2446 3.09553,1.94497 -0.24799,-2.64038 -0.78556,-5.371073 -1.70963,-8.186446 -0.95514,-0.544782 -2.01539,-0.971788 -3.03497,-1.446131 z m -44.64085,0.02358 c -1.015841,0.47734 -2.073508,0.894175 -3.033672,1.44613 -0.900256,2.748489 -1.424964,5.413608 -1.67984,7.995619 0.916593,-0.693341 1.930776,-1.338951 3.076877,-1.914861 0.238469,-2.476762 0.822227,-4.997315 1.636635,-7.526888 z m -4.101732,3.2425 a 29.047522,29.047522 0 0 0 -2.253652,7.615918 c 0.33129,-0.31251 0.707723,-0.60502 1.065445,-0.905711 0.179642,-2.176169 0.564716,-4.416224 1.188207,-6.710207 z m 52.867222,0.05107 c 0.63216,2.332675 1.01983,4.610209 1.19213,6.820178 0.36323,0.311129 0.76121,0.60829 1.08279,0.935501 a 29.047522,29.047522 0 0 0 -2.27492,-7.755679 z m -26.208742,0.321437 0.005,9.39591 c 3.418311,0.044 6.775839,0.321 10.018501,0.728631 0.0388,-3.000471 -0.115861,-6.161461 -0.466442,-9.427007 -3.095919,-0.414292 -6.30119,-0.674285 -9.55697,-0.697534 z m -0.5021,0.0098 c -3.236539,-0.0024 -6.426128,0.230817 -9.515075,0.62585 -0.348922,3.226189 -0.499221,6.345899 -0.467429,9.314411 3.233666,-0.358011 6.574285,-0.567061 9.986084,-0.541721 z M 71.34561,52.468823 c -2.491735,0.339043 -4.930693,0.745512 -7.141943,1.345973 -0.272407,3.048458 -0.247901,6.063128 0.03832,9.004107 0.125491,-0.0292 0.234743,-0.0694 0.361375,-0.0979 1.947649,-0.4377 4.118444,-0.697179 6.282047,-0.952521 -0.03452,-2.96363 0.118071,-6.081009 0.460222,-9.299691 z m 20.598699,0.06547 c 0.34373,3.259243 0.500639,6.419281 0.458909,9.415891 2.279782,0.30185 4.547711,0.627161 6.586461,1.102432 0.01,0.003 0.0186,0.005 0.0285,0.008 0.304619,-2.982838 0.341179,-6.043859 0.0717,-9.14028 -0.14246,-0.03915 -0.266801,-0.08922 -0.4108,-0.127331 -2.085671,-0.551976 -4.397489,-0.9267 -6.734741,-1.258242 z m -28.260106,1.440238 c -2.009709,0.572664 -3.87993,1.240605 -5.515139,2.034995 -0.25889,2.960479 -0.143487,5.85864 0.294261,8.64634 1.586138,-0.66717 3.359804,-1.233691 5.286335,-1.704721 -0.290454,-2.931509 -0.323701,-5.93553 -0.06546,-8.976614 z m 35.926425,0.108667 c 0.254976,3.088606 0.208686,6.138897 -0.10016,9.111808 1.927132,0.469649 3.682792,1.024369 5.272902,1.647759 0.45585,-2.807171 0.58781,-5.72594 0.33747,-8.710819 -1.62326,-0.79181 -3.49162,-1.466826 -5.510212,-2.048748 z m -41.950237,2.178695 c -1.204306,0.61972 -2.232498,1.321332 -3.153462,2.06838 -0.219732,2.862681 -0.0653,5.604671 0.388545,8.206081 0.905913,-0.62612 1.945969,-1.189601 3.096499,-1.69981 -0.441839,-2.765211 -0.56279,-5.6393 -0.331582,-8.574651 z m 47.967809,0.123732 c 0.22245,2.957079 0.0863,5.849178 -0.3725,8.6316 1.15147,0.473549 2.21804,0.979879 3.12892,1.539089 0.4489,-2.563479 0.60007,-5.265819 0.39574,-8.083661 -0.90753,-0.749138 -1.93264,-1.456928 -3.15216,-2.087028 z m -51.6283,2.392749 c -0.318085,0.285541 -0.693288,0.548079 -0.966272,0.851051 l -0.147288,-0.13257 a 29.047522,29.047522 0 0 0 -0.290986,3.9037 29.047522,29.047522 0 0 0 0.402936,4.720389 c 0.422146,-0.436859 0.947793,-0.83012 1.470351,-1.224529 -0.472684,-2.575801 -0.64456,-5.28915 -0.468741,-8.118041 z m 55.28847,0.139761 c 0.16063,2.767139 -0.003,5.42581 -0.46382,7.94979 0.52673,0.350329 1.03237,0.707689 1.46446,1.087059 a 29.047522,29.047522 0 0 0 0.4013,-4.628081 29.047522,29.047522 0 0 0 -0.30769,-3.95509 l -0.2851,0.257612 c -0.22626,-0.25109 -0.54792,-0.471271 -0.80915,-0.71129 z m -27.408401,2.722708 0.005,10.186762 c 3.087569,-0.0011 6.1384,0.0912 9.048629,0.269709 0.4782,-3.041801 0.877141,-6.20708 0.946311,-9.72521 -3.2342,-0.40843 -6.58581,-0.6871 -9.99985,-0.731261 z m -0.503431,0.01241 c -3.41312,-0.02551 -6.751619,0.18597 -9.979864,0.545661 0.06233,3.59329 0.469123,6.822739 0.957435,9.921938 2.899431,-0.18574 5.952889,-0.289618 9.02734,-0.300818 z m -10.480016,0.62127 c -2.130242,0.252878 -4.270399,0.5076 -6.183201,0.937469 -0.147733,0.0332 -0.274516,0.0796 -0.420622,0.113921 0.35256,3.28185 0.995847,6.442128 1.886725,9.40344 1.786457,-0.22285 3.652939,-0.42236 5.674861,-0.560382 -0.486347,-3.094678 -0.892419,-6.31421 -0.957763,-9.894448 z m 21.484447,0.181668 c -0.0724,3.501472 -0.471871,6.653921 -0.94761,9.688221 2.012571,0.132131 3.907041,0.314129 5.685649,0.535509 0.86178,-2.874838 1.491771,-5.934649 1.848422,-9.11279 -0.0321,-0.008 -0.0595,-0.01701 -0.0916,-0.02461 -2.006859,-0.467831 -4.24598,-0.78735 -6.49483,-1.0864 z m -28.580572,1.002271 c -1.914186,0.472289 -3.674549,1.036719 -5.231995,1.69981 0.511572,2.983881 1.380273,5.820661 2.507975,8.478099 1.150683,-0.259588 2.153197,-0.551198 3.554132,-0.753509 0.312102,-0.0451 0.717925,-0.0606 1.040569,-0.10278 -0.878295,-2.939069 -1.515944,-6.069791 -1.870681,-9.32162 z m 35.659331,0.24353 c -0.358289,3.146351 -0.981978,6.17542 -1.830738,9.026369 0.23559,0.0309 0.53431,0.0392 0.764318,0.0717 1.502736,0.21222 2.607042,0.52329 3.829052,0.806519 1.09764,-2.592589 1.94222,-5.35776 2.45562,-8.261731 -1.56366,-0.61962 -3.30459,-1.17297 -5.218252,-1.642859 z m -41.362676,1.636969 c -1.167292,0.524161 -2.181633,1.113182 -3.074263,1.749232 0.516837,2.67924 1.359377,5.19135 2.453325,7.52788 0.364181,-0.15154 0.67322,-0.313272 1.10865,-0.452702 0.525216,-0.16818 1.366874,-0.27082 1.98787,-0.420619 -1.110279,-2.63603 -1.961597,-5.44943 -2.475582,-8.403791 z m 47.053578,0.18166 c -0.5152,2.876561 -1.34502,5.619631 -2.42615,8.192342 0.55312,0.137289 1.31757,0.225139 1.79506,0.378719 0.50291,0.161761 0.87482,0.350631 1.28673,0.530611 1.0972,-2.34221 1.94118,-4.86116 2.45822,-7.54784 -0.89375,-0.559742 -1.95587,-1.072372 -3.11386,-1.553832 z m 3.55019,1.885411 c -0.52657,2.62999 -1.35552,5.10404 -2.43106,7.406751 0.65065,0.324599 1.19422,0.675989 1.53419,1.085419 a 29.047522,29.047522 0 0 0 2.39669,-7.353401 l -0.006,0.006 c -0.41134,-0.400881 -0.9521,-0.77347 -1.49424,-1.144339 z m -54.105838,0.0409 c -0.456486,0.357211 -0.943107,0.703432 -1.30406,1.093602 l -0.272015,-0.25205 a 29.047522,29.047522 0 0 0 2.431065,7.56125 c 0.34475,-0.394272 0.90296,-0.729811 1.562315,-1.043192 -1.068409,-2.28875 -1.890779,-4.747499 -2.417305,-7.35961 z m 26.786467,4.876842 c -3.050069,0.01111 -6.08199,0.110908 -8.957943,0.294259 0.13987,0.847619 0.198898,1.8155 0.363657,2.619269 0.350367,1.709211 0.817925,3.135802 1.259237,4.629061 2.355699,-0.116579 4.84029,-0.171958 7.338988,-0.165619 z m 0.50343,0.006 0.003,7.381881 c 2.495968,0.01461 4.966269,0.0897 7.331139,0.22389 0.449069,-1.5122 0.923581,-2.963569 1.279191,-4.69845 0.166249,-0.811011 0.22668,-1.78721 0.367589,-2.642841 -2.88698,-0.17613 -5.916629,-0.265869 -8.980549,-0.26448 z m 9.479069,0.312931 c -0.14337,0.873101 -0.203888,1.86717 -0.37347,2.694551 -0.350938,1.711949 -0.821198,3.142258 -1.263158,4.641498 1.544878,0.0944 3.00064,0.219472 4.388149,0.364972 1.001231,-2.009942 1.923211,-4.176491 2.684399,-6.519701 0.0684,-0.210511 0.11594,-0.43896 0.182002,-0.651709 -1.75872,-0.21722 -3.626041,-0.399481 -5.617922,-0.529611 z m -19.440599,0.02461 c -2.001129,0.135999 -3.839671,0.33441 -5.606452,0.55318 0.06131,0.19684 0.104894,0.408679 0.16824,0.603589 0.751449,2.31325 1.661483,4.451771 2.647411,6.440821 1.398349,-0.141711 2.836918,-0.271611 4.40551,-0.35646 -0.43408,-1.479769 -0.897942,-2.885241 -1.243528,-4.571129 -0.168047,-0.819822 -0.228846,-1.805271 -0.371181,-2.670001 z m 25.566859,0.55318 c -0.0765,0.248198 -0.131818,0.514549 -0.21146,0.75973 -0.74667,2.29855 -1.651169,4.422979 -2.62908,6.40841 0.227901,0.02529 0.511802,0.0338 0.733872,0.0606 1.075309,0.12963 1.85152,0.31963 2.767219,0.482478 1.038201,-1.468128 2.028871,-3.008878 2.888981,-4.688959 0.3561,-0.695579 0.65312,-1.44027 0.97215,-2.167228 -1.183,-0.270881 -2.231886,-0.571302 -3.688972,-0.777071 -0.249909,-0.0353 -0.57603,-0.0445 -0.83271,-0.0779 z m -31.681989,0.0507 c -0.343209,0.0447 -0.775009,0.0609 -1.106035,0.10867 -1.355111,0.195688 -2.304513,0.474779 -3.416969,0.722738 0.315505,0.717442 0.608438,1.453232 0.960043,2.140061 0.844495,1.64959 1.815351,3.164171 2.83205,4.609762 0.854377,-0.156681 1.556062,-0.345041 2.563289,-0.467752 0.287184,-0.035 0.658233,-0.0443 0.956124,-0.0766 -0.96244,-1.963801 -1.853673,-4.059779 -2.590458,-6.327888 -0.07436,-0.228852 -0.12641,-0.477512 -0.198044,-0.708991 z m 36.706121,0.909309 c -0.33529,0.769872 -0.65056,1.556319 -1.02683,2.291289 -0.83186,1.624912 -1.783696,3.123131 -2.77997,4.556401 0.581238,0.112141 1.33496,0.192201 1.82974,0.31914 0.32338,0.083 0.55479,0.17979 0.83764,0.268409 0.47091,-0.568568 0.95326,-1.123407 1.39047,-1.730899 1.06737,-1.483018 1.988,-3.110521 2.81567,-4.80745 -0.38818,-0.17195 -0.73117,-0.351419 -1.21601,-0.50737 -0.48581,-0.15625 -1.27892,-0.249251 -1.85071,-0.38952 z m -41.731249,0.0285 c -0.64127,0.152869 -1.512141,0.26239 -2.045136,0.433049 -0.415843,0.133152 -0.69527,0.28475 -1.036635,0.42912 0.828323,1.69917 1.749652,3.328921 2.818283,4.813681 0.426789,0.592989 0.899446,1.132739 1.3584,1.688679 0.267401,-0.0929 0.482473,-0.195559 0.791803,-0.281829 0.492651,-0.13739 1.262298,-0.21908 1.853001,-0.337801 -0.976251,-1.411579 -1.90814,-2.885861 -2.725319,-4.482089 -0.371618,-0.725901 -0.682734,-1.502881 -1.014397,-2.26281 z m -3.545599,1.055299 c -0.700749,0.338711 -1.262266,0.68725 -1.50309,1.034021 l -0.120788,-0.0841 a 29.047522,29.047522 0 0 0 4.336111,6.407751 c 0.300525,-0.34194 0.814814,-0.617271 1.425832,-0.86904 -0.425193,-0.52111 -0.866463,-1.022242 -1.26414,-1.574782 -1.090332,-1.514938 -2.030468,-3.177907 -2.873925,-4.913828 z m 48.807058,0.005 c -0.84285,1.733881 -1.78079,3.39557 -2.87,4.908921 -0.40432,0.561761 -0.85398,1.071689 -1.28672,1.600949 0.62788,0.22743 1.17093,0.47149 1.53517,0.75973 a 29.047522,29.047522 0 0 0 4.2523,-6.373379 l -0.1905,0.136819 c -0.25354,-0.352589 -0.78029,-0.699329 -1.44025,-1.03304 z m -24.659492,4.933792 c -2.449489,-0.006 -4.892059,0.0459 -7.203819,0.158099 0.75914,2.481911 1.583489,4.65678 2.47821,6.42085 1.57517,-0.0613 3.148549,-0.141571 4.729551,-0.144679 z m 0.503761,0.01119 0.003,6.423138 c 1.574189,0.003 3.155828,0.0828 4.735769,0.14337 0.88669,-1.74848 1.704081,-3.89745 2.458209,-6.35145 -2.320829,-0.129669 -4.749289,-0.20071 -7.19628,-0.21505 z m -8.215921,0.186578 c -1.540129,0.0818 -2.936401,0.21272 -4.311536,0.34893 1.203238,2.35516 2.532189,4.442532 3.930539,6.167171 0.940088,-0.0614 1.884627,-0.0782 2.826797,-0.118819 -0.8881,-1.782303 -1.699249,-3.937651 -2.4458,-6.397282 z m 15.920532,0.0707 c -0.74159,2.43156 -1.547122,4.56053 -2.427121,6.326582 0.943719,0.0401 1.88495,0.0546 2.830709,0.115218 1.382151,-1.70529 2.697091,-3.76219 3.889322,-6.084351 -1.36357,-0.140158 -2.77731,-0.266168 -4.29291,-0.357449 z m -20.767577,0.321439 c -0.351972,0.0373 -0.787831,0.0506 -1.124707,0.0917 -0.909986,0.110861 -1.518629,0.28126 -2.29979,0.419309 1.636247,2.255362 3.429995,4.22891 5.309905,5.850642 0.666406,-0.0572 1.330206,-0.136591 1.99767,-0.183301 -1.388007,-1.751171 -2.698284,-3.83236 -3.883078,-6.178301 z m 25.595006,0.0805 c -1.173239,2.311569 -2.468999,4.361039 -3.839879,6.09156 0.665718,0.0456 1.33487,0.12491 2.00161,0.180679 1.854319,-1.60106 3.624569,-3.5442 5.2428,-5.762591 -0.842002,-0.144809 -1.523992,-0.316209 -2.501431,-0.434038 -0.272839,-0.0329 -0.62125,-0.0448 -0.9031,-0.0756 z M 64.847187,81.40443 c -0.662491,0.128331 -1.507721,0.22302 -2.04252,0.372171 -0.23631,0.0659 -0.383236,0.144709 -0.591484,0.215379 1.786339,2.093531 3.774964,3.910772 5.891239,5.40253 0.633328,-0.0675 1.268468,-0.11647 1.902751,-0.174469 -1.833536,-1.637239 -3.573968,-3.591311 -5.159986,-5.815611 z m 33.534971,0.0766 c -1.568328,2.188191 -3.284818,4.11286 -5.0932,5.729211 0.636561,0.0566 1.27281,0.105939 1.910292,0.171839 2.08031,-1.46871 4.038518,-3.250049 5.80087,-5.30106 -0.25217,-0.0791 -0.30034,-0.173699 -0.58788,-0.247459 -0.542676,-0.139229 -1.374701,-0.230259 -2.030082,-0.352531 z m -36.6688,0.691322 c -0.655584,0.263429 -1.186801,0.536659 -1.406525,0.802928 l -0.166939,-0.137149 a 29.047522,29.047522 0 0 0 5.943278,5.01106 l -0.03243,-0.265459 c 0.418949,-0.0516 0.841158,-0.0688 1.260544,-0.116203 -2.014265,-1.481248 -3.894225,-3.274157 -5.597959,-5.295169 z m 39.769892,0.11031 c -1.675646,1.970868 -3.520472,3.718639 -5.492851,5.171109 0.47924,0.0524 0.955231,0.0723 1.435,0.12995 l -0.02101,0.17118 a 29.047522,29.047522 0 0 0 5.670601,-4.841491 c -0.34018,-0.21454 -1.02603,-0.42005 -1.5918,-0.630748 z M 81.389,87.139531 c -1.50913,0.003 -3.010752,0.0826 -4.514501,0.13879 0.0714,0.134789 0.13521,0.341529 0.206859,0.471349 0.820831,1.487041 1.658332,2.644982 2.448092,3.426781 0.392679,0.388749 0.77275,0.679741 1.128289,0.878221 0.243391,0.02379 0.494901,0.0832 0.733539,0.0894 z m 0.502118,0 0.003,5.004509 c 0.238641,-0.006 0.490141,-0.0656 0.733542,-0.0894 0.355557,-0.19848 0.735599,-0.489469 1.128299,-0.878218 0.78975,-0.781802 1.627579,-1.93974 2.448399,-3.426781 0.0718,-0.130101 0.13503,-0.33756 0.20655,-0.472659 -1.507361,-0.0556 -3.017348,-0.134562 -4.519399,-0.13748 z m 5.058831,0.153519 c -0.106119,0.204221 -0.198789,0.50641 -0.305721,0.700151 -0.837308,1.516899 -1.69546,2.70978 -2.534819,3.540699 -0.175321,0.17354 -0.346869,0.263761 -0.52078,0.405889 0.0625,-0.01169 0.12151,-0.01 0.184291,-0.0222 1.908878,-0.71302 3.91342,-2.287191 5.826728,-4.53675 -0.885838,-0.0543 -1.765689,-0.0515 -2.649699,-0.0877 z m -10.61489,0.0011 c -0.88143,0.0367 -1.766509,0.0354 -2.646119,0.0903 1.912249,2.247331 3.915439,3.820242 5.823148,4.53282 0.0628,0.0127 0.121772,0.01061 0.18428,0.0222 C 79.52246,91.797349 79.35092,91.707129 79.175599,91.533578 78.33623,90.70267 77.47808,89.50978 76.64078,87.992879 76.53401,87.799429 76.441009,87.497939 76.335059,87.29404 Z m 13.89929,0.143362 c -5.29e-4,5.29e-4 -0.0011,5.29e-4 -0.0011,0.0011 -1.286039,1.557491 -2.62767,2.795871 -3.97604,3.717783 1.928519,-0.775232 3.90067,-1.96886 5.820871,-3.551831 -0.613881,-0.0492 -1.230532,-0.126701 -1.843511,-0.167261 z m -17.178787,0.005 c -0.615061,0.0415 -1.226701,0.119099 -1.840873,0.169561 1.917496,1.579509 3.887671,2.770539 5.813319,3.54462 -1.34715,-0.92107 -2.68746,-2.15863 -3.972446,-3.714181 z m 19.729968,0.22521 c -1.84164,1.573671 -3.742941,2.830629 -5.63395,3.68045 2.49442,-0.72072 4.988078,-1.937999 7.367138,-3.52334 -0.5783,-0.0571 -1.155669,-0.10773 -1.733188,-0.15711 z m -22.276234,0.01011 c -0.575447,0.0506 -1.151006,0.0997 -1.725673,0.158092 2.373932,1.579589 4.861385,2.79323 7.349805,3.512219 -1.887479,-0.84822 -3.78569,-2.100821 -5.624132,-3.670311 z m 24.826773,0.221272 c -2.789841,1.946129 -5.76602,3.32954 -8.724911,4.078819 a 29.047522,29.047522 0 0 0 10.31408,-3.94167 c -0.530209,-0.05 -1.05836,-0.0815 -1.589169,-0.137149 z m -27.367812,0.01241 c -0.517862,0.056 -1.038194,0.0863 -1.556438,0.13878 a 29.047522,29.047522 0 0 0 10.008989,3.860779 c -2.868539,-0.761558 -5.747793,-2.115788 -8.452551,-3.999598 z"
     style="fill:#68cff6" />
  <path
     id="bolivia"
     d="m 78.489669,37.759691 c -0.718391,0.552834 -4.460681,0.999694 -3.308201,0.51217 -1.482659,0.243039 -5.375117,2.350323 -3.978302,2.112645 -0.896122,1.641377 -2.715556,0.539687 -3.462687,2.40538 -1.43714,1.212699 -5.978054,1.048364 -4.528119,0.120835 1.168509,1.867401 2.505467,3.646737 3.378809,5.680816 -0.496263,0.904055 -1.564227,1.607098 -0.999741,3.077943 -0.188368,1.254464 1.043792,4.490151 0.430993,3.335753 -0.352902,0.19454 -1.971445,3.51336 -1.27848,1.73074 -0.979903,1.107639 -1.69054,4.491278 -0.404157,3.41163 -0.0929,1.437019 3.306816,3.345879 2.046714,2.987419 -1.063644,0.985192 -4.217929,4.664331 -2.810296,3.672281 0.622258,-0.35066 2.820046,8.63676 2.030971,3.1173 0.405262,1.26778 0.03095,3.46333 1.601949,4.1997 1.839492,0.672531 -0.722987,1.91921 0.558908,2.967741 -1.505968,0.715859 0.298141,3.237259 0.204671,2.558388 -0.592605,1.20354 0.750684,5.25357 1.290022,3.57486 0.909812,3.112852 2.289518,4.056552 1.370708,4.690721 1.563502,0.621001 3.735358,-2.476669 3.175847,-1.52667 1.690711,-1.85561 2.159431,-1.085479 2.44475,-2.578571 1.990071,1.555592 8.83476,2.096302 5.64421,1.393341 0.584822,0.500179 1.02379,4.05982 1.315112,1.537989 0.26462,-3.216659 6.656948,-2.834339 3.670649,-2.21978 1.4121,-0.193199 2.537381,0.64353 2.18186,0.84778 0.367509,-1.62815 1.158179,-3.201469 1.3296,-4.85567 -0.0895,-0.842248 1.22006,-2.9126 0.559459,-2.287328 0.63428,-0.76036 0.934151,-1.690241 1.275291,-2.603191 2.495709,-0.258961 4.931209,-1.197721 7.435235,-1.14881 1.130356,0.12527 2.342566,-0.01341 3.259896,0.790739 1.26485,0.395981 2.01684,3.26657 2.34873,2.515 1.60203,-0.501259 -0.38283,-2.416649 0.0768,-1.7061 0.32418,-1.0878 1.32194,-3.865869 1.44648,-3.00922 0.095,-1.620718 1.50204,-2.952038 0.10381,-4.521959 0.10736,-1.73491 -3.23227,-0.98856 -2.52838,-3.161091 -0.1179,-1.33853 1.31236,-2.73136 -0.70307,-2.2259 -1.83193,-0.146468 -3.688236,-0.17716 -5.500721,-0.417669 0.53359,-1.57962 -1.34484,-5.06695 -1.13166,-4.431371 0.589309,-0.662681 -0.42975,-4.805802 0.14637,-3.715578 0.737971,-1.476518 -4.397359,-2.248448 -3.233409,-2.379305 -4.069131,-0.05391 -0.768552,-1.398146 -3.995032,-1.546844 -1.10817,-0.455073 -3.303288,-2.880509 -2.661718,-1.830729 -1.85238,-0.336995 -4.131641,-0.437036 -3.56502,-0.471826 -1.6974,-0.422596 -3.438292,-2.235304 -2.597751,-1.676731 -0.84166,-0.556779 -1.84496,-3.165367 -1.68707,-2.139212 -0.960001,-0.804598 -0.68553,-3.788595 -0.4118,-2.438837 -1.052161,-1.241403 -0.548701,-5.486778 0.02611,-3.958621 -0.10011,-0.157165 -0.31722,-0.669277 -0.568262,-0.390158 z"
     style="fill:url(#linearGradient6613);" />
  <path
     d="m 92.85719,80.094464 c 0.500229,-0.171582 0.17558,-0.87658 0.296468,-1.360972 0.0347,-0.13903 0.29836,-0.309469 0.29836,-0.309469 L 93.32165,77.161002 c 0,0 0.129418,-0.501499 0.130368,-0.757809 5.29e-4,-0.23441 -0.0683,-0.464021 -0.11408,-0.69392 -0.0538,-0.27051 -0.217869,-0.531349 -0.188799,-0.80564 0.0209,-0.19708 0.207039,-0.34502 0.25399,-0.537559 0.0522,-0.2139 0.0765,-0.446122 0.0245,-0.66003 -0.478981,-0.0833 -0.424111,-0.876041 -0.32594,-1.002271 -0.140121,-0.0961 -0.250391,-0.139001 -0.114099,-0.480761 0.223589,-0.13712 0.2789,-0.3469 0.668168,-0.44817 0.23831,-0.169129 0.483402,-0.280559 0.78227,0.0652 0.532572,0.25904 0.702011,0.533228 0.497062,0.822999 0,0 -0.02611,0.492609 0.14668,0.61113 0.378909,0.259969 0.410588,0.75861 -0.14668,0.871889 0.29632,0.507301 0.704429,1.078471 0.122229,1.083752 l 0.855589,0.86374 c 0,0 0.293722,-0.5159 0.37483,-0.798542 0.150161,-0.523319 0.127542,-1.081389 0.195561,-1.621559 0.0548,-0.43487 0.17113,-1.303761 0.17113,-1.303761 l 0.90447,-0.431869 c 0,0 -0.401701,-0.304631 -0.513339,-0.521499 -0.10096,-0.196141 -0.054,-0.439632 -0.114091,-0.651881 -0.0701,-0.247509 -0.2852,-0.717071 -0.2852,-0.717071 0,0 0.39673,-0.362429 0.643729,-0.448169 0.341892,-0.118679 0.773851,-0.252111 1.083752,-0.0652 0.40595,0.244869 0.65582,0.82659 0.586708,1.295609 -0.0373,0.253291 -0.505209,0.578549 -0.505209,0.578549 l 0.27704,0.545941 c 0,0 0.676469,-0.11184 0.969665,0.0245 0.437926,0.203579 0.761096,0.644369 0.961516,1.083749 0.0955,0.20936 0.0494,0.45792 0.0896,0.68448 0.0194,0.109651 0.0104,0.23404 0.0733,0.32594 0.41773,0.61027 1.84156,1.237351 1.84156,1.237351 0.39143,0.31397 0.68438,0.824029 0.38298,1.034849 -0.21221,0.148441 -0.51868,0.01431 -0.59195,-0.503198 -0.0149,-0.105122 -0.15019,-0.12015 -0.23104,-0.171892 -0.54975,-0.351859 -1.25499,-0.47838 -1.71934,-0.937088 -0.18167,-0.179472 -0.37483,-0.668171 -0.37483,-0.668171 0,0 -0.225346,1.328399 -0.195556,1.996379 0.0156,0.350711 0.114416,0.693312 0.195556,1.03486 0.0614,0.25845 0.1164,0.521351 0.22001,0.765961 0.1063,0.25097 0.29877,0.458959 0.40743,0.708919 0.13256,0.30493 0.21487,0.630272 0.29334,0.95337 0.12309,0.506871 0.19976,1.024232 0.27705,1.540071 0.0304,0.202909 0.0274,0.411189 0.0733,0.61114 0.0708,0.30807 0.33127,0.580969 0.30964,0.896329 -0.014,0.203602 -0.0922,0.459412 -0.27704,0.54596 -0.24226,0.11345 -0.60396,0.02011 -0.78225,-0.179269 -0.14394,-0.161009 -0.0236,-0.43358 -0.0733,-0.643731 -0.06,-0.25337 -0.1986,-0.482669 -0.2689,-0.733369 -0.1398,-0.498536 -0.12336,-1.037606 -0.3015,-1.523767 -0.211656,-0.57766 -0.481972,-1.15864 -0.896312,-1.6134 -0.0842,-0.0924 -0.30965,-0.21186 -0.30965,-0.21186 0,0 -0.20035,0.49612 -0.285199,0.74966 -0.14541,0.43448 -0.262451,0.87803 -0.38299,1.320059 -0.135699,0.497652 -0.248949,1.00121 -0.382979,1.49932 -0.0726,0.269851 -0.109202,0.553831 -0.22815,0.806712 -0.0815,0.173159 -0.136501,0.445479 -0.32593,0.472609 -0.580652,0.0831 -2.05269,0.009 -2.05269,0.009 -0.189691,0.02529 -0.217871,-0.165233 0.007,-0.180092 0.250071,0.0396 0.354341,-0.12488 0.53104,-0.187989 0.126471,-0.14365 -0.005,-0.36853 -0.0503,-0.545541 -0.0503,-0.198351 -0.104349,-0.395928 -0.241898,-0.56423 -0.235622,-0.28829 -0.23073,-0.805198 -0.37302,-1.053539 l -0.811062,-0.0282 c 0.0011,0.006 -0.17077,0.204862 -0.217138,0.386832 -0.106561,0.41825 -0.15321,1.065789 -0.320662,1.34879 -0.257939,0.43592 0.221562,0.73561 0.0127,0.838309 l -1.034018,0.0163 c -0.170601,-0.003 -0.115821,-0.16337 0.01569,-0.19622 0.306708,0.0331 0.403609,-0.0897 0.516639,-0.242811 0.17272,-0.233929 0.14238,-0.573659 0.122229,-0.863748 -0.0352,-0.507302 0.098,-1.207662 0.10042,-1.20441 0.0704,-0.546092 -0.346509,-0.36118 -0.548529,-0.498631 z m 1.993498,-4.128402 -0.0461,0.57618 0.553141,0.44943 0.345718,-0.13829 -0.230489,-0.55313 -0.599221,-0.564658 z m 1.555702,6.61462 c 0,0 0.062,-0.584808 0.103719,-0.87581 0.0492,-0.343178 0.106591,-0.6853 0.17285,-1.02561 0.0782,-0.4016 0.20669,-0.793509 0.265049,-1.198459 0.0719,-0.49924 5.29e-4,-1.015871 0.103722,-1.50961 0.0817,-0.3913 0.40332,-1.129331 0.40332,-1.129331 0,0 -0.100361,-0.35809 -0.126762,-0.54161 -0.0981,-0.681638 -0.115228,-2.06275 -0.115228,-2.06275 0,0 -0.17666,0.382982 -0.218951,0.587711 -0.0459,0.222229 0.0563,0.471969 -0.0346,0.6799 -0.0903,0.206589 -0.373682,0.281329 -0.47248,0.483999 -0.0883,0.181171 -0.0199,0.407062 -0.0807,0.599231 -0.0704,0.222801 -0.237561,0.404681 -0.322659,0.622279 -0.121851,0.31156 -0.265052,0.968002 -0.265052,0.968002 0,0 0.345411,0.509648 0.483992,0.783609 0.115898,0.229139 0.288089,0.71447 0.288089,0.71447 l -0.599231,0.322659 -0.437899,0.484 z m -11.32214,-0.432728 0.0459,-0.443442 -0.733991,-0.0765 c 0,0 -0.078,-0.393269 0.0306,-0.535191 0.049,-0.064 0.1763,-0.0158 0.229362,-0.0764 0.44763,-0.51159 0.281009,-1.330981 0.382278,-2.00316 0.114811,-0.76214 0.284461,-1.719911 0.254921,-2.298121 -0.0837,-1.638329 0.246639,-3.246768 0.73901,-4.55236 -0.473699,-1.362908 -0.52904,-4.35801 -0.321119,-4.35801 l -3.608732,-3.608729 -0.47403,0.0612 0.25995,-0.672812 -0.36295,-0.276159 c -0.078,-0.0859 -0.24639,-0.2385 -0.366889,-0.5418 -0.115819,-0.29151 -0.291899,-0.16419 -0.568831,-0.29568 0.0011,-0.0711 -0.245679,-0.22979 0.200081,-0.143999 0.10963,0.0304 0.333999,0.0825 0.272301,0.0427 0.01389,-0.16729 -0.481963,-0.361658 -0.481963,-0.361658 -0.173448,-0.127841 -0.0306,-0.256871 0.107032,-0.17336 0.0874,0.053 0.333528,0.209759 0.465158,0.200409 0.0878,-0.006 -0.428408,-0.540039 -0.365508,-0.590839 0.0269,-0.0217 0.0871,-0.10233 0.184499,0.0231 -0.0384,-0.162552 0.0517,-0.20797 0.16316,-0.0632 0.141629,0.184031 0.321519,0.505291 0.359741,0.49249 l 0.19009,0.22968 0.176678,0.133051 c 0.11698,0.364228 0.268481,0.619998 0.486151,0.6678 l 0.458729,-0.0459 0.01529,0.519901 c 0,0 1.2846,1.112689 2.00315,1.5597 0.476181,0.29623 0.96434,0.62194 1.513829,0.733991 0.30502,0.0622 0.93277,-0.0459 0.93277,-0.0459 0,0 0.137361,-0.160642 0.152911,-0.259961 0.0837,-0.534659 -0.480629,-1.057431 -0.355931,-1.58405 0.109892,-0.46414 0.43661,-1.02485 0.90642,-1.107199 0.428721,-0.0752 0.910482,0.2881 1.12149,0.66879 0.205951,0.37157 0.085,0.86428 -0.0265,1.274199 -0.0674,0.247661 -0.342911,0.417319 -0.376251,0.671809 -0.0321,0.245152 0.183491,0.71869 0.183491,0.71869 0,0 0.928119,-0.184139 1.36093,-0.36699 0.928428,-0.39225 1.76929,-0.972939 2.59951,-1.544418 0.642588,-0.44233 1.834938,-1.452671 1.834938,-1.452671 l 0.154612,0.159149 0.360799,-0.238868 c 0,0 0.313711,-0.469471 0.541599,-0.658082 0.106612,-0.0882 0.18759,-0.132239 0.29223,-0.17729 0.1935,-0.0833 0.289031,0.0849 -0.0846,0.30108 -0.029,0.0168 -0.0236,0.0555 -0.0534,0.0799 -0.0011,0.12614 0.54827,-0.158221 0.826511,-0.240382 0.237868,-0.0662 0.377518,0.01479 0.121269,0.158631 -0.0917,0.0515 -0.27238,0.1231 -0.45276,0.195839 -0.0432,0.01741 -0.0471,0.0651 -0.0336,0.104661 0.0358,0.0259 0.10989,-0.0334 0.164939,-0.0497 0.175472,-0.0521 0.345152,-0.133792 0.527061,-0.15413 0.2292,-0.02561 0.210211,0.161769 0.0553,0.193019 -0.240519,0.0485 -0.409379,0.085 -0.403889,0.178371 0.139999,-0.0355 0.245578,-0.0553 0.320408,-0.0721 0.25881,-0.0583 0.212302,0.0681 0.0449,0.16586 -0.0744,0.0435 -0.191151,0.0423 -0.294992,0.0747 -0.0714,0.0223 -0.1964,0.066 -0.265139,0.0997 0.004,0.0488 0.0982,0.0326 0.0982,0.0326 0.100139,-0.0358 0.20525,-0.0773 0.311369,-0.0699 0.20705,0.01439 0.0933,0.0837 5.29e-4,0.12006 -0.1769,0.0696 -0.371951,0.0886 -0.5456,0.165899 -0.15308,0.0682 -0.27278,0.203001 -0.43049,0.259619 -0.224049,0.0804 -0.70649,0.104402 -0.70649,0.104402 l 0.0474,0.322048 c 0,0 -0.841759,0.612122 -1.238581,0.948061 -0.489918,0.414761 -0.888309,0.936601 -1.4068,1.31504 -0.726199,0.53004 -1.697919,0.70127 -2.354858,1.31505 -0.191111,0.17856 -0.45008,0.396891 -0.428141,0.657519 0.10808,1.284372 0.106519,2.100051 -0.32113,2.737141 -0.24529,0.365419 -0.305821,1.28446 -0.305821,1.28446 -0.0868,0.6145 0.722831,1.75175 0.606531,3.243461 -0.107781,1.382598 0.491241,2.737029 0.356819,3.912848 -0.101279,0.885971 0.489321,2.630091 0.489321,2.630091 l -0.657529,0.0459 c 0,0 -0.10473,0.184311 -0.0765,0.275251 0.12092,0.38898 1.014222,0.384548 0.936982,0.7845 -0.0582,0.30153 -0.570711,0.262438 -0.8758,0.28588 -0.606142,-0.18207 -1.251511,-0.710441 -0.856311,-1.055089 -1.5e-4,-0.149223 0.0612,-0.443442 0.0612,-0.443442 l -0.42817,-0.397579 c 0,0 0.0653,-1.357651 0.01529,-2.033741 -0.0438,-0.59168 -0.148,-1.178989 -0.275231,-1.75849 -0.115919,-0.527931 -0.305969,-1.036981 -0.443449,-1.55971 -0.16541,-0.628881 -0.45874,-1.89611 -0.45874,-1.89611 0,0 -0.347541,1.483989 -0.489331,2.232519 -0.0961,0.507172 -0.180708,1.016911 -0.24465,1.52912 -0.116498,0.933231 -0.252859,2.810052 -0.252859,2.810052 -0.0439,0.520298 -0.333079,0.795359 -0.649309,1.04335 l -0.0918,0.366988 c 0.215228,0.10328 0.160158,0.348271 0.0771,0.491982 -0.282631,0.489 -1.27775,0.56343 -1.58142,0.60832 -0.371962,0.055 -0.329062,-0.596702 0.70934,-0.947402 z M 81.873079,69.547963 c -0.287261,0.627939 -0.29731,1.216269 -0.305821,1.804369 0,0 0.654081,-0.02339 0.76455,-0.856308 0.10468,-0.789311 -0.458348,-0.94946 -0.458729,-0.948061 z m -2.93592,13.349269 c 0.648301,-0.416329 0.620099,-0.451289 0.688099,-0.795149 0.0923,-0.466831 -0.27778,-1.424631 -0.22171,-2.576579 -0.264488,-0.0535 -0.58956,-0.007 -0.940419,0.0688 0,0 0.238911,-0.865611 0.10704,-1.269172 -0.74902,-2.29235 -0.381389,-5.465929 0.152911,-5.825969 0.20212,-1.069681 0.12796,-2.028852 -0.0764,-2.93592 -1.58632,-0.28317 -0.97224,-1.033031 -0.672819,-1.666751 0.084,-0.17776 0.104569,-0.139038 0,-0.38228 -0.271251,-0.63096 -1.35146,-1.759699 -1.513451,-2.850909 -0.0805,-0.5422 -0.393028,-0.923981 -0.65791,-1.507091 -0.0988,-0.452228 -0.417569,-0.86047 -0.122328,-1.39151 0.55421,-1.079119 0.749758,-0.91577 1.05509,0.0459 l -0.183494,1.100971 c 0.18478,1.10236 0.93812,1.702729 1.24487,2.393551 0.242192,0.545428 0.533022,0.88723 1.17116,1.077558 0.69551,-0.335019 0.01291,-0.69826 0.39756,-1.483249 0.67006,-1.3676 1.146921,-0.80009 1.651461,-0.519901 0.46474,0.25808 0.252341,1.033049 0.397581,1.54441 0.119578,0.42105 0.389909,1.253892 0.389909,1.253892 0.406101,0.109519 0.531611,0.516308 0.695761,0.841018 0.199118,0.393861 0.444828,0.488981 0.32113,1.284462 -0.0298,0.191788 0.079,0.380748 0.137599,0.565779 0.381569,1.20454 -0.664591,2.1007 -1.13919,2.370141 0.270291,1.330989 0.67586,2.354648 0.0918,4.403889 -0.244081,0.856271 -0.12234,2.66832 -0.12234,2.66832 -0.328761,-0.0359 -0.657519,-0.0657 -0.98628,0.0382 -0.006,0.81688 -0.0658,1.66279 -0.0917,2.316629 -0.0642,0.467222 0.377719,0.737851 1.00157,1.047451 0.19123,0.10587 -0.105852,0.195781 -0.266722,0.17572 -0.15427,-0.0191 -0.373279,-0.17653 -1.155358,-0.168079 -0.514231,0.3102 -0.716511,0.32222 -1.085692,0.451088 -0.401079,0.0584 -0.4148,-0.0697 -0.267599,-0.275238 z m -8.868936,-13.00521 -0.191141,0.955702 c 0.264724,0.0512 0.310843,0.941988 0.657532,1.208008 0.09549,-0.42282 0.144735,-0.88373 0.573413,-1.032158 -0.04656,-0.0438 -0.0032,-0.14587 -0.03915,-0.198171 -0.196707,-0.286041 -0.335661,-0.63206 -0.427252,-1.002201 -0.169521,-0.0275 -0.343786,-0.044 -0.573431,0.0688 z m 1.055108,11.93482 c -0.09518,-0.931159 -0.229095,-1.748298 -0.07844,-2.905469 0.03972,-0.305149 -0.07878,-0.61863 -0.07448,-0.93263 -0.482168,-0.0782 -1.041881,-0.09 -1.666748,-0.0459 -0.314044,-1.72199 -0.305247,-3.38528 0.642229,-4.877911 l 0.122325,-0.626938 c -0.479229,-0.563941 -0.407628,-0.933961 -0.724715,-1.25821 -0.328401,-0.33582 -0.09297,-1.15071 0.158943,-1.57067 0.08932,-0.252032 -0.599271,-0.319061 -0.445749,-0.654132 0.07529,-0.174829 0.634183,-0.26371 0.846902,-0.516969 0.358085,-0.4263 0.192839,-1.186911 0.611018,-1.554459 0.215662,-0.189543 0.550244,-0.176581 0.835454,-0.20959 0.75856,-0.0878 -0.280122,-0.436462 -0.01267,-1.19349 -0.273775,-0.0291 -0.708224,-0.036 -0.716085,-0.293931 -0.0067,-0.219739 0.593739,-0.287139 0.593739,-0.287139 0.134164,-2.148782 2.383607,-1.32633 2.354868,-0.217922 0,0 0.71514,-0.111098 0.75637,0.1421 0.0483,0.296421 -0.786959,0.43865 -0.786959,0.43865 l -0.07645,1.258051 c 0.09396,0.416849 0.705689,-0.179641 1.25389,0.764559 0.355549,0.61237 0.28463,1.353852 1.07039,1.834952 0.324718,0.198818 -0.01889,0.977598 -0.464301,0.886579 0.3815,0.821409 0.388699,1.24588 0.66385,2.265269 0.0449,0.166302 0.0315,0.562592 0.22893,0.67772 0.701141,0.409012 0.387721,1.873332 0.16023,1.904651 l -0.275239,-1.169789 c -0.162872,0.130879 -0.448251,0.614 -0.466381,0.328768 0.0638,-0.353808 0.248291,-0.620019 0.121989,-0.978958 -0.19095,-0.542642 -0.569209,-0.826852 -0.729538,-1.160161 -0.11049,-0.229719 -0.120071,-0.678881 -0.2359,-1.05311 -0.15144,-0.48926 -0.34422,-0.904949 -0.48691,-0.622941 -0.171741,0.339411 -0.41134,0.642242 -0.611661,0.963351 1.302689,1.319149 1.177541,3.436379 1.649931,4.57186 0.633259,1.522179 -0.215572,2.234009 -1.4282,2.33979 -0.291661,0.50125 0.0268,0.963911 -0.140001,1.689351 -0.166759,0.72544 -0.326546,1.110678 -0.334039,1.682369 -0.0044,0.361971 0.02053,0.850619 0.18352,1.07039 0.855998,1.154229 0.241829,1.29658 -0.672822,0.366991 -0.306404,-0.311402 0.126314,-0.892551 0.05352,-1.330341 -0.173792,-1.045221 -0.376066,-2.200781 -0.175864,-3.509341 l -0.772202,-0.02289 c -0.07089,0.842869 -0.0038,1.6917 -0.305821,2.49247 -0.302157,0.800761 -0.100682,1.219941 -0.02838,1.674161 0.04725,0.296868 0.453861,0.402649 -0.193325,0.757148 -0.873138,0.416092 -1.957046,0.30898 -0.787501,-0.374629 0.269568,-0.15757 0.378288,-0.482219 0.382273,-0.741659 z m -8.492728,-0.25635 c 0.209092,-1.104198 -0.112223,-2.293479 0.08891,-3.448539 0.306655,-1.761051 0.378129,-3.573672 0.192217,-5.35287 -0.373702,0.0298 -0.344725,-0.01 -0.259506,-0.324379 0.706901,-2.215592 0.392155,-5.471811 0.0649,-6.000972 -0.326824,-0.4776 -1.232244,-0.826839 -1.816518,-1.22182 0.04402,-0.493199 0.316132,-1.176488 -0.08649,-1.297498 -0.424802,0.03 -0.859756,0.0727 -0.648766,-0.692012 -0.156168,-1.647421 0.105605,-2.38297 0.389268,-3.07076 0.06698,-0.544208 -0.387715,-0.726998 -0.129762,-1.46526 0.76454,-0.601451 0.865518,0.02529 1.035388,0.415042 l 0.338125,0.0834 c 0.0292,0.155951 -0.309698,-0.01431 -0.277715,0.218861 0.05124,0.373549 -0.326842,0.70018 -0.439624,0.842298 l 0.316955,2.933142 c 0.755343,0.43484 2.094892,1.671849 2.911981,1.160108 l 0.07338,-0.289849 c -0.300776,-0.34671 -0.429583,-0.821049 -0.529047,-1.25209 l -1.223444,-0.01529 c -0.184971,-0.0819 -0.286198,-0.172551 -0.08672,-0.294878 l 1.427258,-0.346012 0.133037,-1.004249 1.776751,0.0419 0.252627,0.98394 0.820058,0.0716 c 0.310607,-0.009 0.328509,0.340728 0.09113,0.34299 l -0.867936,0.007 c -0.161528,0.91255 -0.390068,1.277641 -0.621718,1.502942 l 0.01622,0.410879 c 0.474821,0.373139 0.65337,0.2031 0.973124,0.291939 0.163073,-0.01291 0.325385,0.0553 0.478933,0.165401 0.104222,0.0747 0.411207,0.02559 0.433205,0.16164 0.05739,0.354769 0.331835,0.456721 0.32049,0.68934 -0.04668,0.651769 -0.02527,1.243949 0.04326,1.79488 0.08908,0.26774 0.632214,0.0814 -0.03243,1.102879 -0.02535,0.12197 -0.09552,0.179199 0,0.47576 0.290618,0.429332 0.517805,1.00847 0.513366,1.63017 -0.0038,0.555752 0.01918,1.178599 0.189455,1.402741 0.334793,0.495099 0.57758,0.81098 0.129754,1.135319 -0.07487,0.120841 -0.560922,0.427612 -0.594696,-0.297339 -0.15798,-0.423039 -0.06226,-0.655791 -0.06487,-0.962321 -0.09217,-0.266819 -0.02463,-0.703821 -0.09439,-0.930759 -0.04744,-0.15435 -0.243922,-0.0771 -0.287528,-0.215659 -0.147693,-0.469332 -0.240337,-0.952921 -0.385776,-1.448591 l -0.205435,-0.270309 c -0.212614,0.0986 -0.449022,0.168029 -0.410885,0.573058 0.08124,0.38876 0.23831,0.732009 0.189251,1.198959 -0.02421,0.763162 0.08765,1.194671 0.373002,1.514991 -0.255736,0.0319 -0.323917,0.213731 -0.291942,0.47575 -0.170719,1.135182 0.0368,2.051201 0.147053,3.06963 0.01717,0.15871 0.06582,0.313179 0.08001,0.472181 0.151551,1.697789 -0.04757,3.925429 0.148207,5.117729 0,0 -0.239107,0.0526 -0.288761,0.10944 -0.04966,0.0569 -0.03243,0.14056 -0.03243,0.14056 0.371035,0.207401 0.492532,0.419909 0.761677,0.73371 0.618897,0.721601 -0.640726,0.641821 -0.884097,0.35868 -0.182084,-0.211838 -0.615921,-0.466759 -0.842844,-0.714499 -0.0817,-0.0892 0.11107,-0.345451 0.11107,-0.345451 0.06265,-0.0764 0.02545,-0.138538 -0.05403,-0.19463 l -0.518242,-0.112368 c 0.37747,-1.050031 0.340101,-2.207382 0.410112,-3.293581 -0.574516,-1.295742 -0.297003,-2.686151 -0.410885,-4.033081 -0.191976,-0.388811 -0.407275,-0.59104 -0.713621,-0.0649 l -0.356814,3.79521 c 0,0 -0.109733,2.70873 -0.03243,2.886951 0.09862,0.227348 0.205436,0.335179 0.205436,0.335179 l -0.270312,0.1622 c 0,0 0.03211,0.29636 -0.03243,0.421691 -0.288255,0.559559 -0.821647,1.263711 -1.448882,1.211 -0.226719,-0.0191 -0.451324,-0.291621 -0.443315,-0.519001 0.01103,-0.313291 0.477311,-0.415319 0.65957,-0.67038 0.05156,-0.0721 0.11893,-0.237879 0.11893,-0.237879 -0.09668,-0.058 -0.26034,-0.0825 -0.52982,-0.0541 z"
     style="fill:#000000;"
     id="gente" />
  <path
     d="m 150.89614,143.50887 h 5.53759 l -2.58153,-7.55366 z m -6.09937,9.21003 q 1.24395,-1.59926 2.50128,-4.01244 1.25732,-2.41316 2.64841,-5.89727 1.16369,-2.89866 1.91274,-5.18332 0.76242,-2.28466 0.76242,-2.74159 0,-0.22846 -0.0535,-0.44266 -0.0535,-0.22846 -0.16051,-0.4712 h 3.39746 q 1.993,7.08244 3.7586,11.95162 1.76561,4.86918 3.03631,6.79686 h -2.99618 l -2.75542,-8.12482 h -6.39364 l -1.17707,3.07001 -0.0267,0.0714 q -1.09682,2.81298 -1.09682,4.08382 0,0.19991 0.0267,0.42838 0.0401,0.21418 0.10701,0.47121 z m -4.46752,0 q 0.37452,-0.42837 0.52165,-1.97052 0.16051,-1.54214 0.16051,-6.59695 v -1.19945 q 0,-5.51174 -0.16051,-7.02533 -0.14713,-1.52786 -0.52165,-1.95623 h 3.71847 q -0.37452,0.41409 -0.53503,1.89912 -0.14713,1.48503 -0.14713,6.32564 v 1.14234 1.12805 q 0,4.8549 0.14713,6.35421 0.16051,1.48502 0.53503,1.89912 z m -10.76755,0.14279 q -1.68535,-6.82542 -3.33057,-11.85166 -1.64523,-5.02626 -2.8223,-7.03961 h 1.99299 q 0.68217,0 0.86943,0.15707 0.18726,0.14279 0.3879,0.72824 0.36115,0.91385 0.69554,1.99907 0.34778,1.07094 0.81593,2.69876 l 3.2102,10.9378 2.9828,-7.98203 q 0.84268,-2.28466 1.35096,-4.31229 0.50828,-2.04191 0.50828,-2.97006 0,-0.25702 -0.0535,-0.57116 -0.0401,-0.31415 -0.13376,-0.67112 l 3.47772,-0.0143 q -1.92612,2.91294 -5.77836,13.56516 -1.25732,3.45554 -1.95287,5.32611 z m -11.22231,-0.14279 q 0.37453,-0.42837 0.52166,-1.97052 0.16051,-1.54214 0.16051,-6.59695 v -1.19945 q 0,-5.51174 -0.16051,-7.02533 -0.14713,-1.52786 -0.52166,-1.95623 h 3.71848 q -0.37452,0.41409 -0.53503,1.89912 -0.14714,1.48503 -0.14714,6.32564 v 1.14234 1.12805 q 0,4.8549 0.14714,6.35421 0.16051,1.48502 0.53503,1.89912 z m -12.03823,-18.74848 h 3.71847 q -0.37452,0.42837 -0.53503,1.97051 -0.14713,1.54215 -0.14713,6.5684 v 1.19944 q 0,3.14141 0.0669,5.24044 0.0669,2.09903 0.18726,2.68447 0.26751,0.0143 0.56178,0.0285 0.30765,0 0.88281,0 2.14013,0 3.29045,-0.45693 1.16369,-0.47121 1.88599,-1.58498 l -0.60191,2.92722 q -0.56179,0.11423 -1.25733,0.17134 -0.69554,0.0571 -1.48472,0.0571 -0.61528,0 -2.4879,-0.0285 -1.87261,-0.0285 -3.12994,-0.0285 h -0.94968 q 0.37452,-0.42837 0.52165,-1.97052 0.16051,-1.54214 0.16051,-6.59695 v -1.19944 q 0,-5.51175 -0.16051,-7.02533 -0.14713,-1.52787 -0.52165,-1.95624 z m -10.673902,17.69182 q 2.501281,0 3.91912,-2.05619 1.431202,-2.07047 1.431202,-5.75449 0,-4.15521 -1.524832,-6.52555 -1.52485,-2.38461 -4.173258,-2.38461 -2.728672,0 -4.25351,2.09903 -1.524842,2.09902 -1.524842,5.883 0,4.14093 1.60509,6.43988 1.61848,2.29893 4.52103,2.29893 z m -0.842679,1.41363 q -3.86561,0 -5.965611,-2.42744 -2.086628,-2.44174 -2.086628,-6.93966 0,-4.89773 2.27389,-7.48225 2.27389,-2.5988 6.56753,-2.5988 4.052864,0 6.09936,2.31321 2.0465,2.29895 2.0465,6.86826 0,4.66927 -2.4344,7.46797 -2.434392,2.79871 -6.500641,2.79871 z m -19.68921,-11.88022 v 0.69968 h 0.735669 q 2.461152,0 3.75861,-1.02809 1.310831,-1.0281 1.310831,-2.9415 0,-1.45647 -1.003189,-2.18471 -0.989812,-0.74251 -2.969432,-0.74251 -0.361149,0 -0.762418,0.0285 -0.387901,0.0143 -0.81593,0.0571 -0.13376,0.614 -0.200631,1.97052 -0.0535,1.35651 -0.0535,3.88392 z m 0,1.78489 v 3.59834 q 0,1.59926 0.0669,2.8701 0.0669,1.25656 0.16051,1.61354 0.0936,0.35697 0.66879,0.55688 0.575159,0.19991 1.511469,0.19991 1.939491,0 3.009561,-1.17088 1.07006,-1.17089 1.07006,-3.2842 0,-2.08476 -1.243949,-3.22708 -1.230572,-1.15661 -3.517842,-1.15661 z m -1.17707,9.73836 h -1.85924 q 0.374523,-0.42837 0.521658,-1.97052 0.160509,-1.54214 0.160509,-6.59695 v -1.19945 q 0,-5.51174 -0.160509,-7.02533 -0.147135,-1.52786 -0.521658,-1.95623 h 2.300639 q 0.896181,0 2.54141,-0.0999 1.658602,-0.0999 2.42102,-0.0999 2.00637,0 3.103192,0.92815 1.1102,0.92814 1.1102,2.61307 0,1.58498 -1.083451,2.79871 -1.070059,1.19945 -3.17007,1.97052 2.447779,0.29985 3.785359,1.62781 1.33758,1.31368 1.33758,3.42699 0,2.57024 -1.819109,4.16951 -1.80573,1.58498 -4.828669,1.58498 -0.735671,0 -2.01975,-0.0857 -1.270701,-0.0856 -1.819111,-0.0856 z m -18.900031,-5.883 1.203825,-1.65638 h 6.206379 l -1.177074,1.74205 h -5.778351 q -0.200639,0 -0.307645,-0.0143 -0.09363,-0.0285 -0.147134,-0.0714 z m -19.421692,6.29709 -6.326765,-17.40624 -0.0535,12.7798 v 0.91387 q 0,1.32796 0.147134,2.04191 0.147133,0.71396 0.481529,1.25657 h -3.116567 q 0.775798,-0.72824 1.123569,-4.655 0.347771,-3.94103 0.347771,-12.03729 0,-0.74251 -0.160509,-1.19944 -0.147133,-0.45694 -0.521658,-0.85675 h 3.063065 q 0.37452,0 0.494903,0.11423 0.120383,0.0999 0.227391,0.4141 l 4.949053,14.12204 5.510836,-13.97925 q 0.147135,-0.39982 0.321022,-0.52833 0.187262,-0.14279 0.588537,-0.14279 h 2.675162 q -0.347771,0.48549 -0.508281,1.54214 -0.147134,1.04238 -0.147134,3.02717 0,7.33947 0.280892,10.28097 0.29427,2.92721 1.003186,3.8982 h -4.026119 q 0.387897,-0.62828 0.548407,-1.55643 0.173887,-0.94242 0.173887,-2.68447 0,-0.0143 -0.01339,-0.18563 -0.02675,-1.11378 -0.0535,-2.34177 l -0.160509,-10.22385 z m -21.160551,-9.62412 h 5.53759 l -2.581533,-7.55366 z m -6.0993747,9.21003 q 1.2439523,-1.59926 2.5012797,-4.01244 1.257327,-2.41316 2.648412,-5.89727 1.163697,-2.89866 1.912743,-5.18332 0.762422,-2.28466 0.762422,-2.74159 0,-0.22846 -0.0535,-0.44266 -0.0535,-0.22846 -0.16051,-0.4712 h 3.397459 q 1.992996,7.08244 3.758605,11.95162 1.765608,4.86918 3.036311,6.79686 h -2.996184 l -2.755418,-8.12482 h -6.393643 l -1.177072,3.07001 -0.02675,0.0714 q -1.096817,2.81298 -1.096817,4.08382 0,0.19991 0.02675,0.42838 0.04013,0.21418 0.107007,0.47121 z M 3.7219931,142.59501 q 0.8426813,0.0571 1.5248432,0.0856 0.682162,0.0143 1.2439529,0.0143 1.0433121,0 1.9796201,-0.0856 0.9496833,-0.0999 1.8592397,-0.27132 -0.5617852,0.94243 -1.6586027,1.32796 -1.0834409,0.37127 -3.932488,0.37127 H 3.7219931 v 1.4279 q 0,4.29802 0.1471332,5.55458 0.1605079,1.24229 0.5350291,1.69922 H 0.68568221 q 0.37451999,-0.42838 0.52165299,-1.97052 0.160509,-1.54214 0.160509,-6.59695 V 142.952 q 0,-5.51174 -0.160509,-7.02533 -0.147133,-1.52786 -0.52165299,-1.95623 H 2.5716702 q 0.5617901,0 2.247142,-0.0429 1.685353,-0.0429 2.8222961,-0.0429 0.909556,0 1.6452263,0.0429 0.7356704,0.0429 1.3108304,0.12851 l 0.107006,2.42745 q -0.401274,-0.79963 -1.4312124,-1.12805 -1.0165633,-0.32842 -3.2770813,-0.32842 -0.5082781,0 -1.0031801,0.0285 -0.4949119,0.0143 -1.0165649,0.0571 -0.133758,0.65683 -0.2006359,2.07046 -0.05352,1.39936 -0.05352,4.01244 z"
     style="fill:#000000;"
     id="FAM" />
  <path
     d="m 140.98135,177.35826 h 2.43906 l -1.13705,-3.11657 z m -2.68649,3.79997 q 0.5479,-0.65984 1.1017,-1.65549 0.55379,-0.99565 1.1665,-2.43316 0.51256,-1.19596 0.84248,-2.13859 0.33581,-0.94263 0.33581,-1.13116 0,-0.0943 -0.0236,-0.18263 -0.0236,-0.0943 -0.0707,-0.19442 h 1.49642 q 0.87783,2.92215 1.65549,4.93113 0.77767,2.00898 1.33736,2.80432 h -1.31968 l -1.21364,-3.35222 h -2.8161 l -0.51845,1.26666 -0.0118,0.0294 q -0.4831,1.16062 -0.4831,1.68495 0,0.0825 0.0118,0.17675 0.0177,0.0884 0.0471,0.19441 z m -1.96775,0 q 0.16496,-0.17674 0.22977,-0.81301 0.0707,-0.63628 0.0707,-2.72185 v -0.49488 q 0,-2.27409 -0.0707,-2.89858 -0.0648,-0.63039 -0.22977,-0.80713 h 1.63782 q -0.16496,0.17085 -0.23565,0.78356 -0.0648,0.61271 -0.0648,2.60991 v 0.47131 0.46543 q 0,2.00308 0.0648,2.62168 0.0707,0.61271 0.23565,0.78356 z m -4.7426,0.0589 q -0.74232,-2.81611 -1.46697,-4.88989 -0.72464,-2.07379 -1.24309,-2.90448 h 0.87782 q 0.30047,0 0.38295,0.0648 0.0825,0.0589 0.17085,0.30046 0.15907,0.37705 0.30635,0.8248 0.15318,0.44186 0.35938,1.11348 l 1.41394,4.51284 1.31379,-3.29331 q 0.37116,-0.94263 0.59504,-1.77921 0.22387,-0.84248 0.22387,-1.22542 0,-0.10605 -0.0236,-0.23566 -0.0177,-0.12961 -0.0589,-0.2769 l 1.53178,-0.006 q -0.84837,1.20184 -2.5451,5.59686 -0.5538,1.42573 -0.86015,2.19751 z m -4.94291,-0.0589 q 0.16496,-0.17674 0.22976,-0.81301 0.0707,-0.63628 0.0707,-2.72185 v -0.49488 q 0,-2.27409 -0.0707,-2.89858 -0.0648,-0.63039 -0.22976,-0.80713 h 1.63782 q -0.16496,0.17085 -0.23566,0.78356 -0.0648,0.61271 -0.0648,2.60991 v 0.47131 0.46543 q 0,2.00308 0.0648,2.62168 0.0707,0.61271 0.23566,0.78356 z m -5.30229,-7.73545 h 1.63781 q -0.16496,0.17674 -0.23565,0.81302 -0.0648,0.63627 -0.0648,2.71006 v 0.49488 q 0,1.29612 0.0295,2.16216 0.0295,0.86604 0.0825,1.10759 0.11783,0.006 0.24744,0.0118 0.1355,0 0.38883,0 0.94263,0 1.4493,-0.18853 0.51255,-0.19441 0.83069,-0.65395 l -0.26512,1.20775 q -0.24744,0.0471 -0.55379,0.0707 -0.30636,0.0236 -0.65395,0.0236 -0.27101,0 -1.09581,-0.0118 -0.8248,-0.0118 -1.37859,-0.0118 h -0.41829 q 0.16496,-0.17674 0.22976,-0.81301 0.0707,-0.63628 0.0707,-2.72185 v -0.49488 q 0,-2.27409 -0.0707,-2.89858 -0.0648,-0.63039 -0.22976,-0.80713 z m -4.70136,7.29949 q 1.1017,0 1.72619,-0.84837 0.63038,-0.85426 0.63038,-2.37425 0,-1.7144 -0.67162,-2.69238 -0.67162,-0.98387 -1.83813,-0.98387 -1.20185,0 -1.87347,0.86604 -0.67163,0.86604 -0.67163,2.42727 0,1.70852 0.70697,2.65704 0.71287,0.94852 1.99131,0.94852 z m -0.37116,0.58325 q -1.70263,0 -2.62758,-1.00154 -0.91906,-1.00744 -0.91906,-2.86324 0,-2.02076 1.00154,-3.08711 1.00154,-1.07224 2.89269,-1.07224 1.78511,0 2.6865,0.95441 0.90139,0.94852 0.90139,2.83378 0,1.9265 -1.07225,3.08122 -1.07224,1.15472 -2.86323,1.15472 z m -8.6722,-4.90167 v 0.28868 h 0.32403 q 1.08403,0 1.65549,-0.42419 0.57736,-0.42418 0.57736,-1.21363 0,-0.60093 -0.44185,-0.90139 -0.43597,-0.30635 -1.3079,-0.30635 -0.15907,0 -0.33581,0.0118 -0.17085,0.006 -0.35938,0.0236 -0.0589,0.25334 -0.0884,0.81302 -0.0236,0.55969 -0.0236,1.60247 z m 0,0.73643 v 1.48464 q 0,0.65984 0.0295,1.18418 0.0295,0.51844 0.0707,0.66573 0.0412,0.14728 0.29457,0.22976 0.25333,0.0825 0.66573,0.0825 0.85426,0 1.32557,-0.48309 0.47132,-0.4831 0.47132,-1.35503 0,-0.86015 -0.54791,-1.33147 -0.54201,-0.4772 -1.54944,-0.4772 z m -0.51844,4.01795 h -0.81891 q 0.16496,-0.17674 0.22976,-0.81301 0.0707,-0.63628 0.0707,-2.72185 v -0.49488 q 0,-2.27409 -0.0707,-2.89858 -0.0648,-0.63039 -0.22976,-0.80713 h 1.01332 q 0.39473,0 1.11938,-0.0412 0.73053,-0.0412 1.06635,-0.0412 0.88371,0 1.36681,0.38294 0.48899,0.38295 0.48899,1.07814 0,0.65395 -0.47721,1.15472 -0.47131,0.49488 -1.39627,0.81302 1.07813,0.12372 1.66728,0.67162 0.58914,0.54201 0.58914,1.41394 0,1.06046 -0.80123,1.7203 -0.79535,0.65395 -2.12681,0.65395 -0.32403,0 -0.88961,-0.0353 -0.55968,-0.0353 -0.80123,-0.0353 z m -9.962402,0 q 0.16496,-0.17674 0.229762,-0.81301 0.0707,-0.63628 0.0707,-2.72185 v -0.49488 q 0,-2.27409 -0.0707,-2.89858 -0.0648,-0.63039 -0.229762,-0.80713 h 0.74821 q 0.80123,0 1.814556,-0.0177 1.019216,-0.0177 1.237196,-0.0177 0.0118,0 0.0707,0.006 0.18263,0.006 0.35348,0.006 l 0.0943,1.13704 q -0.1414,-0.37116 -0.57147,-0.51844 -0.42419,-0.14729 -1.626032,-0.14729 H 98.56307 q -0.0589,0.25333 -0.0884,0.84248 -0.0236,0.58325 -0.0236,1.69084 v 0.40061 q 0.147291,0.0118 0.335809,0.0177 0.188532,0.006 0.606819,0.006 0.712852,0 1.195952,-0.0295 0.4831,-0.0353 0.86604,-0.10604 -0.32992,0.38294 -0.87782,0.54201 -0.54201,0.15907 -1.814549,0.15907 -0.0295,0 -0.135512,-0.006 -0.10015,-0.006 -0.176739,-0.006 v 0.78356 q 0,1.10759 0.0236,1.70262 0.0294,0.58914 0.0884,0.84248 h 0.695188 q 1.195952,0 1.796872,-0.18853 0.60093,-0.19442 0.93085,-0.64217 l -0.2062,1.20775 q -0.24155,0.0471 -0.55379,0.0707 -0.30636,0.0236 -0.64806,0.0236 -0.2769,0 -1.101692,-0.0118 -0.818908,-0.0118 -1.372699,-0.0118 z m -6.83996,-7.24057 q -0.0471,0.2769 -0.0707,0.87193 -0.0236,0.58915 -0.0236,1.61426 v 1.76154 q 0,0.77767 0.0118,1.30789 0.0177,0.52434 0.0471,0.73054 0.0471,0.30047 0.32403,0.40651 0.282779,0.10016 1.078129,0.10016 1.472862,0 2.279981,-0.88372 0.80713,-0.88961 0.80713,-2.50386 0,-1.69084 -0.84837,-2.60401 -0.84836,-0.91907 -2.40959,-0.91907 -0.32403,0 -0.618601,0.0295 -0.294579,0.0295 -0.577358,0.0884 z m -1.431618,7.24057 q 0.164959,-0.17674 0.229769,-0.81301 0.0707,-0.63628 0.0707,-2.72185 v -0.49488 q 0,-2.27409 -0.0707,-2.89858 -0.0648,-0.63039 -0.229769,-0.80713 h 0.877818 q 0.530231,0 1.419842,-0.0707 0.889608,-0.0707 1.260769,-0.0707 1.661379,0 2.6099,0.97798 0.94852,0.97208 0.94852,2.67471 0,1.97952 -1.137041,3.13424 -1.13705,1.14883 -3.087119,1.14883 -0.430069,0 -1.125259,-0.0295 -0.689301,-0.0295 -0.948521,-0.0295 z m -9.308471,-0.31224 v -1.31379 q 0.359379,0.59503 0.913181,0.91317 0.559678,0.31225 1.260758,0.31225 0.701082,0 1.137052,-0.4124 0.441859,-0.4124 0.441859,-1.05457 0,-0.50077 -0.294571,-0.88372 -0.294579,-0.38294 -0.995659,-0.75999 l -0.159059,-0.0884 q -2.03844,-1.11348 -2.03844,-2.26231 0,-0.88961 0.69519,-1.44929 0.69519,-0.56558 1.81456,-0.56558 0.359378,0 0.783558,0.0236 0.43008,0.0236 0.500772,0.0236 0.0236,0 0.0943,0.006 0.0766,0.006 0.129609,0.006 h 0.306361 v 1.25487 q -0.229772,-0.38295 -0.64217,-0.58325 -0.406512,-0.20031 -0.954411,-0.20031 -0.754099,0 -1.190069,0.32992 -0.43597,0.32993 -0.43597,0.8896 0,0.83071 1.596578,1.67317 l 0.0766,0.0353 q 1.001549,0.53023 1.431618,1.04867 0.43008,0.51846 0.43008,1.1724 0,0.97209 -0.80124,1.66138 -0.79534,0.68342 -1.961848,0.68342 -0.465421,0 -0.989762,-0.11194 -0.52434,-0.11194 -1.148828,-0.3476 z m -5.632201,0.31224 q 0.16496,-0.17674 0.229762,-0.81301 0.0707,-0.63628 0.0707,-2.72185 v -0.49488 q 0,-2.27409 -0.0707,-2.89858 -0.0648,-0.63039 -0.229762,-0.80713 h 0.74821 q 0.80123,0 1.81456,-0.0177 1.01922,-0.0177 1.2372,-0.0177 0.0118,0 0.0707,0.006 0.182639,0.006 0.353488,0.006 l 0.0943,1.13704 q -0.141398,-0.37116 -0.57147,-0.51844 -0.424188,-0.14729 -1.62604,-0.14729 h -0.671618 q -0.0589,0.25333 -0.0884,0.84248 -0.0236,0.58325 -0.0236,1.69084 v 0.40061 q 0.147281,0.0118 0.335809,0.0177 0.188532,0.006 0.60682,0.006 0.712861,0 1.195961,-0.0295 0.4831,-0.0353 0.86604,-0.10604 -0.32992,0.38294 -0.877819,0.54201 -0.54202,0.15907 -1.814571,0.15907 -0.0295,0 -0.135501,-0.006 -0.10015,-0.006 -0.176739,-0.006 v 0.78356 q 0,1.10759 0.0236,1.70262 0.0295,0.58914 0.0884,0.84248 h 0.69519 q 1.195959,0 1.796878,-0.18853 0.60093,-0.19442 0.930852,-0.64217 l -0.206201,1.20775 q -0.241551,0.0471 -0.553791,0.0707 -0.306358,0.0236 -0.64806,0.0236 -0.276899,0 -1.101698,-0.0118 -0.818912,-0.0118 -1.372701,-0.0118 z m -5.302295,-7.73545 h 1.637819 q -0.16496,0.17674 -0.23566,0.81302 -0.0648,0.63627 -0.0648,2.71006 v 0.49488 q 0,1.29612 0.02946,2.16216 0.02946,0.86604 0.08248,1.10759 0.11783,0.006 0.247441,0.0118 0.135504,0 0.388835,0 0.942628,0 1.449292,-0.18853 0.512556,-0.19441 0.830694,-0.65395 l -0.265116,1.20775 q -0.247441,0.0471 -0.553796,0.0707 -0.306353,0.0236 -0.653947,0.0236 -0.271008,0 -1.095806,-0.0118 -0.824802,-0.0118 -1.378596,-0.0118 H 68.59921 q 0.16496,-0.17674 0.229767,-0.81301 0.0707,-0.63628 0.0707,-2.72185 v -0.49488 q 0,-2.27409 -0.0707,-2.89858 -0.06481,-0.63039 -0.229767,-0.80713 z m -5.702908,3.93548 h 2.439053 l -1.137047,-3.11657 z m -2.686495,3.79997 q 0.547904,-0.65984 1.101699,-1.65549 0.553794,-0.99565 1.166503,-2.43316 0.512556,-1.19596 0.842475,-2.13859 0.335812,-0.94263 0.335812,-1.13116 0,-0.0943 -0.02357,-0.18263 -0.02358,-0.0943 -0.0707,-0.19442 h 1.496423 q 0.877824,2.92215 1.655492,4.93113 0.777672,2.00898 1.337355,2.80432 h -1.31968 l -1.213634,-3.35222 h -2.816106 l -0.518448,1.26666 -0.01177,0.0294 q -0.483097,1.16062 -0.483097,1.68495 0,0.0825 0.01177,0.17675 0.01767,0.0884 0.04713,0.19441 z m -3.817646,0 q 0.164959,-0.17674 0.229764,-0.81301 0.0707,-0.63628 0.0707,-2.72185 v -0.49488 q 0,-2.27409 -0.0707,-2.89858 -0.06481,-0.63039 -0.229764,-0.80713 h 0.382942 q 0.53612,0 1.331462,-0.053 0.801235,-0.053 1.072243,-0.053 1.119373,0 1.690841,0.52433 0.57736,0.52434 0.57736,1.54945 0,1.06046 -0.62449,1.73208 -0.624494,0.67163 -1.608363,0.67163 -0.353486,0 -0.659842,-0.0648 -0.30046,-0.0707 -0.547901,-0.20031 h 0.123719 q 0.983869,0 1.537666,-0.55379 0.559686,-0.5538 0.559686,-1.53767 0,-0.83069 -0.388834,-1.23131 -0.388837,-0.40651 -1.190072,-0.40651 -0.229765,0 -0.430075,0.0177 -0.200308,0.0118 -0.37705,0.0412 -0.05891,0.25333 -0.08837,1.15472 -0.02357,0.90139 -0.02357,2.43905 0,2.27999 0.06481,2.90448 0.0707,0.62449 0.235659,0.80123 z m -3.039984,0 q 0.16496,-0.17674 0.229767,-0.81301 0.0707,-0.63628 0.0707,-2.72185 v -0.49488 q 0,-2.27409 -0.0707,-2.89858 -0.06481,-0.63039 -0.229767,-0.80713 h 1.637819 q -0.16496,0.17085 -0.235657,0.78356 -0.0648,0.61271 -0.0648,2.60991 v 0.47131 0.46543 q 0,2.00308 0.0648,2.62168 0.0707,0.61271 0.235657,0.78356 z m -1.519988,-7.73545 -0.0707,1.65549 q -0.259223,-0.63038 -0.724646,-0.94852 -0.465423,-0.31813 -1.131157,-0.31813 -1.296115,0 -2.038435,0.85425 -0.73643,0.85426 -0.73643,2.35658 0,1.54945 0.807127,2.46851 0.813017,0.91906 2.168049,0.91906 0.642165,0 1.195959,-0.24744 0.559689,-0.24744 0.966194,-0.70697 -0.21209,0.84248 -0.95441,1.34914 -0.736431,0.50077 -1.773322,0.50077 -1.578904,0 -2.592231,-1.1017 -1.013325,-1.1017 -1.013325,-2.83378 0,-1.91471 1.089914,-2.99874 1.089916,-1.08991 3.010521,-1.08991 0.300464,0 0.895498,0.0707 0.600927,0.0707 0.901391,0.0707 z m -8.683975,7.73545 q 0.16496,-0.17674 0.229764,-0.81301 0.0707,-0.63628 0.0707,-2.72185 v -0.49488 q 0,-2.27409 -0.0707,-2.89858 -0.06481,-0.63039 -0.229764,-0.80713 h 1.637819 q -0.164963,0.17085 -0.235659,0.78356 -0.06481,0.61271 -0.06481,2.60991 v 0.47131 0.46543 q 0,2.00308 0.06481,2.62168 0.0707,0.61271 0.235659,0.78356 z m -7.169875,-6.81638 0.03535,3.89423 q 0.01177,1.40216 0.100153,2.00898 0.09426,0.60093 0.300464,0.91317 h -1.402161 q 0.235659,-0.30046 0.341704,-1.39037 0.106045,-1.09581 0.106045,-3.19316 0,-1.8558 -0.100153,-2.4096 -0.09426,-0.55968 -0.347596,-0.74232 h 1.254876 q 0.341704,0 0.759994,0.63628 0.106045,0.16496 0.170852,0.25922 0.341705,0.50077 1.054569,1.5848 1.6496,2.51564 2.651143,3.88245 l 0.01177,-3.38168 q 0,-1.62604 -0.0707,-2.19751 -0.0707,-0.57736 -0.247441,-0.78356 h 1.148831 q -0.176744,0.16496 -0.247441,0.88372 -0.06481,0.71286 -0.06481,2.89269 v 1.54356 2.45083 H 40.65022 q -0.400619,-0.63627 -1.997197,-2.94571 -1.596578,-2.30945 -2.67471,-3.90602 z m -3.546641,6.81638 0.03535,-1.13704 q -0.37705,0.6186 -1.02511,0.95441 -0.648057,0.32992 -1.472858,0.32992 -1.278441,0 -1.873475,-0.6186 -0.589143,-0.62449 -0.589143,-1.96774 0,-0.35938 0.0059,-0.83658 0.0059,-0.4831 0.0059,-0.59504 0,-2.38014 -0.0707,-3.02819 -0.06481,-0.65395 -0.229766,-0.83659 h 1.637818 q -0.176742,0.16496 -0.247438,0.91317 -0.06481,0.74232 -0.06481,3.27564 0,1.8558 0.41829,2.45084 0.418294,0.58914 1.466967,0.58914 1.072242,0 1.519991,-0.73643 0.453642,-0.73643 0.453642,-2.62758 0,-2.38603 -0.06481,-3.03409 -0.06481,-0.65395 -0.235659,-0.83069 h 1.655493 q -0.176742,0.17674 -0.247441,0.83069 -0.06481,0.64806 -0.06481,3.03409 0,2.38603 0.06481,3.03998 0.0707,0.65395 0.247441,0.83069 z m -10.952178,0.17086 -2.786649,-7.18166 -0.02357,5.27283 v 0.37705 q 0,0.54791 0.06481,0.84248 0.06481,0.29457 0.212092,0.51844 h -1.372704 q 0.341703,-0.30046 0.49488,-1.9206 0.153178,-1.62604 0.153178,-4.96648 0,-0.30636 -0.0707,-0.49488 -0.06481,-0.18853 -0.229765,-0.35349 h 1.349138 q 0.16496,0 0.217983,0.0471 0.05302,0.0412 0.100154,0.17085 l 2.179831,5.82663 2.427271,-5.76771 q 0.0648,-0.16496 0.141394,-0.21798 0.08248,-0.0589 0.259223,-0.0589 h 1.178287 q -0.153177,0.20031 -0.223875,0.63628 -0.06481,0.43007 -0.06481,1.24898 0,3.0282 0.12372,4.24183 0.129611,1.20775 0.441857,1.60836 h -1.77332 q 0.170851,-0.25922 0.241549,-0.64216 0.07659,-0.38884 0.07659,-1.10759 0,-0.006 -0.0059,-0.0766 -0.01178,-0.45953 -0.02357,-0.9662 l -0.0707,-4.21826 z M 157.94868,168.78033 v -1.31379 q 0.35938,0.59504 0.91318,0.91317 0.55968,0.31225 1.26076,0.31225 0.70108,0 1.13705,-0.4124 0.44186,-0.4124 0.44186,-1.05457 0,-0.50077 -0.29458,-0.88371 -0.29457,-0.38294 -0.99565,-0.76 l -0.15907,-0.0884 q -2.03843,-1.11348 -2.03843,-2.26231 0,-0.88961 0.69519,-1.44929 0.69519,-0.56558 1.81456,-0.56558 0.35938,0 0.78356,0.0236 0.43007,0.0236 0.50077,0.0236 0.0236,0 0.0943,0.006 0.0766,0.006 0.12961,0.006 h 0.30636 v 1.25487 q -0.22977,-0.38294 -0.64217,-0.58325 -0.40651,-0.20031 -0.95441,-0.20031 -0.7541,0 -1.19007,0.32992 -0.43597,0.32992 -0.43597,0.88961 0,0.83069 1.59658,1.67316 l 0.0766,0.0354 q 1.00154,0.53024 1.43162,1.04868 0.43007,0.51844 0.43007,1.17239 0,0.97209 -0.80123,1.66139 -0.79534,0.6834 -1.96185,0.6834 -0.46542,0 -0.98976,-0.11193 -0.52434,-0.11194 -1.14883,-0.3476 z m -5.63221,0.31225 q 0.16496,-0.17675 0.22976,-0.81302 0.0707,-0.63627 0.0707,-2.72184 v -0.49488 q 0,-2.2741 -0.0707,-2.89859 -0.0648,-0.63038 -0.22976,-0.80712 h 0.74821 q 0.80123,0 1.81456,-0.0177 1.01922,-0.0177 1.2372,-0.0177 0.0118,0 0.0707,0.006 0.18264,0.006 0.35349,0.006 l 0.0943,1.13705 q -0.1414,-0.37116 -0.57147,-0.51845 -0.42418,-0.14729 -1.62604,-0.14729 h -0.67162 q -0.0589,0.25334 -0.0884,0.84248 -0.0236,0.58325 -0.0236,1.69084 v 0.40062 q 0.14729,0.0118 0.33581,0.0177 0.18853,0.006 0.60682,0.006 0.71286,0 1.19596,-0.0294 0.4831,-0.0354 0.86604,-0.10605 -0.32992,0.38294 -0.87782,0.54201 -0.54202,0.15907 -1.81456,0.15907 -0.0295,0 -0.13551,-0.006 -0.10015,-0.006 -0.17674,-0.006 v 0.78356 q 0,1.10759 0.0236,1.70262 0.0295,0.58915 0.0884,0.84248 h 0.69519 q 1.19596,0 1.79689,-0.18853 0.60092,-0.19441 0.93084,-0.64216 l -0.2062,1.20774 q -0.24155,0.0471 -0.55379,0.0707 -0.30636,0.0236 -0.64806,0.0236 -0.2769,0 -1.1017,-0.0118 -0.81891,-0.0118 -1.3727,-0.0118 z m -7.16988,-6.81639 0.0353,3.89424 q 0.0118,1.40216 0.10016,2.00898 0.0943,0.60092 0.30046,0.91317 h -1.40216 q 0.23566,-0.30047 0.3417,-1.39038 0.10605,-1.09581 0.10605,-3.19316 0,-1.8558 -0.10016,-2.40959 -0.0943,-0.55969 -0.34759,-0.74232 h 1.25487 q 0.34171,0 0.76,0.63627 0.10604,0.16496 0.17085,0.25922 0.3417,0.50077 1.05457,1.5848 1.6496,2.51564 2.65114,3.88245 l 0.0118,-3.38168 q 0,-1.62604 -0.0707,-2.1975 -0.0707,-0.57736 -0.24743,-0.78356 h 1.14882 q -0.17673,0.16496 -0.24744,0.88371 -0.0648,0.71286 -0.0648,2.89269 v 1.54356 2.45084 h -0.78356 q -0.40062,-0.63628 -1.9972,-2.94572 -1.59658,-2.30944 -2.67471,-3.90602 z m -5.52027,6.38042 q 1.1017,0 1.72619,-0.84836 0.63039,-0.85426 0.63039,-2.37425 0,-1.71441 -0.67163,-2.69239 -0.67162,-0.98387 -1.83812,-0.98387 -1.20186,0 -1.87348,0.86604 -0.67162,0.86604 -0.67162,2.42727 0,1.70852 0.70697,2.65704 0.71286,0.94852 1.9913,0.94852 z m -0.37116,0.58325 q -1.70262,0 -2.62758,-1.00154 -0.91906,-1.00744 -0.91906,-2.86324 0,-2.02076 1.00154,-3.08711 1.00155,-1.07224 2.8927,-1.07224 1.7851,0 2.68649,0.95441 0.90139,0.94852 0.90139,2.83378 0,1.9265 -1.07224,3.08122 -1.07224,1.15472 -2.86324,1.15472 z m -6.33329,-0.14728 q 0.16496,-0.17675 0.22977,-0.81302 0.0707,-0.63627 0.0707,-2.72184 v -0.49488 q 0,-2.2741 -0.0707,-2.89859 -0.0648,-0.63038 -0.22977,-0.80712 h 1.63782 q -0.16496,0.17085 -0.23565,0.78356 -0.0648,0.6127 -0.0648,2.6099 v 0.47132 0.46542 q 0,2.00309 0.0648,2.62169 0.0707,0.61271 0.23565,0.78356 z m -1.52,-7.73545 -0.0707,1.65549 q -0.25922,-0.63039 -0.72464,-0.94852 -0.46543,-0.31814 -1.13116,-0.31814 -1.29611,0 -2.03843,0.85426 -0.73643,0.85426 -0.73643,2.35657 0,1.54945 0.80712,2.46851 0.81302,0.91907 2.16805,0.91907 0.64217,0 1.19596,-0.24744 0.55969,-0.24744 0.9662,-0.70698 -0.21209,0.84248 -0.95441,1.34914 -0.73643,0.50077 -1.77333,0.50077 -1.5789,0 -2.59223,-1.10169 -1.01332,-1.1017 -1.01332,-2.83378 0,-1.91472 1.08991,-2.99874 1.08992,-1.08992 3.01052,-1.08992 0.30047,0 0.8955,0.0707 0.60093,0.0707 0.90139,0.0707 z m -11.33511,3.93547 h 2.43905 l -1.13704,-3.11657 z m -2.68649,3.79998 q 0.5479,-0.65984 1.10169,-1.6555 0.5538,-0.99565 1.16651,-2.43316 0.51255,-1.19596 0.84247,-2.13859 0.33581,-0.94263 0.33581,-1.13115 0,-0.0943 -0.0236,-0.18264 -0.0236,-0.0943 -0.0707,-0.19441 h 1.49643 q 0.87782,2.92215 1.65549,4.93113 0.77767,2.00897 1.33736,2.80432 h -1.31968 l -1.21364,-3.35223 h -2.8161 l -0.51845,1.26666 -0.0118,0.0295 q -0.4831,1.16061 -0.4831,1.68495 0,0.0825 0.0118,0.17674 0.0177,0.0884 0.0471,0.19442 z m -1.96774,0 q 0.16496,-0.17675 0.22976,-0.81302 0.0707,-0.63627 0.0707,-2.72184 v -0.49488 q 0,-2.2741 -0.0707,-2.89859 -0.0648,-0.63038 -0.22976,-0.80712 h 1.63782 q -0.16496,0.17085 -0.23566,0.78356 -0.0648,0.6127 -0.0648,2.6099 v 0.47132 0.46542 q 0,2.00309 0.0648,2.62169 0.0707,0.61271 0.23566,0.78356 z m -1.51999,-7.73545 -0.0707,1.65549 q -0.25923,-0.63039 -0.72465,-0.94852 -0.46542,-0.31814 -1.13116,-0.31814 -1.29611,0 -2.03843,0.85426 -0.73643,0.85426 -0.73643,2.35657 0,1.54945 0.80713,2.46851 0.81301,0.91907 2.16804,0.91907 0.64217,0 1.19596,-0.24744 0.55969,-0.24744 0.9662,-0.70698 -0.21209,0.84248 -0.95441,1.34914 -0.73643,0.50077 -1.77332,0.50077 -1.57891,0 -2.59224,-1.10169 -1.01332,-1.1017 -1.01332,-2.83378 0,-1.91472 1.08991,-2.99874 1.08992,-1.08992 3.01053,-1.08992 0.30046,0 0.89549,0.0707 0.60093,0.0707 0.90139,0.0707 z m -10.34536,7.29948 q 1.1017,0 1.72619,-0.84836 0.63038,-0.85426 0.63038,-2.37425 0,-1.71441 -0.67162,-2.69239 -0.67163,-0.98387 -1.83813,-0.98387 -1.20185,0 -1.87348,0.86604 -0.67162,0.86604 -0.67162,2.42727 0,1.70852 0.70697,2.65704 0.71287,0.94852 1.99131,0.94852 z m -0.37116,0.58325 q -1.70263,0 -2.62758,-1.00154 -0.919066,-1.00744 -0.919066,-2.86324 0,-2.02076 1.001546,-3.08711 1.00154,-1.07224 2.89269,-1.07224 1.78511,0 2.6865,0.95441 0.90138,0.94852 0.90138,2.83378 0,1.9265 -1.07224,3.08122 -1.07224,1.15472 -2.86323,1.15472 z m -9.443961,-0.45953 v -1.31379 q 0.35937,0.59504 0.913169,0.91317 0.559692,0.31225 1.260772,0.31225 0.701079,0 1.137039,-0.4124 0.441859,-0.4124 0.441859,-1.05457 0,-0.50077 -0.294569,-0.88371 -0.294571,-0.38294 -0.99565,-0.76 l -0.159071,-0.0884 q -2.03844,-1.11348 -2.03844,-2.26231 0,-0.88961 0.69519,-1.44929 0.695191,-0.56558 1.814561,-0.56558 0.359381,0 0.783561,0.0236 0.43008,0.0236 0.500768,0.0236 0.0236,0 0.0943,0.006 0.0766,0.006 0.129611,0.006 h 0.306349 v 1.25487 q -0.229759,-0.38294 -0.64216,-0.58325 -0.406508,-0.20031 -0.95441,-0.20031 -0.75411,0 -1.190069,0.32992 -0.43597,0.32992 -0.43597,0.88961 0,0.83069 1.59658,1.67316 l 0.0766,0.0354 q 1.00154,0.53024 1.43162,1.04868 0.43007,0.51844 0.43007,1.17239 0,0.97209 -0.80123,1.66139 -0.79535,0.6834 -1.961851,0.6834 -0.465428,0 -0.989758,-0.11193 -0.524341,-0.11194 -1.148832,-0.3476 z m -5.337641,-3.48773 h 2.439051 l -1.137039,-3.11657 z m -2.686489,3.79998 q 0.547899,-0.65984 1.101701,-1.6555 0.553789,-0.99565 1.1665,-2.43316 0.512548,-1.19596 0.842468,-2.13859 0.33582,-0.94263 0.33582,-1.13115 0,-0.0943 -0.0236,-0.18264 -0.0236,-0.0943 -0.0707,-0.19441 h 1.496419 q 0.877819,2.92215 1.65549,4.93113 0.777669,2.00897 1.337361,2.80432 h -1.319681 l -1.213641,-3.35223 h -2.816101 l -0.518448,1.26666 -0.0118,0.0295 q -0.4831,1.16061 -0.4831,1.68495 0,0.0825 0.0118,0.17674 0.0177,0.0884 0.0471,0.19442 z m -8.071271,0 q 0.16496,-0.17675 0.229772,-0.81302 0.0707,-0.63627 0.0707,-2.72184 v -0.49488 q 0,-2.2741 -0.0707,-2.89859 -0.0648,-0.63038 -0.229772,-0.80712 h 0.74821 q 0.80124,0 1.81456,-0.0177 1.01922,-0.0177 1.2372,-0.0177 0.0118,0 0.0707,0.006 0.182639,0.006 0.353488,0.006 l 0.0943,1.13705 q -0.14139,-0.37116 -0.571468,-0.51845 -0.42418,-0.14729 -1.626031,-0.14729 h -0.671629 q -0.0589,0.25334 -0.0884,0.84248 -0.0236,0.58325 -0.0236,1.69084 v 0.40062 q 0.147291,0.0118 0.335809,0.0177 0.188532,0.006 0.60682,0.006 0.712861,0 1.195961,-0.0294 0.4831,-0.0354 0.86604,-0.10605 -0.32992,0.38294 -0.877819,0.54201 -0.542012,0.15907 -1.81456,0.15907 -0.0295,0 -0.135501,-0.006 -0.100161,-0.006 -0.17675,-0.006 v 0.78356 q 0,1.10759 0.0236,1.70262 0.0295,0.58915 0.0884,0.84248 h 0.69519 q 1.195959,0 1.796889,-0.18853 0.600929,-0.19441 0.930849,-0.64216 l -0.206198,1.20774 q -0.241551,0.0471 -0.553802,0.0707 -0.30635,0.0236 -0.64806,0.0236 -0.276889,0 -1.101698,-0.0118 -0.818902,-0.0118 -1.372701,-0.0118 z m -6.83995,-7.24057 q -0.04713,0.27689 -0.0707,0.87193 -0.02357,0.58914 -0.02357,1.61425 v 1.76154 q 0,0.77767 0.01177,1.3079 0.01767,0.52434 0.04713,0.73054 0.04713,0.30046 0.324028,0.4065 0.282789,0.10016 1.078134,0.10016 1.472859,0 2.279989,-0.88372 0.807119,-0.8896 0.807119,-2.50386 0,-1.69084 -0.84836,-2.60401 -0.84837,-0.91906 -2.4096,-0.91906 -0.32403,0 -0.618601,0.0294 -0.294571,0.0295 -0.57736,0.0884 z m -1.431618,7.24057 q 0.16496,-0.17675 0.229767,-0.81302 0.0707,-0.63627 0.0707,-2.72184 v -0.49488 q 0,-2.2741 -0.0707,-2.89859 -0.06481,-0.63038 -0.229767,-0.80712 h 0.877824 q 0.530227,0 1.419836,-0.0707 0.889606,-0.0707 1.260766,-0.0707 1.661382,0 2.609903,0.97798 0.948521,0.97209 0.948521,2.67471 0,1.97952 -1.137042,3.13424 -1.137049,1.14883 -3.087113,1.14883 -0.430075,0 -1.125265,-0.0294 -0.689298,-0.0295 -0.948521,-0.0295 z m -10.327685,-6.81639 0.03535,3.89424 q 0.01177,1.40216 0.100153,2.00898 0.09426,0.60092 0.300463,0.91317 h -1.402162 q 0.235656,-0.30047 0.341704,-1.39038 0.106045,-1.09581 0.106045,-3.19316 0,-1.8558 -0.100155,-2.40959 -0.09426,-0.55969 -0.347594,-0.74232 h 1.254876 q 0.341702,0 0.759995,0.63627 0.106045,0.16496 0.170852,0.25922 0.341701,0.50077 1.054566,1.5848 1.649603,2.51564 2.651146,3.88245 l 0.01177,-3.38168 q 0,-1.62604 -0.0707,-2.1975 -0.0707,-0.57736 -0.247441,-0.78356 h 1.148832 q -0.176744,0.16496 -0.247441,0.88371 -0.06481,0.71286 -0.06481,2.89269 v 1.54356 2.45084 h -0.783556 q -0.400616,-0.63628 -1.997196,-2.94572 -1.596578,-2.30944 -2.67471,-3.90602 z m -5.520275,6.38042 q 1.101699,0 1.72619,-0.84836 0.630383,-0.85426 0.630383,-2.37425 0,-1.71441 -0.671621,-2.69239 -0.671627,-0.98387 -1.83813,-0.98387 -1.201851,0 -1.873475,0.86604 -0.671623,0.86604 -0.671623,2.42727 0,1.70852 0.706972,2.65704 0.712861,0.94852 1.991304,0.94852 z m -0.37116,0.58325 q -1.702625,0 -2.62758,-1.00154 -0.919064,-1.00744 -0.919064,-2.86324 0,-2.02076 1.001546,-3.08711 1.001543,-1.07224 2.892692,-1.07224 1.785104,0 2.686494,0.95441 0.901391,0.94852 0.901391,2.83378 0,1.9265 -1.072243,3.08122 -1.07224,1.15472 -2.863236,1.15472 z m 0.618601,-10.7283 h 1.048674 q -0.483098,0.90139 -1.036892,1.40216 -0.553794,0.50078 -1.243092,0.65984 0.412398,-0.55379 0.718754,-1.07224 0.306356,-0.51844 0.512556,-0.98976 z m -6.95189,10.58102 q 0.16496,-0.17675 0.229764,-0.81302 0.0707,-0.63627 0.0707,-2.72184 v -0.49488 q 0,-2.2741 -0.0707,-2.89859 -0.06481,-0.63038 -0.229764,-0.80712 H 48.4505 q -0.164963,0.17085 -0.235659,0.78356 -0.06481,0.6127 -0.06481,2.6099 v 0.47132 0.46542 q 0,2.00309 0.06481,2.62169 0.0707,0.61271 0.235659,0.78356 z m -1.519994,-7.73545 -0.0707,1.65549 q -0.259223,-0.63039 -0.724646,-0.94852 -0.465424,-0.31814 -1.131158,-0.31814 -1.296114,0 -2.038434,0.85426 -0.736428,0.85426 -0.736428,2.35657 0,1.54945 0.807124,2.46851 0.813017,0.91907 2.168049,0.91907 0.642165,0 1.195962,-0.24744 0.559683,-0.24744 0.966194,-0.70698 -0.212092,0.84248 -0.954412,1.34914 -0.736428,0.50077 -1.773323,0.50077 -1.578903,0 -2.592231,-1.10169 -1.013325,-1.1017 -1.013325,-2.83378 0,-1.91472 1.089914,-2.99874 1.089917,-1.08992 3.010524,-1.08992 0.300461,0 0.895499,0.0707 0.600924,0.0707 0.901387,0.0707 z m -11.335118,3.93547 h 2.439054 l -1.137047,-3.11657 z m -2.686494,3.79998 q 0.547904,-0.65984 1.101698,-1.6555 0.553794,-0.99565 1.166503,-2.43316 0.512556,-1.19596 0.842476,-2.13859 0.335812,-0.94263 0.335812,-1.13115 0,-0.0943 -0.02357,-0.18264 -0.02357,-0.0943 -0.0707,-0.19441 h 1.496425 q 0.877824,2.92215 1.655493,4.93113 0.777671,2.00897 1.337355,2.80432 h -1.319681 l -1.213636,-3.35223 h -2.816103 l -0.518446,1.26666 -0.01177,0.0295 q -0.483097,1.16061 -0.483097,1.68495 0,0.0825 0.01177,0.17674 0.01767,0.0884 0.04713,0.19442 z m -4.942912,-7.73545 q 0.706972,0 1.578904,-0.0412 0.871932,-0.0412 1.042784,-0.0412 0.913172,0 1.384488,0.39472 0.471315,0.38884 0.471315,1.14883 0,0.74232 -0.465426,1.32557 -0.46542,0.57736 -1.366811,0.95442 l 1.726189,2.4037 q 0.430075,0.59504 0.789454,0.99565 0.365267,0.39473 0.653949,0.59504 H 31.00007 q -0.229767,0 -0.353486,-0.0589 -0.11783,-0.0648 -0.253331,-0.25333 l -2.062003,-2.89858 q -0.223875,-0.31814 -0.418291,-0.4183 -0.194418,-0.10015 -0.500771,-0.10015 h -0.09426 v 0.73643 q 0,1.77332 0.06481,2.29177 0.0707,0.51255 0.235656,0.70108 h -1.637818 q 0.16496,-0.17675 0.229766,-0.81302 0.0707,-0.63627 0.0707,-2.72184 v -0.49488 q 0,-2.2741 -0.0707,-2.89859 -0.06481,-0.63038 -0.229766,-0.80712 z m 0.989762,3.53486 q 0.106045,0.0236 0.229766,0.0353 0.123719,0.0118 0.276897,0.0118 0.877824,0 1.349137,-0.45953 0.471316,-0.45954 0.471316,-1.31379 0,-0.71287 -0.359378,-1.06046 -0.359379,-0.3476 -1.095807,-0.3476 -0.288679,0 -0.453638,0.0118 -0.159071,0.006 -0.306356,0.0236 -0.05891,0.25922 -0.08837,0.8248 -0.02357,0.55969 -0.02357,1.59069 v 0.12961 z m -7.323054,4.20059 q 0.164961,-0.17675 0.229766,-0.81302 0.0707,-0.63627 0.0707,-2.72184 v -0.49488 q 0,-2.2741 -0.0707,-2.89859 -0.06481,-0.63038 -0.229766,-0.80712 h 0.748213 q 0.801235,0 1.814561,-0.0177 1.019218,-0.0177 1.237201,-0.0177 0.01178,0 0.0707,0.006 0.182634,0.006 0.353486,0.006 l 0.09426,1.13705 q -0.141394,-0.37116 -0.571469,-0.51845 -0.424183,-0.14729 -1.626035,-0.14729 h -0.671624 q -0.05891,0.25334 -0.08837,0.84248 -0.02357,0.58325 -0.02357,1.69084 v 0.40062 q 0.147286,0.0118 0.335812,0.0177 0.188526,0.006 0.606817,0.006 0.712864,0 1.195961,-0.0294 0.483098,-0.0354 0.866041,-0.10605 -0.32992,0.38294 -0.877823,0.54201 -0.542012,0.15907 -1.814562,0.15907 -0.02946,0 -0.135503,-0.006 -0.100154,-0.006 -0.176743,-0.006 v 0.78356 q 0,1.10759 0.02357,1.70262 0.02946,0.58915 0.08837,0.84248 h 0.695189 q 1.195961,0 1.796888,-0.18853 0.600926,-0.19441 0.930846,-0.64216 l -0.2062,1.20774 q -0.241549,0.0471 -0.553795,0.0707 -0.306354,0.0236 -0.648057,0.0236 -0.276898,0 -1.101699,-0.0118 -0.818909,-0.0118 -1.372704,-0.0118 z m -6.839955,-7.24057 q -0.04713,0.27689 -0.0707,0.87193 -0.02357,0.58914 -0.02357,1.61425 v 1.76154 q 0,0.77767 0.01178,1.3079 0.01767,0.52434 0.04713,0.73054 0.04713,0.30046 0.324029,0.4065 0.282789,0.10016 1.078133,0.10016 1.472858,0 2.279984,-0.88372 0.807128,-0.8896 0.807128,-2.50386 0,-1.69084 -0.848368,-2.60401 -0.848366,-0.91906 -2.409595,-0.91906 -0.32403,0 -0.618602,0.0294 -0.294571,0.0295 -0.57736,0.0884 z m -1.431619,7.24057 q 0.164961,-0.17675 0.229766,-0.81302 0.0707,-0.63627 0.0707,-2.72184 v -0.49488 q 0,-2.2741 -0.0707,-2.89859 -0.06481,-0.63038 -0.229766,-0.80712 h 0.877824 q 0.530229,0 1.419836,-0.0707 0.889606,-0.0707 1.260767,-0.0707 1.661384,0 2.609905,0.97798 0.948521,0.97209 0.948521,2.67471 0,1.97952 -1.137047,3.13424 -1.137047,1.14883 -3.087112,1.14883 -0.430074,0 -1.125263,-0.0294 -0.689298,-0.0295 -0.948521,-0.0295 z m -5.9856967,0 q 0.1649601,-0.17675 0.229766,-0.81302 0.0707,-0.63627 0.0707,-2.72184 v -0.49488 q 0,-2.2741 -0.0707,-2.89859 -0.06481,-0.63038 -0.229766,-0.80712 h 0.7482121 q 0.8012348,0 1.8145619,-0.0177 1.0192183,-0.0177 1.2372013,-0.0177 0.01178,0 0.0707,0.006 0.1826352,0.006 0.3534862,0.006 l 0.09426,1.13705 Q 9.9146278,162.09963 9.4845526,161.95234 9.0603693,161.80505 7.8585162,161.80505 H 7.1868934 q -0.05891,0.25334 -0.08837,0.84248 -0.023569,0.58325 -0.023569,1.69084 v 0.40062 q 0.1472851,0.0118 0.3358111,0.0177 0.1885259,0.006 0.6068181,0.006 0.712864,0 1.1959609,-0.0294 0.4830983,-0.0354 0.8660415,-0.10605 -0.3299202,0.38294 -0.8778245,0.54201 -0.5420119,0.15907 -1.8145609,0.15907 -0.02946,0 -0.1355032,-0.006 -0.1001548,-0.006 -0.176743,-0.006 v 0.78356 q 0,1.10759 0.023569,1.70262 0.02946,0.58915 0.08837,0.84248 h 0.695189 q 1.1959608,0 1.7968874,-0.18853 0.6009272,-0.19441 0.9308472,-0.64216 l -0.2062,1.20774 q -0.241549,0.0471 -0.5537952,0.0707 -0.3063552,0.0236 -0.6480586,0.0236 -0.2768968,0 -1.101698,-0.0118 -0.818909,-0.0118 -1.3727039,-0.0118 z m -3.9649331,-4.17703 q 0.37116,0.0236 0.67162,0.0353 0.30046,0.006 0.5479,0.006 0.459537,0 0.8719369,-0.0353 0.4182922,-0.0412 0.81891,-0.11193 -0.2474409,0.38883 -0.7305378,0.5479 -0.477206,0.15318 -1.7320791,0.15318 h -0.44775 v 0.58914 q 0,1.77332 0.0648,2.29177 0.0707,0.51255 0.23566,0.70108 H 0.43530722 q 0.16496,-0.17675 0.22976999,-0.81302 0.0707,-0.63627 0.0707,-2.72184 v -0.49488 q 0,-2.2741 -0.0707,-2.89859 -0.0648,-0.63038 -0.22976999,-0.80712 H 1.2659972 q 0.24745,0 0.98977,-0.0177 0.74232,-0.0177 1.243088,-0.0177 0.400618,0 0.7246472,0.0177 0.3240288,0.0177 0.5773599,0.053 l 0.04713,1.00155 q -0.176743,-0.32992 -0.6303841,-0.46543 -0.447749,-0.1355 -1.443401,-0.1355 -0.22387,0 -0.44186,0.0118 -0.21798,0.006 -0.44774,0.0236 -0.0589,0.27101 -0.0884,0.85426 -0.0236,0.57736 -0.0236,1.65549 z"
     style="fill:#000000;"
     id="federacion" />
</svg>
